<?xml version="1.0" encoding="utf-8"?>
<svg xmlns="http://www.w3.org/2000/svg" xmlns:xlink="http://www.w3.org/1999/xlink" width="600" height="400" viewBox="0 0 2400 1600">
<defs>
  <clipPath id="clip710">
    <rect x="0" y="0" width="2400" height="1600"/>
  </clipPath>
</defs>
<path clip-path="url(#clip710)" d="
M0 1600 L2400 1600 L2400 0 L0 0  Z
  " fill="#ffffff" fill-rule="evenodd" fill-opacity="1"/>
<defs>
  <clipPath id="clip711">
    <rect x="480" y="0" width="1681" height="1600"/>
  </clipPath>
</defs>
<path clip-path="url(#clip710)" d="
M147.478 1486.45 L1866.95 1486.45 L1866.95 123.472 L147.478 123.472  Z
  " fill="#ffffff" fill-rule="evenodd" fill-opacity="1"/>
<defs>
  <clipPath id="clip712">
    <rect x="147" y="123" width="1720" height="1364"/>
  </clipPath>
</defs>
<polyline clip-path="url(#clip712)" style="stroke:#000000; stroke-linecap:butt; stroke-linejoin:round; stroke-width:2; stroke-opacity:0.1; fill:none" points="
  383.312,1486.45 383.312,123.472 
  "/>
<polyline clip-path="url(#clip712)" style="stroke:#000000; stroke-linecap:butt; stroke-linejoin:round; stroke-width:2; stroke-opacity:0.1; fill:none" points="
  695.263,1486.45 695.263,123.472 
  "/>
<polyline clip-path="url(#clip712)" style="stroke:#000000; stroke-linecap:butt; stroke-linejoin:round; stroke-width:2; stroke-opacity:0.1; fill:none" points="
  1007.21,1486.45 1007.21,123.472 
  "/>
<polyline clip-path="url(#clip712)" style="stroke:#000000; stroke-linecap:butt; stroke-linejoin:round; stroke-width:2; stroke-opacity:0.1; fill:none" points="
  1319.16,1486.45 1319.16,123.472 
  "/>
<polyline clip-path="url(#clip712)" style="stroke:#000000; stroke-linecap:butt; stroke-linejoin:round; stroke-width:2; stroke-opacity:0.1; fill:none" points="
  1631.11,1486.45 1631.11,123.472 
  "/>
<polyline clip-path="url(#clip710)" style="stroke:#000000; stroke-linecap:butt; stroke-linejoin:round; stroke-width:4; stroke-opacity:1; fill:none" points="
  147.478,1486.45 1866.95,1486.45 
  "/>
<polyline clip-path="url(#clip710)" style="stroke:#000000; stroke-linecap:butt; stroke-linejoin:round; stroke-width:4; stroke-opacity:1; fill:none" points="
  383.312,1486.45 383.312,1467.55 
  "/>
<polyline clip-path="url(#clip710)" style="stroke:#000000; stroke-linecap:butt; stroke-linejoin:round; stroke-width:4; stroke-opacity:1; fill:none" points="
  695.263,1486.45 695.263,1467.55 
  "/>
<polyline clip-path="url(#clip710)" style="stroke:#000000; stroke-linecap:butt; stroke-linejoin:round; stroke-width:4; stroke-opacity:1; fill:none" points="
  1007.21,1486.45 1007.21,1467.55 
  "/>
<polyline clip-path="url(#clip710)" style="stroke:#000000; stroke-linecap:butt; stroke-linejoin:round; stroke-width:4; stroke-opacity:1; fill:none" points="
  1319.16,1486.45 1319.16,1467.55 
  "/>
<polyline clip-path="url(#clip710)" style="stroke:#000000; stroke-linecap:butt; stroke-linejoin:round; stroke-width:4; stroke-opacity:1; fill:none" points="
  1631.11,1486.45 1631.11,1467.55 
  "/>
<path clip-path="url(#clip710)" d="M352.213 1532.02 L381.889 1532.02 L381.889 1535.95 L352.213 1535.95 L352.213 1532.02 Z" fill="#000000" fill-rule="evenodd" fill-opacity="1" /><path clip-path="url(#clip710)" d="M404.828 1518.36 L393.023 1536.81 L404.828 1536.81 L404.828 1518.36 M403.602 1514.29 L409.481 1514.29 L409.481 1536.81 L414.412 1536.81 L414.412 1540.7 L409.481 1540.7 L409.481 1548.85 L404.828 1548.85 L404.828 1540.7 L389.227 1540.7 L389.227 1536.19 L403.602 1514.29 Z" fill="#000000" fill-rule="evenodd" fill-opacity="1" /><path clip-path="url(#clip710)" d="M665.205 1532.02 L694.881 1532.02 L694.881 1535.95 L665.205 1535.95 L665.205 1532.02 Z" fill="#000000" fill-rule="evenodd" fill-opacity="1" /><path clip-path="url(#clip710)" d="M709.001 1544.91 L725.32 1544.91 L725.32 1548.85 L703.376 1548.85 L703.376 1544.91 Q706.038 1542.16 710.621 1537.53 Q715.228 1532.88 716.408 1531.53 Q718.654 1529.01 719.533 1527.27 Q720.436 1525.51 720.436 1523.82 Q720.436 1521.07 718.492 1519.33 Q716.57 1517.6 713.469 1517.6 Q711.27 1517.6 708.816 1518.36 Q706.385 1519.13 703.608 1520.68 L703.608 1515.95 Q706.432 1514.82 708.885 1514.24 Q711.339 1513.66 713.376 1513.66 Q718.746 1513.66 721.941 1516.35 Q725.135 1519.03 725.135 1523.52 Q725.135 1525.65 724.325 1527.57 Q723.538 1529.47 721.432 1532.07 Q720.853 1532.74 717.751 1535.95 Q714.649 1539.15 709.001 1544.91 Z" fill="#000000" fill-rule="evenodd" fill-opacity="1" /><path clip-path="url(#clip710)" d="M1007.21 1517.37 Q1003.6 1517.37 1001.77 1520.93 Q999.968 1524.47 999.968 1531.6 Q999.968 1538.71 1001.77 1542.27 Q1003.6 1545.82 1007.21 1545.82 Q1010.85 1545.82 1012.65 1542.27 Q1014.48 1538.71 1014.48 1531.6 Q1014.48 1524.47 1012.65 1520.93 Q1010.85 1517.37 1007.21 1517.37 M1007.21 1513.66 Q1013.02 1513.66 1016.08 1518.27 Q1019.16 1522.85 1019.16 1531.6 Q1019.16 1540.33 1016.08 1544.94 Q1013.02 1549.52 1007.21 1549.52 Q1001.4 1549.52 998.324 1544.94 Q995.269 1540.33 995.269 1531.6 Q995.269 1522.85 998.324 1518.27 Q1001.4 1513.66 1007.21 1513.66 Z" fill="#000000" fill-rule="evenodd" fill-opacity="1" /><path clip-path="url(#clip710)" d="M1313.82 1544.91 L1330.14 1544.91 L1330.14 1548.85 L1308.19 1548.85 L1308.19 1544.91 Q1310.85 1542.16 1315.44 1537.53 Q1320.04 1532.88 1321.22 1531.53 Q1323.47 1529.01 1324.35 1527.27 Q1325.25 1525.51 1325.25 1523.82 Q1325.25 1521.07 1323.31 1519.33 Q1321.39 1517.6 1318.28 1517.6 Q1316.08 1517.6 1313.63 1518.36 Q1311.2 1519.13 1308.42 1520.68 L1308.42 1515.95 Q1311.25 1514.82 1313.7 1514.24 Q1316.15 1513.66 1318.19 1513.66 Q1323.56 1513.66 1326.76 1516.35 Q1329.95 1519.03 1329.95 1523.52 Q1329.95 1525.65 1329.14 1527.57 Q1328.35 1529.47 1326.25 1532.07 Q1325.67 1532.74 1322.57 1535.95 Q1319.46 1539.15 1313.82 1544.91 Z" fill="#000000" fill-rule="evenodd" fill-opacity="1" /><path clip-path="url(#clip710)" d="M1634.12 1518.36 L1622.32 1536.81 L1634.12 1536.81 L1634.12 1518.36 M1632.9 1514.29 L1638.78 1514.29 L1638.78 1536.81 L1643.71 1536.81 L1643.71 1540.7 L1638.78 1540.7 L1638.78 1548.85 L1634.12 1548.85 L1634.12 1540.7 L1618.52 1540.7 L1618.52 1536.19 L1632.9 1514.29 Z" fill="#000000" fill-rule="evenodd" fill-opacity="1" /><polyline clip-path="url(#clip712)" style="stroke:#000000; stroke-linecap:butt; stroke-linejoin:round; stroke-width:2; stroke-opacity:0.1; fill:none" points="
  147.478,1447.87 1866.95,1447.87 
  "/>
<polyline clip-path="url(#clip712)" style="stroke:#000000; stroke-linecap:butt; stroke-linejoin:round; stroke-width:2; stroke-opacity:0.1; fill:none" points="
  147.478,1019.26 1866.95,1019.26 
  "/>
<polyline clip-path="url(#clip712)" style="stroke:#000000; stroke-linecap:butt; stroke-linejoin:round; stroke-width:2; stroke-opacity:0.1; fill:none" points="
  147.478,590.656 1866.95,590.656 
  "/>
<polyline clip-path="url(#clip712)" style="stroke:#000000; stroke-linecap:butt; stroke-linejoin:round; stroke-width:2; stroke-opacity:0.1; fill:none" points="
  147.478,162.047 1866.95,162.047 
  "/>
<polyline clip-path="url(#clip710)" style="stroke:#000000; stroke-linecap:butt; stroke-linejoin:round; stroke-width:4; stroke-opacity:1; fill:none" points="
  147.478,1486.45 147.478,123.472 
  "/>
<polyline clip-path="url(#clip710)" style="stroke:#000000; stroke-linecap:butt; stroke-linejoin:round; stroke-width:4; stroke-opacity:1; fill:none" points="
  147.478,1447.87 162.213,1447.87 
  "/>
<polyline clip-path="url(#clip710)" style="stroke:#000000; stroke-linecap:butt; stroke-linejoin:round; stroke-width:4; stroke-opacity:1; fill:none" points="
  147.478,1019.26 162.213,1019.26 
  "/>
<polyline clip-path="url(#clip710)" style="stroke:#000000; stroke-linecap:butt; stroke-linejoin:round; stroke-width:4; stroke-opacity:1; fill:none" points="
  147.478,590.656 162.213,590.656 
  "/>
<polyline clip-path="url(#clip710)" style="stroke:#000000; stroke-linecap:butt; stroke-linejoin:round; stroke-width:4; stroke-opacity:1; fill:none" points="
  147.478,162.047 162.213,162.047 
  "/>
<path clip-path="url(#clip710)" d="M50.9921 1448.32 L80.6679 1448.32 L80.6679 1452.26 L50.9921 1452.26 L50.9921 1448.32 Z" fill="#000000" fill-rule="evenodd" fill-opacity="1" /><path clip-path="url(#clip710)" d="M91.5706 1461.22 L99.2095 1461.22 L99.2095 1434.85 L90.8993 1436.52 L90.8993 1432.26 L99.1632 1430.59 L103.839 1430.59 L103.839 1461.22 L111.478 1461.22 L111.478 1465.15 L91.5706 1465.15 L91.5706 1461.22 Z" fill="#000000" fill-rule="evenodd" fill-opacity="1" /><path clip-path="url(#clip710)" d="M99.5335 1005.06 Q95.9224 1005.06 94.0937 1008.63 Q92.2882 1012.17 92.2882 1019.3 Q92.2882 1026.41 94.0937 1029.97 Q95.9224 1033.51 99.5335 1033.51 Q103.168 1033.51 104.973 1029.97 Q106.802 1026.41 106.802 1019.3 Q106.802 1012.17 104.973 1008.63 Q103.168 1005.06 99.5335 1005.06 M99.5335 1001.36 Q105.344 1001.36 108.399 1005.97 Q111.478 1010.55 111.478 1019.3 Q111.478 1028.03 108.399 1032.63 Q105.344 1037.22 99.5335 1037.22 Q93.7234 1037.22 90.6447 1032.63 Q87.5892 1028.03 87.5892 1019.3 Q87.5892 1010.55 90.6447 1005.97 Q93.7234 1001.36 99.5335 1001.36 Z" fill="#000000" fill-rule="evenodd" fill-opacity="1" /><path clip-path="url(#clip710)" d="M91.5706 604 L99.2095 604 L99.2095 577.635 L90.8993 579.302 L90.8993 575.042 L99.1632 573.376 L103.839 573.376 L103.839 604 L111.478 604 L111.478 607.936 L91.5706 607.936 L91.5706 604 Z" fill="#000000" fill-rule="evenodd" fill-opacity="1" /><path clip-path="url(#clip710)" d="M95.1586 175.392 L111.478 175.392 L111.478 179.327 L89.5336 179.327 L89.5336 175.392 Q92.1956 172.637 96.7789 168.008 Q101.385 163.355 102.566 162.012 Q104.811 159.489 105.691 157.753 Q106.594 155.994 106.594 154.304 Q106.594 151.549 104.649 149.813 Q102.728 148.077 99.6261 148.077 Q97.4271 148.077 94.9734 148.841 Q92.5428 149.605 89.7651 151.156 L89.7651 146.434 Q92.5891 145.299 95.0428 144.721 Q97.4965 144.142 99.5335 144.142 Q104.904 144.142 108.098 146.827 Q111.293 149.512 111.293 154.003 Q111.293 156.133 110.483 158.054 Q109.696 159.952 107.589 162.545 Q107.01 163.216 103.909 166.433 Q100.807 169.628 95.1586 175.392 Z" fill="#000000" fill-rule="evenodd" fill-opacity="1" /><path clip-path="url(#clip710)" d="M308.817 18.8205 L308.817 41.5461 L319.106 41.5461 Q324.818 41.5461 327.937 38.5889 Q331.056 35.6318 331.056 30.163 Q331.056 24.7348 327.937 21.7777 Q324.818 18.8205 319.106 18.8205 L308.817 18.8205 M300.634 12.096 L319.106 12.096 Q329.274 12.096 334.459 16.714 Q339.685 21.2916 339.685 30.163 Q339.685 39.1155 334.459 43.6931 Q329.274 48.2706 319.106 48.2706 L308.817 48.2706 L308.817 72.576 L300.634 72.576 L300.634 12.096 Z" fill="#000000" fill-rule="evenodd" fill-opacity="1" /><path clip-path="url(#clip710)" d="M375.171 34.1734 Q373.915 33.4443 372.416 33.1202 Q370.958 32.7556 369.175 32.7556 Q362.856 32.7556 359.453 36.8875 Q356.091 40.9789 356.091 48.6757 L356.091 72.576 L348.597 72.576 L348.597 27.2059 L356.091 27.2059 L356.091 34.2544 Q358.44 30.1225 362.208 28.1376 Q365.975 26.1121 371.363 26.1121 Q372.133 26.1121 373.064 26.2337 Q373.996 26.3147 375.13 26.5172 L375.171 34.1734 Z" fill="#000000" fill-rule="evenodd" fill-opacity="1" /><path clip-path="url(#clip710)" d="M398.747 32.4315 Q392.752 32.4315 389.268 37.1306 Q385.784 41.7891 385.784 49.9314 Q385.784 58.0738 389.227 62.7728 Q392.711 67.4314 398.747 67.4314 Q404.702 67.4314 408.186 62.7323 Q411.669 58.0333 411.669 49.9314 Q411.669 41.8701 408.186 37.1711 Q404.702 32.4315 398.747 32.4315 M398.747 26.1121 Q408.469 26.1121 414.019 32.4315 Q419.569 38.7509 419.569 49.9314 Q419.569 61.0714 414.019 67.4314 Q408.469 73.7508 398.747 73.7508 Q388.984 73.7508 383.435 67.4314 Q377.925 61.0714 377.925 49.9314 Q377.925 38.7509 383.435 32.4315 Q388.984 26.1121 398.747 26.1121 Z" fill="#000000" fill-rule="evenodd" fill-opacity="1" /><path clip-path="url(#clip710)" d="M464.493 49.9314 Q464.493 41.7081 461.09 37.0496 Q457.728 32.3505 451.814 32.3505 Q445.899 32.3505 442.497 37.0496 Q439.134 41.7081 439.134 49.9314 Q439.134 58.1548 442.497 62.8538 Q445.899 67.5124 451.814 67.5124 Q457.728 67.5124 461.09 62.8538 Q464.493 58.1548 464.493 49.9314 M439.134 34.0924 Q441.484 30.0415 445.049 28.0971 Q448.654 26.1121 453.637 26.1121 Q461.901 26.1121 467.045 32.6746 Q472.23 39.2371 472.23 49.9314 Q472.23 60.6258 467.045 67.1883 Q461.901 73.7508 453.637 73.7508 Q448.654 73.7508 445.049 71.8063 Q441.484 69.8214 439.134 65.7705 L439.134 72.576 L431.64 72.576 L431.64 9.54393 L439.134 9.54393 L439.134 34.0924 Z" fill="#000000" fill-rule="evenodd" fill-opacity="1" /><path clip-path="url(#clip710)" d="M484.586 9.54393 L492.039 9.54393 L492.039 72.576 L484.586 72.576 L484.586 9.54393 Z" fill="#000000" fill-rule="evenodd" fill-opacity="1" /><path clip-path="url(#clip710)" d="M546.443 48.0275 L546.443 51.6733 L512.172 51.6733 Q512.658 59.3701 516.79 63.421 Q520.963 67.4314 528.376 67.4314 Q532.67 67.4314 536.68 66.3781 Q540.731 65.3249 544.701 63.2184 L544.701 70.267 Q540.691 71.9684 536.478 72.8596 Q532.265 73.7508 527.93 73.7508 Q517.074 73.7508 510.714 67.4314 Q504.395 61.1119 504.395 50.3365 Q504.395 39.1965 510.39 32.6746 Q516.426 26.1121 526.634 26.1121 Q535.789 26.1121 541.096 32.0264 Q546.443 37.9003 546.443 48.0275 M538.989 45.84 Q538.908 39.7232 535.546 36.0774 Q532.224 32.4315 526.715 32.4315 Q520.477 32.4315 516.709 35.9558 Q512.982 39.4801 512.415 45.8805 L538.989 45.84 Z" fill="#000000" fill-rule="evenodd" fill-opacity="1" /><path clip-path="url(#clip710)" d="M594.001 35.9153 Q596.796 30.8922 600.685 28.5022 Q604.573 26.1121 609.84 26.1121 Q616.929 26.1121 620.777 31.0947 Q624.625 36.0368 624.625 45.1919 L624.625 72.576 L617.131 72.576 L617.131 45.4349 Q617.131 38.913 614.822 35.7533 Q612.513 32.5936 607.774 32.5936 Q601.981 32.5936 598.619 36.4419 Q595.256 40.2903 595.256 46.9338 L595.256 72.576 L587.762 72.576 L587.762 45.4349 Q587.762 38.8725 585.453 35.7533 Q583.144 32.5936 578.324 32.5936 Q572.612 32.5936 569.25 36.4824 Q565.887 40.3308 565.887 46.9338 L565.887 72.576 L558.393 72.576 L558.393 27.2059 L565.887 27.2059 L565.887 34.2544 Q568.439 30.082 572.004 28.0971 Q575.569 26.1121 580.471 26.1121 Q585.413 26.1121 588.856 28.6237 Q592.34 31.1352 594.001 35.9153 Z" fill="#000000" fill-rule="evenodd" fill-opacity="1" /><path clip-path="url(#clip710)" d="M668.335 65.6895 L681.703 65.6895 L681.703 19.5497 L667.16 22.4663 L667.16 15.0127 L681.622 12.096 L689.804 12.096 L689.804 65.6895 L703.172 65.6895 L703.172 72.576 L668.335 72.576 L668.335 65.6895 Z" fill="#000000" fill-rule="evenodd" fill-opacity="1" /><path clip-path="url(#clip710)" d="M719.7 62.2867 L728.248 62.2867 L728.248 72.576 L719.7 72.576 L719.7 62.2867 Z" fill="#000000" fill-rule="evenodd" fill-opacity="1" /><path clip-path="url(#clip710)" d="M747.489 65.6895 L760.857 65.6895 L760.857 19.5497 L746.315 22.4663 L746.315 15.0127 L760.776 12.096 L768.959 12.096 L768.959 65.6895 L782.327 65.6895 L782.327 72.576 L747.489 72.576 L747.489 65.6895 Z" fill="#000000" fill-rule="evenodd" fill-opacity="1" /><path clip-path="url(#clip710)" d="M851.679 12.096 L883.802 12.096 L883.802 18.9825 L859.173 18.9825 L859.173 33.8088 Q860.955 33.2012 862.738 32.9176 Q864.52 32.5936 866.302 32.5936 Q876.43 32.5936 882.344 38.1433 Q888.258 43.6931 888.258 53.1722 Q888.258 62.9348 882.182 68.3631 Q876.106 73.7508 865.047 73.7508 Q861.239 73.7508 857.269 73.1026 Q853.339 72.4545 849.126 71.1582 L849.126 62.9348 Q852.772 64.9198 856.661 65.892 Q860.55 66.8642 864.885 66.8642 Q871.893 66.8642 875.984 63.1779 Q880.075 59.4916 880.075 53.1722 Q880.075 46.8528 875.984 43.1664 Q871.893 39.4801 864.885 39.4801 Q861.603 39.4801 858.322 40.2093 Q855.081 40.9384 851.679 42.4778 L851.679 12.096 Z" fill="#000000" fill-rule="evenodd" fill-opacity="1" /><path clip-path="url(#clip710)" d="M899.56 46.5287 L921.395 46.5287 L921.395 53.1722 L899.56 53.1722 L899.56 46.5287 Z" fill="#000000" fill-rule="evenodd" fill-opacity="1" /><path clip-path="url(#clip710)" d="M960.445 17.6457 Q951.533 17.6457 946.267 24.2892 Q941.042 30.9327 941.042 42.3968 Q941.042 53.8203 946.267 60.4638 Q951.533 67.1073 960.445 67.1073 Q969.357 67.1073 974.542 60.4638 Q979.768 53.8203 979.768 42.3968 Q979.768 30.9327 974.542 24.2892 Q969.357 17.6457 960.445 17.6457 M960.445 11.0023 Q973.165 11.0023 980.781 19.5497 Q988.397 28.0566 988.397 42.3968 Q988.397 56.6965 980.781 65.2439 Q973.165 73.7508 960.445 73.7508 Q947.685 73.7508 940.029 65.2439 Q932.413 56.737 932.413 42.3968 Q932.413 28.0566 940.029 19.5497 Q947.685 11.0023 960.445 11.0023 Z" fill="#000000" fill-rule="evenodd" fill-opacity="1" /><path clip-path="url(#clip710)" d="M1027.16 34.1734 Q1025.91 33.4443 1024.41 33.1202 Q1022.95 32.7556 1021.17 32.7556 Q1014.85 32.7556 1011.45 36.8875 Q1008.08 40.9789 1008.08 48.6757 L1008.08 72.576 L1000.59 72.576 L1000.59 27.2059 L1008.08 27.2059 L1008.08 34.2544 Q1010.43 30.1225 1014.2 28.1376 Q1017.97 26.1121 1023.36 26.1121 Q1024.13 26.1121 1025.06 26.2337 Q1025.99 26.3147 1027.12 26.5172 L1027.16 34.1734 Z" fill="#000000" fill-rule="evenodd" fill-opacity="1" /><path clip-path="url(#clip710)" d="M1063.38 34.0924 L1063.38 9.54393 L1070.83 9.54393 L1070.83 72.576 L1063.38 72.576 L1063.38 65.7705 Q1061.03 69.8214 1057.42 71.8063 Q1053.86 73.7508 1048.84 73.7508 Q1040.61 73.7508 1035.43 67.1883 Q1030.28 60.6258 1030.28 49.9314 Q1030.28 39.2371 1035.43 32.6746 Q1040.61 26.1121 1048.84 26.1121 Q1053.86 26.1121 1057.42 28.0971 Q1061.03 30.0415 1063.38 34.0924 M1037.98 49.9314 Q1037.98 58.1548 1041.34 62.8538 Q1044.74 67.5124 1050.66 67.5124 Q1056.57 67.5124 1059.98 62.8538 Q1063.38 58.1548 1063.38 49.9314 Q1063.38 41.7081 1059.98 37.0496 Q1056.57 32.3505 1050.66 32.3505 Q1044.74 32.3505 1041.34 37.0496 Q1037.98 41.7081 1037.98 49.9314 Z" fill="#000000" fill-rule="evenodd" fill-opacity="1" /><path clip-path="url(#clip710)" d="M1124.99 48.0275 L1124.99 51.6733 L1090.72 51.6733 Q1091.21 59.3701 1095.34 63.421 Q1099.51 67.4314 1106.93 67.4314 Q1111.22 67.4314 1115.23 66.3781 Q1119.28 65.3249 1123.25 63.2184 L1123.25 70.267 Q1119.24 71.9684 1115.03 72.8596 Q1110.81 73.7508 1106.48 73.7508 Q1095.62 73.7508 1089.26 67.4314 Q1082.94 61.1119 1082.94 50.3365 Q1082.94 39.1965 1088.94 32.6746 Q1094.98 26.1121 1105.18 26.1121 Q1114.34 26.1121 1119.65 32.0264 Q1124.99 37.9003 1124.99 48.0275 M1117.54 45.84 Q1117.46 39.7232 1114.1 36.0774 Q1110.77 32.4315 1105.27 32.4315 Q1099.03 32.4315 1095.26 35.9558 Q1091.53 39.4801 1090.97 45.8805 L1117.54 45.84 Z" fill="#000000" fill-rule="evenodd" fill-opacity="1" /><path clip-path="url(#clip710)" d="M1163.52 34.1734 Q1162.26 33.4443 1160.76 33.1202 Q1159.3 32.7556 1157.52 32.7556 Q1151.2 32.7556 1147.8 36.8875 Q1144.44 40.9789 1144.44 48.6757 L1144.44 72.576 L1136.94 72.576 L1136.94 27.2059 L1144.44 27.2059 L1144.44 34.2544 Q1146.79 30.1225 1150.55 28.1376 Q1154.32 26.1121 1159.71 26.1121 Q1160.48 26.1121 1161.41 26.2337 Q1162.34 26.3147 1163.48 26.5172 L1163.52 34.1734 Z" fill="#000000" fill-rule="evenodd" fill-opacity="1" /><path clip-path="url(#clip710)" d="M1198.03 12.096 L1206.21 12.096 L1206.21 72.576 L1198.03 72.576 L1198.03 12.096 Z" fill="#000000" fill-rule="evenodd" fill-opacity="1" /><path clip-path="url(#clip710)" d="M1259.89 45.1919 L1259.89 72.576 L1252.43 72.576 L1252.43 45.4349 Q1252.43 38.994 1249.92 35.7938 Q1247.41 32.5936 1242.39 32.5936 Q1236.35 32.5936 1232.87 36.4419 Q1229.38 40.2903 1229.38 46.9338 L1229.38 72.576 L1221.89 72.576 L1221.89 27.2059 L1229.38 27.2059 L1229.38 34.2544 Q1232.06 30.163 1235.66 28.1376 Q1239.31 26.1121 1244.05 26.1121 Q1251.87 26.1121 1255.88 30.9732 Q1259.89 35.7938 1259.89 45.1919 Z" fill="#000000" fill-rule="evenodd" fill-opacity="1" /><path clip-path="url(#clip710)" d="M1282.13 14.324 L1282.13 27.2059 L1297.48 27.2059 L1297.48 32.9987 L1282.13 32.9987 L1282.13 57.6282 Q1282.13 63.1779 1283.63 64.7578 Q1285.17 66.3376 1289.82 66.3376 L1297.48 66.3376 L1297.48 72.576 L1289.82 72.576 Q1281.2 72.576 1277.91 69.3758 Q1274.63 66.1351 1274.63 57.6282 L1274.63 32.9987 L1269.16 32.9987 L1269.16 27.2059 L1274.63 27.2059 L1274.63 14.324 L1282.13 14.324 Z" fill="#000000" fill-rule="evenodd" fill-opacity="1" /><path clip-path="url(#clip710)" d="M1346.09 48.0275 L1346.09 51.6733 L1311.82 51.6733 Q1312.31 59.3701 1316.44 63.421 Q1320.61 67.4314 1328.02 67.4314 Q1332.32 67.4314 1336.33 66.3781 Q1340.38 65.3249 1344.35 63.2184 L1344.35 70.267 Q1340.34 71.9684 1336.13 72.8596 Q1331.91 73.7508 1327.58 73.7508 Q1316.72 73.7508 1310.36 67.4314 Q1304.04 61.1119 1304.04 50.3365 Q1304.04 39.1965 1310.04 32.6746 Q1316.07 26.1121 1326.28 26.1121 Q1335.44 26.1121 1340.74 32.0264 Q1346.09 37.9003 1346.09 48.0275 M1338.64 45.84 Q1338.56 39.7232 1335.19 36.0774 Q1331.87 32.4315 1326.36 32.4315 Q1320.13 32.4315 1316.36 35.9558 Q1312.63 39.4801 1312.06 45.8805 L1338.64 45.84 Z" fill="#000000" fill-rule="evenodd" fill-opacity="1" /><path clip-path="url(#clip710)" d="M1384.62 34.1734 Q1383.36 33.4443 1381.86 33.1202 Q1380.4 32.7556 1378.62 32.7556 Q1372.3 32.7556 1368.9 36.8875 Q1365.54 40.9789 1365.54 48.6757 L1365.54 72.576 L1358.04 72.576 L1358.04 27.2059 L1365.54 27.2059 L1365.54 34.2544 Q1367.89 30.1225 1371.65 28.1376 Q1375.42 26.1121 1380.81 26.1121 Q1381.58 26.1121 1382.51 26.2337 Q1383.44 26.3147 1384.58 26.5172 L1384.62 34.1734 Z" fill="#000000" fill-rule="evenodd" fill-opacity="1" /><path clip-path="url(#clip710)" d="M1399.64 65.7705 L1399.64 89.8329 L1392.15 89.8329 L1392.15 27.2059 L1399.64 27.2059 L1399.64 34.0924 Q1401.99 30.0415 1405.56 28.0971 Q1409.16 26.1121 1414.15 26.1121 Q1422.41 26.1121 1427.56 32.6746 Q1432.74 39.2371 1432.74 49.9314 Q1432.74 60.6258 1427.56 67.1883 Q1422.41 73.7508 1414.15 73.7508 Q1409.16 73.7508 1405.56 71.8063 Q1401.99 69.8214 1399.64 65.7705 M1425 49.9314 Q1425 41.7081 1421.6 37.0496 Q1418.24 32.3505 1412.32 32.3505 Q1406.41 32.3505 1403.01 37.0496 Q1399.64 41.7081 1399.64 49.9314 Q1399.64 58.1548 1403.01 62.8538 Q1406.41 67.5124 1412.32 67.5124 Q1418.24 67.5124 1421.6 62.8538 Q1425 58.1548 1425 49.9314 Z" fill="#000000" fill-rule="evenodd" fill-opacity="1" /><path clip-path="url(#clip710)" d="M1462.68 32.4315 Q1456.68 32.4315 1453.2 37.1306 Q1449.71 41.7891 1449.71 49.9314 Q1449.71 58.0738 1453.16 62.7728 Q1456.64 67.4314 1462.68 67.4314 Q1468.63 67.4314 1472.12 62.7323 Q1475.6 58.0333 1475.6 49.9314 Q1475.6 41.8701 1472.12 37.1711 Q1468.63 32.4315 1462.68 32.4315 M1462.68 26.1121 Q1472.4 26.1121 1477.95 32.4315 Q1483.5 38.7509 1483.5 49.9314 Q1483.5 61.0714 1477.95 67.4314 Q1472.4 73.7508 1462.68 73.7508 Q1452.91 73.7508 1447.36 67.4314 Q1441.85 61.0714 1441.85 49.9314 Q1441.85 38.7509 1447.36 32.4315 Q1452.91 26.1121 1462.68 26.1121 Z" fill="#000000" fill-rule="evenodd" fill-opacity="1" /><path clip-path="url(#clip710)" d="M1495.85 9.54393 L1503.31 9.54393 L1503.31 72.576 L1495.85 72.576 L1495.85 9.54393 Z" fill="#000000" fill-rule="evenodd" fill-opacity="1" /><path clip-path="url(#clip710)" d="M1539.52 49.7694 Q1530.49 49.7694 1527 51.8354 Q1523.52 53.9013 1523.52 58.8839 Q1523.52 62.8538 1526.11 65.2034 Q1528.75 67.5124 1533.24 67.5124 Q1539.44 67.5124 1543.17 63.1374 Q1546.94 58.7219 1546.94 51.4303 L1546.94 49.7694 L1539.52 49.7694 M1554.39 46.6907 L1554.39 72.576 L1546.94 72.576 L1546.94 65.6895 Q1544.38 69.8214 1540.58 71.8063 Q1536.77 73.7508 1531.26 73.7508 Q1524.29 73.7508 1520.16 69.8619 Q1516.07 65.9325 1516.07 59.3701 Q1516.07 51.7138 1521.17 47.825 Q1526.32 43.9361 1536.48 43.9361 L1546.94 43.9361 L1546.94 43.2069 Q1546.94 38.0623 1543.53 35.2672 Q1540.17 32.4315 1534.05 32.4315 Q1530.16 32.4315 1526.48 33.3632 Q1522.79 34.295 1519.39 36.1584 L1519.39 29.2718 Q1523.48 27.692 1527.33 26.9223 Q1531.18 26.1121 1534.82 26.1121 Q1544.67 26.1121 1549.53 31.2163 Q1554.39 36.3204 1554.39 46.6907 Z" fill="#000000" fill-rule="evenodd" fill-opacity="1" /><path clip-path="url(#clip710)" d="M1577.11 14.324 L1577.11 27.2059 L1592.47 27.2059 L1592.47 32.9987 L1577.11 32.9987 L1577.11 57.6282 Q1577.11 63.1779 1578.61 64.7578 Q1580.15 66.3376 1584.81 66.3376 L1592.47 66.3376 L1592.47 72.576 L1584.81 72.576 Q1576.18 72.576 1572.9 69.3758 Q1569.62 66.1351 1569.62 57.6282 L1569.62 32.9987 L1564.15 32.9987 L1564.15 27.2059 L1569.62 27.2059 L1569.62 14.324 L1577.11 14.324 Z" fill="#000000" fill-rule="evenodd" fill-opacity="1" /><path clip-path="url(#clip710)" d="M1602.27 27.2059 L1609.72 27.2059 L1609.72 72.576 L1602.27 72.576 L1602.27 27.2059 M1602.27 9.54393 L1609.72 9.54393 L1609.72 18.9825 L1602.27 18.9825 L1602.27 9.54393 Z" fill="#000000" fill-rule="evenodd" fill-opacity="1" /><path clip-path="url(#clip710)" d="M1642.9 32.4315 Q1636.91 32.4315 1633.42 37.1306 Q1629.94 41.7891 1629.94 49.9314 Q1629.94 58.0738 1633.38 62.7728 Q1636.87 67.4314 1642.9 67.4314 Q1648.86 67.4314 1652.34 62.7323 Q1655.82 58.0333 1655.82 49.9314 Q1655.82 41.8701 1652.34 37.1711 Q1648.86 32.4315 1642.9 32.4315 M1642.9 26.1121 Q1652.62 26.1121 1658.17 32.4315 Q1663.72 38.7509 1663.72 49.9314 Q1663.72 61.0714 1658.17 67.4314 Q1652.62 73.7508 1642.9 73.7508 Q1633.14 73.7508 1627.59 67.4314 Q1622.08 61.0714 1622.08 49.9314 Q1622.08 38.7509 1627.59 32.4315 Q1633.14 26.1121 1642.9 26.1121 Z" fill="#000000" fill-rule="evenodd" fill-opacity="1" /><path clip-path="url(#clip710)" d="M1713.79 45.1919 L1713.79 72.576 L1706.34 72.576 L1706.34 45.4349 Q1706.34 38.994 1703.83 35.7938 Q1701.32 32.5936 1696.29 32.5936 Q1690.26 32.5936 1686.77 36.4419 Q1683.29 40.2903 1683.29 46.9338 L1683.29 72.576 L1675.79 72.576 L1675.79 27.2059 L1683.29 27.2059 L1683.29 34.2544 Q1685.96 30.163 1689.57 28.1376 Q1693.21 26.1121 1697.95 26.1121 Q1705.77 26.1121 1709.78 30.9732 Q1713.79 35.7938 1713.79 45.1919 Z" fill="#000000" fill-rule="evenodd" fill-opacity="1" /><polyline clip-path="url(#clip712)" style="stroke:#009af9; stroke-linecap:butt; stroke-linejoin:round; stroke-width:4; stroke-opacity:1; fill:none" points="
  196.142,1003.98 199.262,1003.86 202.381,1003.75 205.501,1003.63 208.62,1003.52 211.74,1003.4 214.859,1003.28 217.979,1003.15 221.098,1003.03 224.218,1002.91 
  227.337,1002.78 230.457,1002.65 233.576,1002.52 236.696,1002.39 239.815,1002.26 242.935,1002.13 246.054,1001.99 249.174,1001.86 252.293,1001.72 255.413,1001.58 
  258.532,1001.44 261.652,1001.29 264.771,1001.15 267.891,1001 271.01,1000.85 274.13,1000.7 277.249,1000.55 280.369,1000.4 283.488,1000.24 286.608,1000.08 
  289.727,999.923 292.847,999.761 295.966,999.598 299.086,999.432 302.205,999.264 305.325,999.095 308.444,998.923 311.564,998.749 314.683,998.572 317.803,998.394 
  320.922,998.213 324.042,998.03 327.161,997.844 330.281,997.656 333.4,997.466 336.52,997.273 339.639,997.078 342.759,996.88 345.878,996.679 348.998,996.476 
  352.117,996.27 355.237,996.062 358.356,995.85 361.476,995.636 364.595,995.419 367.715,995.199 370.834,994.976 373.954,994.749 377.073,994.52 380.193,994.288 
  383.312,994.052 386.432,993.813 389.551,993.571 392.671,993.325 395.79,993.076 398.91,992.823 402.029,992.567 405.149,992.307 408.268,992.044 411.388,991.776 
  414.507,991.505 417.627,991.229 420.746,990.95 423.866,990.667 426.985,990.379 430.105,990.087 433.224,989.791 436.344,989.491 439.463,989.186 442.583,988.876 
  445.702,988.562 448.822,988.243 451.941,987.919 455.061,987.59 458.18,987.256 461.3,986.917 464.419,986.572 467.539,986.222 470.658,985.867 473.778,985.506 
  476.897,985.139 480.017,984.767 483.136,984.389 486.256,984.004 489.375,983.614 492.495,983.217 495.614,982.813 498.734,982.403 501.853,981.986 504.973,981.563 
  508.092,981.132 511.212,980.694 514.332,980.249 517.451,979.796 520.571,979.336 523.69,978.868 526.81,978.392 529.929,977.907 533.049,977.415 536.168,976.913 
  539.288,976.403 542.407,975.885 545.527,975.357 548.646,974.819 551.766,974.273 554.885,973.716 558.005,973.15 561.124,972.573 564.244,971.986 567.363,971.388 
  570.483,970.779 573.602,970.159 576.722,969.528 579.841,968.885 582.961,968.23 586.08,967.562 589.2,966.883 592.319,966.19 595.439,965.484 598.558,964.764 
  601.678,964.031 604.797,963.284 607.917,962.522 611.036,961.745 614.156,960.953 617.275,960.146 620.395,959.322 623.514,958.483 626.634,957.626 629.753,956.752 
  632.873,955.861 635.992,954.951 639.112,954.023 642.231,953.076 645.351,952.11 648.47,951.123 651.59,950.116 654.709,949.088 657.829,948.039 660.948,946.967 
  664.068,945.872 667.187,944.755 670.307,943.613 673.426,942.447 676.546,941.256 679.665,940.039 682.785,938.796 685.904,937.525 689.024,936.226 692.143,934.899 
  695.263,933.543 698.382,932.156 701.502,930.738 704.621,929.289 707.741,927.806 710.86,926.291 713.98,924.741 717.099,923.155 720.219,921.533 723.338,919.875 
  726.458,918.177 729.577,916.441 732.697,914.664 735.816,912.846 738.936,910.986 742.055,909.082 745.175,907.134 748.294,905.139 751.414,903.098 754.533,901.008 
  757.653,898.869 760.772,896.679 763.892,894.437 767.011,892.141 770.131,889.791 773.25,887.385 776.37,884.921 779.489,882.399 782.609,879.816 785.728,877.172 
  788.848,874.464 791.967,871.692 795.087,868.854 798.206,865.949 801.326,862.975 804.445,859.93 807.565,856.814 810.684,853.625 813.804,850.361 816.923,847.022 
  820.043,843.605 823.162,840.11 826.282,836.536 829.401,832.88 832.521,829.143 835.64,825.324 838.76,821.421 841.879,817.433 844.999,813.361 848.118,809.203 
  851.238,804.96 854.357,800.631 857.477,796.217 860.596,791.717 863.716,787.132 866.835,782.464 869.955,777.713 873.074,772.881 876.194,767.969 879.313,762.981 
  882.433,757.918 885.552,752.783 888.672,747.58 891.791,742.314 894.911,736.988 898.03,731.607 901.15,726.179 904.269,720.707 907.389,715.2 910.508,709.665 
  913.628,704.111 916.747,698.545 919.867,692.979 922.986,687.421 926.106,681.883 929.225,676.377 932.345,670.915 935.464,665.51 938.584,660.175 941.703,654.925 
  944.823,649.774 947.942,644.737 951.062,639.83 954.181,635.069 957.301,630.468 960.42,626.045 963.54,621.816 966.659,617.795 969.779,613.999 972.898,610.443 
  976.018,607.141 979.137,604.107 982.257,601.354 985.376,598.895 988.496,596.74 991.616,594.899 994.735,593.381 997.855,592.193 1000.97,591.34 1004.09,590.827 
  1007.21,590.656 1010.33,590.827 1013.45,591.34 1016.57,592.193 1019.69,593.381 1022.81,594.899 1025.93,596.74 1029.05,598.895 1032.17,601.354 1035.29,604.107 
  1038.41,607.141 1041.53,610.443 1044.65,613.999 1047.77,617.795 1050.89,621.816 1054.01,626.045 1057.13,630.468 1060.24,635.069 1063.36,639.83 1066.48,644.737 
  1069.6,649.774 1072.72,654.925 1075.84,660.175 1078.96,665.51 1082.08,670.915 1085.2,676.377 1088.32,681.883 1091.44,687.421 1094.56,692.979 1097.68,698.545 
  1100.8,704.111 1103.92,709.665 1107.04,715.2 1110.16,720.707 1113.28,726.179 1116.4,731.607 1119.52,736.988 1122.63,742.314 1125.75,747.58 1128.87,752.783 
  1131.99,757.918 1135.11,762.981 1138.23,767.969 1141.35,772.881 1144.47,777.713 1147.59,782.464 1150.71,787.132 1153.83,791.717 1156.95,796.217 1160.07,800.631 
  1163.19,804.96 1166.31,809.203 1169.43,813.361 1172.55,817.433 1175.67,821.421 1178.79,825.324 1181.91,829.143 1185.02,832.88 1188.14,836.536 1191.26,840.11 
  1194.38,843.605 1197.5,847.022 1200.62,850.361 1203.74,853.625 1206.86,856.814 1209.98,859.93 1213.1,862.975 1216.22,865.949 1219.34,868.854 1222.46,871.692 
  1225.58,874.464 1228.7,877.172 1231.82,879.816 1234.94,882.399 1238.06,884.921 1241.18,887.385 1244.3,889.791 1247.41,892.141 1250.53,894.437 1253.65,896.679 
  1256.77,898.869 1259.89,901.008 1263.01,903.098 1266.13,905.139 1269.25,907.134 1272.37,909.082 1275.49,910.986 1278.61,912.846 1281.73,914.664 1284.85,916.441 
  1287.97,918.177 1291.09,919.875 1294.21,921.533 1297.33,923.155 1300.45,924.741 1303.57,926.291 1306.69,927.806 1309.8,929.289 1312.92,930.738 1316.04,932.156 
  1319.16,933.543 1322.28,934.899 1325.4,936.226 1328.52,937.525 1331.64,938.796 1334.76,940.039 1337.88,941.256 1341,942.447 1344.12,943.613 1347.24,944.755 
  1350.36,945.872 1353.48,946.967 1356.6,948.039 1359.72,949.088 1362.84,950.116 1365.96,951.123 1369.08,952.11 1372.19,953.076 1375.31,954.023 1378.43,954.951 
  1381.55,955.861 1384.67,956.752 1387.79,957.626 1390.91,958.483 1394.03,959.322 1397.15,960.146 1400.27,960.953 1403.39,961.745 1406.51,962.522 1409.63,963.284 
  1412.75,964.031 1415.87,964.764 1418.99,965.484 1422.11,966.19 1425.23,966.883 1428.35,967.562 1431.47,968.23 1434.58,968.885 1437.7,969.528 1440.82,970.159 
  1443.94,970.779 1447.06,971.388 1450.18,971.986 1453.3,972.573 1456.42,973.15 1459.54,973.716 1462.66,974.273 1465.78,974.819 1468.9,975.357 1472.02,975.885 
  1475.14,976.403 1478.26,976.913 1481.38,977.415 1484.5,977.907 1487.62,978.392 1490.74,978.868 1493.86,979.336 1496.98,979.796 1500.09,980.249 1503.21,980.694 
  1506.33,981.132 1509.45,981.563 1512.57,981.986 1515.69,982.403 1518.81,982.813 1521.93,983.217 1525.05,983.614 1528.17,984.004 1531.29,984.389 1534.41,984.767 
  1537.53,985.139 1540.65,985.506 1543.77,985.867 1546.89,986.222 1550.01,986.572 1553.13,986.917 1556.25,987.256 1559.37,987.59 1562.48,987.919 1565.6,988.243 
  1568.72,988.562 1571.84,988.876 1574.96,989.186 1578.08,989.491 1581.2,989.791 1584.32,990.087 1587.44,990.379 1590.56,990.667 1593.68,990.95 1596.8,991.229 
  1599.92,991.505 1603.04,991.776 1606.16,992.044 1609.28,992.307 1612.4,992.567 1615.52,992.823 1618.64,993.076 1621.76,993.325 1624.87,993.571 1627.99,993.813 
  1631.11,994.052 1634.23,994.288 1637.35,994.52 1640.47,994.749 1643.59,994.976 1646.71,995.199 1649.83,995.419 1652.95,995.636 1656.07,995.85 1659.19,996.062 
  1662.31,996.27 1665.43,996.476 1668.55,996.679 1671.67,996.88 1674.79,997.078 1677.91,997.273 1681.03,997.466 1684.15,997.656 1687.26,997.844 1690.38,998.03 
  1693.5,998.213 1696.62,998.394 1699.74,998.572 1702.86,998.749 1705.98,998.923 1709.1,999.095 1712.22,999.264 1715.34,999.432 1718.46,999.598 1721.58,999.761 
  1724.7,999.923 1727.82,1000.08 1730.94,1000.24 1734.06,1000.4 1737.18,1000.55 1740.3,1000.7 1743.42,1000.85 1746.54,1001 1749.65,1001.15 1752.77,1001.29 
  1755.89,1001.44 1759.01,1001.58 1762.13,1001.72 1765.25,1001.86 1768.37,1001.99 1771.49,1002.13 1774.61,1002.26 1777.73,1002.39 1780.85,1002.52 1783.97,1002.65 
  1787.09,1002.78 1790.21,1002.91 1793.33,1003.03 1796.45,1003.15 1799.57,1003.28 1802.69,1003.4 1805.81,1003.52 1808.93,1003.63 1812.04,1003.75 1815.16,1003.86 
  1818.28,1003.98 
  "/>
<polyline clip-path="url(#clip712)" style="stroke:#ee82ee; stroke-linecap:butt; stroke-linejoin:round; stroke-width:4; stroke-opacity:1; fill:none" points="
  196.142,975.809 199.262,978.867 202.381,981.843 205.501,984.737 208.62,987.55 211.74,990.284 214.859,992.938 217.979,995.514 221.098,998.012 224.218,1000.43 
  227.337,1002.78 230.457,1005.05 233.576,1007.25 236.696,1009.37 239.815,1011.42 242.935,1013.4 246.054,1015.3 249.174,1017.14 252.293,1018.9 255.413,1020.6 
  258.532,1022.23 261.652,1023.79 264.771,1025.29 267.891,1026.72 271.01,1028.08 274.13,1029.38 277.249,1030.62 280.369,1031.79 283.488,1032.9 286.608,1033.95 
  289.727,1034.94 292.847,1035.87 295.966,1036.73 299.086,1037.55 302.205,1038.3 305.325,1038.99 308.444,1039.63 311.564,1040.22 314.683,1040.75 317.803,1041.22 
  320.922,1041.64 324.042,1042.01 327.161,1042.33 330.281,1042.59 333.4,1042.81 336.52,1042.97 339.639,1043.08 342.759,1043.15 345.878,1043.17 348.998,1043.14 
  352.117,1043.06 355.237,1042.94 358.356,1042.77 361.476,1042.56 364.595,1042.3 367.715,1042 370.834,1041.66 373.954,1041.27 377.073,1040.85 380.193,1040.38 
  383.312,1039.87 386.432,1039.32 389.551,1038.74 392.671,1038.11 395.79,1037.45 398.91,1036.75 402.029,1036.02 405.149,1035.24 408.268,1034.44 411.388,1033.6 
  414.507,1032.72 417.627,1031.81 420.746,1030.87 423.866,1029.9 426.985,1028.89 430.105,1027.86 433.224,1026.79 436.344,1025.69 439.463,1024.57 442.583,1023.41 
  445.702,1022.23 448.822,1021.02 451.941,1019.78 455.061,1018.52 458.18,1017.23 461.3,1015.92 464.419,1014.58 467.539,1013.21 470.658,1011.83 473.778,1010.42 
  476.897,1008.98 480.017,1007.53 483.136,1006.05 486.256,1004.55 489.375,1003.04 492.495,1001.5 495.614,999.943 498.734,998.368 501.853,996.774 504.973,995.162 
  508.092,993.533 511.212,991.888 514.332,990.226 517.451,988.548 520.571,986.855 523.69,985.147 526.81,983.425 529.929,981.689 533.049,979.94 536.168,978.178 
  539.288,976.403 542.407,974.617 545.527,972.82 548.646,971.011 551.766,969.192 554.885,967.363 558.005,965.525 561.124,963.677 564.244,961.821 567.363,959.956 
  570.483,958.084 573.602,956.205 576.722,954.318 579.841,952.426 582.961,950.527 586.08,948.623 589.2,946.714 592.319,944.8 595.439,942.882 598.558,940.96 
  601.678,939.034 604.797,937.106 607.917,935.175 611.036,933.241 614.156,931.306 617.275,929.37 620.395,927.432 623.514,925.494 626.634,923.556 629.753,921.618 
  632.873,919.681 635.992,917.744 639.112,915.809 642.231,913.876 645.351,911.944 648.47,910.015 651.59,908.089 654.709,906.166 657.829,904.247 660.948,902.331 
  664.068,900.42 667.187,898.513 670.307,896.611 673.426,894.715 676.546,892.824 679.665,890.939 682.785,889.06 685.904,887.188 689.024,885.323 692.143,883.465 
  695.263,881.615 698.382,879.773 701.502,877.939 704.621,876.113 707.741,874.296 710.86,872.489 713.98,870.691 717.099,868.902 720.219,867.124 723.338,865.356 
  726.458,863.599 729.577,861.853 732.697,860.117 735.816,858.394 738.936,856.682 742.055,854.982 745.175,853.294 748.294,851.619 751.414,849.957 754.533,848.308 
  757.653,846.672 760.772,845.05 763.892,843.442 767.011,841.848 770.131,840.268 773.25,838.703 776.37,837.152 779.489,835.617 782.609,834.097 785.728,832.593 
  788.848,831.104 791.967,829.631 795.087,828.175 798.206,826.734 801.326,825.311 804.445,823.904 807.565,822.515 810.684,821.143 813.804,819.788 816.923,818.451 
  820.043,817.131 823.162,815.83 826.282,814.547 829.401,813.282 832.521,812.036 835.64,810.809 838.76,809.6 841.879,808.411 844.999,807.241 848.118,806.091 
  851.238,804.96 854.357,803.849 857.477,802.758 860.596,801.687 863.716,800.636 866.835,799.606 869.955,798.596 873.074,797.607 876.194,796.638 879.313,795.691 
  882.433,794.764 885.552,793.859 888.672,792.975 891.791,792.113 894.911,791.272 898.03,790.453 901.15,789.656 904.269,788.88 907.389,788.127 910.508,787.396 
  913.628,786.687 916.747,786 919.867,785.336 922.986,784.694 926.106,784.075 929.225,783.478 932.345,782.904 935.464,782.353 938.584,781.825 941.703,781.32 
  944.823,780.838 947.942,780.379 951.062,779.943 954.181,779.531 957.301,779.141 960.42,778.775 963.54,778.433 966.659,778.113 969.779,777.818 972.898,777.546 
  976.018,777.297 979.137,777.072 982.257,776.87 985.376,776.693 988.496,776.538 991.616,776.408 994.735,776.301 997.855,776.218 1000.97,776.159 1004.09,776.123 
  1007.21,776.111 1010.33,776.123 1013.45,776.159 1016.57,776.218 1019.69,776.301 1022.81,776.408 1025.93,776.538 1029.05,776.693 1032.17,776.87 1035.29,777.072 
  1038.41,777.297 1041.53,777.546 1044.65,777.818 1047.77,778.113 1050.89,778.433 1054.01,778.775 1057.13,779.141 1060.24,779.531 1063.36,779.943 1066.48,780.379 
  1069.6,780.838 1072.72,781.32 1075.84,781.825 1078.96,782.353 1082.08,782.904 1085.2,783.478 1088.32,784.075 1091.44,784.694 1094.56,785.336 1097.68,786 
  1100.8,786.687 1103.92,787.396 1107.04,788.127 1110.16,788.88 1113.28,789.656 1116.4,790.453 1119.52,791.272 1122.63,792.113 1125.75,792.975 1128.87,793.859 
  1131.99,794.764 1135.11,795.691 1138.23,796.638 1141.35,797.607 1144.47,798.596 1147.59,799.606 1150.71,800.636 1153.83,801.687 1156.95,802.758 1160.07,803.849 
  1163.19,804.96 1166.31,806.091 1169.43,807.241 1172.55,808.411 1175.67,809.6 1178.79,810.809 1181.91,812.036 1185.02,813.282 1188.14,814.547 1191.26,815.83 
  1194.38,817.131 1197.5,818.451 1200.62,819.788 1203.74,821.143 1206.86,822.515 1209.98,823.904 1213.1,825.311 1216.22,826.734 1219.34,828.175 1222.46,829.631 
  1225.58,831.104 1228.7,832.593 1231.82,834.097 1234.94,835.617 1238.06,837.152 1241.18,838.703 1244.3,840.268 1247.41,841.848 1250.53,843.442 1253.65,845.05 
  1256.77,846.672 1259.89,848.308 1263.01,849.957 1266.13,851.619 1269.25,853.294 1272.37,854.982 1275.49,856.682 1278.61,858.394 1281.73,860.117 1284.85,861.853 
  1287.97,863.599 1291.09,865.356 1294.21,867.124 1297.33,868.902 1300.45,870.691 1303.57,872.489 1306.69,874.296 1309.8,876.113 1312.92,877.939 1316.04,879.773 
  1319.16,881.615 1322.28,883.465 1325.4,885.323 1328.52,887.188 1331.64,889.06 1334.76,890.939 1337.88,892.824 1341,894.715 1344.12,896.611 1347.24,898.513 
  1350.36,900.42 1353.48,902.331 1356.6,904.247 1359.72,906.166 1362.84,908.089 1365.96,910.015 1369.08,911.944 1372.19,913.876 1375.31,915.809 1378.43,917.744 
  1381.55,919.681 1384.67,921.618 1387.79,923.556 1390.91,925.494 1394.03,927.432 1397.15,929.37 1400.27,931.306 1403.39,933.241 1406.51,935.175 1409.63,937.106 
  1412.75,939.034 1415.87,940.96 1418.99,942.882 1422.11,944.8 1425.23,946.714 1428.35,948.623 1431.47,950.527 1434.58,952.426 1437.7,954.318 1440.82,956.205 
  1443.94,958.084 1447.06,959.956 1450.18,961.821 1453.3,963.677 1456.42,965.525 1459.54,967.363 1462.66,969.192 1465.78,971.011 1468.9,972.82 1472.02,974.617 
  1475.14,976.403 1478.26,978.178 1481.38,979.94 1484.5,981.689 1487.62,983.425 1490.74,985.147 1493.86,986.855 1496.98,988.548 1500.09,990.226 1503.21,991.888 
  1506.33,993.533 1509.45,995.162 1512.57,996.774 1515.69,998.368 1518.81,999.943 1521.93,1001.5 1525.05,1003.04 1528.17,1004.55 1531.29,1006.05 1534.41,1007.53 
  1537.53,1008.98 1540.65,1010.42 1543.77,1011.83 1546.89,1013.21 1550.01,1014.58 1553.13,1015.92 1556.25,1017.23 1559.37,1018.52 1562.48,1019.78 1565.6,1021.02 
  1568.72,1022.23 1571.84,1023.41 1574.96,1024.57 1578.08,1025.69 1581.2,1026.79 1584.32,1027.86 1587.44,1028.89 1590.56,1029.9 1593.68,1030.87 1596.8,1031.81 
  1599.92,1032.72 1603.04,1033.6 1606.16,1034.44 1609.28,1035.24 1612.4,1036.02 1615.52,1036.75 1618.64,1037.45 1621.76,1038.11 1624.87,1038.74 1627.99,1039.32 
  1631.11,1039.87 1634.23,1040.38 1637.35,1040.85 1640.47,1041.27 1643.59,1041.66 1646.71,1042 1649.83,1042.3 1652.95,1042.56 1656.07,1042.77 1659.19,1042.94 
  1662.31,1043.06 1665.43,1043.14 1668.55,1043.17 1671.67,1043.15 1674.79,1043.08 1677.91,1042.97 1681.03,1042.81 1684.15,1042.59 1687.26,1042.33 1690.38,1042.01 
  1693.5,1041.64 1696.62,1041.22 1699.74,1040.75 1702.86,1040.22 1705.98,1039.63 1709.1,1038.99 1712.22,1038.3 1715.34,1037.55 1718.46,1036.73 1721.58,1035.87 
  1724.7,1034.94 1727.82,1033.95 1730.94,1032.9 1734.06,1031.79 1737.18,1030.62 1740.3,1029.38 1743.42,1028.08 1746.54,1026.72 1749.65,1025.29 1752.77,1023.79 
  1755.89,1022.23 1759.01,1020.6 1762.13,1018.9 1765.25,1017.14 1768.37,1015.3 1771.49,1013.4 1774.61,1011.42 1777.73,1009.37 1780.85,1007.25 1783.97,1005.05 
  1787.09,1002.78 1790.21,1000.43 1793.33,998.012 1796.45,995.514 1799.57,992.938 1802.69,990.284 1805.81,987.55 1808.93,984.737 1812.04,981.843 1815.16,978.867 
  1818.28,975.809 
  "/>
<circle clip-path="url(#clip712)" cx="227.337" cy="1002.78" r="10" fill="#00bfff" fill-rule="evenodd" fill-opacity="1" stroke="#000000" stroke-opacity="1" stroke-width="3.2"/>
<circle clip-path="url(#clip712)" cx="539.288" cy="976.403" r="10" fill="#00bfff" fill-rule="evenodd" fill-opacity="1" stroke="#000000" stroke-opacity="1" stroke-width="3.2"/>
<circle clip-path="url(#clip712)" cx="851.238" cy="804.96" r="10" fill="#00bfff" fill-rule="evenodd" fill-opacity="1" stroke="#000000" stroke-opacity="1" stroke-width="3.2"/>
<circle clip-path="url(#clip712)" cx="1163.19" cy="804.96" r="10" fill="#00bfff" fill-rule="evenodd" fill-opacity="1" stroke="#000000" stroke-opacity="1" stroke-width="3.2"/>
<circle clip-path="url(#clip712)" cx="1475.14" cy="976.403" r="10" fill="#00bfff" fill-rule="evenodd" fill-opacity="1" stroke="#000000" stroke-opacity="1" stroke-width="3.2"/>
<circle clip-path="url(#clip712)" cx="1787.09" cy="1002.78" r="10" fill="#00bfff" fill-rule="evenodd" fill-opacity="1" stroke="#000000" stroke-opacity="1" stroke-width="3.2"/>
<circle clip-path="url(#clip712)" cx="1124.19" cy="744.955" r="10" fill="#0000ff" fill-rule="evenodd" fill-opacity="1" stroke="#000000" stroke-opacity="1" stroke-width="3.2"/>
<circle clip-path="url(#clip712)" cx="1280.17" cy="913.761" r="10" fill="#0000ff" fill-rule="evenodd" fill-opacity="1" stroke="#000000" stroke-opacity="1" stroke-width="3.2"/>
<circle clip-path="url(#clip712)" cx="1436.14" cy="969.208" r="10" fill="#0000ff" fill-rule="evenodd" fill-opacity="1" stroke="#000000" stroke-opacity="1" stroke-width="3.2"/>
<circle clip-path="url(#clip712)" cx="1592.12" cy="990.809" r="10" fill="#0000ff" fill-rule="evenodd" fill-opacity="1" stroke="#000000" stroke-opacity="1" stroke-width="3.2"/>
<circle clip-path="url(#clip712)" cx="1748.1" cy="1001.07" r="10" fill="#0000ff" fill-rule="evenodd" fill-opacity="1" stroke="#000000" stroke-opacity="1" stroke-width="3.2"/>
<circle clip-path="url(#clip712)" cx="1124.19" cy="792.542" r="10" fill="#ff0000" fill-rule="evenodd" fill-opacity="1" stroke="#000000" stroke-opacity="1" stroke-width="3.2"/>
<circle clip-path="url(#clip712)" cx="1280.17" cy="859.254" r="10" fill="#ff0000" fill-rule="evenodd" fill-opacity="1" stroke="#000000" stroke-opacity="1" stroke-width="3.2"/>
<circle clip-path="url(#clip712)" cx="1436.14" cy="953.373" r="10" fill="#ff0000" fill-rule="evenodd" fill-opacity="1" stroke="#000000" stroke-opacity="1" stroke-width="3.2"/>
<circle clip-path="url(#clip712)" cx="1592.12" cy="1030.39" r="10" fill="#ff0000" fill-rule="evenodd" fill-opacity="1" stroke="#000000" stroke-opacity="1" stroke-width="3.2"/>
<circle clip-path="url(#clip712)" cx="1748.1" cy="1026.01" r="10" fill="#ff0000" fill-rule="evenodd" fill-opacity="1" stroke="#000000" stroke-opacity="1" stroke-width="3.2"/>
<path clip-path="url(#clip710)" d="
M1940.46 479.945 L2352.76 479.945 L2352.76 168.905 L1940.46 168.905  Z
  " fill="#ffffff" fill-rule="evenodd" fill-opacity="1"/>
<polyline clip-path="url(#clip710)" style="stroke:#000000; stroke-linecap:butt; stroke-linejoin:round; stroke-width:4; stroke-opacity:1; fill:none" points="
  1940.46,479.945 2352.76,479.945 2352.76,168.905 1940.46,168.905 1940.46,479.945 
  "/>
<polyline clip-path="url(#clip710)" style="stroke:#009af9; stroke-linecap:butt; stroke-linejoin:round; stroke-width:4; stroke-opacity:1; fill:none" points="
  1964.96,220.745 2111.98,220.745 
  "/>
<path clip-path="url(#clip710)" d="M2152.99 202.006 L2152.99 205.548 L2148.91 205.548 Q2146.62 205.548 2145.72 206.474 Q2144.84 207.4 2144.84 209.807 L2144.84 212.099 L2151.85 212.099 L2151.85 215.409 L2144.84 215.409 L2144.84 238.025 L2140.56 238.025 L2140.56 215.409 L2136.48 215.409 L2136.48 212.099 L2140.56 212.099 L2140.56 210.293 Q2140.56 205.965 2142.57 203.997 Q2144.58 202.006 2148.96 202.006 L2152.99 202.006 Z" fill="#000000" fill-rule="evenodd" fill-opacity="1" /><path clip-path="url(#clip710)" d="M2166.78 202.053 Q2163.68 207.377 2162.18 212.585 Q2160.67 217.793 2160.67 223.14 Q2160.67 228.488 2162.18 233.742 Q2163.7 238.974 2166.78 244.275 L2163.08 244.275 Q2159.61 238.835 2157.87 233.58 Q2156.16 228.326 2156.16 223.14 Q2156.16 217.978 2157.87 212.747 Q2159.58 207.516 2163.08 202.053 L2166.78 202.053 Z" fill="#000000" fill-rule="evenodd" fill-opacity="1" /><path clip-path="url(#clip710)" d="M2196.6 212.099 L2187.22 224.715 L2197.08 238.025 L2192.06 238.025 L2184.51 227.84 L2176.97 238.025 L2171.94 238.025 L2182.01 224.46 L2172.8 212.099 L2177.82 212.099 L2184.7 221.335 L2191.57 212.099 L2196.6 212.099 Z" fill="#000000" fill-rule="evenodd" fill-opacity="1" /><path clip-path="url(#clip710)" d="M2202.43 202.053 L2206.13 202.053 Q2209.61 207.516 2211.32 212.747 Q2213.06 217.978 2213.06 223.14 Q2213.06 228.326 2211.32 233.58 Q2209.61 238.835 2206.13 244.275 L2202.43 244.275 Q2205.51 238.974 2207.01 233.742 Q2208.54 228.488 2208.54 223.14 Q2208.54 217.793 2207.01 212.585 Q2205.51 207.377 2202.43 202.053 Z" fill="#000000" fill-rule="evenodd" fill-opacity="1" /><polyline clip-path="url(#clip710)" style="stroke:#ee82ee; stroke-linecap:butt; stroke-linejoin:round; stroke-width:4; stroke-opacity:1; fill:none" points="
  1964.96,272.585 2111.98,272.585 
  "/>
<path clip-path="url(#clip710)" d="M2140.76 285.976 L2140.76 299.726 L2136.48 299.726 L2136.48 263.939 L2140.76 263.939 L2140.76 267.874 Q2142.11 265.559 2144.14 264.448 Q2146.2 263.314 2149.05 263.314 Q2153.77 263.314 2156.71 267.064 Q2159.68 270.814 2159.68 276.925 Q2159.68 283.036 2156.71 286.786 Q2153.77 290.536 2149.05 290.536 Q2146.2 290.536 2144.14 289.425 Q2142.11 288.291 2140.76 285.976 M2155.26 276.925 Q2155.26 272.226 2153.31 269.564 Q2151.39 266.879 2148.01 266.879 Q2144.63 266.879 2142.69 269.564 Q2140.76 272.226 2140.76 276.925 Q2140.76 281.624 2142.69 284.309 Q2144.63 286.971 2148.01 286.971 Q2151.39 286.971 2153.31 284.309 Q2155.26 281.624 2155.26 276.925 Z" fill="#000000" fill-rule="evenodd" fill-opacity="1" /><path clip-path="url(#clip710)" d="M2176.97 253.893 Q2173.87 259.217 2172.36 264.425 Q2170.86 269.633 2170.86 274.98 Q2170.86 280.328 2172.36 285.582 Q2173.89 290.814 2176.97 296.115 L2173.26 296.115 Q2169.79 290.675 2168.06 285.42 Q2166.34 280.166 2166.34 274.98 Q2166.34 269.818 2168.06 264.587 Q2169.77 259.356 2173.26 253.893 L2176.97 253.893 Z" fill="#000000" fill-rule="evenodd" fill-opacity="1" /><path clip-path="url(#clip710)" d="M2206.78 263.939 L2197.41 276.555 L2207.27 289.865 L2202.25 289.865 L2194.7 279.68 L2187.15 289.865 L2182.13 289.865 L2192.2 276.3 L2182.99 263.939 L2188.01 263.939 L2194.88 273.175 L2201.76 263.939 L2206.78 263.939 Z" fill="#000000" fill-rule="evenodd" fill-opacity="1" /><path clip-path="url(#clip710)" d="M2212.62 253.893 L2216.32 253.893 Q2219.79 259.356 2221.5 264.587 Q2223.24 269.818 2223.24 274.98 Q2223.24 280.166 2221.5 285.42 Q2219.79 290.675 2216.32 296.115 L2212.62 296.115 Q2215.69 290.814 2217.2 285.582 Q2218.73 280.328 2218.73 274.98 Q2218.73 269.633 2217.2 264.425 Q2215.69 259.217 2212.62 253.893 Z" fill="#000000" fill-rule="evenodd" fill-opacity="1" /><circle clip-path="url(#clip710)" cx="2038.47" cy="324.425" r="23" fill="#00bfff" fill-rule="evenodd" fill-opacity="1" stroke="#000000" stroke-opacity="1" stroke-width="6.82667"/>
<path clip-path="url(#clip710)" d="M2154.91 316.543 L2154.91 320.571 Q2153.1 319.645 2151.16 319.182 Q2149.21 318.719 2147.13 318.719 Q2143.96 318.719 2142.36 319.691 Q2140.79 320.663 2140.79 322.608 Q2140.79 324.089 2141.92 324.945 Q2143.06 325.779 2146.48 326.543 L2147.94 326.867 Q2152.48 327.839 2154.38 329.621 Q2156.3 331.381 2156.3 334.552 Q2156.3 338.163 2153.43 340.269 Q2150.58 342.376 2145.58 342.376 Q2143.5 342.376 2141.23 341.959 Q2138.98 341.566 2136.48 340.756 L2136.48 336.357 Q2138.84 337.584 2141.13 338.209 Q2143.43 338.811 2145.67 338.811 Q2148.68 338.811 2150.3 337.793 Q2151.92 336.751 2151.92 334.876 Q2151.92 333.14 2150.74 332.214 Q2149.58 331.288 2145.63 330.432 L2144.14 330.084 Q2140.19 329.251 2138.43 327.538 Q2136.67 325.802 2136.67 322.793 Q2136.67 319.135 2139.26 317.145 Q2141.85 315.154 2146.62 315.154 Q2148.98 315.154 2151.07 315.501 Q2153.15 315.848 2154.91 316.543 Z" fill="#000000" fill-rule="evenodd" fill-opacity="1" /><path clip-path="url(#clip710)" d="M2174.86 328.672 Q2169.7 328.672 2167.71 329.853 Q2165.72 331.033 2165.72 333.881 Q2165.72 336.149 2167.2 337.492 Q2168.7 338.811 2171.27 338.811 Q2174.82 338.811 2176.94 336.311 Q2179.1 333.788 2179.1 329.621 L2179.1 328.672 L2174.86 328.672 M2183.36 326.913 L2183.36 341.705 L2179.1 341.705 L2179.1 337.769 Q2177.64 340.131 2175.46 341.265 Q2173.29 342.376 2170.14 342.376 Q2166.16 342.376 2163.8 340.154 Q2161.46 337.908 2161.46 334.158 Q2161.46 329.783 2164.38 327.561 Q2167.32 325.339 2173.13 325.339 L2179.1 325.339 L2179.1 324.922 Q2179.1 321.983 2177.15 320.385 Q2175.23 318.765 2171.74 318.765 Q2169.51 318.765 2167.41 319.297 Q2165.3 319.83 2163.36 320.895 L2163.36 316.959 Q2165.69 316.057 2167.89 315.617 Q2170.09 315.154 2172.18 315.154 Q2177.8 315.154 2180.58 318.071 Q2183.36 320.987 2183.36 326.913 Z" fill="#000000" fill-rule="evenodd" fill-opacity="1" /><path clip-path="url(#clip710)" d="M2212.32 320.756 Q2213.91 317.885 2216.13 316.52 Q2218.36 315.154 2221.37 315.154 Q2225.42 315.154 2227.62 318.001 Q2229.81 320.825 2229.81 326.057 L2229.81 341.705 L2225.53 341.705 L2225.53 326.195 Q2225.53 322.469 2224.21 320.663 Q2222.89 318.858 2220.19 318.858 Q2216.88 318.858 2214.95 321.057 Q2213.03 323.256 2213.03 327.052 L2213.03 341.705 L2208.75 341.705 L2208.75 326.195 Q2208.75 322.445 2207.43 320.663 Q2206.11 318.858 2203.36 318.858 Q2200.09 318.858 2198.17 321.08 Q2196.25 323.279 2196.25 327.052 L2196.25 341.705 L2191.97 341.705 L2191.97 315.779 L2196.25 315.779 L2196.25 319.807 Q2197.71 317.422 2199.75 316.288 Q2201.78 315.154 2204.58 315.154 Q2207.41 315.154 2209.38 316.589 Q2211.37 318.024 2212.32 320.756 Z" fill="#000000" fill-rule="evenodd" fill-opacity="1" /><path clip-path="url(#clip710)" d="M2242.43 337.816 L2242.43 351.566 L2238.15 351.566 L2238.15 315.779 L2242.43 315.779 L2242.43 319.714 Q2243.77 317.399 2245.81 316.288 Q2247.87 315.154 2250.72 315.154 Q2255.44 315.154 2258.38 318.904 Q2261.34 322.654 2261.34 328.765 Q2261.34 334.876 2258.38 338.626 Q2255.44 342.376 2250.72 342.376 Q2247.87 342.376 2245.81 341.265 Q2243.77 340.131 2242.43 337.816 M2256.92 328.765 Q2256.92 324.066 2254.98 321.404 Q2253.06 318.719 2249.68 318.719 Q2246.3 318.719 2244.35 321.404 Q2242.43 324.066 2242.43 328.765 Q2242.43 333.464 2244.35 336.149 Q2246.3 338.811 2249.68 338.811 Q2253.06 338.811 2254.98 336.149 Q2256.92 333.464 2256.92 328.765 Z" fill="#000000" fill-rule="evenodd" fill-opacity="1" /><path clip-path="url(#clip710)" d="M2268.4 305.686 L2272.66 305.686 L2272.66 341.705 L2268.4 341.705 L2268.4 305.686 Z" fill="#000000" fill-rule="evenodd" fill-opacity="1" /><path clip-path="url(#clip710)" d="M2303.75 327.677 L2303.75 329.76 L2284.17 329.76 Q2284.44 334.158 2286.81 336.473 Q2289.19 338.765 2293.43 338.765 Q2295.88 338.765 2298.17 338.163 Q2300.49 337.561 2302.75 336.357 L2302.75 340.385 Q2300.46 341.357 2298.06 341.867 Q2295.65 342.376 2293.17 342.376 Q2286.97 342.376 2283.33 338.765 Q2279.72 335.154 2279.72 328.996 Q2279.72 322.631 2283.15 318.904 Q2286.6 315.154 2292.43 315.154 Q2297.66 315.154 2300.69 318.533 Q2303.75 321.89 2303.75 327.677 M2299.49 326.427 Q2299.44 322.932 2297.52 320.848 Q2295.62 318.765 2292.48 318.765 Q2288.91 318.765 2286.76 320.779 Q2284.63 322.793 2284.31 326.45 L2299.49 326.427 Z" fill="#000000" fill-rule="evenodd" fill-opacity="1" /><circle clip-path="url(#clip710)" cx="2038.47" cy="376.265" r="23" fill="#0000ff" fill-rule="evenodd" fill-opacity="1" stroke="#000000" stroke-opacity="1" stroke-width="6.82667"/>
<path clip-path="url(#clip710)" d="M2143.89 360.258 L2143.89 367.619 L2152.66 367.619 L2152.66 370.929 L2143.89 370.929 L2143.89 385.003 Q2143.89 388.174 2144.75 389.077 Q2145.63 389.98 2148.29 389.98 L2152.66 389.98 L2152.66 393.545 L2148.29 393.545 Q2143.36 393.545 2141.48 391.716 Q2139.61 389.864 2139.61 385.003 L2139.61 370.929 L2136.48 370.929 L2136.48 367.619 L2139.61 367.619 L2139.61 360.258 L2143.89 360.258 Z" fill="#000000" fill-rule="evenodd" fill-opacity="1" /><path clip-path="url(#clip710)" d="M2173.29 371.6 Q2172.57 371.184 2171.71 370.998 Q2170.88 370.79 2169.86 370.79 Q2166.25 370.79 2164.31 373.151 Q2162.38 375.489 2162.38 379.887 L2162.38 393.545 L2158.1 393.545 L2158.1 367.619 L2162.38 367.619 L2162.38 371.647 Q2163.73 369.286 2165.88 368.151 Q2168.03 366.994 2171.11 366.994 Q2171.55 366.994 2172.08 367.063 Q2172.62 367.11 2173.26 367.225 L2173.29 371.6 Z" fill="#000000" fill-rule="evenodd" fill-opacity="1" /><path clip-path="url(#clip710)" d="M2177.32 383.313 L2177.32 367.619 L2181.57 367.619 L2181.57 383.151 Q2181.57 386.832 2183.01 388.684 Q2184.44 390.512 2187.32 390.512 Q2190.76 390.512 2192.75 388.313 Q2194.77 386.114 2194.77 382.318 L2194.77 367.619 L2199.03 367.619 L2199.03 393.545 L2194.77 393.545 L2194.77 389.563 Q2193.22 391.924 2191.16 393.082 Q2189.12 394.216 2186.41 394.216 Q2181.94 394.216 2179.63 391.438 Q2177.32 388.66 2177.32 383.313 M2188.03 366.994 L2188.03 366.994 Z" fill="#000000" fill-rule="evenodd" fill-opacity="1" /><path clip-path="url(#clip710)" d="M2229.98 379.517 L2229.98 381.6 L2210.39 381.6 Q2210.67 385.998 2213.03 388.313 Q2215.42 390.605 2219.65 390.605 Q2222.11 390.605 2224.4 390.003 Q2226.71 389.401 2228.98 388.197 L2228.98 392.225 Q2226.69 393.197 2224.28 393.707 Q2221.88 394.216 2219.4 394.216 Q2213.19 394.216 2209.56 390.605 Q2205.95 386.994 2205.95 380.836 Q2205.95 374.471 2209.38 370.744 Q2212.82 366.994 2218.66 366.994 Q2223.89 366.994 2226.92 370.373 Q2229.98 373.73 2229.98 379.517 M2225.72 378.267 Q2225.67 374.772 2223.75 372.688 Q2221.85 370.605 2218.7 370.605 Q2215.14 370.605 2212.99 372.619 Q2210.86 374.633 2210.53 378.29 L2225.72 378.267 Z" fill="#000000" fill-rule="evenodd" fill-opacity="1" /><circle clip-path="url(#clip710)" cx="2038.47" cy="428.105" r="23" fill="#ff0000" fill-rule="evenodd" fill-opacity="1" stroke="#000000" stroke-opacity="1" stroke-width="6.82667"/>
<path clip-path="url(#clip710)" d="M2149.88 432.352 Q2144.72 432.352 2142.73 433.533 Q2140.74 434.713 2140.74 437.561 Q2140.74 439.829 2142.22 441.172 Q2143.73 442.491 2146.3 442.491 Q2149.84 442.491 2151.97 439.991 Q2154.12 437.468 2154.12 433.301 L2154.12 432.352 L2149.88 432.352 M2158.38 430.593 L2158.38 445.385 L2154.12 445.385 L2154.12 441.449 Q2152.66 443.811 2150.49 444.945 Q2148.31 446.056 2145.16 446.056 Q2141.18 446.056 2138.82 443.834 Q2136.48 441.588 2136.48 437.838 Q2136.48 433.463 2139.4 431.241 Q2142.34 429.019 2148.15 429.019 L2154.12 429.019 L2154.12 428.602 Q2154.12 425.663 2152.18 424.065 Q2150.26 422.445 2146.76 422.445 Q2144.54 422.445 2142.43 422.977 Q2140.32 423.51 2138.38 424.575 L2138.38 420.639 Q2140.72 419.737 2142.92 419.297 Q2145.12 418.834 2147.2 418.834 Q2152.82 418.834 2155.6 421.751 Q2158.38 424.667 2158.38 430.593 Z" fill="#000000" fill-rule="evenodd" fill-opacity="1" /><path clip-path="url(#clip710)" d="M2171.27 441.496 L2171.27 455.246 L2166.99 455.246 L2166.99 419.459 L2171.27 419.459 L2171.27 423.394 Q2172.62 421.079 2174.65 419.968 Q2176.71 418.834 2179.56 418.834 Q2184.28 418.834 2187.22 422.584 Q2190.19 426.334 2190.19 432.445 Q2190.19 438.556 2187.22 442.306 Q2184.28 446.056 2179.56 446.056 Q2176.71 446.056 2174.65 444.945 Q2172.62 443.811 2171.27 441.496 M2185.76 432.445 Q2185.76 427.746 2183.82 425.084 Q2181.9 422.399 2178.52 422.399 Q2175.14 422.399 2173.19 425.084 Q2171.27 427.746 2171.27 432.445 Q2171.27 437.144 2173.19 439.829 Q2175.14 442.491 2178.52 442.491 Q2181.9 442.491 2183.82 439.829 Q2185.76 437.144 2185.76 432.445 Z" fill="#000000" fill-rule="evenodd" fill-opacity="1" /><path clip-path="url(#clip710)" d="M2201.37 441.496 L2201.37 455.246 L2197.08 455.246 L2197.08 419.459 L2201.37 419.459 L2201.37 423.394 Q2202.71 421.079 2204.75 419.968 Q2206.81 418.834 2209.65 418.834 Q2214.38 418.834 2217.32 422.584 Q2220.28 426.334 2220.28 432.445 Q2220.28 438.556 2217.32 442.306 Q2214.38 446.056 2209.65 446.056 Q2206.81 446.056 2204.75 444.945 Q2202.71 443.811 2201.37 441.496 M2215.86 432.445 Q2215.86 427.746 2213.91 425.084 Q2211.99 422.399 2208.61 422.399 Q2205.23 422.399 2203.29 425.084 Q2201.37 427.746 2201.37 432.445 Q2201.37 437.144 2203.29 439.829 Q2205.23 442.491 2208.61 442.491 Q2211.99 442.491 2213.91 439.829 Q2215.86 437.144 2215.86 432.445 Z" fill="#000000" fill-rule="evenodd" fill-opacity="1" /><path clip-path="url(#clip710)" d="M2242.36 423.44 Q2241.64 423.024 2240.79 422.838 Q2239.95 422.63 2238.94 422.63 Q2235.32 422.63 2233.38 424.991 Q2231.46 427.329 2231.46 431.727 L2231.46 445.385 L2227.18 445.385 L2227.18 419.459 L2231.46 419.459 L2231.46 423.487 Q2232.8 421.126 2234.95 419.991 Q2237.11 418.834 2240.19 418.834 Q2240.63 418.834 2241.16 418.903 Q2241.69 418.95 2242.34 419.065 L2242.36 423.44 Z" fill="#000000" fill-rule="evenodd" fill-opacity="1" /><path clip-path="url(#clip710)" d="M2255.83 422.445 Q2252.41 422.445 2250.42 425.13 Q2248.43 427.792 2248.43 432.445 Q2248.43 437.098 2250.39 439.783 Q2252.38 442.445 2255.83 442.445 Q2259.24 442.445 2261.23 439.76 Q2263.22 437.075 2263.22 432.445 Q2263.22 427.838 2261.23 425.153 Q2259.24 422.445 2255.83 422.445 M2255.83 418.834 Q2261.39 418.834 2264.56 422.445 Q2267.73 426.056 2267.73 432.445 Q2267.73 438.811 2264.56 442.445 Q2261.39 446.056 2255.83 446.056 Q2250.25 446.056 2247.08 442.445 Q2243.94 438.811 2243.94 432.445 Q2243.94 426.056 2247.08 422.445 Q2250.25 418.834 2255.83 418.834 Z" fill="#000000" fill-rule="evenodd" fill-opacity="1" /><path clip-path="url(#clip710)" d="M2294.88 419.459 L2285.51 432.075 L2295.37 445.385 L2290.35 445.385 L2282.8 435.2 L2275.25 445.385 L2270.23 445.385 L2280.3 431.82 L2271.09 419.459 L2276.11 419.459 L2282.99 428.695 L2289.86 419.459 L2294.88 419.459 Z" fill="#000000" fill-rule="evenodd" fill-opacity="1" /><path clip-path="url(#clip710)" d="M1705.78 776.814 Q1705.78 779.069 1704.34 780.463 Q1702.95 781.856 1701.19 781.856 Q1699.91 781.856 1698.97 781.077 Q1698.07 780.299 1698.07 778.946 Q1698.07 777.552 1699.14 776.077 Q1700.2 774.601 1702.62 774.396 Q1701.02 772.88 1698.48 772.88 Q1697.21 772.88 1696.14 773.699 Q1695.12 774.478 1694.55 775.749 Q1693.93 777.06 1692.54 784.479 Q1692.09 786.898 1691.68 789.234 Q1691.27 791.571 1690.77 794.03 L1697.74 794.03 Q1698.64 794.03 1699.01 794.071 Q1699.38 794.112 1699.67 794.317 Q1700 794.522 1700 794.973 Q1700 796.12 1699.46 796.407 Q1698.97 796.653 1697.5 796.653 L1690.28 796.653 L1685.24 823.255 Q1685.12 824.034 1684.58 826.493 Q1684.09 828.912 1682.9 832.888 Q1681.72 836.905 1680.53 839.282 Q1679.87 840.635 1679.01 841.905 Q1678.19 843.217 1677 844.529 Q1675.81 845.84 1674.26 846.619 Q1672.7 847.439 1671.06 847.439 Q1668.27 847.439 1666.1 845.881 Q1663.93 844.324 1663.93 841.66 Q1663.93 839.405 1665.32 838.011 Q1666.75 836.618 1668.52 836.618 Q1669.79 836.618 1670.69 837.397 Q1671.63 838.175 1671.63 839.528 Q1671.63 840.102 1671.43 840.758 Q1671.22 841.414 1670.77 842.151 Q1670.32 842.93 1669.34 843.463 Q1668.35 843.996 1667 844.078 Q1668.6 845.594 1671.06 845.594 Q1671.84 845.594 1672.53 845.267 Q1673.23 844.98 1673.8 844.242 Q1674.42 843.504 1674.87 842.766 Q1675.32 842.069 1675.77 840.717 Q1676.22 839.405 1676.51 838.421 Q1676.8 837.438 1677.17 835.675 Q1677.58 833.913 1677.78 832.847 Q1677.99 831.822 1678.35 829.814 L1684.63 796.653 L1679.09 796.653 Q1678.11 796.653 1677.7 796.612 Q1677.33 796.571 1677.04 796.366 Q1676.76 796.12 1676.76 795.629 Q1676.76 794.85 1677.08 794.522 Q1677.45 794.153 1677.86 794.112 Q1678.27 794.03 1679.26 794.03 L1685.08 794.03 Q1687.04 783.66 1687.82 780.872 Q1688.72 777.921 1690.12 775.872 Q1691.51 773.781 1693.07 772.798 Q1694.63 771.814 1695.9 771.445 Q1697.21 771.035 1698.48 771.035 Q1701.35 771.035 1703.56 772.593 Q1705.78 774.109 1705.78 776.814 Z" fill="#000000" fill-rule="evenodd" fill-opacity="1" /><path clip-path="url(#clip710)" d="M1717.08 809.237 Q1717.08 795.055 1722.36 783.619 Q1724.62 778.823 1727.77 774.806 Q1730.93 770.789 1733.02 769.027 Q1735.11 767.264 1735.68 767.264 Q1736.5 767.264 1736.55 768.084 Q1736.55 768.494 1735.44 769.518 Q1721.91 783.291 1721.95 809.237 Q1721.95 835.265 1735.11 848.505 Q1736.55 849.939 1736.55 850.39 Q1736.55 851.21 1735.68 851.21 Q1735.11 851.21 1733.1 849.529 Q1731.09 847.849 1727.98 843.996 Q1724.86 840.143 1722.61 835.429 Q1717.08 823.993 1717.08 809.237 Z" fill="#000000" fill-rule="evenodd" fill-opacity="1" /><path clip-path="url(#clip710)" d="M1784.73 798.662 Q1784.73 800.957 1783.3 802.269 Q1781.86 803.539 1780.23 803.539 Q1778.67 803.539 1777.85 802.638 Q1777.03 801.736 1777.03 800.588 Q1777.03 799.031 1778.18 797.678 Q1779.32 796.325 1781.05 796.038 Q1779.36 794.973 1776.86 794.973 Q1775.22 794.973 1773.79 795.833 Q1772.4 796.694 1771.54 797.801 Q1770.72 798.908 1769.98 800.506 Q1769.28 802.064 1768.99 803.007 Q1768.75 803.908 1768.54 804.892 L1765.67 816.369 Q1764.28 821.821 1764.28 823.747 Q1764.28 826.125 1765.43 827.723 Q1766.58 829.281 1768.87 829.281 Q1769.77 829.281 1770.8 829.035 Q1771.82 828.748 1773.13 828.01 Q1774.49 827.231 1775.68 826.084 Q1776.91 824.895 1778.09 822.886 Q1779.28 820.878 1780.06 818.296 Q1780.31 817.394 1781.13 817.394 Q1782.15 817.394 1782.15 818.214 Q1782.15 818.91 1781.58 820.386 Q1781.05 821.821 1779.86 823.706 Q1778.71 825.551 1777.19 827.231 Q1775.68 828.871 1773.42 830.019 Q1771.17 831.166 1768.71 831.166 Q1765.18 831.166 1762.85 829.281 Q1760.51 827.395 1759.65 824.772 Q1759.44 825.141 1759.16 825.633 Q1758.87 826.125 1758.01 827.231 Q1757.19 828.297 1756.25 829.117 Q1755.3 829.896 1753.83 830.51 Q1752.39 831.166 1750.84 831.166 Q1748.87 831.166 1747.11 830.592 Q1745.38 830.019 1744.15 828.707 Q1742.93 827.395 1742.93 825.592 Q1742.93 823.583 1744.28 822.19 Q1745.67 820.755 1747.56 820.755 Q1748.75 820.755 1749.69 821.452 Q1750.67 822.149 1750.67 823.665 Q1750.67 825.346 1749.52 826.616 Q1748.38 827.887 1746.74 828.215 Q1748.42 829.281 1750.92 829.281 Q1753.62 829.281 1755.75 826.903 Q1757.89 824.526 1758.91 820.55 Q1761.45 811 1762.44 806.737 Q1763.42 802.433 1763.42 800.588 Q1763.42 798.867 1762.97 797.678 Q1762.52 796.489 1761.74 795.956 Q1761 795.383 1760.3 795.178 Q1759.65 794.973 1758.91 794.973 Q1757.68 794.973 1756.29 795.465 Q1754.93 795.956 1753.3 797.104 Q1751.7 798.211 1750.18 800.506 Q1748.66 802.802 1747.64 805.958 Q1747.43 806.901 1746.53 806.901 Q1745.55 806.86 1745.55 806.04 Q1745.55 805.343 1746.08 803.908 Q1746.66 802.433 1747.8 800.588 Q1748.99 798.744 1750.51 797.104 Q1752.07 795.424 1754.32 794.276 Q1756.62 793.128 1759.07 793.128 Q1760.18 793.128 1761.25 793.374 Q1762.35 793.579 1763.67 794.194 Q1765.02 794.809 1766.21 796.161 Q1767.4 797.514 1768.13 799.482 Q1768.63 798.539 1769.28 797.637 Q1769.98 796.735 1771.04 795.629 Q1772.15 794.481 1773.67 793.825 Q1775.22 793.128 1776.95 793.128 Q1778.63 793.128 1780.27 793.579 Q1781.91 793.989 1783.3 795.342 Q1784.73 796.653 1784.73 798.662 Z" fill="#000000" fill-rule="evenodd" fill-opacity="1" /><path clip-path="url(#clip710)" d="M1792.81 850.39 Q1792.81 849.98 1793.88 848.956 Q1807.41 835.183 1807.41 809.237 Q1807.41 783.209 1794.41 770.051 Q1792.81 768.535 1792.81 768.084 Q1792.81 767.264 1793.63 767.264 Q1794.21 767.264 1796.22 768.945 Q1798.27 770.625 1801.34 774.478 Q1804.46 778.331 1806.75 783.045 Q1812.28 794.481 1812.28 809.237 Q1812.28 823.419 1807 834.855 Q1804.74 839.651 1801.59 843.668 Q1798.43 847.685 1796.34 849.447 Q1794.25 851.21 1793.63 851.21 Q1792.81 851.21 1792.81 850.39 Z" fill="#000000" fill-rule="evenodd" fill-opacity="1" /><path clip-path="url(#clip710)" d="M1848.34 817.476 Q1848.42 816.451 1850.02 816.451 L1901.46 816.451 Q1903.88 816.451 1903.92 817.394 Q1903.92 818.419 1901.62 818.378 L1850.59 818.378 Q1848.34 818.419 1848.34 817.476 M1848.34 801.08 Q1848.34 800.055 1850.1 800.096 L1901.38 800.096 Q1903.88 800.096 1903.92 801.08 Q1903.92 802.023 1901.79 802.023 L1850.02 802.023 Q1848.34 802.023 1848.34 801.08 Z" fill="#000000" fill-rule="evenodd" fill-opacity="1" /><path clip-path="url(#clip710)" d="M2058.22 741.366 L2058.22 738.742 Q2068.3 738.742 2073.51 733.373 Q2074.94 733.373 2075.19 733.701 Q2075.43 734.029 2075.43 735.545 L2075.43 782.642 Q2075.43 785.142 2076.66 785.921 Q2077.89 786.7 2083.26 786.7 L2085.93 786.7 L2085.93 789.282 Q2082.98 789.036 2072.32 789.036 Q2061.66 789.036 2058.75 789.282 L2058.75 786.7 L2061.42 786.7 Q2066.7 786.7 2067.97 785.962 Q2069.24 785.183 2069.24 782.642 L2069.24 739.152 Q2064.86 741.366 2058.22 741.366 Z" fill="#000000" fill-rule="evenodd" fill-opacity="1" /><path clip-path="url(#clip710)" d="
M1954.22 811.682 L2198.57 811.682 L2198.57 807.202 L1954.22 807.202  Z
  " fill="#000000" fill-rule="evenodd" fill-opacity="1"/>
<path clip-path="url(#clip710)" d="M1954.22 845.554 L1954.22 842.931 Q1964.3 842.931 1969.51 837.561 Q1970.94 837.561 1971.19 837.889 Q1971.43 838.217 1971.43 839.733 L1971.43 886.83 Q1971.43 889.33 1972.66 890.109 Q1973.89 890.888 1979.26 890.888 L1981.93 890.888 L1981.93 893.47 Q1978.98 893.224 1968.32 893.224 Q1957.66 893.224 1954.75 893.47 L1954.75 890.888 L1957.42 890.888 Q1962.7 890.888 1963.97 890.15 Q1965.24 889.371 1965.24 886.83 L1965.24 843.34 Q1960.86 845.554 1954.22 845.554 Z" fill="#000000" fill-rule="evenodd" fill-opacity="1" /><path clip-path="url(#clip710)" d="M2021.01 873.509 Q2019.08 873.509 2019.08 872.484 Q2019.08 871.459 2021.09 871.459 Q2021.33 871.459 2021.74 871.5 Q2022.19 871.541 2022.28 871.541 L2045.93 871.541 L2045.93 847.808 Q2045.93 847.726 2045.89 847.357 Q2045.85 846.948 2045.85 846.702 Q2045.85 844.693 2046.83 844.693 Q2047.85 844.693 2047.85 846.702 L2047.85 871.541 L2071.55 871.541 Q2071.63 871.541 2072.04 871.5 Q2072.45 871.459 2072.69 871.459 Q2074.62 871.459 2074.62 872.484 Q2074.66 873.509 2072.61 873.509 Q2072.37 873.509 2072 873.468 Q2071.63 873.427 2071.55 873.427 L2047.85 873.427 L2047.85 898.348 Q2047.85 900.275 2046.83 900.275 Q2045.85 900.275 2045.85 898.266 Q2045.85 898.02 2045.89 897.61 Q2045.93 897.241 2045.93 897.159 L2045.93 873.427 L2022.28 873.427 Q2022.19 873.427 2021.7 873.468 Q2021.25 873.509 2021.01 873.509 Z" fill="#000000" fill-rule="evenodd" fill-opacity="1" /><path clip-path="url(#clip710)" d="M2148.85 861.909 Q2148.85 864.204 2147.41 865.516 Q2145.98 866.786 2144.34 866.786 Q2142.78 866.786 2141.96 865.885 Q2141.14 864.983 2141.14 863.835 Q2141.14 862.278 2142.29 860.925 Q2143.44 859.572 2145.16 859.285 Q2143.48 858.22 2140.98 858.22 Q2139.34 858.22 2137.9 859.08 Q2136.51 859.941 2135.65 861.048 Q2134.83 862.155 2134.09 863.753 Q2133.4 865.311 2133.11 866.253 Q2132.86 867.155 2132.66 868.139 L2129.79 879.616 Q2128.39 885.068 2128.39 886.994 Q2128.39 889.371 2129.54 890.97 Q2130.69 892.528 2132.99 892.528 Q2133.89 892.528 2134.91 892.282 Q2135.94 891.995 2137.25 891.257 Q2138.6 890.478 2139.79 889.33 Q2141.02 888.142 2142.21 886.133 Q2143.4 884.125 2144.18 881.542 Q2144.42 880.641 2145.24 880.641 Q2146.27 880.641 2146.27 881.461 Q2146.27 882.157 2145.69 883.633 Q2145.16 885.068 2143.97 886.953 Q2142.82 888.798 2141.31 890.478 Q2139.79 892.118 2137.54 893.265 Q2135.28 894.413 2132.82 894.413 Q2129.3 894.413 2126.96 892.528 Q2124.62 890.642 2123.76 888.019 Q2123.56 888.388 2123.27 888.88 Q2122.98 889.371 2122.12 890.478 Q2121.3 891.544 2120.36 892.364 Q2119.42 893.142 2117.94 893.757 Q2116.51 894.413 2114.95 894.413 Q2112.98 894.413 2111.22 893.839 Q2109.5 893.265 2108.27 891.954 Q2107.04 890.642 2107.04 888.839 Q2107.04 886.83 2108.39 885.436 Q2109.79 884.002 2111.67 884.002 Q2112.86 884.002 2113.8 884.699 Q2114.79 885.395 2114.79 886.912 Q2114.79 888.593 2113.64 889.863 Q2112.49 891.134 2110.85 891.462 Q2112.53 892.528 2115.03 892.528 Q2117.74 892.528 2119.87 890.15 Q2122 887.773 2123.03 883.797 Q2125.57 874.246 2126.55 869.984 Q2127.53 865.68 2127.53 863.835 Q2127.53 862.114 2127.08 860.925 Q2126.63 859.736 2125.85 859.203 Q2125.12 858.629 2124.42 858.425 Q2123.76 858.22 2123.03 858.22 Q2121.8 858.22 2120.4 858.711 Q2119.05 859.203 2117.41 860.351 Q2115.81 861.458 2114.29 863.753 Q2112.78 866.049 2111.75 869.205 Q2111.55 870.147 2110.65 870.147 Q2109.66 870.106 2109.66 869.287 Q2109.66 868.59 2110.2 867.155 Q2110.77 865.68 2111.92 863.835 Q2113.11 861.991 2114.62 860.351 Q2116.18 858.67 2118.43 857.523 Q2120.73 856.375 2123.19 856.375 Q2124.3 856.375 2125.36 856.621 Q2126.47 856.826 2127.78 857.441 Q2129.13 858.056 2130.32 859.408 Q2131.51 860.761 2132.25 862.728 Q2132.74 861.786 2133.4 860.884 Q2134.09 859.982 2135.16 858.875 Q2136.26 857.728 2137.78 857.072 Q2139.34 856.375 2141.06 856.375 Q2142.74 856.375 2144.38 856.826 Q2146.02 857.236 2147.41 858.588 Q2148.85 859.9 2148.85 861.909 Z" fill="#000000" fill-rule="evenodd" fill-opacity="1" /><path clip-path="url(#clip710)" d="M2157.41 868.365 Q2157.41 867.303 2157.49 866.988 Q2157.61 866.672 2158.07 866.184 L2169.34 853.617 Q2175.51 846.673 2175.51 840.619 Q2175.51 836.688 2173.44 833.876 Q2171.41 831.065 2167.65 831.065 Q2165.07 831.065 2162.89 832.643 Q2160.71 834.221 2159.7 837.033 Q2159.87 836.975 2160.48 836.975 Q2161.94 836.975 2162.74 837.893 Q2163.57 838.811 2163.57 840.045 Q2163.57 841.623 2162.54 842.398 Q2161.54 843.144 2160.53 843.144 Q2160.13 843.144 2159.59 843.058 Q2159.07 842.972 2158.24 842.169 Q2157.41 841.336 2157.41 839.873 Q2157.41 835.77 2160.5 832.499 Q2163.63 829.228 2168.39 829.228 Q2173.79 829.228 2177.32 832.442 Q2180.88 835.627 2180.88 840.619 Q2180.88 842.369 2180.33 843.976 Q2179.81 845.554 2179.1 846.788 Q2178.41 848.022 2176.51 850.002 Q2174.62 851.981 2173.1 853.387 Q2171.58 854.793 2168.17 857.777 L2161.94 863.831 L2172.53 863.831 Q2177.69 863.831 2178.09 863.372 Q2178.67 862.54 2179.38 858.15 L2180.88 858.15 L2179.21 868.365 L2157.41 868.365 Z" fill="#000000" fill-rule="evenodd" fill-opacity="1" /></svg>
