<?xml version="1.0" encoding="utf-8"?>
<svg xmlns="http://www.w3.org/2000/svg" xmlns:xlink="http://www.w3.org/1999/xlink" width="600" height="400" viewBox="0 0 2400 1600">
<defs>
  <clipPath id="clip870">
    <rect x="0" y="0" width="2400" height="1600"/>
  </clipPath>
</defs>
<path clip-path="url(#clip870)" d="
M0 1600 L2400 1600 L2400 0 L0 0  Z
  " fill="#ffffff" fill-rule="evenodd" fill-opacity="1"/>
<defs>
  <clipPath id="clip871">
    <rect x="480" y="0" width="1681" height="1600"/>
  </clipPath>
</defs>
<path clip-path="url(#clip870)" d="
M155.765 1486.45 L1868.15 1486.45 L1868.15 123.472 L155.765 123.472  Z
  " fill="#ffffff" fill-rule="evenodd" fill-opacity="1"/>
<defs>
  <clipPath id="clip872">
    <rect x="155" y="123" width="1713" height="1364"/>
  </clipPath>
</defs>
<polyline clip-path="url(#clip872)" style="stroke:#000000; stroke-linecap:butt; stroke-linejoin:round; stroke-width:2; stroke-opacity:0.1; fill:none" points="
  338.85,1486.45 338.85,123.472 
  "/>
<polyline clip-path="url(#clip872)" style="stroke:#000000; stroke-linecap:butt; stroke-linejoin:round; stroke-width:2; stroke-opacity:0.1; fill:none" points="
  675.402,1486.45 675.402,123.472 
  "/>
<polyline clip-path="url(#clip872)" style="stroke:#000000; stroke-linecap:butt; stroke-linejoin:round; stroke-width:2; stroke-opacity:0.1; fill:none" points="
  1011.96,1486.45 1011.96,123.472 
  "/>
<polyline clip-path="url(#clip872)" style="stroke:#000000; stroke-linecap:butt; stroke-linejoin:round; stroke-width:2; stroke-opacity:0.1; fill:none" points="
  1348.51,1486.45 1348.51,123.472 
  "/>
<polyline clip-path="url(#clip872)" style="stroke:#000000; stroke-linecap:butt; stroke-linejoin:round; stroke-width:2; stroke-opacity:0.1; fill:none" points="
  1685.06,1486.45 1685.06,123.472 
  "/>
<polyline clip-path="url(#clip870)" style="stroke:#000000; stroke-linecap:butt; stroke-linejoin:round; stroke-width:4; stroke-opacity:1; fill:none" points="
  155.765,1486.45 1868.15,1486.45 
  "/>
<polyline clip-path="url(#clip870)" style="stroke:#000000; stroke-linecap:butt; stroke-linejoin:round; stroke-width:4; stroke-opacity:1; fill:none" points="
  338.85,1486.45 338.85,1467.55 
  "/>
<polyline clip-path="url(#clip870)" style="stroke:#000000; stroke-linecap:butt; stroke-linejoin:round; stroke-width:4; stroke-opacity:1; fill:none" points="
  675.402,1486.45 675.402,1467.55 
  "/>
<polyline clip-path="url(#clip870)" style="stroke:#000000; stroke-linecap:butt; stroke-linejoin:round; stroke-width:4; stroke-opacity:1; fill:none" points="
  1011.96,1486.45 1011.96,1467.55 
  "/>
<polyline clip-path="url(#clip870)" style="stroke:#000000; stroke-linecap:butt; stroke-linejoin:round; stroke-width:4; stroke-opacity:1; fill:none" points="
  1348.51,1486.45 1348.51,1467.55 
  "/>
<polyline clip-path="url(#clip870)" style="stroke:#000000; stroke-linecap:butt; stroke-linejoin:round; stroke-width:4; stroke-opacity:1; fill:none" points="
  1685.06,1486.45 1685.06,1467.55 
  "/>
<path clip-path="url(#clip870)" d="M285.378 1532.02 L315.053 1532.02 L315.053 1535.95 L285.378 1535.95 L285.378 1532.02 Z" fill="#000000" fill-rule="evenodd" fill-opacity="1" /><path clip-path="url(#clip870)" d="M325.956 1544.91 L333.595 1544.91 L333.595 1518.55 L325.285 1520.21 L325.285 1515.95 L333.549 1514.29 L338.225 1514.29 L338.225 1544.91 L345.863 1544.91 L345.863 1548.85 L325.956 1548.85 L325.956 1544.91 Z" fill="#000000" fill-rule="evenodd" fill-opacity="1" /><path clip-path="url(#clip870)" d="M355.308 1542.97 L360.192 1542.97 L360.192 1548.85 L355.308 1548.85 L355.308 1542.97 Z" fill="#000000" fill-rule="evenodd" fill-opacity="1" /><path clip-path="url(#clip870)" d="M380.377 1517.37 Q376.766 1517.37 374.937 1520.93 Q373.132 1524.47 373.132 1531.6 Q373.132 1538.71 374.937 1542.27 Q376.766 1545.82 380.377 1545.82 Q384.011 1545.82 385.817 1542.27 Q387.646 1538.71 387.646 1531.6 Q387.646 1524.47 385.817 1520.93 Q384.011 1517.37 380.377 1517.37 M380.377 1513.66 Q386.187 1513.66 389.243 1518.27 Q392.322 1522.85 392.322 1531.6 Q392.322 1540.33 389.243 1544.94 Q386.187 1549.52 380.377 1549.52 Q374.567 1549.52 371.488 1544.94 Q368.433 1540.33 368.433 1531.6 Q368.433 1522.85 371.488 1518.27 Q374.567 1513.66 380.377 1513.66 Z" fill="#000000" fill-rule="evenodd" fill-opacity="1" /><path clip-path="url(#clip870)" d="M622.428 1532.02 L652.104 1532.02 L652.104 1535.95 L622.428 1535.95 L622.428 1532.02 Z" fill="#000000" fill-rule="evenodd" fill-opacity="1" /><path clip-path="url(#clip870)" d="M672.196 1517.37 Q668.585 1517.37 666.757 1520.93 Q664.951 1524.47 664.951 1531.6 Q664.951 1538.71 666.757 1542.27 Q668.585 1545.82 672.196 1545.82 Q675.831 1545.82 677.636 1542.27 Q679.465 1538.71 679.465 1531.6 Q679.465 1524.47 677.636 1520.93 Q675.831 1517.37 672.196 1517.37 M672.196 1513.66 Q678.006 1513.66 681.062 1518.27 Q684.141 1522.85 684.141 1531.6 Q684.141 1540.33 681.062 1544.94 Q678.006 1549.52 672.196 1549.52 Q666.386 1549.52 663.307 1544.94 Q660.252 1540.33 660.252 1531.6 Q660.252 1522.85 663.307 1518.27 Q666.386 1513.66 672.196 1513.66 Z" fill="#000000" fill-rule="evenodd" fill-opacity="1" /><path clip-path="url(#clip870)" d="M692.358 1542.97 L697.242 1542.97 L697.242 1548.85 L692.358 1548.85 L692.358 1542.97 Z" fill="#000000" fill-rule="evenodd" fill-opacity="1" /><path clip-path="url(#clip870)" d="M707.474 1514.29 L725.83 1514.29 L725.83 1518.22 L711.756 1518.22 L711.756 1526.7 Q712.775 1526.35 713.793 1526.19 Q714.812 1526 715.83 1526 Q721.617 1526 724.997 1529.17 Q728.377 1532.34 728.377 1537.76 Q728.377 1543.34 724.904 1546.44 Q721.432 1549.52 715.113 1549.52 Q712.937 1549.52 710.668 1549.15 Q708.423 1548.78 706.016 1548.04 L706.016 1543.34 Q708.099 1544.47 710.321 1545.03 Q712.543 1545.58 715.02 1545.58 Q719.025 1545.58 721.363 1543.48 Q723.701 1541.37 723.701 1537.76 Q723.701 1534.15 721.363 1532.04 Q719.025 1529.94 715.02 1529.94 Q713.145 1529.94 711.27 1530.35 Q709.418 1530.77 707.474 1531.65 L707.474 1514.29 Z" fill="#000000" fill-rule="evenodd" fill-opacity="1" /><path clip-path="url(#clip870)" d="M989.339 1517.37 Q985.728 1517.37 983.9 1520.93 Q982.094 1524.47 982.094 1531.6 Q982.094 1538.71 983.9 1542.27 Q985.728 1545.82 989.339 1545.82 Q992.974 1545.82 994.779 1542.27 Q996.608 1538.71 996.608 1531.6 Q996.608 1524.47 994.779 1520.93 Q992.974 1517.37 989.339 1517.37 M989.339 1513.66 Q995.15 1513.66 998.205 1518.27 Q1001.28 1522.85 1001.28 1531.6 Q1001.28 1540.33 998.205 1544.94 Q995.15 1549.52 989.339 1549.52 Q983.529 1549.52 980.451 1544.94 Q977.395 1540.33 977.395 1531.6 Q977.395 1522.85 980.451 1518.27 Q983.529 1513.66 989.339 1513.66 Z" fill="#000000" fill-rule="evenodd" fill-opacity="1" /><path clip-path="url(#clip870)" d="M1009.5 1542.97 L1014.39 1542.97 L1014.39 1548.85 L1009.5 1548.85 L1009.5 1542.97 Z" fill="#000000" fill-rule="evenodd" fill-opacity="1" /><path clip-path="url(#clip870)" d="M1034.57 1517.37 Q1030.96 1517.37 1029.13 1520.93 Q1027.33 1524.47 1027.33 1531.6 Q1027.33 1538.71 1029.13 1542.27 Q1030.96 1545.82 1034.57 1545.82 Q1038.2 1545.82 1040.01 1542.27 Q1041.84 1538.71 1041.84 1531.6 Q1041.84 1524.47 1040.01 1520.93 Q1038.2 1517.37 1034.57 1517.37 M1034.57 1513.66 Q1040.38 1513.66 1043.44 1518.27 Q1046.52 1522.85 1046.52 1531.6 Q1046.52 1540.33 1043.44 1544.94 Q1040.38 1549.52 1034.57 1549.52 Q1028.76 1549.52 1025.68 1544.94 Q1022.63 1540.33 1022.63 1531.6 Q1022.63 1522.85 1025.68 1518.27 Q1028.76 1513.66 1034.57 1513.66 Z" fill="#000000" fill-rule="evenodd" fill-opacity="1" /><path clip-path="url(#clip870)" d="M1326.39 1517.37 Q1322.78 1517.37 1320.95 1520.93 Q1319.14 1524.47 1319.14 1531.6 Q1319.14 1538.71 1320.95 1542.27 Q1322.78 1545.82 1326.39 1545.82 Q1330.02 1545.82 1331.83 1542.27 Q1333.66 1538.71 1333.66 1531.6 Q1333.66 1524.47 1331.83 1520.93 Q1330.02 1517.37 1326.39 1517.37 M1326.39 1513.66 Q1332.2 1513.66 1335.26 1518.27 Q1338.33 1522.85 1338.33 1531.6 Q1338.33 1540.33 1335.26 1544.94 Q1332.2 1549.52 1326.39 1549.52 Q1320.58 1549.52 1317.5 1544.94 Q1314.45 1540.33 1314.45 1531.6 Q1314.45 1522.85 1317.5 1518.27 Q1320.58 1513.66 1326.39 1513.66 Z" fill="#000000" fill-rule="evenodd" fill-opacity="1" /><path clip-path="url(#clip870)" d="M1346.55 1542.97 L1351.44 1542.97 L1351.44 1548.85 L1346.55 1548.85 L1346.55 1542.97 Z" fill="#000000" fill-rule="evenodd" fill-opacity="1" /><path clip-path="url(#clip870)" d="M1361.67 1514.29 L1380.02 1514.29 L1380.02 1518.22 L1365.95 1518.22 L1365.95 1526.7 Q1366.97 1526.35 1367.99 1526.19 Q1369.01 1526 1370.02 1526 Q1375.81 1526 1379.19 1529.17 Q1382.57 1532.34 1382.57 1537.76 Q1382.57 1543.34 1379.1 1546.44 Q1375.63 1549.52 1369.31 1549.52 Q1367.13 1549.52 1364.86 1549.15 Q1362.62 1548.78 1360.21 1548.04 L1360.21 1543.34 Q1362.29 1544.47 1364.51 1545.03 Q1366.74 1545.58 1369.21 1545.58 Q1373.22 1545.58 1375.56 1543.48 Q1377.89 1541.37 1377.89 1537.76 Q1377.89 1534.15 1375.56 1532.04 Q1373.22 1529.94 1369.21 1529.94 Q1367.34 1529.94 1365.46 1530.35 Q1363.61 1530.77 1361.67 1531.65 L1361.67 1514.29 Z" fill="#000000" fill-rule="evenodd" fill-opacity="1" /><path clip-path="url(#clip870)" d="M1652.21 1544.91 L1659.85 1544.91 L1659.85 1518.55 L1651.54 1520.21 L1651.54 1515.95 L1659.81 1514.29 L1664.48 1514.29 L1664.48 1544.91 L1672.12 1544.91 L1672.12 1548.85 L1652.21 1548.85 L1652.21 1544.91 Z" fill="#000000" fill-rule="evenodd" fill-opacity="1" /><path clip-path="url(#clip870)" d="M1681.57 1542.97 L1686.45 1542.97 L1686.45 1548.85 L1681.57 1548.85 L1681.57 1542.97 Z" fill="#000000" fill-rule="evenodd" fill-opacity="1" /><path clip-path="url(#clip870)" d="M1706.63 1517.37 Q1703.02 1517.37 1701.19 1520.93 Q1699.39 1524.47 1699.39 1531.6 Q1699.39 1538.71 1701.19 1542.27 Q1703.02 1545.82 1706.63 1545.82 Q1710.27 1545.82 1712.07 1542.27 Q1713.9 1538.71 1713.9 1531.6 Q1713.9 1524.47 1712.07 1520.93 Q1710.27 1517.37 1706.63 1517.37 M1706.63 1513.66 Q1712.44 1513.66 1715.5 1518.27 Q1718.58 1522.85 1718.58 1531.6 Q1718.58 1540.33 1715.5 1544.94 Q1712.44 1549.52 1706.63 1549.52 Q1700.82 1549.52 1697.75 1544.94 Q1694.69 1540.33 1694.69 1531.6 Q1694.69 1522.85 1697.75 1518.27 Q1700.82 1513.66 1706.63 1513.66 Z" fill="#000000" fill-rule="evenodd" fill-opacity="1" /><polyline clip-path="url(#clip872)" style="stroke:#000000; stroke-linecap:butt; stroke-linejoin:round; stroke-width:2; stroke-opacity:0.1; fill:none" points="
  155.765,1363.2 1868.15,1363.2 
  "/>
<polyline clip-path="url(#clip872)" style="stroke:#000000; stroke-linecap:butt; stroke-linejoin:round; stroke-width:2; stroke-opacity:0.1; fill:none" points="
  155.765,1150.24 1868.15,1150.24 
  "/>
<polyline clip-path="url(#clip872)" style="stroke:#000000; stroke-linecap:butt; stroke-linejoin:round; stroke-width:2; stroke-opacity:0.1; fill:none" points="
  155.765,937.275 1868.15,937.275 
  "/>
<polyline clip-path="url(#clip872)" style="stroke:#000000; stroke-linecap:butt; stroke-linejoin:round; stroke-width:2; stroke-opacity:0.1; fill:none" points="
  155.765,724.314 1868.15,724.314 
  "/>
<polyline clip-path="url(#clip872)" style="stroke:#000000; stroke-linecap:butt; stroke-linejoin:round; stroke-width:2; stroke-opacity:0.1; fill:none" points="
  155.765,511.353 1868.15,511.353 
  "/>
<polyline clip-path="url(#clip872)" style="stroke:#000000; stroke-linecap:butt; stroke-linejoin:round; stroke-width:2; stroke-opacity:0.1; fill:none" points="
  155.765,298.392 1868.15,298.392 
  "/>
<polyline clip-path="url(#clip870)" style="stroke:#000000; stroke-linecap:butt; stroke-linejoin:round; stroke-width:4; stroke-opacity:1; fill:none" points="
  155.765,1486.45 155.765,123.472 
  "/>
<polyline clip-path="url(#clip870)" style="stroke:#000000; stroke-linecap:butt; stroke-linejoin:round; stroke-width:4; stroke-opacity:1; fill:none" points="
  155.765,1363.2 170.494,1363.2 
  "/>
<polyline clip-path="url(#clip870)" style="stroke:#000000; stroke-linecap:butt; stroke-linejoin:round; stroke-width:4; stroke-opacity:1; fill:none" points="
  155.765,1150.24 170.494,1150.24 
  "/>
<polyline clip-path="url(#clip870)" style="stroke:#000000; stroke-linecap:butt; stroke-linejoin:round; stroke-width:4; stroke-opacity:1; fill:none" points="
  155.765,937.275 170.494,937.275 
  "/>
<polyline clip-path="url(#clip870)" style="stroke:#000000; stroke-linecap:butt; stroke-linejoin:round; stroke-width:4; stroke-opacity:1; fill:none" points="
  155.765,724.314 170.494,724.314 
  "/>
<polyline clip-path="url(#clip870)" style="stroke:#000000; stroke-linecap:butt; stroke-linejoin:round; stroke-width:4; stroke-opacity:1; fill:none" points="
  155.765,511.353 170.494,511.353 
  "/>
<polyline clip-path="url(#clip870)" style="stroke:#000000; stroke-linecap:butt; stroke-linejoin:round; stroke-width:4; stroke-opacity:1; fill:none" points="
  155.765,298.392 170.494,298.392 
  "/>
<path clip-path="url(#clip870)" d="M63.5847 1349 Q59.9736 1349 58.1449 1352.56 Q56.3393 1356.1 56.3393 1363.23 Q56.3393 1370.34 58.1449 1373.9 Q59.9736 1377.44 63.5847 1377.44 Q67.2189 1377.44 69.0244 1373.9 Q70.8531 1370.34 70.8531 1363.23 Q70.8531 1356.1 69.0244 1352.56 Q67.2189 1349 63.5847 1349 M63.5847 1345.29 Q69.3948 1345.29 72.4503 1349.9 Q75.529 1354.48 75.529 1363.23 Q75.529 1371.96 72.4503 1376.57 Q69.3948 1381.15 63.5847 1381.15 Q57.7745 1381.15 54.6958 1376.57 Q51.6403 1371.96 51.6403 1363.23 Q51.6403 1354.48 54.6958 1349.9 Q57.7745 1345.29 63.5847 1345.29 Z" fill="#000000" fill-rule="evenodd" fill-opacity="1" /><path clip-path="url(#clip870)" d="M83.7466 1374.6 L88.6308 1374.6 L88.6308 1380.48 L83.7466 1380.48 L83.7466 1374.6 Z" fill="#000000" fill-rule="evenodd" fill-opacity="1" /><path clip-path="url(#clip870)" d="M98.8622 1345.92 L117.219 1345.92 L117.219 1349.85 L103.145 1349.85 L103.145 1358.32 Q104.163 1357.98 105.182 1357.82 Q106.2 1357.63 107.219 1357.63 Q113.006 1357.63 116.385 1360.8 Q119.765 1363.97 119.765 1369.39 Q119.765 1374.97 116.293 1378.07 Q112.82 1381.15 106.501 1381.15 Q104.325 1381.15 102.057 1380.78 Q99.8113 1380.41 97.4039 1379.67 L97.4039 1374.97 Q99.4872 1376.1 101.709 1376.66 Q103.932 1377.21 106.408 1377.21 Q110.413 1377.21 112.751 1375.11 Q115.089 1373 115.089 1369.39 Q115.089 1365.78 112.751 1363.67 Q110.413 1361.57 106.408 1361.57 Q104.534 1361.57 102.659 1361.98 Q100.807 1362.4 98.8622 1363.28 L98.8622 1345.92 Z" fill="#000000" fill-rule="evenodd" fill-opacity="1" /><path clip-path="url(#clip870)" d="M53.3995 1163.58 L61.0384 1163.58 L61.0384 1137.22 L52.7282 1138.88 L52.7282 1134.62 L60.9921 1132.96 L65.668 1132.96 L65.668 1163.58 L73.3068 1163.58 L73.3068 1167.52 L53.3995 1167.52 L53.3995 1163.58 Z" fill="#000000" fill-rule="evenodd" fill-opacity="1" /><path clip-path="url(#clip870)" d="M82.7512 1161.64 L87.6354 1161.64 L87.6354 1167.52 L82.7512 1167.52 L82.7512 1161.64 Z" fill="#000000" fill-rule="evenodd" fill-opacity="1" /><path clip-path="url(#clip870)" d="M107.821 1136.03 Q104.209 1136.03 102.381 1139.6 Q100.575 1143.14 100.575 1150.27 Q100.575 1157.38 102.381 1160.94 Q104.209 1164.48 107.821 1164.48 Q111.455 1164.48 113.26 1160.94 Q115.089 1157.38 115.089 1150.27 Q115.089 1143.14 113.26 1139.6 Q111.455 1136.03 107.821 1136.03 M107.821 1132.33 Q113.631 1132.33 116.686 1136.94 Q119.765 1141.52 119.765 1150.27 Q119.765 1159 116.686 1163.6 Q113.631 1168.19 107.821 1168.19 Q102.01 1168.19 98.9317 1163.6 Q95.8761 1159 95.8761 1150.27 Q95.8761 1141.52 98.9317 1136.94 Q102.01 1132.33 107.821 1132.33 Z" fill="#000000" fill-rule="evenodd" fill-opacity="1" /><path clip-path="url(#clip870)" d="M54.3949 950.62 L62.0337 950.62 L62.0337 924.254 L53.7236 925.921 L53.7236 921.662 L61.9874 919.995 L66.6633 919.995 L66.6633 950.62 L74.3022 950.62 L74.3022 954.555 L54.3949 954.555 L54.3949 950.62 Z" fill="#000000" fill-rule="evenodd" fill-opacity="1" /><path clip-path="url(#clip870)" d="M83.7466 948.676 L88.6308 948.676 L88.6308 954.555 L83.7466 954.555 L83.7466 948.676 Z" fill="#000000" fill-rule="evenodd" fill-opacity="1" /><path clip-path="url(#clip870)" d="M98.8622 919.995 L117.219 919.995 L117.219 923.93 L103.145 923.93 L103.145 932.402 Q104.163 932.055 105.182 931.893 Q106.2 931.708 107.219 931.708 Q113.006 931.708 116.385 934.879 Q119.765 938.051 119.765 943.467 Q119.765 949.046 116.293 952.148 Q112.82 955.226 106.501 955.226 Q104.325 955.226 102.057 954.856 Q99.8113 954.486 97.4039 953.745 L97.4039 949.046 Q99.4872 950.18 101.709 950.736 Q103.932 951.291 106.408 951.291 Q110.413 951.291 112.751 949.185 Q115.089 947.078 115.089 943.467 Q115.089 939.856 112.751 937.75 Q110.413 935.643 106.408 935.643 Q104.534 935.643 102.659 936.06 Q100.807 936.476 98.8622 937.356 L98.8622 919.995 Z" fill="#000000" fill-rule="evenodd" fill-opacity="1" /><path clip-path="url(#clip870)" d="M56.6171 737.659 L72.9365 737.659 L72.9365 741.594 L50.9921 741.594 L50.9921 737.659 Q53.6541 734.904 58.2375 730.275 Q62.8439 725.622 64.0245 724.279 Q66.2698 721.756 67.1494 720.02 Q68.0522 718.261 68.0522 716.571 Q68.0522 713.816 66.1078 712.08 Q64.1865 710.344 61.0847 710.344 Q58.8856 710.344 56.4319 711.108 Q54.0014 711.872 51.2236 713.423 L51.2236 708.701 Q54.0477 707.566 56.5014 706.988 Q58.955 706.409 60.9921 706.409 Q66.3624 706.409 69.5568 709.094 Q72.7513 711.779 72.7513 716.27 Q72.7513 718.4 71.9411 720.321 Q71.1541 722.219 69.0476 724.812 Q68.4689 725.483 65.367 728.701 Q62.2652 731.895 56.6171 737.659 Z" fill="#000000" fill-rule="evenodd" fill-opacity="1" /><path clip-path="url(#clip870)" d="M82.7512 735.714 L87.6354 735.714 L87.6354 741.594 L82.7512 741.594 L82.7512 735.714 Z" fill="#000000" fill-rule="evenodd" fill-opacity="1" /><path clip-path="url(#clip870)" d="M107.821 710.113 Q104.209 710.113 102.381 713.677 Q100.575 717.219 100.575 724.349 Q100.575 731.455 102.381 735.02 Q104.209 738.562 107.821 738.562 Q111.455 738.562 113.26 735.02 Q115.089 731.455 115.089 724.349 Q115.089 717.219 113.26 713.677 Q111.455 710.113 107.821 710.113 M107.821 706.409 Q113.631 706.409 116.686 711.015 Q119.765 715.599 119.765 724.349 Q119.765 733.076 116.686 737.682 Q113.631 742.265 107.821 742.265 Q102.01 742.265 98.9317 737.682 Q95.8761 733.076 95.8761 724.349 Q95.8761 715.599 98.9317 711.015 Q102.01 706.409 107.821 706.409 Z" fill="#000000" fill-rule="evenodd" fill-opacity="1" /><path clip-path="url(#clip870)" d="M57.6125 524.698 L73.9318 524.698 L73.9318 528.633 L51.9875 528.633 L51.9875 524.698 Q54.6495 521.943 59.2328 517.314 Q63.8393 512.661 65.0198 511.318 Q67.2652 508.795 68.1448 507.059 Q69.0476 505.3 69.0476 503.61 Q69.0476 500.855 67.1032 499.119 Q65.1819 497.383 62.08 497.383 Q59.881 497.383 57.4273 498.147 Q54.9967 498.911 52.219 500.462 L52.219 495.74 Q55.043 494.605 57.4967 494.027 Q59.9504 493.448 61.9874 493.448 Q67.3578 493.448 70.5522 496.133 Q73.7466 498.818 73.7466 503.309 Q73.7466 505.439 72.9365 507.36 Q72.1494 509.258 70.0429 511.851 Q69.4642 512.522 66.3624 515.739 Q63.2606 518.934 57.6125 524.698 Z" fill="#000000" fill-rule="evenodd" fill-opacity="1" /><path clip-path="url(#clip870)" d="M83.7466 522.753 L88.6308 522.753 L88.6308 528.633 L83.7466 528.633 L83.7466 522.753 Z" fill="#000000" fill-rule="evenodd" fill-opacity="1" /><path clip-path="url(#clip870)" d="M98.8622 494.073 L117.219 494.073 L117.219 498.008 L103.145 498.008 L103.145 506.48 Q104.163 506.133 105.182 505.971 Q106.2 505.786 107.219 505.786 Q113.006 505.786 116.385 508.957 Q119.765 512.128 119.765 517.545 Q119.765 523.124 116.293 526.226 Q112.82 529.304 106.501 529.304 Q104.325 529.304 102.057 528.934 Q99.8113 528.563 97.4039 527.823 L97.4039 523.124 Q99.4872 524.258 101.709 524.813 Q103.932 525.369 106.408 525.369 Q110.413 525.369 112.751 523.263 Q115.089 521.156 115.089 517.545 Q115.089 513.934 112.751 511.827 Q110.413 509.721 106.408 509.721 Q104.534 509.721 102.659 510.138 Q100.807 510.554 98.8622 511.434 L98.8622 494.073 Z" fill="#000000" fill-rule="evenodd" fill-opacity="1" /><path clip-path="url(#clip870)" d="M66.7559 297.038 Q70.1124 297.755 71.9874 300.024 Q73.8855 302.292 73.8855 305.626 Q73.8855 310.741 70.367 313.542 Q66.8485 316.343 60.3671 316.343 Q58.1912 316.343 55.8764 315.903 Q53.5847 315.487 51.131 314.63 L51.131 310.116 Q53.0754 311.251 55.3903 311.829 Q57.7051 312.408 60.2282 312.408 Q64.6263 312.408 66.918 310.672 Q69.2328 308.936 69.2328 305.626 Q69.2328 302.57 67.08 300.857 Q64.9504 299.121 61.131 299.121 L57.1032 299.121 L57.1032 295.278 L61.3161 295.278 Q64.7652 295.278 66.5939 293.913 Q68.4226 292.524 68.4226 289.931 Q68.4226 287.269 66.5245 285.857 Q64.6495 284.422 61.131 284.422 Q59.2097 284.422 57.0106 284.839 Q54.8115 285.255 52.1727 286.135 L52.1727 281.968 Q54.8347 281.228 57.1495 280.857 Q59.4875 280.487 61.5476 280.487 Q66.8717 280.487 69.9735 282.917 Q73.0753 285.325 73.0753 289.445 Q73.0753 292.315 71.4318 294.306 Q69.7883 296.274 66.7559 297.038 Z" fill="#000000" fill-rule="evenodd" fill-opacity="1" /><path clip-path="url(#clip870)" d="M82.7512 309.792 L87.6354 309.792 L87.6354 315.672 L82.7512 315.672 L82.7512 309.792 Z" fill="#000000" fill-rule="evenodd" fill-opacity="1" /><path clip-path="url(#clip870)" d="M107.821 284.19 Q104.209 284.19 102.381 287.755 Q100.575 291.297 100.575 298.427 Q100.575 305.533 102.381 309.098 Q104.209 312.639 107.821 312.639 Q111.455 312.639 113.26 309.098 Q115.089 305.533 115.089 298.427 Q115.089 291.297 113.26 287.755 Q111.455 284.19 107.821 284.19 M107.821 280.487 Q113.631 280.487 116.686 285.093 Q119.765 289.677 119.765 298.427 Q119.765 307.153 116.686 311.76 Q113.631 316.343 107.821 316.343 Q102.01 316.343 98.9317 311.76 Q95.8761 307.153 95.8761 298.427 Q95.8761 289.677 98.9317 285.093 Q102.01 280.487 107.821 280.487 Z" fill="#000000" fill-rule="evenodd" fill-opacity="1" /><path clip-path="url(#clip870)" d="M287.167 18.8205 L287.167 41.5461 L297.457 41.5461 Q303.168 41.5461 306.288 38.5889 Q309.407 35.6318 309.407 30.163 Q309.407 24.7348 306.288 21.7777 Q303.168 18.8205 297.457 18.8205 L287.167 18.8205 M278.984 12.096 L297.457 12.096 Q307.624 12.096 312.809 16.714 Q318.035 21.2916 318.035 30.163 Q318.035 39.1155 312.809 43.6931 Q307.624 48.2706 297.457 48.2706 L287.167 48.2706 L287.167 72.576 L278.984 72.576 L278.984 12.096 Z" fill="#000000" fill-rule="evenodd" fill-opacity="1" /><path clip-path="url(#clip870)" d="M353.521 34.1734 Q352.265 33.4443 350.766 33.1202 Q349.308 32.7556 347.526 32.7556 Q341.206 32.7556 337.804 36.8875 Q334.441 40.9789 334.441 48.6757 L334.441 72.576 L326.947 72.576 L326.947 27.2059 L334.441 27.2059 L334.441 34.2544 Q336.791 30.1225 340.558 28.1376 Q344.325 26.1121 349.713 26.1121 Q350.483 26.1121 351.415 26.2337 Q352.346 26.3147 353.481 26.5172 L353.521 34.1734 Z" fill="#000000" fill-rule="evenodd" fill-opacity="1" /><path clip-path="url(#clip870)" d="M377.097 32.4315 Q371.102 32.4315 367.618 37.1306 Q364.134 41.7891 364.134 49.9314 Q364.134 58.0738 367.578 62.7728 Q371.061 67.4314 377.097 67.4314 Q383.052 67.4314 386.536 62.7323 Q390.02 58.0333 390.02 49.9314 Q390.02 41.8701 386.536 37.1711 Q383.052 32.4315 377.097 32.4315 M377.097 26.1121 Q386.819 26.1121 392.369 32.4315 Q397.919 38.7509 397.919 49.9314 Q397.919 61.0714 392.369 67.4314 Q386.819 73.7508 377.097 73.7508 Q367.335 73.7508 361.785 67.4314 Q356.276 61.0714 356.276 49.9314 Q356.276 38.7509 361.785 32.4315 Q367.335 26.1121 377.097 26.1121 Z" fill="#000000" fill-rule="evenodd" fill-opacity="1" /><path clip-path="url(#clip870)" d="M442.843 49.9314 Q442.843 41.7081 439.441 37.0496 Q436.078 32.3505 430.164 32.3505 Q424.25 32.3505 420.847 37.0496 Q417.485 41.7081 417.485 49.9314 Q417.485 58.1548 420.847 62.8538 Q424.25 67.5124 430.164 67.5124 Q436.078 67.5124 439.441 62.8538 Q442.843 58.1548 442.843 49.9314 M417.485 34.0924 Q419.834 30.0415 423.399 28.0971 Q427.004 26.1121 431.987 26.1121 Q440.251 26.1121 445.396 32.6746 Q450.581 39.2371 450.581 49.9314 Q450.581 60.6258 445.396 67.1883 Q440.251 73.7508 431.987 73.7508 Q427.004 73.7508 423.399 71.8063 Q419.834 69.8214 417.485 65.7705 L417.485 72.576 L409.991 72.576 L409.991 9.54393 L417.485 9.54393 L417.485 34.0924 Z" fill="#000000" fill-rule="evenodd" fill-opacity="1" /><path clip-path="url(#clip870)" d="M462.936 9.54393 L470.39 9.54393 L470.39 72.576 L462.936 72.576 L462.936 9.54393 Z" fill="#000000" fill-rule="evenodd" fill-opacity="1" /><path clip-path="url(#clip870)" d="M524.793 48.0275 L524.793 51.6733 L490.523 51.6733 Q491.009 59.3701 495.141 63.421 Q499.313 67.4314 506.726 67.4314 Q511.02 67.4314 515.031 66.3781 Q519.082 65.3249 523.051 63.2184 L523.051 70.267 Q519.041 71.9684 514.828 72.8596 Q510.615 73.7508 506.281 73.7508 Q495.424 73.7508 489.064 67.4314 Q482.745 61.1119 482.745 50.3365 Q482.745 39.1965 488.74 32.6746 Q494.776 26.1121 504.984 26.1121 Q514.139 26.1121 519.446 32.0264 Q524.793 37.9003 524.793 48.0275 M517.34 45.84 Q517.259 39.7232 513.896 36.0774 Q510.575 32.4315 505.065 32.4315 Q498.827 32.4315 495.06 35.9558 Q491.333 39.4801 490.766 45.8805 L517.34 45.84 Z" fill="#000000" fill-rule="evenodd" fill-opacity="1" /><path clip-path="url(#clip870)" d="M572.351 35.9153 Q575.146 30.8922 579.035 28.5022 Q582.924 26.1121 588.19 26.1121 Q595.279 26.1121 599.127 31.0947 Q602.976 36.0368 602.976 45.1919 L602.976 72.576 L595.482 72.576 L595.482 45.4349 Q595.482 38.913 593.173 35.7533 Q590.864 32.5936 586.124 32.5936 Q580.331 32.5936 576.969 36.4419 Q573.607 40.2903 573.607 46.9338 L573.607 72.576 L566.113 72.576 L566.113 45.4349 Q566.113 38.8725 563.803 35.7533 Q561.494 32.5936 556.674 32.5936 Q550.962 32.5936 547.6 36.4824 Q544.238 40.3308 544.238 46.9338 L544.238 72.576 L536.743 72.576 L536.743 27.2059 L544.238 27.2059 L544.238 34.2544 Q546.79 30.082 550.354 28.0971 Q553.919 26.1121 558.821 26.1121 Q563.763 26.1121 567.206 28.6237 Q570.69 31.1352 572.351 35.9153 Z" fill="#000000" fill-rule="evenodd" fill-opacity="1" /><path clip-path="url(#clip870)" d="M646.685 65.6895 L660.053 65.6895 L660.053 19.5497 L645.51 22.4663 L645.51 15.0127 L659.972 12.096 L668.155 12.096 L668.155 65.6895 L681.523 65.6895 L681.523 72.576 L646.685 72.576 L646.685 65.6895 Z" fill="#000000" fill-rule="evenodd" fill-opacity="1" /><path clip-path="url(#clip870)" d="M698.05 62.2867 L706.598 62.2867 L706.598 72.576 L698.05 72.576 L698.05 62.2867 Z" fill="#000000" fill-rule="evenodd" fill-opacity="1" /><path clip-path="url(#clip870)" d="M731.47 65.6895 L760.029 65.6895 L760.029 72.576 L721.627 72.576 L721.627 65.6895 Q726.285 60.8689 734.306 52.7671 Q742.367 44.6248 744.433 42.2752 Q748.363 37.8598 749.902 34.8216 Q751.482 31.7429 751.482 28.7857 Q751.482 23.9651 748.079 20.927 Q744.717 17.8888 739.289 17.8888 Q735.44 17.8888 731.146 19.2256 Q726.893 20.5624 722.032 23.2765 L722.032 15.0127 Q726.974 13.0277 731.268 12.015 Q735.562 11.0023 739.127 11.0023 Q748.525 11.0023 754.115 15.7013 Q759.705 20.4004 759.705 28.2591 Q759.705 31.9859 758.287 35.3482 Q756.91 38.6699 753.224 43.2069 Q752.211 44.3817 746.783 50.0125 Q741.355 55.6027 731.47 65.6895 Z" fill="#000000" fill-rule="evenodd" fill-opacity="1" /><path clip-path="url(#clip870)" d="M831.366 65.6895 L844.734 65.6895 L844.734 19.5497 L830.191 22.4663 L830.191 15.0127 L844.653 12.096 L852.836 12.096 L852.836 65.6895 L866.203 65.6895 L866.203 72.576 L831.366 72.576 L831.366 65.6895 Z" fill="#000000" fill-rule="evenodd" fill-opacity="1" /><path clip-path="url(#clip870)" d="M900.231 17.4837 Q893.912 17.4837 890.711 23.7221 Q887.552 29.92 887.552 42.3968 Q887.552 54.833 890.711 61.0714 Q893.912 67.2693 900.231 67.2693 Q906.591 67.2693 909.751 61.0714 Q912.951 54.833 912.951 42.3968 Q912.951 29.92 909.751 23.7221 Q906.591 17.4837 900.231 17.4837 M900.231 11.0023 Q910.399 11.0023 915.746 19.0636 Q921.134 27.0843 921.134 42.3968 Q921.134 57.6687 915.746 65.73 Q910.399 73.7508 900.231 73.7508 Q890.063 73.7508 884.676 65.73 Q879.328 57.6687 879.328 42.3968 Q879.328 27.0843 884.676 19.0636 Q890.063 11.0023 900.231 11.0023 Z" fill="#000000" fill-rule="evenodd" fill-opacity="1" /><path clip-path="url(#clip870)" d="M930.694 46.5287 L952.528 46.5287 L952.528 53.1722 L930.694 53.1722 L930.694 46.5287 Z" fill="#000000" fill-rule="evenodd" fill-opacity="1" /><path clip-path="url(#clip870)" d="M991.579 17.6457 Q982.667 17.6457 977.401 24.2892 Q972.175 30.9327 972.175 42.3968 Q972.175 53.8203 977.401 60.4638 Q982.667 67.1073 991.579 67.1073 Q1000.49 67.1073 1005.68 60.4638 Q1010.9 53.8203 1010.9 42.3968 Q1010.9 30.9327 1005.68 24.2892 Q1000.49 17.6457 991.579 17.6457 M991.579 11.0023 Q1004.3 11.0023 1011.91 19.5497 Q1019.53 28.0566 1019.53 42.3968 Q1019.53 56.6965 1011.91 65.2439 Q1004.3 73.7508 991.579 73.7508 Q978.819 73.7508 971.162 65.2439 Q963.547 56.737 963.547 42.3968 Q963.547 28.0566 971.162 19.5497 Q978.819 11.0023 991.579 11.0023 Z" fill="#000000" fill-rule="evenodd" fill-opacity="1" /><path clip-path="url(#clip870)" d="M1058.3 34.1734 Q1057.04 33.4443 1055.54 33.1202 Q1054.08 32.7556 1052.3 32.7556 Q1045.98 32.7556 1042.58 36.8875 Q1039.22 40.9789 1039.22 48.6757 L1039.22 72.576 L1031.72 72.576 L1031.72 27.2059 L1039.22 27.2059 L1039.22 34.2544 Q1041.57 30.1225 1045.33 28.1376 Q1049.1 26.1121 1054.49 26.1121 Q1055.26 26.1121 1056.19 26.2337 Q1057.12 26.3147 1058.26 26.5172 L1058.3 34.1734 Z" fill="#000000" fill-rule="evenodd" fill-opacity="1" /><path clip-path="url(#clip870)" d="M1094.51 34.0924 L1094.51 9.54393 L1101.97 9.54393 L1101.97 72.576 L1094.51 72.576 L1094.51 65.7705 Q1092.16 69.8214 1088.56 71.8063 Q1084.99 73.7508 1079.97 73.7508 Q1071.75 73.7508 1066.56 67.1883 Q1061.42 60.6258 1061.42 49.9314 Q1061.42 39.2371 1066.56 32.6746 Q1071.75 26.1121 1079.97 26.1121 Q1084.99 26.1121 1088.56 28.0971 Q1092.16 30.0415 1094.51 34.0924 M1069.11 49.9314 Q1069.11 58.1548 1072.48 62.8538 Q1075.88 67.5124 1081.79 67.5124 Q1087.71 67.5124 1091.11 62.8538 Q1094.51 58.1548 1094.51 49.9314 Q1094.51 41.7081 1091.11 37.0496 Q1087.71 32.3505 1081.79 32.3505 Q1075.88 32.3505 1072.48 37.0496 Q1069.11 41.7081 1069.11 49.9314 Z" fill="#000000" fill-rule="evenodd" fill-opacity="1" /><path clip-path="url(#clip870)" d="M1156.13 48.0275 L1156.13 51.6733 L1121.86 51.6733 Q1122.34 59.3701 1126.47 63.421 Q1130.65 67.4314 1138.06 67.4314 Q1142.35 67.4314 1146.36 66.3781 Q1150.41 65.3249 1154.38 63.2184 L1154.38 70.267 Q1150.37 71.9684 1146.16 72.8596 Q1141.95 73.7508 1137.61 73.7508 Q1126.76 73.7508 1120.4 67.4314 Q1114.08 61.1119 1114.08 50.3365 Q1114.08 39.1965 1120.07 32.6746 Q1126.11 26.1121 1136.32 26.1121 Q1145.47 26.1121 1150.78 32.0264 Q1156.13 37.9003 1156.13 48.0275 M1148.67 45.84 Q1148.59 39.7232 1145.23 36.0774 Q1141.91 32.4315 1136.4 32.4315 Q1130.16 32.4315 1126.39 35.9558 Q1122.67 39.4801 1122.1 45.8805 L1148.67 45.84 Z" fill="#000000" fill-rule="evenodd" fill-opacity="1" /><path clip-path="url(#clip870)" d="M1194.65 34.1734 Q1193.4 33.4443 1191.9 33.1202 Q1190.44 32.7556 1188.66 32.7556 Q1182.34 32.7556 1178.93 36.8875 Q1175.57 40.9789 1175.57 48.6757 L1175.57 72.576 L1168.08 72.576 L1168.08 27.2059 L1175.57 27.2059 L1175.57 34.2544 Q1177.92 30.1225 1181.69 28.1376 Q1185.46 26.1121 1190.84 26.1121 Q1191.61 26.1121 1192.54 26.2337 Q1193.48 26.3147 1194.61 26.5172 L1194.65 34.1734 Z" fill="#000000" fill-rule="evenodd" fill-opacity="1" /><path clip-path="url(#clip870)" d="M1229.16 12.096 L1237.35 12.096 L1237.35 72.576 L1229.16 72.576 L1229.16 12.096 Z" fill="#000000" fill-rule="evenodd" fill-opacity="1" /><path clip-path="url(#clip870)" d="M1291.02 45.1919 L1291.02 72.576 L1283.57 72.576 L1283.57 45.4349 Q1283.57 38.994 1281.06 35.7938 Q1278.55 32.5936 1273.52 32.5936 Q1267.49 32.5936 1264 36.4419 Q1260.52 40.2903 1260.52 46.9338 L1260.52 72.576 L1253.02 72.576 L1253.02 27.2059 L1260.52 27.2059 L1260.52 34.2544 Q1263.19 30.163 1266.8 28.1376 Q1270.44 26.1121 1275.18 26.1121 Q1283 26.1121 1287.01 30.9732 Q1291.02 35.7938 1291.02 45.1919 Z" fill="#000000" fill-rule="evenodd" fill-opacity="1" /><path clip-path="url(#clip870)" d="M1313.26 14.324 L1313.26 27.2059 L1328.61 27.2059 L1328.61 32.9987 L1313.26 32.9987 L1313.26 57.6282 Q1313.26 63.1779 1314.76 64.7578 Q1316.3 66.3376 1320.96 66.3376 L1328.61 66.3376 L1328.61 72.576 L1320.96 72.576 Q1312.33 72.576 1309.05 69.3758 Q1305.77 66.1351 1305.77 57.6282 L1305.77 32.9987 L1300.3 32.9987 L1300.3 27.2059 L1305.77 27.2059 L1305.77 14.324 L1313.26 14.324 Z" fill="#000000" fill-rule="evenodd" fill-opacity="1" /><path clip-path="url(#clip870)" d="M1377.23 48.0275 L1377.23 51.6733 L1342.95 51.6733 Q1343.44 59.3701 1347.57 63.421 Q1351.74 67.4314 1359.16 67.4314 Q1363.45 67.4314 1367.46 66.3781 Q1371.51 65.3249 1375.48 63.2184 L1375.48 70.267 Q1371.47 71.9684 1367.26 72.8596 Q1363.05 73.7508 1358.71 73.7508 Q1347.86 73.7508 1341.5 67.4314 Q1335.18 61.1119 1335.18 50.3365 Q1335.18 39.1965 1341.17 32.6746 Q1347.21 26.1121 1357.42 26.1121 Q1366.57 26.1121 1371.88 32.0264 Q1377.23 37.9003 1377.23 48.0275 M1369.77 45.84 Q1369.69 39.7232 1366.33 36.0774 Q1363.01 32.4315 1357.5 32.4315 Q1351.26 32.4315 1347.49 35.9558 Q1343.76 39.4801 1343.2 45.8805 L1369.77 45.84 Z" fill="#000000" fill-rule="evenodd" fill-opacity="1" /><path clip-path="url(#clip870)" d="M1415.75 34.1734 Q1414.49 33.4443 1412.99 33.1202 Q1411.54 32.7556 1409.75 32.7556 Q1403.43 32.7556 1400.03 36.8875 Q1396.67 40.9789 1396.67 48.6757 L1396.67 72.576 L1389.18 72.576 L1389.18 27.2059 L1396.67 27.2059 L1396.67 34.2544 Q1399.02 30.1225 1402.79 28.1376 Q1406.55 26.1121 1411.94 26.1121 Q1412.71 26.1121 1413.64 26.2337 Q1414.57 26.3147 1415.71 26.5172 L1415.75 34.1734 Z" fill="#000000" fill-rule="evenodd" fill-opacity="1" /><path clip-path="url(#clip870)" d="M1430.78 65.7705 L1430.78 89.8329 L1423.28 89.8329 L1423.28 27.2059 L1430.78 27.2059 L1430.78 34.0924 Q1433.13 30.0415 1436.69 28.0971 Q1440.3 26.1121 1445.28 26.1121 Q1453.54 26.1121 1458.69 32.6746 Q1463.87 39.2371 1463.87 49.9314 Q1463.87 60.6258 1458.69 67.1883 Q1453.54 73.7508 1445.28 73.7508 Q1440.3 73.7508 1436.69 71.8063 Q1433.13 69.8214 1430.78 65.7705 M1456.14 49.9314 Q1456.14 41.7081 1452.73 37.0496 Q1449.37 32.3505 1443.46 32.3505 Q1437.54 32.3505 1434.14 37.0496 Q1430.78 41.7081 1430.78 49.9314 Q1430.78 58.1548 1434.14 62.8538 Q1437.54 67.5124 1443.46 67.5124 Q1449.37 67.5124 1452.73 62.8538 Q1456.14 58.1548 1456.14 49.9314 Z" fill="#000000" fill-rule="evenodd" fill-opacity="1" /><path clip-path="url(#clip870)" d="M1493.81 32.4315 Q1487.81 32.4315 1484.33 37.1306 Q1480.85 41.7891 1480.85 49.9314 Q1480.85 58.0738 1484.29 62.7728 Q1487.77 67.4314 1493.81 67.4314 Q1499.76 67.4314 1503.25 62.7323 Q1506.73 58.0333 1506.73 49.9314 Q1506.73 41.8701 1503.25 37.1711 Q1499.76 32.4315 1493.81 32.4315 M1493.81 26.1121 Q1503.53 26.1121 1509.08 32.4315 Q1514.63 38.7509 1514.63 49.9314 Q1514.63 61.0714 1509.08 67.4314 Q1503.53 73.7508 1493.81 73.7508 Q1484.05 73.7508 1478.5 67.4314 Q1472.99 61.0714 1472.99 49.9314 Q1472.99 38.7509 1478.5 32.4315 Q1484.05 26.1121 1493.81 26.1121 Z" fill="#000000" fill-rule="evenodd" fill-opacity="1" /><path clip-path="url(#clip870)" d="M1526.99 9.54393 L1534.44 9.54393 L1534.44 72.576 L1526.99 72.576 L1526.99 9.54393 Z" fill="#000000" fill-rule="evenodd" fill-opacity="1" /><path clip-path="url(#clip870)" d="M1570.66 49.7694 Q1561.62 49.7694 1558.14 51.8354 Q1554.65 53.9013 1554.65 58.8839 Q1554.65 62.8538 1557.25 65.2034 Q1559.88 67.5124 1564.38 67.5124 Q1570.57 67.5124 1574.3 63.1374 Q1578.07 58.7219 1578.07 51.4303 L1578.07 49.7694 L1570.66 49.7694 M1585.52 46.6907 L1585.52 72.576 L1578.07 72.576 L1578.07 65.6895 Q1575.52 69.8214 1571.71 71.8063 Q1567.9 73.7508 1562.39 73.7508 Q1555.42 73.7508 1551.29 69.8619 Q1547.2 65.9325 1547.2 59.3701 Q1547.2 51.7138 1552.31 47.825 Q1557.45 43.9361 1567.62 43.9361 L1578.07 43.9361 L1578.07 43.2069 Q1578.07 38.0623 1574.67 35.2672 Q1571.3 32.4315 1565.19 32.4315 Q1561.3 32.4315 1557.61 33.3632 Q1553.93 34.295 1550.52 36.1584 L1550.52 29.2718 Q1554.61 27.692 1558.46 26.9223 Q1562.31 26.1121 1565.96 26.1121 Q1575.8 26.1121 1580.66 31.2163 Q1585.52 36.3204 1585.52 46.6907 Z" fill="#000000" fill-rule="evenodd" fill-opacity="1" /><path clip-path="url(#clip870)" d="M1608.25 14.324 L1608.25 27.2059 L1623.6 27.2059 L1623.6 32.9987 L1608.25 32.9987 L1608.25 57.6282 Q1608.25 63.1779 1609.75 64.7578 Q1611.29 66.3376 1615.94 66.3376 L1623.6 66.3376 L1623.6 72.576 L1615.94 72.576 Q1607.32 72.576 1604.04 69.3758 Q1600.75 66.1351 1600.75 57.6282 L1600.75 32.9987 L1595.29 32.9987 L1595.29 27.2059 L1600.75 27.2059 L1600.75 14.324 L1608.25 14.324 Z" fill="#000000" fill-rule="evenodd" fill-opacity="1" /><path clip-path="url(#clip870)" d="M1633.4 27.2059 L1640.86 27.2059 L1640.86 72.576 L1633.4 72.576 L1633.4 27.2059 M1633.4 9.54393 L1640.86 9.54393 L1640.86 18.9825 L1633.4 18.9825 L1633.4 9.54393 Z" fill="#000000" fill-rule="evenodd" fill-opacity="1" /><path clip-path="url(#clip870)" d="M1674.03 32.4315 Q1668.04 32.4315 1664.56 37.1306 Q1661.07 41.7891 1661.07 49.9314 Q1661.07 58.0738 1664.52 62.7728 Q1668 67.4314 1674.03 67.4314 Q1679.99 67.4314 1683.47 62.7323 Q1686.96 58.0333 1686.96 49.9314 Q1686.96 41.8701 1683.47 37.1711 Q1679.99 32.4315 1674.03 32.4315 M1674.03 26.1121 Q1683.76 26.1121 1689.31 32.4315 Q1694.86 38.7509 1694.86 49.9314 Q1694.86 61.0714 1689.31 67.4314 Q1683.76 73.7508 1674.03 73.7508 Q1664.27 73.7508 1658.72 67.4314 Q1653.21 61.0714 1653.21 49.9314 Q1653.21 38.7509 1658.72 32.4315 Q1664.27 26.1121 1674.03 26.1121 Z" fill="#000000" fill-rule="evenodd" fill-opacity="1" /><path clip-path="url(#clip870)" d="M1744.93 45.1919 L1744.93 72.576 L1737.47 72.576 L1737.47 45.4349 Q1737.47 38.994 1734.96 35.7938 Q1732.45 32.5936 1727.43 32.5936 Q1721.39 32.5936 1717.91 36.4419 Q1714.42 40.2903 1714.42 46.9338 L1714.42 72.576 L1706.93 72.576 L1706.93 27.2059 L1714.42 27.2059 L1714.42 34.2544 Q1717.1 30.163 1720.7 28.1376 Q1724.35 26.1121 1729.09 26.1121 Q1736.9 26.1121 1740.92 30.9732 Q1744.93 35.7938 1744.93 45.1919 Z" fill="#000000" fill-rule="evenodd" fill-opacity="1" /><polyline clip-path="url(#clip872)" style="stroke:#009af9; stroke-linecap:butt; stroke-linejoin:round; stroke-width:4; stroke-opacity:1; fill:none" points="
  204.228,1447.87 217.691,1445.28 231.153,1442.64 244.615,1439.94 258.077,1437.19 271.539,1434.38 285.001,1431.52 298.463,1428.6 311.925,1425.61 325.387,1422.57 
  338.85,1419.47 352.312,1416.31 365.774,1413.08 379.236,1409.78 392.698,1406.42 406.16,1402.99 419.622,1399.49 433.084,1395.92 446.546,1392.28 460.009,1388.57 
  473.471,1384.78 486.933,1380.91 500.395,1376.97 513.857,1372.94 527.319,1368.84 540.781,1364.65 554.243,1360.38 567.705,1356.02 581.168,1351.57 594.63,1347.04 
  608.092,1342.41 621.554,1337.69 635.016,1332.87 648.478,1327.95 661.94,1322.94 675.402,1317.82 688.864,1312.6 702.327,1307.28 715.789,1301.85 729.251,1296.31 
  742.713,1290.65 756.175,1284.89 769.637,1279 783.099,1273 796.561,1266.88 810.023,1260.63 823.485,1254.25 836.948,1247.75 850.41,1241.12 863.872,1234.35 
  877.334,1227.44 890.796,1220.4 904.258,1213.21 917.72,1205.88 931.182,1198.4 944.644,1190.77 958.107,1182.98 971.569,1175.04 985.031,1166.94 998.493,1158.67 
  1011.96,1150.24 1025.42,1141.63 1038.88,1132.85 1052.34,1123.9 1065.8,1114.76 1079.27,1105.44 1092.73,1095.93 1106.19,1086.23 1119.65,1076.33 1133.11,1066.24 
  1146.58,1055.94 1160.04,1045.43 1173.5,1034.71 1186.96,1023.77 1200.42,1012.61 1213.89,1001.22 1227.35,989.609 1240.81,977.76 1254.27,965.672 1267.74,953.339 
  1281.2,940.757 1294.66,927.921 1308.12,914.826 1321.58,901.466 1335.05,887.836 1348.51,873.931 1361.97,859.745 1375.43,845.273 1388.89,830.508 1402.36,815.445 
  1415.82,800.078 1429.28,784.4 1442.74,768.405 1456.2,752.087 1469.67,735.44 1483.13,718.456 1496.59,701.13 1510.05,683.453 1523.52,665.419 1536.98,647.021 
  1550.44,628.251 1563.9,609.102 1577.36,589.566 1590.83,569.636 1604.29,549.303 1617.75,528.559 1631.21,507.396 1644.67,485.805 1658.14,463.779 1671.6,441.307 
  1685.06,418.382 1698.52,394.993 1711.98,371.132 1725.45,346.789 1738.91,321.954 1752.37,296.617 1765.83,270.769 1779.3,244.398 1792.76,217.495 1806.22,190.048 
  1819.68,162.047 
  "/>
<polyline clip-path="url(#clip872)" style="stroke:#ee82ee; stroke-linecap:butt; stroke-linejoin:round; stroke-width:4; stroke-opacity:1; fill:none" points="
  204.228,1447.87 217.691,1445.28 231.153,1442.64 244.615,1439.94 258.077,1437.19 271.539,1434.38 285.001,1431.52 298.463,1428.6 311.925,1425.61 325.387,1422.57 
  338.85,1419.47 352.312,1416.31 365.774,1413.08 379.236,1409.78 392.698,1406.42 406.16,1402.99 419.622,1399.49 433.084,1395.92 446.546,1392.28 460.009,1388.57 
  473.471,1384.78 486.933,1380.91 500.395,1376.97 513.857,1372.94 527.319,1368.84 540.781,1364.65 554.243,1360.38 567.705,1356.02 581.168,1351.57 594.63,1347.04 
  608.092,1342.41 621.554,1337.69 635.016,1332.87 648.478,1327.95 661.94,1322.94 675.402,1317.82 688.864,1312.6 702.327,1307.28 715.789,1301.85 729.251,1296.31 
  742.713,1290.65 756.175,1284.89 769.637,1279 783.099,1273 796.561,1266.88 810.023,1260.63 823.485,1254.25 836.948,1247.75 850.41,1241.12 863.872,1234.35 
  877.334,1227.44 890.796,1220.4 904.258,1213.21 917.72,1205.88 931.182,1198.4 944.644,1190.77 958.107,1182.98 971.569,1175.04 985.031,1166.94 998.493,1158.67 
  1011.96,1150.24 1025.42,1141.63 1038.88,1132.85 1052.34,1123.9 1065.8,1114.76 1079.27,1105.44 1092.73,1095.93 1106.19,1086.23 1119.65,1076.33 1133.11,1066.24 
  1146.58,1055.94 1160.04,1045.43 1173.5,1034.71 1186.96,1023.77 1200.42,1012.61 1213.89,1001.22 1227.35,989.609 1240.81,977.76 1254.27,965.672 1267.74,953.339 
  1281.2,940.757 1294.66,927.921 1308.12,914.826 1321.58,901.466 1335.05,887.836 1348.51,873.931 1361.97,859.745 1375.43,845.273 1388.89,830.508 1402.36,815.445 
  1415.82,800.078 1429.28,784.4 1442.74,768.405 1456.2,752.087 1469.67,735.44 1483.13,718.456 1496.59,701.13 1510.05,683.453 1523.52,665.419 1536.98,647.021 
  1550.44,628.251 1563.9,609.102 1577.36,589.566 1590.83,569.636 1604.29,549.303 1617.75,528.559 1631.21,507.396 1644.67,485.805 1658.14,463.779 1671.6,441.307 
  1685.06,418.382 1698.52,394.993 1711.98,371.132 1725.45,346.789 1738.91,321.954 1752.37,296.617 1765.83,270.769 1779.3,244.398 1792.76,217.495 1806.22,190.048 
  1819.68,162.047 
  "/>
<circle clip-path="url(#clip872)" cx="338.85" cy="1419.47" r="10" fill="#00bfff" fill-rule="evenodd" fill-opacity="1" stroke="#000000" stroke-opacity="1" stroke-width="3.2"/>
<circle clip-path="url(#clip872)" cx="473.471" cy="1384.78" r="10" fill="#00bfff" fill-rule="evenodd" fill-opacity="1" stroke="#000000" stroke-opacity="1" stroke-width="3.2"/>
<circle clip-path="url(#clip872)" cx="608.092" cy="1342.41" r="10" fill="#00bfff" fill-rule="evenodd" fill-opacity="1" stroke="#000000" stroke-opacity="1" stroke-width="3.2"/>
<circle clip-path="url(#clip872)" cx="742.713" cy="1290.65" r="10" fill="#00bfff" fill-rule="evenodd" fill-opacity="1" stroke="#000000" stroke-opacity="1" stroke-width="3.2"/>
<circle clip-path="url(#clip872)" cx="877.334" cy="1227.44" r="10" fill="#00bfff" fill-rule="evenodd" fill-opacity="1" stroke="#000000" stroke-opacity="1" stroke-width="3.2"/>
<circle clip-path="url(#clip872)" cx="1011.96" cy="1150.24" r="10" fill="#00bfff" fill-rule="evenodd" fill-opacity="1" stroke="#000000" stroke-opacity="1" stroke-width="3.2"/>
<circle clip-path="url(#clip872)" cx="1146.58" cy="1055.94" r="10" fill="#00bfff" fill-rule="evenodd" fill-opacity="1" stroke="#000000" stroke-opacity="1" stroke-width="3.2"/>
<circle clip-path="url(#clip872)" cx="1281.2" cy="940.757" r="10" fill="#00bfff" fill-rule="evenodd" fill-opacity="1" stroke="#000000" stroke-opacity="1" stroke-width="3.2"/>
<circle clip-path="url(#clip872)" cx="1415.82" cy="800.078" r="10" fill="#00bfff" fill-rule="evenodd" fill-opacity="1" stroke="#000000" stroke-opacity="1" stroke-width="3.2"/>
<circle clip-path="url(#clip872)" cx="1550.44" cy="628.251" r="10" fill="#00bfff" fill-rule="evenodd" fill-opacity="1" stroke="#000000" stroke-opacity="1" stroke-width="3.2"/>
<circle clip-path="url(#clip872)" cx="1685.06" cy="418.382" r="10" fill="#00bfff" fill-rule="evenodd" fill-opacity="1" stroke="#000000" stroke-opacity="1" stroke-width="3.2"/>
<circle clip-path="url(#clip872)" cx="372.505" cy="1411.44" r="10" fill="#0000ff" fill-rule="evenodd" fill-opacity="1" stroke="#000000" stroke-opacity="1" stroke-width="3.2"/>
<circle clip-path="url(#clip872)" cx="978.3" cy="1171.01" r="10" fill="#0000ff" fill-rule="evenodd" fill-opacity="1" stroke="#000000" stroke-opacity="1" stroke-width="3.2"/>
<circle clip-path="url(#clip872)" cx="1045.61" cy="1128.4" r="10" fill="#0000ff" fill-rule="evenodd" fill-opacity="1" stroke="#000000" stroke-opacity="1" stroke-width="3.2"/>
<circle clip-path="url(#clip872)" cx="1651.41" cy="474.847" r="10" fill="#0000ff" fill-rule="evenodd" fill-opacity="1" stroke="#000000" stroke-opacity="1" stroke-width="3.2"/>
<circle clip-path="url(#clip872)" cx="372.505" cy="1411.44" r="10" fill="#ff0000" fill-rule="evenodd" fill-opacity="1" stroke="#000000" stroke-opacity="1" stroke-width="3.2"/>
<circle clip-path="url(#clip872)" cx="978.3" cy="1171.01" r="10" fill="#ff0000" fill-rule="evenodd" fill-opacity="1" stroke="#000000" stroke-opacity="1" stroke-width="3.2"/>
<circle clip-path="url(#clip872)" cx="1045.61" cy="1128.4" r="10" fill="#ff0000" fill-rule="evenodd" fill-opacity="1" stroke="#000000" stroke-opacity="1" stroke-width="3.2"/>
<circle clip-path="url(#clip872)" cx="1651.41" cy="474.847" r="10" fill="#ff0000" fill-rule="evenodd" fill-opacity="1" stroke="#000000" stroke-opacity="1" stroke-width="3.2"/>
<path clip-path="url(#clip870)" d="
M1941.38 479.945 L2352.76 479.945 L2352.76 168.905 L1941.38 168.905  Z
  " fill="#ffffff" fill-rule="evenodd" fill-opacity="1"/>
<polyline clip-path="url(#clip870)" style="stroke:#000000; stroke-linecap:butt; stroke-linejoin:round; stroke-width:4; stroke-opacity:1; fill:none" points="
  1941.38,479.945 2352.76,479.945 2352.76,168.905 1941.38,168.905 1941.38,479.945 
  "/>
<polyline clip-path="url(#clip870)" style="stroke:#009af9; stroke-linecap:butt; stroke-linejoin:round; stroke-width:4; stroke-opacity:1; fill:none" points="
  1965.79,220.745 2112.26,220.745 
  "/>
<path clip-path="url(#clip870)" d="M2153.17 202.006 L2153.17 205.548 L2149.1 205.548 Q2146.81 205.548 2145.9 206.474 Q2145.02 207.4 2145.02 209.807 L2145.02 212.099 L2152.04 212.099 L2152.04 215.409 L2145.02 215.409 L2145.02 238.025 L2140.74 238.025 L2140.74 215.409 L2136.67 215.409 L2136.67 212.099 L2140.74 212.099 L2140.74 210.293 Q2140.74 205.965 2142.75 203.997 Q2144.77 202.006 2149.14 202.006 L2153.17 202.006 Z" fill="#000000" fill-rule="evenodd" fill-opacity="1" /><path clip-path="url(#clip870)" d="M2166.97 202.053 Q2163.87 207.377 2162.36 212.585 Q2160.86 217.793 2160.86 223.14 Q2160.86 228.488 2162.36 233.742 Q2163.89 238.974 2166.97 244.275 L2163.26 244.275 Q2159.79 238.835 2158.06 233.58 Q2156.34 228.326 2156.34 223.14 Q2156.34 217.978 2158.06 212.747 Q2159.77 207.516 2163.26 202.053 L2166.97 202.053 Z" fill="#000000" fill-rule="evenodd" fill-opacity="1" /><path clip-path="url(#clip870)" d="M2196.78 212.099 L2187.41 224.715 L2197.27 238.025 L2192.24 238.025 L2184.7 227.84 L2177.15 238.025 L2172.13 238.025 L2182.2 224.46 L2172.99 212.099 L2178.01 212.099 L2184.88 221.335 L2191.76 212.099 L2196.78 212.099 Z" fill="#000000" fill-rule="evenodd" fill-opacity="1" /><path clip-path="url(#clip870)" d="M2202.61 202.053 L2206.32 202.053 Q2209.79 207.516 2211.5 212.747 Q2213.24 217.978 2213.24 223.14 Q2213.24 228.326 2211.5 233.58 Q2209.79 238.835 2206.32 244.275 L2202.61 244.275 Q2205.69 238.974 2207.2 233.742 Q2208.73 228.488 2208.73 223.14 Q2208.73 217.793 2207.2 212.585 Q2205.69 207.377 2202.61 202.053 Z" fill="#000000" fill-rule="evenodd" fill-opacity="1" /><polyline clip-path="url(#clip870)" style="stroke:#ee82ee; stroke-linecap:butt; stroke-linejoin:round; stroke-width:4; stroke-opacity:1; fill:none" points="
  1965.79,272.585 2112.26,272.585 
  "/>
<path clip-path="url(#clip870)" d="M2140.95 285.976 L2140.95 299.726 L2136.67 299.726 L2136.67 263.939 L2140.95 263.939 L2140.95 267.874 Q2142.29 265.559 2144.33 264.448 Q2146.39 263.314 2149.24 263.314 Q2153.96 263.314 2156.9 267.064 Q2159.86 270.814 2159.86 276.925 Q2159.86 283.036 2156.9 286.786 Q2153.96 290.536 2149.24 290.536 Q2146.39 290.536 2144.33 289.425 Q2142.29 288.291 2140.95 285.976 M2155.44 276.925 Q2155.44 272.226 2153.49 269.564 Q2151.57 266.879 2148.19 266.879 Q2144.81 266.879 2142.87 269.564 Q2140.95 272.226 2140.95 276.925 Q2140.95 281.624 2142.87 284.309 Q2144.81 286.971 2148.19 286.971 Q2151.57 286.971 2153.49 284.309 Q2155.44 281.624 2155.44 276.925 Z" fill="#000000" fill-rule="evenodd" fill-opacity="1" /><path clip-path="url(#clip870)" d="M2177.15 253.893 Q2174.05 259.217 2172.55 264.425 Q2171.04 269.633 2171.04 274.98 Q2171.04 280.328 2172.55 285.582 Q2174.07 290.814 2177.15 296.115 L2173.45 296.115 Q2169.98 290.675 2168.24 285.42 Q2166.53 280.166 2166.53 274.98 Q2166.53 269.818 2168.24 264.587 Q2169.95 259.356 2173.45 253.893 L2177.15 253.893 Z" fill="#000000" fill-rule="evenodd" fill-opacity="1" /><path clip-path="url(#clip870)" d="M2206.97 263.939 L2197.59 276.555 L2207.45 289.865 L2202.43 289.865 L2194.88 279.68 L2187.34 289.865 L2182.31 289.865 L2192.38 276.3 L2183.17 263.939 L2188.19 263.939 L2195.07 273.175 L2201.94 263.939 L2206.97 263.939 Z" fill="#000000" fill-rule="evenodd" fill-opacity="1" /><path clip-path="url(#clip870)" d="M2212.8 253.893 L2216.5 253.893 Q2219.98 259.356 2221.69 264.587 Q2223.43 269.818 2223.43 274.98 Q2223.43 280.166 2221.69 285.42 Q2219.98 290.675 2216.5 296.115 L2212.8 296.115 Q2215.88 290.814 2217.38 285.582 Q2218.91 280.328 2218.91 274.98 Q2218.91 269.633 2217.38 264.425 Q2215.88 259.217 2212.8 253.893 Z" fill="#000000" fill-rule="evenodd" fill-opacity="1" /><circle clip-path="url(#clip870)" cx="2039.02" cy="324.425" r="23" fill="#00bfff" fill-rule="evenodd" fill-opacity="1" stroke="#000000" stroke-opacity="1" stroke-width="6.82667"/>
<path clip-path="url(#clip870)" d="M2155.09 316.543 L2155.09 320.571 Q2153.29 319.645 2151.34 319.182 Q2149.4 318.719 2147.31 318.719 Q2144.14 318.719 2142.55 319.691 Q2140.97 320.663 2140.97 322.608 Q2140.97 324.089 2142.11 324.945 Q2143.24 325.779 2146.67 326.543 L2148.12 326.867 Q2152.66 327.839 2154.56 329.621 Q2156.48 331.381 2156.48 334.552 Q2156.48 338.163 2153.61 340.269 Q2150.76 342.376 2145.76 342.376 Q2143.68 342.376 2141.41 341.959 Q2139.17 341.566 2136.67 340.756 L2136.67 336.357 Q2139.03 337.584 2141.32 338.209 Q2143.61 338.811 2145.86 338.811 Q2148.87 338.811 2150.49 337.793 Q2152.11 336.751 2152.11 334.876 Q2152.11 333.14 2150.93 332.214 Q2149.77 331.288 2145.81 330.432 L2144.33 330.084 Q2140.37 329.251 2138.61 327.538 Q2136.85 325.802 2136.85 322.793 Q2136.85 319.135 2139.44 317.145 Q2142.04 315.154 2146.81 315.154 Q2149.17 315.154 2151.25 315.501 Q2153.33 315.848 2155.09 316.543 Z" fill="#000000" fill-rule="evenodd" fill-opacity="1" /><path clip-path="url(#clip870)" d="M2175.05 328.672 Q2169.88 328.672 2167.89 329.853 Q2165.9 331.033 2165.9 333.881 Q2165.9 336.149 2167.38 337.492 Q2168.89 338.811 2171.46 338.811 Q2175 338.811 2177.13 336.311 Q2179.28 333.788 2179.28 329.621 L2179.28 328.672 L2175.05 328.672 M2183.54 326.913 L2183.54 341.705 L2179.28 341.705 L2179.28 337.769 Q2177.82 340.131 2175.65 341.265 Q2173.47 342.376 2170.32 342.376 Q2166.34 342.376 2163.98 340.154 Q2161.64 337.908 2161.64 334.158 Q2161.64 329.783 2164.56 327.561 Q2167.5 325.339 2173.31 325.339 L2179.28 325.339 L2179.28 324.922 Q2179.28 321.983 2177.34 320.385 Q2175.42 318.765 2171.92 318.765 Q2169.7 318.765 2167.59 319.297 Q2165.49 319.83 2163.54 320.895 L2163.54 316.959 Q2165.88 316.057 2168.08 315.617 Q2170.28 315.154 2172.36 315.154 Q2177.99 315.154 2180.76 318.071 Q2183.54 320.987 2183.54 326.913 Z" fill="#000000" fill-rule="evenodd" fill-opacity="1" /><path clip-path="url(#clip870)" d="M2212.5 320.756 Q2214.1 317.885 2216.32 316.52 Q2218.54 315.154 2221.55 315.154 Q2225.6 315.154 2227.8 318.001 Q2230 320.825 2230 326.057 L2230 341.705 L2225.72 341.705 L2225.72 326.195 Q2225.72 322.469 2224.4 320.663 Q2223.08 318.858 2220.37 318.858 Q2217.06 318.858 2215.14 321.057 Q2213.22 323.256 2213.22 327.052 L2213.22 341.705 L2208.93 341.705 L2208.93 326.195 Q2208.93 322.445 2207.61 320.663 Q2206.3 318.858 2203.54 318.858 Q2200.28 318.858 2198.36 321.08 Q2196.43 323.279 2196.43 327.052 L2196.43 341.705 L2192.15 341.705 L2192.15 315.779 L2196.43 315.779 L2196.43 319.807 Q2197.89 317.422 2199.93 316.288 Q2201.97 315.154 2204.77 315.154 Q2207.59 315.154 2209.56 316.589 Q2211.55 318.024 2212.5 320.756 Z" fill="#000000" fill-rule="evenodd" fill-opacity="1" /><path clip-path="url(#clip870)" d="M2242.61 337.816 L2242.61 351.566 L2238.33 351.566 L2238.33 315.779 L2242.61 315.779 L2242.61 319.714 Q2243.96 317.399 2245.99 316.288 Q2248.05 315.154 2250.9 315.154 Q2255.62 315.154 2258.56 318.904 Q2261.53 322.654 2261.53 328.765 Q2261.53 334.876 2258.56 338.626 Q2255.62 342.376 2250.9 342.376 Q2248.05 342.376 2245.99 341.265 Q2243.96 340.131 2242.61 337.816 M2257.11 328.765 Q2257.11 324.066 2255.16 321.404 Q2253.24 318.719 2249.86 318.719 Q2246.48 318.719 2244.54 321.404 Q2242.61 324.066 2242.61 328.765 Q2242.61 333.464 2244.54 336.149 Q2246.48 338.811 2249.86 338.811 Q2253.24 338.811 2255.16 336.149 Q2257.11 333.464 2257.11 328.765 Z" fill="#000000" fill-rule="evenodd" fill-opacity="1" /><path clip-path="url(#clip870)" d="M2268.59 305.686 L2272.85 305.686 L2272.85 341.705 L2268.59 341.705 L2268.59 305.686 Z" fill="#000000" fill-rule="evenodd" fill-opacity="1" /><path clip-path="url(#clip870)" d="M2303.93 327.677 L2303.93 329.76 L2284.35 329.76 Q2284.63 334.158 2286.99 336.473 Q2289.37 338.765 2293.61 338.765 Q2296.06 338.765 2298.36 338.163 Q2300.67 337.561 2302.94 336.357 L2302.94 340.385 Q2300.65 341.357 2298.24 341.867 Q2295.83 342.376 2293.36 342.376 Q2287.15 342.376 2283.52 338.765 Q2279.91 335.154 2279.91 328.996 Q2279.91 322.631 2283.33 318.904 Q2286.78 315.154 2292.61 315.154 Q2297.85 315.154 2300.88 318.533 Q2303.93 321.89 2303.93 327.677 M2299.67 326.427 Q2299.63 322.932 2297.71 320.848 Q2295.81 318.765 2292.66 318.765 Q2289.1 318.765 2286.94 320.779 Q2284.81 322.793 2284.49 326.45 L2299.67 326.427 Z" fill="#000000" fill-rule="evenodd" fill-opacity="1" /><circle clip-path="url(#clip870)" cx="2039.02" cy="376.265" r="23" fill="#0000ff" fill-rule="evenodd" fill-opacity="1" stroke="#000000" stroke-opacity="1" stroke-width="6.82667"/>
<path clip-path="url(#clip870)" d="M2144.07 360.258 L2144.07 367.619 L2152.85 367.619 L2152.85 370.929 L2144.07 370.929 L2144.07 385.003 Q2144.07 388.174 2144.93 389.077 Q2145.81 389.98 2148.47 389.98 L2152.85 389.98 L2152.85 393.545 L2148.47 393.545 Q2143.54 393.545 2141.67 391.716 Q2139.79 389.864 2139.79 385.003 L2139.79 370.929 L2136.67 370.929 L2136.67 367.619 L2139.79 367.619 L2139.79 360.258 L2144.07 360.258 Z" fill="#000000" fill-rule="evenodd" fill-opacity="1" /><path clip-path="url(#clip870)" d="M2173.47 371.6 Q2172.75 371.184 2171.9 370.998 Q2171.06 370.79 2170.05 370.79 Q2166.43 370.79 2164.49 373.151 Q2162.57 375.489 2162.57 379.887 L2162.57 393.545 L2158.29 393.545 L2158.29 367.619 L2162.57 367.619 L2162.57 371.647 Q2163.91 369.286 2166.06 368.151 Q2168.22 366.994 2171.3 366.994 Q2171.74 366.994 2172.27 367.063 Q2172.8 367.11 2173.45 367.225 L2173.47 371.6 Z" fill="#000000" fill-rule="evenodd" fill-opacity="1" /><path clip-path="url(#clip870)" d="M2177.5 383.313 L2177.5 367.619 L2181.76 367.619 L2181.76 383.151 Q2181.76 386.832 2183.19 388.684 Q2184.63 390.512 2187.5 390.512 Q2190.95 390.512 2192.94 388.313 Q2194.95 386.114 2194.95 382.318 L2194.95 367.619 L2199.21 367.619 L2199.21 393.545 L2194.95 393.545 L2194.95 389.563 Q2193.4 391.924 2191.34 393.082 Q2189.3 394.216 2186.6 394.216 Q2182.13 394.216 2179.81 391.438 Q2177.5 388.66 2177.5 383.313 M2188.22 366.994 L2188.22 366.994 Z" fill="#000000" fill-rule="evenodd" fill-opacity="1" /><path clip-path="url(#clip870)" d="M2230.16 379.517 L2230.16 381.6 L2210.58 381.6 Q2210.86 385.998 2213.22 388.313 Q2215.6 390.605 2219.84 390.605 Q2222.29 390.605 2224.58 390.003 Q2226.9 389.401 2229.17 388.197 L2229.17 392.225 Q2226.87 393.197 2224.47 393.707 Q2222.06 394.216 2219.58 394.216 Q2213.38 394.216 2209.74 390.605 Q2206.13 386.994 2206.13 380.836 Q2206.13 374.471 2209.56 370.744 Q2213.01 366.994 2218.84 366.994 Q2224.07 366.994 2227.11 370.373 Q2230.16 373.73 2230.16 379.517 M2225.9 378.267 Q2225.86 374.772 2223.93 372.688 Q2222.04 370.605 2218.89 370.605 Q2215.32 370.605 2213.17 372.619 Q2211.04 374.633 2210.72 378.29 L2225.9 378.267 Z" fill="#000000" fill-rule="evenodd" fill-opacity="1" /><circle clip-path="url(#clip870)" cx="2039.02" cy="428.105" r="23" fill="#ff0000" fill-rule="evenodd" fill-opacity="1" stroke="#000000" stroke-opacity="1" stroke-width="6.82667"/>
<path clip-path="url(#clip870)" d="M2150.07 432.352 Q2144.91 432.352 2142.92 433.533 Q2140.93 434.713 2140.93 437.561 Q2140.93 439.829 2142.41 441.172 Q2143.91 442.491 2146.48 442.491 Q2150.02 442.491 2152.15 439.991 Q2154.31 437.468 2154.31 433.301 L2154.31 432.352 L2150.07 432.352 M2158.56 430.593 L2158.56 445.385 L2154.31 445.385 L2154.31 441.449 Q2152.85 443.811 2150.67 444.945 Q2148.49 446.056 2145.35 446.056 Q2141.37 446.056 2139 443.834 Q2136.67 441.588 2136.67 437.838 Q2136.67 433.463 2139.58 431.241 Q2142.52 429.019 2148.33 429.019 L2154.31 429.019 L2154.31 428.602 Q2154.31 425.663 2152.36 424.065 Q2150.44 422.445 2146.94 422.445 Q2144.72 422.445 2142.62 422.977 Q2140.51 423.51 2138.56 424.575 L2138.56 420.639 Q2140.9 419.737 2143.1 419.297 Q2145.3 418.834 2147.38 418.834 Q2153.01 418.834 2155.79 421.751 Q2158.56 424.667 2158.56 430.593 Z" fill="#000000" fill-rule="evenodd" fill-opacity="1" /><path clip-path="url(#clip870)" d="M2171.46 441.496 L2171.46 455.246 L2167.18 455.246 L2167.18 419.459 L2171.46 419.459 L2171.46 423.394 Q2172.8 421.079 2174.84 419.968 Q2176.9 418.834 2179.74 418.834 Q2184.47 418.834 2187.41 422.584 Q2190.37 426.334 2190.37 432.445 Q2190.37 438.556 2187.41 442.306 Q2184.47 446.056 2179.74 446.056 Q2176.9 446.056 2174.84 444.945 Q2172.8 443.811 2171.46 441.496 M2185.95 432.445 Q2185.95 427.746 2184 425.084 Q2182.08 422.399 2178.7 422.399 Q2175.32 422.399 2173.38 425.084 Q2171.46 427.746 2171.46 432.445 Q2171.46 437.144 2173.38 439.829 Q2175.32 442.491 2178.7 442.491 Q2182.08 442.491 2184 439.829 Q2185.95 437.144 2185.95 432.445 Z" fill="#000000" fill-rule="evenodd" fill-opacity="1" /><path clip-path="url(#clip870)" d="M2201.55 441.496 L2201.55 455.246 L2197.27 455.246 L2197.27 419.459 L2201.55 419.459 L2201.55 423.394 Q2202.89 421.079 2204.93 419.968 Q2206.99 418.834 2209.84 418.834 Q2214.56 418.834 2217.5 422.584 Q2220.46 426.334 2220.46 432.445 Q2220.46 438.556 2217.5 442.306 Q2214.56 446.056 2209.84 446.056 Q2206.99 446.056 2204.93 444.945 Q2202.89 443.811 2201.55 441.496 M2216.04 432.445 Q2216.04 427.746 2214.1 425.084 Q2212.18 422.399 2208.8 422.399 Q2205.42 422.399 2203.47 425.084 Q2201.55 427.746 2201.55 432.445 Q2201.55 437.144 2203.47 439.829 Q2205.42 442.491 2208.8 442.491 Q2212.18 442.491 2214.1 439.829 Q2216.04 437.144 2216.04 432.445 Z" fill="#000000" fill-rule="evenodd" fill-opacity="1" /><path clip-path="url(#clip870)" d="M2242.55 423.44 Q2241.83 423.024 2240.97 422.838 Q2240.14 422.63 2239.12 422.63 Q2235.51 422.63 2233.56 424.991 Q2231.64 427.329 2231.64 431.727 L2231.64 445.385 L2227.36 445.385 L2227.36 419.459 L2231.64 419.459 L2231.64 423.487 Q2232.99 421.126 2235.14 419.991 Q2237.29 418.834 2240.37 418.834 Q2240.81 418.834 2241.34 418.903 Q2241.87 418.95 2242.52 419.065 L2242.55 423.44 Z" fill="#000000" fill-rule="evenodd" fill-opacity="1" /><path clip-path="url(#clip870)" d="M2256.02 422.445 Q2252.59 422.445 2250.6 425.13 Q2248.61 427.792 2248.61 432.445 Q2248.61 437.098 2250.58 439.783 Q2252.57 442.445 2256.02 442.445 Q2259.42 442.445 2261.41 439.76 Q2263.4 437.075 2263.4 432.445 Q2263.4 427.838 2261.41 425.153 Q2259.42 422.445 2256.02 422.445 M2256.02 418.834 Q2261.57 418.834 2264.74 422.445 Q2267.92 426.056 2267.92 432.445 Q2267.92 438.811 2264.74 442.445 Q2261.57 446.056 2256.02 446.056 Q2250.44 446.056 2247.27 442.445 Q2244.12 438.811 2244.12 432.445 Q2244.12 426.056 2247.27 422.445 Q2250.44 418.834 2256.02 418.834 Z" fill="#000000" fill-rule="evenodd" fill-opacity="1" /><path clip-path="url(#clip870)" d="M2295.07 419.459 L2285.69 432.075 L2295.55 445.385 L2290.53 445.385 L2282.98 435.2 L2275.44 445.385 L2270.42 445.385 L2280.48 431.82 L2271.27 419.459 L2276.3 419.459 L2283.17 428.695 L2290.05 419.459 L2295.07 419.459 Z" fill="#000000" fill-rule="evenodd" fill-opacity="1" /><path clip-path="url(#clip870)" d="M1802.88 784.436 Q1802.88 786.69 1801.45 788.084 Q1800.05 789.478 1798.29 789.478 Q1797.02 789.478 1796.08 788.699 Q1795.18 787.92 1795.18 786.567 Q1795.18 785.174 1796.24 783.698 Q1797.31 782.223 1799.73 782.018 Q1798.13 780.501 1795.59 780.501 Q1794.32 780.501 1793.25 781.321 Q1792.23 782.1 1791.65 783.37 Q1791.04 784.682 1789.64 792.101 Q1789.19 794.519 1788.78 796.856 Q1788.37 799.192 1787.88 801.652 L1794.85 801.652 Q1795.75 801.652 1796.12 801.693 Q1796.49 801.734 1796.78 801.938 Q1797.1 802.143 1797.1 802.594 Q1797.1 803.742 1796.57 804.029 Q1796.08 804.275 1794.6 804.275 L1787.39 804.275 L1782.35 830.877 Q1782.22 831.656 1781.69 834.115 Q1781.2 836.533 1780.01 840.509 Q1778.82 844.526 1777.63 846.904 Q1776.98 848.256 1776.12 849.527 Q1775.3 850.839 1774.11 852.15 Q1772.92 853.462 1771.36 854.241 Q1769.8 855.061 1768.17 855.061 Q1765.38 855.061 1763.21 853.503 Q1761.03 851.945 1761.03 849.281 Q1761.03 847.027 1762.43 845.633 Q1763.86 844.239 1765.62 844.239 Q1766.89 844.239 1767.8 845.018 Q1768.74 845.797 1768.74 847.15 Q1768.74 847.723 1768.53 848.379 Q1768.33 849.035 1767.88 849.773 Q1767.43 850.552 1766.44 851.085 Q1765.46 851.617 1764.11 851.699 Q1765.71 853.216 1768.17 853.216 Q1768.94 853.216 1769.64 852.888 Q1770.34 852.601 1770.91 851.863 Q1771.53 851.126 1771.98 850.388 Q1772.43 849.691 1772.88 848.338 Q1773.33 847.027 1773.62 846.043 Q1773.9 845.059 1774.27 843.297 Q1774.68 841.534 1774.89 840.468 Q1775.09 839.444 1775.46 837.435 L1781.73 804.275 L1776.2 804.275 Q1775.22 804.275 1774.81 804.234 Q1774.44 804.193 1774.15 803.988 Q1773.86 803.742 1773.86 803.25 Q1773.86 802.471 1774.19 802.143 Q1774.56 801.774 1774.97 801.734 Q1775.38 801.652 1776.36 801.652 L1782.18 801.652 Q1784.15 791.281 1784.93 788.494 Q1785.83 785.543 1787.23 783.493 Q1788.62 781.403 1790.18 780.419 Q1791.73 779.435 1793 779.066 Q1794.32 778.657 1795.59 778.657 Q1798.46 778.657 1800.67 780.214 Q1802.88 781.731 1802.88 784.436 Z" fill="#000000" fill-rule="evenodd" fill-opacity="1" /><path clip-path="url(#clip870)" d="M1814.18 816.859 Q1814.18 802.676 1819.47 791.24 Q1821.72 786.445 1824.88 782.428 Q1828.04 778.411 1830.13 776.648 Q1832.22 774.886 1832.79 774.886 Q1833.61 774.886 1833.65 775.705 Q1833.65 776.115 1832.55 777.14 Q1819.02 790.912 1819.06 816.859 Q1819.06 842.887 1832.22 856.126 Q1833.65 857.561 1833.65 858.012 Q1833.65 858.832 1832.79 858.832 Q1832.22 858.832 1830.21 857.151 Q1828.2 855.47 1825.09 851.617 Q1821.97 847.764 1819.72 843.051 Q1814.18 831.615 1814.18 816.859 Z" fill="#000000" fill-rule="evenodd" fill-opacity="1" /><path clip-path="url(#clip870)" d="M1881.84 806.283 Q1881.84 808.579 1880.41 809.89 Q1878.97 811.161 1877.33 811.161 Q1875.77 811.161 1874.95 810.259 Q1874.14 809.358 1874.14 808.21 Q1874.14 806.652 1875.28 805.3 Q1876.43 803.947 1878.15 803.66 Q1876.47 802.594 1873.97 802.594 Q1872.33 802.594 1870.9 803.455 Q1869.5 804.316 1868.64 805.423 Q1867.82 806.529 1867.09 808.128 Q1866.39 809.685 1866.1 810.628 Q1865.86 811.53 1865.65 812.514 L1862.78 823.991 Q1861.39 829.442 1861.39 831.369 Q1861.39 833.746 1862.54 835.345 Q1863.68 836.902 1865.98 836.902 Q1866.88 836.902 1867.9 836.656 Q1868.93 836.369 1870.24 835.632 Q1871.59 834.853 1872.78 833.705 Q1874.01 832.516 1875.2 830.508 Q1876.39 828.5 1877.17 825.917 Q1877.41 825.015 1878.23 825.015 Q1879.26 825.015 1879.26 825.835 Q1879.26 826.532 1878.69 828.008 Q1878.15 829.442 1876.96 831.328 Q1875.82 833.172 1874.3 834.853 Q1872.78 836.492 1870.53 837.64 Q1868.27 838.788 1865.81 838.788 Q1862.29 838.788 1859.95 836.902 Q1857.62 835.017 1856.76 832.393 Q1856.55 832.762 1856.26 833.254 Q1855.98 833.746 1855.12 834.853 Q1854.3 835.919 1853.35 836.738 Q1852.41 837.517 1850.94 838.132 Q1849.5 838.788 1847.94 838.788 Q1845.98 838.788 1844.21 838.214 Q1842.49 837.64 1841.26 836.328 Q1840.03 835.017 1840.03 833.213 Q1840.03 831.205 1841.38 829.811 Q1842.78 828.377 1844.66 828.377 Q1845.85 828.377 1846.8 829.073 Q1847.78 829.77 1847.78 831.287 Q1847.78 832.967 1846.63 834.238 Q1845.48 835.509 1843.84 835.837 Q1845.52 836.902 1848.03 836.902 Q1850.73 836.902 1852.86 834.525 Q1854.99 832.148 1856.02 828.172 Q1858.56 818.621 1859.54 814.358 Q1860.53 810.054 1860.53 808.21 Q1860.53 806.488 1860.08 805.3 Q1859.62 804.111 1858.85 803.578 Q1858.11 803.004 1857.41 802.799 Q1856.76 802.594 1856.02 802.594 Q1854.79 802.594 1853.39 803.086 Q1852.04 803.578 1850.4 804.726 Q1848.8 805.832 1847.29 808.128 Q1845.77 810.423 1844.75 813.579 Q1844.54 814.522 1843.64 814.522 Q1842.66 814.481 1842.66 813.661 Q1842.66 812.965 1843.19 811.53 Q1843.76 810.054 1844.91 808.21 Q1846.1 806.365 1847.62 804.726 Q1849.17 803.045 1851.43 801.897 Q1853.72 800.75 1856.18 800.75 Q1857.29 800.75 1858.35 800.996 Q1859.46 801.201 1860.77 801.815 Q1862.13 802.43 1863.31 803.783 Q1864.5 805.136 1865.24 807.103 Q1865.73 806.16 1866.39 805.259 Q1867.09 804.357 1868.15 803.25 Q1869.26 802.102 1870.77 801.447 Q1872.33 800.75 1874.05 800.75 Q1875.73 800.75 1877.37 801.201 Q1879.01 801.611 1880.41 802.963 Q1881.84 804.275 1881.84 806.283 Z" fill="#000000" fill-rule="evenodd" fill-opacity="1" /><path clip-path="url(#clip870)" d="M1889.92 858.012 Q1889.92 857.602 1890.99 856.577 Q1904.51 842.805 1904.51 816.859 Q1904.51 790.83 1891.52 777.673 Q1889.92 776.156 1889.92 775.705 Q1889.92 774.886 1890.74 774.886 Q1891.32 774.886 1893.32 776.566 Q1895.37 778.247 1898.45 782.1 Q1901.56 785.953 1903.86 790.666 Q1909.39 802.102 1909.39 816.859 Q1909.39 831.041 1904.1 842.477 Q1901.85 847.273 1898.69 851.29 Q1895.54 855.306 1893.45 857.069 Q1891.36 858.832 1890.74 858.832 Q1889.92 858.832 1889.92 858.012 Z" fill="#000000" fill-rule="evenodd" fill-opacity="1" /><path clip-path="url(#clip870)" d="M1945.45 825.097 Q1945.53 824.073 1947.13 824.073 L1998.57 824.073 Q2000.99 824.073 2001.03 825.015 Q2001.03 826.04 1998.73 825.999 L1947.7 825.999 Q1945.45 826.04 1945.45 825.097 M1945.45 808.702 Q1945.45 807.677 1947.21 807.718 L1998.49 807.718 Q2000.99 807.718 2001.03 808.702 Q2001.03 809.644 1998.9 809.644 L1947.13 809.644 Q1945.45 809.644 1945.45 808.702 Z" fill="#000000" fill-rule="evenodd" fill-opacity="1" /><path clip-path="url(#clip870)" d="M2065.34 828.131 Q2065.66 828.5 2065.66 828.868 Q2065.66 829.237 2064.84 830.303 Q2064.07 831.369 2062.39 832.803 Q2060.7 834.238 2058.53 835.591 Q2056.36 836.943 2053.16 837.845 Q2049.97 838.788 2046.6 838.788 Q2040.58 838.788 2036.97 834.484 Q2033.41 830.18 2033.41 823.581 Q2033.41 819.359 2034.8 815.629 Q2036.19 811.858 2038.45 809.194 Q2040.74 806.529 2043.61 804.603 Q2046.52 802.635 2049.56 801.693 Q2052.59 800.75 2055.42 800.75 Q2059.56 800.75 2061.98 802.84 Q2064.39 804.931 2064.39 807.882 Q2064.39 808.579 2064.19 809.439 Q2064.02 810.3 2063.45 811.653 Q2062.92 813.006 2061.52 814.358 Q2060.13 815.67 2058.08 816.531 Q2053.53 818.457 2045.25 818.457 L2040.78 818.457 Q2039.47 823.745 2039.47 827.188 Q2039.47 828.54 2039.72 829.934 Q2039.96 831.287 2040.62 833.008 Q2041.32 834.73 2042.87 835.837 Q2044.47 836.902 2046.77 836.902 Q2047.51 836.902 2048.28 836.861 Q2049.1 836.82 2051.15 836.369 Q2053.24 835.919 2055.09 835.14 Q2056.93 834.361 2059.27 832.68 Q2061.65 830.959 2063.53 828.622 Q2064.19 827.762 2064.64 827.762 Q2065.01 827.762 2065.34 828.131 M2061.61 807.882 Q2061.61 805.627 2059.93 804.111 Q2058.29 802.594 2055.42 802.594 Q2054.52 802.594 2053.41 802.799 Q2052.3 803.004 2050.46 803.865 Q2048.65 804.726 2047.06 806.16 Q2045.46 807.554 2043.86 810.3 Q2042.26 813.006 2041.32 816.613 L2044.76 816.613 Q2045.95 816.613 2046.81 816.613 Q2047.67 816.572 2049.56 816.408 Q2051.48 816.244 2052.88 815.957 Q2054.27 815.629 2056.03 814.973 Q2057.79 814.317 2058.9 813.456 Q2060.05 812.555 2060.83 811.12 Q2061.61 809.685 2061.61 807.882 Z" fill="#000000" fill-rule="evenodd" fill-opacity="1" /><path clip-path="url(#clip870)" d="M2103.57 786.075 Q2103.57 787.682 2102.57 788.6 Q2101.56 789.49 2100.41 789.49 Q2099.32 789.49 2098.75 788.859 Q2098.18 788.227 2098.18 787.424 Q2098.18 786.334 2098.98 785.387 Q2099.78 784.44 2100.99 784.239 Q2099.81 783.493 2098.06 783.493 Q2096.91 783.493 2095.91 784.096 Q2094.93 784.698 2094.33 785.473 Q2093.76 786.248 2093.24 787.367 Q2092.75 788.457 2092.55 789.117 Q2092.38 789.748 2092.24 790.437 L2090.23 798.471 Q2089.25 802.287 2089.25 803.635 Q2089.25 805.299 2090.06 806.418 Q2090.86 807.509 2092.47 807.509 Q2093.1 807.509 2093.81 807.337 Q2094.53 807.136 2095.45 806.619 Q2096.4 806.074 2097.23 805.271 Q2098.09 804.439 2098.92 803.033 Q2099.75 801.627 2100.3 799.819 Q2100.47 799.188 2101.04 799.188 Q2101.76 799.188 2101.76 799.762 Q2101.76 800.25 2101.36 801.282 Q2100.99 802.287 2100.16 803.607 Q2099.35 804.898 2098.29 806.074 Q2097.23 807.222 2095.65 808.025 Q2094.07 808.829 2092.35 808.829 Q2089.88 808.829 2088.25 807.509 Q2086.61 806.189 2086.01 804.353 Q2085.87 804.611 2085.67 804.955 Q2085.46 805.299 2084.86 806.074 Q2084.29 806.82 2083.63 807.394 Q2082.97 807.939 2081.94 808.37 Q2080.93 808.829 2079.84 808.829 Q2078.46 808.829 2077.23 808.427 Q2076.02 808.025 2075.16 807.107 Q2074.3 806.189 2074.3 804.926 Q2074.3 803.52 2075.25 802.545 Q2076.23 801.541 2077.55 801.541 Q2078.38 801.541 2079.04 802.028 Q2079.73 802.516 2079.73 803.578 Q2079.73 804.754 2078.92 805.644 Q2078.12 806.533 2076.97 806.763 Q2078.15 807.509 2079.9 807.509 Q2081.79 807.509 2083.28 805.845 Q2084.78 804.18 2085.49 801.397 Q2087.27 794.712 2087.96 791.728 Q2088.65 788.715 2088.65 787.424 Q2088.65 786.219 2088.33 785.387 Q2088.02 784.555 2087.47 784.182 Q2086.96 783.78 2086.47 783.637 Q2086.01 783.493 2085.49 783.493 Q2084.63 783.493 2083.66 783.837 Q2082.71 784.182 2081.56 784.985 Q2080.44 785.76 2079.38 787.367 Q2078.32 788.973 2077.6 791.183 Q2077.46 791.843 2076.83 791.843 Q2076.14 791.814 2076.14 791.24 Q2076.14 790.752 2076.51 789.748 Q2076.91 788.715 2077.72 787.424 Q2078.55 786.133 2079.61 784.985 Q2080.7 783.809 2082.28 783.005 Q2083.89 782.202 2085.61 782.202 Q2086.38 782.202 2087.13 782.374 Q2087.9 782.518 2088.82 782.948 Q2089.77 783.378 2090.6 784.325 Q2091.43 785.272 2091.95 786.649 Q2092.29 785.989 2092.75 785.358 Q2093.24 784.727 2093.99 783.952 Q2094.76 783.149 2095.82 782.69 Q2096.91 782.202 2098.12 782.202 Q2099.29 782.202 2100.44 782.518 Q2101.59 782.804 2102.57 783.751 Q2103.57 784.67 2103.57 786.075 Z" fill="#000000" fill-rule="evenodd" fill-opacity="1" /></svg>
