<?xml version="1.0" encoding="utf-8"?>
<svg xmlns="http://www.w3.org/2000/svg" xmlns:xlink="http://www.w3.org/1999/xlink" width="600" height="400" viewBox="0 0 2400 1600">
<defs>
  <clipPath id="clip700">
    <rect x="0" y="0" width="2400" height="1600"/>
  </clipPath>
</defs>
<path clip-path="url(#clip700)" d="
M0 1600 L2400 1600 L2400 0 L0 0  Z
  " fill="#ffffff" fill-rule="evenodd" fill-opacity="1"/>
<defs>
  <clipPath id="clip701">
    <rect x="480" y="0" width="1681" height="1600"/>
  </clipPath>
</defs>
<path clip-path="url(#clip700)" d="
M306.435 1486.45 L1752.83 1486.45 L1752.83 123.472 L306.435 123.472  Z
  " fill="#ffffff" fill-rule="evenodd" fill-opacity="1"/>
<defs>
  <clipPath id="clip702">
    <rect x="306" y="123" width="1447" height="1364"/>
  </clipPath>
</defs>
<polyline clip-path="url(#clip702)" style="stroke:#000000; stroke-linecap:butt; stroke-linejoin:round; stroke-width:2; stroke-opacity:0.1; fill:none" points="
  504.816,1486.45 504.816,123.472 
  "/>
<polyline clip-path="url(#clip702)" style="stroke:#000000; stroke-linecap:butt; stroke-linejoin:round; stroke-width:2; stroke-opacity:0.1; fill:none" points="
  767.223,1486.45 767.223,123.472 
  "/>
<polyline clip-path="url(#clip702)" style="stroke:#000000; stroke-linecap:butt; stroke-linejoin:round; stroke-width:2; stroke-opacity:0.1; fill:none" points="
  1029.63,1486.45 1029.63,123.472 
  "/>
<polyline clip-path="url(#clip702)" style="stroke:#000000; stroke-linecap:butt; stroke-linejoin:round; stroke-width:2; stroke-opacity:0.1; fill:none" points="
  1292.04,1486.45 1292.04,123.472 
  "/>
<polyline clip-path="url(#clip702)" style="stroke:#000000; stroke-linecap:butt; stroke-linejoin:round; stroke-width:2; stroke-opacity:0.1; fill:none" points="
  1554.45,1486.45 1554.45,123.472 
  "/>
<polyline clip-path="url(#clip700)" style="stroke:#000000; stroke-linecap:butt; stroke-linejoin:round; stroke-width:4; stroke-opacity:1; fill:none" points="
  306.435,1486.45 1752.83,1486.45 
  "/>
<polyline clip-path="url(#clip700)" style="stroke:#000000; stroke-linecap:butt; stroke-linejoin:round; stroke-width:4; stroke-opacity:1; fill:none" points="
  504.816,1486.45 504.816,1467.55 
  "/>
<polyline clip-path="url(#clip700)" style="stroke:#000000; stroke-linecap:butt; stroke-linejoin:round; stroke-width:4; stroke-opacity:1; fill:none" points="
  767.223,1486.45 767.223,1467.55 
  "/>
<polyline clip-path="url(#clip700)" style="stroke:#000000; stroke-linecap:butt; stroke-linejoin:round; stroke-width:4; stroke-opacity:1; fill:none" points="
  1029.63,1486.45 1029.63,1467.55 
  "/>
<polyline clip-path="url(#clip700)" style="stroke:#000000; stroke-linecap:butt; stroke-linejoin:round; stroke-width:4; stroke-opacity:1; fill:none" points="
  1292.04,1486.45 1292.04,1467.55 
  "/>
<polyline clip-path="url(#clip700)" style="stroke:#000000; stroke-linecap:butt; stroke-linejoin:round; stroke-width:4; stroke-opacity:1; fill:none" points="
  1554.45,1486.45 1554.45,1467.55 
  "/>
<path clip-path="url(#clip700)" d="M473.716 1532.02 L503.392 1532.02 L503.392 1535.95 L473.716 1535.95 L473.716 1532.02 Z" fill="#000000" fill-rule="evenodd" fill-opacity="1" /><path clip-path="url(#clip700)" d="M526.332 1518.36 L514.526 1536.81 L526.332 1536.81 L526.332 1518.36 M525.105 1514.29 L530.984 1514.29 L530.984 1536.81 L535.915 1536.81 L535.915 1540.7 L530.984 1540.7 L530.984 1548.85 L526.332 1548.85 L526.332 1540.7 L510.73 1540.7 L510.73 1536.19 L525.105 1514.29 Z" fill="#000000" fill-rule="evenodd" fill-opacity="1" /><path clip-path="url(#clip700)" d="M737.165 1532.02 L766.841 1532.02 L766.841 1535.95 L737.165 1535.95 L737.165 1532.02 Z" fill="#000000" fill-rule="evenodd" fill-opacity="1" /><path clip-path="url(#clip700)" d="M780.961 1544.91 L797.281 1544.91 L797.281 1548.85 L775.337 1548.85 L775.337 1544.91 Q777.999 1542.16 782.582 1537.53 Q787.188 1532.88 788.369 1531.53 Q790.614 1529.01 791.494 1527.27 Q792.397 1525.51 792.397 1523.82 Q792.397 1521.07 790.452 1519.33 Q788.531 1517.6 785.429 1517.6 Q783.23 1517.6 780.776 1518.36 Q778.346 1519.13 775.568 1520.68 L775.568 1515.95 Q778.392 1514.82 780.846 1514.24 Q783.299 1513.66 785.336 1513.66 Q790.707 1513.66 793.901 1516.35 Q797.096 1519.03 797.096 1523.52 Q797.096 1525.65 796.285 1527.57 Q795.498 1529.47 793.392 1532.07 Q792.813 1532.74 789.711 1535.95 Q786.61 1539.15 780.961 1544.91 Z" fill="#000000" fill-rule="evenodd" fill-opacity="1" /><path clip-path="url(#clip700)" d="M1029.63 1517.37 Q1026.02 1517.37 1024.19 1520.93 Q1022.39 1524.47 1022.39 1531.6 Q1022.39 1538.71 1024.19 1542.27 Q1026.02 1545.82 1029.63 1545.82 Q1033.26 1545.82 1035.07 1542.27 Q1036.9 1538.71 1036.9 1531.6 Q1036.9 1524.47 1035.07 1520.93 Q1033.26 1517.37 1029.63 1517.37 M1029.63 1513.66 Q1035.44 1513.66 1038.5 1518.27 Q1041.58 1522.85 1041.58 1531.6 Q1041.58 1540.33 1038.5 1544.94 Q1035.44 1549.52 1029.63 1549.52 Q1023.82 1549.52 1020.74 1544.94 Q1017.69 1540.33 1017.69 1531.6 Q1017.69 1522.85 1020.74 1518.27 Q1023.82 1513.66 1029.63 1513.66 Z" fill="#000000" fill-rule="evenodd" fill-opacity="1" /><path clip-path="url(#clip700)" d="M1286.69 1544.91 L1303.01 1544.91 L1303.01 1548.85 L1281.07 1548.85 L1281.07 1544.91 Q1283.73 1542.16 1288.31 1537.53 Q1292.92 1532.88 1294.1 1531.53 Q1296.34 1529.01 1297.22 1527.27 Q1298.13 1525.51 1298.13 1523.82 Q1298.13 1521.07 1296.18 1519.33 Q1294.26 1517.6 1291.16 1517.6 Q1288.96 1517.6 1286.51 1518.36 Q1284.08 1519.13 1281.3 1520.68 L1281.3 1515.95 Q1284.12 1514.82 1286.58 1514.24 Q1289.03 1513.66 1291.07 1513.66 Q1296.44 1513.66 1299.63 1516.35 Q1302.83 1519.03 1302.83 1523.52 Q1302.83 1525.65 1302.02 1527.57 Q1301.23 1529.47 1299.12 1532.07 Q1298.54 1532.74 1295.44 1535.95 Q1292.34 1539.15 1286.69 1544.91 Z" fill="#000000" fill-rule="evenodd" fill-opacity="1" /><path clip-path="url(#clip700)" d="M1557.46 1518.36 L1545.65 1536.81 L1557.46 1536.81 L1557.46 1518.36 M1556.23 1514.29 L1562.11 1514.29 L1562.11 1536.81 L1567.04 1536.81 L1567.04 1540.7 L1562.11 1540.7 L1562.11 1548.85 L1557.46 1548.85 L1557.46 1540.7 L1541.85 1540.7 L1541.85 1536.19 L1556.23 1514.29 Z" fill="#000000" fill-rule="evenodd" fill-opacity="1" /><polyline clip-path="url(#clip702)" style="stroke:#000000; stroke-linecap:butt; stroke-linejoin:round; stroke-width:2; stroke-opacity:0.1; fill:none" points="
  306.435,1447.87 1752.83,1447.87 
  "/>
<polyline clip-path="url(#clip702)" style="stroke:#000000; stroke-linecap:butt; stroke-linejoin:round; stroke-width:2; stroke-opacity:0.1; fill:none" points="
  306.435,1190.02 1752.83,1190.02 
  "/>
<polyline clip-path="url(#clip702)" style="stroke:#000000; stroke-linecap:butt; stroke-linejoin:round; stroke-width:2; stroke-opacity:0.1; fill:none" points="
  306.435,932.166 1752.83,932.166 
  "/>
<polyline clip-path="url(#clip702)" style="stroke:#000000; stroke-linecap:butt; stroke-linejoin:round; stroke-width:2; stroke-opacity:0.1; fill:none" points="
  306.435,674.312 1752.83,674.312 
  "/>
<polyline clip-path="url(#clip702)" style="stroke:#000000; stroke-linecap:butt; stroke-linejoin:round; stroke-width:2; stroke-opacity:0.1; fill:none" points="
  306.435,416.459 1752.83,416.459 
  "/>
<polyline clip-path="url(#clip702)" style="stroke:#000000; stroke-linecap:butt; stroke-linejoin:round; stroke-width:2; stroke-opacity:0.1; fill:none" points="
  306.435,158.605 1752.83,158.605 
  "/>
<polyline clip-path="url(#clip700)" style="stroke:#000000; stroke-linecap:butt; stroke-linejoin:round; stroke-width:4; stroke-opacity:1; fill:none" points="
  306.435,1486.45 306.435,123.472 
  "/>
<polyline clip-path="url(#clip700)" style="stroke:#000000; stroke-linecap:butt; stroke-linejoin:round; stroke-width:4; stroke-opacity:1; fill:none" points="
  306.435,1447.87 319.793,1447.87 
  "/>
<polyline clip-path="url(#clip700)" style="stroke:#000000; stroke-linecap:butt; stroke-linejoin:round; stroke-width:4; stroke-opacity:1; fill:none" points="
  306.435,1190.02 319.793,1190.02 
  "/>
<polyline clip-path="url(#clip700)" style="stroke:#000000; stroke-linecap:butt; stroke-linejoin:round; stroke-width:4; stroke-opacity:1; fill:none" points="
  306.435,932.166 319.793,932.166 
  "/>
<polyline clip-path="url(#clip700)" style="stroke:#000000; stroke-linecap:butt; stroke-linejoin:round; stroke-width:4; stroke-opacity:1; fill:none" points="
  306.435,674.312 319.793,674.312 
  "/>
<polyline clip-path="url(#clip700)" style="stroke:#000000; stroke-linecap:butt; stroke-linejoin:round; stroke-width:4; stroke-opacity:1; fill:none" points="
  306.435,416.459 319.793,416.459 
  "/>
<polyline clip-path="url(#clip700)" style="stroke:#000000; stroke-linecap:butt; stroke-linejoin:round; stroke-width:4; stroke-opacity:1; fill:none" points="
  306.435,158.605 319.793,158.605 
  "/>
<path clip-path="url(#clip700)" d="M258.491 1433.67 Q254.88 1433.67 253.051 1437.24 Q251.246 1440.78 251.246 1447.91 Q251.246 1455.01 253.051 1458.58 Q254.88 1462.12 258.491 1462.12 Q262.125 1462.12 263.931 1458.58 Q265.759 1455.01 265.759 1447.91 Q265.759 1440.78 263.931 1437.24 Q262.125 1433.67 258.491 1433.67 M258.491 1429.97 Q264.301 1429.97 267.357 1434.57 Q270.435 1439.16 270.435 1447.91 Q270.435 1456.63 267.357 1461.24 Q264.301 1465.82 258.491 1465.82 Q252.681 1465.82 249.602 1461.24 Q246.547 1456.63 246.547 1447.91 Q246.547 1439.16 249.602 1434.57 Q252.681 1429.97 258.491 1429.97 Z" fill="#000000" fill-rule="evenodd" fill-opacity="1" /><path clip-path="url(#clip700)" d="M54.6105 1179.19 L72.9668 1179.19 L72.9668 1183.12 L58.8928 1183.12 L58.8928 1191.59 Q59.9113 1191.25 60.9299 1191.09 Q61.9484 1190.9 62.9669 1190.9 Q68.7539 1190.9 72.1335 1194.07 Q75.5131 1197.24 75.5131 1202.66 Q75.5131 1208.24 72.0409 1211.34 Q68.5687 1214.42 62.2493 1214.42 Q60.0734 1214.42 57.8049 1214.05 Q55.5595 1213.68 53.1521 1212.94 L53.1521 1208.24 Q55.2354 1209.37 57.4577 1209.93 Q59.6799 1210.48 62.1567 1210.48 Q66.1613 1210.48 68.4993 1208.38 Q70.8372 1206.27 70.8372 1202.66 Q70.8372 1199.05 68.4993 1196.94 Q66.1613 1194.84 62.1567 1194.84 Q60.2817 1194.84 58.4067 1195.25 Q56.5549 1195.67 54.6105 1196.55 L54.6105 1179.19 Z" fill="#000000" fill-rule="evenodd" fill-opacity="1" /><path clip-path="url(#clip700)" d="M84.726 1207.87 L89.6103 1207.87 L89.6103 1213.75 L84.726 1213.75 L84.726 1207.87 Z" fill="#000000" fill-rule="evenodd" fill-opacity="1" /><path clip-path="url(#clip700)" d="M109.795 1182.27 Q106.184 1182.27 104.356 1185.83 Q102.55 1189.37 102.55 1196.5 Q102.55 1203.61 104.356 1207.17 Q106.184 1210.71 109.795 1210.71 Q113.43 1210.71 115.235 1207.17 Q117.064 1203.61 117.064 1196.5 Q117.064 1189.37 115.235 1185.83 Q113.43 1182.27 109.795 1182.27 M109.795 1178.56 Q115.605 1178.56 118.661 1183.17 Q121.74 1187.75 121.74 1196.5 Q121.74 1205.23 118.661 1209.84 Q115.605 1214.42 109.795 1214.42 Q103.985 1214.42 100.906 1209.84 Q97.851 1205.23 97.851 1196.5 Q97.851 1187.75 100.906 1183.17 Q103.985 1178.56 109.795 1178.56 Z" fill="#000000" fill-rule="evenodd" fill-opacity="1" /><path clip-path="url(#clip700)" d="M139.957 1182.27 Q136.346 1182.27 134.517 1185.83 Q132.712 1189.37 132.712 1196.5 Q132.712 1203.61 134.517 1207.17 Q136.346 1210.71 139.957 1210.71 Q143.591 1210.71 145.397 1207.17 Q147.226 1203.61 147.226 1196.5 Q147.226 1189.37 145.397 1185.83 Q143.591 1182.27 139.957 1182.27 M139.957 1178.56 Q145.767 1178.56 148.823 1183.17 Q151.902 1187.75 151.902 1196.5 Q151.902 1205.23 148.823 1209.84 Q145.767 1214.42 139.957 1214.42 Q134.147 1214.42 131.068 1209.84 Q128.013 1205.23 128.013 1196.5 Q128.013 1187.75 131.068 1183.17 Q134.147 1178.56 139.957 1178.56 Z" fill="#000000" fill-rule="evenodd" fill-opacity="1" /><path clip-path="url(#clip700)" d="M188.29 1188.28 L177.712 1198.91 L188.29 1209.49 L185.536 1212.29 L174.911 1201.66 L164.286 1212.29 L161.554 1209.49 L172.11 1198.91 L161.554 1188.28 L164.286 1185.48 L174.911 1196.11 L185.536 1185.48 L188.29 1188.28 Z" fill="#000000" fill-rule="evenodd" fill-opacity="1" /><path clip-path="url(#clip700)" d="M200.651 1209.81 L208.29 1209.81 L208.29 1183.45 L199.98 1185.11 L199.98 1180.85 L208.244 1179.19 L212.92 1179.19 L212.92 1209.81 L220.559 1209.81 L220.559 1213.75 L200.651 1213.75 L200.651 1209.81 Z" fill="#000000" fill-rule="evenodd" fill-opacity="1" /><path clip-path="url(#clip700)" d="M240.003 1182.27 Q236.392 1182.27 234.563 1185.83 Q232.758 1189.37 232.758 1196.5 Q232.758 1203.61 234.563 1207.17 Q236.392 1210.71 240.003 1210.71 Q243.637 1210.71 245.443 1207.17 Q247.271 1203.61 247.271 1196.5 Q247.271 1189.37 245.443 1185.83 Q243.637 1182.27 240.003 1182.27 M240.003 1178.56 Q245.813 1178.56 248.869 1183.17 Q251.947 1187.75 251.947 1196.5 Q251.947 1205.23 248.869 1209.84 Q245.813 1214.42 240.003 1214.42 Q234.193 1214.42 231.114 1209.84 Q228.059 1205.23 228.059 1196.5 Q228.059 1187.75 231.114 1183.17 Q234.193 1178.56 240.003 1178.56 Z" fill="#000000" fill-rule="evenodd" fill-opacity="1" /><path clip-path="url(#clip700)" d="M264.643 1171.2 Q267.37 1171.78 268.893 1173.62 Q270.435 1175.47 270.435 1178.17 Q270.435 1182.33 267.577 1184.61 Q264.718 1186.88 259.452 1186.88 Q257.684 1186.88 255.803 1186.52 Q253.941 1186.19 251.947 1185.49 L251.947 1181.82 Q253.527 1182.74 255.408 1183.21 Q257.289 1183.68 259.339 1183.68 Q262.912 1183.68 264.774 1182.27 Q266.655 1180.86 266.655 1178.17 Q266.655 1175.69 264.906 1174.3 Q263.176 1172.89 260.072 1172.89 L256.8 1172.89 L256.8 1169.77 L260.223 1169.77 Q263.025 1169.77 264.511 1168.66 Q265.997 1167.53 265.997 1165.42 Q265.997 1163.26 264.455 1162.11 Q262.931 1160.95 260.072 1160.95 Q258.511 1160.95 256.725 1161.28 Q254.938 1161.62 252.794 1162.34 L252.794 1158.95 Q254.957 1158.35 256.837 1158.05 Q258.737 1157.75 260.411 1157.75 Q264.737 1157.75 267.257 1159.72 Q269.777 1161.68 269.777 1165.03 Q269.777 1167.36 268.442 1168.98 Q267.106 1170.58 264.643 1171.2 Z" fill="#000000" fill-rule="evenodd" fill-opacity="1" /><path clip-path="url(#clip700)" d="M53.3995 951.958 L61.0384 951.958 L61.0384 925.593 L52.7282 927.259 L52.7282 923 L60.9921 921.334 L65.668 921.334 L65.668 951.958 L73.3068 951.958 L73.3068 955.894 L53.3995 955.894 L53.3995 951.958 Z" fill="#000000" fill-rule="evenodd" fill-opacity="1" /><path clip-path="url(#clip700)" d="M82.7512 950.014 L87.6354 950.014 L87.6354 955.894 L82.7512 955.894 L82.7512 950.014 Z" fill="#000000" fill-rule="evenodd" fill-opacity="1" /><path clip-path="url(#clip700)" d="M107.821 924.412 Q104.209 924.412 102.381 927.977 Q100.575 931.519 100.575 938.648 Q100.575 945.755 102.381 949.32 Q104.209 952.861 107.821 952.861 Q111.455 952.861 113.26 949.32 Q115.089 945.755 115.089 938.648 Q115.089 931.519 113.26 927.977 Q111.455 924.412 107.821 924.412 M107.821 920.709 Q113.631 920.709 116.686 925.315 Q119.765 929.898 119.765 938.648 Q119.765 947.375 116.686 951.982 Q113.631 956.565 107.821 956.565 Q102.01 956.565 98.9317 951.982 Q95.8761 947.375 95.8761 938.648 Q95.8761 929.898 98.9317 925.315 Q102.01 920.709 107.821 920.709 Z" fill="#000000" fill-rule="evenodd" fill-opacity="1" /><path clip-path="url(#clip700)" d="M137.982 924.412 Q134.371 924.412 132.543 927.977 Q130.737 931.519 130.737 938.648 Q130.737 945.755 132.543 949.32 Q134.371 952.861 137.982 952.861 Q141.617 952.861 143.422 949.32 Q145.251 945.755 145.251 938.648 Q145.251 931.519 143.422 927.977 Q141.617 924.412 137.982 924.412 M137.982 920.709 Q143.793 920.709 146.848 925.315 Q149.927 929.898 149.927 938.648 Q149.927 947.375 146.848 951.982 Q143.793 956.565 137.982 956.565 Q132.172 956.565 129.094 951.982 Q126.038 947.375 126.038 938.648 Q126.038 929.898 129.094 925.315 Q132.172 920.709 137.982 920.709 Z" fill="#000000" fill-rule="evenodd" fill-opacity="1" /><path clip-path="url(#clip700)" d="M186.315 930.431 L175.737 941.056 L186.315 951.634 L183.561 954.435 L172.936 943.81 L162.311 954.435 L159.58 951.634 L170.135 941.056 L159.58 930.431 L162.311 927.63 L172.936 938.255 L183.561 927.63 L186.315 930.431 Z" fill="#000000" fill-rule="evenodd" fill-opacity="1" /><path clip-path="url(#clip700)" d="M198.677 951.958 L206.315 951.958 L206.315 925.593 L198.005 927.259 L198.005 923 L206.269 921.334 L210.945 921.334 L210.945 951.958 L218.584 951.958 L218.584 955.894 L198.677 955.894 L198.677 951.958 Z" fill="#000000" fill-rule="evenodd" fill-opacity="1" /><path clip-path="url(#clip700)" d="M238.028 924.412 Q234.417 924.412 232.588 927.977 Q230.783 931.519 230.783 938.648 Q230.783 945.755 232.588 949.32 Q234.417 952.861 238.028 952.861 Q241.662 952.861 243.468 949.32 Q245.297 945.755 245.297 938.648 Q245.297 931.519 243.468 927.977 Q241.662 924.412 238.028 924.412 M238.028 920.709 Q243.838 920.709 246.894 925.315 Q249.973 929.898 249.973 938.648 Q249.973 947.375 246.894 951.982 Q243.838 956.565 238.028 956.565 Q232.218 956.565 229.139 951.982 Q226.084 947.375 226.084 938.648 Q226.084 929.898 229.139 925.315 Q232.218 920.709 238.028 920.709 Z" fill="#000000" fill-rule="evenodd" fill-opacity="1" /><path clip-path="url(#clip700)" d="M262.649 903.713 L253.057 918.703 L262.649 918.703 L262.649 903.713 M261.652 900.403 L266.429 900.403 L266.429 918.703 L270.435 918.703 L270.435 921.863 L266.429 921.863 L266.429 928.483 L262.649 928.483 L262.649 921.863 L249.973 921.863 L249.973 918.195 L261.652 900.403 Z" fill="#000000" fill-rule="evenodd" fill-opacity="1" /><path clip-path="url(#clip700)" d="M53.3995 694.105 L61.0384 694.105 L61.0384 667.739 L52.7282 669.406 L52.7282 665.147 L60.9921 663.48 L65.668 663.48 L65.668 694.105 L73.3068 694.105 L73.3068 698.04 L53.3995 698.04 L53.3995 694.105 Z" fill="#000000" fill-rule="evenodd" fill-opacity="1" /><path clip-path="url(#clip700)" d="M82.7512 692.16 L87.6354 692.16 L87.6354 698.04 L82.7512 698.04 L82.7512 692.16 Z" fill="#000000" fill-rule="evenodd" fill-opacity="1" /><path clip-path="url(#clip700)" d="M97.8669 663.48 L116.223 663.48 L116.223 667.415 L102.149 667.415 L102.149 675.887 Q103.168 675.54 104.186 675.378 Q105.205 675.193 106.223 675.193 Q112.01 675.193 115.39 678.364 Q118.77 681.535 118.77 686.952 Q118.77 692.531 115.297 695.633 Q111.825 698.711 105.506 698.711 Q103.33 698.711 101.061 698.341 Q98.8159 697.971 96.4085 697.23 L96.4085 692.531 Q98.4919 693.665 100.714 694.221 Q102.936 694.776 105.413 694.776 Q109.418 694.776 111.756 692.67 Q114.094 690.563 114.094 686.952 Q114.094 683.341 111.756 681.235 Q109.418 679.128 105.413 679.128 Q103.538 679.128 101.663 679.545 Q99.8113 679.961 97.8669 680.841 L97.8669 663.48 Z" fill="#000000" fill-rule="evenodd" fill-opacity="1" /><path clip-path="url(#clip700)" d="M137.982 666.559 Q134.371 666.559 132.543 670.123 Q130.737 673.665 130.737 680.795 Q130.737 687.901 132.543 691.466 Q134.371 695.008 137.982 695.008 Q141.617 695.008 143.422 691.466 Q145.251 687.901 145.251 680.795 Q145.251 673.665 143.422 670.123 Q141.617 666.559 137.982 666.559 M137.982 662.855 Q143.793 662.855 146.848 667.461 Q149.927 672.045 149.927 680.795 Q149.927 689.522 146.848 694.128 Q143.793 698.711 137.982 698.711 Q132.172 698.711 129.094 694.128 Q126.038 689.522 126.038 680.795 Q126.038 672.045 129.094 667.461 Q132.172 662.855 137.982 662.855 Z" fill="#000000" fill-rule="evenodd" fill-opacity="1" /><path clip-path="url(#clip700)" d="M186.315 672.577 L175.737 683.202 L186.315 693.781 L183.561 696.582 L172.936 685.957 L162.311 696.582 L159.58 693.781 L170.135 683.202 L159.58 672.577 L162.311 669.776 L172.936 680.401 L183.561 669.776 L186.315 672.577 Z" fill="#000000" fill-rule="evenodd" fill-opacity="1" /><path clip-path="url(#clip700)" d="M198.677 694.105 L206.315 694.105 L206.315 667.739 L198.005 669.406 L198.005 665.147 L206.269 663.48 L210.945 663.48 L210.945 694.105 L218.584 694.105 L218.584 698.04 L198.677 698.04 L198.677 694.105 Z" fill="#000000" fill-rule="evenodd" fill-opacity="1" /><path clip-path="url(#clip700)" d="M238.028 666.559 Q234.417 666.559 232.588 670.123 Q230.783 673.665 230.783 680.795 Q230.783 687.901 232.588 691.466 Q234.417 695.008 238.028 695.008 Q241.662 695.008 243.468 691.466 Q245.297 687.901 245.297 680.795 Q245.297 673.665 243.468 670.123 Q241.662 666.559 238.028 666.559 M238.028 662.855 Q243.838 662.855 246.894 667.461 Q249.973 672.045 249.973 680.795 Q249.973 689.522 246.894 694.128 Q243.838 698.711 238.028 698.711 Q232.218 698.711 229.139 694.128 Q226.084 689.522 226.084 680.795 Q226.084 672.045 229.139 667.461 Q232.218 662.855 238.028 662.855 Z" fill="#000000" fill-rule="evenodd" fill-opacity="1" /><path clip-path="url(#clip700)" d="M262.649 645.86 L253.057 660.85 L262.649 660.85 L262.649 645.86 M261.652 642.55 L266.429 642.55 L266.429 660.85 L270.435 660.85 L270.435 664.009 L266.429 664.009 L266.429 670.63 L262.649 670.63 L262.649 664.009 L249.973 664.009 L249.973 660.342 L261.652 642.55 Z" fill="#000000" fill-rule="evenodd" fill-opacity="1" /><path clip-path="url(#clip700)" d="M56.6171 436.251 L72.9365 436.251 L72.9365 440.186 L50.9921 440.186 L50.9921 436.251 Q53.6541 433.497 58.2375 428.867 Q62.8439 424.214 64.0245 422.872 Q66.2698 420.349 67.1494 418.612 Q68.0522 416.853 68.0522 415.163 Q68.0522 412.409 66.1078 410.673 Q64.1865 408.937 61.0847 408.937 Q58.8856 408.937 56.4319 409.7 Q54.0014 410.464 51.2236 412.015 L51.2236 407.293 Q54.0477 406.159 56.5014 405.58 Q58.955 405.001 60.9921 405.001 Q66.3624 405.001 69.5568 407.687 Q72.7513 410.372 72.7513 414.863 Q72.7513 416.992 71.9411 418.913 Q71.1541 420.812 69.0476 423.404 Q68.4689 424.075 65.367 427.293 Q62.2652 430.487 56.6171 436.251 Z" fill="#000000" fill-rule="evenodd" fill-opacity="1" /><path clip-path="url(#clip700)" d="M82.7512 434.307 L87.6354 434.307 L87.6354 440.186 L82.7512 440.186 L82.7512 434.307 Z" fill="#000000" fill-rule="evenodd" fill-opacity="1" /><path clip-path="url(#clip700)" d="M107.821 408.705 Q104.209 408.705 102.381 412.27 Q100.575 415.812 100.575 422.941 Q100.575 430.048 102.381 433.612 Q104.209 437.154 107.821 437.154 Q111.455 437.154 113.26 433.612 Q115.089 430.048 115.089 422.941 Q115.089 415.812 113.26 412.27 Q111.455 408.705 107.821 408.705 M107.821 405.001 Q113.631 405.001 116.686 409.608 Q119.765 414.191 119.765 422.941 Q119.765 431.668 116.686 436.274 Q113.631 440.858 107.821 440.858 Q102.01 440.858 98.9317 436.274 Q95.8761 431.668 95.8761 422.941 Q95.8761 414.191 98.9317 409.608 Q102.01 405.001 107.821 405.001 Z" fill="#000000" fill-rule="evenodd" fill-opacity="1" /><path clip-path="url(#clip700)" d="M137.982 408.705 Q134.371 408.705 132.543 412.27 Q130.737 415.812 130.737 422.941 Q130.737 430.048 132.543 433.612 Q134.371 437.154 137.982 437.154 Q141.617 437.154 143.422 433.612 Q145.251 430.048 145.251 422.941 Q145.251 415.812 143.422 412.27 Q141.617 408.705 137.982 408.705 M137.982 405.001 Q143.793 405.001 146.848 409.608 Q149.927 414.191 149.927 422.941 Q149.927 431.668 146.848 436.274 Q143.793 440.858 137.982 440.858 Q132.172 440.858 129.094 436.274 Q126.038 431.668 126.038 422.941 Q126.038 414.191 129.094 409.608 Q132.172 405.001 137.982 405.001 Z" fill="#000000" fill-rule="evenodd" fill-opacity="1" /><path clip-path="url(#clip700)" d="M186.315 414.724 L175.737 425.349 L186.315 435.927 L183.561 438.728 L172.936 428.103 L162.311 438.728 L159.58 435.927 L170.135 425.349 L159.58 414.724 L162.311 411.923 L172.936 422.548 L183.561 411.923 L186.315 414.724 Z" fill="#000000" fill-rule="evenodd" fill-opacity="1" /><path clip-path="url(#clip700)" d="M198.677 436.251 L206.315 436.251 L206.315 409.886 L198.005 411.552 L198.005 407.293 L206.269 405.626 L210.945 405.626 L210.945 436.251 L218.584 436.251 L218.584 440.186 L198.677 440.186 L198.677 436.251 Z" fill="#000000" fill-rule="evenodd" fill-opacity="1" /><path clip-path="url(#clip700)" d="M238.028 408.705 Q234.417 408.705 232.588 412.27 Q230.783 415.812 230.783 422.941 Q230.783 430.048 232.588 433.612 Q234.417 437.154 238.028 437.154 Q241.662 437.154 243.468 433.612 Q245.297 430.048 245.297 422.941 Q245.297 415.812 243.468 412.27 Q241.662 408.705 238.028 408.705 M238.028 405.001 Q243.838 405.001 246.894 409.608 Q249.973 414.191 249.973 422.941 Q249.973 431.668 246.894 436.274 Q243.838 440.858 238.028 440.858 Q232.218 440.858 229.139 436.274 Q226.084 431.668 226.084 422.941 Q226.084 414.191 229.139 409.608 Q232.218 405.001 238.028 405.001 Z" fill="#000000" fill-rule="evenodd" fill-opacity="1" /><path clip-path="url(#clip700)" d="M262.649 388.006 L253.057 402.996 L262.649 402.996 L262.649 388.006 M261.652 384.696 L266.429 384.696 L266.429 402.996 L270.435 402.996 L270.435 406.156 L266.429 406.156 L266.429 412.776 L262.649 412.776 L262.649 406.156 L249.973 406.156 L249.973 402.488 L261.652 384.696 Z" fill="#000000" fill-rule="evenodd" fill-opacity="1" /><path clip-path="url(#clip700)" d="M56.6171 178.398 L72.9365 178.398 L72.9365 182.333 L50.9921 182.333 L50.9921 178.398 Q53.6541 175.643 58.2375 171.013 Q62.8439 166.361 64.0245 165.018 Q66.2698 162.495 67.1494 160.759 Q68.0522 159 68.0522 157.31 Q68.0522 154.555 66.1078 152.819 Q64.1865 151.083 61.0847 151.083 Q58.8856 151.083 56.4319 151.847 Q54.0014 152.611 51.2236 154.162 L51.2236 149.44 Q54.0477 148.305 56.5014 147.727 Q58.955 147.148 60.9921 147.148 Q66.3624 147.148 69.5568 149.833 Q72.7513 152.518 72.7513 157.009 Q72.7513 159.139 71.9411 161.06 Q71.1541 162.958 69.0476 165.551 Q68.4689 166.222 65.367 169.439 Q62.2652 172.634 56.6171 178.398 Z" fill="#000000" fill-rule="evenodd" fill-opacity="1" /><path clip-path="url(#clip700)" d="M82.7512 176.453 L87.6354 176.453 L87.6354 182.333 L82.7512 182.333 L82.7512 176.453 Z" fill="#000000" fill-rule="evenodd" fill-opacity="1" /><path clip-path="url(#clip700)" d="M97.8669 147.773 L116.223 147.773 L116.223 151.708 L102.149 151.708 L102.149 160.18 Q103.168 159.833 104.186 159.671 Q105.205 159.486 106.223 159.486 Q112.01 159.486 115.39 162.657 Q118.77 165.828 118.77 171.245 Q118.77 176.824 115.297 179.925 Q111.825 183.004 105.506 183.004 Q103.33 183.004 101.061 182.634 Q98.8159 182.263 96.4085 181.523 L96.4085 176.824 Q98.4919 177.958 100.714 178.513 Q102.936 179.069 105.413 179.069 Q109.418 179.069 111.756 176.963 Q114.094 174.856 114.094 171.245 Q114.094 167.634 111.756 165.527 Q109.418 163.421 105.413 163.421 Q103.538 163.421 101.663 163.838 Q99.8113 164.254 97.8669 165.134 L97.8669 147.773 Z" fill="#000000" fill-rule="evenodd" fill-opacity="1" /><path clip-path="url(#clip700)" d="M137.982 150.852 Q134.371 150.852 132.543 154.416 Q130.737 157.958 130.737 165.088 Q130.737 172.194 132.543 175.759 Q134.371 179.3 137.982 179.3 Q141.617 179.3 143.422 175.759 Q145.251 172.194 145.251 165.088 Q145.251 157.958 143.422 154.416 Q141.617 150.852 137.982 150.852 M137.982 147.148 Q143.793 147.148 146.848 151.754 Q149.927 156.338 149.927 165.088 Q149.927 173.814 146.848 178.421 Q143.793 183.004 137.982 183.004 Q132.172 183.004 129.094 178.421 Q126.038 173.814 126.038 165.088 Q126.038 156.338 129.094 151.754 Q132.172 147.148 137.982 147.148 Z" fill="#000000" fill-rule="evenodd" fill-opacity="1" /><path clip-path="url(#clip700)" d="M186.315 156.87 L175.737 167.495 L186.315 178.074 L183.561 180.875 L172.936 170.25 L162.311 180.875 L159.58 178.074 L170.135 167.495 L159.58 156.87 L162.311 154.069 L172.936 164.694 L183.561 154.069 L186.315 156.87 Z" fill="#000000" fill-rule="evenodd" fill-opacity="1" /><path clip-path="url(#clip700)" d="M198.677 178.398 L206.315 178.398 L206.315 152.032 L198.005 153.699 L198.005 149.44 L206.269 147.773 L210.945 147.773 L210.945 178.398 L218.584 178.398 L218.584 182.333 L198.677 182.333 L198.677 178.398 Z" fill="#000000" fill-rule="evenodd" fill-opacity="1" /><path clip-path="url(#clip700)" d="M238.028 150.852 Q234.417 150.852 232.588 154.416 Q230.783 157.958 230.783 165.088 Q230.783 172.194 232.588 175.759 Q234.417 179.3 238.028 179.3 Q241.662 179.3 243.468 175.759 Q245.297 172.194 245.297 165.088 Q245.297 157.958 243.468 154.416 Q241.662 150.852 238.028 150.852 M238.028 147.148 Q243.838 147.148 246.894 151.754 Q249.973 156.338 249.973 165.088 Q249.973 173.814 246.894 178.421 Q243.838 183.004 238.028 183.004 Q232.218 183.004 229.139 178.421 Q226.084 173.814 226.084 165.088 Q226.084 156.338 229.139 151.754 Q232.218 147.148 238.028 147.148 Z" fill="#000000" fill-rule="evenodd" fill-opacity="1" /><path clip-path="url(#clip700)" d="M262.649 130.153 L253.057 145.142 L262.649 145.142 L262.649 130.153 M261.652 126.842 L266.429 126.842 L266.429 145.142 L270.435 145.142 L270.435 148.302 L266.429 148.302 L266.429 154.922 L262.649 154.922 L262.649 148.302 L249.973 148.302 L249.973 144.635 L261.652 126.842 Z" fill="#000000" fill-rule="evenodd" fill-opacity="1" /><path clip-path="url(#clip700)" d="M404.313 12.096 L442.553 12.096 L442.553 18.9825 L412.496 18.9825 L412.496 36.8875 L441.298 36.8875 L441.298 43.7741 L412.496 43.7741 L412.496 65.6895 L443.283 65.6895 L443.283 72.576 L404.313 72.576 L404.313 12.096 Z" fill="#000000" fill-rule="evenodd" fill-opacity="1" /><path clip-path="url(#clip700)" d="M482.698 34.1734 Q481.442 33.4443 479.943 33.1202 Q478.485 32.7556 476.703 32.7556 Q470.383 32.7556 466.98 36.8875 Q463.618 40.9789 463.618 48.6757 L463.618 72.576 L456.124 72.576 L456.124 27.2059 L463.618 27.2059 L463.618 34.2544 Q465.968 30.1225 469.735 28.1376 Q473.502 26.1121 478.89 26.1121 Q479.66 26.1121 480.591 26.2337 Q481.523 26.3147 482.657 26.5172 L482.698 34.1734 Z" fill="#000000" fill-rule="evenodd" fill-opacity="1" /><path clip-path="url(#clip700)" d="M515.348 34.1734 Q514.092 33.4443 512.594 33.1202 Q511.135 32.7556 509.353 32.7556 Q503.033 32.7556 499.631 36.8875 Q496.268 40.9789 496.268 48.6757 L496.268 72.576 L488.774 72.576 L488.774 27.2059 L496.268 27.2059 L496.268 34.2544 Q498.618 30.1225 502.385 28.1376 Q506.153 26.1121 511.54 26.1121 Q512.31 26.1121 513.242 26.2337 Q514.173 26.3147 515.308 26.5172 L515.348 34.1734 Z" fill="#000000" fill-rule="evenodd" fill-opacity="1" /><path clip-path="url(#clip700)" d="M538.924 32.4315 Q532.929 32.4315 529.445 37.1306 Q525.962 41.7891 525.962 49.9314 Q525.962 58.0738 529.405 62.7728 Q532.889 67.4314 538.924 67.4314 Q544.879 67.4314 548.363 62.7323 Q551.847 58.0333 551.847 49.9314 Q551.847 41.8701 548.363 37.1711 Q544.879 32.4315 538.924 32.4315 M538.924 26.1121 Q548.647 26.1121 554.196 32.4315 Q559.746 38.7509 559.746 49.9314 Q559.746 61.0714 554.196 67.4314 Q548.647 73.7508 538.924 73.7508 Q529.162 73.7508 523.612 67.4314 Q518.103 61.0714 518.103 49.9314 Q518.103 38.7509 523.612 32.4315 Q529.162 26.1121 538.924 26.1121 Z" fill="#000000" fill-rule="evenodd" fill-opacity="1" /><path clip-path="url(#clip700)" d="M598.392 34.1734 Q597.136 33.4443 595.637 33.1202 Q594.179 32.7556 592.396 32.7556 Q586.077 32.7556 582.674 36.8875 Q579.312 40.9789 579.312 48.6757 L579.312 72.576 L571.818 72.576 L571.818 27.2059 L579.312 27.2059 L579.312 34.2544 Q581.661 30.1225 585.429 28.1376 Q589.196 26.1121 594.584 26.1121 Q595.354 26.1121 596.285 26.2337 Q597.217 26.3147 598.351 26.5172 L598.392 34.1734 Z" fill="#000000" fill-rule="evenodd" fill-opacity="1" /><path clip-path="url(#clip700)" d="M650.162 32.4315 Q644.167 32.4315 640.683 37.1306 Q637.199 41.7891 637.199 49.9314 Q637.199 58.0738 640.643 62.7728 Q644.126 67.4314 650.162 67.4314 Q656.117 67.4314 659.601 62.7323 Q663.085 58.0333 663.085 49.9314 Q663.085 41.8701 659.601 37.1711 Q656.117 32.4315 650.162 32.4315 M650.162 26.1121 Q659.884 26.1121 665.434 32.4315 Q670.984 38.7509 670.984 49.9314 Q670.984 61.0714 665.434 67.4314 Q659.884 73.7508 650.162 73.7508 Q640.4 73.7508 634.85 67.4314 Q629.341 61.0714 629.341 49.9314 Q629.341 38.7509 634.85 32.4315 Q640.4 26.1121 650.162 26.1121 Z" fill="#000000" fill-rule="evenodd" fill-opacity="1" /><path clip-path="url(#clip700)" d="M706.308 9.54393 L706.308 15.7418 L699.178 15.7418 Q695.168 15.7418 693.588 17.3622 Q692.049 18.9825 692.049 23.1955 L692.049 27.2059 L704.323 27.2059 L704.323 32.9987 L692.049 32.9987 L692.049 72.576 L684.554 72.576 L684.554 32.9987 L677.425 32.9987 L677.425 27.2059 L684.554 27.2059 L684.554 24.0462 Q684.554 16.471 688.079 13.0277 Q691.603 9.54393 699.259 9.54393 L706.308 9.54393 Z" fill="#000000" fill-rule="evenodd" fill-opacity="1" /><path clip-path="url(#clip700)" d="M747.019 65.6895 L775.578 65.6895 L775.578 72.576 L737.176 72.576 L737.176 65.6895 Q741.834 60.8689 749.855 52.7671 Q757.916 44.6248 759.982 42.2752 Q763.912 37.8598 765.451 34.8216 Q767.031 31.7429 767.031 28.7857 Q767.031 23.9651 763.628 20.927 Q760.266 17.8888 754.838 17.8888 Q750.989 17.8888 746.695 19.2256 Q742.442 20.5624 737.581 23.2765 L737.581 15.0127 Q742.523 13.0277 746.817 12.015 Q751.111 11.0023 754.676 11.0023 Q764.074 11.0023 769.664 15.7013 Q775.254 20.4004 775.254 28.2591 Q775.254 31.9859 773.836 35.3482 Q772.459 38.6699 768.773 43.2069 Q767.76 44.3817 762.332 50.0125 Q756.904 55.6027 747.019 65.6895 Z" fill="#000000" fill-rule="evenodd" fill-opacity="1" /><path clip-path="url(#clip700)" d="M810.254 17.4837 Q803.935 17.4837 800.734 23.7221 Q797.575 29.92 797.575 42.3968 Q797.575 54.833 800.734 61.0714 Q803.935 67.2693 810.254 67.2693 Q816.614 67.2693 819.774 61.0714 Q822.974 54.833 822.974 42.3968 Q822.974 29.92 819.774 23.7221 Q816.614 17.4837 810.254 17.4837 M810.254 11.0023 Q820.422 11.0023 825.769 19.0636 Q831.157 27.0843 831.157 42.3968 Q831.157 57.6687 825.769 65.73 Q820.422 73.7508 810.254 73.7508 Q800.086 73.7508 794.699 65.73 Q789.351 57.6687 789.351 42.3968 Q789.351 27.0843 794.699 19.0636 Q800.086 11.0023 810.254 11.0023 Z" fill="#000000" fill-rule="evenodd" fill-opacity="1" /><path clip-path="url(#clip700)" d="M840.717 46.5287 L862.551 46.5287 L862.551 53.1722 L840.717 53.1722 L840.717 46.5287 Z" fill="#000000" fill-rule="evenodd" fill-opacity="1" /><path clip-path="url(#clip700)" d="M901.602 17.6457 Q892.69 17.6457 887.424 24.2892 Q882.198 30.9327 882.198 42.3968 Q882.198 53.8203 887.424 60.4638 Q892.69 67.1073 901.602 67.1073 Q910.514 67.1073 915.699 60.4638 Q920.925 53.8203 920.925 42.3968 Q920.925 30.9327 915.699 24.2892 Q910.514 17.6457 901.602 17.6457 M901.602 11.0023 Q914.322 11.0023 921.937 19.5497 Q929.553 28.0566 929.553 42.3968 Q929.553 56.6965 921.937 65.2439 Q914.322 73.7508 901.602 73.7508 Q888.842 73.7508 881.185 65.2439 Q873.57 56.737 873.57 42.3968 Q873.57 28.0566 881.185 19.5497 Q888.842 11.0023 901.602 11.0023 Z" fill="#000000" fill-rule="evenodd" fill-opacity="1" /><path clip-path="url(#clip700)" d="M968.32 34.1734 Q967.065 33.4443 965.566 33.1202 Q964.107 32.7556 962.325 32.7556 Q956.006 32.7556 952.603 36.8875 Q949.241 40.9789 949.241 48.6757 L949.241 72.576 L941.746 72.576 L941.746 27.2059 L949.241 27.2059 L949.241 34.2544 Q951.59 30.1225 955.357 28.1376 Q959.125 26.1121 964.512 26.1121 Q965.282 26.1121 966.214 26.2337 Q967.146 26.3147 968.28 26.5172 L968.32 34.1734 Z" fill="#000000" fill-rule="evenodd" fill-opacity="1" /><path clip-path="url(#clip700)" d="M1004.54 34.0924 L1004.54 9.54393 L1011.99 9.54393 L1011.99 72.576 L1004.54 72.576 L1004.54 65.7705 Q1002.19 69.8214 998.581 71.8063 Q995.016 73.7508 989.993 73.7508 Q981.769 73.7508 976.584 67.1883 Q971.439 60.6258 971.439 49.9314 Q971.439 39.2371 976.584 32.6746 Q981.769 26.1121 989.993 26.1121 Q995.016 26.1121 998.581 28.0971 Q1002.19 30.0415 1004.54 34.0924 M979.136 49.9314 Q979.136 58.1548 982.498 62.8538 Q985.901 67.5124 991.816 67.5124 Q997.73 67.5124 1001.13 62.8538 Q1004.54 58.1548 1004.54 49.9314 Q1004.54 41.7081 1001.13 37.0496 Q997.73 32.3505 991.816 32.3505 Q985.901 32.3505 982.498 37.0496 Q979.136 41.7081 979.136 49.9314 Z" fill="#000000" fill-rule="evenodd" fill-opacity="1" /><path clip-path="url(#clip700)" d="M1066.15 48.0275 L1066.15 51.6733 L1031.88 51.6733 Q1032.37 59.3701 1036.5 63.421 Q1040.67 67.4314 1048.08 67.4314 Q1052.38 67.4314 1056.39 66.3781 Q1060.44 65.3249 1064.41 63.2184 L1064.41 70.267 Q1060.4 71.9684 1056.18 72.8596 Q1051.97 73.7508 1047.64 73.7508 Q1036.78 73.7508 1030.42 67.4314 Q1024.1 61.1119 1024.1 50.3365 Q1024.1 39.1965 1030.1 32.6746 Q1036.13 26.1121 1046.34 26.1121 Q1055.5 26.1121 1060.8 32.0264 Q1066.15 37.9003 1066.15 48.0275 M1058.7 45.84 Q1058.61 39.7232 1055.25 36.0774 Q1051.93 32.4315 1046.42 32.4315 Q1040.18 32.4315 1036.42 35.9558 Q1032.69 39.4801 1032.12 45.8805 L1058.7 45.84 Z" fill="#000000" fill-rule="evenodd" fill-opacity="1" /><path clip-path="url(#clip700)" d="M1104.67 34.1734 Q1103.42 33.4443 1101.92 33.1202 Q1100.46 32.7556 1098.68 32.7556 Q1092.36 32.7556 1088.96 36.8875 Q1085.59 40.9789 1085.59 48.6757 L1085.59 72.576 L1078.1 72.576 L1078.1 27.2059 L1085.59 27.2059 L1085.59 34.2544 Q1087.94 30.1225 1091.71 28.1376 Q1095.48 26.1121 1100.87 26.1121 Q1101.64 26.1121 1102.57 26.2337 Q1103.5 26.3147 1104.63 26.5172 L1104.67 34.1734 Z" fill="#000000" fill-rule="evenodd" fill-opacity="1" /><path clip-path="url(#clip700)" d="M1139.19 12.096 L1147.37 12.096 L1147.37 72.576 L1139.19 72.576 L1139.19 12.096 Z" fill="#000000" fill-rule="evenodd" fill-opacity="1" /><path clip-path="url(#clip700)" d="M1201.04 45.1919 L1201.04 72.576 L1193.59 72.576 L1193.59 45.4349 Q1193.59 38.994 1191.08 35.7938 Q1188.57 32.5936 1183.54 32.5936 Q1177.51 32.5936 1174.03 36.4419 Q1170.54 40.2903 1170.54 46.9338 L1170.54 72.576 L1163.05 72.576 L1163.05 27.2059 L1170.54 27.2059 L1170.54 34.2544 Q1173.22 30.163 1176.82 28.1376 Q1180.47 26.1121 1185.21 26.1121 Q1193.02 26.1121 1197.03 30.9732 Q1201.04 35.7938 1201.04 45.1919 Z" fill="#000000" fill-rule="evenodd" fill-opacity="1" /><path clip-path="url(#clip700)" d="M1223.28 14.324 L1223.28 27.2059 L1238.64 27.2059 L1238.64 32.9987 L1223.28 32.9987 L1223.28 57.6282 Q1223.28 63.1779 1224.78 64.7578 Q1226.32 66.3376 1230.98 66.3376 L1238.64 66.3376 L1238.64 72.576 L1230.98 72.576 Q1222.35 72.576 1219.07 69.3758 Q1215.79 66.1351 1215.79 57.6282 L1215.79 32.9987 L1210.32 32.9987 L1210.32 27.2059 L1215.79 27.2059 L1215.79 14.324 L1223.28 14.324 Z" fill="#000000" fill-rule="evenodd" fill-opacity="1" /><path clip-path="url(#clip700)" d="M1287.25 48.0275 L1287.25 51.6733 L1252.98 51.6733 Q1253.46 59.3701 1257.6 63.421 Q1261.77 67.4314 1269.18 67.4314 Q1273.47 67.4314 1277.49 66.3781 Q1281.54 65.3249 1285.51 63.2184 L1285.51 70.267 Q1281.5 71.9684 1277.28 72.8596 Q1273.07 73.7508 1268.74 73.7508 Q1257.88 73.7508 1251.52 67.4314 Q1245.2 61.1119 1245.2 50.3365 Q1245.2 39.1965 1251.19 32.6746 Q1257.23 26.1121 1267.44 26.1121 Q1276.59 26.1121 1281.9 32.0264 Q1287.25 37.9003 1287.25 48.0275 M1279.79 45.84 Q1279.71 39.7232 1276.35 36.0774 Q1273.03 32.4315 1267.52 32.4315 Q1261.28 32.4315 1257.51 35.9558 Q1253.79 39.4801 1253.22 45.8805 L1279.79 45.84 Z" fill="#000000" fill-rule="evenodd" fill-opacity="1" /><path clip-path="url(#clip700)" d="M1325.77 34.1734 Q1324.52 33.4443 1323.02 33.1202 Q1321.56 32.7556 1319.78 32.7556 Q1313.46 32.7556 1310.05 36.8875 Q1306.69 40.9789 1306.69 48.6757 L1306.69 72.576 L1299.2 72.576 L1299.2 27.2059 L1306.69 27.2059 L1306.69 34.2544 Q1309.04 30.1225 1312.81 28.1376 Q1316.58 26.1121 1321.96 26.1121 Q1322.73 26.1121 1323.67 26.2337 Q1324.6 26.3147 1325.73 26.5172 L1325.77 34.1734 Z" fill="#000000" fill-rule="evenodd" fill-opacity="1" /><path clip-path="url(#clip700)" d="M1340.8 65.7705 L1340.8 89.8329 L1333.31 89.8329 L1333.31 27.2059 L1340.8 27.2059 L1340.8 34.0924 Q1343.15 30.0415 1346.72 28.0971 Q1350.32 26.1121 1355.3 26.1121 Q1363.57 26.1121 1368.71 32.6746 Q1373.9 39.2371 1373.9 49.9314 Q1373.9 60.6258 1368.71 67.1883 Q1363.57 73.7508 1355.3 73.7508 Q1350.32 73.7508 1346.72 71.8063 Q1343.15 69.8214 1340.8 65.7705 M1366.16 49.9314 Q1366.16 41.7081 1362.76 37.0496 Q1359.39 32.3505 1353.48 32.3505 Q1347.57 32.3505 1344.16 37.0496 Q1340.8 41.7081 1340.8 49.9314 Q1340.8 58.1548 1344.16 62.8538 Q1347.57 67.5124 1353.48 67.5124 Q1359.39 67.5124 1362.76 62.8538 Q1366.16 58.1548 1366.16 49.9314 Z" fill="#000000" fill-rule="evenodd" fill-opacity="1" /><path clip-path="url(#clip700)" d="M1403.83 32.4315 Q1397.84 32.4315 1394.35 37.1306 Q1390.87 41.7891 1390.87 49.9314 Q1390.87 58.0738 1394.31 62.7728 Q1397.8 67.4314 1403.83 67.4314 Q1409.79 67.4314 1413.27 62.7323 Q1416.76 58.0333 1416.76 49.9314 Q1416.76 41.8701 1413.27 37.1711 Q1409.79 32.4315 1403.83 32.4315 M1403.83 26.1121 Q1413.56 26.1121 1419.1 32.4315 Q1424.65 38.7509 1424.65 49.9314 Q1424.65 61.0714 1419.1 67.4314 Q1413.56 73.7508 1403.83 73.7508 Q1394.07 73.7508 1388.52 67.4314 Q1383.01 61.0714 1383.01 49.9314 Q1383.01 38.7509 1388.52 32.4315 Q1394.07 26.1121 1403.83 26.1121 Z" fill="#000000" fill-rule="evenodd" fill-opacity="1" /><path clip-path="url(#clip700)" d="M1437.01 9.54393 L1444.46 9.54393 L1444.46 72.576 L1437.01 72.576 L1437.01 9.54393 Z" fill="#000000" fill-rule="evenodd" fill-opacity="1" /><path clip-path="url(#clip700)" d="M1480.68 49.7694 Q1471.65 49.7694 1468.16 51.8354 Q1464.68 53.9013 1464.68 58.8839 Q1464.68 62.8538 1467.27 65.2034 Q1469.9 67.5124 1474.4 67.5124 Q1480.6 67.5124 1484.32 63.1374 Q1488.09 58.7219 1488.09 51.4303 L1488.09 49.7694 L1480.68 49.7694 M1495.55 46.6907 L1495.55 72.576 L1488.09 72.576 L1488.09 65.6895 Q1485.54 69.8214 1481.73 71.8063 Q1477.92 73.7508 1472.41 73.7508 Q1465.45 73.7508 1461.32 69.8619 Q1457.22 65.9325 1457.22 59.3701 Q1457.22 51.7138 1462.33 47.825 Q1467.47 43.9361 1477.64 43.9361 L1488.09 43.9361 L1488.09 43.2069 Q1488.09 38.0623 1484.69 35.2672 Q1481.33 32.4315 1475.21 32.4315 Q1471.32 32.4315 1467.63 33.3632 Q1463.95 34.295 1460.55 36.1584 L1460.55 29.2718 Q1464.64 27.692 1468.49 26.9223 Q1472.33 26.1121 1475.98 26.1121 Q1485.82 26.1121 1490.68 31.2163 Q1495.55 36.3204 1495.55 46.6907 Z" fill="#000000" fill-rule="evenodd" fill-opacity="1" /><path clip-path="url(#clip700)" d="M1518.27 14.324 L1518.27 27.2059 L1533.62 27.2059 L1533.62 32.9987 L1518.27 32.9987 L1518.27 57.6282 Q1518.27 63.1779 1519.77 64.7578 Q1521.31 66.3376 1525.97 66.3376 L1533.62 66.3376 L1533.62 72.576 L1525.97 72.576 Q1517.34 72.576 1514.06 69.3758 Q1510.78 66.1351 1510.78 57.6282 L1510.78 32.9987 L1505.31 32.9987 L1505.31 27.2059 L1510.78 27.2059 L1510.78 14.324 L1518.27 14.324 Z" fill="#000000" fill-rule="evenodd" fill-opacity="1" /><path clip-path="url(#clip700)" d="M1543.43 27.2059 L1550.88 27.2059 L1550.88 72.576 L1543.43 72.576 L1543.43 27.2059 M1543.43 9.54393 L1550.88 9.54393 L1550.88 18.9825 L1543.43 18.9825 L1543.43 9.54393 Z" fill="#000000" fill-rule="evenodd" fill-opacity="1" /><path clip-path="url(#clip700)" d="M1584.06 32.4315 Q1578.06 32.4315 1574.58 37.1306 Q1571.09 41.7891 1571.09 49.9314 Q1571.09 58.0738 1574.54 62.7728 Q1578.02 67.4314 1584.06 67.4314 Q1590.01 67.4314 1593.5 62.7323 Q1596.98 58.0333 1596.98 49.9314 Q1596.98 41.8701 1593.5 37.1711 Q1590.01 32.4315 1584.06 32.4315 M1584.06 26.1121 Q1593.78 26.1121 1599.33 32.4315 Q1604.88 38.7509 1604.88 49.9314 Q1604.88 61.0714 1599.33 67.4314 Q1593.78 73.7508 1584.06 73.7508 Q1574.3 73.7508 1568.75 67.4314 Q1563.24 61.0714 1563.24 49.9314 Q1563.24 38.7509 1568.75 32.4315 Q1574.3 26.1121 1584.06 26.1121 Z" fill="#000000" fill-rule="evenodd" fill-opacity="1" /><path clip-path="url(#clip700)" d="M1654.95 45.1919 L1654.95 72.576 L1647.49 72.576 L1647.49 45.4349 Q1647.49 38.994 1644.98 35.7938 Q1642.47 32.5936 1637.45 32.5936 Q1631.41 32.5936 1627.93 36.4419 Q1624.45 40.2903 1624.45 46.9338 L1624.45 72.576 L1616.95 72.576 L1616.95 27.2059 L1624.45 27.2059 L1624.45 34.2544 Q1627.12 30.163 1630.72 28.1376 Q1634.37 26.1121 1639.11 26.1121 Q1646.93 26.1121 1650.94 30.9732 Q1654.95 35.7938 1654.95 45.1919 Z" fill="#000000" fill-rule="evenodd" fill-opacity="1" /><polyline clip-path="url(#clip702)" style="stroke:#009af9; stroke-linecap:butt; stroke-linejoin:round; stroke-width:4; stroke-opacity:1; fill:none" points="
  347.371,162.047 349.995,430.376 352.619,653.957 355.243,839.134 357.867,991.464 360.491,1115.8 363.115,1216.39 365.74,1296.9 368.364,1360.54 370.988,1410.07 
  373.612,1447.87 376.236,1419.75 378.86,1399.56 381.484,1385.81 384.108,1377.21 386.732,1372.71 389.356,1371.39 391.98,1372.51 394.604,1375.44 397.228,1379.66 
  399.852,1384.76 402.477,1390.4 405.101,1396.29 407.725,1402.24 410.349,1408.08 412.973,1413.69 415.597,1418.98 418.221,1423.88 420.845,1428.36 423.469,1432.41 
  426.093,1436.01 428.717,1439.18 431.341,1441.92 433.965,1444.27 436.59,1446.24 439.214,1447.87 441.838,1446.56 444.462,1445.52 447.086,1444.73 449.71,1444.16 
  452.334,1443.78 454.958,1443.57 457.582,1443.48 460.206,1443.52 462.83,1443.64 465.454,1443.83 468.078,1444.08 470.703,1444.37 473.327,1444.69 475.951,1445.02 
  478.575,1445.35 481.199,1445.69 483.823,1446.01 486.447,1446.32 489.071,1446.61 491.695,1446.88 494.319,1447.13 496.943,1447.35 499.567,1447.55 502.191,1447.72 
  504.816,1447.87 507.44,1447.75 510.064,1447.64 512.688,1447.56 515.312,1447.5 517.936,1447.45 520.56,1447.42 523.184,1447.4 525.808,1447.39 528.432,1447.4 
  531.056,1447.41 533.68,1447.43 536.304,1447.46 538.929,1447.49 541.553,1447.52 544.177,1447.56 546.801,1447.6 549.425,1447.63 552.049,1447.67 554.673,1447.71 
  557.297,1447.74 559.921,1447.77 562.545,1447.8 565.169,1447.83 567.793,1447.85 570.417,1447.87 573.042,1447.85 575.666,1447.84 578.29,1447.83 580.914,1447.81 
  583.538,1447.81 586.162,1447.8 588.786,1447.8 591.41,1447.79 594.034,1447.79 596.658,1447.8 599.282,1447.8 601.906,1447.8 604.53,1447.81 607.154,1447.81 
  609.779,1447.82 612.403,1447.82 615.027,1447.83 617.651,1447.84 620.275,1447.84 622.899,1447.85 625.523,1447.85 628.147,1447.86 630.771,1447.86 633.395,1447.87 
  636.019,1447.87 638.643,1447.87 641.267,1447.87 643.892,1447.86 646.516,1447.86 649.14,1447.86 651.764,1447.86 654.388,1447.86 657.012,1447.86 659.636,1447.86 
  662.26,1447.86 664.884,1447.86 667.508,1447.86 670.132,1447.86 672.756,1447.86 675.38,1447.86 678.005,1447.86 680.629,1447.86 683.253,1447.86 685.877,1447.87 
  688.501,1447.87 691.125,1447.87 693.749,1447.87 696.373,1447.87 698.997,1447.87 701.621,1447.87 704.245,1447.87 706.869,1447.87 709.493,1447.87 712.118,1447.87 
  714.742,1447.87 717.366,1447.87 719.99,1447.87 722.614,1447.87 725.238,1447.87 727.862,1447.87 730.486,1447.87 733.11,1447.87 735.734,1447.87 738.358,1447.87 
  740.982,1447.87 743.606,1447.87 746.231,1447.87 748.855,1447.87 751.479,1447.87 754.103,1447.87 756.727,1447.87 759.351,1447.87 761.975,1447.87 764.599,1447.87 
  767.223,1447.87 769.847,1447.87 772.471,1447.87 775.095,1447.87 777.719,1447.87 780.344,1447.87 782.968,1447.87 785.592,1447.87 788.216,1447.87 790.84,1447.87 
  793.464,1447.87 796.088,1447.87 798.712,1447.87 801.336,1447.87 803.96,1447.87 806.584,1447.87 809.208,1447.87 811.832,1447.87 814.456,1447.87 817.081,1447.87 
  819.705,1447.87 822.329,1447.87 824.953,1447.87 827.577,1447.87 830.201,1447.87 832.825,1447.87 835.449,1447.87 838.073,1447.87 840.697,1447.87 843.321,1447.87 
  845.945,1447.87 848.569,1447.87 851.194,1447.87 853.818,1447.87 856.442,1447.87 859.066,1447.87 861.69,1447.87 864.314,1447.87 866.938,1447.87 869.562,1447.87 
  872.186,1447.87 874.81,1447.87 877.434,1447.87 880.058,1447.87 882.682,1447.87 885.307,1447.87 887.931,1447.87 890.555,1447.87 893.179,1447.87 895.803,1447.87 
  898.427,1447.87 901.051,1447.87 903.675,1447.87 906.299,1447.87 908.923,1447.87 911.547,1447.87 914.171,1447.87 916.795,1447.87 919.42,1447.87 922.044,1447.87 
  924.668,1447.87 927.292,1447.87 929.916,1447.87 932.54,1447.87 935.164,1447.87 937.788,1447.87 940.412,1447.87 943.036,1447.87 945.66,1447.87 948.284,1447.87 
  950.908,1447.87 953.533,1447.87 956.157,1447.87 958.781,1447.87 961.405,1447.87 964.029,1447.87 966.653,1447.87 969.277,1447.87 971.901,1447.87 974.525,1447.87 
  977.149,1447.87 979.773,1447.87 982.397,1447.87 985.021,1447.87 987.646,1447.87 990.27,1447.87 992.894,1447.87 995.518,1447.87 998.142,1447.87 1000.77,1447.87 
  1003.39,1447.87 1006.01,1447.87 1008.64,1447.87 1011.26,1447.87 1013.89,1447.87 1016.51,1447.87 1019.13,1447.87 1021.76,1447.87 1024.38,1447.87 1027.01,1447.87 
  1029.63,1447.87 1032.25,1447.87 1034.88,1447.87 1037.5,1447.87 1040.13,1447.87 1042.75,1447.87 1045.38,1447.87 1048,1447.87 1050.62,1447.87 1053.25,1447.87 
  1055.87,1447.87 1058.5,1447.87 1061.12,1447.87 1063.74,1447.87 1066.37,1447.87 1068.99,1447.87 1071.62,1447.87 1074.24,1447.87 1076.86,1447.87 1079.49,1447.87 
  1082.11,1447.87 1084.74,1447.87 1087.36,1447.87 1089.98,1447.87 1092.61,1447.87 1095.23,1447.87 1097.86,1447.87 1100.48,1447.87 1103.1,1447.87 1105.73,1447.87 
  1108.35,1447.87 1110.98,1447.87 1113.6,1447.87 1116.23,1447.87 1118.85,1447.87 1121.47,1447.87 1124.1,1447.87 1126.72,1447.87 1129.35,1447.87 1131.97,1447.87 
  1134.59,1447.87 1137.22,1447.87 1139.84,1447.87 1142.47,1447.87 1145.09,1447.87 1147.71,1447.87 1150.34,1447.87 1152.96,1447.87 1155.59,1447.87 1158.21,1447.87 
  1160.83,1447.87 1163.46,1447.87 1166.08,1447.87 1168.71,1447.87 1171.33,1447.87 1173.95,1447.87 1176.58,1447.87 1179.2,1447.87 1181.83,1447.87 1184.45,1447.87 
  1187.08,1447.87 1189.7,1447.87 1192.32,1447.87 1194.95,1447.87 1197.57,1447.87 1200.2,1447.87 1202.82,1447.87 1205.44,1447.87 1208.07,1447.87 1210.69,1447.87 
  1213.32,1447.87 1215.94,1447.87 1218.56,1447.87 1221.19,1447.87 1223.81,1447.87 1226.44,1447.87 1229.06,1447.87 1231.68,1447.87 1234.31,1447.87 1236.93,1447.87 
  1239.56,1447.87 1242.18,1447.87 1244.8,1447.87 1247.43,1447.87 1250.05,1447.87 1252.68,1447.87 1255.3,1447.87 1257.93,1447.87 1260.55,1447.87 1263.17,1447.87 
  1265.8,1447.87 1268.42,1447.87 1271.05,1447.87 1273.67,1447.87 1276.29,1447.87 1278.92,1447.87 1281.54,1447.87 1284.17,1447.87 1286.79,1447.87 1289.41,1447.87 
  1292.04,1447.87 1294.66,1447.87 1297.29,1447.87 1299.91,1447.87 1302.53,1447.87 1305.16,1447.87 1307.78,1447.87 1310.41,1447.87 1313.03,1447.87 1315.66,1447.87 
  1318.28,1447.87 1320.9,1447.87 1323.53,1447.87 1326.15,1447.87 1328.78,1447.87 1331.4,1447.87 1334.02,1447.87 1336.65,1447.87 1339.27,1447.87 1341.9,1447.87 
  1344.52,1447.87 1347.14,1447.87 1349.77,1447.87 1352.39,1447.87 1355.02,1447.87 1357.64,1447.87 1360.26,1447.87 1362.89,1447.87 1365.51,1447.87 1368.14,1447.87 
  1370.76,1447.87 1373.38,1447.87 1376.01,1447.86 1378.63,1447.86 1381.26,1447.86 1383.88,1447.86 1386.51,1447.86 1389.13,1447.86 1391.75,1447.86 1394.38,1447.86 
  1397,1447.86 1399.63,1447.86 1402.25,1447.86 1404.87,1447.86 1407.5,1447.86 1410.12,1447.86 1412.75,1447.86 1415.37,1447.86 1417.99,1447.87 1420.62,1447.87 
  1423.24,1447.87 1425.87,1447.87 1428.49,1447.86 1431.11,1447.86 1433.74,1447.85 1436.36,1447.85 1438.99,1447.84 1441.61,1447.84 1444.23,1447.83 1446.86,1447.82 
  1449.48,1447.82 1452.11,1447.81 1454.73,1447.81 1457.36,1447.8 1459.98,1447.8 1462.6,1447.8 1465.23,1447.79 1467.85,1447.79 1470.48,1447.8 1473.1,1447.8 
  1475.72,1447.81 1478.35,1447.81 1480.97,1447.83 1483.6,1447.84 1486.22,1447.85 1488.84,1447.87 1491.47,1447.85 1494.09,1447.83 1496.72,1447.8 1499.34,1447.77 
  1501.96,1447.74 1504.59,1447.71 1507.21,1447.67 1509.84,1447.63 1512.46,1447.6 1515.08,1447.56 1517.71,1447.52 1520.33,1447.49 1522.96,1447.46 1525.58,1447.43 
  1528.21,1447.41 1530.83,1447.4 1533.45,1447.39 1536.08,1447.4 1538.7,1447.42 1541.33,1447.45 1543.95,1447.5 1546.57,1447.56 1549.2,1447.64 1551.82,1447.75 
  1554.45,1447.87 1557.07,1447.72 1559.69,1447.55 1562.32,1447.35 1564.94,1447.13 1567.57,1446.88 1570.19,1446.61 1572.81,1446.32 1575.44,1446.01 1578.06,1445.69 
  1580.69,1445.35 1583.31,1445.02 1585.93,1444.69 1588.56,1444.37 1591.18,1444.08 1593.81,1443.83 1596.43,1443.64 1599.06,1443.52 1601.68,1443.48 1604.3,1443.57 
  1606.93,1443.78 1609.55,1444.16 1612.18,1444.73 1614.8,1445.52 1617.42,1446.56 1620.05,1447.87 1622.67,1446.24 1625.3,1444.27 1627.92,1441.92 1630.54,1439.18 
  1633.17,1436.01 1635.79,1432.41 1638.42,1428.36 1641.04,1423.88 1643.66,1418.98 1646.29,1413.69 1648.91,1408.08 1651.54,1402.24 1654.16,1396.29 1656.78,1390.4 
  1659.41,1384.76 1662.03,1379.66 1664.66,1375.44 1667.28,1372.51 1669.91,1371.39 1672.53,1372.71 1675.15,1377.21 1677.78,1385.81 1680.4,1399.56 1683.03,1419.75 
  1685.65,1447.87 1688.27,1410.07 1690.9,1360.54 1693.52,1296.9 1696.15,1216.39 1698.77,1115.8 1701.39,991.464 1704.02,839.134 1706.64,653.957 1709.27,430.376 
  1711.89,162.047 
  "/>
<path clip-path="url(#clip700)" d="
M1821.04 272.585 L2352.76 272.585 L2352.76 168.905 L1821.04 168.905  Z
  " fill="#ffffff" fill-rule="evenodd" fill-opacity="1"/>
<polyline clip-path="url(#clip700)" style="stroke:#000000; stroke-linecap:butt; stroke-linejoin:round; stroke-width:4; stroke-opacity:1; fill:none" points="
  1821.04,272.585 2352.76,272.585 2352.76,168.905 1821.04,168.905 1821.04,272.585 
  "/>
<polyline clip-path="url(#clip700)" style="stroke:#009af9; stroke-linecap:butt; stroke-linejoin:round; stroke-width:4; stroke-opacity:1; fill:none" points="
  1843.77,220.745 1980.2,220.745 
  "/>
<path clip-path="url(#clip700)" d="M2018.12 216.08 Q2017.4 215.664 2016.54 215.478 Q2015.71 215.27 2014.69 215.27 Q2011.08 215.27 2009.14 217.631 Q2007.21 219.969 2007.21 224.367 L2007.21 238.025 L2002.93 238.025 L2002.93 212.099 L2007.21 212.099 L2007.21 216.127 Q2008.56 213.766 2010.71 212.631 Q2012.86 211.474 2015.94 211.474 Q2016.38 211.474 2016.91 211.543 Q2017.45 211.59 2018.09 211.705 L2018.12 216.08 Z" fill="#000000" fill-rule="evenodd" fill-opacity="1" /><path clip-path="url(#clip700)" d="M2043.72 223.997 L2043.72 226.08 L2024.14 226.08 Q2024.41 230.478 2026.77 232.793 Q2029.16 235.085 2033.39 235.085 Q2035.85 235.085 2038.14 234.483 Q2040.45 233.881 2042.72 232.677 L2042.72 236.705 Q2040.43 237.677 2038.02 238.187 Q2035.62 238.696 2033.14 238.696 Q2026.94 238.696 2023.3 235.085 Q2019.69 231.474 2019.69 225.316 Q2019.69 218.951 2023.12 215.224 Q2026.57 211.474 2032.4 211.474 Q2037.63 211.474 2040.66 214.853 Q2043.72 218.21 2043.72 223.997 M2039.46 222.747 Q2039.41 219.252 2037.49 217.168 Q2035.59 215.085 2032.45 215.085 Q2028.88 215.085 2026.73 217.099 Q2024.6 219.113 2024.27 222.77 L2039.46 222.747 Z" fill="#000000" fill-rule="evenodd" fill-opacity="1" /><path clip-path="url(#clip700)" d="M2050.71 202.006 L2054.97 202.006 L2054.97 238.025 L2050.71 238.025 L2050.71 202.006 Z" fill="#000000" fill-rule="evenodd" fill-opacity="1" /><path clip-path="url(#clip700)" d="M2075.66 224.992 Q2070.5 224.992 2068.51 226.173 Q2066.52 227.353 2066.52 230.201 Q2066.52 232.469 2068 233.812 Q2069.51 235.131 2072.08 235.131 Q2075.62 235.131 2077.75 232.631 Q2079.9 230.108 2079.9 225.941 L2079.9 224.992 L2075.66 224.992 M2084.16 223.233 L2084.16 238.025 L2079.9 238.025 L2079.9 234.089 Q2078.44 236.451 2076.26 237.585 Q2074.09 238.696 2070.94 238.696 Q2066.96 238.696 2064.6 236.474 Q2062.26 234.228 2062.26 230.478 Q2062.26 226.103 2065.18 223.881 Q2068.12 221.659 2073.93 221.659 L2079.9 221.659 L2079.9 221.242 Q2079.9 218.303 2077.95 216.705 Q2076.03 215.085 2072.54 215.085 Q2070.32 215.085 2068.21 215.617 Q2066.1 216.15 2064.16 217.215 L2064.16 213.279 Q2066.5 212.377 2068.7 211.937 Q2070.89 211.474 2072.98 211.474 Q2078.6 211.474 2081.38 214.391 Q2084.16 217.307 2084.16 223.233 Z" fill="#000000" fill-rule="evenodd" fill-opacity="1" /><path clip-path="url(#clip700)" d="M2097.14 204.738 L2097.14 212.099 L2105.92 212.099 L2105.92 215.409 L2097.14 215.409 L2097.14 229.483 Q2097.14 232.654 2098 233.557 Q2098.88 234.46 2101.54 234.46 L2105.92 234.46 L2105.92 238.025 L2101.54 238.025 Q2096.61 238.025 2094.74 236.196 Q2092.86 234.344 2092.86 229.483 L2092.86 215.409 L2089.74 215.409 L2089.74 212.099 L2092.86 212.099 L2092.86 204.738 L2097.14 204.738 Z" fill="#000000" fill-rule="evenodd" fill-opacity="1" /><path clip-path="url(#clip700)" d="M2111.52 212.099 L2115.78 212.099 L2115.78 238.025 L2111.52 238.025 L2111.52 212.099 M2111.52 202.006 L2115.78 202.006 L2115.78 207.4 L2111.52 207.4 L2111.52 202.006 Z" fill="#000000" fill-rule="evenodd" fill-opacity="1" /><path clip-path="url(#clip700)" d="M2121.63 212.099 L2126.15 212.099 L2134.25 233.858 L2142.35 212.099 L2146.87 212.099 L2137.14 238.025 L2131.36 238.025 L2121.63 212.099 Z" fill="#000000" fill-rule="evenodd" fill-opacity="1" /><path clip-path="url(#clip700)" d="M2174.92 223.997 L2174.92 226.08 L2155.34 226.08 Q2155.62 230.478 2157.98 232.793 Q2160.36 235.085 2164.6 235.085 Q2167.05 235.085 2169.34 234.483 Q2171.66 233.881 2173.93 232.677 L2173.93 236.705 Q2171.63 237.677 2169.23 238.187 Q2166.82 238.696 2164.34 238.696 Q2158.14 238.696 2154.51 235.085 Q2150.89 231.474 2150.89 225.316 Q2150.89 218.951 2154.32 215.224 Q2157.77 211.474 2163.6 211.474 Q2168.83 211.474 2171.87 214.853 Q2174.92 218.21 2174.92 223.997 M2170.66 222.747 Q2170.62 219.252 2168.69 217.168 Q2166.8 215.085 2163.65 215.085 Q2160.08 215.085 2157.93 217.099 Q2155.8 219.113 2155.48 222.77 L2170.66 222.747 Z" fill="#000000" fill-rule="evenodd" fill-opacity="1" /><path clip-path="url(#clip700)" d="M2219.16 223.997 L2219.16 226.08 L2199.57 226.08 Q2199.85 230.478 2202.21 232.793 Q2204.6 235.085 2208.83 235.085 Q2211.29 235.085 2213.58 234.483 Q2215.89 233.881 2218.16 232.677 L2218.16 236.705 Q2215.87 237.677 2213.46 238.187 Q2211.06 238.696 2208.58 238.696 Q2202.38 238.696 2198.74 235.085 Q2195.13 231.474 2195.13 225.316 Q2195.13 218.951 2198.56 215.224 Q2202 211.474 2207.84 211.474 Q2213.07 211.474 2216.1 214.853 Q2219.16 218.21 2219.16 223.997 M2214.9 222.747 Q2214.85 219.252 2212.93 217.168 Q2211.03 215.085 2207.88 215.085 Q2204.32 215.085 2202.17 217.099 Q2200.04 219.113 2199.71 222.77 L2214.9 222.747 Z" fill="#000000" fill-rule="evenodd" fill-opacity="1" /><path clip-path="url(#clip700)" d="M2241.17 216.08 Q2240.45 215.664 2239.6 215.478 Q2238.76 215.27 2237.75 215.27 Q2234.13 215.27 2232.19 217.631 Q2230.27 219.969 2230.27 224.367 L2230.27 238.025 L2225.99 238.025 L2225.99 212.099 L2230.27 212.099 L2230.27 216.127 Q2231.61 213.766 2233.76 212.631 Q2235.92 211.474 2239 211.474 Q2239.44 211.474 2239.97 211.543 Q2240.5 211.59 2241.15 211.705 L2241.17 216.08 Z" fill="#000000" fill-rule="evenodd" fill-opacity="1" /><path clip-path="url(#clip700)" d="M2259.83 216.08 Q2259.11 215.664 2258.25 215.478 Q2257.42 215.27 2256.4 215.27 Q2252.79 215.27 2250.85 217.631 Q2248.93 219.969 2248.93 224.367 L2248.93 238.025 L2244.64 238.025 L2244.64 212.099 L2248.93 212.099 L2248.93 216.127 Q2250.27 213.766 2252.42 212.631 Q2254.57 211.474 2257.65 211.474 Q2258.09 211.474 2258.62 211.543 Q2259.16 211.59 2259.81 211.705 L2259.83 216.08 Z" fill="#000000" fill-rule="evenodd" fill-opacity="1" /><path clip-path="url(#clip700)" d="M2273.3 215.085 Q2269.87 215.085 2267.88 217.77 Q2265.89 220.432 2265.89 225.085 Q2265.89 229.738 2267.86 232.423 Q2269.85 235.085 2273.3 235.085 Q2276.7 235.085 2278.69 232.4 Q2280.69 229.715 2280.69 225.085 Q2280.69 220.478 2278.69 217.793 Q2276.7 215.085 2273.3 215.085 M2273.3 211.474 Q2278.86 211.474 2282.03 215.085 Q2285.2 218.696 2285.2 225.085 Q2285.2 231.451 2282.03 235.085 Q2278.86 238.696 2273.3 238.696 Q2267.72 238.696 2264.55 235.085 Q2261.4 231.451 2261.4 225.085 Q2261.4 218.696 2264.55 215.085 Q2267.72 211.474 2273.3 211.474 Z" fill="#000000" fill-rule="evenodd" fill-opacity="1" /><path clip-path="url(#clip700)" d="M2307.28 216.08 Q2306.56 215.664 2305.71 215.478 Q2304.87 215.27 2303.86 215.27 Q2300.25 215.27 2298.3 217.631 Q2296.38 219.969 2296.38 224.367 L2296.38 238.025 L2292.1 238.025 L2292.1 212.099 L2296.38 212.099 L2296.38 216.127 Q2297.72 213.766 2299.87 212.631 Q2302.03 211.474 2305.11 211.474 Q2305.55 211.474 2306.08 211.543 Q2306.61 211.59 2307.26 211.705 L2307.28 216.08 Z" fill="#000000" fill-rule="evenodd" fill-opacity="1" /></svg>
