<?xml version="1.0" encoding="utf-8"?>
<svg xmlns="http://www.w3.org/2000/svg" xmlns:xlink="http://www.w3.org/1999/xlink" width="600" height="400" viewBox="0 0 2400 1600">
<defs>
  <clipPath id="clip470">
    <rect x="0" y="0" width="2400" height="1600"/>
  </clipPath>
</defs>
<path clip-path="url(#clip470)" d="
M0 1600 L2400 1600 L2400 0 L0 0  Z
  " fill="#ffffff" fill-rule="evenodd" fill-opacity="1"/>
<defs>
  <clipPath id="clip471">
    <rect x="480" y="0" width="1681" height="1600"/>
  </clipPath>
</defs>
<path clip-path="url(#clip470)" d="
M147.478 1486.45 L1866.95 1486.45 L1866.95 123.472 L147.478 123.472  Z
  " fill="#ffffff" fill-rule="evenodd" fill-opacity="1"/>
<defs>
  <clipPath id="clip472">
    <rect x="147" y="123" width="1720" height="1364"/>
  </clipPath>
</defs>
<polyline clip-path="url(#clip472)" style="stroke:#000000; stroke-linecap:butt; stroke-linejoin:round; stroke-width:2; stroke-opacity:0.1; fill:none" points="
  383.312,1486.45 383.312,123.472 
  "/>
<polyline clip-path="url(#clip472)" style="stroke:#000000; stroke-linecap:butt; stroke-linejoin:round; stroke-width:2; stroke-opacity:0.1; fill:none" points="
  695.263,1486.45 695.263,123.472 
  "/>
<polyline clip-path="url(#clip472)" style="stroke:#000000; stroke-linecap:butt; stroke-linejoin:round; stroke-width:2; stroke-opacity:0.1; fill:none" points="
  1007.21,1486.45 1007.21,123.472 
  "/>
<polyline clip-path="url(#clip472)" style="stroke:#000000; stroke-linecap:butt; stroke-linejoin:round; stroke-width:2; stroke-opacity:0.1; fill:none" points="
  1319.16,1486.45 1319.16,123.472 
  "/>
<polyline clip-path="url(#clip472)" style="stroke:#000000; stroke-linecap:butt; stroke-linejoin:round; stroke-width:2; stroke-opacity:0.1; fill:none" points="
  1631.11,1486.45 1631.11,123.472 
  "/>
<polyline clip-path="url(#clip470)" style="stroke:#000000; stroke-linecap:butt; stroke-linejoin:round; stroke-width:4; stroke-opacity:1; fill:none" points="
  147.478,1486.45 1866.95,1486.45 
  "/>
<polyline clip-path="url(#clip470)" style="stroke:#000000; stroke-linecap:butt; stroke-linejoin:round; stroke-width:4; stroke-opacity:1; fill:none" points="
  383.312,1486.45 383.312,1467.55 
  "/>
<polyline clip-path="url(#clip470)" style="stroke:#000000; stroke-linecap:butt; stroke-linejoin:round; stroke-width:4; stroke-opacity:1; fill:none" points="
  695.263,1486.45 695.263,1467.55 
  "/>
<polyline clip-path="url(#clip470)" style="stroke:#000000; stroke-linecap:butt; stroke-linejoin:round; stroke-width:4; stroke-opacity:1; fill:none" points="
  1007.21,1486.45 1007.21,1467.55 
  "/>
<polyline clip-path="url(#clip470)" style="stroke:#000000; stroke-linecap:butt; stroke-linejoin:round; stroke-width:4; stroke-opacity:1; fill:none" points="
  1319.16,1486.45 1319.16,1467.55 
  "/>
<polyline clip-path="url(#clip470)" style="stroke:#000000; stroke-linecap:butt; stroke-linejoin:round; stroke-width:4; stroke-opacity:1; fill:none" points="
  1631.11,1486.45 1631.11,1467.55 
  "/>
<path clip-path="url(#clip470)" d="M352.213 1532.02 L381.889 1532.02 L381.889 1535.95 L352.213 1535.95 L352.213 1532.02 Z" fill="#000000" fill-rule="evenodd" fill-opacity="1" /><path clip-path="url(#clip470)" d="M404.828 1518.36 L393.023 1536.81 L404.828 1536.81 L404.828 1518.36 M403.602 1514.29 L409.481 1514.29 L409.481 1536.81 L414.412 1536.81 L414.412 1540.7 L409.481 1540.7 L409.481 1548.85 L404.828 1548.85 L404.828 1540.7 L389.227 1540.7 L389.227 1536.19 L403.602 1514.29 Z" fill="#000000" fill-rule="evenodd" fill-opacity="1" /><path clip-path="url(#clip470)" d="M665.205 1532.02 L694.881 1532.02 L694.881 1535.95 L665.205 1535.95 L665.205 1532.02 Z" fill="#000000" fill-rule="evenodd" fill-opacity="1" /><path clip-path="url(#clip470)" d="M709.001 1544.91 L725.32 1544.91 L725.32 1548.85 L703.376 1548.85 L703.376 1544.91 Q706.038 1542.16 710.621 1537.53 Q715.228 1532.88 716.408 1531.53 Q718.654 1529.01 719.533 1527.27 Q720.436 1525.51 720.436 1523.82 Q720.436 1521.07 718.492 1519.33 Q716.57 1517.6 713.469 1517.6 Q711.27 1517.6 708.816 1518.36 Q706.385 1519.13 703.608 1520.68 L703.608 1515.95 Q706.432 1514.82 708.885 1514.24 Q711.339 1513.66 713.376 1513.66 Q718.746 1513.66 721.941 1516.35 Q725.135 1519.03 725.135 1523.52 Q725.135 1525.65 724.325 1527.57 Q723.538 1529.47 721.432 1532.07 Q720.853 1532.74 717.751 1535.95 Q714.649 1539.15 709.001 1544.91 Z" fill="#000000" fill-rule="evenodd" fill-opacity="1" /><path clip-path="url(#clip470)" d="M1007.21 1517.37 Q1003.6 1517.37 1001.77 1520.93 Q999.968 1524.47 999.968 1531.6 Q999.968 1538.71 1001.77 1542.27 Q1003.6 1545.82 1007.21 1545.82 Q1010.85 1545.82 1012.65 1542.27 Q1014.48 1538.71 1014.48 1531.6 Q1014.48 1524.47 1012.65 1520.93 Q1010.85 1517.37 1007.21 1517.37 M1007.21 1513.66 Q1013.02 1513.66 1016.08 1518.27 Q1019.16 1522.85 1019.16 1531.6 Q1019.16 1540.33 1016.08 1544.94 Q1013.02 1549.52 1007.21 1549.52 Q1001.4 1549.52 998.324 1544.94 Q995.269 1540.33 995.269 1531.6 Q995.269 1522.85 998.324 1518.27 Q1001.4 1513.66 1007.21 1513.66 Z" fill="#000000" fill-rule="evenodd" fill-opacity="1" /><path clip-path="url(#clip470)" d="M1313.82 1544.91 L1330.14 1544.91 L1330.14 1548.85 L1308.19 1548.85 L1308.19 1544.91 Q1310.85 1542.16 1315.44 1537.53 Q1320.04 1532.88 1321.22 1531.53 Q1323.47 1529.01 1324.35 1527.27 Q1325.25 1525.51 1325.25 1523.82 Q1325.25 1521.07 1323.31 1519.33 Q1321.39 1517.6 1318.28 1517.6 Q1316.08 1517.6 1313.63 1518.36 Q1311.2 1519.13 1308.42 1520.68 L1308.42 1515.95 Q1311.25 1514.82 1313.7 1514.24 Q1316.15 1513.66 1318.19 1513.66 Q1323.56 1513.66 1326.76 1516.35 Q1329.95 1519.03 1329.95 1523.52 Q1329.95 1525.65 1329.14 1527.57 Q1328.35 1529.47 1326.25 1532.07 Q1325.67 1532.74 1322.57 1535.95 Q1319.46 1539.15 1313.82 1544.91 Z" fill="#000000" fill-rule="evenodd" fill-opacity="1" /><path clip-path="url(#clip470)" d="M1634.12 1518.36 L1622.32 1536.81 L1634.12 1536.81 L1634.12 1518.36 M1632.9 1514.29 L1638.78 1514.29 L1638.78 1536.81 L1643.71 1536.81 L1643.71 1540.7 L1638.78 1540.7 L1638.78 1548.85 L1634.12 1548.85 L1634.12 1540.7 L1618.52 1540.7 L1618.52 1536.19 L1632.9 1514.29 Z" fill="#000000" fill-rule="evenodd" fill-opacity="1" /><polyline clip-path="url(#clip472)" style="stroke:#000000; stroke-linecap:butt; stroke-linejoin:round; stroke-width:2; stroke-opacity:0.1; fill:none" points="
  147.478,1447.87 1866.95,1447.87 
  "/>
<polyline clip-path="url(#clip472)" style="stroke:#000000; stroke-linecap:butt; stroke-linejoin:round; stroke-width:2; stroke-opacity:0.1; fill:none" points="
  147.478,1019.26 1866.95,1019.26 
  "/>
<polyline clip-path="url(#clip472)" style="stroke:#000000; stroke-linecap:butt; stroke-linejoin:round; stroke-width:2; stroke-opacity:0.1; fill:none" points="
  147.478,590.656 1866.95,590.656 
  "/>
<polyline clip-path="url(#clip472)" style="stroke:#000000; stroke-linecap:butt; stroke-linejoin:round; stroke-width:2; stroke-opacity:0.1; fill:none" points="
  147.478,162.047 1866.95,162.047 
  "/>
<polyline clip-path="url(#clip470)" style="stroke:#000000; stroke-linecap:butt; stroke-linejoin:round; stroke-width:4; stroke-opacity:1; fill:none" points="
  147.478,1486.45 147.478,123.472 
  "/>
<polyline clip-path="url(#clip470)" style="stroke:#000000; stroke-linecap:butt; stroke-linejoin:round; stroke-width:4; stroke-opacity:1; fill:none" points="
  147.478,1447.87 162.213,1447.87 
  "/>
<polyline clip-path="url(#clip470)" style="stroke:#000000; stroke-linecap:butt; stroke-linejoin:round; stroke-width:4; stroke-opacity:1; fill:none" points="
  147.478,1019.26 162.213,1019.26 
  "/>
<polyline clip-path="url(#clip470)" style="stroke:#000000; stroke-linecap:butt; stroke-linejoin:round; stroke-width:4; stroke-opacity:1; fill:none" points="
  147.478,590.656 162.213,590.656 
  "/>
<polyline clip-path="url(#clip470)" style="stroke:#000000; stroke-linecap:butt; stroke-linejoin:round; stroke-width:4; stroke-opacity:1; fill:none" points="
  147.478,162.047 162.213,162.047 
  "/>
<path clip-path="url(#clip470)" d="M50.9921 1448.32 L80.6679 1448.32 L80.6679 1452.26 L50.9921 1452.26 L50.9921 1448.32 Z" fill="#000000" fill-rule="evenodd" fill-opacity="1" /><path clip-path="url(#clip470)" d="M91.5706 1461.22 L99.2095 1461.22 L99.2095 1434.85 L90.8993 1436.52 L90.8993 1432.26 L99.1632 1430.59 L103.839 1430.59 L103.839 1461.22 L111.478 1461.22 L111.478 1465.15 L91.5706 1465.15 L91.5706 1461.22 Z" fill="#000000" fill-rule="evenodd" fill-opacity="1" /><path clip-path="url(#clip470)" d="M99.5335 1005.06 Q95.9224 1005.06 94.0937 1008.63 Q92.2882 1012.17 92.2882 1019.3 Q92.2882 1026.41 94.0937 1029.97 Q95.9224 1033.51 99.5335 1033.51 Q103.168 1033.51 104.973 1029.97 Q106.802 1026.41 106.802 1019.3 Q106.802 1012.17 104.973 1008.63 Q103.168 1005.06 99.5335 1005.06 M99.5335 1001.36 Q105.344 1001.36 108.399 1005.97 Q111.478 1010.55 111.478 1019.3 Q111.478 1028.03 108.399 1032.63 Q105.344 1037.22 99.5335 1037.22 Q93.7234 1037.22 90.6447 1032.63 Q87.5892 1028.03 87.5892 1019.3 Q87.5892 1010.55 90.6447 1005.97 Q93.7234 1001.36 99.5335 1001.36 Z" fill="#000000" fill-rule="evenodd" fill-opacity="1" /><path clip-path="url(#clip470)" d="M91.5706 604 L99.2095 604 L99.2095 577.635 L90.8993 579.302 L90.8993 575.042 L99.1632 573.376 L103.839 573.376 L103.839 604 L111.478 604 L111.478 607.936 L91.5706 607.936 L91.5706 604 Z" fill="#000000" fill-rule="evenodd" fill-opacity="1" /><path clip-path="url(#clip470)" d="M95.1586 175.392 L111.478 175.392 L111.478 179.327 L89.5336 179.327 L89.5336 175.392 Q92.1956 172.637 96.7789 168.008 Q101.385 163.355 102.566 162.012 Q104.811 159.489 105.691 157.753 Q106.594 155.994 106.594 154.304 Q106.594 151.549 104.649 149.813 Q102.728 148.077 99.6261 148.077 Q97.4271 148.077 94.9734 148.841 Q92.5428 149.605 89.7651 151.156 L89.7651 146.434 Q92.5891 145.299 95.0428 144.721 Q97.4965 144.142 99.5335 144.142 Q104.904 144.142 108.098 146.827 Q111.293 149.512 111.293 154.003 Q111.293 156.133 110.483 158.054 Q109.696 159.952 107.589 162.545 Q107.01 163.216 103.909 166.433 Q100.807 169.628 95.1586 175.392 Z" fill="#000000" fill-rule="evenodd" fill-opacity="1" /><path clip-path="url(#clip470)" d="M282.425 18.8205 L282.425 41.5461 L292.715 41.5461 Q298.426 41.5461 301.546 38.5889 Q304.665 35.6318 304.665 30.163 Q304.665 24.7348 301.546 21.7777 Q298.426 18.8205 292.715 18.8205 L282.425 18.8205 M274.242 12.096 L292.715 12.096 Q302.882 12.096 308.067 16.714 Q313.293 21.2916 313.293 30.163 Q313.293 39.1155 308.067 43.6931 Q302.882 48.2706 292.715 48.2706 L282.425 48.2706 L282.425 72.576 L274.242 72.576 L274.242 12.096 Z" fill="#000000" fill-rule="evenodd" fill-opacity="1" /><path clip-path="url(#clip470)" d="M348.779 34.1734 Q347.523 33.4443 346.024 33.1202 Q344.566 32.7556 342.784 32.7556 Q336.464 32.7556 333.062 36.8875 Q329.699 40.9789 329.699 48.6757 L329.699 72.576 L322.205 72.576 L322.205 27.2059 L329.699 27.2059 L329.699 34.2544 Q332.049 30.1225 335.816 28.1376 Q339.583 26.1121 344.971 26.1121 Q345.741 26.1121 346.673 26.2337 Q347.604 26.3147 348.739 26.5172 L348.779 34.1734 Z" fill="#000000" fill-rule="evenodd" fill-opacity="1" /><path clip-path="url(#clip470)" d="M372.355 32.4315 Q366.36 32.4315 362.876 37.1306 Q359.392 41.7891 359.392 49.9314 Q359.392 58.0738 362.836 62.7728 Q366.319 67.4314 372.355 67.4314 Q378.31 67.4314 381.794 62.7323 Q385.278 58.0333 385.278 49.9314 Q385.278 41.8701 381.794 37.1711 Q378.31 32.4315 372.355 32.4315 M372.355 26.1121 Q382.077 26.1121 387.627 32.4315 Q393.177 38.7509 393.177 49.9314 Q393.177 61.0714 387.627 67.4314 Q382.077 73.7508 372.355 73.7508 Q362.593 73.7508 357.043 67.4314 Q351.534 61.0714 351.534 49.9314 Q351.534 38.7509 357.043 32.4315 Q362.593 26.1121 372.355 26.1121 Z" fill="#000000" fill-rule="evenodd" fill-opacity="1" /><path clip-path="url(#clip470)" d="M438.101 49.9314 Q438.101 41.7081 434.699 37.0496 Q431.336 32.3505 425.422 32.3505 Q419.508 32.3505 416.105 37.0496 Q412.743 41.7081 412.743 49.9314 Q412.743 58.1548 416.105 62.8538 Q419.508 67.5124 425.422 67.5124 Q431.336 67.5124 434.699 62.8538 Q438.101 58.1548 438.101 49.9314 M412.743 34.0924 Q415.092 30.0415 418.657 28.0971 Q422.262 26.1121 427.245 26.1121 Q435.509 26.1121 440.654 32.6746 Q445.839 39.2371 445.839 49.9314 Q445.839 60.6258 440.654 67.1883 Q435.509 73.7508 427.245 73.7508 Q422.262 73.7508 418.657 71.8063 Q415.092 69.8214 412.743 65.7705 L412.743 72.576 L405.249 72.576 L405.249 9.54393 L412.743 9.54393 L412.743 34.0924 Z" fill="#000000" fill-rule="evenodd" fill-opacity="1" /><path clip-path="url(#clip470)" d="M458.194 9.54393 L465.648 9.54393 L465.648 72.576 L458.194 72.576 L458.194 9.54393 Z" fill="#000000" fill-rule="evenodd" fill-opacity="1" /><path clip-path="url(#clip470)" d="M520.051 48.0275 L520.051 51.6733 L485.781 51.6733 Q486.267 59.3701 490.399 63.421 Q494.571 67.4314 501.984 67.4314 Q506.278 67.4314 510.289 66.3781 Q514.34 65.3249 518.309 63.2184 L518.309 70.267 Q514.299 71.9684 510.086 72.8596 Q505.873 73.7508 501.539 73.7508 Q490.682 73.7508 484.322 67.4314 Q478.003 61.1119 478.003 50.3365 Q478.003 39.1965 483.998 32.6746 Q490.034 26.1121 500.242 26.1121 Q509.397 26.1121 514.704 32.0264 Q520.051 37.9003 520.051 48.0275 M512.598 45.84 Q512.517 39.7232 509.154 36.0774 Q505.833 32.4315 500.323 32.4315 Q494.085 32.4315 490.318 35.9558 Q486.591 39.4801 486.024 45.8805 L512.598 45.84 Z" fill="#000000" fill-rule="evenodd" fill-opacity="1" /><path clip-path="url(#clip470)" d="M567.609 35.9153 Q570.404 30.8922 574.293 28.5022 Q578.182 26.1121 583.448 26.1121 Q590.537 26.1121 594.385 31.0947 Q598.234 36.0368 598.234 45.1919 L598.234 72.576 L590.74 72.576 L590.74 45.4349 Q590.74 38.913 588.431 35.7533 Q586.122 32.5936 581.382 32.5936 Q575.589 32.5936 572.227 36.4419 Q568.865 40.2903 568.865 46.9338 L568.865 72.576 L561.371 72.576 L561.371 45.4349 Q561.371 38.8725 559.061 35.7533 Q556.752 32.5936 551.932 32.5936 Q546.22 32.5936 542.858 36.4824 Q539.496 40.3308 539.496 46.9338 L539.496 72.576 L532.001 72.576 L532.001 27.2059 L539.496 27.2059 L539.496 34.2544 Q542.048 30.082 545.612 28.0971 Q549.177 26.1121 554.079 26.1121 Q559.021 26.1121 562.464 28.6237 Q565.948 31.1352 567.609 35.9153 Z" fill="#000000" fill-rule="evenodd" fill-opacity="1" /><path clip-path="url(#clip470)" d="M641.943 65.6895 L655.311 65.6895 L655.311 19.5497 L640.768 22.4663 L640.768 15.0127 L655.23 12.096 L663.413 12.096 L663.413 65.6895 L676.781 65.6895 L676.781 72.576 L641.943 72.576 L641.943 65.6895 Z" fill="#000000" fill-rule="evenodd" fill-opacity="1" /><path clip-path="url(#clip470)" d="M693.308 62.2867 L701.856 62.2867 L701.856 72.576 L693.308 72.576 L693.308 62.2867 Z" fill="#000000" fill-rule="evenodd" fill-opacity="1" /><path clip-path="url(#clip470)" d="M721.098 65.6895 L734.466 65.6895 L734.466 19.5497 L719.923 22.4663 L719.923 15.0127 L734.385 12.096 L742.567 12.096 L742.567 65.6895 L755.935 65.6895 L755.935 72.576 L721.098 72.576 L721.098 65.6895 Z" fill="#000000" fill-rule="evenodd" fill-opacity="1" /><path clip-path="url(#clip470)" d="M826.624 65.6895 L839.992 65.6895 L839.992 19.5497 L825.449 22.4663 L825.449 15.0127 L839.911 12.096 L848.094 12.096 L848.094 65.6895 L861.461 65.6895 L861.461 72.576 L826.624 72.576 L826.624 65.6895 Z" fill="#000000" fill-rule="evenodd" fill-opacity="1" /><path clip-path="url(#clip470)" d="M895.489 17.4837 Q889.17 17.4837 885.969 23.7221 Q882.81 29.92 882.81 42.3968 Q882.81 54.833 885.969 61.0714 Q889.17 67.2693 895.489 67.2693 Q901.849 67.2693 905.009 61.0714 Q908.209 54.833 908.209 42.3968 Q908.209 29.92 905.009 23.7221 Q901.849 17.4837 895.489 17.4837 M895.489 11.0023 Q905.657 11.0023 911.004 19.0636 Q916.392 27.0843 916.392 42.3968 Q916.392 57.6687 911.004 65.73 Q905.657 73.7508 895.489 73.7508 Q885.321 73.7508 879.934 65.73 Q874.586 57.6687 874.586 42.3968 Q874.586 27.0843 879.934 19.0636 Q885.321 11.0023 895.489 11.0023 Z" fill="#000000" fill-rule="evenodd" fill-opacity="1" /><path clip-path="url(#clip470)" d="M925.952 46.5287 L947.786 46.5287 L947.786 53.1722 L925.952 53.1722 L925.952 46.5287 Z" fill="#000000" fill-rule="evenodd" fill-opacity="1" /><path clip-path="url(#clip470)" d="M986.837 17.6457 Q977.925 17.6457 972.659 24.2892 Q967.433 30.9327 967.433 42.3968 Q967.433 53.8203 972.659 60.4638 Q977.925 67.1073 986.837 67.1073 Q995.749 67.1073 1000.93 60.4638 Q1006.16 53.8203 1006.16 42.3968 Q1006.16 30.9327 1000.93 24.2892 Q995.749 17.6457 986.837 17.6457 M986.837 11.0023 Q999.557 11.0023 1007.17 19.5497 Q1014.79 28.0566 1014.79 42.3968 Q1014.79 56.6965 1007.17 65.2439 Q999.557 73.7508 986.837 73.7508 Q974.077 73.7508 966.42 65.2439 Q958.805 56.737 958.805 42.3968 Q958.805 28.0566 966.42 19.5497 Q974.077 11.0023 986.837 11.0023 Z" fill="#000000" fill-rule="evenodd" fill-opacity="1" /><path clip-path="url(#clip470)" d="M1053.56 34.1734 Q1052.3 33.4443 1050.8 33.1202 Q1049.34 32.7556 1047.56 32.7556 Q1041.24 32.7556 1037.84 36.8875 Q1034.48 40.9789 1034.48 48.6757 L1034.48 72.576 L1026.98 72.576 L1026.98 27.2059 L1034.48 27.2059 L1034.48 34.2544 Q1036.83 30.1225 1040.59 28.1376 Q1044.36 26.1121 1049.75 26.1121 Q1050.52 26.1121 1051.45 26.2337 Q1052.38 26.3147 1053.51 26.5172 L1053.56 34.1734 Z" fill="#000000" fill-rule="evenodd" fill-opacity="1" /><path clip-path="url(#clip470)" d="M1089.77 34.0924 L1089.77 9.54393 L1097.22 9.54393 L1097.22 72.576 L1089.77 72.576 L1089.77 65.7705 Q1087.42 69.8214 1083.82 71.8063 Q1080.25 73.7508 1075.23 73.7508 Q1067 73.7508 1061.82 67.1883 Q1056.67 60.6258 1056.67 49.9314 Q1056.67 39.2371 1061.82 32.6746 Q1067 26.1121 1075.23 26.1121 Q1080.25 26.1121 1083.82 28.0971 Q1087.42 30.0415 1089.77 34.0924 M1064.37 49.9314 Q1064.37 58.1548 1067.73 62.8538 Q1071.14 67.5124 1077.05 67.5124 Q1082.96 67.5124 1086.37 62.8538 Q1089.77 58.1548 1089.77 49.9314 Q1089.77 41.7081 1086.37 37.0496 Q1082.96 32.3505 1077.05 32.3505 Q1071.14 32.3505 1067.73 37.0496 Q1064.37 41.7081 1064.37 49.9314 Z" fill="#000000" fill-rule="evenodd" fill-opacity="1" /><path clip-path="url(#clip470)" d="M1151.38 48.0275 L1151.38 51.6733 L1117.11 51.6733 Q1117.6 59.3701 1121.73 63.421 Q1125.9 67.4314 1133.32 67.4314 Q1137.61 67.4314 1141.62 66.3781 Q1145.67 65.3249 1149.64 63.2184 L1149.64 70.267 Q1145.63 71.9684 1141.42 72.8596 Q1137.21 73.7508 1132.87 73.7508 Q1122.02 73.7508 1115.66 67.4314 Q1109.34 61.1119 1109.34 50.3365 Q1109.34 39.1965 1115.33 32.6746 Q1121.37 26.1121 1131.58 26.1121 Q1140.73 26.1121 1146.04 32.0264 Q1151.38 37.9003 1151.38 48.0275 M1143.93 45.84 Q1143.85 39.7232 1140.49 36.0774 Q1137.17 32.4315 1131.66 32.4315 Q1125.42 32.4315 1121.65 35.9558 Q1117.92 39.4801 1117.36 45.8805 L1143.93 45.84 Z" fill="#000000" fill-rule="evenodd" fill-opacity="1" /><path clip-path="url(#clip470)" d="M1189.91 34.1734 Q1188.65 33.4443 1187.15 33.1202 Q1185.7 32.7556 1183.91 32.7556 Q1177.59 32.7556 1174.19 36.8875 Q1170.83 40.9789 1170.83 48.6757 L1170.83 72.576 L1163.33 72.576 L1163.33 27.2059 L1170.83 27.2059 L1170.83 34.2544 Q1173.18 30.1225 1176.95 28.1376 Q1180.71 26.1121 1186.1 26.1121 Q1186.87 26.1121 1187.8 26.2337 Q1188.73 26.3147 1189.87 26.5172 L1189.91 34.1734 Z" fill="#000000" fill-rule="evenodd" fill-opacity="1" /><path clip-path="url(#clip470)" d="M1224.42 12.096 L1232.61 12.096 L1232.61 72.576 L1224.42 72.576 L1224.42 12.096 Z" fill="#000000" fill-rule="evenodd" fill-opacity="1" /><path clip-path="url(#clip470)" d="M1286.28 45.1919 L1286.28 72.576 L1278.83 72.576 L1278.83 45.4349 Q1278.83 38.994 1276.31 35.7938 Q1273.8 32.5936 1268.78 32.5936 Q1262.74 32.5936 1259.26 36.4419 Q1255.78 40.2903 1255.78 46.9338 L1255.78 72.576 L1248.28 72.576 L1248.28 27.2059 L1255.78 27.2059 L1255.78 34.2544 Q1258.45 30.163 1262.06 28.1376 Q1265.7 26.1121 1270.44 26.1121 Q1278.26 26.1121 1282.27 30.9732 Q1286.28 35.7938 1286.28 45.1919 Z" fill="#000000" fill-rule="evenodd" fill-opacity="1" /><path clip-path="url(#clip470)" d="M1308.52 14.324 L1308.52 27.2059 L1323.87 27.2059 L1323.87 32.9987 L1308.52 32.9987 L1308.52 57.6282 Q1308.52 63.1779 1310.02 64.7578 Q1311.56 66.3376 1316.22 66.3376 L1323.87 66.3376 L1323.87 72.576 L1316.22 72.576 Q1307.59 72.576 1304.31 69.3758 Q1301.03 66.1351 1301.03 57.6282 L1301.03 32.9987 L1295.56 32.9987 L1295.56 27.2059 L1301.03 27.2059 L1301.03 14.324 L1308.52 14.324 Z" fill="#000000" fill-rule="evenodd" fill-opacity="1" /><path clip-path="url(#clip470)" d="M1372.48 48.0275 L1372.48 51.6733 L1338.21 51.6733 Q1338.7 59.3701 1342.83 63.421 Q1347 67.4314 1354.42 67.4314 Q1358.71 67.4314 1362.72 66.3781 Q1366.77 65.3249 1370.74 63.2184 L1370.74 70.267 Q1366.73 71.9684 1362.52 72.8596 Q1358.3 73.7508 1353.97 73.7508 Q1343.11 73.7508 1336.75 67.4314 Q1330.43 61.1119 1330.43 50.3365 Q1330.43 39.1965 1336.43 32.6746 Q1342.47 26.1121 1352.67 26.1121 Q1361.83 26.1121 1367.14 32.0264 Q1372.48 37.9003 1372.48 48.0275 M1365.03 45.84 Q1364.95 39.7232 1361.59 36.0774 Q1358.26 32.4315 1352.76 32.4315 Q1346.52 32.4315 1342.75 35.9558 Q1339.02 39.4801 1338.46 45.8805 L1365.03 45.84 Z" fill="#000000" fill-rule="evenodd" fill-opacity="1" /><path clip-path="url(#clip470)" d="M1411.01 34.1734 Q1409.75 33.4443 1408.25 33.1202 Q1406.79 32.7556 1405.01 32.7556 Q1398.69 32.7556 1395.29 36.8875 Q1391.93 40.9789 1391.93 48.6757 L1391.93 72.576 L1384.43 72.576 L1384.43 27.2059 L1391.93 27.2059 L1391.93 34.2544 Q1394.28 30.1225 1398.04 28.1376 Q1401.81 26.1121 1407.2 26.1121 Q1407.97 26.1121 1408.9 26.2337 Q1409.83 26.3147 1410.97 26.5172 L1411.01 34.1734 Z" fill="#000000" fill-rule="evenodd" fill-opacity="1" /><path clip-path="url(#clip470)" d="M1426.04 65.7705 L1426.04 89.8329 L1418.54 89.8329 L1418.54 27.2059 L1426.04 27.2059 L1426.04 34.0924 Q1428.39 30.0415 1431.95 28.0971 Q1435.56 26.1121 1440.54 26.1121 Q1448.8 26.1121 1453.95 32.6746 Q1459.13 39.2371 1459.13 49.9314 Q1459.13 60.6258 1453.95 67.1883 Q1448.8 73.7508 1440.54 73.7508 Q1435.56 73.7508 1431.95 71.8063 Q1428.39 69.8214 1426.04 65.7705 M1451.39 49.9314 Q1451.39 41.7081 1447.99 37.0496 Q1444.63 32.3505 1438.72 32.3505 Q1432.8 32.3505 1429.4 37.0496 Q1426.04 41.7081 1426.04 49.9314 Q1426.04 58.1548 1429.4 62.8538 Q1432.8 67.5124 1438.72 67.5124 Q1444.63 67.5124 1447.99 62.8538 Q1451.39 58.1548 1451.39 49.9314 Z" fill="#000000" fill-rule="evenodd" fill-opacity="1" /><path clip-path="url(#clip470)" d="M1489.07 32.4315 Q1483.07 32.4315 1479.59 37.1306 Q1476.11 41.7891 1476.11 49.9314 Q1476.11 58.0738 1479.55 62.7728 Q1483.03 67.4314 1489.07 67.4314 Q1495.02 67.4314 1498.51 62.7323 Q1501.99 58.0333 1501.99 49.9314 Q1501.99 41.8701 1498.51 37.1711 Q1495.02 32.4315 1489.07 32.4315 M1489.07 26.1121 Q1498.79 26.1121 1504.34 32.4315 Q1509.89 38.7509 1509.89 49.9314 Q1509.89 61.0714 1504.34 67.4314 Q1498.79 73.7508 1489.07 73.7508 Q1479.31 73.7508 1473.76 67.4314 Q1468.25 61.0714 1468.25 49.9314 Q1468.25 38.7509 1473.76 32.4315 Q1479.31 26.1121 1489.07 26.1121 Z" fill="#000000" fill-rule="evenodd" fill-opacity="1" /><path clip-path="url(#clip470)" d="M1522.24 9.54393 L1529.7 9.54393 L1529.7 72.576 L1522.24 72.576 L1522.24 9.54393 Z" fill="#000000" fill-rule="evenodd" fill-opacity="1" /><path clip-path="url(#clip470)" d="M1565.91 49.7694 Q1556.88 49.7694 1553.4 51.8354 Q1549.91 53.9013 1549.91 58.8839 Q1549.91 62.8538 1552.51 65.2034 Q1555.14 67.5124 1559.63 67.5124 Q1565.83 67.5124 1569.56 63.1374 Q1573.33 58.7219 1573.33 51.4303 L1573.33 49.7694 L1565.91 49.7694 M1580.78 46.6907 L1580.78 72.576 L1573.33 72.576 L1573.33 65.6895 Q1570.77 69.8214 1566.97 71.8063 Q1563.16 73.7508 1557.65 73.7508 Q1550.68 73.7508 1546.55 69.8619 Q1542.46 65.9325 1542.46 59.3701 Q1542.46 51.7138 1547.56 47.825 Q1552.71 43.9361 1562.88 43.9361 L1573.33 43.9361 L1573.33 43.2069 Q1573.33 38.0623 1569.92 35.2672 Q1566.56 32.4315 1560.45 32.4315 Q1556.56 32.4315 1552.87 33.3632 Q1549.18 34.295 1545.78 36.1584 L1545.78 29.2718 Q1549.87 27.692 1553.72 26.9223 Q1557.57 26.1121 1561.21 26.1121 Q1571.06 26.1121 1575.92 31.2163 Q1580.78 36.3204 1580.78 46.6907 Z" fill="#000000" fill-rule="evenodd" fill-opacity="1" /><path clip-path="url(#clip470)" d="M1603.51 14.324 L1603.51 27.2059 L1618.86 27.2059 L1618.86 32.9987 L1603.51 32.9987 L1603.51 57.6282 Q1603.51 63.1779 1605 64.7578 Q1606.54 66.3376 1611.2 66.3376 L1618.86 66.3376 L1618.86 72.576 L1611.2 72.576 Q1602.57 72.576 1599.29 69.3758 Q1596.01 66.1351 1596.01 57.6282 L1596.01 32.9987 L1590.54 32.9987 L1590.54 27.2059 L1596.01 27.2059 L1596.01 14.324 L1603.51 14.324 Z" fill="#000000" fill-rule="evenodd" fill-opacity="1" /><path clip-path="url(#clip470)" d="M1628.66 27.2059 L1636.12 27.2059 L1636.12 72.576 L1628.66 72.576 L1628.66 27.2059 M1628.66 9.54393 L1636.12 9.54393 L1636.12 18.9825 L1628.66 18.9825 L1628.66 9.54393 Z" fill="#000000" fill-rule="evenodd" fill-opacity="1" /><path clip-path="url(#clip470)" d="M1669.29 32.4315 Q1663.3 32.4315 1659.81 37.1306 Q1656.33 41.7891 1656.33 49.9314 Q1656.33 58.0738 1659.77 62.7728 Q1663.26 67.4314 1669.29 67.4314 Q1675.25 67.4314 1678.73 62.7323 Q1682.22 58.0333 1682.22 49.9314 Q1682.22 41.8701 1678.73 37.1711 Q1675.25 32.4315 1669.29 32.4315 M1669.29 26.1121 Q1679.01 26.1121 1684.56 32.4315 Q1690.11 38.7509 1690.11 49.9314 Q1690.11 61.0714 1684.56 67.4314 Q1679.01 73.7508 1669.29 73.7508 Q1659.53 73.7508 1653.98 67.4314 Q1648.47 61.0714 1648.47 49.9314 Q1648.47 38.7509 1653.98 32.4315 Q1659.53 26.1121 1669.29 26.1121 Z" fill="#000000" fill-rule="evenodd" fill-opacity="1" /><path clip-path="url(#clip470)" d="M1740.18 45.1919 L1740.18 72.576 L1732.73 72.576 L1732.73 45.4349 Q1732.73 38.994 1730.22 35.7938 Q1727.71 32.5936 1722.68 32.5936 Q1716.65 32.5936 1713.16 36.4419 Q1709.68 40.2903 1709.68 46.9338 L1709.68 72.576 L1702.19 72.576 L1702.19 27.2059 L1709.68 27.2059 L1709.68 34.2544 Q1712.35 30.163 1715.96 28.1376 Q1719.61 26.1121 1724.34 26.1121 Q1732.16 26.1121 1736.17 30.9732 Q1740.18 35.7938 1740.18 45.1919 Z" fill="#000000" fill-rule="evenodd" fill-opacity="1" /><polyline clip-path="url(#clip472)" style="stroke:#009af9; stroke-linecap:butt; stroke-linejoin:round; stroke-width:4; stroke-opacity:1; fill:none" points="
  196.142,1003.98 199.262,1003.86 202.381,1003.75 205.501,1003.63 208.62,1003.52 211.74,1003.4 214.859,1003.28 217.979,1003.15 221.098,1003.03 224.218,1002.91 
  227.337,1002.78 230.457,1002.65 233.576,1002.52 236.696,1002.39 239.815,1002.26 242.935,1002.13 246.054,1001.99 249.174,1001.86 252.293,1001.72 255.413,1001.58 
  258.532,1001.44 261.652,1001.29 264.771,1001.15 267.891,1001 271.01,1000.85 274.13,1000.7 277.249,1000.55 280.369,1000.4 283.488,1000.24 286.608,1000.08 
  289.727,999.923 292.847,999.761 295.966,999.598 299.086,999.432 302.205,999.264 305.325,999.095 308.444,998.923 311.564,998.749 314.683,998.572 317.803,998.394 
  320.922,998.213 324.042,998.03 327.161,997.844 330.281,997.656 333.4,997.466 336.52,997.273 339.639,997.078 342.759,996.88 345.878,996.679 348.998,996.476 
  352.117,996.27 355.237,996.062 358.356,995.85 361.476,995.636 364.595,995.419 367.715,995.199 370.834,994.976 373.954,994.749 377.073,994.52 380.193,994.288 
  383.312,994.052 386.432,993.813 389.551,993.571 392.671,993.325 395.79,993.076 398.91,992.823 402.029,992.567 405.149,992.307 408.268,992.044 411.388,991.776 
  414.507,991.505 417.627,991.229 420.746,990.95 423.866,990.667 426.985,990.379 430.105,990.087 433.224,989.791 436.344,989.491 439.463,989.186 442.583,988.876 
  445.702,988.562 448.822,988.243 451.941,987.919 455.061,987.59 458.18,987.256 461.3,986.917 464.419,986.572 467.539,986.222 470.658,985.867 473.778,985.506 
  476.897,985.139 480.017,984.767 483.136,984.389 486.256,984.004 489.375,983.614 492.495,983.217 495.614,982.813 498.734,982.403 501.853,981.986 504.973,981.563 
  508.092,981.132 511.212,980.694 514.332,980.249 517.451,979.796 520.571,979.336 523.69,978.868 526.81,978.392 529.929,977.907 533.049,977.415 536.168,976.913 
  539.288,976.403 542.407,975.885 545.527,975.357 548.646,974.819 551.766,974.273 554.885,973.716 558.005,973.15 561.124,972.573 564.244,971.986 567.363,971.388 
  570.483,970.779 573.602,970.159 576.722,969.528 579.841,968.885 582.961,968.23 586.08,967.562 589.2,966.883 592.319,966.19 595.439,965.484 598.558,964.764 
  601.678,964.031 604.797,963.284 607.917,962.522 611.036,961.745 614.156,960.953 617.275,960.146 620.395,959.322 623.514,958.483 626.634,957.626 629.753,956.752 
  632.873,955.861 635.992,954.951 639.112,954.023 642.231,953.076 645.351,952.11 648.47,951.123 651.59,950.116 654.709,949.088 657.829,948.039 660.948,946.967 
  664.068,945.872 667.187,944.755 670.307,943.613 673.426,942.447 676.546,941.256 679.665,940.039 682.785,938.796 685.904,937.525 689.024,936.226 692.143,934.899 
  695.263,933.543 698.382,932.156 701.502,930.738 704.621,929.289 707.741,927.806 710.86,926.291 713.98,924.741 717.099,923.155 720.219,921.533 723.338,919.875 
  726.458,918.177 729.577,916.441 732.697,914.664 735.816,912.846 738.936,910.986 742.055,909.082 745.175,907.134 748.294,905.139 751.414,903.098 754.533,901.008 
  757.653,898.869 760.772,896.679 763.892,894.437 767.011,892.141 770.131,889.791 773.25,887.385 776.37,884.921 779.489,882.399 782.609,879.816 785.728,877.172 
  788.848,874.464 791.967,871.692 795.087,868.854 798.206,865.949 801.326,862.975 804.445,859.93 807.565,856.814 810.684,853.625 813.804,850.361 816.923,847.022 
  820.043,843.605 823.162,840.11 826.282,836.536 829.401,832.88 832.521,829.143 835.64,825.324 838.76,821.421 841.879,817.433 844.999,813.361 848.118,809.203 
  851.238,804.96 854.357,800.631 857.477,796.217 860.596,791.717 863.716,787.132 866.835,782.464 869.955,777.713 873.074,772.881 876.194,767.969 879.313,762.981 
  882.433,757.918 885.552,752.783 888.672,747.58 891.791,742.314 894.911,736.988 898.03,731.607 901.15,726.179 904.269,720.707 907.389,715.2 910.508,709.665 
  913.628,704.111 916.747,698.545 919.867,692.979 922.986,687.421 926.106,681.883 929.225,676.377 932.345,670.915 935.464,665.51 938.584,660.175 941.703,654.925 
  944.823,649.774 947.942,644.737 951.062,639.83 954.181,635.069 957.301,630.468 960.42,626.045 963.54,621.816 966.659,617.795 969.779,613.999 972.898,610.443 
  976.018,607.141 979.137,604.107 982.257,601.354 985.376,598.895 988.496,596.74 991.616,594.899 994.735,593.381 997.855,592.193 1000.97,591.34 1004.09,590.827 
  1007.21,590.656 1010.33,590.827 1013.45,591.34 1016.57,592.193 1019.69,593.381 1022.81,594.899 1025.93,596.74 1029.05,598.895 1032.17,601.354 1035.29,604.107 
  1038.41,607.141 1041.53,610.443 1044.65,613.999 1047.77,617.795 1050.89,621.816 1054.01,626.045 1057.13,630.468 1060.24,635.069 1063.36,639.83 1066.48,644.737 
  1069.6,649.774 1072.72,654.925 1075.84,660.175 1078.96,665.51 1082.08,670.915 1085.2,676.377 1088.32,681.883 1091.44,687.421 1094.56,692.979 1097.68,698.545 
  1100.8,704.111 1103.92,709.665 1107.04,715.2 1110.16,720.707 1113.28,726.179 1116.4,731.607 1119.52,736.988 1122.63,742.314 1125.75,747.58 1128.87,752.783 
  1131.99,757.918 1135.11,762.981 1138.23,767.969 1141.35,772.881 1144.47,777.713 1147.59,782.464 1150.71,787.132 1153.83,791.717 1156.95,796.217 1160.07,800.631 
  1163.19,804.96 1166.31,809.203 1169.43,813.361 1172.55,817.433 1175.67,821.421 1178.79,825.324 1181.91,829.143 1185.02,832.88 1188.14,836.536 1191.26,840.11 
  1194.38,843.605 1197.5,847.022 1200.62,850.361 1203.74,853.625 1206.86,856.814 1209.98,859.93 1213.1,862.975 1216.22,865.949 1219.34,868.854 1222.46,871.692 
  1225.58,874.464 1228.7,877.172 1231.82,879.816 1234.94,882.399 1238.06,884.921 1241.18,887.385 1244.3,889.791 1247.41,892.141 1250.53,894.437 1253.65,896.679 
  1256.77,898.869 1259.89,901.008 1263.01,903.098 1266.13,905.139 1269.25,907.134 1272.37,909.082 1275.49,910.986 1278.61,912.846 1281.73,914.664 1284.85,916.441 
  1287.97,918.177 1291.09,919.875 1294.21,921.533 1297.33,923.155 1300.45,924.741 1303.57,926.291 1306.69,927.806 1309.8,929.289 1312.92,930.738 1316.04,932.156 
  1319.16,933.543 1322.28,934.899 1325.4,936.226 1328.52,937.525 1331.64,938.796 1334.76,940.039 1337.88,941.256 1341,942.447 1344.12,943.613 1347.24,944.755 
  1350.36,945.872 1353.48,946.967 1356.6,948.039 1359.72,949.088 1362.84,950.116 1365.96,951.123 1369.08,952.11 1372.19,953.076 1375.31,954.023 1378.43,954.951 
  1381.55,955.861 1384.67,956.752 1387.79,957.626 1390.91,958.483 1394.03,959.322 1397.15,960.146 1400.27,960.953 1403.39,961.745 1406.51,962.522 1409.63,963.284 
  1412.75,964.031 1415.87,964.764 1418.99,965.484 1422.11,966.19 1425.23,966.883 1428.35,967.562 1431.47,968.23 1434.58,968.885 1437.7,969.528 1440.82,970.159 
  1443.94,970.779 1447.06,971.388 1450.18,971.986 1453.3,972.573 1456.42,973.15 1459.54,973.716 1462.66,974.273 1465.78,974.819 1468.9,975.357 1472.02,975.885 
  1475.14,976.403 1478.26,976.913 1481.38,977.415 1484.5,977.907 1487.62,978.392 1490.74,978.868 1493.86,979.336 1496.98,979.796 1500.09,980.249 1503.21,980.694 
  1506.33,981.132 1509.45,981.563 1512.57,981.986 1515.69,982.403 1518.81,982.813 1521.93,983.217 1525.05,983.614 1528.17,984.004 1531.29,984.389 1534.41,984.767 
  1537.53,985.139 1540.65,985.506 1543.77,985.867 1546.89,986.222 1550.01,986.572 1553.13,986.917 1556.25,987.256 1559.37,987.59 1562.48,987.919 1565.6,988.243 
  1568.72,988.562 1571.84,988.876 1574.96,989.186 1578.08,989.491 1581.2,989.791 1584.32,990.087 1587.44,990.379 1590.56,990.667 1593.68,990.95 1596.8,991.229 
  1599.92,991.505 1603.04,991.776 1606.16,992.044 1609.28,992.307 1612.4,992.567 1615.52,992.823 1618.64,993.076 1621.76,993.325 1624.87,993.571 1627.99,993.813 
  1631.11,994.052 1634.23,994.288 1637.35,994.52 1640.47,994.749 1643.59,994.976 1646.71,995.199 1649.83,995.419 1652.95,995.636 1656.07,995.85 1659.19,996.062 
  1662.31,996.27 1665.43,996.476 1668.55,996.679 1671.67,996.88 1674.79,997.078 1677.91,997.273 1681.03,997.466 1684.15,997.656 1687.26,997.844 1690.38,998.03 
  1693.5,998.213 1696.62,998.394 1699.74,998.572 1702.86,998.749 1705.98,998.923 1709.1,999.095 1712.22,999.264 1715.34,999.432 1718.46,999.598 1721.58,999.761 
  1724.7,999.923 1727.82,1000.08 1730.94,1000.24 1734.06,1000.4 1737.18,1000.55 1740.3,1000.7 1743.42,1000.85 1746.54,1001 1749.65,1001.15 1752.77,1001.29 
  1755.89,1001.44 1759.01,1001.58 1762.13,1001.72 1765.25,1001.86 1768.37,1001.99 1771.49,1002.13 1774.61,1002.26 1777.73,1002.39 1780.85,1002.52 1783.97,1002.65 
  1787.09,1002.78 1790.21,1002.91 1793.33,1003.03 1796.45,1003.15 1799.57,1003.28 1802.69,1003.4 1805.81,1003.52 1808.93,1003.63 1812.04,1003.75 1815.16,1003.86 
  1818.28,1003.98 
  "/>
<polyline clip-path="url(#clip472)" style="stroke:#ee82ee; stroke-linecap:butt; stroke-linejoin:round; stroke-width:4; stroke-opacity:1; fill:none" points="
  196.142,3283.41 199.262,2955.59 202.381,2653.47 205.501,2375.64 208.62,2120.71 211.74,1887.39 214.859,1674.41 217.979,1480.58 221.098,1304.76 224.218,1145.84 
  227.337,1002.78 230.457,874.579 233.576,760.283 236.696,658.983 239.815,569.811 242.935,491.94 246.054,424.584 249.174,366.995 252.293,318.461 255.413,278.306 
  258.532,245.889 261.652,220.6 264.771,201.863 267.891,189.131 271.01,181.886 274.13,179.641 277.249,181.932 280.369,188.324 283.488,198.407 286.608,211.793 
  289.727,228.119 292.847,247.043 295.966,268.245 299.086,291.424 302.205,316.3 305.325,342.611 308.444,370.111 311.564,398.574 314.683,427.787 317.803,457.556 
  320.922,487.698 324.042,518.047 327.161,548.45 330.281,578.764 333.4,608.862 336.52,638.625 339.639,667.948 342.759,696.734 345.878,724.896 348.998,752.359 
  352.117,779.053 355.237,804.919 358.356,829.904 361.476,853.963 364.595,877.059 367.715,899.161 370.834,920.242 373.954,940.284 377.073,959.271 380.193,977.196 
  383.312,994.052 386.432,1009.84 389.551,1024.56 392.671,1038.23 395.79,1050.85 398.91,1062.44 402.029,1073.01 405.149,1082.58 408.268,1091.18 411.388,1098.82 
  414.507,1105.54 417.627,1111.36 420.746,1116.31 423.866,1120.42 426.985,1123.72 430.105,1126.25 433.224,1128.03 436.344,1129.1 439.463,1129.49 442.583,1129.24 
  445.702,1128.39 448.822,1126.96 451.941,1125 455.061,1122.53 458.18,1119.59 461.3,1116.21 464.419,1112.44 467.539,1108.3 470.658,1103.82 473.778,1099.04 
  476.897,1093.99 480.017,1088.69 483.136,1083.19 486.256,1077.5 489.375,1071.66 492.495,1065.69 495.614,1059.62 498.734,1053.48 501.853,1047.28 504.973,1041.06 
  508.092,1034.83 511.212,1028.62 514.332,1022.44 517.451,1016.32 520.571,1010.27 523.69,1004.32 526.81,998.466 529.929,992.736 533.049,987.141 536.168,981.693 
  539.288,976.403 542.407,971.284 545.527,966.343 548.646,961.59 551.766,957.032 554.885,952.676 558.005,948.528 561.124,944.591 564.244,940.871 567.363,937.369 
  570.483,934.089 573.602,931.03 576.722,928.194 579.841,925.581 582.961,923.188 586.08,921.016 589.2,919.06 592.319,917.317 595.439,915.785 598.558,914.458 
  601.678,913.332 604.797,912.401 607.917,911.66 611.036,911.101 614.156,910.717 617.275,910.503 620.395,910.449 623.514,910.547 626.634,910.79 629.753,911.169 
  632.873,911.675 635.992,912.298 639.112,913.029 642.231,913.859 645.351,914.779 648.47,915.777 651.59,916.845 654.709,917.972 657.829,919.149 660.948,920.365 
  664.068,921.61 667.187,922.875 670.307,924.15 673.426,925.424 676.546,926.689 679.665,927.934 682.785,929.15 685.904,930.328 689.024,931.459 692.143,932.533 
  695.263,933.543 698.382,934.479 701.502,935.334 704.621,936.099 707.741,936.768 710.86,937.332 713.98,937.785 717.099,938.119 720.219,938.329 723.338,938.409 
  726.458,938.352 729.577,938.154 732.697,937.809 735.816,937.313 738.936,936.661 742.055,935.849 745.175,934.875 748.294,933.735 751.414,932.426 754.533,930.946 
  757.653,929.293 760.772,927.466 763.892,925.462 767.011,923.283 770.131,920.926 773.25,918.393 776.37,915.683 779.489,912.798 782.609,909.738 785.728,906.505 
  788.848,903.101 791.967,899.528 795.087,895.79 798.206,891.888 801.326,887.826 804.445,883.608 807.565,879.237 810.684,874.719 813.804,870.057 816.923,865.256 
  820.043,860.322 823.162,855.26 826.282,850.076 829.401,844.775 832.521,839.365 835.64,833.85 838.76,828.238 841.879,822.536 844.999,816.751 848.118,810.89 
  851.238,804.96 854.357,798.969 857.477,792.924 860.596,786.834 863.716,780.706 866.835,774.549 869.955,768.369 873.074,762.176 876.194,755.978 879.313,749.783 
  882.433,743.599 885.552,737.435 888.672,731.299 891.791,725.198 894.911,719.143 898.03,713.14 901.15,707.198 904.269,701.325 907.389,695.529 910.508,689.818 
  913.628,684.201 916.747,678.684 919.867,673.275 922.986,667.982 926.106,662.812 929.225,657.773 932.345,652.87 935.464,648.112 938.584,643.505 941.703,639.055 
  944.823,634.768 947.942,630.65 951.062,626.708 954.181,622.946 957.301,619.37 960.42,615.985 963.54,612.796 966.659,609.807 969.779,607.022 972.898,604.445 
  976.018,602.08 979.137,599.93 982.257,597.998 985.376,596.287 988.496,594.799 991.616,593.537 994.735,592.502 997.855,591.695 1000.97,591.118 1004.09,590.771 
  1007.21,590.656 1010.33,590.771 1013.45,591.118 1016.57,591.695 1019.69,592.502 1022.81,593.537 1025.93,594.799 1029.05,596.287 1032.17,597.998 1035.29,599.93 
  1038.41,602.08 1041.53,604.445 1044.65,607.022 1047.77,609.807 1050.89,612.796 1054.01,615.985 1057.13,619.37 1060.24,622.946 1063.36,626.708 1066.48,630.65 
  1069.6,634.768 1072.72,639.055 1075.84,643.505 1078.96,648.112 1082.08,652.87 1085.2,657.773 1088.32,662.812 1091.44,667.982 1094.56,673.275 1097.68,678.684 
  1100.8,684.201 1103.92,689.818 1107.04,695.529 1110.16,701.325 1113.28,707.198 1116.4,713.14 1119.52,719.143 1122.63,725.198 1125.75,731.299 1128.87,737.435 
  1131.99,743.599 1135.11,749.783 1138.23,755.978 1141.35,762.176 1144.47,768.369 1147.59,774.549 1150.71,780.706 1153.83,786.834 1156.95,792.924 1160.07,798.969 
  1163.19,804.96 1166.31,810.89 1169.43,816.751 1172.55,822.536 1175.67,828.238 1178.79,833.85 1181.91,839.365 1185.02,844.775 1188.14,850.076 1191.26,855.26 
  1194.38,860.322 1197.5,865.256 1200.62,870.057 1203.74,874.719 1206.86,879.237 1209.98,883.608 1213.1,887.826 1216.22,891.888 1219.34,895.79 1222.46,899.528 
  1225.58,903.101 1228.7,906.505 1231.82,909.738 1234.94,912.798 1238.06,915.683 1241.18,918.393 1244.3,920.926 1247.41,923.283 1250.53,925.462 1253.65,927.466 
  1256.77,929.293 1259.89,930.946 1263.01,932.426 1266.13,933.735 1269.25,934.875 1272.37,935.849 1275.49,936.661 1278.61,937.313 1281.73,937.809 1284.85,938.154 
  1287.97,938.352 1291.09,938.409 1294.21,938.329 1297.33,938.119 1300.45,937.785 1303.57,937.332 1306.69,936.768 1309.8,936.099 1312.92,935.334 1316.04,934.479 
  1319.16,933.543 1322.28,932.533 1325.4,931.459 1328.52,930.328 1331.64,929.15 1334.76,927.934 1337.88,926.689 1341,925.424 1344.12,924.15 1347.24,922.875 
  1350.36,921.61 1353.48,920.365 1356.6,919.149 1359.72,917.972 1362.84,916.845 1365.96,915.777 1369.08,914.779 1372.19,913.859 1375.31,913.029 1378.43,912.298 
  1381.55,911.675 1384.67,911.169 1387.79,910.79 1390.91,910.547 1394.03,910.449 1397.15,910.503 1400.27,910.717 1403.39,911.101 1406.51,911.66 1409.63,912.401 
  1412.75,913.332 1415.87,914.458 1418.99,915.785 1422.11,917.317 1425.23,919.06 1428.35,921.016 1431.47,923.188 1434.58,925.581 1437.7,928.194 1440.82,931.03 
  1443.94,934.089 1447.06,937.369 1450.18,940.871 1453.3,944.591 1456.42,948.528 1459.54,952.676 1462.66,957.032 1465.78,961.59 1468.9,966.343 1472.02,971.284 
  1475.14,976.403 1478.26,981.693 1481.38,987.141 1484.5,992.736 1487.62,998.466 1490.74,1004.32 1493.86,1010.27 1496.98,1016.32 1500.09,1022.44 1503.21,1028.62 
  1506.33,1034.83 1509.45,1041.06 1512.57,1047.28 1515.69,1053.48 1518.81,1059.62 1521.93,1065.69 1525.05,1071.66 1528.17,1077.5 1531.29,1083.19 1534.41,1088.69 
  1537.53,1093.99 1540.65,1099.04 1543.77,1103.82 1546.89,1108.3 1550.01,1112.44 1553.13,1116.21 1556.25,1119.59 1559.37,1122.53 1562.48,1125 1565.6,1126.96 
  1568.72,1128.39 1571.84,1129.24 1574.96,1129.49 1578.08,1129.1 1581.2,1128.03 1584.32,1126.25 1587.44,1123.72 1590.56,1120.42 1593.68,1116.31 1596.8,1111.36 
  1599.92,1105.54 1603.04,1098.82 1606.16,1091.18 1609.28,1082.58 1612.4,1073.01 1615.52,1062.44 1618.64,1050.85 1621.76,1038.23 1624.87,1024.56 1627.99,1009.84 
  1631.11,994.052 1634.23,977.196 1637.35,959.271 1640.47,940.284 1643.59,920.242 1646.71,899.161 1649.83,877.059 1652.95,853.963 1656.07,829.904 1659.19,804.919 
  1662.31,779.053 1665.43,752.359 1668.55,724.896 1671.67,696.734 1674.79,667.948 1677.91,638.625 1681.03,608.862 1684.15,578.764 1687.26,548.45 1690.38,518.047 
  1693.5,487.698 1696.62,457.556 1699.74,427.787 1702.86,398.574 1705.98,370.111 1709.1,342.611 1712.22,316.3 1715.34,291.424 1718.46,268.245 1721.58,247.043 
  1724.7,228.119 1727.82,211.793 1730.94,198.407 1734.06,188.324 1737.18,181.932 1740.3,179.641 1743.42,181.886 1746.54,189.131 1749.65,201.863 1752.77,220.6 
  1755.89,245.889 1759.01,278.306 1762.13,318.461 1765.25,366.995 1768.37,424.584 1771.49,491.94 1774.61,569.811 1777.73,658.983 1780.85,760.283 1783.97,874.579 
  1787.09,1002.78 1790.21,1145.84 1793.33,1304.76 1796.45,1480.58 1799.57,1674.41 1802.69,1887.39 1805.81,2120.71 1808.93,2375.64 1812.04,2653.47 1815.16,2955.59 
  1818.28,3283.41 
  "/>
<circle clip-path="url(#clip472)" cx="227.337" cy="1002.78" r="10" fill="#00bfff" fill-rule="evenodd" fill-opacity="1" stroke="#000000" stroke-opacity="1" stroke-width="3.2"/>
<circle clip-path="url(#clip472)" cx="383.312" cy="994.052" r="10" fill="#00bfff" fill-rule="evenodd" fill-opacity="1" stroke="#000000" stroke-opacity="1" stroke-width="3.2"/>
<circle clip-path="url(#clip472)" cx="539.288" cy="976.403" r="10" fill="#00bfff" fill-rule="evenodd" fill-opacity="1" stroke="#000000" stroke-opacity="1" stroke-width="3.2"/>
<circle clip-path="url(#clip472)" cx="695.263" cy="933.543" r="10" fill="#00bfff" fill-rule="evenodd" fill-opacity="1" stroke="#000000" stroke-opacity="1" stroke-width="3.2"/>
<circle clip-path="url(#clip472)" cx="851.238" cy="804.96" r="10" fill="#00bfff" fill-rule="evenodd" fill-opacity="1" stroke="#000000" stroke-opacity="1" stroke-width="3.2"/>
<circle clip-path="url(#clip472)" cx="1007.21" cy="590.656" r="10" fill="#00bfff" fill-rule="evenodd" fill-opacity="1" stroke="#000000" stroke-opacity="1" stroke-width="3.2"/>
<circle clip-path="url(#clip472)" cx="1163.19" cy="804.96" r="10" fill="#00bfff" fill-rule="evenodd" fill-opacity="1" stroke="#000000" stroke-opacity="1" stroke-width="3.2"/>
<circle clip-path="url(#clip472)" cx="1319.16" cy="933.543" r="10" fill="#00bfff" fill-rule="evenodd" fill-opacity="1" stroke="#000000" stroke-opacity="1" stroke-width="3.2"/>
<circle clip-path="url(#clip472)" cx="1475.14" cy="976.403" r="10" fill="#00bfff" fill-rule="evenodd" fill-opacity="1" stroke="#000000" stroke-opacity="1" stroke-width="3.2"/>
<circle clip-path="url(#clip472)" cx="1631.11" cy="994.052" r="10" fill="#00bfff" fill-rule="evenodd" fill-opacity="1" stroke="#000000" stroke-opacity="1" stroke-width="3.2"/>
<circle clip-path="url(#clip472)" cx="1787.09" cy="1002.78" r="10" fill="#00bfff" fill-rule="evenodd" fill-opacity="1" stroke="#000000" stroke-opacity="1" stroke-width="3.2"/>
<circle clip-path="url(#clip472)" cx="1124.19" cy="744.955" r="10" fill="#0000ff" fill-rule="evenodd" fill-opacity="1" stroke="#000000" stroke-opacity="1" stroke-width="3.2"/>
<circle clip-path="url(#clip472)" cx="1280.17" cy="913.761" r="10" fill="#0000ff" fill-rule="evenodd" fill-opacity="1" stroke="#000000" stroke-opacity="1" stroke-width="3.2"/>
<circle clip-path="url(#clip472)" cx="1436.14" cy="969.208" r="10" fill="#0000ff" fill-rule="evenodd" fill-opacity="1" stroke="#000000" stroke-opacity="1" stroke-width="3.2"/>
<circle clip-path="url(#clip472)" cx="1592.12" cy="990.809" r="10" fill="#0000ff" fill-rule="evenodd" fill-opacity="1" stroke="#000000" stroke-opacity="1" stroke-width="3.2"/>
<circle clip-path="url(#clip472)" cx="1748.1" cy="1001.07" r="10" fill="#0000ff" fill-rule="evenodd" fill-opacity="1" stroke="#000000" stroke-opacity="1" stroke-width="3.2"/>
<circle clip-path="url(#clip472)" cx="1124.19" cy="728.244" r="10" fill="#ff0000" fill-rule="evenodd" fill-opacity="1" stroke="#000000" stroke-opacity="1" stroke-width="3.2"/>
<circle clip-path="url(#clip472)" cx="1280.17" cy="937.58" r="10" fill="#ff0000" fill-rule="evenodd" fill-opacity="1" stroke="#000000" stroke-opacity="1" stroke-width="3.2"/>
<circle clip-path="url(#clip472)" cx="1436.14" cy="926.86" r="10" fill="#ff0000" fill-rule="evenodd" fill-opacity="1" stroke="#000000" stroke-opacity="1" stroke-width="3.2"/>
<circle clip-path="url(#clip472)" cx="1592.12" cy="1118.47" r="10" fill="#ff0000" fill-rule="evenodd" fill-opacity="1" stroke="#000000" stroke-opacity="1" stroke-width="3.2"/>
<circle clip-path="url(#clip472)" cx="1748.1" cy="194.779" r="10" fill="#ff0000" fill-rule="evenodd" fill-opacity="1" stroke="#000000" stroke-opacity="1" stroke-width="3.2"/>
<path clip-path="url(#clip470)" d="
M1940.46 479.945 L2352.76 479.945 L2352.76 168.905 L1940.46 168.905  Z
  " fill="#ffffff" fill-rule="evenodd" fill-opacity="1"/>
<polyline clip-path="url(#clip470)" style="stroke:#000000; stroke-linecap:butt; stroke-linejoin:round; stroke-width:4; stroke-opacity:1; fill:none" points="
  1940.46,479.945 2352.76,479.945 2352.76,168.905 1940.46,168.905 1940.46,479.945 
  "/>
<polyline clip-path="url(#clip470)" style="stroke:#009af9; stroke-linecap:butt; stroke-linejoin:round; stroke-width:4; stroke-opacity:1; fill:none" points="
  1964.96,220.745 2111.98,220.745 
  "/>
<path clip-path="url(#clip470)" d="M2152.99 202.006 L2152.99 205.548 L2148.91 205.548 Q2146.62 205.548 2145.72 206.474 Q2144.84 207.4 2144.84 209.807 L2144.84 212.099 L2151.85 212.099 L2151.85 215.409 L2144.84 215.409 L2144.84 238.025 L2140.56 238.025 L2140.56 215.409 L2136.48 215.409 L2136.48 212.099 L2140.56 212.099 L2140.56 210.293 Q2140.56 205.965 2142.57 203.997 Q2144.58 202.006 2148.96 202.006 L2152.99 202.006 Z" fill="#000000" fill-rule="evenodd" fill-opacity="1" /><path clip-path="url(#clip470)" d="M2166.78 202.053 Q2163.68 207.377 2162.18 212.585 Q2160.67 217.793 2160.67 223.14 Q2160.67 228.488 2162.18 233.742 Q2163.7 238.974 2166.78 244.275 L2163.08 244.275 Q2159.61 238.835 2157.87 233.58 Q2156.16 228.326 2156.16 223.14 Q2156.16 217.978 2157.87 212.747 Q2159.58 207.516 2163.08 202.053 L2166.78 202.053 Z" fill="#000000" fill-rule="evenodd" fill-opacity="1" /><path clip-path="url(#clip470)" d="M2196.6 212.099 L2187.22 224.715 L2197.08 238.025 L2192.06 238.025 L2184.51 227.84 L2176.97 238.025 L2171.94 238.025 L2182.01 224.46 L2172.8 212.099 L2177.82 212.099 L2184.7 221.335 L2191.57 212.099 L2196.6 212.099 Z" fill="#000000" fill-rule="evenodd" fill-opacity="1" /><path clip-path="url(#clip470)" d="M2202.43 202.053 L2206.13 202.053 Q2209.61 207.516 2211.32 212.747 Q2213.06 217.978 2213.06 223.14 Q2213.06 228.326 2211.32 233.58 Q2209.61 238.835 2206.13 244.275 L2202.43 244.275 Q2205.51 238.974 2207.01 233.742 Q2208.54 228.488 2208.54 223.14 Q2208.54 217.793 2207.01 212.585 Q2205.51 207.377 2202.43 202.053 Z" fill="#000000" fill-rule="evenodd" fill-opacity="1" /><polyline clip-path="url(#clip470)" style="stroke:#ee82ee; stroke-linecap:butt; stroke-linejoin:round; stroke-width:4; stroke-opacity:1; fill:none" points="
  1964.96,272.585 2111.98,272.585 
  "/>
<path clip-path="url(#clip470)" d="M2140.76 285.976 L2140.76 299.726 L2136.48 299.726 L2136.48 263.939 L2140.76 263.939 L2140.76 267.874 Q2142.11 265.559 2144.14 264.448 Q2146.2 263.314 2149.05 263.314 Q2153.77 263.314 2156.71 267.064 Q2159.68 270.814 2159.68 276.925 Q2159.68 283.036 2156.71 286.786 Q2153.77 290.536 2149.05 290.536 Q2146.2 290.536 2144.14 289.425 Q2142.11 288.291 2140.76 285.976 M2155.26 276.925 Q2155.26 272.226 2153.31 269.564 Q2151.39 266.879 2148.01 266.879 Q2144.63 266.879 2142.69 269.564 Q2140.76 272.226 2140.76 276.925 Q2140.76 281.624 2142.69 284.309 Q2144.63 286.971 2148.01 286.971 Q2151.39 286.971 2153.31 284.309 Q2155.26 281.624 2155.26 276.925 Z" fill="#000000" fill-rule="evenodd" fill-opacity="1" /><path clip-path="url(#clip470)" d="M2176.97 253.893 Q2173.87 259.217 2172.36 264.425 Q2170.86 269.633 2170.86 274.98 Q2170.86 280.328 2172.36 285.582 Q2173.89 290.814 2176.97 296.115 L2173.26 296.115 Q2169.79 290.675 2168.06 285.42 Q2166.34 280.166 2166.34 274.98 Q2166.34 269.818 2168.06 264.587 Q2169.77 259.356 2173.26 253.893 L2176.97 253.893 Z" fill="#000000" fill-rule="evenodd" fill-opacity="1" /><path clip-path="url(#clip470)" d="M2206.78 263.939 L2197.41 276.555 L2207.27 289.865 L2202.25 289.865 L2194.7 279.68 L2187.15 289.865 L2182.13 289.865 L2192.2 276.3 L2182.99 263.939 L2188.01 263.939 L2194.88 273.175 L2201.76 263.939 L2206.78 263.939 Z" fill="#000000" fill-rule="evenodd" fill-opacity="1" /><path clip-path="url(#clip470)" d="M2212.62 253.893 L2216.32 253.893 Q2219.79 259.356 2221.5 264.587 Q2223.24 269.818 2223.24 274.98 Q2223.24 280.166 2221.5 285.42 Q2219.79 290.675 2216.32 296.115 L2212.62 296.115 Q2215.69 290.814 2217.2 285.582 Q2218.73 280.328 2218.73 274.98 Q2218.73 269.633 2217.2 264.425 Q2215.69 259.217 2212.62 253.893 Z" fill="#000000" fill-rule="evenodd" fill-opacity="1" /><circle clip-path="url(#clip470)" cx="2038.47" cy="324.425" r="23" fill="#00bfff" fill-rule="evenodd" fill-opacity="1" stroke="#000000" stroke-opacity="1" stroke-width="6.82667"/>
<path clip-path="url(#clip470)" d="M2154.91 316.543 L2154.91 320.571 Q2153.1 319.645 2151.16 319.182 Q2149.21 318.719 2147.13 318.719 Q2143.96 318.719 2142.36 319.691 Q2140.79 320.663 2140.79 322.608 Q2140.79 324.089 2141.92 324.945 Q2143.06 325.779 2146.48 326.543 L2147.94 326.867 Q2152.48 327.839 2154.38 329.621 Q2156.3 331.381 2156.3 334.552 Q2156.3 338.163 2153.43 340.269 Q2150.58 342.376 2145.58 342.376 Q2143.5 342.376 2141.23 341.959 Q2138.98 341.566 2136.48 340.756 L2136.48 336.357 Q2138.84 337.584 2141.13 338.209 Q2143.43 338.811 2145.67 338.811 Q2148.68 338.811 2150.3 337.793 Q2151.92 336.751 2151.92 334.876 Q2151.92 333.14 2150.74 332.214 Q2149.58 331.288 2145.63 330.432 L2144.14 330.084 Q2140.19 329.251 2138.43 327.538 Q2136.67 325.802 2136.67 322.793 Q2136.67 319.135 2139.26 317.145 Q2141.85 315.154 2146.62 315.154 Q2148.98 315.154 2151.07 315.501 Q2153.15 315.848 2154.91 316.543 Z" fill="#000000" fill-rule="evenodd" fill-opacity="1" /><path clip-path="url(#clip470)" d="M2174.86 328.672 Q2169.7 328.672 2167.71 329.853 Q2165.72 331.033 2165.72 333.881 Q2165.72 336.149 2167.2 337.492 Q2168.7 338.811 2171.27 338.811 Q2174.82 338.811 2176.94 336.311 Q2179.1 333.788 2179.1 329.621 L2179.1 328.672 L2174.86 328.672 M2183.36 326.913 L2183.36 341.705 L2179.1 341.705 L2179.1 337.769 Q2177.64 340.131 2175.46 341.265 Q2173.29 342.376 2170.14 342.376 Q2166.16 342.376 2163.8 340.154 Q2161.46 337.908 2161.46 334.158 Q2161.46 329.783 2164.38 327.561 Q2167.32 325.339 2173.13 325.339 L2179.1 325.339 L2179.1 324.922 Q2179.1 321.983 2177.15 320.385 Q2175.23 318.765 2171.74 318.765 Q2169.51 318.765 2167.41 319.297 Q2165.3 319.83 2163.36 320.895 L2163.36 316.959 Q2165.69 316.057 2167.89 315.617 Q2170.09 315.154 2172.18 315.154 Q2177.8 315.154 2180.58 318.071 Q2183.36 320.987 2183.36 326.913 Z" fill="#000000" fill-rule="evenodd" fill-opacity="1" /><path clip-path="url(#clip470)" d="M2212.32 320.756 Q2213.91 317.885 2216.13 316.52 Q2218.36 315.154 2221.37 315.154 Q2225.42 315.154 2227.62 318.001 Q2229.81 320.825 2229.81 326.057 L2229.81 341.705 L2225.53 341.705 L2225.53 326.195 Q2225.53 322.469 2224.21 320.663 Q2222.89 318.858 2220.19 318.858 Q2216.88 318.858 2214.95 321.057 Q2213.03 323.256 2213.03 327.052 L2213.03 341.705 L2208.75 341.705 L2208.75 326.195 Q2208.75 322.445 2207.43 320.663 Q2206.11 318.858 2203.36 318.858 Q2200.09 318.858 2198.17 321.08 Q2196.25 323.279 2196.25 327.052 L2196.25 341.705 L2191.97 341.705 L2191.97 315.779 L2196.25 315.779 L2196.25 319.807 Q2197.71 317.422 2199.75 316.288 Q2201.78 315.154 2204.58 315.154 Q2207.41 315.154 2209.38 316.589 Q2211.37 318.024 2212.32 320.756 Z" fill="#000000" fill-rule="evenodd" fill-opacity="1" /><path clip-path="url(#clip470)" d="M2242.43 337.816 L2242.43 351.566 L2238.15 351.566 L2238.15 315.779 L2242.43 315.779 L2242.43 319.714 Q2243.77 317.399 2245.81 316.288 Q2247.87 315.154 2250.72 315.154 Q2255.44 315.154 2258.38 318.904 Q2261.34 322.654 2261.34 328.765 Q2261.34 334.876 2258.38 338.626 Q2255.44 342.376 2250.72 342.376 Q2247.87 342.376 2245.81 341.265 Q2243.77 340.131 2242.43 337.816 M2256.92 328.765 Q2256.92 324.066 2254.98 321.404 Q2253.06 318.719 2249.68 318.719 Q2246.3 318.719 2244.35 321.404 Q2242.43 324.066 2242.43 328.765 Q2242.43 333.464 2244.35 336.149 Q2246.3 338.811 2249.68 338.811 Q2253.06 338.811 2254.98 336.149 Q2256.92 333.464 2256.92 328.765 Z" fill="#000000" fill-rule="evenodd" fill-opacity="1" /><path clip-path="url(#clip470)" d="M2268.4 305.686 L2272.66 305.686 L2272.66 341.705 L2268.4 341.705 L2268.4 305.686 Z" fill="#000000" fill-rule="evenodd" fill-opacity="1" /><path clip-path="url(#clip470)" d="M2303.75 327.677 L2303.75 329.76 L2284.17 329.76 Q2284.44 334.158 2286.81 336.473 Q2289.19 338.765 2293.43 338.765 Q2295.88 338.765 2298.17 338.163 Q2300.49 337.561 2302.75 336.357 L2302.75 340.385 Q2300.46 341.357 2298.06 341.867 Q2295.65 342.376 2293.17 342.376 Q2286.97 342.376 2283.33 338.765 Q2279.72 335.154 2279.72 328.996 Q2279.72 322.631 2283.15 318.904 Q2286.6 315.154 2292.43 315.154 Q2297.66 315.154 2300.69 318.533 Q2303.75 321.89 2303.75 327.677 M2299.49 326.427 Q2299.44 322.932 2297.52 320.848 Q2295.62 318.765 2292.48 318.765 Q2288.91 318.765 2286.76 320.779 Q2284.63 322.793 2284.31 326.45 L2299.49 326.427 Z" fill="#000000" fill-rule="evenodd" fill-opacity="1" /><circle clip-path="url(#clip470)" cx="2038.47" cy="376.265" r="23" fill="#0000ff" fill-rule="evenodd" fill-opacity="1" stroke="#000000" stroke-opacity="1" stroke-width="6.82667"/>
<path clip-path="url(#clip470)" d="M2143.89 360.258 L2143.89 367.619 L2152.66 367.619 L2152.66 370.929 L2143.89 370.929 L2143.89 385.003 Q2143.89 388.174 2144.75 389.077 Q2145.63 389.98 2148.29 389.98 L2152.66 389.98 L2152.66 393.545 L2148.29 393.545 Q2143.36 393.545 2141.48 391.716 Q2139.61 389.864 2139.61 385.003 L2139.61 370.929 L2136.48 370.929 L2136.48 367.619 L2139.61 367.619 L2139.61 360.258 L2143.89 360.258 Z" fill="#000000" fill-rule="evenodd" fill-opacity="1" /><path clip-path="url(#clip470)" d="M2173.29 371.6 Q2172.57 371.184 2171.71 370.998 Q2170.88 370.79 2169.86 370.79 Q2166.25 370.79 2164.31 373.151 Q2162.38 375.489 2162.38 379.887 L2162.38 393.545 L2158.1 393.545 L2158.1 367.619 L2162.38 367.619 L2162.38 371.647 Q2163.73 369.286 2165.88 368.151 Q2168.03 366.994 2171.11 366.994 Q2171.55 366.994 2172.08 367.063 Q2172.62 367.11 2173.26 367.225 L2173.29 371.6 Z" fill="#000000" fill-rule="evenodd" fill-opacity="1" /><path clip-path="url(#clip470)" d="M2177.32 383.313 L2177.32 367.619 L2181.57 367.619 L2181.57 383.151 Q2181.57 386.832 2183.01 388.684 Q2184.44 390.512 2187.32 390.512 Q2190.76 390.512 2192.75 388.313 Q2194.77 386.114 2194.77 382.318 L2194.77 367.619 L2199.03 367.619 L2199.03 393.545 L2194.77 393.545 L2194.77 389.563 Q2193.22 391.924 2191.16 393.082 Q2189.12 394.216 2186.41 394.216 Q2181.94 394.216 2179.63 391.438 Q2177.32 388.66 2177.32 383.313 M2188.03 366.994 L2188.03 366.994 Z" fill="#000000" fill-rule="evenodd" fill-opacity="1" /><path clip-path="url(#clip470)" d="M2229.98 379.517 L2229.98 381.6 L2210.39 381.6 Q2210.67 385.998 2213.03 388.313 Q2215.42 390.605 2219.65 390.605 Q2222.11 390.605 2224.4 390.003 Q2226.71 389.401 2228.98 388.197 L2228.98 392.225 Q2226.69 393.197 2224.28 393.707 Q2221.88 394.216 2219.4 394.216 Q2213.19 394.216 2209.56 390.605 Q2205.95 386.994 2205.95 380.836 Q2205.95 374.471 2209.38 370.744 Q2212.82 366.994 2218.66 366.994 Q2223.89 366.994 2226.92 370.373 Q2229.98 373.73 2229.98 379.517 M2225.72 378.267 Q2225.67 374.772 2223.75 372.688 Q2221.85 370.605 2218.7 370.605 Q2215.14 370.605 2212.99 372.619 Q2210.86 374.633 2210.53 378.29 L2225.72 378.267 Z" fill="#000000" fill-rule="evenodd" fill-opacity="1" /><circle clip-path="url(#clip470)" cx="2038.47" cy="428.105" r="23" fill="#ff0000" fill-rule="evenodd" fill-opacity="1" stroke="#000000" stroke-opacity="1" stroke-width="6.82667"/>
<path clip-path="url(#clip470)" d="M2149.88 432.352 Q2144.72 432.352 2142.73 433.533 Q2140.74 434.713 2140.74 437.561 Q2140.74 439.829 2142.22 441.172 Q2143.73 442.491 2146.3 442.491 Q2149.84 442.491 2151.97 439.991 Q2154.12 437.468 2154.12 433.301 L2154.12 432.352 L2149.88 432.352 M2158.38 430.593 L2158.38 445.385 L2154.12 445.385 L2154.12 441.449 Q2152.66 443.811 2150.49 444.945 Q2148.31 446.056 2145.16 446.056 Q2141.18 446.056 2138.82 443.834 Q2136.48 441.588 2136.48 437.838 Q2136.48 433.463 2139.4 431.241 Q2142.34 429.019 2148.15 429.019 L2154.12 429.019 L2154.12 428.602 Q2154.12 425.663 2152.18 424.065 Q2150.26 422.445 2146.76 422.445 Q2144.54 422.445 2142.43 422.977 Q2140.32 423.51 2138.38 424.575 L2138.38 420.639 Q2140.72 419.737 2142.92 419.297 Q2145.12 418.834 2147.2 418.834 Q2152.82 418.834 2155.6 421.751 Q2158.38 424.667 2158.38 430.593 Z" fill="#000000" fill-rule="evenodd" fill-opacity="1" /><path clip-path="url(#clip470)" d="M2171.27 441.496 L2171.27 455.246 L2166.99 455.246 L2166.99 419.459 L2171.27 419.459 L2171.27 423.394 Q2172.62 421.079 2174.65 419.968 Q2176.71 418.834 2179.56 418.834 Q2184.28 418.834 2187.22 422.584 Q2190.19 426.334 2190.19 432.445 Q2190.19 438.556 2187.22 442.306 Q2184.28 446.056 2179.56 446.056 Q2176.71 446.056 2174.65 444.945 Q2172.62 443.811 2171.27 441.496 M2185.76 432.445 Q2185.76 427.746 2183.82 425.084 Q2181.9 422.399 2178.52 422.399 Q2175.14 422.399 2173.19 425.084 Q2171.27 427.746 2171.27 432.445 Q2171.27 437.144 2173.19 439.829 Q2175.14 442.491 2178.52 442.491 Q2181.9 442.491 2183.82 439.829 Q2185.76 437.144 2185.76 432.445 Z" fill="#000000" fill-rule="evenodd" fill-opacity="1" /><path clip-path="url(#clip470)" d="M2201.37 441.496 L2201.37 455.246 L2197.08 455.246 L2197.08 419.459 L2201.37 419.459 L2201.37 423.394 Q2202.71 421.079 2204.75 419.968 Q2206.81 418.834 2209.65 418.834 Q2214.38 418.834 2217.32 422.584 Q2220.28 426.334 2220.28 432.445 Q2220.28 438.556 2217.32 442.306 Q2214.38 446.056 2209.65 446.056 Q2206.81 446.056 2204.75 444.945 Q2202.71 443.811 2201.37 441.496 M2215.86 432.445 Q2215.86 427.746 2213.91 425.084 Q2211.99 422.399 2208.61 422.399 Q2205.23 422.399 2203.29 425.084 Q2201.37 427.746 2201.37 432.445 Q2201.37 437.144 2203.29 439.829 Q2205.23 442.491 2208.61 442.491 Q2211.99 442.491 2213.91 439.829 Q2215.86 437.144 2215.86 432.445 Z" fill="#000000" fill-rule="evenodd" fill-opacity="1" /><path clip-path="url(#clip470)" d="M2242.36 423.44 Q2241.64 423.024 2240.79 422.838 Q2239.95 422.63 2238.94 422.63 Q2235.32 422.63 2233.38 424.991 Q2231.46 427.329 2231.46 431.727 L2231.46 445.385 L2227.18 445.385 L2227.18 419.459 L2231.46 419.459 L2231.46 423.487 Q2232.8 421.126 2234.95 419.991 Q2237.11 418.834 2240.19 418.834 Q2240.63 418.834 2241.16 418.903 Q2241.69 418.95 2242.34 419.065 L2242.36 423.44 Z" fill="#000000" fill-rule="evenodd" fill-opacity="1" /><path clip-path="url(#clip470)" d="M2255.83 422.445 Q2252.41 422.445 2250.42 425.13 Q2248.43 427.792 2248.43 432.445 Q2248.43 437.098 2250.39 439.783 Q2252.38 442.445 2255.83 442.445 Q2259.24 442.445 2261.23 439.76 Q2263.22 437.075 2263.22 432.445 Q2263.22 427.838 2261.23 425.153 Q2259.24 422.445 2255.83 422.445 M2255.83 418.834 Q2261.39 418.834 2264.56 422.445 Q2267.73 426.056 2267.73 432.445 Q2267.73 438.811 2264.56 442.445 Q2261.39 446.056 2255.83 446.056 Q2250.25 446.056 2247.08 442.445 Q2243.94 438.811 2243.94 432.445 Q2243.94 426.056 2247.08 422.445 Q2250.25 418.834 2255.83 418.834 Z" fill="#000000" fill-rule="evenodd" fill-opacity="1" /><path clip-path="url(#clip470)" d="M2294.88 419.459 L2285.51 432.075 L2295.37 445.385 L2290.35 445.385 L2282.8 435.2 L2275.25 445.385 L2270.23 445.385 L2280.3 431.82 L2271.09 419.459 L2276.11 419.459 L2282.99 428.695 L2289.86 419.459 L2294.88 419.459 Z" fill="#000000" fill-rule="evenodd" fill-opacity="1" /><path clip-path="url(#clip470)" d="M1705.78 776.814 Q1705.78 779.069 1704.34 780.463 Q1702.95 781.856 1701.19 781.856 Q1699.91 781.856 1698.97 781.077 Q1698.07 780.299 1698.07 778.946 Q1698.07 777.552 1699.14 776.077 Q1700.2 774.601 1702.62 774.396 Q1701.02 772.88 1698.48 772.88 Q1697.21 772.88 1696.14 773.699 Q1695.12 774.478 1694.55 775.749 Q1693.93 777.06 1692.54 784.479 Q1692.09 786.898 1691.68 789.234 Q1691.27 791.571 1690.77 794.03 L1697.74 794.03 Q1698.64 794.03 1699.01 794.071 Q1699.38 794.112 1699.67 794.317 Q1700 794.522 1700 794.973 Q1700 796.12 1699.46 796.407 Q1698.97 796.653 1697.5 796.653 L1690.28 796.653 L1685.24 823.255 Q1685.12 824.034 1684.58 826.493 Q1684.09 828.912 1682.9 832.888 Q1681.72 836.905 1680.53 839.282 Q1679.87 840.635 1679.01 841.905 Q1678.19 843.217 1677 844.529 Q1675.81 845.84 1674.26 846.619 Q1672.7 847.439 1671.06 847.439 Q1668.27 847.439 1666.1 845.881 Q1663.93 844.324 1663.93 841.66 Q1663.93 839.405 1665.32 838.011 Q1666.75 836.618 1668.52 836.618 Q1669.79 836.618 1670.69 837.397 Q1671.63 838.175 1671.63 839.528 Q1671.63 840.102 1671.43 840.758 Q1671.22 841.414 1670.77 842.151 Q1670.32 842.93 1669.34 843.463 Q1668.35 843.996 1667 844.078 Q1668.6 845.594 1671.06 845.594 Q1671.84 845.594 1672.53 845.267 Q1673.23 844.98 1673.8 844.242 Q1674.42 843.504 1674.87 842.766 Q1675.32 842.069 1675.77 840.717 Q1676.22 839.405 1676.51 838.421 Q1676.8 837.438 1677.17 835.675 Q1677.58 833.913 1677.78 832.847 Q1677.99 831.822 1678.35 829.814 L1684.63 796.653 L1679.09 796.653 Q1678.11 796.653 1677.7 796.612 Q1677.33 796.571 1677.04 796.366 Q1676.76 796.12 1676.76 795.629 Q1676.76 794.85 1677.08 794.522 Q1677.45 794.153 1677.86 794.112 Q1678.27 794.03 1679.26 794.03 L1685.08 794.03 Q1687.04 783.66 1687.82 780.872 Q1688.72 777.921 1690.12 775.872 Q1691.51 773.781 1693.07 772.798 Q1694.63 771.814 1695.9 771.445 Q1697.21 771.035 1698.48 771.035 Q1701.35 771.035 1703.56 772.593 Q1705.78 774.109 1705.78 776.814 Z" fill="#000000" fill-rule="evenodd" fill-opacity="1" /><path clip-path="url(#clip470)" d="M1717.08 809.237 Q1717.08 795.055 1722.36 783.619 Q1724.62 778.823 1727.77 774.806 Q1730.93 770.789 1733.02 769.027 Q1735.11 767.264 1735.68 767.264 Q1736.5 767.264 1736.55 768.084 Q1736.55 768.494 1735.44 769.518 Q1721.91 783.291 1721.95 809.237 Q1721.95 835.265 1735.11 848.505 Q1736.55 849.939 1736.55 850.39 Q1736.55 851.21 1735.68 851.21 Q1735.11 851.21 1733.1 849.529 Q1731.09 847.849 1727.98 843.996 Q1724.86 840.143 1722.61 835.429 Q1717.08 823.993 1717.08 809.237 Z" fill="#000000" fill-rule="evenodd" fill-opacity="1" /><path clip-path="url(#clip470)" d="M1784.73 798.662 Q1784.73 800.957 1783.3 802.269 Q1781.86 803.539 1780.23 803.539 Q1778.67 803.539 1777.85 802.638 Q1777.03 801.736 1777.03 800.588 Q1777.03 799.031 1778.18 797.678 Q1779.32 796.325 1781.05 796.038 Q1779.36 794.973 1776.86 794.973 Q1775.22 794.973 1773.79 795.833 Q1772.4 796.694 1771.54 797.801 Q1770.72 798.908 1769.98 800.506 Q1769.28 802.064 1768.99 803.007 Q1768.75 803.908 1768.54 804.892 L1765.67 816.369 Q1764.28 821.821 1764.28 823.747 Q1764.28 826.125 1765.43 827.723 Q1766.58 829.281 1768.87 829.281 Q1769.77 829.281 1770.8 829.035 Q1771.82 828.748 1773.13 828.01 Q1774.49 827.231 1775.68 826.084 Q1776.91 824.895 1778.09 822.886 Q1779.28 820.878 1780.06 818.296 Q1780.31 817.394 1781.13 817.394 Q1782.15 817.394 1782.15 818.214 Q1782.15 818.91 1781.58 820.386 Q1781.05 821.821 1779.86 823.706 Q1778.71 825.551 1777.19 827.231 Q1775.68 828.871 1773.42 830.019 Q1771.17 831.166 1768.71 831.166 Q1765.18 831.166 1762.85 829.281 Q1760.51 827.395 1759.65 824.772 Q1759.44 825.141 1759.16 825.633 Q1758.87 826.125 1758.01 827.231 Q1757.19 828.297 1756.25 829.117 Q1755.3 829.896 1753.83 830.51 Q1752.39 831.166 1750.84 831.166 Q1748.87 831.166 1747.11 830.592 Q1745.38 830.019 1744.15 828.707 Q1742.93 827.395 1742.93 825.592 Q1742.93 823.583 1744.28 822.19 Q1745.67 820.755 1747.56 820.755 Q1748.75 820.755 1749.69 821.452 Q1750.67 822.149 1750.67 823.665 Q1750.67 825.346 1749.52 826.616 Q1748.38 827.887 1746.74 828.215 Q1748.42 829.281 1750.92 829.281 Q1753.62 829.281 1755.75 826.903 Q1757.89 824.526 1758.91 820.55 Q1761.45 811 1762.44 806.737 Q1763.42 802.433 1763.42 800.588 Q1763.42 798.867 1762.97 797.678 Q1762.52 796.489 1761.74 795.956 Q1761 795.383 1760.3 795.178 Q1759.65 794.973 1758.91 794.973 Q1757.68 794.973 1756.29 795.465 Q1754.93 795.956 1753.3 797.104 Q1751.7 798.211 1750.18 800.506 Q1748.66 802.802 1747.64 805.958 Q1747.43 806.901 1746.53 806.901 Q1745.55 806.86 1745.55 806.04 Q1745.55 805.343 1746.08 803.908 Q1746.66 802.433 1747.8 800.588 Q1748.99 798.744 1750.51 797.104 Q1752.07 795.424 1754.32 794.276 Q1756.62 793.128 1759.07 793.128 Q1760.18 793.128 1761.25 793.374 Q1762.35 793.579 1763.67 794.194 Q1765.02 794.809 1766.21 796.161 Q1767.4 797.514 1768.13 799.482 Q1768.63 798.539 1769.28 797.637 Q1769.98 796.735 1771.04 795.629 Q1772.15 794.481 1773.67 793.825 Q1775.22 793.128 1776.95 793.128 Q1778.63 793.128 1780.27 793.579 Q1781.91 793.989 1783.3 795.342 Q1784.73 796.653 1784.73 798.662 Z" fill="#000000" fill-rule="evenodd" fill-opacity="1" /><path clip-path="url(#clip470)" d="M1792.81 850.39 Q1792.81 849.98 1793.88 848.956 Q1807.41 835.183 1807.41 809.237 Q1807.41 783.209 1794.41 770.051 Q1792.81 768.535 1792.81 768.084 Q1792.81 767.264 1793.63 767.264 Q1794.21 767.264 1796.22 768.945 Q1798.27 770.625 1801.34 774.478 Q1804.46 778.331 1806.75 783.045 Q1812.28 794.481 1812.28 809.237 Q1812.28 823.419 1807 834.855 Q1804.74 839.651 1801.59 843.668 Q1798.43 847.685 1796.34 849.447 Q1794.25 851.21 1793.63 851.21 Q1792.81 851.21 1792.81 850.39 Z" fill="#000000" fill-rule="evenodd" fill-opacity="1" /><path clip-path="url(#clip470)" d="M1848.34 817.476 Q1848.42 816.451 1850.02 816.451 L1901.46 816.451 Q1903.88 816.451 1903.92 817.394 Q1903.92 818.419 1901.62 818.378 L1850.59 818.378 Q1848.34 818.419 1848.34 817.476 M1848.34 801.08 Q1848.34 800.055 1850.1 800.096 L1901.38 800.096 Q1903.88 800.096 1903.92 801.08 Q1903.92 802.023 1901.79 802.023 L1850.02 802.023 Q1848.34 802.023 1848.34 801.08 Z" fill="#000000" fill-rule="evenodd" fill-opacity="1" /><path clip-path="url(#clip470)" d="M2058.22 741.366 L2058.22 738.742 Q2068.3 738.742 2073.51 733.373 Q2074.94 733.373 2075.19 733.701 Q2075.43 734.029 2075.43 735.545 L2075.43 782.642 Q2075.43 785.142 2076.66 785.921 Q2077.89 786.7 2083.26 786.7 L2085.93 786.7 L2085.93 789.282 Q2082.98 789.036 2072.32 789.036 Q2061.66 789.036 2058.75 789.282 L2058.75 786.7 L2061.42 786.7 Q2066.7 786.7 2067.97 785.962 Q2069.24 785.183 2069.24 782.642 L2069.24 739.152 Q2064.86 741.366 2058.22 741.366 Z" fill="#000000" fill-rule="evenodd" fill-opacity="1" /><path clip-path="url(#clip470)" d="
M1954.22 811.682 L2198.57 811.682 L2198.57 807.202 L1954.22 807.202  Z
  " fill="#000000" fill-rule="evenodd" fill-opacity="1"/>
<path clip-path="url(#clip470)" d="M1954.22 845.554 L1954.22 842.931 Q1964.3 842.931 1969.51 837.561 Q1970.94 837.561 1971.19 837.889 Q1971.43 838.217 1971.43 839.733 L1971.43 886.83 Q1971.43 889.33 1972.66 890.109 Q1973.89 890.888 1979.26 890.888 L1981.93 890.888 L1981.93 893.47 Q1978.98 893.224 1968.32 893.224 Q1957.66 893.224 1954.75 893.47 L1954.75 890.888 L1957.42 890.888 Q1962.7 890.888 1963.97 890.15 Q1965.24 889.371 1965.24 886.83 L1965.24 843.34 Q1960.86 845.554 1954.22 845.554 Z" fill="#000000" fill-rule="evenodd" fill-opacity="1" /><path clip-path="url(#clip470)" d="M2021.01 873.509 Q2019.08 873.509 2019.08 872.484 Q2019.08 871.459 2021.09 871.459 Q2021.33 871.459 2021.74 871.5 Q2022.19 871.541 2022.28 871.541 L2045.93 871.541 L2045.93 847.808 Q2045.93 847.726 2045.89 847.357 Q2045.85 846.948 2045.85 846.702 Q2045.85 844.693 2046.83 844.693 Q2047.85 844.693 2047.85 846.702 L2047.85 871.541 L2071.55 871.541 Q2071.63 871.541 2072.04 871.5 Q2072.45 871.459 2072.69 871.459 Q2074.62 871.459 2074.62 872.484 Q2074.66 873.509 2072.61 873.509 Q2072.37 873.509 2072 873.468 Q2071.63 873.427 2071.55 873.427 L2047.85 873.427 L2047.85 898.348 Q2047.85 900.275 2046.83 900.275 Q2045.85 900.275 2045.85 898.266 Q2045.85 898.02 2045.89 897.61 Q2045.93 897.241 2045.93 897.159 L2045.93 873.427 L2022.28 873.427 Q2022.19 873.427 2021.7 873.468 Q2021.25 873.509 2021.01 873.509 Z" fill="#000000" fill-rule="evenodd" fill-opacity="1" /><path clip-path="url(#clip470)" d="M2148.85 861.909 Q2148.85 864.204 2147.41 865.516 Q2145.98 866.786 2144.34 866.786 Q2142.78 866.786 2141.96 865.885 Q2141.14 864.983 2141.14 863.835 Q2141.14 862.278 2142.29 860.925 Q2143.44 859.572 2145.16 859.285 Q2143.48 858.22 2140.98 858.22 Q2139.34 858.22 2137.9 859.08 Q2136.51 859.941 2135.65 861.048 Q2134.83 862.155 2134.09 863.753 Q2133.4 865.311 2133.11 866.253 Q2132.86 867.155 2132.66 868.139 L2129.79 879.616 Q2128.39 885.068 2128.39 886.994 Q2128.39 889.371 2129.54 890.97 Q2130.69 892.528 2132.99 892.528 Q2133.89 892.528 2134.91 892.282 Q2135.94 891.995 2137.25 891.257 Q2138.6 890.478 2139.79 889.33 Q2141.02 888.142 2142.21 886.133 Q2143.4 884.125 2144.18 881.542 Q2144.42 880.641 2145.24 880.641 Q2146.27 880.641 2146.27 881.461 Q2146.27 882.157 2145.69 883.633 Q2145.16 885.068 2143.97 886.953 Q2142.82 888.798 2141.31 890.478 Q2139.79 892.118 2137.54 893.265 Q2135.28 894.413 2132.82 894.413 Q2129.3 894.413 2126.96 892.528 Q2124.62 890.642 2123.76 888.019 Q2123.56 888.388 2123.27 888.88 Q2122.98 889.371 2122.12 890.478 Q2121.3 891.544 2120.36 892.364 Q2119.42 893.142 2117.94 893.757 Q2116.51 894.413 2114.95 894.413 Q2112.98 894.413 2111.22 893.839 Q2109.5 893.265 2108.27 891.954 Q2107.04 890.642 2107.04 888.839 Q2107.04 886.83 2108.39 885.436 Q2109.79 884.002 2111.67 884.002 Q2112.86 884.002 2113.8 884.699 Q2114.79 885.395 2114.79 886.912 Q2114.79 888.593 2113.64 889.863 Q2112.49 891.134 2110.85 891.462 Q2112.53 892.528 2115.03 892.528 Q2117.74 892.528 2119.87 890.15 Q2122 887.773 2123.03 883.797 Q2125.57 874.246 2126.55 869.984 Q2127.53 865.68 2127.53 863.835 Q2127.53 862.114 2127.08 860.925 Q2126.63 859.736 2125.85 859.203 Q2125.12 858.629 2124.42 858.425 Q2123.76 858.22 2123.03 858.22 Q2121.8 858.22 2120.4 858.711 Q2119.05 859.203 2117.41 860.351 Q2115.81 861.458 2114.29 863.753 Q2112.78 866.049 2111.75 869.205 Q2111.55 870.147 2110.65 870.147 Q2109.66 870.106 2109.66 869.287 Q2109.66 868.59 2110.2 867.155 Q2110.77 865.68 2111.92 863.835 Q2113.11 861.991 2114.62 860.351 Q2116.18 858.67 2118.43 857.523 Q2120.73 856.375 2123.19 856.375 Q2124.3 856.375 2125.36 856.621 Q2126.47 856.826 2127.78 857.441 Q2129.13 858.056 2130.32 859.408 Q2131.51 860.761 2132.25 862.728 Q2132.74 861.786 2133.4 860.884 Q2134.09 859.982 2135.16 858.875 Q2136.26 857.728 2137.78 857.072 Q2139.34 856.375 2141.06 856.375 Q2142.74 856.375 2144.38 856.826 Q2146.02 857.236 2147.41 858.588 Q2148.85 859.9 2148.85 861.909 Z" fill="#000000" fill-rule="evenodd" fill-opacity="1" /><path clip-path="url(#clip470)" d="M2157.41 868.365 Q2157.41 867.303 2157.49 866.988 Q2157.61 866.672 2158.07 866.184 L2169.34 853.617 Q2175.51 846.673 2175.51 840.619 Q2175.51 836.688 2173.44 833.876 Q2171.41 831.065 2167.65 831.065 Q2165.07 831.065 2162.89 832.643 Q2160.71 834.221 2159.7 837.033 Q2159.87 836.975 2160.48 836.975 Q2161.94 836.975 2162.74 837.893 Q2163.57 838.811 2163.57 840.045 Q2163.57 841.623 2162.54 842.398 Q2161.54 843.144 2160.53 843.144 Q2160.13 843.144 2159.59 843.058 Q2159.07 842.972 2158.24 842.169 Q2157.41 841.336 2157.41 839.873 Q2157.41 835.77 2160.5 832.499 Q2163.63 829.228 2168.39 829.228 Q2173.79 829.228 2177.32 832.442 Q2180.88 835.627 2180.88 840.619 Q2180.88 842.369 2180.33 843.976 Q2179.81 845.554 2179.1 846.788 Q2178.41 848.022 2176.51 850.002 Q2174.62 851.981 2173.1 853.387 Q2171.58 854.793 2168.17 857.777 L2161.94 863.831 L2172.53 863.831 Q2177.69 863.831 2178.09 863.372 Q2178.67 862.54 2179.38 858.15 L2180.88 858.15 L2179.21 868.365 L2157.41 868.365 Z" fill="#000000" fill-rule="evenodd" fill-opacity="1" /></svg>
