<?xml version="1.0" encoding="utf-8"?>
<svg xmlns="http://www.w3.org/2000/svg" xmlns:xlink="http://www.w3.org/1999/xlink" width="600" height="400" viewBox="0 0 2400 1600">
<defs>
  <clipPath id="clip030">
    <rect x="0" y="0" width="2400" height="1600"/>
  </clipPath>
</defs>
<path clip-path="url(#clip030)" d="
M0 1600 L2400 1600 L2400 0 L0 0  Z
  " fill="#ffffff" fill-rule="evenodd" fill-opacity="1"/>
<defs>
  <clipPath id="clip031">
    <rect x="480" y="0" width="1681" height="1600"/>
  </clipPath>
</defs>
<path clip-path="url(#clip030)" d="
M156.598 1486.45 L1868.27 1486.45 L1868.27 123.472 L156.598 123.472  Z
  " fill="#ffffff" fill-rule="evenodd" fill-opacity="1"/>
<defs>
  <clipPath id="clip032">
    <rect x="156" y="123" width="1713" height="1364"/>
  </clipPath>
</defs>
<polyline clip-path="url(#clip032)" style="stroke:#000000; stroke-linecap:butt; stroke-linejoin:round; stroke-width:2; stroke-opacity:0.1; fill:none" points="
  339.607,1486.45 339.607,123.472 
  "/>
<polyline clip-path="url(#clip032)" style="stroke:#000000; stroke-linecap:butt; stroke-linejoin:round; stroke-width:2; stroke-opacity:0.1; fill:none" points="
  676.019,1486.45 676.019,123.472 
  "/>
<polyline clip-path="url(#clip032)" style="stroke:#000000; stroke-linecap:butt; stroke-linejoin:round; stroke-width:2; stroke-opacity:0.1; fill:none" points="
  1012.43,1486.45 1012.43,123.472 
  "/>
<polyline clip-path="url(#clip032)" style="stroke:#000000; stroke-linecap:butt; stroke-linejoin:round; stroke-width:2; stroke-opacity:0.1; fill:none" points="
  1348.84,1486.45 1348.84,123.472 
  "/>
<polyline clip-path="url(#clip032)" style="stroke:#000000; stroke-linecap:butt; stroke-linejoin:round; stroke-width:2; stroke-opacity:0.1; fill:none" points="
  1685.26,1486.45 1685.26,123.472 
  "/>
<polyline clip-path="url(#clip030)" style="stroke:#000000; stroke-linecap:butt; stroke-linejoin:round; stroke-width:4; stroke-opacity:1; fill:none" points="
  156.598,1486.45 1868.27,1486.45 
  "/>
<polyline clip-path="url(#clip030)" style="stroke:#000000; stroke-linecap:butt; stroke-linejoin:round; stroke-width:4; stroke-opacity:1; fill:none" points="
  339.607,1486.45 339.607,1467.55 
  "/>
<polyline clip-path="url(#clip030)" style="stroke:#000000; stroke-linecap:butt; stroke-linejoin:round; stroke-width:4; stroke-opacity:1; fill:none" points="
  676.019,1486.45 676.019,1467.55 
  "/>
<polyline clip-path="url(#clip030)" style="stroke:#000000; stroke-linecap:butt; stroke-linejoin:round; stroke-width:4; stroke-opacity:1; fill:none" points="
  1012.43,1486.45 1012.43,1467.55 
  "/>
<polyline clip-path="url(#clip030)" style="stroke:#000000; stroke-linecap:butt; stroke-linejoin:round; stroke-width:4; stroke-opacity:1; fill:none" points="
  1348.84,1486.45 1348.84,1467.55 
  "/>
<polyline clip-path="url(#clip030)" style="stroke:#000000; stroke-linecap:butt; stroke-linejoin:round; stroke-width:4; stroke-opacity:1; fill:none" points="
  1685.26,1486.45 1685.26,1467.55 
  "/>
<path clip-path="url(#clip030)" d="M286.135 1532.02 L315.811 1532.02 L315.811 1535.95 L286.135 1535.95 L286.135 1532.02 Z" fill="#000000" fill-rule="evenodd" fill-opacity="1" /><path clip-path="url(#clip030)" d="M326.713 1544.91 L334.352 1544.91 L334.352 1518.55 L326.042 1520.21 L326.042 1515.95 L334.306 1514.29 L338.982 1514.29 L338.982 1544.91 L346.621 1544.91 L346.621 1548.85 L326.713 1548.85 L326.713 1544.91 Z" fill="#000000" fill-rule="evenodd" fill-opacity="1" /><path clip-path="url(#clip030)" d="M356.065 1542.97 L360.949 1542.97 L360.949 1548.85 L356.065 1548.85 L356.065 1542.97 Z" fill="#000000" fill-rule="evenodd" fill-opacity="1" /><path clip-path="url(#clip030)" d="M381.134 1517.37 Q377.523 1517.37 375.694 1520.93 Q373.889 1524.47 373.889 1531.6 Q373.889 1538.71 375.694 1542.27 Q377.523 1545.82 381.134 1545.82 Q384.768 1545.82 386.574 1542.27 Q388.403 1538.71 388.403 1531.6 Q388.403 1524.47 386.574 1520.93 Q384.768 1517.37 381.134 1517.37 M381.134 1513.66 Q386.944 1513.66 390 1518.27 Q393.079 1522.85 393.079 1531.6 Q393.079 1540.33 390 1544.94 Q386.944 1549.52 381.134 1549.52 Q375.324 1549.52 372.245 1544.94 Q369.19 1540.33 369.19 1531.6 Q369.19 1522.85 372.245 1518.27 Q375.324 1513.66 381.134 1513.66 Z" fill="#000000" fill-rule="evenodd" fill-opacity="1" /><path clip-path="url(#clip030)" d="M623.045 1532.02 L652.721 1532.02 L652.721 1535.95 L623.045 1535.95 L623.045 1532.02 Z" fill="#000000" fill-rule="evenodd" fill-opacity="1" /><path clip-path="url(#clip030)" d="M672.813 1517.37 Q669.202 1517.37 667.373 1520.93 Q665.568 1524.47 665.568 1531.6 Q665.568 1538.71 667.373 1542.27 Q669.202 1545.82 672.813 1545.82 Q676.448 1545.82 678.253 1542.27 Q680.082 1538.71 680.082 1531.6 Q680.082 1524.47 678.253 1520.93 Q676.448 1517.37 672.813 1517.37 M672.813 1513.66 Q678.623 1513.66 681.679 1518.27 Q684.758 1522.85 684.758 1531.6 Q684.758 1540.33 681.679 1544.94 Q678.623 1549.52 672.813 1549.52 Q667.003 1549.52 663.924 1544.94 Q660.869 1540.33 660.869 1531.6 Q660.869 1522.85 663.924 1518.27 Q667.003 1513.66 672.813 1513.66 Z" fill="#000000" fill-rule="evenodd" fill-opacity="1" /><path clip-path="url(#clip030)" d="M692.975 1542.97 L697.859 1542.97 L697.859 1548.85 L692.975 1548.85 L692.975 1542.97 Z" fill="#000000" fill-rule="evenodd" fill-opacity="1" /><path clip-path="url(#clip030)" d="M708.091 1514.29 L726.447 1514.29 L726.447 1518.22 L712.373 1518.22 L712.373 1526.7 Q713.392 1526.35 714.41 1526.19 Q715.429 1526 716.447 1526 Q722.234 1526 725.614 1529.17 Q728.994 1532.34 728.994 1537.76 Q728.994 1543.34 725.521 1546.44 Q722.049 1549.52 715.73 1549.52 Q713.554 1549.52 711.285 1549.15 Q709.04 1548.78 706.633 1548.04 L706.633 1543.34 Q708.716 1544.47 710.938 1545.03 Q713.16 1545.58 715.637 1545.58 Q719.642 1545.58 721.98 1543.48 Q724.318 1541.37 724.318 1537.76 Q724.318 1534.15 721.98 1532.04 Q719.642 1529.94 715.637 1529.94 Q713.762 1529.94 711.887 1530.35 Q710.035 1530.77 708.091 1531.65 L708.091 1514.29 Z" fill="#000000" fill-rule="evenodd" fill-opacity="1" /><path clip-path="url(#clip030)" d="M989.816 1517.37 Q986.205 1517.37 984.376 1520.93 Q982.571 1524.47 982.571 1531.6 Q982.571 1538.71 984.376 1542.27 Q986.205 1545.82 989.816 1545.82 Q993.45 1545.82 995.256 1542.27 Q997.085 1538.71 997.085 1531.6 Q997.085 1524.47 995.256 1520.93 Q993.45 1517.37 989.816 1517.37 M989.816 1513.66 Q995.626 1513.66 998.682 1518.27 Q1001.76 1522.85 1001.76 1531.6 Q1001.76 1540.33 998.682 1544.94 Q995.626 1549.52 989.816 1549.52 Q984.006 1549.52 980.927 1544.94 Q977.872 1540.33 977.872 1531.6 Q977.872 1522.85 980.927 1518.27 Q984.006 1513.66 989.816 1513.66 Z" fill="#000000" fill-rule="evenodd" fill-opacity="1" /><path clip-path="url(#clip030)" d="M1009.98 1542.97 L1014.86 1542.97 L1014.86 1548.85 L1009.98 1548.85 L1009.98 1542.97 Z" fill="#000000" fill-rule="evenodd" fill-opacity="1" /><path clip-path="url(#clip030)" d="M1035.05 1517.37 Q1031.44 1517.37 1029.61 1520.93 Q1027.8 1524.47 1027.8 1531.6 Q1027.8 1538.71 1029.61 1542.27 Q1031.44 1545.82 1035.05 1545.82 Q1038.68 1545.82 1040.49 1542.27 Q1042.32 1538.71 1042.32 1531.6 Q1042.32 1524.47 1040.49 1520.93 Q1038.68 1517.37 1035.05 1517.37 M1035.05 1513.66 Q1040.86 1513.66 1043.91 1518.27 Q1046.99 1522.85 1046.99 1531.6 Q1046.99 1540.33 1043.91 1544.94 Q1040.86 1549.52 1035.05 1549.52 Q1029.24 1549.52 1026.16 1544.94 Q1023.1 1540.33 1023.1 1531.6 Q1023.1 1522.85 1026.16 1518.27 Q1029.24 1513.66 1035.05 1513.66 Z" fill="#000000" fill-rule="evenodd" fill-opacity="1" /><path clip-path="url(#clip030)" d="M1326.73 1517.37 Q1323.12 1517.37 1321.29 1520.93 Q1319.48 1524.47 1319.48 1531.6 Q1319.48 1538.71 1321.29 1542.27 Q1323.12 1545.82 1326.73 1545.82 Q1330.36 1545.82 1332.17 1542.27 Q1334 1538.71 1334 1531.6 Q1334 1524.47 1332.17 1520.93 Q1330.36 1517.37 1326.73 1517.37 M1326.73 1513.66 Q1332.54 1513.66 1335.59 1518.27 Q1338.67 1522.85 1338.67 1531.6 Q1338.67 1540.33 1335.59 1544.94 Q1332.54 1549.52 1326.73 1549.52 Q1320.92 1549.52 1317.84 1544.94 Q1314.78 1540.33 1314.78 1531.6 Q1314.78 1522.85 1317.84 1518.27 Q1320.92 1513.66 1326.73 1513.66 Z" fill="#000000" fill-rule="evenodd" fill-opacity="1" /><path clip-path="url(#clip030)" d="M1346.89 1542.97 L1351.77 1542.97 L1351.77 1548.85 L1346.89 1548.85 L1346.89 1542.97 Z" fill="#000000" fill-rule="evenodd" fill-opacity="1" /><path clip-path="url(#clip030)" d="M1362 1514.29 L1380.36 1514.29 L1380.36 1518.22 L1366.29 1518.22 L1366.29 1526.7 Q1367.31 1526.35 1368.32 1526.19 Q1369.34 1526 1370.36 1526 Q1376.15 1526 1379.53 1529.17 Q1382.91 1532.34 1382.91 1537.76 Q1382.91 1543.34 1379.43 1546.44 Q1375.96 1549.52 1369.64 1549.52 Q1367.47 1549.52 1365.2 1549.15 Q1362.95 1548.78 1360.55 1548.04 L1360.55 1543.34 Q1362.63 1544.47 1364.85 1545.03 Q1367.07 1545.58 1369.55 1545.58 Q1373.55 1545.58 1375.89 1543.48 Q1378.23 1541.37 1378.23 1537.76 Q1378.23 1534.15 1375.89 1532.04 Q1373.55 1529.94 1369.55 1529.94 Q1367.68 1529.94 1365.8 1530.35 Q1363.95 1530.77 1362 1531.65 L1362 1514.29 Z" fill="#000000" fill-rule="evenodd" fill-opacity="1" /><path clip-path="url(#clip030)" d="M1652.41 1544.91 L1660.05 1544.91 L1660.05 1518.55 L1651.74 1520.21 L1651.74 1515.95 L1660 1514.29 L1664.68 1514.29 L1664.68 1544.91 L1672.32 1544.91 L1672.32 1548.85 L1652.41 1548.85 L1652.41 1544.91 Z" fill="#000000" fill-rule="evenodd" fill-opacity="1" /><path clip-path="url(#clip030)" d="M1681.76 1542.97 L1686.65 1542.97 L1686.65 1548.85 L1681.76 1548.85 L1681.76 1542.97 Z" fill="#000000" fill-rule="evenodd" fill-opacity="1" /><path clip-path="url(#clip030)" d="M1706.83 1517.37 Q1703.22 1517.37 1701.39 1520.93 Q1699.59 1524.47 1699.59 1531.6 Q1699.59 1538.71 1701.39 1542.27 Q1703.22 1545.82 1706.83 1545.82 Q1710.47 1545.82 1712.27 1542.27 Q1714.1 1538.71 1714.1 1531.6 Q1714.1 1524.47 1712.27 1520.93 Q1710.47 1517.37 1706.83 1517.37 M1706.83 1513.66 Q1712.64 1513.66 1715.7 1518.27 Q1718.78 1522.85 1718.78 1531.6 Q1718.78 1540.33 1715.7 1544.94 Q1712.64 1549.52 1706.83 1549.52 Q1701.02 1549.52 1697.94 1544.94 Q1694.89 1540.33 1694.89 1531.6 Q1694.89 1522.85 1697.94 1518.27 Q1701.02 1513.66 1706.83 1513.66 Z" fill="#000000" fill-rule="evenodd" fill-opacity="1" /><polyline clip-path="url(#clip032)" style="stroke:#000000; stroke-linecap:butt; stroke-linejoin:round; stroke-width:2; stroke-opacity:0.1; fill:none" points="
  156.598,1469.3 1868.27,1469.3 
  "/>
<polyline clip-path="url(#clip032)" style="stroke:#000000; stroke-linecap:butt; stroke-linejoin:round; stroke-width:2; stroke-opacity:0.1; fill:none" points="
  156.598,1251.43 1868.27,1251.43 
  "/>
<polyline clip-path="url(#clip032)" style="stroke:#000000; stroke-linecap:butt; stroke-linejoin:round; stroke-width:2; stroke-opacity:0.1; fill:none" points="
  156.598,1033.55 1868.27,1033.55 
  "/>
<polyline clip-path="url(#clip032)" style="stroke:#000000; stroke-linecap:butt; stroke-linejoin:round; stroke-width:2; stroke-opacity:0.1; fill:none" points="
  156.598,815.675 1868.27,815.675 
  "/>
<polyline clip-path="url(#clip032)" style="stroke:#000000; stroke-linecap:butt; stroke-linejoin:round; stroke-width:2; stroke-opacity:0.1; fill:none" points="
  156.598,597.799 1868.27,597.799 
  "/>
<polyline clip-path="url(#clip032)" style="stroke:#000000; stroke-linecap:butt; stroke-linejoin:round; stroke-width:2; stroke-opacity:0.1; fill:none" points="
  156.598,379.923 1868.27,379.923 
  "/>
<polyline clip-path="url(#clip032)" style="stroke:#000000; stroke-linecap:butt; stroke-linejoin:round; stroke-width:2; stroke-opacity:0.1; fill:none" points="
  156.598,162.047 1868.27,162.047 
  "/>
<polyline clip-path="url(#clip030)" style="stroke:#000000; stroke-linecap:butt; stroke-linejoin:round; stroke-width:4; stroke-opacity:1; fill:none" points="
  156.598,1486.45 156.598,123.472 
  "/>
<polyline clip-path="url(#clip030)" style="stroke:#000000; stroke-linecap:butt; stroke-linejoin:round; stroke-width:4; stroke-opacity:1; fill:none" points="
  156.598,1469.3 171.327,1469.3 
  "/>
<polyline clip-path="url(#clip030)" style="stroke:#000000; stroke-linecap:butt; stroke-linejoin:round; stroke-width:4; stroke-opacity:1; fill:none" points="
  156.598,1251.43 171.327,1251.43 
  "/>
<polyline clip-path="url(#clip030)" style="stroke:#000000; stroke-linecap:butt; stroke-linejoin:round; stroke-width:4; stroke-opacity:1; fill:none" points="
  156.598,1033.55 171.327,1033.55 
  "/>
<polyline clip-path="url(#clip030)" style="stroke:#000000; stroke-linecap:butt; stroke-linejoin:round; stroke-width:4; stroke-opacity:1; fill:none" points="
  156.598,815.675 171.327,815.675 
  "/>
<polyline clip-path="url(#clip030)" style="stroke:#000000; stroke-linecap:butt; stroke-linejoin:round; stroke-width:4; stroke-opacity:1; fill:none" points="
  156.598,597.799 171.327,597.799 
  "/>
<polyline clip-path="url(#clip030)" style="stroke:#000000; stroke-linecap:butt; stroke-linejoin:round; stroke-width:4; stroke-opacity:1; fill:none" points="
  156.598,379.923 171.327,379.923 
  "/>
<polyline clip-path="url(#clip030)" style="stroke:#000000; stroke-linecap:butt; stroke-linejoin:round; stroke-width:4; stroke-opacity:1; fill:none" points="
  156.598,162.047 171.327,162.047 
  "/>
<path clip-path="url(#clip030)" d="M62.9365 1455.1 Q59.3254 1455.1 57.4967 1458.67 Q55.6912 1462.21 55.6912 1469.34 Q55.6912 1476.44 57.4967 1480.01 Q59.3254 1483.55 62.9365 1483.55 Q66.5707 1483.55 68.3763 1480.01 Q70.205 1476.44 70.205 1469.34 Q70.205 1462.21 68.3763 1458.67 Q66.5707 1455.1 62.9365 1455.1 M62.9365 1451.4 Q68.7467 1451.4 71.8022 1456 Q74.8809 1460.59 74.8809 1469.34 Q74.8809 1478.07 71.8022 1482.67 Q68.7467 1487.25 62.9365 1487.25 Q57.1264 1487.25 54.0477 1482.67 Q50.9921 1478.07 50.9921 1469.34 Q50.9921 1460.59 54.0477 1456 Q57.1264 1451.4 62.9365 1451.4 Z" fill="#000000" fill-rule="evenodd" fill-opacity="1" /><path clip-path="url(#clip030)" d="M83.0984 1480.7 L87.9827 1480.7 L87.9827 1486.58 L83.0984 1486.58 L83.0984 1480.7 Z" fill="#000000" fill-rule="evenodd" fill-opacity="1" /><path clip-path="url(#clip030)" d="M111.015 1456.1 L99.2095 1474.55 L111.015 1474.55 L111.015 1456.1 M109.788 1452.02 L115.668 1452.02 L115.668 1474.55 L120.598 1474.55 L120.598 1478.44 L115.668 1478.44 L115.668 1486.58 L111.015 1486.58 L111.015 1478.44 L95.4132 1478.44 L95.4132 1473.92 L109.788 1452.02 Z" fill="#000000" fill-rule="evenodd" fill-opacity="1" /><path clip-path="url(#clip030)" d="M64.418 1237.23 Q60.8069 1237.23 58.9782 1240.79 Q57.1726 1244.33 57.1726 1251.46 Q57.1726 1258.57 58.9782 1262.13 Q60.8069 1265.68 64.418 1265.68 Q68.0522 1265.68 69.8578 1262.13 Q71.6865 1258.57 71.6865 1251.46 Q71.6865 1244.33 69.8578 1240.79 Q68.0522 1237.23 64.418 1237.23 M64.418 1233.52 Q70.2281 1233.52 73.2837 1238.13 Q76.3624 1242.71 76.3624 1251.46 Q76.3624 1260.19 73.2837 1264.8 Q70.2281 1269.38 64.418 1269.38 Q58.6078 1269.38 55.5291 1264.8 Q52.4736 1260.19 52.4736 1251.46 Q52.4736 1242.71 55.5291 1238.13 Q58.6078 1233.52 64.418 1233.52 Z" fill="#000000" fill-rule="evenodd" fill-opacity="1" /><path clip-path="url(#clip030)" d="M84.5799 1262.83 L89.4641 1262.83 L89.4641 1268.71 L84.5799 1268.71 L84.5799 1262.83 Z" fill="#000000" fill-rule="evenodd" fill-opacity="1" /><path clip-path="url(#clip030)" d="M99.6956 1234.15 L118.052 1234.15 L118.052 1238.08 L103.978 1238.08 L103.978 1246.55 Q104.996 1246.21 106.015 1246.05 Q107.033 1245.86 108.052 1245.86 Q113.839 1245.86 117.219 1249.03 Q120.598 1252.2 120.598 1257.62 Q120.598 1263.2 117.126 1266.3 Q113.654 1269.38 107.334 1269.38 Q105.159 1269.38 102.89 1269.01 Q100.645 1268.64 98.2372 1267.9 L98.2372 1263.2 Q100.321 1264.33 102.543 1264.89 Q104.765 1265.44 107.242 1265.44 Q111.246 1265.44 113.584 1263.34 Q115.922 1261.23 115.922 1257.62 Q115.922 1254.01 113.584 1251.9 Q111.246 1249.8 107.242 1249.8 Q105.367 1249.8 103.492 1250.21 Q101.64 1250.63 99.6956 1251.51 L99.6956 1234.15 Z" fill="#000000" fill-rule="evenodd" fill-opacity="1" /><path clip-path="url(#clip030)" d="M63.2606 1019.35 Q59.6495 1019.35 57.8208 1022.91 Q56.0152 1026.46 56.0152 1033.59 Q56.0152 1040.69 57.8208 1044.26 Q59.6495 1047.8 63.2606 1047.8 Q66.8948 1047.8 68.7004 1044.26 Q70.5291 1040.69 70.5291 1033.59 Q70.5291 1026.46 68.7004 1022.91 Q66.8948 1019.35 63.2606 1019.35 M63.2606 1015.65 Q69.0707 1015.65 72.1263 1020.25 Q75.205 1024.84 75.205 1033.59 Q75.205 1042.31 72.1263 1046.92 Q69.0707 1051.5 63.2606 1051.5 Q57.4504 1051.5 54.3717 1046.92 Q51.3162 1042.31 51.3162 1033.59 Q51.3162 1024.84 54.3717 1020.25 Q57.4504 1015.65 63.2606 1015.65 Z" fill="#000000" fill-rule="evenodd" fill-opacity="1" /><path clip-path="url(#clip030)" d="M83.4225 1044.95 L88.3067 1044.95 L88.3067 1050.83 L83.4225 1050.83 L83.4225 1044.95 Z" fill="#000000" fill-rule="evenodd" fill-opacity="1" /><path clip-path="url(#clip030)" d="M109.071 1031.69 Q105.922 1031.69 104.071 1033.84 Q102.242 1035.99 102.242 1039.74 Q102.242 1043.47 104.071 1045.65 Q105.922 1047.8 109.071 1047.8 Q112.219 1047.8 114.047 1045.65 Q115.899 1043.47 115.899 1039.74 Q115.899 1035.99 114.047 1033.84 Q112.219 1031.69 109.071 1031.69 M118.353 1017.04 L118.353 1021.29 Q116.594 1020.46 114.788 1020.02 Q113.006 1019.58 111.246 1019.58 Q106.617 1019.58 104.163 1022.71 Q101.733 1025.83 101.385 1032.15 Q102.751 1030.14 104.811 1029.07 Q106.871 1027.98 109.348 1027.98 Q114.557 1027.98 117.566 1031.16 Q120.598 1034.3 120.598 1039.74 Q120.598 1045.07 117.45 1048.29 Q114.302 1051.5 109.071 1051.5 Q103.075 1051.5 99.9039 1046.92 Q96.7326 1042.31 96.7326 1033.59 Q96.7326 1025.39 100.621 1020.53 Q104.51 1015.65 111.061 1015.65 Q112.82 1015.65 114.603 1015.99 Q116.408 1016.34 118.353 1017.04 Z" fill="#000000" fill-rule="evenodd" fill-opacity="1" /><path clip-path="url(#clip030)" d="M64.3254 801.474 Q60.7143 801.474 58.8856 805.039 Q57.0801 808.58 57.0801 815.71 Q57.0801 822.816 58.8856 826.381 Q60.7143 829.923 64.3254 829.923 Q67.9596 829.923 69.7652 826.381 Q71.5939 822.816 71.5939 815.71 Q71.5939 808.58 69.7652 805.039 Q67.9596 801.474 64.3254 801.474 M64.3254 797.77 Q70.1355 797.77 73.1911 802.377 Q76.2698 806.96 76.2698 815.71 Q76.2698 824.437 73.1911 829.043 Q70.1355 833.627 64.3254 833.627 Q58.5152 833.627 55.4365 829.043 Q52.381 824.437 52.381 815.71 Q52.381 806.96 55.4365 802.377 Q58.5152 797.77 64.3254 797.77 Z" fill="#000000" fill-rule="evenodd" fill-opacity="1" /><path clip-path="url(#clip030)" d="M84.4873 827.076 L89.3715 827.076 L89.3715 832.955 L84.4873 832.955 L84.4873 827.076 Z" fill="#000000" fill-rule="evenodd" fill-opacity="1" /><path clip-path="url(#clip030)" d="M98.3761 798.395 L120.598 798.395 L120.598 800.386 L108.052 832.955 L103.168 832.955 L114.973 802.33 L98.3761 802.33 L98.3761 798.395 Z" fill="#000000" fill-rule="evenodd" fill-opacity="1" /><path clip-path="url(#clip030)" d="M63.5152 583.598 Q59.9041 583.598 58.0754 587.163 Q56.2699 590.704 56.2699 597.834 Q56.2699 604.94 58.0754 608.505 Q59.9041 612.047 63.5152 612.047 Q67.1494 612.047 68.955 608.505 Q70.7837 604.94 70.7837 597.834 Q70.7837 590.704 68.955 587.163 Q67.1494 583.598 63.5152 583.598 M63.5152 579.894 Q69.3254 579.894 72.3809 584.501 Q75.4596 589.084 75.4596 597.834 Q75.4596 606.561 72.3809 611.167 Q69.3254 615.75 63.5152 615.75 Q57.7051 615.75 54.6264 611.167 Q51.5708 606.561 51.5708 597.834 Q51.5708 589.084 54.6264 584.501 Q57.7051 579.894 63.5152 579.894 Z" fill="#000000" fill-rule="evenodd" fill-opacity="1" /><path clip-path="url(#clip030)" d="M83.6771 609.2 L88.5614 609.2 L88.5614 615.079 L83.6771 615.079 L83.6771 609.2 Z" fill="#000000" fill-rule="evenodd" fill-opacity="1" /><path clip-path="url(#clip030)" d="M108.746 598.667 Q105.413 598.667 103.492 600.45 Q101.594 602.232 101.594 605.357 Q101.594 608.482 103.492 610.264 Q105.413 612.047 108.746 612.047 Q112.08 612.047 114.001 610.264 Q115.922 608.459 115.922 605.357 Q115.922 602.232 114.001 600.45 Q112.103 598.667 108.746 598.667 M104.071 596.676 Q101.061 595.936 99.3715 593.876 Q97.7048 591.815 97.7048 588.852 Q97.7048 584.709 100.645 582.302 Q103.608 579.894 108.746 579.894 Q113.908 579.894 116.848 582.302 Q119.788 584.709 119.788 588.852 Q119.788 591.815 118.098 593.876 Q116.432 595.936 113.445 596.676 Q116.825 597.463 118.7 599.755 Q120.598 602.047 120.598 605.357 Q120.598 610.38 117.52 613.065 Q114.464 615.75 108.746 615.75 Q103.029 615.75 99.9502 613.065 Q96.8947 610.38 96.8947 605.357 Q96.8947 602.047 98.7928 599.755 Q100.691 597.463 104.071 596.676 M102.358 589.292 Q102.358 591.977 104.024 593.482 Q105.714 594.987 108.746 594.987 Q111.756 594.987 113.445 593.482 Q115.158 591.977 115.158 589.292 Q115.158 586.607 113.445 585.102 Q111.756 583.598 108.746 583.598 Q105.714 583.598 104.024 585.102 Q102.358 586.607 102.358 589.292 Z" fill="#000000" fill-rule="evenodd" fill-opacity="1" /><path clip-path="url(#clip030)" d="M63.6078 365.722 Q59.9967 365.722 58.168 369.286 Q56.3625 372.828 56.3625 379.958 Q56.3625 387.064 58.168 390.629 Q59.9967 394.171 63.6078 394.171 Q67.242 394.171 69.0476 390.629 Q70.8763 387.064 70.8763 379.958 Q70.8763 372.828 69.0476 369.286 Q67.242 365.722 63.6078 365.722 M63.6078 362.018 Q69.418 362.018 72.4735 366.624 Q75.5522 371.208 75.5522 379.958 Q75.5522 388.685 72.4735 393.291 Q69.418 397.874 63.6078 397.874 Q57.7976 397.874 54.719 393.291 Q51.6634 388.685 51.6634 379.958 Q51.6634 371.208 54.719 366.624 Q57.7976 362.018 63.6078 362.018 Z" fill="#000000" fill-rule="evenodd" fill-opacity="1" /><path clip-path="url(#clip030)" d="M83.7697 391.323 L88.654 391.323 L88.654 397.203 L83.7697 397.203 L83.7697 391.323 Z" fill="#000000" fill-rule="evenodd" fill-opacity="1" /><path clip-path="url(#clip030)" d="M98.978 396.485 L98.978 392.226 Q100.737 393.06 102.543 393.499 Q104.348 393.939 106.084 393.939 Q110.714 393.939 113.145 390.837 Q115.598 387.712 115.945 381.37 Q114.603 383.36 112.543 384.425 Q110.483 385.49 107.983 385.49 Q102.797 385.49 99.765 382.365 Q96.7558 379.217 96.7558 373.777 Q96.7558 368.453 99.9039 365.236 Q103.052 362.018 108.283 362.018 Q114.279 362.018 117.427 366.624 Q120.598 371.208 120.598 379.958 Q120.598 388.129 116.709 393.013 Q112.844 397.874 106.293 397.874 Q104.534 397.874 102.728 397.527 Q100.922 397.18 98.978 396.485 M108.283 381.833 Q111.432 381.833 113.26 379.68 Q115.112 377.527 115.112 373.777 Q115.112 370.05 113.26 367.898 Q111.432 365.722 108.283 365.722 Q105.135 365.722 103.284 367.898 Q101.455 370.05 101.455 373.777 Q101.455 377.527 103.284 379.68 Q105.135 381.833 108.283 381.833 Z" fill="#000000" fill-rule="evenodd" fill-opacity="1" /><path clip-path="url(#clip030)" d="M54.2328 175.392 L61.8717 175.392 L61.8717 149.026 L53.5616 150.693 L53.5616 146.434 L61.8254 144.767 L66.5013 144.767 L66.5013 175.392 L74.1402 175.392 L74.1402 179.327 L54.2328 179.327 L54.2328 175.392 Z" fill="#000000" fill-rule="evenodd" fill-opacity="1" /><path clip-path="url(#clip030)" d="M83.5845 173.447 L88.4688 173.447 L88.4688 179.327 L83.5845 179.327 L83.5845 173.447 Z" fill="#000000" fill-rule="evenodd" fill-opacity="1" /><path clip-path="url(#clip030)" d="M108.654 147.846 Q105.043 147.846 103.214 151.41 Q101.409 154.952 101.409 162.082 Q101.409 169.188 103.214 172.753 Q105.043 176.295 108.654 176.295 Q112.288 176.295 114.094 172.753 Q115.922 169.188 115.922 162.082 Q115.922 154.952 114.094 151.41 Q112.288 147.846 108.654 147.846 M108.654 144.142 Q114.464 144.142 117.52 148.748 Q120.598 153.332 120.598 162.082 Q120.598 170.808 117.52 175.415 Q114.464 179.998 108.654 179.998 Q102.844 179.998 99.765 175.415 Q96.7095 170.808 96.7095 162.082 Q96.7095 153.332 99.765 148.748 Q102.844 144.142 108.654 144.142 Z" fill="#000000" fill-rule="evenodd" fill-opacity="1" /><path clip-path="url(#clip030)" d="M287.644 18.8205 L287.644 41.5461 L297.933 41.5461 Q303.645 41.5461 306.764 38.5889 Q309.884 35.6318 309.884 30.163 Q309.884 24.7348 306.764 21.7777 Q303.645 18.8205 297.933 18.8205 L287.644 18.8205 M279.461 12.096 L297.933 12.096 Q308.101 12.096 313.286 16.714 Q318.512 21.2916 318.512 30.163 Q318.512 39.1155 313.286 43.6931 Q308.101 48.2706 297.933 48.2706 L287.644 48.2706 L287.644 72.576 L279.461 72.576 L279.461 12.096 Z" fill="#000000" fill-rule="evenodd" fill-opacity="1" /><path clip-path="url(#clip030)" d="M353.998 34.1734 Q352.742 33.4443 351.243 33.1202 Q349.785 32.7556 348.003 32.7556 Q341.683 32.7556 338.28 36.8875 Q334.918 40.9789 334.918 48.6757 L334.918 72.576 L327.424 72.576 L327.424 27.2059 L334.918 27.2059 L334.918 34.2544 Q337.268 30.1225 341.035 28.1376 Q344.802 26.1121 350.19 26.1121 Q350.96 26.1121 351.891 26.2337 Q352.823 26.3147 353.957 26.5172 L353.998 34.1734 Z" fill="#000000" fill-rule="evenodd" fill-opacity="1" /><path clip-path="url(#clip030)" d="M377.574 32.4315 Q371.579 32.4315 368.095 37.1306 Q364.611 41.7891 364.611 49.9314 Q364.611 58.0738 368.055 62.7728 Q371.538 67.4314 377.574 67.4314 Q383.529 67.4314 387.013 62.7323 Q390.497 58.0333 390.497 49.9314 Q390.497 41.8701 387.013 37.1711 Q383.529 32.4315 377.574 32.4315 M377.574 26.1121 Q387.296 26.1121 392.846 32.4315 Q398.396 38.7509 398.396 49.9314 Q398.396 61.0714 392.846 67.4314 Q387.296 73.7508 377.574 73.7508 Q367.811 73.7508 362.262 67.4314 Q356.753 61.0714 356.753 49.9314 Q356.753 38.7509 362.262 32.4315 Q367.811 26.1121 377.574 26.1121 Z" fill="#000000" fill-rule="evenodd" fill-opacity="1" /><path clip-path="url(#clip030)" d="M443.32 49.9314 Q443.32 41.7081 439.918 37.0496 Q436.555 32.3505 430.641 32.3505 Q424.727 32.3505 421.324 37.0496 Q417.962 41.7081 417.962 49.9314 Q417.962 58.1548 421.324 62.8538 Q424.727 67.5124 430.641 67.5124 Q436.555 67.5124 439.918 62.8538 Q443.32 58.1548 443.32 49.9314 M417.962 34.0924 Q420.311 30.0415 423.876 28.0971 Q427.481 26.1121 432.464 26.1121 Q440.728 26.1121 445.872 32.6746 Q451.058 39.2371 451.058 49.9314 Q451.058 60.6258 445.872 67.1883 Q440.728 73.7508 432.464 73.7508 Q427.481 73.7508 423.876 71.8063 Q420.311 69.8214 417.962 65.7705 L417.962 72.576 L410.468 72.576 L410.468 9.54393 L417.962 9.54393 L417.962 34.0924 Z" fill="#000000" fill-rule="evenodd" fill-opacity="1" /><path clip-path="url(#clip030)" d="M463.413 9.54393 L470.866 9.54393 L470.866 72.576 L463.413 72.576 L463.413 9.54393 Z" fill="#000000" fill-rule="evenodd" fill-opacity="1" /><path clip-path="url(#clip030)" d="M525.27 48.0275 L525.27 51.6733 L490.999 51.6733 Q491.486 59.3701 495.618 63.421 Q499.79 67.4314 507.203 67.4314 Q511.497 67.4314 515.507 66.3781 Q519.558 65.3249 523.528 63.2184 L523.528 70.267 Q519.518 71.9684 515.305 72.8596 Q511.092 73.7508 506.757 73.7508 Q495.901 73.7508 489.541 67.4314 Q483.222 61.1119 483.222 50.3365 Q483.222 39.1965 489.217 32.6746 Q495.253 26.1121 505.461 26.1121 Q514.616 26.1121 519.923 32.0264 Q525.27 37.9003 525.27 48.0275 M517.816 45.84 Q517.735 39.7232 514.373 36.0774 Q511.051 32.4315 505.542 32.4315 Q499.304 32.4315 495.536 35.9558 Q491.81 39.4801 491.243 45.8805 L517.816 45.84 Z" fill="#000000" fill-rule="evenodd" fill-opacity="1" /><path clip-path="url(#clip030)" d="M572.828 35.9153 Q575.623 30.8922 579.512 28.5022 Q583.401 26.1121 588.667 26.1121 Q595.756 26.1121 599.604 31.0947 Q603.453 36.0368 603.453 45.1919 L603.453 72.576 L595.958 72.576 L595.958 45.4349 Q595.958 38.913 593.649 35.7533 Q591.34 32.5936 586.601 32.5936 Q580.808 32.5936 577.446 36.4419 Q574.084 40.2903 574.084 46.9338 L574.084 72.576 L566.589 72.576 L566.589 45.4349 Q566.589 38.8725 564.28 35.7533 Q561.971 32.5936 557.151 32.5936 Q551.439 32.5936 548.077 36.4824 Q544.714 40.3308 544.714 46.9338 L544.714 72.576 L537.22 72.576 L537.22 27.2059 L544.714 27.2059 L544.714 34.2544 Q547.267 30.082 550.831 28.0971 Q554.396 26.1121 559.298 26.1121 Q564.24 26.1121 567.683 28.6237 Q571.167 31.1352 572.828 35.9153 Z" fill="#000000" fill-rule="evenodd" fill-opacity="1" /><path clip-path="url(#clip030)" d="M652.793 65.6895 L681.351 65.6895 L681.351 72.576 L642.949 72.576 L642.949 65.6895 Q647.607 60.8689 655.628 52.7671 Q663.69 44.6248 665.755 42.2752 Q669.685 37.8598 671.224 34.8216 Q672.804 31.7429 672.804 28.7857 Q672.804 23.9651 669.401 20.927 Q666.039 17.8888 660.611 17.8888 Q656.762 17.8888 652.469 19.2256 Q648.215 20.5624 643.354 23.2765 L643.354 15.0127 Q648.296 13.0277 652.59 12.015 Q656.884 11.0023 660.449 11.0023 Q669.847 11.0023 675.437 15.7013 Q681.027 20.4004 681.027 28.2591 Q681.027 31.9859 679.61 35.3482 Q678.232 38.6699 674.546 43.2069 Q673.533 44.3817 668.105 50.0125 Q662.677 55.6027 652.793 65.6895 Z" fill="#000000" fill-rule="evenodd" fill-opacity="1" /><path clip-path="url(#clip030)" d="M698.527 62.2867 L707.075 62.2867 L707.075 72.576 L698.527 72.576 L698.527 62.2867 Z" fill="#000000" fill-rule="evenodd" fill-opacity="1" /><path clip-path="url(#clip030)" d="M726.317 65.6895 L739.684 65.6895 L739.684 19.5497 L725.142 22.4663 L725.142 15.0127 L739.603 12.096 L747.786 12.096 L747.786 65.6895 L761.154 65.6895 L761.154 72.576 L726.317 72.576 L726.317 65.6895 Z" fill="#000000" fill-rule="evenodd" fill-opacity="1" /><path clip-path="url(#clip030)" d="M837.473 65.6895 L866.032 65.6895 L866.032 72.576 L827.63 72.576 L827.63 65.6895 Q832.288 60.8689 840.309 52.7671 Q848.37 44.6248 850.436 42.2752 Q854.366 37.8598 855.905 34.8216 Q857.485 31.7429 857.485 28.7857 Q857.485 23.9651 854.082 20.927 Q850.72 17.8888 845.292 17.8888 Q841.443 17.8888 837.149 19.2256 Q832.896 20.5624 828.035 23.2765 L828.035 15.0127 Q832.977 13.0277 837.271 12.015 Q841.565 11.0023 845.13 11.0023 Q854.528 11.0023 860.118 15.7013 Q865.708 20.4004 865.708 28.2591 Q865.708 31.9859 864.29 35.3482 Q862.913 38.6699 859.227 43.2069 Q858.214 44.3817 852.786 50.0125 Q847.358 55.6027 837.473 65.6895 Z" fill="#000000" fill-rule="evenodd" fill-opacity="1" /><path clip-path="url(#clip030)" d="M900.708 17.4837 Q894.389 17.4837 891.188 23.7221 Q888.029 29.92 888.029 42.3968 Q888.029 54.833 891.188 61.0714 Q894.389 67.2693 900.708 67.2693 Q907.068 67.2693 910.228 61.0714 Q913.428 54.833 913.428 42.3968 Q913.428 29.92 910.228 23.7221 Q907.068 17.4837 900.708 17.4837 M900.708 11.0023 Q910.876 11.0023 916.223 19.0636 Q921.611 27.0843 921.611 42.3968 Q921.611 57.6687 916.223 65.73 Q910.876 73.7508 900.708 73.7508 Q890.54 73.7508 885.152 65.73 Q879.805 57.6687 879.805 42.3968 Q879.805 27.0843 885.152 19.0636 Q890.54 11.0023 900.708 11.0023 Z" fill="#000000" fill-rule="evenodd" fill-opacity="1" /><path clip-path="url(#clip030)" d="M931.171 46.5287 L953.005 46.5287 L953.005 53.1722 L931.171 53.1722 L931.171 46.5287 Z" fill="#000000" fill-rule="evenodd" fill-opacity="1" /><path clip-path="url(#clip030)" d="M992.056 17.6457 Q983.144 17.6457 977.878 24.2892 Q972.652 30.9327 972.652 42.3968 Q972.652 53.8203 977.878 60.4638 Q983.144 67.1073 992.056 67.1073 Q1000.97 67.1073 1006.15 60.4638 Q1011.38 53.8203 1011.38 42.3968 Q1011.38 30.9327 1006.15 24.2892 Q1000.97 17.6457 992.056 17.6457 M992.056 11.0023 Q1004.78 11.0023 1012.39 19.5497 Q1020.01 28.0566 1020.01 42.3968 Q1020.01 56.6965 1012.39 65.2439 Q1004.78 73.7508 992.056 73.7508 Q979.295 73.7508 971.639 65.2439 Q964.024 56.737 964.024 42.3968 Q964.024 28.0566 971.639 19.5497 Q979.295 11.0023 992.056 11.0023 Z" fill="#000000" fill-rule="evenodd" fill-opacity="1" /><path clip-path="url(#clip030)" d="M1058.77 34.1734 Q1057.52 33.4443 1056.02 33.1202 Q1054.56 32.7556 1052.78 32.7556 Q1046.46 32.7556 1043.06 36.8875 Q1039.69 40.9789 1039.69 48.6757 L1039.69 72.576 L1032.2 72.576 L1032.2 27.2059 L1039.69 27.2059 L1039.69 34.2544 Q1042.04 30.1225 1045.81 28.1376 Q1049.58 26.1121 1054.97 26.1121 Q1055.74 26.1121 1056.67 26.2337 Q1057.6 26.3147 1058.73 26.5172 L1058.77 34.1734 Z" fill="#000000" fill-rule="evenodd" fill-opacity="1" /><path clip-path="url(#clip030)" d="M1094.99 34.0924 L1094.99 9.54393 L1102.44 9.54393 L1102.44 72.576 L1094.99 72.576 L1094.99 65.7705 Q1092.64 69.8214 1089.03 71.8063 Q1085.47 73.7508 1080.45 73.7508 Q1072.22 73.7508 1067.04 67.1883 Q1061.89 60.6258 1061.89 49.9314 Q1061.89 39.2371 1067.04 32.6746 Q1072.22 26.1121 1080.45 26.1121 Q1085.47 26.1121 1089.03 28.0971 Q1092.64 30.0415 1094.99 34.0924 M1069.59 49.9314 Q1069.59 58.1548 1072.95 62.8538 Q1076.36 67.5124 1082.27 67.5124 Q1088.18 67.5124 1091.59 62.8538 Q1094.99 58.1548 1094.99 49.9314 Q1094.99 41.7081 1091.59 37.0496 Q1088.18 32.3505 1082.27 32.3505 Q1076.36 32.3505 1072.95 37.0496 Q1069.59 41.7081 1069.59 49.9314 Z" fill="#000000" fill-rule="evenodd" fill-opacity="1" /><path clip-path="url(#clip030)" d="M1156.6 48.0275 L1156.6 51.6733 L1122.33 51.6733 Q1122.82 59.3701 1126.95 63.421 Q1131.12 67.4314 1138.54 67.4314 Q1142.83 67.4314 1146.84 66.3781 Q1150.89 65.3249 1154.86 63.2184 L1154.86 70.267 Q1150.85 71.9684 1146.64 72.8596 Q1142.43 73.7508 1138.09 73.7508 Q1127.23 73.7508 1120.87 67.4314 Q1114.56 61.1119 1114.56 50.3365 Q1114.56 39.1965 1120.55 32.6746 Q1126.59 26.1121 1136.79 26.1121 Q1145.95 26.1121 1151.26 32.0264 Q1156.6 37.9003 1156.6 48.0275 M1149.15 45.84 Q1149.07 39.7232 1145.71 36.0774 Q1142.38 32.4315 1136.88 32.4315 Q1130.64 32.4315 1126.87 35.9558 Q1123.14 39.4801 1122.58 45.8805 L1149.15 45.84 Z" fill="#000000" fill-rule="evenodd" fill-opacity="1" /><path clip-path="url(#clip030)" d="M1195.13 34.1734 Q1193.87 33.4443 1192.37 33.1202 Q1190.91 32.7556 1189.13 32.7556 Q1182.81 32.7556 1179.41 36.8875 Q1176.05 40.9789 1176.05 48.6757 L1176.05 72.576 L1168.55 72.576 L1168.55 27.2059 L1176.05 27.2059 L1176.05 34.2544 Q1178.4 30.1225 1182.16 28.1376 Q1185.93 26.1121 1191.32 26.1121 Q1192.09 26.1121 1193.02 26.2337 Q1193.95 26.3147 1195.09 26.5172 L1195.13 34.1734 Z" fill="#000000" fill-rule="evenodd" fill-opacity="1" /><path clip-path="url(#clip030)" d="M1229.64 12.096 L1237.82 12.096 L1237.82 72.576 L1229.64 72.576 L1229.64 12.096 Z" fill="#000000" fill-rule="evenodd" fill-opacity="1" /><path clip-path="url(#clip030)" d="M1291.5 45.1919 L1291.5 72.576 L1284.04 72.576 L1284.04 45.4349 Q1284.04 38.994 1281.53 35.7938 Q1279.02 32.5936 1274 32.5936 Q1267.96 32.5936 1264.48 36.4419 Q1261 40.2903 1261 46.9338 L1261 72.576 L1253.5 72.576 L1253.5 27.2059 L1261 27.2059 L1261 34.2544 Q1263.67 30.163 1267.27 28.1376 Q1270.92 26.1121 1275.66 26.1121 Q1283.48 26.1121 1287.49 30.9732 Q1291.5 35.7938 1291.5 45.1919 Z" fill="#000000" fill-rule="evenodd" fill-opacity="1" /><path clip-path="url(#clip030)" d="M1313.74 14.324 L1313.74 27.2059 L1329.09 27.2059 L1329.09 32.9987 L1313.74 32.9987 L1313.74 57.6282 Q1313.74 63.1779 1315.24 64.7578 Q1316.78 66.3376 1321.43 66.3376 L1329.09 66.3376 L1329.09 72.576 L1321.43 72.576 Q1312.81 72.576 1309.53 69.3758 Q1306.24 66.1351 1306.24 57.6282 L1306.24 32.9987 L1300.78 32.9987 L1300.78 27.2059 L1306.24 27.2059 L1306.24 14.324 L1313.74 14.324 Z" fill="#000000" fill-rule="evenodd" fill-opacity="1" /><path clip-path="url(#clip030)" d="M1377.7 48.0275 L1377.7 51.6733 L1343.43 51.6733 Q1343.92 59.3701 1348.05 63.421 Q1352.22 67.4314 1359.63 67.4314 Q1363.93 67.4314 1367.94 66.3781 Q1371.99 65.3249 1375.96 63.2184 L1375.96 70.267 Q1371.95 71.9684 1367.74 72.8596 Q1363.52 73.7508 1359.19 73.7508 Q1348.33 73.7508 1341.97 67.4314 Q1335.65 61.1119 1335.65 50.3365 Q1335.65 39.1965 1341.65 32.6746 Q1347.68 26.1121 1357.89 26.1121 Q1367.05 26.1121 1372.35 32.0264 Q1377.7 37.9003 1377.7 48.0275 M1370.25 45.84 Q1370.17 39.7232 1366.8 36.0774 Q1363.48 32.4315 1357.97 32.4315 Q1351.74 32.4315 1347.97 35.9558 Q1344.24 39.4801 1343.67 45.8805 L1370.25 45.84 Z" fill="#000000" fill-rule="evenodd" fill-opacity="1" /><path clip-path="url(#clip030)" d="M1416.23 34.1734 Q1414.97 33.4443 1413.47 33.1202 Q1412.01 32.7556 1410.23 32.7556 Q1403.91 32.7556 1400.51 36.8875 Q1397.15 40.9789 1397.15 48.6757 L1397.15 72.576 L1389.65 72.576 L1389.65 27.2059 L1397.15 27.2059 L1397.15 34.2544 Q1399.5 30.1225 1403.26 28.1376 Q1407.03 26.1121 1412.42 26.1121 Q1413.19 26.1121 1414.12 26.2337 Q1415.05 26.3147 1416.19 26.5172 L1416.23 34.1734 Z" fill="#000000" fill-rule="evenodd" fill-opacity="1" /><path clip-path="url(#clip030)" d="M1431.25 65.7705 L1431.25 89.8329 L1423.76 89.8329 L1423.76 27.2059 L1431.25 27.2059 L1431.25 34.0924 Q1433.6 30.0415 1437.17 28.0971 Q1440.77 26.1121 1445.76 26.1121 Q1454.02 26.1121 1459.17 32.6746 Q1464.35 39.2371 1464.35 49.9314 Q1464.35 60.6258 1459.17 67.1883 Q1454.02 73.7508 1445.76 73.7508 Q1440.77 73.7508 1437.17 71.8063 Q1433.6 69.8214 1431.25 65.7705 M1456.61 49.9314 Q1456.61 41.7081 1453.21 37.0496 Q1449.85 32.3505 1443.93 32.3505 Q1438.02 32.3505 1434.62 37.0496 Q1431.25 41.7081 1431.25 49.9314 Q1431.25 58.1548 1434.62 62.8538 Q1438.02 67.5124 1443.93 67.5124 Q1449.85 67.5124 1453.21 62.8538 Q1456.61 58.1548 1456.61 49.9314 Z" fill="#000000" fill-rule="evenodd" fill-opacity="1" /><path clip-path="url(#clip030)" d="M1494.29 32.4315 Q1488.29 32.4315 1484.81 37.1306 Q1481.32 41.7891 1481.32 49.9314 Q1481.32 58.0738 1484.77 62.7728 Q1488.25 67.4314 1494.29 67.4314 Q1500.24 67.4314 1503.73 62.7323 Q1507.21 58.0333 1507.21 49.9314 Q1507.21 41.8701 1503.73 37.1711 Q1500.24 32.4315 1494.29 32.4315 M1494.29 26.1121 Q1504.01 26.1121 1509.56 32.4315 Q1515.11 38.7509 1515.11 49.9314 Q1515.11 61.0714 1509.56 67.4314 Q1504.01 73.7508 1494.29 73.7508 Q1484.52 73.7508 1478.97 67.4314 Q1473.47 61.0714 1473.47 49.9314 Q1473.47 38.7509 1478.97 32.4315 Q1484.52 26.1121 1494.29 26.1121 Z" fill="#000000" fill-rule="evenodd" fill-opacity="1" /><path clip-path="url(#clip030)" d="M1527.46 9.54393 L1534.92 9.54393 L1534.92 72.576 L1527.46 72.576 L1527.46 9.54393 Z" fill="#000000" fill-rule="evenodd" fill-opacity="1" /><path clip-path="url(#clip030)" d="M1571.13 49.7694 Q1562.1 49.7694 1558.62 51.8354 Q1555.13 53.9013 1555.13 58.8839 Q1555.13 62.8538 1557.72 65.2034 Q1560.36 67.5124 1564.85 67.5124 Q1571.05 67.5124 1574.78 63.1374 Q1578.55 58.7219 1578.55 51.4303 L1578.55 49.7694 L1571.13 49.7694 M1586 46.6907 L1586 72.576 L1578.55 72.576 L1578.55 65.6895 Q1575.99 69.8214 1572.19 71.8063 Q1568.38 73.7508 1562.87 73.7508 Q1555.9 73.7508 1551.77 69.8619 Q1547.68 65.9325 1547.68 59.3701 Q1547.68 51.7138 1552.78 47.825 Q1557.93 43.9361 1568.09 43.9361 L1578.55 43.9361 L1578.55 43.2069 Q1578.55 38.0623 1575.14 35.2672 Q1571.78 32.4315 1565.66 32.4315 Q1561.77 32.4315 1558.09 33.3632 Q1554.4 34.295 1551 36.1584 L1551 29.2718 Q1555.09 27.692 1558.94 26.9223 Q1562.79 26.1121 1566.43 26.1121 Q1576.28 26.1121 1581.14 31.2163 Q1586 36.3204 1586 46.6907 Z" fill="#000000" fill-rule="evenodd" fill-opacity="1" /><path clip-path="url(#clip030)" d="M1608.72 14.324 L1608.72 27.2059 L1624.08 27.2059 L1624.08 32.9987 L1608.72 32.9987 L1608.72 57.6282 Q1608.72 63.1779 1610.22 64.7578 Q1611.76 66.3376 1616.42 66.3376 L1624.08 66.3376 L1624.08 72.576 L1616.42 72.576 Q1607.79 72.576 1604.51 69.3758 Q1601.23 66.1351 1601.23 57.6282 L1601.23 32.9987 L1595.76 32.9987 L1595.76 27.2059 L1601.23 27.2059 L1601.23 14.324 L1608.72 14.324 Z" fill="#000000" fill-rule="evenodd" fill-opacity="1" /><path clip-path="url(#clip030)" d="M1633.88 27.2059 L1641.33 27.2059 L1641.33 72.576 L1633.88 72.576 L1633.88 27.2059 M1633.88 9.54393 L1641.33 9.54393 L1641.33 18.9825 L1633.88 18.9825 L1633.88 9.54393 Z" fill="#000000" fill-rule="evenodd" fill-opacity="1" /><path clip-path="url(#clip030)" d="M1674.51 32.4315 Q1668.52 32.4315 1665.03 37.1306 Q1661.55 41.7891 1661.55 49.9314 Q1661.55 58.0738 1664.99 62.7728 Q1668.48 67.4314 1674.51 67.4314 Q1680.47 67.4314 1683.95 62.7323 Q1687.43 58.0333 1687.43 49.9314 Q1687.43 41.8701 1683.95 37.1711 Q1680.47 32.4315 1674.51 32.4315 M1674.51 26.1121 Q1684.23 26.1121 1689.78 32.4315 Q1695.33 38.7509 1695.33 49.9314 Q1695.33 61.0714 1689.78 67.4314 Q1684.23 73.7508 1674.51 73.7508 Q1664.75 73.7508 1659.2 67.4314 Q1653.69 61.0714 1653.69 49.9314 Q1653.69 38.7509 1659.2 32.4315 Q1664.75 26.1121 1674.51 26.1121 Z" fill="#000000" fill-rule="evenodd" fill-opacity="1" /><path clip-path="url(#clip030)" d="M1745.4 45.1919 L1745.4 72.576 L1737.95 72.576 L1737.95 45.4349 Q1737.95 38.994 1735.44 35.7938 Q1732.93 32.5936 1727.9 32.5936 Q1721.87 32.5936 1718.38 36.4419 Q1714.9 40.2903 1714.9 46.9338 L1714.9 72.576 L1707.4 72.576 L1707.4 27.2059 L1714.9 27.2059 L1714.9 34.2544 Q1717.57 30.163 1721.18 28.1376 Q1724.82 26.1121 1729.56 26.1121 Q1737.38 26.1121 1741.39 30.9732 Q1745.4 35.7938 1745.4 45.1919 Z" fill="#000000" fill-rule="evenodd" fill-opacity="1" /><polyline clip-path="url(#clip032)" style="stroke:#009af9; stroke-linecap:butt; stroke-linejoin:round; stroke-width:4; stroke-opacity:1; fill:none" points="
  205.042,1447.87 218.498,1430.11 231.955,1411.94 245.411,1393.36 258.868,1374.36 272.324,1354.94 285.781,1335.1 299.237,1314.83 312.694,1294.13 326.15,1273 
  339.607,1251.43 353.063,1229.42 366.52,1206.98 379.976,1184.11 393.433,1160.8 406.889,1137.07 420.346,1112.92 433.802,1088.36 447.259,1063.39 460.715,1038.03 
  474.172,1012.3 487.628,986.194 501.085,959.747 514.541,932.976 527.998,905.902 541.454,878.552 554.911,850.955 568.367,823.142 581.824,795.149 595.28,767.013 
  608.737,738.778 622.193,710.487 635.65,682.19 649.106,653.938 662.563,625.788 676.019,597.799 689.476,570.033 702.932,542.557 716.389,515.438 729.845,488.75 
  743.302,462.566 756.758,436.962 770.215,412.018 783.671,387.813 797.128,364.428 810.584,341.945 824.041,320.443 837.497,300.005 850.954,280.709 864.41,262.631 
  877.867,245.845 891.323,230.423 904.78,216.431 918.236,203.93 931.693,192.976 945.149,183.619 958.606,175.902 972.062,169.862 985.519,165.527 998.975,162.918 
  1012.43,162.047 1025.89,162.918 1039.34,165.527 1052.8,169.862 1066.26,175.902 1079.71,183.619 1093.17,192.976 1106.63,203.93 1120.08,216.431 1133.54,230.423 
  1147,245.845 1160.45,262.631 1173.91,280.709 1187.37,300.005 1200.82,320.443 1214.28,341.945 1227.74,364.428 1241.19,387.813 1254.65,412.018 1268.11,436.962 
  1281.56,462.566 1295.02,488.75 1308.47,515.438 1321.93,542.557 1335.39,570.033 1348.84,597.799 1362.3,625.788 1375.76,653.938 1389.21,682.19 1402.67,710.487 
  1416.13,738.778 1429.58,767.013 1443.04,795.149 1456.5,823.142 1469.95,850.955 1483.41,878.552 1496.87,905.902 1510.32,932.976 1523.78,959.747 1537.24,986.194 
  1550.69,1012.3 1564.15,1038.03 1577.61,1063.39 1591.06,1088.36 1604.52,1112.92 1617.97,1137.07 1631.43,1160.8 1644.89,1184.11 1658.34,1206.98 1671.8,1229.42 
  1685.26,1251.43 1698.71,1273 1712.17,1294.13 1725.63,1314.83 1739.08,1335.1 1752.54,1354.94 1766,1374.36 1779.45,1393.36 1792.91,1411.94 1806.37,1430.11 
  1819.82,1447.87 
  "/>
<polyline clip-path="url(#clip032)" style="stroke:#ee82ee; stroke-linecap:butt; stroke-linejoin:round; stroke-width:4; stroke-opacity:1; fill:none" points="
  205.042,1387.57 218.498,1395.24 231.955,1392.33 245.411,1382.69 258.868,1368.78 272.324,1352.17 285.781,1333.81 299.237,1314.28 312.694,1293.93 326.15,1272.94 
  339.607,1251.43 353.063,1229.43 366.52,1206.99 379.976,1184.11 393.433,1160.81 406.889,1137.07 420.346,1112.92 433.802,1088.36 447.259,1063.39 460.715,1038.03 
  474.172,1012.3 487.628,986.194 501.085,959.748 514.541,932.976 527.998,905.902 541.454,878.552 554.911,850.955 568.367,823.142 581.824,795.149 595.28,767.013 
  608.737,738.778 622.193,710.487 635.65,682.19 649.106,653.938 662.563,625.788 676.019,597.799 689.476,570.033 702.932,542.557 716.389,515.438 729.845,488.75 
  743.302,462.566 756.758,436.962 770.215,412.018 783.671,387.813 797.128,364.428 810.584,341.945 824.041,320.443 837.497,300.005 850.954,280.709 864.41,262.631 
  877.867,245.845 891.323,230.423 904.78,216.431 918.236,203.93 931.693,192.976 945.149,183.619 958.606,175.902 972.062,169.862 985.519,165.527 998.975,162.918 
  1012.43,162.047 1025.89,162.918 1039.34,165.527 1052.8,169.862 1066.26,175.902 1079.71,183.619 1093.17,192.976 1106.63,203.93 1120.08,216.431 1133.54,230.423 
  1147,245.845 1160.45,262.631 1173.91,280.709 1187.37,300.005 1200.82,320.443 1214.28,341.945 1227.74,364.428 1241.19,387.813 1254.65,412.018 1268.11,436.962 
  1281.56,462.566 1295.02,488.75 1308.47,515.438 1321.93,542.557 1335.39,570.033 1348.84,597.799 1362.3,625.788 1375.76,653.938 1389.21,682.19 1402.67,710.487 
  1416.13,738.778 1429.58,767.013 1443.04,795.149 1456.5,823.142 1469.95,850.955 1483.41,878.552 1496.87,905.902 1510.32,932.976 1523.78,959.748 1537.24,986.194 
  1550.69,1012.3 1564.15,1038.03 1577.61,1063.39 1591.06,1088.36 1604.52,1112.92 1617.97,1137.07 1631.43,1160.81 1644.89,1184.11 1658.34,1206.99 1671.8,1229.43 
  1685.26,1251.43 1698.71,1272.94 1712.17,1293.93 1725.63,1314.28 1739.08,1333.81 1752.54,1352.17 1766,1368.78 1779.45,1382.69 1792.91,1392.33 1806.37,1395.24 
  1819.82,1387.57 
  "/>
<circle clip-path="url(#clip032)" cx="339.607" cy="1251.43" r="10" fill="#00bfff" fill-rule="evenodd" fill-opacity="1" stroke="#000000" stroke-opacity="1" stroke-width="3.2"/>
<circle clip-path="url(#clip032)" cx="406.889" cy="1137.07" r="10" fill="#00bfff" fill-rule="evenodd" fill-opacity="1" stroke="#000000" stroke-opacity="1" stroke-width="3.2"/>
<circle clip-path="url(#clip032)" cx="474.172" cy="1012.3" r="10" fill="#00bfff" fill-rule="evenodd" fill-opacity="1" stroke="#000000" stroke-opacity="1" stroke-width="3.2"/>
<circle clip-path="url(#clip032)" cx="541.454" cy="878.552" r="10" fill="#00bfff" fill-rule="evenodd" fill-opacity="1" stroke="#000000" stroke-opacity="1" stroke-width="3.2"/>
<circle clip-path="url(#clip032)" cx="608.737" cy="738.778" r="10" fill="#00bfff" fill-rule="evenodd" fill-opacity="1" stroke="#000000" stroke-opacity="1" stroke-width="3.2"/>
<circle clip-path="url(#clip032)" cx="676.019" cy="597.799" r="10" fill="#00bfff" fill-rule="evenodd" fill-opacity="1" stroke="#000000" stroke-opacity="1" stroke-width="3.2"/>
<circle clip-path="url(#clip032)" cx="743.302" cy="462.566" r="10" fill="#00bfff" fill-rule="evenodd" fill-opacity="1" stroke="#000000" stroke-opacity="1" stroke-width="3.2"/>
<circle clip-path="url(#clip032)" cx="810.584" cy="341.945" r="10" fill="#00bfff" fill-rule="evenodd" fill-opacity="1" stroke="#000000" stroke-opacity="1" stroke-width="3.2"/>
<circle clip-path="url(#clip032)" cx="877.867" cy="245.845" r="10" fill="#00bfff" fill-rule="evenodd" fill-opacity="1" stroke="#000000" stroke-opacity="1" stroke-width="3.2"/>
<circle clip-path="url(#clip032)" cx="945.149" cy="183.619" r="10" fill="#00bfff" fill-rule="evenodd" fill-opacity="1" stroke="#000000" stroke-opacity="1" stroke-width="3.2"/>
<circle clip-path="url(#clip032)" cx="1012.43" cy="162.047" r="10" fill="#00bfff" fill-rule="evenodd" fill-opacity="1" stroke="#000000" stroke-opacity="1" stroke-width="3.2"/>
<circle clip-path="url(#clip032)" cx="1079.71" cy="183.619" r="10" fill="#00bfff" fill-rule="evenodd" fill-opacity="1" stroke="#000000" stroke-opacity="1" stroke-width="3.2"/>
<circle clip-path="url(#clip032)" cx="1147" cy="245.845" r="10" fill="#00bfff" fill-rule="evenodd" fill-opacity="1" stroke="#000000" stroke-opacity="1" stroke-width="3.2"/>
<circle clip-path="url(#clip032)" cx="1214.28" cy="341.945" r="10" fill="#00bfff" fill-rule="evenodd" fill-opacity="1" stroke="#000000" stroke-opacity="1" stroke-width="3.2"/>
<circle clip-path="url(#clip032)" cx="1281.56" cy="462.566" r="10" fill="#00bfff" fill-rule="evenodd" fill-opacity="1" stroke="#000000" stroke-opacity="1" stroke-width="3.2"/>
<circle clip-path="url(#clip032)" cx="1348.84" cy="597.799" r="10" fill="#00bfff" fill-rule="evenodd" fill-opacity="1" stroke="#000000" stroke-opacity="1" stroke-width="3.2"/>
<circle clip-path="url(#clip032)" cx="1416.13" cy="738.778" r="10" fill="#00bfff" fill-rule="evenodd" fill-opacity="1" stroke="#000000" stroke-opacity="1" stroke-width="3.2"/>
<circle clip-path="url(#clip032)" cx="1483.41" cy="878.552" r="10" fill="#00bfff" fill-rule="evenodd" fill-opacity="1" stroke="#000000" stroke-opacity="1" stroke-width="3.2"/>
<circle clip-path="url(#clip032)" cx="1550.69" cy="1012.3" r="10" fill="#00bfff" fill-rule="evenodd" fill-opacity="1" stroke="#000000" stroke-opacity="1" stroke-width="3.2"/>
<circle clip-path="url(#clip032)" cx="1617.97" cy="1137.07" r="10" fill="#00bfff" fill-rule="evenodd" fill-opacity="1" stroke="#000000" stroke-opacity="1" stroke-width="3.2"/>
<circle clip-path="url(#clip032)" cx="1685.26" cy="1251.43" r="10" fill="#00bfff" fill-rule="evenodd" fill-opacity="1" stroke="#000000" stroke-opacity="1" stroke-width="3.2"/>
<circle clip-path="url(#clip032)" cx="373.248" cy="1195.6" r="10" fill="#0000ff" fill-rule="evenodd" fill-opacity="1" stroke="#000000" stroke-opacity="1" stroke-width="3.2"/>
<circle clip-path="url(#clip032)" cx="978.791" cy="167.48" r="10" fill="#0000ff" fill-rule="evenodd" fill-opacity="1" stroke="#000000" stroke-opacity="1" stroke-width="3.2"/>
<circle clip-path="url(#clip032)" cx="1046.07" cy="167.48" r="10" fill="#0000ff" fill-rule="evenodd" fill-opacity="1" stroke="#000000" stroke-opacity="1" stroke-width="3.2"/>
<circle clip-path="url(#clip032)" cx="1651.62" cy="1195.6" r="10" fill="#0000ff" fill-rule="evenodd" fill-opacity="1" stroke="#000000" stroke-opacity="1" stroke-width="3.2"/>
<circle clip-path="url(#clip032)" cx="373.248" cy="1195.61" r="10" fill="#ff0000" fill-rule="evenodd" fill-opacity="1" stroke="#000000" stroke-opacity="1" stroke-width="3.2"/>
<circle clip-path="url(#clip032)" cx="978.791" cy="167.48" r="10" fill="#ff0000" fill-rule="evenodd" fill-opacity="1" stroke="#000000" stroke-opacity="1" stroke-width="3.2"/>
<circle clip-path="url(#clip032)" cx="1046.07" cy="167.48" r="10" fill="#ff0000" fill-rule="evenodd" fill-opacity="1" stroke="#000000" stroke-opacity="1" stroke-width="3.2"/>
<circle clip-path="url(#clip032)" cx="1651.62" cy="1195.61" r="10" fill="#ff0000" fill-rule="evenodd" fill-opacity="1" stroke="#000000" stroke-opacity="1" stroke-width="3.2"/>
<path clip-path="url(#clip030)" d="
M1941.47 479.945 L2352.76 479.945 L2352.76 168.905 L1941.47 168.905  Z
  " fill="#ffffff" fill-rule="evenodd" fill-opacity="1"/>
<polyline clip-path="url(#clip030)" style="stroke:#000000; stroke-linecap:butt; stroke-linejoin:round; stroke-width:4; stroke-opacity:1; fill:none" points="
  1941.47,479.945 2352.76,479.945 2352.76,168.905 1941.47,168.905 1941.47,479.945 
  "/>
<polyline clip-path="url(#clip030)" style="stroke:#009af9; stroke-linecap:butt; stroke-linejoin:round; stroke-width:4; stroke-opacity:1; fill:none" points="
  1965.87,220.745 2112.28,220.745 
  "/>
<path clip-path="url(#clip030)" d="M2153.19 202.006 L2153.19 205.548 L2149.12 205.548 Q2146.82 205.548 2145.92 206.474 Q2145.04 207.4 2145.04 209.807 L2145.04 212.099 L2152.06 212.099 L2152.06 215.409 L2145.04 215.409 L2145.04 238.025 L2140.76 238.025 L2140.76 215.409 L2136.68 215.409 L2136.68 212.099 L2140.76 212.099 L2140.76 210.293 Q2140.76 205.965 2142.77 203.997 Q2144.79 202.006 2149.16 202.006 L2153.19 202.006 Z" fill="#000000" fill-rule="evenodd" fill-opacity="1" /><path clip-path="url(#clip030)" d="M2166.99 202.053 Q2163.88 207.377 2162.38 212.585 Q2160.87 217.793 2160.87 223.14 Q2160.87 228.488 2162.38 233.742 Q2163.91 238.974 2166.99 244.275 L2163.28 244.275 Q2159.81 238.835 2158.07 233.58 Q2156.36 228.326 2156.36 223.14 Q2156.36 217.978 2158.07 212.747 Q2159.79 207.516 2163.28 202.053 L2166.99 202.053 Z" fill="#000000" fill-rule="evenodd" fill-opacity="1" /><path clip-path="url(#clip030)" d="M2196.8 212.099 L2187.43 224.715 L2197.29 238.025 L2192.26 238.025 L2184.72 227.84 L2177.17 238.025 L2172.15 238.025 L2182.22 224.46 L2173 212.099 L2178.03 212.099 L2184.9 221.335 L2191.78 212.099 L2196.8 212.099 Z" fill="#000000" fill-rule="evenodd" fill-opacity="1" /><path clip-path="url(#clip030)" d="M2202.63 202.053 L2206.34 202.053 Q2209.81 207.516 2211.52 212.747 Q2213.26 217.978 2213.26 223.14 Q2213.26 228.326 2211.52 233.58 Q2209.81 238.835 2206.34 244.275 L2202.63 244.275 Q2205.71 238.974 2207.22 233.742 Q2208.74 228.488 2208.74 223.14 Q2208.74 217.793 2207.22 212.585 Q2205.71 207.377 2202.63 202.053 Z" fill="#000000" fill-rule="evenodd" fill-opacity="1" /><polyline clip-path="url(#clip030)" style="stroke:#ee82ee; stroke-linecap:butt; stroke-linejoin:round; stroke-width:4; stroke-opacity:1; fill:none" points="
  1965.87,272.585 2112.28,272.585 
  "/>
<path clip-path="url(#clip030)" d="M2140.97 285.976 L2140.97 299.726 L2136.68 299.726 L2136.68 263.939 L2140.97 263.939 L2140.97 267.874 Q2142.31 265.559 2144.35 264.448 Q2146.41 263.314 2149.25 263.314 Q2153.98 263.314 2156.92 267.064 Q2159.88 270.814 2159.88 276.925 Q2159.88 283.036 2156.92 286.786 Q2153.98 290.536 2149.25 290.536 Q2146.41 290.536 2144.35 289.425 Q2142.31 288.291 2140.97 285.976 M2155.46 276.925 Q2155.46 272.226 2153.51 269.564 Q2151.59 266.879 2148.21 266.879 Q2144.83 266.879 2142.89 269.564 Q2140.97 272.226 2140.97 276.925 Q2140.97 281.624 2142.89 284.309 Q2144.83 286.971 2148.21 286.971 Q2151.59 286.971 2153.51 284.309 Q2155.46 281.624 2155.46 276.925 Z" fill="#000000" fill-rule="evenodd" fill-opacity="1" /><path clip-path="url(#clip030)" d="M2177.17 253.893 Q2174.07 259.217 2172.56 264.425 Q2171.06 269.633 2171.06 274.98 Q2171.06 280.328 2172.56 285.582 Q2174.09 290.814 2177.17 296.115 L2173.47 296.115 Q2169.99 290.675 2168.26 285.42 Q2166.55 280.166 2166.55 274.98 Q2166.55 269.818 2168.26 264.587 Q2169.97 259.356 2173.47 253.893 L2177.17 253.893 Z" fill="#000000" fill-rule="evenodd" fill-opacity="1" /><path clip-path="url(#clip030)" d="M2206.99 263.939 L2197.61 276.555 L2207.47 289.865 L2202.45 289.865 L2194.9 279.68 L2187.36 289.865 L2182.33 289.865 L2192.4 276.3 L2183.19 263.939 L2188.21 263.939 L2195.09 273.175 L2201.96 263.939 L2206.99 263.939 Z" fill="#000000" fill-rule="evenodd" fill-opacity="1" /><path clip-path="url(#clip030)" d="M2212.82 253.893 L2216.52 253.893 Q2219.99 259.356 2221.71 264.587 Q2223.44 269.818 2223.44 274.98 Q2223.44 280.166 2221.71 285.42 Q2219.99 290.675 2216.52 296.115 L2212.82 296.115 Q2215.9 290.814 2217.4 285.582 Q2218.93 280.328 2218.93 274.98 Q2218.93 269.633 2217.4 264.425 Q2215.9 259.217 2212.82 253.893 Z" fill="#000000" fill-rule="evenodd" fill-opacity="1" /><circle clip-path="url(#clip030)" cx="2039.08" cy="324.425" r="23" fill="#00bfff" fill-rule="evenodd" fill-opacity="1" stroke="#000000" stroke-opacity="1" stroke-width="6.82667"/>
<path clip-path="url(#clip030)" d="M2155.11 316.543 L2155.11 320.571 Q2153.31 319.645 2151.36 319.182 Q2149.42 318.719 2147.33 318.719 Q2144.16 318.719 2142.56 319.691 Q2140.99 320.663 2140.99 322.608 Q2140.99 324.089 2142.12 324.945 Q2143.26 325.779 2146.68 326.543 L2148.14 326.867 Q2152.68 327.839 2154.58 329.621 Q2156.5 331.381 2156.5 334.552 Q2156.5 338.163 2153.63 340.269 Q2150.78 342.376 2145.78 342.376 Q2143.7 342.376 2141.43 341.959 Q2139.18 341.566 2136.68 340.756 L2136.68 336.357 Q2139.05 337.584 2141.34 338.209 Q2143.63 338.811 2145.87 338.811 Q2148.88 338.811 2150.5 337.793 Q2152.12 336.751 2152.12 334.876 Q2152.12 333.14 2150.94 332.214 Q2149.79 331.288 2145.83 330.432 L2144.35 330.084 Q2140.39 329.251 2138.63 327.538 Q2136.87 325.802 2136.87 322.793 Q2136.87 319.135 2139.46 317.145 Q2142.06 315.154 2146.82 315.154 Q2149.18 315.154 2151.27 315.501 Q2153.35 315.848 2155.11 316.543 Z" fill="#000000" fill-rule="evenodd" fill-opacity="1" /><path clip-path="url(#clip030)" d="M2175.06 328.672 Q2169.9 328.672 2167.91 329.853 Q2165.92 331.033 2165.92 333.881 Q2165.92 336.149 2167.4 337.492 Q2168.91 338.811 2171.48 338.811 Q2175.02 338.811 2177.15 336.311 Q2179.3 333.788 2179.3 329.621 L2179.3 328.672 L2175.06 328.672 M2183.56 326.913 L2183.56 341.705 L2179.3 341.705 L2179.3 337.769 Q2177.84 340.131 2175.67 341.265 Q2173.49 342.376 2170.34 342.376 Q2166.36 342.376 2164 340.154 Q2161.66 337.908 2161.66 334.158 Q2161.66 329.783 2164.58 327.561 Q2167.52 325.339 2173.33 325.339 L2179.3 325.339 L2179.3 324.922 Q2179.3 321.983 2177.36 320.385 Q2175.43 318.765 2171.94 318.765 Q2169.72 318.765 2167.61 319.297 Q2165.5 319.83 2163.56 320.895 L2163.56 316.959 Q2165.9 316.057 2168.1 315.617 Q2170.3 315.154 2172.38 315.154 Q2178 315.154 2180.78 318.071 Q2183.56 320.987 2183.56 326.913 Z" fill="#000000" fill-rule="evenodd" fill-opacity="1" /><path clip-path="url(#clip030)" d="M2212.52 320.756 Q2214.11 317.885 2216.34 316.52 Q2218.56 315.154 2221.57 315.154 Q2225.62 315.154 2227.82 318.001 Q2230.02 320.825 2230.02 326.057 L2230.02 341.705 L2225.74 341.705 L2225.74 326.195 Q2225.74 322.469 2224.42 320.663 Q2223.1 318.858 2220.39 318.858 Q2217.08 318.858 2215.16 321.057 Q2213.24 323.256 2213.24 327.052 L2213.24 341.705 L2208.95 341.705 L2208.95 326.195 Q2208.95 322.445 2207.63 320.663 Q2206.31 318.858 2203.56 318.858 Q2200.3 318.858 2198.37 321.08 Q2196.45 323.279 2196.45 327.052 L2196.45 341.705 L2192.17 341.705 L2192.17 315.779 L2196.45 315.779 L2196.45 319.807 Q2197.91 317.422 2199.95 316.288 Q2201.99 315.154 2204.79 315.154 Q2207.61 315.154 2209.58 316.589 Q2211.57 318.024 2212.52 320.756 Z" fill="#000000" fill-rule="evenodd" fill-opacity="1" /><path clip-path="url(#clip030)" d="M2242.63 337.816 L2242.63 351.566 L2238.35 351.566 L2238.35 315.779 L2242.63 315.779 L2242.63 319.714 Q2243.98 317.399 2246.01 316.288 Q2248.07 315.154 2250.92 315.154 Q2255.64 315.154 2258.58 318.904 Q2261.55 322.654 2261.55 328.765 Q2261.55 334.876 2258.58 338.626 Q2255.64 342.376 2250.92 342.376 Q2248.07 342.376 2246.01 341.265 Q2243.98 340.131 2242.63 337.816 M2257.12 328.765 Q2257.12 324.066 2255.18 321.404 Q2253.26 318.719 2249.88 318.719 Q2246.5 318.719 2244.55 321.404 Q2242.63 324.066 2242.63 328.765 Q2242.63 333.464 2244.55 336.149 Q2246.5 338.811 2249.88 338.811 Q2253.26 338.811 2255.18 336.149 Q2257.12 333.464 2257.12 328.765 Z" fill="#000000" fill-rule="evenodd" fill-opacity="1" /><path clip-path="url(#clip030)" d="M2268.61 305.686 L2272.86 305.686 L2272.86 341.705 L2268.61 341.705 L2268.61 305.686 Z" fill="#000000" fill-rule="evenodd" fill-opacity="1" /><path clip-path="url(#clip030)" d="M2303.95 327.677 L2303.95 329.76 L2284.37 329.76 Q2284.65 334.158 2287.01 336.473 Q2289.39 338.765 2293.63 338.765 Q2296.08 338.765 2298.37 338.163 Q2300.69 337.561 2302.96 336.357 L2302.96 340.385 Q2300.67 341.357 2298.26 341.867 Q2295.85 342.376 2293.37 342.376 Q2287.17 342.376 2283.54 338.765 Q2279.92 335.154 2279.92 328.996 Q2279.92 322.631 2283.35 318.904 Q2286.8 315.154 2292.63 315.154 Q2297.86 315.154 2300.9 318.533 Q2303.95 321.89 2303.95 327.677 M2299.69 326.427 Q2299.65 322.932 2297.73 320.848 Q2295.83 318.765 2292.68 318.765 Q2289.11 318.765 2286.96 320.779 Q2284.83 322.793 2284.51 326.45 L2299.69 326.427 Z" fill="#000000" fill-rule="evenodd" fill-opacity="1" /><circle clip-path="url(#clip030)" cx="2039.08" cy="376.265" r="23" fill="#0000ff" fill-rule="evenodd" fill-opacity="1" stroke="#000000" stroke-opacity="1" stroke-width="6.82667"/>
<path clip-path="url(#clip030)" d="M2144.09 360.258 L2144.09 367.619 L2152.87 367.619 L2152.87 370.929 L2144.09 370.929 L2144.09 385.003 Q2144.09 388.174 2144.95 389.077 Q2145.83 389.98 2148.49 389.98 L2152.87 389.98 L2152.87 393.545 L2148.49 393.545 Q2143.56 393.545 2141.68 391.716 Q2139.81 389.864 2139.81 385.003 L2139.81 370.929 L2136.68 370.929 L2136.68 367.619 L2139.81 367.619 L2139.81 360.258 L2144.09 360.258 Z" fill="#000000" fill-rule="evenodd" fill-opacity="1" /><path clip-path="url(#clip030)" d="M2173.49 371.6 Q2172.77 371.184 2171.92 370.998 Q2171.08 370.79 2170.06 370.79 Q2166.45 370.79 2164.51 373.151 Q2162.59 375.489 2162.59 379.887 L2162.59 393.545 L2158.31 393.545 L2158.31 367.619 L2162.59 367.619 L2162.59 371.647 Q2163.93 369.286 2166.08 368.151 Q2168.24 366.994 2171.31 366.994 Q2171.75 366.994 2172.29 367.063 Q2172.82 367.11 2173.47 367.225 L2173.49 371.6 Z" fill="#000000" fill-rule="evenodd" fill-opacity="1" /><path clip-path="url(#clip030)" d="M2177.52 383.313 L2177.52 367.619 L2181.78 367.619 L2181.78 383.151 Q2181.78 386.832 2183.21 388.684 Q2184.65 390.512 2187.52 390.512 Q2190.97 390.512 2192.96 388.313 Q2194.97 386.114 2194.97 382.318 L2194.97 367.619 L2199.23 367.619 L2199.23 393.545 L2194.97 393.545 L2194.97 389.563 Q2193.42 391.924 2191.36 393.082 Q2189.32 394.216 2186.62 394.216 Q2182.15 394.216 2179.83 391.438 Q2177.52 388.66 2177.52 383.313 M2188.24 366.994 L2188.24 366.994 Z" fill="#000000" fill-rule="evenodd" fill-opacity="1" /><path clip-path="url(#clip030)" d="M2230.18 379.517 L2230.18 381.6 L2210.6 381.6 Q2210.87 385.998 2213.24 388.313 Q2215.62 390.605 2219.86 390.605 Q2222.31 390.605 2224.6 390.003 Q2226.92 389.401 2229.18 388.197 L2229.18 392.225 Q2226.89 393.197 2224.49 393.707 Q2222.08 394.216 2219.6 394.216 Q2213.4 394.216 2209.76 390.605 Q2206.15 386.994 2206.15 380.836 Q2206.15 374.471 2209.58 370.744 Q2213.03 366.994 2218.86 366.994 Q2224.09 366.994 2227.12 370.373 Q2230.18 373.73 2230.18 379.517 M2225.92 378.267 Q2225.87 374.772 2223.95 372.688 Q2222.05 370.605 2218.91 370.605 Q2215.34 370.605 2213.19 372.619 Q2211.06 374.633 2210.74 378.29 L2225.92 378.267 Z" fill="#000000" fill-rule="evenodd" fill-opacity="1" /><circle clip-path="url(#clip030)" cx="2039.08" cy="428.105" r="23" fill="#ff0000" fill-rule="evenodd" fill-opacity="1" stroke="#000000" stroke-opacity="1" stroke-width="6.82667"/>
<path clip-path="url(#clip030)" d="M2150.09 432.352 Q2144.93 432.352 2142.93 433.533 Q2140.94 434.713 2140.94 437.561 Q2140.94 439.829 2142.43 441.172 Q2143.93 442.491 2146.5 442.491 Q2150.04 442.491 2152.17 439.991 Q2154.32 437.468 2154.32 433.301 L2154.32 432.352 L2150.09 432.352 M2158.58 430.593 L2158.58 445.385 L2154.32 445.385 L2154.32 441.449 Q2152.87 443.811 2150.69 444.945 Q2148.51 446.056 2145.37 446.056 Q2141.38 446.056 2139.02 443.834 Q2136.68 441.588 2136.68 437.838 Q2136.68 433.463 2139.6 431.241 Q2142.54 429.019 2148.35 429.019 L2154.32 429.019 L2154.32 428.602 Q2154.32 425.663 2152.38 424.065 Q2150.46 422.445 2146.96 422.445 Q2144.74 422.445 2142.63 422.977 Q2140.53 423.51 2138.58 424.575 L2138.58 420.639 Q2140.92 419.737 2143.12 419.297 Q2145.32 418.834 2147.4 418.834 Q2153.03 418.834 2155.81 421.751 Q2158.58 424.667 2158.58 430.593 Z" fill="#000000" fill-rule="evenodd" fill-opacity="1" /><path clip-path="url(#clip030)" d="M2171.48 441.496 L2171.48 455.246 L2167.19 455.246 L2167.19 419.459 L2171.48 419.459 L2171.48 423.394 Q2172.82 421.079 2174.86 419.968 Q2176.92 418.834 2179.76 418.834 Q2184.49 418.834 2187.43 422.584 Q2190.39 426.334 2190.39 432.445 Q2190.39 438.556 2187.43 442.306 Q2184.49 446.056 2179.76 446.056 Q2176.92 446.056 2174.86 444.945 Q2172.82 443.811 2171.48 441.496 M2185.97 432.445 Q2185.97 427.746 2184.02 425.084 Q2182.1 422.399 2178.72 422.399 Q2175.34 422.399 2173.4 425.084 Q2171.48 427.746 2171.48 432.445 Q2171.48 437.144 2173.4 439.829 Q2175.34 442.491 2178.72 442.491 Q2182.1 442.491 2184.02 439.829 Q2185.97 437.144 2185.97 432.445 Z" fill="#000000" fill-rule="evenodd" fill-opacity="1" /><path clip-path="url(#clip030)" d="M2201.57 441.496 L2201.57 455.246 L2197.29 455.246 L2197.29 419.459 L2201.57 419.459 L2201.57 423.394 Q2202.91 421.079 2204.95 419.968 Q2207.01 418.834 2209.86 418.834 Q2214.58 418.834 2217.52 422.584 Q2220.48 426.334 2220.48 432.445 Q2220.48 438.556 2217.52 442.306 Q2214.58 446.056 2209.86 446.056 Q2207.01 446.056 2204.95 444.945 Q2202.91 443.811 2201.57 441.496 M2216.06 432.445 Q2216.06 427.746 2214.11 425.084 Q2212.19 422.399 2208.81 422.399 Q2205.43 422.399 2203.49 425.084 Q2201.57 427.746 2201.57 432.445 Q2201.57 437.144 2203.49 439.829 Q2205.43 442.491 2208.81 442.491 Q2212.19 442.491 2214.11 439.829 Q2216.06 437.144 2216.06 432.445 Z" fill="#000000" fill-rule="evenodd" fill-opacity="1" /><path clip-path="url(#clip030)" d="M2242.56 423.44 Q2241.85 423.024 2240.99 422.838 Q2240.16 422.63 2239.14 422.63 Q2235.53 422.63 2233.58 424.991 Q2231.66 427.329 2231.66 431.727 L2231.66 445.385 L2227.38 445.385 L2227.38 419.459 L2231.66 419.459 L2231.66 423.487 Q2233 421.126 2235.16 419.991 Q2237.31 418.834 2240.39 418.834 Q2240.83 418.834 2241.36 418.903 Q2241.89 418.95 2242.54 419.065 L2242.56 423.44 Z" fill="#000000" fill-rule="evenodd" fill-opacity="1" /><path clip-path="url(#clip030)" d="M2256.04 422.445 Q2252.61 422.445 2250.62 425.13 Q2248.63 427.792 2248.63 432.445 Q2248.63 437.098 2250.6 439.783 Q2252.59 442.445 2256.04 442.445 Q2259.44 442.445 2261.43 439.76 Q2263.42 437.075 2263.42 432.445 Q2263.42 427.838 2261.43 425.153 Q2259.44 422.445 2256.04 422.445 M2256.04 418.834 Q2261.59 418.834 2264.76 422.445 Q2267.93 426.056 2267.93 432.445 Q2267.93 438.811 2264.76 442.445 Q2261.59 446.056 2256.04 446.056 Q2250.46 446.056 2247.29 442.445 Q2244.14 438.811 2244.14 432.445 Q2244.14 426.056 2247.29 422.445 Q2250.46 418.834 2256.04 418.834 Z" fill="#000000" fill-rule="evenodd" fill-opacity="1" /><path clip-path="url(#clip030)" d="M2295.09 419.459 L2285.71 432.075 L2295.57 445.385 L2290.55 445.385 L2283 435.2 L2275.46 445.385 L2270.43 445.385 L2280.5 431.82 L2271.29 419.459 L2276.31 419.459 L2283.19 428.695 L2290.06 419.459 L2295.09 419.459 Z" fill="#000000" fill-rule="evenodd" fill-opacity="1" /><path clip-path="url(#clip030)" d="M1706.78 776.814 Q1706.78 779.069 1705.35 780.463 Q1703.95 781.856 1702.19 781.856 Q1700.92 781.856 1699.98 781.077 Q1699.08 780.299 1699.08 778.946 Q1699.08 777.552 1700.14 776.077 Q1701.21 774.601 1703.63 774.396 Q1702.03 772.88 1699.49 772.88 Q1698.21 772.88 1697.15 773.699 Q1696.12 774.478 1695.55 775.749 Q1694.94 777.06 1693.54 784.479 Q1693.09 786.898 1692.68 789.234 Q1692.27 791.571 1691.78 794.03 L1698.75 794.03 Q1699.65 794.03 1700.02 794.071 Q1700.39 794.112 1700.67 794.317 Q1701 794.522 1701 794.973 Q1701 796.12 1700.47 796.407 Q1699.98 796.653 1698.5 796.653 L1691.29 796.653 L1686.25 823.255 Q1686.12 824.034 1685.59 826.493 Q1685.1 828.912 1683.91 832.888 Q1682.72 836.905 1681.53 839.282 Q1680.88 840.635 1680.02 841.905 Q1679.2 843.217 1678.01 844.529 Q1676.82 845.84 1675.26 846.619 Q1673.7 847.439 1672.06 847.439 Q1669.28 847.439 1667.1 845.881 Q1664.93 844.324 1664.93 841.66 Q1664.93 839.405 1666.32 838.011 Q1667.76 836.618 1669.52 836.618 Q1670.79 836.618 1671.69 837.397 Q1672.64 838.175 1672.64 839.528 Q1672.64 840.102 1672.43 840.758 Q1672.23 841.414 1671.78 842.151 Q1671.33 842.93 1670.34 843.463 Q1669.36 843.996 1668.01 844.078 Q1669.6 845.594 1672.06 845.594 Q1672.84 845.594 1673.54 845.267 Q1674.24 844.98 1674.81 844.242 Q1675.42 843.504 1675.88 842.766 Q1676.33 842.069 1676.78 840.717 Q1677.23 839.405 1677.51 838.421 Q1677.8 837.438 1678.17 835.675 Q1678.58 833.913 1678.79 832.847 Q1678.99 831.822 1679.36 829.814 L1685.63 796.653 L1680.1 796.653 Q1679.11 796.653 1678.7 796.612 Q1678.33 796.571 1678.05 796.366 Q1677.76 796.12 1677.76 795.629 Q1677.76 794.85 1678.09 794.522 Q1678.46 794.153 1678.87 794.112 Q1679.28 794.03 1680.26 794.03 L1686.08 794.03 Q1688.05 783.66 1688.83 780.872 Q1689.73 777.921 1691.12 775.872 Q1692.52 773.781 1694.07 772.798 Q1695.63 771.814 1696.9 771.445 Q1698.21 771.035 1699.49 771.035 Q1702.35 771.035 1704.57 772.593 Q1706.78 774.109 1706.78 776.814 Z" fill="#000000" fill-rule="evenodd" fill-opacity="1" /><path clip-path="url(#clip030)" d="M1718.08 809.237 Q1718.08 795.055 1723.37 783.619 Q1725.62 778.823 1728.78 774.806 Q1731.94 770.789 1734.03 769.027 Q1736.12 767.264 1736.69 767.264 Q1737.51 767.264 1737.55 768.084 Q1737.55 768.494 1736.44 769.518 Q1722.92 783.291 1722.96 809.237 Q1722.96 835.265 1736.12 848.505 Q1737.55 849.939 1737.55 850.39 Q1737.55 851.21 1736.69 851.21 Q1736.12 851.21 1734.11 849.529 Q1732.1 847.849 1728.98 843.996 Q1725.87 840.143 1723.61 835.429 Q1718.08 823.993 1718.08 809.237 Z" fill="#000000" fill-rule="evenodd" fill-opacity="1" /><path clip-path="url(#clip030)" d="M1785.74 798.662 Q1785.74 800.957 1784.3 802.269 Q1782.87 803.539 1781.23 803.539 Q1779.67 803.539 1778.85 802.638 Q1778.03 801.736 1778.03 800.588 Q1778.03 799.031 1779.18 797.678 Q1780.33 796.325 1782.05 796.038 Q1780.37 794.973 1777.87 794.973 Q1776.23 794.973 1774.8 795.833 Q1773.4 796.694 1772.54 797.801 Q1771.72 798.908 1770.98 800.506 Q1770.29 802.064 1770 803.007 Q1769.75 803.908 1769.55 804.892 L1766.68 816.369 Q1765.29 821.821 1765.29 823.747 Q1765.29 826.125 1766.43 827.723 Q1767.58 829.281 1769.88 829.281 Q1770.78 829.281 1771.8 829.035 Q1772.83 828.748 1774.14 828.01 Q1775.49 827.231 1776.68 826.084 Q1777.91 824.895 1779.1 822.886 Q1780.29 820.878 1781.07 818.296 Q1781.31 817.394 1782.13 817.394 Q1783.16 817.394 1783.16 818.214 Q1783.16 818.91 1782.58 820.386 Q1782.05 821.821 1780.86 823.706 Q1779.71 825.551 1778.2 827.231 Q1776.68 828.871 1774.43 830.019 Q1772.17 831.166 1769.71 831.166 Q1766.19 831.166 1763.85 829.281 Q1761.51 827.395 1760.65 824.772 Q1760.45 825.141 1760.16 825.633 Q1759.88 826.125 1759.01 827.231 Q1758.19 828.297 1757.25 829.117 Q1756.31 829.896 1754.83 830.51 Q1753.4 831.166 1751.84 831.166 Q1749.87 831.166 1748.11 830.592 Q1746.39 830.019 1745.16 828.707 Q1743.93 827.395 1743.93 825.592 Q1743.93 823.583 1745.28 822.19 Q1746.68 820.755 1748.56 820.755 Q1749.75 820.755 1750.69 821.452 Q1751.68 822.149 1751.68 823.665 Q1751.68 825.346 1750.53 826.616 Q1749.38 827.887 1747.74 828.215 Q1749.42 829.281 1751.92 829.281 Q1754.63 829.281 1756.76 826.903 Q1758.89 824.526 1759.92 820.55 Q1762.46 811 1763.44 806.737 Q1764.42 802.433 1764.42 800.588 Q1764.42 798.867 1763.97 797.678 Q1763.52 796.489 1762.74 795.956 Q1762.01 795.383 1761.31 795.178 Q1760.65 794.973 1759.92 794.973 Q1758.69 794.973 1757.29 795.465 Q1755.94 795.956 1754.3 797.104 Q1752.7 798.211 1751.19 800.506 Q1749.67 802.802 1748.64 805.958 Q1748.44 806.901 1747.54 806.901 Q1746.55 806.86 1746.55 806.04 Q1746.55 805.343 1747.09 803.908 Q1747.66 802.433 1748.81 800.588 Q1750 798.744 1751.51 797.104 Q1753.07 795.424 1755.33 794.276 Q1757.62 793.128 1760.08 793.128 Q1761.19 793.128 1762.25 793.374 Q1763.36 793.579 1764.67 794.194 Q1766.02 794.809 1767.21 796.161 Q1768.4 797.514 1769.14 799.482 Q1769.63 798.539 1770.29 797.637 Q1770.98 796.735 1772.05 795.629 Q1773.16 794.481 1774.67 793.825 Q1776.23 793.128 1777.95 793.128 Q1779.63 793.128 1781.27 793.579 Q1782.91 793.989 1784.3 795.342 Q1785.74 796.653 1785.74 798.662 Z" fill="#000000" fill-rule="evenodd" fill-opacity="1" /><path clip-path="url(#clip030)" d="M1793.82 850.39 Q1793.82 849.98 1794.89 848.956 Q1808.41 835.183 1808.41 809.237 Q1808.41 783.209 1795.42 770.051 Q1793.82 768.535 1793.82 768.084 Q1793.82 767.264 1794.64 767.264 Q1795.21 767.264 1797.22 768.945 Q1799.27 770.625 1802.35 774.478 Q1805.46 778.331 1807.76 783.045 Q1813.29 794.481 1813.29 809.237 Q1813.29 823.419 1808 834.855 Q1805.75 839.651 1802.59 843.668 Q1799.44 847.685 1797.35 849.447 Q1795.25 851.21 1794.64 851.21 Q1793.82 851.21 1793.82 850.39 Z" fill="#000000" fill-rule="evenodd" fill-opacity="1" /><path clip-path="url(#clip030)" d="M1849.34 817.476 Q1849.43 816.451 1851.02 816.451 L1902.47 816.451 Q1904.88 816.451 1904.93 817.394 Q1904.93 818.419 1902.63 818.378 L1851.6 818.378 Q1849.34 818.419 1849.34 817.476 M1849.34 801.08 Q1849.34 800.055 1851.11 800.096 L1902.38 800.096 Q1904.88 800.096 1904.93 801.08 Q1904.93 802.023 1902.79 802.023 L1851.02 802.023 Q1849.34 802.023 1849.34 801.08 Z" fill="#000000" fill-rule="evenodd" fill-opacity="1" /><path clip-path="url(#clip030)" d="M2059.22 741.366 L2059.22 738.742 Q2069.31 738.742 2074.51 733.373 Q2075.95 733.373 2076.19 733.701 Q2076.44 734.029 2076.44 735.545 L2076.44 782.642 Q2076.44 785.142 2077.67 785.921 Q2078.9 786.7 2084.27 786.7 L2086.93 786.7 L2086.93 789.282 Q2083.98 789.036 2073.32 789.036 Q2062.67 789.036 2059.76 789.282 L2059.76 786.7 L2062.42 786.7 Q2067.71 786.7 2068.98 785.962 Q2070.25 785.183 2070.25 782.642 L2070.25 739.152 Q2065.86 741.366 2059.22 741.366 Z" fill="#000000" fill-rule="evenodd" fill-opacity="1" /><path clip-path="url(#clip030)" d="
M1955.22 811.682 L2199.57 811.682 L2199.57 807.202 L1955.22 807.202  Z
  " fill="#000000" fill-rule="evenodd" fill-opacity="1"/>
<path clip-path="url(#clip030)" d="M1955.22 845.554 L1955.22 842.931 Q1965.31 842.931 1970.51 837.561 Q1971.95 837.561 1972.19 837.889 Q1972.44 838.217 1972.44 839.733 L1972.44 886.83 Q1972.44 889.33 1973.67 890.109 Q1974.9 890.888 1980.27 890.888 L1982.93 890.888 L1982.93 893.47 Q1979.98 893.224 1969.32 893.224 Q1958.67 893.224 1955.76 893.47 L1955.76 890.888 L1958.42 890.888 Q1963.71 890.888 1964.98 890.15 Q1966.25 889.371 1966.25 886.83 L1966.25 843.34 Q1961.86 845.554 1955.22 845.554 Z" fill="#000000" fill-rule="evenodd" fill-opacity="1" /><path clip-path="url(#clip030)" d="M2022.01 873.509 Q2020.08 873.509 2020.08 872.484 Q2020.08 871.459 2022.09 871.459 Q2022.34 871.459 2022.75 871.5 Q2023.2 871.541 2023.28 871.541 L2046.93 871.541 L2046.93 847.808 Q2046.93 847.726 2046.89 847.357 Q2046.85 846.948 2046.85 846.702 Q2046.85 844.693 2047.83 844.693 Q2048.86 844.693 2048.86 846.702 L2048.86 871.541 L2072.55 871.541 Q2072.63 871.541 2073.04 871.5 Q2073.45 871.459 2073.7 871.459 Q2075.63 871.459 2075.63 872.484 Q2075.67 873.509 2073.62 873.509 Q2073.37 873.509 2073 873.468 Q2072.63 873.427 2072.55 873.427 L2048.86 873.427 L2048.86 898.348 Q2048.86 900.275 2047.83 900.275 Q2046.85 900.275 2046.85 898.266 Q2046.85 898.02 2046.89 897.61 Q2046.93 897.241 2046.93 897.159 L2046.93 873.427 L2023.28 873.427 Q2023.2 873.427 2022.71 873.468 Q2022.26 873.509 2022.01 873.509 Z" fill="#000000" fill-rule="evenodd" fill-opacity="1" /><path clip-path="url(#clip030)" d="M2149.85 861.909 Q2149.85 864.204 2148.42 865.516 Q2146.98 866.786 2145.34 866.786 Q2143.79 866.786 2142.97 865.885 Q2142.15 864.983 2142.15 863.835 Q2142.15 862.278 2143.3 860.925 Q2144.44 859.572 2146.16 859.285 Q2144.48 858.22 2141.98 858.22 Q2140.34 858.22 2138.91 859.08 Q2137.52 859.941 2136.66 861.048 Q2135.84 862.155 2135.1 863.753 Q2134.4 865.311 2134.11 866.253 Q2133.87 867.155 2133.66 868.139 L2130.79 879.616 Q2129.4 885.068 2129.4 886.994 Q2129.4 889.371 2130.55 890.97 Q2131.7 892.528 2133.99 892.528 Q2134.89 892.528 2135.92 892.282 Q2136.94 891.995 2138.25 891.257 Q2139.61 890.478 2140.8 889.33 Q2142.02 888.142 2143.21 886.133 Q2144.4 884.125 2145.18 881.542 Q2145.43 880.641 2146.25 880.641 Q2147.27 880.641 2147.27 881.461 Q2147.27 882.157 2146.7 883.633 Q2146.16 885.068 2144.98 886.953 Q2143.83 888.798 2142.31 890.478 Q2140.8 892.118 2138.54 893.265 Q2136.29 894.413 2133.83 894.413 Q2130.3 894.413 2127.97 892.528 Q2125.63 890.642 2124.77 888.019 Q2124.56 888.388 2124.28 888.88 Q2123.99 889.371 2123.13 890.478 Q2122.31 891.544 2121.37 892.364 Q2120.42 893.142 2118.95 893.757 Q2117.51 894.413 2115.96 894.413 Q2113.99 894.413 2112.23 893.839 Q2110.5 893.265 2109.27 891.954 Q2108.04 890.642 2108.04 888.839 Q2108.04 886.83 2109.4 885.436 Q2110.79 884.002 2112.68 884.002 Q2113.87 884.002 2114.81 884.699 Q2115.79 885.395 2115.79 886.912 Q2115.79 888.593 2114.64 889.863 Q2113.5 891.134 2111.86 891.462 Q2113.54 892.528 2116.04 892.528 Q2118.74 892.528 2120.87 890.15 Q2123.01 887.773 2124.03 883.797 Q2126.57 874.246 2127.56 869.984 Q2128.54 865.68 2128.54 863.835 Q2128.54 862.114 2128.09 860.925 Q2127.64 859.736 2126.86 859.203 Q2126.12 858.629 2125.42 858.425 Q2124.77 858.22 2124.03 858.22 Q2122.8 858.22 2121.41 858.711 Q2120.05 859.203 2118.41 860.351 Q2116.82 861.458 2115.3 863.753 Q2113.78 866.049 2112.76 869.205 Q2112.55 870.147 2111.65 870.147 Q2110.67 870.106 2110.67 869.287 Q2110.67 868.59 2111.2 867.155 Q2111.77 865.68 2112.92 863.835 Q2114.11 861.991 2115.63 860.351 Q2117.19 858.67 2119.44 857.523 Q2121.74 856.375 2124.19 856.375 Q2125.3 856.375 2126.37 856.621 Q2127.47 856.826 2128.79 857.441 Q2130.14 858.056 2131.33 859.408 Q2132.52 860.761 2133.25 862.728 Q2133.74 861.786 2134.4 860.884 Q2135.1 859.982 2136.16 858.875 Q2137.27 857.728 2138.79 857.072 Q2140.34 856.375 2142.07 856.375 Q2143.75 856.375 2145.39 856.826 Q2147.03 857.236 2148.42 858.588 Q2149.85 859.9 2149.85 861.909 Z" fill="#000000" fill-rule="evenodd" fill-opacity="1" /><path clip-path="url(#clip030)" d="M2158.41 868.365 Q2158.41 867.303 2158.5 866.988 Q2158.61 866.672 2159.07 866.184 L2170.35 853.617 Q2176.52 846.673 2176.52 840.619 Q2176.52 836.688 2174.45 833.876 Q2172.41 831.065 2168.65 831.065 Q2166.07 831.065 2163.89 832.643 Q2161.71 834.221 2160.71 837.033 Q2160.88 836.975 2161.48 836.975 Q2162.94 836.975 2163.75 837.893 Q2164.58 838.811 2164.58 840.045 Q2164.58 841.623 2163.55 842.398 Q2162.54 843.144 2161.54 843.144 Q2161.14 843.144 2160.59 843.058 Q2160.08 842.972 2159.24 842.169 Q2158.41 841.336 2158.41 839.873 Q2158.41 835.77 2161.51 832.499 Q2164.64 829.228 2169.4 829.228 Q2174.79 829.228 2178.32 832.442 Q2181.88 835.627 2181.88 840.619 Q2181.88 842.369 2181.34 843.976 Q2180.82 845.554 2180.1 846.788 Q2179.41 848.022 2177.52 850.002 Q2175.63 851.981 2174.11 853.387 Q2172.59 854.793 2169.17 857.777 L2162.94 863.831 L2173.53 863.831 Q2178.7 863.831 2179.1 863.372 Q2179.67 862.54 2180.39 858.15 L2181.88 858.15 L2180.22 868.365 L2158.41 868.365 Z" fill="#000000" fill-rule="evenodd" fill-opacity="1" /></svg>
