<?xml version="1.0" encoding="utf-8"?>
<svg xmlns="http://www.w3.org/2000/svg" xmlns:xlink="http://www.w3.org/1999/xlink" width="600" height="400" viewBox="0 0 2400 1600">
<defs>
  <clipPath id="clip540">
    <rect x="0" y="0" width="2400" height="1600"/>
  </clipPath>
</defs>
<path clip-path="url(#clip540)" d="
M0 1600 L2400 1600 L2400 0 L0 0  Z
  " fill="#ffffff" fill-rule="evenodd" fill-opacity="1"/>
<defs>
  <clipPath id="clip541">
    <rect x="480" y="0" width="1681" height="1600"/>
  </clipPath>
</defs>
<path clip-path="url(#clip540)" d="
M156.112 1486.45 L1731.11 1486.45 L1731.11 123.472 L156.112 123.472  Z
  " fill="#ffffff" fill-rule="evenodd" fill-opacity="1"/>
<defs>
  <clipPath id="clip542">
    <rect x="156" y="123" width="1576" height="1364"/>
  </clipPath>
</defs>
<polyline clip-path="url(#clip542)" style="stroke:#000000; stroke-linecap:butt; stroke-linejoin:round; stroke-width:2; stroke-opacity:0.1; fill:none" points="
  372.132,1486.45 372.132,123.472 
  "/>
<polyline clip-path="url(#clip542)" style="stroke:#000000; stroke-linecap:butt; stroke-linejoin:round; stroke-width:2; stroke-opacity:0.1; fill:none" points="
  657.872,1486.45 657.872,123.472 
  "/>
<polyline clip-path="url(#clip542)" style="stroke:#000000; stroke-linecap:butt; stroke-linejoin:round; stroke-width:2; stroke-opacity:0.1; fill:none" points="
  943.612,1486.45 943.612,123.472 
  "/>
<polyline clip-path="url(#clip542)" style="stroke:#000000; stroke-linecap:butt; stroke-linejoin:round; stroke-width:2; stroke-opacity:0.1; fill:none" points="
  1229.35,1486.45 1229.35,123.472 
  "/>
<polyline clip-path="url(#clip542)" style="stroke:#000000; stroke-linecap:butt; stroke-linejoin:round; stroke-width:2; stroke-opacity:0.1; fill:none" points="
  1515.09,1486.45 1515.09,123.472 
  "/>
<polyline clip-path="url(#clip540)" style="stroke:#000000; stroke-linecap:butt; stroke-linejoin:round; stroke-width:4; stroke-opacity:1; fill:none" points="
  156.112,1486.45 1731.11,1486.45 
  "/>
<polyline clip-path="url(#clip540)" style="stroke:#000000; stroke-linecap:butt; stroke-linejoin:round; stroke-width:4; stroke-opacity:1; fill:none" points="
  372.132,1486.45 372.132,1467.55 
  "/>
<polyline clip-path="url(#clip540)" style="stroke:#000000; stroke-linecap:butt; stroke-linejoin:round; stroke-width:4; stroke-opacity:1; fill:none" points="
  657.872,1486.45 657.872,1467.55 
  "/>
<polyline clip-path="url(#clip540)" style="stroke:#000000; stroke-linecap:butt; stroke-linejoin:round; stroke-width:4; stroke-opacity:1; fill:none" points="
  943.612,1486.45 943.612,1467.55 
  "/>
<polyline clip-path="url(#clip540)" style="stroke:#000000; stroke-linecap:butt; stroke-linejoin:round; stroke-width:4; stroke-opacity:1; fill:none" points="
  1229.35,1486.45 1229.35,1467.55 
  "/>
<polyline clip-path="url(#clip540)" style="stroke:#000000; stroke-linecap:butt; stroke-linejoin:round; stroke-width:4; stroke-opacity:1; fill:none" points="
  1515.09,1486.45 1515.09,1467.55 
  "/>
<path clip-path="url(#clip540)" d="M341.032 1532.02 L370.708 1532.02 L370.708 1535.95 L341.032 1535.95 L341.032 1532.02 Z" fill="#000000" fill-rule="evenodd" fill-opacity="1" /><path clip-path="url(#clip540)" d="M393.648 1518.36 L381.842 1536.81 L393.648 1536.81 L393.648 1518.36 M392.421 1514.29 L398.301 1514.29 L398.301 1536.81 L403.231 1536.81 L403.231 1540.7 L398.301 1540.7 L398.301 1548.85 L393.648 1548.85 L393.648 1540.7 L378.046 1540.7 L378.046 1536.19 L392.421 1514.29 Z" fill="#000000" fill-rule="evenodd" fill-opacity="1" /><path clip-path="url(#clip540)" d="M627.814 1532.02 L657.49 1532.02 L657.49 1535.95 L627.814 1535.95 L627.814 1532.02 Z" fill="#000000" fill-rule="evenodd" fill-opacity="1" /><path clip-path="url(#clip540)" d="M671.61 1544.91 L687.93 1544.91 L687.93 1548.85 L665.985 1548.85 L665.985 1544.91 Q668.648 1542.16 673.231 1537.53 Q677.837 1532.88 679.018 1531.53 Q681.263 1529.01 682.143 1527.27 Q683.046 1525.51 683.046 1523.82 Q683.046 1521.07 681.101 1519.33 Q679.18 1517.6 676.078 1517.6 Q673.879 1517.6 671.425 1518.36 Q668.995 1519.13 666.217 1520.68 L666.217 1515.95 Q669.041 1514.82 671.495 1514.24 Q673.948 1513.66 675.985 1513.66 Q681.356 1513.66 684.55 1516.35 Q687.745 1519.03 687.745 1523.52 Q687.745 1525.65 686.934 1527.57 Q686.147 1529.47 684.041 1532.07 Q683.462 1532.74 680.36 1535.95 Q677.259 1539.15 671.61 1544.91 Z" fill="#000000" fill-rule="evenodd" fill-opacity="1" /><path clip-path="url(#clip540)" d="M943.612 1517.37 Q940.001 1517.37 938.173 1520.93 Q936.367 1524.47 936.367 1531.6 Q936.367 1538.71 938.173 1542.27 Q940.001 1545.82 943.612 1545.82 Q947.247 1545.82 949.052 1542.27 Q950.881 1538.71 950.881 1531.6 Q950.881 1524.47 949.052 1520.93 Q947.247 1517.37 943.612 1517.37 M943.612 1513.66 Q949.423 1513.66 952.478 1518.27 Q955.557 1522.85 955.557 1531.6 Q955.557 1540.33 952.478 1544.94 Q949.423 1549.52 943.612 1549.52 Q937.802 1549.52 934.724 1544.94 Q931.668 1540.33 931.668 1531.6 Q931.668 1522.85 934.724 1518.27 Q937.802 1513.66 943.612 1513.66 Z" fill="#000000" fill-rule="evenodd" fill-opacity="1" /><path clip-path="url(#clip540)" d="M1224.01 1544.91 L1240.32 1544.91 L1240.32 1548.85 L1218.38 1548.85 L1218.38 1544.91 Q1221.04 1542.16 1225.63 1537.53 Q1230.23 1532.88 1231.41 1531.53 Q1233.66 1529.01 1234.54 1527.27 Q1235.44 1525.51 1235.44 1523.82 Q1235.44 1521.07 1233.5 1519.33 Q1231.57 1517.6 1228.47 1517.6 Q1226.27 1517.6 1223.82 1518.36 Q1221.39 1519.13 1218.61 1520.68 L1218.61 1515.95 Q1221.44 1514.82 1223.89 1514.24 Q1226.34 1513.66 1228.38 1513.66 Q1233.75 1513.66 1236.95 1516.35 Q1240.14 1519.03 1240.14 1523.52 Q1240.14 1525.65 1239.33 1527.57 Q1238.54 1529.47 1236.44 1532.07 Q1235.86 1532.74 1232.76 1535.95 Q1229.65 1539.15 1224.01 1544.91 Z" fill="#000000" fill-rule="evenodd" fill-opacity="1" /><path clip-path="url(#clip540)" d="M1518.1 1518.36 L1506.3 1536.81 L1518.1 1536.81 L1518.1 1518.36 M1516.88 1514.29 L1522.76 1514.29 L1522.76 1536.81 L1527.69 1536.81 L1527.69 1540.7 L1522.76 1540.7 L1522.76 1548.85 L1518.1 1548.85 L1518.1 1540.7 L1502.5 1540.7 L1502.5 1536.19 L1516.88 1514.29 Z" fill="#000000" fill-rule="evenodd" fill-opacity="1" /><polyline clip-path="url(#clip542)" style="stroke:#000000; stroke-linecap:butt; stroke-linejoin:round; stroke-width:2; stroke-opacity:0.1; fill:none" points="
  156.112,1447.87 1731.11,1447.87 
  "/>
<polyline clip-path="url(#clip542)" style="stroke:#000000; stroke-linecap:butt; stroke-linejoin:round; stroke-width:2; stroke-opacity:0.1; fill:none" points="
  156.112,1138.78 1731.11,1138.78 
  "/>
<polyline clip-path="url(#clip542)" style="stroke:#000000; stroke-linecap:butt; stroke-linejoin:round; stroke-width:2; stroke-opacity:0.1; fill:none" points="
  156.112,829.677 1731.11,829.677 
  "/>
<polyline clip-path="url(#clip542)" style="stroke:#000000; stroke-linecap:butt; stroke-linejoin:round; stroke-width:2; stroke-opacity:0.1; fill:none" points="
  156.112,520.579 1731.11,520.579 
  "/>
<polyline clip-path="url(#clip542)" style="stroke:#000000; stroke-linecap:butt; stroke-linejoin:round; stroke-width:2; stroke-opacity:0.1; fill:none" points="
  156.112,211.481 1731.11,211.481 
  "/>
<polyline clip-path="url(#clip540)" style="stroke:#000000; stroke-linecap:butt; stroke-linejoin:round; stroke-width:4; stroke-opacity:1; fill:none" points="
  156.112,1486.45 156.112,123.472 
  "/>
<polyline clip-path="url(#clip540)" style="stroke:#000000; stroke-linecap:butt; stroke-linejoin:round; stroke-width:4; stroke-opacity:1; fill:none" points="
  156.112,1447.87 169.662,1447.87 
  "/>
<polyline clip-path="url(#clip540)" style="stroke:#000000; stroke-linecap:butt; stroke-linejoin:round; stroke-width:4; stroke-opacity:1; fill:none" points="
  156.112,1138.78 169.662,1138.78 
  "/>
<polyline clip-path="url(#clip540)" style="stroke:#000000; stroke-linecap:butt; stroke-linejoin:round; stroke-width:4; stroke-opacity:1; fill:none" points="
  156.112,829.677 169.662,829.677 
  "/>
<polyline clip-path="url(#clip540)" style="stroke:#000000; stroke-linecap:butt; stroke-linejoin:round; stroke-width:4; stroke-opacity:1; fill:none" points="
  156.112,520.579 169.662,520.579 
  "/>
<polyline clip-path="url(#clip540)" style="stroke:#000000; stroke-linecap:butt; stroke-linejoin:round; stroke-width:4; stroke-opacity:1; fill:none" points="
  156.112,211.481 169.662,211.481 
  "/>
<path clip-path="url(#clip540)" d="M62.9365 1433.67 Q59.3254 1433.67 57.4967 1437.24 Q55.6912 1440.78 55.6912 1447.91 Q55.6912 1455.01 57.4967 1458.58 Q59.3254 1462.12 62.9365 1462.12 Q66.5707 1462.12 68.3763 1458.58 Q70.205 1455.01 70.205 1447.91 Q70.205 1440.78 68.3763 1437.24 Q66.5707 1433.67 62.9365 1433.67 M62.9365 1429.97 Q68.7467 1429.97 71.8022 1434.57 Q74.8809 1439.16 74.8809 1447.91 Q74.8809 1456.63 71.8022 1461.24 Q68.7467 1465.82 62.9365 1465.82 Q57.1264 1465.82 54.0477 1461.24 Q50.9921 1456.63 50.9921 1447.91 Q50.9921 1439.16 54.0477 1434.57 Q57.1264 1429.97 62.9365 1429.97 Z" fill="#000000" fill-rule="evenodd" fill-opacity="1" /><path clip-path="url(#clip540)" d="M83.0984 1459.27 L87.9827 1459.27 L87.9827 1465.15 L83.0984 1465.15 L83.0984 1459.27 Z" fill="#000000" fill-rule="evenodd" fill-opacity="1" /><path clip-path="url(#clip540)" d="M108.168 1433.67 Q104.557 1433.67 102.728 1437.24 Q100.922 1440.78 100.922 1447.91 Q100.922 1455.01 102.728 1458.58 Q104.557 1462.12 108.168 1462.12 Q111.802 1462.12 113.608 1458.58 Q115.436 1455.01 115.436 1447.91 Q115.436 1440.78 113.608 1437.24 Q111.802 1433.67 108.168 1433.67 M108.168 1429.97 Q113.978 1429.97 117.033 1434.57 Q120.112 1439.16 120.112 1447.91 Q120.112 1456.63 117.033 1461.24 Q113.978 1465.82 108.168 1465.82 Q102.358 1465.82 99.2789 1461.24 Q96.2234 1456.63 96.2234 1447.91 Q96.2234 1439.16 99.2789 1434.57 Q102.358 1429.97 108.168 1429.97 Z" fill="#000000" fill-rule="evenodd" fill-opacity="1" /><path clip-path="url(#clip540)" d="M63.9319 1124.57 Q60.3208 1124.57 58.4921 1128.14 Q56.6865 1131.68 56.6865 1138.81 Q56.6865 1145.92 58.4921 1149.48 Q60.3208 1153.02 63.9319 1153.02 Q67.5661 1153.02 69.3717 1149.48 Q71.2004 1145.92 71.2004 1138.81 Q71.2004 1131.68 69.3717 1128.14 Q67.5661 1124.57 63.9319 1124.57 M63.9319 1120.87 Q69.742 1120.87 72.7976 1125.48 Q75.8763 1130.06 75.8763 1138.81 Q75.8763 1147.54 72.7976 1152.14 Q69.742 1156.73 63.9319 1156.73 Q58.1217 1156.73 55.043 1152.14 Q51.9875 1147.54 51.9875 1138.81 Q51.9875 1130.06 55.043 1125.48 Q58.1217 1120.87 63.9319 1120.87 Z" fill="#000000" fill-rule="evenodd" fill-opacity="1" /><path clip-path="url(#clip540)" d="M84.0938 1150.18 L88.978 1150.18 L88.978 1156.06 L84.0938 1156.06 L84.0938 1150.18 Z" fill="#000000" fill-rule="evenodd" fill-opacity="1" /><path clip-path="url(#clip540)" d="M99.2095 1121.5 L117.566 1121.5 L117.566 1125.43 L103.492 1125.43 L103.492 1133.9 Q104.51 1133.56 105.529 1133.39 Q106.547 1133.21 107.566 1133.21 Q113.353 1133.21 116.733 1136.38 Q120.112 1139.55 120.112 1144.97 Q120.112 1150.55 116.64 1153.65 Q113.168 1156.73 106.848 1156.73 Q104.672 1156.73 102.404 1156.36 Q100.159 1155.99 97.7511 1155.25 L97.7511 1150.55 Q99.8345 1151.68 102.057 1152.24 Q104.279 1152.79 106.756 1152.79 Q110.76 1152.79 113.098 1150.68 Q115.436 1148.58 115.436 1144.97 Q115.436 1141.36 113.098 1139.25 Q110.76 1137.14 106.756 1137.14 Q104.881 1137.14 103.006 1137.56 Q101.154 1137.98 99.2095 1138.86 L99.2095 1121.5 Z" fill="#000000" fill-rule="evenodd" fill-opacity="1" /><path clip-path="url(#clip540)" d="M53.7467 843.022 L61.3856 843.022 L61.3856 816.657 L53.0754 818.323 L53.0754 814.064 L61.3393 812.397 L66.0152 812.397 L66.0152 843.022 L73.654 843.022 L73.654 846.957 L53.7467 846.957 L53.7467 843.022 Z" fill="#000000" fill-rule="evenodd" fill-opacity="1" /><path clip-path="url(#clip540)" d="M83.0984 841.078 L87.9827 841.078 L87.9827 846.957 L83.0984 846.957 L83.0984 841.078 Z" fill="#000000" fill-rule="evenodd" fill-opacity="1" /><path clip-path="url(#clip540)" d="M108.168 815.476 Q104.557 815.476 102.728 819.041 Q100.922 822.582 100.922 829.712 Q100.922 836.818 102.728 840.383 Q104.557 843.925 108.168 843.925 Q111.802 843.925 113.608 840.383 Q115.436 836.818 115.436 829.712 Q115.436 822.582 113.608 819.041 Q111.802 815.476 108.168 815.476 M108.168 811.772 Q113.978 811.772 117.033 816.379 Q120.112 820.962 120.112 829.712 Q120.112 838.439 117.033 843.045 Q113.978 847.629 108.168 847.629 Q102.358 847.629 99.2789 843.045 Q96.2234 838.439 96.2234 829.712 Q96.2234 820.962 99.2789 816.379 Q102.358 811.772 108.168 811.772 Z" fill="#000000" fill-rule="evenodd" fill-opacity="1" /><path clip-path="url(#clip540)" d="M54.7421 533.924 L62.381 533.924 L62.381 507.559 L54.0708 509.225 L54.0708 504.966 L62.3347 503.299 L67.0106 503.299 L67.0106 533.924 L74.6494 533.924 L74.6494 537.859 L54.7421 537.859 L54.7421 533.924 Z" fill="#000000" fill-rule="evenodd" fill-opacity="1" /><path clip-path="url(#clip540)" d="M84.0938 531.98 L88.978 531.98 L88.978 537.859 L84.0938 537.859 L84.0938 531.98 Z" fill="#000000" fill-rule="evenodd" fill-opacity="1" /><path clip-path="url(#clip540)" d="M99.2095 503.299 L117.566 503.299 L117.566 507.235 L103.492 507.235 L103.492 515.707 Q104.51 515.36 105.529 515.197 Q106.547 515.012 107.566 515.012 Q113.353 515.012 116.733 518.184 Q120.112 521.355 120.112 526.771 Q120.112 532.35 116.64 535.452 Q113.168 538.531 106.848 538.531 Q104.672 538.531 102.404 538.16 Q100.159 537.79 97.7511 537.049 L97.7511 532.35 Q99.8345 533.484 102.057 534.04 Q104.279 534.596 106.756 534.596 Q110.76 534.596 113.098 532.489 Q115.436 530.383 115.436 526.771 Q115.436 523.16 113.098 521.054 Q110.76 518.947 106.756 518.947 Q104.881 518.947 103.006 519.364 Q101.154 519.781 99.2095 520.66 L99.2095 503.299 Z" fill="#000000" fill-rule="evenodd" fill-opacity="1" /><path clip-path="url(#clip540)" d="M56.9643 224.826 L73.2837 224.826 L73.2837 228.761 L51.3393 228.761 L51.3393 224.826 Q54.0014 222.072 58.5847 217.442 Q63.1911 212.789 64.3717 211.447 Q66.617 208.924 67.4967 207.188 Q68.3994 205.428 68.3994 203.738 Q68.3994 200.984 66.455 199.248 Q64.5337 197.512 61.4319 197.512 Q59.2328 197.512 56.7791 198.276 Q54.3486 199.039 51.5708 200.59 L51.5708 195.868 Q54.3949 194.734 56.8486 194.155 Q59.3023 193.576 61.3393 193.576 Q66.7096 193.576 69.9041 196.262 Q73.0985 198.947 73.0985 203.438 Q73.0985 205.567 72.2883 207.488 Q71.5013 209.387 69.3948 211.979 Q68.8161 212.65 65.7143 215.868 Q62.6124 219.062 56.9643 224.826 Z" fill="#000000" fill-rule="evenodd" fill-opacity="1" /><path clip-path="url(#clip540)" d="M83.0984 222.882 L87.9827 222.882 L87.9827 228.761 L83.0984 228.761 L83.0984 222.882 Z" fill="#000000" fill-rule="evenodd" fill-opacity="1" /><path clip-path="url(#clip540)" d="M108.168 197.28 Q104.557 197.28 102.728 200.845 Q100.922 204.387 100.922 211.516 Q100.922 218.623 102.728 222.187 Q104.557 225.729 108.168 225.729 Q111.802 225.729 113.608 222.187 Q115.436 218.623 115.436 211.516 Q115.436 204.387 113.608 200.845 Q111.802 197.28 108.168 197.28 M108.168 193.576 Q113.978 193.576 117.033 198.183 Q120.112 202.766 120.112 211.516 Q120.112 220.243 117.033 224.849 Q113.978 229.433 108.168 229.433 Q102.358 229.433 99.2789 224.849 Q96.2234 220.243 96.2234 211.516 Q96.2234 202.766 99.2789 198.183 Q102.358 193.576 108.168 193.576 Z" fill="#000000" fill-rule="evenodd" fill-opacity="1" /><path clip-path="url(#clip540)" d="M344.686 12.096 L382.927 12.096 L382.927 18.9825 L352.869 18.9825 L352.869 36.8875 L381.671 36.8875 L381.671 43.7741 L352.869 43.7741 L352.869 65.6895 L383.656 65.6895 L383.656 72.576 L344.686 72.576 L344.686 12.096 Z" fill="#000000" fill-rule="evenodd" fill-opacity="1" /><path clip-path="url(#clip540)" d="M423.071 34.1734 Q421.815 33.4443 420.317 33.1202 Q418.858 32.7556 417.076 32.7556 Q410.756 32.7556 407.354 36.8875 Q403.991 40.9789 403.991 48.6757 L403.991 72.576 L396.497 72.576 L396.497 27.2059 L403.991 27.2059 L403.991 34.2544 Q406.341 30.1225 410.108 28.1376 Q413.876 26.1121 419.263 26.1121 Q420.033 26.1121 420.965 26.2337 Q421.896 26.3147 423.031 26.5172 L423.071 34.1734 Z" fill="#000000" fill-rule="evenodd" fill-opacity="1" /><path clip-path="url(#clip540)" d="M455.722 34.1734 Q454.466 33.4443 452.967 33.1202 Q451.509 32.7556 449.726 32.7556 Q443.407 32.7556 440.004 36.8875 Q436.642 40.9789 436.642 48.6757 L436.642 72.576 L429.148 72.576 L429.148 27.2059 L436.642 27.2059 L436.642 34.2544 Q438.991 30.1225 442.759 28.1376 Q446.526 26.1121 451.914 26.1121 Q452.683 26.1121 453.615 26.2337 Q454.547 26.3147 455.681 26.5172 L455.722 34.1734 Z" fill="#000000" fill-rule="evenodd" fill-opacity="1" /><path clip-path="url(#clip540)" d="M479.298 32.4315 Q473.302 32.4315 469.819 37.1306 Q466.335 41.7891 466.335 49.9314 Q466.335 58.0738 469.778 62.7728 Q473.262 67.4314 479.298 67.4314 Q485.253 67.4314 488.736 62.7323 Q492.22 58.0333 492.22 49.9314 Q492.22 41.8701 488.736 37.1711 Q485.253 32.4315 479.298 32.4315 M479.298 26.1121 Q489.02 26.1121 494.57 32.4315 Q500.119 38.7509 500.119 49.9314 Q500.119 61.0714 494.57 67.4314 Q489.02 73.7508 479.298 73.7508 Q469.535 73.7508 463.985 67.4314 Q458.476 61.0714 458.476 49.9314 Q458.476 38.7509 463.985 32.4315 Q469.535 26.1121 479.298 26.1121 Z" fill="#000000" fill-rule="evenodd" fill-opacity="1" /><path clip-path="url(#clip540)" d="M538.765 34.1734 Q537.509 33.4443 536.01 33.1202 Q534.552 32.7556 532.77 32.7556 Q526.45 32.7556 523.048 36.8875 Q519.685 40.9789 519.685 48.6757 L519.685 72.576 L512.191 72.576 L512.191 27.2059 L519.685 27.2059 L519.685 34.2544 Q522.035 30.1225 525.802 28.1376 Q529.569 26.1121 534.957 26.1121 Q535.727 26.1121 536.659 26.2337 Q537.59 26.3147 538.725 26.5172 L538.765 34.1734 Z" fill="#000000" fill-rule="evenodd" fill-opacity="1" /><path clip-path="url(#clip540)" d="M590.536 32.4315 Q584.54 32.4315 581.056 37.1306 Q577.573 41.7891 577.573 49.9314 Q577.573 58.0738 581.016 62.7728 Q584.5 67.4314 590.536 67.4314 Q596.49 67.4314 599.974 62.7323 Q603.458 58.0333 603.458 49.9314 Q603.458 41.8701 599.974 37.1711 Q596.49 32.4315 590.536 32.4315 M590.536 26.1121 Q600.258 26.1121 605.808 32.4315 Q611.357 38.7509 611.357 49.9314 Q611.357 61.0714 605.808 67.4314 Q600.258 73.7508 590.536 73.7508 Q580.773 73.7508 575.223 67.4314 Q569.714 61.0714 569.714 49.9314 Q569.714 38.7509 575.223 32.4315 Q580.773 26.1121 590.536 26.1121 Z" fill="#000000" fill-rule="evenodd" fill-opacity="1" /><path clip-path="url(#clip540)" d="M646.681 9.54393 L646.681 15.7418 L639.552 15.7418 Q635.541 15.7418 633.961 17.3622 Q632.422 18.9825 632.422 23.1955 L632.422 27.2059 L644.696 27.2059 L644.696 32.9987 L632.422 32.9987 L632.422 72.576 L624.928 72.576 L624.928 32.9987 L617.798 32.9987 L617.798 27.2059 L624.928 27.2059 L624.928 24.0462 Q624.928 16.471 628.452 13.0277 Q631.976 9.54393 639.633 9.54393 L646.681 9.54393 Z" fill="#000000" fill-rule="evenodd" fill-opacity="1" /><path clip-path="url(#clip540)" d="M680.425 12.096 L712.549 12.096 L712.549 18.9825 L687.919 18.9825 L687.919 33.8088 Q689.702 33.2012 691.484 32.9176 Q693.267 32.5936 695.049 32.5936 Q705.176 32.5936 711.091 38.1433 Q717.005 43.6931 717.005 53.1722 Q717.005 62.9348 710.928 68.3631 Q704.852 73.7508 693.793 73.7508 Q689.985 73.7508 686.015 73.1026 Q682.086 72.4545 677.873 71.1582 L677.873 62.9348 Q681.519 64.9198 685.408 65.892 Q689.297 66.8642 693.631 66.8642 Q700.639 66.8642 704.731 63.1779 Q708.822 59.4916 708.822 53.1722 Q708.822 46.8528 704.731 43.1664 Q700.639 39.4801 693.631 39.4801 Q690.35 39.4801 687.069 40.2093 Q683.828 40.9384 680.425 42.4778 L680.425 12.096 Z" fill="#000000" fill-rule="evenodd" fill-opacity="1" /><path clip-path="url(#clip540)" d="M728.307 46.5287 L750.141 46.5287 L750.141 53.1722 L728.307 53.1722 L728.307 46.5287 Z" fill="#000000" fill-rule="evenodd" fill-opacity="1" /><path clip-path="url(#clip540)" d="M789.192 17.6457 Q780.28 17.6457 775.014 24.2892 Q769.788 30.9327 769.788 42.3968 Q769.788 53.8203 775.014 60.4638 Q780.28 67.1073 789.192 67.1073 Q798.104 67.1073 803.289 60.4638 Q808.515 53.8203 808.515 42.3968 Q808.515 30.9327 803.289 24.2892 Q798.104 17.6457 789.192 17.6457 M789.192 11.0023 Q801.912 11.0023 809.527 19.5497 Q817.143 28.0566 817.143 42.3968 Q817.143 56.6965 809.527 65.2439 Q801.912 73.7508 789.192 73.7508 Q776.432 73.7508 768.775 65.2439 Q761.16 56.737 761.16 42.3968 Q761.16 28.0566 768.775 19.5497 Q776.432 11.0023 789.192 11.0023 Z" fill="#000000" fill-rule="evenodd" fill-opacity="1" /><path clip-path="url(#clip540)" d="M855.91 34.1734 Q854.655 33.4443 853.156 33.1202 Q851.697 32.7556 849.915 32.7556 Q843.596 32.7556 840.193 36.8875 Q836.831 40.9789 836.831 48.6757 L836.831 72.576 L829.336 72.576 L829.336 27.2059 L836.831 27.2059 L836.831 34.2544 Q839.18 30.1225 842.947 28.1376 Q846.715 26.1121 852.102 26.1121 Q852.872 26.1121 853.804 26.2337 Q854.736 26.3147 855.87 26.5172 L855.91 34.1734 Z" fill="#000000" fill-rule="evenodd" fill-opacity="1" /><path clip-path="url(#clip540)" d="M892.125 34.0924 L892.125 9.54393 L899.579 9.54393 L899.579 72.576 L892.125 72.576 L892.125 65.7705 Q889.776 69.8214 886.171 71.8063 Q882.606 73.7508 877.583 73.7508 Q869.359 73.7508 864.174 67.1883 Q859.03 60.6258 859.03 49.9314 Q859.03 39.2371 864.174 32.6746 Q869.359 26.1121 877.583 26.1121 Q882.606 26.1121 886.171 28.0971 Q889.776 30.0415 892.125 34.0924 M866.726 49.9314 Q866.726 58.1548 870.088 62.8538 Q873.491 67.5124 879.406 67.5124 Q885.32 67.5124 888.723 62.8538 Q892.125 58.1548 892.125 49.9314 Q892.125 41.7081 888.723 37.0496 Q885.32 32.3505 879.406 32.3505 Q873.491 32.3505 870.088 37.0496 Q866.726 41.7081 866.726 49.9314 Z" fill="#000000" fill-rule="evenodd" fill-opacity="1" /><path clip-path="url(#clip540)" d="M953.74 48.0275 L953.74 51.6733 L919.469 51.6733 Q919.955 59.3701 924.087 63.421 Q928.259 67.4314 935.673 67.4314 Q939.967 67.4314 943.977 66.3781 Q948.028 65.3249 951.998 63.2184 L951.998 70.267 Q947.987 71.9684 943.774 72.8596 Q939.562 73.7508 935.227 73.7508 Q924.371 73.7508 918.011 67.4314 Q911.691 61.1119 911.691 50.3365 Q911.691 39.1965 917.687 32.6746 Q923.722 26.1121 933.931 26.1121 Q943.086 26.1121 948.392 32.0264 Q953.74 37.9003 953.74 48.0275 M946.286 45.84 Q946.205 39.7232 942.843 36.0774 Q939.521 32.4315 934.012 32.4315 Q927.773 32.4315 924.006 35.9558 Q920.279 39.4801 919.712 45.8805 L946.286 45.84 Z" fill="#000000" fill-rule="evenodd" fill-opacity="1" /><path clip-path="url(#clip540)" d="M992.264 34.1734 Q991.008 33.4443 989.509 33.1202 Q988.051 32.7556 986.268 32.7556 Q979.949 32.7556 976.546 36.8875 Q973.184 40.9789 973.184 48.6757 L973.184 72.576 L965.69 72.576 L965.69 27.2059 L973.184 27.2059 L973.184 34.2544 Q975.534 30.1225 979.301 28.1376 Q983.068 26.1121 988.456 26.1121 Q989.226 26.1121 990.157 26.2337 Q991.089 26.3147 992.223 26.5172 L992.264 34.1734 Z" fill="#000000" fill-rule="evenodd" fill-opacity="1" /><path clip-path="url(#clip540)" d="M1026.78 12.096 L1034.96 12.096 L1034.96 72.576 L1026.78 72.576 L1026.78 12.096 Z" fill="#000000" fill-rule="evenodd" fill-opacity="1" /><path clip-path="url(#clip540)" d="M1088.63 45.1919 L1088.63 72.576 L1081.18 72.576 L1081.18 45.4349 Q1081.18 38.994 1078.67 35.7938 Q1076.16 32.5936 1071.13 32.5936 Q1065.1 32.5936 1061.62 36.4419 Q1058.13 40.2903 1058.13 46.9338 L1058.13 72.576 L1050.64 72.576 L1050.64 27.2059 L1058.13 27.2059 L1058.13 34.2544 Q1060.81 30.163 1064.41 28.1376 Q1068.06 26.1121 1072.8 26.1121 Q1080.61 26.1121 1084.62 30.9732 Q1088.63 35.7938 1088.63 45.1919 Z" fill="#000000" fill-rule="evenodd" fill-opacity="1" /><path clip-path="url(#clip540)" d="M1110.87 14.324 L1110.87 27.2059 L1126.23 27.2059 L1126.23 32.9987 L1110.87 32.9987 L1110.87 57.6282 Q1110.87 63.1779 1112.37 64.7578 Q1113.91 66.3376 1118.57 66.3376 L1126.23 66.3376 L1126.23 72.576 L1118.57 72.576 Q1109.94 72.576 1106.66 69.3758 Q1103.38 66.1351 1103.38 57.6282 L1103.38 32.9987 L1097.91 32.9987 L1097.91 27.2059 L1103.38 27.2059 L1103.38 14.324 L1110.87 14.324 Z" fill="#000000" fill-rule="evenodd" fill-opacity="1" /><path clip-path="url(#clip540)" d="M1174.84 48.0275 L1174.84 51.6733 L1140.57 51.6733 Q1141.05 59.3701 1145.19 63.421 Q1149.36 67.4314 1156.77 67.4314 Q1161.06 67.4314 1165.08 66.3781 Q1169.13 65.3249 1173.1 63.2184 L1173.1 70.267 Q1169.09 71.9684 1164.87 72.8596 Q1160.66 73.7508 1156.33 73.7508 Q1145.47 73.7508 1139.11 67.4314 Q1132.79 61.1119 1132.79 50.3365 Q1132.79 39.1965 1138.78 32.6746 Q1144.82 26.1121 1155.03 26.1121 Q1164.18 26.1121 1169.49 32.0264 Q1174.84 37.9003 1174.84 48.0275 M1167.38 45.84 Q1167.3 39.7232 1163.94 36.0774 Q1160.62 32.4315 1155.11 32.4315 Q1148.87 32.4315 1145.1 35.9558 Q1141.38 39.4801 1140.81 45.8805 L1167.38 45.84 Z" fill="#000000" fill-rule="evenodd" fill-opacity="1" /><path clip-path="url(#clip540)" d="M1213.36 34.1734 Q1212.11 33.4443 1210.61 33.1202 Q1209.15 32.7556 1207.37 32.7556 Q1201.05 32.7556 1197.64 36.8875 Q1194.28 40.9789 1194.28 48.6757 L1194.28 72.576 L1186.79 72.576 L1186.79 27.2059 L1194.28 27.2059 L1194.28 34.2544 Q1196.63 30.1225 1200.4 28.1376 Q1204.17 26.1121 1209.55 26.1121 Q1210.32 26.1121 1211.26 26.2337 Q1212.19 26.3147 1213.32 26.5172 L1213.36 34.1734 Z" fill="#000000" fill-rule="evenodd" fill-opacity="1" /><path clip-path="url(#clip540)" d="M1228.39 65.7705 L1228.39 89.8329 L1220.9 89.8329 L1220.9 27.2059 L1228.39 27.2059 L1228.39 34.0924 Q1230.74 30.0415 1234.31 28.0971 Q1237.91 26.1121 1242.89 26.1121 Q1251.16 26.1121 1256.3 32.6746 Q1261.49 39.2371 1261.49 49.9314 Q1261.49 60.6258 1256.3 67.1883 Q1251.16 73.7508 1242.89 73.7508 Q1237.91 73.7508 1234.31 71.8063 Q1230.74 69.8214 1228.39 65.7705 M1253.75 49.9314 Q1253.75 41.7081 1250.35 37.0496 Q1246.98 32.3505 1241.07 32.3505 Q1235.16 32.3505 1231.75 37.0496 Q1228.39 41.7081 1228.39 49.9314 Q1228.39 58.1548 1231.75 62.8538 Q1235.16 67.5124 1241.07 67.5124 Q1246.98 67.5124 1250.35 62.8538 Q1253.75 58.1548 1253.75 49.9314 Z" fill="#000000" fill-rule="evenodd" fill-opacity="1" /><path clip-path="url(#clip540)" d="M1291.42 32.4315 Q1285.43 32.4315 1281.94 37.1306 Q1278.46 41.7891 1278.46 49.9314 Q1278.46 58.0738 1281.9 62.7728 Q1285.39 67.4314 1291.42 67.4314 Q1297.38 67.4314 1300.86 62.7323 Q1304.35 58.0333 1304.35 49.9314 Q1304.35 41.8701 1300.86 37.1711 Q1297.38 32.4315 1291.42 32.4315 M1291.42 26.1121 Q1301.15 26.1121 1306.69 32.4315 Q1312.24 38.7509 1312.24 49.9314 Q1312.24 61.0714 1306.69 67.4314 Q1301.15 73.7508 1291.42 73.7508 Q1281.66 73.7508 1276.11 67.4314 Q1270.6 61.0714 1270.6 49.9314 Q1270.6 38.7509 1276.11 32.4315 Q1281.66 26.1121 1291.42 26.1121 Z" fill="#000000" fill-rule="evenodd" fill-opacity="1" /><path clip-path="url(#clip540)" d="M1324.6 9.54393 L1332.05 9.54393 L1332.05 72.576 L1324.6 72.576 L1324.6 9.54393 Z" fill="#000000" fill-rule="evenodd" fill-opacity="1" /><path clip-path="url(#clip540)" d="M1368.27 49.7694 Q1359.24 49.7694 1355.75 51.8354 Q1352.27 53.9013 1352.27 58.8839 Q1352.27 62.8538 1354.86 65.2034 Q1357.49 67.5124 1361.99 67.5124 Q1368.19 67.5124 1371.91 63.1374 Q1375.68 58.7219 1375.68 51.4303 L1375.68 49.7694 L1368.27 49.7694 M1383.14 46.6907 L1383.14 72.576 L1375.68 72.576 L1375.68 65.6895 Q1373.13 69.8214 1369.32 71.8063 Q1365.51 73.7508 1360 73.7508 Q1353.04 73.7508 1348.91 69.8619 Q1344.81 65.9325 1344.81 59.3701 Q1344.81 51.7138 1349.92 47.825 Q1355.06 43.9361 1365.23 43.9361 L1375.68 43.9361 L1375.68 43.2069 Q1375.68 38.0623 1372.28 35.2672 Q1368.92 32.4315 1362.8 32.4315 Q1358.91 32.4315 1355.22 33.3632 Q1351.54 34.295 1348.14 36.1584 L1348.14 29.2718 Q1352.23 27.692 1356.08 26.9223 Q1359.92 26.1121 1363.57 26.1121 Q1373.41 26.1121 1378.27 31.2163 Q1383.14 36.3204 1383.14 46.6907 Z" fill="#000000" fill-rule="evenodd" fill-opacity="1" /><path clip-path="url(#clip540)" d="M1405.86 14.324 L1405.86 27.2059 L1421.21 27.2059 L1421.21 32.9987 L1405.86 32.9987 L1405.86 57.6282 Q1405.86 63.1779 1407.36 64.7578 Q1408.9 66.3376 1413.56 66.3376 L1421.21 66.3376 L1421.21 72.576 L1413.56 72.576 Q1404.93 72.576 1401.65 69.3758 Q1398.37 66.1351 1398.37 57.6282 L1398.37 32.9987 L1392.9 32.9987 L1392.9 27.2059 L1398.37 27.2059 L1398.37 14.324 L1405.86 14.324 Z" fill="#000000" fill-rule="evenodd" fill-opacity="1" /><path clip-path="url(#clip540)" d="M1431.02 27.2059 L1438.47 27.2059 L1438.47 72.576 L1431.02 72.576 L1431.02 27.2059 M1431.02 9.54393 L1438.47 9.54393 L1438.47 18.9825 L1431.02 18.9825 L1431.02 9.54393 Z" fill="#000000" fill-rule="evenodd" fill-opacity="1" /><path clip-path="url(#clip540)" d="M1471.65 32.4315 Q1465.65 32.4315 1462.17 37.1306 Q1458.68 41.7891 1458.68 49.9314 Q1458.68 58.0738 1462.13 62.7728 Q1465.61 67.4314 1471.65 67.4314 Q1477.6 67.4314 1481.09 62.7323 Q1484.57 58.0333 1484.57 49.9314 Q1484.57 41.8701 1481.09 37.1711 Q1477.6 32.4315 1471.65 32.4315 M1471.65 26.1121 Q1481.37 26.1121 1486.92 32.4315 Q1492.47 38.7509 1492.47 49.9314 Q1492.47 61.0714 1486.92 67.4314 Q1481.37 73.7508 1471.65 73.7508 Q1461.89 73.7508 1456.34 67.4314 Q1450.83 61.0714 1450.83 49.9314 Q1450.83 38.7509 1456.34 32.4315 Q1461.89 26.1121 1471.65 26.1121 Z" fill="#000000" fill-rule="evenodd" fill-opacity="1" /><path clip-path="url(#clip540)" d="M1542.54 45.1919 L1542.54 72.576 L1535.08 72.576 L1535.08 45.4349 Q1535.08 38.994 1532.57 35.7938 Q1530.06 32.5936 1525.04 32.5936 Q1519 32.5936 1515.52 36.4419 Q1512.04 40.2903 1512.04 46.9338 L1512.04 72.576 L1504.54 72.576 L1504.54 27.2059 L1512.04 27.2059 L1512.04 34.2544 Q1514.71 30.163 1518.31 28.1376 Q1521.96 26.1121 1526.7 26.1121 Q1534.52 26.1121 1538.53 30.9732 Q1542.54 35.7938 1542.54 45.1919 Z" fill="#000000" fill-rule="evenodd" fill-opacity="1" /><polyline clip-path="url(#clip542)" style="stroke:#009af9; stroke-linecap:butt; stroke-linejoin:round; stroke-width:4; stroke-opacity:1; fill:none" points="
  200.688,308.593 203.545,444.373 206.402,574.993 209.26,700.572 212.117,821.223 214.975,937.06 217.832,1048.19 220.689,1154.73 223.547,1256.79 226.404,1354.47 
  229.262,1447.87 232.119,1358.64 234.976,1273.47 237.834,1192.27 240.691,1114.94 243.549,1041.38 246.406,971.493 249.263,905.188 252.121,842.371 254.978,782.95 
  257.836,726.836 260.693,673.94 263.55,624.174 266.408,577.453 269.265,533.693 272.123,492.81 274.98,454.723 277.837,419.352 280.695,386.618 283.552,356.442 
  286.41,328.75 289.267,303.465 292.125,280.514 294.982,259.825 297.839,241.327 300.697,224.949 303.554,210.623 306.412,198.282 309.269,187.859 312.126,179.289 
  314.984,172.509 317.841,167.455 320.699,164.067 323.556,162.284 326.413,162.047 329.271,163.297 332.128,165.979 334.986,170.035 337.843,175.411 340.7,182.054 
  343.558,189.911 346.415,198.93 349.273,209.061 352.13,220.255 354.987,232.463 357.845,245.638 360.702,259.733 363.56,274.702 366.417,290.502 369.274,307.089 
  372.132,324.421 374.989,342.456 377.847,361.152 380.704,380.472 383.561,400.375 386.419,420.824 389.276,441.782 392.134,463.213 394.991,485.082 397.848,507.354 
  400.706,529.995 403.563,552.974 406.421,576.258 409.278,599.816 412.135,623.618 414.993,647.634 417.85,671.836 420.708,696.196 423.565,720.687 426.422,745.283 
  429.28,769.958 432.137,794.686 434.995,819.445 437.852,844.21 440.709,868.959 443.567,893.67 446.424,918.322 449.282,942.893 452.139,967.365 454.996,991.717 
  457.854,1015.93 460.711,1039.99 463.569,1063.87 466.426,1087.57 469.284,1111.06 472.141,1134.32 474.998,1157.35 477.856,1180.13 480.713,1202.64 483.571,1224.88 
  486.428,1246.82 489.285,1268.47 492.143,1289.79 495,1310.79 497.858,1331.46 500.715,1351.78 503.572,1371.74 506.43,1391.34 509.287,1410.57 512.145,1429.42 
  515.002,1447.87 517.859,1429.81 520.717,1412.15 523.574,1394.9 526.432,1378.06 529.289,1361.65 532.146,1345.65 535.004,1330.09 537.861,1314.96 540.719,1300.26 
  543.576,1286.01 546.433,1272.19 549.291,1258.83 552.148,1245.91 555.006,1233.44 557.863,1221.41 560.72,1209.85 563.578,1198.73 566.435,1188.06 569.293,1177.85 
  572.15,1168.09 575.007,1158.78 577.865,1149.93 580.722,1141.52 583.58,1133.56 586.437,1126.05 589.294,1118.98 592.152,1112.36 595.009,1106.17 597.867,1100.43 
  600.724,1095.11 603.581,1090.23 606.439,1085.77 609.296,1081.74 612.154,1078.13 615.011,1074.93 617.868,1072.15 620.726,1069.77 623.583,1067.79 626.441,1066.21 
  629.298,1065.02 632.155,1064.21 635.013,1063.79 637.87,1063.74 640.728,1064.06 643.585,1064.74 646.442,1065.78 649.3,1067.18 652.157,1068.91 655.015,1070.98 
  657.872,1073.39 660.73,1076.12 663.587,1079.16 666.444,1082.52 669.302,1086.18 672.159,1090.14 675.017,1094.38 677.874,1098.91 680.731,1103.71 683.589,1108.77 
  686.446,1114.1 689.304,1119.68 692.161,1125.49 695.018,1131.55 697.876,1137.83 700.733,1144.33 703.591,1151.05 706.448,1157.97 709.305,1165.08 712.163,1172.38 
  715.02,1179.86 717.878,1187.51 720.735,1195.33 723.592,1203.3 726.45,1211.42 729.307,1219.67 732.165,1228.06 735.022,1236.57 737.879,1245.19 740.737,1253.93 
  743.594,1262.75 746.452,1271.67 749.309,1280.68 752.166,1289.75 755.024,1298.9 757.881,1308.1 760.739,1317.35 763.596,1326.64 766.453,1335.97 769.311,1345.33 
  772.168,1354.7 775.026,1364.09 777.883,1373.48 780.74,1382.87 783.598,1392.25 786.455,1401.61 789.313,1410.94 792.17,1420.24 795.027,1429.5 797.885,1438.71 
  800.742,1447.87 803.6,1438.77 806.457,1429.74 809.314,1420.79 812.172,1411.91 815.029,1403.12 817.887,1394.43 820.744,1385.83 823.601,1377.35 826.459,1368.97 
  829.316,1360.71 832.174,1352.58 835.031,1344.58 837.888,1336.71 840.746,1328.99 843.603,1321.41 846.461,1313.98 849.318,1306.71 852.176,1299.6 855.033,1292.66 
  857.89,1285.89 860.748,1279.3 863.605,1272.89 866.463,1266.66 869.32,1260.62 872.177,1254.78 875.035,1249.13 877.892,1243.69 880.75,1238.44 883.607,1233.41 
  886.464,1228.59 889.322,1223.98 892.179,1219.59 895.037,1215.42 897.894,1211.48 900.751,1207.76 903.609,1204.27 906.466,1201.01 909.324,1197.98 912.181,1195.19 
  915.038,1192.63 917.896,1190.32 920.753,1188.24 923.611,1186.4 926.468,1184.81 929.325,1183.46 932.183,1182.35 935.04,1181.49 937.898,1180.88 940.755,1180.51 
  943.612,1180.38 946.47,1180.51 949.327,1180.88 952.185,1181.49 955.042,1182.35 957.899,1183.46 960.757,1184.81 963.614,1186.4 966.472,1188.24 969.329,1190.32 
  972.186,1192.63 975.044,1195.19 977.901,1197.98 980.759,1201.01 983.616,1204.27 986.473,1207.76 989.331,1211.48 992.188,1215.42 995.046,1219.59 997.903,1223.98 
  1000.76,1228.59 1003.62,1233.41 1006.48,1238.44 1009.33,1243.69 1012.19,1249.13 1015.05,1254.78 1017.9,1260.62 1020.76,1266.66 1023.62,1272.89 1026.48,1279.3 
  1029.33,1285.89 1032.19,1292.66 1035.05,1299.6 1037.91,1306.71 1040.76,1313.98 1043.62,1321.41 1046.48,1328.99 1049.34,1336.71 1052.19,1344.58 1055.05,1352.58 
  1057.91,1360.71 1060.77,1368.97 1063.62,1377.35 1066.48,1385.83 1069.34,1394.43 1072.2,1403.12 1075.05,1411.91 1077.91,1420.79 1080.77,1429.74 1083.63,1438.77 
  1086.48,1447.87 1089.34,1438.71 1092.2,1429.5 1095.05,1420.24 1097.91,1410.94 1100.77,1401.61 1103.63,1392.25 1106.48,1382.87 1109.34,1373.48 1112.2,1364.09 
  1115.06,1354.7 1117.91,1345.33 1120.77,1335.97 1123.63,1326.64 1126.49,1317.35 1129.34,1308.1 1132.2,1298.9 1135.06,1289.75 1137.92,1280.68 1140.77,1271.67 
  1143.63,1262.75 1146.49,1253.93 1149.35,1245.19 1152.2,1236.57 1155.06,1228.06 1157.92,1219.67 1160.78,1211.42 1163.63,1203.3 1166.49,1195.33 1169.35,1187.51 
  1172.2,1179.86 1175.06,1172.38 1177.92,1165.08 1180.78,1157.97 1183.63,1151.05 1186.49,1144.33 1189.35,1137.83 1192.21,1131.55 1195.06,1125.49 1197.92,1119.68 
  1200.78,1114.1 1203.64,1108.77 1206.49,1103.71 1209.35,1098.91 1212.21,1094.38 1215.07,1090.14 1217.92,1086.18 1220.78,1082.52 1223.64,1079.16 1226.5,1076.12 
  1229.35,1073.39 1232.21,1070.98 1235.07,1068.91 1237.92,1067.18 1240.78,1065.78 1243.64,1064.74 1246.5,1064.06 1249.35,1063.74 1252.21,1063.79 1255.07,1064.21 
  1257.93,1065.02 1260.78,1066.21 1263.64,1067.79 1266.5,1069.77 1269.36,1072.15 1272.21,1074.93 1275.07,1078.13 1277.93,1081.74 1280.79,1085.77 1283.64,1090.23 
  1286.5,1095.11 1289.36,1100.43 1292.22,1106.17 1295.07,1112.36 1297.93,1118.98 1300.79,1126.05 1303.65,1133.56 1306.5,1141.52 1309.36,1149.93 1312.22,1158.78 
  1315.07,1168.09 1317.93,1177.85 1320.79,1188.06 1323.65,1198.73 1326.5,1209.85 1329.36,1221.41 1332.22,1233.44 1335.08,1245.91 1337.93,1258.83 1340.79,1272.19 
  1343.65,1286.01 1346.51,1300.26 1349.36,1314.96 1352.22,1330.09 1355.08,1345.65 1357.94,1361.65 1360.79,1378.06 1363.65,1394.9 1366.51,1412.15 1369.37,1429.81 
  1372.22,1447.87 1375.08,1429.42 1377.94,1410.57 1380.8,1391.34 1383.65,1371.74 1386.51,1351.78 1389.37,1331.46 1392.22,1310.79 1395.08,1289.79 1397.94,1268.47 
  1400.8,1246.82 1403.65,1224.88 1406.51,1202.64 1409.37,1180.13 1412.23,1157.35 1415.08,1134.32 1417.94,1111.06 1420.8,1087.57 1423.66,1063.87 1426.51,1039.99 
  1429.37,1015.93 1432.23,991.717 1435.09,967.365 1437.94,942.893 1440.8,918.322 1443.66,893.67 1446.52,868.959 1449.37,844.21 1452.23,819.445 1455.09,794.686 
  1457.94,769.958 1460.8,745.283 1463.66,720.687 1466.52,696.196 1469.37,671.836 1472.23,647.634 1475.09,623.618 1477.95,599.816 1480.8,576.258 1483.66,552.974 
  1486.52,529.995 1489.38,507.354 1492.23,485.082 1495.09,463.213 1497.95,441.782 1500.81,420.824 1503.66,400.375 1506.52,380.472 1509.38,361.152 1512.24,342.456 
  1515.09,324.421 1517.95,307.089 1520.81,290.502 1523.67,274.702 1526.52,259.733 1529.38,245.638 1532.24,232.463 1535.09,220.255 1537.95,209.061 1540.81,198.93 
  1543.67,189.911 1546.52,182.054 1549.38,175.411 1552.24,170.035 1555.1,165.979 1557.95,163.297 1560.81,162.047 1563.67,162.284 1566.53,164.067 1569.38,167.455 
  1572.24,172.509 1575.1,179.289 1577.96,187.859 1580.81,198.282 1583.67,210.623 1586.53,224.949 1589.39,241.327 1592.24,259.825 1595.1,280.514 1597.96,303.465 
  1600.82,328.75 1603.67,356.442 1606.53,386.618 1609.39,419.352 1612.24,454.723 1615.1,492.81 1617.96,533.693 1620.82,577.453 1623.67,624.174 1626.53,673.94 
  1629.39,726.836 1632.25,782.95 1635.1,842.371 1637.96,905.188 1640.82,971.493 1643.68,1041.38 1646.53,1114.94 1649.39,1192.27 1652.25,1273.47 1655.11,1358.64 
  1657.96,1447.87 1660.82,1354.47 1663.68,1256.79 1666.54,1154.73 1669.39,1048.19 1672.25,937.06 1675.11,821.223 1677.96,700.572 1680.82,574.993 1683.68,444.373 
  1686.54,308.593 
  "/>
<path clip-path="url(#clip540)" d="
M1804.33 272.585 L2352.76 272.585 L2352.76 168.905 L1804.33 168.905  Z
  " fill="#ffffff" fill-rule="evenodd" fill-opacity="1"/>
<polyline clip-path="url(#clip540)" style="stroke:#000000; stroke-linecap:butt; stroke-linejoin:round; stroke-width:4; stroke-opacity:1; fill:none" points="
  1804.33,272.585 2352.76,272.585 2352.76,168.905 1804.33,168.905 1804.33,272.585 
  "/>
<polyline clip-path="url(#clip540)" style="stroke:#009af9; stroke-linecap:butt; stroke-linejoin:round; stroke-width:4; stroke-opacity:1; fill:none" points="
  1828.74,220.745 1975.18,220.745 
  "/>
<path clip-path="url(#clip540)" d="M2014.78 216.08 Q2014.06 215.664 2013.2 215.478 Q2012.37 215.27 2011.35 215.27 Q2007.74 215.27 2005.8 217.631 Q2003.87 219.969 2003.87 224.367 L2003.87 238.025 L1999.59 238.025 L1999.59 212.099 L2003.87 212.099 L2003.87 216.127 Q2005.22 213.766 2007.37 212.631 Q2009.52 211.474 2012.6 211.474 Q2013.04 211.474 2013.57 211.543 Q2014.11 211.59 2014.75 211.705 L2014.78 216.08 Z" fill="#000000" fill-rule="evenodd" fill-opacity="1" /><path clip-path="url(#clip540)" d="M2040.38 223.997 L2040.38 226.08 L2020.79 226.08 Q2021.07 230.478 2023.43 232.793 Q2025.82 235.085 2030.05 235.085 Q2032.51 235.085 2034.8 234.483 Q2037.11 233.881 2039.38 232.677 L2039.38 236.705 Q2037.09 237.677 2034.68 238.187 Q2032.28 238.696 2029.8 238.696 Q2023.6 238.696 2019.96 235.085 Q2016.35 231.474 2016.35 225.316 Q2016.35 218.951 2019.78 215.224 Q2023.23 211.474 2029.06 211.474 Q2034.29 211.474 2037.32 214.853 Q2040.38 218.21 2040.38 223.997 M2036.12 222.747 Q2036.07 219.252 2034.15 217.168 Q2032.25 215.085 2029.11 215.085 Q2025.54 215.085 2023.39 217.099 Q2021.26 219.113 2020.93 222.77 L2036.12 222.747 Z" fill="#000000" fill-rule="evenodd" fill-opacity="1" /><path clip-path="url(#clip540)" d="M2047.37 202.006 L2051.63 202.006 L2051.63 238.025 L2047.37 238.025 L2047.37 202.006 Z" fill="#000000" fill-rule="evenodd" fill-opacity="1" /><path clip-path="url(#clip540)" d="M2072.32 224.992 Q2067.16 224.992 2065.17 226.173 Q2063.18 227.353 2063.18 230.201 Q2063.18 232.469 2064.66 233.812 Q2066.17 235.131 2068.73 235.131 Q2072.28 235.131 2074.41 232.631 Q2076.56 230.108 2076.56 225.941 L2076.56 224.992 L2072.32 224.992 M2080.82 223.233 L2080.82 238.025 L2076.56 238.025 L2076.56 234.089 Q2075.1 236.451 2072.92 237.585 Q2070.75 238.696 2067.6 238.696 Q2063.62 238.696 2061.26 236.474 Q2058.92 234.228 2058.92 230.478 Q2058.92 226.103 2061.84 223.881 Q2064.78 221.659 2070.59 221.659 L2076.56 221.659 L2076.56 221.242 Q2076.56 218.303 2074.61 216.705 Q2072.69 215.085 2069.2 215.085 Q2066.98 215.085 2064.87 215.617 Q2062.76 216.15 2060.82 217.215 L2060.82 213.279 Q2063.16 212.377 2065.35 211.937 Q2067.55 211.474 2069.64 211.474 Q2075.26 211.474 2078.04 214.391 Q2080.82 217.307 2080.82 223.233 Z" fill="#000000" fill-rule="evenodd" fill-opacity="1" /><path clip-path="url(#clip540)" d="M2093.8 204.738 L2093.8 212.099 L2102.58 212.099 L2102.58 215.409 L2093.8 215.409 L2093.8 229.483 Q2093.8 232.654 2094.66 233.557 Q2095.54 234.46 2098.2 234.46 L2102.58 234.46 L2102.58 238.025 L2098.2 238.025 Q2093.27 238.025 2091.4 236.196 Q2089.52 234.344 2089.52 229.483 L2089.52 215.409 L2086.4 215.409 L2086.4 212.099 L2089.52 212.099 L2089.52 204.738 L2093.8 204.738 Z" fill="#000000" fill-rule="evenodd" fill-opacity="1" /><path clip-path="url(#clip540)" d="M2108.18 212.099 L2112.44 212.099 L2112.44 238.025 L2108.18 238.025 L2108.18 212.099 M2108.18 202.006 L2112.44 202.006 L2112.44 207.4 L2108.18 207.4 L2108.18 202.006 Z" fill="#000000" fill-rule="evenodd" fill-opacity="1" /><path clip-path="url(#clip540)" d="M2118.29 212.099 L2122.81 212.099 L2130.91 233.858 L2139.01 212.099 L2143.53 212.099 L2133.8 238.025 L2128.02 238.025 L2118.29 212.099 Z" fill="#000000" fill-rule="evenodd" fill-opacity="1" /><path clip-path="url(#clip540)" d="M2171.58 223.997 L2171.58 226.08 L2152 226.08 Q2152.28 230.478 2154.64 232.793 Q2157.02 235.085 2161.26 235.085 Q2163.71 235.085 2166 234.483 Q2168.32 233.881 2170.59 232.677 L2170.59 236.705 Q2168.29 237.677 2165.89 238.187 Q2163.48 238.696 2161 238.696 Q2154.8 238.696 2151.16 235.085 Q2147.55 231.474 2147.55 225.316 Q2147.55 218.951 2150.98 215.224 Q2154.43 211.474 2160.26 211.474 Q2165.49 211.474 2168.53 214.853 Q2171.58 218.21 2171.58 223.997 M2167.32 222.747 Q2167.28 219.252 2165.35 217.168 Q2163.46 215.085 2160.31 215.085 Q2156.74 215.085 2154.59 217.099 Q2152.46 219.113 2152.14 222.77 L2167.32 222.747 Z" fill="#000000" fill-rule="evenodd" fill-opacity="1" /><path clip-path="url(#clip540)" d="M2215.82 223.997 L2215.82 226.08 L2196.23 226.08 Q2196.51 230.478 2198.87 232.793 Q2201.26 235.085 2205.49 235.085 Q2207.95 235.085 2210.24 234.483 Q2212.55 233.881 2214.82 232.677 L2214.82 236.705 Q2212.53 237.677 2210.12 238.187 Q2207.72 238.696 2205.24 238.696 Q2199.03 238.696 2195.4 235.085 Q2191.79 231.474 2191.79 225.316 Q2191.79 218.951 2195.22 215.224 Q2198.66 211.474 2204.5 211.474 Q2209.73 211.474 2212.76 214.853 Q2215.82 218.21 2215.82 223.997 M2211.56 222.747 Q2211.51 219.252 2209.59 217.168 Q2207.69 215.085 2204.54 215.085 Q2200.98 215.085 2198.83 217.099 Q2196.7 219.113 2196.37 222.77 L2211.56 222.747 Z" fill="#000000" fill-rule="evenodd" fill-opacity="1" /><path clip-path="url(#clip540)" d="M2237.83 216.08 Q2237.11 215.664 2236.26 215.478 Q2235.42 215.27 2234.4 215.27 Q2230.79 215.27 2228.85 217.631 Q2226.93 219.969 2226.93 224.367 L2226.93 238.025 L2222.65 238.025 L2222.65 212.099 L2226.93 212.099 L2226.93 216.127 Q2228.27 213.766 2230.42 212.631 Q2232.58 211.474 2235.65 211.474 Q2236.09 211.474 2236.63 211.543 Q2237.16 211.59 2237.81 211.705 L2237.83 216.08 Z" fill="#000000" fill-rule="evenodd" fill-opacity="1" /><path clip-path="url(#clip540)" d="M2256.49 216.08 Q2255.77 215.664 2254.91 215.478 Q2254.08 215.27 2253.06 215.27 Q2249.45 215.27 2247.51 217.631 Q2245.59 219.969 2245.59 224.367 L2245.59 238.025 L2241.3 238.025 L2241.3 212.099 L2245.59 212.099 L2245.59 216.127 Q2246.93 213.766 2249.08 212.631 Q2251.23 211.474 2254.31 211.474 Q2254.75 211.474 2255.28 211.543 Q2255.82 211.59 2256.47 211.705 L2256.49 216.08 Z" fill="#000000" fill-rule="evenodd" fill-opacity="1" /><path clip-path="url(#clip540)" d="M2269.96 215.085 Q2266.53 215.085 2264.54 217.77 Q2262.55 220.432 2262.55 225.085 Q2262.55 229.738 2264.52 232.423 Q2266.51 235.085 2269.96 235.085 Q2273.36 235.085 2275.35 232.4 Q2277.34 229.715 2277.34 225.085 Q2277.34 220.478 2275.35 217.793 Q2273.36 215.085 2269.96 215.085 M2269.96 211.474 Q2275.52 211.474 2278.69 215.085 Q2281.86 218.696 2281.86 225.085 Q2281.86 231.451 2278.69 235.085 Q2275.52 238.696 2269.96 238.696 Q2264.38 238.696 2261.21 235.085 Q2258.06 231.451 2258.06 225.085 Q2258.06 218.696 2261.21 215.085 Q2264.38 211.474 2269.96 211.474 Z" fill="#000000" fill-rule="evenodd" fill-opacity="1" /><path clip-path="url(#clip540)" d="M2303.94 216.08 Q2303.22 215.664 2302.37 215.478 Q2301.53 215.27 2300.52 215.27 Q2296.9 215.27 2294.96 217.631 Q2293.04 219.969 2293.04 224.367 L2293.04 238.025 L2288.76 238.025 L2288.76 212.099 L2293.04 212.099 L2293.04 216.127 Q2294.38 213.766 2296.53 212.631 Q2298.69 211.474 2301.77 211.474 Q2302.21 211.474 2302.74 211.543 Q2303.27 211.59 2303.92 211.705 L2303.94 216.08 Z" fill="#000000" fill-rule="evenodd" fill-opacity="1" /></svg>
