<?xml version="1.0" encoding="utf-8"?>
<svg xmlns="http://www.w3.org/2000/svg" xmlns:xlink="http://www.w3.org/1999/xlink" width="600" height="400" viewBox="0 0 2400 1600">
<defs>
  <clipPath id="clip020">
    <rect x="0" y="0" width="2400" height="1600"/>
  </clipPath>
</defs>
<path clip-path="url(#clip020)" d="
M0 1600 L2400 1600 L2400 0 L0 0  Z
  " fill="#ffffff" fill-rule="evenodd" fill-opacity="1"/>
<defs>
  <clipPath id="clip021">
    <rect x="480" y="0" width="1681" height="1600"/>
  </clipPath>
</defs>
<path clip-path="url(#clip020)" d="
M186.274 1486.45 L1735.47 1486.45 L1735.47 123.472 L186.274 123.472  Z
  " fill="#ffffff" fill-rule="evenodd" fill-opacity="1"/>
<defs>
  <clipPath id="clip022">
    <rect x="186" y="123" width="1550" height="1364"/>
  </clipPath>
</defs>
<polyline clip-path="url(#clip022)" style="stroke:#000000; stroke-linecap:butt; stroke-linejoin:round; stroke-width:2; stroke-opacity:0.1; fill:none" points="
  351.911,1486.45 351.911,123.472 
  "/>
<polyline clip-path="url(#clip022)" style="stroke:#000000; stroke-linecap:butt; stroke-linejoin:round; stroke-width:2; stroke-opacity:0.1; fill:none" points="
  656.391,1486.45 656.391,123.472 
  "/>
<polyline clip-path="url(#clip022)" style="stroke:#000000; stroke-linecap:butt; stroke-linejoin:round; stroke-width:2; stroke-opacity:0.1; fill:none" points="
  960.872,1486.45 960.872,123.472 
  "/>
<polyline clip-path="url(#clip022)" style="stroke:#000000; stroke-linecap:butt; stroke-linejoin:round; stroke-width:2; stroke-opacity:0.1; fill:none" points="
  1265.35,1486.45 1265.35,123.472 
  "/>
<polyline clip-path="url(#clip022)" style="stroke:#000000; stroke-linecap:butt; stroke-linejoin:round; stroke-width:2; stroke-opacity:0.1; fill:none" points="
  1569.83,1486.45 1569.83,123.472 
  "/>
<polyline clip-path="url(#clip020)" style="stroke:#000000; stroke-linecap:butt; stroke-linejoin:round; stroke-width:4; stroke-opacity:1; fill:none" points="
  186.274,1486.45 1735.47,1486.45 
  "/>
<polyline clip-path="url(#clip020)" style="stroke:#000000; stroke-linecap:butt; stroke-linejoin:round; stroke-width:4; stroke-opacity:1; fill:none" points="
  351.911,1486.45 351.911,1467.55 
  "/>
<polyline clip-path="url(#clip020)" style="stroke:#000000; stroke-linecap:butt; stroke-linejoin:round; stroke-width:4; stroke-opacity:1; fill:none" points="
  656.391,1486.45 656.391,1467.55 
  "/>
<polyline clip-path="url(#clip020)" style="stroke:#000000; stroke-linecap:butt; stroke-linejoin:round; stroke-width:4; stroke-opacity:1; fill:none" points="
  960.872,1486.45 960.872,1467.55 
  "/>
<polyline clip-path="url(#clip020)" style="stroke:#000000; stroke-linecap:butt; stroke-linejoin:round; stroke-width:4; stroke-opacity:1; fill:none" points="
  1265.35,1486.45 1265.35,1467.55 
  "/>
<polyline clip-path="url(#clip020)" style="stroke:#000000; stroke-linecap:butt; stroke-linejoin:round; stroke-width:4; stroke-opacity:1; fill:none" points="
  1569.83,1486.45 1569.83,1467.55 
  "/>
<path clip-path="url(#clip020)" d="M298.439 1532.02 L328.115 1532.02 L328.115 1535.95 L298.439 1535.95 L298.439 1532.02 Z" fill="#000000" fill-rule="evenodd" fill-opacity="1" /><path clip-path="url(#clip020)" d="M339.018 1544.91 L346.657 1544.91 L346.657 1518.55 L338.347 1520.21 L338.347 1515.95 L346.61 1514.29 L351.286 1514.29 L351.286 1544.91 L358.925 1544.91 L358.925 1548.85 L339.018 1548.85 L339.018 1544.91 Z" fill="#000000" fill-rule="evenodd" fill-opacity="1" /><path clip-path="url(#clip020)" d="M368.369 1542.97 L373.254 1542.97 L373.254 1548.85 L368.369 1548.85 L368.369 1542.97 Z" fill="#000000" fill-rule="evenodd" fill-opacity="1" /><path clip-path="url(#clip020)" d="M393.439 1517.37 Q389.828 1517.37 387.999 1520.93 Q386.193 1524.47 386.193 1531.6 Q386.193 1538.71 387.999 1542.27 Q389.828 1545.82 393.439 1545.82 Q397.073 1545.82 398.879 1542.27 Q400.707 1538.71 400.707 1531.6 Q400.707 1524.47 398.879 1520.93 Q397.073 1517.37 393.439 1517.37 M393.439 1513.66 Q399.249 1513.66 402.304 1518.27 Q405.383 1522.85 405.383 1531.6 Q405.383 1540.33 402.304 1544.94 Q399.249 1549.52 393.439 1549.52 Q387.629 1549.52 384.55 1544.94 Q381.494 1540.33 381.494 1531.6 Q381.494 1522.85 384.55 1518.27 Q387.629 1513.66 393.439 1513.66 Z" fill="#000000" fill-rule="evenodd" fill-opacity="1" /><path clip-path="url(#clip020)" d="M603.417 1532.02 L633.093 1532.02 L633.093 1535.95 L603.417 1535.95 L603.417 1532.02 Z" fill="#000000" fill-rule="evenodd" fill-opacity="1" /><path clip-path="url(#clip020)" d="M653.185 1517.37 Q649.574 1517.37 647.746 1520.93 Q645.94 1524.47 645.94 1531.6 Q645.94 1538.71 647.746 1542.27 Q649.574 1545.82 653.185 1545.82 Q656.82 1545.82 658.625 1542.27 Q660.454 1538.71 660.454 1531.6 Q660.454 1524.47 658.625 1520.93 Q656.82 1517.37 653.185 1517.37 M653.185 1513.66 Q658.996 1513.66 662.051 1518.27 Q665.13 1522.85 665.13 1531.6 Q665.13 1540.33 662.051 1544.94 Q658.996 1549.52 653.185 1549.52 Q647.375 1549.52 644.297 1544.94 Q641.241 1540.33 641.241 1531.6 Q641.241 1522.85 644.297 1518.27 Q647.375 1513.66 653.185 1513.66 Z" fill="#000000" fill-rule="evenodd" fill-opacity="1" /><path clip-path="url(#clip020)" d="M673.347 1542.97 L678.232 1542.97 L678.232 1548.85 L673.347 1548.85 L673.347 1542.97 Z" fill="#000000" fill-rule="evenodd" fill-opacity="1" /><path clip-path="url(#clip020)" d="M688.463 1514.29 L706.819 1514.29 L706.819 1518.22 L692.745 1518.22 L692.745 1526.7 Q693.764 1526.35 694.782 1526.19 Q695.801 1526 696.819 1526 Q702.607 1526 705.986 1529.17 Q709.366 1532.34 709.366 1537.76 Q709.366 1543.34 705.894 1546.44 Q702.421 1549.52 696.102 1549.52 Q693.926 1549.52 691.657 1549.15 Q689.412 1548.78 687.005 1548.04 L687.005 1543.34 Q689.088 1544.47 691.31 1545.03 Q693.532 1545.58 696.009 1545.58 Q700.014 1545.58 702.352 1543.48 Q704.69 1541.37 704.69 1537.76 Q704.69 1534.15 702.352 1532.04 Q700.014 1529.94 696.009 1529.94 Q694.134 1529.94 692.259 1530.35 Q690.407 1530.77 688.463 1531.65 L688.463 1514.29 Z" fill="#000000" fill-rule="evenodd" fill-opacity="1" /><path clip-path="url(#clip020)" d="M938.256 1517.37 Q934.645 1517.37 932.816 1520.93 Q931.011 1524.47 931.011 1531.6 Q931.011 1538.71 932.816 1542.27 Q934.645 1545.82 938.256 1545.82 Q941.89 1545.82 943.696 1542.27 Q945.525 1538.71 945.525 1531.6 Q945.525 1524.47 943.696 1520.93 Q941.89 1517.37 938.256 1517.37 M938.256 1513.66 Q944.066 1513.66 947.122 1518.27 Q950.2 1522.85 950.2 1531.6 Q950.2 1540.33 947.122 1544.94 Q944.066 1549.52 938.256 1549.52 Q932.446 1549.52 929.367 1544.94 Q926.312 1540.33 926.312 1531.6 Q926.312 1522.85 929.367 1518.27 Q932.446 1513.66 938.256 1513.66 Z" fill="#000000" fill-rule="evenodd" fill-opacity="1" /><path clip-path="url(#clip020)" d="M958.418 1542.97 L963.302 1542.97 L963.302 1548.85 L958.418 1548.85 L958.418 1542.97 Z" fill="#000000" fill-rule="evenodd" fill-opacity="1" /><path clip-path="url(#clip020)" d="M983.487 1517.37 Q979.876 1517.37 978.048 1520.93 Q976.242 1524.47 976.242 1531.6 Q976.242 1538.71 978.048 1542.27 Q979.876 1545.82 983.487 1545.82 Q987.122 1545.82 988.927 1542.27 Q990.756 1538.71 990.756 1531.6 Q990.756 1524.47 988.927 1520.93 Q987.122 1517.37 983.487 1517.37 M983.487 1513.66 Q989.297 1513.66 992.353 1518.27 Q995.432 1522.85 995.432 1531.6 Q995.432 1540.33 992.353 1544.94 Q989.297 1549.52 983.487 1549.52 Q977.677 1549.52 974.598 1544.94 Q971.543 1540.33 971.543 1531.6 Q971.543 1522.85 974.598 1518.27 Q977.677 1513.66 983.487 1513.66 Z" fill="#000000" fill-rule="evenodd" fill-opacity="1" /><path clip-path="url(#clip020)" d="M1243.23 1517.37 Q1239.62 1517.37 1237.79 1520.93 Q1235.99 1524.47 1235.99 1531.6 Q1235.99 1538.71 1237.79 1542.27 Q1239.62 1545.82 1243.23 1545.82 Q1246.87 1545.82 1248.67 1542.27 Q1250.5 1538.71 1250.5 1531.6 Q1250.5 1524.47 1248.67 1520.93 Q1246.87 1517.37 1243.23 1517.37 M1243.23 1513.66 Q1249.04 1513.66 1252.1 1518.27 Q1255.18 1522.85 1255.18 1531.6 Q1255.18 1540.33 1252.1 1544.94 Q1249.04 1549.52 1243.23 1549.52 Q1237.42 1549.52 1234.35 1544.94 Q1231.29 1540.33 1231.29 1531.6 Q1231.29 1522.85 1234.35 1518.27 Q1237.42 1513.66 1243.23 1513.66 Z" fill="#000000" fill-rule="evenodd" fill-opacity="1" /><path clip-path="url(#clip020)" d="M1263.4 1542.97 L1268.28 1542.97 L1268.28 1548.85 L1263.4 1548.85 L1263.4 1542.97 Z" fill="#000000" fill-rule="evenodd" fill-opacity="1" /><path clip-path="url(#clip020)" d="M1278.51 1514.29 L1296.87 1514.29 L1296.87 1518.22 L1282.79 1518.22 L1282.79 1526.7 Q1283.81 1526.35 1284.83 1526.19 Q1285.85 1526 1286.87 1526 Q1292.66 1526 1296.03 1529.17 Q1299.41 1532.34 1299.41 1537.76 Q1299.41 1543.34 1295.94 1546.44 Q1292.47 1549.52 1286.15 1549.52 Q1283.97 1549.52 1281.71 1549.15 Q1279.46 1548.78 1277.05 1548.04 L1277.05 1543.34 Q1279.14 1544.47 1281.36 1545.03 Q1283.58 1545.58 1286.06 1545.58 Q1290.06 1545.58 1292.4 1543.48 Q1294.74 1541.37 1294.74 1537.76 Q1294.74 1534.15 1292.4 1532.04 Q1290.06 1529.94 1286.06 1529.94 Q1284.18 1529.94 1282.31 1530.35 Q1280.46 1530.77 1278.51 1531.65 L1278.51 1514.29 Z" fill="#000000" fill-rule="evenodd" fill-opacity="1" /><path clip-path="url(#clip020)" d="M1536.99 1544.91 L1544.62 1544.91 L1544.62 1518.55 L1536.31 1520.21 L1536.31 1515.95 L1544.58 1514.29 L1549.25 1514.29 L1549.25 1544.91 L1556.89 1544.91 L1556.89 1548.85 L1536.99 1548.85 L1536.99 1544.91 Z" fill="#000000" fill-rule="evenodd" fill-opacity="1" /><path clip-path="url(#clip020)" d="M1566.34 1542.97 L1571.22 1542.97 L1571.22 1548.85 L1566.34 1548.85 L1566.34 1542.97 Z" fill="#000000" fill-rule="evenodd" fill-opacity="1" /><path clip-path="url(#clip020)" d="M1591.41 1517.37 Q1587.8 1517.37 1585.97 1520.93 Q1584.16 1524.47 1584.16 1531.6 Q1584.16 1538.71 1585.97 1542.27 Q1587.8 1545.82 1591.41 1545.82 Q1595.04 1545.82 1596.85 1542.27 Q1598.67 1538.71 1598.67 1531.6 Q1598.67 1524.47 1596.85 1520.93 Q1595.04 1517.37 1591.41 1517.37 M1591.41 1513.66 Q1597.22 1513.66 1600.27 1518.27 Q1603.35 1522.85 1603.35 1531.6 Q1603.35 1540.33 1600.27 1544.94 Q1597.22 1549.52 1591.41 1549.52 Q1585.6 1549.52 1582.52 1544.94 Q1579.46 1540.33 1579.46 1531.6 Q1579.46 1522.85 1582.52 1518.27 Q1585.6 1513.66 1591.41 1513.66 Z" fill="#000000" fill-rule="evenodd" fill-opacity="1" /><polyline clip-path="url(#clip022)" style="stroke:#000000; stroke-linecap:butt; stroke-linejoin:round; stroke-width:2; stroke-opacity:0.1; fill:none" points="
  186.274,1447.87 1735.47,1447.87 
  "/>
<polyline clip-path="url(#clip022)" style="stroke:#000000; stroke-linecap:butt; stroke-linejoin:round; stroke-width:2; stroke-opacity:0.1; fill:none" points="
  186.274,1174.5 1735.47,1174.5 
  "/>
<polyline clip-path="url(#clip022)" style="stroke:#000000; stroke-linecap:butt; stroke-linejoin:round; stroke-width:2; stroke-opacity:0.1; fill:none" points="
  186.274,901.134 1735.47,901.134 
  "/>
<polyline clip-path="url(#clip022)" style="stroke:#000000; stroke-linecap:butt; stroke-linejoin:round; stroke-width:2; stroke-opacity:0.1; fill:none" points="
  186.274,627.765 1735.47,627.765 
  "/>
<polyline clip-path="url(#clip022)" style="stroke:#000000; stroke-linecap:butt; stroke-linejoin:round; stroke-width:2; stroke-opacity:0.1; fill:none" points="
  186.274,354.395 1735.47,354.395 
  "/>
<polyline clip-path="url(#clip020)" style="stroke:#000000; stroke-linecap:butt; stroke-linejoin:round; stroke-width:4; stroke-opacity:1; fill:none" points="
  186.274,1486.45 186.274,123.472 
  "/>
<polyline clip-path="url(#clip020)" style="stroke:#000000; stroke-linecap:butt; stroke-linejoin:round; stroke-width:4; stroke-opacity:1; fill:none" points="
  186.274,1447.87 199.787,1447.87 
  "/>
<polyline clip-path="url(#clip020)" style="stroke:#000000; stroke-linecap:butt; stroke-linejoin:round; stroke-width:4; stroke-opacity:1; fill:none" points="
  186.274,1174.5 199.787,1174.5 
  "/>
<polyline clip-path="url(#clip020)" style="stroke:#000000; stroke-linecap:butt; stroke-linejoin:round; stroke-width:4; stroke-opacity:1; fill:none" points="
  186.274,901.134 199.787,901.134 
  "/>
<polyline clip-path="url(#clip020)" style="stroke:#000000; stroke-linecap:butt; stroke-linejoin:round; stroke-width:4; stroke-opacity:1; fill:none" points="
  186.274,627.765 199.787,627.765 
  "/>
<polyline clip-path="url(#clip020)" style="stroke:#000000; stroke-linecap:butt; stroke-linejoin:round; stroke-width:4; stroke-opacity:1; fill:none" points="
  186.274,354.395 199.787,354.395 
  "/>
<path clip-path="url(#clip020)" d="M62.9365 1433.67 Q59.3254 1433.67 57.4967 1437.24 Q55.6912 1440.78 55.6912 1447.91 Q55.6912 1455.01 57.4967 1458.58 Q59.3254 1462.12 62.9365 1462.12 Q66.5707 1462.12 68.3763 1458.58 Q70.205 1455.01 70.205 1447.91 Q70.205 1440.78 68.3763 1437.24 Q66.5707 1433.67 62.9365 1433.67 M62.9365 1429.97 Q68.7467 1429.97 71.8022 1434.57 Q74.8809 1439.16 74.8809 1447.91 Q74.8809 1456.63 71.8022 1461.24 Q68.7467 1465.82 62.9365 1465.82 Q57.1264 1465.82 54.0477 1461.24 Q50.9921 1456.63 50.9921 1447.91 Q50.9921 1439.16 54.0477 1434.57 Q57.1264 1429.97 62.9365 1429.97 Z" fill="#000000" fill-rule="evenodd" fill-opacity="1" /><path clip-path="url(#clip020)" d="M83.0984 1459.27 L87.9827 1459.27 L87.9827 1465.15 L83.0984 1465.15 L83.0984 1459.27 Z" fill="#000000" fill-rule="evenodd" fill-opacity="1" /><path clip-path="url(#clip020)" d="M108.168 1433.67 Q104.557 1433.67 102.728 1437.24 Q100.922 1440.78 100.922 1447.91 Q100.922 1455.01 102.728 1458.58 Q104.557 1462.12 108.168 1462.12 Q111.802 1462.12 113.608 1458.58 Q115.436 1455.01 115.436 1447.91 Q115.436 1440.78 113.608 1437.24 Q111.802 1433.67 108.168 1433.67 M108.168 1429.97 Q113.978 1429.97 117.033 1434.57 Q120.112 1439.16 120.112 1447.91 Q120.112 1456.63 117.033 1461.24 Q113.978 1465.82 108.168 1465.82 Q102.358 1465.82 99.2789 1461.24 Q96.2234 1456.63 96.2234 1447.91 Q96.2234 1439.16 99.2789 1434.57 Q102.358 1429.97 108.168 1429.97 Z" fill="#000000" fill-rule="evenodd" fill-opacity="1" /><path clip-path="url(#clip020)" d="M138.33 1433.67 Q134.719 1433.67 132.89 1437.24 Q131.084 1440.78 131.084 1447.91 Q131.084 1455.01 132.89 1458.58 Q134.719 1462.12 138.33 1462.12 Q141.964 1462.12 143.769 1458.58 Q145.598 1455.01 145.598 1447.91 Q145.598 1440.78 143.769 1437.24 Q141.964 1433.67 138.33 1433.67 M138.33 1429.97 Q144.14 1429.97 147.195 1434.57 Q150.274 1439.16 150.274 1447.91 Q150.274 1456.63 147.195 1461.24 Q144.14 1465.82 138.33 1465.82 Q132.519 1465.82 129.441 1461.24 Q126.385 1456.63 126.385 1447.91 Q126.385 1439.16 129.441 1434.57 Q132.519 1429.97 138.33 1429.97 Z" fill="#000000" fill-rule="evenodd" fill-opacity="1" /><path clip-path="url(#clip020)" d="M63.9319 1160.3 Q60.3208 1160.3 58.4921 1163.87 Q56.6865 1167.41 56.6865 1174.54 Q56.6865 1181.64 58.4921 1185.21 Q60.3208 1188.75 63.9319 1188.75 Q67.5661 1188.75 69.3717 1185.21 Q71.2004 1181.64 71.2004 1174.54 Q71.2004 1167.41 69.3717 1163.87 Q67.5661 1160.3 63.9319 1160.3 M63.9319 1156.6 Q69.742 1156.6 72.7976 1161.21 Q75.8763 1165.79 75.8763 1174.54 Q75.8763 1183.27 72.7976 1187.87 Q69.742 1192.45 63.9319 1192.45 Q58.1217 1192.45 55.043 1187.87 Q51.9875 1183.27 51.9875 1174.54 Q51.9875 1165.79 55.043 1161.21 Q58.1217 1156.6 63.9319 1156.6 Z" fill="#000000" fill-rule="evenodd" fill-opacity="1" /><path clip-path="url(#clip020)" d="M84.0938 1185.9 L88.978 1185.9 L88.978 1191.78 L84.0938 1191.78 L84.0938 1185.9 Z" fill="#000000" fill-rule="evenodd" fill-opacity="1" /><path clip-path="url(#clip020)" d="M109.163 1160.3 Q105.552 1160.3 103.723 1163.87 Q101.918 1167.41 101.918 1174.54 Q101.918 1181.64 103.723 1185.21 Q105.552 1188.75 109.163 1188.75 Q112.797 1188.75 114.603 1185.21 Q116.432 1181.64 116.432 1174.54 Q116.432 1167.41 114.603 1163.87 Q112.797 1160.3 109.163 1160.3 M109.163 1156.6 Q114.973 1156.6 118.029 1161.21 Q121.107 1165.79 121.107 1174.54 Q121.107 1183.27 118.029 1187.87 Q114.973 1192.45 109.163 1192.45 Q103.353 1192.45 100.274 1187.87 Q97.2187 1183.27 97.2187 1174.54 Q97.2187 1165.79 100.274 1161.21 Q103.353 1156.6 109.163 1156.6 Z" fill="#000000" fill-rule="evenodd" fill-opacity="1" /><path clip-path="url(#clip020)" d="M129.371 1157.22 L147.728 1157.22 L147.728 1161.16 L133.654 1161.16 L133.654 1169.63 Q134.672 1169.28 135.691 1169.12 Q136.709 1168.94 137.728 1168.94 Q143.515 1168.94 146.894 1172.11 Q150.274 1175.28 150.274 1180.7 Q150.274 1186.27 146.802 1189.38 Q143.33 1192.45 137.01 1192.45 Q134.834 1192.45 132.566 1192.08 Q130.32 1191.71 127.913 1190.97 L127.913 1186.27 Q129.996 1187.41 132.219 1187.96 Q134.441 1188.52 136.918 1188.52 Q140.922 1188.52 143.26 1186.41 Q145.598 1184.31 145.598 1180.7 Q145.598 1177.08 143.26 1174.98 Q140.922 1172.87 136.918 1172.87 Q135.043 1172.87 133.168 1173.29 Q131.316 1173.7 129.371 1174.58 L129.371 1157.22 Z" fill="#000000" fill-rule="evenodd" fill-opacity="1" /><path clip-path="url(#clip020)" d="M62.9365 886.933 Q59.3254 886.933 57.4967 890.498 Q55.6912 894.039 55.6912 901.169 Q55.6912 908.275 57.4967 911.84 Q59.3254 915.382 62.9365 915.382 Q66.5707 915.382 68.3763 911.84 Q70.205 908.275 70.205 901.169 Q70.205 894.039 68.3763 890.498 Q66.5707 886.933 62.9365 886.933 M62.9365 883.229 Q68.7467 883.229 71.8022 887.836 Q74.8809 892.419 74.8809 901.169 Q74.8809 909.896 71.8022 914.502 Q68.7467 919.085 62.9365 919.085 Q57.1264 919.085 54.0477 914.502 Q50.9921 909.896 50.9921 901.169 Q50.9921 892.419 54.0477 887.836 Q57.1264 883.229 62.9365 883.229 Z" fill="#000000" fill-rule="evenodd" fill-opacity="1" /><path clip-path="url(#clip020)" d="M83.0984 912.535 L87.9827 912.535 L87.9827 918.414 L83.0984 918.414 L83.0984 912.535 Z" fill="#000000" fill-rule="evenodd" fill-opacity="1" /><path clip-path="url(#clip020)" d="M98.978 914.479 L106.617 914.479 L106.617 888.113 L98.3067 889.78 L98.3067 885.521 L106.571 883.854 L111.246 883.854 L111.246 914.479 L118.885 914.479 L118.885 918.414 L98.978 918.414 L98.978 914.479 Z" fill="#000000" fill-rule="evenodd" fill-opacity="1" /><path clip-path="url(#clip020)" d="M138.33 886.933 Q134.719 886.933 132.89 890.498 Q131.084 894.039 131.084 901.169 Q131.084 908.275 132.89 911.84 Q134.719 915.382 138.33 915.382 Q141.964 915.382 143.769 911.84 Q145.598 908.275 145.598 901.169 Q145.598 894.039 143.769 890.498 Q141.964 886.933 138.33 886.933 M138.33 883.229 Q144.14 883.229 147.195 887.836 Q150.274 892.419 150.274 901.169 Q150.274 909.896 147.195 914.502 Q144.14 919.085 138.33 919.085 Q132.519 919.085 129.441 914.502 Q126.385 909.896 126.385 901.169 Q126.385 892.419 129.441 887.836 Q132.519 883.229 138.33 883.229 Z" fill="#000000" fill-rule="evenodd" fill-opacity="1" /><path clip-path="url(#clip020)" d="M63.9319 613.563 Q60.3208 613.563 58.4921 617.128 Q56.6865 620.67 56.6865 627.799 Q56.6865 634.906 58.4921 638.471 Q60.3208 642.012 63.9319 642.012 Q67.5661 642.012 69.3717 638.471 Q71.2004 634.906 71.2004 627.799 Q71.2004 620.67 69.3717 617.128 Q67.5661 613.563 63.9319 613.563 M63.9319 609.86 Q69.742 609.86 72.7976 614.466 Q75.8763 619.049 75.8763 627.799 Q75.8763 636.526 72.7976 641.133 Q69.742 645.716 63.9319 645.716 Q58.1217 645.716 55.043 641.133 Q51.9875 636.526 51.9875 627.799 Q51.9875 619.049 55.043 614.466 Q58.1217 609.86 63.9319 609.86 Z" fill="#000000" fill-rule="evenodd" fill-opacity="1" /><path clip-path="url(#clip020)" d="M84.0938 639.165 L88.978 639.165 L88.978 645.045 L84.0938 645.045 L84.0938 639.165 Z" fill="#000000" fill-rule="evenodd" fill-opacity="1" /><path clip-path="url(#clip020)" d="M99.9733 641.109 L107.612 641.109 L107.612 614.744 L99.3021 616.411 L99.3021 612.151 L107.566 610.485 L112.242 610.485 L112.242 641.109 L119.881 641.109 L119.881 645.045 L99.9733 645.045 L99.9733 641.109 Z" fill="#000000" fill-rule="evenodd" fill-opacity="1" /><path clip-path="url(#clip020)" d="M129.371 610.485 L147.728 610.485 L147.728 614.42 L133.654 614.42 L133.654 622.892 Q134.672 622.545 135.691 622.383 Q136.709 622.198 137.728 622.198 Q143.515 622.198 146.894 625.369 Q150.274 628.54 150.274 633.957 Q150.274 639.535 146.802 642.637 Q143.33 645.716 137.01 645.716 Q134.834 645.716 132.566 645.346 Q130.32 644.975 127.913 644.234 L127.913 639.535 Q129.996 640.67 132.219 641.225 Q134.441 641.781 136.918 641.781 Q140.922 641.781 143.26 639.674 Q145.598 637.568 145.598 633.957 Q145.598 630.346 143.26 628.239 Q140.922 626.133 136.918 626.133 Q135.043 626.133 133.168 626.549 Q131.316 626.966 129.371 627.846 L129.371 610.485 Z" fill="#000000" fill-rule="evenodd" fill-opacity="1" /><path clip-path="url(#clip020)" d="M62.9365 340.194 Q59.3254 340.194 57.4967 343.759 Q55.6912 347.3 55.6912 354.43 Q55.6912 361.536 57.4967 365.101 Q59.3254 368.643 62.9365 368.643 Q66.5707 368.643 68.3763 365.101 Q70.205 361.536 70.205 354.43 Q70.205 347.3 68.3763 343.759 Q66.5707 340.194 62.9365 340.194 M62.9365 336.49 Q68.7467 336.49 71.8022 341.097 Q74.8809 345.68 74.8809 354.43 Q74.8809 363.157 71.8022 367.763 Q68.7467 372.346 62.9365 372.346 Q57.1264 372.346 54.0477 367.763 Q50.9921 363.157 50.9921 354.43 Q50.9921 345.68 54.0477 341.097 Q57.1264 336.49 62.9365 336.49 Z" fill="#000000" fill-rule="evenodd" fill-opacity="1" /><path clip-path="url(#clip020)" d="M83.0984 365.796 L87.9827 365.796 L87.9827 371.675 L83.0984 371.675 L83.0984 365.796 Z" fill="#000000" fill-rule="evenodd" fill-opacity="1" /><path clip-path="url(#clip020)" d="M102.196 367.74 L118.515 367.74 L118.515 371.675 L96.5706 371.675 L96.5706 367.74 Q99.2326 364.985 103.816 360.356 Q108.422 355.703 109.603 354.36 Q111.848 351.837 112.728 350.101 Q113.631 348.342 113.631 346.652 Q113.631 343.897 111.686 342.161 Q109.765 340.425 106.663 340.425 Q104.464 340.425 102.01 341.189 Q99.5798 341.953 96.8021 343.504 L96.8021 338.782 Q99.6261 337.648 102.08 337.069 Q104.534 336.49 106.571 336.49 Q111.941 336.49 115.135 339.175 Q118.33 341.86 118.33 346.351 Q118.33 348.481 117.52 350.402 Q116.733 352.3 114.626 354.893 Q114.047 355.564 110.946 358.782 Q107.844 361.976 102.196 367.74 Z" fill="#000000" fill-rule="evenodd" fill-opacity="1" /><path clip-path="url(#clip020)" d="M138.33 340.194 Q134.719 340.194 132.89 343.759 Q131.084 347.3 131.084 354.43 Q131.084 361.536 132.89 365.101 Q134.719 368.643 138.33 368.643 Q141.964 368.643 143.769 365.101 Q145.598 361.536 145.598 354.43 Q145.598 347.3 143.769 343.759 Q141.964 340.194 138.33 340.194 M138.33 336.49 Q144.14 336.49 147.195 341.097 Q150.274 345.68 150.274 354.43 Q150.274 363.157 147.195 367.763 Q144.14 372.346 138.33 372.346 Q132.519 372.346 129.441 367.763 Q126.385 363.157 126.385 354.43 Q126.385 345.68 129.441 341.097 Q132.519 336.49 138.33 336.49 Z" fill="#000000" fill-rule="evenodd" fill-opacity="1" /><path clip-path="url(#clip020)" d="M361.946 12.096 L400.186 12.096 L400.186 18.9825 L370.128 18.9825 L370.128 36.8875 L398.93 36.8875 L398.93 43.7741 L370.128 43.7741 L370.128 65.6895 L400.915 65.6895 L400.915 72.576 L361.946 72.576 L361.946 12.096 Z" fill="#000000" fill-rule="evenodd" fill-opacity="1" /><path clip-path="url(#clip020)" d="M440.331 34.1734 Q439.075 33.4443 437.576 33.1202 Q436.118 32.7556 434.335 32.7556 Q428.016 32.7556 424.613 36.8875 Q421.251 40.9789 421.251 48.6757 L421.251 72.576 L413.757 72.576 L413.757 27.2059 L421.251 27.2059 L421.251 34.2544 Q423.6 30.1225 427.368 28.1376 Q431.135 26.1121 436.523 26.1121 Q437.292 26.1121 438.224 26.2337 Q439.156 26.3147 440.29 26.5172 L440.331 34.1734 Z" fill="#000000" fill-rule="evenodd" fill-opacity="1" /><path clip-path="url(#clip020)" d="M472.981 34.1734 Q471.725 33.4443 470.226 33.1202 Q468.768 32.7556 466.985 32.7556 Q460.666 32.7556 457.263 36.8875 Q453.901 40.9789 453.901 48.6757 L453.901 72.576 L446.407 72.576 L446.407 27.2059 L453.901 27.2059 L453.901 34.2544 Q456.251 30.1225 460.018 28.1376 Q463.785 26.1121 469.173 26.1121 Q469.943 26.1121 470.874 26.2337 Q471.806 26.3147 472.94 26.5172 L472.981 34.1734 Z" fill="#000000" fill-rule="evenodd" fill-opacity="1" /><path clip-path="url(#clip020)" d="M496.557 32.4315 Q490.562 32.4315 487.078 37.1306 Q483.594 41.7891 483.594 49.9314 Q483.594 58.0738 487.037 62.7728 Q490.521 67.4314 496.557 67.4314 Q502.512 67.4314 505.996 62.7323 Q509.479 58.0333 509.479 49.9314 Q509.479 41.8701 505.996 37.1711 Q502.512 32.4315 496.557 32.4315 M496.557 26.1121 Q506.279 26.1121 511.829 32.4315 Q517.379 38.7509 517.379 49.9314 Q517.379 61.0714 511.829 67.4314 Q506.279 73.7508 496.557 73.7508 Q486.794 73.7508 481.245 67.4314 Q475.735 61.0714 475.735 49.9314 Q475.735 38.7509 481.245 32.4315 Q486.794 26.1121 496.557 26.1121 Z" fill="#000000" fill-rule="evenodd" fill-opacity="1" /><path clip-path="url(#clip020)" d="M556.024 34.1734 Q554.769 33.4443 553.27 33.1202 Q551.811 32.7556 550.029 32.7556 Q543.71 32.7556 540.307 36.8875 Q536.945 40.9789 536.945 48.6757 L536.945 72.576 L529.45 72.576 L529.45 27.2059 L536.945 27.2059 L536.945 34.2544 Q539.294 30.1225 543.061 28.1376 Q546.829 26.1121 552.216 26.1121 Q552.986 26.1121 553.918 26.2337 Q554.85 26.3147 555.984 26.5172 L556.024 34.1734 Z" fill="#000000" fill-rule="evenodd" fill-opacity="1" /><path clip-path="url(#clip020)" d="M607.795 32.4315 Q601.8 32.4315 598.316 37.1306 Q594.832 41.7891 594.832 49.9314 Q594.832 58.0738 598.275 62.7728 Q601.759 67.4314 607.795 67.4314 Q613.75 67.4314 617.234 62.7323 Q620.717 58.0333 620.717 49.9314 Q620.717 41.8701 617.234 37.1711 Q613.75 32.4315 607.795 32.4315 M607.795 26.1121 Q617.517 26.1121 623.067 32.4315 Q628.617 38.7509 628.617 49.9314 Q628.617 61.0714 623.067 67.4314 Q617.517 73.7508 607.795 73.7508 Q598.032 73.7508 592.482 67.4314 Q586.973 61.0714 586.973 49.9314 Q586.973 38.7509 592.482 32.4315 Q598.032 26.1121 607.795 26.1121 Z" fill="#000000" fill-rule="evenodd" fill-opacity="1" /><path clip-path="url(#clip020)" d="M663.94 9.54393 L663.94 15.7418 L656.811 15.7418 Q652.8 15.7418 651.221 17.3622 Q649.681 18.9825 649.681 23.1955 L649.681 27.2059 L661.955 27.2059 L661.955 32.9987 L649.681 32.9987 L649.681 72.576 L642.187 72.576 L642.187 32.9987 L635.057 32.9987 L635.057 27.2059 L642.187 27.2059 L642.187 24.0462 Q642.187 16.471 645.711 13.0277 Q649.236 9.54393 656.892 9.54393 L663.94 9.54393 Z" fill="#000000" fill-rule="evenodd" fill-opacity="1" /><path clip-path="url(#clip020)" d="M697.684 12.096 L729.808 12.096 L729.808 18.9825 L705.179 18.9825 L705.179 33.8088 Q706.961 33.2012 708.743 32.9176 Q710.526 32.5936 712.308 32.5936 Q722.435 32.5936 728.35 38.1433 Q734.264 43.6931 734.264 53.1722 Q734.264 62.9348 728.188 68.3631 Q722.111 73.7508 711.052 73.7508 Q707.245 73.7508 703.275 73.1026 Q699.345 72.4545 695.132 71.1582 L695.132 62.9348 Q698.778 64.9198 702.667 65.892 Q706.556 66.8642 710.89 66.8642 Q717.898 66.8642 721.99 63.1779 Q726.081 59.4916 726.081 53.1722 Q726.081 46.8528 721.99 43.1664 Q717.898 39.4801 710.89 39.4801 Q707.609 39.4801 704.328 40.2093 Q701.087 40.9384 697.684 42.4778 L697.684 12.096 Z" fill="#000000" fill-rule="evenodd" fill-opacity="1" /><path clip-path="url(#clip020)" d="M745.566 46.5287 L767.401 46.5287 L767.401 53.1722 L745.566 53.1722 L745.566 46.5287 Z" fill="#000000" fill-rule="evenodd" fill-opacity="1" /><path clip-path="url(#clip020)" d="M806.451 17.6457 Q797.539 17.6457 792.273 24.2892 Q787.047 30.9327 787.047 42.3968 Q787.047 53.8203 792.273 60.4638 Q797.539 67.1073 806.451 67.1073 Q815.363 67.1073 820.548 60.4638 Q825.774 53.8203 825.774 42.3968 Q825.774 30.9327 820.548 24.2892 Q815.363 17.6457 806.451 17.6457 M806.451 11.0023 Q819.171 11.0023 826.787 19.5497 Q834.402 28.0566 834.402 42.3968 Q834.402 56.6965 826.787 65.2439 Q819.171 73.7508 806.451 73.7508 Q793.691 73.7508 786.035 65.2439 Q778.419 56.737 778.419 42.3968 Q778.419 28.0566 786.035 19.5497 Q793.691 11.0023 806.451 11.0023 Z" fill="#000000" fill-rule="evenodd" fill-opacity="1" /><path clip-path="url(#clip020)" d="M873.17 34.1734 Q871.914 33.4443 870.415 33.1202 Q868.957 32.7556 867.174 32.7556 Q860.855 32.7556 857.452 36.8875 Q854.09 40.9789 854.09 48.6757 L854.09 72.576 L846.596 72.576 L846.596 27.2059 L854.09 27.2059 L854.09 34.2544 Q856.439 30.1225 860.207 28.1376 Q863.974 26.1121 869.362 26.1121 Q870.131 26.1121 871.063 26.2337 Q871.995 26.3147 873.129 26.5172 L873.17 34.1734 Z" fill="#000000" fill-rule="evenodd" fill-opacity="1" /><path clip-path="url(#clip020)" d="M909.385 34.0924 L909.385 9.54393 L916.838 9.54393 L916.838 72.576 L909.385 72.576 L909.385 65.7705 Q907.035 69.8214 903.43 71.8063 Q899.865 73.7508 894.842 73.7508 Q886.619 73.7508 881.433 67.1883 Q876.289 60.6258 876.289 49.9314 Q876.289 39.2371 881.433 32.6746 Q886.619 26.1121 894.842 26.1121 Q899.865 26.1121 903.43 28.0971 Q907.035 30.0415 909.385 34.0924 M883.986 49.9314 Q883.986 58.1548 887.348 62.8538 Q890.751 67.5124 896.665 67.5124 Q902.579 67.5124 905.982 62.8538 Q909.385 58.1548 909.385 49.9314 Q909.385 41.7081 905.982 37.0496 Q902.579 32.3505 896.665 32.3505 Q890.751 32.3505 887.348 37.0496 Q883.986 41.7081 883.986 49.9314 Z" fill="#000000" fill-rule="evenodd" fill-opacity="1" /><path clip-path="url(#clip020)" d="M970.999 48.0275 L970.999 51.6733 L936.728 51.6733 Q937.214 59.3701 941.346 63.421 Q945.519 67.4314 952.932 67.4314 Q957.226 67.4314 961.236 66.3781 Q965.287 65.3249 969.257 63.2184 L969.257 70.267 Q965.247 71.9684 961.034 72.8596 Q956.821 73.7508 952.486 73.7508 Q941.63 73.7508 935.27 67.4314 Q928.951 61.1119 928.951 50.3365 Q928.951 39.1965 934.946 32.6746 Q940.982 26.1121 951.19 26.1121 Q960.345 26.1121 965.652 32.0264 Q970.999 37.9003 970.999 48.0275 M963.545 45.84 Q963.464 39.7232 960.102 36.0774 Q956.78 32.4315 951.271 32.4315 Q945.033 32.4315 941.265 35.9558 Q937.538 39.4801 936.971 45.8805 L963.545 45.84 Z" fill="#000000" fill-rule="evenodd" fill-opacity="1" /><path clip-path="url(#clip020)" d="M1009.52 34.1734 Q1008.27 33.4443 1006.77 33.1202 Q1005.31 32.7556 1003.53 32.7556 Q997.208 32.7556 993.806 36.8875 Q990.443 40.9789 990.443 48.6757 L990.443 72.576 L982.949 72.576 L982.949 27.2059 L990.443 27.2059 L990.443 34.2544 Q992.793 30.1225 996.56 28.1376 Q1000.33 26.1121 1005.72 26.1121 Q1006.48 26.1121 1007.42 26.2337 Q1008.35 26.3147 1009.48 26.5172 L1009.52 34.1734 Z" fill="#000000" fill-rule="evenodd" fill-opacity="1" /><path clip-path="url(#clip020)" d="M1044.04 12.096 L1052.22 12.096 L1052.22 72.576 L1044.04 72.576 L1044.04 12.096 Z" fill="#000000" fill-rule="evenodd" fill-opacity="1" /><path clip-path="url(#clip020)" d="M1105.89 45.1919 L1105.89 72.576 L1098.44 72.576 L1098.44 45.4349 Q1098.44 38.994 1095.93 35.7938 Q1093.42 32.5936 1088.39 32.5936 Q1082.36 32.5936 1078.87 36.4419 Q1075.39 40.2903 1075.39 46.9338 L1075.39 72.576 L1067.9 72.576 L1067.9 27.2059 L1075.39 27.2059 L1075.39 34.2544 Q1078.06 30.163 1081.67 28.1376 Q1085.32 26.1121 1090.06 26.1121 Q1097.87 26.1121 1101.88 30.9732 Q1105.89 35.7938 1105.89 45.1919 Z" fill="#000000" fill-rule="evenodd" fill-opacity="1" /><path clip-path="url(#clip020)" d="M1128.13 14.324 L1128.13 27.2059 L1143.49 27.2059 L1143.49 32.9987 L1128.13 32.9987 L1128.13 57.6282 Q1128.13 63.1779 1129.63 64.7578 Q1131.17 66.3376 1135.83 66.3376 L1143.49 66.3376 L1143.49 72.576 L1135.83 72.576 Q1127.2 72.576 1123.92 69.3758 Q1120.64 66.1351 1120.64 57.6282 L1120.64 32.9987 L1115.17 32.9987 L1115.17 27.2059 L1120.64 27.2059 L1120.64 14.324 L1128.13 14.324 Z" fill="#000000" fill-rule="evenodd" fill-opacity="1" /><path clip-path="url(#clip020)" d="M1192.1 48.0275 L1192.1 51.6733 L1157.83 51.6733 Q1158.31 59.3701 1162.44 63.421 Q1166.62 67.4314 1174.03 67.4314 Q1178.32 67.4314 1182.33 66.3781 Q1186.39 65.3249 1190.36 63.2184 L1190.36 70.267 Q1186.35 71.9684 1182.13 72.8596 Q1177.92 73.7508 1173.58 73.7508 Q1162.73 73.7508 1156.37 67.4314 Q1150.05 61.1119 1150.05 50.3365 Q1150.05 39.1965 1156.04 32.6746 Q1162.08 26.1121 1172.29 26.1121 Q1181.44 26.1121 1186.75 32.0264 Q1192.1 37.9003 1192.1 48.0275 M1184.64 45.84 Q1184.56 39.7232 1181.2 36.0774 Q1177.88 32.4315 1172.37 32.4315 Q1166.13 32.4315 1162.36 35.9558 Q1158.64 39.4801 1158.07 45.8805 L1184.64 45.84 Z" fill="#000000" fill-rule="evenodd" fill-opacity="1" /><path clip-path="url(#clip020)" d="M1230.62 34.1734 Q1229.37 33.4443 1227.87 33.1202 Q1226.41 32.7556 1224.63 32.7556 Q1218.31 32.7556 1214.9 36.8875 Q1211.54 40.9789 1211.54 48.6757 L1211.54 72.576 L1204.05 72.576 L1204.05 27.2059 L1211.54 27.2059 L1211.54 34.2544 Q1213.89 30.1225 1217.66 28.1376 Q1221.43 26.1121 1226.81 26.1121 Q1227.58 26.1121 1228.51 26.2337 Q1229.45 26.3147 1230.58 26.5172 L1230.62 34.1734 Z" fill="#000000" fill-rule="evenodd" fill-opacity="1" /><path clip-path="url(#clip020)" d="M1245.65 65.7705 L1245.65 89.8329 L1238.16 89.8329 L1238.16 27.2059 L1245.65 27.2059 L1245.65 34.0924 Q1248 30.0415 1251.56 28.0971 Q1255.17 26.1121 1260.15 26.1121 Q1268.42 26.1121 1273.56 32.6746 Q1278.75 39.2371 1278.75 49.9314 Q1278.75 60.6258 1273.56 67.1883 Q1268.42 73.7508 1260.15 73.7508 Q1255.17 73.7508 1251.56 71.8063 Q1248 69.8214 1245.65 65.7705 M1271.01 49.9314 Q1271.01 41.7081 1267.61 37.0496 Q1264.24 32.3505 1258.33 32.3505 Q1252.42 32.3505 1249.01 37.0496 Q1245.65 41.7081 1245.65 49.9314 Q1245.65 58.1548 1249.01 62.8538 Q1252.42 67.5124 1258.33 67.5124 Q1264.24 67.5124 1267.61 62.8538 Q1271.01 58.1548 1271.01 49.9314 Z" fill="#000000" fill-rule="evenodd" fill-opacity="1" /><path clip-path="url(#clip020)" d="M1308.68 32.4315 Q1302.69 32.4315 1299.2 37.1306 Q1295.72 41.7891 1295.72 49.9314 Q1295.72 58.0738 1299.16 62.7728 Q1302.65 67.4314 1308.68 67.4314 Q1314.64 67.4314 1318.12 62.7323 Q1321.6 58.0333 1321.6 49.9314 Q1321.6 41.8701 1318.12 37.1711 Q1314.64 32.4315 1308.68 32.4315 M1308.68 26.1121 Q1318.4 26.1121 1323.95 32.4315 Q1329.5 38.7509 1329.5 49.9314 Q1329.5 61.0714 1323.95 67.4314 Q1318.4 73.7508 1308.68 73.7508 Q1298.92 73.7508 1293.37 67.4314 Q1287.86 61.0714 1287.86 49.9314 Q1287.86 38.7509 1293.37 32.4315 Q1298.92 26.1121 1308.68 26.1121 Z" fill="#000000" fill-rule="evenodd" fill-opacity="1" /><path clip-path="url(#clip020)" d="M1341.86 9.54393 L1349.31 9.54393 L1349.31 72.576 L1341.86 72.576 L1341.86 9.54393 Z" fill="#000000" fill-rule="evenodd" fill-opacity="1" /><path clip-path="url(#clip020)" d="M1385.53 49.7694 Q1376.49 49.7694 1373.01 51.8354 Q1369.53 53.9013 1369.53 58.8839 Q1369.53 62.8538 1372.12 65.2034 Q1374.75 67.5124 1379.25 67.5124 Q1385.45 67.5124 1389.17 63.1374 Q1392.94 58.7219 1392.94 51.4303 L1392.94 49.7694 L1385.53 49.7694 M1400.39 46.6907 L1400.39 72.576 L1392.94 72.576 L1392.94 65.6895 Q1390.39 69.8214 1386.58 71.8063 Q1382.77 73.7508 1377.26 73.7508 Q1370.3 73.7508 1366.16 69.8619 Q1362.07 65.9325 1362.07 59.3701 Q1362.07 51.7138 1367.18 47.825 Q1372.32 43.9361 1382.49 43.9361 L1392.94 43.9361 L1392.94 43.2069 Q1392.94 38.0623 1389.54 35.2672 Q1386.18 32.4315 1380.06 32.4315 Q1376.17 32.4315 1372.48 33.3632 Q1368.8 34.295 1365.4 36.1584 L1365.4 29.2718 Q1369.49 27.692 1373.33 26.9223 Q1377.18 26.1121 1380.83 26.1121 Q1390.67 26.1121 1395.53 31.2163 Q1400.39 36.3204 1400.39 46.6907 Z" fill="#000000" fill-rule="evenodd" fill-opacity="1" /><path clip-path="url(#clip020)" d="M1423.12 14.324 L1423.12 27.2059 L1438.47 27.2059 L1438.47 32.9987 L1423.12 32.9987 L1423.12 57.6282 Q1423.12 63.1779 1424.62 64.7578 Q1426.16 66.3376 1430.82 66.3376 L1438.47 66.3376 L1438.47 72.576 L1430.82 72.576 Q1422.19 72.576 1418.91 69.3758 Q1415.63 66.1351 1415.63 57.6282 L1415.63 32.9987 L1410.16 32.9987 L1410.16 27.2059 L1415.63 27.2059 L1415.63 14.324 L1423.12 14.324 Z" fill="#000000" fill-rule="evenodd" fill-opacity="1" /><path clip-path="url(#clip020)" d="M1448.28 27.2059 L1455.73 27.2059 L1455.73 72.576 L1448.28 72.576 L1448.28 27.2059 M1448.28 9.54393 L1455.73 9.54393 L1455.73 18.9825 L1448.28 18.9825 L1448.28 9.54393 Z" fill="#000000" fill-rule="evenodd" fill-opacity="1" /><path clip-path="url(#clip020)" d="M1488.91 32.4315 Q1482.91 32.4315 1479.43 37.1306 Q1475.94 41.7891 1475.94 49.9314 Q1475.94 58.0738 1479.39 62.7728 Q1482.87 67.4314 1488.91 67.4314 Q1494.86 67.4314 1498.35 62.7323 Q1501.83 58.0333 1501.83 49.9314 Q1501.83 41.8701 1498.35 37.1711 Q1494.86 32.4315 1488.91 32.4315 M1488.91 26.1121 Q1498.63 26.1121 1504.18 32.4315 Q1509.73 38.7509 1509.73 49.9314 Q1509.73 61.0714 1504.18 67.4314 Q1498.63 73.7508 1488.91 73.7508 Q1479.14 73.7508 1473.59 67.4314 Q1468.09 61.0714 1468.09 49.9314 Q1468.09 38.7509 1473.59 32.4315 Q1479.14 26.1121 1488.91 26.1121 Z" fill="#000000" fill-rule="evenodd" fill-opacity="1" /><path clip-path="url(#clip020)" d="M1559.8 45.1919 L1559.8 72.576 L1552.34 72.576 L1552.34 45.4349 Q1552.34 38.994 1549.83 35.7938 Q1547.32 32.5936 1542.3 32.5936 Q1536.26 32.5936 1532.78 36.4419 Q1529.29 40.2903 1529.29 46.9338 L1529.29 72.576 L1521.8 72.576 L1521.8 27.2059 L1529.29 27.2059 L1529.29 34.2544 Q1531.97 30.163 1535.57 28.1376 Q1539.22 26.1121 1543.96 26.1121 Q1551.78 26.1121 1555.79 30.9732 Q1559.8 35.7938 1559.8 45.1919 Z" fill="#000000" fill-rule="evenodd" fill-opacity="1" /><polyline clip-path="url(#clip022)" style="stroke:#009af9; stroke-linecap:butt; stroke-linejoin:round; stroke-width:4; stroke-opacity:1; fill:none" points="
  230.119,162.047 242.298,388.961 254.478,588.34 266.657,762.55 278.836,913.815 291.015,1044.23 303.194,1155.74 315.374,1250.21 327.553,1329.33 339.732,1394.72 
  351.911,1447.87 364.09,1405.58 376.27,1372.85 388.449,1348.5 400.628,1331.43 412.807,1320.63 424.987,1315.17 437.166,1314.22 449.345,1316.98 461.524,1322.78 
  473.703,1330.98 485.883,1341.01 498.062,1352.37 510.241,1364.61 522.42,1377.34 534.599,1390.21 546.779,1402.93 558.958,1415.25 571.137,1426.95 583.316,1437.87 
  595.495,1447.87 607.675,1438.9 619.854,1431.03 632.033,1424.31 644.212,1418.76 656.391,1414.39 668.571,1411.17 680.75,1409.07 692.929,1408.04 705.108,1408.01 
  717.288,1408.91 729.467,1410.65 741.646,1413.14 753.825,1416.29 766.004,1419.99 778.184,1424.13 790.363,1428.61 802.542,1433.33 814.721,1438.18 826.9,1443.06 
  839.08,1447.87 851.259,1443.22 863.438,1438.8 875.617,1434.71 887.796,1431.02 899.976,1427.78 912.155,1425.06 924.334,1422.89 936.513,1421.32 948.692,1420.36 
  960.872,1420.04 973.051,1420.36 985.23,1421.32 997.409,1422.89 1009.59,1425.06 1021.77,1427.78 1033.95,1431.02 1046.13,1434.71 1058.31,1438.8 1070.48,1443.22 
  1082.66,1447.87 1094.84,1443.06 1107.02,1438.18 1119.2,1433.33 1131.38,1428.61 1143.56,1424.13 1155.74,1419.99 1167.92,1416.29 1180.1,1413.14 1192.28,1410.65 
  1204.46,1408.91 1216.64,1408.01 1228.81,1408.04 1240.99,1409.07 1253.17,1411.17 1265.35,1414.39 1277.53,1418.76 1289.71,1424.31 1301.89,1431.03 1314.07,1438.9 
  1326.25,1447.87 1338.43,1437.87 1350.61,1426.95 1362.79,1415.25 1374.96,1402.93 1387.14,1390.21 1399.32,1377.34 1411.5,1364.61 1423.68,1352.37 1435.86,1341.01 
  1448.04,1330.98 1460.22,1322.78 1472.4,1316.98 1484.58,1314.22 1496.76,1315.17 1508.94,1320.63 1521.12,1331.43 1533.29,1348.5 1545.47,1372.85 1557.65,1405.58 
  1569.83,1447.87 1582.01,1394.72 1594.19,1329.33 1606.37,1250.21 1618.55,1155.74 1630.73,1044.23 1642.91,913.815 1655.09,762.55 1667.27,588.34 1679.45,388.961 
  1691.62,162.047 
  "/>
<path clip-path="url(#clip020)" d="
M1807.69 272.585 L2352.76 272.585 L2352.76 168.905 L1807.69 168.905  Z
  " fill="#ffffff" fill-rule="evenodd" fill-opacity="1"/>
<polyline clip-path="url(#clip020)" style="stroke:#000000; stroke-linecap:butt; stroke-linejoin:round; stroke-width:4; stroke-opacity:1; fill:none" points="
  1807.69,272.585 2352.76,272.585 2352.76,168.905 1807.69,168.905 1807.69,272.585 
  "/>
<polyline clip-path="url(#clip020)" style="stroke:#009af9; stroke-linecap:butt; stroke-linejoin:round; stroke-width:4; stroke-opacity:1; fill:none" points="
  1831.76,220.745 1976.19,220.745 
  "/>
<path clip-path="url(#clip020)" d="M2015.45 216.08 Q2014.73 215.664 2013.87 215.478 Q2013.04 215.27 2012.02 215.27 Q2008.41 215.27 2006.47 217.631 Q2004.54 219.969 2004.54 224.367 L2004.54 238.025 L2000.26 238.025 L2000.26 212.099 L2004.54 212.099 L2004.54 216.127 Q2005.89 213.766 2008.04 212.631 Q2010.19 211.474 2013.27 211.474 Q2013.71 211.474 2014.24 211.543 Q2014.78 211.59 2015.42 211.705 L2015.45 216.08 Z" fill="#000000" fill-rule="evenodd" fill-opacity="1" /><path clip-path="url(#clip020)" d="M2041.05 223.997 L2041.05 226.08 L2021.47 226.08 Q2021.74 230.478 2024.1 232.793 Q2026.49 235.085 2030.72 235.085 Q2033.18 235.085 2035.47 234.483 Q2037.78 233.881 2040.05 232.677 L2040.05 236.705 Q2037.76 237.677 2035.35 238.187 Q2032.95 238.696 2030.47 238.696 Q2024.27 238.696 2020.63 235.085 Q2017.02 231.474 2017.02 225.316 Q2017.02 218.951 2020.45 215.224 Q2023.9 211.474 2029.73 211.474 Q2034.96 211.474 2037.99 214.853 Q2041.05 218.21 2041.05 223.997 M2036.79 222.747 Q2036.74 219.252 2034.82 217.168 Q2032.92 215.085 2029.78 215.085 Q2026.21 215.085 2024.06 217.099 Q2021.93 219.113 2021.6 222.77 L2036.79 222.747 Z" fill="#000000" fill-rule="evenodd" fill-opacity="1" /><path clip-path="url(#clip020)" d="M2048.04 202.006 L2052.3 202.006 L2052.3 238.025 L2048.04 238.025 L2048.04 202.006 Z" fill="#000000" fill-rule="evenodd" fill-opacity="1" /><path clip-path="url(#clip020)" d="M2072.99 224.992 Q2067.83 224.992 2065.84 226.173 Q2063.85 227.353 2063.85 230.201 Q2063.85 232.469 2065.33 233.812 Q2066.84 235.131 2069.4 235.131 Q2072.95 235.131 2075.08 232.631 Q2077.23 230.108 2077.23 225.941 L2077.23 224.992 L2072.99 224.992 M2081.49 223.233 L2081.49 238.025 L2077.23 238.025 L2077.23 234.089 Q2075.77 236.451 2073.59 237.585 Q2071.42 238.696 2068.27 238.696 Q2064.29 238.696 2061.93 236.474 Q2059.59 234.228 2059.59 230.478 Q2059.59 226.103 2062.51 223.881 Q2065.45 221.659 2071.26 221.659 L2077.23 221.659 L2077.23 221.242 Q2077.23 218.303 2075.28 216.705 Q2073.36 215.085 2069.87 215.085 Q2067.65 215.085 2065.54 215.617 Q2063.43 216.15 2061.49 217.215 L2061.49 213.279 Q2063.83 212.377 2066.03 211.937 Q2068.22 211.474 2070.31 211.474 Q2075.93 211.474 2078.71 214.391 Q2081.49 217.307 2081.49 223.233 Z" fill="#000000" fill-rule="evenodd" fill-opacity="1" /><path clip-path="url(#clip020)" d="M2094.47 204.738 L2094.47 212.099 L2103.25 212.099 L2103.25 215.409 L2094.47 215.409 L2094.47 229.483 Q2094.47 232.654 2095.33 233.557 Q2096.21 234.46 2098.87 234.46 L2103.25 234.46 L2103.25 238.025 L2098.87 238.025 Q2093.94 238.025 2092.07 236.196 Q2090.19 234.344 2090.19 229.483 L2090.19 215.409 L2087.07 215.409 L2087.07 212.099 L2090.19 212.099 L2090.19 204.738 L2094.47 204.738 Z" fill="#000000" fill-rule="evenodd" fill-opacity="1" /><path clip-path="url(#clip020)" d="M2108.85 212.099 L2113.11 212.099 L2113.11 238.025 L2108.85 238.025 L2108.85 212.099 M2108.85 202.006 L2113.11 202.006 L2113.11 207.4 L2108.85 207.4 L2108.85 202.006 Z" fill="#000000" fill-rule="evenodd" fill-opacity="1" /><path clip-path="url(#clip020)" d="M2118.96 212.099 L2123.48 212.099 L2131.58 233.858 L2139.68 212.099 L2144.2 212.099 L2134.47 238.025 L2128.69 238.025 L2118.96 212.099 Z" fill="#000000" fill-rule="evenodd" fill-opacity="1" /><path clip-path="url(#clip020)" d="M2172.25 223.997 L2172.25 226.08 L2152.67 226.08 Q2152.95 230.478 2155.31 232.793 Q2157.69 235.085 2161.93 235.085 Q2164.38 235.085 2166.67 234.483 Q2168.99 233.881 2171.26 232.677 L2171.26 236.705 Q2168.96 237.677 2166.56 238.187 Q2164.15 238.696 2161.67 238.696 Q2155.47 238.696 2151.83 235.085 Q2148.22 231.474 2148.22 225.316 Q2148.22 218.951 2151.65 215.224 Q2155.1 211.474 2160.93 211.474 Q2166.16 211.474 2169.2 214.853 Q2172.25 218.21 2172.25 223.997 M2167.99 222.747 Q2167.95 219.252 2166.02 217.168 Q2164.13 215.085 2160.98 215.085 Q2157.41 215.085 2155.26 217.099 Q2153.13 219.113 2152.81 222.77 L2167.99 222.747 Z" fill="#000000" fill-rule="evenodd" fill-opacity="1" /><path clip-path="url(#clip020)" d="M2216.49 223.997 L2216.49 226.08 L2196.9 226.08 Q2197.18 230.478 2199.54 232.793 Q2201.93 235.085 2206.16 235.085 Q2208.62 235.085 2210.91 234.483 Q2213.22 233.881 2215.49 232.677 L2215.49 236.705 Q2213.2 237.677 2210.79 238.187 Q2208.39 238.696 2205.91 238.696 Q2199.71 238.696 2196.07 235.085 Q2192.46 231.474 2192.46 225.316 Q2192.46 218.951 2195.89 215.224 Q2199.33 211.474 2205.17 211.474 Q2210.4 211.474 2213.43 214.853 Q2216.49 218.21 2216.49 223.997 M2212.23 222.747 Q2212.18 219.252 2210.26 217.168 Q2208.36 215.085 2205.21 215.085 Q2201.65 215.085 2199.5 217.099 Q2197.37 219.113 2197.04 222.77 L2212.23 222.747 Z" fill="#000000" fill-rule="evenodd" fill-opacity="1" /><path clip-path="url(#clip020)" d="M2238.5 216.08 Q2237.78 215.664 2236.93 215.478 Q2236.09 215.27 2235.08 215.27 Q2231.46 215.27 2229.52 217.631 Q2227.6 219.969 2227.6 224.367 L2227.6 238.025 L2223.32 238.025 L2223.32 212.099 L2227.6 212.099 L2227.6 216.127 Q2228.94 213.766 2231.09 212.631 Q2233.25 211.474 2236.33 211.474 Q2236.77 211.474 2237.3 211.543 Q2237.83 211.59 2238.48 211.705 L2238.5 216.08 Z" fill="#000000" fill-rule="evenodd" fill-opacity="1" /><path clip-path="url(#clip020)" d="M2257.16 216.08 Q2256.44 215.664 2255.58 215.478 Q2254.75 215.27 2253.73 215.27 Q2250.12 215.27 2248.18 217.631 Q2246.26 219.969 2246.26 224.367 L2246.26 238.025 L2241.97 238.025 L2241.97 212.099 L2246.26 212.099 L2246.26 216.127 Q2247.6 213.766 2249.75 212.631 Q2251.9 211.474 2254.98 211.474 Q2255.42 211.474 2255.95 211.543 Q2256.49 211.59 2257.14 211.705 L2257.16 216.08 Z" fill="#000000" fill-rule="evenodd" fill-opacity="1" /><path clip-path="url(#clip020)" d="M2270.63 215.085 Q2267.2 215.085 2265.21 217.77 Q2263.22 220.432 2263.22 225.085 Q2263.22 229.738 2265.19 232.423 Q2267.18 235.085 2270.63 235.085 Q2274.03 235.085 2276.02 232.4 Q2278.01 229.715 2278.01 225.085 Q2278.01 220.478 2276.02 217.793 Q2274.03 215.085 2270.63 215.085 M2270.63 211.474 Q2276.19 211.474 2279.36 215.085 Q2282.53 218.696 2282.53 225.085 Q2282.53 231.451 2279.36 235.085 Q2276.19 238.696 2270.63 238.696 Q2265.05 238.696 2261.88 235.085 Q2258.73 231.451 2258.73 225.085 Q2258.73 218.696 2261.88 215.085 Q2265.05 211.474 2270.63 211.474 Z" fill="#000000" fill-rule="evenodd" fill-opacity="1" /><path clip-path="url(#clip020)" d="M2304.61 216.08 Q2303.89 215.664 2303.04 215.478 Q2302.2 215.27 2301.19 215.27 Q2297.57 215.27 2295.63 217.631 Q2293.71 219.969 2293.71 224.367 L2293.71 238.025 L2289.43 238.025 L2289.43 212.099 L2293.71 212.099 L2293.71 216.127 Q2295.05 213.766 2297.2 212.631 Q2299.36 211.474 2302.44 211.474 Q2302.88 211.474 2303.41 211.543 Q2303.94 211.59 2304.59 211.705 L2304.61 216.08 Z" fill="#000000" fill-rule="evenodd" fill-opacity="1" /></svg>
