<?xml version="1.0" encoding="utf-8"?>
<svg xmlns="http://www.w3.org/2000/svg" xmlns:xlink="http://www.w3.org/1999/xlink" width="600" height="400" viewBox="0 0 2400 1600">
<defs>
  <clipPath id="clip440">
    <rect x="0" y="0" width="2400" height="1600"/>
  </clipPath>
</defs>
<path clip-path="url(#clip440)" d="
M0 1600 L2400 1600 L2400 0 L0 0  Z
  " fill="#ffffff" fill-rule="evenodd" fill-opacity="1"/>
<defs>
  <clipPath id="clip441">
    <rect x="480" y="0" width="1681" height="1600"/>
  </clipPath>
</defs>
<path clip-path="url(#clip440)" d="
M216.436 1486.45 L1833.55 1486.45 L1833.55 47.2441 L216.436 47.2441  Z
  " fill="#ffffff" fill-rule="evenodd" fill-opacity="1"/>
<defs>
  <clipPath id="clip442">
    <rect x="216" y="47" width="1618" height="1440"/>
  </clipPath>
</defs>
<polyline clip-path="url(#clip442)" style="stroke:#000000; stroke-linecap:butt; stroke-linejoin:round; stroke-width:2; stroke-opacity:0.1; fill:none" points="
  246.793,1486.45 246.793,47.2441 
  "/>
<polyline clip-path="url(#clip442)" style="stroke:#000000; stroke-linecap:butt; stroke-linejoin:round; stroke-width:2; stroke-opacity:0.1; fill:none" points="
  632.041,1486.45 632.041,47.2441 
  "/>
<polyline clip-path="url(#clip442)" style="stroke:#000000; stroke-linecap:butt; stroke-linejoin:round; stroke-width:2; stroke-opacity:0.1; fill:none" points="
  1017.29,1486.45 1017.29,47.2441 
  "/>
<polyline clip-path="url(#clip442)" style="stroke:#000000; stroke-linecap:butt; stroke-linejoin:round; stroke-width:2; stroke-opacity:0.1; fill:none" points="
  1402.54,1486.45 1402.54,47.2441 
  "/>
<polyline clip-path="url(#clip442)" style="stroke:#000000; stroke-linecap:butt; stroke-linejoin:round; stroke-width:2; stroke-opacity:0.1; fill:none" points="
  1787.79,1486.45 1787.79,47.2441 
  "/>
<polyline clip-path="url(#clip440)" style="stroke:#000000; stroke-linecap:butt; stroke-linejoin:round; stroke-width:4; stroke-opacity:1; fill:none" points="
  216.436,1486.45 1833.55,1486.45 
  "/>
<polyline clip-path="url(#clip440)" style="stroke:#000000; stroke-linecap:butt; stroke-linejoin:round; stroke-width:4; stroke-opacity:1; fill:none" points="
  246.793,1486.45 246.793,1467.55 
  "/>
<polyline clip-path="url(#clip440)" style="stroke:#000000; stroke-linecap:butt; stroke-linejoin:round; stroke-width:4; stroke-opacity:1; fill:none" points="
  632.041,1486.45 632.041,1467.55 
  "/>
<polyline clip-path="url(#clip440)" style="stroke:#000000; stroke-linecap:butt; stroke-linejoin:round; stroke-width:4; stroke-opacity:1; fill:none" points="
  1017.29,1486.45 1017.29,1467.55 
  "/>
<polyline clip-path="url(#clip440)" style="stroke:#000000; stroke-linecap:butt; stroke-linejoin:round; stroke-width:4; stroke-opacity:1; fill:none" points="
  1402.54,1486.45 1402.54,1467.55 
  "/>
<polyline clip-path="url(#clip440)" style="stroke:#000000; stroke-linecap:butt; stroke-linejoin:round; stroke-width:4; stroke-opacity:1; fill:none" points="
  1787.79,1486.45 1787.79,1467.55 
  "/>
<path clip-path="url(#clip440)" d="M246.793 1517.37 Q243.182 1517.37 241.354 1520.93 Q239.548 1524.47 239.548 1531.6 Q239.548 1538.71 241.354 1542.27 Q243.182 1545.82 246.793 1545.82 Q250.428 1545.82 252.233 1542.27 Q254.062 1538.71 254.062 1531.6 Q254.062 1524.47 252.233 1520.93 Q250.428 1517.37 246.793 1517.37 M246.793 1513.66 Q252.604 1513.66 255.659 1518.27 Q258.738 1522.85 258.738 1531.6 Q258.738 1540.33 255.659 1544.94 Q252.604 1549.52 246.793 1549.52 Q240.983 1549.52 237.905 1544.94 Q234.849 1540.33 234.849 1531.6 Q234.849 1522.85 237.905 1518.27 Q240.983 1513.66 246.793 1513.66 Z" fill="#000000" fill-rule="evenodd" fill-opacity="1" /><path clip-path="url(#clip440)" d="M611.312 1544.91 L627.632 1544.91 L627.632 1548.85 L605.687 1548.85 L605.687 1544.91 Q608.349 1542.16 612.933 1537.53 Q617.539 1532.88 618.72 1531.53 Q620.965 1529.01 621.845 1527.27 Q622.747 1525.51 622.747 1523.82 Q622.747 1521.07 620.803 1519.33 Q618.882 1517.6 615.78 1517.6 Q613.581 1517.6 611.127 1518.36 Q608.697 1519.13 605.919 1520.68 L605.919 1515.95 Q608.743 1514.82 611.197 1514.24 Q613.65 1513.66 615.687 1513.66 Q621.058 1513.66 624.252 1516.35 Q627.446 1519.03 627.446 1523.52 Q627.446 1525.65 626.636 1527.57 Q625.849 1529.47 623.743 1532.07 Q623.164 1532.74 620.062 1535.95 Q616.96 1539.15 611.312 1544.91 Z" fill="#000000" fill-rule="evenodd" fill-opacity="1" /><path clip-path="url(#clip440)" d="M637.493 1514.29 L655.849 1514.29 L655.849 1518.22 L641.775 1518.22 L641.775 1526.7 Q642.794 1526.35 643.812 1526.19 Q644.831 1526 645.849 1526 Q651.636 1526 655.016 1529.17 Q658.395 1532.34 658.395 1537.76 Q658.395 1543.34 654.923 1546.44 Q651.451 1549.52 645.132 1549.52 Q642.956 1549.52 640.687 1549.15 Q638.442 1548.78 636.034 1548.04 L636.034 1543.34 Q638.118 1544.47 640.34 1545.03 Q642.562 1545.58 645.039 1545.58 Q649.044 1545.58 651.381 1543.48 Q653.719 1541.37 653.719 1537.76 Q653.719 1534.15 651.381 1532.04 Q649.044 1529.94 645.039 1529.94 Q643.164 1529.94 641.289 1530.35 Q639.437 1530.77 637.493 1531.65 L637.493 1514.29 Z" fill="#000000" fill-rule="evenodd" fill-opacity="1" /><path clip-path="url(#clip440)" d="M991.988 1514.29 L1010.34 1514.29 L1010.34 1518.22 L996.271 1518.22 L996.271 1526.7 Q997.289 1526.35 998.308 1526.19 Q999.326 1526 1000.34 1526 Q1006.13 1526 1009.51 1529.17 Q1012.89 1532.34 1012.89 1537.76 Q1012.89 1543.34 1009.42 1546.44 Q1005.95 1549.52 999.627 1549.52 Q997.451 1549.52 995.183 1549.15 Q992.937 1548.78 990.53 1548.04 L990.53 1543.34 Q992.613 1544.47 994.836 1545.03 Q997.058 1545.58 999.535 1545.58 Q1003.54 1545.58 1005.88 1543.48 Q1008.22 1541.37 1008.22 1537.76 Q1008.22 1534.15 1005.88 1532.04 Q1003.54 1529.94 999.535 1529.94 Q997.66 1529.94 995.785 1530.35 Q993.933 1530.77 991.988 1531.65 L991.988 1514.29 Z" fill="#000000" fill-rule="evenodd" fill-opacity="1" /><path clip-path="url(#clip440)" d="M1032.1 1517.37 Q1028.49 1517.37 1026.66 1520.93 Q1024.86 1524.47 1024.86 1531.6 Q1024.86 1538.71 1026.66 1542.27 Q1028.49 1545.82 1032.1 1545.82 Q1035.74 1545.82 1037.54 1542.27 Q1039.37 1538.71 1039.37 1531.6 Q1039.37 1524.47 1037.54 1520.93 Q1035.74 1517.37 1032.1 1517.37 M1032.1 1513.66 Q1037.91 1513.66 1040.97 1518.27 Q1044.05 1522.85 1044.05 1531.6 Q1044.05 1540.33 1040.97 1544.94 Q1037.91 1549.52 1032.1 1549.52 Q1026.29 1549.52 1023.22 1544.94 Q1020.16 1540.33 1020.16 1531.6 Q1020.16 1522.85 1023.22 1518.27 Q1026.29 1513.66 1032.1 1513.66 Z" fill="#000000" fill-rule="evenodd" fill-opacity="1" /><path clip-path="url(#clip440)" d="M1376.39 1514.29 L1398.61 1514.29 L1398.61 1516.28 L1386.07 1548.85 L1381.18 1548.85 L1392.99 1518.22 L1376.39 1518.22 L1376.39 1514.29 Z" fill="#000000" fill-rule="evenodd" fill-opacity="1" /><path clip-path="url(#clip440)" d="M1407.78 1514.29 L1426.14 1514.29 L1426.14 1518.22 L1412.06 1518.22 L1412.06 1526.7 Q1413.08 1526.35 1414.1 1526.19 Q1415.12 1526 1416.14 1526 Q1421.92 1526 1425.3 1529.17 Q1428.68 1532.34 1428.68 1537.76 Q1428.68 1543.34 1425.21 1546.44 Q1421.74 1549.52 1415.42 1549.52 Q1413.24 1549.52 1410.97 1549.15 Q1408.73 1548.78 1406.32 1548.04 L1406.32 1543.34 Q1408.41 1544.47 1410.63 1545.03 Q1412.85 1545.58 1415.33 1545.58 Q1419.33 1545.58 1421.67 1543.48 Q1424.01 1541.37 1424.01 1537.76 Q1424.01 1534.15 1421.67 1532.04 Q1419.33 1529.94 1415.33 1529.94 Q1413.45 1529.94 1411.58 1530.35 Q1409.72 1530.77 1407.78 1531.65 L1407.78 1514.29 Z" fill="#000000" fill-rule="evenodd" fill-opacity="1" /><path clip-path="url(#clip440)" d="M1747.39 1544.91 L1755.03 1544.91 L1755.03 1518.55 L1746.72 1520.21 L1746.72 1515.95 L1754.98 1514.29 L1759.66 1514.29 L1759.66 1544.91 L1767.3 1544.91 L1767.3 1548.85 L1747.39 1548.85 L1747.39 1544.91 Z" fill="#000000" fill-rule="evenodd" fill-opacity="1" /><path clip-path="url(#clip440)" d="M1786.74 1517.37 Q1783.13 1517.37 1781.3 1520.93 Q1779.5 1524.47 1779.5 1531.6 Q1779.5 1538.71 1781.3 1542.27 Q1783.13 1545.82 1786.74 1545.82 Q1790.38 1545.82 1792.18 1542.27 Q1794.01 1538.71 1794.01 1531.6 Q1794.01 1524.47 1792.18 1520.93 Q1790.38 1517.37 1786.74 1517.37 M1786.74 1513.66 Q1792.55 1513.66 1795.61 1518.27 Q1798.69 1522.85 1798.69 1531.6 Q1798.69 1540.33 1795.61 1544.94 Q1792.55 1549.52 1786.74 1549.52 Q1780.93 1549.52 1777.85 1544.94 Q1774.8 1540.33 1774.8 1531.6 Q1774.8 1522.85 1777.85 1518.27 Q1780.93 1513.66 1786.74 1513.66 Z" fill="#000000" fill-rule="evenodd" fill-opacity="1" /><path clip-path="url(#clip440)" d="M1816.91 1517.37 Q1813.29 1517.37 1811.47 1520.93 Q1809.66 1524.47 1809.66 1531.6 Q1809.66 1538.71 1811.47 1542.27 Q1813.29 1545.82 1816.91 1545.82 Q1820.54 1545.82 1822.35 1542.27 Q1824.17 1538.71 1824.17 1531.6 Q1824.17 1524.47 1822.35 1520.93 Q1820.54 1517.37 1816.91 1517.37 M1816.91 1513.66 Q1822.72 1513.66 1825.77 1518.27 Q1828.85 1522.85 1828.85 1531.6 Q1828.85 1540.33 1825.77 1544.94 Q1822.72 1549.52 1816.91 1549.52 Q1811.1 1549.52 1808.02 1544.94 Q1804.96 1540.33 1804.96 1531.6 Q1804.96 1522.85 1808.02 1518.27 Q1811.1 1513.66 1816.91 1513.66 Z" fill="#000000" fill-rule="evenodd" fill-opacity="1" /><polyline clip-path="url(#clip442)" style="stroke:#000000; stroke-linecap:butt; stroke-linejoin:round; stroke-width:2; stroke-opacity:0.1; fill:none" points="
  216.436,1446.05 1833.55,1446.05 
  "/>
<polyline clip-path="url(#clip442)" style="stroke:#000000; stroke-linecap:butt; stroke-linejoin:round; stroke-width:2; stroke-opacity:0.1; fill:none" points="
  216.436,1049.21 1833.55,1049.21 
  "/>
<polyline clip-path="url(#clip442)" style="stroke:#000000; stroke-linecap:butt; stroke-linejoin:round; stroke-width:2; stroke-opacity:0.1; fill:none" points="
  216.436,652.374 1833.55,652.374 
  "/>
<polyline clip-path="url(#clip442)" style="stroke:#000000; stroke-linecap:butt; stroke-linejoin:round; stroke-width:2; stroke-opacity:0.1; fill:none" points="
  216.436,255.537 1833.55,255.537 
  "/>
<polyline clip-path="url(#clip440)" style="stroke:#000000; stroke-linecap:butt; stroke-linejoin:round; stroke-width:4; stroke-opacity:1; fill:none" points="
  216.436,1486.45 216.436,47.2441 
  "/>
<polyline clip-path="url(#clip440)" style="stroke:#000000; stroke-linecap:butt; stroke-linejoin:round; stroke-width:4; stroke-opacity:1; fill:none" points="
  216.436,1446.05 230.741,1446.05 
  "/>
<polyline clip-path="url(#clip440)" style="stroke:#000000; stroke-linecap:butt; stroke-linejoin:round; stroke-width:4; stroke-opacity:1; fill:none" points="
  216.436,1049.21 230.741,1049.21 
  "/>
<polyline clip-path="url(#clip440)" style="stroke:#000000; stroke-linecap:butt; stroke-linejoin:round; stroke-width:4; stroke-opacity:1; fill:none" points="
  216.436,652.374 230.741,652.374 
  "/>
<polyline clip-path="url(#clip440)" style="stroke:#000000; stroke-linecap:butt; stroke-linejoin:round; stroke-width:4; stroke-opacity:1; fill:none" points="
  216.436,255.537 230.741,255.537 
  "/>
<path clip-path="url(#clip440)" d="M62.9365 1431.85 Q59.3254 1431.85 57.4967 1435.41 Q55.6912 1438.95 55.6912 1446.08 Q55.6912 1453.19 57.4967 1456.75 Q59.3254 1460.3 62.9365 1460.3 Q66.5707 1460.3 68.3763 1456.75 Q70.205 1453.19 70.205 1446.08 Q70.205 1438.95 68.3763 1435.41 Q66.5707 1431.85 62.9365 1431.85 M62.9365 1428.14 Q68.7467 1428.14 71.8022 1432.75 Q74.8809 1437.33 74.8809 1446.08 Q74.8809 1454.81 71.8022 1459.42 Q68.7467 1464 62.9365 1464 Q57.1264 1464 54.0477 1459.42 Q50.9921 1454.81 50.9921 1446.08 Q50.9921 1437.33 54.0477 1432.75 Q57.1264 1428.14 62.9365 1428.14 Z" fill="#000000" fill-rule="evenodd" fill-opacity="1" /><path clip-path="url(#clip440)" d="M83.0984 1457.45 L87.9827 1457.45 L87.9827 1463.33 L83.0984 1463.33 L83.0984 1457.45 Z" fill="#000000" fill-rule="evenodd" fill-opacity="1" /><path clip-path="url(#clip440)" d="M108.168 1431.85 Q104.557 1431.85 102.728 1435.41 Q100.922 1438.95 100.922 1446.08 Q100.922 1453.19 102.728 1456.75 Q104.557 1460.3 108.168 1460.3 Q111.802 1460.3 113.608 1456.75 Q115.436 1453.19 115.436 1446.08 Q115.436 1438.95 113.608 1435.41 Q111.802 1431.85 108.168 1431.85 M108.168 1428.14 Q113.978 1428.14 117.033 1432.75 Q120.112 1437.33 120.112 1446.08 Q120.112 1454.81 117.033 1459.42 Q113.978 1464 108.168 1464 Q102.358 1464 99.2789 1459.42 Q96.2234 1454.81 96.2234 1446.08 Q96.2234 1437.33 99.2789 1432.75 Q102.358 1428.14 108.168 1428.14 Z" fill="#000000" fill-rule="evenodd" fill-opacity="1" /><path clip-path="url(#clip440)" d="M138.33 1431.85 Q134.719 1431.85 132.89 1435.41 Q131.084 1438.95 131.084 1446.08 Q131.084 1453.19 132.89 1456.75 Q134.719 1460.3 138.33 1460.3 Q141.964 1460.3 143.769 1456.75 Q145.598 1453.19 145.598 1446.08 Q145.598 1438.95 143.769 1435.41 Q141.964 1431.85 138.33 1431.85 M138.33 1428.14 Q144.14 1428.14 147.195 1432.75 Q150.274 1437.33 150.274 1446.08 Q150.274 1454.81 147.195 1459.42 Q144.14 1464 138.33 1464 Q132.519 1464 129.441 1459.42 Q126.385 1454.81 126.385 1446.08 Q126.385 1437.33 129.441 1432.75 Q132.519 1428.14 138.33 1428.14 Z" fill="#000000" fill-rule="evenodd" fill-opacity="1" /><path clip-path="url(#clip440)" d="M168.491 1431.85 Q164.88 1431.85 163.052 1435.41 Q161.246 1438.95 161.246 1446.08 Q161.246 1453.19 163.052 1456.75 Q164.88 1460.3 168.491 1460.3 Q172.126 1460.3 173.931 1456.75 Q175.76 1453.19 175.76 1446.08 Q175.76 1438.95 173.931 1435.41 Q172.126 1431.85 168.491 1431.85 M168.491 1428.14 Q174.302 1428.14 177.357 1432.75 Q180.436 1437.33 180.436 1446.08 Q180.436 1454.81 177.357 1459.42 Q174.302 1464 168.491 1464 Q162.681 1464 159.603 1459.42 Q156.547 1454.81 156.547 1446.08 Q156.547 1437.33 159.603 1432.75 Q162.681 1428.14 168.491 1428.14 Z" fill="#000000" fill-rule="evenodd" fill-opacity="1" /><path clip-path="url(#clip440)" d="M63.9319 1035.01 Q60.3208 1035.01 58.4921 1038.58 Q56.6865 1042.12 56.6865 1049.25 Q56.6865 1056.35 58.4921 1059.92 Q60.3208 1063.46 63.9319 1063.46 Q67.5661 1063.46 69.3717 1059.92 Q71.2004 1056.35 71.2004 1049.25 Q71.2004 1042.12 69.3717 1038.58 Q67.5661 1035.01 63.9319 1035.01 M63.9319 1031.31 Q69.742 1031.31 72.7976 1035.91 Q75.8763 1040.5 75.8763 1049.25 Q75.8763 1057.97 72.7976 1062.58 Q69.742 1067.16 63.9319 1067.16 Q58.1217 1067.16 55.043 1062.58 Q51.9875 1057.97 51.9875 1049.25 Q51.9875 1040.5 55.043 1035.91 Q58.1217 1031.31 63.9319 1031.31 Z" fill="#000000" fill-rule="evenodd" fill-opacity="1" /><path clip-path="url(#clip440)" d="M84.0938 1060.61 L88.978 1060.61 L88.978 1066.49 L84.0938 1066.49 L84.0938 1060.61 Z" fill="#000000" fill-rule="evenodd" fill-opacity="1" /><path clip-path="url(#clip440)" d="M109.163 1035.01 Q105.552 1035.01 103.723 1038.58 Q101.918 1042.12 101.918 1049.25 Q101.918 1056.35 103.723 1059.92 Q105.552 1063.46 109.163 1063.46 Q112.797 1063.46 114.603 1059.92 Q116.432 1056.35 116.432 1049.25 Q116.432 1042.12 114.603 1038.58 Q112.797 1035.01 109.163 1035.01 M109.163 1031.31 Q114.973 1031.31 118.029 1035.91 Q121.107 1040.5 121.107 1049.25 Q121.107 1057.97 118.029 1062.58 Q114.973 1067.16 109.163 1067.16 Q103.353 1067.16 100.274 1062.58 Q97.2187 1057.97 97.2187 1049.25 Q97.2187 1040.5 100.274 1035.91 Q103.353 1031.31 109.163 1031.31 Z" fill="#000000" fill-rule="evenodd" fill-opacity="1" /><path clip-path="url(#clip440)" d="M139.325 1035.01 Q135.714 1035.01 133.885 1038.58 Q132.08 1042.12 132.08 1049.25 Q132.08 1056.35 133.885 1059.92 Q135.714 1063.46 139.325 1063.46 Q142.959 1063.46 144.765 1059.92 Q146.593 1056.35 146.593 1049.25 Q146.593 1042.12 144.765 1038.58 Q142.959 1035.01 139.325 1035.01 M139.325 1031.31 Q145.135 1031.31 148.191 1035.91 Q151.269 1040.5 151.269 1049.25 Q151.269 1057.97 148.191 1062.58 Q145.135 1067.16 139.325 1067.16 Q133.515 1067.16 130.436 1062.58 Q127.381 1057.97 127.381 1049.25 Q127.381 1040.5 130.436 1035.91 Q133.515 1031.31 139.325 1031.31 Z" fill="#000000" fill-rule="evenodd" fill-opacity="1" /><path clip-path="url(#clip440)" d="M159.533 1031.93 L177.89 1031.93 L177.89 1035.87 L163.816 1035.87 L163.816 1044.34 Q164.834 1043.99 165.853 1043.83 Q166.871 1043.64 167.89 1043.64 Q173.677 1043.64 177.056 1046.82 Q180.436 1049.99 180.436 1055.4 Q180.436 1060.98 176.964 1064.08 Q173.491 1067.16 167.172 1067.16 Q164.996 1067.16 162.728 1066.79 Q160.482 1066.42 158.075 1065.68 L158.075 1060.98 Q160.158 1062.12 162.38 1062.67 Q164.603 1063.23 167.079 1063.23 Q171.084 1063.23 173.422 1061.12 Q175.76 1059.01 175.76 1055.4 Q175.76 1051.79 173.422 1049.69 Q171.084 1047.58 167.079 1047.58 Q165.204 1047.58 163.329 1048 Q161.478 1048.41 159.533 1049.29 L159.533 1031.93 Z" fill="#000000" fill-rule="evenodd" fill-opacity="1" /><path clip-path="url(#clip440)" d="M62.9365 638.173 Q59.3254 638.173 57.4967 641.738 Q55.6912 645.279 55.6912 652.409 Q55.6912 659.515 57.4967 663.08 Q59.3254 666.622 62.9365 666.622 Q66.5707 666.622 68.3763 663.08 Q70.205 659.515 70.205 652.409 Q70.205 645.279 68.3763 641.738 Q66.5707 638.173 62.9365 638.173 M62.9365 634.469 Q68.7467 634.469 71.8022 639.076 Q74.8809 643.659 74.8809 652.409 Q74.8809 661.136 71.8022 665.742 Q68.7467 670.326 62.9365 670.326 Q57.1264 670.326 54.0477 665.742 Q50.9921 661.136 50.9921 652.409 Q50.9921 643.659 54.0477 639.076 Q57.1264 634.469 62.9365 634.469 Z" fill="#000000" fill-rule="evenodd" fill-opacity="1" /><path clip-path="url(#clip440)" d="M83.0984 663.775 L87.9827 663.775 L87.9827 669.654 L83.0984 669.654 L83.0984 663.775 Z" fill="#000000" fill-rule="evenodd" fill-opacity="1" /><path clip-path="url(#clip440)" d="M108.168 638.173 Q104.557 638.173 102.728 641.738 Q100.922 645.279 100.922 652.409 Q100.922 659.515 102.728 663.08 Q104.557 666.622 108.168 666.622 Q111.802 666.622 113.608 663.08 Q115.436 659.515 115.436 652.409 Q115.436 645.279 113.608 641.738 Q111.802 638.173 108.168 638.173 M108.168 634.469 Q113.978 634.469 117.033 639.076 Q120.112 643.659 120.112 652.409 Q120.112 661.136 117.033 665.742 Q113.978 670.326 108.168 670.326 Q102.358 670.326 99.2789 665.742 Q96.2234 661.136 96.2234 652.409 Q96.2234 643.659 99.2789 639.076 Q102.358 634.469 108.168 634.469 Z" fill="#000000" fill-rule="evenodd" fill-opacity="1" /><path clip-path="url(#clip440)" d="M129.14 665.719 L136.779 665.719 L136.779 639.354 L128.469 641.02 L128.469 636.761 L136.732 635.094 L141.408 635.094 L141.408 665.719 L149.047 665.719 L149.047 669.654 L129.14 669.654 L129.14 665.719 Z" fill="#000000" fill-rule="evenodd" fill-opacity="1" /><path clip-path="url(#clip440)" d="M168.491 638.173 Q164.88 638.173 163.052 641.738 Q161.246 645.279 161.246 652.409 Q161.246 659.515 163.052 663.08 Q164.88 666.622 168.491 666.622 Q172.126 666.622 173.931 663.08 Q175.76 659.515 175.76 652.409 Q175.76 645.279 173.931 641.738 Q172.126 638.173 168.491 638.173 M168.491 634.469 Q174.302 634.469 177.357 639.076 Q180.436 643.659 180.436 652.409 Q180.436 661.136 177.357 665.742 Q174.302 670.326 168.491 670.326 Q162.681 670.326 159.603 665.742 Q156.547 661.136 156.547 652.409 Q156.547 643.659 159.603 639.076 Q162.681 634.469 168.491 634.469 Z" fill="#000000" fill-rule="evenodd" fill-opacity="1" /><path clip-path="url(#clip440)" d="M63.9319 241.336 Q60.3208 241.336 58.4921 244.9 Q56.6865 248.442 56.6865 255.572 Q56.6865 262.678 58.4921 266.243 Q60.3208 269.785 63.9319 269.785 Q67.5661 269.785 69.3717 266.243 Q71.2004 262.678 71.2004 255.572 Q71.2004 248.442 69.3717 244.9 Q67.5661 241.336 63.9319 241.336 M63.9319 237.632 Q69.742 237.632 72.7976 242.238 Q75.8763 246.822 75.8763 255.572 Q75.8763 264.298 72.7976 268.905 Q69.742 273.488 63.9319 273.488 Q58.1217 273.488 55.043 268.905 Q51.9875 264.298 51.9875 255.572 Q51.9875 246.822 55.043 242.238 Q58.1217 237.632 63.9319 237.632 Z" fill="#000000" fill-rule="evenodd" fill-opacity="1" /><path clip-path="url(#clip440)" d="M84.0938 266.937 L88.978 266.937 L88.978 272.817 L84.0938 272.817 L84.0938 266.937 Z" fill="#000000" fill-rule="evenodd" fill-opacity="1" /><path clip-path="url(#clip440)" d="M109.163 241.336 Q105.552 241.336 103.723 244.9 Q101.918 248.442 101.918 255.572 Q101.918 262.678 103.723 266.243 Q105.552 269.785 109.163 269.785 Q112.797 269.785 114.603 266.243 Q116.432 262.678 116.432 255.572 Q116.432 248.442 114.603 244.9 Q112.797 241.336 109.163 241.336 M109.163 237.632 Q114.973 237.632 118.029 242.238 Q121.107 246.822 121.107 255.572 Q121.107 264.298 118.029 268.905 Q114.973 273.488 109.163 273.488 Q103.353 273.488 100.274 268.905 Q97.2187 264.298 97.2187 255.572 Q97.2187 246.822 100.274 242.238 Q103.353 237.632 109.163 237.632 Z" fill="#000000" fill-rule="evenodd" fill-opacity="1" /><path clip-path="url(#clip440)" d="M130.135 268.882 L137.774 268.882 L137.774 242.516 L129.464 244.183 L129.464 239.924 L137.728 238.257 L142.404 238.257 L142.404 268.882 L150.043 268.882 L150.043 272.817 L130.135 272.817 L130.135 268.882 Z" fill="#000000" fill-rule="evenodd" fill-opacity="1" /><path clip-path="url(#clip440)" d="M159.533 238.257 L177.89 238.257 L177.89 242.192 L163.816 242.192 L163.816 250.664 Q164.834 250.317 165.853 250.155 Q166.871 249.97 167.89 249.97 Q173.677 249.97 177.056 253.141 Q180.436 256.312 180.436 261.729 Q180.436 267.308 176.964 270.409 Q173.491 273.488 167.172 273.488 Q164.996 273.488 162.728 273.118 Q160.482 272.747 158.075 272.007 L158.075 267.308 Q160.158 268.442 162.38 268.997 Q164.603 269.553 167.079 269.553 Q171.084 269.553 173.422 267.447 Q175.76 265.34 175.76 261.729 Q175.76 258.118 173.422 256.011 Q171.084 253.905 167.079 253.905 Q165.204 253.905 163.329 254.322 Q161.478 254.738 159.533 255.618 L159.533 238.257 Z" fill="#000000" fill-rule="evenodd" fill-opacity="1" /><polyline clip-path="url(#clip442)" style="stroke:#009af9; stroke-linecap:butt; stroke-linejoin:round; stroke-width:4; stroke-opacity:1; fill:none" points="
  262.203,1445.72 277.613,1445 293.023,1445.64 308.433,1445.49 323.843,1422.45 339.253,1426.78 354.663,1416.96 370.073,1404.18 385.483,1403.48 400.893,1382.93 
  416.302,1375.53 431.712,1387.33 447.122,1378.96 462.532,1369.08 477.942,1356.44 493.352,1355.36 508.762,1359.24 524.172,1359.98 539.582,1351.21 554.992,1350.16 
  570.402,1337.47 585.812,1336.13 601.221,1319.2 616.631,1316.35 632.041,1306.43 647.451,1298.58 662.861,1292.43 678.271,1287.76 693.681,1281.82 709.091,1276.27 
  724.501,1260.88 739.911,1252.4 755.321,1241.3 770.731,1264.15 786.14,1252.78 801.55,1250.84 816.96,1228.51 832.37,1232.16 847.78,1213.73 863.19,1221.54 
  878.6,1202.69 894.01,87.9763 909.42,1164.05 924.83,1196.73 940.24,1200.19 955.65,1198.55 971.059,1186.61 986.469,1146.53 1001.88,1162.49 1017.29,1149.36 
  1032.7,1132.29 1048.11,1124.78 1063.52,1094.99 1078.93,1113.01 1094.34,1102.22 1109.75,1105.72 1125.16,1081.71 1140.57,1098.42 1155.98,1103.25 1171.39,1074.25 
  1186.8,1058.7 1202.21,1087.11 1217.62,1067.94 1233.03,1093.9 1248.44,1052.96 1263.85,1014.37 1279.26,1040.73 1294.67,1003.29 1310.08,1029.03 1325.49,1044.52 
  1340.9,1032.07 1356.31,1010.68 1371.72,1002.07 1387.13,963.487 1402.54,1002.1 1417.95,1029.77 1433.36,494.362 1448.77,976.773 1464.18,1001.08 1479.59,967.447 
  1495,1007.38 1510.41,959.645 1525.82,919.001 1541.23,928.51 1556.64,981.059 1572.05,963.828 1587.46,934.875 1602.87,918.954 1618.28,945.653 1633.69,906.358 
  1649.1,890.802 1664.51,924.787 1679.92,896.905 1695.33,881.024 1710.74,111.064 1726.15,830.776 1741.56,885.175 1756.97,895.969 1772.38,860.595 1787.79,905.096 
  
  "/>
<path clip-path="url(#clip440)" d="
M1904.76 198.898 L2352.76 198.898 L2352.76 95.2176 L1904.76 95.2176  Z
  " fill="#ffffff" fill-rule="evenodd" fill-opacity="1"/>
<polyline clip-path="url(#clip440)" style="stroke:#000000; stroke-linecap:butt; stroke-linejoin:round; stroke-width:4; stroke-opacity:1; fill:none" points="
  1904.76,198.898 2352.76,198.898 2352.76,95.2176 1904.76,95.2176 1904.76,198.898 
  "/>
<polyline clip-path="url(#clip440)" style="stroke:#009af9; stroke-linecap:butt; stroke-linejoin:round; stroke-width:4; stroke-opacity:1; fill:none" points="
  1928.5,147.058 2070.92,147.058 
  "/>
<path clip-path="url(#clip440)" d="M2094.66 128.319 L2098.92 128.319 L2098.92 164.338 L2094.66 164.338 L2094.66 128.319 Z" fill="#000000" fill-rule="evenodd" fill-opacity="1" /><path clip-path="url(#clip440)" d="M2107.83 138.412 L2112.09 138.412 L2112.09 164.338 L2107.83 164.338 L2107.83 138.412 M2107.83 128.319 L2112.09 128.319 L2112.09 133.713 L2107.83 133.713 L2107.83 128.319 Z" fill="#000000" fill-rule="evenodd" fill-opacity="1" /><path clip-path="url(#clip440)" d="M2139.61 151.398 Q2139.61 146.699 2137.67 144.037 Q2135.75 141.352 2132.37 141.352 Q2128.99 141.352 2127.04 144.037 Q2125.12 146.699 2125.12 151.398 Q2125.12 156.097 2127.04 158.782 Q2128.99 161.444 2132.37 161.444 Q2135.75 161.444 2137.67 158.782 Q2139.61 156.097 2139.61 151.398 M2125.12 142.347 Q2126.46 140.032 2128.5 138.921 Q2130.56 137.787 2133.41 137.787 Q2138.13 137.787 2141.07 141.537 Q2144.03 145.287 2144.03 151.398 Q2144.03 157.509 2141.07 161.259 Q2138.13 165.009 2133.41 165.009 Q2130.56 165.009 2128.5 163.898 Q2126.46 162.763 2125.12 160.449 L2125.12 164.338 L2120.84 164.338 L2120.84 128.319 L2125.12 128.319 L2125.12 142.347 Z" fill="#000000" fill-rule="evenodd" fill-opacity="1" /><path clip-path="url(#clip440)" d="M2182.69 139.176 L2182.69 143.203 Q2180.88 142.277 2178.94 141.815 Q2177 141.352 2174.91 141.352 Q2171.74 141.352 2170.14 142.324 Q2168.57 143.296 2168.57 145.24 Q2168.57 146.722 2169.7 147.578 Q2170.84 148.412 2174.26 149.176 L2175.72 149.5 Q2180.26 150.472 2182.16 152.254 Q2184.08 154.014 2184.08 157.185 Q2184.08 160.796 2181.21 162.902 Q2178.36 165.009 2173.36 165.009 Q2171.28 165.009 2169.01 164.592 Q2166.76 164.199 2164.26 163.388 L2164.26 158.99 Q2166.63 160.217 2168.92 160.842 Q2171.21 161.444 2173.45 161.444 Q2176.46 161.444 2178.08 160.426 Q2179.7 159.384 2179.7 157.509 Q2179.7 155.773 2178.52 154.847 Q2177.37 153.921 2173.41 153.064 L2171.93 152.717 Q2167.97 151.884 2166.21 150.171 Q2164.45 148.435 2164.45 145.426 Q2164.45 141.768 2167.04 139.778 Q2169.63 137.787 2174.4 137.787 Q2176.76 137.787 2178.85 138.134 Q2180.93 138.481 2182.69 139.176 Z" fill="#000000" fill-rule="evenodd" fill-opacity="1" /><path clip-path="url(#clip440)" d="M2200.91 141.398 Q2197.48 141.398 2195.49 144.083 Q2193.5 146.745 2193.5 151.398 Q2193.5 156.051 2195.47 158.736 Q2197.46 161.398 2200.91 161.398 Q2204.31 161.398 2206.3 158.713 Q2208.29 156.027 2208.29 151.398 Q2208.29 146.791 2206.3 144.106 Q2204.31 141.398 2200.91 141.398 M2200.91 137.787 Q2206.46 137.787 2209.63 141.398 Q2212.81 145.009 2212.81 151.398 Q2212.81 157.764 2209.63 161.398 Q2206.46 165.009 2200.91 165.009 Q2195.33 165.009 2192.16 161.398 Q2189.01 157.764 2189.01 151.398 Q2189.01 145.009 2192.16 141.398 Q2195.33 137.787 2200.91 137.787 Z" fill="#000000" fill-rule="evenodd" fill-opacity="1" /><path clip-path="url(#clip440)" d="M2219.87 128.319 L2224.13 128.319 L2224.13 164.338 L2219.87 164.338 L2219.87 128.319 Z" fill="#000000" fill-rule="evenodd" fill-opacity="1" /><path clip-path="url(#clip440)" d="M2229.98 138.412 L2234.5 138.412 L2242.6 160.171 L2250.7 138.412 L2255.21 138.412 L2245.49 164.338 L2239.7 164.338 L2229.98 138.412 Z" fill="#000000" fill-rule="evenodd" fill-opacity="1" /><path clip-path="url(#clip440)" d="M2283.27 150.31 L2283.27 152.393 L2263.69 152.393 Q2263.96 156.791 2266.32 159.106 Q2268.71 161.398 2272.94 161.398 Q2275.4 161.398 2277.69 160.796 Q2280 160.194 2282.27 158.99 L2282.27 163.018 Q2279.98 163.99 2277.57 164.5 Q2275.17 165.009 2272.69 165.009 Q2266.49 165.009 2262.85 161.398 Q2259.24 157.787 2259.24 151.629 Q2259.24 145.264 2262.67 141.537 Q2266.12 137.787 2271.95 137.787 Q2277.18 137.787 2280.21 141.166 Q2283.27 144.523 2283.27 150.31 M2279.01 149.06 Q2278.96 145.565 2277.04 143.481 Q2275.14 141.398 2272 141.398 Q2268.43 141.398 2266.28 143.412 Q2264.15 145.426 2263.82 149.083 L2279.01 149.06 Z" fill="#000000" fill-rule="evenodd" fill-opacity="1" /><path clip-path="url(#clip440)" d="M2305.28 142.393 Q2304.56 141.977 2303.71 141.791 Q2302.87 141.583 2301.86 141.583 Q2298.25 141.583 2296.3 143.944 Q2294.38 146.282 2294.38 150.68 L2294.38 164.338 L2290.1 164.338 L2290.1 138.412 L2294.38 138.412 L2294.38 142.44 Q2295.72 140.078 2297.87 138.944 Q2300.03 137.787 2303.11 137.787 Q2303.55 137.787 2304.08 137.856 Q2304.61 137.903 2305.26 138.018 L2305.28 142.393 Z" fill="#000000" fill-rule="evenodd" fill-opacity="1" /></svg>
