<?xml version="1.0" encoding="utf-8"?>
<svg xmlns="http://www.w3.org/2000/svg" xmlns:xlink="http://www.w3.org/1999/xlink" width="600" height="400" viewBox="0 0 2400 1600">
<defs>
  <clipPath id="clip960">
    <rect x="0" y="0" width="2400" height="1600"/>
  </clipPath>
</defs>
<path clip-path="url(#clip960)" d="
M0 1600 L2400 1600 L2400 0 L0 0  Z
  " fill="#ffffff" fill-rule="evenodd" fill-opacity="1"/>
<defs>
  <clipPath id="clip961">
    <rect x="480" y="0" width="1681" height="1600"/>
  </clipPath>
</defs>
<defs>
  <clipPath id="clip962">
    <rect x="149" y="151" width="1742" height="1336"/>
  </clipPath>
</defs>
<path clip-path="url(#clip960)" d="
M193.936 1486.45 L1896.9 1486.45 L1896.9 151.935 L193.936 151.935  Z
  " fill="#ffffff" fill-rule="evenodd" fill-opacity="1"/>
<defs>
  <clipPath id="clip963">
    <rect x="193" y="151" width="1704" height="1336"/>
  </clipPath>
</defs>
<polyline clip-path="url(#clip963)" style="stroke:#000000; stroke-linecap:butt; stroke-linejoin:round; stroke-width:2; stroke-opacity:0.1; fill:none" points="
  426.249,1486.45 426.249,151.935 
  "/>
<polyline clip-path="url(#clip963)" style="stroke:#000000; stroke-linecap:butt; stroke-linejoin:round; stroke-width:2; stroke-opacity:0.1; fill:none" points="
  747.563,1486.45 747.563,151.935 
  "/>
<polyline clip-path="url(#clip963)" style="stroke:#000000; stroke-linecap:butt; stroke-linejoin:round; stroke-width:2; stroke-opacity:0.1; fill:none" points="
  1068.88,1486.45 1068.88,151.935 
  "/>
<polyline clip-path="url(#clip963)" style="stroke:#000000; stroke-linecap:butt; stroke-linejoin:round; stroke-width:2; stroke-opacity:0.1; fill:none" points="
  1390.19,1486.45 1390.19,151.935 
  "/>
<polyline clip-path="url(#clip963)" style="stroke:#000000; stroke-linecap:butt; stroke-linejoin:round; stroke-width:2; stroke-opacity:0.1; fill:none" points="
  1711.5,1486.45 1711.5,151.935 
  "/>
<polyline clip-path="url(#clip960)" style="stroke:#000000; stroke-linecap:butt; stroke-linejoin:round; stroke-width:4; stroke-opacity:1; fill:none" points="
  193.936,1486.45 1896.9,1486.45 
  "/>
<polyline clip-path="url(#clip960)" style="stroke:#000000; stroke-linecap:butt; stroke-linejoin:round; stroke-width:4; stroke-opacity:1; fill:none" points="
  426.249,1486.45 426.249,1467.55 
  "/>
<polyline clip-path="url(#clip960)" style="stroke:#000000; stroke-linecap:butt; stroke-linejoin:round; stroke-width:4; stroke-opacity:1; fill:none" points="
  747.563,1486.45 747.563,1467.55 
  "/>
<polyline clip-path="url(#clip960)" style="stroke:#000000; stroke-linecap:butt; stroke-linejoin:round; stroke-width:4; stroke-opacity:1; fill:none" points="
  1068.88,1486.45 1068.88,1467.55 
  "/>
<polyline clip-path="url(#clip960)" style="stroke:#000000; stroke-linecap:butt; stroke-linejoin:round; stroke-width:4; stroke-opacity:1; fill:none" points="
  1390.19,1486.45 1390.19,1467.55 
  "/>
<polyline clip-path="url(#clip960)" style="stroke:#000000; stroke-linecap:butt; stroke-linejoin:round; stroke-width:4; stroke-opacity:1; fill:none" points="
  1711.5,1486.45 1711.5,1467.55 
  "/>
<path clip-path="url(#clip960)" d="M403.39 1517.37 Q399.779 1517.37 397.95 1520.93 Q396.145 1524.47 396.145 1531.6 Q396.145 1538.71 397.95 1542.27 Q399.779 1545.82 403.39 1545.82 Q407.024 1545.82 408.83 1542.27 Q410.659 1538.71 410.659 1531.6 Q410.659 1524.47 408.83 1520.93 Q407.024 1517.37 403.39 1517.37 M403.39 1513.66 Q409.2 1513.66 412.256 1518.27 Q415.335 1522.85 415.335 1531.6 Q415.335 1540.33 412.256 1544.94 Q409.2 1549.52 403.39 1549.52 Q397.58 1549.52 394.501 1544.94 Q391.446 1540.33 391.446 1531.6 Q391.446 1522.85 394.501 1518.27 Q397.58 1513.66 403.39 1513.66 Z" fill="#000000" fill-rule="evenodd" fill-opacity="1" /><path clip-path="url(#clip960)" d="M423.552 1542.97 L428.436 1542.97 L428.436 1548.85 L423.552 1548.85 L423.552 1542.97 Z" fill="#000000" fill-rule="evenodd" fill-opacity="1" /><path clip-path="url(#clip960)" d="M451.469 1518.36 L439.663 1536.81 L451.469 1536.81 L451.469 1518.36 M450.242 1514.29 L456.121 1514.29 L456.121 1536.81 L461.052 1536.81 L461.052 1540.7 L456.121 1540.7 L456.121 1548.85 L451.469 1548.85 L451.469 1540.7 L435.867 1540.7 L435.867 1536.19 L450.242 1514.29 Z" fill="#000000" fill-rule="evenodd" fill-opacity="1" /><path clip-path="url(#clip960)" d="M724.866 1517.37 Q721.255 1517.37 719.426 1520.93 Q717.621 1524.47 717.621 1531.6 Q717.621 1538.71 719.426 1542.27 Q721.255 1545.82 724.866 1545.82 Q728.5 1545.82 730.306 1542.27 Q732.135 1538.71 732.135 1531.6 Q732.135 1524.47 730.306 1520.93 Q728.5 1517.37 724.866 1517.37 M724.866 1513.66 Q730.676 1513.66 733.732 1518.27 Q736.81 1522.85 736.81 1531.6 Q736.81 1540.33 733.732 1544.94 Q730.676 1549.52 724.866 1549.52 Q719.056 1549.52 715.977 1544.94 Q712.922 1540.33 712.922 1531.6 Q712.922 1522.85 715.977 1518.27 Q719.056 1513.66 724.866 1513.66 Z" fill="#000000" fill-rule="evenodd" fill-opacity="1" /><path clip-path="url(#clip960)" d="M745.028 1542.97 L749.912 1542.97 L749.912 1548.85 L745.028 1548.85 L745.028 1542.97 Z" fill="#000000" fill-rule="evenodd" fill-opacity="1" /><path clip-path="url(#clip960)" d="M770.676 1529.7 Q767.528 1529.7 765.676 1531.86 Q763.847 1534.01 763.847 1537.76 Q763.847 1541.49 765.676 1543.66 Q767.528 1545.82 770.676 1545.82 Q773.824 1545.82 775.653 1543.66 Q777.505 1541.49 777.505 1537.76 Q777.505 1534.01 775.653 1531.86 Q773.824 1529.7 770.676 1529.7 M779.958 1515.05 L779.958 1519.31 Q778.199 1518.48 776.394 1518.04 Q774.611 1517.6 772.852 1517.6 Q768.222 1517.6 765.769 1520.72 Q763.338 1523.85 762.991 1530.17 Q764.357 1528.15 766.417 1527.09 Q768.477 1526 770.954 1526 Q776.162 1526 779.171 1529.17 Q782.204 1532.32 782.204 1537.76 Q782.204 1543.08 779.056 1546.3 Q775.907 1549.52 770.676 1549.52 Q764.681 1549.52 761.509 1544.94 Q758.338 1540.33 758.338 1531.6 Q758.338 1523.41 762.227 1518.55 Q766.116 1513.66 772.667 1513.66 Q774.426 1513.66 776.208 1514.01 Q778.014 1514.36 779.958 1515.05 Z" fill="#000000" fill-rule="evenodd" fill-opacity="1" /><path clip-path="url(#clip960)" d="M1046.31 1517.37 Q1042.7 1517.37 1040.87 1520.93 Q1039.06 1524.47 1039.06 1531.6 Q1039.06 1538.71 1040.87 1542.27 Q1042.7 1545.82 1046.31 1545.82 Q1049.94 1545.82 1051.75 1542.27 Q1053.58 1538.71 1053.58 1531.6 Q1053.58 1524.47 1051.75 1520.93 Q1049.94 1517.37 1046.31 1517.37 M1046.31 1513.66 Q1052.12 1513.66 1055.17 1518.27 Q1058.25 1522.85 1058.25 1531.6 Q1058.25 1540.33 1055.17 1544.94 Q1052.12 1549.52 1046.31 1549.52 Q1040.5 1549.52 1037.42 1544.94 Q1034.36 1540.33 1034.36 1531.6 Q1034.36 1522.85 1037.42 1518.27 Q1040.5 1513.66 1046.31 1513.66 Z" fill="#000000" fill-rule="evenodd" fill-opacity="1" /><path clip-path="url(#clip960)" d="M1066.47 1542.97 L1071.35 1542.97 L1071.35 1548.85 L1066.47 1548.85 L1066.47 1542.97 Z" fill="#000000" fill-rule="evenodd" fill-opacity="1" /><path clip-path="url(#clip960)" d="M1091.54 1532.44 Q1088.21 1532.44 1086.28 1534.22 Q1084.39 1536 1084.39 1539.13 Q1084.39 1542.25 1086.28 1544.03 Q1088.21 1545.82 1091.54 1545.82 Q1094.87 1545.82 1096.79 1544.03 Q1098.71 1542.23 1098.71 1539.13 Q1098.71 1536 1096.79 1534.22 Q1094.89 1532.44 1091.54 1532.44 M1086.86 1530.45 Q1083.85 1529.7 1082.16 1527.64 Q1080.5 1525.58 1080.5 1522.62 Q1080.5 1518.48 1083.44 1516.07 Q1086.4 1513.66 1091.54 1513.66 Q1096.7 1513.66 1099.64 1516.07 Q1102.58 1518.48 1102.58 1522.62 Q1102.58 1525.58 1100.89 1527.64 Q1099.22 1529.7 1096.24 1530.45 Q1099.62 1531.23 1101.49 1533.52 Q1103.39 1535.82 1103.39 1539.13 Q1103.39 1544.15 1100.31 1546.83 Q1097.26 1549.52 1091.54 1549.52 Q1085.82 1549.52 1082.74 1546.83 Q1079.69 1544.15 1079.69 1539.13 Q1079.69 1535.82 1081.58 1533.52 Q1083.48 1531.23 1086.86 1530.45 M1085.15 1523.06 Q1085.15 1525.75 1086.82 1527.25 Q1088.51 1528.76 1091.54 1528.76 Q1094.55 1528.76 1096.24 1527.25 Q1097.95 1525.75 1097.95 1523.06 Q1097.95 1520.38 1096.24 1518.87 Q1094.55 1517.37 1091.54 1517.37 Q1088.51 1517.37 1086.82 1518.87 Q1085.15 1520.38 1085.15 1523.06 Z" fill="#000000" fill-rule="evenodd" fill-opacity="1" /><path clip-path="url(#clip960)" d="M1357.34 1544.91 L1364.98 1544.91 L1364.98 1518.55 L1356.67 1520.21 L1356.67 1515.95 L1364.94 1514.29 L1369.61 1514.29 L1369.61 1544.91 L1377.25 1544.91 L1377.25 1548.85 L1357.34 1548.85 L1357.34 1544.91 Z" fill="#000000" fill-rule="evenodd" fill-opacity="1" /><path clip-path="url(#clip960)" d="M1386.7 1542.97 L1391.58 1542.97 L1391.58 1548.85 L1386.7 1548.85 L1386.7 1542.97 Z" fill="#000000" fill-rule="evenodd" fill-opacity="1" /><path clip-path="url(#clip960)" d="M1411.76 1517.37 Q1408.15 1517.37 1406.32 1520.93 Q1404.52 1524.47 1404.52 1531.6 Q1404.52 1538.71 1406.32 1542.27 Q1408.15 1545.82 1411.76 1545.82 Q1415.4 1545.82 1417.2 1542.27 Q1419.03 1538.71 1419.03 1531.6 Q1419.03 1524.47 1417.2 1520.93 Q1415.4 1517.37 1411.76 1517.37 M1411.76 1513.66 Q1417.57 1513.66 1420.63 1518.27 Q1423.71 1522.85 1423.71 1531.6 Q1423.71 1540.33 1420.63 1544.94 Q1417.57 1549.52 1411.76 1549.52 Q1405.95 1549.52 1402.88 1544.94 Q1399.82 1540.33 1399.82 1531.6 Q1399.82 1522.85 1402.88 1518.27 Q1405.95 1513.66 1411.76 1513.66 Z" fill="#000000" fill-rule="evenodd" fill-opacity="1" /><path clip-path="url(#clip960)" d="M1679.46 1544.91 L1687.09 1544.91 L1687.09 1518.55 L1678.78 1520.21 L1678.78 1515.95 L1687.05 1514.29 L1691.72 1514.29 L1691.72 1544.91 L1699.36 1544.91 L1699.36 1548.85 L1679.46 1548.85 L1679.46 1544.91 Z" fill="#000000" fill-rule="evenodd" fill-opacity="1" /><path clip-path="url(#clip960)" d="M1708.81 1542.97 L1713.69 1542.97 L1713.69 1548.85 L1708.81 1548.85 L1708.81 1542.97 Z" fill="#000000" fill-rule="evenodd" fill-opacity="1" /><path clip-path="url(#clip960)" d="M1727.9 1544.91 L1744.22 1544.91 L1744.22 1548.85 L1722.28 1548.85 L1722.28 1544.91 Q1724.94 1542.16 1729.52 1537.53 Q1734.13 1532.88 1735.31 1531.53 Q1737.56 1529.01 1738.44 1527.27 Q1739.34 1525.51 1739.34 1523.82 Q1739.34 1521.07 1737.4 1519.33 Q1735.47 1517.6 1732.37 1517.6 Q1730.17 1517.6 1727.72 1518.36 Q1725.29 1519.13 1722.51 1520.68 L1722.51 1515.95 Q1725.34 1514.82 1727.79 1514.24 Q1730.24 1513.66 1732.28 1513.66 Q1737.65 1513.66 1740.84 1516.35 Q1744.04 1519.03 1744.04 1523.52 Q1744.04 1525.65 1743.23 1527.57 Q1742.44 1529.47 1740.34 1532.07 Q1739.76 1532.74 1736.65 1535.95 Q1733.55 1539.15 1727.9 1544.91 Z" fill="#000000" fill-rule="evenodd" fill-opacity="1" /><polyline clip-path="url(#clip963)" style="stroke:#000000; stroke-linecap:butt; stroke-linejoin:round; stroke-width:2; stroke-opacity:0.1; fill:none" points="
  193.936,1445.78 1896.9,1445.78 
  "/>
<polyline clip-path="url(#clip963)" style="stroke:#000000; stroke-linecap:butt; stroke-linejoin:round; stroke-width:2; stroke-opacity:0.1; fill:none" points="
  193.936,1070.64 1896.9,1070.64 
  "/>
<polyline clip-path="url(#clip963)" style="stroke:#000000; stroke-linecap:butt; stroke-linejoin:round; stroke-width:2; stroke-opacity:0.1; fill:none" points="
  193.936,695.505 1896.9,695.505 
  "/>
<polyline clip-path="url(#clip963)" style="stroke:#000000; stroke-linecap:butt; stroke-linejoin:round; stroke-width:2; stroke-opacity:0.1; fill:none" points="
  193.936,320.366 1896.9,320.366 
  "/>
<polyline clip-path="url(#clip960)" style="stroke:#000000; stroke-linecap:butt; stroke-linejoin:round; stroke-width:4; stroke-opacity:1; fill:none" points="
  193.936,1486.45 193.936,151.935 
  "/>
<polyline clip-path="url(#clip960)" style="stroke:#000000; stroke-linecap:butt; stroke-linejoin:round; stroke-width:4; stroke-opacity:1; fill:none" points="
  193.936,1445.78 208.843,1445.78 
  "/>
<polyline clip-path="url(#clip960)" style="stroke:#000000; stroke-linecap:butt; stroke-linejoin:round; stroke-width:4; stroke-opacity:1; fill:none" points="
  193.936,1070.64 208.843,1070.64 
  "/>
<polyline clip-path="url(#clip960)" style="stroke:#000000; stroke-linecap:butt; stroke-linejoin:round; stroke-width:4; stroke-opacity:1; fill:none" points="
  193.936,695.505 208.843,695.505 
  "/>
<polyline clip-path="url(#clip960)" style="stroke:#000000; stroke-linecap:butt; stroke-linejoin:round; stroke-width:4; stroke-opacity:1; fill:none" points="
  193.936,320.366 208.843,320.366 
  "/>
<path clip-path="url(#clip960)" d="M50.9921 1446.23 L80.6679 1446.23 L80.6679 1450.17 L50.9921 1450.17 L50.9921 1446.23 Z" fill="#000000" fill-rule="evenodd" fill-opacity="1" /><path clip-path="url(#clip960)" d="M91.5706 1459.13 L99.2095 1459.13 L99.2095 1432.76 L90.8993 1434.43 L90.8993 1430.17 L99.1632 1428.5 L103.839 1428.5 L103.839 1459.13 L111.478 1459.13 L111.478 1463.06 L91.5706 1463.06 L91.5706 1459.13 Z" fill="#000000" fill-rule="evenodd" fill-opacity="1" /><path clip-path="url(#clip960)" d="M120.922 1457.18 L125.807 1457.18 L125.807 1463.06 L120.922 1463.06 L120.922 1457.18 Z" fill="#000000" fill-rule="evenodd" fill-opacity="1" /><path clip-path="url(#clip960)" d="M145.992 1431.58 Q142.381 1431.58 140.552 1435.15 Q138.746 1438.69 138.746 1445.82 Q138.746 1452.92 140.552 1456.49 Q142.381 1460.03 145.992 1460.03 Q149.626 1460.03 151.431 1456.49 Q153.26 1452.92 153.26 1445.82 Q153.26 1438.69 151.431 1435.15 Q149.626 1431.58 145.992 1431.58 M145.992 1427.88 Q151.802 1427.88 154.857 1432.49 Q157.936 1437.07 157.936 1445.82 Q157.936 1454.55 154.857 1459.15 Q151.802 1463.73 145.992 1463.73 Q140.181 1463.73 137.103 1459.15 Q134.047 1454.55 134.047 1445.82 Q134.047 1437.07 137.103 1432.49 Q140.181 1427.88 145.992 1427.88 Z" fill="#000000" fill-rule="evenodd" fill-opacity="1" /><path clip-path="url(#clip960)" d="M51.9875 1071.1 L81.6633 1071.1 L81.6633 1075.03 L51.9875 1075.03 L51.9875 1071.1 Z" fill="#000000" fill-rule="evenodd" fill-opacity="1" /><path clip-path="url(#clip960)" d="M101.756 1056.44 Q98.1447 1056.44 96.316 1060.01 Q94.5104 1063.55 94.5104 1070.68 Q94.5104 1077.79 96.316 1081.35 Q98.1447 1084.89 101.756 1084.89 Q105.39 1084.89 107.196 1081.35 Q109.024 1077.79 109.024 1070.68 Q109.024 1063.55 107.196 1060.01 Q105.39 1056.44 101.756 1056.44 M101.756 1052.74 Q107.566 1052.74 110.621 1057.35 Q113.7 1061.93 113.7 1070.68 Q113.7 1079.41 110.621 1084.01 Q107.566 1088.6 101.756 1088.6 Q95.9456 1088.6 92.8669 1084.01 Q89.8114 1079.41 89.8114 1070.68 Q89.8114 1061.93 92.8669 1057.35 Q95.9456 1052.74 101.756 1052.74 Z" fill="#000000" fill-rule="evenodd" fill-opacity="1" /><path clip-path="url(#clip960)" d="M121.918 1082.04 L126.802 1082.04 L126.802 1087.92 L121.918 1087.92 L121.918 1082.04 Z" fill="#000000" fill-rule="evenodd" fill-opacity="1" /><path clip-path="url(#clip960)" d="M137.033 1053.36 L155.39 1053.36 L155.39 1057.3 L141.316 1057.3 L141.316 1065.77 Q142.334 1065.42 143.353 1065.26 Q144.371 1065.08 145.39 1065.08 Q151.177 1065.08 154.556 1068.25 Q157.936 1071.42 157.936 1076.84 Q157.936 1082.42 154.464 1085.52 Q150.992 1088.6 144.672 1088.6 Q142.496 1088.6 140.228 1088.23 Q137.982 1087.85 135.575 1087.11 L135.575 1082.42 Q137.658 1083.55 139.881 1084.1 Q142.103 1084.66 144.58 1084.66 Q148.584 1084.66 150.922 1082.55 Q153.26 1080.45 153.26 1076.84 Q153.26 1073.23 150.922 1071.12 Q148.584 1069.01 144.58 1069.01 Q142.705 1069.01 140.83 1069.43 Q138.978 1069.85 137.033 1070.73 L137.033 1053.36 Z" fill="#000000" fill-rule="evenodd" fill-opacity="1" /><path clip-path="url(#clip960)" d="M100.76 681.304 Q97.1493 681.304 95.3206 684.869 Q93.515 688.41 93.515 695.54 Q93.515 702.646 95.3206 706.211 Q97.1493 709.753 100.76 709.753 Q104.395 709.753 106.2 706.211 Q108.029 702.646 108.029 695.54 Q108.029 688.41 106.2 684.869 Q104.395 681.304 100.76 681.304 M100.76 677.6 Q106.571 677.6 109.626 682.207 Q112.705 686.79 112.705 695.54 Q112.705 704.267 109.626 708.873 Q106.571 713.456 100.76 713.456 Q94.9502 713.456 91.8715 708.873 Q88.816 704.267 88.816 695.54 Q88.816 686.79 91.8715 682.207 Q94.9502 677.6 100.76 677.6 Z" fill="#000000" fill-rule="evenodd" fill-opacity="1" /><path clip-path="url(#clip960)" d="M120.922 706.906 L125.807 706.906 L125.807 712.785 L120.922 712.785 L120.922 706.906 Z" fill="#000000" fill-rule="evenodd" fill-opacity="1" /><path clip-path="url(#clip960)" d="M145.992 681.304 Q142.381 681.304 140.552 684.869 Q138.746 688.41 138.746 695.54 Q138.746 702.646 140.552 706.211 Q142.381 709.753 145.992 709.753 Q149.626 709.753 151.431 706.211 Q153.26 702.646 153.26 695.54 Q153.26 688.41 151.431 684.869 Q149.626 681.304 145.992 681.304 M145.992 677.6 Q151.802 677.6 154.857 682.207 Q157.936 686.79 157.936 695.54 Q157.936 704.267 154.857 708.873 Q151.802 713.456 145.992 713.456 Q140.181 713.456 137.103 708.873 Q134.047 704.267 134.047 695.54 Q134.047 686.79 137.103 682.207 Q140.181 677.6 145.992 677.6 Z" fill="#000000" fill-rule="evenodd" fill-opacity="1" /><path clip-path="url(#clip960)" d="M101.756 306.165 Q98.1447 306.165 96.316 309.729 Q94.5104 313.271 94.5104 320.401 Q94.5104 327.507 96.316 331.072 Q98.1447 334.614 101.756 334.614 Q105.39 334.614 107.196 331.072 Q109.024 327.507 109.024 320.401 Q109.024 313.271 107.196 309.729 Q105.39 306.165 101.756 306.165 M101.756 302.461 Q107.566 302.461 110.621 307.067 Q113.7 311.651 113.7 320.401 Q113.7 329.127 110.621 333.734 Q107.566 338.317 101.756 338.317 Q95.9456 338.317 92.8669 333.734 Q89.8114 329.127 89.8114 320.401 Q89.8114 311.651 92.8669 307.067 Q95.9456 302.461 101.756 302.461 Z" fill="#000000" fill-rule="evenodd" fill-opacity="1" /><path clip-path="url(#clip960)" d="M121.918 331.766 L126.802 331.766 L126.802 337.646 L121.918 337.646 L121.918 331.766 Z" fill="#000000" fill-rule="evenodd" fill-opacity="1" /><path clip-path="url(#clip960)" d="M137.033 303.086 L155.39 303.086 L155.39 307.021 L141.316 307.021 L141.316 315.493 Q142.334 315.146 143.353 314.984 Q144.371 314.799 145.39 314.799 Q151.177 314.799 154.556 317.97 Q157.936 321.141 157.936 326.558 Q157.936 332.137 154.464 335.239 Q150.992 338.317 144.672 338.317 Q142.496 338.317 140.228 337.947 Q137.982 337.577 135.575 336.836 L135.575 332.137 Q137.658 333.271 139.881 333.827 Q142.103 334.382 144.58 334.382 Q148.584 334.382 150.922 332.276 Q153.26 330.169 153.26 326.558 Q153.26 322.947 150.922 320.84 Q148.584 318.734 144.58 318.734 Q142.705 318.734 140.83 319.151 Q138.978 319.567 137.033 320.447 L137.033 303.086 Z" fill="#000000" fill-rule="evenodd" fill-opacity="1" /><path clip-path="url(#clip960)" d="M141.177 45.1402 Q141.177 49.731 137.775 53.9529 Q134.413 58.1748 128.921 60.7571 Q123.469 63.2984 117.608 63.2984 L103.344 63.2984 L98.1379 84.2849 Q98.0969 84.4079 97.9739 84.9408 Q97.851 85.4326 97.851 85.7196 Q97.851 86.7443 99.1216 86.9902 Q100.433 87.2362 103.344 87.2362 Q105.229 87.2362 105.516 87.5641 Q105.68 87.769 105.68 88.1379 Q105.68 88.7118 105.516 89.1217 Q105.352 89.4906 105.024 89.6136 Q104.737 89.7365 104.532 89.7775 Q104.327 89.8185 103.999 89.8185 Q103.139 89.8185 101.294 89.7365 Q99.4905 89.6545 98.5478 89.6545 L93.1782 89.5726 L82.521 89.8185 Q81.2503 89.8185 81.2503 88.7938 Q81.2503 88.015 81.5782 87.6871 Q81.9061 87.3182 82.275 87.2772 Q82.6439 87.2362 83.5867 87.2362 Q85.6362 87.2362 86.8658 87.1132 Q88.0955 86.9902 88.8743 86.8263 Q89.6941 86.6213 90.104 86.0475 Q90.5549 85.4736 90.7598 84.9818 Q90.9648 84.4489 91.2517 83.2602 L102.483 38.172 Q102.811 36.8194 102.811 36.6144 Q102.811 35.9176 102.401 35.6717 Q102.032 35.3847 100.966 35.2618 Q98.9167 35.0978 97.3591 35.0978 Q96.3344 35.0978 95.9245 35.0568 Q95.5556 35.0158 95.2277 34.8109 Q94.9407 34.565 94.9407 34.0731 Q94.9407 33.2943 95.2686 32.9664 Q95.6375 32.5975 96.0474 32.5565 Q96.4573 32.4745 97.4411 32.4745 L124.658 32.4745 Q132.487 32.4745 136.832 36.2045 Q141.177 39.9345 141.177 45.1402 M133.389 43.1317 Q133.389 35.0978 121.953 35.0978 L113.919 35.0978 Q111.254 35.0978 110.599 35.5897 Q109.943 36.0406 109.369 38.295 L103.671 61.126 L115.517 61.126 Q123.469 61.126 128.429 56.6582 Q130.683 54.6087 132.036 50.3458 Q133.389 46.0829 133.389 43.1317 Z" fill="#000000" fill-rule="evenodd" fill-opacity="1" /><path clip-path="url(#clip960)" d="M178.187 58.1748 Q178.187 60.3472 176.752 61.7408 Q175.358 63.1345 173.555 63.1345 Q171.997 63.1345 171.177 62.2327 Q170.358 61.331 170.358 60.1833 Q170.358 58.5437 171.628 57.191 Q172.899 55.8384 174.743 55.5515 Q173.391 54.5677 171.218 54.5677 Q167.652 54.5677 164.496 57.314 Q163.102 58.5847 161.586 60.9211 Q160.069 63.2165 159.782 64.2002 L157.118 75.1443 Q156.872 76.374 155.355 82.2765 Q153.88 88.1379 153.757 88.3839 Q153.347 89.5316 152.445 90.1464 Q151.543 90.7613 150.642 90.7613 Q149.617 90.7613 148.92 90.1464 Q148.223 89.5316 148.223 88.4659 Q148.223 88.3019 148.346 87.6871 Q148.469 87.0722 148.674 86.2114 Q148.879 85.3507 148.961 84.8588 L153.839 65.4709 Q154.741 61.9458 154.946 60.8391 Q155.192 59.6914 155.192 58.4207 Q155.192 56.2073 154.495 55.3875 Q153.798 54.5677 152.568 54.5677 Q150.437 54.5677 149.043 57.1091 Q147.65 59.6504 146.461 64.5691 Q146.092 65.9218 145.846 66.2087 Q145.641 66.4956 145.026 66.4956 Q144.001 66.4546 144.001 65.6348 Q144.001 65.4299 144.329 64.1182 Q144.657 62.7656 145.272 60.7981 Q145.928 58.7896 146.625 57.5189 Q147.035 56.6582 147.404 56.0843 Q147.772 55.5105 148.51 54.6087 Q149.248 53.7069 150.355 53.2151 Q151.462 52.7232 152.814 52.7232 Q155.765 52.7232 157.856 54.5267 Q159.987 56.3303 160.479 59.1585 Q161.504 57.6829 162.775 56.4122 Q164.045 55.1006 166.382 53.9119 Q168.718 52.7232 171.218 52.7232 Q174.334 52.7232 176.26 54.3218 Q178.187 55.8794 178.187 58.1748 Z" fill="#000000" fill-rule="evenodd" fill-opacity="1" /><path clip-path="url(#clip960)" d="M220.412 66.9055 Q220.412 71.3733 218.445 75.8002 Q216.477 80.186 213.321 83.4652 Q210.206 86.7033 206.107 88.7528 Q202.008 90.7613 197.909 90.7613 Q192.048 90.7613 188.236 86.7853 Q184.465 82.7683 184.465 76.538 Q184.465 70.7175 187.703 65.1839 Q190.982 59.6094 196.228 56.1663 Q201.475 52.7232 206.968 52.7232 Q212.747 52.7232 216.559 56.6172 Q220.412 60.5112 220.412 66.9055 M214.264 63.6264 Q214.264 59.6504 212.337 57.1091 Q210.411 54.5677 206.886 54.5677 Q205.861 54.5677 204.672 54.8956 Q203.484 55.1826 201.926 55.9614 Q200.409 56.7402 198.688 58.3797 Q197.007 59.9783 195.532 62.2737 Q193.605 65.3069 192.13 70.8815 Q190.695 76.415 190.695 79.7351 Q190.695 84.3259 192.826 86.6213 Q194.958 88.8757 197.991 88.8757 Q200.942 88.8757 204.057 86.8263 Q207.214 84.7358 209.386 81.1698 Q211.558 77.4807 212.911 72.0701 Q214.264 66.6186 214.264 63.6264 Z" fill="#000000" fill-rule="evenodd" fill-opacity="1" /><path clip-path="url(#clip960)" d="M255.682 66.1267 Q255.682 72.0292 252.69 77.8086 Q249.739 83.5471 244.984 87.1542 Q240.27 90.7613 235.434 90.7613 Q230.72 90.7613 227.728 87.1542 Q224.776 83.5062 224.776 77.5627 Q224.776 75.4723 225.022 73.9966 Q225.268 72.521 226.129 69.0779 L233.015 41.6971 Q234.204 36.5734 234.204 36.5324 Q234.204 36.0406 233.999 35.7946 Q233.835 35.5077 232.851 35.3028 Q231.868 35.0978 229.982 35.0978 Q229.203 35.0978 228.834 35.0568 Q228.506 35.0158 228.22 34.8109 Q227.974 34.565 227.974 34.0731 Q227.974 33.3763 228.26 33.0074 Q228.588 32.5975 228.834 32.5155 Q229.08 32.4335 229.572 32.3925 Q230.269 32.3515 232.605 32.1466 Q234.942 31.9007 236.95 31.7367 Q238.959 31.5727 239.819 31.5727 Q240.311 31.5727 240.557 31.8187 Q240.844 32.0236 240.844 32.2696 L240.885 32.4745 L234.696 57.7649 Q239.574 52.7232 244.533 52.7232 Q249.493 52.7232 252.567 56.5352 Q255.682 60.3472 255.682 66.1267 M249.616 62.4377 Q249.616 58.5437 248.14 56.5762 Q246.706 54.5677 244.328 54.5677 Q242.32 54.5677 239.696 56.0843 Q237.073 57.6009 234.286 61.29 Q233.753 61.9868 233.548 62.3967 Q233.384 62.8066 233.015 64.2002 L231.171 71.9472 Q229.818 77.2348 229.818 80.432 Q229.818 84.7768 231.417 86.8263 Q233.015 88.8757 235.434 88.8757 Q237.975 88.8757 240.639 86.6213 Q243.304 84.3669 245.353 80.268 Q246.624 77.5627 248.099 71.7422 Q249.616 65.8808 249.616 62.4377 Z" fill="#000000" fill-rule="evenodd" fill-opacity="1" /><path clip-path="url(#clip960)" d="M278.037 32.4745 L265.945 81.0058 Q265.453 82.9323 265.453 85.0228 Q265.453 88.8757 267.995 88.8757 Q269.183 88.8757 270.167 88.097 Q271.151 87.2772 271.889 85.6786 Q272.667 84.039 273.159 82.4814 Q273.692 80.9238 274.348 78.5055 Q274.553 77.5627 274.758 77.2758 Q274.963 76.9889 275.537 76.9889 Q276.561 76.9889 276.561 77.8086 Q275.537 82.8503 274.02 86.0475 Q271.807 90.7613 267.708 90.7613 Q264.634 90.7613 262.338 88.6298 Q260.084 86.4574 260.084 83.0143 Q260.084 81.7026 260.494 80.145 L271.069 38.172 L271.356 36.5324 Q271.356 36.0816 271.192 35.8356 Q271.028 35.5897 270.044 35.3437 Q269.101 35.0978 267.216 35.0978 Q266.437 35.0978 266.068 35.0568 Q265.74 35.0158 265.412 34.8109 Q265.125 34.6059 265.125 34.1551 Q265.125 33.4173 265.412 33.0074 Q265.74 32.5975 265.986 32.5155 Q266.232 32.4335 266.724 32.3925 Q267.421 32.3515 269.757 32.1466 Q272.094 31.9007 274.102 31.7367 Q276.111 31.5727 276.971 31.5727 Q277.463 31.5727 277.709 31.8187 Q277.996 32.0236 278.037 32.2696 L278.037 32.4745 Z" fill="#000000" fill-rule="evenodd" fill-opacity="1" /><path clip-path="url(#clip960)" d="M317.786 80.104 Q318.114 80.4729 318.114 80.8418 Q318.114 81.2108 317.294 82.2765 Q316.515 83.3422 314.835 84.7768 Q313.154 86.2114 310.982 87.5641 Q308.809 88.9167 305.612 89.8185 Q302.415 90.7613 299.054 90.7613 Q293.028 90.7613 289.421 86.4574 Q285.855 82.1535 285.855 75.5542 Q285.855 71.3323 287.249 67.6023 Q288.643 63.8313 290.897 61.167 Q293.192 58.5027 296.062 56.5762 Q298.972 54.6087 302.005 53.666 Q305.038 52.7232 307.867 52.7232 Q312.006 52.7232 314.425 54.8137 Q316.843 56.9041 316.843 59.8553 Q316.843 60.5522 316.638 61.4129 Q316.474 62.2737 315.9 63.6264 Q315.368 64.979 313.974 66.3316 Q312.58 67.6433 310.531 68.5041 Q305.981 70.4306 297.701 70.4306 L293.233 70.4306 Q291.922 75.7182 291.922 79.1613 Q291.922 80.5139 292.168 81.9076 Q292.414 83.2602 293.069 84.9818 Q293.766 86.7033 295.324 87.81 Q296.922 88.8757 299.218 88.8757 Q299.956 88.8757 300.734 88.8348 Q301.554 88.7938 303.604 88.3429 Q305.694 87.892 307.539 87.1132 Q309.383 86.3344 311.719 84.6539 Q314.097 82.9323 315.982 80.5959 Q316.638 79.7351 317.089 79.7351 Q317.458 79.7351 317.786 80.104 M314.056 59.8553 Q314.056 57.6009 312.375 56.0843 Q310.736 54.5677 307.867 54.5677 Q306.965 54.5677 305.858 54.7727 Q304.751 54.9776 302.907 55.8384 Q301.103 56.6992 299.505 58.1338 Q297.906 59.5274 296.308 62.2737 Q294.709 64.979 293.766 68.5861 L297.209 68.5861 Q298.398 68.5861 299.259 68.5861 Q300.12 68.5451 302.005 68.3811 Q303.932 68.2172 305.325 67.9302 Q306.719 67.6023 308.481 66.9465 Q310.244 66.2907 311.351 65.4299 Q312.498 64.5281 313.277 63.0935 Q314.056 61.6589 314.056 59.8553 Z" fill="#000000" fill-rule="evenodd" fill-opacity="1" /><path clip-path="url(#clip960)" d="M391.684 77.8086 Q391.684 78.1366 391.315 79.4072 Q390.946 80.6779 390.044 82.6454 Q389.184 84.6129 387.954 86.4164 Q386.765 88.1789 384.798 89.4906 Q382.871 90.7613 380.658 90.7613 Q377.707 90.7613 375.739 88.7938 Q373.772 86.8263 373.772 83.8751 Q373.772 82.2765 374.878 79.2433 Q380.084 65.3889 380.084 60.4292 Q380.084 54.5677 375.534 54.5677 Q372.952 54.5677 370.615 55.6334 Q368.279 56.6992 366.762 58.1748 Q365.246 59.6504 364.057 61.331 Q362.868 63.0115 362.336 64.1182 Q361.844 65.2249 361.721 65.7168 L356.679 85.9655 Q356.269 87.6871 355.982 88.5068 Q355.695 89.3266 354.916 90.0234 Q354.138 90.7613 352.908 90.7613 Q351.883 90.7613 351.145 90.1464 Q350.449 89.5316 350.449 88.4659 Q350.449 88.3019 350.654 87.4411 Q350.859 86.5803 351.145 85.3917 Q351.432 84.203 351.555 83.5062 Q353.031 77.9316 353.236 77.1528 L355.572 67.3974 Q356.843 62.5606 356.843 60.4292 Q356.843 54.5677 352.293 54.5677 Q350.039 54.5677 347.907 55.4285 Q345.817 56.2483 344.382 57.396 Q342.948 58.5437 341.636 60.1423 Q340.365 61.6999 339.709 62.7656 Q339.095 63.7903 338.603 64.815 L337.537 68.9959 Q337.291 70.1436 336.102 74.6115 L334.258 82.1945 Q332.946 87.851 332.659 88.3839 Q332.249 89.5316 331.348 90.1464 Q330.446 90.7613 329.544 90.7613 Q328.519 90.7613 327.823 90.1464 Q327.126 89.5316 327.126 88.4659 Q327.126 88.3019 327.249 87.6871 Q327.372 87.0722 327.577 86.2114 Q327.782 85.3507 327.864 84.8588 L332.741 65.4709 Q333.643 61.9458 333.848 60.8391 Q334.094 59.6914 334.094 58.4207 Q334.094 54.5677 331.471 54.5677 Q329.339 54.5677 327.946 57.1091 Q326.552 59.6504 325.363 64.5691 Q324.994 65.9218 324.748 66.2087 Q324.543 66.4956 323.929 66.4956 Q322.904 66.4546 322.904 65.6348 Q322.904 65.4299 323.232 64.1182 Q323.56 62.8066 324.175 60.8391 Q324.83 58.8306 325.527 57.5189 Q325.937 56.6582 326.306 56.0843 Q326.675 55.5105 327.413 54.6087 Q328.15 53.7069 329.257 53.2151 Q330.364 52.7232 331.717 52.7232 Q334.709 52.7232 336.922 54.6497 Q339.177 56.5762 339.464 60.0193 Q344.915 52.7232 352.539 52.7232 Q356.843 52.7232 359.425 54.8956 Q361.844 56.9861 362.131 60.8391 Q367.787 52.7232 375.821 52.7232 Q380.453 52.7232 382.953 55.1416 Q385.453 57.5189 385.453 61.6999 Q385.453 63.8723 384.347 68.0122 Q383.24 72.1111 382.502 74.1606 Q381.764 76.2101 380.33 80.145 Q378.813 83.916 378.813 86.1295 Q378.813 87.5641 379.305 88.2199 Q379.797 88.8757 380.863 88.8757 Q382.502 88.8757 383.937 87.933 Q385.372 86.9493 386.396 85.3507 Q387.462 83.7111 388.159 82.0715 Q388.856 80.391 389.388 78.5055 Q389.716 77.4807 389.88 77.2348 Q390.085 76.9889 390.659 76.9889 Q391.684 76.9889 391.684 77.8086 Z" fill="#000000" fill-rule="evenodd" fill-opacity="1" /><path clip-path="url(#clip960)" d="M418.077 41.902 L418.077 39.2787 Q428.16 39.2787 433.366 33.9091 Q434.8 33.9091 435.046 34.237 Q435.292 34.565 435.292 36.0816 L435.292 83.1782 Q435.292 85.6786 436.522 86.4574 Q437.752 87.2362 443.121 87.2362 L445.785 87.2362 L445.785 89.8185 Q442.834 89.5726 432.177 89.5726 Q421.52 89.5726 418.61 89.8185 L418.61 87.2362 L421.274 87.2362 Q426.561 87.2362 427.832 86.4984 Q429.103 85.7196 429.103 83.1782 L429.103 39.6886 Q424.717 41.902 418.077 41.902 Z" fill="#000000" fill-rule="evenodd" fill-opacity="1" /><path clip-path="url(#clip960)" d="M452.418 88.4659 Q451.147 87.1132 451.147 85.3507 Q451.147 83.5881 452.418 82.3175 Q453.688 81.0058 455.615 81.0058 Q457.459 81.0058 458.689 82.2355 Q459.96 83.4242 459.96 85.3917 Q459.96 87.3182 458.607 88.5888 Q457.295 89.8185 455.615 89.8185 Q453.688 89.8185 452.418 88.4659 Z" fill="#000000" fill-rule="evenodd" fill-opacity="1" /><path clip-path="url(#clip960)" d="M465.746 41.902 L465.746 39.2787 Q475.829 39.2787 481.035 33.9091 Q482.47 33.9091 482.716 34.237 Q482.962 34.565 482.962 36.0816 L482.962 83.1782 Q482.962 85.6786 484.191 86.4574 Q485.421 87.2362 490.791 87.2362 L493.455 87.2362 L493.455 89.8185 Q490.504 89.5726 479.846 89.5726 Q469.189 89.5726 466.279 89.8185 L466.279 87.2362 L468.943 87.2362 Q474.231 87.2362 475.502 86.4984 Q476.772 85.7196 476.772 83.1782 L476.772 39.6886 Q472.386 41.902 465.746 41.902 Z" fill="#000000" fill-rule="evenodd" fill-opacity="1" /><path clip-path="url(#clip960)" d="M531.919 88.5478 Q530.607 87.2362 530.607 85.3917 Q530.607 83.5471 531.919 82.2355 Q533.23 80.9238 535.075 80.9238 Q536.919 80.9238 538.231 82.2355 Q539.543 83.5471 539.543 85.3917 Q539.543 87.2362 538.231 88.5478 Q536.919 89.8185 535.075 89.8185 Q533.23 89.8185 531.919 88.5478 M531.919 61.249 Q530.607 59.9373 530.607 58.0928 Q530.607 56.2483 531.919 54.9366 Q533.23 53.625 535.075 53.625 Q536.919 53.625 538.231 54.9366 Q539.543 56.2483 539.543 58.0928 Q539.543 59.9373 538.231 61.249 Q536.919 62.5196 535.075 62.5196 Q533.23 62.5196 531.919 61.249 Z" fill="#000000" fill-rule="evenodd" fill-opacity="1" /><path clip-path="url(#clip960)" d="M640.947 36.4095 Q640.947 38.6639 639.512 40.0575 Q638.118 41.4512 636.356 41.4512 Q635.085 41.4512 634.142 40.6724 Q633.241 39.8936 633.241 38.5409 Q633.241 37.1473 634.306 35.6717 Q635.372 34.196 637.79 33.9911 Q636.192 32.4745 633.651 32.4745 Q632.38 32.4745 631.314 33.2943 Q630.289 34.0731 629.716 35.3437 Q629.101 36.6554 627.707 44.0745 Q627.256 46.4928 626.846 48.8292 Q626.436 51.1656 625.945 53.625 L632.913 53.625 Q633.815 53.625 634.183 53.666 Q634.552 53.7069 634.839 53.9119 Q635.167 54.1168 635.167 54.5677 Q635.167 55.7154 634.634 56.0023 Q634.142 56.2483 632.667 56.2483 L625.453 56.2483 L620.411 82.8503 Q620.288 83.6291 619.755 86.0885 Q619.263 88.5068 618.075 92.4828 Q616.886 96.4998 615.697 98.8771 Q615.041 100.23 614.181 101.5 Q613.361 102.812 612.172 104.124 Q610.983 105.435 609.426 106.214 Q607.868 107.034 606.229 107.034 Q603.441 107.034 601.269 105.476 Q599.097 103.919 599.097 101.255 Q599.097 99.0001 600.49 97.6065 Q601.925 96.2128 603.687 96.2128 Q604.958 96.2128 605.86 96.9916 Q606.803 97.7704 606.803 99.1231 Q606.803 99.6969 606.598 100.353 Q606.393 101.009 605.942 101.746 Q605.491 102.525 604.507 103.058 Q603.523 103.591 602.171 103.673 Q603.769 105.189 606.229 105.189 Q607.008 105.189 607.704 104.862 Q608.401 104.575 608.975 103.837 Q609.59 103.099 610.041 102.361 Q610.492 101.664 610.943 100.312 Q611.393 99.0001 611.68 98.0164 Q611.967 97.0326 612.336 95.2701 Q612.746 93.5075 612.951 92.4418 Q613.156 91.4171 613.525 89.4086 L619.796 56.2483 L614.263 56.2483 Q613.279 56.2483 612.869 56.2073 Q612.5 56.1663 612.213 55.9614 Q611.926 55.7154 611.926 55.2235 Q611.926 54.4448 612.254 54.1168 Q612.623 53.7479 613.033 53.7069 Q613.443 53.625 614.427 53.625 L620.247 53.625 Q622.215 43.2547 622.993 40.4674 Q623.895 37.5162 625.289 35.4667 Q626.682 33.3763 628.24 32.3925 Q629.798 31.4088 631.068 31.0399 Q632.38 30.63 633.651 30.63 Q636.52 30.63 638.733 32.1876 Q640.947 33.7042 640.947 36.4095 Z" fill="#000000" fill-rule="evenodd" fill-opacity="1" /><path clip-path="url(#clip960)" d="M652.246 68.832 Q652.246 54.6497 657.534 43.2137 Q659.788 38.4179 662.945 34.401 Q666.101 30.384 668.191 28.6215 Q670.282 26.859 670.856 26.859 Q671.675 26.859 671.716 27.6788 Q671.716 28.0886 670.61 29.1134 Q657.083 42.8858 657.124 68.832 Q657.124 94.8602 670.282 108.1 Q671.716 109.534 671.716 109.985 Q671.716 110.805 670.856 110.805 Q670.282 110.805 668.273 109.124 Q666.265 107.444 663.15 103.591 Q660.034 99.7379 657.78 95.0241 Q652.246 83.5881 652.246 68.832 Z" fill="#000000" fill-rule="evenodd" fill-opacity="1" /><path clip-path="url(#clip960)" d="M719.905 58.2568 Q719.905 60.5522 718.47 61.8638 Q717.035 63.1345 715.396 63.1345 Q713.838 63.1345 713.018 62.2327 Q712.199 61.331 712.199 60.1833 Q712.199 58.6257 713.346 57.273 Q714.494 55.9204 716.216 55.6334 Q714.535 54.5677 712.035 54.5677 Q710.395 54.5677 708.961 55.4285 Q707.567 56.2893 706.706 57.396 Q705.886 58.5027 705.149 60.1013 Q704.452 61.6589 704.165 62.6016 Q703.919 63.5034 703.714 64.4871 L700.845 75.9641 Q699.451 81.4157 699.451 83.3422 Q699.451 85.7196 700.599 87.3182 Q701.746 88.8757 704.042 88.8757 Q704.944 88.8757 705.968 88.6298 Q706.993 88.3429 708.305 87.6051 Q709.657 86.8263 710.846 85.6786 Q712.076 84.4899 713.264 82.4814 Q714.453 80.4729 715.232 77.8906 Q715.478 76.9889 716.298 76.9889 Q717.322 76.9889 717.322 77.8086 Q717.322 78.5055 716.749 79.9811 Q716.216 81.4157 715.027 83.3012 Q713.879 85.1457 712.363 86.8263 Q710.846 88.4659 708.592 89.6136 Q706.337 90.7613 703.878 90.7613 Q700.353 90.7613 698.016 88.8757 Q695.68 86.9902 694.819 84.3669 Q694.614 84.7358 694.327 85.2277 Q694.04 85.7196 693.18 86.8263 Q692.36 87.892 691.417 88.7118 Q690.474 89.4906 688.999 90.1054 Q687.564 90.7613 686.007 90.7613 Q684.039 90.7613 682.277 90.1874 Q680.555 89.6136 679.325 88.3019 Q678.096 86.9902 678.096 85.1867 Q678.096 83.1782 679.448 81.7846 Q680.842 80.35 682.727 80.35 Q683.916 80.35 684.859 81.0468 Q685.843 81.7436 685.843 83.2602 Q685.843 84.9408 684.695 86.2114 Q683.547 87.4821 681.908 87.81 Q683.588 88.8757 686.089 88.8757 Q688.794 88.8757 690.925 86.4984 Q693.057 84.121 694.081 80.145 Q696.623 70.5945 697.607 66.3316 Q698.59 62.0278 698.59 60.1833 Q698.59 58.4617 698.139 57.273 Q697.688 56.0843 696.91 55.5515 Q696.172 54.9776 695.475 54.7727 Q694.819 54.5677 694.081 54.5677 Q692.852 54.5677 691.458 55.0596 Q690.105 55.5515 688.466 56.6992 Q686.867 57.8059 685.351 60.1013 Q683.834 62.3967 682.809 65.5528 Q682.604 66.4956 681.703 66.4956 Q680.719 66.4546 680.719 65.6348 Q680.719 64.938 681.252 63.5034 Q681.826 62.0278 682.973 60.1833 Q684.162 58.3387 685.679 56.6992 Q687.236 55.0186 689.491 53.8709 Q691.786 52.7232 694.245 52.7232 Q695.352 52.7232 696.418 52.9691 Q697.525 53.1741 698.836 53.7889 Q700.189 54.4038 701.378 55.7564 Q702.566 57.1091 703.304 59.0765 Q703.796 58.1338 704.452 57.232 Q705.149 56.3303 706.214 55.2235 Q707.321 54.0758 708.838 53.42 Q710.395 52.7232 712.117 52.7232 Q713.797 52.7232 715.437 53.1741 Q717.076 53.584 718.47 54.9366 Q719.905 56.2483 719.905 58.2568 Z" fill="#000000" fill-rule="evenodd" fill-opacity="1" /><path clip-path="url(#clip960)" d="M727.986 109.985 Q727.986 109.575 729.051 108.551 Q742.578 94.7782 742.578 68.832 Q742.578 42.8038 729.584 29.6462 Q727.986 28.1296 727.986 27.6788 Q727.986 26.859 728.805 26.859 Q729.379 26.859 731.388 28.5395 Q733.437 30.2201 736.511 34.0731 Q739.626 37.9261 741.922 42.6398 Q747.455 54.0758 747.455 68.832 Q747.455 83.0143 742.168 94.4503 Q739.913 99.246 736.757 103.263 Q733.601 107.28 731.511 109.042 Q729.42 110.805 728.805 110.805 Q727.986 110.805 727.986 109.985 Z" fill="#000000" fill-rule="evenodd" fill-opacity="1" /><path clip-path="url(#clip960)" d="M783.509 77.0708 Q783.591 76.0461 785.19 76.0461 L836.631 76.0461 Q839.05 76.0461 839.091 76.9889 Q839.091 78.0136 836.795 77.9726 L785.764 77.9726 Q783.509 78.0136 783.509 77.0708 M783.509 60.6751 Q783.509 59.6504 785.272 59.6914 L836.549 59.6914 Q839.05 59.6914 839.091 60.6751 Q839.091 61.6179 836.959 61.6179 L785.19 61.6179 Q783.509 61.6179 783.509 60.6751 Z" fill="#000000" fill-rule="evenodd" fill-opacity="1" /><path clip-path="url(#clip960)" d="M876.798 85.2277 Q871.469 79.6532 871.469 71.7012 Q871.469 63.7083 876.716 57.9698 Q881.962 52.1903 889.668 52.1903 Q894.792 52.1903 898.645 54.6497 Q902.498 57.0681 902.498 61.208 Q902.498 63.0525 901.391 64.1182 Q900.326 65.143 898.645 65.143 Q896.883 65.143 895.817 64.0772 Q894.792 62.9705 894.792 61.29 Q894.792 60.5522 895.038 59.8143 Q895.284 59.0765 896.186 58.2977 Q897.129 57.5189 898.727 57.396 Q895.735 54.3218 889.914 54.3218 Q889.832 54.3218 889.75 54.3218 Q885.488 54.3218 881.962 58.3387 Q878.437 62.3557 878.437 71.5373 Q878.437 76.333 879.585 79.8581 Q880.774 83.3422 882.7 85.1457 Q884.627 86.9493 886.512 87.81 Q888.398 88.6298 890.242 88.6298 Q898.481 88.6298 901.268 79.8171 Q901.514 78.9973 902.334 78.9973 Q903.441 78.9973 903.441 79.8171 Q903.441 80.227 903.113 81.2927 Q902.785 82.3585 901.76 84.039 Q900.736 85.7196 899.26 87.1952 Q897.825 88.6298 895.243 89.6955 Q892.702 90.7613 889.505 90.7613 Q882.126 90.7613 876.798 85.2277 Z" fill="#000000" fill-rule="evenodd" fill-opacity="1" /><path clip-path="url(#clip960)" d="M913.233 85.3097 Q907.699 79.8171 907.699 71.8652 Q907.699 63.8723 913.11 58.0518 Q918.561 52.1903 926.349 52.1903 Q933.973 52.1903 939.425 58.0108 Q944.917 63.7903 944.917 71.8652 Q944.917 79.7761 939.384 85.2687 Q933.891 90.7613 926.267 90.7613 Q918.807 90.7613 913.233 85.3097 M914.667 71.1684 Q914.667 79.3252 916.799 83.0143 Q920.078 88.6298 926.349 88.6298 Q929.464 88.6298 932.047 86.9493 Q934.67 85.2687 936.105 82.4404 Q937.949 78.7514 937.949 71.1684 Q937.949 63.0935 935.736 59.5274 Q932.457 54.0758 926.267 54.0758 Q923.562 54.0758 920.898 55.5105 Q918.274 56.9041 916.676 59.6914 Q914.667 63.3804 914.667 71.1684 Z" fill="#000000" fill-rule="evenodd" fill-opacity="1" /><path clip-path="url(#clip960)" d="M949.269 88.7118 L949.269 77.6447 Q949.269 76.7019 949.31 76.374 Q949.351 76.0461 949.597 75.8002 Q949.843 75.5542 950.335 75.5542 Q950.909 75.5542 951.114 75.8002 Q951.36 76.0461 951.524 76.9889 Q952.794 82.7683 955.5 85.8425 Q958.246 88.8757 963.206 88.8757 Q967.919 88.8757 970.297 86.7853 Q972.674 84.6948 972.674 81.2517 Q972.674 75.1033 963.943 73.5458 Q958.902 72.521 956.811 71.8652 Q954.721 71.1684 952.876 69.6518 Q949.269 66.7005 949.269 62.5196 Q949.269 58.3387 952.425 55.2645 Q955.623 52.1903 962.673 52.1903 Q967.387 52.1903 970.584 54.5677 Q971.526 53.8299 972.018 53.2151 Q973.125 52.1903 973.699 52.1903 Q974.355 52.1903 974.478 52.6412 Q974.601 53.0511 974.601 54.2398 L974.601 62.6836 Q974.601 63.6264 974.56 63.9543 Q974.519 64.2822 974.273 64.5281 Q974.027 64.7331 973.494 64.7331 Q972.551 64.7331 972.51 63.9543 Q971.854 53.7889 962.673 53.7889 Q957.713 53.7889 955.5 55.7154 Q953.286 57.6009 953.286 60.1833 Q953.286 61.6179 953.942 62.7246 Q954.639 63.7903 955.5 64.4461 Q956.401 65.061 958.041 65.6758 Q959.681 66.2497 960.664 66.4546 Q961.689 66.6596 963.616 67.0695 Q970.338 68.3401 973.166 71.0864 Q976.691 74.6115 976.691 79.0793 Q976.691 84.039 973.33 87.4001 Q969.969 90.7613 963.206 90.7613 Q957.754 90.7613 953.942 87.1132 Q953.45 87.6051 953.081 88.056 Q952.712 88.4659 952.548 88.6298 Q952.425 88.7938 952.384 88.9167 Q952.343 88.9987 952.262 89.0807 Q950.581 90.7613 950.171 90.7613 Q949.515 90.7613 949.392 90.3104 Q949.269 89.9005 949.269 88.7118 Z" fill="#000000" fill-rule="evenodd" fill-opacity="1" /><path clip-path="url(#clip960)" d="M1023.8 58.2568 Q1023.8 60.5522 1022.36 61.8638 Q1020.93 63.1345 1019.29 63.1345 Q1017.73 63.1345 1016.91 62.2327 Q1016.09 61.331 1016.09 60.1833 Q1016.09 58.6257 1017.24 57.273 Q1018.39 55.9204 1020.11 55.6334 Q1018.43 54.5677 1015.93 54.5677 Q1014.29 54.5677 1012.85 55.4285 Q1011.46 56.2893 1010.6 57.396 Q1009.78 58.5027 1009.04 60.1013 Q1008.35 61.6589 1008.06 62.6016 Q1007.81 63.5034 1007.61 64.4871 L1004.74 75.9641 Q1003.35 81.4157 1003.35 83.3422 Q1003.35 85.7196 1004.49 87.3182 Q1005.64 88.8757 1007.94 88.8757 Q1008.84 88.8757 1009.86 88.6298 Q1010.89 88.3429 1012.2 87.6051 Q1013.55 86.8263 1014.74 85.6786 Q1015.97 84.4899 1017.16 82.4814 Q1018.35 80.4729 1019.13 77.8906 Q1019.37 76.9889 1020.19 76.9889 Q1021.22 76.9889 1021.22 77.8086 Q1021.22 78.5055 1020.64 79.9811 Q1020.11 81.4157 1018.92 83.3012 Q1017.77 85.1457 1016.26 86.8263 Q1014.74 88.4659 1012.49 89.6136 Q1010.23 90.7613 1007.77 90.7613 Q1004.25 90.7613 1001.91 88.8757 Q999.574 86.9902 998.713 84.3669 Q998.508 84.7358 998.221 85.2277 Q997.935 85.7196 997.074 86.8263 Q996.254 87.892 995.311 88.7118 Q994.368 89.4906 992.893 90.1054 Q991.458 90.7613 989.901 90.7613 Q987.933 90.7613 986.171 90.1874 Q984.449 89.6136 983.219 88.3019 Q981.99 86.9902 981.99 85.1867 Q981.99 83.1782 983.342 81.7846 Q984.736 80.35 986.621 80.35 Q987.81 80.35 988.753 81.0468 Q989.737 81.7436 989.737 83.2602 Q989.737 84.9408 988.589 86.2114 Q987.441 87.4821 985.802 87.81 Q987.482 88.8757 989.983 88.8757 Q992.688 88.8757 994.819 86.4984 Q996.951 84.121 997.975 80.145 Q1000.52 70.5945 1001.5 66.3316 Q1002.48 62.0278 1002.48 60.1833 Q1002.48 58.4617 1002.03 57.273 Q1001.58 56.0843 1000.8 55.5515 Q1000.07 54.9776 999.369 54.7727 Q998.713 54.5677 997.975 54.5677 Q996.746 54.5677 995.352 55.0596 Q994 55.5515 992.36 56.6992 Q990.761 57.8059 989.245 60.1013 Q987.728 62.3967 986.703 65.5528 Q986.499 66.4956 985.597 66.4956 Q984.613 66.4546 984.613 65.6348 Q984.613 64.938 985.146 63.5034 Q985.72 62.0278 986.867 60.1833 Q988.056 58.3387 989.573 56.6992 Q991.13 55.0186 993.385 53.8709 Q995.68 52.7232 998.139 52.7232 Q999.246 52.7232 1000.31 52.9691 Q1001.42 53.1741 1002.73 53.7889 Q1004.08 54.4038 1005.27 55.7564 Q1006.46 57.1091 1007.2 59.0765 Q1007.69 58.1338 1008.35 57.232 Q1009.04 56.3303 1010.11 55.2235 Q1011.22 54.0758 1012.73 53.42 Q1014.29 52.7232 1016.01 52.7232 Q1017.69 52.7232 1019.33 53.1741 Q1020.97 53.584 1022.36 54.9366 Q1023.8 56.2483 1023.8 58.2568 Z" fill="#000000" fill-rule="evenodd" fill-opacity="1" /><path clip-path="url(#clip960)" d="M1108.24 67.6433 Q1108.73 68.1352 1108.73 68.832 Q1108.73 69.5288 1108.24 70.0207 Q1107.74 70.5126 1107.05 70.5126 L1054.5 70.5126 Q1053.8 70.5126 1053.31 70.0207 Q1052.82 69.5288 1052.82 68.832 Q1052.82 68.1352 1053.31 67.6433 Q1053.8 67.1514 1054.5 67.1514 L1107.05 67.1514 Q1107.74 67.1514 1108.24 67.6433 Z" fill="#000000" fill-rule="evenodd" fill-opacity="1" /><path clip-path="url(#clip960)" d="M1182.59 58.2568 Q1182.59 60.5522 1181.15 61.8638 Q1179.72 63.1345 1178.08 63.1345 Q1176.52 63.1345 1175.7 62.2327 Q1174.88 61.331 1174.88 60.1833 Q1174.88 58.6257 1176.03 57.273 Q1177.18 55.9204 1178.9 55.6334 Q1177.22 54.5677 1174.72 54.5677 Q1173.08 54.5677 1171.64 55.4285 Q1170.25 56.2893 1169.39 57.396 Q1168.57 58.5027 1167.83 60.1013 Q1167.13 61.6589 1166.85 62.6016 Q1166.6 63.5034 1166.4 64.4871 L1163.53 75.9641 Q1162.13 81.4157 1162.13 83.3422 Q1162.13 85.7196 1163.28 87.3182 Q1164.43 88.8757 1166.72 88.8757 Q1167.63 88.8757 1168.65 88.6298 Q1169.68 88.3429 1170.99 87.6051 Q1172.34 86.8263 1173.53 85.6786 Q1174.76 84.4899 1175.95 82.4814 Q1177.14 80.4729 1177.91 77.8906 Q1178.16 76.9889 1178.98 76.9889 Q1180 76.9889 1180 77.8086 Q1180 78.5055 1179.43 79.9811 Q1178.9 81.4157 1177.71 83.3012 Q1176.56 85.1457 1175.05 86.8263 Q1173.53 88.4659 1171.27 89.6136 Q1169.02 90.7613 1166.56 90.7613 Q1163.04 90.7613 1160.7 88.8757 Q1158.36 86.9902 1157.5 84.3669 Q1157.3 84.7358 1157.01 85.2277 Q1156.72 85.7196 1155.86 86.8263 Q1155.04 87.892 1154.1 88.7118 Q1153.16 89.4906 1151.68 90.1054 Q1150.25 90.7613 1148.69 90.7613 Q1146.72 90.7613 1144.96 90.1874 Q1143.24 89.6136 1142.01 88.3019 Q1140.78 86.9902 1140.78 85.1867 Q1140.78 83.1782 1142.13 81.7846 Q1143.52 80.35 1145.41 80.35 Q1146.6 80.35 1147.54 81.0468 Q1148.53 81.7436 1148.53 83.2602 Q1148.53 84.9408 1147.38 86.2114 Q1146.23 87.4821 1144.59 87.81 Q1146.27 88.8757 1148.77 88.8757 Q1151.48 88.8757 1153.61 86.4984 Q1155.74 84.121 1156.76 80.145 Q1159.31 70.5945 1160.29 66.3316 Q1161.27 62.0278 1161.27 60.1833 Q1161.27 58.4617 1160.82 57.273 Q1160.37 56.0843 1159.59 55.5515 Q1158.85 54.9776 1158.16 54.7727 Q1157.5 54.5677 1156.76 54.5677 Q1155.53 54.5677 1154.14 55.0596 Q1152.79 55.5515 1151.15 56.6992 Q1149.55 57.8059 1148.03 60.1013 Q1146.52 62.3967 1145.49 65.5528 Q1145.29 66.4956 1144.39 66.4956 Q1143.4 66.4546 1143.4 65.6348 Q1143.4 64.938 1143.93 63.5034 Q1144.51 62.0278 1145.66 60.1833 Q1146.84 58.3387 1148.36 56.6992 Q1149.92 55.0186 1152.17 53.8709 Q1154.47 52.7232 1156.93 52.7232 Q1158.03 52.7232 1159.1 52.9691 Q1160.21 53.1741 1161.52 53.7889 Q1162.87 54.4038 1164.06 55.7564 Q1165.25 57.1091 1165.99 59.0765 Q1166.48 58.1338 1167.13 57.232 Q1167.83 56.3303 1168.9 55.2235 Q1170 54.0758 1171.52 53.42 Q1173.08 52.7232 1174.8 52.7232 Q1176.48 52.7232 1178.12 53.1741 Q1179.76 53.584 1181.15 54.9366 Q1182.59 56.2483 1182.59 58.2568 Z" fill="#000000" fill-rule="evenodd" fill-opacity="1" /><path clip-path="url(#clip960)" d="M1211.61 77.0708 Q1211.69 76.0461 1213.29 76.0461 L1264.73 76.0461 Q1267.15 76.0461 1267.19 76.9889 Q1267.19 78.0136 1264.89 77.9726 L1213.86 77.9726 Q1211.61 78.0136 1211.61 77.0708 M1211.61 60.6751 Q1211.61 59.6504 1213.37 59.6914 L1264.65 59.6914 Q1267.15 59.6914 1267.19 60.6751 Q1267.19 61.6179 1265.06 61.6179 L1213.29 61.6179 Q1211.61 61.6179 1211.61 60.6751 Z" fill="#000000" fill-rule="evenodd" fill-opacity="1" /><path clip-path="url(#clip960)" d="M1299.57 62.9705 Q1299.57 50.6328 1302.68 43.9105 Q1307.03 33.9091 1317.27 33.9091 Q1319.45 33.9091 1321.7 34.524 Q1324 35.0978 1326.87 37.3522 Q1329.78 39.6066 1331.54 43.2957 Q1334.9 50.4278 1334.9 62.9705 Q1334.9 75.2263 1331.78 81.9076 Q1327.23 91.663 1317.19 91.663 Q1313.42 91.663 1309.57 89.7365 Q1305.76 87.81 1303.34 83.1782 Q1299.57 76.251 1299.57 62.9705 M1306.53 61.9458 Q1306.53 74.6115 1307.44 79.6532 Q1308.46 85.1047 1311.25 87.4821 Q1314.08 89.8185 1317.19 89.8185 Q1320.55 89.8185 1323.34 87.3182 Q1326.17 84.7768 1327.03 79.3252 Q1327.97 73.9556 1327.93 61.9458 Q1327.93 50.2638 1327.11 45.5911 Q1326 40.1395 1323.05 37.9671 Q1320.14 35.7536 1317.19 35.7536 Q1316.09 35.7536 1314.9 36.0816 Q1313.75 36.4095 1312.07 37.3522 Q1310.39 38.295 1309.08 40.6314 Q1307.81 42.9678 1307.19 46.4928 Q1306.53 51.0426 1306.53 61.9458 Z" fill="#000000" fill-rule="evenodd" fill-opacity="1" /><path clip-path="url(#clip960)" d="M1342.33 88.4659 Q1341.14 87.1132 1341.14 85.3507 Q1341.14 83.5881 1342.28 82.2765 Q1343.47 80.9238 1345.6 80.9238 Q1348.1 80.9238 1349.54 83.3422 Q1350.97 85.7196 1350.97 89.7365 Q1350.97 94.0814 1349.21 98.0983 Q1347.45 102.156 1345.73 104.083 Q1344.01 106.009 1343.31 106.009 Q1342.49 106.009 1342.49 105.108 Q1342.49 104.78 1343.06 104.165 Q1349.09 97.6884 1349.13 89.7365 Q1349.13 88.4659 1348.97 88.4659 L1348.76 88.6298 Q1347.33 89.8185 1345.6 89.8185 Q1343.51 89.8185 1342.33 88.4659 Z" fill="#000000" fill-rule="evenodd" fill-opacity="1" /><path clip-path="url(#clip960)" d="M1508 58.2568 Q1508 60.5522 1506.56 61.8638 Q1505.13 63.1345 1503.49 63.1345 Q1501.93 63.1345 1501.11 62.2327 Q1500.29 61.331 1500.29 60.1833 Q1500.29 58.6257 1501.44 57.273 Q1502.59 55.9204 1504.31 55.6334 Q1502.63 54.5677 1500.13 54.5677 Q1498.49 54.5677 1497.05 55.4285 Q1495.66 56.2893 1494.8 57.396 Q1493.98 58.5027 1493.24 60.1013 Q1492.54 61.6589 1492.26 62.6016 Q1492.01 63.5034 1491.81 64.4871 L1488.94 75.9641 Q1487.54 81.4157 1487.54 83.3422 Q1487.54 85.7196 1488.69 87.3182 Q1489.84 88.8757 1492.13 88.8757 Q1493.04 88.8757 1494.06 88.6298 Q1495.09 88.3429 1496.4 87.6051 Q1497.75 86.8263 1498.94 85.6786 Q1500.17 84.4899 1501.36 82.4814 Q1502.55 80.4729 1503.32 77.8906 Q1503.57 76.9889 1504.39 76.9889 Q1505.42 76.9889 1505.42 77.8086 Q1505.42 78.5055 1504.84 79.9811 Q1504.31 81.4157 1503.12 83.3012 Q1501.97 85.1457 1500.46 86.8263 Q1498.94 88.4659 1496.68 89.6136 Q1494.43 90.7613 1491.97 90.7613 Q1488.45 90.7613 1486.11 88.8757 Q1483.77 86.9902 1482.91 84.3669 Q1482.71 84.7358 1482.42 85.2277 Q1482.13 85.7196 1481.27 86.8263 Q1480.45 87.892 1479.51 88.7118 Q1478.57 89.4906 1477.09 90.1054 Q1475.66 90.7613 1474.1 90.7613 Q1472.13 90.7613 1470.37 90.1874 Q1468.65 89.6136 1467.42 88.3019 Q1466.19 86.9902 1466.19 85.1867 Q1466.19 83.1782 1467.54 81.7846 Q1468.93 80.35 1470.82 80.35 Q1472.01 80.35 1472.95 81.0468 Q1473.94 81.7436 1473.94 83.2602 Q1473.94 84.9408 1472.79 86.2114 Q1471.64 87.4821 1470 87.81 Q1471.68 88.8757 1474.18 88.8757 Q1476.89 88.8757 1479.02 86.4984 Q1481.15 84.121 1482.17 80.145 Q1484.72 70.5945 1485.7 66.3316 Q1486.68 62.0278 1486.68 60.1833 Q1486.68 58.4617 1486.23 57.273 Q1485.78 56.0843 1485 55.5515 Q1484.26 54.9776 1483.57 54.7727 Q1482.91 54.5677 1482.17 54.5677 Q1480.94 54.5677 1479.55 55.0596 Q1478.2 55.5515 1476.56 56.6992 Q1474.96 57.8059 1473.44 60.1013 Q1471.93 62.3967 1470.9 65.5528 Q1470.7 66.4956 1469.8 66.4956 Q1468.81 66.4546 1468.81 65.6348 Q1468.81 64.938 1469.34 63.5034 Q1469.92 62.0278 1471.07 60.1833 Q1472.25 58.3387 1473.77 56.6992 Q1475.33 55.0186 1477.58 53.8709 Q1479.88 52.7232 1482.34 52.7232 Q1483.44 52.7232 1484.51 52.9691 Q1485.62 53.1741 1486.93 53.7889 Q1488.28 54.4038 1489.47 55.7564 Q1490.66 57.1091 1491.4 59.0765 Q1491.89 58.1338 1492.54 57.232 Q1493.24 56.3303 1494.31 55.2235 Q1495.41 54.0758 1496.93 53.42 Q1498.49 52.7232 1500.21 52.7232 Q1501.89 52.7232 1503.53 53.1741 Q1505.17 53.584 1506.56 54.9366 Q1508 56.2483 1508 58.2568 Z" fill="#000000" fill-rule="evenodd" fill-opacity="1" /><path clip-path="url(#clip960)" d="M1516.55 95.2199 Q1516.55 86.5835 1518.74 81.8779 Q1521.78 74.8769 1528.95 74.8769 Q1530.47 74.8769 1532.05 75.3073 Q1533.66 75.709 1535.66 77.2871 Q1537.7 78.8652 1538.93 81.4475 Q1541.29 86.44 1541.29 95.2199 Q1541.29 103.799 1539.11 108.476 Q1535.92 115.305 1528.89 115.305 Q1526.25 115.305 1523.56 113.956 Q1520.89 112.608 1519.19 109.365 Q1516.55 104.516 1516.55 95.2199 M1521.43 94.5026 Q1521.43 103.369 1522.06 106.898 Q1522.78 110.714 1524.73 112.378 Q1526.71 114.014 1528.89 114.014 Q1531.25 114.014 1533.2 112.263 Q1535.18 110.484 1535.78 106.668 Q1536.44 102.91 1536.41 94.5026 Q1536.41 86.3252 1535.84 83.0543 Q1535.06 79.2382 1533 77.7175 Q1530.96 76.1681 1528.89 76.1681 Q1528.12 76.1681 1527.29 76.3976 Q1526.48 76.6272 1525.31 77.2871 Q1524.13 77.947 1523.21 79.5825 Q1522.32 81.218 1521.89 83.6855 Q1521.43 86.8704 1521.43 94.5026 Z" fill="#000000" fill-rule="evenodd" fill-opacity="1" /><path clip-path="url(#clip960)" d="M1573.29 77.0708 Q1573.38 76.0461 1574.97 76.0461 L1626.42 76.0461 Q1628.83 76.0461 1628.88 76.9889 Q1628.88 78.0136 1626.58 77.9726 L1575.55 77.9726 Q1573.29 78.0136 1573.29 77.0708 M1573.29 60.6751 Q1573.29 59.6504 1575.06 59.6914 L1626.33 59.6914 Q1628.83 59.6914 1628.88 60.6751 Q1628.88 61.6179 1626.74 61.6179 L1574.97 61.6179 Q1573.29 61.6179 1573.29 60.6751 Z" fill="#000000" fill-rule="evenodd" fill-opacity="1" /><path clip-path="url(#clip960)" d="M1724.51 13.7547 Q1724.51 16.6239 1720.41 16.6239 L1710.82 16.6239 Q1709.34 23.4282 1709.34 29.9864 Q1709.34 37.8154 1711.76 43.8408 Q1712.25 45.0295 1712.25 45.6853 Q1712.25 46.915 1711.15 47.8988 Q1710.08 48.8825 1708.81 48.8825 Q1707.74 48.8825 1707.05 48.0627 Q1706.39 47.2429 1705.82 44.6606 Q1705.12 41.6274 1705.12 38.2663 Q1705.12 34.2493 1705.78 30.3963 Q1706.43 26.5024 1708.65 16.6239 L1699.18 16.6239 L1694.46 35.1921 Q1692.78 41.4634 1692.21 43.3899 Q1691.84 44.5376 1691.72 44.9065 Q1691.59 45.2754 1691.22 46.1772 Q1690.9 47.038 1690.65 47.3659 Q1690.41 47.6528 1690 48.1037 Q1689.59 48.5956 1689.09 48.7185 Q1688.6 48.8825 1687.99 48.8825 Q1687.04 48.8825 1686.31 48.2677 Q1685.57 47.6938 1685.57 46.5871 Q1685.57 45.8493 1686.22 44.5786 Q1694.01 27.773 1696.96 16.6239 L1692.21 16.6239 Q1685.65 16.6239 1681.55 23.1002 Q1680.9 23.961 1680.53 24.043 Q1680.36 24.084 1680.2 24.084 Q1679.75 24.084 1679.46 23.879 Q1679.22 23.6741 1679.22 23.4692 L1679.17 23.2642 Q1679.17 23.0183 1679.79 21.9116 Q1680.44 20.7639 1681.67 19.0013 Q1682.95 17.2388 1684.3 15.7222 Q1685.61 14.3285 1686.88 13.4678 Q1688.19 12.566 1689.42 12.2381 Q1690.65 11.9102 1691.35 11.8282 Q1692.04 11.7462 1693.03 11.7462 L1721.15 11.7462 Q1722.21 11.7462 1722.79 11.8282 Q1723.36 11.8692 1723.93 12.3611 Q1724.51 12.8119 1724.51 13.7547 Z" fill="#000000" fill-rule="evenodd" fill-opacity="1" /><path clip-path="url(#clip960)" d="
M1679.17 71.2773 L1733.02 71.2773 L1733.02 66.7973 L1679.17 66.7973  Z
  " fill="#000000" fill-rule="evenodd" fill-opacity="1"/>
<path clip-path="url(#clip960)" d="M1683.17 131.655 L1683.17 129.073 L1708.96 89.6824 Q1709.61 88.6576 1710.64 88.6986 Q1711.58 88.6986 1711.78 89.0675 Q1711.99 89.4364 1711.99 90.871 L1711.99 129.073 L1720.39 129.073 L1720.39 131.655 L1711.99 131.655 L1711.99 138.951 Q1711.99 141.37 1712.97 142.149 Q1714 142.927 1718.34 142.927 L1720.11 142.927 L1720.11 145.51 Q1716.66 145.264 1708.71 145.264 Q1700.8 145.264 1697.36 145.51 L1697.36 142.927 L1699.12 142.927 Q1703.46 142.927 1704.49 142.19 Q1705.51 141.411 1705.51 138.951 L1705.51 131.655 L1683.17 131.655 M1685.55 129.073 L1706.01 129.073 L1706.01 97.7572 L1685.55 129.073 Z" fill="#000000" fill-rule="evenodd" fill-opacity="1" /><path clip-path="url(#clip960)" d="M1820.73 53.0511 L1820.73 53.2151 Q1819.42 59.3635 1816.76 62.7656 Q1814.13 66.1677 1809.09 67.3974 Q1807.82 67.7253 1806.14 67.7253 Q1802.58 67.7253 1799.09 66.0447 Q1795.61 64.3232 1791.71 61.3719 Q1789.3 59.5684 1787.9 58.6257 Q1786.51 57.6829 1784.25 56.7402 Q1782.04 55.7564 1780.11 55.7564 Q1779.05 55.7564 1777.94 56.0023 Q1773.47 57.15 1770.85 59.5274 Q1768.27 61.9048 1767.28 66.4136 Q1767.12 67.1514 1766.26 67.1514 Q1765.85 67.1514 1765.56 66.8645 Q1765.28 66.5776 1765.28 66.1267 L1765.28 65.9627 Q1766.59 59.8143 1769.21 56.4122 Q1771.87 53.0101 1776.92 51.7804 Q1778.27 51.4525 1779.87 51.4525 Q1783.39 51.4525 1786.88 53.1741 Q1790.36 54.8546 1794.3 57.8469 Q1796.1 59.1995 1797.12 59.9373 Q1798.19 60.6341 1799.83 61.6179 Q1801.47 62.6016 1802.99 63.0525 Q1804.5 63.4624 1805.98 63.4624 Q1806.96 63.4624 1808.07 63.2165 Q1812.54 62.0688 1815.12 59.6914 Q1817.74 57.314 1818.73 52.8052 Q1819.05 52.0264 1819.75 52.0264 Q1820.16 52.0264 1820.45 52.3133 Q1820.73 52.6002 1820.73 53.0511 M1820.73 71.5373 L1820.73 71.7012 Q1819.42 77.8496 1816.76 81.2517 Q1814.13 84.6539 1809.09 85.8835 Q1807.82 86.2114 1806.14 86.2114 Q1802.62 86.2114 1799.13 84.5309 Q1795.65 82.8093 1791.71 79.8171 Q1789.3 78.0136 1787.9 77.0708 Q1786.51 76.1281 1784.25 75.1853 Q1782.04 74.2016 1780.11 74.2016 Q1779.05 74.2016 1777.94 74.4475 Q1773.47 75.5952 1770.85 77.9726 Q1768.27 80.35 1767.28 84.8588 Q1767.12 85.6376 1766.26 85.6376 Q1765.85 85.6376 1765.56 85.3507 Q1765.28 85.0637 1765.28 84.6129 L1765.28 84.4489 Q1766.59 78.3005 1769.21 74.8984 Q1771.87 71.4963 1776.92 70.2666 Q1778.27 69.9387 1779.87 69.9387 Q1783.43 69.9387 1786.92 71.6602 Q1790.4 73.3408 1794.3 76.292 Q1796.1 77.6447 1797.12 78.3825 Q1798.19 79.0793 1799.83 80.0631 Q1801.47 81.0468 1802.99 81.4977 Q1804.5 81.9076 1805.98 81.9076 Q1806.96 81.9076 1808.07 81.6616 Q1812.54 80.5139 1815.12 78.1366 Q1817.74 75.7592 1818.73 71.2504 Q1819.01 70.5126 1819.75 70.5126 Q1820.16 70.5126 1820.45 70.7995 Q1820.73 71.0864 1820.73 71.5373 Z" fill="#000000" fill-rule="evenodd" fill-opacity="1" /><path clip-path="url(#clip960)" d="M1852.83 62.9705 Q1852.83 50.6328 1855.94 43.9105 Q1860.29 33.9091 1870.54 33.9091 Q1872.71 33.9091 1874.96 34.524 Q1877.26 35.0978 1880.13 37.3522 Q1883.04 39.6066 1884.8 43.2957 Q1888.16 50.4278 1888.16 62.9705 Q1888.16 75.2263 1885.05 81.9076 Q1880.5 91.663 1870.45 91.663 Q1866.68 91.663 1862.83 89.7365 Q1859.02 87.81 1856.6 83.1782 Q1852.83 76.251 1852.83 62.9705 M1859.8 61.9458 Q1859.8 74.6115 1860.7 79.6532 Q1861.72 85.1047 1864.51 87.4821 Q1867.34 89.8185 1870.45 89.8185 Q1873.82 89.8185 1876.6 87.3182 Q1879.43 84.7768 1880.29 79.3252 Q1881.23 73.9556 1881.19 61.9458 Q1881.19 50.2638 1880.37 45.5911 Q1879.27 40.1395 1876.32 37.9671 Q1873.41 35.7536 1870.45 35.7536 Q1869.35 35.7536 1868.16 36.0816 Q1867.01 36.4095 1865.33 37.3522 Q1863.65 38.295 1862.34 40.6314 Q1861.07 42.9678 1860.45 46.4928 Q1859.8 51.0426 1859.8 61.9458 Z" fill="#000000" fill-rule="evenodd" fill-opacity="1" /><path clip-path="url(#clip960)" d="M1895.67 88.4659 Q1894.4 87.1132 1894.4 85.3507 Q1894.4 83.5881 1895.67 82.3175 Q1896.94 81.0058 1898.87 81.0058 Q1900.71 81.0058 1901.94 82.2355 Q1903.21 83.4242 1903.21 85.3917 Q1903.21 87.3182 1901.86 88.5888 Q1900.55 89.8185 1898.87 89.8185 Q1896.94 89.8185 1895.67 88.4659 Z" fill="#000000" fill-rule="evenodd" fill-opacity="1" /><path clip-path="url(#clip960)" d="M1917.5 50.3458 L1920.24 33.0893 L1922.34 33.0893 Q1922.58 34.1141 1922.99 34.565 Q1923.44 35.0158 1925.82 35.3847 Q1928.24 35.7536 1933.12 35.7536 L1953.49 35.7536 Q1953.49 37.6801 1952.75 38.7049 L1941.4 54.6497 Q1937.79 59.6914 1936.19 68.9959 Q1935.25 75.2263 1935.29 82.7683 L1935.29 87.0312 Q1935.29 91.663 1931.39 91.663 Q1927.54 91.663 1927.54 87.0312 Q1927.54 71.0044 1937.87 55.4695 Q1938.98 53.8709 1943.04 48.1734 Q1947.13 42.4759 1947.3 42.2299 L1929.92 42.2299 Q1922.29 42.2299 1921.68 42.7218 Q1920.86 43.4596 1919.59 50.3458 L1917.5 50.3458 Z" fill="#000000" fill-rule="evenodd" fill-opacity="1" /><path clip-path="url(#clip960)" d="M1952.1 77.1528 Q1952.1 67.7663 1964.19 61.6999 Q1958.99 58.1748 1958.04 57.15 Q1954.35 53.0511 1954.35 47.9275 Q1954.35 42.066 1958.78 38.0081 Q1963.25 33.9091 1969.56 33.9091 Q1975.59 33.9091 1980.14 37.3932 Q1984.69 40.8773 1984.69 46.4109 Q1984.69 54.1988 1974.52 59.4454 Q1981.24 63.6264 1982.84 65.3889 Q1986.94 69.9387 1986.94 75.7182 Q1986.94 82.4404 1981.78 87.0722 Q1976.61 91.663 1969.48 91.663 Q1962.51 91.663 1957.31 87.6051 Q1952.1 83.5471 1952.1 77.1528 M1956.28 77.1528 Q1956.28 82.3585 1960.17 85.8425 Q1964.11 89.3266 1969.56 89.3266 Q1974.85 89.3266 1978.78 86.2934 Q1982.76 83.2602 1982.76 78.7514 Q1982.76 76.9889 1982.15 75.4723 Q1981.57 73.9556 1980.38 72.767 Q1979.23 71.5373 1978.5 71.0044 Q1977.8 70.4306 1976.45 69.4878 L1966.12 62.9705 Q1956.28 68.4221 1956.28 77.1528 M1958.04 44.6483 Q1958.04 48.6653 1962.27 51.4525 L1972.68 58.1748 Q1981 53.2971 1981 46.4109 Q1981 41.943 1977.6 38.9918 Q1974.19 35.9996 1969.48 35.9996 Q1964.85 35.9996 1961.45 38.4589 Q1958.04 40.8773 1958.04 44.6483 Z" fill="#000000" fill-rule="evenodd" fill-opacity="1" /><path clip-path="url(#clip960)" d="M1994.01 76.292 Q1994.01 73.7917 1995.36 72.8489 Q1996.71 71.8652 1998.15 71.8652 Q2000.07 71.8652 2001.18 73.0949 Q2002.33 74.2836 2002.33 75.9641 Q2002.33 77.6447 2001.18 78.8744 Q2000.07 80.0631 1998.15 80.0631 Q1997.2 80.0631 1996.71 79.8991 Q1997.82 83.7521 2001.18 86.5394 Q2004.58 89.3266 2009.05 89.3266 Q2014.66 89.3266 2018.03 83.8751 Q2020.03 80.35 2020.03 72.3571 Q2020.03 65.3069 2018.52 61.7818 Q2016.18 56.4122 2011.39 56.4122 Q2004.58 56.4122 2000.56 62.2737 Q2000.07 63.0115 1999.5 63.0525 Q1998.68 63.0525 1998.47 62.6016 Q1998.31 62.1097 1998.31 60.8391 L1998.31 35.9996 Q1998.31 33.9911 1999.13 33.9911 Q1999.46 33.9911 2000.15 34.237 Q2005.44 36.5734 2011.3 36.6144 Q2017.33 36.6144 2022.74 34.1551 Q2023.15 33.9091 2023.4 33.9091 Q2024.22 33.9091 2024.26 34.8519 Q2024.26 35.1798 2023.56 36.1635 Q2022.9 37.1063 2021.47 38.377 Q2020.03 39.6066 2018.19 40.7953 Q2016.35 41.984 2013.64 42.8038 Q2010.98 43.5826 2008.02 43.5826 Q2004.5 43.5826 2000.89 42.4759 L2000.89 58.8306 Q2005.24 54.5677 2011.55 54.5677 Q2018.27 54.5677 2022.9 59.9783 Q2027.54 65.3889 2027.54 72.9309 Q2027.54 80.8418 2022.04 86.2524 Q2016.59 91.663 2009.21 91.663 Q2002.49 91.663 1998.23 86.8673 Q1994.01 82.0715 1994.01 76.292 Z" fill="#000000" fill-rule="evenodd" fill-opacity="1" /><path clip-path="url(#clip960)" d="M2035.91 78.5055 Q2035.91 76.0051 2037.35 74.8164 Q2038.78 73.6277 2040.63 73.6277 Q2042.55 73.6277 2043.91 74.8984 Q2045.3 76.1281 2045.3 78.3005 Q2045.3 80.6369 2043.66 81.9486 Q2042.06 83.2602 2039.77 82.9323 Q2041.77 86.2934 2045.46 87.81 Q2049.19 89.3266 2052.64 89.3266 Q2056.24 89.3266 2059.15 86.2114 Q2062.1 83.0963 2062.1 75.4723 Q2062.1 68.9959 2059.56 65.2659 Q2057.06 61.5359 2052.1 61.5359 L2048.41 61.5359 Q2047.14 61.5359 2046.77 61.4129 Q2046.41 61.29 2046.41 60.5931 Q2046.41 59.7734 2047.68 59.6094 Q2048.95 59.6094 2050.96 59.3635 Q2055.83 59.1995 2058.42 54.9776 Q2060.75 51.0426 2060.75 45.4271 Q2060.75 40.3035 2058.29 38.172 Q2055.87 35.9996 2052.72 35.9996 Q2049.77 35.9996 2046.53 37.2293 Q2043.29 38.4589 2041.53 41.2052 Q2046.73 41.2052 2046.73 45.4271 Q2046.73 47.2716 2045.55 48.5013 Q2044.4 49.69 2042.47 49.69 Q2040.63 49.69 2039.4 48.5423 Q2038.17 47.3536 2038.17 45.3451 Q2038.17 40.5494 2042.43 37.2293 Q2046.73 33.9091 2053.05 33.9091 Q2059.28 33.9091 2063.87 37.1883 Q2068.5 40.4674 2068.5 45.5091 Q2068.5 50.4688 2065.22 54.5267 Q2061.94 58.5847 2056.74 60.2652 Q2063.13 61.5359 2066.94 65.8808 Q2070.75 70.1846 2070.75 75.4723 Q2070.75 82.0305 2065.59 86.8673 Q2060.42 91.663 2052.88 91.663 Q2045.91 91.663 2040.91 87.892 Q2035.91 84.121 2035.91 78.5055 Z" fill="#000000" fill-rule="evenodd" fill-opacity="1" /><path clip-path="url(#clip960)" d="M2077.82 52.8052 Q2077.82 48.3374 2079.13 45.3041 Q2080.44 42.2299 2083.19 39.1967 Q2088.23 33.9091 2095.53 33.9091 Q2098.64 33.9091 2101.39 35.2208 Q2104.18 36.5324 2106.8 39.5247 Q2109.46 42.4759 2111.06 48.3374 Q2112.66 54.1578 2112.66 62.1917 Q2112.66 75.1853 2106.35 83.4242 Q2100.08 91.663 2091.59 91.663 Q2086.22 91.663 2083.07 89.2447 Q2079.91 86.7853 2079.91 82.6044 Q2079.91 80.432 2081.14 79.5302 Q2082.37 78.5874 2083.76 78.5874 Q2085.28 78.5874 2086.47 79.6122 Q2087.66 80.5959 2087.66 82.4404 Q2087.66 83.957 2086.67 85.1457 Q2085.73 86.2934 2083.27 86.2934 Q2085.69 89.3266 2091.51 89.3266 Q2093.6 89.3266 2095.69 88.3839 Q2097.78 87.4001 2100.04 85.0637 Q2102.33 82.6864 2103.72 77.7267 Q2105.12 72.767 2105.12 65.7988 L2105.12 63.1345 Q2101.76 71.5373 2094.62 71.5373 Q2087.57 71.5373 2082.7 66.1267 Q2077.82 60.7161 2077.82 52.8052 M2085.36 52.8872 Q2085.36 61.208 2086.88 64.2822 Q2089.46 69.5698 2094.71 69.5698 Q2099.83 69.5698 2102.37 65.02 Q2104.95 60.4292 2104.95 54.4857 Q2104.95 46.2469 2103.6 42.6398 Q2101.1 35.9996 2095.53 35.9996 Q2089.99 35.9996 2087.12 41.2872 Q2085.36 44.4024 2085.36 52.8872 Z" fill="#000000" fill-rule="evenodd" fill-opacity="1" /><path clip-path="url(#clip960)" d="M2119.73 77.1528 Q2119.73 67.7663 2131.82 61.6999 Q2126.61 58.1748 2125.67 57.15 Q2121.98 53.0511 2121.98 47.9275 Q2121.98 42.066 2126.41 38.0081 Q2130.87 33.9091 2137.19 33.9091 Q2143.21 33.9091 2147.76 37.3932 Q2152.31 40.8773 2152.31 46.4109 Q2152.31 54.1988 2142.15 59.4454 Q2148.87 63.6264 2150.47 65.3889 Q2154.57 69.9387 2154.57 75.7182 Q2154.57 82.4404 2149.4 87.0722 Q2144.24 91.663 2137.1 91.663 Q2130.14 91.663 2124.93 87.6051 Q2119.73 83.5471 2119.73 77.1528 M2123.91 77.1528 Q2123.91 82.3585 2127.8 85.8425 Q2131.74 89.3266 2137.19 89.3266 Q2142.47 89.3266 2146.41 86.2934 Q2150.39 83.2602 2150.39 78.7514 Q2150.39 76.9889 2149.77 75.4723 Q2149.2 73.9556 2148.01 72.767 Q2146.86 71.5373 2146.12 71.0044 Q2145.43 70.4306 2144.07 69.4878 L2133.74 62.9705 Q2123.91 68.4221 2123.91 77.1528 M2125.67 44.6483 Q2125.67 48.6653 2129.89 51.4525 L2140.3 58.1748 Q2148.62 53.2971 2148.62 46.4109 Q2148.62 41.943 2145.22 38.9918 Q2141.82 35.9996 2137.1 35.9996 Q2132.47 35.9996 2129.07 38.4589 Q2125.67 40.8773 2125.67 44.6483 Z" fill="#000000" fill-rule="evenodd" fill-opacity="1" /><path clip-path="url(#clip960)" d="M2159.28 41.902 L2159.28 39.2787 Q2169.36 39.2787 2174.57 33.9091 Q2176 33.9091 2176.25 34.237 Q2176.5 34.565 2176.5 36.0816 L2176.5 83.1782 Q2176.5 85.6786 2177.73 86.4574 Q2178.96 87.2362 2184.33 87.2362 L2186.99 87.2362 L2186.99 89.8185 Q2184.04 89.5726 2173.38 89.5726 Q2162.72 89.5726 2159.81 89.8185 L2159.81 87.2362 L2162.48 87.2362 Q2167.77 87.2362 2169.04 86.4984 Q2170.31 85.7196 2170.31 83.1782 L2170.31 39.6886 Q2165.92 41.902 2159.28 41.902 Z" fill="#000000" fill-rule="evenodd" fill-opacity="1" /><path clip-path="url(#clip960)" d="M2189.83 63.2984 Q2189.83 50.0999 2196.55 42.025 Q2203.27 33.9091 2211.92 33.9091 Q2216.96 33.9091 2219.75 36.4914 Q2222.58 39.0328 2222.58 42.9678 Q2222.58 45.1402 2221.31 46.0829 Q2220.04 47.0257 2218.72 47.0257 Q2217.21 47.0257 2216.02 46.001 Q2214.83 44.9762 2214.83 43.1317 Q2214.83 39.3607 2219.46 39.3607 Q2217.29 35.9996 2212.08 35.9996 Q2210.49 35.9996 2208.85 36.4914 Q2207.21 36.9423 2205.07 38.4999 Q2202.94 40.0575 2201.3 42.5169 Q2199.66 44.9762 2198.52 49.608 Q2197.37 54.2398 2197.37 60.2652 L2197.37 62.2737 Q2200.81 53.9529 2207.86 53.9939 Q2214.91 53.9939 2219.79 59.3635 Q2224.67 64.7331 2224.67 72.685 Q2224.67 80.8418 2219.59 86.2524 Q2214.5 91.663 2207.37 91.663 Q2204.17 91.663 2201.26 90.3104 Q2198.39 88.9987 2195.69 85.9655 Q2193.02 82.9323 2191.43 77.1118 Q2189.83 71.2913 2189.83 63.2984 M2197.53 70.8405 Q2197.53 79.0793 2199.05 83.0143 Q2199.3 83.6701 2199.83 84.5719 Q2200.4 85.4736 2201.34 86.6623 Q2202.33 87.81 2203.93 88.5888 Q2205.53 89.3266 2207.37 89.3266 Q2212.99 89.3266 2215.69 83.8751 Q2217.13 80.8418 2217.13 72.603 Q2217.13 64.2002 2215.61 61.126 Q2213.03 55.9204 2207.78 55.9204 Q2204.26 55.9204 2201.8 58.3387 Q2199.38 60.7571 2198.43 63.9953 Q2197.53 67.2334 2197.53 70.8405 Z" fill="#000000" fill-rule="evenodd" fill-opacity="1" /><polyline clip-path="url(#clip963)" style="stroke:#009af9; stroke-linecap:butt; stroke-linejoin:round; stroke-width:4; stroke-opacity:1; fill:none" points="
  242.133,189.704 258.361,199.453 274.589,209.275 290.817,219.17 307.045,229.138 323.273,239.179 339.501,249.291 355.729,259.476 371.957,269.732 388.185,280.06 
  404.413,290.46 420.641,300.93 436.869,311.47 453.097,322.081 469.325,332.762 485.553,343.513 501.781,354.333 518.009,365.222 534.237,376.18 550.465,387.206 
  566.693,398.3 582.92,409.462 599.148,420.691 615.376,431.987 631.604,443.349 647.832,454.778 664.06,466.272 680.288,477.831 696.516,489.456 712.744,501.145 
  728.972,512.898 745.2,524.715 761.428,536.595 777.656,548.538 793.884,560.543 810.112,572.611 826.34,584.739 842.568,596.929 858.796,609.179 875.024,621.489 
  891.252,633.859 907.48,646.288 923.708,658.775 939.936,671.32 956.164,683.923 972.392,696.583 988.62,709.3 1004.85,722.072 1021.08,734.901 1037.3,747.784 
  1053.53,760.721 1069.76,773.712 1085.99,786.757 1102.22,799.854 1118.44,813.004 1134.67,826.205 1150.9,839.457 1167.13,852.759 1183.36,866.112 1199.58,879.514 
  1215.81,892.964 1232.04,906.463 1248.27,920.009 1264.5,933.602 1280.72,947.241 1296.95,960.926 1313.18,974.656 1329.41,988.43 1345.64,1002.25 1361.86,1016.11 
  1378.09,1030.01 1394.32,1043.96 1410.55,1057.95 1426.78,1071.97 1443,1086.04 1459.23,1100.15 1475.46,1114.29 1491.69,1128.47 1507.91,1142.69 1524.14,1156.95 
  1540.37,1171.24 1556.6,1185.57 1572.83,1199.93 1589.05,1214.33 1605.28,1228.76 1621.51,1243.22 1637.74,1257.71 1653.97,1272.24 1670.19,1286.79 1686.42,1301.37 
  1702.65,1315.99 1718.88,1330.63 1735.11,1345.29 1751.33,1359.99 1767.56,1374.71 1783.79,1389.46 1800.02,1404.23 1816.25,1419.02 1832.47,1433.84 1848.7,1448.68 
  
  "/>
<polyline clip-path="url(#clip963)" style="stroke:#e26f46; stroke-linecap:butt; stroke-linejoin:round; stroke-width:4; stroke-opacity:1; fill:none" points="
  242.133,695.505 258.361,695.505 274.589,695.505 290.817,695.505 307.045,695.505 323.273,695.505 339.501,695.505 355.729,695.505 371.957,695.505 388.185,695.505 
  404.413,695.505 420.641,695.505 436.869,695.505 453.097,695.505 469.325,695.505 485.553,695.505 501.781,695.505 518.009,695.505 534.237,695.505 550.465,695.505 
  566.693,695.505 582.92,695.505 599.148,695.505 615.376,695.505 631.604,695.505 647.832,695.505 664.06,695.505 680.288,695.505 696.516,695.505 712.744,695.505 
  728.972,695.505 745.2,695.505 761.428,695.505 777.656,695.505 793.884,695.505 810.112,695.505 826.34,695.505 842.568,695.505 858.796,695.505 875.024,695.505 
  891.252,695.505 907.48,695.505 923.708,695.505 939.936,695.505 956.164,695.505 972.392,695.505 988.62,695.505 1004.85,695.505 1021.08,695.505 1037.3,695.505 
  1053.53,695.505 1069.76,695.505 1085.99,695.505 1102.22,695.505 1118.44,695.505 1134.67,695.505 1150.9,695.505 1167.13,695.505 1183.36,695.505 1199.58,695.505 
  1215.81,695.505 1232.04,695.505 1248.27,695.505 1264.5,695.505 1280.72,695.505 1296.95,695.505 1313.18,695.505 1329.41,695.505 1345.64,695.505 1361.86,695.505 
  1378.09,695.505 1394.32,695.505 1410.55,695.505 1426.78,695.505 1443,695.505 1459.23,695.505 1475.46,695.505 1491.69,695.505 1507.91,695.505 1524.14,695.505 
  1540.37,695.505 1556.6,695.505 1572.83,695.505 1589.05,695.505 1605.28,695.505 1621.51,695.505 1637.74,695.505 1653.97,695.505 1670.19,695.505 1686.42,695.505 
  1702.65,695.505 1718.88,695.505 1735.11,695.505 1751.33,695.505 1767.56,695.505 1783.79,695.505 1800.02,695.505 1816.25,695.505 1832.47,695.505 1848.7,695.505 
  
  "/>
<path clip-path="url(#clip960)" d="
M1968.86 351.938 L2352.76 351.938 L2352.76 196.418 L1968.86 196.418  Z
  " fill="#ffffff" fill-rule="evenodd" fill-opacity="1"/>
<polyline clip-path="url(#clip960)" style="stroke:#000000; stroke-linecap:butt; stroke-linejoin:round; stroke-width:4; stroke-opacity:1; fill:none" points="
  1968.86,351.938 2352.76,351.938 2352.76,196.418 1968.86,196.418 1968.86,351.938 
  "/>
<polyline clip-path="url(#clip960)" style="stroke:#009af9; stroke-linecap:butt; stroke-linejoin:round; stroke-width:4; stroke-opacity:1; fill:none" points="
  1992.85,248.258 2136.77,248.258 
  "/>
<path clip-path="url(#clip960)" d="M2174.6 267.946 Q2172.79 272.575 2171.08 273.987 Q2169.37 275.399 2166.5 275.399 L2163.09 275.399 L2163.09 271.835 L2165.59 271.835 Q2167.35 271.835 2168.32 271.001 Q2169.3 270.168 2170.48 267.066 L2171.24 265.122 L2160.76 239.613 L2165.27 239.613 L2173.37 259.89 L2181.47 239.613 L2185.99 239.613 L2174.6 267.946 Z" fill="#000000" fill-rule="evenodd" fill-opacity="1" /><path clip-path="url(#clip960)" d="M2192.42 244.011 L2222.1 244.011 L2222.1 247.9 L2192.42 247.9 L2192.42 244.011 M2192.42 253.455 L2222.1 253.455 L2222.1 257.39 L2192.42 257.39 L2192.42 253.455 Z" fill="#000000" fill-rule="evenodd" fill-opacity="1" /><path clip-path="url(#clip960)" d="M2244.71 229.52 L2244.71 233.062 L2240.64 233.062 Q2238.35 233.062 2237.44 233.988 Q2236.56 234.914 2236.56 237.321 L2236.56 239.613 L2243.58 239.613 L2243.58 242.923 L2236.56 242.923 L2236.56 265.538 L2232.28 265.538 L2232.28 242.923 L2228.21 242.923 L2228.21 239.613 L2232.28 239.613 L2232.28 237.807 Q2232.28 233.478 2234.3 231.511 Q2236.31 229.52 2240.69 229.52 L2244.71 229.52 Z" fill="#000000" fill-rule="evenodd" fill-opacity="1" /><path clip-path="url(#clip960)" d="M2258.51 229.566 Q2255.41 234.89 2253.9 240.099 Q2252.4 245.307 2252.4 250.654 Q2252.4 256.001 2253.9 261.256 Q2255.43 266.487 2258.51 271.788 L2254.81 271.788 Q2251.33 266.349 2249.6 261.094 Q2247.88 255.839 2247.88 250.654 Q2247.88 245.492 2249.6 240.261 Q2251.31 235.029 2254.81 229.566 L2258.51 229.566 Z" fill="#000000" fill-rule="evenodd" fill-opacity="1" /><path clip-path="url(#clip960)" d="M2288.32 239.613 L2278.95 252.228 L2288.81 265.538 L2283.79 265.538 L2276.24 255.353 L2268.69 265.538 L2263.67 265.538 L2273.74 251.974 L2264.53 239.613 L2269.55 239.613 L2276.43 248.849 L2283.3 239.613 L2288.32 239.613 Z" fill="#000000" fill-rule="evenodd" fill-opacity="1" /><path clip-path="url(#clip960)" d="M2294.16 229.566 L2297.86 229.566 Q2301.33 235.029 2303.05 240.261 Q2304.78 245.492 2304.78 250.654 Q2304.78 255.839 2303.05 261.094 Q2301.33 266.349 2297.86 271.788 L2294.16 271.788 Q2297.24 266.487 2298.74 261.256 Q2300.27 256.001 2300.27 250.654 Q2300.27 245.307 2298.74 240.099 Q2297.24 234.89 2294.16 229.566 Z" fill="#000000" fill-rule="evenodd" fill-opacity="1" /><polyline clip-path="url(#clip960)" style="stroke:#e26f46; stroke-linecap:butt; stroke-linejoin:round; stroke-width:4; stroke-opacity:1; fill:none" points="
  1992.85,300.098 2136.77,300.098 
  "/>
<path clip-path="url(#clip960)" d="M2174.6 319.786 Q2172.79 324.415 2171.08 325.827 Q2169.37 327.239 2166.5 327.239 L2163.09 327.239 L2163.09 323.675 L2165.59 323.675 Q2167.35 323.675 2168.32 322.841 Q2169.3 322.008 2170.48 318.906 L2171.24 316.962 L2160.76 291.453 L2165.27 291.453 L2173.37 311.73 L2181.47 291.453 L2185.99 291.453 L2174.6 319.786 Z" fill="#000000" fill-rule="evenodd" fill-opacity="1" /><path clip-path="url(#clip960)" d="M2192.42 295.851 L2222.1 295.851 L2222.1 299.74 L2192.42 299.74 L2192.42 295.851 M2192.42 305.295 L2222.1 305.295 L2222.1 309.23 L2192.42 309.23 L2192.42 305.295 Z" fill="#000000" fill-rule="evenodd" fill-opacity="1" /><path clip-path="url(#clip960)" d="M2242.19 285.897 Q2238.58 285.897 2236.75 289.462 Q2234.94 293.004 2234.94 300.133 Q2234.94 307.24 2236.75 310.804 Q2238.58 314.346 2242.19 314.346 Q2245.82 314.346 2247.63 310.804 Q2249.46 307.24 2249.46 300.133 Q2249.46 293.004 2247.63 289.462 Q2245.82 285.897 2242.19 285.897 M2242.19 282.193 Q2248 282.193 2251.06 286.8 Q2254.13 291.383 2254.13 300.133 Q2254.13 308.86 2251.06 313.466 Q2248 318.05 2242.19 318.05 Q2236.38 318.05 2233.3 313.466 Q2230.25 308.86 2230.25 300.133 Q2230.25 291.383 2233.3 286.8 Q2236.38 282.193 2242.19 282.193 Z" fill="#000000" fill-rule="evenodd" fill-opacity="1" /></svg>
