<?xml version="1.0" encoding="utf-8"?>
<svg xmlns="http://www.w3.org/2000/svg" xmlns:xlink="http://www.w3.org/1999/xlink" width="600" height="400" viewBox="0 0 2400 1600">
<defs>
  <clipPath id="clip420">
    <rect x="0" y="0" width="2400" height="1600"/>
  </clipPath>
</defs>
<path clip-path="url(#clip420)" d="
M0 1600 L2400 1600 L2400 0 L0 0  Z
  " fill="#ffffff" fill-rule="evenodd" fill-opacity="1"/>
<defs>
  <clipPath id="clip421">
    <rect x="480" y="0" width="1681" height="1600"/>
  </clipPath>
</defs>
<defs>
  <clipPath id="clip422">
    <rect x="306" y="123" width="1608" height="1364"/>
  </clipPath>
</defs>
<path clip-path="url(#clip420)" d="
M186.274 1486.45 L1895.79 1486.45 L1895.79 123.472 L186.274 123.472  Z
  " fill="#ffffff" fill-rule="evenodd" fill-opacity="1"/>
<defs>
  <clipPath id="clip423">
    <rect x="186" y="123" width="1711" height="1364"/>
  </clipPath>
</defs>
<polyline clip-path="url(#clip423)" style="stroke:#000000; stroke-linecap:butt; stroke-linejoin:round; stroke-width:2; stroke-opacity:0.1; fill:none" points="
  234.657,1486.45 234.657,123.472 
  "/>
<polyline clip-path="url(#clip423)" style="stroke:#000000; stroke-linecap:butt; stroke-linejoin:round; stroke-width:2; stroke-opacity:0.1; fill:none" points="
  637.845,1486.45 637.845,123.472 
  "/>
<polyline clip-path="url(#clip423)" style="stroke:#000000; stroke-linecap:butt; stroke-linejoin:round; stroke-width:2; stroke-opacity:0.1; fill:none" points="
  1041.03,1486.45 1041.03,123.472 
  "/>
<polyline clip-path="url(#clip423)" style="stroke:#000000; stroke-linecap:butt; stroke-linejoin:round; stroke-width:2; stroke-opacity:0.1; fill:none" points="
  1444.22,1486.45 1444.22,123.472 
  "/>
<polyline clip-path="url(#clip423)" style="stroke:#000000; stroke-linecap:butt; stroke-linejoin:round; stroke-width:2; stroke-opacity:0.1; fill:none" points="
  1847.41,1486.45 1847.41,123.472 
  "/>
<polyline clip-path="url(#clip420)" style="stroke:#000000; stroke-linecap:butt; stroke-linejoin:round; stroke-width:4; stroke-opacity:1; fill:none" points="
  186.274,1486.45 1895.79,1486.45 
  "/>
<polyline clip-path="url(#clip420)" style="stroke:#000000; stroke-linecap:butt; stroke-linejoin:round; stroke-width:4; stroke-opacity:1; fill:none" points="
  234.657,1486.45 234.657,1467.55 
  "/>
<polyline clip-path="url(#clip420)" style="stroke:#000000; stroke-linecap:butt; stroke-linejoin:round; stroke-width:4; stroke-opacity:1; fill:none" points="
  637.845,1486.45 637.845,1467.55 
  "/>
<polyline clip-path="url(#clip420)" style="stroke:#000000; stroke-linecap:butt; stroke-linejoin:round; stroke-width:4; stroke-opacity:1; fill:none" points="
  1041.03,1486.45 1041.03,1467.55 
  "/>
<polyline clip-path="url(#clip420)" style="stroke:#000000; stroke-linecap:butt; stroke-linejoin:round; stroke-width:4; stroke-opacity:1; fill:none" points="
  1444.22,1486.45 1444.22,1467.55 
  "/>
<polyline clip-path="url(#clip420)" style="stroke:#000000; stroke-linecap:butt; stroke-linejoin:round; stroke-width:4; stroke-opacity:1; fill:none" points="
  1847.41,1486.45 1847.41,1467.55 
  "/>
<path clip-path="url(#clip420)" d="M196.96 1517.37 Q193.349 1517.37 191.52 1520.93 Q189.715 1524.47 189.715 1531.6 Q189.715 1538.71 191.52 1542.27 Q193.349 1545.82 196.96 1545.82 Q200.594 1545.82 202.4 1542.27 Q204.229 1538.71 204.229 1531.6 Q204.229 1524.47 202.4 1520.93 Q200.594 1517.37 196.96 1517.37 M196.96 1513.66 Q202.77 1513.66 205.826 1518.27 Q208.904 1522.85 208.904 1531.6 Q208.904 1540.33 205.826 1544.94 Q202.77 1549.52 196.96 1549.52 Q191.15 1549.52 188.071 1544.94 Q185.016 1540.33 185.016 1531.6 Q185.016 1522.85 188.071 1518.27 Q191.15 1513.66 196.96 1513.66 Z" fill="#000000" fill-rule="evenodd" fill-opacity="1" /><path clip-path="url(#clip420)" d="M217.122 1542.97 L222.006 1542.97 L222.006 1548.85 L217.122 1548.85 L217.122 1542.97 Z" fill="#000000" fill-rule="evenodd" fill-opacity="1" /><path clip-path="url(#clip420)" d="M242.191 1517.37 Q238.58 1517.37 236.752 1520.93 Q234.946 1524.47 234.946 1531.6 Q234.946 1538.71 236.752 1542.27 Q238.58 1545.82 242.191 1545.82 Q245.826 1545.82 247.631 1542.27 Q249.46 1538.71 249.46 1531.6 Q249.46 1524.47 247.631 1520.93 Q245.826 1517.37 242.191 1517.37 M242.191 1513.66 Q248.001 1513.66 251.057 1518.27 Q254.136 1522.85 254.136 1531.6 Q254.136 1540.33 251.057 1544.94 Q248.001 1549.52 242.191 1549.52 Q236.381 1549.52 233.302 1544.94 Q230.247 1540.33 230.247 1531.6 Q230.247 1522.85 233.302 1518.27 Q236.381 1513.66 242.191 1513.66 Z" fill="#000000" fill-rule="evenodd" fill-opacity="1" /><path clip-path="url(#clip420)" d="M272.353 1517.37 Q268.742 1517.37 266.913 1520.93 Q265.108 1524.47 265.108 1531.6 Q265.108 1538.71 266.913 1542.27 Q268.742 1545.82 272.353 1545.82 Q275.987 1545.82 277.793 1542.27 Q279.622 1538.71 279.622 1531.6 Q279.622 1524.47 277.793 1520.93 Q275.987 1517.37 272.353 1517.37 M272.353 1513.66 Q278.163 1513.66 281.219 1518.27 Q284.298 1522.85 284.298 1531.6 Q284.298 1540.33 281.219 1544.94 Q278.163 1549.52 272.353 1549.52 Q266.543 1549.52 263.464 1544.94 Q260.409 1540.33 260.409 1531.6 Q260.409 1522.85 263.464 1518.27 Q266.543 1513.66 272.353 1513.66 Z" fill="#000000" fill-rule="evenodd" fill-opacity="1" /><path clip-path="url(#clip420)" d="M600.646 1517.37 Q597.035 1517.37 595.206 1520.93 Q593.401 1524.47 593.401 1531.6 Q593.401 1538.71 595.206 1542.27 Q597.035 1545.82 600.646 1545.82 Q604.28 1545.82 606.086 1542.27 Q607.915 1538.71 607.915 1531.6 Q607.915 1524.47 606.086 1520.93 Q604.28 1517.37 600.646 1517.37 M600.646 1513.66 Q606.456 1513.66 609.512 1518.27 Q612.59 1522.85 612.59 1531.6 Q612.59 1540.33 609.512 1544.94 Q606.456 1549.52 600.646 1549.52 Q594.836 1549.52 591.757 1544.94 Q588.702 1540.33 588.702 1531.6 Q588.702 1522.85 591.757 1518.27 Q594.836 1513.66 600.646 1513.66 Z" fill="#000000" fill-rule="evenodd" fill-opacity="1" /><path clip-path="url(#clip420)" d="M620.808 1542.97 L625.692 1542.97 L625.692 1548.85 L620.808 1548.85 L620.808 1542.97 Z" fill="#000000" fill-rule="evenodd" fill-opacity="1" /><path clip-path="url(#clip420)" d="M639.905 1544.91 L656.224 1544.91 L656.224 1548.85 L634.28 1548.85 L634.28 1544.91 Q636.942 1542.16 641.525 1537.53 Q646.132 1532.88 647.313 1531.53 Q649.558 1529.01 650.437 1527.27 Q651.34 1525.51 651.34 1523.82 Q651.34 1521.07 649.396 1519.33 Q647.475 1517.6 644.373 1517.6 Q642.174 1517.6 639.72 1518.36 Q637.289 1519.13 634.512 1520.68 L634.512 1515.95 Q637.336 1514.82 639.789 1514.24 Q642.243 1513.66 644.28 1513.66 Q649.65 1513.66 652.845 1516.35 Q656.039 1519.03 656.039 1523.52 Q656.039 1525.65 655.229 1527.57 Q654.442 1529.47 652.336 1532.07 Q651.757 1532.74 648.655 1535.95 Q645.553 1539.15 639.905 1544.91 Z" fill="#000000" fill-rule="evenodd" fill-opacity="1" /><path clip-path="url(#clip420)" d="M666.086 1514.29 L684.442 1514.29 L684.442 1518.22 L670.368 1518.22 L670.368 1526.7 Q671.386 1526.35 672.405 1526.19 Q673.423 1526 674.442 1526 Q680.229 1526 683.609 1529.17 Q686.988 1532.34 686.988 1537.76 Q686.988 1543.34 683.516 1546.44 Q680.044 1549.52 673.724 1549.52 Q671.548 1549.52 669.28 1549.15 Q667.035 1548.78 664.627 1548.04 L664.627 1543.34 Q666.711 1544.47 668.933 1545.03 Q671.155 1545.58 673.632 1545.58 Q677.636 1545.58 679.974 1543.48 Q682.312 1541.37 682.312 1537.76 Q682.312 1534.15 679.974 1532.04 Q677.636 1529.94 673.632 1529.94 Q671.757 1529.94 669.882 1530.35 Q668.03 1530.77 666.086 1531.65 L666.086 1514.29 Z" fill="#000000" fill-rule="evenodd" fill-opacity="1" /><path clip-path="url(#clip420)" d="M1003.34 1517.37 Q999.726 1517.37 997.897 1520.93 Q996.091 1524.47 996.091 1531.6 Q996.091 1538.71 997.897 1542.27 Q999.726 1545.82 1003.34 1545.82 Q1006.97 1545.82 1008.78 1542.27 Q1010.61 1538.71 1010.61 1531.6 Q1010.61 1524.47 1008.78 1520.93 Q1006.97 1517.37 1003.34 1517.37 M1003.34 1513.66 Q1009.15 1513.66 1012.2 1518.27 Q1015.28 1522.85 1015.28 1531.6 Q1015.28 1540.33 1012.2 1544.94 Q1009.15 1549.52 1003.34 1549.52 Q997.527 1549.52 994.448 1544.94 Q991.392 1540.33 991.392 1531.6 Q991.392 1522.85 994.448 1518.27 Q997.527 1513.66 1003.34 1513.66 Z" fill="#000000" fill-rule="evenodd" fill-opacity="1" /><path clip-path="url(#clip420)" d="M1023.5 1542.97 L1028.38 1542.97 L1028.38 1548.85 L1023.5 1548.85 L1023.5 1542.97 Z" fill="#000000" fill-rule="evenodd" fill-opacity="1" /><path clip-path="url(#clip420)" d="M1038.61 1514.29 L1056.97 1514.29 L1056.97 1518.22 L1042.9 1518.22 L1042.9 1526.7 Q1043.92 1526.35 1044.93 1526.19 Q1045.95 1526 1046.97 1526 Q1052.76 1526 1056.14 1529.17 Q1059.52 1532.34 1059.52 1537.76 Q1059.52 1543.34 1056.04 1546.44 Q1052.57 1549.52 1046.25 1549.52 Q1044.08 1549.52 1041.81 1549.15 Q1039.56 1548.78 1037.16 1548.04 L1037.16 1543.34 Q1039.24 1544.47 1041.46 1545.03 Q1043.68 1545.58 1046.16 1545.58 Q1050.17 1545.58 1052.5 1543.48 Q1054.84 1541.37 1054.84 1537.76 Q1054.84 1534.15 1052.5 1532.04 Q1050.17 1529.94 1046.16 1529.94 Q1044.29 1529.94 1042.41 1530.35 Q1040.56 1530.77 1038.61 1531.65 L1038.61 1514.29 Z" fill="#000000" fill-rule="evenodd" fill-opacity="1" /><path clip-path="url(#clip420)" d="M1078.73 1517.37 Q1075.12 1517.37 1073.29 1520.93 Q1071.48 1524.47 1071.48 1531.6 Q1071.48 1538.71 1073.29 1542.27 Q1075.12 1545.82 1078.73 1545.82 Q1082.36 1545.82 1084.17 1542.27 Q1086 1538.71 1086 1531.6 Q1086 1524.47 1084.17 1520.93 Q1082.36 1517.37 1078.73 1517.37 M1078.73 1513.66 Q1084.54 1513.66 1087.6 1518.27 Q1090.67 1522.85 1090.67 1531.6 Q1090.67 1540.33 1087.6 1544.94 Q1084.54 1549.52 1078.73 1549.52 Q1072.92 1549.52 1069.84 1544.94 Q1066.79 1540.33 1066.79 1531.6 Q1066.79 1522.85 1069.84 1518.27 Q1072.92 1513.66 1078.73 1513.66 Z" fill="#000000" fill-rule="evenodd" fill-opacity="1" /><path clip-path="url(#clip420)" d="M1407.02 1517.37 Q1403.41 1517.37 1401.58 1520.93 Q1399.78 1524.47 1399.78 1531.6 Q1399.78 1538.71 1401.58 1542.27 Q1403.41 1545.82 1407.02 1545.82 Q1410.66 1545.82 1412.46 1542.27 Q1414.29 1538.71 1414.29 1531.6 Q1414.29 1524.47 1412.46 1520.93 Q1410.66 1517.37 1407.02 1517.37 M1407.02 1513.66 Q1412.83 1513.66 1415.89 1518.27 Q1418.97 1522.85 1418.97 1531.6 Q1418.97 1540.33 1415.89 1544.94 Q1412.83 1549.52 1407.02 1549.52 Q1401.21 1549.52 1398.13 1544.94 Q1395.08 1540.33 1395.08 1531.6 Q1395.08 1522.85 1398.13 1518.27 Q1401.21 1513.66 1407.02 1513.66 Z" fill="#000000" fill-rule="evenodd" fill-opacity="1" /><path clip-path="url(#clip420)" d="M1427.18 1542.97 L1432.07 1542.97 L1432.07 1548.85 L1427.18 1548.85 L1427.18 1542.97 Z" fill="#000000" fill-rule="evenodd" fill-opacity="1" /><path clip-path="url(#clip420)" d="M1441.07 1514.29 L1463.3 1514.29 L1463.3 1516.28 L1450.75 1548.85 L1445.87 1548.85 L1457.67 1518.22 L1441.07 1518.22 L1441.07 1514.29 Z" fill="#000000" fill-rule="evenodd" fill-opacity="1" /><path clip-path="url(#clip420)" d="M1472.46 1514.29 L1490.82 1514.29 L1490.82 1518.22 L1476.74 1518.22 L1476.74 1526.7 Q1477.76 1526.35 1478.78 1526.19 Q1479.8 1526 1480.82 1526 Q1486.61 1526 1489.99 1529.17 Q1493.36 1532.34 1493.36 1537.76 Q1493.36 1543.34 1489.89 1546.44 Q1486.42 1549.52 1480.1 1549.52 Q1477.93 1549.52 1475.66 1549.15 Q1473.41 1548.78 1471 1548.04 L1471 1543.34 Q1473.09 1544.47 1475.31 1545.03 Q1477.53 1545.58 1480.01 1545.58 Q1484.01 1545.58 1486.35 1543.48 Q1488.69 1541.37 1488.69 1537.76 Q1488.69 1534.15 1486.35 1532.04 Q1484.01 1529.94 1480.01 1529.94 Q1478.13 1529.94 1476.26 1530.35 Q1474.41 1530.77 1472.46 1531.65 L1472.46 1514.29 Z" fill="#000000" fill-rule="evenodd" fill-opacity="1" /><path clip-path="url(#clip420)" d="M1799.48 1544.91 L1807.12 1544.91 L1807.12 1518.55 L1798.81 1520.21 L1798.81 1515.95 L1807.07 1514.29 L1811.75 1514.29 L1811.75 1544.91 L1819.39 1544.91 L1819.39 1548.85 L1799.48 1548.85 L1799.48 1544.91 Z" fill="#000000" fill-rule="evenodd" fill-opacity="1" /><path clip-path="url(#clip420)" d="M1828.83 1542.97 L1833.72 1542.97 L1833.72 1548.85 L1828.83 1548.85 L1828.83 1542.97 Z" fill="#000000" fill-rule="evenodd" fill-opacity="1" /><path clip-path="url(#clip420)" d="M1853.9 1517.37 Q1850.29 1517.37 1848.46 1520.93 Q1846.66 1524.47 1846.66 1531.6 Q1846.66 1538.71 1848.46 1542.27 Q1850.29 1545.82 1853.9 1545.82 Q1857.54 1545.82 1859.34 1542.27 Q1861.17 1538.71 1861.17 1531.6 Q1861.17 1524.47 1859.34 1520.93 Q1857.54 1517.37 1853.9 1517.37 M1853.9 1513.66 Q1859.71 1513.66 1862.77 1518.27 Q1865.85 1522.85 1865.85 1531.6 Q1865.85 1540.33 1862.77 1544.94 Q1859.71 1549.52 1853.9 1549.52 Q1848.09 1549.52 1845.01 1544.94 Q1841.96 1540.33 1841.96 1531.6 Q1841.96 1522.85 1845.01 1518.27 Q1848.09 1513.66 1853.9 1513.66 Z" fill="#000000" fill-rule="evenodd" fill-opacity="1" /><path clip-path="url(#clip420)" d="M1884.06 1517.37 Q1880.45 1517.37 1878.63 1520.93 Q1876.82 1524.47 1876.82 1531.6 Q1876.82 1538.71 1878.63 1542.27 Q1880.45 1545.82 1884.06 1545.82 Q1887.7 1545.82 1889.5 1542.27 Q1891.33 1538.71 1891.33 1531.6 Q1891.33 1524.47 1889.5 1520.93 Q1887.7 1517.37 1884.06 1517.37 M1884.06 1513.66 Q1889.88 1513.66 1892.93 1518.27 Q1896.01 1522.85 1896.01 1531.6 Q1896.01 1540.33 1892.93 1544.94 Q1889.88 1549.52 1884.06 1549.52 Q1878.25 1549.52 1875.18 1544.94 Q1872.12 1540.33 1872.12 1531.6 Q1872.12 1522.85 1875.18 1518.27 Q1878.25 1513.66 1884.06 1513.66 Z" fill="#000000" fill-rule="evenodd" fill-opacity="1" /><polyline clip-path="url(#clip423)" style="stroke:#000000; stroke-linecap:butt; stroke-linejoin:round; stroke-width:2; stroke-opacity:0.1; fill:none" points="
  186.274,1447.87 1895.79,1447.87 
  "/>
<polyline clip-path="url(#clip423)" style="stroke:#000000; stroke-linecap:butt; stroke-linejoin:round; stroke-width:2; stroke-opacity:0.1; fill:none" points="
  186.274,1126.42 1895.79,1126.42 
  "/>
<polyline clip-path="url(#clip423)" style="stroke:#000000; stroke-linecap:butt; stroke-linejoin:round; stroke-width:2; stroke-opacity:0.1; fill:none" points="
  186.274,804.96 1895.79,804.96 
  "/>
<polyline clip-path="url(#clip423)" style="stroke:#000000; stroke-linecap:butt; stroke-linejoin:round; stroke-width:2; stroke-opacity:0.1; fill:none" points="
  186.274,483.503 1895.79,483.503 
  "/>
<polyline clip-path="url(#clip423)" style="stroke:#000000; stroke-linecap:butt; stroke-linejoin:round; stroke-width:2; stroke-opacity:0.1; fill:none" points="
  186.274,162.047 1895.79,162.047 
  "/>
<polyline clip-path="url(#clip420)" style="stroke:#000000; stroke-linecap:butt; stroke-linejoin:round; stroke-width:4; stroke-opacity:1; fill:none" points="
  186.274,1486.45 186.274,123.472 
  "/>
<polyline clip-path="url(#clip420)" style="stroke:#000000; stroke-linecap:butt; stroke-linejoin:round; stroke-width:4; stroke-opacity:1; fill:none" points="
  186.274,1447.87 201.186,1447.87 
  "/>
<polyline clip-path="url(#clip420)" style="stroke:#000000; stroke-linecap:butt; stroke-linejoin:round; stroke-width:4; stroke-opacity:1; fill:none" points="
  186.274,1126.42 201.186,1126.42 
  "/>
<polyline clip-path="url(#clip420)" style="stroke:#000000; stroke-linecap:butt; stroke-linejoin:round; stroke-width:4; stroke-opacity:1; fill:none" points="
  186.274,804.96 201.186,804.96 
  "/>
<polyline clip-path="url(#clip420)" style="stroke:#000000; stroke-linecap:butt; stroke-linejoin:round; stroke-width:4; stroke-opacity:1; fill:none" points="
  186.274,483.503 201.186,483.503 
  "/>
<polyline clip-path="url(#clip420)" style="stroke:#000000; stroke-linecap:butt; stroke-linejoin:round; stroke-width:4; stroke-opacity:1; fill:none" points="
  186.274,162.047 201.186,162.047 
  "/>
<path clip-path="url(#clip420)" d="M62.9365 1433.67 Q59.3254 1433.67 57.4967 1437.24 Q55.6912 1440.78 55.6912 1447.91 Q55.6912 1455.01 57.4967 1458.58 Q59.3254 1462.12 62.9365 1462.12 Q66.5707 1462.12 68.3763 1458.58 Q70.205 1455.01 70.205 1447.91 Q70.205 1440.78 68.3763 1437.24 Q66.5707 1433.67 62.9365 1433.67 M62.9365 1429.97 Q68.7467 1429.97 71.8022 1434.57 Q74.8809 1439.16 74.8809 1447.91 Q74.8809 1456.63 71.8022 1461.24 Q68.7467 1465.82 62.9365 1465.82 Q57.1264 1465.82 54.0477 1461.24 Q50.9921 1456.63 50.9921 1447.91 Q50.9921 1439.16 54.0477 1434.57 Q57.1264 1429.97 62.9365 1429.97 Z" fill="#000000" fill-rule="evenodd" fill-opacity="1" /><path clip-path="url(#clip420)" d="M83.0984 1459.27 L87.9827 1459.27 L87.9827 1465.15 L83.0984 1465.15 L83.0984 1459.27 Z" fill="#000000" fill-rule="evenodd" fill-opacity="1" /><path clip-path="url(#clip420)" d="M108.168 1433.67 Q104.557 1433.67 102.728 1437.24 Q100.922 1440.78 100.922 1447.91 Q100.922 1455.01 102.728 1458.58 Q104.557 1462.12 108.168 1462.12 Q111.802 1462.12 113.608 1458.58 Q115.436 1455.01 115.436 1447.91 Q115.436 1440.78 113.608 1437.24 Q111.802 1433.67 108.168 1433.67 M108.168 1429.97 Q113.978 1429.97 117.033 1434.57 Q120.112 1439.16 120.112 1447.91 Q120.112 1456.63 117.033 1461.24 Q113.978 1465.82 108.168 1465.82 Q102.358 1465.82 99.2789 1461.24 Q96.2234 1456.63 96.2234 1447.91 Q96.2234 1439.16 99.2789 1434.57 Q102.358 1429.97 108.168 1429.97 Z" fill="#000000" fill-rule="evenodd" fill-opacity="1" /><path clip-path="url(#clip420)" d="M138.33 1433.67 Q134.719 1433.67 132.89 1437.24 Q131.084 1440.78 131.084 1447.91 Q131.084 1455.01 132.89 1458.58 Q134.719 1462.12 138.33 1462.12 Q141.964 1462.12 143.769 1458.58 Q145.598 1455.01 145.598 1447.91 Q145.598 1440.78 143.769 1437.24 Q141.964 1433.67 138.33 1433.67 M138.33 1429.97 Q144.14 1429.97 147.195 1434.57 Q150.274 1439.16 150.274 1447.91 Q150.274 1456.63 147.195 1461.24 Q144.14 1465.82 138.33 1465.82 Q132.519 1465.82 129.441 1461.24 Q126.385 1456.63 126.385 1447.91 Q126.385 1439.16 129.441 1434.57 Q132.519 1429.97 138.33 1429.97 Z" fill="#000000" fill-rule="evenodd" fill-opacity="1" /><path clip-path="url(#clip420)" d="M63.9319 1112.22 Q60.3208 1112.22 58.4921 1115.78 Q56.6865 1119.32 56.6865 1126.45 Q56.6865 1133.56 58.4921 1137.12 Q60.3208 1140.66 63.9319 1140.66 Q67.5661 1140.66 69.3717 1137.12 Q71.2004 1133.56 71.2004 1126.45 Q71.2004 1119.32 69.3717 1115.78 Q67.5661 1112.22 63.9319 1112.22 M63.9319 1108.51 Q69.742 1108.51 72.7976 1113.12 Q75.8763 1117.7 75.8763 1126.45 Q75.8763 1135.18 72.7976 1139.78 Q69.742 1144.37 63.9319 1144.37 Q58.1217 1144.37 55.043 1139.78 Q51.9875 1135.18 51.9875 1126.45 Q51.9875 1117.7 55.043 1113.12 Q58.1217 1108.51 63.9319 1108.51 Z" fill="#000000" fill-rule="evenodd" fill-opacity="1" /><path clip-path="url(#clip420)" d="M84.0938 1137.82 L88.978 1137.82 L88.978 1143.7 L84.0938 1143.7 L84.0938 1137.82 Z" fill="#000000" fill-rule="evenodd" fill-opacity="1" /><path clip-path="url(#clip420)" d="M103.191 1139.76 L119.51 1139.76 L119.51 1143.7 L97.566 1143.7 L97.566 1139.76 Q100.228 1137.01 104.811 1132.38 Q109.418 1127.72 110.598 1126.38 Q112.844 1123.86 113.723 1122.12 Q114.626 1120.36 114.626 1118.67 Q114.626 1115.92 112.682 1114.18 Q110.76 1112.45 107.658 1112.45 Q105.459 1112.45 103.006 1113.21 Q100.575 1113.97 97.7974 1115.53 L97.7974 1110.8 Q100.621 1109.67 103.075 1109.09 Q105.529 1108.51 107.566 1108.51 Q112.936 1108.51 116.131 1111.2 Q119.325 1113.88 119.325 1118.37 Q119.325 1120.5 118.515 1122.42 Q117.728 1124.32 115.621 1126.91 Q115.043 1127.59 111.941 1130.8 Q108.839 1134 103.191 1139.76 Z" fill="#000000" fill-rule="evenodd" fill-opacity="1" /><path clip-path="url(#clip420)" d="M129.371 1109.14 L147.728 1109.14 L147.728 1113.07 L133.654 1113.07 L133.654 1121.54 Q134.672 1121.2 135.691 1121.03 Q136.709 1120.85 137.728 1120.85 Q143.515 1120.85 146.894 1124.02 Q150.274 1127.19 150.274 1132.61 Q150.274 1138.19 146.802 1141.29 Q143.33 1144.37 137.01 1144.37 Q134.834 1144.37 132.566 1144 Q130.32 1143.63 127.913 1142.89 L127.913 1138.19 Q129.996 1139.32 132.219 1139.88 Q134.441 1140.43 136.918 1140.43 Q140.922 1140.43 143.26 1138.33 Q145.598 1136.22 145.598 1132.61 Q145.598 1129 143.26 1126.89 Q140.922 1124.78 136.918 1124.78 Q135.043 1124.78 133.168 1125.2 Q131.316 1125.62 129.371 1126.5 L129.371 1109.14 Z" fill="#000000" fill-rule="evenodd" fill-opacity="1" /><path clip-path="url(#clip420)" d="M62.9365 790.759 Q59.3254 790.759 57.4967 794.323 Q55.6912 797.865 55.6912 804.995 Q55.6912 812.101 57.4967 815.666 Q59.3254 819.208 62.9365 819.208 Q66.5707 819.208 68.3763 815.666 Q70.205 812.101 70.205 804.995 Q70.205 797.865 68.3763 794.323 Q66.5707 790.759 62.9365 790.759 M62.9365 787.055 Q68.7467 787.055 71.8022 791.661 Q74.8809 796.245 74.8809 804.995 Q74.8809 813.722 71.8022 818.328 Q68.7467 822.911 62.9365 822.911 Q57.1264 822.911 54.0477 818.328 Q50.9921 813.722 50.9921 804.995 Q50.9921 796.245 54.0477 791.661 Q57.1264 787.055 62.9365 787.055 Z" fill="#000000" fill-rule="evenodd" fill-opacity="1" /><path clip-path="url(#clip420)" d="M83.0984 816.36 L87.9827 816.36 L87.9827 822.24 L83.0984 822.24 L83.0984 816.36 Z" fill="#000000" fill-rule="evenodd" fill-opacity="1" /><path clip-path="url(#clip420)" d="M98.2141 787.68 L116.57 787.68 L116.57 791.615 L102.496 791.615 L102.496 800.087 Q103.515 799.74 104.534 799.578 Q105.552 799.393 106.571 799.393 Q112.358 799.393 115.737 802.564 Q119.117 805.735 119.117 811.152 Q119.117 816.731 115.645 819.833 Q112.172 822.911 105.853 822.911 Q103.677 822.911 101.409 822.541 Q99.1632 822.171 96.7558 821.43 L96.7558 816.731 Q98.8391 817.865 101.061 818.421 Q103.284 818.976 105.76 818.976 Q109.765 818.976 112.103 816.87 Q114.441 814.763 114.441 811.152 Q114.441 807.541 112.103 805.435 Q109.765 803.328 105.76 803.328 Q103.885 803.328 102.01 803.745 Q100.159 804.161 98.2141 805.041 L98.2141 787.68 Z" fill="#000000" fill-rule="evenodd" fill-opacity="1" /><path clip-path="url(#clip420)" d="M138.33 790.759 Q134.719 790.759 132.89 794.323 Q131.084 797.865 131.084 804.995 Q131.084 812.101 132.89 815.666 Q134.719 819.208 138.33 819.208 Q141.964 819.208 143.769 815.666 Q145.598 812.101 145.598 804.995 Q145.598 797.865 143.769 794.323 Q141.964 790.759 138.33 790.759 M138.33 787.055 Q144.14 787.055 147.195 791.661 Q150.274 796.245 150.274 804.995 Q150.274 813.722 147.195 818.328 Q144.14 822.911 138.33 822.911 Q132.519 822.911 129.441 818.328 Q126.385 813.722 126.385 804.995 Q126.385 796.245 129.441 791.661 Q132.519 787.055 138.33 787.055 Z" fill="#000000" fill-rule="evenodd" fill-opacity="1" /><path clip-path="url(#clip420)" d="M63.9319 469.302 Q60.3208 469.302 58.4921 472.867 Q56.6865 476.409 56.6865 483.538 Q56.6865 490.645 58.4921 494.209 Q60.3208 497.751 63.9319 497.751 Q67.5661 497.751 69.3717 494.209 Q71.2004 490.645 71.2004 483.538 Q71.2004 476.409 69.3717 472.867 Q67.5661 469.302 63.9319 469.302 M63.9319 465.598 Q69.742 465.598 72.7976 470.205 Q75.8763 474.788 75.8763 483.538 Q75.8763 492.265 72.7976 496.871 Q69.742 501.455 63.9319 501.455 Q58.1217 501.455 55.043 496.871 Q51.9875 492.265 51.9875 483.538 Q51.9875 474.788 55.043 470.205 Q58.1217 465.598 63.9319 465.598 Z" fill="#000000" fill-rule="evenodd" fill-opacity="1" /><path clip-path="url(#clip420)" d="M84.0938 494.904 L88.978 494.904 L88.978 500.783 L84.0938 500.783 L84.0938 494.904 Z" fill="#000000" fill-rule="evenodd" fill-opacity="1" /><path clip-path="url(#clip420)" d="M97.9826 466.223 L120.205 466.223 L120.205 468.214 L107.658 500.783 L102.774 500.783 L114.58 470.159 L97.9826 470.159 L97.9826 466.223 Z" fill="#000000" fill-rule="evenodd" fill-opacity="1" /><path clip-path="url(#clip420)" d="M129.371 466.223 L147.728 466.223 L147.728 470.159 L133.654 470.159 L133.654 478.631 Q134.672 478.284 135.691 478.122 Q136.709 477.936 137.728 477.936 Q143.515 477.936 146.894 481.108 Q150.274 484.279 150.274 489.696 Q150.274 495.274 146.802 498.376 Q143.33 501.455 137.01 501.455 Q134.834 501.455 132.566 501.084 Q130.32 500.714 127.913 499.973 L127.913 495.274 Q129.996 496.408 132.219 496.964 Q134.441 497.52 136.918 497.52 Q140.922 497.52 143.26 495.413 Q145.598 493.307 145.598 489.696 Q145.598 486.084 143.26 483.978 Q140.922 481.872 136.918 481.872 Q135.043 481.872 133.168 482.288 Q131.316 482.705 129.371 483.584 L129.371 466.223 Z" fill="#000000" fill-rule="evenodd" fill-opacity="1" /><path clip-path="url(#clip420)" d="M53.7467 175.392 L61.3856 175.392 L61.3856 149.026 L53.0754 150.693 L53.0754 146.434 L61.3393 144.767 L66.0152 144.767 L66.0152 175.392 L73.654 175.392 L73.654 179.327 L53.7467 179.327 L53.7467 175.392 Z" fill="#000000" fill-rule="evenodd" fill-opacity="1" /><path clip-path="url(#clip420)" d="M83.0984 173.447 L87.9827 173.447 L87.9827 179.327 L83.0984 179.327 L83.0984 173.447 Z" fill="#000000" fill-rule="evenodd" fill-opacity="1" /><path clip-path="url(#clip420)" d="M108.168 147.846 Q104.557 147.846 102.728 151.41 Q100.922 154.952 100.922 162.082 Q100.922 169.188 102.728 172.753 Q104.557 176.295 108.168 176.295 Q111.802 176.295 113.608 172.753 Q115.436 169.188 115.436 162.082 Q115.436 154.952 113.608 151.41 Q111.802 147.846 108.168 147.846 M108.168 144.142 Q113.978 144.142 117.033 148.748 Q120.112 153.332 120.112 162.082 Q120.112 170.808 117.033 175.415 Q113.978 179.998 108.168 179.998 Q102.358 179.998 99.2789 175.415 Q96.2234 170.808 96.2234 162.082 Q96.2234 153.332 99.2789 148.748 Q102.358 144.142 108.168 144.142 Z" fill="#000000" fill-rule="evenodd" fill-opacity="1" /><path clip-path="url(#clip420)" d="M138.33 147.846 Q134.719 147.846 132.89 151.41 Q131.084 154.952 131.084 162.082 Q131.084 169.188 132.89 172.753 Q134.719 176.295 138.33 176.295 Q141.964 176.295 143.769 172.753 Q145.598 169.188 145.598 162.082 Q145.598 154.952 143.769 151.41 Q141.964 147.846 138.33 147.846 M138.33 144.142 Q144.14 144.142 147.195 148.748 Q150.274 153.332 150.274 162.082 Q150.274 170.808 147.195 175.415 Q144.14 179.998 138.33 179.998 Q132.519 179.998 129.441 175.415 Q126.385 170.808 126.385 162.082 Q126.385 153.332 129.441 148.748 Q132.519 144.142 138.33 144.142 Z" fill="#000000" fill-rule="evenodd" fill-opacity="1" /><path clip-path="url(#clip420)" d="M179.769 32.3025 Q179.769 36.8933 176.367 41.1152 Q173.005 45.3371 167.513 47.9194 Q162.061 50.4608 156.2 50.4608 L141.936 50.4608 L136.73 71.4473 Q136.689 71.5703 136.566 72.1031 Q136.443 72.595 136.443 72.8819 Q136.443 73.9066 137.714 74.1526 Q139.025 74.3985 141.936 74.3985 Q143.821 74.3985 144.108 74.7264 Q144.272 74.9314 144.272 75.3003 Q144.272 75.8741 144.108 76.284 Q143.944 76.6529 143.616 76.7759 Q143.329 76.8989 143.124 76.9399 Q142.919 76.9808 142.591 76.9808 Q141.731 76.9808 139.886 76.8989 Q138.083 76.8169 137.14 76.8169 L131.77 76.7349 L121.113 76.9808 Q119.842 76.9808 119.842 75.9561 Q119.842 75.1773 120.17 74.8494 Q120.498 74.4805 120.867 74.4395 Q121.236 74.3985 122.179 74.3985 Q124.228 74.3985 125.458 74.2756 Q126.688 74.1526 127.466 73.9886 Q128.286 73.7837 128.696 73.2098 Q129.147 72.636 129.352 72.1441 Q129.557 71.6112 129.844 70.4226 L141.075 25.3344 Q141.403 23.9817 141.403 23.7768 Q141.403 23.0799 140.993 22.834 Q140.624 22.5471 139.558 22.4241 Q137.509 22.2602 135.951 22.2602 Q134.926 22.2602 134.516 22.2192 Q134.148 22.1782 133.82 21.9732 Q133.533 21.7273 133.533 21.2354 Q133.533 20.4566 133.861 20.1287 Q134.23 19.7598 134.639 19.7188 Q135.049 19.6368 136.033 19.6368 L163.25 19.6368 Q171.079 19.6368 175.424 23.3669 Q179.769 27.0969 179.769 32.3025 M171.981 30.2941 Q171.981 22.2602 160.545 22.2602 L152.511 22.2602 Q149.846 22.2602 149.191 22.752 Q148.535 23.2029 147.961 25.4573 L142.263 48.2883 L154.109 48.2883 Q162.061 48.2883 167.021 43.8205 Q169.275 41.7711 170.628 37.5082 Q171.981 33.2453 171.981 30.2941 Z" fill="#000000" fill-rule="evenodd" fill-opacity="1" /><path clip-path="url(#clip420)" d="M216.779 45.3371 Q216.779 47.5096 215.344 48.9032 Q213.95 50.2968 212.147 50.2968 Q210.589 50.2968 209.769 49.3951 Q208.95 48.4933 208.95 47.3456 Q208.95 45.706 210.22 44.3534 Q211.491 43.0007 213.335 42.7138 Q211.983 41.7301 209.81 41.7301 Q206.244 41.7301 203.088 44.4763 Q201.694 45.747 200.178 48.0834 Q198.661 50.3788 198.374 51.3625 L195.71 62.3067 Q195.464 63.5364 193.948 69.4388 Q192.472 75.3003 192.349 75.5462 Q191.939 76.6939 191.037 77.3088 Q190.136 77.9236 189.234 77.9236 Q188.209 77.9236 187.512 77.3088 Q186.815 76.6939 186.815 75.6282 Q186.815 75.4642 186.938 74.8494 Q187.061 74.2346 187.266 73.3738 Q187.471 72.513 187.553 72.0211 L192.431 52.6332 Q193.333 49.1081 193.538 48.0014 Q193.784 46.8537 193.784 45.5831 Q193.784 43.3696 193.087 42.5499 Q192.39 41.7301 191.16 41.7301 Q189.029 41.7301 187.635 44.2714 Q186.242 46.8127 185.053 51.7314 Q184.684 53.0841 184.438 53.371 Q184.233 53.6579 183.618 53.6579 Q182.593 53.617 182.593 52.7972 Q182.593 52.5922 182.921 51.2806 Q183.249 49.9279 183.864 47.9604 Q184.52 45.952 185.217 44.6813 Q185.627 43.8205 185.996 43.2467 Q186.364 42.6728 187.102 41.7711 Q187.84 40.8693 188.947 40.3774 Q190.054 39.8855 191.406 39.8855 Q194.357 39.8855 196.448 41.6891 Q198.579 43.4926 199.071 46.3209 Q200.096 44.8452 201.367 43.5746 Q202.637 42.2629 204.974 41.0742 Q207.31 39.8855 209.81 39.8855 Q212.926 39.8855 214.852 41.4841 Q216.779 43.0417 216.779 45.3371 Z" fill="#000000" fill-rule="evenodd" fill-opacity="1" /><path clip-path="url(#clip420)" d="M259.004 54.0678 Q259.004 58.5357 257.037 62.9625 Q255.069 67.3484 251.913 70.6275 Q248.798 73.8657 244.699 75.9151 Q240.6 77.9236 236.501 77.9236 Q230.64 77.9236 226.828 73.9476 Q223.057 69.9307 223.057 63.7003 Q223.057 57.8798 226.295 52.3463 Q229.574 46.7717 234.821 43.3286 Q240.067 39.8855 245.56 39.8855 Q251.339 39.8855 255.151 43.7795 Q259.004 47.6735 259.004 54.0678 M252.856 50.7887 Q252.856 46.8127 250.929 44.2714 Q249.003 41.7301 245.478 41.7301 Q244.453 41.7301 243.264 42.058 Q242.076 42.3449 240.518 43.1237 Q239.001 43.9025 237.28 45.5421 Q235.599 47.1406 234.124 49.436 Q232.197 52.4693 230.722 58.0438 Q229.287 63.5773 229.287 66.8975 Q229.287 71.4883 231.418 73.7837 Q233.55 76.0381 236.583 76.0381 Q239.534 76.0381 242.649 73.9886 Q245.806 71.8982 247.978 68.3321 Q250.151 64.6431 251.503 59.2325 Q252.856 53.7809 252.856 50.7887 Z" fill="#000000" fill-rule="evenodd" fill-opacity="1" /><path clip-path="url(#clip420)" d="M294.274 53.289 Q294.274 59.1915 291.282 64.971 Q288.331 70.7095 283.576 74.3165 Q278.862 77.9236 274.026 77.9236 Q269.312 77.9236 266.32 74.3165 Q263.368 70.6685 263.368 64.725 Q263.368 62.6346 263.614 61.159 Q263.86 59.6834 264.721 56.2403 L271.607 28.8594 Q272.796 23.7358 272.796 23.6948 Q272.796 23.2029 272.591 22.957 Q272.427 22.6701 271.443 22.4651 Q270.46 22.2602 268.574 22.2602 Q267.795 22.2602 267.426 22.2192 Q267.098 22.1782 266.812 21.9732 Q266.566 21.7273 266.566 21.2354 Q266.566 20.5386 266.853 20.1697 Q267.18 19.7598 267.426 19.6778 Q267.672 19.5959 268.164 19.5549 Q268.861 19.5139 271.197 19.3089 Q273.534 19.063 275.542 18.899 Q277.551 18.7351 278.411 18.7351 Q278.903 18.7351 279.149 18.981 Q279.436 19.186 279.436 19.4319 L279.477 19.6368 L273.288 44.9272 Q278.166 39.8855 283.125 39.8855 Q288.085 39.8855 291.159 43.6975 Q294.274 47.5096 294.274 53.289 M288.208 49.6 Q288.208 45.706 286.732 43.7385 Q285.298 41.7301 282.92 41.7301 Q280.912 41.7301 278.289 43.2467 Q275.665 44.7633 272.878 48.4523 Q272.345 49.1491 272.14 49.559 Q271.976 49.9689 271.607 51.3625 L269.763 59.1095 Q268.41 64.3971 268.41 67.5943 Q268.41 71.9392 270.009 73.9886 Q271.607 76.0381 274.026 76.0381 Q276.567 76.0381 279.231 73.7837 Q281.896 71.5293 283.945 67.4303 Q285.216 64.725 286.691 58.9046 Q288.208 53.0431 288.208 49.6 Z" fill="#000000" fill-rule="evenodd" fill-opacity="1" /><path clip-path="url(#clip420)" d="M316.629 19.6368 L304.537 68.1681 Q304.045 70.0946 304.045 72.1851 Q304.045 76.0381 306.587 76.0381 Q307.775 76.0381 308.759 75.2593 Q309.743 74.4395 310.481 72.8409 Q311.259 71.2014 311.751 69.6438 Q312.284 68.0862 312.94 65.6678 Q313.145 64.725 313.35 64.4381 Q313.555 64.1512 314.129 64.1512 Q315.153 64.1512 315.153 64.971 Q314.129 70.0127 312.612 73.2098 Q310.399 77.9236 306.3 77.9236 Q303.226 77.9236 300.93 75.7922 Q298.676 73.6197 298.676 70.1766 Q298.676 68.865 299.086 67.3074 L309.661 25.3344 L309.948 23.6948 Q309.948 23.2439 309.784 22.998 Q309.62 22.752 308.636 22.5061 Q307.693 22.2602 305.808 22.2602 Q305.029 22.2602 304.66 22.2192 Q304.332 22.1782 304.004 21.9732 Q303.717 21.7683 303.717 21.3174 Q303.717 20.5796 304.004 20.1697 Q304.332 19.7598 304.578 19.6778 Q304.824 19.5959 305.316 19.5549 Q306.013 19.5139 308.349 19.3089 Q310.686 19.063 312.694 18.899 Q314.703 18.7351 315.563 18.7351 Q316.055 18.7351 316.301 18.981 Q316.588 19.186 316.629 19.4319 L316.629 19.6368 Z" fill="#000000" fill-rule="evenodd" fill-opacity="1" /><path clip-path="url(#clip420)" d="M356.378 67.2664 Q356.706 67.6353 356.706 68.0042 Q356.706 68.3731 355.886 69.4388 Q355.107 70.5045 353.427 71.9392 Q351.746 73.3738 349.574 74.7264 Q347.401 76.0791 344.204 76.9808 Q341.007 77.9236 337.646 77.9236 Q331.62 77.9236 328.013 73.6197 Q324.447 69.3158 324.447 62.7166 Q324.447 58.4947 325.841 54.7647 Q327.235 50.9936 329.489 48.3293 Q331.784 45.665 334.654 43.7385 Q337.564 41.7711 340.597 40.8283 Q343.63 39.8855 346.459 39.8855 Q350.598 39.8855 353.017 41.976 Q355.435 44.0665 355.435 47.0177 Q355.435 47.7145 355.23 48.5753 Q355.066 49.436 354.492 50.7887 Q353.96 52.1413 352.566 53.494 Q351.172 54.8056 349.123 55.6664 Q344.573 57.5929 336.293 57.5929 L331.825 57.5929 Q330.514 62.8805 330.514 66.3236 Q330.514 67.6763 330.76 69.0699 Q331.006 70.4226 331.661 72.1441 Q332.358 73.8657 333.916 74.9724 Q335.514 76.0381 337.81 76.0381 Q338.548 76.0381 339.326 75.9971 Q340.146 75.9561 342.196 75.5052 Q344.286 75.0543 346.131 74.2756 Q347.975 73.4968 350.312 71.8162 Q352.689 70.0946 354.574 67.7583 Q355.23 66.8975 355.681 66.8975 Q356.05 66.8975 356.378 67.2664 M352.648 47.0177 Q352.648 44.7633 350.967 43.2467 Q349.328 41.7301 346.459 41.7301 Q345.557 41.7301 344.45 41.935 Q343.343 42.14 341.499 43.0007 Q339.695 43.8615 338.097 45.2961 Q336.498 46.6898 334.9 49.436 Q333.301 52.1413 332.358 55.7484 L335.801 55.7484 Q336.99 55.7484 337.851 55.7484 Q338.712 55.7074 340.597 55.5435 Q342.524 55.3795 343.917 55.0926 Q345.311 54.7647 347.073 54.1088 Q348.836 53.453 349.943 52.5922 Q351.09 51.6905 351.869 50.2558 Q352.648 48.8212 352.648 47.0177 Z" fill="#000000" fill-rule="evenodd" fill-opacity="1" /><path clip-path="url(#clip420)" d="M430.276 64.971 Q430.276 65.2989 429.907 66.5696 Q429.538 67.8402 428.636 69.8077 Q427.776 71.7752 426.546 73.5787 Q425.357 75.3413 423.39 76.6529 Q421.463 77.9236 419.25 77.9236 Q416.299 77.9236 414.331 75.9561 Q412.364 73.9886 412.364 71.0374 Q412.364 69.4388 413.47 66.4056 Q418.676 52.5512 418.676 47.5915 Q418.676 41.7301 414.126 41.7301 Q411.544 41.7301 409.207 42.7958 Q406.871 43.8615 405.354 45.3371 Q403.838 46.8127 402.649 48.4933 Q401.46 50.1739 400.928 51.2806 Q400.436 52.3873 400.313 52.8791 L395.271 73.1279 Q394.861 74.8494 394.574 75.6692 Q394.287 76.489 393.509 77.1858 Q392.73 77.9236 391.5 77.9236 Q390.475 77.9236 389.737 77.3088 Q389.041 76.6939 389.041 75.6282 Q389.041 75.4642 389.246 74.6035 Q389.451 73.7427 389.737 72.554 Q390.024 71.3653 390.147 70.6685 Q391.623 65.094 391.828 64.3152 L394.164 54.5597 Q395.435 49.723 395.435 47.5915 Q395.435 41.7301 390.885 41.7301 Q388.631 41.7301 386.499 42.5908 Q384.409 43.4106 382.974 44.5583 Q381.54 45.706 380.228 47.3046 Q378.957 48.8622 378.301 49.9279 Q377.687 50.9527 377.195 51.9774 L376.129 56.1583 Q375.883 57.306 374.694 61.7738 L372.85 69.3568 Q371.538 75.0134 371.251 75.5462 Q370.841 76.6939 369.94 77.3088 Q369.038 77.9236 368.136 77.9236 Q367.111 77.9236 366.415 77.3088 Q365.718 76.6939 365.718 75.6282 Q365.718 75.4642 365.841 74.8494 Q365.964 74.2346 366.169 73.3738 Q366.374 72.513 366.456 72.0211 L371.333 52.6332 Q372.235 49.1081 372.44 48.0014 Q372.686 46.8537 372.686 45.5831 Q372.686 41.7301 370.063 41.7301 Q367.931 41.7301 366.538 44.2714 Q365.144 46.8127 363.955 51.7314 Q363.586 53.0841 363.34 53.371 Q363.135 53.6579 362.521 53.6579 Q361.496 53.617 361.496 52.7972 Q361.496 52.5922 361.824 51.2806 Q362.152 49.9689 362.767 48.0014 Q363.422 45.9929 364.119 44.6813 Q364.529 43.8205 364.898 43.2467 Q365.267 42.6728 366.005 41.7711 Q366.743 40.8693 367.849 40.3774 Q368.956 39.8855 370.309 39.8855 Q373.301 39.8855 375.514 41.812 Q377.769 43.7385 378.056 47.1816 Q383.507 39.8855 391.131 39.8855 Q395.435 39.8855 398.017 42.058 Q400.436 44.1484 400.723 48.0014 Q406.379 39.8855 414.413 39.8855 Q419.045 39.8855 421.545 42.3039 Q424.046 44.6813 424.046 48.8622 Q424.046 51.0346 422.939 55.1745 Q421.832 59.2735 421.094 61.3229 Q420.356 63.3724 418.922 67.3074 Q417.405 71.0784 417.405 73.2918 Q417.405 74.7264 417.897 75.3823 Q418.389 76.0381 419.455 76.0381 Q421.094 76.0381 422.529 75.0953 Q423.964 74.1116 424.988 72.513 Q426.054 70.8734 426.751 69.2339 Q427.448 67.5533 427.98 65.6678 Q428.308 64.6431 428.472 64.3971 Q428.677 64.1512 429.251 64.1512 Q430.276 64.1512 430.276 64.971 Z" fill="#000000" fill-rule="evenodd" fill-opacity="1" /><path clip-path="url(#clip420)" d="M456.669 76.9808 Q456.669 75.4642 456.792 75.0134 Q456.956 74.5625 457.611 73.8657 L473.72 55.9124 Q482.533 45.9929 482.533 37.3442 Q482.533 31.7287 479.582 27.7117 Q476.671 23.6948 471.302 23.6948 Q467.613 23.6948 464.498 25.9492 Q461.382 28.2036 459.948 32.2206 Q460.194 32.1386 461.055 32.1386 Q463.145 32.1386 464.293 33.4502 Q465.481 34.7619 465.481 36.5244 Q465.481 38.7788 464.006 39.8855 Q462.571 40.9513 461.137 40.9513 Q460.563 40.9513 459.784 40.8283 Q459.046 40.7053 457.857 39.5576 Q456.669 38.3689 456.669 36.2785 Q456.669 30.417 461.096 25.7442 Q465.563 21.0715 472.368 21.0715 Q480.074 21.0715 485.115 25.6623 Q490.198 30.2121 490.198 37.3442 Q490.198 39.8446 489.419 42.14 Q488.681 44.3944 487.657 46.1569 Q486.673 47.9194 483.968 50.7477 Q481.262 53.576 479.09 55.5844 Q476.917 57.5929 472.04 61.8558 L463.145 70.5045 L478.27 70.5045 Q485.648 70.5045 486.222 69.8487 Q487.042 68.66 488.066 62.3887 L490.198 62.3887 L487.821 76.9808 L456.669 76.9808 Z" fill="#000000" fill-rule="evenodd" fill-opacity="1" /><path clip-path="url(#clip420)" d="M499.51 75.6282 Q498.239 74.2756 498.239 72.513 Q498.239 70.7505 499.51 69.4798 Q500.78 68.1681 502.707 68.1681 Q504.551 68.1681 505.781 69.3978 Q507.052 70.5865 507.052 72.554 Q507.052 74.4805 505.699 75.7512 Q504.387 76.9808 502.707 76.9808 Q500.78 76.9808 499.51 75.6282 Z" fill="#000000" fill-rule="evenodd" fill-opacity="1" /><path clip-path="url(#clip420)" d="M521.338 76.9808 Q521.338 75.4642 521.461 75.0134 Q521.625 74.5625 522.281 73.8657 L538.39 55.9124 Q547.202 45.9929 547.202 37.3442 Q547.202 31.7287 544.251 27.7117 Q541.341 23.6948 535.971 23.6948 Q532.282 23.6948 529.167 25.9492 Q526.052 28.2036 524.617 32.2206 Q524.863 32.1386 525.724 32.1386 Q527.814 32.1386 528.962 33.4502 Q530.151 34.7619 530.151 36.5244 Q530.151 38.7788 528.675 39.8855 Q527.241 40.9513 525.806 40.9513 Q525.232 40.9513 524.453 40.8283 Q523.716 40.7053 522.527 39.5576 Q521.338 38.3689 521.338 36.2785 Q521.338 30.417 525.765 25.7442 Q530.233 21.0715 537.037 21.0715 Q544.743 21.0715 549.785 25.6623 Q554.867 30.2121 554.867 37.3442 Q554.867 39.8446 554.089 42.14 Q553.351 44.3944 552.326 46.1569 Q551.342 47.9194 548.637 50.7477 Q545.932 53.576 543.759 55.5844 Q541.587 57.5929 536.709 61.8558 L527.814 70.5045 L542.939 70.5045 Q550.318 70.5045 550.891 69.8487 Q551.711 68.66 552.736 62.3887 L554.867 62.3887 L552.49 76.9808 L521.338 76.9808 Z" fill="#000000" fill-rule="evenodd" fill-opacity="1" /><path clip-path="url(#clip420)" d="M587.511 75.7102 Q586.199 74.3985 586.199 72.554 Q586.199 70.7095 587.511 69.3978 Q588.822 68.0862 590.667 68.0862 Q592.511 68.0862 593.823 69.3978 Q595.135 70.7095 595.135 72.554 Q595.135 74.3985 593.823 75.7102 Q592.511 76.9808 590.667 76.9808 Q588.822 76.9808 587.511 75.7102 M587.511 48.4113 Q586.199 47.0997 586.199 45.2551 Q586.199 43.4106 587.511 42.099 Q588.822 40.7873 590.667 40.7873 Q592.511 40.7873 593.823 42.099 Q595.135 43.4106 595.135 45.2551 Q595.135 47.0997 593.823 48.4113 Q592.511 49.682 590.667 49.682 Q588.822 49.682 587.511 48.4113 Z" fill="#000000" fill-rule="evenodd" fill-opacity="1" /><path clip-path="url(#clip420)" d="M696.539 23.5718 Q696.539 25.8262 695.104 27.2199 Q693.71 28.6135 691.948 28.6135 Q690.677 28.6135 689.734 27.8347 Q688.833 27.0559 688.833 25.7033 Q688.833 24.3096 689.898 22.834 Q690.964 21.3584 693.382 21.1534 Q691.784 19.6368 689.243 19.6368 Q687.972 19.6368 686.906 20.4566 Q685.881 21.2354 685.308 22.5061 Q684.693 23.8178 683.299 31.2368 Q682.848 33.6552 682.438 35.9916 Q682.028 38.328 681.537 40.7873 L688.505 40.7873 Q689.407 40.7873 689.775 40.8283 Q690.144 40.8693 690.431 41.0742 Q690.759 41.2792 690.759 41.7301 Q690.759 42.8778 690.226 43.1647 Q689.734 43.4106 688.259 43.4106 L681.045 43.4106 L676.003 70.0127 Q675.88 70.7915 675.347 73.2508 Q674.855 75.6692 673.667 79.6451 Q672.478 83.6621 671.289 86.0395 Q670.633 87.3921 669.773 88.6628 Q668.953 89.9744 667.764 91.2861 Q666.576 92.5978 665.018 93.3766 Q663.46 94.1963 661.821 94.1963 Q659.033 94.1963 656.861 92.6387 Q654.689 91.0812 654.689 88.4169 Q654.689 86.1624 656.082 84.7688 Q657.517 83.3752 659.279 83.3752 Q660.55 83.3752 661.452 84.154 Q662.395 84.9328 662.395 86.2854 Q662.395 86.8593 662.19 87.5151 Q661.985 88.1709 661.534 88.9087 Q661.083 89.6875 660.099 90.2204 Q659.115 90.7532 657.763 90.8352 Q659.361 92.3518 661.821 92.3518 Q662.6 92.3518 663.296 92.0239 Q663.993 91.737 664.567 90.9992 Q665.182 90.2614 665.633 89.5236 Q666.084 88.8267 666.535 87.4741 Q666.985 86.1624 667.272 85.1787 Q667.559 84.195 667.928 82.4324 Q668.338 80.6699 668.543 79.6042 Q668.748 78.5794 669.117 76.571 L675.388 43.4106 L669.855 43.4106 Q668.871 43.4106 668.461 43.3696 Q668.092 43.3286 667.805 43.1237 Q667.518 42.8778 667.518 42.3859 Q667.518 41.6071 667.846 41.2792 Q668.215 40.9103 668.625 40.8693 Q669.035 40.7873 670.019 40.7873 L675.839 40.7873 Q677.807 30.417 678.585 27.6298 Q679.487 24.6785 680.881 22.6291 Q682.274 20.5386 683.832 19.5549 Q685.39 18.5711 686.66 18.2022 Q687.972 17.7923 689.243 17.7923 Q692.112 17.7923 694.325 19.3499 Q696.539 20.8665 696.539 23.5718 Z" fill="#000000" fill-rule="evenodd" fill-opacity="1" /><path clip-path="url(#clip420)" d="M707.838 55.9943 Q707.838 41.812 713.126 30.376 Q715.38 25.5803 718.537 21.5633 Q721.693 17.5464 723.783 15.7839 Q725.874 14.0213 726.448 14.0213 Q727.267 14.0213 727.308 14.8411 Q727.308 15.251 726.202 16.2757 Q712.675 30.0481 712.716 55.9943 Q712.716 82.0225 725.874 95.2621 Q727.308 96.6967 727.308 97.1476 Q727.308 97.9674 726.448 97.9674 Q725.874 97.9674 723.865 96.2868 Q721.857 94.6062 718.742 90.7532 Q715.626 86.9002 713.372 82.1865 Q707.838 70.7505 707.838 55.9943 Z" fill="#000000" fill-rule="evenodd" fill-opacity="1" /><path clip-path="url(#clip420)" d="M775.497 45.4191 Q775.497 47.7145 774.062 49.0262 Q772.627 50.2968 770.988 50.2968 Q769.43 50.2968 768.611 49.3951 Q767.791 48.4933 767.791 47.3456 Q767.791 45.788 768.938 44.4354 Q770.086 43.0827 771.808 42.7958 Q770.127 41.7301 767.627 41.7301 Q765.987 41.7301 764.553 42.5908 Q763.159 43.4516 762.298 44.5583 Q761.478 45.665 760.741 47.2636 Q760.044 48.8212 759.757 49.764 Q759.511 50.6657 759.306 51.6495 L756.437 63.1265 Q755.043 68.578 755.043 70.5045 Q755.043 72.8819 756.191 74.4805 Q757.338 76.0381 759.634 76.0381 Q760.536 76.0381 761.56 75.7922 Q762.585 75.5052 763.897 74.7674 Q765.249 73.9886 766.438 72.8409 Q767.668 71.6522 768.856 69.6438 Q770.045 67.6353 770.824 65.053 Q771.07 64.1512 771.89 64.1512 Q772.914 64.1512 772.914 64.971 Q772.914 65.6678 772.341 67.1434 Q771.808 68.578 770.619 70.4635 Q769.471 72.3081 767.955 73.9886 Q766.438 75.6282 764.184 76.7759 Q761.929 77.9236 759.47 77.9236 Q755.945 77.9236 753.608 76.0381 Q751.272 74.1526 750.411 71.5293 Q750.206 71.8982 749.919 72.39 Q749.632 72.8819 748.772 73.9886 Q747.952 75.0543 747.009 75.8741 Q746.066 76.6529 744.591 77.2678 Q743.156 77.9236 741.599 77.9236 Q739.631 77.9236 737.869 77.3497 Q736.147 76.7759 734.917 75.4642 Q733.688 74.1526 733.688 72.3491 Q733.688 70.3406 735.04 68.9469 Q736.434 67.5123 738.319 67.5123 Q739.508 67.5123 740.451 68.2091 Q741.435 68.906 741.435 70.4226 Q741.435 72.1031 740.287 73.3738 Q739.139 74.6445 737.5 74.9724 Q739.18 76.0381 741.681 76.0381 Q744.386 76.0381 746.517 73.6607 Q748.649 71.2833 749.673 67.3074 Q752.215 57.7569 753.199 53.494 Q754.182 49.1901 754.182 47.3456 Q754.182 45.624 753.731 44.4354 Q753.281 43.2467 752.502 42.7138 Q751.764 42.14 751.067 41.935 Q750.411 41.7301 749.673 41.7301 Q748.444 41.7301 747.05 42.2219 Q745.697 42.7138 744.058 43.8615 Q742.459 44.9682 740.943 47.2636 Q739.426 49.559 738.401 52.7152 Q738.196 53.6579 737.295 53.6579 Q736.311 53.617 736.311 52.7972 Q736.311 52.1004 736.844 50.6657 Q737.418 49.1901 738.565 47.3456 Q739.754 45.5011 741.271 43.8615 Q742.828 42.1809 745.083 41.0332 Q747.378 39.8855 749.837 39.8855 Q750.944 39.8855 752.01 40.1315 Q753.117 40.3364 754.428 40.9513 Q755.781 41.5661 756.97 42.9188 Q758.158 44.2714 758.896 46.2389 Q759.388 45.2961 760.044 44.3944 Q760.741 43.4926 761.806 42.3859 Q762.913 41.2382 764.43 40.5824 Q765.987 39.8855 767.709 39.8855 Q769.389 39.8855 771.029 40.3364 Q772.668 40.7463 774.062 42.099 Q775.497 43.4106 775.497 45.4191 Z" fill="#000000" fill-rule="evenodd" fill-opacity="1" /><path clip-path="url(#clip420)" d="M783.578 97.1476 Q783.578 96.7377 784.643 95.7129 Q798.17 81.9405 798.17 55.9943 Q798.17 29.9661 785.176 16.8086 Q783.578 15.292 783.578 14.8411 Q783.578 14.0213 784.397 14.0213 Q784.971 14.0213 786.98 15.7019 Q789.029 17.3824 792.103 21.2354 Q795.219 25.0884 797.514 29.8022 Q803.047 41.2382 803.047 55.9943 Q803.047 70.1766 797.76 81.6126 Q795.505 86.4084 792.349 90.4253 Q789.193 94.4423 787.103 96.2048 Q785.012 97.9674 784.397 97.9674 Q783.578 97.9674 783.578 97.1476 Z" fill="#000000" fill-rule="evenodd" fill-opacity="1" /><path clip-path="url(#clip420)" d="M839.101 64.2332 Q839.183 63.2084 840.782 63.2084 L892.223 63.2084 Q894.642 63.2084 894.683 64.1512 Q894.683 65.1759 892.387 65.1349 L841.356 65.1349 Q839.101 65.1759 839.101 64.2332 M839.101 47.8375 Q839.101 46.8127 840.864 46.8537 L892.141 46.8537 Q894.642 46.8537 894.683 47.8375 Q894.683 48.7802 892.551 48.7802 L840.782 48.7802 Q839.101 48.7802 839.101 47.8375 Z" fill="#000000" fill-rule="evenodd" fill-opacity="1" /><path clip-path="url(#clip420)" d="M968.87 45.4191 Q968.87 47.7145 967.436 49.0262 Q966.001 50.2968 964.361 50.2968 Q962.804 50.2968 961.984 49.3951 Q961.164 48.4933 961.164 47.3456 Q961.164 45.788 962.312 44.4354 Q963.46 43.0827 965.181 42.7958 Q963.501 41.7301 961 41.7301 Q959.361 41.7301 957.926 42.5908 Q956.533 43.4516 955.672 44.5583 Q954.852 45.665 954.114 47.2636 Q953.417 48.8212 953.13 49.764 Q952.884 50.6657 952.68 51.6495 L949.81 63.1265 Q948.417 68.578 948.417 70.5045 Q948.417 72.8819 949.564 74.4805 Q950.712 76.0381 953.007 76.0381 Q953.909 76.0381 954.934 75.7922 Q955.959 75.5052 957.27 74.7674 Q958.623 73.9886 959.812 72.8409 Q961.041 71.6522 962.23 69.6438 Q963.419 67.6353 964.198 65.053 Q964.443 64.1512 965.263 64.1512 Q966.288 64.1512 966.288 64.971 Q966.288 65.6678 965.714 67.1434 Q965.181 68.578 963.993 70.4635 Q962.845 72.3081 961.328 73.9886 Q959.812 75.6282 957.557 76.7759 Q955.303 77.9236 952.843 77.9236 Q949.318 77.9236 946.982 76.0381 Q944.646 74.1526 943.785 71.5293 Q943.58 71.8982 943.293 72.39 Q943.006 72.8819 942.145 73.9886 Q941.326 75.0543 940.383 75.8741 Q939.44 76.6529 937.964 77.2678 Q936.53 77.9236 934.972 77.9236 Q933.005 77.9236 931.242 77.3497 Q929.521 76.7759 928.291 75.4642 Q927.061 74.1526 927.061 72.3491 Q927.061 70.3406 928.414 68.9469 Q929.808 67.5123 931.693 67.5123 Q932.882 67.5123 933.824 68.2091 Q934.808 68.906 934.808 70.4226 Q934.808 72.1031 933.661 73.3738 Q932.513 74.6445 930.873 74.9724 Q932.554 76.0381 935.054 76.0381 Q937.759 76.0381 939.891 73.6607 Q942.022 71.2833 943.047 67.3074 Q945.588 57.7569 946.572 53.494 Q947.556 49.1901 947.556 47.3456 Q947.556 45.624 947.105 44.4354 Q946.654 43.2467 945.875 42.7138 Q945.138 42.14 944.441 41.935 Q943.785 41.7301 943.047 41.7301 Q941.817 41.7301 940.424 42.2219 Q939.071 42.7138 937.432 43.8615 Q935.833 44.9682 934.316 47.2636 Q932.8 49.559 931.775 52.7152 Q931.57 53.6579 930.668 53.6579 Q929.685 53.617 929.685 52.7972 Q929.685 52.1004 930.217 50.6657 Q930.791 49.1901 931.939 47.3456 Q933.128 45.5011 934.644 43.8615 Q936.202 42.1809 938.456 41.0332 Q940.752 39.8855 943.211 39.8855 Q944.318 39.8855 945.383 40.1315 Q946.49 40.3364 947.802 40.9513 Q949.154 41.5661 950.343 42.9188 Q951.532 44.2714 952.27 46.2389 Q952.762 45.2961 953.417 44.3944 Q954.114 43.4926 955.18 42.3859 Q956.287 41.2382 957.803 40.5824 Q959.361 39.8855 961.082 39.8855 Q962.763 39.8855 964.402 40.3364 Q966.042 40.7463 967.436 42.099 Q968.87 43.4106 968.87 45.4191 Z" fill="#000000" fill-rule="evenodd" fill-opacity="1" /><path clip-path="url(#clip420)" d="M977.427 51.8752 Q977.427 50.8136 977.514 50.498 Q977.628 50.1824 978.087 49.6946 L989.364 37.1273 Q995.532 30.1837 995.532 24.1296 Q995.532 20.1987 993.467 17.3868 Q991.429 14.575 987.671 14.575 Q985.088 14.575 982.908 16.1531 Q980.727 17.7312 979.723 20.543 Q979.895 20.4856 980.498 20.4856 Q981.961 20.4856 982.764 21.4038 Q983.596 22.3219 983.596 23.5557 Q983.596 25.1338 982.563 25.9085 Q981.559 26.6545 980.555 26.6545 Q980.153 26.6545 979.608 26.5684 Q979.092 26.4824 978.26 25.679 Q977.427 24.8469 977.427 23.3836 Q977.427 19.2805 980.526 16.0096 Q983.654 12.7387 988.417 12.7387 Q993.811 12.7387 997.34 15.9522 Q1000.9 19.1371 1000.9 24.1296 Q1000.9 25.8798 1000.35 27.4866 Q999.836 29.0647 999.119 30.2985 Q998.43 31.5322 996.537 33.512 Q994.643 35.4918 993.122 36.8977 Q991.602 38.3037 988.187 41.2877 L981.961 47.3418 L992.548 47.3418 Q997.713 47.3418 998.115 46.8827 Q998.689 46.0506 999.406 41.6607 L1000.9 41.6607 L999.234 51.8752 L977.427 51.8752 Z" fill="#000000" fill-rule="evenodd" fill-opacity="1" /><path clip-path="url(#clip420)" d="M1088.34 54.8056 Q1088.83 55.2975 1088.83 55.9943 Q1088.83 56.6912 1088.34 57.183 Q1087.85 57.6749 1087.15 57.6749 L1034.6 57.6749 Q1033.9 57.6749 1033.41 57.183 Q1032.92 56.6912 1032.92 55.9943 Q1032.92 55.2975 1033.41 54.8056 Q1033.9 54.3138 1034.6 54.3138 L1087.15 54.3138 Q1087.85 54.3138 1088.34 54.8056 Z" fill="#000000" fill-rule="evenodd" fill-opacity="1" /><path clip-path="url(#clip420)" d="M1120.88 76.9808 Q1120.88 75.4642 1121 75.0134 Q1121.17 74.5625 1121.82 73.8657 L1137.93 55.9124 Q1146.74 45.9929 1146.74 37.3442 Q1146.74 31.7287 1143.79 27.7117 Q1140.88 23.6948 1135.51 23.6948 Q1131.82 23.6948 1128.71 25.9492 Q1125.59 28.2036 1124.16 32.2206 Q1124.41 32.1386 1125.27 32.1386 Q1127.36 32.1386 1128.5 33.4502 Q1129.69 34.7619 1129.69 36.5244 Q1129.69 38.7788 1128.22 39.8855 Q1126.78 40.9513 1125.35 40.9513 Q1124.77 40.9513 1124 40.8283 Q1123.26 40.7053 1122.07 39.5576 Q1120.88 38.3689 1120.88 36.2785 Q1120.88 30.417 1125.31 25.7442 Q1129.77 21.0715 1136.58 21.0715 Q1144.29 21.0715 1149.33 25.6623 Q1154.41 30.2121 1154.41 37.3442 Q1154.41 39.8446 1153.63 42.14 Q1152.89 44.3944 1151.87 46.1569 Q1150.88 47.9194 1148.18 50.7477 Q1145.47 53.576 1143.3 55.5844 Q1141.13 57.5929 1136.25 61.8558 L1127.36 70.5045 L1142.48 70.5045 Q1149.86 70.5045 1150.43 69.8487 Q1151.25 68.66 1152.28 62.3887 L1154.41 62.3887 L1152.03 76.9808 L1120.88 76.9808 Z" fill="#000000" fill-rule="evenodd" fill-opacity="1" /><path clip-path="url(#clip420)" d="M1202.92 45.4191 Q1202.92 47.7145 1201.48 49.0262 Q1200.05 50.2968 1198.41 50.2968 Q1196.85 50.2968 1196.03 49.3951 Q1195.21 48.4933 1195.21 47.3456 Q1195.21 45.788 1196.36 44.4354 Q1197.5 43.0827 1199.23 42.7958 Q1197.55 41.7301 1195.05 41.7301 Q1193.41 41.7301 1191.97 42.5908 Q1190.58 43.4516 1189.72 44.5583 Q1188.9 45.665 1188.16 47.2636 Q1187.46 48.8212 1187.18 49.764 Q1186.93 50.6657 1186.72 51.6495 L1183.86 63.1265 Q1182.46 68.578 1182.46 70.5045 Q1182.46 72.8819 1183.61 74.4805 Q1184.76 76.0381 1187.05 76.0381 Q1187.95 76.0381 1188.98 75.7922 Q1190 75.5052 1191.32 74.7674 Q1192.67 73.9886 1193.86 72.8409 Q1195.09 71.6522 1196.28 69.6438 Q1197.46 67.6353 1198.24 65.053 Q1198.49 64.1512 1199.31 64.1512 Q1200.33 64.1512 1200.33 64.971 Q1200.33 65.6678 1199.76 67.1434 Q1199.23 68.578 1198.04 70.4635 Q1196.89 72.3081 1195.37 73.9886 Q1193.86 75.6282 1191.6 76.7759 Q1189.35 77.9236 1186.89 77.9236 Q1183.36 77.9236 1181.03 76.0381 Q1178.69 74.1526 1177.83 71.5293 Q1177.63 71.8982 1177.34 72.39 Q1177.05 72.8819 1176.19 73.9886 Q1175.37 75.0543 1174.43 75.8741 Q1173.49 76.6529 1172.01 77.2678 Q1170.57 77.9236 1169.02 77.9236 Q1167.05 77.9236 1165.29 77.3497 Q1163.57 76.7759 1162.34 75.4642 Q1161.11 74.1526 1161.11 72.3491 Q1161.11 70.3406 1162.46 68.9469 Q1163.85 67.5123 1165.74 67.5123 Q1166.93 67.5123 1167.87 68.2091 Q1168.85 68.906 1168.85 70.4226 Q1168.85 72.1031 1167.71 73.3738 Q1166.56 74.6445 1164.92 74.9724 Q1166.6 76.0381 1169.1 76.0381 Q1171.8 76.0381 1173.94 73.6607 Q1176.07 71.2833 1177.09 67.3074 Q1179.63 57.7569 1180.62 53.494 Q1181.6 49.1901 1181.6 47.3456 Q1181.6 45.624 1181.15 44.4354 Q1180.7 43.2467 1179.92 42.7138 Q1179.18 42.14 1178.49 41.935 Q1177.83 41.7301 1177.09 41.7301 Q1175.86 41.7301 1174.47 42.2219 Q1173.12 42.7138 1171.48 43.8615 Q1169.88 44.9682 1168.36 47.2636 Q1166.84 49.559 1165.82 52.7152 Q1165.62 53.6579 1164.71 53.6579 Q1163.73 53.617 1163.73 52.7972 Q1163.73 52.1004 1164.26 50.6657 Q1164.84 49.1901 1165.98 47.3456 Q1167.17 45.5011 1168.69 43.8615 Q1170.25 42.1809 1172.5 41.0332 Q1174.8 39.8855 1177.26 39.8855 Q1178.36 39.8855 1179.43 40.1315 Q1180.54 40.3364 1181.85 40.9513 Q1183.2 41.5661 1184.39 42.9188 Q1185.58 44.2714 1186.31 46.2389 Q1186.81 45.2961 1187.46 44.3944 Q1188.16 43.4926 1189.23 42.3859 Q1190.33 41.2382 1191.85 40.5824 Q1193.41 39.8855 1195.13 39.8855 Q1196.81 39.8855 1198.45 40.3364 Q1200.09 40.7463 1201.48 42.099 Q1202.92 43.4106 1202.92 45.4191 Z" fill="#000000" fill-rule="evenodd" fill-opacity="1" /><path clip-path="url(#clip420)" d="M1240.58 67.2664 Q1240.9 67.6353 1240.9 68.0042 Q1240.9 68.3731 1240.08 69.4388 Q1239.3 70.5045 1237.62 71.9392 Q1235.94 73.3738 1233.77 74.7264 Q1231.6 76.0791 1228.4 76.9808 Q1225.2 77.9236 1221.84 77.9236 Q1215.82 77.9236 1212.21 73.6197 Q1208.64 69.3158 1208.64 62.7166 Q1208.64 58.4947 1210.04 54.7647 Q1211.43 50.9936 1213.69 48.3293 Q1215.98 45.665 1218.85 43.7385 Q1221.76 41.7711 1224.79 40.8283 Q1227.83 39.8855 1230.66 39.8855 Q1234.8 39.8855 1237.21 41.976 Q1239.63 44.0665 1239.63 47.0177 Q1239.63 47.7145 1239.43 48.5753 Q1239.26 49.436 1238.69 50.7887 Q1238.16 52.1413 1236.76 53.494 Q1235.37 54.8056 1233.32 55.6664 Q1228.77 57.5929 1220.49 57.5929 L1216.02 57.5929 Q1214.71 62.8805 1214.71 66.3236 Q1214.71 67.6763 1214.96 69.0699 Q1215.2 70.4226 1215.86 72.1441 Q1216.56 73.8657 1218.11 74.9724 Q1219.71 76.0381 1222.01 76.0381 Q1222.74 76.0381 1223.52 75.9971 Q1224.34 75.9561 1226.39 75.5052 Q1228.48 75.0543 1230.33 74.2756 Q1232.17 73.4968 1234.51 71.8162 Q1236.89 70.0946 1238.77 67.7583 Q1239.43 66.8975 1239.88 66.8975 Q1240.25 66.8975 1240.58 67.2664 M1236.84 47.0177 Q1236.84 44.7633 1235.16 43.2467 Q1233.52 41.7301 1230.66 41.7301 Q1229.75 41.7301 1228.65 41.935 Q1227.54 42.14 1225.7 43.0007 Q1223.89 43.8615 1222.29 45.2961 Q1220.7 46.6898 1219.1 49.436 Q1217.5 52.1413 1216.56 55.7484 L1220 55.7484 Q1221.19 55.7484 1222.05 55.7484 Q1222.91 55.7074 1224.79 55.5435 Q1226.72 55.3795 1228.11 55.0926 Q1229.51 54.7647 1231.27 54.1088 Q1233.03 53.453 1234.14 52.5922 Q1235.29 51.6905 1236.07 50.2558 Q1236.84 48.8212 1236.84 47.0177 Z" fill="#000000" fill-rule="evenodd" fill-opacity="1" /><path clip-path="url(#clip420)" d="M1288.33 31.7818 Q1288.68 32.1261 1288.68 32.6139 Q1288.68 33.1017 1288.33 33.446 Q1287.99 33.7903 1287.5 33.7903 L1250.72 33.7903 Q1250.23 33.7903 1249.89 33.446 Q1249.54 33.1017 1249.54 32.6139 Q1249.54 32.1261 1249.89 31.7818 Q1250.23 31.4375 1250.72 31.4375 L1287.5 31.4375 Q1287.99 31.4375 1288.33 31.7818 Z" fill="#000000" fill-rule="evenodd" fill-opacity="1" /><path clip-path="url(#clip420)" d="M1324.08 25.2112 Q1324.08 26.818 1323.07 27.7362 Q1322.07 28.6256 1320.92 28.6256 Q1319.83 28.6256 1319.26 27.9944 Q1318.68 27.3632 1318.68 26.5598 Q1318.68 25.4694 1319.49 24.5226 Q1320.29 23.5757 1321.49 23.3749 Q1320.32 22.6289 1318.57 22.6289 Q1317.42 22.6289 1316.42 23.2314 Q1315.44 23.834 1314.84 24.6087 Q1314.26 25.3834 1313.75 26.5024 Q1313.26 27.5927 1313.06 28.2526 Q1312.89 28.8839 1312.74 29.5725 L1310.73 37.6064 Q1309.76 41.4225 1309.76 42.771 Q1309.76 44.4352 1310.56 45.5542 Q1311.37 46.6445 1312.97 46.6445 Q1313.6 46.6445 1314.32 46.4724 Q1315.04 46.2715 1315.96 45.755 Q1316.9 45.2099 1317.74 44.4065 Q1318.6 43.5744 1319.43 42.1685 Q1320.26 40.7625 1320.81 38.9549 Q1320.98 38.3237 1321.55 38.3237 Q1322.27 38.3237 1322.27 38.8975 Q1322.27 39.3853 1321.87 40.4182 Q1321.49 41.4225 1320.66 42.7423 Q1319.86 44.0335 1318.8 45.2099 Q1317.74 46.3576 1316.16 47.161 Q1314.58 47.9644 1312.86 47.9644 Q1310.39 47.9644 1308.76 46.6445 Q1307.12 45.3247 1306.52 43.4883 Q1306.37 43.7466 1306.17 44.0909 Q1305.97 44.4352 1305.37 45.2099 Q1304.8 45.9559 1304.14 46.5297 Q1303.48 47.0749 1302.44 47.5053 Q1301.44 47.9644 1300.35 47.9644 Q1298.97 47.9644 1297.74 47.5627 Q1296.53 47.161 1295.67 46.2428 Q1294.81 45.3247 1294.81 44.0622 Q1294.81 42.6563 1295.76 41.6807 Q1296.73 40.6765 1298.05 40.6765 Q1298.88 40.6765 1299.54 41.1642 Q1300.23 41.652 1300.23 42.7136 Q1300.23 43.89 1299.43 44.7795 Q1298.63 45.669 1297.48 45.8985 Q1298.66 46.6445 1300.41 46.6445 Q1302.3 46.6445 1303.79 44.9803 Q1305.28 43.3162 1306 40.533 Q1307.78 33.8477 1308.47 30.8636 Q1309.16 27.8509 1309.16 26.5598 Q1309.16 25.3547 1308.84 24.5226 Q1308.53 23.6905 1307.98 23.3175 Q1307.46 22.9158 1306.98 22.7724 Q1306.52 22.6289 1306 22.6289 Q1305.14 22.6289 1304.16 22.9732 Q1303.22 23.3175 1302.07 24.1209 Q1300.95 24.8956 1299.89 26.5024 Q1298.83 28.1092 1298.11 30.3185 Q1297.97 30.9784 1297.34 30.9784 Q1296.65 30.9497 1296.65 30.3759 Q1296.65 29.8881 1297.02 28.8839 Q1297.42 27.8509 1298.22 26.5598 Q1299.06 25.2686 1300.12 24.1209 Q1301.21 22.9445 1302.79 22.1411 Q1304.39 21.3377 1306.12 21.3377 Q1306.89 21.3377 1307.64 21.5099 Q1308.41 21.6533 1309.33 22.0837 Q1310.28 22.5141 1311.11 23.461 Q1311.94 24.4078 1312.46 25.7851 Q1312.8 25.1251 1313.26 24.4939 Q1313.75 23.8627 1314.49 23.088 Q1315.27 22.2846 1316.33 21.8255 Q1317.42 21.3377 1318.63 21.3377 Q1319.8 21.3377 1320.95 21.6533 Q1322.1 21.9403 1323.07 22.8871 Q1324.08 23.8053 1324.08 25.2112 Z" fill="#000000" fill-rule="evenodd" fill-opacity="1" /><path clip-path="url(#clip420)" d="M1362.26 57.0191 Q1360.34 57.0191 1360.34 55.9943 Q1360.34 54.9696 1362.35 54.9696 Q1362.59 54.9696 1363 55.0106 Q1363.45 55.0516 1363.53 55.0516 L1387.19 55.0516 L1387.19 31.3188 Q1387.19 31.2368 1387.14 30.8679 Q1387.1 30.458 1387.1 30.2121 Q1387.1 28.2036 1388.09 28.2036 Q1389.11 28.2036 1389.11 30.2121 L1389.11 55.0516 L1412.8 55.0516 Q1412.89 55.0516 1413.3 55.0106 Q1413.71 54.9696 1413.95 54.9696 Q1415.88 54.9696 1415.88 55.9943 Q1415.92 57.0191 1413.87 57.0191 Q1413.62 57.0191 1413.25 56.9781 Q1412.89 56.9371 1412.8 56.9371 L1389.11 56.9371 L1389.11 81.8586 Q1389.11 83.7851 1388.09 83.7851 Q1387.1 83.7851 1387.1 81.7766 Q1387.1 81.5307 1387.14 81.1208 Q1387.19 80.7519 1387.19 80.6699 L1387.19 56.9371 L1363.53 56.9371 Q1363.45 56.9371 1362.96 56.9781 Q1362.51 57.0191 1362.26 57.0191 Z" fill="#000000" fill-rule="evenodd" fill-opacity="1" /><path clip-path="url(#clip420)" d="M1480.23 67.2664 Q1480.56 67.6353 1480.56 68.0042 Q1480.56 68.3731 1479.74 69.4388 Q1478.96 70.5045 1477.28 71.9392 Q1475.6 73.3738 1473.42 74.7264 Q1471.25 76.0791 1468.05 76.9808 Q1464.86 77.9236 1461.5 77.9236 Q1455.47 77.9236 1451.86 73.6197 Q1448.3 69.3158 1448.3 62.7166 Q1448.3 58.4947 1449.69 54.7647 Q1451.08 50.9936 1453.34 48.3293 Q1455.63 45.665 1458.5 43.7385 Q1461.41 41.7711 1464.45 40.8283 Q1467.48 39.8855 1470.31 39.8855 Q1474.45 39.8855 1476.87 41.976 Q1479.29 44.0665 1479.29 47.0177 Q1479.29 47.7145 1479.08 48.5753 Q1478.92 49.436 1478.34 50.7887 Q1477.81 52.1413 1476.42 53.494 Q1475.02 54.8056 1472.97 55.6664 Q1468.42 57.5929 1460.14 57.5929 L1455.68 57.5929 Q1454.36 62.8805 1454.36 66.3236 Q1454.36 67.6763 1454.61 69.0699 Q1454.86 70.4226 1455.51 72.1441 Q1456.21 73.8657 1457.77 74.9724 Q1459.36 76.0381 1461.66 76.0381 Q1462.4 76.0381 1463.18 75.9971 Q1464 75.9561 1466.05 75.5052 Q1468.14 75.0543 1469.98 74.2756 Q1471.83 73.4968 1474.16 71.8162 Q1476.54 70.0946 1478.42 67.7583 Q1479.08 66.8975 1479.53 66.8975 Q1479.9 66.8975 1480.23 67.2664 M1476.5 47.0177 Q1476.5 44.7633 1474.82 43.2467 Q1473.18 41.7301 1470.31 41.7301 Q1469.41 41.7301 1468.3 41.935 Q1467.19 42.14 1465.35 43.0007 Q1463.55 43.8615 1461.95 45.2961 Q1460.35 46.6898 1458.75 49.436 Q1457.15 52.1413 1456.21 55.7484 L1459.65 55.7484 Q1460.84 55.7484 1461.7 55.7484 Q1462.56 55.7074 1464.45 55.5435 Q1466.37 55.3795 1467.77 55.0926 Q1469.16 54.7647 1470.92 54.1088 Q1472.69 53.453 1473.79 52.5922 Q1474.94 51.6905 1475.72 50.2558 Q1476.5 48.8212 1476.5 47.0177 Z" fill="#000000" fill-rule="evenodd" fill-opacity="1" /><path clip-path="url(#clip420)" d="M1527.99 35.6963 Q1528.33 36.0406 1528.33 36.5284 Q1528.33 37.0162 1527.99 37.3605 Q1527.64 37.7048 1527.16 37.7048 L1490.37 37.7048 Q1489.88 37.7048 1489.54 37.3605 Q1489.19 37.0162 1489.19 36.5284 Q1489.19 36.0406 1489.54 35.6963 Q1489.88 35.352 1490.37 35.352 L1527.16 35.352 Q1527.64 35.352 1527.99 35.6963 Z" fill="#000000" fill-rule="evenodd" fill-opacity="1" /><path clip-path="url(#clip420)" d="M1534.46 51.219 Q1534.46 50.1573 1534.55 49.8417 Q1534.66 49.5261 1535.12 49.0383 L1546.4 36.471 Q1552.57 29.5274 1552.57 23.4733 Q1552.57 19.5425 1550.5 16.7306 Q1548.47 13.9187 1544.71 13.9187 Q1542.12 13.9187 1539.94 15.4968 Q1537.76 17.0749 1536.76 19.8868 Q1536.93 19.8294 1537.53 19.8294 Q1539 19.8294 1539.8 20.7475 Q1540.63 21.6657 1540.63 22.8995 Q1540.63 24.4776 1539.6 25.2523 Q1538.6 25.9983 1537.59 25.9983 Q1537.19 25.9983 1536.64 25.9122 Q1536.13 25.8261 1535.3 25.0227 Q1534.46 24.1906 1534.46 22.7273 Q1534.46 18.6243 1537.56 15.3534 Q1540.69 12.0824 1545.45 12.0824 Q1550.85 12.0824 1554.38 15.296 Q1557.93 18.4808 1557.93 23.4733 Q1557.93 25.2236 1557.39 26.8303 Q1556.87 28.4084 1556.16 29.6422 Q1555.47 30.876 1553.57 32.8558 Q1551.68 34.8356 1550.16 36.2415 Q1548.64 37.6474 1545.22 40.6314 L1539 46.6856 L1549.58 46.6856 Q1554.75 46.6856 1555.15 46.2265 Q1555.72 45.3944 1556.44 41.0044 L1557.93 41.0044 L1556.27 51.219 L1534.46 51.219 Z" fill="#000000" fill-rule="evenodd" fill-opacity="1" /><path clip-path="url(#clip420)" d="M1591.89 29.1257 Q1591.89 30.7325 1590.88 31.6507 Q1589.88 32.5402 1588.73 32.5402 Q1587.64 32.5402 1587.07 31.9089 Q1586.49 31.2777 1586.49 30.4743 Q1586.49 29.384 1587.3 28.4371 Q1588.1 27.4903 1589.31 27.2894 Q1588.13 26.5434 1586.38 26.5434 Q1585.23 26.5434 1584.23 27.146 Q1583.25 27.7485 1582.65 28.5232 Q1582.08 29.2979 1581.56 30.4169 Q1581.07 31.5072 1580.87 32.1672 Q1580.7 32.7984 1580.55 33.487 L1578.55 41.5209 Q1577.57 45.337 1577.57 46.6856 Q1577.57 48.3497 1578.37 49.4687 Q1579.18 50.559 1580.78 50.559 Q1581.42 50.559 1582.13 50.3869 Q1582.85 50.186 1583.77 49.6696 Q1584.72 49.1244 1585.55 48.321 Q1586.41 47.4889 1587.24 46.083 Q1588.07 44.6771 1588.62 42.8695 Q1588.79 42.2382 1589.36 42.2382 Q1590.08 42.2382 1590.08 42.8121 Q1590.08 43.2998 1589.68 44.3328 Q1589.31 45.337 1588.47 46.6569 Q1587.67 47.948 1586.61 49.1244 Q1585.55 50.2721 1583.97 51.0755 Q1582.39 51.8789 1580.67 51.8789 Q1578.2 51.8789 1576.57 50.559 Q1574.93 49.2392 1574.33 47.4029 Q1574.19 47.6611 1573.98 48.0054 Q1573.78 48.3497 1573.18 49.1244 Q1572.61 49.8704 1571.95 50.4443 Q1571.29 50.9894 1570.25 51.4198 Q1569.25 51.8789 1568.16 51.8789 Q1566.78 51.8789 1565.55 51.4772 Q1564.34 51.0755 1563.48 50.1573 Q1562.62 49.2392 1562.62 47.9767 Q1562.62 46.5708 1563.57 45.5952 Q1564.54 44.591 1565.86 44.591 Q1566.7 44.591 1567.36 45.0788 Q1568.04 45.5665 1568.04 46.6282 Q1568.04 47.8046 1567.24 48.694 Q1566.44 49.5835 1565.29 49.813 Q1566.47 50.559 1568.22 50.559 Q1570.11 50.559 1571.6 48.8949 Q1573.09 47.2307 1573.81 44.4475 Q1575.59 37.7622 1576.28 34.7782 Q1576.97 31.7655 1576.97 30.4743 Q1576.97 29.2692 1576.65 28.4371 Q1576.34 27.605 1575.79 27.232 Q1575.28 26.8303 1574.79 26.6869 Q1574.33 26.5434 1573.81 26.5434 Q1572.95 26.5434 1571.98 26.8877 Q1571.03 27.232 1569.88 28.0354 Q1568.76 28.8101 1567.7 30.4169 Q1566.64 32.0237 1565.92 34.233 Q1565.78 34.8929 1565.15 34.8929 Q1564.46 34.8642 1564.46 34.2904 Q1564.46 33.8026 1564.83 32.7984 Q1565.23 31.7655 1566.04 30.4743 Q1566.87 29.1831 1567.93 28.0354 Q1569.02 26.859 1570.6 26.0557 Q1572.21 25.2523 1573.93 25.2523 Q1574.7 25.2523 1575.45 25.4244 Q1576.22 25.5679 1577.14 25.9983 Q1578.09 26.4287 1578.92 27.3755 Q1579.75 28.3224 1580.27 29.6996 Q1580.61 29.0397 1581.07 28.4084 Q1581.56 27.7772 1582.31 27.0025 Q1583.08 26.1991 1584.14 25.74 Q1585.23 25.2523 1586.44 25.2523 Q1587.61 25.2523 1588.76 25.5679 Q1589.91 25.8548 1590.88 26.8017 Q1591.89 27.7198 1591.89 29.1257 Z" fill="#000000" fill-rule="evenodd" fill-opacity="1" /><path clip-path="url(#clip420)" d="M1628.15 64.2332 Q1628.23 63.2084 1629.83 63.2084 L1681.27 63.2084 Q1683.69 63.2084 1683.73 64.1512 Q1683.73 65.1759 1681.44 65.1349 L1630.4 65.1349 Q1628.15 65.1759 1628.15 64.2332 M1628.15 47.8375 Q1628.15 46.8127 1629.91 46.8537 L1681.19 46.8537 Q1683.69 46.8537 1683.73 47.8375 Q1683.73 48.7802 1681.6 48.7802 L1629.83 48.7802 Q1628.15 48.7802 1628.15 47.8375 Z" fill="#000000" fill-rule="evenodd" fill-opacity="1" /><path clip-path="url(#clip420)" d="M1716.11 50.1329 Q1716.11 37.7951 1719.22 31.0729 Q1723.57 21.0715 1733.82 21.0715 Q1735.99 21.0715 1738.24 21.6863 Q1740.54 22.2602 1743.41 24.5146 Q1746.32 26.769 1748.08 30.458 Q1751.44 37.5901 1751.44 50.1329 Q1751.44 62.3887 1748.33 69.0699 Q1743.78 78.8254 1733.73 78.8254 Q1729.96 78.8254 1726.11 76.8989 Q1722.3 74.9724 1719.88 70.3406 Q1716.11 63.4134 1716.11 50.1329 M1723.08 49.1081 Q1723.08 61.7738 1723.98 66.8155 Q1725 72.2671 1727.79 74.6445 Q1730.62 76.9808 1733.73 76.9808 Q1737.1 76.9808 1739.88 74.4805 Q1742.71 71.9392 1743.57 66.4876 Q1744.51 61.118 1744.47 49.1081 Q1744.47 37.4262 1743.65 32.7534 Q1742.55 27.3018 1739.6 25.1294 Q1736.69 22.916 1733.73 22.916 Q1732.63 22.916 1731.44 23.2439 Q1730.29 23.5718 1728.61 24.5146 Q1726.93 25.4573 1725.62 27.7937 Q1724.35 30.1301 1723.73 33.6552 Q1723.08 38.205 1723.08 49.1081 Z" fill="#000000" fill-rule="evenodd" fill-opacity="1" /><path clip-path="url(#clip420)" d="M1758.87 75.6282 Q1757.68 74.2756 1757.68 72.513 Q1757.68 70.7505 1758.83 69.4388 Q1760.02 68.0862 1762.15 68.0862 Q1764.65 68.0862 1766.08 70.5045 Q1767.52 72.8819 1767.52 76.8989 Q1767.52 81.2437 1765.75 85.2607 Q1763.99 89.3186 1762.27 91.2451 Q1760.55 93.1716 1759.85 93.1716 Q1759.03 93.1716 1759.03 92.2698 Q1759.03 91.9419 1759.61 91.3271 Q1765.63 84.8508 1765.67 76.8989 Q1765.67 75.6282 1765.51 75.6282 L1765.3 75.7922 Q1763.87 76.9808 1762.15 76.9808 Q1760.06 76.9808 1758.87 75.6282 Z" fill="#000000" fill-rule="evenodd" fill-opacity="1" /><path clip-path="url(#clip420)" d="M1924.54 45.4191 Q1924.54 47.7145 1923.11 49.0262 Q1921.67 50.2968 1920.03 50.2968 Q1918.47 50.2968 1917.65 49.3951 Q1916.83 48.4933 1916.83 47.3456 Q1916.83 45.788 1917.98 44.4354 Q1919.13 43.0827 1920.85 42.7958 Q1919.17 41.7301 1916.67 41.7301 Q1915.03 41.7301 1913.6 42.5908 Q1912.2 43.4516 1911.34 44.5583 Q1910.52 45.665 1909.78 47.2636 Q1909.09 48.8212 1908.8 49.764 Q1908.55 50.6657 1908.35 51.6495 L1905.48 63.1265 Q1904.09 68.578 1904.09 70.5045 Q1904.09 72.8819 1905.23 74.4805 Q1906.38 76.0381 1908.68 76.0381 Q1909.58 76.0381 1910.6 75.7922 Q1911.63 75.5052 1912.94 74.7674 Q1914.29 73.9886 1915.48 72.8409 Q1916.71 71.6522 1917.9 69.6438 Q1919.09 67.6353 1919.87 65.053 Q1920.11 64.1512 1920.93 64.1512 Q1921.96 64.1512 1921.96 64.971 Q1921.96 65.6678 1921.38 67.1434 Q1920.85 68.578 1919.66 70.4635 Q1918.51 72.3081 1917 73.9886 Q1915.48 75.6282 1913.23 76.7759 Q1910.97 77.9236 1908.51 77.9236 Q1904.99 77.9236 1902.65 76.0381 Q1900.32 74.1526 1899.45 71.5293 Q1899.25 71.8982 1898.96 72.39 Q1898.68 72.8819 1897.81 73.9886 Q1897 75.0543 1896.05 75.8741 Q1895.11 76.6529 1893.63 77.2678 Q1892.2 77.9236 1890.64 77.9236 Q1888.67 77.9236 1886.91 77.3497 Q1885.19 76.7759 1883.96 75.4642 Q1882.73 74.1526 1882.73 72.3491 Q1882.73 70.3406 1884.08 68.9469 Q1885.48 67.5123 1887.36 67.5123 Q1888.55 67.5123 1889.49 68.2091 Q1890.48 68.906 1890.48 70.4226 Q1890.48 72.1031 1889.33 73.3738 Q1888.18 74.6445 1886.54 74.9724 Q1888.22 76.0381 1890.72 76.0381 Q1893.43 76.0381 1895.56 73.6607 Q1897.69 71.2833 1898.72 67.3074 Q1901.26 57.7569 1902.24 53.494 Q1903.23 49.1901 1903.23 47.3456 Q1903.23 45.624 1902.77 44.4354 Q1902.32 43.2467 1901.55 42.7138 Q1900.81 42.14 1900.11 41.935 Q1899.45 41.7301 1898.72 41.7301 Q1897.49 41.7301 1896.09 42.2219 Q1894.74 42.7138 1893.1 43.8615 Q1891.5 44.9682 1889.99 47.2636 Q1888.47 49.559 1887.44 52.7152 Q1887.24 53.6579 1886.34 53.6579 Q1885.35 53.617 1885.35 52.7972 Q1885.35 52.1004 1885.89 50.6657 Q1886.46 49.1901 1887.61 47.3456 Q1888.8 45.5011 1890.31 43.8615 Q1891.87 42.1809 1894.13 41.0332 Q1896.42 39.8855 1898.88 39.8855 Q1899.99 39.8855 1901.05 40.1315 Q1902.16 40.3364 1903.47 40.9513 Q1904.82 41.5661 1906.01 42.9188 Q1907.2 44.2714 1907.94 46.2389 Q1908.43 45.2961 1909.09 44.3944 Q1909.78 43.4926 1910.85 42.3859 Q1911.96 41.2382 1913.47 40.5824 Q1915.03 39.8855 1916.75 39.8855 Q1918.43 39.8855 1920.07 40.3364 Q1921.71 40.7463 1923.11 42.099 Q1924.54 43.4106 1924.54 45.4191 Z" fill="#000000" fill-rule="evenodd" fill-opacity="1" /><path clip-path="url(#clip420)" d="M1933.1 82.3823 Q1933.1 73.7458 1935.28 69.0402 Q1938.32 62.0393 1945.49 62.0393 Q1947.01 62.0393 1948.59 62.4697 Q1950.2 62.8714 1952.21 64.4495 Q1954.24 66.0275 1955.48 68.6099 Q1957.83 73.6024 1957.83 82.3823 Q1957.83 90.9613 1955.65 95.6382 Q1952.46 102.467 1945.43 102.467 Q1942.8 102.467 1940.1 101.118 Q1937.43 99.7699 1935.74 96.5277 Q1933.1 91.6786 1933.1 82.3823 M1937.97 81.6649 Q1937.97 90.5309 1938.61 94.0601 Q1939.32 97.8762 1941.27 99.5404 Q1943.25 101.176 1945.43 101.176 Q1947.79 101.176 1949.74 99.4256 Q1951.72 97.6467 1952.32 93.8306 Q1952.98 90.0718 1952.95 81.6649 Q1952.95 73.4876 1952.38 70.2166 Q1951.6 66.4005 1949.54 64.8798 Q1947.5 63.3304 1945.43 63.3304 Q1944.66 63.3304 1943.83 63.56 Q1943.02 63.7895 1941.85 64.4495 Q1940.67 65.1094 1939.75 66.7449 Q1938.86 68.3803 1938.43 70.8479 Q1937.97 74.0327 1937.97 81.6649 Z" fill="#000000" fill-rule="evenodd" fill-opacity="1" /><path clip-path="url(#clip420)" d="M1989.84 64.2332 Q1989.92 63.2084 1991.52 63.2084 L2042.96 63.2084 Q2045.38 63.2084 2045.42 64.1512 Q2045.42 65.1759 2043.12 65.1349 L1992.09 65.1349 Q1989.84 65.1759 1989.84 64.2332 M1989.84 47.8375 Q1989.84 46.8127 1991.6 46.8537 L2042.88 46.8537 Q2045.38 46.8537 2045.42 47.8375 Q2045.42 48.7802 2043.29 48.7802 L1991.52 48.7802 Q1989.84 48.7802 1989.84 47.8375 Z" fill="#000000" fill-rule="evenodd" fill-opacity="1" /><path clip-path="url(#clip420)" d="M2077.8 50.1329 Q2077.8 37.7951 2080.91 31.0729 Q2085.26 21.0715 2095.5 21.0715 Q2097.68 21.0715 2099.93 21.6863 Q2102.23 22.2602 2105.1 24.5146 Q2108.01 26.769 2109.77 30.458 Q2113.13 37.5901 2113.13 50.1329 Q2113.13 62.3887 2110.01 69.0699 Q2105.46 78.8254 2095.42 78.8254 Q2091.65 78.8254 2087.8 76.8989 Q2083.99 74.9724 2081.57 70.3406 Q2077.8 63.4134 2077.8 50.1329 M2084.76 49.1081 Q2084.76 61.7738 2085.67 66.8155 Q2086.69 72.2671 2089.48 74.6445 Q2092.31 76.9808 2095.42 76.9808 Q2098.78 76.9808 2101.57 74.4805 Q2104.4 71.9392 2105.26 66.4876 Q2106.2 61.118 2106.16 49.1081 Q2106.16 37.4262 2105.34 32.7534 Q2104.23 27.3018 2101.28 25.1294 Q2098.37 22.916 2095.42 22.916 Q2094.32 22.916 2093.13 23.2439 Q2091.98 23.5718 2090.3 24.5146 Q2088.62 25.4573 2087.31 27.7937 Q2086.04 30.1301 2085.42 33.6552 Q2084.76 38.205 2084.76 49.1081 Z" fill="#000000" fill-rule="evenodd" fill-opacity="1" /><path clip-path="url(#clip420)" d="M2120.64 75.6282 Q2119.37 74.2756 2119.37 72.513 Q2119.37 70.7505 2120.64 69.4798 Q2121.91 68.1681 2123.83 68.1681 Q2125.68 68.1681 2126.91 69.3978 Q2128.18 70.5865 2128.18 72.554 Q2128.18 74.4805 2126.83 75.7512 Q2125.52 76.9808 2123.83 76.9808 Q2121.91 76.9808 2120.64 75.6282 Z" fill="#000000" fill-rule="evenodd" fill-opacity="1" /><path clip-path="url(#clip420)" d="M2142.47 63.4544 Q2142.47 60.954 2143.82 60.0113 Q2145.17 59.0275 2146.61 59.0275 Q2148.53 59.0275 2149.64 60.2572 Q2150.79 61.4459 2150.79 63.1265 Q2150.79 64.807 2149.64 66.0367 Q2148.53 67.2254 2146.61 67.2254 Q2145.66 67.2254 2145.17 67.0614 Q2146.28 70.9144 2149.64 73.7017 Q2153.04 76.489 2157.51 76.489 Q2163.12 76.489 2166.49 71.0374 Q2168.49 67.5123 2168.49 59.5194 Q2168.49 52.4693 2166.98 48.9442 Q2164.64 43.5746 2159.85 43.5746 Q2153.04 43.5746 2149.02 49.436 Q2148.53 50.1739 2147.96 50.2148 Q2147.14 50.2148 2146.93 49.764 Q2146.77 49.2721 2146.77 48.0014 L2146.77 23.1619 Q2146.77 21.1534 2147.59 21.1534 Q2147.92 21.1534 2148.61 21.3994 Q2153.9 23.7358 2159.76 23.7768 Q2165.79 23.7768 2171.2 21.3174 Q2171.61 21.0715 2171.86 21.0715 Q2172.68 21.0715 2172.72 22.0142 Q2172.72 22.3421 2172.02 23.3259 Q2171.36 24.2686 2169.93 25.5393 Q2168.49 26.769 2166.65 27.9577 Q2164.81 29.1464 2162.1 29.9661 Q2159.44 30.7449 2156.48 30.7449 Q2152.96 30.7449 2149.35 29.6382 L2149.35 45.9929 Q2153.7 41.7301 2160.01 41.7301 Q2166.73 41.7301 2171.36 47.1406 Q2176 52.5512 2176 60.0933 Q2176 68.0042 2170.5 73.4148 Q2165.05 78.8254 2157.67 78.8254 Q2150.95 78.8254 2146.69 74.0296 Q2142.47 69.2339 2142.47 63.4544 Z" fill="#000000" fill-rule="evenodd" fill-opacity="1" /><polyline clip-path="url(#clip423)" style="stroke:#009af9; stroke-linecap:butt; stroke-linejoin:round; stroke-width:4; stroke-opacity:1; fill:none" points="
  234.657,162.047 250.947,213.347 267.237,263.353 283.528,312.083 299.818,359.556 316.109,405.789 332.399,450.798 348.69,494.602 364.98,537.215 381.271,578.656 
  397.561,618.939 413.851,658.08 430.142,696.096 446.432,733 462.723,768.808 479.013,803.536 495.304,837.196 511.594,869.804 527.884,901.373 544.175,931.917 
  560.465,961.449 576.756,989.984 593.046,1017.53 609.337,1044.11 625.627,1069.73 641.918,1094.4 658.208,1118.13 674.498,1140.94 690.789,1162.84 707.079,1183.84 
  723.37,1203.95 739.66,1223.18 755.951,1241.55 772.241,1259.06 788.532,1275.73 804.822,1291.56 821.112,1306.56 837.403,1320.76 853.693,1334.14 869.984,1346.74 
  886.274,1358.54 902.565,1369.57 918.855,1379.84 935.145,1389.35 951.436,1398.11 967.726,1406.12 984.017,1413.41 1000.31,1419.98 1016.6,1425.83 1032.89,1430.97 
  1049.18,1435.42 1065.47,1439.17 1081.76,1442.25 1098.05,1444.64 1114.34,1446.38 1130.63,1447.45 1146.92,1447.87 1163.21,1447.64 1179.5,1446.77 1195.79,1445.28 
  1212.08,1443.16 1228.37,1440.42 1244.66,1437.07 1260.95,1433.11 1277.24,1428.56 1293.54,1423.41 1309.83,1417.67 1326.12,1411.36 1342.41,1404.47 1358.7,1397.02 
  1374.99,1389 1391.28,1380.42 1407.57,1371.29 1423.86,1361.62 1440.15,1351.4 1456.44,1340.65 1472.73,1329.37 1489.02,1317.56 1505.31,1305.23 1521.6,1292.39 
  1537.89,1279.03 1554.18,1265.17 1570.47,1250.81 1586.76,1235.95 1603.05,1220.6 1619.34,1204.76 1635.63,1188.44 1651.92,1171.63 1668.22,1154.36 1684.51,1136.61 
  1700.8,1118.39 1717.09,1099.72 1733.38,1080.58 1749.67,1060.99 1765.96,1040.94 1782.25,1020.45 1798.54,999.519 1814.83,978.144 1831.12,956.333 1847.41,934.087 
  
  "/>
<polyline clip-path="url(#clip423)" style="stroke:#e26f46; stroke-linecap:butt; stroke-linejoin:round; stroke-width:4; stroke-opacity:1; fill:none" points="
  234.657,1447.87 250.947,1447.87 267.237,1447.87 283.528,1447.87 299.818,1447.87 316.109,1447.87 332.399,1447.87 348.69,1447.87 364.98,1447.87 381.271,1447.87 
  397.561,1447.87 413.851,1447.87 430.142,1447.87 446.432,1447.87 462.723,1447.87 479.013,1447.87 495.304,1447.87 511.594,1447.87 527.884,1447.87 544.175,1447.87 
  560.465,1447.87 576.756,1447.87 593.046,1447.87 609.337,1447.87 625.627,1447.87 641.918,1447.87 658.208,1447.87 674.498,1447.87 690.789,1447.87 707.079,1447.87 
  723.37,1447.87 739.66,1447.87 755.951,1447.87 772.241,1447.87 788.532,1447.87 804.822,1447.87 821.112,1447.87 837.403,1447.87 853.693,1447.87 869.984,1447.87 
  886.274,1447.87 902.565,1447.87 918.855,1447.87 935.145,1447.87 951.436,1447.87 967.726,1447.87 984.017,1447.87 1000.31,1447.87 1016.6,1447.87 1032.89,1447.87 
  1049.18,1447.87 1065.47,1447.87 1081.76,1447.87 1098.05,1447.87 1114.34,1447.87 1130.63,1447.87 1146.92,1447.87 1163.21,1447.87 1179.5,1447.87 1195.79,1447.87 
  1212.08,1447.87 1228.37,1447.87 1244.66,1447.87 1260.95,1447.87 1277.24,1447.87 1293.54,1447.87 1309.83,1447.87 1326.12,1447.87 1342.41,1447.87 1358.7,1447.87 
  1374.99,1447.87 1391.28,1447.87 1407.57,1447.87 1423.86,1447.87 1440.15,1447.87 1456.44,1447.87 1472.73,1447.87 1489.02,1447.87 1505.31,1447.87 1521.6,1447.87 
  1537.89,1447.87 1554.18,1447.87 1570.47,1447.87 1586.76,1447.87 1603.05,1447.87 1619.34,1447.87 1635.63,1447.87 1651.92,1447.87 1668.22,1447.87 1684.51,1447.87 
  1700.8,1447.87 1717.09,1447.87 1733.38,1447.87 1749.67,1447.87 1765.96,1447.87 1782.25,1447.87 1798.54,1447.87 1814.83,1447.87 1831.12,1447.87 1847.41,1447.87 
  
  "/>
<path clip-path="url(#clip420)" d="
M1968.01 324.425 L2352.76 324.425 L2352.76 168.905 L1968.01 168.905  Z
  " fill="#ffffff" fill-rule="evenodd" fill-opacity="1"/>
<polyline clip-path="url(#clip420)" style="stroke:#000000; stroke-linecap:butt; stroke-linejoin:round; stroke-width:4; stroke-opacity:1; fill:none" points="
  1968.01,324.425 2352.76,324.425 2352.76,168.905 1968.01,168.905 1968.01,324.425 
  "/>
<polyline clip-path="url(#clip420)" style="stroke:#009af9; stroke-linecap:butt; stroke-linejoin:round; stroke-width:4; stroke-opacity:1; fill:none" points="
  1992.08,220.745 2136.51,220.745 
  "/>
<path clip-path="url(#clip420)" d="M2174.43 240.432 Q2172.62 245.062 2170.91 246.474 Q2169.2 247.886 2166.33 247.886 L2162.92 247.886 L2162.92 244.321 L2165.42 244.321 Q2167.18 244.321 2168.15 243.488 Q2169.13 242.654 2170.31 239.552 L2171.07 237.608 L2160.58 212.099 L2165.1 212.099 L2173.2 232.377 L2181.3 212.099 L2185.82 212.099 L2174.43 240.432 Z" fill="#000000" fill-rule="evenodd" fill-opacity="1" /><path clip-path="url(#clip420)" d="M2192.25 216.497 L2221.93 216.497 L2221.93 220.386 L2192.25 220.386 L2192.25 216.497 M2192.25 225.941 L2221.93 225.941 L2221.93 229.877 L2192.25 229.877 L2192.25 225.941 Z" fill="#000000" fill-rule="evenodd" fill-opacity="1" /><path clip-path="url(#clip420)" d="M2244.54 202.006 L2244.54 205.548 L2240.47 205.548 Q2238.18 205.548 2237.27 206.474 Q2236.39 207.4 2236.39 209.807 L2236.39 212.099 L2243.41 212.099 L2243.41 215.409 L2236.39 215.409 L2236.39 238.025 L2232.11 238.025 L2232.11 215.409 L2228.04 215.409 L2228.04 212.099 L2232.11 212.099 L2232.11 210.293 Q2232.11 205.965 2234.13 203.997 Q2236.14 202.006 2240.51 202.006 L2244.54 202.006 Z" fill="#000000" fill-rule="evenodd" fill-opacity="1" /><path clip-path="url(#clip420)" d="M2258.34 202.053 Q2255.24 207.377 2253.73 212.585 Q2252.23 217.793 2252.23 223.14 Q2252.23 228.488 2253.73 233.742 Q2255.26 238.974 2258.34 244.275 L2254.64 244.275 Q2251.16 238.835 2249.43 233.58 Q2247.71 228.326 2247.71 223.14 Q2247.71 217.978 2249.43 212.747 Q2251.14 207.516 2254.64 202.053 L2258.34 202.053 Z" fill="#000000" fill-rule="evenodd" fill-opacity="1" /><path clip-path="url(#clip420)" d="M2288.15 212.099 L2278.78 224.715 L2288.64 238.025 L2283.62 238.025 L2276.07 227.84 L2268.52 238.025 L2263.5 238.025 L2273.57 224.46 L2264.36 212.099 L2269.38 212.099 L2276.26 221.335 L2283.13 212.099 L2288.15 212.099 Z" fill="#000000" fill-rule="evenodd" fill-opacity="1" /><path clip-path="url(#clip420)" d="M2293.99 202.053 L2297.69 202.053 Q2301.16 207.516 2302.88 212.747 Q2304.61 217.978 2304.61 223.14 Q2304.61 228.326 2302.88 233.58 Q2301.16 238.835 2297.69 244.275 L2293.99 244.275 Q2297.07 238.974 2298.57 233.742 Q2300.1 228.488 2300.1 223.14 Q2300.1 217.793 2298.57 212.585 Q2297.07 207.377 2293.99 202.053 Z" fill="#000000" fill-rule="evenodd" fill-opacity="1" /><polyline clip-path="url(#clip420)" style="stroke:#e26f46; stroke-linecap:butt; stroke-linejoin:round; stroke-width:4; stroke-opacity:1; fill:none" points="
  1992.08,272.585 2136.51,272.585 
  "/>
<path clip-path="url(#clip420)" d="M2174.43 292.272 Q2172.62 296.902 2170.91 298.314 Q2169.2 299.726 2166.33 299.726 L2162.92 299.726 L2162.92 296.161 L2165.42 296.161 Q2167.18 296.161 2168.15 295.328 Q2169.13 294.494 2170.31 291.392 L2171.07 289.448 L2160.58 263.939 L2165.1 263.939 L2173.2 284.217 L2181.3 263.939 L2185.82 263.939 L2174.43 292.272 Z" fill="#000000" fill-rule="evenodd" fill-opacity="1" /><path clip-path="url(#clip420)" d="M2192.25 268.337 L2221.93 268.337 L2221.93 272.226 L2192.25 272.226 L2192.25 268.337 M2192.25 277.781 L2221.93 277.781 L2221.93 281.717 L2192.25 281.717 L2192.25 277.781 Z" fill="#000000" fill-rule="evenodd" fill-opacity="1" /><path clip-path="url(#clip420)" d="M2242.02 258.383 Q2238.41 258.383 2236.58 261.948 Q2234.77 265.49 2234.77 272.619 Q2234.77 279.726 2236.58 283.291 Q2238.41 286.832 2242.02 286.832 Q2245.65 286.832 2247.46 283.291 Q2249.29 279.726 2249.29 272.619 Q2249.29 265.49 2247.46 261.948 Q2245.65 258.383 2242.02 258.383 M2242.02 254.68 Q2247.83 254.68 2250.89 259.286 Q2253.96 263.869 2253.96 272.619 Q2253.96 281.346 2250.89 285.953 Q2247.83 290.536 2242.02 290.536 Q2236.21 290.536 2233.13 285.953 Q2230.08 281.346 2230.08 272.619 Q2230.08 263.869 2233.13 259.286 Q2236.21 254.68 2242.02 254.68 Z" fill="#000000" fill-rule="evenodd" fill-opacity="1" /></svg>
