<?xml version="1.0" encoding="utf-8"?>
<svg xmlns="http://www.w3.org/2000/svg" xmlns:xlink="http://www.w3.org/1999/xlink" width="600" height="400" viewBox="0 0 2400 1600">
<defs>
  <clipPath id="clip060">
    <rect x="0" y="0" width="2400" height="1600"/>
  </clipPath>
</defs>
<path clip-path="url(#clip060)" d="
M0 1600 L2400 1600 L2400 0 L0 0  Z
  " fill="#ffffff" fill-rule="evenodd" fill-opacity="1"/>
<defs>
  <clipPath id="clip061">
    <rect x="480" y="0" width="1681" height="1600"/>
  </clipPath>
</defs>
<defs>
  <clipPath id="clip062">
    <rect x="209" y="123" width="1691" height="1364"/>
  </clipPath>
</defs>
<path clip-path="url(#clip060)" d="
M193.936 1486.45 L1896.9 1486.45 L1896.9 123.472 L193.936 123.472  Z
  " fill="#ffffff" fill-rule="evenodd" fill-opacity="1"/>
<defs>
  <clipPath id="clip063">
    <rect x="193" y="123" width="1704" height="1364"/>
  </clipPath>
</defs>
<polyline clip-path="url(#clip063)" style="stroke:#000000; stroke-linecap:butt; stroke-linejoin:round; stroke-width:2; stroke-opacity:0.1; fill:none" points="
  242.133,1486.45 242.133,123.472 
  "/>
<polyline clip-path="url(#clip063)" style="stroke:#000000; stroke-linecap:butt; stroke-linejoin:round; stroke-width:2; stroke-opacity:0.1; fill:none" points="
  643.775,1486.45 643.775,123.472 
  "/>
<polyline clip-path="url(#clip063)" style="stroke:#000000; stroke-linecap:butt; stroke-linejoin:round; stroke-width:2; stroke-opacity:0.1; fill:none" points="
  1045.42,1486.45 1045.42,123.472 
  "/>
<polyline clip-path="url(#clip063)" style="stroke:#000000; stroke-linecap:butt; stroke-linejoin:round; stroke-width:2; stroke-opacity:0.1; fill:none" points="
  1447.06,1486.45 1447.06,123.472 
  "/>
<polyline clip-path="url(#clip063)" style="stroke:#000000; stroke-linecap:butt; stroke-linejoin:round; stroke-width:2; stroke-opacity:0.1; fill:none" points="
  1848.7,1486.45 1848.7,123.472 
  "/>
<polyline clip-path="url(#clip060)" style="stroke:#000000; stroke-linecap:butt; stroke-linejoin:round; stroke-width:4; stroke-opacity:1; fill:none" points="
  193.936,1486.45 1896.9,1486.45 
  "/>
<polyline clip-path="url(#clip060)" style="stroke:#000000; stroke-linecap:butt; stroke-linejoin:round; stroke-width:4; stroke-opacity:1; fill:none" points="
  242.133,1486.45 242.133,1467.55 
  "/>
<polyline clip-path="url(#clip060)" style="stroke:#000000; stroke-linecap:butt; stroke-linejoin:round; stroke-width:4; stroke-opacity:1; fill:none" points="
  643.775,1486.45 643.775,1467.55 
  "/>
<polyline clip-path="url(#clip060)" style="stroke:#000000; stroke-linecap:butt; stroke-linejoin:round; stroke-width:4; stroke-opacity:1; fill:none" points="
  1045.42,1486.45 1045.42,1467.55 
  "/>
<polyline clip-path="url(#clip060)" style="stroke:#000000; stroke-linecap:butt; stroke-linejoin:round; stroke-width:4; stroke-opacity:1; fill:none" points="
  1447.06,1486.45 1447.06,1467.55 
  "/>
<polyline clip-path="url(#clip060)" style="stroke:#000000; stroke-linecap:butt; stroke-linejoin:round; stroke-width:4; stroke-opacity:1; fill:none" points="
  1848.7,1486.45 1848.7,1467.55 
  "/>
<path clip-path="url(#clip060)" d="M204.437 1517.37 Q200.825 1517.37 198.997 1520.93 Q197.191 1524.47 197.191 1531.6 Q197.191 1538.71 198.997 1542.27 Q200.825 1545.82 204.437 1545.82 Q208.071 1545.82 209.876 1542.27 Q211.705 1538.71 211.705 1531.6 Q211.705 1524.47 209.876 1520.93 Q208.071 1517.37 204.437 1517.37 M204.437 1513.66 Q210.247 1513.66 213.302 1518.27 Q216.381 1522.85 216.381 1531.6 Q216.381 1540.33 213.302 1544.94 Q210.247 1549.52 204.437 1549.52 Q198.626 1549.52 195.548 1544.94 Q192.492 1540.33 192.492 1531.6 Q192.492 1522.85 195.548 1518.27 Q198.626 1513.66 204.437 1513.66 Z" fill="#000000" fill-rule="evenodd" fill-opacity="1" /><path clip-path="url(#clip060)" d="M224.598 1542.97 L229.483 1542.97 L229.483 1548.85 L224.598 1548.85 L224.598 1542.97 Z" fill="#000000" fill-rule="evenodd" fill-opacity="1" /><path clip-path="url(#clip060)" d="M249.668 1517.37 Q246.057 1517.37 244.228 1520.93 Q242.422 1524.47 242.422 1531.6 Q242.422 1538.71 244.228 1542.27 Q246.057 1545.82 249.668 1545.82 Q253.302 1545.82 255.108 1542.27 Q256.936 1538.71 256.936 1531.6 Q256.936 1524.47 255.108 1520.93 Q253.302 1517.37 249.668 1517.37 M249.668 1513.66 Q255.478 1513.66 258.533 1518.27 Q261.612 1522.85 261.612 1531.6 Q261.612 1540.33 258.533 1544.94 Q255.478 1549.52 249.668 1549.52 Q243.858 1549.52 240.779 1544.94 Q237.723 1540.33 237.723 1531.6 Q237.723 1522.85 240.779 1518.27 Q243.858 1513.66 249.668 1513.66 Z" fill="#000000" fill-rule="evenodd" fill-opacity="1" /><path clip-path="url(#clip060)" d="M279.83 1517.37 Q276.219 1517.37 274.39 1520.93 Q272.584 1524.47 272.584 1531.6 Q272.584 1538.71 274.39 1542.27 Q276.219 1545.82 279.83 1545.82 Q283.464 1545.82 285.269 1542.27 Q287.098 1538.71 287.098 1531.6 Q287.098 1524.47 285.269 1520.93 Q283.464 1517.37 279.83 1517.37 M279.83 1513.66 Q285.64 1513.66 288.695 1518.27 Q291.774 1522.85 291.774 1531.6 Q291.774 1540.33 288.695 1544.94 Q285.64 1549.52 279.83 1549.52 Q274.019 1549.52 270.941 1544.94 Q267.885 1540.33 267.885 1531.6 Q267.885 1522.85 270.941 1518.27 Q274.019 1513.66 279.83 1513.66 Z" fill="#000000" fill-rule="evenodd" fill-opacity="1" /><path clip-path="url(#clip060)" d="M606.577 1517.37 Q602.965 1517.37 601.137 1520.93 Q599.331 1524.47 599.331 1531.6 Q599.331 1538.71 601.137 1542.27 Q602.965 1545.82 606.577 1545.82 Q610.211 1545.82 612.016 1542.27 Q613.845 1538.71 613.845 1531.6 Q613.845 1524.47 612.016 1520.93 Q610.211 1517.37 606.577 1517.37 M606.577 1513.66 Q612.387 1513.66 615.442 1518.27 Q618.521 1522.85 618.521 1531.6 Q618.521 1540.33 615.442 1544.94 Q612.387 1549.52 606.577 1549.52 Q600.766 1549.52 597.688 1544.94 Q594.632 1540.33 594.632 1531.6 Q594.632 1522.85 597.688 1518.27 Q600.766 1513.66 606.577 1513.66 Z" fill="#000000" fill-rule="evenodd" fill-opacity="1" /><path clip-path="url(#clip060)" d="M626.738 1542.97 L631.623 1542.97 L631.623 1548.85 L626.738 1548.85 L626.738 1542.97 Z" fill="#000000" fill-rule="evenodd" fill-opacity="1" /><path clip-path="url(#clip060)" d="M645.836 1544.91 L662.155 1544.91 L662.155 1548.85 L640.211 1548.85 L640.211 1544.91 Q642.873 1542.16 647.456 1537.53 Q652.062 1532.88 653.243 1531.53 Q655.488 1529.01 656.368 1527.27 Q657.271 1525.51 657.271 1523.82 Q657.271 1521.07 655.326 1519.33 Q653.405 1517.6 650.303 1517.6 Q648.104 1517.6 645.65 1518.36 Q643.22 1519.13 640.442 1520.68 L640.442 1515.95 Q643.266 1514.82 645.72 1514.24 Q648.174 1513.66 650.211 1513.66 Q655.581 1513.66 658.775 1516.35 Q661.97 1519.03 661.97 1523.52 Q661.97 1525.65 661.16 1527.57 Q660.373 1529.47 658.266 1532.07 Q657.687 1532.74 654.586 1535.95 Q651.484 1539.15 645.836 1544.91 Z" fill="#000000" fill-rule="evenodd" fill-opacity="1" /><path clip-path="url(#clip060)" d="M672.016 1514.29 L690.372 1514.29 L690.372 1518.22 L676.298 1518.22 L676.298 1526.7 Q677.317 1526.35 678.335 1526.19 Q679.354 1526 680.372 1526 Q686.159 1526 689.539 1529.17 Q692.919 1532.34 692.919 1537.76 Q692.919 1543.34 689.446 1546.44 Q685.974 1549.52 679.655 1549.52 Q677.479 1549.52 675.21 1549.15 Q672.965 1548.78 670.558 1548.04 L670.558 1543.34 Q672.641 1544.47 674.863 1545.03 Q677.085 1545.58 679.562 1545.58 Q683.567 1545.58 685.905 1543.48 Q688.243 1541.37 688.243 1537.76 Q688.243 1534.15 685.905 1532.04 Q683.567 1529.94 679.562 1529.94 Q677.687 1529.94 675.812 1530.35 Q673.96 1530.77 672.016 1531.65 L672.016 1514.29 Z" fill="#000000" fill-rule="evenodd" fill-opacity="1" /><path clip-path="url(#clip060)" d="M1007.72 1517.37 Q1004.11 1517.37 1002.28 1520.93 Q1000.48 1524.47 1000.48 1531.6 Q1000.48 1538.71 1002.28 1542.27 Q1004.11 1545.82 1007.72 1545.82 Q1011.36 1545.82 1013.16 1542.27 Q1014.99 1538.71 1014.99 1531.6 Q1014.99 1524.47 1013.16 1520.93 Q1011.36 1517.37 1007.72 1517.37 M1007.72 1513.66 Q1013.53 1513.66 1016.59 1518.27 Q1019.67 1522.85 1019.67 1531.6 Q1019.67 1540.33 1016.59 1544.94 Q1013.53 1549.52 1007.72 1549.52 Q1001.91 1549.52 998.832 1544.94 Q995.777 1540.33 995.777 1531.6 Q995.777 1522.85 998.832 1518.27 Q1001.91 1513.66 1007.72 1513.66 Z" fill="#000000" fill-rule="evenodd" fill-opacity="1" /><path clip-path="url(#clip060)" d="M1027.88 1542.97 L1032.77 1542.97 L1032.77 1548.85 L1027.88 1548.85 L1027.88 1542.97 Z" fill="#000000" fill-rule="evenodd" fill-opacity="1" /><path clip-path="url(#clip060)" d="M1043 1514.29 L1061.36 1514.29 L1061.36 1518.22 L1047.28 1518.22 L1047.28 1526.7 Q1048.3 1526.35 1049.32 1526.19 Q1050.34 1526 1051.36 1526 Q1057.14 1526 1060.52 1529.17 Q1063.9 1532.34 1063.9 1537.76 Q1063.9 1543.34 1060.43 1546.44 Q1056.96 1549.52 1050.64 1549.52 Q1048.46 1549.52 1046.19 1549.15 Q1043.95 1548.78 1041.54 1548.04 L1041.54 1543.34 Q1043.62 1544.47 1045.85 1545.03 Q1048.07 1545.58 1050.54 1545.58 Q1054.55 1545.58 1056.89 1543.48 Q1059.23 1541.37 1059.23 1537.76 Q1059.23 1534.15 1056.89 1532.04 Q1054.55 1529.94 1050.54 1529.94 Q1048.67 1529.94 1046.79 1530.35 Q1044.94 1530.77 1043 1531.65 L1043 1514.29 Z" fill="#000000" fill-rule="evenodd" fill-opacity="1" /><path clip-path="url(#clip060)" d="M1083.11 1517.37 Q1079.5 1517.37 1077.67 1520.93 Q1075.87 1524.47 1075.87 1531.6 Q1075.87 1538.71 1077.67 1542.27 Q1079.5 1545.82 1083.11 1545.82 Q1086.75 1545.82 1088.55 1542.27 Q1090.38 1538.71 1090.38 1531.6 Q1090.38 1524.47 1088.55 1520.93 Q1086.75 1517.37 1083.11 1517.37 M1083.11 1513.66 Q1088.92 1513.66 1091.98 1518.27 Q1095.06 1522.85 1095.06 1531.6 Q1095.06 1540.33 1091.98 1544.94 Q1088.92 1549.52 1083.11 1549.52 Q1077.3 1549.52 1074.23 1544.94 Q1071.17 1540.33 1071.17 1531.6 Q1071.17 1522.85 1074.23 1518.27 Q1077.3 1513.66 1083.11 1513.66 Z" fill="#000000" fill-rule="evenodd" fill-opacity="1" /><path clip-path="url(#clip060)" d="M1409.86 1517.37 Q1406.25 1517.37 1404.42 1520.93 Q1402.62 1524.47 1402.62 1531.6 Q1402.62 1538.71 1404.42 1542.27 Q1406.25 1545.82 1409.86 1545.82 Q1413.5 1545.82 1415.3 1542.27 Q1417.13 1538.71 1417.13 1531.6 Q1417.13 1524.47 1415.3 1520.93 Q1413.5 1517.37 1409.86 1517.37 M1409.86 1513.66 Q1415.67 1513.66 1418.73 1518.27 Q1421.81 1522.85 1421.81 1531.6 Q1421.81 1540.33 1418.73 1544.94 Q1415.67 1549.52 1409.86 1549.52 Q1404.05 1549.52 1400.97 1544.94 Q1397.92 1540.33 1397.92 1531.6 Q1397.92 1522.85 1400.97 1518.27 Q1404.05 1513.66 1409.86 1513.66 Z" fill="#000000" fill-rule="evenodd" fill-opacity="1" /><path clip-path="url(#clip060)" d="M1430.02 1542.97 L1434.91 1542.97 L1434.91 1548.85 L1430.02 1548.85 L1430.02 1542.97 Z" fill="#000000" fill-rule="evenodd" fill-opacity="1" /><path clip-path="url(#clip060)" d="M1443.91 1514.29 L1466.13 1514.29 L1466.13 1516.28 L1453.59 1548.85 L1448.7 1548.85 L1460.51 1518.22 L1443.91 1518.22 L1443.91 1514.29 Z" fill="#000000" fill-rule="evenodd" fill-opacity="1" /><path clip-path="url(#clip060)" d="M1475.3 1514.29 L1493.66 1514.29 L1493.66 1518.22 L1479.58 1518.22 L1479.58 1526.7 Q1480.6 1526.35 1481.62 1526.19 Q1482.64 1526 1483.66 1526 Q1489.44 1526 1492.82 1529.17 Q1496.2 1532.34 1496.2 1537.76 Q1496.2 1543.34 1492.73 1546.44 Q1489.26 1549.52 1482.94 1549.52 Q1480.76 1549.52 1478.49 1549.15 Q1476.25 1548.78 1473.84 1548.04 L1473.84 1543.34 Q1475.93 1544.47 1478.15 1545.03 Q1480.37 1545.58 1482.85 1545.58 Q1486.85 1545.58 1489.19 1543.48 Q1491.53 1541.37 1491.53 1537.76 Q1491.53 1534.15 1489.19 1532.04 Q1486.85 1529.94 1482.85 1529.94 Q1480.97 1529.94 1479.1 1530.35 Q1477.25 1530.77 1475.3 1531.65 L1475.3 1514.29 Z" fill="#000000" fill-rule="evenodd" fill-opacity="1" /><path clip-path="url(#clip060)" d="M1800.77 1544.91 L1808.41 1544.91 L1808.41 1518.55 L1800.1 1520.21 L1800.1 1515.95 L1808.37 1514.29 L1813.04 1514.29 L1813.04 1544.91 L1820.68 1544.91 L1820.68 1548.85 L1800.77 1548.85 L1800.77 1544.91 Z" fill="#000000" fill-rule="evenodd" fill-opacity="1" /><path clip-path="url(#clip060)" d="M1830.13 1542.97 L1835.01 1542.97 L1835.01 1548.85 L1830.13 1548.85 L1830.13 1542.97 Z" fill="#000000" fill-rule="evenodd" fill-opacity="1" /><path clip-path="url(#clip060)" d="M1855.2 1517.37 Q1851.58 1517.37 1849.76 1520.93 Q1847.95 1524.47 1847.95 1531.6 Q1847.95 1538.71 1849.76 1542.27 Q1851.58 1545.82 1855.2 1545.82 Q1858.83 1545.82 1860.64 1542.27 Q1862.46 1538.71 1862.46 1531.6 Q1862.46 1524.47 1860.64 1520.93 Q1858.83 1517.37 1855.2 1517.37 M1855.2 1513.66 Q1861.01 1513.66 1864.06 1518.27 Q1867.14 1522.85 1867.14 1531.6 Q1867.14 1540.33 1864.06 1544.94 Q1861.01 1549.52 1855.2 1549.52 Q1849.39 1549.52 1846.31 1544.94 Q1843.25 1540.33 1843.25 1531.6 Q1843.25 1522.85 1846.31 1518.27 Q1849.39 1513.66 1855.2 1513.66 Z" fill="#000000" fill-rule="evenodd" fill-opacity="1" /><path clip-path="url(#clip060)" d="M1885.36 1517.37 Q1881.75 1517.37 1879.92 1520.93 Q1878.11 1524.47 1878.11 1531.6 Q1878.11 1538.71 1879.92 1542.27 Q1881.75 1545.82 1885.36 1545.82 Q1888.99 1545.82 1890.8 1542.27 Q1892.63 1538.71 1892.63 1531.6 Q1892.63 1524.47 1890.8 1520.93 Q1888.99 1517.37 1885.36 1517.37 M1885.36 1513.66 Q1891.17 1513.66 1894.22 1518.27 Q1897.3 1522.85 1897.3 1531.6 Q1897.3 1540.33 1894.22 1544.94 Q1891.17 1549.52 1885.36 1549.52 Q1879.55 1549.52 1876.47 1544.94 Q1873.41 1540.33 1873.41 1531.6 Q1873.41 1522.85 1876.47 1518.27 Q1879.55 1513.66 1885.36 1513.66 Z" fill="#000000" fill-rule="evenodd" fill-opacity="1" /><polyline clip-path="url(#clip063)" style="stroke:#000000; stroke-linecap:butt; stroke-linejoin:round; stroke-width:2; stroke-opacity:0.1; fill:none" points="
  193.936,1447.87 1896.9,1447.87 
  "/>
<polyline clip-path="url(#clip063)" style="stroke:#000000; stroke-linecap:butt; stroke-linejoin:round; stroke-width:2; stroke-opacity:0.1; fill:none" points="
  193.936,1053.96 1896.9,1053.96 
  "/>
<polyline clip-path="url(#clip063)" style="stroke:#000000; stroke-linecap:butt; stroke-linejoin:round; stroke-width:2; stroke-opacity:0.1; fill:none" points="
  193.936,660.048 1896.9,660.048 
  "/>
<polyline clip-path="url(#clip063)" style="stroke:#000000; stroke-linecap:butt; stroke-linejoin:round; stroke-width:2; stroke-opacity:0.1; fill:none" points="
  193.936,266.135 1896.9,266.135 
  "/>
<polyline clip-path="url(#clip060)" style="stroke:#000000; stroke-linecap:butt; stroke-linejoin:round; stroke-width:4; stroke-opacity:1; fill:none" points="
  193.936,1486.45 193.936,123.472 
  "/>
<polyline clip-path="url(#clip060)" style="stroke:#000000; stroke-linecap:butt; stroke-linejoin:round; stroke-width:4; stroke-opacity:1; fill:none" points="
  193.936,1447.87 208.843,1447.87 
  "/>
<polyline clip-path="url(#clip060)" style="stroke:#000000; stroke-linecap:butt; stroke-linejoin:round; stroke-width:4; stroke-opacity:1; fill:none" points="
  193.936,1053.96 208.843,1053.96 
  "/>
<polyline clip-path="url(#clip060)" style="stroke:#000000; stroke-linecap:butt; stroke-linejoin:round; stroke-width:4; stroke-opacity:1; fill:none" points="
  193.936,660.048 208.843,660.048 
  "/>
<polyline clip-path="url(#clip060)" style="stroke:#000000; stroke-linecap:butt; stroke-linejoin:round; stroke-width:4; stroke-opacity:1; fill:none" points="
  193.936,266.135 208.843,266.135 
  "/>
<path clip-path="url(#clip060)" d="M50.9921 1448.32 L80.6679 1448.32 L80.6679 1452.26 L50.9921 1452.26 L50.9921 1448.32 Z" fill="#000000" fill-rule="evenodd" fill-opacity="1" /><path clip-path="url(#clip060)" d="M91.5706 1461.22 L99.2095 1461.22 L99.2095 1434.85 L90.8993 1436.52 L90.8993 1432.26 L99.1632 1430.59 L103.839 1430.59 L103.839 1461.22 L111.478 1461.22 L111.478 1465.15 L91.5706 1465.15 L91.5706 1461.22 Z" fill="#000000" fill-rule="evenodd" fill-opacity="1" /><path clip-path="url(#clip060)" d="M120.922 1459.27 L125.807 1459.27 L125.807 1465.15 L120.922 1465.15 L120.922 1459.27 Z" fill="#000000" fill-rule="evenodd" fill-opacity="1" /><path clip-path="url(#clip060)" d="M145.992 1433.67 Q142.381 1433.67 140.552 1437.24 Q138.746 1440.78 138.746 1447.91 Q138.746 1455.01 140.552 1458.58 Q142.381 1462.12 145.992 1462.12 Q149.626 1462.12 151.431 1458.58 Q153.26 1455.01 153.26 1447.91 Q153.26 1440.78 151.431 1437.24 Q149.626 1433.67 145.992 1433.67 M145.992 1429.97 Q151.802 1429.97 154.857 1434.57 Q157.936 1439.16 157.936 1447.91 Q157.936 1456.63 154.857 1461.24 Q151.802 1465.82 145.992 1465.82 Q140.181 1465.82 137.103 1461.24 Q134.047 1456.63 134.047 1447.91 Q134.047 1439.16 137.103 1434.57 Q140.181 1429.97 145.992 1429.97 Z" fill="#000000" fill-rule="evenodd" fill-opacity="1" /><path clip-path="url(#clip060)" d="M51.9875 1054.41 L81.6633 1054.41 L81.6633 1058.35 L51.9875 1058.35 L51.9875 1054.41 Z" fill="#000000" fill-rule="evenodd" fill-opacity="1" /><path clip-path="url(#clip060)" d="M101.756 1039.76 Q98.1447 1039.76 96.316 1043.32 Q94.5104 1046.87 94.5104 1054 Q94.5104 1061.1 96.316 1064.67 Q98.1447 1068.21 101.756 1068.21 Q105.39 1068.21 107.196 1064.67 Q109.024 1061.1 109.024 1054 Q109.024 1046.87 107.196 1043.32 Q105.39 1039.76 101.756 1039.76 M101.756 1036.06 Q107.566 1036.06 110.621 1040.66 Q113.7 1045.25 113.7 1054 Q113.7 1062.72 110.621 1067.33 Q107.566 1071.91 101.756 1071.91 Q95.9456 1071.91 92.8669 1067.33 Q89.8114 1062.72 89.8114 1054 Q89.8114 1045.25 92.8669 1040.66 Q95.9456 1036.06 101.756 1036.06 Z" fill="#000000" fill-rule="evenodd" fill-opacity="1" /><path clip-path="url(#clip060)" d="M121.918 1065.36 L126.802 1065.36 L126.802 1071.24 L121.918 1071.24 L121.918 1065.36 Z" fill="#000000" fill-rule="evenodd" fill-opacity="1" /><path clip-path="url(#clip060)" d="M137.033 1036.68 L155.39 1036.68 L155.39 1040.62 L141.316 1040.62 L141.316 1049.09 Q142.334 1048.74 143.353 1048.58 Q144.371 1048.39 145.39 1048.39 Q151.177 1048.39 154.556 1051.56 Q157.936 1054.74 157.936 1060.15 Q157.936 1065.73 154.464 1068.83 Q150.992 1071.91 144.672 1071.91 Q142.496 1071.91 140.228 1071.54 Q137.982 1071.17 135.575 1070.43 L135.575 1065.73 Q137.658 1066.87 139.881 1067.42 Q142.103 1067.98 144.58 1067.98 Q148.584 1067.98 150.922 1065.87 Q153.26 1063.76 153.26 1060.15 Q153.26 1056.54 150.922 1054.43 Q148.584 1052.33 144.58 1052.33 Q142.705 1052.33 140.83 1052.75 Q138.978 1053.16 137.033 1054.04 L137.033 1036.68 Z" fill="#000000" fill-rule="evenodd" fill-opacity="1" /><path clip-path="url(#clip060)" d="M100.76 645.846 Q97.1493 645.846 95.3206 649.411 Q93.515 652.953 93.515 660.082 Q93.515 667.189 95.3206 670.754 Q97.1493 674.295 100.76 674.295 Q104.395 674.295 106.2 670.754 Q108.029 667.189 108.029 660.082 Q108.029 652.953 106.2 649.411 Q104.395 645.846 100.76 645.846 M100.76 642.143 Q106.571 642.143 109.626 646.749 Q112.705 651.332 112.705 660.082 Q112.705 668.809 109.626 673.416 Q106.571 677.999 100.76 677.999 Q94.9502 677.999 91.8715 673.416 Q88.816 668.809 88.816 660.082 Q88.816 651.332 91.8715 646.749 Q94.9502 642.143 100.76 642.143 Z" fill="#000000" fill-rule="evenodd" fill-opacity="1" /><path clip-path="url(#clip060)" d="M120.922 671.448 L125.807 671.448 L125.807 677.328 L120.922 677.328 L120.922 671.448 Z" fill="#000000" fill-rule="evenodd" fill-opacity="1" /><path clip-path="url(#clip060)" d="M145.992 645.846 Q142.381 645.846 140.552 649.411 Q138.746 652.953 138.746 660.082 Q138.746 667.189 140.552 670.754 Q142.381 674.295 145.992 674.295 Q149.626 674.295 151.431 670.754 Q153.26 667.189 153.26 660.082 Q153.26 652.953 151.431 649.411 Q149.626 645.846 145.992 645.846 M145.992 642.143 Q151.802 642.143 154.857 646.749 Q157.936 651.332 157.936 660.082 Q157.936 668.809 154.857 673.416 Q151.802 677.999 145.992 677.999 Q140.181 677.999 137.103 673.416 Q134.047 668.809 134.047 660.082 Q134.047 651.332 137.103 646.749 Q140.181 642.143 145.992 642.143 Z" fill="#000000" fill-rule="evenodd" fill-opacity="1" /><path clip-path="url(#clip060)" d="M101.756 251.934 Q98.1447 251.934 96.316 255.498 Q94.5104 259.04 94.5104 266.17 Q94.5104 273.276 96.316 276.841 Q98.1447 280.382 101.756 280.382 Q105.39 280.382 107.196 276.841 Q109.024 273.276 109.024 266.17 Q109.024 259.04 107.196 255.498 Q105.39 251.934 101.756 251.934 M101.756 248.23 Q107.566 248.23 110.621 252.836 Q113.7 257.42 113.7 266.17 Q113.7 274.896 110.621 279.503 Q107.566 284.086 101.756 284.086 Q95.9456 284.086 92.8669 279.503 Q89.8114 274.896 89.8114 266.17 Q89.8114 257.42 92.8669 252.836 Q95.9456 248.23 101.756 248.23 Z" fill="#000000" fill-rule="evenodd" fill-opacity="1" /><path clip-path="url(#clip060)" d="M121.918 277.535 L126.802 277.535 L126.802 283.415 L121.918 283.415 L121.918 277.535 Z" fill="#000000" fill-rule="evenodd" fill-opacity="1" /><path clip-path="url(#clip060)" d="M137.033 248.855 L155.39 248.855 L155.39 252.79 L141.316 252.79 L141.316 261.262 Q142.334 260.915 143.353 260.753 Q144.371 260.568 145.39 260.568 Q151.177 260.568 154.556 263.739 Q157.936 266.91 157.936 272.327 Q157.936 277.906 154.464 281.007 Q150.992 284.086 144.672 284.086 Q142.496 284.086 140.228 283.716 Q137.982 283.345 135.575 282.605 L135.575 277.906 Q137.658 279.04 139.881 279.595 Q142.103 280.151 144.58 280.151 Q148.584 280.151 150.922 278.045 Q153.26 275.938 153.26 272.327 Q153.26 268.716 150.922 266.609 Q148.584 264.503 144.58 264.503 Q142.705 264.503 140.83 264.92 Q138.978 265.336 137.033 266.216 L137.033 248.855 Z" fill="#000000" fill-rule="evenodd" fill-opacity="1" /><path clip-path="url(#clip060)" d="M383.706 31.22 Q383.706 35.8108 380.304 40.0327 Q376.943 44.2546 371.45 46.8369 Q365.999 49.3783 360.137 49.3783 L345.873 49.3783 L340.667 70.3648 Q340.626 70.4878 340.503 71.0206 Q340.38 71.5125 340.38 71.7994 Q340.38 72.8241 341.651 73.0701 Q342.963 73.316 345.873 73.316 Q347.759 73.316 348.045 73.6439 Q348.209 73.8489 348.209 74.2178 Q348.209 74.7916 348.045 75.2015 Q347.882 75.5704 347.554 75.6934 Q347.267 75.8164 347.062 75.8574 Q346.857 75.8983 346.529 75.8983 Q345.668 75.8983 343.824 75.8164 Q342.02 75.7344 341.077 75.7344 L335.708 75.6524 L325.05 75.8983 Q323.78 75.8983 323.78 74.8736 Q323.78 74.0948 324.108 73.7669 Q324.436 73.398 324.805 73.357 Q325.173 73.316 326.116 73.316 Q328.166 73.316 329.395 73.1931 Q330.625 73.0701 331.404 72.9061 Q332.224 72.7012 332.634 72.1273 Q333.084 71.5535 333.289 71.0616 Q333.494 70.5287 333.781 69.3401 L345.012 24.2519 Q345.34 22.8992 345.34 22.6943 Q345.34 21.9974 344.93 21.7515 Q344.561 21.4646 343.496 21.3416 Q341.446 21.1777 339.889 21.1777 Q338.864 21.1777 338.454 21.1367 Q338.085 21.0957 337.757 20.8907 Q337.47 20.6448 337.47 20.1529 Q337.47 19.3741 337.798 19.0462 Q338.167 18.6773 338.577 18.6363 Q338.987 18.5543 339.971 18.5543 L367.187 18.5543 Q375.016 18.5543 379.361 22.2844 Q383.706 26.0144 383.706 31.22 M375.918 29.2116 Q375.918 21.1777 364.482 21.1777 L356.448 21.1777 Q353.784 21.1777 353.128 21.6695 Q352.472 22.1204 351.898 24.3748 L346.201 47.2058 L358.047 47.2058 Q365.999 47.2058 370.958 42.738 Q373.213 40.6886 374.566 36.4257 Q375.918 32.1628 375.918 29.2116 Z" fill="#000000" fill-rule="evenodd" fill-opacity="1" /><path clip-path="url(#clip060)" d="M420.716 44.2546 Q420.716 46.4271 419.281 47.8207 Q417.888 49.2143 416.084 49.2143 Q414.527 49.2143 413.707 48.3126 Q412.887 47.4108 412.887 46.2631 Q412.887 44.6235 414.158 43.2709 Q415.428 41.9182 417.273 41.6313 Q415.92 40.6476 413.748 40.6476 Q410.182 40.6476 407.026 43.3938 Q405.632 44.6645 404.115 47.0009 Q402.599 49.2963 402.312 50.28 L399.648 61.2242 Q399.402 62.4539 397.885 68.3563 Q396.409 74.2178 396.286 74.4637 Q395.877 75.6114 394.975 76.2263 Q394.073 76.8411 393.171 76.8411 Q392.147 76.8411 391.45 76.2263 Q390.753 75.6114 390.753 74.5457 Q390.753 74.3817 390.876 73.7669 Q390.999 73.1521 391.204 72.2913 Q391.409 71.4305 391.491 70.9386 L396.368 51.5507 Q397.27 48.0256 397.475 46.9189 Q397.721 45.7712 397.721 44.5006 Q397.721 42.2871 397.024 41.4674 Q396.327 40.6476 395.098 40.6476 Q392.966 40.6476 391.573 43.1889 Q390.179 45.7302 388.99 50.6489 Q388.621 52.0016 388.375 52.2885 Q388.171 52.5754 387.556 52.5754 Q386.531 52.5345 386.531 51.7147 Q386.531 51.5097 386.859 50.1981 Q387.187 48.8454 387.802 46.8779 Q388.457 44.8695 389.154 43.5988 Q389.564 42.738 389.933 42.1642 Q390.302 41.5903 391.04 40.6886 Q391.778 39.7868 392.884 39.2949 Q393.991 38.803 395.344 38.803 Q398.295 38.803 400.385 40.6066 Q402.517 42.4101 403.009 45.2384 Q404.033 43.7627 405.304 42.4921 Q406.575 41.1804 408.911 39.9917 Q411.248 38.803 413.748 38.803 Q416.863 38.803 418.79 40.4016 Q420.716 41.9592 420.716 44.2546 Z" fill="#000000" fill-rule="evenodd" fill-opacity="1" /><path clip-path="url(#clip060)" d="M462.942 52.9853 Q462.942 57.4532 460.974 61.88 Q459.007 66.2659 455.851 69.545 Q452.735 72.7832 448.636 74.8326 Q444.538 76.8411 440.439 76.8411 Q434.577 76.8411 430.765 72.8651 Q426.994 68.8482 426.994 62.6178 Q426.994 56.7973 430.232 51.2638 Q433.511 45.6892 438.758 42.2461 Q444.005 38.803 449.497 38.803 Q455.277 38.803 459.089 42.697 Q462.942 46.591 462.942 52.9853 M456.793 49.7062 Q456.793 45.7302 454.867 43.1889 Q452.94 40.6476 449.415 40.6476 Q448.39 40.6476 447.202 40.9755 Q446.013 41.2624 444.456 42.0412 Q442.939 42.82 441.217 44.4596 Q439.537 46.0581 438.061 48.3535 Q436.135 51.3868 434.659 56.9613 Q433.224 62.4948 433.224 65.815 Q433.224 70.4058 435.356 72.7012 Q437.487 74.9556 440.521 74.9556 Q443.472 74.9556 446.587 72.9061 Q449.743 70.8157 451.916 67.2496 Q454.088 63.5606 455.441 58.15 Q456.793 52.6984 456.793 49.7062 Z" fill="#000000" fill-rule="evenodd" fill-opacity="1" /><path clip-path="url(#clip060)" d="M498.212 52.2065 Q498.212 58.109 495.22 63.8885 Q492.268 69.627 487.514 73.234 Q482.8 76.8411 477.963 76.8411 Q473.249 76.8411 470.257 73.234 Q467.306 69.586 467.306 63.6425 Q467.306 61.5521 467.552 60.0765 Q467.798 58.6009 468.659 55.1578 L475.545 27.7769 Q476.733 22.6533 476.733 22.6123 Q476.733 22.1204 476.529 21.8745 Q476.365 21.5876 475.381 21.3826 Q474.397 21.1777 472.512 21.1777 Q471.733 21.1777 471.364 21.1367 Q471.036 21.0957 470.749 20.8907 Q470.503 20.6448 470.503 20.1529 Q470.503 19.4561 470.79 19.0872 Q471.118 18.6773 471.364 18.5953 Q471.61 18.5134 472.102 18.4724 Q472.798 18.4314 475.135 18.2264 Q477.471 17.9805 479.48 17.8165 Q481.488 17.6526 482.349 17.6526 Q482.841 17.6526 483.087 17.8985 Q483.374 18.1035 483.374 18.3494 L483.415 18.5543 L477.225 43.8447 Q482.103 38.803 487.063 38.803 Q492.022 38.803 495.097 42.615 Q498.212 46.4271 498.212 52.2065 M492.145 48.5175 Q492.145 44.6235 490.67 42.656 Q489.235 40.6476 486.858 40.6476 Q484.849 40.6476 482.226 42.1642 Q479.603 43.6808 476.815 47.3698 Q476.283 48.0666 476.078 48.4765 Q475.914 48.8864 475.545 50.28 L473.7 58.027 Q472.348 63.3146 472.348 66.5118 Q472.348 70.8567 473.946 72.9061 Q475.545 74.9556 477.963 74.9556 Q480.504 74.9556 483.169 72.7012 Q485.833 70.4468 487.883 66.3478 Q489.153 63.6425 490.629 57.8221 Q492.145 51.9606 492.145 48.5175 Z" fill="#000000" fill-rule="evenodd" fill-opacity="1" /><path clip-path="url(#clip060)" d="M520.567 18.5543 L508.475 67.0856 Q507.983 69.0121 507.983 71.1026 Q507.983 74.9556 510.524 74.9556 Q511.713 74.9556 512.697 74.1768 Q513.68 73.357 514.418 71.7584 Q515.197 70.1189 515.689 68.5613 Q516.222 67.0037 516.877 64.5853 Q517.082 63.6425 517.287 63.3556 Q517.492 63.0687 518.066 63.0687 Q519.091 63.0687 519.091 63.8885 Q518.066 68.9302 516.55 72.1273 Q514.336 76.8411 510.237 76.8411 Q507.163 76.8411 504.868 74.7097 Q502.613 72.5372 502.613 69.0941 Q502.613 67.7825 503.023 66.2249 L513.598 24.2519 L513.885 22.6123 Q513.885 22.1614 513.721 21.9155 Q513.557 21.6695 512.574 21.4236 Q511.631 21.1777 509.745 21.1777 Q508.967 21.1777 508.598 21.1367 Q508.27 21.0957 507.942 20.8907 Q507.655 20.6858 507.655 20.2349 Q507.655 19.4971 507.942 19.0872 Q508.27 18.6773 508.516 18.5953 Q508.762 18.5134 509.253 18.4724 Q509.95 18.4314 512.287 18.2264 Q514.623 17.9805 516.632 17.8165 Q518.64 17.6526 519.501 17.6526 Q519.993 17.6526 520.239 17.8985 Q520.526 18.1035 520.567 18.3494 L520.567 18.5543 Z" fill="#000000" fill-rule="evenodd" fill-opacity="1" /><path clip-path="url(#clip060)" d="M560.315 66.1839 Q560.643 66.5528 560.643 66.9217 Q560.643 67.2906 559.824 68.3563 Q559.045 69.422 557.364 70.8567 Q555.684 72.2913 553.511 73.6439 Q551.339 74.9966 548.142 75.8983 Q544.944 76.8411 541.583 76.8411 Q535.558 76.8411 531.951 72.5372 Q528.385 68.2333 528.385 61.6341 Q528.385 57.4122 529.778 53.6822 Q531.172 49.9111 533.426 47.2468 Q535.722 44.5825 538.591 42.656 Q541.501 40.6886 544.535 39.7458 Q547.568 38.803 550.396 38.803 Q554.536 38.803 556.954 40.8935 Q559.373 42.984 559.373 45.9352 Q559.373 46.632 559.168 47.4928 Q559.004 48.3535 558.43 49.7062 Q557.897 51.0588 556.503 52.4115 Q555.11 53.7231 553.06 54.5839 Q548.511 56.5104 540.231 56.5104 L535.763 56.5104 Q534.451 61.798 534.451 65.2411 Q534.451 66.5938 534.697 67.9874 Q534.943 69.3401 535.599 71.0616 Q536.296 72.7832 537.853 73.8899 Q539.452 74.9556 541.747 74.9556 Q542.485 74.9556 543.264 74.9146 Q544.084 74.8736 546.133 74.4227 Q548.224 73.9718 550.068 73.1931 Q551.913 72.4143 554.249 70.7337 Q556.626 69.0121 558.512 66.6758 Q559.168 65.815 559.619 65.815 Q559.988 65.815 560.315 66.1839 M556.585 45.9352 Q556.585 43.6808 554.905 42.1642 Q553.265 40.6476 550.396 40.6476 Q549.494 40.6476 548.388 40.8525 Q547.281 41.0575 545.436 41.9182 Q543.633 42.779 542.034 44.2136 Q540.436 45.6073 538.837 48.3535 Q537.238 51.0588 536.296 54.6659 L539.739 54.6659 Q540.927 54.6659 541.788 54.6659 Q542.649 54.6249 544.535 54.461 Q546.461 54.297 547.855 54.0101 Q549.248 53.6822 551.011 53.0263 Q552.773 52.3705 553.88 51.5097 Q555.028 50.608 555.807 49.1733 Q556.585 47.7387 556.585 45.9352 Z" fill="#000000" fill-rule="evenodd" fill-opacity="1" /><path clip-path="url(#clip060)" d="M634.213 63.8885 Q634.213 64.2164 633.844 65.4871 Q633.476 66.7577 632.574 68.7252 Q631.713 70.6927 630.483 72.4962 Q629.295 74.2588 627.327 75.5704 Q625.401 76.8411 623.187 76.8411 Q620.236 76.8411 618.269 74.8736 Q616.301 72.9061 616.301 69.9549 Q616.301 68.3563 617.408 65.3231 Q622.613 51.4687 622.613 46.509 Q622.613 40.6476 618.064 40.6476 Q615.481 40.6476 613.145 41.7133 Q610.809 42.779 609.292 44.2546 Q607.775 45.7302 606.587 47.4108 Q605.398 49.0914 604.865 50.1981 Q604.373 51.3048 604.25 51.7966 L599.209 72.0454 Q598.799 73.7669 598.512 74.5867 Q598.225 75.4065 597.446 76.1033 Q596.667 76.8411 595.438 76.8411 Q594.413 76.8411 593.675 76.2263 Q592.978 75.6114 592.978 74.5457 Q592.978 74.3817 593.183 73.521 Q593.388 72.6602 593.675 71.4715 Q593.962 70.2828 594.085 69.586 Q595.56 64.0115 595.765 63.2327 L598.102 53.4772 Q599.372 48.6405 599.372 46.509 Q599.372 40.6476 594.823 40.6476 Q592.568 40.6476 590.437 41.5083 Q588.346 42.3281 586.912 43.4758 Q585.477 44.6235 584.165 46.2221 Q582.895 47.7797 582.239 48.8454 Q581.624 49.8702 581.132 50.8949 L580.067 55.0758 Q579.821 56.2235 578.632 60.6913 L576.787 68.2743 Q575.476 73.9309 575.189 74.4637 Q574.779 75.6114 573.877 76.2263 Q572.975 76.8411 572.074 76.8411 Q571.049 76.8411 570.352 76.2263 Q569.655 75.6114 569.655 74.5457 Q569.655 74.3817 569.778 73.7669 Q569.901 73.1521 570.106 72.2913 Q570.311 71.4305 570.393 70.9386 L575.271 51.5507 Q576.173 48.0256 576.378 46.9189 Q576.623 45.7712 576.623 44.5006 Q576.623 40.6476 574 40.6476 Q571.869 40.6476 570.475 43.1889 Q569.081 45.7302 567.893 50.6489 Q567.524 52.0016 567.278 52.2885 Q567.073 52.5754 566.458 52.5754 Q565.433 52.5345 565.433 51.7147 Q565.433 51.5097 565.761 50.1981 Q566.089 48.8864 566.704 46.9189 Q567.36 44.9104 568.057 43.5988 Q568.467 42.738 568.835 42.1642 Q569.204 41.5903 569.942 40.6886 Q570.68 39.7868 571.787 39.2949 Q572.893 38.803 574.246 38.803 Q577.238 38.803 579.452 40.7295 Q581.706 42.656 581.993 46.0991 Q587.445 38.803 595.069 38.803 Q599.372 38.803 601.955 40.9755 Q604.373 43.0659 604.66 46.9189 Q610.317 38.803 618.351 38.803 Q622.982 38.803 625.483 41.2214 Q627.983 43.5988 627.983 47.7797 Q627.983 49.9521 626.876 54.092 Q625.77 58.191 625.032 60.2404 Q624.294 62.2899 622.859 66.2249 Q621.343 69.9959 621.343 72.2093 Q621.343 73.6439 621.835 74.2998 Q622.326 74.9556 623.392 74.9556 Q625.032 74.9556 626.466 74.0128 Q627.901 73.0291 628.926 71.4305 Q629.991 69.7909 630.688 68.1514 Q631.385 66.4708 631.918 64.5853 Q632.246 63.5606 632.41 63.3146 Q632.615 63.0687 633.189 63.0687 Q634.213 63.0687 634.213 63.8885 Z" fill="#000000" fill-rule="evenodd" fill-opacity="1" /><path clip-path="url(#clip060)" d="M660.606 75.8983 Q660.606 74.3817 660.729 73.9309 Q660.893 73.48 661.549 72.7832 L677.658 54.8299 Q686.47 44.9104 686.47 36.2617 Q686.47 30.6462 683.519 26.6292 Q680.609 22.6123 675.239 22.6123 Q671.55 22.6123 668.435 24.8667 Q665.32 27.1211 663.885 31.1381 Q664.131 31.0561 664.992 31.0561 Q667.083 31.0561 668.23 32.3677 Q669.419 33.6794 669.419 35.4419 Q669.419 37.6963 667.943 38.803 Q666.509 39.8688 665.074 39.8688 Q664.5 39.8688 663.721 39.7458 Q662.984 39.6228 661.795 38.4751 Q660.606 37.2864 660.606 35.196 Q660.606 29.3345 665.033 24.6617 Q669.501 19.989 676.305 19.989 Q684.011 19.989 689.053 24.5798 Q694.135 29.1296 694.135 36.2617 Q694.135 38.7621 693.357 41.0575 Q692.619 43.3119 691.594 45.0744 Q690.61 46.8369 687.905 49.6652 Q685.2 52.4935 683.027 54.5019 Q680.855 56.5104 675.977 60.7733 L667.083 69.422 L682.208 69.422 Q689.586 69.422 690.159 68.7662 Q690.979 67.5775 692.004 61.3062 L694.135 61.3062 L691.758 75.8983 L660.606 75.8983 Z" fill="#000000" fill-rule="evenodd" fill-opacity="1" /><path clip-path="url(#clip060)" d="M703.447 74.5457 Q702.177 73.1931 702.177 71.4305 Q702.177 69.668 703.447 68.3973 Q704.718 67.0856 706.644 67.0856 Q708.489 67.0856 709.719 68.3153 Q710.989 69.504 710.989 71.4715 Q710.989 73.398 709.637 74.6687 Q708.325 75.8983 706.644 75.8983 Q704.718 75.8983 703.447 74.5457 Z" fill="#000000" fill-rule="evenodd" fill-opacity="1" /><path clip-path="url(#clip060)" d="M716.776 27.9819 L716.776 25.3586 Q726.859 25.3586 732.065 19.989 Q733.499 19.989 733.745 20.3169 Q733.991 20.6448 733.991 22.1614 L733.991 69.2581 Q733.991 71.7584 735.221 72.5372 Q736.45 73.316 741.82 73.316 L744.484 73.316 L744.484 75.8983 Q741.533 75.6524 730.876 75.6524 Q720.219 75.6524 717.309 75.8983 L717.309 73.316 L719.973 73.316 Q725.26 73.316 726.531 72.5782 Q727.802 71.7994 727.802 69.2581 L727.802 25.7685 Q723.416 27.9819 716.776 27.9819 Z" fill="#000000" fill-rule="evenodd" fill-opacity="1" /><path clip-path="url(#clip060)" d="M782.948 74.6277 Q781.636 73.316 781.636 71.4715 Q781.636 69.627 782.948 68.3153 Q784.26 67.0037 786.104 67.0037 Q787.949 67.0037 789.26 68.3153 Q790.572 69.627 790.572 71.4715 Q790.572 73.316 789.26 74.6277 Q787.949 75.8983 786.104 75.8983 Q784.26 75.8983 782.948 74.6277 M782.948 47.3288 Q781.636 46.0172 781.636 44.1726 Q781.636 42.3281 782.948 41.0165 Q784.26 39.7048 786.104 39.7048 Q787.949 39.7048 789.26 41.0165 Q790.572 42.3281 790.572 44.1726 Q790.572 46.0172 789.26 47.3288 Q787.949 48.5995 786.104 48.5995 Q784.26 48.5995 782.948 47.3288 Z" fill="#000000" fill-rule="evenodd" fill-opacity="1" /><path clip-path="url(#clip060)" d="M891.976 22.4893 Q891.976 24.7437 890.542 26.1374 Q889.148 27.531 887.385 27.531 Q886.115 27.531 885.172 26.7522 Q884.27 25.9734 884.27 24.6208 Q884.27 23.2271 885.336 21.7515 Q886.402 20.2759 888.82 20.0709 Q887.221 18.5543 884.68 18.5543 Q883.409 18.5543 882.344 19.3741 Q881.319 20.1529 880.745 21.4236 Q880.13 22.7353 878.737 30.1543 Q878.286 32.5727 877.876 34.9091 Q877.466 37.2455 876.974 39.7048 L883.942 39.7048 Q884.844 39.7048 885.213 39.7458 Q885.582 39.7868 885.869 39.9917 Q886.197 40.1967 886.197 40.6476 Q886.197 41.7953 885.664 42.0822 Q885.172 42.3281 883.696 42.3281 L876.482 42.3281 L871.441 68.9302 Q871.318 69.709 870.785 72.1683 Q870.293 74.5867 869.104 78.5626 Q867.915 82.5796 866.727 84.957 Q866.071 86.3096 865.21 87.5803 Q864.39 88.8919 863.202 90.2036 Q862.013 91.5153 860.455 92.2941 Q858.898 93.1138 857.258 93.1138 Q854.471 93.1138 852.299 91.5562 Q850.126 89.9987 850.126 87.3344 Q850.126 85.0799 851.52 83.6863 Q852.954 82.2927 854.717 82.2927 Q855.988 82.2927 856.889 83.0715 Q857.832 83.8503 857.832 85.2029 Q857.832 85.7768 857.627 86.4326 Q857.422 87.0884 856.971 87.8262 Q856.52 88.605 855.537 89.1379 Q854.553 89.6707 853.2 89.7527 Q854.799 91.2693 857.258 91.2693 Q858.037 91.2693 858.734 90.9414 Q859.431 90.6545 860.005 89.9167 Q860.619 89.1789 861.07 88.4411 Q861.521 87.7442 861.972 86.3916 Q862.423 85.0799 862.71 84.0962 Q862.997 83.1125 863.366 81.3499 Q863.776 79.5874 863.98 78.5217 Q864.185 77.4969 864.554 75.4885 L870.826 42.3281 L865.292 42.3281 Q864.308 42.3281 863.899 42.2871 Q863.53 42.2461 863.243 42.0412 Q862.956 41.7953 862.956 41.3034 Q862.956 40.5246 863.284 40.1967 Q863.653 39.8278 864.062 39.7868 Q864.472 39.7048 865.456 39.7048 L871.277 39.7048 Q873.244 29.3345 874.023 26.5473 Q874.925 23.596 876.318 21.5466 Q877.712 19.4561 879.269 18.4724 Q880.827 17.4886 882.098 17.1197 Q883.409 16.7098 884.68 16.7098 Q887.549 16.7098 889.763 18.2674 Q891.976 19.784 891.976 22.4893 Z" fill="#000000" fill-rule="evenodd" fill-opacity="1" /><path clip-path="url(#clip060)" d="M903.276 54.9118 Q903.276 40.7295 908.564 29.2935 Q910.818 24.4978 913.974 20.4808 Q917.13 16.4639 919.221 14.7014 Q921.311 12.9388 921.885 12.9388 Q922.705 12.9388 922.746 13.7586 Q922.746 14.1685 921.639 15.1932 Q908.113 28.9656 908.154 54.9118 Q908.154 80.94 921.311 94.1796 Q922.746 95.6142 922.746 96.0651 Q922.746 96.8849 921.885 96.8849 Q921.311 96.8849 919.303 95.2043 Q917.294 93.5237 914.179 89.6707 Q911.064 85.8177 908.809 81.104 Q903.276 69.668 903.276 54.9118 Z" fill="#000000" fill-rule="evenodd" fill-opacity="1" /><path clip-path="url(#clip060)" d="M970.934 44.3366 Q970.934 46.632 969.5 47.9437 Q968.065 49.2143 966.425 49.2143 Q964.868 49.2143 964.048 48.3126 Q963.228 47.4108 963.228 46.2631 Q963.228 44.7055 964.376 43.3529 Q965.524 42.0002 967.245 41.7133 Q965.565 40.6476 963.064 40.6476 Q961.425 40.6476 959.99 41.5083 Q958.596 42.3691 957.736 43.4758 Q956.916 44.5825 956.178 46.1811 Q955.481 47.7387 955.194 48.6815 Q954.948 49.5832 954.743 50.567 L951.874 62.044 Q950.481 67.4955 950.481 69.422 Q950.481 71.7994 951.628 73.398 Q952.776 74.9556 955.071 74.9556 Q955.973 74.9556 956.998 74.7097 Q958.023 74.4227 959.334 73.6849 Q960.687 72.9061 961.876 71.7584 Q963.105 70.5697 964.294 68.5613 Q965.483 66.5528 966.261 63.9705 Q966.507 63.0687 967.327 63.0687 Q968.352 63.0687 968.352 63.8885 Q968.352 64.5853 967.778 66.0609 Q967.245 67.4955 966.056 69.381 Q964.909 71.2256 963.392 72.9061 Q961.876 74.5457 959.621 75.6934 Q957.367 76.8411 954.907 76.8411 Q951.382 76.8411 949.046 74.9556 Q946.71 73.0701 945.849 70.4468 Q945.644 70.8157 945.357 71.3075 Q945.07 71.7994 944.209 72.9061 Q943.389 73.9718 942.447 74.7916 Q941.504 75.5704 940.028 76.1853 Q938.594 76.8411 937.036 76.8411 Q935.069 76.8411 933.306 76.2672 Q931.584 75.6934 930.355 74.3817 Q929.125 73.0701 929.125 71.2666 Q929.125 69.2581 930.478 67.8644 Q931.871 66.4298 933.757 66.4298 Q934.946 66.4298 935.888 67.1266 Q936.872 67.8235 936.872 69.3401 Q936.872 71.0206 935.724 72.2913 Q934.577 73.562 932.937 73.8899 Q934.618 74.9556 937.118 74.9556 Q939.823 74.9556 941.955 72.5782 Q944.086 70.2008 945.111 66.2249 Q947.652 56.6744 948.636 52.4115 Q949.62 48.1076 949.62 46.2631 Q949.62 44.5415 949.169 43.3529 Q948.718 42.1642 947.939 41.6313 Q947.201 41.0575 946.505 40.8525 Q945.849 40.6476 945.111 40.6476 Q943.881 40.6476 942.488 41.1394 Q941.135 41.6313 939.495 42.779 Q937.897 43.8857 936.38 46.1811 Q934.864 48.4765 933.839 51.6327 Q933.634 52.5754 932.732 52.5754 Q931.748 52.5345 931.748 51.7147 Q931.748 51.0179 932.281 49.5832 Q932.855 48.1076 934.003 46.2631 Q935.192 44.4186 936.708 42.779 Q938.266 41.0984 940.52 39.9507 Q942.816 38.803 945.275 38.803 Q946.382 38.803 947.447 39.049 Q948.554 39.2539 949.866 39.8688 Q951.218 40.4836 952.407 41.8363 Q953.596 43.1889 954.334 45.1564 Q954.825 44.2136 955.481 43.3119 Q956.178 42.4101 957.244 41.3034 Q958.35 40.1557 959.867 39.4999 Q961.425 38.803 963.146 38.803 Q964.827 38.803 966.466 39.2539 Q968.106 39.6638 969.5 41.0165 Q970.934 42.3281 970.934 44.3366 Z" fill="#000000" fill-rule="evenodd" fill-opacity="1" /><path clip-path="url(#clip060)" d="M979.015 96.0651 Q979.015 95.6552 980.081 94.6304 Q993.607 80.858 993.607 54.9118 Q993.607 28.8836 980.614 15.7261 Q979.015 14.2095 979.015 13.7586 Q979.015 12.9388 979.835 12.9388 Q980.409 12.9388 982.417 14.6194 Q984.467 16.2999 987.541 20.1529 Q990.656 24.0059 992.951 28.7197 Q998.485 40.1557 998.485 54.9118 Q998.485 69.0941 993.197 80.5301 Q990.943 85.3259 987.787 89.3428 Q984.631 93.3598 982.54 95.1223 Q980.45 96.8849 979.835 96.8849 Q979.015 96.8849 979.015 96.0651 Z" fill="#000000" fill-rule="evenodd" fill-opacity="1" /><path clip-path="url(#clip060)" d="M1034.54 63.1507 Q1034.62 62.1259 1036.22 62.1259 L1087.66 62.1259 Q1090.08 62.1259 1090.12 63.0687 Q1090.12 64.0934 1087.82 64.0524 L1036.79 64.0524 Q1034.54 64.0934 1034.54 63.1507 M1034.54 46.755 Q1034.54 45.7302 1036.3 45.7712 L1087.58 45.7712 Q1090.08 45.7712 1090.12 46.755 Q1090.12 47.6977 1087.99 47.6977 L1036.22 47.6977 Q1034.54 47.6977 1034.54 46.755 Z" fill="#000000" fill-rule="evenodd" fill-opacity="1" /><path clip-path="url(#clip060)" d="M1164.31 44.3366 Q1164.31 46.632 1162.87 47.9437 Q1161.44 49.2143 1159.8 49.2143 Q1158.24 49.2143 1157.42 48.3126 Q1156.6 47.4108 1156.6 46.2631 Q1156.6 44.7055 1157.75 43.3529 Q1158.9 42.0002 1160.62 41.7133 Q1158.94 40.6476 1156.44 40.6476 Q1154.8 40.6476 1153.36 41.5083 Q1151.97 42.3691 1151.11 43.4758 Q1150.29 44.5825 1149.55 46.1811 Q1148.85 47.7387 1148.57 48.6815 Q1148.32 49.5832 1148.12 50.567 L1145.25 62.044 Q1143.85 67.4955 1143.85 69.422 Q1143.85 71.7994 1145 73.398 Q1146.15 74.9556 1148.44 74.9556 Q1149.35 74.9556 1150.37 74.7097 Q1151.4 74.4227 1152.71 73.6849 Q1154.06 72.9061 1155.25 71.7584 Q1156.48 70.5697 1157.67 68.5613 Q1158.86 66.5528 1159.64 63.9705 Q1159.88 63.0687 1160.7 63.0687 Q1161.73 63.0687 1161.73 63.8885 Q1161.73 64.5853 1161.15 66.0609 Q1160.62 67.4955 1159.43 69.381 Q1158.28 71.2256 1156.77 72.9061 Q1155.25 74.5457 1152.99 75.6934 Q1150.74 76.8411 1148.28 76.8411 Q1144.76 76.8411 1142.42 74.9556 Q1140.08 73.0701 1139.22 70.4468 Q1139.02 70.8157 1138.73 71.3075 Q1138.44 71.7994 1137.58 72.9061 Q1136.76 73.9718 1135.82 74.7916 Q1134.88 75.5704 1133.4 76.1853 Q1131.97 76.8411 1130.41 76.8411 Q1128.44 76.8411 1126.68 76.2672 Q1124.96 75.6934 1123.73 74.3817 Q1122.5 73.0701 1122.5 71.2666 Q1122.5 69.2581 1123.85 67.8644 Q1125.25 66.4298 1127.13 66.4298 Q1128.32 66.4298 1129.26 67.1266 Q1130.25 67.8235 1130.25 69.3401 Q1130.25 71.0206 1129.1 72.2913 Q1127.95 73.562 1126.31 73.8899 Q1127.99 74.9556 1130.49 74.9556 Q1133.2 74.9556 1135.33 72.5782 Q1137.46 70.2008 1138.48 66.2249 Q1141.03 56.6744 1142.01 52.4115 Q1142.99 48.1076 1142.99 46.2631 Q1142.99 44.5415 1142.54 43.3529 Q1142.09 42.1642 1141.31 41.6313 Q1140.58 41.0575 1139.88 40.8525 Q1139.22 40.6476 1138.48 40.6476 Q1137.25 40.6476 1135.86 41.1394 Q1134.51 41.6313 1132.87 42.779 Q1131.27 43.8857 1129.75 46.1811 Q1128.24 48.4765 1127.21 51.6327 Q1127.01 52.5754 1126.11 52.5754 Q1125.12 52.5345 1125.12 51.7147 Q1125.12 51.0179 1125.65 49.5832 Q1126.23 48.1076 1127.38 46.2631 Q1128.57 44.4186 1130.08 42.779 Q1131.64 41.0984 1133.89 39.9507 Q1136.19 38.803 1138.65 38.803 Q1139.76 38.803 1140.82 39.049 Q1141.93 39.2539 1143.24 39.8688 Q1144.59 40.4836 1145.78 41.8363 Q1146.97 43.1889 1147.71 45.1564 Q1148.2 44.2136 1148.85 43.3119 Q1149.55 42.4101 1150.62 41.3034 Q1151.72 40.1557 1153.24 39.4999 Q1154.8 38.803 1156.52 38.803 Q1158.2 38.803 1159.84 39.2539 Q1161.48 39.6638 1162.87 41.0165 Q1164.31 42.3281 1164.31 44.3366 Z" fill="#000000" fill-rule="evenodd" fill-opacity="1" /><path clip-path="url(#clip060)" d="M1248.74 53.7231 Q1249.24 54.215 1249.24 54.9118 Q1249.24 55.6087 1248.74 56.1005 Q1248.25 56.5924 1247.56 56.5924 L1195.01 56.5924 Q1194.31 56.5924 1193.82 56.1005 Q1193.33 55.6087 1193.33 54.9118 Q1193.33 54.215 1193.82 53.7231 Q1194.31 53.2313 1195.01 53.2313 L1247.56 53.2313 Q1248.25 53.2313 1248.74 53.7231 Z" fill="#000000" fill-rule="evenodd" fill-opacity="1" /><path clip-path="url(#clip060)" d="M1313.22 66.1839 Q1313.55 66.5528 1313.55 66.9217 Q1313.55 67.2906 1312.73 68.3563 Q1311.95 69.422 1310.27 70.8567 Q1308.59 72.2913 1306.41 73.6439 Q1304.24 74.9966 1301.04 75.8983 Q1297.85 76.8411 1294.49 76.8411 Q1288.46 76.8411 1284.85 72.5372 Q1281.29 68.2333 1281.29 61.6341 Q1281.29 57.4122 1282.68 53.6822 Q1284.07 49.9111 1286.33 47.2468 Q1288.62 44.5825 1291.49 42.656 Q1294.4 40.6886 1297.44 39.7458 Q1300.47 38.803 1303.3 38.803 Q1307.44 38.803 1309.86 40.8935 Q1312.28 42.984 1312.28 45.9352 Q1312.28 46.632 1312.07 47.4928 Q1311.91 48.3535 1311.33 49.7062 Q1310.8 51.0588 1309.41 52.4115 Q1308.01 53.7231 1305.96 54.5839 Q1301.41 56.5104 1293.13 56.5104 L1288.67 56.5104 Q1287.35 61.798 1287.35 65.2411 Q1287.35 66.5938 1287.6 67.9874 Q1287.85 69.3401 1288.5 71.0616 Q1289.2 72.7832 1290.76 73.8899 Q1292.35 74.9556 1294.65 74.9556 Q1295.39 74.9556 1296.17 74.9146 Q1296.99 74.8736 1299.04 74.4227 Q1301.13 73.9718 1302.97 73.1931 Q1304.81 72.4143 1307.15 70.7337 Q1309.53 69.0121 1311.41 66.6758 Q1312.07 65.815 1312.52 65.815 Q1312.89 65.815 1313.22 66.1839 M1309.49 45.9352 Q1309.49 43.6808 1307.81 42.1642 Q1306.17 40.6476 1303.3 40.6476 Q1302.4 40.6476 1301.29 40.8525 Q1300.18 41.0575 1298.34 41.9182 Q1296.54 42.779 1294.94 44.2136 Q1293.34 45.6073 1291.74 48.3535 Q1290.14 51.0588 1289.2 54.6659 L1292.64 54.6659 Q1293.83 54.6659 1294.69 54.6659 Q1295.55 54.6249 1297.44 54.461 Q1299.36 54.297 1300.76 54.0101 Q1302.15 53.6822 1303.91 53.0263 Q1305.68 52.3705 1306.78 51.5097 Q1307.93 50.608 1308.71 49.1733 Q1309.49 47.7387 1309.49 45.9352 Z" fill="#000000" fill-rule="evenodd" fill-opacity="1" /><path clip-path="url(#clip060)" d="M1360.98 30.6993 Q1361.32 31.0436 1361.32 31.5314 Q1361.32 32.0192 1360.98 32.3635 Q1360.63 32.7078 1360.14 32.7078 L1323.36 32.7078 Q1322.87 32.7078 1322.53 32.3635 Q1322.18 32.0192 1322.18 31.5314 Q1322.18 31.0436 1322.53 30.6993 Q1322.87 30.355 1323.36 30.355 L1360.14 30.355 Q1360.63 30.355 1360.98 30.6993 Z" fill="#000000" fill-rule="evenodd" fill-opacity="1" /><path clip-path="url(#clip060)" d="M1396.72 24.1287 Q1396.72 25.7355 1395.72 26.6537 Q1394.71 27.5431 1393.56 27.5431 Q1392.47 27.5431 1391.9 26.9119 Q1391.33 26.2807 1391.33 25.4773 Q1391.33 24.3869 1392.13 23.4401 Q1392.93 22.4932 1394.14 22.2924 Q1392.96 21.5464 1391.21 21.5464 Q1390.06 21.5464 1389.06 22.1489 Q1388.08 22.7515 1387.48 23.5262 Q1386.91 24.3009 1386.39 25.4199 Q1385.9 26.5102 1385.7 27.1701 Q1385.53 27.8014 1385.39 28.49 L1383.38 36.5239 Q1382.4 40.34 1382.4 41.6885 Q1382.4 43.3527 1383.21 44.4717 Q1384.01 45.562 1385.62 45.562 Q1386.25 45.562 1386.96 45.3899 Q1387.68 45.189 1388.6 44.6725 Q1389.55 44.1274 1390.38 43.324 Q1391.24 42.4919 1392.07 41.086 Q1392.9 39.68 1393.45 37.8724 Q1393.62 37.2412 1394.19 37.2412 Q1394.91 37.2412 1394.91 37.815 Q1394.91 38.3028 1394.51 39.3357 Q1394.14 40.34 1393.31 41.6598 Q1392.5 42.951 1391.44 44.1274 Q1390.38 45.2751 1388.8 46.0785 Q1387.22 46.8819 1385.5 46.8819 Q1383.03 46.8819 1381.4 45.562 Q1379.76 44.2422 1379.16 42.4058 Q1379.02 42.6641 1378.82 43.0084 Q1378.61 43.3527 1378.01 44.1274 Q1377.44 44.8734 1376.78 45.4472 Q1376.12 45.9924 1375.09 46.4228 Q1374.08 46.8819 1372.99 46.8819 Q1371.61 46.8819 1370.38 46.4802 Q1369.17 46.0785 1368.31 45.1603 Q1367.45 44.2422 1367.45 42.9797 Q1367.45 41.5738 1368.4 40.5982 Q1369.38 39.594 1370.7 39.594 Q1371.53 39.594 1372.19 40.0817 Q1372.88 40.5695 1372.88 41.6311 Q1372.88 42.8075 1372.07 43.697 Q1371.27 44.5865 1370.12 44.816 Q1371.3 45.562 1373.05 45.562 Q1374.94 45.562 1376.43 43.8978 Q1377.93 42.2337 1378.64 39.4505 Q1380.42 32.7652 1381.11 29.7811 Q1381.8 26.7684 1381.8 25.4773 Q1381.8 24.2722 1381.48 23.4401 Q1381.17 22.608 1380.62 22.235 Q1380.11 21.8333 1379.62 21.6899 Q1379.16 21.5464 1378.64 21.5464 Q1377.78 21.5464 1376.81 21.8907 Q1375.86 22.235 1374.71 23.0384 Q1373.59 23.8131 1372.53 25.4199 Q1371.47 27.0267 1370.75 29.236 Q1370.61 29.8959 1369.98 29.8959 Q1369.29 29.8672 1369.29 29.2934 Q1369.29 28.8056 1369.66 27.8014 Q1370.06 26.7684 1370.87 25.4773 Q1371.7 24.1861 1372.76 23.0384 Q1373.85 21.862 1375.43 21.0586 Q1377.04 20.2552 1378.76 20.2552 Q1379.53 20.2552 1380.28 20.4274 Q1381.05 20.5708 1381.97 21.0012 Q1382.92 21.4316 1383.75 22.3785 Q1384.58 23.3253 1385.1 24.7026 Q1385.44 24.0426 1385.9 23.4114 Q1386.39 22.7802 1387.14 22.0055 Q1387.91 21.2021 1388.97 20.743 Q1390.06 20.2552 1391.27 20.2552 Q1392.44 20.2552 1393.59 20.5708 Q1394.74 20.8578 1395.72 21.8046 Q1396.72 22.7228 1396.72 24.1287 Z" fill="#000000" fill-rule="evenodd" fill-opacity="1" /><path clip-path="url(#clip060)" d="M1432.98 63.1507 Q1433.06 62.1259 1434.66 62.1259 L1486.1 62.1259 Q1488.52 62.1259 1488.56 63.0687 Q1488.56 64.0934 1486.27 64.0524 L1435.23 64.0524 Q1432.98 64.0934 1432.98 63.1507 M1432.98 46.755 Q1432.98 45.7302 1434.74 45.7712 L1486.02 45.7712 Q1488.52 45.7712 1488.56 46.755 Q1488.56 47.6977 1486.43 47.6977 L1434.66 47.6977 Q1432.98 47.6977 1432.98 46.755 Z" fill="#000000" fill-rule="evenodd" fill-opacity="1" /><path clip-path="url(#clip060)" d="M1520.94 49.0504 Q1520.94 36.7126 1524.06 29.9904 Q1528.4 19.989 1538.65 19.989 Q1540.82 19.989 1543.07 20.6038 Q1545.37 21.1777 1548.24 23.4321 Q1551.15 25.6865 1552.91 29.3755 Q1556.27 36.5076 1556.27 49.0504 Q1556.27 61.3062 1553.16 67.9874 Q1548.61 77.7429 1538.57 77.7429 Q1534.79 77.7429 1530.94 75.8164 Q1527.13 73.8899 1524.71 69.2581 Q1520.94 62.3309 1520.94 49.0504 M1527.91 48.0256 Q1527.91 60.6913 1528.81 65.733 Q1529.83 71.1846 1532.62 73.562 Q1535.45 75.8983 1538.57 75.8983 Q1541.93 75.8983 1544.71 73.398 Q1547.54 70.8567 1548.4 65.4051 Q1549.35 60.0355 1549.3 48.0256 Q1549.3 36.3437 1548.49 31.6709 Q1547.38 26.2193 1544.43 24.0469 Q1541.52 21.8335 1538.57 21.8335 Q1537.46 21.8335 1536.27 22.1614 Q1535.12 22.4893 1533.44 23.4321 Q1531.76 24.3748 1530.45 26.7112 Q1529.18 29.0476 1528.56 32.5727 Q1527.91 37.1225 1527.91 48.0256 Z" fill="#000000" fill-rule="evenodd" fill-opacity="1" /><path clip-path="url(#clip060)" d="M1563.7 74.5457 Q1562.51 73.1931 1562.51 71.4305 Q1562.51 69.668 1563.66 68.3563 Q1564.85 67.0037 1566.98 67.0037 Q1569.48 67.0037 1570.91 69.422 Q1572.35 71.7994 1572.35 75.8164 Q1572.35 80.1612 1570.59 84.1782 Q1568.82 88.2361 1567.1 90.1626 Q1565.38 92.0891 1564.68 92.0891 Q1563.86 92.0891 1563.86 91.1873 Q1563.86 90.8594 1564.44 90.2446 Q1570.46 83.7683 1570.5 75.8164 Q1570.5 74.5457 1570.34 74.5457 L1570.13 74.7097 Q1568.7 75.8983 1566.98 75.8983 Q1564.89 75.8983 1563.7 74.5457 Z" fill="#000000" fill-rule="evenodd" fill-opacity="1" /><path clip-path="url(#clip060)" d="M1729.37 44.3366 Q1729.37 46.632 1727.94 47.9437 Q1726.5 49.2143 1724.86 49.2143 Q1723.3 49.2143 1722.49 48.3126 Q1721.67 47.4108 1721.67 46.2631 Q1721.67 44.7055 1722.81 43.3529 Q1723.96 42.0002 1725.68 41.7133 Q1724 40.6476 1721.5 40.6476 Q1719.86 40.6476 1718.43 41.5083 Q1717.03 42.3691 1716.17 43.4758 Q1715.35 44.5825 1714.62 46.1811 Q1713.92 47.7387 1713.63 48.6815 Q1713.39 49.5832 1713.18 50.567 L1710.31 62.044 Q1708.92 67.4955 1708.92 69.422 Q1708.92 71.7994 1710.07 73.398 Q1711.21 74.9556 1713.51 74.9556 Q1714.41 74.9556 1715.43 74.7097 Q1716.46 74.4227 1717.77 73.6849 Q1719.12 72.9061 1720.31 71.7584 Q1721.54 70.5697 1722.73 68.5613 Q1723.92 66.5528 1724.7 63.9705 Q1724.94 63.0687 1725.76 63.0687 Q1726.79 63.0687 1726.79 63.8885 Q1726.79 64.5853 1726.22 66.0609 Q1725.68 67.4955 1724.49 69.381 Q1723.35 71.2256 1721.83 72.9061 Q1720.31 74.5457 1718.06 75.6934 Q1715.8 76.8411 1713.34 76.8411 Q1709.82 76.8411 1707.48 74.9556 Q1705.15 73.0701 1704.29 70.4468 Q1704.08 70.8157 1703.79 71.3075 Q1703.51 71.7994 1702.65 72.9061 Q1701.83 73.9718 1700.88 74.7916 Q1699.94 75.5704 1698.47 76.1853 Q1697.03 76.8411 1695.47 76.8411 Q1693.51 76.8411 1691.74 76.2672 Q1690.02 75.6934 1688.79 74.3817 Q1687.56 73.0701 1687.56 71.2666 Q1687.56 69.2581 1688.91 67.8644 Q1690.31 66.4298 1692.19 66.4298 Q1693.38 66.4298 1694.33 67.1266 Q1695.31 67.8235 1695.31 69.3401 Q1695.31 71.0206 1694.16 72.2913 Q1693.01 73.562 1691.37 73.8899 Q1693.05 74.9556 1695.56 74.9556 Q1698.26 74.9556 1700.39 72.5782 Q1702.52 70.2008 1703.55 66.2249 Q1706.09 56.6744 1707.07 52.4115 Q1708.06 48.1076 1708.06 46.2631 Q1708.06 44.5415 1707.61 43.3529 Q1707.16 42.1642 1706.38 41.6313 Q1705.64 41.0575 1704.94 40.8525 Q1704.29 40.6476 1703.55 40.6476 Q1702.32 40.6476 1700.92 41.1394 Q1699.57 41.6313 1697.93 42.779 Q1696.33 43.8857 1694.82 46.1811 Q1693.3 48.4765 1692.28 51.6327 Q1692.07 52.5754 1691.17 52.5754 Q1690.19 52.5345 1690.19 51.7147 Q1690.19 51.0179 1690.72 49.5832 Q1691.29 48.1076 1692.44 46.2631 Q1693.63 44.4186 1695.15 42.779 Q1696.7 41.0984 1698.96 39.9507 Q1701.25 38.803 1703.71 38.803 Q1704.82 38.803 1705.88 39.049 Q1706.99 39.2539 1708.3 39.8688 Q1709.66 40.4836 1710.84 41.8363 Q1712.03 43.1889 1712.77 45.1564 Q1713.26 44.2136 1713.92 43.3119 Q1714.62 42.4101 1715.68 41.3034 Q1716.79 40.1557 1718.3 39.4999 Q1719.86 38.803 1721.58 38.803 Q1723.26 38.803 1724.9 39.2539 Q1726.54 39.6638 1727.94 41.0165 Q1729.37 42.3281 1729.37 44.3366 Z" fill="#000000" fill-rule="evenodd" fill-opacity="1" /><path clip-path="url(#clip060)" d="M1737.93 81.2998 Q1737.93 72.6633 1740.11 67.9577 Q1743.15 60.9568 1750.32 60.9568 Q1751.84 60.9568 1753.42 61.3872 Q1755.03 61.7889 1757.04 63.367 Q1759.07 64.945 1760.31 67.5274 Q1762.66 72.5199 1762.66 81.2998 Q1762.66 89.8788 1760.48 94.5557 Q1757.3 101.385 1750.27 101.385 Q1747.63 101.385 1744.93 100.036 Q1742.26 98.6874 1740.57 95.4452 Q1737.93 90.5961 1737.93 81.2998 M1742.81 80.5824 Q1742.81 89.4484 1743.44 92.9776 Q1744.15 96.7937 1746.11 98.4579 Q1748.09 100.093 1750.27 100.093 Q1752.62 100.093 1754.57 98.3431 Q1756.55 96.5642 1757.15 92.7481 Q1757.81 88.9893 1757.78 80.5824 Q1757.78 72.4051 1757.21 69.1341 Q1756.44 65.318 1754.37 63.7973 Q1752.33 62.2479 1750.27 62.2479 Q1749.49 62.2479 1748.66 62.4775 Q1747.86 62.707 1746.68 63.367 Q1745.5 64.0269 1744.59 65.6624 Q1743.7 67.2978 1743.27 69.7654 Q1742.81 72.9502 1742.81 80.5824 Z" fill="#000000" fill-rule="evenodd" fill-opacity="1" /><path clip-path="url(#clip060)" d="M1794.67 63.1507 Q1794.75 62.1259 1796.35 62.1259 L1847.79 62.1259 Q1850.21 62.1259 1850.25 63.0687 Q1850.25 64.0934 1847.95 64.0524 L1796.92 64.0524 Q1794.67 64.0934 1794.67 63.1507 M1794.67 46.755 Q1794.67 45.7302 1796.43 45.7712 L1847.71 45.7712 Q1850.21 45.7712 1850.25 46.755 Q1850.25 47.6977 1848.12 47.6977 L1796.35 47.6977 Q1794.67 47.6977 1794.67 46.755 Z" fill="#000000" fill-rule="evenodd" fill-opacity="1" /><path clip-path="url(#clip060)" d="M1882.63 49.0504 Q1882.63 36.7126 1885.74 29.9904 Q1890.09 19.989 1900.34 19.989 Q1902.51 19.989 1904.76 20.6038 Q1907.06 21.1777 1909.93 23.4321 Q1912.84 25.6865 1914.6 29.3755 Q1917.96 36.5076 1917.96 49.0504 Q1917.96 61.3062 1914.85 67.9874 Q1910.3 77.7429 1900.25 77.7429 Q1896.48 77.7429 1892.63 75.8164 Q1888.82 73.8899 1886.4 69.2581 Q1882.63 62.3309 1882.63 49.0504 M1889.6 48.0256 Q1889.6 60.6913 1890.5 65.733 Q1891.52 71.1846 1894.31 73.562 Q1897.14 75.8983 1900.25 75.8983 Q1903.61 75.8983 1906.4 73.398 Q1909.23 70.8567 1910.09 65.4051 Q1911.03 60.0355 1910.99 48.0256 Q1910.99 36.3437 1910.17 31.6709 Q1909.07 26.2193 1906.11 24.0469 Q1903.2 21.8335 1900.25 21.8335 Q1899.15 21.8335 1897.96 22.1614 Q1896.81 22.4893 1895.13 23.4321 Q1893.45 24.3748 1892.14 26.7112 Q1890.87 29.0476 1890.25 32.5727 Q1889.6 37.1225 1889.6 48.0256 Z" fill="#000000" fill-rule="evenodd" fill-opacity="1" /><path clip-path="url(#clip060)" d="M1925.47 74.5457 Q1924.2 73.1931 1924.2 71.4305 Q1924.2 69.668 1925.47 68.3973 Q1926.74 67.0856 1928.67 67.0856 Q1930.51 67.0856 1931.74 68.3153 Q1933.01 69.504 1933.01 71.4715 Q1933.01 73.398 1931.66 74.6687 Q1930.35 75.8983 1928.67 75.8983 Q1926.74 75.8983 1925.47 74.5457 Z" fill="#000000" fill-rule="evenodd" fill-opacity="1" /><path clip-path="url(#clip060)" d="M1947.3 62.3719 Q1947.3 59.8715 1948.65 58.9288 Q1950 57.945 1951.44 57.945 Q1953.36 57.945 1954.47 59.1747 Q1955.62 60.3634 1955.62 62.044 Q1955.62 63.7245 1954.47 64.9542 Q1953.36 66.1429 1951.44 66.1429 Q1950.49 66.1429 1950 65.9789 Q1951.11 69.8319 1954.47 72.6192 Q1957.87 75.4065 1962.34 75.4065 Q1967.96 75.4065 1971.32 69.9549 Q1973.33 66.4298 1973.33 58.4369 Q1973.33 51.3868 1971.81 47.8617 Q1969.47 42.4921 1964.68 42.4921 Q1957.87 42.4921 1953.86 48.3535 Q1953.36 49.0914 1952.79 49.1323 Q1951.97 49.1323 1951.77 48.6815 Q1951.6 48.1896 1951.6 46.9189 L1951.6 22.0794 Q1951.6 20.0709 1952.42 20.0709 Q1952.75 20.0709 1953.45 20.3169 Q1958.73 22.6533 1964.59 22.6943 Q1970.62 22.6943 1976.03 20.2349 Q1976.44 19.989 1976.69 19.989 Q1977.51 19.989 1977.55 20.9317 Q1977.55 21.2596 1976.85 22.2434 Q1976.19 23.1861 1974.76 24.4568 Q1973.33 25.6865 1971.48 26.8752 Q1969.64 28.0639 1966.93 28.8836 Q1964.27 29.6624 1961.32 29.6624 Q1957.79 29.6624 1954.18 28.5557 L1954.18 44.9104 Q1958.53 40.6476 1964.84 40.6476 Q1971.56 40.6476 1976.19 46.0581 Q1980.83 51.4687 1980.83 59.0108 Q1980.83 66.9217 1975.33 72.3323 Q1969.88 77.7429 1962.5 77.7429 Q1955.78 77.7429 1951.52 72.9471 Q1947.3 68.1514 1947.3 62.3719 Z" fill="#000000" fill-rule="evenodd" fill-opacity="1" /><polyline clip-path="url(#clip063)" style="stroke:#009af9; stroke-linecap:butt; stroke-linejoin:round; stroke-width:4; stroke-opacity:1; fill:none" points="
  242.133,1447.87 258.361,1432 274.589,1416.2 290.817,1400.48 307.045,1384.84 323.273,1369.28 339.501,1353.8 355.729,1338.39 371.957,1323.05 388.185,1307.79 
  404.413,1292.6 420.641,1277.49 436.869,1262.45 453.097,1247.47 469.325,1232.57 485.553,1217.74 501.781,1202.98 518.009,1188.28 534.237,1173.66 550.465,1159.1 
  566.693,1144.61 582.92,1130.18 599.148,1115.82 615.376,1101.52 631.604,1087.28 647.832,1073.11 664.06,1059 680.288,1044.96 696.516,1030.97 712.744,1017.05 
  728.972,1003.18 745.2,989.376 761.428,975.629 777.656,961.941 793.884,948.31 810.112,934.735 826.34,921.218 842.568,907.756 858.796,894.349 875.024,880.998 
  891.252,867.7 907.48,854.456 923.708,841.265 939.936,828.127 956.164,815.041 972.392,802.007 988.62,789.023 1004.85,776.09 1021.08,763.207 1037.3,750.374 
  1053.53,737.589 1069.76,724.853 1085.99,712.165 1102.22,699.525 1118.44,686.931 1134.67,674.384 1150.9,661.884 1167.13,649.429 1183.36,637.019 1199.58,624.654 
  1215.81,612.333 1232.04,600.056 1248.27,587.822 1264.5,575.632 1280.72,563.484 1296.95,551.378 1313.18,539.314 1329.41,527.291 1345.64,515.309 1361.86,503.367 
  1378.09,491.465 1394.32,479.603 1410.55,467.781 1426.78,455.997 1443,444.251 1459.23,432.544 1475.46,420.874 1491.69,409.242 1507.91,397.646 1524.14,386.087 
  1540.37,374.565 1556.6,363.078 1572.83,351.626 1589.05,340.21 1605.28,328.829 1621.51,317.481 1637.74,306.168 1653.97,294.889 1670.19,283.643 1686.42,272.43 
  1702.65,261.25 1718.88,250.102 1735.11,238.986 1751.33,227.902 1767.56,216.85 1783.79,205.828 1800.02,194.837 1816.25,183.877 1832.47,172.947 1848.7,162.047 
  
  "/>
<polyline clip-path="url(#clip063)" style="stroke:#e26f46; stroke-linecap:butt; stroke-linejoin:round; stroke-width:4; stroke-opacity:1; fill:none" points="
  242.133,660.048 258.361,660.048 274.589,660.048 290.817,660.048 307.045,660.048 323.273,660.048 339.501,660.048 355.729,660.048 371.957,660.048 388.185,660.048 
  404.413,660.048 420.641,660.048 436.869,660.048 453.097,660.048 469.325,660.048 485.553,660.048 501.781,660.048 518.009,660.048 534.237,660.048 550.465,660.048 
  566.693,660.048 582.92,660.048 599.148,660.048 615.376,660.048 631.604,660.048 647.832,660.048 664.06,660.048 680.288,660.048 696.516,660.048 712.744,660.048 
  728.972,660.048 745.2,660.048 761.428,660.048 777.656,660.048 793.884,660.048 810.112,660.048 826.34,660.048 842.568,660.048 858.796,660.048 875.024,660.048 
  891.252,660.048 907.48,660.048 923.708,660.048 939.936,660.048 956.164,660.048 972.392,660.048 988.62,660.048 1004.85,660.048 1021.08,660.048 1037.3,660.048 
  1053.53,660.048 1069.76,660.048 1085.99,660.048 1102.22,660.048 1118.44,660.048 1134.67,660.048 1150.9,660.048 1167.13,660.048 1183.36,660.048 1199.58,660.048 
  1215.81,660.048 1232.04,660.048 1248.27,660.048 1264.5,660.048 1280.72,660.048 1296.95,660.048 1313.18,660.048 1329.41,660.048 1345.64,660.048 1361.86,660.048 
  1378.09,660.048 1394.32,660.048 1410.55,660.048 1426.78,660.048 1443,660.048 1459.23,660.048 1475.46,660.048 1491.69,660.048 1507.91,660.048 1524.14,660.048 
  1540.37,660.048 1556.6,660.048 1572.83,660.048 1589.05,660.048 1605.28,660.048 1621.51,660.048 1637.74,660.048 1653.97,660.048 1670.19,660.048 1686.42,660.048 
  1702.65,660.048 1718.88,660.048 1735.11,660.048 1751.33,660.048 1767.56,660.048 1783.79,660.048 1800.02,660.048 1816.25,660.048 1832.47,660.048 1848.7,660.048 
  
  "/>
<path clip-path="url(#clip060)" d="
M1968.86 324.425 L2352.76 324.425 L2352.76 168.905 L1968.86 168.905  Z
  " fill="#ffffff" fill-rule="evenodd" fill-opacity="1"/>
<polyline clip-path="url(#clip060)" style="stroke:#000000; stroke-linecap:butt; stroke-linejoin:round; stroke-width:4; stroke-opacity:1; fill:none" points="
  1968.86,324.425 2352.76,324.425 2352.76,168.905 1968.86,168.905 1968.86,324.425 
  "/>
<polyline clip-path="url(#clip060)" style="stroke:#009af9; stroke-linecap:butt; stroke-linejoin:round; stroke-width:4; stroke-opacity:1; fill:none" points="
  1992.85,220.745 2136.77,220.745 
  "/>
<path clip-path="url(#clip060)" d="M2174.6 240.432 Q2172.79 245.062 2171.08 246.474 Q2169.37 247.886 2166.5 247.886 L2163.09 247.886 L2163.09 244.321 L2165.59 244.321 Q2167.35 244.321 2168.32 243.488 Q2169.3 242.654 2170.48 239.552 L2171.24 237.608 L2160.76 212.099 L2165.27 212.099 L2173.37 232.377 L2181.47 212.099 L2185.99 212.099 L2174.6 240.432 Z" fill="#000000" fill-rule="evenodd" fill-opacity="1" /><path clip-path="url(#clip060)" d="M2192.42 216.497 L2222.1 216.497 L2222.1 220.386 L2192.42 220.386 L2192.42 216.497 M2192.42 225.941 L2222.1 225.941 L2222.1 229.877 L2192.42 229.877 L2192.42 225.941 Z" fill="#000000" fill-rule="evenodd" fill-opacity="1" /><path clip-path="url(#clip060)" d="M2244.71 202.006 L2244.71 205.548 L2240.64 205.548 Q2238.35 205.548 2237.44 206.474 Q2236.56 207.4 2236.56 209.807 L2236.56 212.099 L2243.58 212.099 L2243.58 215.409 L2236.56 215.409 L2236.56 238.025 L2232.28 238.025 L2232.28 215.409 L2228.21 215.409 L2228.21 212.099 L2232.28 212.099 L2232.28 210.293 Q2232.28 205.965 2234.3 203.997 Q2236.31 202.006 2240.69 202.006 L2244.71 202.006 Z" fill="#000000" fill-rule="evenodd" fill-opacity="1" /><path clip-path="url(#clip060)" d="M2258.51 202.053 Q2255.41 207.377 2253.9 212.585 Q2252.4 217.793 2252.4 223.14 Q2252.4 228.488 2253.9 233.742 Q2255.43 238.974 2258.51 244.275 L2254.81 244.275 Q2251.33 238.835 2249.6 233.58 Q2247.88 228.326 2247.88 223.14 Q2247.88 217.978 2249.6 212.747 Q2251.31 207.516 2254.81 202.053 L2258.51 202.053 Z" fill="#000000" fill-rule="evenodd" fill-opacity="1" /><path clip-path="url(#clip060)" d="M2288.32 212.099 L2278.95 224.715 L2288.81 238.025 L2283.79 238.025 L2276.24 227.84 L2268.69 238.025 L2263.67 238.025 L2273.74 224.46 L2264.53 212.099 L2269.55 212.099 L2276.43 221.335 L2283.3 212.099 L2288.32 212.099 Z" fill="#000000" fill-rule="evenodd" fill-opacity="1" /><path clip-path="url(#clip060)" d="M2294.16 202.053 L2297.86 202.053 Q2301.33 207.516 2303.05 212.747 Q2304.78 217.978 2304.78 223.14 Q2304.78 228.326 2303.05 233.58 Q2301.33 238.835 2297.86 244.275 L2294.16 244.275 Q2297.24 238.974 2298.74 233.742 Q2300.27 228.488 2300.27 223.14 Q2300.27 217.793 2298.74 212.585 Q2297.24 207.377 2294.16 202.053 Z" fill="#000000" fill-rule="evenodd" fill-opacity="1" /><polyline clip-path="url(#clip060)" style="stroke:#e26f46; stroke-linecap:butt; stroke-linejoin:round; stroke-width:4; stroke-opacity:1; fill:none" points="
  1992.85,272.585 2136.77,272.585 
  "/>
<path clip-path="url(#clip060)" d="M2174.6 292.272 Q2172.79 296.902 2171.08 298.314 Q2169.37 299.726 2166.5 299.726 L2163.09 299.726 L2163.09 296.161 L2165.59 296.161 Q2167.35 296.161 2168.32 295.328 Q2169.3 294.494 2170.48 291.392 L2171.24 289.448 L2160.76 263.939 L2165.27 263.939 L2173.37 284.217 L2181.47 263.939 L2185.99 263.939 L2174.6 292.272 Z" fill="#000000" fill-rule="evenodd" fill-opacity="1" /><path clip-path="url(#clip060)" d="M2192.42 268.337 L2222.1 268.337 L2222.1 272.226 L2192.42 272.226 L2192.42 268.337 M2192.42 277.781 L2222.1 277.781 L2222.1 281.717 L2192.42 281.717 L2192.42 277.781 Z" fill="#000000" fill-rule="evenodd" fill-opacity="1" /><path clip-path="url(#clip060)" d="M2242.19 258.383 Q2238.58 258.383 2236.75 261.948 Q2234.94 265.49 2234.94 272.619 Q2234.94 279.726 2236.75 283.291 Q2238.58 286.832 2242.19 286.832 Q2245.82 286.832 2247.63 283.291 Q2249.46 279.726 2249.46 272.619 Q2249.46 265.49 2247.63 261.948 Q2245.82 258.383 2242.19 258.383 M2242.19 254.68 Q2248 254.68 2251.06 259.286 Q2254.13 263.869 2254.13 272.619 Q2254.13 281.346 2251.06 285.953 Q2248 290.536 2242.19 290.536 Q2236.38 290.536 2233.3 285.953 Q2230.25 281.346 2230.25 272.619 Q2230.25 263.869 2233.3 259.286 Q2236.38 254.68 2242.19 254.68 Z" fill="#000000" fill-rule="evenodd" fill-opacity="1" /></svg>
