<?xml version="1.0" encoding="utf-8"?>
<svg xmlns="http://www.w3.org/2000/svg" xmlns:xlink="http://www.w3.org/1999/xlink" width="600" height="400" viewBox="0 0 2400 1600">
<defs>
  <clipPath id="clip400">
    <rect x="0" y="0" width="2400" height="1600"/>
  </clipPath>
</defs>
<path clip-path="url(#clip400)" d="
M0 1600 L2400 1600 L2400 0 L0 0  Z
  " fill="#ffffff" fill-rule="evenodd" fill-opacity="1"/>
<defs>
  <clipPath id="clip401">
    <rect x="480" y="0" width="1681" height="1600"/>
  </clipPath>
</defs>
<path clip-path="url(#clip400)" d="
M156.598 1486.45 L1824.91 1486.45 L1824.91 47.2441 L156.598 47.2441  Z
  " fill="#ffffff" fill-rule="evenodd" fill-opacity="1"/>
<defs>
  <clipPath id="clip402">
    <rect x="156" y="47" width="1669" height="1440"/>
  </clipPath>
</defs>
<polyline clip-path="url(#clip402)" style="stroke:#000000; stroke-linecap:butt; stroke-linejoin:round; stroke-width:2; stroke-opacity:0.1; fill:none" points="
  201.845,1486.45 201.845,47.2441 
  "/>
<polyline clip-path="url(#clip402)" style="stroke:#000000; stroke-linecap:butt; stroke-linejoin:round; stroke-width:2; stroke-opacity:0.1; fill:none" points="
  595.807,1486.45 595.807,47.2441 
  "/>
<polyline clip-path="url(#clip402)" style="stroke:#000000; stroke-linecap:butt; stroke-linejoin:round; stroke-width:2; stroke-opacity:0.1; fill:none" points="
  989.769,1486.45 989.769,47.2441 
  "/>
<polyline clip-path="url(#clip402)" style="stroke:#000000; stroke-linecap:butt; stroke-linejoin:round; stroke-width:2; stroke-opacity:0.1; fill:none" points="
  1383.73,1486.45 1383.73,47.2441 
  "/>
<polyline clip-path="url(#clip402)" style="stroke:#000000; stroke-linecap:butt; stroke-linejoin:round; stroke-width:2; stroke-opacity:0.1; fill:none" points="
  1777.69,1486.45 1777.69,47.2441 
  "/>
<polyline clip-path="url(#clip400)" style="stroke:#000000; stroke-linecap:butt; stroke-linejoin:round; stroke-width:4; stroke-opacity:1; fill:none" points="
  156.598,1486.45 1824.91,1486.45 
  "/>
<polyline clip-path="url(#clip400)" style="stroke:#000000; stroke-linecap:butt; stroke-linejoin:round; stroke-width:4; stroke-opacity:1; fill:none" points="
  201.845,1486.45 201.845,1467.55 
  "/>
<polyline clip-path="url(#clip400)" style="stroke:#000000; stroke-linecap:butt; stroke-linejoin:round; stroke-width:4; stroke-opacity:1; fill:none" points="
  595.807,1486.45 595.807,1467.55 
  "/>
<polyline clip-path="url(#clip400)" style="stroke:#000000; stroke-linecap:butt; stroke-linejoin:round; stroke-width:4; stroke-opacity:1; fill:none" points="
  989.769,1486.45 989.769,1467.55 
  "/>
<polyline clip-path="url(#clip400)" style="stroke:#000000; stroke-linecap:butt; stroke-linejoin:round; stroke-width:4; stroke-opacity:1; fill:none" points="
  1383.73,1486.45 1383.73,1467.55 
  "/>
<polyline clip-path="url(#clip400)" style="stroke:#000000; stroke-linecap:butt; stroke-linejoin:round; stroke-width:4; stroke-opacity:1; fill:none" points="
  1777.69,1486.45 1777.69,1467.55 
  "/>
<path clip-path="url(#clip400)" d="M201.845 1517.37 Q198.234 1517.37 196.405 1520.93 Q194.599 1524.47 194.599 1531.6 Q194.599 1538.71 196.405 1542.27 Q198.234 1545.82 201.845 1545.82 Q205.479 1545.82 207.285 1542.27 Q209.113 1538.71 209.113 1531.6 Q209.113 1524.47 207.285 1520.93 Q205.479 1517.37 201.845 1517.37 M201.845 1513.66 Q207.655 1513.66 210.71 1518.27 Q213.789 1522.85 213.789 1531.6 Q213.789 1540.33 210.71 1544.94 Q207.655 1549.52 201.845 1549.52 Q196.035 1549.52 192.956 1544.94 Q189.9 1540.33 189.9 1531.6 Q189.9 1522.85 192.956 1518.27 Q196.035 1513.66 201.845 1513.66 Z" fill="#000000" fill-rule="evenodd" fill-opacity="1" /><path clip-path="url(#clip400)" d="M559.499 1544.91 L575.818 1544.91 L575.818 1548.85 L553.874 1548.85 L553.874 1544.91 Q556.536 1542.16 561.119 1537.53 Q565.726 1532.88 566.906 1531.53 Q569.152 1529.01 570.031 1527.27 Q570.934 1525.51 570.934 1523.82 Q570.934 1521.07 568.99 1519.33 Q567.069 1517.6 563.967 1517.6 Q561.768 1517.6 559.314 1518.36 Q556.883 1519.13 554.106 1520.68 L554.106 1515.95 Q556.93 1514.82 559.383 1514.24 Q561.837 1513.66 563.874 1513.66 Q569.244 1513.66 572.439 1516.35 Q575.633 1519.03 575.633 1523.52 Q575.633 1525.65 574.823 1527.57 Q574.036 1529.47 571.93 1532.07 Q571.351 1532.74 568.249 1535.95 Q565.147 1539.15 559.499 1544.91 Z" fill="#000000" fill-rule="evenodd" fill-opacity="1" /><path clip-path="url(#clip400)" d="M595.633 1517.37 Q592.022 1517.37 590.193 1520.93 Q588.388 1524.47 588.388 1531.6 Q588.388 1538.71 590.193 1542.27 Q592.022 1545.82 595.633 1545.82 Q599.267 1545.82 601.073 1542.27 Q602.902 1538.71 602.902 1531.6 Q602.902 1524.47 601.073 1520.93 Q599.267 1517.37 595.633 1517.37 M595.633 1513.66 Q601.443 1513.66 604.499 1518.27 Q607.578 1522.85 607.578 1531.6 Q607.578 1540.33 604.499 1544.94 Q601.443 1549.52 595.633 1549.52 Q589.823 1549.52 586.744 1544.94 Q583.689 1540.33 583.689 1531.6 Q583.689 1522.85 586.744 1518.27 Q589.823 1513.66 595.633 1513.66 Z" fill="#000000" fill-rule="evenodd" fill-opacity="1" /><path clip-path="url(#clip400)" d="M625.795 1517.37 Q622.184 1517.37 620.355 1520.93 Q618.55 1524.47 618.55 1531.6 Q618.55 1538.71 620.355 1542.27 Q622.184 1545.82 625.795 1545.82 Q629.429 1545.82 631.235 1542.27 Q633.064 1538.71 633.064 1531.6 Q633.064 1524.47 631.235 1520.93 Q629.429 1517.37 625.795 1517.37 M625.795 1513.66 Q631.605 1513.66 634.661 1518.27 Q637.739 1522.85 637.739 1531.6 Q637.739 1540.33 634.661 1544.94 Q631.605 1549.52 625.795 1549.52 Q619.985 1549.52 616.906 1544.94 Q613.851 1540.33 613.851 1531.6 Q613.851 1522.85 616.906 1518.27 Q619.985 1513.66 625.795 1513.66 Z" fill="#000000" fill-rule="evenodd" fill-opacity="1" /><path clip-path="url(#clip400)" d="M962.859 1518.36 L951.054 1536.81 L962.859 1536.81 L962.859 1518.36 M961.632 1514.29 L967.512 1514.29 L967.512 1536.81 L972.443 1536.81 L972.443 1540.7 L967.512 1540.7 L967.512 1548.85 L962.859 1548.85 L962.859 1540.7 L947.257 1540.7 L947.257 1536.19 L961.632 1514.29 Z" fill="#000000" fill-rule="evenodd" fill-opacity="1" /><path clip-path="url(#clip400)" d="M990.174 1517.37 Q986.563 1517.37 984.734 1520.93 Q982.929 1524.47 982.929 1531.6 Q982.929 1538.71 984.734 1542.27 Q986.563 1545.82 990.174 1545.82 Q993.808 1545.82 995.614 1542.27 Q997.442 1538.71 997.442 1531.6 Q997.442 1524.47 995.614 1520.93 Q993.808 1517.37 990.174 1517.37 M990.174 1513.66 Q995.984 1513.66 999.04 1518.27 Q1002.12 1522.85 1002.12 1531.6 Q1002.12 1540.33 999.04 1544.94 Q995.984 1549.52 990.174 1549.52 Q984.364 1549.52 981.285 1544.94 Q978.23 1540.33 978.23 1531.6 Q978.23 1522.85 981.285 1518.27 Q984.364 1513.66 990.174 1513.66 Z" fill="#000000" fill-rule="evenodd" fill-opacity="1" /><path clip-path="url(#clip400)" d="M1020.34 1517.37 Q1016.72 1517.37 1014.9 1520.93 Q1013.09 1524.47 1013.09 1531.6 Q1013.09 1538.71 1014.9 1542.27 Q1016.72 1545.82 1020.34 1545.82 Q1023.97 1545.82 1025.78 1542.27 Q1027.6 1538.71 1027.6 1531.6 Q1027.6 1524.47 1025.78 1520.93 Q1023.97 1517.37 1020.34 1517.37 M1020.34 1513.66 Q1026.15 1513.66 1029.2 1518.27 Q1032.28 1522.85 1032.28 1531.6 Q1032.28 1540.33 1029.2 1544.94 Q1026.15 1549.52 1020.34 1549.52 Q1014.53 1549.52 1011.45 1544.94 Q1008.39 1540.33 1008.39 1531.6 Q1008.39 1522.85 1011.45 1518.27 Q1014.53 1513.66 1020.34 1513.66 Z" fill="#000000" fill-rule="evenodd" fill-opacity="1" /><path clip-path="url(#clip400)" d="M1354.06 1529.7 Q1350.91 1529.7 1349.06 1531.86 Q1347.23 1534.01 1347.23 1537.76 Q1347.23 1541.49 1349.06 1543.66 Q1350.91 1545.82 1354.06 1545.82 Q1357.2 1545.82 1359.03 1543.66 Q1360.88 1541.49 1360.88 1537.76 Q1360.88 1534.01 1359.03 1531.86 Q1357.2 1529.7 1354.06 1529.7 M1363.34 1515.05 L1363.34 1519.31 Q1361.58 1518.48 1359.77 1518.04 Q1357.99 1517.6 1356.23 1517.6 Q1351.6 1517.6 1349.15 1520.72 Q1346.72 1523.85 1346.37 1530.17 Q1347.74 1528.15 1349.8 1527.09 Q1351.86 1526 1354.33 1526 Q1359.54 1526 1362.55 1529.17 Q1365.58 1532.32 1365.58 1537.76 Q1365.58 1543.08 1362.43 1546.3 Q1359.29 1549.52 1354.06 1549.52 Q1348.06 1549.52 1344.89 1544.94 Q1341.72 1540.33 1341.72 1531.6 Q1341.72 1523.41 1345.61 1518.55 Q1349.49 1513.66 1356.05 1513.66 Q1357.81 1513.66 1359.59 1514.01 Q1361.39 1514.36 1363.34 1515.05 Z" fill="#000000" fill-rule="evenodd" fill-opacity="1" /><path clip-path="url(#clip400)" d="M1383.64 1517.37 Q1380.03 1517.37 1378.2 1520.93 Q1376.39 1524.47 1376.39 1531.6 Q1376.39 1538.71 1378.2 1542.27 Q1380.03 1545.82 1383.64 1545.82 Q1387.27 1545.82 1389.08 1542.27 Q1390.91 1538.71 1390.91 1531.6 Q1390.91 1524.47 1389.08 1520.93 Q1387.27 1517.37 1383.64 1517.37 M1383.64 1513.66 Q1389.45 1513.66 1392.5 1518.27 Q1395.58 1522.85 1395.58 1531.6 Q1395.58 1540.33 1392.5 1544.94 Q1389.45 1549.52 1383.64 1549.52 Q1377.83 1549.52 1374.75 1544.94 Q1371.69 1540.33 1371.69 1531.6 Q1371.69 1522.85 1374.75 1518.27 Q1377.83 1513.66 1383.64 1513.66 Z" fill="#000000" fill-rule="evenodd" fill-opacity="1" /><path clip-path="url(#clip400)" d="M1413.8 1517.37 Q1410.19 1517.37 1408.36 1520.93 Q1406.55 1524.47 1406.55 1531.6 Q1406.55 1538.71 1408.36 1542.27 Q1410.19 1545.82 1413.8 1545.82 Q1417.43 1545.82 1419.24 1542.27 Q1421.07 1538.71 1421.07 1531.6 Q1421.07 1524.47 1419.24 1520.93 Q1417.43 1517.37 1413.8 1517.37 M1413.8 1513.66 Q1419.61 1513.66 1422.67 1518.27 Q1425.74 1522.85 1425.74 1531.6 Q1425.74 1540.33 1422.67 1544.94 Q1419.61 1549.52 1413.8 1549.52 Q1407.99 1549.52 1404.91 1544.94 Q1401.86 1540.33 1401.86 1531.6 Q1401.86 1522.85 1404.91 1518.27 Q1407.99 1513.66 1413.8 1513.66 Z" fill="#000000" fill-rule="evenodd" fill-opacity="1" /><path clip-path="url(#clip400)" d="M1747.48 1532.44 Q1744.15 1532.44 1742.23 1534.22 Q1740.33 1536 1740.33 1539.13 Q1740.33 1542.25 1742.23 1544.03 Q1744.15 1545.82 1747.48 1545.82 Q1750.82 1545.82 1752.74 1544.03 Q1754.66 1542.23 1754.66 1539.13 Q1754.66 1536 1752.74 1534.22 Q1750.84 1532.44 1747.48 1532.44 M1742.81 1530.45 Q1739.8 1529.7 1738.11 1527.64 Q1736.44 1525.58 1736.44 1522.62 Q1736.44 1518.48 1739.38 1516.07 Q1742.35 1513.66 1747.48 1513.66 Q1752.65 1513.66 1755.59 1516.07 Q1758.53 1518.48 1758.53 1522.62 Q1758.53 1525.58 1756.84 1527.64 Q1755.17 1529.7 1752.18 1530.45 Q1755.56 1531.23 1757.44 1533.52 Q1759.34 1535.82 1759.34 1539.13 Q1759.34 1544.15 1756.26 1546.83 Q1753.2 1549.52 1747.48 1549.52 Q1741.77 1549.52 1738.69 1546.83 Q1735.63 1544.15 1735.63 1539.13 Q1735.63 1535.82 1737.53 1533.52 Q1739.43 1531.23 1742.81 1530.45 M1741.1 1523.06 Q1741.1 1525.75 1742.76 1527.25 Q1744.45 1528.76 1747.48 1528.76 Q1750.49 1528.76 1752.18 1527.25 Q1753.9 1525.75 1753.9 1523.06 Q1753.9 1520.38 1752.18 1518.87 Q1750.49 1517.37 1747.48 1517.37 Q1744.45 1517.37 1742.76 1518.87 Q1741.1 1520.38 1741.1 1523.06 Z" fill="#000000" fill-rule="evenodd" fill-opacity="1" /><path clip-path="url(#clip400)" d="M1777.65 1517.37 Q1774.04 1517.37 1772.21 1520.93 Q1770.4 1524.47 1770.4 1531.6 Q1770.4 1538.71 1772.21 1542.27 Q1774.04 1545.82 1777.65 1545.82 Q1781.28 1545.82 1783.09 1542.27 Q1784.92 1538.71 1784.92 1531.6 Q1784.92 1524.47 1783.09 1520.93 Q1781.28 1517.37 1777.65 1517.37 M1777.65 1513.66 Q1783.46 1513.66 1786.51 1518.27 Q1789.59 1522.85 1789.59 1531.6 Q1789.59 1540.33 1786.51 1544.94 Q1783.46 1549.52 1777.65 1549.52 Q1771.84 1549.52 1768.76 1544.94 Q1765.7 1540.33 1765.7 1531.6 Q1765.7 1522.85 1768.76 1518.27 Q1771.84 1513.66 1777.65 1513.66 Z" fill="#000000" fill-rule="evenodd" fill-opacity="1" /><path clip-path="url(#clip400)" d="M1807.81 1517.37 Q1804.2 1517.37 1802.37 1520.93 Q1800.56 1524.47 1800.56 1531.6 Q1800.56 1538.71 1802.37 1542.27 Q1804.2 1545.82 1807.81 1545.82 Q1811.44 1545.82 1813.25 1542.27 Q1815.08 1538.71 1815.08 1531.6 Q1815.08 1524.47 1813.25 1520.93 Q1811.44 1517.37 1807.81 1517.37 M1807.81 1513.66 Q1813.62 1513.66 1816.67 1518.27 Q1819.75 1522.85 1819.75 1531.6 Q1819.75 1540.33 1816.67 1544.94 Q1813.62 1549.52 1807.81 1549.52 Q1802 1549.52 1798.92 1544.94 Q1795.86 1540.33 1795.86 1531.6 Q1795.86 1522.85 1798.92 1518.27 Q1802 1513.66 1807.81 1513.66 Z" fill="#000000" fill-rule="evenodd" fill-opacity="1" /><polyline clip-path="url(#clip402)" style="stroke:#000000; stroke-linecap:butt; stroke-linejoin:round; stroke-width:2; stroke-opacity:0.1; fill:none" points="
  156.598,1445.73 1824.91,1445.73 
  "/>
<polyline clip-path="url(#clip402)" style="stroke:#000000; stroke-linecap:butt; stroke-linejoin:round; stroke-width:2; stroke-opacity:0.1; fill:none" points="
  156.598,1178.59 1824.91,1178.59 
  "/>
<polyline clip-path="url(#clip402)" style="stroke:#000000; stroke-linecap:butt; stroke-linejoin:round; stroke-width:2; stroke-opacity:0.1; fill:none" points="
  156.598,911.447 1824.91,911.447 
  "/>
<polyline clip-path="url(#clip402)" style="stroke:#000000; stroke-linecap:butt; stroke-linejoin:round; stroke-width:2; stroke-opacity:0.1; fill:none" points="
  156.598,644.306 1824.91,644.306 
  "/>
<polyline clip-path="url(#clip402)" style="stroke:#000000; stroke-linecap:butt; stroke-linejoin:round; stroke-width:2; stroke-opacity:0.1; fill:none" points="
  156.598,377.166 1824.91,377.166 
  "/>
<polyline clip-path="url(#clip402)" style="stroke:#000000; stroke-linecap:butt; stroke-linejoin:round; stroke-width:2; stroke-opacity:0.1; fill:none" points="
  156.598,110.025 1824.91,110.025 
  "/>
<polyline clip-path="url(#clip400)" style="stroke:#000000; stroke-linecap:butt; stroke-linejoin:round; stroke-width:4; stroke-opacity:1; fill:none" points="
  156.598,1486.45 156.598,47.2441 
  "/>
<polyline clip-path="url(#clip400)" style="stroke:#000000; stroke-linecap:butt; stroke-linejoin:round; stroke-width:4; stroke-opacity:1; fill:none" points="
  156.598,1445.73 170.954,1445.73 
  "/>
<polyline clip-path="url(#clip400)" style="stroke:#000000; stroke-linecap:butt; stroke-linejoin:round; stroke-width:4; stroke-opacity:1; fill:none" points="
  156.598,1178.59 170.954,1178.59 
  "/>
<polyline clip-path="url(#clip400)" style="stroke:#000000; stroke-linecap:butt; stroke-linejoin:round; stroke-width:4; stroke-opacity:1; fill:none" points="
  156.598,911.447 170.954,911.447 
  "/>
<polyline clip-path="url(#clip400)" style="stroke:#000000; stroke-linecap:butt; stroke-linejoin:round; stroke-width:4; stroke-opacity:1; fill:none" points="
  156.598,644.306 170.954,644.306 
  "/>
<polyline clip-path="url(#clip400)" style="stroke:#000000; stroke-linecap:butt; stroke-linejoin:round; stroke-width:4; stroke-opacity:1; fill:none" points="
  156.598,377.166 170.954,377.166 
  "/>
<polyline clip-path="url(#clip400)" style="stroke:#000000; stroke-linecap:butt; stroke-linejoin:round; stroke-width:4; stroke-opacity:1; fill:none" points="
  156.598,110.025 170.954,110.025 
  "/>
<path clip-path="url(#clip400)" d="M63.4226 1431.53 Q59.8115 1431.53 57.9828 1435.09 Q56.1773 1438.63 56.1773 1445.76 Q56.1773 1452.87 57.9828 1456.43 Q59.8115 1459.98 63.4226 1459.98 Q67.0569 1459.98 68.8624 1456.43 Q70.6911 1452.87 70.6911 1445.76 Q70.6911 1438.63 68.8624 1435.09 Q67.0569 1431.53 63.4226 1431.53 M63.4226 1427.82 Q69.2328 1427.82 72.2883 1432.43 Q75.367 1437.01 75.367 1445.76 Q75.367 1454.49 72.2883 1459.1 Q69.2328 1463.68 63.4226 1463.68 Q57.6125 1463.68 54.5338 1459.1 Q51.4782 1454.49 51.4782 1445.76 Q51.4782 1437.01 54.5338 1432.43 Q57.6125 1427.82 63.4226 1427.82 Z" fill="#000000" fill-rule="evenodd" fill-opacity="1" /><path clip-path="url(#clip400)" d="M83.5845 1457.13 L88.4688 1457.13 L88.4688 1463.01 L83.5845 1463.01 L83.5845 1457.13 Z" fill="#000000" fill-rule="evenodd" fill-opacity="1" /><path clip-path="url(#clip400)" d="M108.654 1431.53 Q105.043 1431.53 103.214 1435.09 Q101.409 1438.63 101.409 1445.76 Q101.409 1452.87 103.214 1456.43 Q105.043 1459.98 108.654 1459.98 Q112.288 1459.98 114.094 1456.43 Q115.922 1452.87 115.922 1445.76 Q115.922 1438.63 114.094 1435.09 Q112.288 1431.53 108.654 1431.53 M108.654 1427.82 Q114.464 1427.82 117.52 1432.43 Q120.598 1437.01 120.598 1445.76 Q120.598 1454.49 117.52 1459.1 Q114.464 1463.68 108.654 1463.68 Q102.844 1463.68 99.765 1459.1 Q96.7095 1454.49 96.7095 1445.76 Q96.7095 1437.01 99.765 1432.43 Q102.844 1427.82 108.654 1427.82 Z" fill="#000000" fill-rule="evenodd" fill-opacity="1" /><path clip-path="url(#clip400)" d="M64.6495 1164.39 Q61.0384 1164.39 59.2097 1167.95 Q57.4041 1171.49 57.4041 1178.62 Q57.4041 1185.73 59.2097 1189.29 Q61.0384 1192.83 64.6495 1192.83 Q68.2837 1192.83 70.0892 1189.29 Q71.9179 1185.73 71.9179 1178.62 Q71.9179 1171.49 70.0892 1167.95 Q68.2837 1164.39 64.6495 1164.39 M64.6495 1160.68 Q70.4596 1160.68 73.5152 1165.29 Q76.5938 1169.87 76.5938 1178.62 Q76.5938 1187.35 73.5152 1191.95 Q70.4596 1196.54 64.6495 1196.54 Q58.8393 1196.54 55.7606 1191.95 Q52.7051 1187.35 52.7051 1178.62 Q52.7051 1169.87 55.7606 1165.29 Q58.8393 1160.68 64.6495 1160.68 Z" fill="#000000" fill-rule="evenodd" fill-opacity="1" /><path clip-path="url(#clip400)" d="M84.8114 1189.99 L89.6956 1189.99 L89.6956 1195.87 L84.8114 1195.87 L84.8114 1189.99 Z" fill="#000000" fill-rule="evenodd" fill-opacity="1" /><path clip-path="url(#clip400)" d="M100.691 1191.93 L108.33 1191.93 L108.33 1165.57 L100.02 1167.23 L100.02 1162.97 L108.283 1161.31 L112.959 1161.31 L112.959 1191.93 L120.598 1191.93 L120.598 1195.87 L100.691 1195.87 L100.691 1191.93 Z" fill="#000000" fill-rule="evenodd" fill-opacity="1" /><path clip-path="url(#clip400)" d="M65.0198 897.245 Q61.4087 897.245 59.58 900.81 Q57.7745 904.352 57.7745 911.481 Q57.7745 918.588 59.58 922.153 Q61.4087 925.694 65.0198 925.694 Q68.6541 925.694 70.4596 922.153 Q72.2883 918.588 72.2883 911.481 Q72.2883 904.352 70.4596 900.81 Q68.6541 897.245 65.0198 897.245 M65.0198 893.542 Q70.83 893.542 73.8855 898.148 Q76.9642 902.731 76.9642 911.481 Q76.9642 920.208 73.8855 924.815 Q70.83 929.398 65.0198 929.398 Q59.2097 929.398 56.131 924.815 Q53.0754 920.208 53.0754 911.481 Q53.0754 902.731 56.131 898.148 Q59.2097 893.542 65.0198 893.542 Z" fill="#000000" fill-rule="evenodd" fill-opacity="1" /><path clip-path="url(#clip400)" d="M85.1818 922.847 L90.066 922.847 L90.066 928.727 L85.1818 928.727 L85.1818 922.847 Z" fill="#000000" fill-rule="evenodd" fill-opacity="1" /><path clip-path="url(#clip400)" d="M104.279 924.791 L120.598 924.791 L120.598 928.727 L98.6539 928.727 L98.6539 924.791 Q101.316 922.037 105.899 917.407 Q110.506 912.754 111.686 911.412 Q113.932 908.889 114.811 907.153 Q115.714 905.393 115.714 903.704 Q115.714 900.949 113.77 899.213 Q111.848 897.477 108.746 897.477 Q106.547 897.477 104.094 898.241 Q101.663 899.005 98.8854 900.555 L98.8854 895.833 Q101.709 894.699 104.163 894.12 Q106.617 893.542 108.654 893.542 Q114.024 893.542 117.219 896.227 Q120.413 898.912 120.413 903.403 Q120.413 905.532 119.603 907.454 Q118.816 909.352 116.709 911.944 Q116.131 912.616 113.029 915.833 Q109.927 919.028 104.279 924.791 Z" fill="#000000" fill-rule="evenodd" fill-opacity="1" /><path clip-path="url(#clip400)" d="M64.0708 630.105 Q60.4597 630.105 58.631 633.67 Q56.8254 637.211 56.8254 644.341 Q56.8254 651.447 58.631 655.012 Q60.4597 658.554 64.0708 658.554 Q67.705 658.554 69.5105 655.012 Q71.3392 651.447 71.3392 644.341 Q71.3392 637.211 69.5105 633.67 Q67.705 630.105 64.0708 630.105 M64.0708 626.401 Q69.8809 626.401 72.9365 631.008 Q76.0151 635.591 76.0151 644.341 Q76.0151 653.068 72.9365 657.674 Q69.8809 662.257 64.0708 662.257 Q58.2606 662.257 55.1819 657.674 Q52.1264 653.068 52.1264 644.341 Q52.1264 635.591 55.1819 631.008 Q58.2606 626.401 64.0708 626.401 Z" fill="#000000" fill-rule="evenodd" fill-opacity="1" /><path clip-path="url(#clip400)" d="M84.2327 655.707 L89.1169 655.707 L89.1169 661.586 L84.2327 661.586 L84.2327 655.707 Z" fill="#000000" fill-rule="evenodd" fill-opacity="1" /><path clip-path="url(#clip400)" d="M113.469 642.952 Q116.825 643.67 118.7 645.938 Q120.598 648.207 120.598 651.54 Q120.598 656.656 117.08 659.457 Q113.561 662.257 107.08 662.257 Q104.904 662.257 102.589 661.818 Q100.297 661.401 97.8437 660.544 L97.8437 656.031 Q99.7882 657.165 102.103 657.744 Q104.418 658.322 106.941 658.322 Q111.339 658.322 113.631 656.586 Q115.945 654.85 115.945 651.54 Q115.945 648.484 113.793 646.771 Q111.663 645.035 107.844 645.035 L103.816 645.035 L103.816 641.193 L108.029 641.193 Q111.478 641.193 113.307 639.827 Q115.135 638.438 115.135 635.846 Q115.135 633.184 113.237 631.771 Q111.362 630.336 107.844 630.336 Q105.922 630.336 103.723 630.753 Q101.524 631.17 98.8854 632.049 L98.8854 627.883 Q101.547 627.142 103.862 626.771 Q106.2 626.401 108.26 626.401 Q113.584 626.401 116.686 628.832 Q119.788 631.239 119.788 635.359 Q119.788 638.23 118.145 640.221 Q116.501 642.188 113.469 642.952 Z" fill="#000000" fill-rule="evenodd" fill-opacity="1" /><path clip-path="url(#clip400)" d="M62.9365 362.964 Q59.3254 362.964 57.4967 366.529 Q55.6912 370.071 55.6912 377.2 Q55.6912 384.307 57.4967 387.872 Q59.3254 391.413 62.9365 391.413 Q66.5707 391.413 68.3763 387.872 Q70.205 384.307 70.205 377.2 Q70.205 370.071 68.3763 366.529 Q66.5707 362.964 62.9365 362.964 M62.9365 359.261 Q68.7467 359.261 71.8022 363.867 Q74.8809 368.45 74.8809 377.2 Q74.8809 385.927 71.8022 390.534 Q68.7467 395.117 62.9365 395.117 Q57.1264 395.117 54.0477 390.534 Q50.9921 385.927 50.9921 377.2 Q50.9921 368.45 54.0477 363.867 Q57.1264 359.261 62.9365 359.261 Z" fill="#000000" fill-rule="evenodd" fill-opacity="1" /><path clip-path="url(#clip400)" d="M83.0984 388.566 L87.9827 388.566 L87.9827 394.446 L83.0984 394.446 L83.0984 388.566 Z" fill="#000000" fill-rule="evenodd" fill-opacity="1" /><path clip-path="url(#clip400)" d="M111.015 363.96 L99.2095 382.409 L111.015 382.409 L111.015 363.96 M109.788 359.886 L115.668 359.886 L115.668 382.409 L120.598 382.409 L120.598 386.298 L115.668 386.298 L115.668 394.446 L111.015 394.446 L111.015 386.298 L95.4132 386.298 L95.4132 381.784 L109.788 359.886 Z" fill="#000000" fill-rule="evenodd" fill-opacity="1" /><path clip-path="url(#clip400)" d="M64.418 95.8239 Q60.8069 95.8239 58.9782 99.3887 Q57.1726 102.93 57.1726 110.06 Q57.1726 117.166 58.9782 120.731 Q60.8069 124.273 64.418 124.273 Q68.0522 124.273 69.8578 120.731 Q71.6865 117.166 71.6865 110.06 Q71.6865 102.93 69.8578 99.3887 Q68.0522 95.8239 64.418 95.8239 M64.418 92.1203 Q70.2281 92.1203 73.2837 96.7267 Q76.3624 101.31 76.3624 110.06 Q76.3624 118.787 73.2837 123.393 Q70.2281 127.977 64.418 127.977 Q58.6078 127.977 55.5291 123.393 Q52.4736 118.787 52.4736 110.06 Q52.4736 101.31 55.5291 96.7267 Q58.6078 92.1203 64.418 92.1203 Z" fill="#000000" fill-rule="evenodd" fill-opacity="1" /><path clip-path="url(#clip400)" d="M84.5799 121.426 L89.4641 121.426 L89.4641 127.305 L84.5799 127.305 L84.5799 121.426 Z" fill="#000000" fill-rule="evenodd" fill-opacity="1" /><path clip-path="url(#clip400)" d="M99.6956 92.7452 L118.052 92.7452 L118.052 96.6804 L103.978 96.6804 L103.978 105.153 Q104.996 104.805 106.015 104.643 Q107.033 104.458 108.052 104.458 Q113.839 104.458 117.219 107.629 Q120.598 110.801 120.598 116.217 Q120.598 121.796 117.126 124.898 Q113.654 127.977 107.334 127.977 Q105.159 127.977 102.89 127.606 Q100.645 127.236 98.2372 126.495 L98.2372 121.796 Q100.321 122.93 102.543 123.486 Q104.765 124.041 107.242 124.041 Q111.246 124.041 113.584 121.935 Q115.922 119.828 115.922 116.217 Q115.922 112.606 113.584 110.5 Q111.246 108.393 107.242 108.393 Q105.367 108.393 103.492 108.81 Q101.64 109.227 99.6956 110.106 L99.6956 92.7452 Z" fill="#000000" fill-rule="evenodd" fill-opacity="1" /><polyline clip-path="url(#clip402)" style="stroke:#009af9; stroke-linecap:butt; stroke-linejoin:round; stroke-width:4; stroke-opacity:1; fill:none" points="
  203.815,1445.72 205.784,1445.69 207.754,1445.72 209.724,1445.71 211.694,1444.82 213.664,1444.73 215.633,1444.5 217.603,1443.95 219.573,1444.34 221.543,1443.77 
  223.513,1443.4 225.482,1443.46 227.452,1442.61 229.422,1442.53 231.392,1442.89 233.362,1442.72 235.332,1442.83 237.301,1443.11 239.271,1442.75 241.241,1442.57 
  243.211,1442.2 245.181,1441.79 247.15,1441.74 249.12,1441.48 251.09,1441.31 253.06,1440.83 255.03,1440.89 256.999,1440.65 258.969,1440.22 260.939,1439.77 
  262.909,1439.61 264.879,1439.33 266.849,1439.33 268.818,1439.94 270.788,1439.52 272.758,1439.55 274.728,1439.07 276.698,1438.3 278.667,1438.59 280.637,1438.26 
  282.607,1438.15 284.577,1438.23 286.547,1437.63 288.516,1437.4 290.486,1437.74 292.456,1437.35 294.426,1436.63 296.396,1436.69 298.365,1436.53 300.335,1436.15 
  302.305,1436.05 304.275,1435.59 306.245,1435.84 308.215,1435.14 310.184,1435.69 312.154,1435.02 314.124,1434.67 316.094,1434.51 318.064,1434.91 320.033,1434.02 
  322.003,1433.88 323.973,1433.24 325.943,1433.83 327.913,1433.34 329.882,1433.94 331.852,1433.58 333.822,1431.89 335.792,1392.01 337.762,1430.91 339.731,1430.2 
  341.701,1431.07 343.671,1431.16 345.641,1429.81 347.611,1429.79 349.581,1430.56 351.55,1430.81 353.52,1430.35 355.49,1430.54 357.46,1428.7 359.43,1429.82 
  361.399,1428.91 363.369,1429.87 365.339,1430.34 367.309,1427.36 369.279,1428.24 371.248,1426.66 373.218,1427.7 375.188,1428.22 377.158,1427.5 379.128,1427.15 
  381.097,1426.86 383.067,1426.89 385.037,1427.29 387.007,1427.5 388.977,1426.19 390.947,1425.03 392.916,1425.94 394.886,1426.37 396.856,1425.16 398.826,1426.96 
  400.796,1424.66 402.765,1426.13 404.735,1392.34 406.705,1426.08 408.675,1424.96 410.645,1423.6 412.614,1423.16 414.584,1425.09 416.554,1423.05 418.524,1423.85 
  420.494,1422.42 422.464,1423.33 424.433,1421.95 426.403,1423.32 428.373,1420.96 430.343,1419.57 432.313,1420.79 434.282,1420.38 436.252,1418.66 438.222,1420.28 
  440.192,1421.49 442.162,1421.14 444.131,1385.58 446.101,1418.79 448.071,1416.12 450.041,1419.74 452.011,1419.29 453.98,1417.23 455.95,1417.48 457.92,1418.8 
  459.89,1416.43 461.86,1417.54 463.83,1415.1 465.799,1411 467.769,1415.76 469.739,1415.82 471.709,1416.53 473.679,1392.67 475.648,1414.65 477.618,1410.48 
  479.588,1412.98 481.558,1412.9 483.528,1415.39 485.497,1411.18 487.467,1410.76 489.437,1411.01 491.407,1407.71 493.377,1412.02 495.346,1413.11 497.316,1411.9 
  499.286,1387.04 501.256,1409.11 503.226,1404.38 505.196,1407.51 507.165,1408.04 509.135,1408.01 511.105,1405.42 513.075,1406.05 515.045,1408.72 517.014,1407.07 
  518.984,1408.5 520.954,1382.49 522.924,1406.8 524.894,1402.08 526.863,1403.29 528.833,1400.88 530.803,1401.65 532.773,1400.33 534.743,1399.54 536.713,1400 
  538.682,1377.46 540.652,1393.07 542.622,1395.17 544.592,1399 546.562,1397.62 548.531,1400.75 550.501,1396.45 552.471,1398.1 554.441,1398.86 556.411,1375.83 
  558.38,1396.25 560.35,1396.53 562.32,1395.45 564.29,1398.36 566.26,1398.46 568.229,1391.92 570.199,1394.08 572.169,1373.14 574.139,1394.06 576.109,1394.83 
  578.079,1388.59 580.048,1391.65 582.018,1392.35 583.988,1388.89 585.958,1369.06 587.928,1394.22 589.897,1389.73 591.867,1387.94 593.837,1386.88 595.807,1388.38 
  597.777,1389.3 599.746,1366.29 601.716,1384.27 603.686,1384.67 605.656,1386.72 607.626,1383.86 609.595,1380.86 611.565,1385.46 613.535,1361.82 615.505,1382.92 
  617.475,1385.94 619.445,1379.82 621.414,1382.72 623.384,1380.46 625.354,1359.85 627.324,1377.5 629.294,1372.55 631.263,1380.02 633.233,1376.8 635.203,1372.98 
  637.173,1350.16 639.143,1378.2 641.112,1375.9 643.082,1384.16 645.052,1374.79 647.022,1376.98 648.992,1346.86 650.961,1371.23 652.931,1366.83 654.901,1375.56 
  656.871,1368.82 658.841,1345.07 660.811,1370.63 662.78,1370.55 664.75,1370.14 666.72,1369.96 668.69,1340.97 670.66,1368.81 672.629,1359.79 674.599,1365.71 
  676.569,1369.93 678.539,1239.86 680.509,1362.31 682.478,1357.49 684.448,1359.86 686.418,1351.27 688.388,936.443 690.358,1336.21 692.328,1342.12 694.297,1356.51 
  696.267,1363.04 698.237,1046.94 700.207,1349.37 702.177,1346.92 704.146,1357.78 706.116,1354.45 708.086,1326.58 710.056,1346.91 712.026,1337.84 713.995,1350 
  715.965,1350.88 717.935,1328.9 719.905,1356.1 721.875,1335.43 723.844,1344.59 725.814,1327.98 727.784,1337.42 729.754,1351.17 731.724,1323.79 733.694,1342.77 
  735.663,1324.6 737.633,1345.55 739.603,1333.68 741.573,1335.65 743.543,1340.05 745.512,1327.09 747.482,1329.32 749.452,1327.13 751.422,1335.23 753.392,1320.1 
  755.361,1331.33 757.331,1334.26 759.301,1307.69 761.271,1320.61 763.241,1319.42 765.21,1323.31 767.18,1307.21 769.15,1321.12 771.12,1307.4 773.09,1326.4 
  775.06,1312.3 777.029,1316.97 778.999,1300.57 780.969,1318.46 782.939,1313.75 784.909,1317.31 786.878,1288.82 788.848,1313.22 790.818,1301.05 792.788,1319.37 
  794.758,1299.73 796.727,1305.06 798.697,1299.08 800.667,1309.25 802.637,1293.85 804.607,1306.43 806.576,1293.21 808.546,1309.8 810.516,1291.03 812.486,1301.92 
  814.456,1304.86 816.426,1290.32 818.395,1307.11 820.365,1290.52 822.335,1300.16 824.305,1300.95 826.275,1290.96 828.244,1300.53 830.214,1272 832.184,1288.17 
  834.154,1298.06 836.124,1280.41 838.093,1291.69 840.063,1267.65 842.033,1287.48 844.003,1290.11 845.973,1276.3 847.943,1290.51 849.912,1251.77 851.882,1289.61 
  853.852,1292.49 855.822,1273.24 857.792,1289.3 859.761,1272.98 861.731,1275.86 863.701,1283.65 865.671,1266.06 867.641,1280.69 869.61,1274.72 871.58,1261.5 
  873.55,1285.05 875.52,1268.21 877.49,1276.66 879.459,1253.81 881.429,1274.32 883.399,1283.19 885.369,1256.51 887.339,1266.22 889.309,1270.73 891.278,1255.2 
  893.248,1266.16 895.218,1267.87 897.188,1252.31 899.158,1265.23 901.127,1266.65 903.097,1242.42 905.067,1248.37 907.037,1254.11 909.007,1233.64 910.976,1258.66 
  912.946,1265.98 914.916,1239.02 916.886,1245.65 918.856,1255.11 920.825,1237.28 922.795,1229.52 924.765,1247.48 926.735,1220.11 928.705,1230.66 930.675,1244.26 
  932.644,1225.59 934.614,1231.14 936.584,1260.09 938.554,1227.07 940.524,1238.96 942.493,1243.97 944.463,1218.16 946.433,1230.77 948.403,1232.85 950.373,1219.54 
  952.342,1233.35 954.312,1232.13 956.282,1204.6 958.252,1206.42 960.222,1236.69 962.191,1198.85 964.161,1207.57 966.131,1227.93 968.101,1195.11 970.071,1214.18 
  972.041,1215.15 974.01,1183.68 975.98,1212.89 977.95,1205.35 979.92,1173.61 981.89,1212.4 983.859,1214.11 985.829,1198.29 987.799,1197.34 989.769,1195.76 
  991.739,1215.13 993.708,1181.3 995.678,1191.06 997.648,1194.53 999.618,1212.81 1001.59,1177.92 1003.56,1210.44 1005.53,1195.64 1007.5,1202.59 1009.47,1178.04 
  1011.44,1180.15 1013.41,1163.99 1015.38,1193.51 1017.35,1158.36 1019.32,1184 1021.29,1167.65 1023.26,1190.07 1025.23,1159.06 1027.2,1161.03 1029.17,1169.38 
  1031.13,1188.69 1033.1,1157.07 1035.07,1162.91 1037.04,1159.6 1039.01,1180.88 1040.98,1145.7 1042.95,1186.52 1044.92,1160.87 1046.89,1156.64 1048.86,1112.19 
  1050.83,1135.6 1052.8,1135.56 1054.77,1145.22 1056.74,1129.83 1058.71,1125.55 1060.68,1161.08 1062.65,1166.49 1064.62,1133.04 1066.59,1145.87 1068.56,1151.49 
  1070.53,1150.27 1072.5,1128.1 1074.47,1133.69 1076.44,1126.45 1078.41,1160.52 1080.38,1111.4 1082.35,1127.96 1084.32,1124.79 1086.29,1152.15 1088.26,1121.7 
  1090.23,1121.9 1092.2,1104.03 1094.17,1145.23 1096.14,1101.88 1098.11,1110.64 1100.08,1113.93 1102.05,1124.09 1104.02,1094.6 1105.99,1113.94 1107.96,1115.57 
  1109.93,1131.22 1111.9,1074.66 1113.87,1117.78 1115.84,1107.41 1117.81,1103.4 1119.78,1077.56 1121.75,1092.31 1123.72,1077.27 1125.69,1122.25 1127.66,1061.05 
  1129.63,1090.18 1131.6,1080.93 1133.56,1105.83 1135.53,1073.8 1137.5,1086.75 1139.47,1082.17 1141.44,1130.98 1143.41,1071.98 1145.38,1068.67 1147.35,1073.4 
  1149.32,1097.45 1151.29,1040.06 1153.26,1049.49 1155.23,1079.2 1157.2,1085.77 1159.17,1044.07 1161.14,1063 1163.11,1054.87 1165.08,1055.99 1167.05,1058.2 
  1169.02,1064.44 1170.99,1056.62 1172.96,1054.67 1174.93,1053.57 1176.9,1038.64 1178.87,1033.7 1180.84,1029.11 1182.81,1045.94 1184.78,1037.12 1186.75,1035.91 
  1188.72,1011.68 1190.69,1036.49 1192.66,1012.77 1194.63,1047.85 1196.6,1028.51 1198.57,1020.65 1200.54,1020.47 1202.51,1032.62 1204.48,1009.45 1206.45,1034.84 
  1208.42,1023.72 1210.39,1023.73 1212.36,994.65 1214.33,1009.62 1216.3,1018.34 1218.27,994.569 1220.24,1030.3 1222.21,1002.82 1224.18,992.958 1226.15,986.531 
  1228.12,1001.8 1230.09,995.452 1232.06,1001.04 1234.03,997.392 1236,965.22 1237.96,994.637 1239.93,984.723 1241.9,992.608 1243.87,991.661 1245.84,978.388 
  1247.81,983.109 1249.78,984.463 1251.75,970.275 1253.72,982.679 1255.69,952.103 1257.66,967.102 1259.63,956.854 1261.6,959.84 1263.57,944.877 1265.54,987.519 
  1267.51,950.399 1269.48,949.391 1271.45,949.198 1273.42,930.681 1275.39,975.422 1277.36,947.126 1279.33,940.43 1281.3,941.677 1283.27,947.892 1285.24,934.204 
  1287.21,959.941 1289.18,871.276 1291.15,842.395 1293.12,553.08 1295.09,665.017 1297.06,918.825 1299.03,922.151 1301,925.989 1302.97,929.695 1304.94,905.779 
  1306.91,908.443 1308.88,912.365 1310.85,912.409 1312.82,907.212 1314.79,905.316 1316.76,893.612 1318.73,890.73 1320.7,910.665 1322.67,915.959 1324.64,907.708 
  1326.61,866.092 1328.58,885.841 1330.55,825.89 1332.52,850.262 1334.49,829.041 1336.46,876.563 1338.43,876.255 1340.4,851.983 1342.36,894.144 1344.33,884.905 
  1346.3,874.01 1348.27,836.714 1350.24,846.058 1352.21,826.146 1354.18,801.416 1356.15,819.073 1358.12,837.104 1360.09,804.152 1362.06,777.397 1364.03,811.981 
  1366,738.427 1367.97,706.64 1369.94,810.949 1371.91,775.232 1373.88,824.685 1375.85,817.725 1377.82,771.744 1379.79,827.341 1381.76,811.665 1383.73,845.053 
  1385.7,819.42 1387.67,819.084 1389.64,826.381 1391.61,748.621 1393.58,779.167 1395.55,774.733 1397.52,742.321 1399.49,764.676 1401.46,804.184 1403.43,802.164 
  1405.4,778.179 1407.37,771.97 1409.34,774.686 1411.31,726.787 1413.28,703.977 1415.25,782.478 1417.22,780.136 1419.19,726.242 1421.16,763.223 1423.13,744.292 
  1425.1,739.888 1427.07,712.027 1429.04,722.512 1431.01,772.96 1432.98,726.271 1434.95,714.418 1436.92,751.352 1438.89,732.728 1440.86,733.921 1442.83,706.44 
  1444.79,742.309 1446.76,715.656 1448.73,693.238 1450.7,732.625 1452.67,733.704 1454.64,706.303 1456.61,625.819 1458.58,702.465 1460.55,671.786 1462.52,702.553 
  1464.49,669.836 1466.46,709.835 1468.43,734.841 1470.4,709.101 1472.37,728.582 1474.34,710.184 1476.31,713.642 1478.28,692.482 1480.25,733.552 1482.22,661.457 
  1484.19,692.016 1486.16,682.4 1488.13,689.848 1490.1,668.543 1492.07,686.225 1494.04,677.128 1496.01,694.344 1497.98,681.08 1499.95,655.413 1501.92,707.98 
  1503.89,673.685 1505.86,673.601 1507.83,698.207 1509.8,668.647 1511.77,638.755 1513.74,661.353 1515.71,656.798 1517.68,647.543 1519.65,651.696 1521.62,681.377 
  1523.59,594.083 1525.56,564.263 1527.53,577.552 1529.5,607.046 1531.47,622.241 1533.44,649.427 1535.41,641.879 1537.38,634.069 1539.35,626.464 1541.32,650.063 
  1543.29,622.358 1545.26,585.87 1547.23,635.485 1549.19,622.225 1551.16,595.776 1553.13,594.232 1555.1,602.527 1557.07,584.511 1559.04,609.986 1561.01,574.873 
  1562.98,579.139 1564.95,570.03 1566.92,595.213 1568.89,599.781 1570.86,609.729 1572.83,572.867 1574.8,558.388 1576.77,562.397 1578.74,584.999 1580.71,593.378 
  1582.68,564.082 1584.65,604.947 1586.62,548.612 1588.59,518.42 1590.56,555.852 1592.53,558.559 1594.5,552.392 1596.47,572.818 1598.44,537.21 1600.41,507.394 
  1602.38,594.613 1604.35,410.957 1606.32,424.344 1608.29,494.556 1610.26,499.348 1612.23,529.466 1614.2,481.915 1616.17,429.017 1618.14,450.279 1620.11,490.366 
  1622.08,445.796 1624.05,490.995 1626.02,493.375 1627.99,499.486 1629.96,460.138 1631.93,381.656 1633.9,437.07 1635.87,399.734 1637.84,387.127 1639.81,394.484 
  1641.78,410.14 1643.75,468.108 1645.72,346.718 1647.69,352.729 1649.66,366.234 1651.63,361.775 1653.59,306.126 1655.56,333.162 1657.53,305.566 1659.5,367.357 
  1661.47,326.627 1663.44,368.371 1665.41,367.131 1667.38,320.786 1669.35,340.963 1671.32,303.817 1673.29,325.919 1675.26,298.637 1677.23,348.044 1679.2,315.918 
  1681.17,285.989 1683.14,381.178 1685.11,279.21 1687.08,309.338 1689.05,301.47 1691.02,205.132 1692.99,245.157 1694.96,242.382 1696.93,391.743 1698.9,372.681 
  1700.87,419.388 1702.84,401.647 1704.81,352.512 1706.78,407.088 1708.75,345.331 1710.72,389.364 1712.69,335.027 1714.66,334.201 1716.63,304.582 1718.6,268.769 
  1720.57,305.429 1722.54,279.081 1724.51,311.259 1726.48,263.235 1728.45,320.723 1730.42,293.406 1732.39,226.587 1734.36,287.399 1736.33,283.371 1738.3,263.846 
  1740.27,232.639 1742.24,268.391 1744.21,248.83 1746.18,244.582 1748.15,258.827 1750.12,241.363 1752.09,279.461 1754.06,226.15 1756.02,217.013 1757.99,203.528 
  1759.96,280.022 1761.93,187.241 1763.9,225.254 1765.87,87.9763 1767.84,205.307 1769.81,228.43 1771.78,160.99 1773.75,195.147 1775.72,210.175 1777.69,196.402 
  
  "/>
<path clip-path="url(#clip400)" d="
M1898.11 198.898 L2352.76 198.898 L2352.76 95.2176 L1898.11 95.2176  Z
  " fill="#ffffff" fill-rule="evenodd" fill-opacity="1"/>
<polyline clip-path="url(#clip400)" style="stroke:#000000; stroke-linecap:butt; stroke-linejoin:round; stroke-width:4; stroke-opacity:1; fill:none" points="
  1898.11,198.898 2352.76,198.898 2352.76,95.2176 1898.11,95.2176 1898.11,198.898 
  "/>
<polyline clip-path="url(#clip400)" style="stroke:#009af9; stroke-linecap:butt; stroke-linejoin:round; stroke-width:4; stroke-opacity:1; fill:none" points="
  1922.52,147.058 2068.93,147.058 
  "/>
<path clip-path="url(#clip400)" d="M2093.33 128.319 L2097.59 128.319 L2097.59 164.338 L2093.33 164.338 L2093.33 128.319 Z" fill="#000000" fill-rule="evenodd" fill-opacity="1" /><path clip-path="url(#clip400)" d="M2106.5 138.412 L2110.76 138.412 L2110.76 164.338 L2106.5 164.338 L2106.5 138.412 M2106.5 128.319 L2110.76 128.319 L2110.76 133.713 L2106.5 133.713 L2106.5 128.319 Z" fill="#000000" fill-rule="evenodd" fill-opacity="1" /><path clip-path="url(#clip400)" d="M2138.28 151.398 Q2138.28 146.699 2136.34 144.037 Q2134.42 141.352 2131.04 141.352 Q2127.66 141.352 2125.71 144.037 Q2123.79 146.699 2123.79 151.398 Q2123.79 156.097 2125.71 158.782 Q2127.66 161.444 2131.04 161.444 Q2134.42 161.444 2136.34 158.782 Q2138.28 156.097 2138.28 151.398 M2123.79 142.347 Q2125.13 140.032 2127.17 138.921 Q2129.23 137.787 2132.08 137.787 Q2136.8 137.787 2139.74 141.537 Q2142.7 145.287 2142.7 151.398 Q2142.7 157.509 2139.74 161.259 Q2136.8 165.009 2132.08 165.009 Q2129.23 165.009 2127.17 163.898 Q2125.13 162.763 2123.79 160.449 L2123.79 164.338 L2119.51 164.338 L2119.51 128.319 L2123.79 128.319 L2123.79 142.347 Z" fill="#000000" fill-rule="evenodd" fill-opacity="1" /><path clip-path="url(#clip400)" d="M2181.36 139.176 L2181.36 143.203 Q2179.55 142.277 2177.61 141.815 Q2175.67 141.352 2173.58 141.352 Q2170.41 141.352 2168.81 142.324 Q2167.24 143.296 2167.24 145.24 Q2167.24 146.722 2168.37 147.578 Q2169.51 148.412 2172.93 149.176 L2174.39 149.5 Q2178.93 150.472 2180.83 152.254 Q2182.75 154.014 2182.75 157.185 Q2182.75 160.796 2179.88 162.902 Q2177.03 165.009 2172.03 165.009 Q2169.95 165.009 2167.68 164.592 Q2165.43 164.199 2162.93 163.388 L2162.93 158.99 Q2165.3 160.217 2167.59 160.842 Q2169.88 161.444 2172.12 161.444 Q2175.13 161.444 2176.75 160.426 Q2178.37 159.384 2178.37 157.509 Q2178.37 155.773 2177.19 154.847 Q2176.04 153.921 2172.08 153.064 L2170.6 152.717 Q2166.64 151.884 2164.88 150.171 Q2163.12 148.435 2163.12 145.426 Q2163.12 141.768 2165.71 139.778 Q2168.3 137.787 2173.07 137.787 Q2175.43 137.787 2177.52 138.134 Q2179.6 138.481 2181.36 139.176 Z" fill="#000000" fill-rule="evenodd" fill-opacity="1" /><path clip-path="url(#clip400)" d="M2199.58 141.398 Q2196.15 141.398 2194.16 144.083 Q2192.17 146.745 2192.17 151.398 Q2192.17 156.051 2194.14 158.736 Q2196.13 161.398 2199.58 161.398 Q2202.98 161.398 2204.97 158.713 Q2206.96 156.027 2206.96 151.398 Q2206.96 146.791 2204.97 144.106 Q2202.98 141.398 2199.58 141.398 M2199.58 137.787 Q2205.13 137.787 2208.3 141.398 Q2211.48 145.009 2211.48 151.398 Q2211.48 157.764 2208.3 161.398 Q2205.13 165.009 2199.58 165.009 Q2194 165.009 2190.83 161.398 Q2187.68 157.764 2187.68 151.398 Q2187.68 145.009 2190.83 141.398 Q2194 137.787 2199.58 137.787 Z" fill="#000000" fill-rule="evenodd" fill-opacity="1" /><path clip-path="url(#clip400)" d="M2218.54 128.319 L2222.8 128.319 L2222.8 164.338 L2218.54 164.338 L2218.54 128.319 Z" fill="#000000" fill-rule="evenodd" fill-opacity="1" /><path clip-path="url(#clip400)" d="M2228.65 138.412 L2233.17 138.412 L2241.27 160.171 L2249.37 138.412 L2253.88 138.412 L2244.16 164.338 L2238.37 164.338 L2228.65 138.412 Z" fill="#000000" fill-rule="evenodd" fill-opacity="1" /><path clip-path="url(#clip400)" d="M2281.94 150.31 L2281.94 152.393 L2262.36 152.393 Q2262.63 156.791 2264.99 159.106 Q2267.38 161.398 2271.61 161.398 Q2274.07 161.398 2276.36 160.796 Q2278.67 160.194 2280.94 158.99 L2280.94 163.018 Q2278.65 163.99 2276.24 164.5 Q2273.84 165.009 2271.36 165.009 Q2265.16 165.009 2261.52 161.398 Q2257.91 157.787 2257.91 151.629 Q2257.91 145.264 2261.34 141.537 Q2264.79 137.787 2270.62 137.787 Q2275.85 137.787 2278.88 141.166 Q2281.94 144.523 2281.94 150.31 M2277.68 149.06 Q2277.63 145.565 2275.71 143.481 Q2273.81 141.398 2270.67 141.398 Q2267.1 141.398 2264.95 143.412 Q2262.82 145.426 2262.49 149.083 L2277.68 149.06 Z" fill="#000000" fill-rule="evenodd" fill-opacity="1" /><path clip-path="url(#clip400)" d="M2303.95 142.393 Q2303.23 141.977 2302.38 141.791 Q2301.55 141.583 2300.53 141.583 Q2296.92 141.583 2294.97 143.944 Q2293.05 146.282 2293.05 150.68 L2293.05 164.338 L2288.77 164.338 L2288.77 138.412 L2293.05 138.412 L2293.05 142.44 Q2294.39 140.078 2296.55 138.944 Q2298.7 137.787 2301.78 137.787 Q2302.22 137.787 2302.75 137.856 Q2303.28 137.903 2303.93 138.018 L2303.95 142.393 Z" fill="#000000" fill-rule="evenodd" fill-opacity="1" /></svg>
