<?xml version="1.0" encoding="utf-8"?>
<svg xmlns="http://www.w3.org/2000/svg" xmlns:xlink="http://www.w3.org/1999/xlink" width="600" height="400" viewBox="0 0 2400 1600">
<defs>
  <clipPath id="clip480">
    <rect x="0" y="0" width="2400" height="1600"/>
  </clipPath>
</defs>
<path clip-path="url(#clip480)" d="
M0 1600 L2400 1600 L2400 0 L0 0  Z
  " fill="#ffffff" fill-rule="evenodd" fill-opacity="1"/>
<defs>
  <clipPath id="clip481">
    <rect x="480" y="0" width="1681" height="1600"/>
  </clipPath>
</defs>
<path clip-path="url(#clip480)" d="
M156.598 1486.45 L1776.85 1486.45 L1776.85 47.2441 L156.598 47.2441  Z
  " fill="#ffffff" fill-rule="evenodd" fill-opacity="1"/>
<defs>
  <clipPath id="clip482">
    <rect x="156" y="47" width="1621" height="1440"/>
  </clipPath>
</defs>
<polyline clip-path="url(#clip482)" style="stroke:#000000; stroke-linecap:butt; stroke-linejoin:round; stroke-width:2; stroke-opacity:0.1; fill:none" points="
  187.015,1486.45 187.015,47.2441 
  "/>
<polyline clip-path="url(#clip482)" style="stroke:#000000; stroke-linecap:butt; stroke-linejoin:round; stroke-width:2; stroke-opacity:0.1; fill:none" points="
  573.01,1486.45 573.01,47.2441 
  "/>
<polyline clip-path="url(#clip482)" style="stroke:#000000; stroke-linecap:butt; stroke-linejoin:round; stroke-width:2; stroke-opacity:0.1; fill:none" points="
  959.006,1486.45 959.006,47.2441 
  "/>
<polyline clip-path="url(#clip482)" style="stroke:#000000; stroke-linecap:butt; stroke-linejoin:round; stroke-width:2; stroke-opacity:0.1; fill:none" points="
  1345,1486.45 1345,47.2441 
  "/>
<polyline clip-path="url(#clip482)" style="stroke:#000000; stroke-linecap:butt; stroke-linejoin:round; stroke-width:2; stroke-opacity:0.1; fill:none" points="
  1731,1486.45 1731,47.2441 
  "/>
<polyline clip-path="url(#clip480)" style="stroke:#000000; stroke-linecap:butt; stroke-linejoin:round; stroke-width:4; stroke-opacity:1; fill:none" points="
  156.598,1486.45 1776.85,1486.45 
  "/>
<polyline clip-path="url(#clip480)" style="stroke:#000000; stroke-linecap:butt; stroke-linejoin:round; stroke-width:4; stroke-opacity:1; fill:none" points="
  187.015,1486.45 187.015,1467.55 
  "/>
<polyline clip-path="url(#clip480)" style="stroke:#000000; stroke-linecap:butt; stroke-linejoin:round; stroke-width:4; stroke-opacity:1; fill:none" points="
  573.01,1486.45 573.01,1467.55 
  "/>
<polyline clip-path="url(#clip480)" style="stroke:#000000; stroke-linecap:butt; stroke-linejoin:round; stroke-width:4; stroke-opacity:1; fill:none" points="
  959.006,1486.45 959.006,1467.55 
  "/>
<polyline clip-path="url(#clip480)" style="stroke:#000000; stroke-linecap:butt; stroke-linejoin:round; stroke-width:4; stroke-opacity:1; fill:none" points="
  1345,1486.45 1345,1467.55 
  "/>
<polyline clip-path="url(#clip480)" style="stroke:#000000; stroke-linecap:butt; stroke-linejoin:round; stroke-width:4; stroke-opacity:1; fill:none" points="
  1731,1486.45 1731,1467.55 
  "/>
<path clip-path="url(#clip480)" d="M187.015 1517.37 Q183.404 1517.37 181.575 1520.93 Q179.769 1524.47 179.769 1531.6 Q179.769 1538.71 181.575 1542.27 Q183.404 1545.82 187.015 1545.82 Q190.649 1545.82 192.454 1542.27 Q194.283 1538.71 194.283 1531.6 Q194.283 1524.47 192.454 1520.93 Q190.649 1517.37 187.015 1517.37 M187.015 1513.66 Q192.825 1513.66 195.88 1518.27 Q198.959 1522.85 198.959 1531.6 Q198.959 1540.33 195.88 1544.94 Q192.825 1549.52 187.015 1549.52 Q181.205 1549.52 178.126 1544.94 Q175.07 1540.33 175.07 1531.6 Q175.07 1522.85 178.126 1518.27 Q181.205 1513.66 187.015 1513.66 Z" fill="#000000" fill-rule="evenodd" fill-opacity="1" /><path clip-path="url(#clip480)" d="M552.281 1544.91 L568.601 1544.91 L568.601 1548.85 L546.656 1548.85 L546.656 1544.91 Q549.318 1542.16 553.902 1537.53 Q558.508 1532.88 559.689 1531.53 Q561.934 1529.01 562.814 1527.27 Q563.717 1525.51 563.717 1523.82 Q563.717 1521.07 561.772 1519.33 Q559.851 1517.6 556.749 1517.6 Q554.55 1517.6 552.096 1518.36 Q549.666 1519.13 546.888 1520.68 L546.888 1515.95 Q549.712 1514.82 552.166 1514.24 Q554.619 1513.66 556.656 1513.66 Q562.027 1513.66 565.221 1516.35 Q568.416 1519.03 568.416 1523.52 Q568.416 1525.65 567.605 1527.57 Q566.818 1529.47 564.712 1532.07 Q564.133 1532.74 561.031 1535.95 Q557.93 1539.15 552.281 1544.91 Z" fill="#000000" fill-rule="evenodd" fill-opacity="1" /><path clip-path="url(#clip480)" d="M578.462 1514.29 L596.818 1514.29 L596.818 1518.22 L582.744 1518.22 L582.744 1526.7 Q583.763 1526.35 584.781 1526.19 Q585.8 1526 586.818 1526 Q592.605 1526 595.985 1529.17 Q599.364 1532.34 599.364 1537.76 Q599.364 1543.34 595.892 1546.44 Q592.42 1549.52 586.101 1549.52 Q583.925 1549.52 581.656 1549.15 Q579.411 1548.78 577.003 1548.04 L577.003 1543.34 Q579.087 1544.47 581.309 1545.03 Q583.531 1545.58 586.008 1545.58 Q590.013 1545.58 592.351 1543.48 Q594.689 1541.37 594.689 1537.76 Q594.689 1534.15 592.351 1532.04 Q590.013 1529.94 586.008 1529.94 Q584.133 1529.94 582.258 1530.35 Q580.406 1530.77 578.462 1531.65 L578.462 1514.29 Z" fill="#000000" fill-rule="evenodd" fill-opacity="1" /><path clip-path="url(#clip480)" d="M933.705 1514.29 L952.062 1514.29 L952.062 1518.22 L937.988 1518.22 L937.988 1526.7 Q939.006 1526.35 940.025 1526.19 Q941.043 1526 942.062 1526 Q947.849 1526 951.228 1529.17 Q954.608 1532.34 954.608 1537.76 Q954.608 1543.34 951.136 1546.44 Q947.664 1549.52 941.344 1549.52 Q939.168 1549.52 936.9 1549.15 Q934.654 1548.78 932.247 1548.04 L932.247 1543.34 Q934.33 1544.47 936.553 1545.03 Q938.775 1545.58 941.252 1545.58 Q945.256 1545.58 947.594 1543.48 Q949.932 1541.37 949.932 1537.76 Q949.932 1534.15 947.594 1532.04 Q945.256 1529.94 941.252 1529.94 Q939.377 1529.94 937.502 1530.35 Q935.65 1530.77 933.705 1531.65 L933.705 1514.29 Z" fill="#000000" fill-rule="evenodd" fill-opacity="1" /><path clip-path="url(#clip480)" d="M973.821 1517.37 Q970.21 1517.37 968.381 1520.93 Q966.576 1524.47 966.576 1531.6 Q966.576 1538.71 968.381 1542.27 Q970.21 1545.82 973.821 1545.82 Q977.455 1545.82 979.261 1542.27 Q981.089 1538.71 981.089 1531.6 Q981.089 1524.47 979.261 1520.93 Q977.455 1517.37 973.821 1517.37 M973.821 1513.66 Q979.631 1513.66 982.687 1518.27 Q985.765 1522.85 985.765 1531.6 Q985.765 1540.33 982.687 1544.94 Q979.631 1549.52 973.821 1549.52 Q968.011 1549.52 964.932 1544.94 Q961.877 1540.33 961.877 1531.6 Q961.877 1522.85 964.932 1518.27 Q968.011 1513.66 973.821 1513.66 Z" fill="#000000" fill-rule="evenodd" fill-opacity="1" /><path clip-path="url(#clip480)" d="M1318.86 1514.29 L1341.08 1514.29 L1341.08 1516.28 L1328.53 1548.85 L1323.65 1548.85 L1335.45 1518.22 L1318.86 1518.22 L1318.86 1514.29 Z" fill="#000000" fill-rule="evenodd" fill-opacity="1" /><path clip-path="url(#clip480)" d="M1350.24 1514.29 L1368.6 1514.29 L1368.6 1518.22 L1354.53 1518.22 L1354.53 1526.7 Q1355.55 1526.35 1356.56 1526.19 Q1357.58 1526 1358.6 1526 Q1364.39 1526 1367.77 1529.17 Q1371.15 1532.34 1371.15 1537.76 Q1371.15 1543.34 1367.68 1546.44 Q1364.2 1549.52 1357.88 1549.52 Q1355.71 1549.52 1353.44 1549.15 Q1351.19 1548.78 1348.79 1548.04 L1348.79 1543.34 Q1350.87 1544.47 1353.09 1545.03 Q1355.31 1545.58 1357.79 1545.58 Q1361.8 1545.58 1364.13 1543.48 Q1366.47 1541.37 1366.47 1537.76 Q1366.47 1534.15 1364.13 1532.04 Q1361.8 1529.94 1357.79 1529.94 Q1355.92 1529.94 1354.04 1530.35 Q1352.19 1530.77 1350.24 1531.65 L1350.24 1514.29 Z" fill="#000000" fill-rule="evenodd" fill-opacity="1" /><path clip-path="url(#clip480)" d="M1690.6 1544.91 L1698.24 1544.91 L1698.24 1518.55 L1689.93 1520.21 L1689.93 1515.95 L1698.2 1514.29 L1702.87 1514.29 L1702.87 1544.91 L1710.51 1544.91 L1710.51 1548.85 L1690.6 1548.85 L1690.6 1544.91 Z" fill="#000000" fill-rule="evenodd" fill-opacity="1" /><path clip-path="url(#clip480)" d="M1729.96 1517.37 Q1726.34 1517.37 1724.52 1520.93 Q1722.71 1524.47 1722.71 1531.6 Q1722.71 1538.71 1724.52 1542.27 Q1726.34 1545.82 1729.96 1545.82 Q1733.59 1545.82 1735.4 1542.27 Q1737.22 1538.71 1737.22 1531.6 Q1737.22 1524.47 1735.4 1520.93 Q1733.59 1517.37 1729.96 1517.37 M1729.96 1513.66 Q1735.77 1513.66 1738.82 1518.27 Q1741.9 1522.85 1741.9 1531.6 Q1741.9 1540.33 1738.82 1544.94 Q1735.77 1549.52 1729.96 1549.52 Q1724.15 1549.52 1721.07 1544.94 Q1718.01 1540.33 1718.01 1531.6 Q1718.01 1522.85 1721.07 1518.27 Q1724.15 1513.66 1729.96 1513.66 Z" fill="#000000" fill-rule="evenodd" fill-opacity="1" /><path clip-path="url(#clip480)" d="M1760.12 1517.37 Q1756.51 1517.37 1754.68 1520.93 Q1752.87 1524.47 1752.87 1531.6 Q1752.87 1538.71 1754.68 1542.27 Q1756.51 1545.82 1760.12 1545.82 Q1763.75 1545.82 1765.56 1542.27 Q1767.39 1538.71 1767.39 1531.6 Q1767.39 1524.47 1765.56 1520.93 Q1763.75 1517.37 1760.12 1517.37 M1760.12 1513.66 Q1765.93 1513.66 1768.98 1518.27 Q1772.06 1522.85 1772.06 1531.6 Q1772.06 1540.33 1768.98 1544.94 Q1765.93 1549.52 1760.12 1549.52 Q1754.31 1549.52 1751.23 1544.94 Q1748.17 1540.33 1748.17 1531.6 Q1748.17 1522.85 1751.23 1518.27 Q1754.31 1513.66 1760.12 1513.66 Z" fill="#000000" fill-rule="evenodd" fill-opacity="1" /><polyline clip-path="url(#clip482)" style="stroke:#000000; stroke-linecap:butt; stroke-linejoin:round; stroke-width:2; stroke-opacity:0.1; fill:none" points="
  156.598,1445.72 1776.85,1445.72 
  "/>
<polyline clip-path="url(#clip482)" style="stroke:#000000; stroke-linecap:butt; stroke-linejoin:round; stroke-width:2; stroke-opacity:0.1; fill:none" points="
  156.598,1224.06 1776.85,1224.06 
  "/>
<polyline clip-path="url(#clip482)" style="stroke:#000000; stroke-linecap:butt; stroke-linejoin:round; stroke-width:2; stroke-opacity:0.1; fill:none" points="
  156.598,1002.4 1776.85,1002.4 
  "/>
<polyline clip-path="url(#clip482)" style="stroke:#000000; stroke-linecap:butt; stroke-linejoin:round; stroke-width:2; stroke-opacity:0.1; fill:none" points="
  156.598,780.736 1776.85,780.736 
  "/>
<polyline clip-path="url(#clip482)" style="stroke:#000000; stroke-linecap:butt; stroke-linejoin:round; stroke-width:2; stroke-opacity:0.1; fill:none" points="
  156.598,559.075 1776.85,559.075 
  "/>
<polyline clip-path="url(#clip482)" style="stroke:#000000; stroke-linecap:butt; stroke-linejoin:round; stroke-width:2; stroke-opacity:0.1; fill:none" points="
  156.598,337.414 1776.85,337.414 
  "/>
<polyline clip-path="url(#clip482)" style="stroke:#000000; stroke-linecap:butt; stroke-linejoin:round; stroke-width:2; stroke-opacity:0.1; fill:none" points="
  156.598,115.753 1776.85,115.753 
  "/>
<polyline clip-path="url(#clip480)" style="stroke:#000000; stroke-linecap:butt; stroke-linejoin:round; stroke-width:4; stroke-opacity:1; fill:none" points="
  156.598,1486.45 156.598,47.2441 
  "/>
<polyline clip-path="url(#clip480)" style="stroke:#000000; stroke-linecap:butt; stroke-linejoin:round; stroke-width:4; stroke-opacity:1; fill:none" points="
  156.598,1445.72 170.54,1445.72 
  "/>
<polyline clip-path="url(#clip480)" style="stroke:#000000; stroke-linecap:butt; stroke-linejoin:round; stroke-width:4; stroke-opacity:1; fill:none" points="
  156.598,1224.06 170.54,1224.06 
  "/>
<polyline clip-path="url(#clip480)" style="stroke:#000000; stroke-linecap:butt; stroke-linejoin:round; stroke-width:4; stroke-opacity:1; fill:none" points="
  156.598,1002.4 170.54,1002.4 
  "/>
<polyline clip-path="url(#clip480)" style="stroke:#000000; stroke-linecap:butt; stroke-linejoin:round; stroke-width:4; stroke-opacity:1; fill:none" points="
  156.598,780.736 170.54,780.736 
  "/>
<polyline clip-path="url(#clip480)" style="stroke:#000000; stroke-linecap:butt; stroke-linejoin:round; stroke-width:4; stroke-opacity:1; fill:none" points="
  156.598,559.075 170.54,559.075 
  "/>
<polyline clip-path="url(#clip480)" style="stroke:#000000; stroke-linecap:butt; stroke-linejoin:round; stroke-width:4; stroke-opacity:1; fill:none" points="
  156.598,337.414 170.54,337.414 
  "/>
<polyline clip-path="url(#clip480)" style="stroke:#000000; stroke-linecap:butt; stroke-linejoin:round; stroke-width:4; stroke-opacity:1; fill:none" points="
  156.598,115.753 170.54,115.753 
  "/>
<path clip-path="url(#clip480)" d="M63.4226 1431.52 Q59.8115 1431.52 57.9828 1435.08 Q56.1773 1438.62 56.1773 1445.75 Q56.1773 1452.86 57.9828 1456.42 Q59.8115 1459.97 63.4226 1459.97 Q67.0569 1459.97 68.8624 1456.42 Q70.6911 1452.86 70.6911 1445.75 Q70.6911 1438.62 68.8624 1435.08 Q67.0569 1431.52 63.4226 1431.52 M63.4226 1427.81 Q69.2328 1427.81 72.2883 1432.42 Q75.367 1437 75.367 1445.75 Q75.367 1454.48 72.2883 1459.09 Q69.2328 1463.67 63.4226 1463.67 Q57.6125 1463.67 54.5338 1459.09 Q51.4782 1454.48 51.4782 1445.75 Q51.4782 1437 54.5338 1432.42 Q57.6125 1427.81 63.4226 1427.81 Z" fill="#000000" fill-rule="evenodd" fill-opacity="1" /><path clip-path="url(#clip480)" d="M83.5845 1457.12 L88.4688 1457.12 L88.4688 1463 L83.5845 1463 L83.5845 1457.12 Z" fill="#000000" fill-rule="evenodd" fill-opacity="1" /><path clip-path="url(#clip480)" d="M108.654 1431.52 Q105.043 1431.52 103.214 1435.08 Q101.409 1438.62 101.409 1445.75 Q101.409 1452.86 103.214 1456.42 Q105.043 1459.97 108.654 1459.97 Q112.288 1459.97 114.094 1456.42 Q115.922 1452.86 115.922 1445.75 Q115.922 1438.62 114.094 1435.08 Q112.288 1431.52 108.654 1431.52 M108.654 1427.81 Q114.464 1427.81 117.52 1432.42 Q120.598 1437 120.598 1445.75 Q120.598 1454.48 117.52 1459.09 Q114.464 1463.67 108.654 1463.67 Q102.844 1463.67 99.765 1459.09 Q96.7095 1454.48 96.7095 1445.75 Q96.7095 1437 99.765 1432.42 Q102.844 1427.81 108.654 1427.81 Z" fill="#000000" fill-rule="evenodd" fill-opacity="1" /><path clip-path="url(#clip480)" d="M65.0198 1209.86 Q61.4087 1209.86 59.58 1213.42 Q57.7745 1216.96 57.7745 1224.09 Q57.7745 1231.2 59.58 1234.76 Q61.4087 1238.31 65.0198 1238.31 Q68.6541 1238.31 70.4596 1234.76 Q72.2883 1231.2 72.2883 1224.09 Q72.2883 1216.96 70.4596 1213.42 Q68.6541 1209.86 65.0198 1209.86 M65.0198 1206.15 Q70.83 1206.15 73.8855 1210.76 Q76.9642 1215.34 76.9642 1224.09 Q76.9642 1232.82 73.8855 1237.43 Q70.83 1242.01 65.0198 1242.01 Q59.2097 1242.01 56.131 1237.43 Q53.0754 1232.82 53.0754 1224.09 Q53.0754 1215.34 56.131 1210.76 Q59.2097 1206.15 65.0198 1206.15 Z" fill="#000000" fill-rule="evenodd" fill-opacity="1" /><path clip-path="url(#clip480)" d="M85.1818 1235.46 L90.066 1235.46 L90.066 1241.34 L85.1818 1241.34 L85.1818 1235.46 Z" fill="#000000" fill-rule="evenodd" fill-opacity="1" /><path clip-path="url(#clip480)" d="M104.279 1237.4 L120.598 1237.4 L120.598 1241.34 L98.6539 1241.34 L98.6539 1237.4 Q101.316 1234.65 105.899 1230.02 Q110.506 1225.37 111.686 1224.02 Q113.932 1221.5 114.811 1219.76 Q115.714 1218 115.714 1216.31 Q115.714 1213.56 113.77 1211.82 Q111.848 1210.09 108.746 1210.09 Q106.547 1210.09 104.094 1210.85 Q101.663 1211.62 98.8854 1213.17 L98.8854 1208.44 Q101.709 1207.31 104.163 1206.73 Q106.617 1206.15 108.654 1206.15 Q114.024 1206.15 117.219 1208.84 Q120.413 1211.52 120.413 1216.01 Q120.413 1218.14 119.603 1220.06 Q118.816 1221.96 116.709 1224.56 Q116.131 1225.23 113.029 1228.44 Q109.927 1231.64 104.279 1237.4 Z" fill="#000000" fill-rule="evenodd" fill-opacity="1" /><path clip-path="url(#clip480)" d="M62.9365 988.196 Q59.3254 988.196 57.4967 991.761 Q55.6912 995.302 55.6912 1002.43 Q55.6912 1009.54 57.4967 1013.1 Q59.3254 1016.64 62.9365 1016.64 Q66.5707 1016.64 68.3763 1013.1 Q70.205 1009.54 70.205 1002.43 Q70.205 995.302 68.3763 991.761 Q66.5707 988.196 62.9365 988.196 M62.9365 984.492 Q68.7467 984.492 71.8022 989.098 Q74.8809 993.682 74.8809 1002.43 Q74.8809 1011.16 71.8022 1015.77 Q68.7467 1020.35 62.9365 1020.35 Q57.1264 1020.35 54.0477 1015.77 Q50.9921 1011.16 50.9921 1002.43 Q50.9921 993.682 54.0477 989.098 Q57.1264 984.492 62.9365 984.492 Z" fill="#000000" fill-rule="evenodd" fill-opacity="1" /><path clip-path="url(#clip480)" d="M83.0984 1013.8 L87.9827 1013.8 L87.9827 1019.68 L83.0984 1019.68 L83.0984 1013.8 Z" fill="#000000" fill-rule="evenodd" fill-opacity="1" /><path clip-path="url(#clip480)" d="M111.015 989.191 L99.2095 1007.64 L111.015 1007.64 L111.015 989.191 M109.788 985.117 L115.668 985.117 L115.668 1007.64 L120.598 1007.64 L120.598 1011.53 L115.668 1011.53 L115.668 1019.68 L111.015 1019.68 L111.015 1011.53 L95.4132 1011.53 L95.4132 1007.02 L109.788 985.117 Z" fill="#000000" fill-rule="evenodd" fill-opacity="1" /><path clip-path="url(#clip480)" d="M63.2606 766.535 Q59.6495 766.535 57.8208 770.1 Q56.0152 773.641 56.0152 780.771 Q56.0152 787.877 57.8208 791.442 Q59.6495 794.984 63.2606 794.984 Q66.8948 794.984 68.7004 791.442 Q70.5291 787.877 70.5291 780.771 Q70.5291 773.641 68.7004 770.1 Q66.8948 766.535 63.2606 766.535 M63.2606 762.831 Q69.0707 762.831 72.1263 767.438 Q75.205 772.021 75.205 780.771 Q75.205 789.498 72.1263 794.104 Q69.0707 798.687 63.2606 798.687 Q57.4504 798.687 54.3717 794.104 Q51.3162 789.498 51.3162 780.771 Q51.3162 772.021 54.3717 767.438 Q57.4504 762.831 63.2606 762.831 Z" fill="#000000" fill-rule="evenodd" fill-opacity="1" /><path clip-path="url(#clip480)" d="M83.4225 792.136 L88.3067 792.136 L88.3067 798.016 L83.4225 798.016 L83.4225 792.136 Z" fill="#000000" fill-rule="evenodd" fill-opacity="1" /><path clip-path="url(#clip480)" d="M109.071 778.873 Q105.922 778.873 104.071 781.025 Q102.242 783.178 102.242 786.928 Q102.242 790.655 104.071 792.831 Q105.922 794.984 109.071 794.984 Q112.219 794.984 114.047 792.831 Q115.899 790.655 115.899 786.928 Q115.899 783.178 114.047 781.025 Q112.219 778.873 109.071 778.873 M118.353 764.22 L118.353 768.479 Q116.594 767.646 114.788 767.206 Q113.006 766.766 111.246 766.766 Q106.617 766.766 104.163 769.891 Q101.733 773.016 101.385 779.336 Q102.751 777.322 104.811 776.257 Q106.871 775.169 109.348 775.169 Q114.557 775.169 117.566 778.34 Q120.598 781.488 120.598 786.928 Q120.598 792.252 117.45 795.47 Q114.302 798.687 109.071 798.687 Q103.075 798.687 99.9039 794.104 Q96.7326 789.498 96.7326 780.771 Q96.7326 772.576 100.621 767.715 Q104.51 762.831 111.061 762.831 Q112.82 762.831 114.603 763.178 Q116.408 763.526 118.353 764.22 Z" fill="#000000" fill-rule="evenodd" fill-opacity="1" /><path clip-path="url(#clip480)" d="M63.5152 544.874 Q59.9041 544.874 58.0754 548.439 Q56.2699 551.98 56.2699 559.11 Q56.2699 566.216 58.0754 569.781 Q59.9041 573.323 63.5152 573.323 Q67.1494 573.323 68.955 569.781 Q70.7837 566.216 70.7837 559.11 Q70.7837 551.98 68.955 548.439 Q67.1494 544.874 63.5152 544.874 M63.5152 541.17 Q69.3254 541.17 72.3809 545.777 Q75.4596 550.36 75.4596 559.11 Q75.4596 567.837 72.3809 572.443 Q69.3254 577.026 63.5152 577.026 Q57.7051 577.026 54.6264 572.443 Q51.5708 567.837 51.5708 559.11 Q51.5708 550.36 54.6264 545.777 Q57.7051 541.17 63.5152 541.17 Z" fill="#000000" fill-rule="evenodd" fill-opacity="1" /><path clip-path="url(#clip480)" d="M83.6771 570.476 L88.5614 570.476 L88.5614 576.355 L83.6771 576.355 L83.6771 570.476 Z" fill="#000000" fill-rule="evenodd" fill-opacity="1" /><path clip-path="url(#clip480)" d="M108.746 559.943 Q105.413 559.943 103.492 561.726 Q101.594 563.508 101.594 566.633 Q101.594 569.758 103.492 571.54 Q105.413 573.323 108.746 573.323 Q112.08 573.323 114.001 571.54 Q115.922 569.735 115.922 566.633 Q115.922 563.508 114.001 561.726 Q112.103 559.943 108.746 559.943 M104.071 557.952 Q101.061 557.212 99.3715 555.152 Q97.7048 553.091 97.7048 550.128 Q97.7048 545.985 100.645 543.578 Q103.608 541.17 108.746 541.17 Q113.908 541.17 116.848 543.578 Q119.788 545.985 119.788 550.128 Q119.788 553.091 118.098 555.152 Q116.432 557.212 113.445 557.952 Q116.825 558.74 118.7 561.031 Q120.598 563.323 120.598 566.633 Q120.598 571.656 117.52 574.341 Q114.464 577.026 108.746 577.026 Q103.029 577.026 99.9502 574.341 Q96.8947 571.656 96.8947 566.633 Q96.8947 563.323 98.7928 561.031 Q100.691 558.74 104.071 557.952 M102.358 550.568 Q102.358 553.253 104.024 554.758 Q105.714 556.263 108.746 556.263 Q111.756 556.263 113.445 554.758 Q115.158 553.253 115.158 550.568 Q115.158 547.883 113.445 546.378 Q111.756 544.874 108.746 544.874 Q105.714 544.874 104.024 546.378 Q102.358 547.883 102.358 550.568 Z" fill="#000000" fill-rule="evenodd" fill-opacity="1" /><path clip-path="url(#clip480)" d="M54.2328 350.759 L61.8717 350.759 L61.8717 324.393 L53.5616 326.06 L53.5616 321.801 L61.8254 320.134 L66.5013 320.134 L66.5013 350.759 L74.1402 350.759 L74.1402 354.694 L54.2328 354.694 L54.2328 350.759 Z" fill="#000000" fill-rule="evenodd" fill-opacity="1" /><path clip-path="url(#clip480)" d="M83.5845 348.815 L88.4688 348.815 L88.4688 354.694 L83.5845 354.694 L83.5845 348.815 Z" fill="#000000" fill-rule="evenodd" fill-opacity="1" /><path clip-path="url(#clip480)" d="M108.654 323.213 Q105.043 323.213 103.214 326.778 Q101.409 330.319 101.409 337.449 Q101.409 344.555 103.214 348.12 Q105.043 351.662 108.654 351.662 Q112.288 351.662 114.094 348.12 Q115.922 344.555 115.922 337.449 Q115.922 330.319 114.094 326.778 Q112.288 323.213 108.654 323.213 M108.654 319.509 Q114.464 319.509 117.52 324.116 Q120.598 328.699 120.598 337.449 Q120.598 346.176 117.52 350.782 Q114.464 355.366 108.654 355.366 Q102.844 355.366 99.765 350.782 Q96.7095 346.176 96.7095 337.449 Q96.7095 328.699 99.765 324.116 Q102.844 319.509 108.654 319.509 Z" fill="#000000" fill-rule="evenodd" fill-opacity="1" /><path clip-path="url(#clip480)" d="M55.8301 129.098 L63.4689 129.098 L63.4689 102.733 L55.1588 104.399 L55.1588 100.14 L63.4226 98.4733 L68.0985 98.4733 L68.0985 129.098 L75.7374 129.098 L75.7374 133.033 L55.8301 133.033 L55.8301 129.098 Z" fill="#000000" fill-rule="evenodd" fill-opacity="1" /><path clip-path="url(#clip480)" d="M85.1818 127.154 L90.066 127.154 L90.066 133.033 L85.1818 133.033 L85.1818 127.154 Z" fill="#000000" fill-rule="evenodd" fill-opacity="1" /><path clip-path="url(#clip480)" d="M104.279 129.098 L120.598 129.098 L120.598 133.033 L98.6539 133.033 L98.6539 129.098 Q101.316 126.343 105.899 121.714 Q110.506 117.061 111.686 115.719 Q113.932 113.195 114.811 111.459 Q115.714 109.7 115.714 108.01 Q115.714 105.256 113.77 103.52 Q111.848 101.783 108.746 101.783 Q106.547 101.783 104.094 102.547 Q101.663 103.311 98.8854 104.862 L98.8854 100.14 Q101.709 99.0057 104.163 98.427 Q106.617 97.8483 108.654 97.8483 Q114.024 97.8483 117.219 100.533 Q120.413 103.219 120.413 107.709 Q120.413 109.839 119.603 111.76 Q118.816 113.658 116.709 116.251 Q116.131 116.922 113.029 120.14 Q109.927 123.334 104.279 129.098 Z" fill="#000000" fill-rule="evenodd" fill-opacity="1" /><polyline clip-path="url(#clip482)" style="stroke:#009af9; stroke-linecap:butt; stroke-linejoin:round; stroke-width:4; stroke-opacity:1; fill:none" points="
  202.455,1445.71 217.894,1445.7 233.334,1445.71 248.774,1445.71 264.214,1445.39 279.654,1445.45 295.094,1445.31 310.533,1445.13 325.973,1445.12 341.413,1444.84 
  356.853,1444.73 372.293,1444.9 387.732,1444.78 403.172,1444.64 418.612,1444.47 434.052,1444.45 449.492,1444.51 464.932,1444.52 480.371,1444.39 495.811,1444.38 
  511.251,1444.2 526.691,1444.18 542.131,1443.95 557.571,1443.91 573.01,1443.77 588.45,1443.66 603.89,1443.57 619.33,1443.51 634.77,1443.43 650.21,1443.35 
  665.649,1443.13 681.089,1443.01 696.529,1442.86 711.969,1443.18 727.409,1443.02 742.849,1442.99 758.288,1442.68 773.728,1442.73 789.168,1442.47 804.608,1442.58 
  820.048,1442.32 835.488,1426.75 850.927,1441.78 866.367,1442.24 881.807,1442.29 897.247,1442.26 912.687,1442.1 928.127,1441.54 943.566,1441.76 959.006,1441.58 
  974.446,1441.34 989.886,1441.23 1005.33,1440.82 1020.77,1441.07 1036.21,1440.92 1051.65,1440.97 1067.08,1440.63 1082.52,1440.86 1097.96,1440.93 1113.4,1440.53 
  1128.84,1440.31 1144.28,1440.71 1159.72,1440.44 1175.16,1440.8 1190.6,1440.23 1206.04,1439.69 1221.48,1440.06 1236.92,1439.54 1252.36,1439.9 1267.8,1440.11 
  1283.24,1439.94 1298.68,1439.64 1314.12,1439.52 1329.56,1438.98 1345,1439.52 1360.44,1439.91 1375.88,1432.43 1391.32,1439.17 1406.76,1439.51 1422.2,1439.04 
  1437.64,1439.59 1453.08,1438.93 1468.52,1438.36 1483.96,1438.49 1499.4,1439.23 1514.84,1438.99 1530.28,1438.58 1545.72,1438.36 1561.16,1438.73 1576.6,1438.18 
  1592.04,1437.97 1607.48,1438.44 1622.92,1438.05 1638.36,1437.83 1653.8,1427.08 1669.24,1437.13 1684.68,1437.89 1700.12,1438.04 1715.56,1437.54 1731,1438.16 
  
  "/>
<polyline clip-path="url(#clip482)" style="stroke:#e26f46; stroke-linecap:butt; stroke-linejoin:round; stroke-width:4; stroke-opacity:1; fill:none" points="
  202.455,1445.72 217.894,1445.71 233.334,1445.71 248.774,1445.67 264.214,1445.66 279.654,1445.63 295.094,1445.58 310.533,1445.29 325.973,1445.44 341.413,1444.97 
  356.853,1431.47 372.293,1444.16 387.732,1443.8 403.172,1442.97 418.612,1442.72 434.052,1442.16 449.492,1440.94 464.932,1429.48 480.371,1439.47 495.811,1437.76 
  511.251,1436.83 526.691,1425.71 542.131,1433.64 557.571,1427.05 573.01,1424.64 588.45,1428.79 603.89,1420.03 619.33,1418.21 634.77,1415.63 650.21,1413.23 
  665.649,1410.41 681.089,1402.42 696.529,1406.09 711.969,1395.2 727.409,1398.11 742.849,1389.83 758.288,1383.59 773.728,1368.72 789.168,1365.26 804.608,1354.55 
  820.048,1332.54 835.488,1329.67 850.927,1344.35 866.367,1347.47 881.807,1327.2 897.247,1324.88 912.687,1317.63 928.127,1286.44 943.566,1282.48 959.006,1257.55 
  974.446,1329.26 989.886,1307.23 1005.33,1338.39 1020.77,1316.91 1036.21,1319.56 1051.65,1316.76 1067.08,1304.72 1082.52,1296.81 1097.96,1290.15 1113.4,1287.76 
  1128.84,1251.75 1144.28,1254.59 1159.72,1245.66 1175.16,1244.33 1190.6,1234.8 1206.04,1216.62 1221.48,1203.31 1236.92,1218.7 1252.36,1158.94 1267.8,1186.39 
  1283.24,1150.45 1298.68,1176.73 1314.12,1116.17 1329.56,1126.86 1345,1101.68 1360.44,1123.51 1375.88,1041.3 1391.32,1061.52 1406.76,1013.23 1422.2,1018.86 
  1437.64,948.245 1453.08,952.083 1468.52,911.033 1483.96,987.339 1499.4,889.11 1514.84,891.421 1530.28,822.554 1545.72,854.61 1561.16,786.22 1576.6,829.797 
  1592.04,773.111 1607.48,820.336 1622.92,673.496 1638.36,621.449 1653.8,687.652 1669.24,696.943 1684.68,571.859 1700.12,658.363 1715.56,533.111 1731,671.091 
  
  "/>
<polyline clip-path="url(#clip482)" style="stroke:#3da44d; stroke-linecap:butt; stroke-linejoin:round; stroke-width:4; stroke-opacity:1; fill:none" points="
  202.455,1445.72 217.894,1445.7 233.334,1445.69 248.774,1445.64 264.214,1445.61 279.654,1445.53 295.094,1445.42 310.533,1445.13 325.973,1445.06 341.413,1444.22 
  356.853,1443.66 372.293,1442.84 387.732,1441.47 403.172,1441.29 418.612,1440.22 434.052,1439.59 449.492,1438.02 464.932,1424.69 480.371,1435 495.811,1432.2 
  511.251,1430.37 526.691,1417.48 542.131,1424.93 557.571,1411.49 573.01,1418.67 588.45,1409.75 603.89,1402.99 619.33,1401.79 634.77,1403.72 650.21,1396.22 
  665.649,1380.43 681.089,1384.08 696.529,1379.66 711.969,1365.01 727.409,1364.78 742.849,1352.12 758.288,1337.7 773.728,1332.35 789.168,1327.57 804.608,1319.94 
  820.048,1301.6 835.488,1294.09 850.927,1287.57 866.367,1281.87 881.807,1249.87 897.247,1233.99 912.687,1217 928.127,1215.26 943.566,1219.02 959.006,1194.66 
  974.446,1253.95 989.886,1220.74 1005.33,1248.84 1020.77,1230.28 1036.21,1195.93 1051.65,1210.96 1067.08,1190.87 1082.52,1185.16 1097.96,1176.62 1113.4,1183.98 
  1128.84,1141.61 1144.28,1117.37 1159.72,1119.95 1175.16,1093.73 1190.6,1069.58 1206.04,1068.59 1221.48,1051.37 1236.92,1029.66 1252.36,1015.67 1267.8,1023.5 
  1283.24,1000.26 1298.68,1007.12 1314.12,960.469 1329.56,950.958 1345,935.192 1360.44,948.568 1375.88,882.784 1391.32,881.662 1406.76,849.932 1422.2,840.591 
  1437.64,617.892 1453.08,789.708 1468.52,709.847 1483.96,768.916 1499.4,666.181 1514.84,647.584 1530.28,600.967 1545.72,667.092 1561.16,572.505 1576.6,568.205 
  1592.04,429.765 1607.48,534.644 1622.92,336.945 1638.36,372.352 1653.8,306.332 1669.24,322.202 1684.68,87.9763 1700.12,188.684 1715.56,115.003 1731,255.151 
  
  "/>
<polyline clip-path="url(#clip482)" style="stroke:#c271d2; stroke-linecap:butt; stroke-linejoin:round; stroke-width:4; stroke-opacity:1; fill:none" points="
  202.455,1445.71 217.894,1445.69 233.334,1445.69 248.774,1445.66 264.214,1445.55 279.654,1445.49 295.094,1445.4 310.533,1445.06 325.973,1444.96 341.413,1444.33 
  356.853,1443.95 372.293,1443.46 387.732,1442.62 403.172,1442.06 418.612,1441.16 434.052,1440.42 449.492,1430.65 464.932,1438.03 480.371,1435.71 495.811,1434.11 
  511.251,1423.7 526.691,1430.76 542.131,1426.97 557.571,1418.11 573.01,1416.3 588.45,1421.29 603.89,1411.11 619.33,1407.49 634.77,1404.51 650.21,1407.93 
  665.649,1392.06 681.089,1393.41 696.529,1389.09 711.969,1383.8 727.409,1372.87 742.849,1369.33 758.288,1370.91 773.728,1359.95 789.168,1347.17 804.608,1347.91 
  820.048,1336.07 835.488,1327.03 850.927,1319.87 866.367,1309.99 881.807,1296.48 897.247,1282.33 912.687,1279.45 928.127,1268.59 943.566,1263.75 959.006,1251.17 
  974.446,1305.01 989.886,1269.1 1005.33,1291.41 1020.77,1284.76 1036.21,1276.73 1051.65,1279.37 1067.08,1255.88 1082.52,1249.26 1097.96,1247.29 1113.4,1248.31 
  1128.84,1217.62 1144.28,1219.63 1159.72,1195.79 1175.16,1180.53 1190.6,1169.13 1206.04,1165.03 1221.48,1129.26 1236.92,1148.87 1252.36,1123.42 1267.8,1107.71 
  1283.24,1102.55 1298.68,1097.45 1314.12,1054.68 1329.56,1057.63 1345,1046.17 1360.44,1051.09 1375.88,994.778 1391.32,982.219 1406.76,942.861 1422.2,936.669 
  1437.64,876.632 1453.08,919.175 1468.52,859.632 1483.96,908.313 1499.4,815.787 1514.84,833.186 1530.28,774.361 1545.72,804.629 1561.16,723.985 1576.6,728.954 
  1592.04,639.087 1607.48,745.646 1622.92,616.245 1638.36,637.349 1653.8,591.246 1669.24,574.05 1684.68,519.76 1700.12,497.503 1715.56,389.115 1731,505.056 
  
  "/>
<path clip-path="url(#clip480)" d="
M1850.06 354.418 L2352.76 354.418 L2352.76 95.2176 L1850.06 95.2176  Z
  " fill="#ffffff" fill-rule="evenodd" fill-opacity="1"/>
<polyline clip-path="url(#clip480)" style="stroke:#000000; stroke-linecap:butt; stroke-linejoin:round; stroke-width:4; stroke-opacity:1; fill:none" points="
  1850.06,354.418 2352.76,354.418 2352.76,95.2176 1850.06,95.2176 1850.06,354.418 
  "/>
<polyline clip-path="url(#clip480)" style="stroke:#009af9; stroke-linecap:butt; stroke-linejoin:round; stroke-width:4; stroke-opacity:1; fill:none" points="
  1874.46,147.058 2020.87,147.058 
  "/>
<path clip-path="url(#clip480)" d="M2045.27 128.319 L2049.53 128.319 L2049.53 164.338 L2045.27 164.338 L2045.27 128.319 Z" fill="#000000" fill-rule="evenodd" fill-opacity="1" /><path clip-path="url(#clip480)" d="M2058.44 138.412 L2062.7 138.412 L2062.7 164.338 L2058.44 164.338 L2058.44 138.412 M2058.44 128.319 L2062.7 128.319 L2062.7 133.713 L2058.44 133.713 L2058.44 128.319 Z" fill="#000000" fill-rule="evenodd" fill-opacity="1" /><path clip-path="url(#clip480)" d="M2090.23 151.398 Q2090.23 146.699 2088.28 144.037 Q2086.36 141.352 2082.98 141.352 Q2079.6 141.352 2077.66 144.037 Q2075.74 146.699 2075.74 151.398 Q2075.74 156.097 2077.66 158.782 Q2079.6 161.444 2082.98 161.444 Q2086.36 161.444 2088.28 158.782 Q2090.23 156.097 2090.23 151.398 M2075.74 142.347 Q2077.08 140.032 2079.12 138.921 Q2081.18 137.787 2084.02 137.787 Q2088.75 137.787 2091.69 141.537 Q2094.65 145.287 2094.65 151.398 Q2094.65 157.509 2091.69 161.259 Q2088.75 165.009 2084.02 165.009 Q2081.18 165.009 2079.12 163.898 Q2077.08 162.763 2075.74 160.449 L2075.74 164.338 L2071.45 164.338 L2071.45 128.319 L2075.74 128.319 L2075.74 142.347 Z" fill="#000000" fill-rule="evenodd" fill-opacity="1" /><path clip-path="url(#clip480)" d="M2133.31 139.176 L2133.31 143.203 Q2131.5 142.277 2129.56 141.815 Q2127.61 141.352 2125.53 141.352 Q2122.36 141.352 2120.76 142.324 Q2119.18 143.296 2119.18 145.24 Q2119.18 146.722 2120.32 147.578 Q2121.45 148.412 2124.88 149.176 L2126.34 149.5 Q2130.87 150.472 2132.77 152.254 Q2134.69 154.014 2134.69 157.185 Q2134.69 160.796 2131.82 162.902 Q2128.98 165.009 2123.98 165.009 Q2121.89 165.009 2119.62 164.592 Q2117.38 164.199 2114.88 163.388 L2114.88 158.99 Q2117.24 160.217 2119.53 160.842 Q2121.82 161.444 2124.07 161.444 Q2127.08 161.444 2128.7 160.426 Q2130.32 159.384 2130.32 157.509 Q2130.32 155.773 2129.14 154.847 Q2127.98 153.921 2124.02 153.064 L2122.54 152.717 Q2118.58 151.884 2116.82 150.171 Q2115.06 148.435 2115.06 145.426 Q2115.06 141.768 2117.66 139.778 Q2120.25 137.787 2125.02 137.787 Q2127.38 137.787 2129.46 138.134 Q2131.55 138.481 2133.31 139.176 Z" fill="#000000" fill-rule="evenodd" fill-opacity="1" /><path clip-path="url(#clip480)" d="M2151.52 141.398 Q2148.1 141.398 2146.11 144.083 Q2144.12 146.745 2144.12 151.398 Q2144.12 156.051 2146.08 158.736 Q2148.07 161.398 2151.52 161.398 Q2154.93 161.398 2156.92 158.713 Q2158.91 156.027 2158.91 151.398 Q2158.91 146.791 2156.92 144.106 Q2154.93 141.398 2151.52 141.398 M2151.52 137.787 Q2157.08 137.787 2160.25 141.398 Q2163.42 145.009 2163.42 151.398 Q2163.42 157.764 2160.25 161.398 Q2157.08 165.009 2151.52 165.009 Q2145.94 165.009 2142.77 161.398 Q2139.62 157.764 2139.62 151.398 Q2139.62 145.009 2142.77 141.398 Q2145.94 137.787 2151.52 137.787 Z" fill="#000000" fill-rule="evenodd" fill-opacity="1" /><path clip-path="url(#clip480)" d="M2170.48 128.319 L2174.74 128.319 L2174.74 164.338 L2170.48 164.338 L2170.48 128.319 Z" fill="#000000" fill-rule="evenodd" fill-opacity="1" /><path clip-path="url(#clip480)" d="M2180.6 138.412 L2185.11 138.412 L2193.21 160.171 L2201.31 138.412 L2205.83 138.412 L2196.11 164.338 L2190.32 164.338 L2180.6 138.412 Z" fill="#000000" fill-rule="evenodd" fill-opacity="1" /><path clip-path="url(#clip480)" d="M2233.88 150.31 L2233.88 152.393 L2214.3 152.393 Q2214.58 156.791 2216.94 159.106 Q2219.32 161.398 2223.56 161.398 Q2226.01 161.398 2228.3 160.796 Q2230.62 160.194 2232.89 158.99 L2232.89 163.018 Q2230.6 163.99 2228.19 164.5 Q2225.78 165.009 2223.3 165.009 Q2217.1 165.009 2213.47 161.398 Q2209.86 157.787 2209.86 151.629 Q2209.86 145.264 2213.28 141.537 Q2216.73 137.787 2222.56 137.787 Q2227.8 137.787 2230.83 141.166 Q2233.88 144.523 2233.88 150.31 M2229.62 149.06 Q2229.58 145.565 2227.66 143.481 Q2225.76 141.398 2222.61 141.398 Q2219.05 141.398 2216.89 143.412 Q2214.76 145.426 2214.44 149.083 L2229.62 149.06 Z" fill="#000000" fill-rule="evenodd" fill-opacity="1" /><path clip-path="url(#clip480)" d="M2255.9 142.393 Q2255.18 141.977 2254.32 141.791 Q2253.49 141.583 2252.47 141.583 Q2248.86 141.583 2246.92 143.944 Q2244.99 146.282 2244.99 150.68 L2244.99 164.338 L2240.71 164.338 L2240.71 138.412 L2244.99 138.412 L2244.99 142.44 Q2246.34 140.078 2248.49 138.944 Q2250.64 137.787 2253.72 137.787 Q2254.16 137.787 2254.69 137.856 Q2255.23 137.903 2255.87 138.018 L2255.9 142.393 Z" fill="#000000" fill-rule="evenodd" fill-opacity="1" /><polyline clip-path="url(#clip480)" style="stroke:#e26f46; stroke-linecap:butt; stroke-linejoin:round; stroke-width:4; stroke-opacity:1; fill:none" points="
  1874.46,198.898 2020.87,198.898 
  "/>
<path clip-path="url(#clip480)" d="M2065.62 195.229 Q2067.22 192.358 2069.44 190.993 Q2071.66 189.627 2074.67 189.627 Q2078.72 189.627 2080.92 192.474 Q2083.12 195.298 2083.12 200.529 L2083.12 216.178 L2078.84 216.178 L2078.84 200.668 Q2078.84 196.942 2077.52 195.136 Q2076.2 193.33 2073.49 193.33 Q2070.18 193.33 2068.26 195.53 Q2066.34 197.729 2066.34 201.525 L2066.34 216.178 L2062.06 216.178 L2062.06 200.668 Q2062.06 196.918 2060.74 195.136 Q2059.42 193.33 2056.66 193.33 Q2053.4 193.33 2051.48 195.553 Q2049.56 197.752 2049.56 201.525 L2049.56 216.178 L2045.27 216.178 L2045.27 190.252 L2049.56 190.252 L2049.56 194.28 Q2051.01 191.895 2053.05 190.761 Q2055.09 189.627 2057.89 189.627 Q2060.71 189.627 2062.68 191.062 Q2064.67 192.497 2065.62 195.229 Z" fill="#000000" fill-rule="evenodd" fill-opacity="1" /><path clip-path="url(#clip480)" d="M2102.4 218.585 Q2100.6 223.215 2098.88 224.627 Q2097.17 226.039 2094.3 226.039 L2090.9 226.039 L2090.9 222.474 L2093.4 222.474 Q2095.16 222.474 2096.13 221.64 Q2097.1 220.807 2098.28 217.705 L2099.05 215.761 L2088.56 190.252 L2093.07 190.252 L2101.18 210.529 L2109.28 190.252 L2113.79 190.252 L2102.4 218.585 Z" fill="#000000" fill-rule="evenodd" fill-opacity="1" /><path clip-path="url(#clip480)" d="M2151.8 202.914 Q2151.8 198.284 2149.88 195.738 Q2147.98 193.192 2144.53 193.192 Q2141.11 193.192 2139.18 195.738 Q2137.29 198.284 2137.29 202.914 Q2137.29 207.52 2139.18 210.066 Q2141.11 212.613 2144.53 212.613 Q2147.98 212.613 2149.88 210.066 Q2151.8 207.52 2151.8 202.914 M2156.06 212.96 Q2156.06 219.58 2153.12 222.798 Q2150.18 226.039 2144.12 226.039 Q2141.87 226.039 2139.88 225.691 Q2137.89 225.367 2136.01 224.673 L2136.01 220.529 Q2137.89 221.548 2139.72 222.034 Q2141.55 222.52 2143.44 222.52 Q2147.63 222.52 2149.72 220.321 Q2151.8 218.145 2151.8 213.724 L2151.8 211.617 Q2150.48 213.909 2148.42 215.043 Q2146.36 216.178 2143.49 216.178 Q2138.72 216.178 2135.81 212.543 Q2132.89 208.909 2132.89 202.914 Q2132.89 196.895 2135.81 193.261 Q2138.72 189.627 2143.49 189.627 Q2146.36 189.627 2148.42 190.761 Q2150.48 191.895 2151.8 194.187 L2151.8 190.252 L2156.06 190.252 L2156.06 212.96 Z" fill="#000000" fill-rule="evenodd" fill-opacity="1" /><path clip-path="url(#clip480)" d="M2181.36 191.016 L2181.36 195.043 Q2179.55 194.117 2177.61 193.655 Q2175.67 193.192 2173.58 193.192 Q2170.41 193.192 2168.81 194.164 Q2167.24 195.136 2167.24 197.08 Q2167.24 198.562 2168.37 199.418 Q2169.51 200.252 2172.93 201.016 L2174.39 201.34 Q2178.93 202.312 2180.83 204.094 Q2182.75 205.854 2182.75 209.025 Q2182.75 212.636 2179.88 214.742 Q2177.03 216.849 2172.03 216.849 Q2169.95 216.849 2167.68 216.432 Q2165.43 216.039 2162.93 215.228 L2162.93 210.83 Q2165.3 212.057 2167.59 212.682 Q2169.88 213.284 2172.12 213.284 Q2175.13 213.284 2176.75 212.266 Q2178.37 211.224 2178.37 209.349 Q2178.37 207.613 2177.19 206.687 Q2176.04 205.761 2172.08 204.904 L2170.6 204.557 Q2166.64 203.724 2164.88 202.011 Q2163.12 200.275 2163.12 197.266 Q2163.12 193.608 2165.71 191.618 Q2168.3 189.627 2173.07 189.627 Q2175.43 189.627 2177.52 189.974 Q2179.6 190.321 2181.36 191.016 Z" fill="#000000" fill-rule="evenodd" fill-opacity="1" /><path clip-path="url(#clip480)" d="M2199.58 193.238 Q2196.15 193.238 2194.16 195.923 Q2192.17 198.585 2192.17 203.238 Q2192.17 207.891 2194.14 210.576 Q2196.13 213.238 2199.58 213.238 Q2202.98 213.238 2204.97 210.553 Q2206.96 207.867 2206.96 203.238 Q2206.96 198.631 2204.97 195.946 Q2202.98 193.238 2199.58 193.238 M2199.58 189.627 Q2205.13 189.627 2208.3 193.238 Q2211.48 196.849 2211.48 203.238 Q2211.48 209.604 2208.3 213.238 Q2205.13 216.849 2199.58 216.849 Q2194 216.849 2190.83 213.238 Q2187.68 209.604 2187.68 203.238 Q2187.68 196.849 2190.83 193.238 Q2194 189.627 2199.58 189.627 Z" fill="#000000" fill-rule="evenodd" fill-opacity="1" /><path clip-path="url(#clip480)" d="M2218.54 180.159 L2222.8 180.159 L2222.8 216.178 L2218.54 216.178 L2218.54 180.159 Z" fill="#000000" fill-rule="evenodd" fill-opacity="1" /><path clip-path="url(#clip480)" d="M2228.65 190.252 L2233.17 190.252 L2241.27 212.011 L2249.37 190.252 L2253.88 190.252 L2244.16 216.178 L2238.37 216.178 L2228.65 190.252 Z" fill="#000000" fill-rule="evenodd" fill-opacity="1" /><path clip-path="url(#clip480)" d="M2281.94 202.15 L2281.94 204.233 L2262.36 204.233 Q2262.63 208.631 2264.99 210.946 Q2267.38 213.238 2271.61 213.238 Q2274.07 213.238 2276.36 212.636 Q2278.67 212.034 2280.94 210.83 L2280.94 214.858 Q2278.65 215.83 2276.24 216.34 Q2273.84 216.849 2271.36 216.849 Q2265.16 216.849 2261.52 213.238 Q2257.91 209.627 2257.91 203.469 Q2257.91 197.104 2261.34 193.377 Q2264.79 189.627 2270.62 189.627 Q2275.85 189.627 2278.88 193.006 Q2281.94 196.363 2281.94 202.15 M2277.68 200.9 Q2277.63 197.405 2275.71 195.321 Q2273.81 193.238 2270.67 193.238 Q2267.1 193.238 2264.95 195.252 Q2262.82 197.266 2262.49 200.923 L2277.68 200.9 Z" fill="#000000" fill-rule="evenodd" fill-opacity="1" /><path clip-path="url(#clip480)" d="M2303.95 194.233 Q2303.23 193.817 2302.38 193.631 Q2301.55 193.423 2300.53 193.423 Q2296.92 193.423 2294.97 195.784 Q2293.05 198.122 2293.05 202.52 L2293.05 216.178 L2288.77 216.178 L2288.77 190.252 L2293.05 190.252 L2293.05 194.28 Q2294.39 191.918 2296.55 190.784 Q2298.7 189.627 2301.78 189.627 Q2302.22 189.627 2302.75 189.696 Q2303.28 189.743 2303.93 189.858 L2303.95 194.233 Z" fill="#000000" fill-rule="evenodd" fill-opacity="1" /><polyline clip-path="url(#clip480)" style="stroke:#3da44d; stroke-linecap:butt; stroke-linejoin:round; stroke-width:4; stroke-opacity:1; fill:none" points="
  1874.46,250.738 2020.87,250.738 
  "/>
<path clip-path="url(#clip480)" d="M2064.19 254.754 Q2064.19 250.124 2062.26 247.578 Q2060.37 245.032 2056.92 245.032 Q2053.49 245.032 2051.57 247.578 Q2049.67 250.124 2049.67 254.754 Q2049.67 259.36 2051.57 261.906 Q2053.49 264.453 2056.92 264.453 Q2060.37 264.453 2062.26 261.906 Q2064.19 259.36 2064.19 254.754 M2068.44 264.8 Q2068.44 271.42 2065.5 274.638 Q2062.56 277.879 2056.5 277.879 Q2054.25 277.879 2052.26 277.531 Q2050.27 277.207 2048.4 276.513 L2048.4 272.369 Q2050.27 273.388 2052.1 273.874 Q2053.93 274.36 2055.83 274.36 Q2060.02 274.36 2062.1 272.161 Q2064.19 269.985 2064.19 265.564 L2064.19 263.457 Q2062.87 265.749 2060.81 266.883 Q2058.75 268.018 2055.88 268.018 Q2051.11 268.018 2048.19 264.383 Q2045.27 260.749 2045.27 254.754 Q2045.27 248.735 2048.19 245.101 Q2051.11 241.467 2055.88 241.467 Q2058.75 241.467 2060.81 242.601 Q2062.87 243.735 2064.19 246.027 L2064.19 242.092 L2068.44 242.092 L2068.44 264.8 Z" fill="#000000" fill-rule="evenodd" fill-opacity="1" /><path clip-path="url(#clip480)" d="M2114.46 253.99 L2114.46 256.073 L2094.88 256.073 Q2095.16 260.471 2097.52 262.786 Q2099.9 265.078 2104.14 265.078 Q2106.59 265.078 2108.88 264.476 Q2111.2 263.874 2113.47 262.67 L2113.47 266.698 Q2111.18 267.67 2108.77 268.18 Q2106.36 268.689 2103.88 268.689 Q2097.68 268.689 2094.05 265.078 Q2090.44 261.467 2090.44 255.309 Q2090.44 248.944 2093.86 245.217 Q2097.31 241.467 2103.14 241.467 Q2108.37 241.467 2111.41 244.846 Q2114.46 248.203 2114.46 253.99 M2110.2 252.74 Q2110.16 249.245 2108.24 247.161 Q2106.34 245.078 2103.19 245.078 Q2099.62 245.078 2097.47 247.092 Q2095.34 249.106 2095.02 252.763 L2110.2 252.74 Z" fill="#000000" fill-rule="evenodd" fill-opacity="1" /><path clip-path="url(#clip480)" d="M2142.17 242.092 L2132.8 254.707 L2142.66 268.018 L2137.63 268.018 L2130.09 257.832 L2122.54 268.018 L2117.52 268.018 L2127.59 254.453 L2118.37 242.092 L2123.4 242.092 L2130.27 251.328 L2137.15 242.092 L2142.17 242.092 Z" fill="#000000" fill-rule="evenodd" fill-opacity="1" /><path clip-path="url(#clip480)" d="M2152.8 264.129 L2152.8 277.879 L2148.51 277.879 L2148.51 242.092 L2152.8 242.092 L2152.8 246.027 Q2154.14 243.712 2156.18 242.601 Q2158.24 241.467 2161.08 241.467 Q2165.8 241.467 2168.74 245.217 Q2171.71 248.967 2171.71 255.078 Q2171.71 261.189 2168.74 264.939 Q2165.8 268.689 2161.08 268.689 Q2158.24 268.689 2156.18 267.578 Q2154.14 266.443 2152.8 264.129 M2167.29 255.078 Q2167.29 250.379 2165.34 247.717 Q2163.42 245.032 2160.04 245.032 Q2156.66 245.032 2154.72 247.717 Q2152.8 250.379 2152.8 255.078 Q2152.8 259.777 2154.72 262.462 Q2156.66 265.124 2160.04 265.124 Q2163.42 265.124 2165.34 262.462 Q2167.29 259.777 2167.29 255.078 Z" fill="#000000" fill-rule="evenodd" fill-opacity="1" /><path clip-path="url(#clip480)" d="M2178.77 231.999 L2183.03 231.999 L2183.03 268.018 L2178.77 268.018 L2178.77 231.999 Z" fill="#000000" fill-rule="evenodd" fill-opacity="1" /><path clip-path="url(#clip480)" d="M2191.94 242.092 L2196.2 242.092 L2196.2 268.018 L2191.94 268.018 L2191.94 242.092 M2191.94 231.999 L2196.2 231.999 L2196.2 237.393 L2191.94 237.393 L2191.94 231.999 Z" fill="#000000" fill-rule="evenodd" fill-opacity="1" /><path clip-path="url(#clip480)" d="M2223.77 243.087 L2223.77 247.069 Q2221.96 246.073 2220.13 245.587 Q2218.33 245.078 2216.48 245.078 Q2212.33 245.078 2210.04 247.717 Q2207.75 250.332 2207.75 255.078 Q2207.75 259.823 2210.04 262.462 Q2212.33 265.078 2216.48 265.078 Q2218.33 265.078 2220.13 264.592 Q2221.96 264.082 2223.77 263.087 L2223.77 267.022 Q2221.99 267.856 2220.06 268.272 Q2218.17 268.689 2216.01 268.689 Q2210.16 268.689 2206.71 265.008 Q2203.26 261.328 2203.26 255.078 Q2203.26 248.735 2206.73 245.101 Q2210.23 241.467 2216.29 241.467 Q2218.26 241.467 2220.13 241.883 Q2222.01 242.277 2223.77 243.087 Z" fill="#000000" fill-rule="evenodd" fill-opacity="1" /><path clip-path="url(#clip480)" d="M2231.18 242.092 L2235.43 242.092 L2235.43 268.018 L2231.18 268.018 L2231.18 242.092 M2231.18 231.999 L2235.43 231.999 L2235.43 237.393 L2231.18 237.393 L2231.18 231.999 Z" fill="#000000" fill-rule="evenodd" fill-opacity="1" /><path clip-path="url(#clip480)" d="M2248.56 234.731 L2248.56 242.092 L2257.33 242.092 L2257.33 245.402 L2248.56 245.402 L2248.56 259.476 Q2248.56 262.647 2249.42 263.55 Q2250.3 264.453 2252.96 264.453 L2257.33 264.453 L2257.33 268.018 L2252.96 268.018 Q2248.03 268.018 2246.15 266.189 Q2244.28 264.337 2244.28 259.476 L2244.28 245.402 L2241.15 245.402 L2241.15 242.092 L2244.28 242.092 L2244.28 234.731 L2248.56 234.731 Z" fill="#000000" fill-rule="evenodd" fill-opacity="1" /><polyline clip-path="url(#clip480)" style="stroke:#c271d2; stroke-linecap:butt; stroke-linejoin:round; stroke-width:4; stroke-opacity:1; fill:none" points="
  1874.46,302.578 2020.87,302.578 
  "/>
<path clip-path="url(#clip480)" d="M2064.19 306.594 Q2064.19 301.964 2062.26 299.418 Q2060.37 296.872 2056.92 296.872 Q2053.49 296.872 2051.57 299.418 Q2049.67 301.964 2049.67 306.594 Q2049.67 311.2 2051.57 313.746 Q2053.49 316.293 2056.92 316.293 Q2060.37 316.293 2062.26 313.746 Q2064.19 311.2 2064.19 306.594 M2068.44 316.64 Q2068.44 323.26 2065.5 326.478 Q2062.56 329.719 2056.5 329.719 Q2054.25 329.719 2052.26 329.371 Q2050.27 329.047 2048.4 328.353 L2048.4 324.209 Q2050.27 325.228 2052.1 325.714 Q2053.93 326.2 2055.83 326.2 Q2060.02 326.2 2062.1 324.001 Q2064.19 321.825 2064.19 317.404 L2064.19 315.297 Q2062.87 317.589 2060.81 318.723 Q2058.75 319.858 2055.88 319.858 Q2051.11 319.858 2048.19 316.223 Q2045.27 312.589 2045.27 306.594 Q2045.27 300.575 2048.19 296.941 Q2051.11 293.307 2055.88 293.307 Q2058.75 293.307 2060.81 294.441 Q2062.87 295.575 2064.19 297.867 L2064.19 293.932 L2068.44 293.932 L2068.44 316.64 Z" fill="#000000" fill-rule="evenodd" fill-opacity="1" /><path clip-path="url(#clip480)" d="M2092.29 293.932 L2096.55 293.932 L2096.55 319.858 L2092.29 319.858 L2092.29 293.932 M2092.29 283.839 L2096.55 283.839 L2096.55 289.233 L2092.29 289.233 L2092.29 283.839 Z" fill="#000000" fill-rule="evenodd" fill-opacity="1" /><path clip-path="url(#clip480)" d="M2125.64 298.909 Q2127.24 296.038 2129.46 294.673 Q2131.68 293.307 2134.69 293.307 Q2138.74 293.307 2140.94 296.154 Q2143.14 298.978 2143.14 304.209 L2143.14 319.858 L2138.86 319.858 L2138.86 304.348 Q2138.86 300.622 2137.54 298.816 Q2136.22 297.01 2133.51 297.01 Q2130.2 297.01 2128.28 299.21 Q2126.36 301.409 2126.36 305.205 L2126.36 319.858 L2122.08 319.858 L2122.08 304.348 Q2122.08 300.598 2120.76 298.816 Q2119.44 297.01 2116.68 297.01 Q2113.42 297.01 2111.5 299.233 Q2109.58 301.432 2109.58 305.205 L2109.58 319.858 L2105.3 319.858 L2105.3 293.932 L2109.58 293.932 L2109.58 297.96 Q2111.04 295.575 2113.07 294.441 Q2115.11 293.307 2117.91 293.307 Q2120.74 293.307 2122.7 294.742 Q2124.69 296.177 2125.64 298.909 Z" fill="#000000" fill-rule="evenodd" fill-opacity="1" /><path clip-path="url(#clip480)" d="M2155.76 315.969 L2155.76 329.719 L2151.48 329.719 L2151.48 293.932 L2155.76 293.932 L2155.76 297.867 Q2157.1 295.552 2159.14 294.441 Q2161.2 293.307 2164.05 293.307 Q2168.77 293.307 2171.71 297.057 Q2174.67 300.807 2174.67 306.918 Q2174.67 313.029 2171.71 316.779 Q2168.77 320.529 2164.05 320.529 Q2161.2 320.529 2159.14 319.418 Q2157.1 318.283 2155.76 315.969 M2170.25 306.918 Q2170.25 302.219 2168.3 299.557 Q2166.38 296.872 2163 296.872 Q2159.62 296.872 2157.68 299.557 Q2155.76 302.219 2155.76 306.918 Q2155.76 311.617 2157.68 314.302 Q2159.62 316.964 2163 316.964 Q2166.38 316.964 2168.3 314.302 Q2170.25 311.617 2170.25 306.918 Z" fill="#000000" fill-rule="evenodd" fill-opacity="1" /><path clip-path="url(#clip480)" d="M2181.73 283.839 L2185.99 283.839 L2185.99 319.858 L2181.73 319.858 L2181.73 283.839 Z" fill="#000000" fill-rule="evenodd" fill-opacity="1" /><path clip-path="url(#clip480)" d="M2194.9 293.932 L2199.16 293.932 L2199.16 319.858 L2194.9 319.858 L2194.9 293.932 M2194.9 283.839 L2199.16 283.839 L2199.16 289.233 L2194.9 289.233 L2194.9 283.839 Z" fill="#000000" fill-rule="evenodd" fill-opacity="1" /><path clip-path="url(#clip480)" d="M2226.73 294.927 L2226.73 298.909 Q2224.93 297.913 2223.1 297.427 Q2221.29 296.918 2219.44 296.918 Q2215.3 296.918 2213 299.557 Q2210.71 302.172 2210.71 306.918 Q2210.71 311.663 2213 314.302 Q2215.3 316.918 2219.44 316.918 Q2221.29 316.918 2223.1 316.432 Q2224.93 315.922 2226.73 314.927 L2226.73 318.862 Q2224.95 319.696 2223.03 320.112 Q2221.13 320.529 2218.98 320.529 Q2213.12 320.529 2209.67 316.848 Q2206.22 313.168 2206.22 306.918 Q2206.22 300.575 2209.69 296.941 Q2213.19 293.307 2219.25 293.307 Q2221.22 293.307 2223.1 293.723 Q2224.97 294.117 2226.73 294.927 Z" fill="#000000" fill-rule="evenodd" fill-opacity="1" /><path clip-path="url(#clip480)" d="M2234.14 293.932 L2238.4 293.932 L2238.4 319.858 L2234.14 319.858 L2234.14 293.932 M2234.14 283.839 L2238.4 283.839 L2238.4 289.233 L2234.14 289.233 L2234.14 283.839 Z" fill="#000000" fill-rule="evenodd" fill-opacity="1" /><path clip-path="url(#clip480)" d="M2251.52 286.571 L2251.52 293.932 L2260.3 293.932 L2260.3 297.242 L2251.52 297.242 L2251.52 311.316 Q2251.52 314.487 2252.38 315.39 Q2253.26 316.293 2255.92 316.293 L2260.3 316.293 L2260.3 319.858 L2255.92 319.858 Q2250.99 319.858 2249.11 318.029 Q2247.24 316.177 2247.24 311.316 L2247.24 297.242 L2244.11 297.242 L2244.11 293.932 L2247.24 293.932 L2247.24 286.571 L2251.52 286.571 Z" fill="#000000" fill-rule="evenodd" fill-opacity="1" /></svg>
