<?xml version="1.0" encoding="utf-8"?>
<svg xmlns="http://www.w3.org/2000/svg" xmlns:xlink="http://www.w3.org/1999/xlink" width="600" height="400" viewBox="0 0 2400 1600">
<defs>
  <clipPath id="clip330">
    <rect x="0" y="0" width="2400" height="1600"/>
  </clipPath>
</defs>
<path clip-path="url(#clip330)" d="
M0 1600 L2400 1600 L2400 0 L0 0  Z
  " fill="#ffffff" fill-rule="evenodd" fill-opacity="1"/>
<defs>
  <clipPath id="clip331">
    <rect x="480" y="0" width="1681" height="1600"/>
  </clipPath>
</defs>
<defs>
  <clipPath id="clip332">
    <rect x="186" y="123" width="1711" height="1364"/>
  </clipPath>
</defs>
<path clip-path="url(#clip330)" d="
M306.435 1486.45 L1913.15 1486.45 L1913.15 123.472 L306.435 123.472  Z
  " fill="#ffffff" fill-rule="evenodd" fill-opacity="1"/>
<defs>
  <clipPath id="clip333">
    <rect x="306" y="123" width="1608" height="1364"/>
  </clipPath>
</defs>
<polyline clip-path="url(#clip333)" style="stroke:#000000; stroke-linecap:butt; stroke-linejoin:round; stroke-width:2; stroke-opacity:0.1; fill:none" points="
  503.485,1486.45 503.485,123.472 
  "/>
<polyline clip-path="url(#clip333)" style="stroke:#000000; stroke-linecap:butt; stroke-linejoin:round; stroke-width:2; stroke-opacity:0.1; fill:none" points="
  806.639,1486.45 806.639,123.472 
  "/>
<polyline clip-path="url(#clip333)" style="stroke:#000000; stroke-linecap:butt; stroke-linejoin:round; stroke-width:2; stroke-opacity:0.1; fill:none" points="
  1109.79,1486.45 1109.79,123.472 
  "/>
<polyline clip-path="url(#clip333)" style="stroke:#000000; stroke-linecap:butt; stroke-linejoin:round; stroke-width:2; stroke-opacity:0.1; fill:none" points="
  1412.95,1486.45 1412.95,123.472 
  "/>
<polyline clip-path="url(#clip333)" style="stroke:#000000; stroke-linecap:butt; stroke-linejoin:round; stroke-width:2; stroke-opacity:0.1; fill:none" points="
  1716.1,1486.45 1716.1,123.472 
  "/>
<polyline clip-path="url(#clip330)" style="stroke:#000000; stroke-linecap:butt; stroke-linejoin:round; stroke-width:4; stroke-opacity:1; fill:none" points="
  306.435,1486.45 1913.15,1486.45 
  "/>
<polyline clip-path="url(#clip330)" style="stroke:#000000; stroke-linecap:butt; stroke-linejoin:round; stroke-width:4; stroke-opacity:1; fill:none" points="
  503.485,1486.45 503.485,1467.55 
  "/>
<polyline clip-path="url(#clip330)" style="stroke:#000000; stroke-linecap:butt; stroke-linejoin:round; stroke-width:4; stroke-opacity:1; fill:none" points="
  806.639,1486.45 806.639,1467.55 
  "/>
<polyline clip-path="url(#clip330)" style="stroke:#000000; stroke-linecap:butt; stroke-linejoin:round; stroke-width:4; stroke-opacity:1; fill:none" points="
  1109.79,1486.45 1109.79,1467.55 
  "/>
<polyline clip-path="url(#clip330)" style="stroke:#000000; stroke-linecap:butt; stroke-linejoin:round; stroke-width:4; stroke-opacity:1; fill:none" points="
  1412.95,1486.45 1412.95,1467.55 
  "/>
<polyline clip-path="url(#clip330)" style="stroke:#000000; stroke-linecap:butt; stroke-linejoin:round; stroke-width:4; stroke-opacity:1; fill:none" points="
  1716.1,1486.45 1716.1,1467.55 
  "/>
<path clip-path="url(#clip330)" d="M472.386 1532.02 L502.062 1532.02 L502.062 1535.95 L472.386 1535.95 L472.386 1532.02 Z" fill="#000000" fill-rule="evenodd" fill-opacity="1" /><path clip-path="url(#clip330)" d="M525.001 1518.36 L513.196 1536.81 L525.001 1536.81 L525.001 1518.36 M523.774 1514.29 L529.654 1514.29 L529.654 1536.81 L534.585 1536.81 L534.585 1540.7 L529.654 1540.7 L529.654 1548.85 L525.001 1548.85 L525.001 1540.7 L509.4 1540.7 L509.4 1536.19 L523.774 1514.29 Z" fill="#000000" fill-rule="evenodd" fill-opacity="1" /><path clip-path="url(#clip330)" d="M776.581 1532.02 L806.257 1532.02 L806.257 1535.95 L776.581 1535.95 L776.581 1532.02 Z" fill="#000000" fill-rule="evenodd" fill-opacity="1" /><path clip-path="url(#clip330)" d="M820.377 1544.91 L836.696 1544.91 L836.696 1548.85 L814.752 1548.85 L814.752 1544.91 Q817.414 1542.16 821.997 1537.53 Q826.604 1532.88 827.784 1531.53 Q830.03 1529.01 830.909 1527.27 Q831.812 1525.51 831.812 1523.82 Q831.812 1521.07 829.868 1519.33 Q827.947 1517.6 824.845 1517.6 Q822.646 1517.6 820.192 1518.36 Q817.761 1519.13 814.984 1520.68 L814.984 1515.95 Q817.808 1514.82 820.261 1514.24 Q822.715 1513.66 824.752 1513.66 Q830.122 1513.66 833.317 1516.35 Q836.511 1519.03 836.511 1523.52 Q836.511 1525.65 835.701 1527.57 Q834.914 1529.47 832.808 1532.07 Q832.229 1532.74 829.127 1535.95 Q826.025 1539.15 820.377 1544.91 Z" fill="#000000" fill-rule="evenodd" fill-opacity="1" /><path clip-path="url(#clip330)" d="M1109.79 1517.37 Q1106.18 1517.37 1104.35 1520.93 Q1102.55 1524.47 1102.55 1531.6 Q1102.55 1538.71 1104.35 1542.27 Q1106.18 1545.82 1109.79 1545.82 Q1113.43 1545.82 1115.23 1542.27 Q1117.06 1538.71 1117.06 1531.6 Q1117.06 1524.47 1115.23 1520.93 Q1113.43 1517.37 1109.79 1517.37 M1109.79 1513.66 Q1115.6 1513.66 1118.66 1518.27 Q1121.74 1522.85 1121.74 1531.6 Q1121.74 1540.33 1118.66 1544.94 Q1115.6 1549.52 1109.79 1549.52 Q1103.98 1549.52 1100.9 1544.94 Q1097.85 1540.33 1097.85 1531.6 Q1097.85 1522.85 1100.9 1518.27 Q1103.98 1513.66 1109.79 1513.66 Z" fill="#000000" fill-rule="evenodd" fill-opacity="1" /><path clip-path="url(#clip330)" d="M1407.6 1544.91 L1423.92 1544.91 L1423.92 1548.85 L1401.97 1548.85 L1401.97 1544.91 Q1404.64 1542.16 1409.22 1537.53 Q1413.83 1532.88 1415.01 1531.53 Q1417.25 1529.01 1418.13 1527.27 Q1419.03 1525.51 1419.03 1523.82 Q1419.03 1521.07 1417.09 1519.33 Q1415.17 1517.6 1412.07 1517.6 Q1409.87 1517.6 1407.41 1518.36 Q1404.98 1519.13 1402.21 1520.68 L1402.21 1515.95 Q1405.03 1514.82 1407.48 1514.24 Q1409.94 1513.66 1411.97 1513.66 Q1417.34 1513.66 1420.54 1516.35 Q1423.73 1519.03 1423.73 1523.52 Q1423.73 1525.65 1422.92 1527.57 Q1422.14 1529.47 1420.03 1532.07 Q1419.45 1532.74 1416.35 1535.95 Q1413.25 1539.15 1407.6 1544.91 Z" fill="#000000" fill-rule="evenodd" fill-opacity="1" /><path clip-path="url(#clip330)" d="M1719.11 1518.36 L1707.3 1536.81 L1719.11 1536.81 L1719.11 1518.36 M1717.88 1514.29 L1723.76 1514.29 L1723.76 1536.81 L1728.69 1536.81 L1728.69 1540.7 L1723.76 1540.7 L1723.76 1548.85 L1719.11 1548.85 L1719.11 1540.7 L1703.51 1540.7 L1703.51 1536.19 L1717.88 1514.29 Z" fill="#000000" fill-rule="evenodd" fill-opacity="1" /><polyline clip-path="url(#clip333)" style="stroke:#000000; stroke-linecap:butt; stroke-linejoin:round; stroke-width:2; stroke-opacity:0.1; fill:none" points="
  306.435,1447.87 1913.15,1447.87 
  "/>
<polyline clip-path="url(#clip333)" style="stroke:#000000; stroke-linecap:butt; stroke-linejoin:round; stroke-width:2; stroke-opacity:0.1; fill:none" points="
  306.435,1174.71 1913.15,1174.71 
  "/>
<polyline clip-path="url(#clip333)" style="stroke:#000000; stroke-linecap:butt; stroke-linejoin:round; stroke-width:2; stroke-opacity:0.1; fill:none" points="
  306.435,901.541 1913.15,901.541 
  "/>
<polyline clip-path="url(#clip333)" style="stroke:#000000; stroke-linecap:butt; stroke-linejoin:round; stroke-width:2; stroke-opacity:0.1; fill:none" points="
  306.435,628.374 1913.15,628.374 
  "/>
<polyline clip-path="url(#clip333)" style="stroke:#000000; stroke-linecap:butt; stroke-linejoin:round; stroke-width:2; stroke-opacity:0.1; fill:none" points="
  306.435,355.208 1913.15,355.208 
  "/>
<polyline clip-path="url(#clip330)" style="stroke:#000000; stroke-linecap:butt; stroke-linejoin:round; stroke-width:4; stroke-opacity:1; fill:none" points="
  306.435,1486.45 306.435,123.472 
  "/>
<polyline clip-path="url(#clip330)" style="stroke:#000000; stroke-linecap:butt; stroke-linejoin:round; stroke-width:4; stroke-opacity:1; fill:none" points="
  306.435,1447.87 321.273,1447.87 
  "/>
<polyline clip-path="url(#clip330)" style="stroke:#000000; stroke-linecap:butt; stroke-linejoin:round; stroke-width:4; stroke-opacity:1; fill:none" points="
  306.435,1174.71 321.273,1174.71 
  "/>
<polyline clip-path="url(#clip330)" style="stroke:#000000; stroke-linecap:butt; stroke-linejoin:round; stroke-width:4; stroke-opacity:1; fill:none" points="
  306.435,901.541 321.273,901.541 
  "/>
<polyline clip-path="url(#clip330)" style="stroke:#000000; stroke-linecap:butt; stroke-linejoin:round; stroke-width:4; stroke-opacity:1; fill:none" points="
  306.435,628.374 321.273,628.374 
  "/>
<polyline clip-path="url(#clip330)" style="stroke:#000000; stroke-linecap:butt; stroke-linejoin:round; stroke-width:4; stroke-opacity:1; fill:none" points="
  306.435,355.208 321.273,355.208 
  "/>
<path clip-path="url(#clip330)" d="M258.491 1433.67 Q254.88 1433.67 253.051 1437.24 Q251.246 1440.78 251.246 1447.91 Q251.246 1455.01 253.051 1458.58 Q254.88 1462.12 258.491 1462.12 Q262.125 1462.12 263.931 1458.58 Q265.759 1455.01 265.759 1447.91 Q265.759 1440.78 263.931 1437.24 Q262.125 1433.67 258.491 1433.67 M258.491 1429.97 Q264.301 1429.97 267.357 1434.57 Q270.435 1439.16 270.435 1447.91 Q270.435 1456.63 267.357 1461.24 Q264.301 1465.82 258.491 1465.82 Q252.681 1465.82 249.602 1461.24 Q246.547 1456.63 246.547 1447.91 Q246.547 1439.16 249.602 1434.57 Q252.681 1429.97 258.491 1429.97 Z" fill="#000000" fill-rule="evenodd" fill-opacity="1" /><path clip-path="url(#clip330)" d="M54.6105 1163.87 L72.9668 1163.87 L72.9668 1167.81 L58.8928 1167.81 L58.8928 1176.28 Q59.9113 1175.93 60.9299 1175.77 Q61.9484 1175.59 62.9669 1175.59 Q68.7539 1175.59 72.1335 1178.76 Q75.5131 1181.93 75.5131 1187.35 Q75.5131 1192.93 72.0409 1196.03 Q68.5687 1199.11 62.2493 1199.11 Q60.0734 1199.11 57.8049 1198.74 Q55.5595 1198.36 53.1521 1197.62 L53.1521 1192.93 Q55.2354 1194.06 57.4577 1194.62 Q59.6799 1195.17 62.1567 1195.17 Q66.1613 1195.17 68.4993 1193.06 Q70.8372 1190.96 70.8372 1187.35 Q70.8372 1183.74 68.4993 1181.63 Q66.1613 1179.52 62.1567 1179.52 Q60.2817 1179.52 58.4067 1179.94 Q56.5549 1180.36 54.6105 1181.24 L54.6105 1163.87 Z" fill="#000000" fill-rule="evenodd" fill-opacity="1" /><path clip-path="url(#clip330)" d="M84.726 1192.55 L89.6103 1192.55 L89.6103 1198.43 L84.726 1198.43 L84.726 1192.55 Z" fill="#000000" fill-rule="evenodd" fill-opacity="1" /><path clip-path="url(#clip330)" d="M109.795 1166.95 Q106.184 1166.95 104.356 1170.52 Q102.55 1174.06 102.55 1181.19 Q102.55 1188.3 104.356 1191.86 Q106.184 1195.4 109.795 1195.4 Q113.43 1195.4 115.235 1191.86 Q117.064 1188.3 117.064 1181.19 Q117.064 1174.06 115.235 1170.52 Q113.43 1166.95 109.795 1166.95 M109.795 1163.25 Q115.605 1163.25 118.661 1167.86 Q121.74 1172.44 121.74 1181.19 Q121.74 1189.92 118.661 1194.52 Q115.605 1199.11 109.795 1199.11 Q103.985 1199.11 100.906 1194.52 Q97.851 1189.92 97.851 1181.19 Q97.851 1172.44 100.906 1167.86 Q103.985 1163.25 109.795 1163.25 Z" fill="#000000" fill-rule="evenodd" fill-opacity="1" /><path clip-path="url(#clip330)" d="M139.957 1166.95 Q136.346 1166.95 134.517 1170.52 Q132.712 1174.06 132.712 1181.19 Q132.712 1188.3 134.517 1191.86 Q136.346 1195.4 139.957 1195.4 Q143.591 1195.4 145.397 1191.86 Q147.226 1188.3 147.226 1181.19 Q147.226 1174.06 145.397 1170.52 Q143.591 1166.95 139.957 1166.95 M139.957 1163.25 Q145.767 1163.25 148.823 1167.86 Q151.902 1172.44 151.902 1181.19 Q151.902 1189.92 148.823 1194.52 Q145.767 1199.11 139.957 1199.11 Q134.147 1199.11 131.068 1194.52 Q128.013 1189.92 128.013 1181.19 Q128.013 1172.44 131.068 1167.86 Q134.147 1163.25 139.957 1163.25 Z" fill="#000000" fill-rule="evenodd" fill-opacity="1" /><path clip-path="url(#clip330)" d="M188.29 1172.97 L177.712 1183.6 L188.29 1194.18 L185.536 1196.98 L174.911 1186.35 L164.286 1196.98 L161.554 1194.18 L172.11 1183.6 L161.554 1172.97 L164.286 1170.17 L174.911 1180.8 L185.536 1170.17 L188.29 1172.97 Z" fill="#000000" fill-rule="evenodd" fill-opacity="1" /><path clip-path="url(#clip330)" d="M200.651 1194.5 L208.29 1194.5 L208.29 1168.13 L199.98 1169.8 L199.98 1165.54 L208.244 1163.87 L212.92 1163.87 L212.92 1194.5 L220.559 1194.5 L220.559 1198.43 L200.651 1198.43 L200.651 1194.5 Z" fill="#000000" fill-rule="evenodd" fill-opacity="1" /><path clip-path="url(#clip330)" d="M240.003 1166.95 Q236.392 1166.95 234.563 1170.52 Q232.758 1174.06 232.758 1181.19 Q232.758 1188.3 234.563 1191.86 Q236.392 1195.4 240.003 1195.4 Q243.637 1195.4 245.443 1191.86 Q247.271 1188.3 247.271 1181.19 Q247.271 1174.06 245.443 1170.52 Q243.637 1166.95 240.003 1166.95 M240.003 1163.25 Q245.813 1163.25 248.869 1167.86 Q251.947 1172.44 251.947 1181.19 Q251.947 1189.92 248.869 1194.52 Q245.813 1199.11 240.003 1199.11 Q234.193 1199.11 231.114 1194.52 Q228.059 1189.92 228.059 1181.19 Q228.059 1172.44 231.114 1167.86 Q234.193 1163.25 240.003 1163.25 Z" fill="#000000" fill-rule="evenodd" fill-opacity="1" /><path clip-path="url(#clip330)" d="M264.643 1155.88 Q267.37 1156.47 268.893 1158.31 Q270.435 1160.15 270.435 1162.86 Q270.435 1167.02 267.577 1169.29 Q264.718 1171.57 259.452 1171.57 Q257.684 1171.57 255.803 1171.21 Q253.941 1170.87 251.947 1170.18 L251.947 1166.51 Q253.527 1167.43 255.408 1167.9 Q257.289 1168.37 259.339 1168.37 Q262.912 1168.37 264.774 1166.96 Q266.655 1165.55 266.655 1162.86 Q266.655 1160.38 264.906 1158.99 Q263.176 1157.58 260.072 1157.58 L256.8 1157.58 L256.8 1154.45 L260.223 1154.45 Q263.025 1154.45 264.511 1153.34 Q265.997 1152.22 265.997 1150.11 Q265.997 1147.95 264.455 1146.8 Q262.931 1145.63 260.072 1145.63 Q258.511 1145.63 256.725 1145.97 Q254.938 1146.31 252.794 1147.03 L252.794 1143.64 Q254.957 1143.04 256.837 1142.74 Q258.737 1142.44 260.411 1142.44 Q264.737 1142.44 267.257 1144.41 Q269.777 1146.37 269.777 1149.71 Q269.777 1152.05 268.442 1153.66 Q267.106 1155.26 264.643 1155.88 Z" fill="#000000" fill-rule="evenodd" fill-opacity="1" /><path clip-path="url(#clip330)" d="M53.3995 921.333 L61.0384 921.333 L61.0384 894.967 L52.7282 896.634 L52.7282 892.375 L60.9921 890.708 L65.668 890.708 L65.668 921.333 L73.3068 921.333 L73.3068 925.268 L53.3995 925.268 L53.3995 921.333 Z" fill="#000000" fill-rule="evenodd" fill-opacity="1" /><path clip-path="url(#clip330)" d="M82.7512 919.389 L87.6354 919.389 L87.6354 925.268 L82.7512 925.268 L82.7512 919.389 Z" fill="#000000" fill-rule="evenodd" fill-opacity="1" /><path clip-path="url(#clip330)" d="M107.821 893.787 Q104.209 893.787 102.381 897.352 Q100.575 900.893 100.575 908.023 Q100.575 915.129 102.381 918.694 Q104.209 922.236 107.821 922.236 Q111.455 922.236 113.26 918.694 Q115.089 915.129 115.089 908.023 Q115.089 900.893 113.26 897.352 Q111.455 893.787 107.821 893.787 M107.821 890.083 Q113.631 890.083 116.686 894.69 Q119.765 899.273 119.765 908.023 Q119.765 916.75 116.686 921.356 Q113.631 925.939 107.821 925.939 Q102.01 925.939 98.9317 921.356 Q95.8761 916.75 95.8761 908.023 Q95.8761 899.273 98.9317 894.69 Q102.01 890.083 107.821 890.083 Z" fill="#000000" fill-rule="evenodd" fill-opacity="1" /><path clip-path="url(#clip330)" d="M137.982 893.787 Q134.371 893.787 132.543 897.352 Q130.737 900.893 130.737 908.023 Q130.737 915.129 132.543 918.694 Q134.371 922.236 137.982 922.236 Q141.617 922.236 143.422 918.694 Q145.251 915.129 145.251 908.023 Q145.251 900.893 143.422 897.352 Q141.617 893.787 137.982 893.787 M137.982 890.083 Q143.793 890.083 146.848 894.69 Q149.927 899.273 149.927 908.023 Q149.927 916.75 146.848 921.356 Q143.793 925.939 137.982 925.939 Q132.172 925.939 129.094 921.356 Q126.038 916.75 126.038 908.023 Q126.038 899.273 129.094 894.69 Q132.172 890.083 137.982 890.083 Z" fill="#000000" fill-rule="evenodd" fill-opacity="1" /><path clip-path="url(#clip330)" d="M186.315 899.805 L175.737 910.43 L186.315 921.009 L183.561 923.81 L172.936 913.185 L162.311 923.81 L159.58 921.009 L170.135 910.43 L159.58 899.805 L162.311 897.004 L172.936 907.629 L183.561 897.004 L186.315 899.805 Z" fill="#000000" fill-rule="evenodd" fill-opacity="1" /><path clip-path="url(#clip330)" d="M198.677 921.333 L206.315 921.333 L206.315 894.967 L198.005 896.634 L198.005 892.375 L206.269 890.708 L210.945 890.708 L210.945 921.333 L218.584 921.333 L218.584 925.268 L198.677 925.268 L198.677 921.333 Z" fill="#000000" fill-rule="evenodd" fill-opacity="1" /><path clip-path="url(#clip330)" d="M238.028 893.787 Q234.417 893.787 232.588 897.352 Q230.783 900.893 230.783 908.023 Q230.783 915.129 232.588 918.694 Q234.417 922.236 238.028 922.236 Q241.662 922.236 243.468 918.694 Q245.297 915.129 245.297 908.023 Q245.297 900.893 243.468 897.352 Q241.662 893.787 238.028 893.787 M238.028 890.083 Q243.838 890.083 246.894 894.69 Q249.973 899.273 249.973 908.023 Q249.973 916.75 246.894 921.356 Q243.838 925.939 238.028 925.939 Q232.218 925.939 229.139 921.356 Q226.084 916.75 226.084 908.023 Q226.084 899.273 229.139 894.69 Q232.218 890.083 238.028 890.083 Z" fill="#000000" fill-rule="evenodd" fill-opacity="1" /><path clip-path="url(#clip330)" d="M262.649 873.088 L253.057 888.078 L262.649 888.078 L262.649 873.088 M261.652 869.778 L266.429 869.778 L266.429 888.078 L270.435 888.078 L270.435 891.237 L266.429 891.237 L266.429 897.858 L262.649 897.858 L262.649 891.237 L249.973 891.237 L249.973 887.57 L261.652 869.778 Z" fill="#000000" fill-rule="evenodd" fill-opacity="1" /><path clip-path="url(#clip330)" d="M53.3995 648.167 L61.0384 648.167 L61.0384 621.801 L52.7282 623.468 L52.7282 619.209 L60.9921 617.542 L65.668 617.542 L65.668 648.167 L73.3068 648.167 L73.3068 652.102 L53.3995 652.102 L53.3995 648.167 Z" fill="#000000" fill-rule="evenodd" fill-opacity="1" /><path clip-path="url(#clip330)" d="M82.7512 646.222 L87.6354 646.222 L87.6354 652.102 L82.7512 652.102 L82.7512 646.222 Z" fill="#000000" fill-rule="evenodd" fill-opacity="1" /><path clip-path="url(#clip330)" d="M97.8669 617.542 L116.223 617.542 L116.223 621.477 L102.149 621.477 L102.149 629.949 Q103.168 629.602 104.186 629.44 Q105.205 629.255 106.223 629.255 Q112.01 629.255 115.39 632.426 Q118.77 635.597 118.77 641.014 Q118.77 646.593 115.297 649.695 Q111.825 652.773 105.506 652.773 Q103.33 652.773 101.061 652.403 Q98.8159 652.032 96.4085 651.292 L96.4085 646.593 Q98.4919 647.727 100.714 648.283 Q102.936 648.838 105.413 648.838 Q109.418 648.838 111.756 646.732 Q114.094 644.625 114.094 641.014 Q114.094 637.403 111.756 635.296 Q109.418 633.19 105.413 633.19 Q103.538 633.19 101.663 633.607 Q99.8113 634.023 97.8669 634.903 L97.8669 617.542 Z" fill="#000000" fill-rule="evenodd" fill-opacity="1" /><path clip-path="url(#clip330)" d="M137.982 620.621 Q134.371 620.621 132.543 624.185 Q130.737 627.727 130.737 634.857 Q130.737 641.963 132.543 645.528 Q134.371 649.07 137.982 649.07 Q141.617 649.07 143.422 645.528 Q145.251 641.963 145.251 634.857 Q145.251 627.727 143.422 624.185 Q141.617 620.621 137.982 620.621 M137.982 616.917 Q143.793 616.917 146.848 621.523 Q149.927 626.107 149.927 634.857 Q149.927 643.583 146.848 648.19 Q143.793 652.773 137.982 652.773 Q132.172 652.773 129.094 648.19 Q126.038 643.583 126.038 634.857 Q126.038 626.107 129.094 621.523 Q132.172 616.917 137.982 616.917 Z" fill="#000000" fill-rule="evenodd" fill-opacity="1" /><path clip-path="url(#clip330)" d="M186.315 626.639 L175.737 637.264 L186.315 647.843 L183.561 650.644 L172.936 640.019 L162.311 650.644 L159.58 647.843 L170.135 637.264 L159.58 626.639 L162.311 623.838 L172.936 634.463 L183.561 623.838 L186.315 626.639 Z" fill="#000000" fill-rule="evenodd" fill-opacity="1" /><path clip-path="url(#clip330)" d="M198.677 648.167 L206.315 648.167 L206.315 621.801 L198.005 623.468 L198.005 619.209 L206.269 617.542 L210.945 617.542 L210.945 648.167 L218.584 648.167 L218.584 652.102 L198.677 652.102 L198.677 648.167 Z" fill="#000000" fill-rule="evenodd" fill-opacity="1" /><path clip-path="url(#clip330)" d="M238.028 620.621 Q234.417 620.621 232.588 624.185 Q230.783 627.727 230.783 634.857 Q230.783 641.963 232.588 645.528 Q234.417 649.07 238.028 649.07 Q241.662 649.07 243.468 645.528 Q245.297 641.963 245.297 634.857 Q245.297 627.727 243.468 624.185 Q241.662 620.621 238.028 620.621 M238.028 616.917 Q243.838 616.917 246.894 621.523 Q249.973 626.107 249.973 634.857 Q249.973 643.583 246.894 648.19 Q243.838 652.773 238.028 652.773 Q232.218 652.773 229.139 648.19 Q226.084 643.583 226.084 634.857 Q226.084 626.107 229.139 621.523 Q232.218 616.917 238.028 616.917 Z" fill="#000000" fill-rule="evenodd" fill-opacity="1" /><path clip-path="url(#clip330)" d="M262.649 599.922 L253.057 614.911 L262.649 614.911 L262.649 599.922 M261.652 596.612 L266.429 596.612 L266.429 614.911 L270.435 614.911 L270.435 618.071 L266.429 618.071 L266.429 624.692 L262.649 624.692 L262.649 618.071 L249.973 618.071 L249.973 614.404 L261.652 596.612 Z" fill="#000000" fill-rule="evenodd" fill-opacity="1" /><path clip-path="url(#clip330)" d="M56.6171 375.001 L72.9365 375.001 L72.9365 378.936 L50.9921 378.936 L50.9921 375.001 Q53.6541 372.246 58.2375 367.616 Q62.8439 362.964 64.0245 361.621 Q66.2698 359.098 67.1494 357.362 Q68.0522 355.602 68.0522 353.913 Q68.0522 351.158 66.1078 349.422 Q64.1865 347.686 61.0847 347.686 Q58.8856 347.686 56.4319 348.45 Q54.0014 349.214 51.2236 350.765 L51.2236 346.042 Q54.0477 344.908 56.5014 344.329 Q58.955 343.751 60.9921 343.751 Q66.3624 343.751 69.5568 346.436 Q72.7513 349.121 72.7513 353.612 Q72.7513 355.741 71.9411 357.663 Q71.1541 359.561 69.0476 362.153 Q68.4689 362.825 65.367 366.042 Q62.2652 369.237 56.6171 375.001 Z" fill="#000000" fill-rule="evenodd" fill-opacity="1" /><path clip-path="url(#clip330)" d="M82.7512 373.056 L87.6354 373.056 L87.6354 378.936 L82.7512 378.936 L82.7512 373.056 Z" fill="#000000" fill-rule="evenodd" fill-opacity="1" /><path clip-path="url(#clip330)" d="M107.821 347.454 Q104.209 347.454 102.381 351.019 Q100.575 354.561 100.575 361.69 Q100.575 368.797 102.381 372.362 Q104.209 375.903 107.821 375.903 Q111.455 375.903 113.26 372.362 Q115.089 368.797 115.089 361.69 Q115.089 354.561 113.26 351.019 Q111.455 347.454 107.821 347.454 M107.821 343.751 Q113.631 343.751 116.686 348.357 Q119.765 352.94 119.765 361.69 Q119.765 370.417 116.686 375.024 Q113.631 379.607 107.821 379.607 Q102.01 379.607 98.9317 375.024 Q95.8761 370.417 95.8761 361.69 Q95.8761 352.94 98.9317 348.357 Q102.01 343.751 107.821 343.751 Z" fill="#000000" fill-rule="evenodd" fill-opacity="1" /><path clip-path="url(#clip330)" d="M137.982 347.454 Q134.371 347.454 132.543 351.019 Q130.737 354.561 130.737 361.69 Q130.737 368.797 132.543 372.362 Q134.371 375.903 137.982 375.903 Q141.617 375.903 143.422 372.362 Q145.251 368.797 145.251 361.69 Q145.251 354.561 143.422 351.019 Q141.617 347.454 137.982 347.454 M137.982 343.751 Q143.793 343.751 146.848 348.357 Q149.927 352.94 149.927 361.69 Q149.927 370.417 146.848 375.024 Q143.793 379.607 137.982 379.607 Q132.172 379.607 129.094 375.024 Q126.038 370.417 126.038 361.69 Q126.038 352.94 129.094 348.357 Q132.172 343.751 137.982 343.751 Z" fill="#000000" fill-rule="evenodd" fill-opacity="1" /><path clip-path="url(#clip330)" d="M186.315 353.473 L175.737 364.098 L186.315 374.676 L183.561 377.477 L172.936 366.852 L162.311 377.477 L159.58 374.676 L170.135 364.098 L159.58 353.473 L162.311 350.672 L172.936 361.297 L183.561 350.672 L186.315 353.473 Z" fill="#000000" fill-rule="evenodd" fill-opacity="1" /><path clip-path="url(#clip330)" d="M198.677 375.001 L206.315 375.001 L206.315 348.635 L198.005 350.302 L198.005 346.042 L206.269 344.376 L210.945 344.376 L210.945 375.001 L218.584 375.001 L218.584 378.936 L198.677 378.936 L198.677 375.001 Z" fill="#000000" fill-rule="evenodd" fill-opacity="1" /><path clip-path="url(#clip330)" d="M238.028 347.454 Q234.417 347.454 232.588 351.019 Q230.783 354.561 230.783 361.69 Q230.783 368.797 232.588 372.362 Q234.417 375.903 238.028 375.903 Q241.662 375.903 243.468 372.362 Q245.297 368.797 245.297 361.69 Q245.297 354.561 243.468 351.019 Q241.662 347.454 238.028 347.454 M238.028 343.751 Q243.838 343.751 246.894 348.357 Q249.973 352.94 249.973 361.69 Q249.973 370.417 246.894 375.024 Q243.838 379.607 238.028 379.607 Q232.218 379.607 229.139 375.024 Q226.084 370.417 226.084 361.69 Q226.084 352.94 229.139 348.357 Q232.218 343.751 238.028 343.751 Z" fill="#000000" fill-rule="evenodd" fill-opacity="1" /><path clip-path="url(#clip330)" d="M262.649 326.755 L253.057 341.745 L262.649 341.745 L262.649 326.755 M261.652 323.445 L266.429 323.445 L266.429 341.745 L270.435 341.745 L270.435 344.905 L266.429 344.905 L266.429 351.525 L262.649 351.525 L262.649 344.905 L249.973 344.905 L249.973 341.237 L261.652 323.445 Z" fill="#000000" fill-rule="evenodd" fill-opacity="1" /><path clip-path="url(#clip330)" d="M248.528 32.3025 Q248.528 36.8933 245.126 41.1152 Q241.764 45.3371 236.272 47.9194 Q230.82 50.4608 224.959 50.4608 L210.695 50.4608 L205.489 71.4473 Q205.448 71.5703 205.325 72.1031 Q205.202 72.595 205.202 72.8819 Q205.202 73.9066 206.473 74.1526 Q207.784 74.3985 210.695 74.3985 Q212.58 74.3985 212.867 74.7264 Q213.031 74.9314 213.031 75.3003 Q213.031 75.8741 212.867 76.284 Q212.703 76.6529 212.375 76.7759 Q212.088 76.8989 211.883 76.9399 Q211.678 76.9808 211.35 76.9808 Q210.49 76.9808 208.645 76.8989 Q206.842 76.8169 205.899 76.8169 L200.529 76.7349 L189.872 76.9808 Q188.601 76.9808 188.601 75.9561 Q188.601 75.1773 188.929 74.8494 Q189.257 74.4805 189.626 74.4395 Q189.995 74.3985 190.938 74.3985 Q192.987 74.3985 194.217 74.2756 Q195.447 74.1526 196.225 73.9886 Q197.045 73.7837 197.455 73.2098 Q197.906 72.636 198.111 72.1441 Q198.316 71.6112 198.603 70.4226 L209.834 25.3344 Q210.162 23.9817 210.162 23.7768 Q210.162 23.0799 209.752 22.834 Q209.383 22.5471 208.317 22.4241 Q206.268 22.2602 204.71 22.2602 Q203.685 22.2602 203.276 22.2192 Q202.907 22.1782 202.579 21.9732 Q202.292 21.7273 202.292 21.2354 Q202.292 20.4566 202.62 20.1287 Q202.989 19.7598 203.398 19.7188 Q203.808 19.6368 204.792 19.6368 L232.009 19.6368 Q239.838 19.6368 244.183 23.3669 Q248.528 27.0969 248.528 32.3025 M240.74 30.2941 Q240.74 22.2602 229.304 22.2602 L221.27 22.2602 Q218.605 22.2602 217.95 22.752 Q217.294 23.2029 216.72 25.4573 L211.022 48.2883 L222.868 48.2883 Q230.82 48.2883 235.78 43.8205 Q238.034 41.7711 239.387 37.5082 Q240.74 33.2453 240.74 30.2941 Z" fill="#000000" fill-rule="evenodd" fill-opacity="1" /><path clip-path="url(#clip330)" d="M285.538 45.3371 Q285.538 47.5096 284.103 48.9032 Q282.709 50.2968 280.906 50.2968 Q279.348 50.2968 278.528 49.3951 Q277.709 48.4933 277.709 47.3456 Q277.709 45.706 278.979 44.3534 Q280.25 43.0007 282.094 42.7138 Q280.742 41.7301 278.569 41.7301 Q275.003 41.7301 271.847 44.4763 Q270.454 45.747 268.937 48.0834 Q267.42 50.3788 267.133 51.3625 L264.469 62.3067 Q264.223 63.5364 262.707 69.4388 Q261.231 75.3003 261.108 75.5462 Q260.698 76.6939 259.796 77.3088 Q258.895 77.9236 257.993 77.9236 Q256.968 77.9236 256.271 77.3088 Q255.574 76.6939 255.574 75.6282 Q255.574 75.4642 255.697 74.8494 Q255.82 74.2346 256.025 73.3738 Q256.23 72.513 256.312 72.0211 L261.19 52.6332 Q262.092 49.1081 262.297 48.0014 Q262.543 46.8537 262.543 45.5831 Q262.543 43.3696 261.846 42.5499 Q261.149 41.7301 259.919 41.7301 Q257.788 41.7301 256.394 44.2714 Q255.001 46.8127 253.812 51.7314 Q253.443 53.0841 253.197 53.371 Q252.992 53.6579 252.377 53.6579 Q251.353 53.617 251.353 52.7972 Q251.353 52.5922 251.68 51.2806 Q252.008 49.9279 252.623 47.9604 Q253.279 45.952 253.976 44.6813 Q254.386 43.8205 254.755 43.2467 Q255.124 42.6728 255.861 41.7711 Q256.599 40.8693 257.706 40.3774 Q258.813 39.8855 260.165 39.8855 Q263.116 39.8855 265.207 41.6891 Q267.338 43.4926 267.83 46.3209 Q268.855 44.8452 270.126 43.5746 Q271.396 42.2629 273.733 41.0742 Q276.069 39.8855 278.569 39.8855 Q281.685 39.8855 283.611 41.4841 Q285.538 43.0417 285.538 45.3371 Z" fill="#000000" fill-rule="evenodd" fill-opacity="1" /><path clip-path="url(#clip330)" d="M327.763 54.0678 Q327.763 58.5357 325.796 62.9625 Q323.828 67.3484 320.672 70.6275 Q317.557 73.8657 313.458 75.9151 Q309.359 77.9236 305.26 77.9236 Q299.399 77.9236 295.587 73.9476 Q291.816 69.9307 291.816 63.7003 Q291.816 57.8798 295.054 52.3463 Q298.333 46.7717 303.58 43.3286 Q308.826 39.8855 314.319 39.8855 Q320.098 39.8855 323.91 43.7795 Q327.763 47.6735 327.763 54.0678 M321.615 50.7887 Q321.615 46.8127 319.688 44.2714 Q317.762 41.7301 314.237 41.7301 Q313.212 41.7301 312.023 42.058 Q310.835 42.3449 309.277 43.1237 Q307.76 43.9025 306.039 45.5421 Q304.358 47.1406 302.883 49.436 Q300.956 52.4693 299.481 58.0438 Q298.046 63.5773 298.046 66.8975 Q298.046 71.4883 300.177 73.7837 Q302.309 76.0381 305.342 76.0381 Q308.293 76.0381 311.408 73.9886 Q314.565 71.8982 316.737 68.3321 Q318.91 64.6431 320.262 59.2325 Q321.615 53.7809 321.615 50.7887 Z" fill="#000000" fill-rule="evenodd" fill-opacity="1" /><path clip-path="url(#clip330)" d="M363.033 53.289 Q363.033 59.1915 360.041 64.971 Q357.09 70.7095 352.335 74.3165 Q347.621 77.9236 342.785 77.9236 Q338.071 77.9236 335.079 74.3165 Q332.127 70.6685 332.127 64.725 Q332.127 62.6346 332.373 61.159 Q332.619 59.6834 333.48 56.2403 L340.366 28.8594 Q341.555 23.7358 341.555 23.6948 Q341.555 23.2029 341.35 22.957 Q341.186 22.6701 340.202 22.4651 Q339.219 22.2602 337.333 22.2602 Q336.554 22.2602 336.185 22.2192 Q335.857 22.1782 335.571 21.9732 Q335.325 21.7273 335.325 21.2354 Q335.325 20.5386 335.612 20.1697 Q335.939 19.7598 336.185 19.6778 Q336.431 19.5959 336.923 19.5549 Q337.62 19.5139 339.956 19.3089 Q342.293 19.063 344.301 18.899 Q346.31 18.7351 347.171 18.7351 Q347.662 18.7351 347.908 18.981 Q348.195 19.186 348.195 19.4319 L348.236 19.6368 L342.047 44.9272 Q346.925 39.8855 351.884 39.8855 Q356.844 39.8855 359.918 43.6975 Q363.033 47.5096 363.033 53.289 M356.967 49.6 Q356.967 45.706 355.491 43.7385 Q354.057 41.7301 351.679 41.7301 Q349.671 41.7301 347.048 43.2467 Q344.424 44.7633 341.637 48.4523 Q341.104 49.1491 340.899 49.559 Q340.735 49.9689 340.366 51.3625 L338.522 59.1095 Q337.169 64.3971 337.169 67.5943 Q337.169 71.9392 338.768 73.9886 Q340.366 76.0381 342.785 76.0381 Q345.326 76.0381 347.99 73.7837 Q350.655 71.5293 352.704 67.4303 Q353.975 64.725 355.45 58.9046 Q356.967 53.0431 356.967 49.6 Z" fill="#000000" fill-rule="evenodd" fill-opacity="1" /><path clip-path="url(#clip330)" d="M385.388 19.6368 L373.296 68.1681 Q372.804 70.0946 372.804 72.1851 Q372.804 76.0381 375.346 76.0381 Q376.534 76.0381 377.518 75.2593 Q378.502 74.4395 379.24 72.8409 Q380.018 71.2014 380.51 69.6438 Q381.043 68.0862 381.699 65.6678 Q381.904 64.725 382.109 64.4381 Q382.314 64.1512 382.888 64.1512 Q383.912 64.1512 383.912 64.971 Q382.888 70.0127 381.371 73.2098 Q379.158 77.9236 375.059 77.9236 Q371.985 77.9236 369.689 75.7922 Q367.435 73.6197 367.435 70.1766 Q367.435 68.865 367.845 67.3074 L378.42 25.3344 L378.707 23.6948 Q378.707 23.2439 378.543 22.998 Q378.379 22.752 377.395 22.5061 Q376.452 22.2602 374.567 22.2602 Q373.788 22.2602 373.419 22.2192 Q373.091 22.1782 372.763 21.9732 Q372.476 21.7683 372.476 21.3174 Q372.476 20.5796 372.763 20.1697 Q373.091 19.7598 373.337 19.6778 Q373.583 19.5959 374.075 19.5549 Q374.772 19.5139 377.108 19.3089 Q379.445 19.063 381.453 18.899 Q383.462 18.7351 384.322 18.7351 Q384.814 18.7351 385.06 18.981 Q385.347 19.186 385.388 19.4319 L385.388 19.6368 Z" fill="#000000" fill-rule="evenodd" fill-opacity="1" /><path clip-path="url(#clip330)" d="M425.137 67.2664 Q425.465 67.6353 425.465 68.0042 Q425.465 68.3731 424.645 69.4388 Q423.866 70.5045 422.186 71.9392 Q420.505 73.3738 418.333 74.7264 Q416.16 76.0791 412.963 76.9808 Q409.766 77.9236 406.405 77.9236 Q400.379 77.9236 396.772 73.6197 Q393.206 69.3158 393.206 62.7166 Q393.206 58.4947 394.6 54.7647 Q395.994 50.9936 398.248 48.3293 Q400.543 45.665 403.413 43.7385 Q406.323 41.7711 409.356 40.8283 Q412.389 39.8855 415.218 39.8855 Q419.357 39.8855 421.776 41.976 Q424.194 44.0665 424.194 47.0177 Q424.194 47.7145 423.989 48.5753 Q423.825 49.436 423.251 50.7887 Q422.719 52.1413 421.325 53.494 Q419.931 54.8056 417.882 55.6664 Q413.332 57.5929 405.052 57.5929 L400.584 57.5929 Q399.273 62.8805 399.273 66.3236 Q399.273 67.6763 399.519 69.0699 Q399.765 70.4226 400.42 72.1441 Q401.117 73.8657 402.675 74.9724 Q404.273 76.0381 406.569 76.0381 Q407.307 76.0381 408.085 75.9971 Q408.905 75.9561 410.955 75.5052 Q413.045 75.0543 414.89 74.2756 Q416.734 73.4968 419.071 71.8162 Q421.448 70.0946 423.333 67.7583 Q423.989 66.8975 424.44 66.8975 Q424.809 66.8975 425.137 67.2664 M421.407 47.0177 Q421.407 44.7633 419.726 43.2467 Q418.087 41.7301 415.218 41.7301 Q414.316 41.7301 413.209 41.935 Q412.102 42.14 410.258 43.0007 Q408.454 43.8615 406.856 45.2961 Q405.257 46.6898 403.659 49.436 Q402.06 52.1413 401.117 55.7484 L404.56 55.7484 Q405.749 55.7484 406.61 55.7484 Q407.471 55.7074 409.356 55.5435 Q411.283 55.3795 412.676 55.0926 Q414.07 54.7647 415.832 54.1088 Q417.595 53.453 418.702 52.5922 Q419.849 51.6905 420.628 50.2558 Q421.407 48.8212 421.407 47.0177 Z" fill="#000000" fill-rule="evenodd" fill-opacity="1" /><path clip-path="url(#clip330)" d="M499.035 64.971 Q499.035 65.2989 498.666 66.5696 Q498.297 67.8402 497.395 69.8077 Q496.535 71.7752 495.305 73.5787 Q494.116 75.3413 492.149 76.6529 Q490.222 77.9236 488.009 77.9236 Q485.058 77.9236 483.09 75.9561 Q481.123 73.9886 481.123 71.0374 Q481.123 69.4388 482.229 66.4056 Q487.435 52.5512 487.435 47.5915 Q487.435 41.7301 482.885 41.7301 Q480.303 41.7301 477.966 42.7958 Q475.63 43.8615 474.113 45.3371 Q472.597 46.8127 471.408 48.4933 Q470.219 50.1739 469.687 51.2806 Q469.195 52.3873 469.072 52.8791 L464.03 73.1279 Q463.62 74.8494 463.333 75.6692 Q463.046 76.489 462.268 77.1858 Q461.489 77.9236 460.259 77.9236 Q459.234 77.9236 458.497 77.3088 Q457.8 76.6939 457.8 75.6282 Q457.8 75.4642 458.005 74.6035 Q458.21 73.7427 458.497 72.554 Q458.783 71.3653 458.906 70.6685 Q460.382 65.094 460.587 64.3152 L462.923 54.5597 Q464.194 49.723 464.194 47.5915 Q464.194 41.7301 459.644 41.7301 Q457.39 41.7301 455.258 42.5908 Q453.168 43.4106 451.733 44.5583 Q450.299 45.706 448.987 47.3046 Q447.716 48.8622 447.06 49.9279 Q446.446 50.9527 445.954 51.9774 L444.888 56.1583 Q444.642 57.306 443.453 61.7738 L441.609 69.3568 Q440.297 75.0134 440.01 75.5462 Q439.6 76.6939 438.699 77.3088 Q437.797 77.9236 436.895 77.9236 Q435.87 77.9236 435.174 77.3088 Q434.477 76.6939 434.477 75.6282 Q434.477 75.4642 434.6 74.8494 Q434.723 74.2346 434.928 73.3738 Q435.133 72.513 435.215 72.0211 L440.092 52.6332 Q440.994 49.1081 441.199 48.0014 Q441.445 46.8537 441.445 45.5831 Q441.445 41.7301 438.822 41.7301 Q436.69 41.7301 435.297 44.2714 Q433.903 46.8127 432.714 51.7314 Q432.345 53.0841 432.099 53.371 Q431.894 53.6579 431.28 53.6579 Q430.255 53.617 430.255 52.7972 Q430.255 52.5922 430.583 51.2806 Q430.911 49.9689 431.526 48.0014 Q432.181 45.9929 432.878 44.6813 Q433.288 43.8205 433.657 43.2467 Q434.026 42.6728 434.764 41.7711 Q435.502 40.8693 436.608 40.3774 Q437.715 39.8855 439.068 39.8855 Q442.06 39.8855 444.273 41.812 Q446.528 43.7385 446.815 47.1816 Q452.266 39.8855 459.89 39.8855 Q464.194 39.8855 466.776 42.058 Q469.195 44.1484 469.482 48.0014 Q475.138 39.8855 483.172 39.8855 Q487.804 39.8855 490.304 42.3039 Q492.805 44.6813 492.805 48.8622 Q492.805 51.0346 491.698 55.1745 Q490.591 59.2735 489.853 61.3229 Q489.115 63.3724 487.681 67.3074 Q486.164 71.0784 486.164 73.2918 Q486.164 74.7264 486.656 75.3823 Q487.148 76.0381 488.214 76.0381 Q489.853 76.0381 491.288 75.0953 Q492.723 74.1116 493.747 72.513 Q494.813 70.8734 495.51 69.2339 Q496.207 67.5533 496.74 65.6678 Q497.067 64.6431 497.231 64.3971 Q497.436 64.1512 498.01 64.1512 Q499.035 64.1512 499.035 64.971 Z" fill="#000000" fill-rule="evenodd" fill-opacity="1" /><path clip-path="url(#clip330)" d="M525.428 76.9808 Q525.428 75.4642 525.551 75.0134 Q525.715 74.5625 526.37 73.8657 L542.479 55.9124 Q551.292 45.9929 551.292 37.3442 Q551.292 31.7287 548.341 27.7117 Q545.43 23.6948 540.061 23.6948 Q536.372 23.6948 533.257 25.9492 Q530.141 28.2036 528.707 32.2206 Q528.953 32.1386 529.814 32.1386 Q531.904 32.1386 533.052 33.4502 Q534.24 34.7619 534.24 36.5244 Q534.24 38.7788 532.765 39.8855 Q531.33 40.9513 529.896 40.9513 Q529.322 40.9513 528.543 40.8283 Q527.805 40.7053 526.616 39.5576 Q525.428 38.3689 525.428 36.2785 Q525.428 30.417 529.855 25.7442 Q534.322 21.0715 541.127 21.0715 Q548.833 21.0715 553.874 25.6623 Q558.957 30.2121 558.957 37.3442 Q558.957 39.8446 558.178 42.14 Q557.44 44.3944 556.416 46.1569 Q555.432 47.9194 552.727 50.7477 Q550.021 53.576 547.849 55.5844 Q545.676 57.5929 540.799 61.8558 L531.904 70.5045 L547.029 70.5045 Q554.407 70.5045 554.981 69.8487 Q555.801 68.66 556.826 62.3887 L558.957 62.3887 L556.58 76.9808 L525.428 76.9808 Z" fill="#000000" fill-rule="evenodd" fill-opacity="1" /><path clip-path="url(#clip330)" d="M568.269 75.6282 Q566.998 74.2756 566.998 72.513 Q566.998 70.7505 568.269 69.4798 Q569.539 68.1681 571.466 68.1681 Q573.31 68.1681 574.54 69.3978 Q575.811 70.5865 575.811 72.554 Q575.811 74.4805 574.458 75.7512 Q573.146 76.9808 571.466 76.9808 Q569.539 76.9808 568.269 75.6282 Z" fill="#000000" fill-rule="evenodd" fill-opacity="1" /><path clip-path="url(#clip330)" d="M590.097 76.9808 Q590.097 75.4642 590.22 75.0134 Q590.384 74.5625 591.04 73.8657 L607.149 55.9124 Q615.961 45.9929 615.961 37.3442 Q615.961 31.7287 613.01 27.7117 Q610.1 23.6948 604.73 23.6948 Q601.041 23.6948 597.926 25.9492 Q594.811 28.2036 593.376 32.2206 Q593.622 32.1386 594.483 32.1386 Q596.573 32.1386 597.721 33.4502 Q598.91 34.7619 598.91 36.5244 Q598.91 38.7788 597.434 39.8855 Q596 40.9513 594.565 40.9513 Q593.991 40.9513 593.212 40.8283 Q592.475 40.7053 591.286 39.5576 Q590.097 38.3689 590.097 36.2785 Q590.097 30.417 594.524 25.7442 Q598.992 21.0715 605.796 21.0715 Q613.502 21.0715 618.544 25.6623 Q623.626 30.2121 623.626 37.3442 Q623.626 39.8446 622.848 42.14 Q622.11 44.3944 621.085 46.1569 Q620.101 47.9194 617.396 50.7477 Q614.691 53.576 612.518 55.5844 Q610.346 57.5929 605.468 61.8558 L596.573 70.5045 L611.699 70.5045 Q619.077 70.5045 619.65 69.8487 Q620.47 68.66 621.495 62.3887 L623.626 62.3887 L621.249 76.9808 L590.097 76.9808 Z" fill="#000000" fill-rule="evenodd" fill-opacity="1" /><path clip-path="url(#clip330)" d="M656.27 75.7102 Q654.958 74.3985 654.958 72.554 Q654.958 70.7095 656.27 69.3978 Q657.581 68.0862 659.426 68.0862 Q661.27 68.0862 662.582 69.3978 Q663.894 70.7095 663.894 72.554 Q663.894 74.3985 662.582 75.7102 Q661.27 76.9808 659.426 76.9808 Q657.581 76.9808 656.27 75.7102 M656.27 48.4113 Q654.958 47.0997 654.958 45.2551 Q654.958 43.4106 656.27 42.099 Q657.581 40.7873 659.426 40.7873 Q661.27 40.7873 662.582 42.099 Q663.894 43.4106 663.894 45.2551 Q663.894 47.0997 662.582 48.4113 Q661.27 49.682 659.426 49.682 Q657.581 49.682 656.27 48.4113 Z" fill="#000000" fill-rule="evenodd" fill-opacity="1" /><path clip-path="url(#clip330)" d="M765.298 23.5718 Q765.298 25.8262 763.863 27.2199 Q762.469 28.6135 760.707 28.6135 Q759.436 28.6135 758.493 27.8347 Q757.592 27.0559 757.592 25.7033 Q757.592 24.3096 758.657 22.834 Q759.723 21.3584 762.142 21.1534 Q760.543 19.6368 758.002 19.6368 Q756.731 19.6368 755.665 20.4566 Q754.64 21.2354 754.067 22.5061 Q753.452 23.8178 752.058 31.2368 Q751.607 33.6552 751.197 35.9916 Q750.787 38.328 750.296 40.7873 L757.264 40.7873 Q758.166 40.7873 758.534 40.8283 Q758.903 40.8693 759.19 41.0742 Q759.518 41.2792 759.518 41.7301 Q759.518 42.8778 758.985 43.1647 Q758.493 43.4106 757.018 43.4106 L749.804 43.4106 L744.762 70.0127 Q744.639 70.7915 744.106 73.2508 Q743.614 75.6692 742.426 79.6451 Q741.237 83.6621 740.048 86.0395 Q739.392 87.3921 738.532 88.6628 Q737.712 89.9744 736.523 91.2861 Q735.335 92.5978 733.777 93.3766 Q732.219 94.1963 730.58 94.1963 Q727.793 94.1963 725.62 92.6387 Q723.448 91.0812 723.448 88.4169 Q723.448 86.1624 724.841 84.7688 Q726.276 83.3752 728.038 83.3752 Q729.309 83.3752 730.211 84.154 Q731.154 84.9328 731.154 86.2854 Q731.154 86.8593 730.949 87.5151 Q730.744 88.1709 730.293 88.9087 Q729.842 89.6875 728.858 90.2204 Q727.874 90.7532 726.522 90.8352 Q728.12 92.3518 730.58 92.3518 Q731.359 92.3518 732.055 92.0239 Q732.752 91.737 733.326 90.9992 Q733.941 90.2614 734.392 89.5236 Q734.843 88.8267 735.294 87.4741 Q735.744 86.1624 736.031 85.1787 Q736.318 84.195 736.687 82.4324 Q737.097 80.6699 737.302 79.6042 Q737.507 78.5794 737.876 76.571 L744.147 43.4106 L738.614 43.4106 Q737.63 43.4106 737.22 43.3696 Q736.851 43.3286 736.564 43.1237 Q736.277 42.8778 736.277 42.3859 Q736.277 41.6071 736.605 41.2792 Q736.974 40.9103 737.384 40.8693 Q737.794 40.7873 738.778 40.7873 L744.598 40.7873 Q746.566 30.417 747.344 27.6298 Q748.246 24.6785 749.64 22.6291 Q751.033 20.5386 752.591 19.5549 Q754.149 18.5711 755.419 18.2022 Q756.731 17.7923 758.002 17.7923 Q760.871 17.7923 763.084 19.3499 Q765.298 20.8665 765.298 23.5718 Z" fill="#000000" fill-rule="evenodd" fill-opacity="1" /><path clip-path="url(#clip330)" d="M776.597 55.9943 Q776.597 41.812 781.885 30.376 Q784.139 25.5803 787.296 21.5633 Q790.452 17.5464 792.542 15.7839 Q794.633 14.0213 795.207 14.0213 Q796.026 14.0213 796.067 14.8411 Q796.067 15.251 794.961 16.2757 Q781.434 30.0481 781.475 55.9943 Q781.475 82.0225 794.633 95.2621 Q796.067 96.6967 796.067 97.1476 Q796.067 97.9674 795.207 97.9674 Q794.633 97.9674 792.624 96.2868 Q790.616 94.6062 787.501 90.7532 Q784.385 86.9002 782.131 82.1865 Q776.597 70.7505 776.597 55.9943 Z" fill="#000000" fill-rule="evenodd" fill-opacity="1" /><path clip-path="url(#clip330)" d="M844.256 45.4191 Q844.256 47.7145 842.821 49.0262 Q841.386 50.2968 839.747 50.2968 Q838.189 50.2968 837.37 49.3951 Q836.55 48.4933 836.55 47.3456 Q836.55 45.788 837.697 44.4354 Q838.845 43.0827 840.567 42.7958 Q838.886 41.7301 836.386 41.7301 Q834.746 41.7301 833.312 42.5908 Q831.918 43.4516 831.057 44.5583 Q830.237 45.665 829.5 47.2636 Q828.803 48.8212 828.516 49.764 Q828.27 50.6657 828.065 51.6495 L825.196 63.1265 Q823.802 68.578 823.802 70.5045 Q823.802 72.8819 824.95 74.4805 Q826.097 76.0381 828.393 76.0381 Q829.295 76.0381 830.319 75.7922 Q831.344 75.5052 832.656 74.7674 Q834.008 73.9886 835.197 72.8409 Q836.427 71.6522 837.615 69.6438 Q838.804 67.6353 839.583 65.053 Q839.829 64.1512 840.649 64.1512 Q841.673 64.1512 841.673 64.971 Q841.673 65.6678 841.1 67.1434 Q840.567 68.578 839.378 70.4635 Q838.23 72.3081 836.714 73.9886 Q835.197 75.6282 832.943 76.7759 Q830.688 77.9236 828.229 77.9236 Q824.704 77.9236 822.367 76.0381 Q820.031 74.1526 819.17 71.5293 Q818.965 71.8982 818.678 72.39 Q818.391 72.8819 817.531 73.9886 Q816.711 75.0543 815.768 75.8741 Q814.825 76.6529 813.35 77.2678 Q811.915 77.9236 810.358 77.9236 Q808.39 77.9236 806.628 77.3497 Q804.906 76.7759 803.676 75.4642 Q802.447 74.1526 802.447 72.3491 Q802.447 70.3406 803.799 68.9469 Q805.193 67.5123 807.078 67.5123 Q808.267 67.5123 809.21 68.2091 Q810.194 68.906 810.194 70.4226 Q810.194 72.1031 809.046 73.3738 Q807.898 74.6445 806.259 74.9724 Q807.939 76.0381 810.44 76.0381 Q813.145 76.0381 815.276 73.6607 Q817.408 71.2833 818.432 67.3074 Q820.974 57.7569 821.958 53.494 Q822.941 49.1901 822.941 47.3456 Q822.941 45.624 822.49 44.4354 Q822.04 43.2467 821.261 42.7138 Q820.523 42.14 819.826 41.935 Q819.17 41.7301 818.432 41.7301 Q817.203 41.7301 815.809 42.2219 Q814.457 42.7138 812.817 43.8615 Q811.218 44.9682 809.702 47.2636 Q808.185 49.559 807.16 52.7152 Q806.955 53.6579 806.054 53.6579 Q805.07 53.617 805.07 52.7972 Q805.07 52.1004 805.603 50.6657 Q806.177 49.1901 807.324 47.3456 Q808.513 45.5011 810.03 43.8615 Q811.587 42.1809 813.842 41.0332 Q816.137 39.8855 818.596 39.8855 Q819.703 39.8855 820.769 40.1315 Q821.876 40.3364 823.187 40.9513 Q824.54 41.5661 825.729 42.9188 Q826.917 44.2714 827.655 46.2389 Q828.147 45.2961 828.803 44.3944 Q829.5 43.4926 830.565 42.3859 Q831.672 41.2382 833.189 40.5824 Q834.746 39.8855 836.468 39.8855 Q838.148 39.8855 839.788 40.3364 Q841.427 40.7463 842.821 42.099 Q844.256 43.4106 844.256 45.4191 Z" fill="#000000" fill-rule="evenodd" fill-opacity="1" /><path clip-path="url(#clip330)" d="M852.337 97.1476 Q852.337 96.7377 853.402 95.7129 Q866.929 81.9405 866.929 55.9943 Q866.929 29.9661 853.935 16.8086 Q852.337 15.292 852.337 14.8411 Q852.337 14.0213 853.156 14.0213 Q853.73 14.0213 855.739 15.7019 Q857.788 17.3824 860.862 21.2354 Q863.978 25.0884 866.273 29.8022 Q871.806 41.2382 871.806 55.9943 Q871.806 70.1766 866.519 81.6126 Q864.264 86.4084 861.108 90.4253 Q857.952 94.4423 855.862 96.2048 Q853.771 97.9674 853.156 97.9674 Q852.337 97.9674 852.337 97.1476 Z" fill="#000000" fill-rule="evenodd" fill-opacity="1" /><path clip-path="url(#clip330)" d="M907.86 64.2332 Q907.942 63.2084 909.541 63.2084 L960.982 63.2084 Q963.401 63.2084 963.442 64.1512 Q963.442 65.1759 961.146 65.1349 L910.115 65.1349 Q907.86 65.1759 907.86 64.2332 M907.86 47.8375 Q907.86 46.8127 909.623 46.8537 L960.9 46.8537 Q963.401 46.8537 963.442 47.8375 Q963.442 48.7802 961.31 48.7802 L909.541 48.7802 Q907.86 48.7802 907.86 47.8375 Z" fill="#000000" fill-rule="evenodd" fill-opacity="1" /><path clip-path="url(#clip330)" d="M1037.63 45.4191 Q1037.63 47.7145 1036.19 49.0262 Q1034.76 50.2968 1033.12 50.2968 Q1031.56 50.2968 1030.74 49.3951 Q1029.92 48.4933 1029.92 47.3456 Q1029.92 45.788 1031.07 44.4354 Q1032.22 43.0827 1033.94 42.7958 Q1032.26 41.7301 1029.76 41.7301 Q1028.12 41.7301 1026.69 42.5908 Q1025.29 43.4516 1024.43 44.5583 Q1023.61 45.665 1022.87 47.2636 Q1022.18 48.8212 1021.89 49.764 Q1021.64 50.6657 1021.44 51.6495 L1018.57 63.1265 Q1017.18 68.578 1017.18 70.5045 Q1017.18 72.8819 1018.32 74.4805 Q1019.47 76.0381 1021.77 76.0381 Q1022.67 76.0381 1023.69 75.7922 Q1024.72 75.5052 1026.03 74.7674 Q1027.38 73.9886 1028.57 72.8409 Q1029.8 71.6522 1030.99 69.6438 Q1032.18 67.6353 1032.96 65.053 Q1033.2 64.1512 1034.02 64.1512 Q1035.05 64.1512 1035.05 64.971 Q1035.05 65.6678 1034.47 67.1434 Q1033.94 68.578 1032.75 70.4635 Q1031.6 72.3081 1030.09 73.9886 Q1028.57 75.6282 1026.32 76.7759 Q1024.06 77.9236 1021.6 77.9236 Q1018.08 77.9236 1015.74 76.0381 Q1013.4 74.1526 1012.54 71.5293 Q1012.34 71.8982 1012.05 72.39 Q1011.77 72.8819 1010.9 73.9886 Q1010.08 75.0543 1009.14 75.8741 Q1008.2 76.6529 1006.72 77.2678 Q1005.29 77.9236 1003.73 77.9236 Q1001.76 77.9236 1000 77.3497 Q998.28 76.7759 997.05 75.4642 Q995.82 74.1526 995.82 72.3491 Q995.82 70.3406 997.173 68.9469 Q998.567 67.5123 1000.45 67.5123 Q1001.64 67.5123 1002.58 68.2091 Q1003.57 68.906 1003.57 70.4226 Q1003.57 72.1031 1002.42 73.3738 Q1001.27 74.6445 999.632 74.9724 Q1001.31 76.0381 1003.81 76.0381 Q1006.52 76.0381 1008.65 73.6607 Q1010.78 71.2833 1011.81 67.3074 Q1014.35 57.7569 1015.33 53.494 Q1016.31 49.1901 1016.31 47.3456 Q1016.31 45.624 1015.86 44.4354 Q1015.41 43.2467 1014.63 42.7138 Q1013.9 42.14 1013.2 41.935 Q1012.54 41.7301 1011.81 41.7301 Q1010.58 41.7301 1009.18 42.2219 Q1007.83 42.7138 1006.19 43.8615 Q1004.59 44.9682 1003.08 47.2636 Q1001.56 49.559 1000.53 52.7152 Q1000.33 53.6579 999.427 53.6579 Q998.444 53.617 998.444 52.7972 Q998.444 52.1004 998.976 50.6657 Q999.55 49.1901 1000.7 47.3456 Q1001.89 45.5011 1003.4 43.8615 Q1004.96 42.1809 1007.22 41.0332 Q1009.51 39.8855 1011.97 39.8855 Q1013.08 39.8855 1014.14 40.1315 Q1015.25 40.3364 1016.56 40.9513 Q1017.91 41.5661 1019.1 42.9188 Q1020.29 44.2714 1021.03 46.2389 Q1021.52 45.2961 1022.18 44.3944 Q1022.87 43.4926 1023.94 42.3859 Q1025.05 41.2382 1026.56 40.5824 Q1028.12 39.8855 1029.84 39.8855 Q1031.52 39.8855 1033.16 40.3364 Q1034.8 40.7463 1036.19 42.099 Q1037.63 43.4106 1037.63 45.4191 Z" fill="#000000" fill-rule="evenodd" fill-opacity="1" /><path clip-path="url(#clip330)" d="M1046.19 51.8752 Q1046.19 50.8136 1046.27 50.498 Q1046.39 50.1824 1046.85 49.6946 L1058.12 37.1273 Q1064.29 30.1837 1064.29 24.1296 Q1064.29 20.1987 1062.23 17.3868 Q1060.19 14.575 1056.43 14.575 Q1053.85 14.575 1051.67 16.1531 Q1049.49 17.7312 1048.48 20.543 Q1048.65 20.4856 1049.26 20.4856 Q1050.72 20.4856 1051.52 21.4038 Q1052.36 22.3219 1052.36 23.5557 Q1052.36 25.1338 1051.32 25.9085 Q1050.32 26.6545 1049.31 26.6545 Q1048.91 26.6545 1048.37 26.5684 Q1047.85 26.4824 1047.02 25.679 Q1046.19 24.8469 1046.19 23.3836 Q1046.19 19.2805 1049.29 16.0096 Q1052.41 12.7387 1057.18 12.7387 Q1062.57 12.7387 1066.1 15.9522 Q1069.66 19.1371 1069.66 24.1296 Q1069.66 25.8798 1069.11 27.4866 Q1068.6 29.0647 1067.88 30.2985 Q1067.19 31.5322 1065.3 33.512 Q1063.4 35.4918 1061.88 36.8977 Q1060.36 38.3037 1056.95 41.2877 L1050.72 47.3418 L1061.31 47.3418 Q1066.47 47.3418 1066.87 46.8827 Q1067.45 46.0506 1068.16 41.6607 L1069.66 41.6607 L1067.99 51.8752 L1046.19 51.8752 Z" fill="#000000" fill-rule="evenodd" fill-opacity="1" /><path clip-path="url(#clip330)" d="M1157.1 54.8056 Q1157.59 55.2975 1157.59 55.9943 Q1157.59 56.6912 1157.1 57.183 Q1156.6 57.6749 1155.91 57.6749 L1103.36 57.6749 Q1102.66 57.6749 1102.17 57.183 Q1101.68 56.6912 1101.68 55.9943 Q1101.68 55.2975 1102.17 54.8056 Q1102.66 54.3138 1103.36 54.3138 L1155.91 54.3138 Q1156.6 54.3138 1157.1 54.8056 Z" fill="#000000" fill-rule="evenodd" fill-opacity="1" /><path clip-path="url(#clip330)" d="M1189.64 76.9808 Q1189.64 75.4642 1189.76 75.0134 Q1189.93 74.5625 1190.58 73.8657 L1206.69 55.9124 Q1215.5 45.9929 1215.5 37.3442 Q1215.5 31.7287 1212.55 27.7117 Q1209.64 23.6948 1204.27 23.6948 Q1200.58 23.6948 1197.47 25.9492 Q1194.35 28.2036 1192.92 32.2206 Q1193.16 32.1386 1194.03 32.1386 Q1196.12 32.1386 1197.26 33.4502 Q1198.45 34.7619 1198.45 36.5244 Q1198.45 38.7788 1196.98 39.8855 Q1195.54 40.9513 1194.11 40.9513 Q1193.53 40.9513 1192.75 40.8283 Q1192.02 40.7053 1190.83 39.5576 Q1189.64 38.3689 1189.64 36.2785 Q1189.64 30.417 1194.07 25.7442 Q1198.53 21.0715 1205.34 21.0715 Q1213.04 21.0715 1218.09 25.6623 Q1223.17 30.2121 1223.17 37.3442 Q1223.17 39.8446 1222.39 42.14 Q1221.65 44.3944 1220.63 46.1569 Q1219.64 47.9194 1216.94 50.7477 Q1214.23 53.576 1212.06 55.5844 Q1209.89 57.5929 1205.01 61.8558 L1196.12 70.5045 L1211.24 70.5045 Q1218.62 70.5045 1219.19 69.8487 Q1220.01 68.66 1221.04 62.3887 L1223.17 62.3887 L1220.79 76.9808 L1189.64 76.9808 Z" fill="#000000" fill-rule="evenodd" fill-opacity="1" /><path clip-path="url(#clip330)" d="M1271.67 45.4191 Q1271.67 47.7145 1270.24 49.0262 Q1268.81 50.2968 1267.17 50.2968 Q1265.61 50.2968 1264.79 49.3951 Q1263.97 48.4933 1263.97 47.3456 Q1263.97 45.788 1265.12 44.4354 Q1266.26 43.0827 1267.99 42.7958 Q1266.3 41.7301 1263.8 41.7301 Q1262.17 41.7301 1260.73 42.5908 Q1259.34 43.4516 1258.48 44.5583 Q1257.66 45.665 1256.92 47.2636 Q1256.22 48.8212 1255.93 49.764 Q1255.69 50.6657 1255.48 51.6495 L1252.61 63.1265 Q1251.22 68.578 1251.22 70.5045 Q1251.22 72.8819 1252.37 74.4805 Q1253.52 76.0381 1255.81 76.0381 Q1256.71 76.0381 1257.74 75.7922 Q1258.76 75.5052 1260.07 74.7674 Q1261.43 73.9886 1262.62 72.8409 Q1263.85 71.6522 1265.03 69.6438 Q1266.22 67.6353 1267 65.053 Q1267.25 64.1512 1268.07 64.1512 Q1269.09 64.1512 1269.09 64.971 Q1269.09 65.6678 1268.52 67.1434 Q1267.99 68.578 1266.8 70.4635 Q1265.65 72.3081 1264.13 73.9886 Q1262.62 75.6282 1260.36 76.7759 Q1258.11 77.9236 1255.65 77.9236 Q1252.12 77.9236 1249.79 76.0381 Q1247.45 74.1526 1246.59 71.5293 Q1246.38 71.8982 1246.1 72.39 Q1245.81 72.8819 1244.95 73.9886 Q1244.13 75.0543 1243.19 75.8741 Q1242.24 76.6529 1240.77 77.2678 Q1239.33 77.9236 1237.78 77.9236 Q1235.81 77.9236 1234.05 77.3497 Q1232.32 76.7759 1231.1 75.4642 Q1229.87 74.1526 1229.87 72.3491 Q1229.87 70.3406 1231.22 68.9469 Q1232.61 67.5123 1234.5 67.5123 Q1235.69 67.5123 1236.63 68.2091 Q1237.61 68.906 1237.61 70.4226 Q1237.61 72.1031 1236.46 73.3738 Q1235.32 74.6445 1233.68 74.9724 Q1235.36 76.0381 1237.86 76.0381 Q1240.56 76.0381 1242.7 73.6607 Q1244.83 71.2833 1245.85 67.3074 Q1248.39 57.7569 1249.38 53.494 Q1250.36 49.1901 1250.36 47.3456 Q1250.36 45.624 1249.91 44.4354 Q1249.46 43.2467 1248.68 42.7138 Q1247.94 42.14 1247.24 41.935 Q1246.59 41.7301 1245.85 41.7301 Q1244.62 41.7301 1243.23 42.2219 Q1241.88 42.7138 1240.24 43.8615 Q1238.64 44.9682 1237.12 47.2636 Q1235.6 49.559 1234.58 52.7152 Q1234.37 53.6579 1233.47 53.6579 Q1232.49 53.617 1232.49 52.7972 Q1232.49 52.1004 1233.02 50.6657 Q1233.6 49.1901 1234.74 47.3456 Q1235.93 45.5011 1237.45 43.8615 Q1239.01 42.1809 1241.26 41.0332 Q1243.56 39.8855 1246.02 39.8855 Q1247.12 39.8855 1248.19 40.1315 Q1249.29 40.3364 1250.61 40.9513 Q1251.96 41.5661 1253.15 42.9188 Q1254.34 44.2714 1255.07 46.2389 Q1255.57 45.2961 1256.22 44.3944 Q1256.92 43.4926 1257.98 42.3859 Q1259.09 41.2382 1260.61 40.5824 Q1262.17 39.8855 1263.89 39.8855 Q1265.57 39.8855 1267.21 40.3364 Q1268.85 40.7463 1270.24 42.099 Q1271.67 43.4106 1271.67 45.4191 Z" fill="#000000" fill-rule="evenodd" fill-opacity="1" /><path clip-path="url(#clip330)" d="M1309.33 67.2664 Q1309.66 67.6353 1309.66 68.0042 Q1309.66 68.3731 1308.84 69.4388 Q1308.06 70.5045 1306.38 71.9392 Q1304.7 73.3738 1302.53 74.7264 Q1300.36 76.0791 1297.16 76.9808 Q1293.96 77.9236 1290.6 77.9236 Q1284.58 77.9236 1280.97 73.6197 Q1277.4 69.3158 1277.4 62.7166 Q1277.4 58.4947 1278.8 54.7647 Q1280.19 50.9936 1282.45 48.3293 Q1284.74 45.665 1287.61 43.7385 Q1290.52 41.7711 1293.55 40.8283 Q1296.59 39.8855 1299.41 39.8855 Q1303.55 39.8855 1305.97 41.976 Q1308.39 44.0665 1308.39 47.0177 Q1308.39 47.7145 1308.19 48.5753 Q1308.02 49.436 1307.45 50.7887 Q1306.92 52.1413 1305.52 53.494 Q1304.13 54.8056 1302.08 55.6664 Q1297.53 57.5929 1289.25 57.5929 L1284.78 57.5929 Q1283.47 62.8805 1283.47 66.3236 Q1283.47 67.6763 1283.72 69.0699 Q1283.96 70.4226 1284.62 72.1441 Q1285.31 73.8657 1286.87 74.9724 Q1288.47 76.0381 1290.77 76.0381 Q1291.5 76.0381 1292.28 75.9971 Q1293.1 75.9561 1295.15 75.5052 Q1297.24 75.0543 1299.09 74.2756 Q1300.93 73.4968 1303.27 71.8162 Q1305.64 70.0946 1307.53 67.7583 Q1308.19 66.8975 1308.64 66.8975 Q1309.01 66.8975 1309.33 67.2664 M1305.6 47.0177 Q1305.6 44.7633 1303.92 43.2467 Q1302.28 41.7301 1299.41 41.7301 Q1298.51 41.7301 1297.41 41.935 Q1296.3 42.14 1294.45 43.0007 Q1292.65 43.8615 1291.05 45.2961 Q1289.45 46.6898 1287.86 49.436 Q1286.26 52.1413 1285.31 55.7484 L1288.76 55.7484 Q1289.95 55.7484 1290.81 55.7484 Q1291.67 55.7074 1293.55 55.5435 Q1295.48 55.3795 1296.87 55.0926 Q1298.27 54.7647 1300.03 54.1088 Q1301.79 53.453 1302.9 52.5922 Q1304.05 51.6905 1304.83 50.2558 Q1305.6 48.8212 1305.6 47.0177 Z" fill="#000000" fill-rule="evenodd" fill-opacity="1" /><path clip-path="url(#clip330)" d="M1357.09 31.7818 Q1357.44 32.1261 1357.44 32.6139 Q1357.44 33.1017 1357.09 33.446 Q1356.75 33.7903 1356.26 33.7903 L1319.48 33.7903 Q1318.99 33.7903 1318.65 33.446 Q1318.3 33.1017 1318.3 32.6139 Q1318.3 32.1261 1318.65 31.7818 Q1318.99 31.4375 1319.48 31.4375 L1356.26 31.4375 Q1356.75 31.4375 1357.09 31.7818 Z" fill="#000000" fill-rule="evenodd" fill-opacity="1" /><path clip-path="url(#clip330)" d="M1392.84 25.2112 Q1392.84 26.818 1391.83 27.7362 Q1390.83 28.6256 1389.68 28.6256 Q1388.59 28.6256 1388.02 27.9944 Q1387.44 27.3632 1387.44 26.5598 Q1387.44 25.4694 1388.25 24.5226 Q1389.05 23.5757 1390.25 23.3749 Q1389.08 22.6289 1387.33 22.6289 Q1386.18 22.6289 1385.17 23.2314 Q1384.2 23.834 1383.6 24.6087 Q1383.02 25.3834 1382.51 26.5024 Q1382.02 27.5927 1381.82 28.2526 Q1381.65 28.8839 1381.5 29.5725 L1379.49 37.6064 Q1378.52 41.4225 1378.52 42.771 Q1378.52 44.4352 1379.32 45.5542 Q1380.13 46.6445 1381.73 46.6445 Q1382.36 46.6445 1383.08 46.4724 Q1383.8 46.2715 1384.72 45.755 Q1385.66 45.2099 1386.49 44.4065 Q1387.36 43.5744 1388.19 42.1685 Q1389.02 40.7625 1389.56 38.9549 Q1389.74 38.3237 1390.31 38.3237 Q1391.03 38.3237 1391.03 38.8975 Q1391.03 39.3853 1390.63 40.4182 Q1390.25 41.4225 1389.42 42.7423 Q1388.62 44.0335 1387.56 45.2099 Q1386.49 46.3576 1384.92 47.161 Q1383.34 47.9644 1381.62 47.9644 Q1379.15 47.9644 1377.51 46.6445 Q1375.88 45.3247 1375.28 43.4883 Q1375.13 43.7466 1374.93 44.0909 Q1374.73 44.4352 1374.13 45.2099 Q1373.55 45.9559 1372.89 46.5297 Q1372.23 47.0749 1371.2 47.5053 Q1370.2 47.9644 1369.11 47.9644 Q1367.73 47.9644 1366.5 47.5627 Q1365.29 47.161 1364.43 46.2428 Q1363.57 45.3247 1363.57 44.0622 Q1363.57 42.6563 1364.52 41.6807 Q1365.49 40.6765 1366.81 40.6765 Q1367.64 40.6765 1368.3 41.1642 Q1368.99 41.652 1368.99 42.7136 Q1368.99 43.89 1368.19 44.7795 Q1367.39 45.669 1366.24 45.8985 Q1367.41 46.6445 1369.16 46.6445 Q1371.06 46.6445 1372.55 44.9803 Q1374.04 43.3162 1374.76 40.533 Q1376.54 33.8477 1377.23 30.8636 Q1377.92 27.8509 1377.92 26.5598 Q1377.92 25.3547 1377.6 24.5226 Q1377.28 23.6905 1376.74 23.3175 Q1376.22 22.9158 1375.74 22.7724 Q1375.28 22.6289 1374.76 22.6289 Q1373.9 22.6289 1372.92 22.9732 Q1371.98 23.3175 1370.83 24.1209 Q1369.71 24.8956 1368.65 26.5024 Q1367.59 28.1092 1366.87 30.3185 Q1366.73 30.9784 1366.09 30.9784 Q1365.41 30.9497 1365.41 30.3759 Q1365.41 29.8881 1365.78 28.8839 Q1366.18 27.8509 1366.98 26.5598 Q1367.82 25.2686 1368.88 24.1209 Q1369.97 22.9445 1371.55 22.1411 Q1373.15 21.3377 1374.87 21.3377 Q1375.65 21.3377 1376.4 21.5099 Q1377.17 21.6533 1378.09 22.0837 Q1379.03 22.5141 1379.87 23.461 Q1380.7 24.4078 1381.22 25.7851 Q1381.56 25.1251 1382.02 24.4939 Q1382.51 23.8627 1383.25 23.088 Q1384.03 22.2846 1385.09 21.8255 Q1386.18 21.3377 1387.38 21.3377 Q1388.56 21.3377 1389.71 21.6533 Q1390.86 21.9403 1391.83 22.8871 Q1392.84 23.8053 1392.84 25.2112 Z" fill="#000000" fill-rule="evenodd" fill-opacity="1" /><path clip-path="url(#clip330)" d="M1431.02 57.0191 Q1429.1 57.0191 1429.1 55.9943 Q1429.1 54.9696 1431.11 54.9696 Q1431.35 54.9696 1431.76 55.0106 Q1432.21 55.0516 1432.29 55.0516 L1455.94 55.0516 L1455.94 31.3188 Q1455.94 31.2368 1455.9 30.8679 Q1455.86 30.458 1455.86 30.2121 Q1455.86 28.2036 1456.85 28.2036 Q1457.87 28.2036 1457.87 30.2121 L1457.87 55.0516 L1481.56 55.0516 Q1481.64 55.0516 1482.05 55.0106 Q1482.46 54.9696 1482.71 54.9696 Q1484.64 54.9696 1484.64 55.9943 Q1484.68 57.0191 1482.63 57.0191 Q1482.38 57.0191 1482.01 56.9781 Q1481.64 56.9371 1481.56 56.9371 L1457.87 56.9371 L1457.87 81.8586 Q1457.87 83.7851 1456.85 83.7851 Q1455.86 83.7851 1455.86 81.7766 Q1455.86 81.5307 1455.9 81.1208 Q1455.94 80.7519 1455.94 80.6699 L1455.94 56.9371 L1432.29 56.9371 Q1432.21 56.9371 1431.72 56.9781 Q1431.27 57.0191 1431.02 57.0191 Z" fill="#000000" fill-rule="evenodd" fill-opacity="1" /><path clip-path="url(#clip330)" d="M1548.99 67.2664 Q1549.32 67.6353 1549.32 68.0042 Q1549.32 68.3731 1548.5 69.4388 Q1547.72 70.5045 1546.04 71.9392 Q1544.36 73.3738 1542.18 74.7264 Q1540.01 76.0791 1536.81 76.9808 Q1533.62 77.9236 1530.26 77.9236 Q1524.23 77.9236 1520.62 73.6197 Q1517.06 69.3158 1517.06 62.7166 Q1517.06 58.4947 1518.45 54.7647 Q1519.84 50.9936 1522.1 48.3293 Q1524.39 45.665 1527.26 43.7385 Q1530.17 41.7711 1533.21 40.8283 Q1536.24 39.8855 1539.07 39.8855 Q1543.21 39.8855 1545.63 41.976 Q1548.04 44.0665 1548.04 47.0177 Q1548.04 47.7145 1547.84 48.5753 Q1547.68 49.436 1547.1 50.7887 Q1546.57 52.1413 1545.18 53.494 Q1543.78 54.8056 1541.73 55.6664 Q1537.18 57.5929 1528.9 57.5929 L1524.43 57.5929 Q1523.12 62.8805 1523.12 66.3236 Q1523.12 67.6763 1523.37 69.0699 Q1523.61 70.4226 1524.27 72.1441 Q1524.97 73.8657 1526.53 74.9724 Q1528.12 76.0381 1530.42 76.0381 Q1531.16 76.0381 1531.94 75.9971 Q1532.76 75.9561 1534.8 75.5052 Q1536.9 75.0543 1538.74 74.2756 Q1540.58 73.4968 1542.92 71.8162 Q1545.3 70.0946 1547.18 67.7583 Q1547.84 66.8975 1548.29 66.8975 Q1548.66 66.8975 1548.99 67.2664 M1545.26 47.0177 Q1545.26 44.7633 1543.58 43.2467 Q1541.94 41.7301 1539.07 41.7301 Q1538.17 41.7301 1537.06 41.935 Q1535.95 42.14 1534.11 43.0007 Q1532.3 43.8615 1530.71 45.2961 Q1529.11 46.6898 1527.51 49.436 Q1525.91 52.1413 1524.97 55.7484 L1528.41 55.7484 Q1529.6 55.7484 1530.46 55.7484 Q1531.32 55.7074 1533.21 55.5435 Q1535.13 55.3795 1536.53 55.0926 Q1537.92 54.7647 1539.68 54.1088 Q1541.45 53.453 1542.55 52.5922 Q1543.7 51.6905 1544.48 50.2558 Q1545.26 48.8212 1545.26 47.0177 Z" fill="#000000" fill-rule="evenodd" fill-opacity="1" /><path clip-path="url(#clip330)" d="M1596.75 35.6963 Q1597.09 36.0406 1597.09 36.5284 Q1597.09 37.0162 1596.75 37.3605 Q1596.4 37.7048 1595.91 37.7048 L1559.13 37.7048 Q1558.64 37.7048 1558.3 37.3605 Q1557.95 37.0162 1557.95 36.5284 Q1557.95 36.0406 1558.3 35.6963 Q1558.64 35.352 1559.13 35.352 L1595.91 35.352 Q1596.4 35.352 1596.75 35.6963 Z" fill="#000000" fill-rule="evenodd" fill-opacity="1" /><path clip-path="url(#clip330)" d="M1603.22 51.219 Q1603.22 50.1573 1603.31 49.8417 Q1603.42 49.5261 1603.88 49.0383 L1615.16 36.471 Q1621.33 29.5274 1621.33 23.4733 Q1621.33 19.5425 1619.26 16.7306 Q1617.22 13.9187 1613.47 13.9187 Q1610.88 13.9187 1608.7 15.4968 Q1606.52 17.0749 1605.52 19.8868 Q1605.69 19.8294 1606.29 19.8294 Q1607.76 19.8294 1608.56 20.7475 Q1609.39 21.6657 1609.39 22.8995 Q1609.39 24.4776 1608.36 25.2523 Q1607.35 25.9983 1606.35 25.9983 Q1605.95 25.9983 1605.4 25.9122 Q1604.89 25.8261 1604.05 25.0227 Q1603.22 24.1906 1603.22 22.7273 Q1603.22 18.6243 1606.32 15.3534 Q1609.45 12.0824 1614.21 12.0824 Q1619.61 12.0824 1623.14 15.296 Q1626.69 18.4808 1626.69 23.4733 Q1626.69 25.2236 1626.15 26.8303 Q1625.63 28.4084 1624.91 29.6422 Q1624.23 30.876 1622.33 32.8558 Q1620.44 34.8356 1618.92 36.2415 Q1617.4 37.6474 1613.98 40.6314 L1607.76 46.6856 L1618.34 46.6856 Q1623.51 46.6856 1623.91 46.2265 Q1624.48 45.3944 1625.2 41.0044 L1626.69 41.0044 L1625.03 51.219 L1603.22 51.219 Z" fill="#000000" fill-rule="evenodd" fill-opacity="1" /><path clip-path="url(#clip330)" d="M1660.65 29.1257 Q1660.65 30.7325 1659.64 31.6507 Q1658.64 32.5402 1657.49 32.5402 Q1656.4 32.5402 1655.83 31.9089 Q1655.25 31.2777 1655.25 30.4743 Q1655.25 29.384 1656.06 28.4371 Q1656.86 27.4903 1658.07 27.2894 Q1656.89 26.5434 1655.14 26.5434 Q1653.99 26.5434 1652.99 27.146 Q1652.01 27.7485 1651.41 28.5232 Q1650.83 29.2979 1650.32 30.4169 Q1649.83 31.5072 1649.63 32.1672 Q1649.46 32.7984 1649.31 33.487 L1647.31 41.5209 Q1646.33 45.337 1646.33 46.6856 Q1646.33 48.3497 1647.13 49.4687 Q1647.94 50.559 1649.54 50.559 Q1650.17 50.559 1650.89 50.3869 Q1651.61 50.186 1652.53 49.6696 Q1653.47 49.1244 1654.31 48.321 Q1655.17 47.4889 1656 46.083 Q1656.83 44.6771 1657.38 42.8695 Q1657.55 42.2382 1658.12 42.2382 Q1658.84 42.2382 1658.84 42.8121 Q1658.84 43.2998 1658.44 44.3328 Q1658.07 45.337 1657.23 46.6569 Q1656.43 47.948 1655.37 49.1244 Q1654.31 50.2721 1652.73 51.0755 Q1651.15 51.8789 1649.43 51.8789 Q1646.96 51.8789 1645.33 50.559 Q1643.69 49.2392 1643.09 47.4029 Q1642.94 47.6611 1642.74 48.0054 Q1642.54 48.3497 1641.94 49.1244 Q1641.37 49.8704 1640.71 50.4443 Q1640.05 50.9894 1639.01 51.4198 Q1638.01 51.8789 1636.92 51.8789 Q1635.54 51.8789 1634.31 51.4772 Q1633.1 51.0755 1632.24 50.1573 Q1631.38 49.2392 1631.38 47.9767 Q1631.38 46.5708 1632.33 45.5952 Q1633.3 44.591 1634.62 44.591 Q1635.46 44.591 1636.12 45.0788 Q1636.8 45.5665 1636.8 46.6282 Q1636.8 47.8046 1636 48.694 Q1635.2 49.5835 1634.05 49.813 Q1635.23 50.559 1636.98 50.559 Q1638.87 50.559 1640.36 48.8949 Q1641.85 47.2307 1642.57 44.4475 Q1644.35 37.7622 1645.04 34.7782 Q1645.73 31.7655 1645.73 30.4743 Q1645.73 29.2692 1645.41 28.4371 Q1645.1 27.605 1644.55 27.232 Q1644.03 26.8303 1643.55 26.6869 Q1643.09 26.5434 1642.57 26.5434 Q1641.71 26.5434 1640.73 26.8877 Q1639.79 27.232 1638.64 28.0354 Q1637.52 28.8101 1636.46 30.4169 Q1635.4 32.0237 1634.68 34.233 Q1634.54 34.8929 1633.91 34.8929 Q1633.22 34.8642 1633.22 34.2904 Q1633.22 33.8026 1633.59 32.7984 Q1633.99 31.7655 1634.8 30.4743 Q1635.63 29.1831 1636.69 28.0354 Q1637.78 26.859 1639.36 26.0557 Q1640.96 25.2523 1642.69 25.2523 Q1643.46 25.2523 1644.21 25.4244 Q1644.98 25.5679 1645.9 25.9983 Q1646.85 26.4287 1647.68 27.3755 Q1648.51 28.3224 1649.03 29.6996 Q1649.37 29.0397 1649.83 28.4084 Q1650.32 27.7772 1651.06 27.0025 Q1651.84 26.1991 1652.9 25.74 Q1653.99 25.2523 1655.2 25.2523 Q1656.37 25.2523 1657.52 25.5679 Q1658.67 25.8548 1659.64 26.8017 Q1660.65 27.7198 1660.65 29.1257 Z" fill="#000000" fill-rule="evenodd" fill-opacity="1" /><path clip-path="url(#clip330)" d="M1696.91 64.2332 Q1696.99 63.2084 1698.59 63.2084 L1750.03 63.2084 Q1752.45 63.2084 1752.49 64.1512 Q1752.49 65.1759 1750.19 65.1349 L1699.16 65.1349 Q1696.91 65.1759 1696.91 64.2332 M1696.91 47.8375 Q1696.91 46.8127 1698.67 46.8537 L1749.95 46.8537 Q1752.45 46.8537 1752.49 47.8375 Q1752.49 48.7802 1750.36 48.7802 L1698.59 48.7802 Q1696.91 48.7802 1696.91 47.8375 Z" fill="#000000" fill-rule="evenodd" fill-opacity="1" /><path clip-path="url(#clip330)" d="M1784.87 50.1329 Q1784.87 37.7951 1787.98 31.0729 Q1792.33 21.0715 1802.58 21.0715 Q1804.75 21.0715 1807 21.6863 Q1809.3 22.2602 1812.17 24.5146 Q1815.08 26.769 1816.84 30.458 Q1820.2 37.5901 1820.2 50.1329 Q1820.2 62.3887 1817.09 69.0699 Q1812.54 78.8254 1802.49 78.8254 Q1798.72 78.8254 1794.87 76.8989 Q1791.06 74.9724 1788.64 70.3406 Q1784.87 63.4134 1784.87 50.1329 M1791.84 49.1081 Q1791.84 61.7738 1792.74 66.8155 Q1793.76 72.2671 1796.55 74.6445 Q1799.38 76.9808 1802.49 76.9808 Q1805.85 76.9808 1808.64 74.4805 Q1811.47 71.9392 1812.33 66.4876 Q1813.27 61.118 1813.23 49.1081 Q1813.23 37.4262 1812.41 32.7534 Q1811.31 27.3018 1808.35 25.1294 Q1805.44 22.916 1802.49 22.916 Q1801.39 22.916 1800.2 23.2439 Q1799.05 23.5718 1797.37 24.5146 Q1795.69 25.4573 1794.38 27.7937 Q1793.11 30.1301 1792.49 33.6552 Q1791.84 38.205 1791.84 49.1081 Z" fill="#000000" fill-rule="evenodd" fill-opacity="1" /><path clip-path="url(#clip330)" d="M1827.63 75.6282 Q1826.44 74.2756 1826.44 72.513 Q1826.44 70.7505 1827.59 69.4388 Q1828.77 68.0862 1830.91 68.0862 Q1833.41 68.0862 1834.84 70.5045 Q1836.28 72.8819 1836.28 76.8989 Q1836.28 81.2437 1834.51 85.2607 Q1832.75 89.3186 1831.03 91.2451 Q1829.31 93.1716 1828.61 93.1716 Q1827.79 93.1716 1827.79 92.2698 Q1827.79 91.9419 1828.36 91.3271 Q1834.39 84.8508 1834.43 76.8989 Q1834.43 75.6282 1834.27 75.6282 L1834.06 75.7922 Q1832.63 76.9808 1830.91 76.9808 Q1828.82 76.9808 1827.63 75.6282 Z" fill="#000000" fill-rule="evenodd" fill-opacity="1" /><path clip-path="url(#clip330)" d="M1993.3 45.4191 Q1993.3 47.7145 1991.86 49.0262 Q1990.43 50.2968 1988.79 50.2968 Q1987.23 50.2968 1986.41 49.3951 Q1985.59 48.4933 1985.59 47.3456 Q1985.59 45.788 1986.74 44.4354 Q1987.89 43.0827 1989.61 42.7958 Q1987.93 41.7301 1985.43 41.7301 Q1983.79 41.7301 1982.35 42.5908 Q1980.96 43.4516 1980.1 44.5583 Q1979.28 45.665 1978.54 47.2636 Q1977.85 48.8212 1977.56 49.764 Q1977.31 50.6657 1977.11 51.6495 L1974.24 63.1265 Q1972.85 68.578 1972.85 70.5045 Q1972.85 72.8819 1973.99 74.4805 Q1975.14 76.0381 1977.44 76.0381 Q1978.34 76.0381 1979.36 75.7922 Q1980.39 75.5052 1981.7 74.7674 Q1983.05 73.9886 1984.24 72.8409 Q1985.47 71.6522 1986.66 69.6438 Q1987.85 67.6353 1988.63 65.053 Q1988.87 64.1512 1989.69 64.1512 Q1990.72 64.1512 1990.72 64.971 Q1990.72 65.6678 1990.14 67.1434 Q1989.61 68.578 1988.42 70.4635 Q1987.27 72.3081 1985.76 73.9886 Q1984.24 75.6282 1981.99 76.7759 Q1979.73 77.9236 1977.27 77.9236 Q1973.75 77.9236 1971.41 76.0381 Q1969.07 74.1526 1968.21 71.5293 Q1968.01 71.8982 1967.72 72.39 Q1967.43 72.8819 1966.57 73.9886 Q1965.75 75.0543 1964.81 75.8741 Q1963.87 76.6529 1962.39 77.2678 Q1960.96 77.9236 1959.4 77.9236 Q1957.43 77.9236 1955.67 77.3497 Q1953.95 76.7759 1952.72 75.4642 Q1951.49 74.1526 1951.49 72.3491 Q1951.49 70.3406 1952.84 68.9469 Q1954.24 67.5123 1956.12 67.5123 Q1957.31 67.5123 1958.25 68.2091 Q1959.24 68.906 1959.24 70.4226 Q1959.24 72.1031 1958.09 73.3738 Q1956.94 74.6445 1955.3 74.9724 Q1956.98 76.0381 1959.48 76.0381 Q1962.19 76.0381 1964.32 73.6607 Q1966.45 71.2833 1967.48 67.3074 Q1970.02 57.7569 1971 53.494 Q1971.98 49.1901 1971.98 47.3456 Q1971.98 45.624 1971.53 44.4354 Q1971.08 43.2467 1970.3 42.7138 Q1969.57 42.14 1968.87 41.935 Q1968.21 41.7301 1967.48 41.7301 Q1966.25 41.7301 1964.85 42.2219 Q1963.5 42.7138 1961.86 43.8615 Q1960.26 44.9682 1958.75 47.2636 Q1957.23 49.559 1956.2 52.7152 Q1956 53.6579 1955.1 53.6579 Q1954.11 53.617 1954.11 52.7972 Q1954.11 52.1004 1954.65 50.6657 Q1955.22 49.1901 1956.37 47.3456 Q1957.56 45.5011 1959.07 43.8615 Q1960.63 42.1809 1962.88 41.0332 Q1965.18 39.8855 1967.64 39.8855 Q1968.75 39.8855 1969.81 40.1315 Q1970.92 40.3364 1972.23 40.9513 Q1973.58 41.5661 1974.77 42.9188 Q1975.96 44.2714 1976.7 46.2389 Q1977.19 45.2961 1977.85 44.3944 Q1978.54 43.4926 1979.61 42.3859 Q1980.72 41.2382 1982.23 40.5824 Q1983.79 39.8855 1985.51 39.8855 Q1987.19 39.8855 1988.83 40.3364 Q1990.47 40.7463 1991.86 42.099 Q1993.3 43.4106 1993.3 45.4191 Z" fill="#000000" fill-rule="evenodd" fill-opacity="1" /><path clip-path="url(#clip330)" d="M2001.86 82.3823 Q2001.86 73.7458 2004.04 69.0402 Q2007.08 62.0393 2014.25 62.0393 Q2015.77 62.0393 2017.35 62.4697 Q2018.96 62.8714 2020.97 64.4495 Q2023 66.0275 2024.24 68.6099 Q2026.59 73.6024 2026.59 82.3823 Q2026.59 90.9613 2024.41 95.6382 Q2021.22 102.467 2014.19 102.467 Q2011.55 102.467 2008.86 101.118 Q2006.19 99.7699 2004.5 96.5277 Q2001.86 91.6786 2001.86 82.3823 M2006.73 81.6649 Q2006.73 90.5309 2007.37 94.0601 Q2008.08 97.8762 2010.03 99.5404 Q2012.01 101.176 2014.19 101.176 Q2016.55 101.176 2018.5 99.4256 Q2020.48 97.6467 2021.08 93.8306 Q2021.74 90.0718 2021.71 81.6649 Q2021.71 73.4876 2021.14 70.2166 Q2020.36 66.4005 2018.3 64.8798 Q2016.26 63.3304 2014.19 63.3304 Q2013.42 63.3304 2012.59 63.56 Q2011.78 63.7895 2010.61 64.4495 Q2009.43 65.1094 2008.51 66.7449 Q2007.62 68.3803 2007.19 70.8479 Q2006.73 74.0327 2006.73 81.6649 Z" fill="#000000" fill-rule="evenodd" fill-opacity="1" /><path clip-path="url(#clip330)" d="M2058.6 64.2332 Q2058.68 63.2084 2060.28 63.2084 L2111.72 63.2084 Q2114.14 63.2084 2114.18 64.1512 Q2114.18 65.1759 2111.88 65.1349 L2060.85 65.1349 Q2058.6 65.1759 2058.6 64.2332 M2058.6 47.8375 Q2058.6 46.8127 2060.36 46.8537 L2111.64 46.8537 Q2114.14 46.8537 2114.18 47.8375 Q2114.18 48.7802 2112.05 48.7802 L2060.28 48.7802 Q2058.6 48.7802 2058.6 47.8375 Z" fill="#000000" fill-rule="evenodd" fill-opacity="1" /><path clip-path="url(#clip330)" d="M2146.56 50.1329 Q2146.56 37.7951 2149.67 31.0729 Q2154.02 21.0715 2164.26 21.0715 Q2166.44 21.0715 2168.69 21.6863 Q2170.99 22.2602 2173.85 24.5146 Q2176.76 26.769 2178.53 30.458 Q2181.89 37.5901 2181.89 50.1329 Q2181.89 62.3887 2178.77 69.0699 Q2174.22 78.8254 2164.18 78.8254 Q2160.41 78.8254 2156.56 76.8989 Q2152.75 74.9724 2150.33 70.3406 Q2146.56 63.4134 2146.56 50.1329 M2153.52 49.1081 Q2153.52 61.7738 2154.43 66.8155 Q2155.45 72.2671 2158.24 74.6445 Q2161.07 76.9808 2164.18 76.9808 Q2167.54 76.9808 2170.33 74.4805 Q2173.16 71.9392 2174.02 66.4876 Q2174.96 61.118 2174.92 49.1081 Q2174.92 37.4262 2174.1 32.7534 Q2172.99 27.3018 2170.04 25.1294 Q2167.13 22.916 2164.18 22.916 Q2163.07 22.916 2161.89 23.2439 Q2160.74 23.5718 2159.06 24.5146 Q2157.38 25.4573 2156.07 27.7937 Q2154.79 30.1301 2154.18 33.6552 Q2153.52 38.205 2153.52 49.1081 Z" fill="#000000" fill-rule="evenodd" fill-opacity="1" /><path clip-path="url(#clip330)" d="M2189.4 75.6282 Q2188.13 74.2756 2188.13 72.513 Q2188.13 70.7505 2189.4 69.4798 Q2190.67 68.1681 2192.59 68.1681 Q2194.44 68.1681 2195.67 69.3978 Q2196.94 70.5865 2196.94 72.554 Q2196.94 74.4805 2195.59 75.7512 Q2194.27 76.9808 2192.59 76.9808 Q2190.67 76.9808 2189.4 75.6282 Z" fill="#000000" fill-rule="evenodd" fill-opacity="1" /><path clip-path="url(#clip330)" d="M2211.23 63.4544 Q2211.23 60.954 2212.58 60.0113 Q2213.93 59.0275 2215.37 59.0275 Q2217.29 59.0275 2218.4 60.2572 Q2219.55 61.4459 2219.55 63.1265 Q2219.55 64.807 2218.4 66.0367 Q2217.29 67.2254 2215.37 67.2254 Q2214.42 67.2254 2213.93 67.0614 Q2215.04 70.9144 2218.4 73.7017 Q2221.8 76.489 2226.27 76.489 Q2231.88 76.489 2235.24 71.0374 Q2237.25 67.5123 2237.25 59.5194 Q2237.25 52.4693 2235.74 48.9442 Q2233.4 43.5746 2228.6 43.5746 Q2221.8 43.5746 2217.78 49.436 Q2217.29 50.1739 2216.72 50.2148 Q2215.9 50.2148 2215.69 49.764 Q2215.53 49.2721 2215.53 48.0014 L2215.53 23.1619 Q2215.53 21.1534 2216.35 21.1534 Q2216.68 21.1534 2217.37 21.3994 Q2222.66 23.7358 2228.52 23.7768 Q2234.55 23.7768 2239.96 21.3174 Q2240.37 21.0715 2240.61 21.0715 Q2241.43 21.0715 2241.48 22.0142 Q2241.48 22.3421 2240.78 23.3259 Q2240.12 24.2686 2238.69 25.5393 Q2237.25 26.769 2235.41 27.9577 Q2233.56 29.1464 2230.86 29.9661 Q2228.19 30.7449 2225.24 30.7449 Q2221.72 30.7449 2218.11 29.6382 L2218.11 45.9929 Q2222.46 41.7301 2228.77 41.7301 Q2235.49 41.7301 2240.12 47.1406 Q2244.75 52.5512 2244.75 60.0933 Q2244.75 68.0042 2239.26 73.4148 Q2233.81 78.8254 2226.43 78.8254 Q2219.71 78.8254 2215.45 74.0296 Q2211.23 69.2339 2211.23 63.4544 Z" fill="#000000" fill-rule="evenodd" fill-opacity="1" /><polyline clip-path="url(#clip333)" style="stroke:#009af9; stroke-linecap:butt; stroke-linejoin:round; stroke-width:4; stroke-opacity:1; fill:none" points="
  351.908,162.047 353.142,182.268 354.376,202.167 355.609,221.751 356.843,241.023 358.076,259.99 359.31,278.655 360.543,297.025 361.777,315.102 364.628,355.801 
  367.48,395.022 370.331,432.82 373.183,469.248 376.034,504.354 378.886,538.187 381.737,570.795 384.589,602.221 387.44,632.508 390.292,661.699 393.144,689.832 
  395.995,716.948 398.847,743.082 401.698,768.271 404.55,792.55 407.401,815.95 413.104,860.245 418.807,901.398 424.51,939.635 430.213,975.162 435.916,1008.17 
  441.619,1038.85 447.322,1067.36 453.025,1093.86 459.88,1123.24 466.734,1150.15 473.589,1174.79 480.443,1197.37 487.298,1218.05 494.153,1237 501.007,1254.36 
  507.862,1270.27 513.657,1282.68 519.453,1294.21 525.248,1304.92 531.043,1314.87 542.634,1332.71 554.225,1348.11 566.816,1362.48 579.407,1374.75 591.998,1385.22 
  604.589,1394.16 616.197,1401.25 627.804,1407.39 639.412,1412.7 651.02,1417.3 675.909,1425.21 700.799,1431.04 729.636,1435.92 758.472,1439.38 809.726,1443.23 
  854.671,1445.15 903.673,1446.36 952.966,1447.06 1007.47,1447.49 1059.32,1447.71 1113.24,1447.82 1158.63,1447.86 1214.04,1447.87 1264.8,1447.85 1311.68,1447.81 
  1359.17,1447.76 1412.39,1447.68 1460.62,1447.6 1515.84,1447.5 1566.97,1447.39 1617.37,1447.27 1666.31,1447.15 1716.48,1447.01 1771.45,1446.84 1851.3,1446.57 
  1867.68,1446.51 
  "/>
<polyline clip-path="url(#clip333)" style="stroke:#e26f46; stroke-linecap:butt; stroke-linejoin:round; stroke-width:4; stroke-opacity:1; fill:none" points="
  -1300.28,1447.87 3519.86,1447.87 
  "/>
<path clip-path="url(#clip330)" d="
M1981.36 324.425 L2352.76 324.425 L2352.76 168.905 L1981.36 168.905  Z
  " fill="#ffffff" fill-rule="evenodd" fill-opacity="1"/>
<polyline clip-path="url(#clip330)" style="stroke:#000000; stroke-linecap:butt; stroke-linejoin:round; stroke-width:4; stroke-opacity:1; fill:none" points="
  1981.36,324.425 2352.76,324.425 2352.76,168.905 1981.36,168.905 1981.36,324.425 
  "/>
<polyline clip-path="url(#clip330)" style="stroke:#009af9; stroke-linecap:butt; stroke-linejoin:round; stroke-width:4; stroke-opacity:1; fill:none" points="
  2004.1,220.745 2140.52,220.745 
  "/>
<path clip-path="url(#clip330)" d="M2177.1 240.432 Q2175.29 245.062 2173.58 246.474 Q2171.87 247.886 2169 247.886 L2165.59 247.886 L2165.59 244.321 L2168.09 244.321 Q2169.85 244.321 2170.82 243.488 Q2171.8 242.654 2172.98 239.552 L2173.74 237.608 L2163.26 212.099 L2167.77 212.099 L2175.87 232.377 L2183.97 212.099 L2188.49 212.099 L2177.1 240.432 Z" fill="#000000" fill-rule="evenodd" fill-opacity="1" /><path clip-path="url(#clip330)" d="M2194.92 216.497 L2224.6 216.497 L2224.6 220.386 L2194.92 220.386 L2194.92 216.497 M2194.92 225.941 L2224.6 225.941 L2224.6 229.877 L2194.92 229.877 L2194.92 225.941 Z" fill="#000000" fill-rule="evenodd" fill-opacity="1" /><path clip-path="url(#clip330)" d="M2247.21 202.006 L2247.21 205.548 L2243.14 205.548 Q2240.85 205.548 2239.94 206.474 Q2239.06 207.4 2239.06 209.807 L2239.06 212.099 L2246.08 212.099 L2246.08 215.409 L2239.06 215.409 L2239.06 238.025 L2234.78 238.025 L2234.78 215.409 L2230.71 215.409 L2230.71 212.099 L2234.78 212.099 L2234.78 210.293 Q2234.78 205.965 2236.8 203.997 Q2238.81 202.006 2243.19 202.006 L2247.21 202.006 Z" fill="#000000" fill-rule="evenodd" fill-opacity="1" /><path clip-path="url(#clip330)" d="M2261.01 202.053 Q2257.91 207.377 2256.4 212.585 Q2254.9 217.793 2254.9 223.14 Q2254.9 228.488 2256.4 233.742 Q2257.93 238.974 2261.01 244.275 L2257.31 244.275 Q2253.83 238.835 2252.1 233.58 Q2250.38 228.326 2250.38 223.14 Q2250.38 217.978 2252.1 212.747 Q2253.81 207.516 2257.31 202.053 L2261.01 202.053 Z" fill="#000000" fill-rule="evenodd" fill-opacity="1" /><path clip-path="url(#clip330)" d="M2290.82 212.099 L2281.45 224.715 L2291.31 238.025 L2286.29 238.025 L2278.74 227.84 L2271.19 238.025 L2266.17 238.025 L2276.24 224.46 L2267.03 212.099 L2272.05 212.099 L2278.93 221.335 L2285.8 212.099 L2290.82 212.099 Z" fill="#000000" fill-rule="evenodd" fill-opacity="1" /><path clip-path="url(#clip330)" d="M2296.66 202.053 L2300.36 202.053 Q2303.83 207.516 2305.55 212.747 Q2307.28 217.978 2307.28 223.14 Q2307.28 228.326 2305.55 233.58 Q2303.83 238.835 2300.36 244.275 L2296.66 244.275 Q2299.74 238.974 2301.24 233.742 Q2302.77 228.488 2302.77 223.14 Q2302.77 217.793 2301.24 212.585 Q2299.74 207.377 2296.66 202.053 Z" fill="#000000" fill-rule="evenodd" fill-opacity="1" /><polyline clip-path="url(#clip330)" style="stroke:#e26f46; stroke-linecap:butt; stroke-linejoin:round; stroke-width:4; stroke-opacity:1; fill:none" points="
  2004.1,272.585 2140.52,272.585 
  "/>
<path clip-path="url(#clip330)" d="M2177.1 292.272 Q2175.29 296.902 2173.58 298.314 Q2171.87 299.726 2169 299.726 L2165.59 299.726 L2165.59 296.161 L2168.09 296.161 Q2169.85 296.161 2170.82 295.328 Q2171.8 294.494 2172.98 291.392 L2173.74 289.448 L2163.26 263.939 L2167.77 263.939 L2175.87 284.217 L2183.97 263.939 L2188.49 263.939 L2177.1 292.272 Z" fill="#000000" fill-rule="evenodd" fill-opacity="1" /><path clip-path="url(#clip330)" d="M2194.92 268.337 L2224.6 268.337 L2224.6 272.226 L2194.92 272.226 L2194.92 268.337 M2194.92 277.781 L2224.6 277.781 L2224.6 281.717 L2194.92 281.717 L2194.92 277.781 Z" fill="#000000" fill-rule="evenodd" fill-opacity="1" /><path clip-path="url(#clip330)" d="M2244.69 258.383 Q2241.08 258.383 2239.25 261.948 Q2237.44 265.49 2237.44 272.619 Q2237.44 279.726 2239.25 283.291 Q2241.08 286.832 2244.69 286.832 Q2248.32 286.832 2250.13 283.291 Q2251.96 279.726 2251.96 272.619 Q2251.96 265.49 2250.13 261.948 Q2248.32 258.383 2244.69 258.383 M2244.69 254.68 Q2250.5 254.68 2253.56 259.286 Q2256.63 263.869 2256.63 272.619 Q2256.63 281.346 2253.56 285.953 Q2250.5 290.536 2244.69 290.536 Q2238.88 290.536 2235.8 285.953 Q2232.75 281.346 2232.75 272.619 Q2232.75 263.869 2235.8 259.286 Q2238.88 254.68 2244.69 254.68 Z" fill="#000000" fill-rule="evenodd" fill-opacity="1" /></svg>
