<?xml version="1.0" encoding="utf-8"?>
<svg xmlns="http://www.w3.org/2000/svg" xmlns:xlink="http://www.w3.org/1999/xlink" width="600" height="400" viewBox="0 0 2400 1600">
<defs>
  <clipPath id="clip970">
    <rect x="0" y="0" width="2400" height="1600"/>
  </clipPath>
</defs>
<path clip-path="url(#clip970)" d="
M0 1600 L2400 1600 L2400 0 L0 0  Z
  " fill="#ffffff" fill-rule="evenodd" fill-opacity="1"/>
<defs>
  <clipPath id="clip971">
    <rect x="480" y="0" width="1681" height="1600"/>
  </clipPath>
</defs>
<defs>
  <clipPath id="clip972">
    <rect x="193" y="123" width="1705" height="1364"/>
  </clipPath>
</defs>
<path clip-path="url(#clip970)" d="
M209.029 1486.45 L1899.08 1486.45 L1899.08 123.472 L209.029 123.472  Z
  " fill="#ffffff" fill-rule="evenodd" fill-opacity="1"/>
<defs>
  <clipPath id="clip973">
    <rect x="209" y="123" width="1691" height="1364"/>
  </clipPath>
</defs>
<polyline clip-path="url(#clip973)" style="stroke:#000000; stroke-linecap:butt; stroke-linejoin:round; stroke-width:2; stroke-opacity:0.1; fill:none" points="
  416.299,1486.45 416.299,123.472 
  "/>
<polyline clip-path="url(#clip973)" style="stroke:#000000; stroke-linecap:butt; stroke-linejoin:round; stroke-width:2; stroke-opacity:0.1; fill:none" points="
  735.176,1486.45 735.176,123.472 
  "/>
<polyline clip-path="url(#clip973)" style="stroke:#000000; stroke-linecap:butt; stroke-linejoin:round; stroke-width:2; stroke-opacity:0.1; fill:none" points="
  1054.05,1486.45 1054.05,123.472 
  "/>
<polyline clip-path="url(#clip973)" style="stroke:#000000; stroke-linecap:butt; stroke-linejoin:round; stroke-width:2; stroke-opacity:0.1; fill:none" points="
  1372.93,1486.45 1372.93,123.472 
  "/>
<polyline clip-path="url(#clip973)" style="stroke:#000000; stroke-linecap:butt; stroke-linejoin:round; stroke-width:2; stroke-opacity:0.1; fill:none" points="
  1691.81,1486.45 1691.81,123.472 
  "/>
<polyline clip-path="url(#clip970)" style="stroke:#000000; stroke-linecap:butt; stroke-linejoin:round; stroke-width:4; stroke-opacity:1; fill:none" points="
  209.029,1486.45 1899.08,1486.45 
  "/>
<polyline clip-path="url(#clip970)" style="stroke:#000000; stroke-linecap:butt; stroke-linejoin:round; stroke-width:4; stroke-opacity:1; fill:none" points="
  416.299,1486.45 416.299,1467.55 
  "/>
<polyline clip-path="url(#clip970)" style="stroke:#000000; stroke-linecap:butt; stroke-linejoin:round; stroke-width:4; stroke-opacity:1; fill:none" points="
  735.176,1486.45 735.176,1467.55 
  "/>
<polyline clip-path="url(#clip970)" style="stroke:#000000; stroke-linecap:butt; stroke-linejoin:round; stroke-width:4; stroke-opacity:1; fill:none" points="
  1054.05,1486.45 1054.05,1467.55 
  "/>
<polyline clip-path="url(#clip970)" style="stroke:#000000; stroke-linecap:butt; stroke-linejoin:round; stroke-width:4; stroke-opacity:1; fill:none" points="
  1372.93,1486.45 1372.93,1467.55 
  "/>
<polyline clip-path="url(#clip970)" style="stroke:#000000; stroke-linecap:butt; stroke-linejoin:round; stroke-width:4; stroke-opacity:1; fill:none" points="
  1691.81,1486.45 1691.81,1467.55 
  "/>
<path clip-path="url(#clip970)" d="M385.2 1532.02 L414.875 1532.02 L414.875 1535.95 L385.2 1535.95 L385.2 1532.02 Z" fill="#000000" fill-rule="evenodd" fill-opacity="1" /><path clip-path="url(#clip970)" d="M437.815 1518.36 L426.009 1536.81 L437.815 1536.81 L437.815 1518.36 M436.588 1514.29 L442.468 1514.29 L442.468 1536.81 L447.398 1536.81 L447.398 1540.7 L442.468 1540.7 L442.468 1548.85 L437.815 1548.85 L437.815 1540.7 L422.213 1540.7 L422.213 1536.19 L436.588 1514.29 Z" fill="#000000" fill-rule="evenodd" fill-opacity="1" /><path clip-path="url(#clip970)" d="M705.119 1532.02 L734.794 1532.02 L734.794 1535.95 L705.119 1535.95 L705.119 1532.02 Z" fill="#000000" fill-rule="evenodd" fill-opacity="1" /><path clip-path="url(#clip970)" d="M748.915 1544.91 L765.234 1544.91 L765.234 1548.85 L743.29 1548.85 L743.29 1544.91 Q745.952 1542.16 750.535 1537.53 Q755.142 1532.88 756.322 1531.53 Q758.568 1529.01 759.447 1527.27 Q760.35 1525.51 760.35 1523.82 Q760.35 1521.07 758.405 1519.33 Q756.484 1517.6 753.382 1517.6 Q751.183 1517.6 748.73 1518.36 Q746.299 1519.13 743.521 1520.68 L743.521 1515.95 Q746.345 1514.82 748.799 1514.24 Q751.253 1513.66 753.29 1513.66 Q758.66 1513.66 761.855 1516.35 Q765.049 1519.03 765.049 1523.52 Q765.049 1525.65 764.239 1527.57 Q763.452 1529.47 761.345 1532.07 Q760.767 1532.74 757.665 1535.95 Q754.563 1539.15 748.915 1544.91 Z" fill="#000000" fill-rule="evenodd" fill-opacity="1" /><path clip-path="url(#clip970)" d="M1054.05 1517.37 Q1050.44 1517.37 1048.61 1520.93 Q1046.81 1524.47 1046.81 1531.6 Q1046.81 1538.71 1048.61 1542.27 Q1050.44 1545.82 1054.05 1545.82 Q1057.69 1545.82 1059.49 1542.27 Q1061.32 1538.71 1061.32 1531.6 Q1061.32 1524.47 1059.49 1520.93 Q1057.69 1517.37 1054.05 1517.37 M1054.05 1513.66 Q1059.86 1513.66 1062.92 1518.27 Q1066 1522.85 1066 1531.6 Q1066 1540.33 1062.92 1544.94 Q1059.86 1549.52 1054.05 1549.52 Q1048.24 1549.52 1045.17 1544.94 Q1042.11 1540.33 1042.11 1531.6 Q1042.11 1522.85 1045.17 1518.27 Q1048.24 1513.66 1054.05 1513.66 Z" fill="#000000" fill-rule="evenodd" fill-opacity="1" /><path clip-path="url(#clip970)" d="M1367.58 1544.91 L1383.9 1544.91 L1383.9 1548.85 L1361.96 1548.85 L1361.96 1544.91 Q1364.62 1542.16 1369.2 1537.53 Q1373.81 1532.88 1374.99 1531.53 Q1377.24 1529.01 1378.12 1527.27 Q1379.02 1525.51 1379.02 1523.82 Q1379.02 1521.07 1377.07 1519.33 Q1375.15 1517.6 1372.05 1517.6 Q1369.85 1517.6 1367.4 1518.36 Q1364.97 1519.13 1362.19 1520.68 L1362.19 1515.95 Q1365.01 1514.82 1367.47 1514.24 Q1369.92 1513.66 1371.96 1513.66 Q1377.33 1513.66 1380.52 1516.35 Q1383.72 1519.03 1383.72 1523.52 Q1383.72 1525.65 1382.91 1527.57 Q1382.12 1529.47 1380.01 1532.07 Q1379.44 1532.74 1376.33 1535.95 Q1373.23 1539.15 1367.58 1544.91 Z" fill="#000000" fill-rule="evenodd" fill-opacity="1" /><path clip-path="url(#clip970)" d="M1694.82 1518.36 L1683.01 1536.81 L1694.82 1536.81 L1694.82 1518.36 M1693.59 1514.29 L1699.47 1514.29 L1699.47 1536.81 L1704.4 1536.81 L1704.4 1540.7 L1699.47 1540.7 L1699.47 1548.85 L1694.82 1548.85 L1694.82 1540.7 L1679.22 1540.7 L1679.22 1536.19 L1693.59 1514.29 Z" fill="#000000" fill-rule="evenodd" fill-opacity="1" /><polyline clip-path="url(#clip973)" style="stroke:#000000; stroke-linecap:butt; stroke-linejoin:round; stroke-width:2; stroke-opacity:0.1; fill:none" points="
  209.029,1420.17 1899.08,1420.17 
  "/>
<polyline clip-path="url(#clip973)" style="stroke:#000000; stroke-linecap:butt; stroke-linejoin:round; stroke-width:2; stroke-opacity:0.1; fill:none" points="
  209.029,1014.3 1899.08,1014.3 
  "/>
<polyline clip-path="url(#clip973)" style="stroke:#000000; stroke-linecap:butt; stroke-linejoin:round; stroke-width:2; stroke-opacity:0.1; fill:none" points="
  209.029,608.442 1899.08,608.442 
  "/>
<polyline clip-path="url(#clip973)" style="stroke:#000000; stroke-linecap:butt; stroke-linejoin:round; stroke-width:2; stroke-opacity:0.1; fill:none" points="
  209.029,202.579 1899.08,202.579 
  "/>
<polyline clip-path="url(#clip970)" style="stroke:#000000; stroke-linecap:butt; stroke-linejoin:round; stroke-width:4; stroke-opacity:1; fill:none" points="
  209.029,1486.45 209.029,123.472 
  "/>
<polyline clip-path="url(#clip970)" style="stroke:#000000; stroke-linecap:butt; stroke-linejoin:round; stroke-width:4; stroke-opacity:1; fill:none" points="
  209.029,1420.17 223.927,1420.17 
  "/>
<polyline clip-path="url(#clip970)" style="stroke:#000000; stroke-linecap:butt; stroke-linejoin:round; stroke-width:4; stroke-opacity:1; fill:none" points="
  209.029,1014.3 223.927,1014.3 
  "/>
<polyline clip-path="url(#clip970)" style="stroke:#000000; stroke-linecap:butt; stroke-linejoin:round; stroke-width:4; stroke-opacity:1; fill:none" points="
  209.029,608.442 223.927,608.442 
  "/>
<polyline clip-path="url(#clip970)" style="stroke:#000000; stroke-linecap:butt; stroke-linejoin:round; stroke-width:4; stroke-opacity:1; fill:none" points="
  209.029,202.579 223.927,202.579 
  "/>
<path clip-path="url(#clip970)" d="M50.9921 1420.62 L80.6679 1420.62 L80.6679 1424.55 L50.9921 1424.55 L50.9921 1420.62 Z" fill="#000000" fill-rule="evenodd" fill-opacity="1" /><path clip-path="url(#clip970)" d="M91.5706 1433.51 L99.2095 1433.51 L99.2095 1407.15 L90.8993 1408.81 L90.8993 1404.55 L99.1632 1402.89 L103.839 1402.89 L103.839 1433.51 L111.478 1433.51 L111.478 1437.45 L91.5706 1437.45 L91.5706 1433.51 Z" fill="#000000" fill-rule="evenodd" fill-opacity="1" /><path clip-path="url(#clip970)" d="M120.969 1402.89 L139.325 1402.89 L139.325 1406.82 L125.251 1406.82 L125.251 1415.29 Q126.27 1414.95 127.288 1414.79 Q128.307 1414.6 129.325 1414.6 Q135.112 1414.6 138.492 1417.77 Q141.871 1420.94 141.871 1426.36 Q141.871 1431.94 138.399 1435.04 Q134.927 1438.12 128.607 1438.12 Q126.432 1438.12 124.163 1437.75 Q121.918 1437.38 119.51 1436.64 L119.51 1431.94 Q121.594 1433.07 123.816 1433.63 Q126.038 1434.18 128.515 1434.18 Q132.519 1434.18 134.857 1432.08 Q137.195 1429.97 137.195 1426.36 Q137.195 1422.75 134.857 1420.64 Q132.519 1418.54 128.515 1418.54 Q126.64 1418.54 124.765 1418.95 Q122.913 1419.37 120.969 1420.25 L120.969 1402.89 Z" fill="#000000" fill-rule="evenodd" fill-opacity="1" /><path clip-path="url(#clip970)" d="M161.084 1405.97 Q157.473 1405.97 155.644 1409.53 Q153.839 1413.07 153.839 1420.2 Q153.839 1427.31 155.644 1430.87 Q157.473 1434.42 161.084 1434.42 Q164.718 1434.42 166.524 1430.87 Q168.353 1427.31 168.353 1420.2 Q168.353 1413.07 166.524 1409.53 Q164.718 1405.97 161.084 1405.97 M161.084 1402.26 Q166.894 1402.26 169.95 1406.87 Q173.029 1411.45 173.029 1420.2 Q173.029 1428.93 169.95 1433.54 Q166.894 1438.12 161.084 1438.12 Q155.274 1438.12 152.195 1433.54 Q149.14 1428.93 149.14 1420.2 Q149.14 1411.45 152.195 1406.87 Q155.274 1402.26 161.084 1402.26 Z" fill="#000000" fill-rule="evenodd" fill-opacity="1" /><path clip-path="url(#clip970)" d="M50.9921 1014.76 L80.6679 1014.76 L80.6679 1018.69 L50.9921 1018.69 L50.9921 1014.76 Z" fill="#000000" fill-rule="evenodd" fill-opacity="1" /><path clip-path="url(#clip970)" d="M91.5706 1027.65 L99.2095 1027.65 L99.2095 1001.28 L90.8993 1002.95 L90.8993 998.691 L99.1632 997.025 L103.839 997.025 L103.839 1027.65 L111.478 1027.65 L111.478 1031.58 L91.5706 1031.58 L91.5706 1027.65 Z" fill="#000000" fill-rule="evenodd" fill-opacity="1" /><path clip-path="url(#clip970)" d="M130.922 1000.1 Q127.311 1000.1 125.482 1003.67 Q123.677 1007.21 123.677 1014.34 Q123.677 1021.45 125.482 1025.01 Q127.311 1028.55 130.922 1028.55 Q134.556 1028.55 136.362 1025.01 Q138.191 1021.45 138.191 1014.34 Q138.191 1007.21 136.362 1003.67 Q134.556 1000.1 130.922 1000.1 M130.922 996.4 Q136.732 996.4 139.788 1001.01 Q142.867 1005.59 142.867 1014.34 Q142.867 1023.07 139.788 1027.67 Q136.732 1032.26 130.922 1032.26 Q125.112 1032.26 122.033 1027.67 Q118.978 1023.07 118.978 1014.34 Q118.978 1005.59 122.033 1001.01 Q125.112 996.4 130.922 996.4 Z" fill="#000000" fill-rule="evenodd" fill-opacity="1" /><path clip-path="url(#clip970)" d="M161.084 1000.1 Q157.473 1000.1 155.644 1003.67 Q153.839 1007.21 153.839 1014.34 Q153.839 1021.45 155.644 1025.01 Q157.473 1028.55 161.084 1028.55 Q164.718 1028.55 166.524 1025.01 Q168.353 1021.45 168.353 1014.34 Q168.353 1007.21 166.524 1003.67 Q164.718 1000.1 161.084 1000.1 M161.084 996.4 Q166.894 996.4 169.95 1001.01 Q173.029 1005.59 173.029 1014.34 Q173.029 1023.07 169.95 1027.67 Q166.894 1032.26 161.084 1032.26 Q155.274 1032.26 152.195 1027.67 Q149.14 1023.07 149.14 1014.34 Q149.14 1005.59 152.195 1001.01 Q155.274 996.4 161.084 996.4 Z" fill="#000000" fill-rule="evenodd" fill-opacity="1" /><path clip-path="url(#clip970)" d="M81.154 608.893 L110.83 608.893 L110.83 612.828 L81.154 612.828 L81.154 608.893 Z" fill="#000000" fill-rule="evenodd" fill-opacity="1" /><path clip-path="url(#clip970)" d="M120.969 591.162 L139.325 591.162 L139.325 595.097 L125.251 595.097 L125.251 603.569 Q126.27 603.222 127.288 603.06 Q128.307 602.874 129.325 602.874 Q135.112 602.874 138.492 606.046 Q141.871 609.217 141.871 614.634 Q141.871 620.212 138.399 623.314 Q134.927 626.393 128.607 626.393 Q126.432 626.393 124.163 626.022 Q121.918 625.652 119.51 624.911 L119.51 620.212 Q121.594 621.347 123.816 621.902 Q126.038 622.458 128.515 622.458 Q132.519 622.458 134.857 620.351 Q137.195 618.245 137.195 614.634 Q137.195 611.023 134.857 608.916 Q132.519 606.81 128.515 606.81 Q126.64 606.81 124.765 607.226 Q122.913 607.643 120.969 608.523 L120.969 591.162 Z" fill="#000000" fill-rule="evenodd" fill-opacity="1" /><path clip-path="url(#clip970)" d="M161.084 594.24 Q157.473 594.24 155.644 597.805 Q153.839 601.347 153.839 608.476 Q153.839 615.583 155.644 619.148 Q157.473 622.689 161.084 622.689 Q164.718 622.689 166.524 619.148 Q168.353 615.583 168.353 608.476 Q168.353 601.347 166.524 597.805 Q164.718 594.24 161.084 594.24 M161.084 590.537 Q166.894 590.537 169.95 595.143 Q173.029 599.726 173.029 608.476 Q173.029 617.203 169.95 621.81 Q166.894 626.393 161.084 626.393 Q155.274 626.393 152.195 621.81 Q149.14 617.203 149.14 608.476 Q149.14 599.726 152.195 595.143 Q155.274 590.537 161.084 590.537 Z" fill="#000000" fill-rule="evenodd" fill-opacity="1" /><path clip-path="url(#clip970)" d="M161.084 188.377 Q157.473 188.377 155.644 191.942 Q153.839 195.484 153.839 202.613 Q153.839 209.72 155.644 213.284 Q157.473 216.826 161.084 216.826 Q164.718 216.826 166.524 213.284 Q168.353 209.72 168.353 202.613 Q168.353 195.484 166.524 191.942 Q164.718 188.377 161.084 188.377 M161.084 184.674 Q166.894 184.674 169.95 189.28 Q173.029 193.863 173.029 202.613 Q173.029 211.34 169.95 215.947 Q166.894 220.53 161.084 220.53 Q155.274 220.53 152.195 215.947 Q149.14 211.34 149.14 202.613 Q149.14 193.863 152.195 189.28 Q155.274 184.674 161.084 184.674 Z" fill="#000000" fill-rule="evenodd" fill-opacity="1" /><path clip-path="url(#clip970)" d="M392.342 31.22 Q392.342 35.8108 388.94 40.0327 Q385.579 44.2546 380.087 46.8369 Q374.635 49.3783 368.774 49.3783 L354.509 49.3783 L349.304 70.3648 Q349.263 70.4878 349.14 71.0206 Q349.017 71.5125 349.017 71.7994 Q349.017 72.8241 350.287 73.0701 Q351.599 73.316 354.509 73.316 Q356.395 73.316 356.682 73.6439 Q356.846 73.8489 356.846 74.2178 Q356.846 74.7916 356.682 75.2015 Q356.518 75.5704 356.19 75.6934 Q355.903 75.8164 355.698 75.8574 Q355.493 75.8983 355.165 75.8983 Q354.304 75.8983 352.46 75.8164 Q350.656 75.7344 349.714 75.7344 L344.344 75.6524 L333.687 75.8983 Q332.416 75.8983 332.416 74.8736 Q332.416 74.0948 332.744 73.7669 Q333.072 73.398 333.441 73.357 Q333.81 73.316 334.752 73.316 Q336.802 73.316 338.032 73.1931 Q339.261 73.0701 340.04 72.9061 Q340.86 72.7012 341.27 72.1273 Q341.721 71.5535 341.926 71.0616 Q342.131 70.5287 342.417 69.3401 L353.649 24.2519 Q353.976 22.8992 353.976 22.6943 Q353.976 21.9974 353.567 21.7515 Q353.198 21.4646 352.132 21.3416 Q350.082 21.1777 348.525 21.1777 Q347.5 21.1777 347.09 21.1367 Q346.721 21.0957 346.393 20.8907 Q346.107 20.6448 346.107 20.1529 Q346.107 19.3741 346.434 19.0462 Q346.803 18.6773 347.213 18.6363 Q347.623 18.5543 348.607 18.5543 L375.824 18.5543 Q383.653 18.5543 387.998 22.2844 Q392.342 26.0144 392.342 31.22 M384.554 29.2116 Q384.554 21.1777 373.118 21.1777 L365.085 21.1777 Q362.42 21.1777 361.764 21.6695 Q361.109 22.1204 360.535 24.3748 L354.837 47.2058 L366.683 47.2058 Q374.635 47.2058 379.595 42.738 Q381.849 40.6886 383.202 36.4257 Q384.554 32.1628 384.554 29.2116 Z" fill="#000000" fill-rule="evenodd" fill-opacity="1" /><path clip-path="url(#clip970)" d="M429.352 44.2546 Q429.352 46.4271 427.918 47.8207 Q426.524 49.2143 424.721 49.2143 Q423.163 49.2143 422.343 48.3126 Q421.523 47.4108 421.523 46.2631 Q421.523 44.6235 422.794 43.2709 Q424.065 41.9182 425.909 41.6313 Q424.557 40.6476 422.384 40.6476 Q418.818 40.6476 415.662 43.3938 Q414.268 44.6645 412.752 47.0009 Q411.235 49.2963 410.948 50.28 L408.284 61.2242 Q408.038 62.4539 406.521 68.3563 Q405.046 74.2178 404.923 74.4637 Q404.513 75.6114 403.611 76.2263 Q402.709 76.8411 401.808 76.8411 Q400.783 76.8411 400.086 76.2263 Q399.389 75.6114 399.389 74.5457 Q399.389 74.3817 399.512 73.7669 Q399.635 73.1521 399.84 72.2913 Q400.045 71.4305 400.127 70.9386 L405.005 51.5507 Q405.906 48.0256 406.111 46.9189 Q406.357 45.7712 406.357 44.5006 Q406.357 42.2871 405.661 41.4674 Q404.964 40.6476 403.734 40.6476 Q401.603 40.6476 400.209 43.1889 Q398.815 45.7302 397.627 50.6489 Q397.258 52.0016 397.012 52.2885 Q396.807 52.5754 396.192 52.5754 Q395.167 52.5345 395.167 51.7147 Q395.167 51.5097 395.495 50.1981 Q395.823 48.8454 396.438 46.8779 Q397.094 44.8695 397.791 43.5988 Q398.2 42.738 398.569 42.1642 Q398.938 41.5903 399.676 40.6886 Q400.414 39.7868 401.521 39.2949 Q402.627 38.803 403.98 38.803 Q406.931 38.803 409.022 40.6066 Q411.153 42.4101 411.645 45.2384 Q412.67 43.7627 413.94 42.4921 Q415.211 41.1804 417.547 39.9917 Q419.884 38.803 422.384 38.803 Q425.499 38.803 427.426 40.4016 Q429.352 41.9592 429.352 44.2546 Z" fill="#000000" fill-rule="evenodd" fill-opacity="1" /><path clip-path="url(#clip970)" d="M471.578 52.9853 Q471.578 57.4532 469.61 61.88 Q467.643 66.2659 464.487 69.545 Q461.372 72.7832 457.273 74.8326 Q453.174 76.8411 449.075 76.8411 Q443.213 76.8411 439.401 72.8651 Q435.63 68.8482 435.63 62.6178 Q435.63 56.7973 438.869 51.2638 Q442.148 45.6892 447.394 42.2461 Q452.641 38.803 458.133 38.803 Q463.913 38.803 467.725 42.697 Q471.578 46.591 471.578 52.9853 M465.43 49.7062 Q465.43 45.7302 463.503 43.1889 Q461.577 40.6476 458.051 40.6476 Q457.027 40.6476 455.838 40.9755 Q454.649 41.2624 453.092 42.0412 Q451.575 42.82 449.854 44.4596 Q448.173 46.0581 446.697 48.3535 Q444.771 51.3868 443.295 56.9613 Q441.861 62.4948 441.861 65.815 Q441.861 70.4058 443.992 72.7012 Q446.124 74.9556 449.157 74.9556 Q452.108 74.9556 455.223 72.9061 Q458.379 70.8157 460.552 67.2496 Q462.724 63.5606 464.077 58.15 Q465.43 52.6984 465.43 49.7062 Z" fill="#000000" fill-rule="evenodd" fill-opacity="1" /><path clip-path="url(#clip970)" d="M506.848 52.2065 Q506.848 58.109 503.856 63.8885 Q500.905 69.627 496.15 73.234 Q491.436 76.8411 486.599 76.8411 Q481.886 76.8411 478.893 73.234 Q475.942 69.586 475.942 63.6425 Q475.942 61.5521 476.188 60.0765 Q476.434 58.6009 477.295 55.1578 L484.181 27.7769 Q485.37 22.6533 485.37 22.6123 Q485.37 22.1204 485.165 21.8745 Q485.001 21.5876 484.017 21.3826 Q483.033 21.1777 481.148 21.1777 Q480.369 21.1777 480 21.1367 Q479.672 21.0957 479.385 20.8907 Q479.139 20.6448 479.139 20.1529 Q479.139 19.4561 479.426 19.0872 Q479.754 18.6773 480 18.5953 Q480.246 18.5134 480.738 18.4724 Q481.435 18.4314 483.771 18.2264 Q486.108 17.9805 488.116 17.8165 Q490.124 17.6526 490.985 17.6526 Q491.477 17.6526 491.723 17.8985 Q492.01 18.1035 492.01 18.3494 L492.051 18.5543 L485.862 43.8447 Q490.739 38.803 495.699 38.803 Q500.659 38.803 503.733 42.615 Q506.848 46.4271 506.848 52.2065 M500.782 48.5175 Q500.782 44.6235 499.306 42.656 Q497.871 40.6476 495.494 40.6476 Q493.486 40.6476 490.862 42.1642 Q488.239 43.6808 485.452 47.3698 Q484.919 48.0666 484.714 48.4765 Q484.55 48.8864 484.181 50.28 L482.337 58.027 Q480.984 63.3146 480.984 66.5118 Q480.984 70.8567 482.582 72.9061 Q484.181 74.9556 486.599 74.9556 Q489.141 74.9556 491.805 72.7012 Q494.469 70.4468 496.519 66.3478 Q497.789 63.6425 499.265 57.8221 Q500.782 51.9606 500.782 48.5175 Z" fill="#000000" fill-rule="evenodd" fill-opacity="1" /><path clip-path="url(#clip970)" d="M529.203 18.5543 L517.111 67.0856 Q516.619 69.0121 516.619 71.1026 Q516.619 74.9556 519.16 74.9556 Q520.349 74.9556 521.333 74.1768 Q522.317 73.357 523.054 71.7584 Q523.833 70.1189 524.325 68.5613 Q524.858 67.0037 525.514 64.5853 Q525.719 63.6425 525.924 63.3556 Q526.129 63.0687 526.702 63.0687 Q527.727 63.0687 527.727 63.8885 Q526.702 68.9302 525.186 72.1273 Q522.972 76.8411 518.873 76.8411 Q515.799 76.8411 513.504 74.7097 Q511.249 72.5372 511.249 69.0941 Q511.249 67.7825 511.659 66.2249 L522.235 24.2519 L522.522 22.6123 Q522.522 22.1614 522.358 21.9155 Q522.194 21.6695 521.21 21.4236 Q520.267 21.1777 518.382 21.1777 Q517.603 21.1777 517.234 21.1367 Q516.906 21.0957 516.578 20.8907 Q516.291 20.6858 516.291 20.2349 Q516.291 19.4971 516.578 19.0872 Q516.906 18.6773 517.152 18.5953 Q517.398 18.5134 517.89 18.4724 Q518.587 18.4314 520.923 18.2264 Q523.259 17.9805 525.268 17.8165 Q527.276 17.6526 528.137 17.6526 Q528.629 17.6526 528.875 17.8985 Q529.162 18.1035 529.203 18.3494 L529.203 18.5543 Z" fill="#000000" fill-rule="evenodd" fill-opacity="1" /><path clip-path="url(#clip970)" d="M568.952 66.1839 Q569.28 66.5528 569.28 66.9217 Q569.28 67.2906 568.46 68.3563 Q567.681 69.422 566 70.8567 Q564.32 72.2913 562.147 73.6439 Q559.975 74.9966 556.778 75.8983 Q553.581 76.8411 550.22 76.8411 Q544.194 76.8411 540.587 72.5372 Q537.021 68.2333 537.021 61.6341 Q537.021 57.4122 538.415 53.6822 Q539.808 49.9111 542.063 47.2468 Q544.358 44.5825 547.227 42.656 Q550.138 40.6886 553.171 39.7458 Q556.204 38.803 559.032 38.803 Q563.172 38.803 565.591 40.8935 Q568.009 42.984 568.009 45.9352 Q568.009 46.632 567.804 47.4928 Q567.64 48.3535 567.066 49.7062 Q566.533 51.0588 565.14 52.4115 Q563.746 53.7231 561.697 54.5839 Q557.147 56.5104 548.867 56.5104 L544.399 56.5104 Q543.087 61.798 543.087 65.2411 Q543.087 66.5938 543.333 67.9874 Q543.579 69.3401 544.235 71.0616 Q544.932 72.7832 546.49 73.8899 Q548.088 74.9556 550.384 74.9556 Q551.121 74.9556 551.9 74.9146 Q552.72 74.8736 554.769 74.4227 Q556.86 73.9718 558.704 73.1931 Q560.549 72.4143 562.885 70.7337 Q565.263 69.0121 567.148 66.6758 Q567.804 65.815 568.255 65.815 Q568.624 65.815 568.952 66.1839 M565.222 45.9352 Q565.222 43.6808 563.541 42.1642 Q561.902 40.6476 559.032 40.6476 Q558.131 40.6476 557.024 40.8525 Q555.917 41.0575 554.073 41.9182 Q552.269 42.779 550.67 44.2136 Q549.072 45.6073 547.473 48.3535 Q545.875 51.0588 544.932 54.6659 L548.375 54.6659 Q549.564 54.6659 550.425 54.6659 Q551.285 54.6249 553.171 54.461 Q555.097 54.297 556.491 54.0101 Q557.885 53.6822 559.647 53.0263 Q561.41 52.3705 562.516 51.5097 Q563.664 50.608 564.443 49.1733 Q565.222 47.7387 565.222 45.9352 Z" fill="#000000" fill-rule="evenodd" fill-opacity="1" /><path clip-path="url(#clip970)" d="M642.85 63.8885 Q642.85 64.2164 642.481 65.4871 Q642.112 66.7577 641.21 68.7252 Q640.349 70.6927 639.12 72.4962 Q637.931 74.2588 635.963 75.5704 Q634.037 76.8411 631.824 76.8411 Q628.872 76.8411 626.905 74.8736 Q624.937 72.9061 624.937 69.9549 Q624.937 68.3563 626.044 65.3231 Q631.25 51.4687 631.25 46.509 Q631.25 40.6476 626.7 40.6476 Q624.118 40.6476 621.781 41.7133 Q619.445 42.779 617.928 44.2546 Q616.412 45.7302 615.223 47.4108 Q614.034 49.0914 613.501 50.1981 Q613.009 51.3048 612.886 51.7966 L607.845 72.0454 Q607.435 73.7669 607.148 74.5867 Q606.861 75.4065 606.082 76.1033 Q605.303 76.8411 604.074 76.8411 Q603.049 76.8411 602.311 76.2263 Q601.614 75.6114 601.614 74.5457 Q601.614 74.3817 601.819 73.521 Q602.024 72.6602 602.311 71.4715 Q602.598 70.2828 602.721 69.586 Q604.197 64.0115 604.402 63.2327 L606.738 53.4772 Q608.009 48.6405 608.009 46.509 Q608.009 40.6476 603.459 40.6476 Q601.205 40.6476 599.073 41.5083 Q596.983 42.3281 595.548 43.4758 Q594.113 44.6235 592.802 46.2221 Q591.531 47.7797 590.875 48.8454 Q590.26 49.8702 589.769 50.8949 L588.703 55.0758 Q588.457 56.2235 587.268 60.6913 L585.424 68.2743 Q584.112 73.9309 583.825 74.4637 Q583.415 75.6114 582.513 76.2263 Q581.612 76.8411 580.71 76.8411 Q579.685 76.8411 578.988 76.2263 Q578.292 75.6114 578.292 74.5457 Q578.292 74.3817 578.415 73.7669 Q578.537 73.1521 578.742 72.2913 Q578.947 71.4305 579.029 70.9386 L583.907 51.5507 Q584.809 48.0256 585.014 46.9189 Q585.26 45.7712 585.26 44.5006 Q585.26 40.6476 582.636 40.6476 Q580.505 40.6476 579.111 43.1889 Q577.718 45.7302 576.529 50.6489 Q576.16 52.0016 575.914 52.2885 Q575.709 52.5754 575.094 52.5754 Q574.07 52.5345 574.07 51.7147 Q574.07 51.5097 574.398 50.1981 Q574.725 48.8864 575.34 46.9189 Q575.996 44.9104 576.693 43.5988 Q577.103 42.738 577.472 42.1642 Q577.841 41.5903 578.578 40.6886 Q579.316 39.7868 580.423 39.2949 Q581.53 38.803 582.882 38.803 Q585.875 38.803 588.088 40.7295 Q590.342 42.656 590.629 46.0991 Q596.081 38.803 603.705 38.803 Q608.009 38.803 610.591 40.9755 Q613.009 43.0659 613.296 46.9189 Q618.953 38.803 626.987 38.803 Q631.619 38.803 634.119 41.2214 Q636.619 43.5988 636.619 47.7797 Q636.619 49.9521 635.513 54.092 Q634.406 58.191 633.668 60.2404 Q632.93 62.2899 631.496 66.2249 Q629.979 69.9959 629.979 72.2093 Q629.979 73.6439 630.471 74.2998 Q630.963 74.9556 632.028 74.9556 Q633.668 74.9556 635.103 74.0128 Q636.537 73.0291 637.562 71.4305 Q638.628 69.7909 639.325 68.1514 Q640.021 66.4708 640.554 64.5853 Q640.882 63.5606 641.046 63.3146 Q641.251 63.0687 641.825 63.0687 Q642.85 63.0687 642.85 63.8885 Z" fill="#000000" fill-rule="evenodd" fill-opacity="1" /><path clip-path="url(#clip970)" d="M669.242 75.8983 Q669.242 74.3817 669.365 73.9309 Q669.529 73.48 670.185 72.7832 L686.294 54.8299 Q695.107 44.9104 695.107 36.2617 Q695.107 30.6462 692.155 26.6292 Q689.245 22.6123 683.876 22.6123 Q680.187 22.6123 677.071 24.8667 Q673.956 27.1211 672.522 31.1381 Q672.768 31.0561 673.628 31.0561 Q675.719 31.0561 676.866 32.3677 Q678.055 33.6794 678.055 35.4419 Q678.055 37.6963 676.58 38.803 Q675.145 39.8688 673.71 39.8688 Q673.136 39.8688 672.358 39.7458 Q671.62 39.6228 670.431 38.4751 Q669.242 37.2864 669.242 35.196 Q669.242 29.3345 673.669 24.6617 Q678.137 19.989 684.941 19.989 Q692.647 19.989 697.689 24.5798 Q702.772 29.1296 702.772 36.2617 Q702.772 38.7621 701.993 41.0575 Q701.255 43.3119 700.23 45.0744 Q699.247 46.8369 696.541 49.6652 Q693.836 52.4935 691.664 54.5019 Q689.491 56.5104 684.613 60.7733 L675.719 69.422 L690.844 69.422 Q698.222 69.422 698.796 68.7662 Q699.616 67.5775 700.64 61.3062 L702.772 61.3062 L700.394 75.8983 L669.242 75.8983 Z" fill="#000000" fill-rule="evenodd" fill-opacity="1" /><path clip-path="url(#clip970)" d="M712.083 74.5457 Q710.813 73.1931 710.813 71.4305 Q710.813 69.668 712.083 68.3973 Q713.354 67.0856 715.281 67.0856 Q717.125 67.0856 718.355 68.3153 Q719.625 69.504 719.625 71.4715 Q719.625 73.398 718.273 74.6687 Q716.961 75.8983 715.281 75.8983 Q713.354 75.8983 712.083 74.5457 Z" fill="#000000" fill-rule="evenodd" fill-opacity="1" /><path clip-path="url(#clip970)" d="M725.412 27.9819 L725.412 25.3586 Q735.495 25.3586 740.701 19.989 Q742.136 19.989 742.381 20.3169 Q742.627 20.6448 742.627 22.1614 L742.627 69.2581 Q742.627 71.7584 743.857 72.5372 Q745.087 73.316 750.456 73.316 L753.121 73.316 L753.121 75.8983 Q750.169 75.6524 739.512 75.6524 Q728.855 75.6524 725.945 75.8983 L725.945 73.316 L728.609 73.316 Q733.897 73.316 735.167 72.5782 Q736.438 71.7994 736.438 69.2581 L736.438 25.7685 Q732.052 27.9819 725.412 27.9819 Z" fill="#000000" fill-rule="evenodd" fill-opacity="1" /><path clip-path="url(#clip970)" d="M791.584 74.6277 Q790.273 73.316 790.273 71.4715 Q790.273 69.627 791.584 68.3153 Q792.896 67.0037 794.741 67.0037 Q796.585 67.0037 797.897 68.3153 Q799.208 69.627 799.208 71.4715 Q799.208 73.316 797.897 74.6277 Q796.585 75.8983 794.741 75.8983 Q792.896 75.8983 791.584 74.6277 M791.584 47.3288 Q790.273 46.0172 790.273 44.1726 Q790.273 42.3281 791.584 41.0165 Q792.896 39.7048 794.741 39.7048 Q796.585 39.7048 797.897 41.0165 Q799.208 42.3281 799.208 44.1726 Q799.208 46.0172 797.897 47.3288 Q796.585 48.5995 794.741 48.5995 Q792.896 48.5995 791.584 47.3288 Z" fill="#000000" fill-rule="evenodd" fill-opacity="1" /><path clip-path="url(#clip970)" d="M900.612 22.4893 Q900.612 24.7437 899.178 26.1374 Q897.784 27.531 896.022 27.531 Q894.751 27.531 893.808 26.7522 Q892.906 25.9734 892.906 24.6208 Q892.906 23.2271 893.972 21.7515 Q895.038 20.2759 897.456 20.0709 Q895.858 18.5543 893.316 18.5543 Q892.046 18.5543 890.98 19.3741 Q889.955 20.1529 889.381 21.4236 Q888.767 22.7353 887.373 30.1543 Q886.922 32.5727 886.512 34.9091 Q886.102 37.2455 885.61 39.7048 L892.579 39.7048 Q893.48 39.7048 893.849 39.7458 Q894.218 39.7868 894.505 39.9917 Q894.833 40.1967 894.833 40.6476 Q894.833 41.7953 894.3 42.0822 Q893.808 42.3281 892.333 42.3281 L885.118 42.3281 L880.077 68.9302 Q879.954 69.709 879.421 72.1683 Q878.929 74.5867 877.74 78.5626 Q876.552 82.5796 875.363 84.957 Q874.707 86.3096 873.846 87.5803 Q873.027 88.8919 871.838 90.2036 Q870.649 91.5153 869.092 92.2941 Q867.534 93.1138 865.895 93.1138 Q863.107 93.1138 860.935 91.5562 Q858.762 89.9987 858.762 87.3344 Q858.762 85.0799 860.156 83.6863 Q861.591 82.2927 863.353 82.2927 Q864.624 82.2927 865.526 83.0715 Q866.468 83.8503 866.468 85.2029 Q866.468 85.7768 866.263 86.4326 Q866.058 87.0884 865.608 87.8262 Q865.157 88.605 864.173 89.1379 Q863.189 89.6707 861.837 89.7527 Q863.435 91.2693 865.895 91.2693 Q866.673 91.2693 867.37 90.9414 Q868.067 90.6545 868.641 89.9167 Q869.256 89.1789 869.707 88.4411 Q870.157 87.7442 870.608 86.3916 Q871.059 85.0799 871.346 84.0962 Q871.633 83.1125 872.002 81.3499 Q872.412 79.5874 872.617 78.5217 Q872.822 77.4969 873.191 75.4885 L879.462 42.3281 L873.928 42.3281 Q872.945 42.3281 872.535 42.2871 Q872.166 42.2461 871.879 42.0412 Q871.592 41.7953 871.592 41.3034 Q871.592 40.5246 871.92 40.1967 Q872.289 39.8278 872.699 39.7868 Q873.109 39.7048 874.092 39.7048 L879.913 39.7048 Q881.88 29.3345 882.659 26.5473 Q883.561 23.596 884.955 21.5466 Q886.348 19.4561 887.906 18.4724 Q889.463 17.4886 890.734 17.1197 Q892.046 16.7098 893.316 16.7098 Q896.186 16.7098 898.399 18.2674 Q900.612 19.784 900.612 22.4893 Z" fill="#000000" fill-rule="evenodd" fill-opacity="1" /><path clip-path="url(#clip970)" d="M911.912 54.9118 Q911.912 40.7295 917.2 29.2935 Q919.454 24.4978 922.61 20.4808 Q925.767 16.4639 927.857 14.7014 Q929.947 12.9388 930.521 12.9388 Q931.341 12.9388 931.382 13.7586 Q931.382 14.1685 930.275 15.1932 Q916.749 28.9656 916.79 54.9118 Q916.79 80.94 929.947 94.1796 Q931.382 95.6142 931.382 96.0651 Q931.382 96.8849 930.521 96.8849 Q929.947 96.8849 927.939 95.2043 Q925.931 93.5237 922.815 89.6707 Q919.7 85.8177 917.446 81.104 Q911.912 69.668 911.912 54.9118 Z" fill="#000000" fill-rule="evenodd" fill-opacity="1" /><path clip-path="url(#clip970)" d="M979.57 44.3366 Q979.57 46.632 978.136 47.9437 Q976.701 49.2143 975.062 49.2143 Q973.504 49.2143 972.684 48.3126 Q971.864 47.4108 971.864 46.2631 Q971.864 44.7055 973.012 43.3529 Q974.16 42.0002 975.881 41.7133 Q974.201 40.6476 971.701 40.6476 Q970.061 40.6476 968.626 41.5083 Q967.233 42.3691 966.372 43.4758 Q965.552 44.5825 964.814 46.1811 Q964.118 47.7387 963.831 48.6815 Q963.585 49.5832 963.38 50.567 L960.51 62.044 Q959.117 67.4955 959.117 69.422 Q959.117 71.7994 960.265 73.398 Q961.412 74.9556 963.708 74.9556 Q964.609 74.9556 965.634 74.7097 Q966.659 74.4227 967.971 73.6849 Q969.323 72.9061 970.512 71.7584 Q971.742 70.5697 972.93 68.5613 Q974.119 66.5528 974.898 63.9705 Q975.144 63.0687 975.963 63.0687 Q976.988 63.0687 976.988 63.8885 Q976.988 64.5853 976.414 66.0609 Q975.881 67.4955 974.693 69.381 Q973.545 71.2256 972.028 72.9061 Q970.512 74.5457 968.257 75.6934 Q966.003 76.8411 963.544 76.8411 Q960.019 76.8411 957.682 74.9556 Q955.346 73.0701 954.485 70.4468 Q954.28 70.8157 953.993 71.3075 Q953.706 71.7994 952.845 72.9061 Q952.026 73.9718 951.083 74.7916 Q950.14 75.5704 948.665 76.1853 Q947.23 76.8411 945.672 76.8411 Q943.705 76.8411 941.942 76.2672 Q940.221 75.6934 938.991 74.3817 Q937.761 73.0701 937.761 71.2666 Q937.761 69.2581 939.114 67.8644 Q940.508 66.4298 942.393 66.4298 Q943.582 66.4298 944.525 67.1266 Q945.508 67.8235 945.508 69.3401 Q945.508 71.0206 944.361 72.2913 Q943.213 73.562 941.573 73.8899 Q943.254 74.9556 945.754 74.9556 Q948.46 74.9556 950.591 72.5782 Q952.722 70.2008 953.747 66.2249 Q956.289 56.6744 957.272 52.4115 Q958.256 48.1076 958.256 46.2631 Q958.256 44.5415 957.805 43.3529 Q957.354 42.1642 956.575 41.6313 Q955.838 41.0575 955.141 40.8525 Q954.485 40.6476 953.747 40.6476 Q952.518 40.6476 951.124 41.1394 Q949.771 41.6313 948.132 42.779 Q946.533 43.8857 945.017 46.1811 Q943.5 48.4765 942.475 51.6327 Q942.27 52.5754 941.368 52.5754 Q940.385 52.5345 940.385 51.7147 Q940.385 51.0179 940.918 49.5832 Q941.491 48.1076 942.639 46.2631 Q943.828 44.4186 945.344 42.779 Q946.902 41.0984 949.156 39.9507 Q951.452 38.803 953.911 38.803 Q955.018 38.803 956.084 39.049 Q957.19 39.2539 958.502 39.8688 Q959.855 40.4836 961.043 41.8363 Q962.232 43.1889 962.97 45.1564 Q963.462 44.2136 964.118 43.3119 Q964.814 42.4101 965.88 41.3034 Q966.987 40.1557 968.503 39.4999 Q970.061 38.803 971.783 38.803 Q973.463 38.803 975.103 39.2539 Q976.742 39.6638 978.136 41.0165 Q979.57 42.3281 979.57 44.3366 Z" fill="#000000" fill-rule="evenodd" fill-opacity="1" /><path clip-path="url(#clip970)" d="M987.651 96.0651 Q987.651 95.6552 988.717 94.6304 Q1002.24 80.858 1002.24 54.9118 Q1002.24 28.8836 989.25 15.7261 Q987.651 14.2095 987.651 13.7586 Q987.651 12.9388 988.471 12.9388 Q989.045 12.9388 991.053 14.6194 Q993.103 16.2999 996.177 20.1529 Q999.292 24.0059 1001.59 28.7197 Q1007.12 40.1557 1007.12 54.9118 Q1007.12 69.0941 1001.83 80.5301 Q999.579 85.3259 996.423 89.3428 Q993.267 93.3598 991.176 95.1223 Q989.086 96.8849 988.471 96.8849 Q987.651 96.8849 987.651 96.0651 Z" fill="#000000" fill-rule="evenodd" fill-opacity="1" /><path clip-path="url(#clip970)" d="M1043.18 63.1507 Q1043.26 62.1259 1044.86 62.1259 L1096.3 62.1259 Q1098.72 62.1259 1098.76 63.0687 Q1098.76 64.0934 1096.46 64.0524 L1045.43 64.0524 Q1043.18 64.0934 1043.18 63.1507 M1043.18 46.755 Q1043.18 45.7302 1044.94 45.7712 L1096.22 45.7712 Q1098.72 45.7712 1098.76 46.755 Q1098.76 47.6977 1096.63 47.6977 L1044.86 47.6977 Q1043.18 47.6977 1043.18 46.755 Z" fill="#000000" fill-rule="evenodd" fill-opacity="1" /><path clip-path="url(#clip970)" d="M1172.94 44.3366 Q1172.94 46.632 1171.51 47.9437 Q1170.07 49.2143 1168.44 49.2143 Q1166.88 49.2143 1166.06 48.3126 Q1165.24 47.4108 1165.24 46.2631 Q1165.24 44.7055 1166.39 43.3529 Q1167.53 42.0002 1169.26 41.7133 Q1167.57 40.6476 1165.07 40.6476 Q1163.43 40.6476 1162 41.5083 Q1160.61 42.3691 1159.75 43.4758 Q1158.93 44.5825 1158.19 46.1811 Q1157.49 47.7387 1157.2 48.6815 Q1156.96 49.5832 1156.75 50.567 L1153.88 62.044 Q1152.49 67.4955 1152.49 69.422 Q1152.49 71.7994 1153.64 73.398 Q1154.79 74.9556 1157.08 74.9556 Q1157.98 74.9556 1159.01 74.7097 Q1160.03 74.4227 1161.34 73.6849 Q1162.7 72.9061 1163.89 71.7584 Q1165.12 70.5697 1166.3 68.5613 Q1167.49 66.5528 1168.27 63.9705 Q1168.52 63.0687 1169.34 63.0687 Q1170.36 63.0687 1170.36 63.8885 Q1170.36 64.5853 1169.79 66.0609 Q1169.26 67.4955 1168.07 69.381 Q1166.92 71.2256 1165.4 72.9061 Q1163.89 74.5457 1161.63 75.6934 Q1159.38 76.8411 1156.92 76.8411 Q1153.39 76.8411 1151.06 74.9556 Q1148.72 73.0701 1147.86 70.4468 Q1147.65 70.8157 1147.37 71.3075 Q1147.08 71.7994 1146.22 72.9061 Q1145.4 73.9718 1144.46 74.7916 Q1143.51 75.5704 1142.04 76.1853 Q1140.6 76.8411 1139.05 76.8411 Q1137.08 76.8411 1135.32 76.2672 Q1133.59 75.6934 1132.36 74.3817 Q1131.14 73.0701 1131.14 71.2666 Q1131.14 69.2581 1132.49 67.8644 Q1133.88 66.4298 1135.77 66.4298 Q1136.96 66.4298 1137.9 67.1266 Q1138.88 67.8235 1138.88 69.3401 Q1138.88 71.0206 1137.73 72.2913 Q1136.59 73.562 1134.95 73.8899 Q1136.63 74.9556 1139.13 74.9556 Q1141.83 74.9556 1143.96 72.5782 Q1146.1 70.2008 1147.12 66.2249 Q1149.66 56.6744 1150.65 52.4115 Q1151.63 48.1076 1151.63 46.2631 Q1151.63 44.5415 1151.18 43.3529 Q1150.73 42.1642 1149.95 41.6313 Q1149.21 41.0575 1148.51 40.8525 Q1147.86 40.6476 1147.12 40.6476 Q1145.89 40.6476 1144.5 41.1394 Q1143.14 41.6313 1141.51 42.779 Q1139.91 43.8857 1138.39 46.1811 Q1136.87 48.4765 1135.85 51.6327 Q1135.64 52.5754 1134.74 52.5754 Q1133.76 52.5345 1133.76 51.7147 Q1133.76 51.0179 1134.29 49.5832 Q1134.87 48.1076 1136.01 46.2631 Q1137.2 44.4186 1138.72 42.779 Q1140.28 41.0984 1142.53 39.9507 Q1144.83 38.803 1147.28 38.803 Q1148.39 38.803 1149.46 39.049 Q1150.56 39.2539 1151.88 39.8688 Q1153.23 40.4836 1154.42 41.8363 Q1155.61 43.1889 1156.34 45.1564 Q1156.84 44.2136 1157.49 43.3119 Q1158.19 42.4101 1159.25 41.3034 Q1160.36 40.1557 1161.88 39.4999 Q1163.43 38.803 1165.16 38.803 Q1166.84 38.803 1168.48 39.2539 Q1170.12 39.6638 1171.51 41.0165 Q1172.94 42.3281 1172.94 44.3366 Z" fill="#000000" fill-rule="evenodd" fill-opacity="1" /><path clip-path="url(#clip970)" d="M1257.38 53.7231 Q1257.87 54.215 1257.87 54.9118 Q1257.87 55.6087 1257.38 56.1005 Q1256.89 56.5924 1256.19 56.5924 L1203.64 56.5924 Q1202.95 56.5924 1202.46 56.1005 Q1201.96 55.6087 1201.96 54.9118 Q1201.96 54.215 1202.46 53.7231 Q1202.95 53.2313 1203.64 53.2313 L1256.19 53.2313 Q1256.89 53.2313 1257.38 53.7231 Z" fill="#000000" fill-rule="evenodd" fill-opacity="1" /><path clip-path="url(#clip970)" d="M1321.85 66.1839 Q1322.18 66.5528 1322.18 66.9217 Q1322.18 67.2906 1321.36 68.3563 Q1320.58 69.422 1318.9 70.8567 Q1317.22 72.2913 1315.05 73.6439 Q1312.88 74.9966 1309.68 75.8983 Q1306.48 76.8411 1303.12 76.8411 Q1297.1 76.8411 1293.49 72.5372 Q1289.92 68.2333 1289.92 61.6341 Q1289.92 57.4122 1291.32 53.6822 Q1292.71 49.9111 1294.97 47.2468 Q1297.26 44.5825 1300.13 42.656 Q1303.04 40.6886 1306.07 39.7458 Q1309.11 38.803 1311.93 38.803 Q1316.07 38.803 1318.49 40.8935 Q1320.91 42.984 1320.91 45.9352 Q1320.91 46.632 1320.71 47.4928 Q1320.54 48.3535 1319.97 49.7062 Q1319.44 51.0588 1318.04 52.4115 Q1316.65 53.7231 1314.6 54.5839 Q1310.05 56.5104 1301.77 56.5104 L1297.3 56.5104 Q1295.99 61.798 1295.99 65.2411 Q1295.99 66.5938 1296.24 67.9874 Q1296.48 69.3401 1297.14 71.0616 Q1297.83 72.7832 1299.39 73.8899 Q1300.99 74.9556 1303.29 74.9556 Q1304.02 74.9556 1304.8 74.9146 Q1305.62 74.8736 1307.67 74.4227 Q1309.76 73.9718 1311.61 73.1931 Q1313.45 72.4143 1315.79 70.7337 Q1318.16 69.0121 1320.05 66.6758 Q1320.71 65.815 1321.16 65.815 Q1321.53 65.815 1321.85 66.1839 M1318.12 45.9352 Q1318.12 43.6808 1316.44 42.1642 Q1314.8 40.6476 1311.93 40.6476 Q1311.03 40.6476 1309.93 40.8525 Q1308.82 41.0575 1306.97 41.9182 Q1305.17 42.779 1303.57 44.2136 Q1301.97 45.6073 1300.38 48.3535 Q1298.78 51.0588 1297.83 54.6659 L1301.28 54.6659 Q1302.47 54.6659 1303.33 54.6659 Q1304.19 54.6249 1306.07 54.461 Q1308 54.297 1309.39 54.0101 Q1310.79 53.6822 1312.55 53.0263 Q1314.31 52.3705 1315.42 51.5097 Q1316.57 50.608 1317.35 49.1733 Q1318.12 47.7387 1318.12 45.9352 Z" fill="#000000" fill-rule="evenodd" fill-opacity="1" /><path clip-path="url(#clip970)" d="M1369.61 30.6993 Q1369.96 31.0436 1369.96 31.5314 Q1369.96 32.0192 1369.61 32.3635 Q1369.27 32.7078 1368.78 32.7078 L1332 32.7078 Q1331.51 32.7078 1331.17 32.3635 Q1330.82 32.0192 1330.82 31.5314 Q1330.82 31.0436 1331.17 30.6993 Q1331.51 30.355 1332 30.355 L1368.78 30.355 Q1369.27 30.355 1369.61 30.6993 Z" fill="#000000" fill-rule="evenodd" fill-opacity="1" /><path clip-path="url(#clip970)" d="M1405.36 24.1287 Q1405.36 25.7355 1404.35 26.6537 Q1403.35 27.5431 1402.2 27.5431 Q1401.11 27.5431 1400.54 26.9119 Q1399.96 26.2807 1399.96 25.4773 Q1399.96 24.3869 1400.77 23.4401 Q1401.57 22.4932 1402.77 22.2924 Q1401.6 21.5464 1399.85 21.5464 Q1398.7 21.5464 1397.69 22.1489 Q1396.72 22.7515 1396.12 23.5262 Q1395.54 24.3009 1395.03 25.4199 Q1394.54 26.5102 1394.34 27.1701 Q1394.17 27.8014 1394.02 28.49 L1392.01 36.5239 Q1391.04 40.34 1391.04 41.6885 Q1391.04 43.3527 1391.84 44.4717 Q1392.65 45.562 1394.25 45.562 Q1394.88 45.562 1395.6 45.3899 Q1396.32 45.189 1397.24 44.6725 Q1398.18 44.1274 1399.01 43.324 Q1399.88 42.4919 1400.71 41.086 Q1401.54 39.68 1402.08 37.8724 Q1402.26 37.2412 1402.83 37.2412 Q1403.55 37.2412 1403.55 37.815 Q1403.55 38.3028 1403.15 39.3357 Q1402.77 40.34 1401.94 41.6598 Q1401.14 42.951 1400.08 44.1274 Q1399.01 45.2751 1397.44 46.0785 Q1395.86 46.8819 1394.14 46.8819 Q1391.67 46.8819 1390.03 45.562 Q1388.4 44.2422 1387.8 42.4058 Q1387.65 42.6641 1387.45 43.0084 Q1387.25 43.3527 1386.65 44.1274 Q1386.07 44.8734 1385.41 45.4472 Q1384.75 45.9924 1383.72 46.4228 Q1382.72 46.8819 1381.63 46.8819 Q1380.25 46.8819 1379.02 46.4802 Q1377.81 46.0785 1376.95 45.1603 Q1376.09 44.2422 1376.09 42.9797 Q1376.09 41.5738 1377.04 40.5982 Q1378.01 39.594 1379.33 39.594 Q1380.16 39.594 1380.82 40.0817 Q1381.51 40.5695 1381.51 41.6311 Q1381.51 42.8075 1380.71 43.697 Q1379.91 44.5865 1378.76 44.816 Q1379.93 45.562 1381.68 45.562 Q1383.58 45.562 1385.07 43.8978 Q1386.56 42.2337 1387.28 39.4505 Q1389.06 32.7652 1389.75 29.7811 Q1390.44 26.7684 1390.44 25.4773 Q1390.44 24.2722 1390.12 23.4401 Q1389.8 22.608 1389.26 22.235 Q1388.74 21.8333 1388.26 21.6899 Q1387.8 21.5464 1387.28 21.5464 Q1386.42 21.5464 1385.44 21.8907 Q1384.5 22.235 1383.35 23.0384 Q1382.23 23.8131 1381.17 25.4199 Q1380.11 27.0267 1379.39 29.236 Q1379.25 29.8959 1378.61 29.8959 Q1377.93 29.8672 1377.93 29.2934 Q1377.93 28.8056 1378.3 27.8014 Q1378.7 26.7684 1379.5 25.4773 Q1380.34 24.1861 1381.4 23.0384 Q1382.49 21.862 1384.07 21.0586 Q1385.67 20.2552 1387.39 20.2552 Q1388.17 20.2552 1388.92 20.4274 Q1389.69 20.5708 1390.61 21.0012 Q1391.55 21.4316 1392.39 22.3785 Q1393.22 23.3253 1393.74 24.7026 Q1394.08 24.0426 1394.54 23.4114 Q1395.03 22.7802 1395.77 22.0055 Q1396.55 21.2021 1397.61 20.743 Q1398.7 20.2552 1399.9 20.2552 Q1401.08 20.2552 1402.23 20.5708 Q1403.38 20.8578 1404.35 21.8046 Q1405.36 22.7228 1405.36 24.1287 Z" fill="#000000" fill-rule="evenodd" fill-opacity="1" /><path clip-path="url(#clip970)" d="M1441.62 63.1507 Q1441.7 62.1259 1443.3 62.1259 L1494.74 62.1259 Q1497.16 62.1259 1497.2 63.0687 Q1497.2 64.0934 1494.9 64.0524 L1443.87 64.0524 Q1441.62 64.0934 1441.62 63.1507 M1441.62 46.755 Q1441.62 45.7302 1443.38 45.7712 L1494.66 45.7712 Q1497.16 45.7712 1497.2 46.755 Q1497.2 47.6977 1495.07 47.6977 L1443.3 47.6977 Q1441.62 47.6977 1441.62 46.755 Z" fill="#000000" fill-rule="evenodd" fill-opacity="1" /><path clip-path="url(#clip970)" d="M1529.58 49.0504 Q1529.58 36.7126 1532.69 29.9904 Q1537.04 19.989 1547.28 19.989 Q1549.46 19.989 1551.71 20.6038 Q1554.01 21.1777 1556.88 23.4321 Q1559.79 25.6865 1561.55 29.3755 Q1564.91 36.5076 1564.91 49.0504 Q1564.91 61.3062 1561.79 67.9874 Q1557.24 77.7429 1547.2 77.7429 Q1543.43 77.7429 1539.58 75.8164 Q1535.77 73.8899 1533.35 69.2581 Q1529.58 62.3309 1529.58 49.0504 M1536.54 48.0256 Q1536.54 60.6913 1537.45 65.733 Q1538.47 71.1846 1541.26 73.562 Q1544.09 75.8983 1547.2 75.8983 Q1550.56 75.8983 1553.35 73.398 Q1556.18 70.8567 1557.04 65.4051 Q1557.98 60.0355 1557.94 48.0256 Q1557.94 36.3437 1557.12 31.6709 Q1556.01 26.2193 1553.06 24.0469 Q1550.15 21.8335 1547.2 21.8335 Q1546.1 21.8335 1544.91 22.1614 Q1543.76 22.4893 1542.08 23.4321 Q1540.4 24.3748 1539.09 26.7112 Q1537.82 29.0476 1537.2 32.5727 Q1536.54 37.1225 1536.54 48.0256 Z" fill="#000000" fill-rule="evenodd" fill-opacity="1" /><path clip-path="url(#clip970)" d="M1572.34 74.5457 Q1571.15 73.1931 1571.15 71.4305 Q1571.15 69.668 1572.29 68.3563 Q1573.48 67.0037 1575.61 67.0037 Q1578.11 67.0037 1579.55 69.422 Q1580.98 71.7994 1580.98 75.8164 Q1580.98 80.1612 1579.22 84.1782 Q1577.46 88.2361 1575.74 90.1626 Q1574.02 92.0891 1573.32 92.0891 Q1572.5 92.0891 1572.5 91.1873 Q1572.5 90.8594 1573.07 90.2446 Q1579.1 83.7683 1579.14 75.8164 Q1579.14 74.5457 1578.98 74.5457 L1578.77 74.7097 Q1577.34 75.8983 1575.61 75.8983 Q1573.52 75.8983 1572.34 74.5457 Z" fill="#000000" fill-rule="evenodd" fill-opacity="1" /><path clip-path="url(#clip970)" d="M1738.01 44.3366 Q1738.01 46.632 1736.57 47.9437 Q1735.14 49.2143 1733.5 49.2143 Q1731.94 49.2143 1731.12 48.3126 Q1730.3 47.4108 1730.3 46.2631 Q1730.3 44.7055 1731.45 43.3529 Q1732.6 42.0002 1734.32 41.7133 Q1732.64 40.6476 1730.14 40.6476 Q1728.5 40.6476 1727.06 41.5083 Q1725.67 42.3691 1724.81 43.4758 Q1723.99 44.5825 1723.25 46.1811 Q1722.55 47.7387 1722.27 48.6815 Q1722.02 49.5832 1721.82 50.567 L1718.95 62.044 Q1717.55 67.4955 1717.55 69.422 Q1717.55 71.7994 1718.7 73.398 Q1719.85 74.9556 1722.14 74.9556 Q1723.05 74.9556 1724.07 74.7097 Q1725.1 74.4227 1726.41 73.6849 Q1727.76 72.9061 1728.95 71.7584 Q1730.18 70.5697 1731.37 68.5613 Q1732.56 66.5528 1733.33 63.9705 Q1733.58 63.0687 1734.4 63.0687 Q1735.43 63.0687 1735.43 63.8885 Q1735.43 64.5853 1734.85 66.0609 Q1734.32 67.4955 1733.13 69.381 Q1731.98 71.2256 1730.47 72.9061 Q1728.95 74.5457 1726.69 75.6934 Q1724.44 76.8411 1721.98 76.8411 Q1718.46 76.8411 1716.12 74.9556 Q1713.78 73.0701 1712.92 70.4468 Q1712.72 70.8157 1712.43 71.3075 Q1712.14 71.7994 1711.28 72.9061 Q1710.46 73.9718 1709.52 74.7916 Q1708.58 75.5704 1707.1 76.1853 Q1705.67 76.8411 1704.11 76.8411 Q1702.14 76.8411 1700.38 76.2672 Q1698.66 75.6934 1697.43 74.3817 Q1696.2 73.0701 1696.2 71.2666 Q1696.2 69.2581 1697.55 67.8644 Q1698.94 66.4298 1700.83 66.4298 Q1702.02 66.4298 1702.96 67.1266 Q1703.95 67.8235 1703.95 69.3401 Q1703.95 71.0206 1702.8 72.2913 Q1701.65 73.562 1700.01 73.8899 Q1701.69 74.9556 1704.19 74.9556 Q1706.9 74.9556 1709.03 72.5782 Q1711.16 70.2008 1712.18 66.2249 Q1714.73 56.6744 1715.71 52.4115 Q1716.69 48.1076 1716.69 46.2631 Q1716.69 44.5415 1716.24 43.3529 Q1715.79 42.1642 1715.01 41.6313 Q1714.27 41.0575 1713.58 40.8525 Q1712.92 40.6476 1712.18 40.6476 Q1710.95 40.6476 1709.56 41.1394 Q1708.21 41.6313 1706.57 42.779 Q1704.97 43.8857 1703.45 46.1811 Q1701.94 48.4765 1700.91 51.6327 Q1700.71 52.5754 1699.81 52.5754 Q1698.82 52.5345 1698.82 51.7147 Q1698.82 51.0179 1699.35 49.5832 Q1699.93 48.1076 1701.08 46.2631 Q1702.26 44.4186 1703.78 42.779 Q1705.34 41.0984 1707.59 39.9507 Q1709.89 38.803 1712.35 38.803 Q1713.45 38.803 1714.52 39.049 Q1715.63 39.2539 1716.94 39.8688 Q1718.29 40.4836 1719.48 41.8363 Q1720.67 43.1889 1721.41 45.1564 Q1721.9 44.2136 1722.55 43.3119 Q1723.25 42.4101 1724.32 41.3034 Q1725.42 40.1557 1726.94 39.4999 Q1728.5 38.803 1730.22 38.803 Q1731.9 38.803 1733.54 39.2539 Q1735.18 39.6638 1736.57 41.0165 Q1738.01 42.3281 1738.01 44.3366 Z" fill="#000000" fill-rule="evenodd" fill-opacity="1" /><path clip-path="url(#clip970)" d="M1746.56 81.2998 Q1746.56 72.6633 1748.75 67.9577 Q1751.79 60.9568 1758.96 60.9568 Q1760.48 60.9568 1762.06 61.3872 Q1763.67 61.7889 1765.67 63.367 Q1767.71 64.945 1768.94 67.5274 Q1771.3 72.5199 1771.3 81.2998 Q1771.3 89.8788 1769.12 94.5557 Q1765.93 101.385 1758.9 101.385 Q1756.26 101.385 1753.57 100.036 Q1750.9 98.6874 1749.2 95.4452 Q1746.56 90.5961 1746.56 81.2998 M1751.44 80.5824 Q1751.44 89.4484 1752.07 92.9776 Q1752.79 96.7937 1754.74 98.4579 Q1756.72 100.093 1758.9 100.093 Q1761.26 100.093 1763.21 98.3431 Q1765.19 96.5642 1765.79 92.7481 Q1766.45 88.9893 1766.42 80.5824 Q1766.42 72.4051 1765.85 69.1341 Q1765.07 65.318 1763.01 63.7973 Q1760.97 62.2479 1758.9 62.2479 Q1758.13 62.2479 1757.3 62.4775 Q1756.49 62.707 1755.32 63.367 Q1754.14 64.0269 1753.22 65.6624 Q1752.33 67.2978 1751.9 69.7654 Q1751.44 72.9502 1751.44 80.5824 Z" fill="#000000" fill-rule="evenodd" fill-opacity="1" /><path clip-path="url(#clip970)" d="M1803.3 63.1507 Q1803.39 62.1259 1804.98 62.1259 L1856.43 62.1259 Q1858.84 62.1259 1858.89 63.0687 Q1858.89 64.0934 1856.59 64.0524 L1805.56 64.0524 Q1803.3 64.0934 1803.3 63.1507 M1803.3 46.755 Q1803.3 45.7302 1805.07 45.7712 L1856.34 45.7712 Q1858.84 45.7712 1858.89 46.755 Q1858.89 47.6977 1856.75 47.6977 L1804.98 47.6977 Q1803.3 47.6977 1803.3 46.755 Z" fill="#000000" fill-rule="evenodd" fill-opacity="1" /><path clip-path="url(#clip970)" d="M1891.26 49.0504 Q1891.26 36.7126 1894.38 29.9904 Q1898.72 19.989 1908.97 19.989 Q1911.14 19.989 1913.4 20.6038 Q1915.69 21.1777 1918.56 23.4321 Q1921.47 25.6865 1923.24 29.3755 Q1926.6 36.5076 1926.6 49.0504 Q1926.6 61.3062 1923.48 67.9874 Q1918.93 77.7429 1908.89 77.7429 Q1905.12 77.7429 1901.27 75.8164 Q1897.45 73.8899 1895.04 69.2581 Q1891.26 62.3309 1891.26 49.0504 M1898.23 48.0256 Q1898.23 60.6913 1899.13 65.733 Q1900.16 71.1846 1902.95 73.562 Q1905.77 75.8983 1908.89 75.8983 Q1912.25 75.8983 1915.04 73.398 Q1917.87 70.8567 1918.73 65.4051 Q1919.67 60.0355 1919.63 48.0256 Q1919.63 36.3437 1918.81 31.6709 Q1917.7 26.2193 1914.75 24.0469 Q1911.84 21.8335 1908.89 21.8335 Q1907.78 21.8335 1906.59 22.1614 Q1905.45 22.4893 1903.77 23.4321 Q1902.09 24.3748 1900.77 26.7112 Q1899.5 29.0476 1898.89 32.5727 Q1898.23 37.1225 1898.23 48.0256 Z" fill="#000000" fill-rule="evenodd" fill-opacity="1" /><path clip-path="url(#clip970)" d="M1934.11 74.5457 Q1932.83 73.1931 1932.83 71.4305 Q1932.83 69.668 1934.11 68.3973 Q1935.38 67.0856 1937.3 67.0856 Q1939.15 67.0856 1940.38 68.3153 Q1941.65 69.504 1941.65 71.4715 Q1941.65 73.398 1940.29 74.6687 Q1938.98 75.8983 1937.3 75.8983 Q1935.38 75.8983 1934.11 74.5457 Z" fill="#000000" fill-rule="evenodd" fill-opacity="1" /><path clip-path="url(#clip970)" d="M1955.93 62.3719 Q1955.93 59.8715 1957.29 58.9288 Q1958.64 57.945 1960.07 57.945 Q1962 57.945 1963.11 59.1747 Q1964.25 60.3634 1964.25 62.044 Q1964.25 63.7245 1963.11 64.9542 Q1962 66.1429 1960.07 66.1429 Q1959.13 66.1429 1958.64 65.9789 Q1959.75 69.8319 1963.11 72.6192 Q1966.51 75.4065 1970.98 75.4065 Q1976.59 75.4065 1979.95 69.9549 Q1981.96 66.4298 1981.96 58.4369 Q1981.96 51.3868 1980.45 47.8617 Q1978.11 42.4921 1973.31 42.4921 Q1966.51 42.4921 1962.49 48.3535 Q1962 49.0914 1961.43 49.1323 Q1960.61 49.1323 1960.4 48.6815 Q1960.24 48.1896 1960.24 46.9189 L1960.24 22.0794 Q1960.24 20.0709 1961.06 20.0709 Q1961.39 20.0709 1962.08 20.3169 Q1967.37 22.6533 1973.23 22.6943 Q1979.26 22.6943 1984.67 20.2349 Q1985.08 19.989 1985.32 19.989 Q1986.14 19.989 1986.18 20.9317 Q1986.18 21.2596 1985.49 22.2434 Q1984.83 23.1861 1983.4 24.4568 Q1981.96 25.6865 1980.12 26.8752 Q1978.27 28.0639 1975.57 28.8836 Q1972.9 29.6624 1969.95 29.6624 Q1966.43 29.6624 1962.82 28.5557 L1962.82 44.9104 Q1967.16 40.6476 1973.48 40.6476 Q1980.2 40.6476 1984.83 46.0581 Q1989.46 51.4687 1989.46 59.0108 Q1989.46 66.9217 1983.97 72.3323 Q1978.52 77.7429 1971.14 77.7429 Q1964.42 77.7429 1960.16 72.9471 Q1955.93 68.1514 1955.93 62.3719 Z" fill="#000000" fill-rule="evenodd" fill-opacity="1" /><polyline clip-path="url(#clip973)" style="stroke:#009af9; stroke-linecap:butt; stroke-linejoin:round; stroke-width:4; stroke-opacity:1; fill:none" points="
  256.86,1447.87 259.455,1428.29 262.05,1409.02 264.645,1390.07 267.24,1371.41 273.239,1329.42 279.238,1288.98 285.237,1250.01 291.236,1212.48 297.235,1176.31 
  303.233,1141.47 309.232,1107.91 315.231,1075.58 321.23,1044.42 327.229,1014.41 333.228,985.494 339.226,957.634 345.225,930.791 351.224,904.929 357.223,880.01 
  363.222,856 370.432,828.297 377.642,801.803 384.852,776.465 392.062,752.23 399.272,729.05 406.482,706.88 413.692,685.673 420.902,665.388 433.094,633.069 
  445.286,603.084 457.479,575.26 469.671,549.439 482.915,523.488 496.159,499.552 509.403,477.47 522.647,457.094 534.856,439.704 547.066,423.55 559.276,408.541 
  571.486,394.593 584.576,380.728 597.666,367.903 610.756,356.037 623.847,345.054 639.013,333.341 654.179,322.621 669.345,312.804 684.512,303.807 711.468,289.615 
  738.424,277.417 762.062,268.116 785.7,259.93 811.471,252.098 837.243,245.238 863.168,239.173 889.093,233.82 946.42,224.002 1000.96,216.606 1057.68,210.329 
  1105.42,205.845 1163.71,201.077 1217.1,197.197 1266.41,193.91 1316.37,190.79 1372.35,187.476 1423.08,184.593 1481.16,181.391 1534.94,178.493 1587.96,175.682 
  1639.44,172.982 1692.21,170.237 1750.03,167.249 1834.02,162.93 1851.25,162.047 
  "/>
<polyline clip-path="url(#clip973)" style="stroke:#e26f46; stroke-linecap:butt; stroke-linejoin:round; stroke-width:4; stroke-opacity:1; fill:none" points="
  -1481.02,202.579 3589.13,202.579 
  "/>
<path clip-path="url(#clip970)" d="
M1970.54 324.425 L2352.76 324.425 L2352.76 168.905 L1970.54 168.905  Z
  " fill="#ffffff" fill-rule="evenodd" fill-opacity="1"/>
<polyline clip-path="url(#clip970)" style="stroke:#000000; stroke-linecap:butt; stroke-linejoin:round; stroke-width:4; stroke-opacity:1; fill:none" points="
  1970.54,324.425 2352.76,324.425 2352.76,168.905 1970.54,168.905 1970.54,324.425 
  "/>
<polyline clip-path="url(#clip970)" style="stroke:#009af9; stroke-linecap:butt; stroke-linejoin:round; stroke-width:4; stroke-opacity:1; fill:none" points="
  1994.36,220.745 2137.27,220.745 
  "/>
<path clip-path="url(#clip970)" d="M2174.93 240.432 Q2173.13 245.062 2171.41 246.474 Q2169.7 247.886 2166.83 247.886 L2163.43 247.886 L2163.43 244.321 L2165.93 244.321 Q2167.69 244.321 2168.66 243.488 Q2169.63 242.654 2170.81 239.552 L2171.58 237.608 L2161.09 212.099 L2165.6 212.099 L2173.71 232.377 L2181.81 212.099 L2186.32 212.099 L2174.93 240.432 Z" fill="#000000" fill-rule="evenodd" fill-opacity="1" /><path clip-path="url(#clip970)" d="M2192.76 216.497 L2222.43 216.497 L2222.43 220.386 L2192.76 220.386 L2192.76 216.497 M2192.76 225.941 L2222.43 225.941 L2222.43 229.877 L2192.76 229.877 L2192.76 225.941 Z" fill="#000000" fill-rule="evenodd" fill-opacity="1" /><path clip-path="url(#clip970)" d="M2245.05 202.006 L2245.05 205.548 L2240.97 205.548 Q2238.68 205.548 2237.78 206.474 Q2236.9 207.4 2236.9 209.807 L2236.9 212.099 L2243.91 212.099 L2243.91 215.409 L2236.9 215.409 L2236.9 238.025 L2232.62 238.025 L2232.62 215.409 L2228.54 215.409 L2228.54 212.099 L2232.62 212.099 L2232.62 210.293 Q2232.62 205.965 2234.63 203.997 Q2236.65 202.006 2241.02 202.006 L2245.05 202.006 Z" fill="#000000" fill-rule="evenodd" fill-opacity="1" /><path clip-path="url(#clip970)" d="M2258.84 202.053 Q2255.74 207.377 2254.24 212.585 Q2252.73 217.793 2252.73 223.14 Q2252.73 228.488 2254.24 233.742 Q2255.77 238.974 2258.84 244.275 L2255.14 244.275 Q2251.67 238.835 2249.93 233.58 Q2248.22 228.326 2248.22 223.14 Q2248.22 217.978 2249.93 212.747 Q2251.65 207.516 2255.14 202.053 L2258.84 202.053 Z" fill="#000000" fill-rule="evenodd" fill-opacity="1" /><path clip-path="url(#clip970)" d="M2288.66 212.099 L2279.28 224.715 L2289.15 238.025 L2284.12 238.025 L2276.58 227.84 L2269.03 238.025 L2264.01 238.025 L2274.08 224.46 L2264.86 212.099 L2269.89 212.099 L2276.76 221.335 L2283.64 212.099 L2288.66 212.099 Z" fill="#000000" fill-rule="evenodd" fill-opacity="1" /><path clip-path="url(#clip970)" d="M2294.49 202.053 L2298.2 202.053 Q2301.67 207.516 2303.38 212.747 Q2305.12 217.978 2305.12 223.14 Q2305.12 228.326 2303.38 233.58 Q2301.67 238.835 2298.2 244.275 L2294.49 244.275 Q2297.57 238.974 2299.08 233.742 Q2300.6 228.488 2300.6 223.14 Q2300.6 217.793 2299.08 212.585 Q2297.57 207.377 2294.49 202.053 Z" fill="#000000" fill-rule="evenodd" fill-opacity="1" /><polyline clip-path="url(#clip970)" style="stroke:#e26f46; stroke-linecap:butt; stroke-linejoin:round; stroke-width:4; stroke-opacity:1; fill:none" points="
  1994.36,272.585 2137.27,272.585 
  "/>
<path clip-path="url(#clip970)" d="M2174.93 292.272 Q2173.13 296.902 2171.41 298.314 Q2169.7 299.726 2166.83 299.726 L2163.43 299.726 L2163.43 296.161 L2165.93 296.161 Q2167.69 296.161 2168.66 295.328 Q2169.63 294.494 2170.81 291.392 L2171.58 289.448 L2161.09 263.939 L2165.6 263.939 L2173.71 284.217 L2181.81 263.939 L2186.32 263.939 L2174.93 292.272 Z" fill="#000000" fill-rule="evenodd" fill-opacity="1" /><path clip-path="url(#clip970)" d="M2192.76 268.337 L2222.43 268.337 L2222.43 272.226 L2192.76 272.226 L2192.76 268.337 M2192.76 277.781 L2222.43 277.781 L2222.43 281.717 L2192.76 281.717 L2192.76 277.781 Z" fill="#000000" fill-rule="evenodd" fill-opacity="1" /><path clip-path="url(#clip970)" d="M2242.53 258.383 Q2238.91 258.383 2237.09 261.948 Q2235.28 265.49 2235.28 272.619 Q2235.28 279.726 2237.09 283.291 Q2238.91 286.832 2242.53 286.832 Q2246.16 286.832 2247.97 283.291 Q2249.79 279.726 2249.79 272.619 Q2249.79 265.49 2247.97 261.948 Q2246.16 258.383 2242.53 258.383 M2242.53 254.68 Q2248.34 254.68 2251.39 259.286 Q2254.47 263.869 2254.47 272.619 Q2254.47 281.346 2251.39 285.953 Q2248.34 290.536 2242.53 290.536 Q2236.72 290.536 2233.64 285.953 Q2230.58 281.346 2230.58 272.619 Q2230.58 263.869 2233.64 259.286 Q2236.72 254.68 2242.53 254.68 Z" fill="#000000" fill-rule="evenodd" fill-opacity="1" /></svg>
