<?xml version="1.0" encoding="utf-8"?>
<svg xmlns="http://www.w3.org/2000/svg" xmlns:xlink="http://www.w3.org/1999/xlink" width="600" height="400" viewBox="0 0 2400 1600">
<defs>
  <clipPath id="clip050">
    <rect x="0" y="0" width="2400" height="1600"/>
  </clipPath>
</defs>
<path clip-path="url(#clip050)" d="
M0 1600 L2400 1600 L2400 0 L0 0  Z
  " fill="#ffffff" fill-rule="evenodd" fill-opacity="1"/>
<defs>
  <clipPath id="clip051">
    <rect x="480" y="0" width="1681" height="1600"/>
  </clipPath>
</defs>
<defs>
  <clipPath id="clip052">
    <rect x="193" y="151" width="1704" height="1336"/>
  </clipPath>
</defs>
<path clip-path="url(#clip050)" d="
M169.121 1486.45 L1893.32 1486.45 L1893.32 123.472 L169.121 123.472  Z
  " fill="#ffffff" fill-rule="evenodd" fill-opacity="1"/>
<defs>
  <clipPath id="clip053">
    <rect x="169" y="123" width="1725" height="1364"/>
  </clipPath>
</defs>
<polyline clip-path="url(#clip053)" style="stroke:#000000; stroke-linecap:butt; stroke-linejoin:round; stroke-width:2; stroke-opacity:0.1; fill:none" points="
  380.579,1486.45 380.579,123.472 
  "/>
<polyline clip-path="url(#clip053)" style="stroke:#000000; stroke-linecap:butt; stroke-linejoin:round; stroke-width:2; stroke-opacity:0.1; fill:none" points="
  705.899,1486.45 705.899,123.472 
  "/>
<polyline clip-path="url(#clip053)" style="stroke:#000000; stroke-linecap:butt; stroke-linejoin:round; stroke-width:2; stroke-opacity:0.1; fill:none" points="
  1031.22,1486.45 1031.22,123.472 
  "/>
<polyline clip-path="url(#clip053)" style="stroke:#000000; stroke-linecap:butt; stroke-linejoin:round; stroke-width:2; stroke-opacity:0.1; fill:none" points="
  1356.54,1486.45 1356.54,123.472 
  "/>
<polyline clip-path="url(#clip053)" style="stroke:#000000; stroke-linecap:butt; stroke-linejoin:round; stroke-width:2; stroke-opacity:0.1; fill:none" points="
  1681.86,1486.45 1681.86,123.472 
  "/>
<polyline clip-path="url(#clip050)" style="stroke:#000000; stroke-linecap:butt; stroke-linejoin:round; stroke-width:4; stroke-opacity:1; fill:none" points="
  169.121,1486.45 1893.32,1486.45 
  "/>
<polyline clip-path="url(#clip050)" style="stroke:#000000; stroke-linecap:butt; stroke-linejoin:round; stroke-width:4; stroke-opacity:1; fill:none" points="
  380.579,1486.45 380.579,1467.55 
  "/>
<polyline clip-path="url(#clip050)" style="stroke:#000000; stroke-linecap:butt; stroke-linejoin:round; stroke-width:4; stroke-opacity:1; fill:none" points="
  705.899,1486.45 705.899,1467.55 
  "/>
<polyline clip-path="url(#clip050)" style="stroke:#000000; stroke-linecap:butt; stroke-linejoin:round; stroke-width:4; stroke-opacity:1; fill:none" points="
  1031.22,1486.45 1031.22,1467.55 
  "/>
<polyline clip-path="url(#clip050)" style="stroke:#000000; stroke-linecap:butt; stroke-linejoin:round; stroke-width:4; stroke-opacity:1; fill:none" points="
  1356.54,1486.45 1356.54,1467.55 
  "/>
<polyline clip-path="url(#clip050)" style="stroke:#000000; stroke-linecap:butt; stroke-linejoin:round; stroke-width:4; stroke-opacity:1; fill:none" points="
  1681.86,1486.45 1681.86,1467.55 
  "/>
<path clip-path="url(#clip050)" d="M349.48 1532.02 L379.155 1532.02 L379.155 1535.95 L349.48 1535.95 L349.48 1532.02 Z" fill="#000000" fill-rule="evenodd" fill-opacity="1" /><path clip-path="url(#clip050)" d="M402.095 1518.36 L390.29 1536.81 L402.095 1536.81 L402.095 1518.36 M400.868 1514.29 L406.748 1514.29 L406.748 1536.81 L411.678 1536.81 L411.678 1540.7 L406.748 1540.7 L406.748 1548.85 L402.095 1548.85 L402.095 1540.7 L386.493 1540.7 L386.493 1536.19 L400.868 1514.29 Z" fill="#000000" fill-rule="evenodd" fill-opacity="1" /><path clip-path="url(#clip050)" d="M675.841 1532.02 L705.517 1532.02 L705.517 1535.95 L675.841 1535.95 L675.841 1532.02 Z" fill="#000000" fill-rule="evenodd" fill-opacity="1" /><path clip-path="url(#clip050)" d="M719.637 1544.91 L735.956 1544.91 L735.956 1548.85 L714.012 1548.85 L714.012 1544.91 Q716.674 1542.16 721.257 1537.53 Q725.864 1532.88 727.044 1531.53 Q729.29 1529.01 730.169 1527.27 Q731.072 1525.51 731.072 1523.82 Q731.072 1521.07 729.128 1519.33 Q727.206 1517.6 724.105 1517.6 Q721.905 1517.6 719.452 1518.36 Q717.021 1519.13 714.243 1520.68 L714.243 1515.95 Q717.068 1514.82 719.521 1514.24 Q721.975 1513.66 724.012 1513.66 Q729.382 1513.66 732.577 1516.35 Q735.771 1519.03 735.771 1523.52 Q735.771 1525.65 734.961 1527.57 Q734.174 1529.47 732.067 1532.07 Q731.489 1532.74 728.387 1535.95 Q725.285 1539.15 719.637 1544.91 Z" fill="#000000" fill-rule="evenodd" fill-opacity="1" /><path clip-path="url(#clip050)" d="M1031.22 1517.37 Q1027.61 1517.37 1025.78 1520.93 Q1023.97 1524.47 1023.97 1531.6 Q1023.97 1538.71 1025.78 1542.27 Q1027.61 1545.82 1031.22 1545.82 Q1034.85 1545.82 1036.66 1542.27 Q1038.49 1538.71 1038.49 1531.6 Q1038.49 1524.47 1036.66 1520.93 Q1034.85 1517.37 1031.22 1517.37 M1031.22 1513.66 Q1037.03 1513.66 1040.08 1518.27 Q1043.16 1522.85 1043.16 1531.6 Q1043.16 1540.33 1040.08 1544.94 Q1037.03 1549.52 1031.22 1549.52 Q1025.41 1549.52 1022.33 1544.94 Q1019.27 1540.33 1019.27 1531.6 Q1019.27 1522.85 1022.33 1518.27 Q1025.41 1513.66 1031.22 1513.66 Z" fill="#000000" fill-rule="evenodd" fill-opacity="1" /><path clip-path="url(#clip050)" d="M1351.19 1544.91 L1367.51 1544.91 L1367.51 1548.85 L1345.57 1548.85 L1345.57 1544.91 Q1348.23 1542.16 1352.81 1537.53 Q1357.42 1532.88 1358.6 1531.53 Q1360.84 1529.01 1361.72 1527.27 Q1362.63 1525.51 1362.63 1523.82 Q1362.63 1521.07 1360.68 1519.33 Q1358.76 1517.6 1355.66 1517.6 Q1353.46 1517.6 1351.01 1518.36 Q1348.57 1519.13 1345.8 1520.68 L1345.8 1515.95 Q1348.62 1514.82 1351.07 1514.24 Q1353.53 1513.66 1355.57 1513.66 Q1360.94 1513.66 1364.13 1516.35 Q1367.32 1519.03 1367.32 1523.52 Q1367.32 1525.65 1366.51 1527.57 Q1365.73 1529.47 1363.62 1532.07 Q1363.04 1532.74 1359.94 1535.95 Q1356.84 1539.15 1351.19 1544.91 Z" fill="#000000" fill-rule="evenodd" fill-opacity="1" /><path clip-path="url(#clip050)" d="M1684.87 1518.36 L1673.06 1536.81 L1684.87 1536.81 L1684.87 1518.36 M1683.64 1514.29 L1689.52 1514.29 L1689.52 1536.81 L1694.45 1536.81 L1694.45 1540.7 L1689.52 1540.7 L1689.52 1548.85 L1684.87 1548.85 L1684.87 1540.7 L1669.26 1540.7 L1669.26 1536.19 L1683.64 1514.29 Z" fill="#000000" fill-rule="evenodd" fill-opacity="1" /><polyline clip-path="url(#clip053)" style="stroke:#000000; stroke-linecap:butt; stroke-linejoin:round; stroke-width:2; stroke-opacity:0.1; fill:none" points="
  169.121,1440.9 1893.32,1440.9 
  "/>
<polyline clip-path="url(#clip053)" style="stroke:#000000; stroke-linecap:butt; stroke-linejoin:round; stroke-width:2; stroke-opacity:0.1; fill:none" points="
  169.121,1007.25 1893.32,1007.25 
  "/>
<polyline clip-path="url(#clip053)" style="stroke:#000000; stroke-linecap:butt; stroke-linejoin:round; stroke-width:2; stroke-opacity:0.1; fill:none" points="
  169.121,573.611 1893.32,573.611 
  "/>
<polyline clip-path="url(#clip053)" style="stroke:#000000; stroke-linecap:butt; stroke-linejoin:round; stroke-width:2; stroke-opacity:0.1; fill:none" points="
  169.121,139.968 1893.32,139.968 
  "/>
<polyline clip-path="url(#clip050)" style="stroke:#000000; stroke-linecap:butt; stroke-linejoin:round; stroke-width:4; stroke-opacity:1; fill:none" points="
  169.121,1486.45 169.121,123.472 
  "/>
<polyline clip-path="url(#clip050)" style="stroke:#000000; stroke-linecap:butt; stroke-linejoin:round; stroke-width:4; stroke-opacity:1; fill:none" points="
  169.121,1440.9 184.043,1440.9 
  "/>
<polyline clip-path="url(#clip050)" style="stroke:#000000; stroke-linecap:butt; stroke-linejoin:round; stroke-width:4; stroke-opacity:1; fill:none" points="
  169.121,1007.25 184.043,1007.25 
  "/>
<polyline clip-path="url(#clip050)" style="stroke:#000000; stroke-linecap:butt; stroke-linejoin:round; stroke-width:4; stroke-opacity:1; fill:none" points="
  169.121,573.611 184.043,573.611 
  "/>
<polyline clip-path="url(#clip050)" style="stroke:#000000; stroke-linecap:butt; stroke-linejoin:round; stroke-width:4; stroke-opacity:1; fill:none" points="
  169.121,139.968 184.043,139.968 
  "/>
<path clip-path="url(#clip050)" d="M121.177 1426.7 Q117.566 1426.7 115.737 1430.26 Q113.932 1433.8 113.932 1440.93 Q113.932 1448.04 115.737 1451.6 Q117.566 1455.15 121.177 1455.15 Q124.811 1455.15 126.617 1451.6 Q128.445 1448.04 128.445 1440.93 Q128.445 1433.8 126.617 1430.26 Q124.811 1426.7 121.177 1426.7 M121.177 1422.99 Q126.987 1422.99 130.043 1427.6 Q133.121 1432.18 133.121 1440.93 Q133.121 1449.66 130.043 1454.27 Q126.987 1458.85 121.177 1458.85 Q115.367 1458.85 112.288 1454.27 Q109.233 1449.66 109.233 1440.93 Q109.233 1432.18 112.288 1427.6 Q115.367 1422.99 121.177 1422.99 Z" fill="#000000" fill-rule="evenodd" fill-opacity="1" /><path clip-path="url(#clip050)" d="M81.0614 989.974 L99.4178 989.974 L99.4178 993.91 L85.3438 993.91 L85.3438 1002.38 Q86.3623 1002.03 87.3808 1001.87 Q88.3993 1001.69 89.4178 1001.69 Q95.2049 1001.69 98.5845 1004.86 Q101.964 1008.03 101.964 1013.45 Q101.964 1019.03 98.4919 1022.13 Q95.0197 1025.21 88.7003 1025.21 Q86.5243 1025.21 84.2558 1024.84 Q82.0105 1024.47 79.6031 1023.72 L79.6031 1019.03 Q81.6864 1020.16 83.9086 1020.72 Q86.1308 1021.27 88.6077 1021.27 Q92.6123 1021.27 94.9502 1019.16 Q97.2882 1017.06 97.2882 1013.45 Q97.2882 1009.84 94.9502 1007.73 Q92.6123 1005.62 88.6077 1005.62 Q86.7327 1005.62 84.8577 1006.04 Q83.0058 1006.46 81.0614 1007.34 L81.0614 989.974 Z" fill="#000000" fill-rule="evenodd" fill-opacity="1" /><path clip-path="url(#clip050)" d="M121.177 993.053 Q117.566 993.053 115.737 996.618 Q113.932 1000.16 113.932 1007.29 Q113.932 1014.4 115.737 1017.96 Q117.566 1021.5 121.177 1021.5 Q124.811 1021.5 126.617 1017.96 Q128.445 1014.4 128.445 1007.29 Q128.445 1000.16 126.617 996.618 Q124.811 993.053 121.177 993.053 M121.177 989.349 Q126.987 989.349 130.043 993.956 Q133.121 998.539 133.121 1007.29 Q133.121 1016.02 130.043 1020.62 Q126.987 1025.21 121.177 1025.21 Q115.367 1025.21 112.288 1020.62 Q109.233 1016.02 109.233 1007.29 Q109.233 998.539 112.288 993.956 Q115.367 989.349 121.177 989.349 Z" fill="#000000" fill-rule="evenodd" fill-opacity="1" /><path clip-path="url(#clip050)" d="M51.6634 586.956 L59.3023 586.956 L59.3023 560.59 L50.9921 562.257 L50.9921 557.998 L59.256 556.331 L63.9319 556.331 L63.9319 586.956 L71.5707 586.956 L71.5707 590.891 L51.6634 590.891 L51.6634 586.956 Z" fill="#000000" fill-rule="evenodd" fill-opacity="1" /><path clip-path="url(#clip050)" d="M91.0151 559.41 Q87.404 559.41 85.5753 562.975 Q83.7697 566.516 83.7697 573.646 Q83.7697 580.752 85.5753 584.317 Q87.404 587.859 91.0151 587.859 Q94.6493 587.859 96.4548 584.317 Q98.2835 580.752 98.2835 573.646 Q98.2835 566.516 96.4548 562.975 Q94.6493 559.41 91.0151 559.41 M91.0151 555.706 Q96.8252 555.706 99.8808 560.313 Q102.959 564.896 102.959 573.646 Q102.959 582.373 99.8808 586.979 Q96.8252 591.562 91.0151 591.562 Q85.2049 591.562 82.1262 586.979 Q79.0707 582.373 79.0707 573.646 Q79.0707 564.896 82.1262 560.313 Q85.2049 555.706 91.0151 555.706 Z" fill="#000000" fill-rule="evenodd" fill-opacity="1" /><path clip-path="url(#clip050)" d="M121.177 559.41 Q117.566 559.41 115.737 562.975 Q113.932 566.516 113.932 573.646 Q113.932 580.752 115.737 584.317 Q117.566 587.859 121.177 587.859 Q124.811 587.859 126.617 584.317 Q128.445 580.752 128.445 573.646 Q128.445 566.516 126.617 562.975 Q124.811 559.41 121.177 559.41 M121.177 555.706 Q126.987 555.706 130.043 560.313 Q133.121 564.896 133.121 573.646 Q133.121 582.373 130.043 586.979 Q126.987 591.562 121.177 591.562 Q115.367 591.562 112.288 586.979 Q109.233 582.373 109.233 573.646 Q109.233 564.896 112.288 560.313 Q115.367 555.706 121.177 555.706 Z" fill="#000000" fill-rule="evenodd" fill-opacity="1" /><path clip-path="url(#clip050)" d="M51.6634 153.313 L59.3023 153.313 L59.3023 126.947 L50.9921 128.614 L50.9921 124.354 L59.256 122.688 L63.9319 122.688 L63.9319 153.313 L71.5707 153.313 L71.5707 157.248 L51.6634 157.248 L51.6634 153.313 Z" fill="#000000" fill-rule="evenodd" fill-opacity="1" /><path clip-path="url(#clip050)" d="M81.0614 122.688 L99.4178 122.688 L99.4178 126.623 L85.3438 126.623 L85.3438 135.095 Q86.3623 134.748 87.3808 134.586 Q88.3993 134.401 89.4178 134.401 Q95.2049 134.401 98.5845 137.572 Q101.964 140.743 101.964 146.16 Q101.964 151.739 98.4919 154.84 Q95.0197 157.919 88.7003 157.919 Q86.5243 157.919 84.2558 157.549 Q82.0105 157.178 79.6031 156.438 L79.6031 151.739 Q81.6864 152.873 83.9086 153.428 Q86.1308 153.984 88.6077 153.984 Q92.6123 153.984 94.9502 151.877 Q97.2882 149.771 97.2882 146.16 Q97.2882 142.549 94.9502 140.442 Q92.6123 138.336 88.6077 138.336 Q86.7327 138.336 84.8577 138.753 Q83.0058 139.169 81.0614 140.049 L81.0614 122.688 Z" fill="#000000" fill-rule="evenodd" fill-opacity="1" /><path clip-path="url(#clip050)" d="M121.177 125.767 Q117.566 125.767 115.737 129.331 Q113.932 132.873 113.932 140.003 Q113.932 147.109 115.737 150.674 Q117.566 154.215 121.177 154.215 Q124.811 154.215 126.617 150.674 Q128.445 147.109 128.445 140.003 Q128.445 132.873 126.617 129.331 Q124.811 125.767 121.177 125.767 M121.177 122.063 Q126.987 122.063 130.043 126.669 Q133.121 131.253 133.121 140.003 Q133.121 148.729 130.043 153.336 Q126.987 157.919 121.177 157.919 Q115.367 157.919 112.288 153.336 Q109.233 148.729 109.233 140.003 Q109.233 131.253 112.288 126.669 Q115.367 122.063 121.177 122.063 Z" fill="#000000" fill-rule="evenodd" fill-opacity="1" /><path clip-path="url(#clip050)" d="M319.251 31.22 Q319.251 35.8108 315.849 40.0327 Q312.488 44.2546 306.995 46.8369 Q301.544 49.3783 295.682 49.3783 L281.418 49.3783 L276.212 70.3648 Q276.171 70.4878 276.048 71.0206 Q275.925 71.5125 275.925 71.7994 Q275.925 72.8241 277.196 73.0701 Q278.508 73.316 281.418 73.316 Q283.303 73.316 283.59 73.6439 Q283.754 73.8489 283.754 74.2178 Q283.754 74.7916 283.59 75.2015 Q283.426 75.5704 283.098 75.6934 Q282.811 75.8164 282.607 75.8574 Q282.402 75.8983 282.074 75.8983 Q281.213 75.8983 279.368 75.8164 Q277.565 75.7344 276.622 75.7344 L271.253 75.6524 L260.595 75.8983 Q259.325 75.8983 259.325 74.8736 Q259.325 74.0948 259.653 73.7669 Q259.98 73.398 260.349 73.357 Q260.718 73.316 261.661 73.316 Q263.71 73.316 264.94 73.1931 Q266.17 73.0701 266.949 72.9061 Q267.768 72.7012 268.178 72.1273 Q268.629 71.5535 268.834 71.0616 Q269.039 70.5287 269.326 69.3401 L280.557 24.2519 Q280.885 22.8992 280.885 22.6943 Q280.885 21.9974 280.475 21.7515 Q280.106 21.4646 279.04 21.3416 Q276.991 21.1777 275.433 21.1777 Q274.409 21.1777 273.999 21.1367 Q273.63 21.0957 273.302 20.8907 Q273.015 20.6448 273.015 20.1529 Q273.015 19.3741 273.343 19.0462 Q273.712 18.6773 274.122 18.6363 Q274.532 18.5543 275.515 18.5543 L302.732 18.5543 Q310.561 18.5543 314.906 22.2844 Q319.251 26.0144 319.251 31.22 M311.463 29.2116 Q311.463 21.1777 300.027 21.1777 L291.993 21.1777 Q289.329 21.1777 288.673 21.6695 Q288.017 22.1204 287.443 24.3748 L281.746 47.2058 L293.592 47.2058 Q301.544 47.2058 306.503 42.738 Q308.758 40.6886 310.11 36.4257 Q311.463 32.1628 311.463 29.2116 Z" fill="#000000" fill-rule="evenodd" fill-opacity="1" /><path clip-path="url(#clip050)" d="M356.261 44.2546 Q356.261 46.4271 354.826 47.8207 Q353.433 49.2143 351.629 49.2143 Q350.071 49.2143 349.252 48.3126 Q348.432 47.4108 348.432 46.2631 Q348.432 44.6235 349.703 43.2709 Q350.973 41.9182 352.818 41.6313 Q351.465 40.6476 349.293 40.6476 Q345.727 40.6476 342.57 43.3938 Q341.177 44.6645 339.66 47.0009 Q338.144 49.2963 337.857 50.28 L335.192 61.2242 Q334.946 62.4539 333.43 68.3563 Q331.954 74.2178 331.831 74.4637 Q331.421 75.6114 330.52 76.2263 Q329.618 76.8411 328.716 76.8411 Q327.691 76.8411 326.994 76.2263 Q326.298 75.6114 326.298 74.5457 Q326.298 74.3817 326.421 73.7669 Q326.544 73.1521 326.749 72.2913 Q326.954 71.4305 327.035 70.9386 L331.913 51.5507 Q332.815 48.0256 333.02 46.9189 Q333.266 45.7712 333.266 44.5006 Q333.266 42.2871 332.569 41.4674 Q331.872 40.6476 330.643 40.6476 Q328.511 40.6476 327.117 43.1889 Q325.724 45.7302 324.535 50.6489 Q324.166 52.0016 323.92 52.2885 Q323.715 52.5754 323.101 52.5754 Q322.076 52.5345 322.076 51.7147 Q322.076 51.5097 322.404 50.1981 Q322.732 48.8454 323.346 46.8779 Q324.002 44.8695 324.699 43.5988 Q325.109 42.738 325.478 42.1642 Q325.847 41.5903 326.585 40.6886 Q327.322 39.7868 328.429 39.2949 Q329.536 38.803 330.888 38.803 Q333.84 38.803 335.93 40.6066 Q338.062 42.4101 338.553 45.2384 Q339.578 43.7627 340.849 42.4921 Q342.12 41.1804 344.456 39.9917 Q346.792 38.803 349.293 38.803 Q352.408 38.803 354.334 40.4016 Q356.261 41.9592 356.261 44.2546 Z" fill="#000000" fill-rule="evenodd" fill-opacity="1" /><path clip-path="url(#clip050)" d="M398.486 52.9853 Q398.486 57.4532 396.519 61.88 Q394.552 66.2659 391.395 69.545 Q388.28 72.7832 384.181 74.8326 Q380.082 76.8411 375.983 76.8411 Q370.122 76.8411 366.31 72.8651 Q362.539 68.8482 362.539 62.6178 Q362.539 56.7973 365.777 51.2638 Q369.056 45.6892 374.303 42.2461 Q379.549 38.803 385.042 38.803 Q390.821 38.803 394.633 42.697 Q398.486 46.591 398.486 52.9853 M392.338 49.7062 Q392.338 45.7302 390.412 43.1889 Q388.485 40.6476 384.96 40.6476 Q383.935 40.6476 382.747 40.9755 Q381.558 41.2624 380 42.0412 Q378.484 42.82 376.762 44.4596 Q375.082 46.0581 373.606 48.3535 Q371.679 51.3868 370.204 56.9613 Q368.769 62.4948 368.769 65.815 Q368.769 70.4058 370.901 72.7012 Q373.032 74.9556 376.065 74.9556 Q379.017 74.9556 382.132 72.9061 Q385.288 70.8157 387.46 67.2496 Q389.633 63.5606 390.985 58.15 Q392.338 52.6984 392.338 49.7062 Z" fill="#000000" fill-rule="evenodd" fill-opacity="1" /><path clip-path="url(#clip050)" d="M433.757 52.2065 Q433.757 58.109 430.764 63.8885 Q427.813 69.627 423.058 73.234 Q418.345 76.8411 413.508 76.8411 Q408.794 76.8411 405.802 73.234 Q402.851 69.586 402.851 63.6425 Q402.851 61.5521 403.097 60.0765 Q403.343 58.6009 404.203 55.1578 L411.09 27.7769 Q412.278 22.6533 412.278 22.6123 Q412.278 22.1204 412.073 21.8745 Q411.909 21.5876 410.926 21.3826 Q409.942 21.1777 408.056 21.1777 Q407.278 21.1777 406.909 21.1367 Q406.581 21.0957 406.294 20.8907 Q406.048 20.6448 406.048 20.1529 Q406.048 19.4561 406.335 19.0872 Q406.663 18.6773 406.909 18.5953 Q407.155 18.5134 407.646 18.4724 Q408.343 18.4314 410.68 18.2264 Q413.016 17.9805 415.025 17.8165 Q417.033 17.6526 417.894 17.6526 Q418.386 17.6526 418.632 17.8985 Q418.919 18.1035 418.919 18.3494 L418.96 18.5543 L412.77 43.8447 Q417.648 38.803 422.608 38.803 Q427.567 38.803 430.641 42.615 Q433.757 46.4271 433.757 52.2065 M427.69 48.5175 Q427.69 44.6235 426.215 42.656 Q424.78 40.6476 422.403 40.6476 Q420.394 40.6476 417.771 42.1642 Q415.148 43.6808 412.36 47.3698 Q411.827 48.0666 411.622 48.4765 Q411.458 48.8864 411.09 50.28 L409.245 58.027 Q407.892 63.3146 407.892 66.5118 Q407.892 70.8567 409.491 72.9061 Q411.09 74.9556 413.508 74.9556 Q416.049 74.9556 418.714 72.7012 Q421.378 70.4468 423.427 66.3478 Q424.698 63.6425 426.174 57.8221 Q427.69 51.9606 427.69 48.5175 Z" fill="#000000" fill-rule="evenodd" fill-opacity="1" /><path clip-path="url(#clip050)" d="M456.111 18.5543 L444.019 67.0856 Q443.528 69.0121 443.528 71.1026 Q443.528 74.9556 446.069 74.9556 Q447.258 74.9556 448.241 74.1768 Q449.225 73.357 449.963 71.7584 Q450.742 70.1189 451.234 68.5613 Q451.766 67.0037 452.422 64.5853 Q452.627 63.6425 452.832 63.3556 Q453.037 63.0687 453.611 63.0687 Q454.636 63.0687 454.636 63.8885 Q453.611 68.9302 452.094 72.1273 Q449.881 76.8411 445.782 76.8411 Q442.708 76.8411 440.412 74.7097 Q438.158 72.5372 438.158 69.0941 Q438.158 67.7825 438.568 66.2249 L449.143 24.2519 L449.43 22.6123 Q449.43 22.1614 449.266 21.9155 Q449.102 21.6695 448.118 21.4236 Q447.176 21.1777 445.29 21.1777 Q444.511 21.1777 444.142 21.1367 Q443.815 21.0957 443.487 20.8907 Q443.2 20.6858 443.2 20.2349 Q443.2 19.4971 443.487 19.0872 Q443.815 18.6773 444.06 18.5953 Q444.306 18.5134 444.798 18.4724 Q445.495 18.4314 447.831 18.2264 Q450.168 17.9805 452.176 17.8165 Q454.185 17.6526 455.046 17.6526 Q455.537 17.6526 455.783 17.8985 Q456.07 18.1035 456.111 18.3494 L456.111 18.5543 Z" fill="#000000" fill-rule="evenodd" fill-opacity="1" /><path clip-path="url(#clip050)" d="M495.86 66.1839 Q496.188 66.5528 496.188 66.9217 Q496.188 67.2906 495.368 68.3563 Q494.59 69.422 492.909 70.8567 Q491.228 72.2913 489.056 73.6439 Q486.884 74.9966 483.686 75.8983 Q480.489 76.8411 477.128 76.8411 Q471.103 76.8411 467.496 72.5372 Q463.93 68.2333 463.93 61.6341 Q463.93 57.4122 465.323 53.6822 Q466.717 49.9111 468.971 47.2468 Q471.267 44.5825 474.136 42.656 Q477.046 40.6886 480.079 39.7458 Q483.113 38.803 485.941 38.803 Q490.081 38.803 492.499 40.8935 Q494.917 42.984 494.917 45.9352 Q494.917 46.632 494.713 47.4928 Q494.549 48.3535 493.975 49.7062 Q493.442 51.0588 492.048 52.4115 Q490.655 53.7231 488.605 54.5839 Q484.055 56.5104 475.775 56.5104 L471.308 56.5104 Q469.996 61.798 469.996 65.2411 Q469.996 66.5938 470.242 67.9874 Q470.488 69.3401 471.144 71.0616 Q471.841 72.7832 473.398 73.8899 Q474.997 74.9556 477.292 74.9556 Q478.03 74.9556 478.809 74.9146 Q479.628 74.8736 481.678 74.4227 Q483.768 73.9718 485.613 73.1931 Q487.457 72.4143 489.794 70.7337 Q492.171 69.0121 494.057 66.6758 Q494.713 65.815 495.163 65.815 Q495.532 65.815 495.86 66.1839 M492.13 45.9352 Q492.13 43.6808 490.45 42.1642 Q488.81 40.6476 485.941 40.6476 Q485.039 40.6476 483.932 40.8525 Q482.826 41.0575 480.981 41.9182 Q479.178 42.779 477.579 44.2136 Q475.98 45.6073 474.382 48.3535 Q472.783 51.0588 471.841 54.6659 L475.284 54.6659 Q476.472 54.6659 477.333 54.6659 Q478.194 54.6249 480.079 54.461 Q482.006 54.297 483.399 54.0101 Q484.793 53.6822 486.556 53.0263 Q488.318 52.3705 489.425 51.5097 Q490.573 50.608 491.351 49.1733 Q492.13 47.7387 492.13 45.9352 Z" fill="#000000" fill-rule="evenodd" fill-opacity="1" /><path clip-path="url(#clip050)" d="M569.758 63.8885 Q569.758 64.2164 569.389 65.4871 Q569.02 66.7577 568.119 68.7252 Q567.258 70.6927 566.028 72.4962 Q564.839 74.2588 562.872 75.5704 Q560.945 76.8411 558.732 76.8411 Q555.781 76.8411 553.813 74.8736 Q551.846 72.9061 551.846 69.9549 Q551.846 68.3563 552.953 65.3231 Q558.158 51.4687 558.158 46.509 Q558.158 40.6476 553.608 40.6476 Q551.026 40.6476 548.69 41.7133 Q546.353 42.779 544.837 44.2546 Q543.32 45.7302 542.131 47.4108 Q540.943 49.0914 540.41 50.1981 Q539.918 51.3048 539.795 51.7966 L534.753 72.0454 Q534.343 73.7669 534.057 74.5867 Q533.77 75.4065 532.991 76.1033 Q532.212 76.8411 530.982 76.8411 Q529.958 76.8411 529.22 76.2263 Q528.523 75.6114 528.523 74.5457 Q528.523 74.3817 528.728 73.521 Q528.933 72.6602 529.22 71.4715 Q529.507 70.2828 529.63 69.586 Q531.105 64.0115 531.31 63.2327 L533.647 53.4772 Q534.917 48.6405 534.917 46.509 Q534.917 40.6476 530.367 40.6476 Q528.113 40.6476 525.982 41.5083 Q523.891 42.3281 522.457 43.4758 Q521.022 44.6235 519.71 46.2221 Q518.44 47.7797 517.784 48.8454 Q517.169 49.8702 516.677 50.8949 L515.611 55.0758 Q515.365 56.2235 514.177 60.6913 L512.332 68.2743 Q511.021 73.9309 510.734 74.4637 Q510.324 75.6114 509.422 76.2263 Q508.52 76.8411 507.618 76.8411 Q506.594 76.8411 505.897 76.2263 Q505.2 75.6114 505.2 74.5457 Q505.2 74.3817 505.323 73.7669 Q505.446 73.1521 505.651 72.2913 Q505.856 71.4305 505.938 70.9386 L510.816 51.5507 Q511.717 48.0256 511.922 46.9189 Q512.168 45.7712 512.168 44.5006 Q512.168 40.6476 509.545 40.6476 Q507.413 40.6476 506.02 43.1889 Q504.626 45.7302 503.438 50.6489 Q503.069 52.0016 502.823 52.2885 Q502.618 52.5754 502.003 52.5754 Q500.978 52.5345 500.978 51.7147 Q500.978 51.5097 501.306 50.1981 Q501.634 48.8864 502.249 46.9189 Q502.905 44.9104 503.601 43.5988 Q504.011 42.738 504.38 42.1642 Q504.749 41.5903 505.487 40.6886 Q506.225 39.7868 507.332 39.2949 Q508.438 38.803 509.791 38.803 Q512.783 38.803 514.997 40.7295 Q517.251 42.656 517.538 46.0991 Q522.989 38.803 530.613 38.803 Q534.917 38.803 537.5 40.9755 Q539.918 43.0659 540.205 46.9189 Q545.861 38.803 553.895 38.803 Q558.527 38.803 561.027 41.2214 Q563.528 43.5988 563.528 47.7797 Q563.528 49.9521 562.421 54.092 Q561.314 58.191 560.577 60.2404 Q559.839 62.2899 558.404 66.2249 Q556.888 69.9959 556.888 72.2093 Q556.888 73.6439 557.379 74.2998 Q557.871 74.9556 558.937 74.9556 Q560.577 74.9556 562.011 74.0128 Q563.446 73.0291 564.471 71.4305 Q565.536 69.7909 566.233 68.1514 Q566.93 66.4708 567.463 64.5853 Q567.791 63.5606 567.955 63.3146 Q568.16 63.0687 568.733 63.0687 Q569.758 63.0687 569.758 63.8885 Z" fill="#000000" fill-rule="evenodd" fill-opacity="1" /><path clip-path="url(#clip050)" d="M596.151 27.9819 L596.151 25.3586 Q606.234 25.3586 611.44 19.989 Q612.875 19.989 613.121 20.3169 Q613.367 20.6448 613.367 22.1614 L613.367 69.2581 Q613.367 71.7584 614.596 72.5372 Q615.826 73.316 621.195 73.316 L623.86 73.316 L623.86 75.8983 Q620.909 75.6524 610.251 75.6524 Q599.594 75.6524 596.684 75.8983 L596.684 73.316 L599.348 73.316 Q604.636 73.316 605.906 72.5782 Q607.177 71.7994 607.177 69.2581 L607.177 25.7685 Q602.791 27.9819 596.151 27.9819 Z" fill="#000000" fill-rule="evenodd" fill-opacity="1" /><path clip-path="url(#clip050)" d="M630.492 74.5457 Q629.221 73.1931 629.221 71.4305 Q629.221 69.668 630.492 68.3973 Q631.763 67.0856 633.689 67.0856 Q635.534 67.0856 636.763 68.3153 Q638.034 69.504 638.034 71.4715 Q638.034 73.398 636.681 74.6687 Q635.37 75.8983 633.689 75.8983 Q631.763 75.8983 630.492 74.5457 Z" fill="#000000" fill-rule="evenodd" fill-opacity="1" /><path clip-path="url(#clip050)" d="M652.32 75.8983 Q652.32 74.3817 652.443 73.9309 Q652.607 73.48 653.263 72.7832 L669.372 54.8299 Q678.185 44.9104 678.185 36.2617 Q678.185 30.6462 675.233 26.6292 Q672.323 22.6123 666.954 22.6123 Q663.265 22.6123 660.149 24.8667 Q657.034 27.1211 655.6 31.1381 Q655.846 31.0561 656.706 31.0561 Q658.797 31.0561 659.944 32.3677 Q661.133 33.6794 661.133 35.4419 Q661.133 37.6963 659.658 38.803 Q658.223 39.8688 656.788 39.8688 Q656.214 39.8688 655.436 39.7458 Q654.698 39.6228 653.509 38.4751 Q652.32 37.2864 652.32 35.196 Q652.32 29.3345 656.747 24.6617 Q661.215 19.989 668.019 19.989 Q675.725 19.989 680.767 24.5798 Q685.85 29.1296 685.85 36.2617 Q685.85 38.7621 685.071 41.0575 Q684.333 43.3119 683.308 45.0744 Q682.325 46.8369 679.619 49.6652 Q676.914 52.4935 674.742 54.5019 Q672.569 56.5104 667.691 60.7733 L658.797 69.422 L673.922 69.422 Q681.3 69.422 681.874 68.7662 Q682.693 67.5775 683.718 61.3062 L685.85 61.3062 L683.472 75.8983 L652.32 75.8983 Z" fill="#000000" fill-rule="evenodd" fill-opacity="1" /><path clip-path="url(#clip050)" d="M718.493 74.6277 Q717.181 73.316 717.181 71.4715 Q717.181 69.627 718.493 68.3153 Q719.805 67.0037 721.649 67.0037 Q723.494 67.0037 724.805 68.3153 Q726.117 69.627 726.117 71.4715 Q726.117 73.316 724.805 74.6277 Q723.494 75.8983 721.649 75.8983 Q719.805 75.8983 718.493 74.6277 M718.493 47.3288 Q717.181 46.0172 717.181 44.1726 Q717.181 42.3281 718.493 41.0165 Q719.805 39.7048 721.649 39.7048 Q723.494 39.7048 724.805 41.0165 Q726.117 42.3281 726.117 44.1726 Q726.117 46.0172 724.805 47.3288 Q723.494 48.5995 721.649 48.5995 Q719.805 48.5995 718.493 47.3288 Z" fill="#000000" fill-rule="evenodd" fill-opacity="1" /><path clip-path="url(#clip050)" d="M827.521 22.4893 Q827.521 24.7437 826.086 26.1374 Q824.693 27.531 822.93 27.531 Q821.66 27.531 820.717 26.7522 Q819.815 25.9734 819.815 24.6208 Q819.815 23.2271 820.881 21.7515 Q821.946 20.2759 824.365 20.0709 Q822.766 18.5543 820.225 18.5543 Q818.954 18.5543 817.888 19.3741 Q816.864 20.1529 816.29 21.4236 Q815.675 22.7353 814.281 30.1543 Q813.831 32.5727 813.421 34.9091 Q813.011 37.2455 812.519 39.7048 L819.487 39.7048 Q820.389 39.7048 820.758 39.7458 Q821.127 39.7868 821.414 39.9917 Q821.741 40.1967 821.741 40.6476 Q821.741 41.7953 821.209 42.0822 Q820.717 42.3281 819.241 42.3281 L812.027 42.3281 L806.985 68.9302 Q806.862 69.709 806.33 72.1683 Q805.838 74.5867 804.649 78.5626 Q803.46 82.5796 802.272 84.957 Q801.616 86.3096 800.755 87.5803 Q799.935 88.8919 798.746 90.2036 Q797.558 91.5153 796 92.2941 Q794.443 93.1138 792.803 93.1138 Q790.016 93.1138 787.843 91.5562 Q785.671 89.9987 785.671 87.3344 Q785.671 85.0799 787.065 83.6863 Q788.499 82.2927 790.262 82.2927 Q791.532 82.2927 792.434 83.0715 Q793.377 83.8503 793.377 85.2029 Q793.377 85.7768 793.172 86.4326 Q792.967 87.0884 792.516 87.8262 Q792.065 88.605 791.082 89.1379 Q790.098 89.6707 788.745 89.7527 Q790.344 91.2693 792.803 91.2693 Q793.582 91.2693 794.279 90.9414 Q794.975 90.6545 795.549 89.9167 Q796.164 89.1789 796.615 88.4411 Q797.066 87.7442 797.517 86.3916 Q797.968 85.0799 798.255 84.0962 Q798.542 83.1125 798.91 81.3499 Q799.32 79.5874 799.525 78.5217 Q799.73 77.4969 800.099 75.4885 L806.371 42.3281 L800.837 42.3281 Q799.853 42.3281 799.443 42.2871 Q799.074 42.2461 798.787 42.0412 Q798.501 41.7953 798.501 41.3034 Q798.501 40.5246 798.828 40.1967 Q799.197 39.8278 799.607 39.7868 Q800.017 39.7048 801.001 39.7048 L806.821 39.7048 Q808.789 29.3345 809.568 26.5473 Q810.469 23.596 811.863 21.5466 Q813.257 19.4561 814.814 18.4724 Q816.372 17.4886 817.643 17.1197 Q818.954 16.7098 820.225 16.7098 Q823.094 16.7098 825.308 18.2674 Q827.521 19.784 827.521 22.4893 Z" fill="#000000" fill-rule="evenodd" fill-opacity="1" /><path clip-path="url(#clip050)" d="M838.821 54.9118 Q838.821 40.7295 844.108 29.2935 Q846.363 24.4978 849.519 20.4808 Q852.675 16.4639 854.766 14.7014 Q856.856 12.9388 857.43 12.9388 Q858.25 12.9388 858.291 13.7586 Q858.291 14.1685 857.184 15.1932 Q843.657 28.9656 843.698 54.9118 Q843.698 80.94 856.856 94.1796 Q858.291 95.6142 858.291 96.0651 Q858.291 96.8849 857.43 96.8849 Q856.856 96.8849 854.848 95.2043 Q852.839 93.5237 849.724 89.6707 Q846.609 85.8177 844.354 81.104 Q838.821 69.668 838.821 54.9118 Z" fill="#000000" fill-rule="evenodd" fill-opacity="1" /><path clip-path="url(#clip050)" d="M906.479 44.3366 Q906.479 46.632 905.044 47.9437 Q903.61 49.2143 901.97 49.2143 Q900.413 49.2143 899.593 48.3126 Q898.773 47.4108 898.773 46.2631 Q898.773 44.7055 899.921 43.3529 Q901.068 42.0002 902.79 41.7133 Q901.109 40.6476 898.609 40.6476 Q896.969 40.6476 895.535 41.5083 Q894.141 42.3691 893.28 43.4758 Q892.461 44.5825 891.723 46.1811 Q891.026 47.7387 890.739 48.6815 Q890.493 49.5832 890.288 50.567 L887.419 62.044 Q886.025 67.4955 886.025 69.422 Q886.025 71.7994 887.173 73.398 Q888.321 74.9556 890.616 74.9556 Q891.518 74.9556 892.543 74.7097 Q893.567 74.4227 894.879 73.6849 Q896.232 72.9061 897.42 71.7584 Q898.65 70.5697 899.839 68.5613 Q901.027 66.5528 901.806 63.9705 Q902.052 63.0687 902.872 63.0687 Q903.897 63.0687 903.897 63.8885 Q903.897 64.5853 903.323 66.0609 Q902.79 67.4955 901.601 69.381 Q900.454 71.2256 898.937 72.9061 Q897.42 74.5457 895.166 75.6934 Q892.912 76.8411 890.452 76.8411 Q886.927 76.8411 884.591 74.9556 Q882.254 73.0701 881.394 70.4468 Q881.189 70.8157 880.902 71.3075 Q880.615 71.7994 879.754 72.9061 Q878.934 73.9718 877.991 74.7916 Q877.049 75.5704 875.573 76.1853 Q874.138 76.8411 872.581 76.8411 Q870.613 76.8411 868.851 76.2672 Q867.129 75.6934 865.9 74.3817 Q864.67 73.0701 864.67 71.2666 Q864.67 69.2581 866.023 67.8644 Q867.416 66.4298 869.302 66.4298 Q870.49 66.4298 871.433 67.1266 Q872.417 67.8235 872.417 69.3401 Q872.417 71.0206 871.269 72.2913 Q870.122 73.562 868.482 73.8899 Q870.163 74.9556 872.663 74.9556 Q875.368 74.9556 877.5 72.5782 Q879.631 70.2008 880.656 66.2249 Q883.197 56.6744 884.181 52.4115 Q885.165 48.1076 885.165 46.2631 Q885.165 44.5415 884.714 43.3529 Q884.263 42.1642 883.484 41.6313 Q882.746 41.0575 882.049 40.8525 Q881.394 40.6476 880.656 40.6476 Q879.426 40.6476 878.032 41.1394 Q876.68 41.6313 875.04 42.779 Q873.442 43.8857 871.925 46.1811 Q870.408 48.4765 869.384 51.6327 Q869.179 52.5754 868.277 52.5754 Q867.293 52.5345 867.293 51.7147 Q867.293 51.0179 867.826 49.5832 Q868.4 48.1076 869.548 46.2631 Q870.736 44.4186 872.253 42.779 Q873.811 41.0984 876.065 39.9507 Q878.36 38.803 880.82 38.803 Q881.926 38.803 882.992 39.049 Q884.099 39.2539 885.411 39.8688 Q886.763 40.4836 887.952 41.8363 Q889.141 43.1889 889.878 45.1564 Q890.37 44.2136 891.026 43.3119 Q891.723 42.4101 892.789 41.3034 Q893.895 40.1557 895.412 39.4999 Q896.969 38.803 898.691 38.803 Q900.372 38.803 902.011 39.2539 Q903.651 39.6638 905.044 41.0165 Q906.479 42.3281 906.479 44.3366 Z" fill="#000000" fill-rule="evenodd" fill-opacity="1" /><path clip-path="url(#clip050)" d="M914.56 96.0651 Q914.56 95.6552 915.626 94.6304 Q929.152 80.858 929.152 54.9118 Q929.152 28.8836 916.158 15.7261 Q914.56 14.2095 914.56 13.7586 Q914.56 12.9388 915.38 12.9388 Q915.953 12.9388 917.962 14.6194 Q920.011 16.2999 923.086 20.1529 Q926.201 24.0059 928.496 28.7197 Q934.03 40.1557 934.03 54.9118 Q934.03 69.0941 928.742 80.5301 Q926.488 85.3259 923.332 89.3428 Q920.175 93.3598 918.085 95.1223 Q915.994 96.8849 915.38 96.8849 Q914.56 96.8849 914.56 96.0651 Z" fill="#000000" fill-rule="evenodd" fill-opacity="1" /><path clip-path="url(#clip050)" d="M970.084 63.1507 Q970.166 62.1259 971.764 62.1259 L1023.21 62.1259 Q1025.62 62.1259 1025.67 63.0687 Q1025.67 64.0934 1023.37 64.0524 L972.338 64.0524 Q970.084 64.0934 970.084 63.1507 M970.084 46.755 Q970.084 45.7302 971.846 45.7712 L1023.12 45.7712 Q1025.62 45.7712 1025.67 46.755 Q1025.67 47.6977 1023.53 47.6977 L971.764 47.6977 Q970.084 47.6977 970.084 46.755 Z" fill="#000000" fill-rule="evenodd" fill-opacity="1" /><path clip-path="url(#clip050)" d="M1089.97 66.1839 Q1090.3 66.5528 1090.3 66.9217 Q1090.3 67.2906 1089.48 68.3563 Q1088.7 69.422 1087.02 70.8567 Q1085.34 72.2913 1083.17 73.6439 Q1081 74.9966 1077.8 75.8983 Q1074.6 76.8411 1071.24 76.8411 Q1065.22 76.8411 1061.61 72.5372 Q1058.04 68.2333 1058.04 61.6341 Q1058.04 57.4122 1059.44 53.6822 Q1060.83 49.9111 1063.09 47.2468 Q1065.38 44.5825 1068.25 42.656 Q1071.16 40.6886 1074.19 39.7458 Q1077.23 38.803 1080.05 38.803 Q1084.19 38.803 1086.61 40.8935 Q1089.03 42.984 1089.03 45.9352 Q1089.03 46.632 1088.83 47.4928 Q1088.66 48.3535 1088.09 49.7062 Q1087.56 51.0588 1086.16 52.4115 Q1084.77 53.7231 1082.72 54.5839 Q1078.17 56.5104 1069.89 56.5104 L1065.42 56.5104 Q1064.11 61.798 1064.11 65.2411 Q1064.11 66.5938 1064.36 67.9874 Q1064.6 69.3401 1065.26 71.0616 Q1065.95 72.7832 1067.51 73.8899 Q1069.11 74.9556 1071.41 74.9556 Q1072.14 74.9556 1072.92 74.9146 Q1073.74 74.8736 1075.79 74.4227 Q1077.88 73.9718 1079.73 73.1931 Q1081.57 72.4143 1083.91 70.7337 Q1086.29 69.0121 1088.17 66.6758 Q1088.83 65.815 1089.28 65.815 Q1089.65 65.815 1089.97 66.1839 M1086.24 45.9352 Q1086.24 43.6808 1084.56 42.1642 Q1082.92 40.6476 1080.05 40.6476 Q1079.15 40.6476 1078.05 40.8525 Q1076.94 41.0575 1075.1 41.9182 Q1073.29 42.779 1071.69 44.2136 Q1070.09 45.6073 1068.5 48.3535 Q1066.9 51.0588 1065.95 54.6659 L1069.4 54.6659 Q1070.59 54.6659 1071.45 54.6659 Q1072.31 54.6249 1074.19 54.461 Q1076.12 54.297 1077.51 54.0101 Q1078.91 53.6822 1080.67 53.0263 Q1082.43 52.3705 1083.54 51.5097 Q1084.69 50.608 1085.47 49.1733 Q1086.24 47.7387 1086.24 45.9352 Z" fill="#000000" fill-rule="evenodd" fill-opacity="1" /><path clip-path="url(#clip050)" d="M1137.73 30.6993 Q1138.08 31.0436 1138.08 31.5314 Q1138.08 32.0192 1137.73 32.3635 Q1137.39 32.7078 1136.9 32.7078 L1100.12 32.7078 Q1099.63 32.7078 1099.29 32.3635 Q1098.94 32.0192 1098.94 31.5314 Q1098.94 31.0436 1099.29 30.6993 Q1099.63 30.355 1100.12 30.355 L1136.9 30.355 Q1137.39 30.355 1137.73 30.6993 Z" fill="#000000" fill-rule="evenodd" fill-opacity="1" /><path clip-path="url(#clip050)" d="M1173.48 24.1287 Q1173.48 25.7355 1172.47 26.6537 Q1171.47 27.5431 1170.32 27.5431 Q1169.23 27.5431 1168.66 26.9119 Q1168.08 26.2807 1168.08 25.4773 Q1168.08 24.3869 1168.89 23.4401 Q1169.69 22.4932 1170.89 22.2924 Q1169.72 21.5464 1167.97 21.5464 Q1166.82 21.5464 1165.82 22.1489 Q1164.84 22.7515 1164.24 23.5262 Q1163.66 24.3009 1163.15 25.4199 Q1162.66 26.5102 1162.46 27.1701 Q1162.29 27.8014 1162.14 28.49 L1160.13 36.5239 Q1159.16 40.34 1159.16 41.6885 Q1159.16 43.3527 1159.96 44.4717 Q1160.77 45.562 1162.37 45.562 Q1163 45.562 1163.72 45.3899 Q1164.44 45.189 1165.36 44.6725 Q1166.3 44.1274 1167.13 43.324 Q1168 42.4919 1168.83 41.086 Q1169.66 39.68 1170.21 37.8724 Q1170.38 37.2412 1170.95 37.2412 Q1171.67 37.2412 1171.67 37.815 Q1171.67 38.3028 1171.27 39.3357 Q1170.89 40.34 1170.06 41.6598 Q1169.26 42.951 1168.2 44.1274 Q1167.13 45.2751 1165.56 46.0785 Q1163.98 46.8819 1162.26 46.8819 Q1159.79 46.8819 1158.15 45.562 Q1156.52 44.2422 1155.92 42.4058 Q1155.77 42.6641 1155.57 43.0084 Q1155.37 43.3527 1154.77 44.1274 Q1154.19 44.8734 1153.53 45.4472 Q1152.87 45.9924 1151.84 46.4228 Q1150.84 46.8819 1149.75 46.8819 Q1148.37 46.8819 1147.14 46.4802 Q1145.93 46.0785 1145.07 45.1603 Q1144.21 44.2422 1144.21 42.9797 Q1144.21 41.5738 1145.16 40.5982 Q1146.13 39.594 1147.45 39.594 Q1148.28 39.594 1148.94 40.0817 Q1149.63 40.5695 1149.63 41.6311 Q1149.63 42.8075 1148.83 43.697 Q1148.03 44.5865 1146.88 44.816 Q1148.05 45.562 1149.8 45.562 Q1151.7 45.562 1153.19 43.8978 Q1154.68 42.2337 1155.4 39.4505 Q1157.18 32.7652 1157.87 29.7811 Q1158.56 26.7684 1158.56 25.4773 Q1158.56 24.2722 1158.24 23.4401 Q1157.92 22.608 1157.38 22.235 Q1156.86 21.8333 1156.38 21.6899 Q1155.92 21.5464 1155.4 21.5464 Q1154.54 21.5464 1153.56 21.8907 Q1152.62 22.235 1151.47 23.0384 Q1150.35 23.8131 1149.29 25.4199 Q1148.23 27.0267 1147.51 29.236 Q1147.37 29.8959 1146.73 29.8959 Q1146.05 29.8672 1146.05 29.2934 Q1146.05 28.8056 1146.42 27.8014 Q1146.82 26.7684 1147.62 25.4773 Q1148.46 24.1861 1149.52 23.0384 Q1150.61 21.862 1152.19 21.0586 Q1153.79 20.2552 1155.51 20.2552 Q1156.29 20.2552 1157.04 20.4274 Q1157.81 20.5708 1158.73 21.0012 Q1159.67 21.4316 1160.51 22.3785 Q1161.34 23.3253 1161.86 24.7026 Q1162.2 24.0426 1162.66 23.4114 Q1163.15 22.7802 1163.89 22.0055 Q1164.67 21.2021 1165.73 20.743 Q1166.82 20.2552 1168.02 20.2552 Q1169.2 20.2552 1170.35 20.5708 Q1171.5 20.8578 1172.47 21.8046 Q1173.48 22.7228 1173.48 24.1287 Z" fill="#000000" fill-rule="evenodd" fill-opacity="1" /><path clip-path="url(#clip050)" d="M1265.15 53.7231 Q1265.65 54.215 1265.65 54.9118 Q1265.65 55.6087 1265.15 56.1005 Q1264.66 56.5924 1263.97 56.5924 L1211.42 56.5924 Q1210.72 56.5924 1210.23 56.1005 Q1209.74 55.6087 1209.74 54.9118 Q1209.74 54.215 1210.23 53.7231 Q1210.72 53.2313 1211.42 53.2313 L1263.97 53.2313 Q1264.66 53.2313 1265.15 53.7231 Z" fill="#000000" fill-rule="evenodd" fill-opacity="1" /><path clip-path="url(#clip050)" d="M1297.7 74.7916 L1297.7 63.7245 Q1297.7 62.7818 1297.74 62.4539 Q1297.78 62.1259 1298.02 61.88 Q1298.27 61.6341 1298.76 61.6341 Q1299.34 61.6341 1299.54 61.88 Q1299.79 62.1259 1299.95 63.0687 Q1301.22 68.8482 1303.93 71.9224 Q1306.67 74.9556 1311.63 74.9556 Q1316.35 74.9556 1318.72 72.8651 Q1321.1 70.7747 1321.1 67.3316 Q1321.1 61.1832 1312.37 59.6256 Q1307.33 58.6009 1305.24 57.945 Q1303.15 57.2482 1301.3 55.7316 Q1297.7 52.7804 1297.7 48.5995 Q1297.7 44.4186 1300.85 41.3444 Q1304.05 38.2702 1311.1 38.2702 Q1315.81 38.2702 1319.01 40.6476 Q1319.95 39.9098 1320.45 39.2949 Q1321.55 38.2702 1322.13 38.2702 Q1322.78 38.2702 1322.91 38.7211 Q1323.03 39.131 1323.03 40.3197 L1323.03 48.7634 Q1323.03 49.7062 1322.99 50.0341 Q1322.95 50.362 1322.7 50.608 Q1322.45 50.8129 1321.92 50.8129 Q1320.98 50.8129 1320.94 50.0341 Q1320.28 39.8688 1311.1 39.8688 Q1306.14 39.8688 1303.93 41.7953 Q1301.71 43.6808 1301.71 46.2631 Q1301.71 47.6977 1302.37 48.8044 Q1303.07 49.8702 1303.93 50.526 Q1304.83 51.1408 1306.47 51.7557 Q1308.11 52.3295 1309.09 52.5345 Q1310.12 52.7394 1312.04 53.1493 Q1318.77 54.42 1321.59 57.1662 Q1325.12 60.6913 1325.12 65.1592 Q1325.12 70.1189 1321.76 73.48 Q1318.4 76.8411 1311.63 76.8411 Q1306.18 76.8411 1302.37 73.1931 Q1301.88 73.6849 1301.51 74.1358 Q1301.14 74.5457 1300.98 74.7097 Q1300.85 74.8736 1300.81 74.9966 Q1300.77 75.0786 1300.69 75.1605 Q1299.01 76.8411 1298.6 76.8411 Q1297.94 76.8411 1297.82 76.3902 Q1297.7 75.9803 1297.7 74.7916 Z" fill="#000000" fill-rule="evenodd" fill-opacity="1" /><path clip-path="url(#clip050)" d="M1328.4 75.8983 L1328.4 73.316 Q1332.87 73.316 1333.89 72.7832 Q1334.92 72.2093 1334.92 69.504 L1334.92 46.9189 Q1334.92 43.8037 1333.85 43.0659 Q1332.83 42.3281 1328.73 42.3281 L1328.73 39.7048 L1340.45 38.803 L1340.45 69.586 Q1340.45 72.0863 1341.35 72.7012 Q1342.26 73.316 1346.35 73.316 L1346.35 75.8983 Q1337.79 75.6524 1337.62 75.6524 Q1336.48 75.6524 1328.4 75.8983 M1331.93 24.1699 Q1331.93 22.4893 1333.2 21.1367 Q1334.51 19.743 1336.35 19.743 Q1338.2 19.743 1339.51 21.0137 Q1340.82 22.2434 1340.82 24.2109 Q1340.82 26.1374 1339.51 27.408 Q1338.2 28.6377 1336.35 28.6377 Q1334.43 28.6377 1333.16 27.2851 Q1331.93 25.9324 1331.93 24.1699 Z" fill="#000000" fill-rule="evenodd" fill-opacity="1" /><path clip-path="url(#clip050)" d="M1352.09 75.8983 L1352.09 73.316 Q1356.56 73.316 1357.58 72.7832 Q1358.61 72.2093 1358.61 69.504 L1358.61 47.0009 Q1358.61 43.8857 1357.5 43.1069 Q1356.44 42.3281 1352.09 42.3281 L1352.09 39.7048 L1363.9 38.803 L1363.9 47.6157 Q1367.83 38.803 1376.32 38.803 Q1382.63 38.803 1385.13 41.9182 Q1386.97 44.0087 1387.34 46.3451 Q1387.75 48.6815 1387.75 54.7479 L1387.75 70.7747 Q1387.83 72.5372 1389.19 72.9471 Q1390.54 73.316 1394.31 73.316 L1394.31 75.8983 Q1385.74 75.6524 1384.88 75.6524 Q1384.23 75.6524 1375.41 75.8983 L1375.41 73.316 Q1379.88 73.316 1380.91 72.7832 Q1381.97 72.2093 1381.97 69.504 L1381.97 49.9521 Q1381.97 45.6892 1380.66 43.1889 Q1379.35 40.6476 1375.74 40.6476 Q1371.4 40.6476 1367.91 44.2956 Q1364.43 47.9437 1364.43 54.092 L1364.43 69.504 Q1364.43 72.2093 1365.45 72.7832 Q1366.52 73.316 1370.95 73.316 L1370.95 75.8983 Q1362.38 75.6524 1361.56 75.6524 Q1360.9 75.6524 1352.09 75.8983 Z" fill="#000000" fill-rule="evenodd" fill-opacity="1" /><path clip-path="url(#clip050)" d="M1440.02 44.3366 Q1440.02 46.632 1438.58 47.9437 Q1437.15 49.2143 1435.51 49.2143 Q1433.95 49.2143 1433.13 48.3126 Q1432.31 47.4108 1432.31 46.2631 Q1432.31 44.7055 1433.46 43.3529 Q1434.61 42.0002 1436.33 41.7133 Q1434.65 40.6476 1432.15 40.6476 Q1430.51 40.6476 1429.07 41.5083 Q1427.68 42.3691 1426.82 43.4758 Q1426 44.5825 1425.26 46.1811 Q1424.56 47.7387 1424.28 48.6815 Q1424.03 49.5832 1423.83 50.567 L1420.96 62.044 Q1419.56 67.4955 1419.56 69.422 Q1419.56 71.7994 1420.71 73.398 Q1421.86 74.9556 1424.15 74.9556 Q1425.06 74.9556 1426.08 74.7097 Q1427.11 74.4227 1428.42 73.6849 Q1429.77 72.9061 1430.96 71.7584 Q1432.19 70.5697 1433.38 68.5613 Q1434.57 66.5528 1435.34 63.9705 Q1435.59 63.0687 1436.41 63.0687 Q1437.43 63.0687 1437.43 63.8885 Q1437.43 64.5853 1436.86 66.0609 Q1436.33 67.4955 1435.14 69.381 Q1433.99 71.2256 1432.48 72.9061 Q1430.96 74.5457 1428.7 75.6934 Q1426.45 76.8411 1423.99 76.8411 Q1420.47 76.8411 1418.13 74.9556 Q1415.79 73.0701 1414.93 70.4468 Q1414.73 70.8157 1414.44 71.3075 Q1414.15 71.7994 1413.29 72.9061 Q1412.47 73.9718 1411.53 74.7916 Q1410.59 75.5704 1409.11 76.1853 Q1407.68 76.8411 1406.12 76.8411 Q1404.15 76.8411 1402.39 76.2672 Q1400.67 75.6934 1399.44 74.3817 Q1398.21 73.0701 1398.21 71.2666 Q1398.21 69.2581 1399.56 67.8644 Q1400.95 66.4298 1402.84 66.4298 Q1404.03 66.4298 1404.97 67.1266 Q1405.95 67.8235 1405.95 69.3401 Q1405.95 71.0206 1404.81 72.2913 Q1403.66 73.562 1402.02 73.8899 Q1403.7 74.9556 1406.2 74.9556 Q1408.91 74.9556 1411.04 72.5782 Q1413.17 70.2008 1414.19 66.2249 Q1416.74 56.6744 1417.72 52.4115 Q1418.7 48.1076 1418.7 46.2631 Q1418.7 44.5415 1418.25 43.3529 Q1417.8 42.1642 1417.02 41.6313 Q1416.28 41.0575 1415.59 40.8525 Q1414.93 40.6476 1414.19 40.6476 Q1412.96 40.6476 1411.57 41.1394 Q1410.22 41.6313 1408.58 42.779 Q1406.98 43.8857 1405.46 46.1811 Q1403.95 48.4765 1402.92 51.6327 Q1402.72 52.5754 1401.82 52.5754 Q1400.83 52.5345 1400.83 51.7147 Q1400.83 51.0179 1401.36 49.5832 Q1401.94 48.1076 1403.09 46.2631 Q1404.27 44.4186 1405.79 42.779 Q1407.35 41.0984 1409.6 39.9507 Q1411.9 38.803 1414.36 38.803 Q1415.46 38.803 1416.53 39.049 Q1417.64 39.2539 1418.95 39.8688 Q1420.3 40.4836 1421.49 41.8363 Q1422.68 43.1889 1423.42 45.1564 Q1423.91 44.2136 1424.56 43.3119 Q1425.26 42.4101 1426.33 41.3034 Q1427.43 40.1557 1428.95 39.4999 Q1430.51 38.803 1432.23 38.803 Q1433.91 38.803 1435.55 39.2539 Q1437.19 39.6638 1438.58 41.0165 Q1440.02 42.3281 1440.02 44.3366 Z" fill="#000000" fill-rule="evenodd" fill-opacity="1" /><path clip-path="url(#clip050)" d="M1469.04 63.1507 Q1469.12 62.1259 1470.72 62.1259 L1522.16 62.1259 Q1524.58 62.1259 1524.62 63.0687 Q1524.62 64.0934 1522.32 64.0524 L1471.29 64.0524 Q1469.04 64.0934 1469.04 63.1507 M1469.04 46.755 Q1469.04 45.7302 1470.8 45.7712 L1522.08 45.7712 Q1524.58 45.7712 1524.62 46.755 Q1524.62 47.6977 1522.49 47.6977 L1470.72 47.6977 Q1469.04 47.6977 1469.04 46.755 Z" fill="#000000" fill-rule="evenodd" fill-opacity="1" /><path clip-path="url(#clip050)" d="M1557 49.0504 Q1557 36.7126 1560.11 29.9904 Q1564.46 19.989 1574.7 19.989 Q1576.88 19.989 1579.13 20.6038 Q1581.43 21.1777 1584.3 23.4321 Q1587.21 25.6865 1588.97 29.3755 Q1592.33 36.5076 1592.33 49.0504 Q1592.33 61.3062 1589.21 67.9874 Q1584.66 77.7429 1574.62 77.7429 Q1570.85 77.7429 1567 75.8164 Q1563.19 73.8899 1560.77 69.2581 Q1557 62.3309 1557 49.0504 M1563.96 48.0256 Q1563.96 60.6913 1564.87 65.733 Q1565.89 71.1846 1568.68 73.562 Q1571.51 75.8983 1574.62 75.8983 Q1577.98 75.8983 1580.77 73.398 Q1583.6 70.8567 1584.46 65.4051 Q1585.4 60.0355 1585.36 48.0256 Q1585.36 36.3437 1584.54 31.6709 Q1583.43 26.2193 1580.48 24.0469 Q1577.57 21.8335 1574.62 21.8335 Q1573.52 21.8335 1572.33 22.1614 Q1571.18 22.4893 1569.5 23.4321 Q1567.82 24.3748 1566.51 26.7112 Q1565.24 29.0476 1564.62 32.5727 Q1563.96 37.1225 1563.96 48.0256 Z" fill="#000000" fill-rule="evenodd" fill-opacity="1" /><path clip-path="url(#clip050)" d="M1599.76 74.5457 Q1598.57 73.1931 1598.57 71.4305 Q1598.57 69.668 1599.71 68.3563 Q1600.9 67.0037 1603.03 67.0037 Q1605.53 67.0037 1606.97 69.422 Q1608.4 71.7994 1608.4 75.8164 Q1608.4 80.1612 1606.64 84.1782 Q1604.88 88.2361 1603.16 90.1626 Q1601.44 92.0891 1600.74 92.0891 Q1599.92 92.0891 1599.92 91.1873 Q1599.92 90.8594 1600.49 90.2446 Q1606.52 83.7683 1606.56 75.8164 Q1606.56 74.5457 1606.4 74.5457 L1606.19 74.7097 Q1604.76 75.8983 1603.03 75.8983 Q1600.94 75.8983 1599.76 74.5457 Z" fill="#000000" fill-rule="evenodd" fill-opacity="1" /><path clip-path="url(#clip050)" d="M1765.43 44.3366 Q1765.43 46.632 1763.99 47.9437 Q1762.56 49.2143 1760.92 49.2143 Q1759.36 49.2143 1758.54 48.3126 Q1757.72 47.4108 1757.72 46.2631 Q1757.72 44.7055 1758.87 43.3529 Q1760.02 42.0002 1761.74 41.7133 Q1760.06 40.6476 1757.56 40.6476 Q1755.92 40.6476 1754.48 41.5083 Q1753.09 42.3691 1752.23 43.4758 Q1751.41 44.5825 1750.67 46.1811 Q1749.97 47.7387 1749.69 48.6815 Q1749.44 49.5832 1749.24 50.567 L1746.37 62.044 Q1744.97 67.4955 1744.97 69.422 Q1744.97 71.7994 1746.12 73.398 Q1747.27 74.9556 1749.56 74.9556 Q1750.47 74.9556 1751.49 74.7097 Q1752.52 74.4227 1753.83 73.6849 Q1755.18 72.9061 1756.37 71.7584 Q1757.6 70.5697 1758.79 68.5613 Q1759.98 66.5528 1760.75 63.9705 Q1761 63.0687 1761.82 63.0687 Q1762.85 63.0687 1762.85 63.8885 Q1762.85 64.5853 1762.27 66.0609 Q1761.74 67.4955 1760.55 69.381 Q1759.4 71.2256 1757.89 72.9061 Q1756.37 74.5457 1754.11 75.6934 Q1751.86 76.8411 1749.4 76.8411 Q1745.88 76.8411 1743.54 74.9556 Q1741.2 73.0701 1740.34 70.4468 Q1740.14 70.8157 1739.85 71.3075 Q1739.56 71.7994 1738.7 72.9061 Q1737.88 73.9718 1736.94 74.7916 Q1736 75.5704 1734.52 76.1853 Q1733.09 76.8411 1731.53 76.8411 Q1729.56 76.8411 1727.8 76.2672 Q1726.08 75.6934 1724.85 74.3817 Q1723.62 73.0701 1723.62 71.2666 Q1723.62 69.2581 1724.97 67.8644 Q1726.36 66.4298 1728.25 66.4298 Q1729.44 66.4298 1730.38 67.1266 Q1731.37 67.8235 1731.37 69.3401 Q1731.37 71.0206 1730.22 72.2913 Q1729.07 73.562 1727.43 73.8899 Q1729.11 74.9556 1731.61 74.9556 Q1734.32 74.9556 1736.45 72.5782 Q1738.58 70.2008 1739.6 66.2249 Q1742.15 56.6744 1743.13 52.4115 Q1744.11 48.1076 1744.11 46.2631 Q1744.11 44.5415 1743.66 43.3529 Q1743.21 42.1642 1742.43 41.6313 Q1741.69 41.0575 1741 40.8525 Q1740.34 40.6476 1739.6 40.6476 Q1738.37 40.6476 1736.98 41.1394 Q1735.63 41.6313 1733.99 42.779 Q1732.39 43.8857 1730.87 46.1811 Q1729.36 48.4765 1728.33 51.6327 Q1728.13 52.5754 1727.23 52.5754 Q1726.24 52.5345 1726.24 51.7147 Q1726.24 51.0179 1726.77 49.5832 Q1727.35 48.1076 1728.5 46.2631 Q1729.68 44.4186 1731.2 42.779 Q1732.76 41.0984 1735.01 39.9507 Q1737.31 38.803 1739.77 38.803 Q1740.87 38.803 1741.94 39.049 Q1743.05 39.2539 1744.36 39.8688 Q1745.71 40.4836 1746.9 41.8363 Q1748.09 43.1889 1748.83 45.1564 Q1749.32 44.2136 1749.97 43.3119 Q1750.67 42.4101 1751.74 41.3034 Q1752.84 40.1557 1754.36 39.4999 Q1755.92 38.803 1757.64 38.803 Q1759.32 38.803 1760.96 39.2539 Q1762.6 39.6638 1763.99 41.0165 Q1765.43 42.3281 1765.43 44.3366 Z" fill="#000000" fill-rule="evenodd" fill-opacity="1" /><path clip-path="url(#clip050)" d="M1773.98 81.2998 Q1773.98 72.6633 1776.17 67.9577 Q1779.21 60.9568 1786.38 60.9568 Q1787.9 60.9568 1789.48 61.3872 Q1791.09 61.7889 1793.09 63.367 Q1795.13 64.945 1796.36 67.5274 Q1798.72 72.5199 1798.72 81.2998 Q1798.72 89.8788 1796.54 94.5557 Q1793.35 101.385 1786.32 101.385 Q1783.68 101.385 1780.99 100.036 Q1778.32 98.6874 1776.62 95.4452 Q1773.98 90.5961 1773.98 81.2998 M1778.86 80.5824 Q1778.86 89.4484 1779.49 92.9776 Q1780.21 96.7937 1782.16 98.4579 Q1784.14 100.093 1786.32 100.093 Q1788.68 100.093 1790.63 98.3431 Q1792.61 96.5642 1793.21 92.7481 Q1793.87 88.9893 1793.84 80.5824 Q1793.84 72.4051 1793.27 69.1341 Q1792.49 65.318 1790.43 63.7973 Q1788.39 62.2479 1786.32 62.2479 Q1785.55 62.2479 1784.72 62.4775 Q1783.91 62.707 1782.74 63.367 Q1781.56 64.0269 1780.64 65.6624 Q1779.75 67.2978 1779.32 69.7654 Q1778.86 72.9502 1778.86 80.5824 Z" fill="#000000" fill-rule="evenodd" fill-opacity="1" /><path clip-path="url(#clip050)" d="M1830.72 63.1507 Q1830.81 62.1259 1832.4 62.1259 L1883.85 62.1259 Q1886.26 62.1259 1886.31 63.0687 Q1886.31 64.0934 1884.01 64.0524 L1832.98 64.0524 Q1830.72 64.0934 1830.72 63.1507 M1830.72 46.755 Q1830.72 45.7302 1832.49 45.7712 L1883.76 45.7712 Q1886.26 45.7712 1886.31 46.755 Q1886.31 47.6977 1884.17 47.6977 L1832.4 47.6977 Q1830.72 47.6977 1830.72 46.755 Z" fill="#000000" fill-rule="evenodd" fill-opacity="1" /><path clip-path="url(#clip050)" d="M1918.68 49.0504 Q1918.68 36.7126 1921.8 29.9904 Q1926.14 19.989 1936.39 19.989 Q1938.56 19.989 1940.82 20.6038 Q1943.11 21.1777 1945.98 23.4321 Q1948.89 25.6865 1950.66 29.3755 Q1954.02 36.5076 1954.02 49.0504 Q1954.02 61.3062 1950.9 67.9874 Q1946.35 77.7429 1936.31 77.7429 Q1932.54 77.7429 1928.69 75.8164 Q1924.87 73.8899 1922.46 69.2581 Q1918.68 62.3309 1918.68 49.0504 M1925.65 48.0256 Q1925.65 60.6913 1926.55 65.733 Q1927.58 71.1846 1930.37 73.562 Q1933.19 75.8983 1936.31 75.8983 Q1939.67 75.8983 1942.46 73.398 Q1945.29 70.8567 1946.15 65.4051 Q1947.09 60.0355 1947.05 48.0256 Q1947.05 36.3437 1946.23 31.6709 Q1945.12 26.2193 1942.17 24.0469 Q1939.26 21.8335 1936.31 21.8335 Q1935.2 21.8335 1934.01 22.1614 Q1932.87 22.4893 1931.19 23.4321 Q1929.51 24.3748 1928.19 26.7112 Q1926.92 29.0476 1926.31 32.5727 Q1925.65 37.1225 1925.65 48.0256 Z" fill="#000000" fill-rule="evenodd" fill-opacity="1" /><path clip-path="url(#clip050)" d="M1961.53 74.5457 Q1960.25 73.1931 1960.25 71.4305 Q1960.25 69.668 1961.53 68.3973 Q1962.8 67.0856 1964.72 67.0856 Q1966.57 67.0856 1967.8 68.3153 Q1969.07 69.504 1969.07 71.4715 Q1969.07 73.398 1967.71 74.6687 Q1966.4 75.8983 1964.72 75.8983 Q1962.8 75.8983 1961.53 74.5457 Z" fill="#000000" fill-rule="evenodd" fill-opacity="1" /><path clip-path="url(#clip050)" d="M1983.35 49.3783 Q1983.35 36.1797 1990.08 28.1048 Q1996.8 19.989 2005.45 19.989 Q2010.49 19.989 2013.28 22.5713 Q2016.1 25.1126 2016.1 29.0476 Q2016.1 31.22 2014.83 32.1628 Q2013.56 33.1055 2012.25 33.1055 Q2010.73 33.1055 2009.55 32.0808 Q2008.36 31.0561 2008.36 29.2116 Q2008.36 25.4405 2012.99 25.4405 Q2010.82 22.0794 2005.61 22.0794 Q2004.01 22.0794 2002.37 22.5713 Q2000.73 23.0222 1998.6 24.5798 Q1996.47 26.1374 1994.83 28.5967 Q1993.19 31.0561 1992.04 35.6879 Q1990.9 40.3197 1990.9 46.3451 L1990.9 48.3535 Q1994.34 40.0327 2001.39 40.0737 Q2008.44 40.0737 2013.32 45.4433 Q2018.19 50.8129 2018.19 58.7648 Q2018.19 66.9217 2013.11 72.3323 Q2008.03 77.7429 2000.9 77.7429 Q1997.7 77.7429 1994.79 76.3902 Q1991.92 75.0786 1989.22 72.0454 Q1986.55 69.0121 1984.95 63.1917 Q1983.35 57.3712 1983.35 49.3783 M1991.06 56.9203 Q1991.06 65.1592 1992.58 69.0941 Q1992.82 69.75 1993.35 70.6517 Q1993.93 71.5535 1994.87 72.7422 Q1995.86 73.8899 1997.45 74.6687 Q1999.05 75.4065 2000.9 75.4065 Q2006.51 75.4065 2009.22 69.9549 Q2010.65 66.9217 2010.65 58.6828 Q2010.65 50.28 2009.14 47.2058 Q2006.55 42.0002 2001.31 42.0002 Q1997.78 42.0002 1995.32 44.4186 Q1992.9 46.8369 1991.96 50.0751 Q1991.06 53.3133 1991.06 56.9203 Z" fill="#000000" fill-rule="evenodd" fill-opacity="1" /><polyline clip-path="url(#clip053)" style="stroke:#009af9; stroke-linecap:butt; stroke-linejoin:round; stroke-width:4; stroke-opacity:1; fill:none" points="
  217.919,162.047 220.567,182.867 223.214,203.349 225.862,223.498 228.509,243.321 234.629,287.921 240.749,330.864 246.869,372.211 252.989,412.021 259.109,450.35 
  265.229,487.251 271.349,522.779 277.469,556.981 283.589,589.908 289.709,621.605 295.829,652.119 301.949,681.491 308.069,709.765 314.189,736.979 320.309,763.174 
  326.43,788.386 333.785,817.439 341.141,845.185 348.497,871.68 355.852,896.981 363.208,921.138 370.564,944.204 377.92,966.226 385.275,987.249 397.714,1020.65 
  410.152,1051.52 422.591,1080.06 435.029,1106.42 448.541,1132.79 462.052,1156.98 475.564,1179.17 489.075,1199.52 501.532,1216.78 513.988,1232.71 526.445,1247.42 
  538.901,1261 552.256,1274.39 565.61,1286.69 578.965,1297.98 592.32,1308.35 607.792,1319.31 623.265,1329.26 638.738,1338.28 654.21,1346.48 681.711,1359.27 
  709.212,1370.15 733.327,1378.38 757.443,1385.6 810.027,1398.63 862.925,1409.04 921.409,1418.44 977.056,1425.96 1034.92,1432.62 1083.62,1437.36 1143.09,1442.04 
  1197.56,1445.18 1247.87,1447.04 1298.83,1447.87 1355.94,1447.62 1407.7,1446.42 1466.96,1444.17 1521.82,1441.56 1575.91,1438.81 1628.43,1436.29 1682.27,1434.16 
  1741.25,1432.63 1826.94,1432.3 1844.52,1432.52 
  "/>
<polyline clip-path="url(#clip053)" style="stroke:#e26f46; stroke-linecap:butt; stroke-linejoin:round; stroke-width:4; stroke-opacity:1; fill:none" points="
  -1555.07,1440.9 3617.51,1440.9 
  "/>
<path clip-path="url(#clip050)" d="
M1966.1 324.425 L2352.76 324.425 L2352.76 168.905 L1966.1 168.905  Z
  " fill="#ffffff" fill-rule="evenodd" fill-opacity="1"/>
<polyline clip-path="url(#clip050)" style="stroke:#000000; stroke-linecap:butt; stroke-linejoin:round; stroke-width:4; stroke-opacity:1; fill:none" points="
  1966.1,324.425 2352.76,324.425 2352.76,168.905 1966.1,168.905 1966.1,324.425 
  "/>
<polyline clip-path="url(#clip050)" style="stroke:#009af9; stroke-linecap:butt; stroke-linejoin:round; stroke-width:4; stroke-opacity:1; fill:none" points="
  1990.37,220.745 2135.94,220.745 
  "/>
<path clip-path="url(#clip050)" d="M2174.05 240.432 Q2172.24 245.062 2170.53 246.474 Q2168.81 247.886 2165.94 247.886 L2162.54 247.886 L2162.54 244.321 L2165.04 244.321 Q2166.8 244.321 2167.77 243.488 Q2168.75 242.654 2169.93 239.552 L2170.69 237.608 L2160.2 212.099 L2164.72 212.099 L2172.82 232.377 L2180.92 212.099 L2185.44 212.099 L2174.05 240.432 Z" fill="#000000" fill-rule="evenodd" fill-opacity="1" /><path clip-path="url(#clip050)" d="M2191.87 216.497 L2221.55 216.497 L2221.55 220.386 L2191.87 220.386 L2191.87 216.497 M2191.87 225.941 L2221.55 225.941 L2221.55 229.877 L2191.87 229.877 L2191.87 225.941 Z" fill="#000000" fill-rule="evenodd" fill-opacity="1" /><path clip-path="url(#clip050)" d="M2244.16 202.006 L2244.16 205.548 L2240.09 205.548 Q2237.8 205.548 2236.89 206.474 Q2236.01 207.4 2236.01 209.807 L2236.01 212.099 L2243.03 212.099 L2243.03 215.409 L2236.01 215.409 L2236.01 238.025 L2231.73 238.025 L2231.73 215.409 L2227.66 215.409 L2227.66 212.099 L2231.73 212.099 L2231.73 210.293 Q2231.73 205.965 2233.74 203.997 Q2235.76 202.006 2240.13 202.006 L2244.16 202.006 Z" fill="#000000" fill-rule="evenodd" fill-opacity="1" /><path clip-path="url(#clip050)" d="M2257.96 202.053 Q2254.86 207.377 2253.35 212.585 Q2251.85 217.793 2251.85 223.14 Q2251.85 228.488 2253.35 233.742 Q2254.88 238.974 2257.96 244.275 L2254.25 244.275 Q2250.78 238.835 2249.05 233.58 Q2247.33 228.326 2247.33 223.14 Q2247.33 217.978 2249.05 212.747 Q2250.76 207.516 2254.25 202.053 L2257.96 202.053 Z" fill="#000000" fill-rule="evenodd" fill-opacity="1" /><path clip-path="url(#clip050)" d="M2287.77 212.099 L2278.4 224.715 L2288.26 238.025 L2283.24 238.025 L2275.69 227.84 L2268.14 238.025 L2263.12 238.025 L2273.19 224.46 L2263.98 212.099 L2269 212.099 L2275.87 221.335 L2282.75 212.099 L2287.77 212.099 Z" fill="#000000" fill-rule="evenodd" fill-opacity="1" /><path clip-path="url(#clip050)" d="M2293.61 202.053 L2297.31 202.053 Q2300.78 207.516 2302.49 212.747 Q2304.23 217.978 2304.23 223.14 Q2304.23 228.326 2302.49 233.58 Q2300.78 238.835 2297.31 244.275 L2293.61 244.275 Q2296.68 238.974 2298.19 233.742 Q2299.72 228.488 2299.72 223.14 Q2299.72 217.793 2298.19 212.585 Q2296.68 207.377 2293.61 202.053 Z" fill="#000000" fill-rule="evenodd" fill-opacity="1" /><polyline clip-path="url(#clip050)" style="stroke:#e26f46; stroke-linecap:butt; stroke-linejoin:round; stroke-width:4; stroke-opacity:1; fill:none" points="
  1990.37,272.585 2135.94,272.585 
  "/>
<path clip-path="url(#clip050)" d="M2174.05 292.272 Q2172.24 296.902 2170.53 298.314 Q2168.81 299.726 2165.94 299.726 L2162.54 299.726 L2162.54 296.161 L2165.04 296.161 Q2166.8 296.161 2167.77 295.328 Q2168.75 294.494 2169.93 291.392 L2170.69 289.448 L2160.2 263.939 L2164.72 263.939 L2172.82 284.217 L2180.92 263.939 L2185.44 263.939 L2174.05 292.272 Z" fill="#000000" fill-rule="evenodd" fill-opacity="1" /><path clip-path="url(#clip050)" d="M2191.87 268.337 L2221.55 268.337 L2221.55 272.226 L2191.87 272.226 L2191.87 268.337 M2191.87 277.781 L2221.55 277.781 L2221.55 281.717 L2191.87 281.717 L2191.87 277.781 Z" fill="#000000" fill-rule="evenodd" fill-opacity="1" /><path clip-path="url(#clip050)" d="M2241.64 258.383 Q2238.03 258.383 2236.2 261.948 Q2234.39 265.49 2234.39 272.619 Q2234.39 279.726 2236.2 283.291 Q2238.03 286.832 2241.64 286.832 Q2245.27 286.832 2247.08 283.291 Q2248.91 279.726 2248.91 272.619 Q2248.91 265.49 2247.08 261.948 Q2245.27 258.383 2241.64 258.383 M2241.64 254.68 Q2247.45 254.68 2250.5 259.286 Q2253.58 263.869 2253.58 272.619 Q2253.58 281.346 2250.5 285.953 Q2247.45 290.536 2241.64 290.536 Q2235.83 290.536 2232.75 285.953 Q2229.69 281.346 2229.69 272.619 Q2229.69 263.869 2232.75 259.286 Q2235.83 254.68 2241.64 254.68 Z" fill="#000000" fill-rule="evenodd" fill-opacity="1" /></svg>
