<?xml version="1.0" encoding="utf-8"?>
<svg xmlns="http://www.w3.org/2000/svg" xmlns:xlink="http://www.w3.org/1999/xlink" width="600" height="400" viewBox="0 0 2400 1600">
<defs>
  <clipPath id="clip860">
    <rect x="0" y="0" width="2400" height="1600"/>
  </clipPath>
</defs>
<path clip-path="url(#clip860)" d="
M0 1600 L2400 1600 L2400 0 L0 0  Z
  " fill="#ffffff" fill-rule="evenodd" fill-opacity="1"/>
<defs>
  <clipPath id="clip861">
    <rect x="480" y="0" width="1681" height="1600"/>
  </clipPath>
</defs>
<path clip-path="url(#clip860)" d="
M307.034 1486.45 L1752.91 1486.45 L1752.91 123.472 L307.034 123.472  Z
  " fill="#ffffff" fill-rule="evenodd" fill-opacity="1"/>
<defs>
  <clipPath id="clip862">
    <rect x="307" y="123" width="1447" height="1364"/>
  </clipPath>
</defs>
<polyline clip-path="url(#clip862)" style="stroke:#000000; stroke-linecap:butt; stroke-linejoin:round; stroke-width:2; stroke-opacity:0.1; fill:none" points="
  461.625,1486.45 461.625,123.472 
  "/>
<polyline clip-path="url(#clip862)" style="stroke:#000000; stroke-linecap:butt; stroke-linejoin:round; stroke-width:2; stroke-opacity:0.1; fill:none" points="
  745.799,1486.45 745.799,123.472 
  "/>
<polyline clip-path="url(#clip862)" style="stroke:#000000; stroke-linecap:butt; stroke-linejoin:round; stroke-width:2; stroke-opacity:0.1; fill:none" points="
  1029.97,1486.45 1029.97,123.472 
  "/>
<polyline clip-path="url(#clip862)" style="stroke:#000000; stroke-linecap:butt; stroke-linejoin:round; stroke-width:2; stroke-opacity:0.1; fill:none" points="
  1314.15,1486.45 1314.15,123.472 
  "/>
<polyline clip-path="url(#clip862)" style="stroke:#000000; stroke-linecap:butt; stroke-linejoin:round; stroke-width:2; stroke-opacity:0.1; fill:none" points="
  1598.32,1486.45 1598.32,123.472 
  "/>
<polyline clip-path="url(#clip860)" style="stroke:#000000; stroke-linecap:butt; stroke-linejoin:round; stroke-width:4; stroke-opacity:1; fill:none" points="
  307.034,1486.45 1752.91,1486.45 
  "/>
<polyline clip-path="url(#clip860)" style="stroke:#000000; stroke-linecap:butt; stroke-linejoin:round; stroke-width:4; stroke-opacity:1; fill:none" points="
  461.625,1486.45 461.625,1467.55 
  "/>
<polyline clip-path="url(#clip860)" style="stroke:#000000; stroke-linecap:butt; stroke-linejoin:round; stroke-width:4; stroke-opacity:1; fill:none" points="
  745.799,1486.45 745.799,1467.55 
  "/>
<polyline clip-path="url(#clip860)" style="stroke:#000000; stroke-linecap:butt; stroke-linejoin:round; stroke-width:4; stroke-opacity:1; fill:none" points="
  1029.97,1486.45 1029.97,1467.55 
  "/>
<polyline clip-path="url(#clip860)" style="stroke:#000000; stroke-linecap:butt; stroke-linejoin:round; stroke-width:4; stroke-opacity:1; fill:none" points="
  1314.15,1486.45 1314.15,1467.55 
  "/>
<polyline clip-path="url(#clip860)" style="stroke:#000000; stroke-linecap:butt; stroke-linejoin:round; stroke-width:4; stroke-opacity:1; fill:none" points="
  1598.32,1486.45 1598.32,1467.55 
  "/>
<path clip-path="url(#clip860)" d="M408.153 1532.02 L437.829 1532.02 L437.829 1535.95 L408.153 1535.95 L408.153 1532.02 Z" fill="#000000" fill-rule="evenodd" fill-opacity="1" /><path clip-path="url(#clip860)" d="M448.732 1544.91 L456.371 1544.91 L456.371 1518.55 L448.06 1520.21 L448.06 1515.95 L456.324 1514.29 L461 1514.29 L461 1544.91 L468.639 1544.91 L468.639 1548.85 L448.732 1548.85 L448.732 1544.91 Z" fill="#000000" fill-rule="evenodd" fill-opacity="1" /><path clip-path="url(#clip860)" d="M478.083 1542.97 L482.968 1542.97 L482.968 1548.85 L478.083 1548.85 L478.083 1542.97 Z" fill="#000000" fill-rule="evenodd" fill-opacity="1" /><path clip-path="url(#clip860)" d="M503.153 1517.37 Q499.542 1517.37 497.713 1520.93 Q495.907 1524.47 495.907 1531.6 Q495.907 1538.71 497.713 1542.27 Q499.542 1545.82 503.153 1545.82 Q506.787 1545.82 508.592 1542.27 Q510.421 1538.71 510.421 1531.6 Q510.421 1524.47 508.592 1520.93 Q506.787 1517.37 503.153 1517.37 M503.153 1513.66 Q508.963 1513.66 512.018 1518.27 Q515.097 1522.85 515.097 1531.6 Q515.097 1540.33 512.018 1544.94 Q508.963 1549.52 503.153 1549.52 Q497.343 1549.52 494.264 1544.94 Q491.208 1540.33 491.208 1531.6 Q491.208 1522.85 494.264 1518.27 Q497.343 1513.66 503.153 1513.66 Z" fill="#000000" fill-rule="evenodd" fill-opacity="1" /><path clip-path="url(#clip860)" d="M692.825 1532.02 L722.501 1532.02 L722.501 1535.95 L692.825 1535.95 L692.825 1532.02 Z" fill="#000000" fill-rule="evenodd" fill-opacity="1" /><path clip-path="url(#clip860)" d="M742.593 1517.37 Q738.982 1517.37 737.153 1520.93 Q735.348 1524.47 735.348 1531.6 Q735.348 1538.71 737.153 1542.27 Q738.982 1545.82 742.593 1545.82 Q746.228 1545.82 748.033 1542.27 Q749.862 1538.71 749.862 1531.6 Q749.862 1524.47 748.033 1520.93 Q746.228 1517.37 742.593 1517.37 M742.593 1513.66 Q748.403 1513.66 751.459 1518.27 Q754.538 1522.85 754.538 1531.6 Q754.538 1540.33 751.459 1544.94 Q748.403 1549.52 742.593 1549.52 Q736.783 1549.52 733.704 1544.94 Q730.649 1540.33 730.649 1531.6 Q730.649 1522.85 733.704 1518.27 Q736.783 1513.66 742.593 1513.66 Z" fill="#000000" fill-rule="evenodd" fill-opacity="1" /><path clip-path="url(#clip860)" d="M762.755 1542.97 L767.639 1542.97 L767.639 1548.85 L762.755 1548.85 L762.755 1542.97 Z" fill="#000000" fill-rule="evenodd" fill-opacity="1" /><path clip-path="url(#clip860)" d="M777.871 1514.29 L796.227 1514.29 L796.227 1518.22 L782.153 1518.22 L782.153 1526.7 Q783.172 1526.35 784.19 1526.19 Q785.209 1526 786.227 1526 Q792.014 1526 795.394 1529.17 Q798.774 1532.34 798.774 1537.76 Q798.774 1543.34 795.301 1546.44 Q791.829 1549.52 785.51 1549.52 Q783.334 1549.52 781.065 1549.15 Q778.82 1548.78 776.413 1548.04 L776.413 1543.34 Q778.496 1544.47 780.718 1545.03 Q782.94 1545.58 785.417 1545.58 Q789.422 1545.58 791.76 1543.48 Q794.098 1541.37 794.098 1537.76 Q794.098 1534.15 791.76 1532.04 Q789.422 1529.94 785.417 1529.94 Q783.542 1529.94 781.667 1530.35 Q779.815 1530.77 777.871 1531.65 L777.871 1514.29 Z" fill="#000000" fill-rule="evenodd" fill-opacity="1" /><path clip-path="url(#clip860)" d="M1007.36 1517.37 Q1003.75 1517.37 1001.92 1520.93 Q1000.11 1524.47 1000.11 1531.6 Q1000.11 1538.71 1001.92 1542.27 Q1003.75 1545.82 1007.36 1545.82 Q1010.99 1545.82 1012.8 1542.27 Q1014.63 1538.71 1014.63 1531.6 Q1014.63 1524.47 1012.8 1520.93 Q1010.99 1517.37 1007.36 1517.37 M1007.36 1513.66 Q1013.17 1513.66 1016.22 1518.27 Q1019.3 1522.85 1019.3 1531.6 Q1019.3 1540.33 1016.22 1544.94 Q1013.17 1549.52 1007.36 1549.52 Q1001.55 1549.52 998.469 1544.94 Q995.413 1540.33 995.413 1531.6 Q995.413 1522.85 998.469 1518.27 Q1001.55 1513.66 1007.36 1513.66 Z" fill="#000000" fill-rule="evenodd" fill-opacity="1" /><path clip-path="url(#clip860)" d="M1027.52 1542.97 L1032.4 1542.97 L1032.4 1548.85 L1027.52 1548.85 L1027.52 1542.97 Z" fill="#000000" fill-rule="evenodd" fill-opacity="1" /><path clip-path="url(#clip860)" d="M1052.59 1517.37 Q1048.98 1517.37 1047.15 1520.93 Q1045.34 1524.47 1045.34 1531.6 Q1045.34 1538.71 1047.15 1542.27 Q1048.98 1545.82 1052.59 1545.82 Q1056.22 1545.82 1058.03 1542.27 Q1059.86 1538.71 1059.86 1531.6 Q1059.86 1524.47 1058.03 1520.93 Q1056.22 1517.37 1052.59 1517.37 M1052.59 1513.66 Q1058.4 1513.66 1061.45 1518.27 Q1064.53 1522.85 1064.53 1531.6 Q1064.53 1540.33 1061.45 1544.94 Q1058.4 1549.52 1052.59 1549.52 Q1046.78 1549.52 1043.7 1544.94 Q1040.64 1540.33 1040.64 1531.6 Q1040.64 1522.85 1043.7 1518.27 Q1046.78 1513.66 1052.59 1513.66 Z" fill="#000000" fill-rule="evenodd" fill-opacity="1" /><path clip-path="url(#clip860)" d="M1292.03 1517.37 Q1288.42 1517.37 1286.59 1520.93 Q1284.78 1524.47 1284.78 1531.6 Q1284.78 1538.71 1286.59 1542.27 Q1288.42 1545.82 1292.03 1545.82 Q1295.66 1545.82 1297.47 1542.27 Q1299.3 1538.71 1299.3 1531.6 Q1299.3 1524.47 1297.47 1520.93 Q1295.66 1517.37 1292.03 1517.37 M1292.03 1513.66 Q1297.84 1513.66 1300.9 1518.27 Q1303.97 1522.85 1303.97 1531.6 Q1303.97 1540.33 1300.9 1544.94 Q1297.84 1549.52 1292.03 1549.52 Q1286.22 1549.52 1283.14 1544.94 Q1280.09 1540.33 1280.09 1531.6 Q1280.09 1522.85 1283.14 1518.27 Q1286.22 1513.66 1292.03 1513.66 Z" fill="#000000" fill-rule="evenodd" fill-opacity="1" /><path clip-path="url(#clip860)" d="M1312.19 1542.97 L1317.08 1542.97 L1317.08 1548.85 L1312.19 1548.85 L1312.19 1542.97 Z" fill="#000000" fill-rule="evenodd" fill-opacity="1" /><path clip-path="url(#clip860)" d="M1327.31 1514.29 L1345.66 1514.29 L1345.66 1518.22 L1331.59 1518.22 L1331.59 1526.7 Q1332.61 1526.35 1333.63 1526.19 Q1334.65 1526 1335.66 1526 Q1341.45 1526 1344.83 1529.17 Q1348.21 1532.34 1348.21 1537.76 Q1348.21 1543.34 1344.74 1546.44 Q1341.27 1549.52 1334.95 1549.52 Q1332.77 1549.52 1330.5 1549.15 Q1328.26 1548.78 1325.85 1548.04 L1325.85 1543.34 Q1327.93 1544.47 1330.15 1545.03 Q1332.38 1545.58 1334.85 1545.58 Q1338.86 1545.58 1341.2 1543.48 Q1343.53 1541.37 1343.53 1537.76 Q1343.53 1534.15 1341.2 1532.04 Q1338.86 1529.94 1334.85 1529.94 Q1332.98 1529.94 1331.1 1530.35 Q1329.25 1530.77 1327.31 1531.65 L1327.31 1514.29 Z" fill="#000000" fill-rule="evenodd" fill-opacity="1" /><path clip-path="url(#clip860)" d="M1565.47 1544.91 L1573.11 1544.91 L1573.11 1518.55 L1564.8 1520.21 L1564.8 1515.95 L1573.07 1514.29 L1577.74 1514.29 L1577.74 1544.91 L1585.38 1544.91 L1585.38 1548.85 L1565.47 1548.85 L1565.47 1544.91 Z" fill="#000000" fill-rule="evenodd" fill-opacity="1" /><path clip-path="url(#clip860)" d="M1594.83 1542.97 L1599.71 1542.97 L1599.71 1548.85 L1594.83 1548.85 L1594.83 1542.97 Z" fill="#000000" fill-rule="evenodd" fill-opacity="1" /><path clip-path="url(#clip860)" d="M1619.9 1517.37 Q1616.28 1517.37 1614.46 1520.93 Q1612.65 1524.47 1612.65 1531.6 Q1612.65 1538.71 1614.46 1542.27 Q1616.28 1545.82 1619.9 1545.82 Q1623.53 1545.82 1625.34 1542.27 Q1627.16 1538.71 1627.16 1531.6 Q1627.16 1524.47 1625.34 1520.93 Q1623.53 1517.37 1619.9 1517.37 M1619.9 1513.66 Q1625.71 1513.66 1628.76 1518.27 Q1631.84 1522.85 1631.84 1531.6 Q1631.84 1540.33 1628.76 1544.94 Q1625.71 1549.52 1619.9 1549.52 Q1614.09 1549.52 1611.01 1544.94 Q1607.95 1540.33 1607.95 1531.6 Q1607.95 1522.85 1611.01 1518.27 Q1614.09 1513.66 1619.9 1513.66 Z" fill="#000000" fill-rule="evenodd" fill-opacity="1" /><polyline clip-path="url(#clip862)" style="stroke:#000000; stroke-linecap:butt; stroke-linejoin:round; stroke-width:2; stroke-opacity:0.1; fill:none" points="
  307.034,1447.87 1752.91,1447.87 
  "/>
<polyline clip-path="url(#clip862)" style="stroke:#000000; stroke-linecap:butt; stroke-linejoin:round; stroke-width:2; stroke-opacity:0.1; fill:none" points="
  307.034,1242.68 1752.91,1242.68 
  "/>
<polyline clip-path="url(#clip862)" style="stroke:#000000; stroke-linecap:butt; stroke-linejoin:round; stroke-width:2; stroke-opacity:0.1; fill:none" points="
  307.034,1037.48 1752.91,1037.48 
  "/>
<polyline clip-path="url(#clip862)" style="stroke:#000000; stroke-linecap:butt; stroke-linejoin:round; stroke-width:2; stroke-opacity:0.1; fill:none" points="
  307.034,832.28 1752.91,832.28 
  "/>
<polyline clip-path="url(#clip862)" style="stroke:#000000; stroke-linecap:butt; stroke-linejoin:round; stroke-width:2; stroke-opacity:0.1; fill:none" points="
  307.034,627.083 1752.91,627.083 
  "/>
<polyline clip-path="url(#clip862)" style="stroke:#000000; stroke-linecap:butt; stroke-linejoin:round; stroke-width:2; stroke-opacity:0.1; fill:none" points="
  307.034,421.885 1752.91,421.885 
  "/>
<polyline clip-path="url(#clip862)" style="stroke:#000000; stroke-linecap:butt; stroke-linejoin:round; stroke-width:2; stroke-opacity:0.1; fill:none" points="
  307.034,216.688 1752.91,216.688 
  "/>
<polyline clip-path="url(#clip860)" style="stroke:#000000; stroke-linecap:butt; stroke-linejoin:round; stroke-width:4; stroke-opacity:1; fill:none" points="
  307.034,1486.45 307.034,123.472 
  "/>
<polyline clip-path="url(#clip860)" style="stroke:#000000; stroke-linecap:butt; stroke-linejoin:round; stroke-width:4; stroke-opacity:1; fill:none" points="
  307.034,1447.87 320.391,1447.87 
  "/>
<polyline clip-path="url(#clip860)" style="stroke:#000000; stroke-linecap:butt; stroke-linejoin:round; stroke-width:4; stroke-opacity:1; fill:none" points="
  307.034,1242.68 320.391,1242.68 
  "/>
<polyline clip-path="url(#clip860)" style="stroke:#000000; stroke-linecap:butt; stroke-linejoin:round; stroke-width:4; stroke-opacity:1; fill:none" points="
  307.034,1037.48 320.391,1037.48 
  "/>
<polyline clip-path="url(#clip860)" style="stroke:#000000; stroke-linecap:butt; stroke-linejoin:round; stroke-width:4; stroke-opacity:1; fill:none" points="
  307.034,832.28 320.391,832.28 
  "/>
<polyline clip-path="url(#clip860)" style="stroke:#000000; stroke-linecap:butt; stroke-linejoin:round; stroke-width:4; stroke-opacity:1; fill:none" points="
  307.034,627.083 320.391,627.083 
  "/>
<polyline clip-path="url(#clip860)" style="stroke:#000000; stroke-linecap:butt; stroke-linejoin:round; stroke-width:4; stroke-opacity:1; fill:none" points="
  307.034,421.885 320.391,421.885 
  "/>
<polyline clip-path="url(#clip860)" style="stroke:#000000; stroke-linecap:butt; stroke-linejoin:round; stroke-width:4; stroke-opacity:1; fill:none" points="
  307.034,216.688 320.391,216.688 
  "/>
<path clip-path="url(#clip860)" d="M259.09 1433.67 Q255.479 1433.67 253.65 1437.24 Q251.845 1440.78 251.845 1447.91 Q251.845 1455.01 253.65 1458.58 Q255.479 1462.12 259.09 1462.12 Q262.724 1462.12 264.53 1458.58 Q266.358 1455.01 266.358 1447.91 Q266.358 1440.78 264.53 1437.24 Q262.724 1433.67 259.09 1433.67 M259.09 1429.97 Q264.9 1429.97 267.956 1434.57 Q271.034 1439.16 271.034 1447.91 Q271.034 1456.63 267.956 1461.24 Q264.9 1465.82 259.09 1465.82 Q253.28 1465.82 250.201 1461.24 Q247.146 1456.63 247.146 1447.91 Q247.146 1439.16 250.201 1434.57 Q253.28 1429.97 259.09 1429.97 Z" fill="#000000" fill-rule="evenodd" fill-opacity="1" /><path clip-path="url(#clip860)" d="M54.5569 1262.47 L62.1958 1262.47 L62.1958 1236.1 L53.8856 1237.77 L53.8856 1233.51 L62.1495 1231.84 L66.8254 1231.84 L66.8254 1262.47 L74.4642 1262.47 L74.4642 1266.4 L54.5569 1266.4 L54.5569 1262.47 Z" fill="#000000" fill-rule="evenodd" fill-opacity="1" /><path clip-path="url(#clip860)" d="M83.9086 1260.52 L88.7928 1260.52 L88.7928 1266.4 L83.9086 1266.4 L83.9086 1260.52 Z" fill="#000000" fill-rule="evenodd" fill-opacity="1" /><path clip-path="url(#clip860)" d="M108.978 1234.92 Q105.367 1234.92 103.538 1238.49 Q101.733 1242.03 101.733 1249.16 Q101.733 1256.26 103.538 1259.83 Q105.367 1263.37 108.978 1263.37 Q112.612 1263.37 114.418 1259.83 Q116.246 1256.26 116.246 1249.16 Q116.246 1242.03 114.418 1238.49 Q112.612 1234.92 108.978 1234.92 M108.978 1231.22 Q114.788 1231.22 117.844 1235.82 Q120.922 1240.41 120.922 1249.16 Q120.922 1257.88 117.844 1262.49 Q114.788 1267.07 108.978 1267.07 Q103.168 1267.07 100.089 1262.49 Q97.0335 1257.88 97.0335 1249.16 Q97.0335 1240.41 100.089 1235.82 Q103.168 1231.22 108.978 1231.22 Z" fill="#000000" fill-rule="evenodd" fill-opacity="1" /><path clip-path="url(#clip860)" d="M157.311 1240.94 L146.732 1251.57 L157.311 1262.14 L154.556 1264.94 L143.931 1254.32 L133.306 1264.94 L130.575 1262.14 L141.131 1251.57 L130.575 1240.94 L133.306 1238.14 L143.931 1248.76 L154.556 1238.14 L157.311 1240.94 Z" fill="#000000" fill-rule="evenodd" fill-opacity="1" /><path clip-path="url(#clip860)" d="M169.672 1262.47 L177.311 1262.47 L177.311 1236.1 L169.001 1237.77 L169.001 1233.51 L177.265 1231.84 L181.94 1231.84 L181.94 1262.47 L189.579 1262.47 L189.579 1266.4 L169.672 1266.4 L169.672 1262.47 Z" fill="#000000" fill-rule="evenodd" fill-opacity="1" /><path clip-path="url(#clip860)" d="M209.024 1234.92 Q205.413 1234.92 203.584 1238.49 Q201.778 1242.03 201.778 1249.16 Q201.778 1256.26 203.584 1259.83 Q205.413 1263.37 209.024 1263.37 Q212.658 1263.37 214.463 1259.83 Q216.292 1256.26 216.292 1249.16 Q216.292 1242.03 214.463 1238.49 Q212.658 1234.92 209.024 1234.92 M209.024 1231.22 Q214.834 1231.22 217.889 1235.82 Q220.968 1240.41 220.968 1249.16 Q220.968 1257.88 217.889 1262.49 Q214.834 1267.07 209.024 1267.07 Q203.214 1267.07 200.135 1262.49 Q197.079 1257.88 197.079 1249.16 Q197.079 1240.41 200.135 1235.82 Q203.214 1231.22 209.024 1231.22 Z" fill="#000000" fill-rule="evenodd" fill-opacity="1" /><path clip-path="url(#clip860)" d="M220.968 1225.32 L245.08 1225.32 L245.08 1228.52 L220.968 1228.52 L220.968 1225.32 Z" fill="#000000" fill-rule="evenodd" fill-opacity="1" /><path clip-path="url(#clip860)" d="M261.405 1225.66 Q258.696 1225.66 257.135 1227.11 Q255.593 1228.55 255.593 1231.09 Q255.593 1233.63 257.135 1235.08 Q258.696 1236.53 261.405 1236.53 Q264.113 1236.53 265.674 1235.08 Q267.235 1233.61 267.235 1231.09 Q267.235 1228.55 265.674 1227.11 Q264.132 1225.66 261.405 1225.66 M257.606 1224.04 Q255.161 1223.44 253.788 1221.76 Q252.433 1220.09 252.433 1217.68 Q252.433 1214.32 254.822 1212.36 Q257.229 1210.4 261.405 1210.4 Q265.599 1210.4 267.987 1212.36 Q270.376 1214.32 270.376 1217.68 Q270.376 1220.09 269.003 1221.76 Q267.649 1223.44 265.223 1224.04 Q267.969 1224.68 269.492 1226.54 Q271.034 1228.4 271.034 1231.09 Q271.034 1235.17 268.533 1237.36 Q266.05 1239.54 261.405 1239.54 Q256.759 1239.54 254.258 1237.36 Q251.775 1235.17 251.775 1231.09 Q251.775 1228.4 253.317 1226.54 Q254.86 1224.68 257.606 1224.04 M256.214 1218.04 Q256.214 1220.22 257.568 1221.45 Q258.941 1222.67 261.405 1222.67 Q263.85 1222.67 265.223 1221.45 Q266.615 1220.22 266.615 1218.04 Q266.615 1215.86 265.223 1214.64 Q263.85 1213.41 261.405 1213.41 Q258.941 1213.41 257.568 1214.64 Q256.214 1215.86 256.214 1218.04 Z" fill="#000000" fill-rule="evenodd" fill-opacity="1" /><path clip-path="url(#clip860)" d="M57.7745 1057.27 L74.0939 1057.27 L74.0939 1061.21 L52.1495 1061.21 L52.1495 1057.27 Q54.8115 1054.52 59.3949 1049.89 Q64.0013 1045.23 65.1819 1043.89 Q67.4272 1041.37 68.3068 1039.63 Q69.2096 1037.87 69.2096 1036.18 Q69.2096 1033.43 67.2652 1031.69 Q65.3439 1029.96 62.2421 1029.96 Q60.043 1029.96 57.5893 1030.72 Q55.1588 1031.48 52.381 1033.03 L52.381 1028.31 Q55.2051 1027.18 57.6588 1026.6 Q60.1124 1026.02 62.1495 1026.02 Q67.5198 1026.02 70.7142 1028.71 Q73.9087 1031.39 73.9087 1035.88 Q73.9087 1038.01 73.0985 1039.93 Q72.3115 1041.83 70.205 1044.42 Q69.6263 1045.09 66.5245 1048.31 Q63.4226 1051.51 57.7745 1057.27 Z" fill="#000000" fill-rule="evenodd" fill-opacity="1" /><path clip-path="url(#clip860)" d="M83.9086 1055.33 L88.7928 1055.33 L88.7928 1061.21 L83.9086 1061.21 L83.9086 1055.33 Z" fill="#000000" fill-rule="evenodd" fill-opacity="1" /><path clip-path="url(#clip860)" d="M108.978 1029.72 Q105.367 1029.72 103.538 1033.29 Q101.733 1036.83 101.733 1043.96 Q101.733 1051.07 103.538 1054.63 Q105.367 1058.17 108.978 1058.17 Q112.612 1058.17 114.418 1054.63 Q116.246 1051.07 116.246 1043.96 Q116.246 1036.83 114.418 1033.29 Q112.612 1029.72 108.978 1029.72 M108.978 1026.02 Q114.788 1026.02 117.844 1030.63 Q120.922 1035.21 120.922 1043.96 Q120.922 1052.69 117.844 1057.29 Q114.788 1061.88 108.978 1061.88 Q103.168 1061.88 100.089 1057.29 Q97.0335 1052.69 97.0335 1043.96 Q97.0335 1035.21 100.089 1030.63 Q103.168 1026.02 108.978 1026.02 Z" fill="#000000" fill-rule="evenodd" fill-opacity="1" /><path clip-path="url(#clip860)" d="M157.311 1035.74 L146.732 1046.37 L157.311 1056.95 L154.556 1059.75 L143.931 1049.12 L133.306 1059.75 L130.575 1056.95 L141.131 1046.37 L130.575 1035.74 L133.306 1032.94 L143.931 1043.57 L154.556 1032.94 L157.311 1035.74 Z" fill="#000000" fill-rule="evenodd" fill-opacity="1" /><path clip-path="url(#clip860)" d="M169.672 1057.27 L177.311 1057.27 L177.311 1030.9 L169.001 1032.57 L169.001 1028.31 L177.265 1026.65 L181.94 1026.65 L181.94 1057.27 L189.579 1057.27 L189.579 1061.21 L169.672 1061.21 L169.672 1057.27 Z" fill="#000000" fill-rule="evenodd" fill-opacity="1" /><path clip-path="url(#clip860)" d="M209.024 1029.72 Q205.413 1029.72 203.584 1033.29 Q201.778 1036.83 201.778 1043.96 Q201.778 1051.07 203.584 1054.63 Q205.413 1058.17 209.024 1058.17 Q212.658 1058.17 214.463 1054.63 Q216.292 1051.07 216.292 1043.96 Q216.292 1036.83 214.463 1033.29 Q212.658 1029.72 209.024 1029.72 M209.024 1026.02 Q214.834 1026.02 217.889 1030.63 Q220.968 1035.21 220.968 1043.96 Q220.968 1052.69 217.889 1057.29 Q214.834 1061.88 209.024 1061.88 Q203.214 1061.88 200.135 1057.29 Q197.079 1052.69 197.079 1043.96 Q197.079 1035.21 200.135 1030.63 Q203.214 1026.02 209.024 1026.02 Z" fill="#000000" fill-rule="evenodd" fill-opacity="1" /><path clip-path="url(#clip860)" d="M220.968 1020.12 L245.08 1020.12 L245.08 1023.32 L220.968 1023.32 L220.968 1020.12 Z" fill="#000000" fill-rule="evenodd" fill-opacity="1" /><path clip-path="url(#clip860)" d="M261.405 1020.46 Q258.696 1020.46 257.135 1021.91 Q255.593 1023.36 255.593 1025.9 Q255.593 1028.44 257.135 1029.88 Q258.696 1031.33 261.405 1031.33 Q264.113 1031.33 265.674 1029.88 Q267.235 1028.42 267.235 1025.9 Q267.235 1023.36 265.674 1021.91 Q264.132 1020.46 261.405 1020.46 M257.606 1018.84 Q255.161 1018.24 253.788 1016.57 Q252.433 1014.89 252.433 1012.49 Q252.433 1009.12 254.822 1007.16 Q257.229 1005.21 261.405 1005.21 Q265.599 1005.21 267.987 1007.16 Q270.376 1009.12 270.376 1012.49 Q270.376 1014.89 269.003 1016.57 Q267.649 1018.24 265.223 1018.84 Q267.969 1019.48 269.492 1021.34 Q271.034 1023.21 271.034 1025.9 Q271.034 1029.98 268.533 1032.16 Q266.05 1034.34 261.405 1034.34 Q256.759 1034.34 254.258 1032.16 Q251.775 1029.98 251.775 1025.9 Q251.775 1023.21 253.317 1021.34 Q254.86 1019.48 257.606 1018.84 M256.214 1012.84 Q256.214 1015.03 257.568 1016.25 Q258.941 1017.47 261.405 1017.47 Q263.85 1017.47 265.223 1016.25 Q266.615 1015.03 266.615 1012.84 Q266.615 1010.66 265.223 1009.44 Q263.85 1008.22 261.405 1008.22 Q258.941 1008.22 257.568 1009.44 Q256.214 1010.66 256.214 1012.84 Z" fill="#000000" fill-rule="evenodd" fill-opacity="1" /><path clip-path="url(#clip860)" d="M67.9133 837.374 Q71.2698 838.092 73.1448 840.36 Q75.0429 842.629 75.0429 845.962 Q75.0429 851.078 71.5244 853.878 Q68.0059 856.679 61.5245 856.679 Q59.3486 856.679 57.0338 856.24 Q54.7421 855.823 52.2884 854.966 L52.2884 850.453 Q54.2328 851.587 56.5477 852.166 Q58.8625 852.744 61.3856 852.744 Q65.7837 852.744 68.0754 851.008 Q70.3902 849.272 70.3902 845.962 Q70.3902 842.906 68.2374 841.193 Q66.1078 839.457 62.2884 839.457 L58.2606 839.457 L58.2606 835.615 L62.4735 835.615 Q65.9226 835.615 67.7513 834.249 Q69.58 832.86 69.58 830.267 Q69.58 827.605 67.6819 826.193 Q65.8069 824.758 62.2884 824.758 Q60.3671 824.758 58.168 825.175 Q55.969 825.592 53.3301 826.471 L53.3301 822.305 Q55.9921 821.564 58.3069 821.193 Q60.6449 820.823 62.705 820.823 Q68.0291 820.823 71.1309 823.254 Q74.2327 825.661 74.2327 829.781 Q74.2327 832.652 72.5892 834.642 Q70.9457 836.61 67.9133 837.374 Z" fill="#000000" fill-rule="evenodd" fill-opacity="1" /><path clip-path="url(#clip860)" d="M83.9086 850.128 L88.7928 850.128 L88.7928 856.008 L83.9086 856.008 L83.9086 850.128 Z" fill="#000000" fill-rule="evenodd" fill-opacity="1" /><path clip-path="url(#clip860)" d="M108.978 824.527 Q105.367 824.527 103.538 828.092 Q101.733 831.633 101.733 838.763 Q101.733 845.869 103.538 849.434 Q105.367 852.976 108.978 852.976 Q112.612 852.976 114.418 849.434 Q116.246 845.869 116.246 838.763 Q116.246 831.633 114.418 828.092 Q112.612 824.527 108.978 824.527 M108.978 820.823 Q114.788 820.823 117.844 825.43 Q120.922 830.013 120.922 838.763 Q120.922 847.49 117.844 852.096 Q114.788 856.679 108.978 856.679 Q103.168 856.679 100.089 852.096 Q97.0335 847.49 97.0335 838.763 Q97.0335 830.013 100.089 825.43 Q103.168 820.823 108.978 820.823 Z" fill="#000000" fill-rule="evenodd" fill-opacity="1" /><path clip-path="url(#clip860)" d="M157.311 830.545 L146.732 841.17 L157.311 851.749 L154.556 854.55 L143.931 843.925 L133.306 854.55 L130.575 851.749 L141.131 841.17 L130.575 830.545 L133.306 827.744 L143.931 838.369 L154.556 827.744 L157.311 830.545 Z" fill="#000000" fill-rule="evenodd" fill-opacity="1" /><path clip-path="url(#clip860)" d="M169.672 852.073 L177.311 852.073 L177.311 825.707 L169.001 827.374 L169.001 823.115 L177.265 821.448 L181.94 821.448 L181.94 852.073 L189.579 852.073 L189.579 856.008 L169.672 856.008 L169.672 852.073 Z" fill="#000000" fill-rule="evenodd" fill-opacity="1" /><path clip-path="url(#clip860)" d="M209.024 824.527 Q205.413 824.527 203.584 828.092 Q201.778 831.633 201.778 838.763 Q201.778 845.869 203.584 849.434 Q205.413 852.976 209.024 852.976 Q212.658 852.976 214.463 849.434 Q216.292 845.869 216.292 838.763 Q216.292 831.633 214.463 828.092 Q212.658 824.527 209.024 824.527 M209.024 820.823 Q214.834 820.823 217.889 825.43 Q220.968 830.013 220.968 838.763 Q220.968 847.49 217.889 852.096 Q214.834 856.679 209.024 856.679 Q203.214 856.679 200.135 852.096 Q197.079 847.49 197.079 838.763 Q197.079 830.013 200.135 825.43 Q203.214 820.823 209.024 820.823 Z" fill="#000000" fill-rule="evenodd" fill-opacity="1" /><path clip-path="url(#clip860)" d="M220.968 814.924 L245.08 814.924 L245.08 818.122 L220.968 818.122 L220.968 814.924 Z" fill="#000000" fill-rule="evenodd" fill-opacity="1" /><path clip-path="url(#clip860)" d="M261.405 815.263 Q258.696 815.263 257.135 816.711 Q255.593 818.159 255.593 820.698 Q255.593 823.237 257.135 824.686 Q258.696 826.134 261.405 826.134 Q264.113 826.134 265.674 824.686 Q267.235 823.219 267.235 820.698 Q267.235 818.159 265.674 816.711 Q264.132 815.263 261.405 815.263 M257.606 813.646 Q255.161 813.044 253.788 811.37 Q252.433 809.696 252.433 807.288 Q252.433 803.922 254.822 801.966 Q257.229 800.01 261.405 800.01 Q265.599 800.01 267.987 801.966 Q270.376 803.922 270.376 807.288 Q270.376 809.696 269.003 811.37 Q267.649 813.044 265.223 813.646 Q267.969 814.285 269.492 816.147 Q271.034 818.009 271.034 820.698 Q271.034 824.78 268.533 826.961 Q266.05 829.143 261.405 829.143 Q256.759 829.143 254.258 826.961 Q251.775 824.78 251.775 820.698 Q251.775 818.009 253.317 816.147 Q254.86 814.285 257.606 813.646 M256.214 807.646 Q256.214 809.828 257.568 811.05 Q258.941 812.273 261.405 812.273 Q263.85 812.273 265.223 811.05 Q266.615 809.828 266.615 807.646 Q266.615 805.464 265.223 804.242 Q263.85 803.019 261.405 803.019 Q258.941 803.019 257.568 804.242 Q256.214 805.464 256.214 807.646 Z" fill="#000000" fill-rule="evenodd" fill-opacity="1" /><path clip-path="url(#clip860)" d="M66.5939 620.325 L54.7884 638.774 L66.5939 638.774 L66.5939 620.325 M65.367 616.251 L71.2466 616.251 L71.2466 638.774 L76.1772 638.774 L76.1772 642.662 L71.2466 642.662 L71.2466 650.811 L66.5939 650.811 L66.5939 642.662 L50.9921 642.662 L50.9921 638.149 L65.367 616.251 Z" fill="#000000" fill-rule="evenodd" fill-opacity="1" /><path clip-path="url(#clip860)" d="M83.9086 644.931 L88.7928 644.931 L88.7928 650.811 L83.9086 650.811 L83.9086 644.931 Z" fill="#000000" fill-rule="evenodd" fill-opacity="1" /><path clip-path="url(#clip860)" d="M108.978 619.329 Q105.367 619.329 103.538 622.894 Q101.733 626.436 101.733 633.565 Q101.733 640.672 103.538 644.237 Q105.367 647.778 108.978 647.778 Q112.612 647.778 114.418 644.237 Q116.246 640.672 116.246 633.565 Q116.246 626.436 114.418 622.894 Q112.612 619.329 108.978 619.329 M108.978 615.626 Q114.788 615.626 117.844 620.232 Q120.922 624.815 120.922 633.565 Q120.922 642.292 117.844 646.899 Q114.788 651.482 108.978 651.482 Q103.168 651.482 100.089 646.899 Q97.0335 642.292 97.0335 633.565 Q97.0335 624.815 100.089 620.232 Q103.168 615.626 108.978 615.626 Z" fill="#000000" fill-rule="evenodd" fill-opacity="1" /><path clip-path="url(#clip860)" d="M157.311 625.348 L146.732 635.973 L157.311 646.551 L154.556 649.352 L143.931 638.727 L133.306 649.352 L130.575 646.551 L141.131 635.973 L130.575 625.348 L133.306 622.547 L143.931 633.172 L154.556 622.547 L157.311 625.348 Z" fill="#000000" fill-rule="evenodd" fill-opacity="1" /><path clip-path="url(#clip860)" d="M169.672 646.875 L177.311 646.875 L177.311 620.51 L169.001 622.176 L169.001 617.917 L177.265 616.251 L181.94 616.251 L181.94 646.875 L189.579 646.875 L189.579 650.811 L169.672 650.811 L169.672 646.875 Z" fill="#000000" fill-rule="evenodd" fill-opacity="1" /><path clip-path="url(#clip860)" d="M209.024 619.329 Q205.413 619.329 203.584 622.894 Q201.778 626.436 201.778 633.565 Q201.778 640.672 203.584 644.237 Q205.413 647.778 209.024 647.778 Q212.658 647.778 214.463 644.237 Q216.292 640.672 216.292 633.565 Q216.292 626.436 214.463 622.894 Q212.658 619.329 209.024 619.329 M209.024 615.626 Q214.834 615.626 217.889 620.232 Q220.968 624.815 220.968 633.565 Q220.968 642.292 217.889 646.899 Q214.834 651.482 209.024 651.482 Q203.214 651.482 200.135 646.899 Q197.079 642.292 197.079 633.565 Q197.079 624.815 200.135 620.232 Q203.214 615.626 209.024 615.626 Z" fill="#000000" fill-rule="evenodd" fill-opacity="1" /><path clip-path="url(#clip860)" d="M220.968 609.727 L245.08 609.727 L245.08 612.924 L220.968 612.924 L220.968 609.727 Z" fill="#000000" fill-rule="evenodd" fill-opacity="1" /><path clip-path="url(#clip860)" d="M261.405 610.065 Q258.696 610.065 257.135 611.514 Q255.593 612.962 255.593 615.501 Q255.593 618.04 257.135 619.488 Q258.696 620.936 261.405 620.936 Q264.113 620.936 265.674 619.488 Q267.235 618.021 267.235 615.501 Q267.235 612.962 265.674 611.514 Q264.132 610.065 261.405 610.065 M257.606 608.448 Q255.161 607.846 253.788 606.172 Q252.433 604.498 252.433 602.091 Q252.433 598.724 254.822 596.768 Q257.229 594.812 261.405 594.812 Q265.599 594.812 267.987 596.768 Q270.376 598.724 270.376 602.091 Q270.376 604.498 269.003 606.172 Q267.649 607.846 265.223 608.448 Q267.969 609.087 269.492 610.949 Q271.034 612.811 271.034 615.501 Q271.034 619.582 268.533 621.764 Q266.05 623.946 261.405 623.946 Q256.759 623.946 254.258 621.764 Q251.775 619.582 251.775 615.501 Q251.775 612.811 253.317 610.949 Q254.86 609.087 257.606 608.448 M256.214 602.448 Q256.214 604.63 257.568 605.852 Q258.941 607.075 261.405 607.075 Q263.85 607.075 265.223 605.852 Q266.615 604.63 266.615 602.448 Q266.615 600.267 265.223 599.044 Q263.85 597.822 261.405 597.822 Q258.941 597.822 257.568 599.044 Q256.214 600.267 256.214 602.448 Z" fill="#000000" fill-rule="evenodd" fill-opacity="1" /><path clip-path="url(#clip860)" d="M53.793 411.053 L72.1494 411.053 L72.1494 414.988 L58.0754 414.988 L58.0754 423.46 Q59.0939 423.113 60.1124 422.951 Q61.131 422.766 62.1495 422.766 Q67.9365 422.766 71.3161 425.937 Q74.6957 429.108 74.6957 434.525 Q74.6957 440.104 71.2235 443.206 Q67.7513 446.284 61.4319 446.284 Q59.256 446.284 56.9875 445.914 Q54.7421 445.544 52.3347 444.803 L52.3347 440.104 Q54.418 441.238 56.6402 441.794 Q58.8625 442.349 61.3393 442.349 Q65.3439 442.349 67.6819 440.243 Q70.0198 438.136 70.0198 434.525 Q70.0198 430.914 67.6819 428.808 Q65.3439 426.701 61.3393 426.701 Q59.4643 426.701 57.5893 427.118 Q55.7375 427.534 53.793 428.414 L53.793 411.053 Z" fill="#000000" fill-rule="evenodd" fill-opacity="1" /><path clip-path="url(#clip860)" d="M83.9086 439.733 L88.7928 439.733 L88.7928 445.613 L83.9086 445.613 L83.9086 439.733 Z" fill="#000000" fill-rule="evenodd" fill-opacity="1" /><path clip-path="url(#clip860)" d="M108.978 414.132 Q105.367 414.132 103.538 417.696 Q101.733 421.238 101.733 428.368 Q101.733 435.474 103.538 439.039 Q105.367 442.581 108.978 442.581 Q112.612 442.581 114.418 439.039 Q116.246 435.474 116.246 428.368 Q116.246 421.238 114.418 417.696 Q112.612 414.132 108.978 414.132 M108.978 410.428 Q114.788 410.428 117.844 415.034 Q120.922 419.618 120.922 428.368 Q120.922 437.095 117.844 441.701 Q114.788 446.284 108.978 446.284 Q103.168 446.284 100.089 441.701 Q97.0335 437.095 97.0335 428.368 Q97.0335 419.618 100.089 415.034 Q103.168 410.428 108.978 410.428 Z" fill="#000000" fill-rule="evenodd" fill-opacity="1" /><path clip-path="url(#clip860)" d="M157.311 420.15 L146.732 430.775 L157.311 441.354 L154.556 444.155 L143.931 433.53 L133.306 444.155 L130.575 441.354 L141.131 430.775 L130.575 420.15 L133.306 417.349 L143.931 427.974 L154.556 417.349 L157.311 420.15 Z" fill="#000000" fill-rule="evenodd" fill-opacity="1" /><path clip-path="url(#clip860)" d="M169.672 441.678 L177.311 441.678 L177.311 415.312 L169.001 416.979 L169.001 412.72 L177.265 411.053 L181.94 411.053 L181.94 441.678 L189.579 441.678 L189.579 445.613 L169.672 445.613 L169.672 441.678 Z" fill="#000000" fill-rule="evenodd" fill-opacity="1" /><path clip-path="url(#clip860)" d="M209.024 414.132 Q205.413 414.132 203.584 417.696 Q201.778 421.238 201.778 428.368 Q201.778 435.474 203.584 439.039 Q205.413 442.581 209.024 442.581 Q212.658 442.581 214.463 439.039 Q216.292 435.474 216.292 428.368 Q216.292 421.238 214.463 417.696 Q212.658 414.132 209.024 414.132 M209.024 410.428 Q214.834 410.428 217.889 415.034 Q220.968 419.618 220.968 428.368 Q220.968 437.095 217.889 441.701 Q214.834 446.284 209.024 446.284 Q203.214 446.284 200.135 441.701 Q197.079 437.095 197.079 428.368 Q197.079 419.618 200.135 415.034 Q203.214 410.428 209.024 410.428 Z" fill="#000000" fill-rule="evenodd" fill-opacity="1" /><path clip-path="url(#clip860)" d="M220.968 404.529 L245.08 404.529 L245.08 407.727 L220.968 407.727 L220.968 404.529 Z" fill="#000000" fill-rule="evenodd" fill-opacity="1" /><path clip-path="url(#clip860)" d="M261.405 404.868 Q258.696 404.868 257.135 406.316 Q255.593 407.764 255.593 410.303 Q255.593 412.842 257.135 414.291 Q258.696 415.739 261.405 415.739 Q264.113 415.739 265.674 414.291 Q267.235 412.824 267.235 410.303 Q267.235 407.764 265.674 406.316 Q264.132 404.868 261.405 404.868 M257.606 403.25 Q255.161 402.649 253.788 400.975 Q252.433 399.301 252.433 396.893 Q252.433 393.527 254.822 391.571 Q257.229 389.615 261.405 389.615 Q265.599 389.615 267.987 391.571 Q270.376 393.527 270.376 396.893 Q270.376 399.301 269.003 400.975 Q267.649 402.649 265.223 403.25 Q267.969 403.89 269.492 405.752 Q271.034 407.614 271.034 410.303 Q271.034 414.385 268.533 416.566 Q266.05 418.748 261.405 418.748 Q256.759 418.748 254.258 416.566 Q251.775 414.385 251.775 410.303 Q251.775 407.614 253.317 405.752 Q254.86 403.89 257.606 403.25 M256.214 397.251 Q256.214 399.432 257.568 400.655 Q258.941 401.877 261.405 401.877 Q263.85 401.877 265.223 400.655 Q266.615 399.432 266.615 397.251 Q266.615 395.069 265.223 393.847 Q263.85 392.624 261.405 392.624 Q258.941 392.624 257.568 393.847 Q256.214 395.069 256.214 397.251 Z" fill="#000000" fill-rule="evenodd" fill-opacity="1" /><path clip-path="url(#clip860)" d="M64.3254 221.272 Q61.1773 221.272 59.3254 223.425 Q57.4967 225.578 57.4967 229.328 Q57.4967 233.054 59.3254 235.23 Q61.1773 237.383 64.3254 237.383 Q67.4735 237.383 69.3022 235.23 Q71.1541 233.054 71.1541 229.328 Q71.1541 225.578 69.3022 223.425 Q67.4735 221.272 64.3254 221.272 M73.6077 206.619 L73.6077 210.879 Q71.8485 210.045 70.0429 209.605 Q68.2606 209.166 66.5013 209.166 Q61.8717 209.166 59.418 212.291 Q56.9875 215.416 56.6402 221.735 Q58.006 219.721 60.0662 218.656 Q62.1263 217.568 64.6032 217.568 Q69.8115 217.568 72.8207 220.74 Q75.8531 223.888 75.8531 229.328 Q75.8531 234.652 72.705 237.869 Q69.5568 241.087 64.3254 241.087 Q58.33 241.087 55.1588 236.503 Q51.9875 231.897 51.9875 223.17 Q51.9875 214.976 55.8764 210.115 Q59.7652 205.23 66.3161 205.23 Q68.0754 205.23 69.8578 205.578 Q71.6633 205.925 73.6077 206.619 Z" fill="#000000" fill-rule="evenodd" fill-opacity="1" /><path clip-path="url(#clip860)" d="M83.9086 234.536 L88.7928 234.536 L88.7928 240.415 L83.9086 240.415 L83.9086 234.536 Z" fill="#000000" fill-rule="evenodd" fill-opacity="1" /><path clip-path="url(#clip860)" d="M108.978 208.934 Q105.367 208.934 103.538 212.499 Q101.733 216.041 101.733 223.17 Q101.733 230.277 103.538 233.841 Q105.367 237.383 108.978 237.383 Q112.612 237.383 114.418 233.841 Q116.246 230.277 116.246 223.17 Q116.246 216.041 114.418 212.499 Q112.612 208.934 108.978 208.934 M108.978 205.23 Q114.788 205.23 117.844 209.837 Q120.922 214.42 120.922 223.17 Q120.922 231.897 117.844 236.503 Q114.788 241.087 108.978 241.087 Q103.168 241.087 100.089 236.503 Q97.0335 231.897 97.0335 223.17 Q97.0335 214.42 100.089 209.837 Q103.168 205.23 108.978 205.23 Z" fill="#000000" fill-rule="evenodd" fill-opacity="1" /><path clip-path="url(#clip860)" d="M157.311 214.953 L146.732 225.578 L157.311 236.156 L154.556 238.957 L143.931 228.332 L133.306 238.957 L130.575 236.156 L141.131 225.578 L130.575 214.953 L133.306 212.152 L143.931 222.777 L154.556 212.152 L157.311 214.953 Z" fill="#000000" fill-rule="evenodd" fill-opacity="1" /><path clip-path="url(#clip860)" d="M169.672 236.48 L177.311 236.48 L177.311 210.115 L169.001 211.781 L169.001 207.522 L177.265 205.855 L181.94 205.855 L181.94 236.48 L189.579 236.48 L189.579 240.415 L169.672 240.415 L169.672 236.48 Z" fill="#000000" fill-rule="evenodd" fill-opacity="1" /><path clip-path="url(#clip860)" d="M209.024 208.934 Q205.413 208.934 203.584 212.499 Q201.778 216.041 201.778 223.17 Q201.778 230.277 203.584 233.841 Q205.413 237.383 209.024 237.383 Q212.658 237.383 214.463 233.841 Q216.292 230.277 216.292 223.17 Q216.292 216.041 214.463 212.499 Q212.658 208.934 209.024 208.934 M209.024 205.23 Q214.834 205.23 217.889 209.837 Q220.968 214.42 220.968 223.17 Q220.968 231.897 217.889 236.503 Q214.834 241.087 209.024 241.087 Q203.214 241.087 200.135 236.503 Q197.079 231.897 197.079 223.17 Q197.079 214.42 200.135 209.837 Q203.214 205.23 209.024 205.23 Z" fill="#000000" fill-rule="evenodd" fill-opacity="1" /><path clip-path="url(#clip860)" d="M220.968 199.332 L245.08 199.332 L245.08 202.529 L220.968 202.529 L220.968 199.332 Z" fill="#000000" fill-rule="evenodd" fill-opacity="1" /><path clip-path="url(#clip860)" d="M261.405 199.67 Q258.696 199.67 257.135 201.119 Q255.593 202.567 255.593 205.106 Q255.593 207.645 257.135 209.093 Q258.696 210.541 261.405 210.541 Q264.113 210.541 265.674 209.093 Q267.235 207.626 267.235 205.106 Q267.235 202.567 265.674 201.119 Q264.132 199.67 261.405 199.67 M257.606 198.053 Q255.161 197.451 253.788 195.777 Q252.433 194.103 252.433 191.696 Q252.433 188.329 254.822 186.373 Q257.229 184.417 261.405 184.417 Q265.599 184.417 267.987 186.373 Q270.376 188.329 270.376 191.696 Q270.376 194.103 269.003 195.777 Q267.649 197.451 265.223 198.053 Q267.969 198.692 269.492 200.554 Q271.034 202.416 271.034 205.106 Q271.034 209.187 268.533 211.369 Q266.05 213.55 261.405 213.55 Q256.759 213.55 254.258 211.369 Q251.775 209.187 251.775 205.106 Q251.775 202.416 253.317 200.554 Q254.86 198.692 257.606 198.053 M256.214 192.053 Q256.214 194.235 257.568 195.457 Q258.941 196.68 261.405 196.68 Q263.85 196.68 265.223 195.457 Q266.615 194.235 266.615 192.053 Q266.615 189.872 265.223 188.649 Q263.85 187.426 261.405 187.426 Q258.941 187.426 257.568 188.649 Q256.214 189.872 256.214 192.053 Z" fill="#000000" fill-rule="evenodd" fill-opacity="1" /><path clip-path="url(#clip860)" d="M404.656 12.096 L442.896 12.096 L442.896 18.9825 L412.838 18.9825 L412.838 36.8875 L441.64 36.8875 L441.64 43.7741 L412.838 43.7741 L412.838 65.6895 L443.625 65.6895 L443.625 72.576 L404.656 72.576 L404.656 12.096 Z" fill="#000000" fill-rule="evenodd" fill-opacity="1" /><path clip-path="url(#clip860)" d="M483.041 34.1734 Q481.785 33.4443 480.286 33.1202 Q478.828 32.7556 477.045 32.7556 Q470.726 32.7556 467.323 36.8875 Q463.961 40.9789 463.961 48.6757 L463.961 72.576 L456.467 72.576 L456.467 27.2059 L463.961 27.2059 L463.961 34.2544 Q466.31 30.1225 470.078 28.1376 Q473.845 26.1121 479.233 26.1121 Q480.002 26.1121 480.934 26.2337 Q481.866 26.3147 483 26.5172 L483.041 34.1734 Z" fill="#000000" fill-rule="evenodd" fill-opacity="1" /><path clip-path="url(#clip860)" d="M515.691 34.1734 Q514.435 33.4443 512.936 33.1202 Q511.478 32.7556 509.696 32.7556 Q503.376 32.7556 499.973 36.8875 Q496.611 40.9789 496.611 48.6757 L496.611 72.576 L489.117 72.576 L489.117 27.2059 L496.611 27.2059 L496.611 34.2544 Q498.961 30.1225 502.728 28.1376 Q506.495 26.1121 511.883 26.1121 Q512.653 26.1121 513.584 26.2337 Q514.516 26.3147 515.65 26.5172 L515.691 34.1734 Z" fill="#000000" fill-rule="evenodd" fill-opacity="1" /><path clip-path="url(#clip860)" d="M539.267 32.4315 Q533.272 32.4315 529.788 37.1306 Q526.304 41.7891 526.304 49.9314 Q526.304 58.0738 529.748 62.7728 Q533.231 67.4314 539.267 67.4314 Q545.222 67.4314 548.706 62.7323 Q552.19 58.0333 552.19 49.9314 Q552.19 41.8701 548.706 37.1711 Q545.222 32.4315 539.267 32.4315 M539.267 26.1121 Q548.989 26.1121 554.539 32.4315 Q560.089 38.7509 560.089 49.9314 Q560.089 61.0714 554.539 67.4314 Q548.989 73.7508 539.267 73.7508 Q529.504 73.7508 523.955 67.4314 Q518.446 61.0714 518.446 49.9314 Q518.446 38.7509 523.955 32.4315 Q529.504 26.1121 539.267 26.1121 Z" fill="#000000" fill-rule="evenodd" fill-opacity="1" /><path clip-path="url(#clip860)" d="M598.734 34.1734 Q597.479 33.4443 595.98 33.1202 Q594.522 32.7556 592.739 32.7556 Q586.42 32.7556 583.017 36.8875 Q579.655 40.9789 579.655 48.6757 L579.655 72.576 L572.161 72.576 L572.161 27.2059 L579.655 27.2059 L579.655 34.2544 Q582.004 30.1225 585.772 28.1376 Q589.539 26.1121 594.927 26.1121 Q595.696 26.1121 596.628 26.2337 Q597.56 26.3147 598.694 26.5172 L598.734 34.1734 Z" fill="#000000" fill-rule="evenodd" fill-opacity="1" /><path clip-path="url(#clip860)" d="M650.505 32.4315 Q644.51 32.4315 641.026 37.1306 Q637.542 41.7891 637.542 49.9314 Q637.542 58.0738 640.985 62.7728 Q644.469 67.4314 650.505 67.4314 Q656.46 67.4314 659.944 62.7323 Q663.427 58.0333 663.427 49.9314 Q663.427 41.8701 659.944 37.1711 Q656.46 32.4315 650.505 32.4315 M650.505 26.1121 Q660.227 26.1121 665.777 32.4315 Q671.327 38.7509 671.327 49.9314 Q671.327 61.0714 665.777 67.4314 Q660.227 73.7508 650.505 73.7508 Q640.742 73.7508 635.193 67.4314 Q629.683 61.0714 629.683 49.9314 Q629.683 38.7509 635.193 32.4315 Q640.742 26.1121 650.505 26.1121 Z" fill="#000000" fill-rule="evenodd" fill-opacity="1" /><path clip-path="url(#clip860)" d="M706.651 9.54393 L706.651 15.7418 L699.521 15.7418 Q695.511 15.7418 693.931 17.3622 Q692.391 18.9825 692.391 23.1955 L692.391 27.2059 L704.666 27.2059 L704.666 32.9987 L692.391 32.9987 L692.391 72.576 L684.897 72.576 L684.897 32.9987 L677.768 32.9987 L677.768 27.2059 L684.897 27.2059 L684.897 24.0462 Q684.897 16.471 688.421 13.0277 Q691.946 9.54393 699.602 9.54393 L706.651 9.54393 Z" fill="#000000" fill-rule="evenodd" fill-opacity="1" /><path clip-path="url(#clip860)" d="M741.731 65.6895 L755.099 65.6895 L755.099 19.5497 L740.557 22.4663 L740.557 15.0127 L755.018 12.096 L763.201 12.096 L763.201 65.6895 L776.569 65.6895 L776.569 72.576 L741.731 72.576 L741.731 65.6895 Z" fill="#000000" fill-rule="evenodd" fill-opacity="1" /><path clip-path="url(#clip860)" d="M810.597 17.4837 Q804.277 17.4837 801.077 23.7221 Q797.917 29.92 797.917 42.3968 Q797.917 54.833 801.077 61.0714 Q804.277 67.2693 810.597 67.2693 Q816.957 67.2693 820.116 61.0714 Q823.317 54.833 823.317 42.3968 Q823.317 29.92 820.116 23.7221 Q816.957 17.4837 810.597 17.4837 M810.597 11.0023 Q820.765 11.0023 826.112 19.0636 Q831.499 27.0843 831.499 42.3968 Q831.499 57.6687 826.112 65.73 Q820.765 73.7508 810.597 73.7508 Q800.429 73.7508 795.041 65.73 Q789.694 57.6687 789.694 42.3968 Q789.694 27.0843 795.041 19.0636 Q800.429 11.0023 810.597 11.0023 Z" fill="#000000" fill-rule="evenodd" fill-opacity="1" /><path clip-path="url(#clip860)" d="M841.06 46.5287 L862.894 46.5287 L862.894 53.1722 L841.06 53.1722 L841.06 46.5287 Z" fill="#000000" fill-rule="evenodd" fill-opacity="1" /><path clip-path="url(#clip860)" d="M901.945 17.6457 Q893.033 17.6457 887.766 24.2892 Q882.541 30.9327 882.541 42.3968 Q882.541 53.8203 887.766 60.4638 Q893.033 67.1073 901.945 67.1073 Q910.857 67.1073 916.042 60.4638 Q921.267 53.8203 921.267 42.3968 Q921.267 30.9327 916.042 24.2892 Q910.857 17.6457 901.945 17.6457 M901.945 11.0023 Q914.664 11.0023 922.28 19.5497 Q929.896 28.0566 929.896 42.3968 Q929.896 56.6965 922.28 65.2439 Q914.664 73.7508 901.945 73.7508 Q889.184 73.7508 881.528 65.2439 Q873.912 56.737 873.912 42.3968 Q873.912 28.0566 881.528 19.5497 Q889.184 11.0023 901.945 11.0023 Z" fill="#000000" fill-rule="evenodd" fill-opacity="1" /><path clip-path="url(#clip860)" d="M968.663 34.1734 Q967.407 33.4443 965.908 33.1202 Q964.45 32.7556 962.668 32.7556 Q956.348 32.7556 952.946 36.8875 Q949.583 40.9789 949.583 48.6757 L949.583 72.576 L942.089 72.576 L942.089 27.2059 L949.583 27.2059 L949.583 34.2544 Q951.933 30.1225 955.7 28.1376 Q959.467 26.1121 964.855 26.1121 Q965.625 26.1121 966.557 26.2337 Q967.488 26.3147 968.623 26.5172 L968.663 34.1734 Z" fill="#000000" fill-rule="evenodd" fill-opacity="1" /><path clip-path="url(#clip860)" d="M1004.88 34.0924 L1004.88 9.54393 L1012.33 9.54393 L1012.33 72.576 L1004.88 72.576 L1004.88 65.7705 Q1002.53 69.8214 998.923 71.8063 Q995.358 73.7508 990.335 73.7508 Q982.112 73.7508 976.927 67.1883 Q971.782 60.6258 971.782 49.9314 Q971.782 39.2371 976.927 32.6746 Q982.112 26.1121 990.335 26.1121 Q995.358 26.1121 998.923 28.0971 Q1002.53 30.0415 1004.88 34.0924 M979.479 49.9314 Q979.479 58.1548 982.841 62.8538 Q986.244 67.5124 992.158 67.5124 Q998.073 67.5124 1001.48 62.8538 Q1004.88 58.1548 1004.88 49.9314 Q1004.88 41.7081 1001.48 37.0496 Q998.073 32.3505 992.158 32.3505 Q986.244 32.3505 982.841 37.0496 Q979.479 41.7081 979.479 49.9314 Z" fill="#000000" fill-rule="evenodd" fill-opacity="1" /><path clip-path="url(#clip860)" d="M1066.49 48.0275 L1066.49 51.6733 L1032.22 51.6733 Q1032.71 59.3701 1036.84 63.421 Q1041.01 67.4314 1048.43 67.4314 Q1052.72 67.4314 1056.73 66.3781 Q1060.78 65.3249 1064.75 63.2184 L1064.75 70.267 Q1060.74 71.9684 1056.53 72.8596 Q1052.31 73.7508 1047.98 73.7508 Q1037.12 73.7508 1030.76 67.4314 Q1024.44 61.1119 1024.44 50.3365 Q1024.44 39.1965 1030.44 32.6746 Q1036.48 26.1121 1046.68 26.1121 Q1055.84 26.1121 1061.15 32.0264 Q1066.49 37.9003 1066.49 48.0275 M1059.04 45.84 Q1058.96 39.7232 1055.6 36.0774 Q1052.27 32.4315 1046.76 32.4315 Q1040.53 32.4315 1036.76 35.9558 Q1033.03 39.4801 1032.46 45.8805 L1059.04 45.84 Z" fill="#000000" fill-rule="evenodd" fill-opacity="1" /><path clip-path="url(#clip860)" d="M1105.02 34.1734 Q1103.76 33.4443 1102.26 33.1202 Q1100.8 32.7556 1099.02 32.7556 Q1092.7 32.7556 1089.3 36.8875 Q1085.94 40.9789 1085.94 48.6757 L1085.94 72.576 L1078.44 72.576 L1078.44 27.2059 L1085.94 27.2059 L1085.94 34.2544 Q1088.29 30.1225 1092.05 28.1376 Q1095.82 26.1121 1101.21 26.1121 Q1101.98 26.1121 1102.91 26.2337 Q1103.84 26.3147 1104.98 26.5172 L1105.02 34.1734 Z" fill="#000000" fill-rule="evenodd" fill-opacity="1" /><path clip-path="url(#clip860)" d="M1139.53 12.096 L1147.71 12.096 L1147.71 72.576 L1139.53 72.576 L1139.53 12.096 Z" fill="#000000" fill-rule="evenodd" fill-opacity="1" /><path clip-path="url(#clip860)" d="M1201.39 45.1919 L1201.39 72.576 L1193.93 72.576 L1193.93 45.4349 Q1193.93 38.994 1191.42 35.7938 Q1188.91 32.5936 1183.89 32.5936 Q1177.85 32.5936 1174.37 36.4419 Q1170.88 40.2903 1170.88 46.9338 L1170.88 72.576 L1163.39 72.576 L1163.39 27.2059 L1170.88 27.2059 L1170.88 34.2544 Q1173.56 30.163 1177.16 28.1376 Q1180.81 26.1121 1185.55 26.1121 Q1193.37 26.1121 1197.38 30.9732 Q1201.39 35.7938 1201.39 45.1919 Z" fill="#000000" fill-rule="evenodd" fill-opacity="1" /><path clip-path="url(#clip860)" d="M1223.63 14.324 L1223.63 27.2059 L1238.98 27.2059 L1238.98 32.9987 L1223.63 32.9987 L1223.63 57.6282 Q1223.63 63.1779 1225.13 64.7578 Q1226.67 66.3376 1231.32 66.3376 L1238.98 66.3376 L1238.98 72.576 L1231.32 72.576 Q1222.7 72.576 1219.41 69.3758 Q1216.13 66.1351 1216.13 57.6282 L1216.13 32.9987 L1210.66 32.9987 L1210.66 27.2059 L1216.13 27.2059 L1216.13 14.324 L1223.63 14.324 Z" fill="#000000" fill-rule="evenodd" fill-opacity="1" /><path clip-path="url(#clip860)" d="M1287.59 48.0275 L1287.59 51.6733 L1253.32 51.6733 Q1253.81 59.3701 1257.94 63.421 Q1262.11 67.4314 1269.52 67.4314 Q1273.82 67.4314 1277.83 66.3781 Q1281.88 65.3249 1285.85 63.2184 L1285.85 70.267 Q1281.84 71.9684 1277.63 72.8596 Q1273.41 73.7508 1269.08 73.7508 Q1258.22 73.7508 1251.86 67.4314 Q1245.54 61.1119 1245.54 50.3365 Q1245.54 39.1965 1251.54 32.6746 Q1257.57 26.1121 1267.78 26.1121 Q1276.94 26.1121 1282.24 32.0264 Q1287.59 37.9003 1287.59 48.0275 M1280.14 45.84 Q1280.06 39.7232 1276.69 36.0774 Q1273.37 32.4315 1267.86 32.4315 Q1261.62 32.4315 1257.86 35.9558 Q1254.13 39.4801 1253.56 45.8805 L1280.14 45.84 Z" fill="#000000" fill-rule="evenodd" fill-opacity="1" /><path clip-path="url(#clip860)" d="M1326.11 34.1734 Q1324.86 33.4443 1323.36 33.1202 Q1321.9 32.7556 1320.12 32.7556 Q1313.8 32.7556 1310.4 36.8875 Q1307.04 40.9789 1307.04 48.6757 L1307.04 72.576 L1299.54 72.576 L1299.54 27.2059 L1307.04 27.2059 L1307.04 34.2544 Q1309.38 30.1225 1313.15 28.1376 Q1316.92 26.1121 1322.31 26.1121 Q1323.08 26.1121 1324.01 26.2337 Q1324.94 26.3147 1326.07 26.5172 L1326.11 34.1734 Z" fill="#000000" fill-rule="evenodd" fill-opacity="1" /><path clip-path="url(#clip860)" d="M1341.14 65.7705 L1341.14 89.8329 L1333.65 89.8329 L1333.65 27.2059 L1341.14 27.2059 L1341.14 34.0924 Q1343.49 30.0415 1347.06 28.0971 Q1350.66 26.1121 1355.65 26.1121 Q1363.91 26.1121 1369.05 32.6746 Q1374.24 39.2371 1374.24 49.9314 Q1374.24 60.6258 1369.05 67.1883 Q1363.91 73.7508 1355.65 73.7508 Q1350.66 73.7508 1347.06 71.8063 Q1343.49 69.8214 1341.14 65.7705 M1366.5 49.9314 Q1366.5 41.7081 1363.1 37.0496 Q1359.74 32.3505 1353.82 32.3505 Q1347.91 32.3505 1344.51 37.0496 Q1341.14 41.7081 1341.14 49.9314 Q1341.14 58.1548 1344.51 62.8538 Q1347.91 67.5124 1353.82 67.5124 Q1359.74 67.5124 1363.1 62.8538 Q1366.5 58.1548 1366.5 49.9314 Z" fill="#000000" fill-rule="evenodd" fill-opacity="1" /><path clip-path="url(#clip860)" d="M1404.18 32.4315 Q1398.18 32.4315 1394.7 37.1306 Q1391.21 41.7891 1391.21 49.9314 Q1391.21 58.0738 1394.66 62.7728 Q1398.14 67.4314 1404.18 67.4314 Q1410.13 67.4314 1413.61 62.7323 Q1417.1 58.0333 1417.1 49.9314 Q1417.1 41.8701 1413.61 37.1711 Q1410.13 32.4315 1404.18 32.4315 M1404.18 26.1121 Q1413.9 26.1121 1419.45 32.4315 Q1425 38.7509 1425 49.9314 Q1425 61.0714 1419.45 67.4314 Q1413.9 73.7508 1404.18 73.7508 Q1394.41 73.7508 1388.86 67.4314 Q1383.35 61.0714 1383.35 49.9314 Q1383.35 38.7509 1388.86 32.4315 Q1394.41 26.1121 1404.18 26.1121 Z" fill="#000000" fill-rule="evenodd" fill-opacity="1" /><path clip-path="url(#clip860)" d="M1437.35 9.54393 L1444.81 9.54393 L1444.81 72.576 L1437.35 72.576 L1437.35 9.54393 Z" fill="#000000" fill-rule="evenodd" fill-opacity="1" /><path clip-path="url(#clip860)" d="M1481.02 49.7694 Q1471.99 49.7694 1468.5 51.8354 Q1465.02 53.9013 1465.02 58.8839 Q1465.02 62.8538 1467.61 65.2034 Q1470.25 67.5124 1474.74 67.5124 Q1480.94 67.5124 1484.67 63.1374 Q1488.43 58.7219 1488.43 51.4303 L1488.43 49.7694 L1481.02 49.7694 M1495.89 46.6907 L1495.89 72.576 L1488.43 72.576 L1488.43 65.6895 Q1485.88 69.8214 1482.07 71.8063 Q1478.27 73.7508 1472.76 73.7508 Q1465.79 73.7508 1461.66 69.8619 Q1457.57 65.9325 1457.57 59.3701 Q1457.57 51.7138 1462.67 47.825 Q1467.82 43.9361 1477.98 43.9361 L1488.43 43.9361 L1488.43 43.2069 Q1488.43 38.0623 1485.03 35.2672 Q1481.67 32.4315 1475.55 32.4315 Q1471.66 32.4315 1467.98 33.3632 Q1464.29 34.295 1460.89 36.1584 L1460.89 29.2718 Q1464.98 27.692 1468.83 26.9223 Q1472.68 26.1121 1476.32 26.1121 Q1486.17 26.1121 1491.03 31.2163 Q1495.89 36.3204 1495.89 46.6907 Z" fill="#000000" fill-rule="evenodd" fill-opacity="1" /><path clip-path="url(#clip860)" d="M1518.61 14.324 L1518.61 27.2059 L1533.97 27.2059 L1533.97 32.9987 L1518.61 32.9987 L1518.61 57.6282 Q1518.61 63.1779 1520.11 64.7578 Q1521.65 66.3376 1526.31 66.3376 L1533.97 66.3376 L1533.97 72.576 L1526.31 72.576 Q1517.68 72.576 1514.4 69.3758 Q1511.12 66.1351 1511.12 57.6282 L1511.12 32.9987 L1505.65 32.9987 L1505.65 27.2059 L1511.12 27.2059 L1511.12 14.324 L1518.61 14.324 Z" fill="#000000" fill-rule="evenodd" fill-opacity="1" /><path clip-path="url(#clip860)" d="M1543.77 27.2059 L1551.22 27.2059 L1551.22 72.576 L1543.77 72.576 L1543.77 27.2059 M1543.77 9.54393 L1551.22 9.54393 L1551.22 18.9825 L1543.77 18.9825 L1543.77 9.54393 Z" fill="#000000" fill-rule="evenodd" fill-opacity="1" /><path clip-path="url(#clip860)" d="M1584.4 32.4315 Q1578.41 32.4315 1574.92 37.1306 Q1571.44 41.7891 1571.44 49.9314 Q1571.44 58.0738 1574.88 62.7728 Q1578.36 67.4314 1584.4 67.4314 Q1590.36 67.4314 1593.84 62.7323 Q1597.32 58.0333 1597.32 49.9314 Q1597.32 41.8701 1593.84 37.1711 Q1590.36 32.4315 1584.4 32.4315 M1584.4 26.1121 Q1594.12 26.1121 1599.67 32.4315 Q1605.22 38.7509 1605.22 49.9314 Q1605.22 61.0714 1599.67 67.4314 Q1594.12 73.7508 1584.4 73.7508 Q1574.64 73.7508 1569.09 67.4314 Q1563.58 61.0714 1563.58 49.9314 Q1563.58 38.7509 1569.09 32.4315 Q1574.64 26.1121 1584.4 26.1121 Z" fill="#000000" fill-rule="evenodd" fill-opacity="1" /><path clip-path="url(#clip860)" d="M1655.29 45.1919 L1655.29 72.576 L1647.84 72.576 L1647.84 45.4349 Q1647.84 38.994 1645.33 35.7938 Q1642.81 32.5936 1637.79 32.5936 Q1631.76 32.5936 1628.27 36.4419 Q1624.79 40.2903 1624.79 46.9338 L1624.79 72.576 L1617.29 72.576 L1617.29 27.2059 L1624.79 27.2059 L1624.79 34.2544 Q1627.46 30.163 1631.07 28.1376 Q1634.71 26.1121 1639.45 26.1121 Q1647.27 26.1121 1651.28 30.9732 Q1655.29 35.7938 1655.29 45.1919 Z" fill="#000000" fill-rule="evenodd" fill-opacity="1" /><polyline clip-path="url(#clip862)" style="stroke:#009af9; stroke-linecap:butt; stroke-linejoin:round; stroke-width:4; stroke-opacity:1; fill:none" points="
  347.955,162.047 359.322,522.217 370.689,793.697 382.056,995.713 393.423,1143.87 404.79,1250.68 416.157,1326.12 427.524,1378.05 438.891,1412.65 450.258,1434.7 
  461.625,1447.87 472.992,1440.81 484.359,1437.8 495.726,1437.33 507.093,1438.33 518.46,1440.06 529.827,1442.03 541.194,1443.93 552.561,1445.58 563.928,1446.9 
  575.295,1447.87 586.662,1447.22 598.029,1446.85 609.396,1446.7 620.763,1446.72 632.13,1446.85 643.497,1447.05 654.864,1447.27 666.231,1447.5 677.597,1447.7 
  688.964,1447.87 700.331,1447.75 711.698,1447.66 723.065,1447.61 734.432,1447.6 745.799,1447.62 757.166,1447.66 768.533,1447.71 779.9,1447.77 791.267,1447.82 
  802.634,1447.87 814.001,1447.83 825.368,1447.8 836.735,1447.78 848.102,1447.77 859.469,1447.78 870.836,1447.79 882.203,1447.8 893.57,1447.83 904.937,1447.85 
  916.304,1447.87 927.671,1447.85 939.038,1447.84 950.405,1447.82 961.772,1447.82 973.139,1447.82 984.506,1447.82 995.873,1447.83 1007.24,1447.84 1018.61,1447.86 
  1029.97,1447.87 1041.34,1447.86 1052.71,1447.85 1064.07,1447.83 1075.44,1447.83 1086.81,1447.83 1098.18,1447.83 1109.54,1447.84 1120.91,1447.85 1132.28,1447.86 
  1143.64,1447.87 1155.01,1447.86 1166.38,1447.84 1177.74,1447.83 1189.11,1447.82 1200.48,1447.82 1211.84,1447.82 1223.21,1447.82 1234.58,1447.84 1245.95,1447.85 
  1257.31,1447.87 1268.68,1447.85 1280.05,1447.83 1291.41,1447.8 1302.78,1447.78 1314.15,1447.77 1325.51,1447.77 1336.88,1447.78 1348.25,1447.8 1359.62,1447.83 
  1370.98,1447.87 1382.35,1447.82 1393.72,1447.76 1405.08,1447.69 1416.45,1447.64 1427.82,1447.59 1439.18,1447.56 1450.55,1447.57 1461.92,1447.62 1473.29,1447.72 
  1484.65,1447.87 1496.02,1447.66 1507.39,1447.38 1518.75,1447.06 1530.12,1446.71 1541.49,1446.37 1552.85,1446.11 1564.22,1445.99 1575.59,1446.14 1586.95,1446.7 
  1598.32,1447.87 1609.69,1445.84 1621.06,1442.64 1632.42,1437.87 1643.79,1431.06 1655.16,1421.63 1666.52,1408.87 1677.89,1391.95 1689.26,1369.87 1700.62,1341.48 
  1711.99,1305.4 
  "/>
<path clip-path="url(#clip860)" d="
M1821.1 272.585 L2352.76 272.585 L2352.76 168.905 L1821.1 168.905  Z
  " fill="#ffffff" fill-rule="evenodd" fill-opacity="1"/>
<polyline clip-path="url(#clip860)" style="stroke:#000000; stroke-linecap:butt; stroke-linejoin:round; stroke-width:4; stroke-opacity:1; fill:none" points="
  1821.1,272.585 2352.76,272.585 2352.76,168.905 1821.1,168.905 1821.1,272.585 
  "/>
<polyline clip-path="url(#clip860)" style="stroke:#009af9; stroke-linecap:butt; stroke-linejoin:round; stroke-width:4; stroke-opacity:1; fill:none" points="
  1843.83,220.745 1980.21,220.745 
  "/>
<path clip-path="url(#clip860)" d="M2018.13 216.08 Q2017.41 215.664 2016.56 215.478 Q2015.72 215.27 2014.7 215.27 Q2011.09 215.27 2009.15 217.631 Q2007.23 219.969 2007.23 224.367 L2007.23 238.025 L2002.95 238.025 L2002.95 212.099 L2007.23 212.099 L2007.23 216.127 Q2008.57 213.766 2010.72 212.631 Q2012.88 211.474 2015.95 211.474 Q2016.39 211.474 2016.93 211.543 Q2017.46 211.59 2018.11 211.705 L2018.13 216.08 Z" fill="#000000" fill-rule="evenodd" fill-opacity="1" /><path clip-path="url(#clip860)" d="M2043.73 223.997 L2043.73 226.08 L2024.15 226.08 Q2024.43 230.478 2026.79 232.793 Q2029.17 235.085 2033.41 235.085 Q2035.86 235.085 2038.15 234.483 Q2040.47 233.881 2042.74 232.677 L2042.74 236.705 Q2040.45 237.677 2038.04 238.187 Q2035.63 238.696 2033.15 238.696 Q2026.95 238.696 2023.32 235.085 Q2019.7 231.474 2019.7 225.316 Q2019.7 218.951 2023.13 215.224 Q2026.58 211.474 2032.41 211.474 Q2037.64 211.474 2040.68 214.853 Q2043.73 218.21 2043.73 223.997 M2039.47 222.747 Q2039.43 219.252 2037.51 217.168 Q2035.61 215.085 2032.46 215.085 Q2028.89 215.085 2026.74 217.099 Q2024.61 219.113 2024.29 222.77 L2039.47 222.747 Z" fill="#000000" fill-rule="evenodd" fill-opacity="1" /><path clip-path="url(#clip860)" d="M2050.72 202.006 L2054.98 202.006 L2054.98 238.025 L2050.72 238.025 L2050.72 202.006 Z" fill="#000000" fill-rule="evenodd" fill-opacity="1" /><path clip-path="url(#clip860)" d="M2075.68 224.992 Q2070.51 224.992 2068.52 226.173 Q2066.53 227.353 2066.53 230.201 Q2066.53 232.469 2068.01 233.812 Q2069.52 235.131 2072.09 235.131 Q2075.63 235.131 2077.76 232.631 Q2079.91 230.108 2079.91 225.941 L2079.91 224.992 L2075.68 224.992 M2084.17 223.233 L2084.17 238.025 L2079.91 238.025 L2079.91 234.089 Q2078.45 236.451 2076.28 237.585 Q2074.1 238.696 2070.95 238.696 Q2066.97 238.696 2064.61 236.474 Q2062.27 234.228 2062.27 230.478 Q2062.27 226.103 2065.19 223.881 Q2068.13 221.659 2073.94 221.659 L2079.91 221.659 L2079.91 221.242 Q2079.91 218.303 2077.97 216.705 Q2076.05 215.085 2072.55 215.085 Q2070.33 215.085 2068.22 215.617 Q2066.12 216.15 2064.17 217.215 L2064.17 213.279 Q2066.51 212.377 2068.71 211.937 Q2070.91 211.474 2072.99 211.474 Q2078.62 211.474 2081.39 214.391 Q2084.17 217.307 2084.17 223.233 Z" fill="#000000" fill-rule="evenodd" fill-opacity="1" /><path clip-path="url(#clip860)" d="M2097.16 204.738 L2097.16 212.099 L2105.93 212.099 L2105.93 215.409 L2097.16 215.409 L2097.16 229.483 Q2097.16 232.654 2098.01 233.557 Q2098.89 234.46 2101.56 234.46 L2105.93 234.46 L2105.93 238.025 L2101.56 238.025 Q2096.63 238.025 2094.75 236.196 Q2092.88 234.344 2092.88 229.483 L2092.88 215.409 L2089.75 215.409 L2089.75 212.099 L2092.88 212.099 L2092.88 204.738 L2097.16 204.738 Z" fill="#000000" fill-rule="evenodd" fill-opacity="1" /><path clip-path="url(#clip860)" d="M2111.53 212.099 L2115.79 212.099 L2115.79 238.025 L2111.53 238.025 L2111.53 212.099 M2111.53 202.006 L2115.79 202.006 L2115.79 207.4 L2111.53 207.4 L2111.53 202.006 Z" fill="#000000" fill-rule="evenodd" fill-opacity="1" /><path clip-path="url(#clip860)" d="M2121.65 212.099 L2126.16 212.099 L2134.26 233.858 L2142.37 212.099 L2146.88 212.099 L2137.16 238.025 L2131.37 238.025 L2121.65 212.099 Z" fill="#000000" fill-rule="evenodd" fill-opacity="1" /><path clip-path="url(#clip860)" d="M2174.94 223.997 L2174.94 226.08 L2155.35 226.08 Q2155.63 230.478 2157.99 232.793 Q2160.37 235.085 2164.61 235.085 Q2167.06 235.085 2169.36 234.483 Q2171.67 233.881 2173.94 232.677 L2173.94 236.705 Q2171.65 237.677 2169.24 238.187 Q2166.83 238.696 2164.36 238.696 Q2158.15 238.696 2154.52 235.085 Q2150.91 231.474 2150.91 225.316 Q2150.91 218.951 2154.33 215.224 Q2157.78 211.474 2163.62 211.474 Q2168.85 211.474 2171.88 214.853 Q2174.94 218.21 2174.94 223.997 M2170.68 222.747 Q2170.63 219.252 2168.71 217.168 Q2166.81 215.085 2163.66 215.085 Q2160.1 215.085 2157.94 217.099 Q2155.81 219.113 2155.49 222.77 L2170.68 222.747 Z" fill="#000000" fill-rule="evenodd" fill-opacity="1" /><path clip-path="url(#clip860)" d="M2219.17 223.997 L2219.17 226.08 L2199.59 226.08 Q2199.87 230.478 2202.23 232.793 Q2204.61 235.085 2208.85 235.085 Q2211.3 235.085 2213.59 234.483 Q2215.91 233.881 2218.18 232.677 L2218.18 236.705 Q2215.88 237.677 2213.48 238.187 Q2211.07 238.696 2208.59 238.696 Q2202.39 238.696 2198.75 235.085 Q2195.14 231.474 2195.14 225.316 Q2195.14 218.951 2198.57 215.224 Q2202.02 211.474 2207.85 211.474 Q2213.08 211.474 2216.12 214.853 Q2219.17 218.21 2219.17 223.997 M2214.91 222.747 Q2214.87 219.252 2212.94 217.168 Q2211.05 215.085 2207.9 215.085 Q2204.33 215.085 2202.18 217.099 Q2200.05 219.113 2199.73 222.77 L2214.91 222.747 Z" fill="#000000" fill-rule="evenodd" fill-opacity="1" /><path clip-path="url(#clip860)" d="M2241.18 216.08 Q2240.47 215.664 2239.61 215.478 Q2238.78 215.27 2237.76 215.27 Q2234.15 215.27 2232.2 217.631 Q2230.28 219.969 2230.28 224.367 L2230.28 238.025 L2226 238.025 L2226 212.099 L2230.28 212.099 L2230.28 216.127 Q2231.62 213.766 2233.78 212.631 Q2235.93 211.474 2239.01 211.474 Q2239.45 211.474 2239.98 211.543 Q2240.51 211.59 2241.16 211.705 L2241.18 216.08 Z" fill="#000000" fill-rule="evenodd" fill-opacity="1" /><path clip-path="url(#clip860)" d="M2259.84 216.08 Q2259.12 215.664 2258.27 215.478 Q2257.43 215.27 2256.42 215.27 Q2252.8 215.27 2250.86 217.631 Q2248.94 219.969 2248.94 224.367 L2248.94 238.025 L2244.66 238.025 L2244.66 212.099 L2248.94 212.099 L2248.94 216.127 Q2250.28 213.766 2252.43 212.631 Q2254.59 211.474 2257.67 211.474 Q2258.11 211.474 2258.64 211.543 Q2259.17 211.59 2259.82 211.705 L2259.84 216.08 Z" fill="#000000" fill-rule="evenodd" fill-opacity="1" /><path clip-path="url(#clip860)" d="M2273.31 215.085 Q2269.89 215.085 2267.9 217.77 Q2265.91 220.432 2265.91 225.085 Q2265.91 229.738 2267.87 232.423 Q2269.87 235.085 2273.31 235.085 Q2276.72 235.085 2278.71 232.4 Q2280.7 229.715 2280.7 225.085 Q2280.7 220.478 2278.71 217.793 Q2276.72 215.085 2273.31 215.085 M2273.31 211.474 Q2278.87 211.474 2282.04 215.085 Q2285.21 218.696 2285.21 225.085 Q2285.21 231.451 2282.04 235.085 Q2278.87 238.696 2273.31 238.696 Q2267.74 238.696 2264.56 235.085 Q2261.42 231.451 2261.42 225.085 Q2261.42 218.696 2264.56 215.085 Q2267.74 211.474 2273.31 211.474 Z" fill="#000000" fill-rule="evenodd" fill-opacity="1" /><path clip-path="url(#clip860)" d="M2307.3 216.08 Q2306.58 215.664 2305.72 215.478 Q2304.89 215.27 2303.87 215.27 Q2300.26 215.27 2298.31 217.631 Q2296.39 219.969 2296.39 224.367 L2296.39 238.025 L2292.11 238.025 L2292.11 212.099 L2296.39 212.099 L2296.39 216.127 Q2297.74 213.766 2299.89 212.631 Q2302.04 211.474 2305.12 211.474 Q2305.56 211.474 2306.09 211.543 Q2306.62 211.59 2307.27 211.705 L2307.3 216.08 Z" fill="#000000" fill-rule="evenodd" fill-opacity="1" /></svg>
