<?xml version="1.0" encoding="utf-8"?>
<svg xmlns="http://www.w3.org/2000/svg" xmlns:xlink="http://www.w3.org/1999/xlink" width="600" height="400" viewBox="0 0 2400 1600">
<defs>
  <clipPath id="clip780">
    <rect x="0" y="0" width="2400" height="1600"/>
  </clipPath>
</defs>
<path clip-path="url(#clip780)" d="
M0 1600 L2400 1600 L2400 0 L0 0  Z
  " fill="#ffffff" fill-rule="evenodd" fill-opacity="1"/>
<defs>
  <clipPath id="clip781">
    <rect x="480" y="0" width="1681" height="1600"/>
  </clipPath>
</defs>
<path clip-path="url(#clip780)" d="
M246.598 1486.45 L1744.18 1486.45 L1744.18 123.472 L246.598 123.472  Z
  " fill="#ffffff" fill-rule="evenodd" fill-opacity="1"/>
<defs>
  <clipPath id="clip782">
    <rect x="246" y="123" width="1499" height="1364"/>
  </clipPath>
</defs>
<polyline clip-path="url(#clip782)" style="stroke:#000000; stroke-linecap:butt; stroke-linejoin:round; stroke-width:2; stroke-opacity:0.1; fill:none" points="
  406.717,1486.45 406.717,123.472 
  "/>
<polyline clip-path="url(#clip782)" style="stroke:#000000; stroke-linecap:butt; stroke-linejoin:round; stroke-width:2; stroke-opacity:0.1; fill:none" points="
  701.054,1486.45 701.054,123.472 
  "/>
<polyline clip-path="url(#clip782)" style="stroke:#000000; stroke-linecap:butt; stroke-linejoin:round; stroke-width:2; stroke-opacity:0.1; fill:none" points="
  995.39,1486.45 995.39,123.472 
  "/>
<polyline clip-path="url(#clip782)" style="stroke:#000000; stroke-linecap:butt; stroke-linejoin:round; stroke-width:2; stroke-opacity:0.1; fill:none" points="
  1289.73,1486.45 1289.73,123.472 
  "/>
<polyline clip-path="url(#clip782)" style="stroke:#000000; stroke-linecap:butt; stroke-linejoin:round; stroke-width:2; stroke-opacity:0.1; fill:none" points="
  1584.06,1486.45 1584.06,123.472 
  "/>
<polyline clip-path="url(#clip780)" style="stroke:#000000; stroke-linecap:butt; stroke-linejoin:round; stroke-width:4; stroke-opacity:1; fill:none" points="
  246.598,1486.45 1744.18,1486.45 
  "/>
<polyline clip-path="url(#clip780)" style="stroke:#000000; stroke-linecap:butt; stroke-linejoin:round; stroke-width:4; stroke-opacity:1; fill:none" points="
  406.717,1486.45 406.717,1467.55 
  "/>
<polyline clip-path="url(#clip780)" style="stroke:#000000; stroke-linecap:butt; stroke-linejoin:round; stroke-width:4; stroke-opacity:1; fill:none" points="
  701.054,1486.45 701.054,1467.55 
  "/>
<polyline clip-path="url(#clip780)" style="stroke:#000000; stroke-linecap:butt; stroke-linejoin:round; stroke-width:4; stroke-opacity:1; fill:none" points="
  995.39,1486.45 995.39,1467.55 
  "/>
<polyline clip-path="url(#clip780)" style="stroke:#000000; stroke-linecap:butt; stroke-linejoin:round; stroke-width:4; stroke-opacity:1; fill:none" points="
  1289.73,1486.45 1289.73,1467.55 
  "/>
<polyline clip-path="url(#clip780)" style="stroke:#000000; stroke-linecap:butt; stroke-linejoin:round; stroke-width:4; stroke-opacity:1; fill:none" points="
  1584.06,1486.45 1584.06,1467.55 
  "/>
<path clip-path="url(#clip780)" d="M353.245 1532.02 L382.921 1532.02 L382.921 1535.95 L353.245 1535.95 L353.245 1532.02 Z" fill="#000000" fill-rule="evenodd" fill-opacity="1" /><path clip-path="url(#clip780)" d="M393.823 1544.91 L401.462 1544.91 L401.462 1518.55 L393.152 1520.21 L393.152 1515.95 L401.416 1514.29 L406.092 1514.29 L406.092 1544.91 L413.731 1544.91 L413.731 1548.85 L393.823 1548.85 L393.823 1544.91 Z" fill="#000000" fill-rule="evenodd" fill-opacity="1" /><path clip-path="url(#clip780)" d="M423.175 1542.97 L428.059 1542.97 L428.059 1548.85 L423.175 1548.85 L423.175 1542.97 Z" fill="#000000" fill-rule="evenodd" fill-opacity="1" /><path clip-path="url(#clip780)" d="M448.244 1517.37 Q444.633 1517.37 442.805 1520.93 Q440.999 1524.47 440.999 1531.6 Q440.999 1538.71 442.805 1542.27 Q444.633 1545.82 448.244 1545.82 Q451.879 1545.82 453.684 1542.27 Q455.513 1538.71 455.513 1531.6 Q455.513 1524.47 453.684 1520.93 Q451.879 1517.37 448.244 1517.37 M448.244 1513.66 Q454.055 1513.66 457.11 1518.27 Q460.189 1522.85 460.189 1531.6 Q460.189 1540.33 457.11 1544.94 Q454.055 1549.52 448.244 1549.52 Q442.434 1549.52 439.356 1544.94 Q436.3 1540.33 436.3 1531.6 Q436.3 1522.85 439.356 1518.27 Q442.434 1513.66 448.244 1513.66 Z" fill="#000000" fill-rule="evenodd" fill-opacity="1" /><path clip-path="url(#clip780)" d="M648.079 1532.02 L677.755 1532.02 L677.755 1535.95 L648.079 1535.95 L648.079 1532.02 Z" fill="#000000" fill-rule="evenodd" fill-opacity="1" /><path clip-path="url(#clip780)" d="M697.848 1517.37 Q694.237 1517.37 692.408 1520.93 Q690.602 1524.47 690.602 1531.6 Q690.602 1538.71 692.408 1542.27 Q694.237 1545.82 697.848 1545.82 Q701.482 1545.82 703.287 1542.27 Q705.116 1538.71 705.116 1531.6 Q705.116 1524.47 703.287 1520.93 Q701.482 1517.37 697.848 1517.37 M697.848 1513.66 Q703.658 1513.66 706.713 1518.27 Q709.792 1522.85 709.792 1531.6 Q709.792 1540.33 706.713 1544.94 Q703.658 1549.52 697.848 1549.52 Q692.037 1549.52 688.959 1544.94 Q685.903 1540.33 685.903 1531.6 Q685.903 1522.85 688.959 1518.27 Q692.037 1513.66 697.848 1513.66 Z" fill="#000000" fill-rule="evenodd" fill-opacity="1" /><path clip-path="url(#clip780)" d="M718.01 1542.97 L722.894 1542.97 L722.894 1548.85 L718.01 1548.85 L718.01 1542.97 Z" fill="#000000" fill-rule="evenodd" fill-opacity="1" /><path clip-path="url(#clip780)" d="M733.125 1514.29 L751.482 1514.29 L751.482 1518.22 L737.408 1518.22 L737.408 1526.7 Q738.426 1526.35 739.445 1526.19 Q740.463 1526 741.482 1526 Q747.269 1526 750.648 1529.17 Q754.028 1532.34 754.028 1537.76 Q754.028 1543.34 750.556 1546.44 Q747.083 1549.52 740.764 1549.52 Q738.588 1549.52 736.32 1549.15 Q734.074 1548.78 731.667 1548.04 L731.667 1543.34 Q733.75 1544.47 735.972 1545.03 Q738.195 1545.58 740.671 1545.58 Q744.676 1545.58 747.014 1543.48 Q749.352 1541.37 749.352 1537.76 Q749.352 1534.15 747.014 1532.04 Q744.676 1529.94 740.671 1529.94 Q738.796 1529.94 736.921 1530.35 Q735.07 1530.77 733.125 1531.65 L733.125 1514.29 Z" fill="#000000" fill-rule="evenodd" fill-opacity="1" /><path clip-path="url(#clip780)" d="M972.775 1517.37 Q969.164 1517.37 967.335 1520.93 Q965.529 1524.47 965.529 1531.6 Q965.529 1538.71 967.335 1542.27 Q969.164 1545.82 972.775 1545.82 Q976.409 1545.82 978.214 1542.27 Q980.043 1538.71 980.043 1531.6 Q980.043 1524.47 978.214 1520.93 Q976.409 1517.37 972.775 1517.37 M972.775 1513.66 Q978.585 1513.66 981.64 1518.27 Q984.719 1522.85 984.719 1531.6 Q984.719 1540.33 981.64 1544.94 Q978.585 1549.52 972.775 1549.52 Q966.965 1549.52 963.886 1544.94 Q960.83 1540.33 960.83 1531.6 Q960.83 1522.85 963.886 1518.27 Q966.965 1513.66 972.775 1513.66 Z" fill="#000000" fill-rule="evenodd" fill-opacity="1" /><path clip-path="url(#clip780)" d="M992.937 1542.97 L997.821 1542.97 L997.821 1548.85 L992.937 1548.85 L992.937 1542.97 Z" fill="#000000" fill-rule="evenodd" fill-opacity="1" /><path clip-path="url(#clip780)" d="M1018.01 1517.37 Q1014.39 1517.37 1012.57 1520.93 Q1010.76 1524.47 1010.76 1531.6 Q1010.76 1538.71 1012.57 1542.27 Q1014.39 1545.82 1018.01 1545.82 Q1021.64 1545.82 1023.45 1542.27 Q1025.27 1538.71 1025.27 1531.6 Q1025.27 1524.47 1023.45 1520.93 Q1021.64 1517.37 1018.01 1517.37 M1018.01 1513.66 Q1023.82 1513.66 1026.87 1518.27 Q1029.95 1522.85 1029.95 1531.6 Q1029.95 1540.33 1026.87 1544.94 Q1023.82 1549.52 1018.01 1549.52 Q1012.2 1549.52 1009.12 1544.94 Q1006.06 1540.33 1006.06 1531.6 Q1006.06 1522.85 1009.12 1518.27 Q1012.2 1513.66 1018.01 1513.66 Z" fill="#000000" fill-rule="evenodd" fill-opacity="1" /><path clip-path="url(#clip780)" d="M1267.61 1517.37 Q1264 1517.37 1262.17 1520.93 Q1260.36 1524.47 1260.36 1531.6 Q1260.36 1538.71 1262.17 1542.27 Q1264 1545.82 1267.61 1545.82 Q1271.24 1545.82 1273.05 1542.27 Q1274.88 1538.71 1274.88 1531.6 Q1274.88 1524.47 1273.05 1520.93 Q1271.24 1517.37 1267.61 1517.37 M1267.61 1513.66 Q1273.42 1513.66 1276.47 1518.27 Q1279.55 1522.85 1279.55 1531.6 Q1279.55 1540.33 1276.47 1544.94 Q1273.42 1549.52 1267.61 1549.52 Q1261.8 1549.52 1258.72 1544.94 Q1255.66 1540.33 1255.66 1531.6 Q1255.66 1522.85 1258.72 1518.27 Q1261.8 1513.66 1267.61 1513.66 Z" fill="#000000" fill-rule="evenodd" fill-opacity="1" /><path clip-path="url(#clip780)" d="M1287.77 1542.97 L1292.66 1542.97 L1292.66 1548.85 L1287.77 1548.85 L1287.77 1542.97 Z" fill="#000000" fill-rule="evenodd" fill-opacity="1" /><path clip-path="url(#clip780)" d="M1302.89 1514.29 L1321.24 1514.29 L1321.24 1518.22 L1307.17 1518.22 L1307.17 1526.7 Q1308.19 1526.35 1309.21 1526.19 Q1310.22 1526 1311.24 1526 Q1317.03 1526 1320.41 1529.17 Q1323.79 1532.34 1323.79 1537.76 Q1323.79 1543.34 1320.32 1546.44 Q1316.84 1549.52 1310.53 1549.52 Q1308.35 1549.52 1306.08 1549.15 Q1303.84 1548.78 1301.43 1548.04 L1301.43 1543.34 Q1303.51 1544.47 1305.73 1545.03 Q1307.96 1545.58 1310.43 1545.58 Q1314.44 1545.58 1316.78 1543.48 Q1319.11 1541.37 1319.11 1537.76 Q1319.11 1534.15 1316.78 1532.04 Q1314.44 1529.94 1310.43 1529.94 Q1308.56 1529.94 1306.68 1530.35 Q1304.83 1530.77 1302.89 1531.65 L1302.89 1514.29 Z" fill="#000000" fill-rule="evenodd" fill-opacity="1" /><path clip-path="url(#clip780)" d="M1551.22 1544.91 L1558.86 1544.91 L1558.86 1518.55 L1550.55 1520.21 L1550.55 1515.95 L1558.81 1514.29 L1563.49 1514.29 L1563.49 1544.91 L1571.12 1544.91 L1571.12 1548.85 L1551.22 1548.85 L1551.22 1544.91 Z" fill="#000000" fill-rule="evenodd" fill-opacity="1" /><path clip-path="url(#clip780)" d="M1580.57 1542.97 L1585.45 1542.97 L1585.45 1548.85 L1580.57 1548.85 L1580.57 1542.97 Z" fill="#000000" fill-rule="evenodd" fill-opacity="1" /><path clip-path="url(#clip780)" d="M1605.64 1517.37 Q1602.03 1517.37 1600.2 1520.93 Q1598.39 1524.47 1598.39 1531.6 Q1598.39 1538.71 1600.2 1542.27 Q1602.03 1545.82 1605.64 1545.82 Q1609.27 1545.82 1611.08 1542.27 Q1612.91 1538.71 1612.91 1531.6 Q1612.91 1524.47 1611.08 1520.93 Q1609.27 1517.37 1605.64 1517.37 M1605.64 1513.66 Q1611.45 1513.66 1614.5 1518.27 Q1617.58 1522.85 1617.58 1531.6 Q1617.58 1540.33 1614.5 1544.94 Q1611.45 1549.52 1605.64 1549.52 Q1599.83 1549.52 1596.75 1544.94 Q1593.69 1540.33 1593.69 1531.6 Q1593.69 1522.85 1596.75 1518.27 Q1599.83 1513.66 1605.64 1513.66 Z" fill="#000000" fill-rule="evenodd" fill-opacity="1" /><polyline clip-path="url(#clip782)" style="stroke:#000000; stroke-linecap:butt; stroke-linejoin:round; stroke-width:2; stroke-opacity:0.1; fill:none" points="
  246.598,1447.87 1744.18,1447.87 
  "/>
<polyline clip-path="url(#clip782)" style="stroke:#000000; stroke-linecap:butt; stroke-linejoin:round; stroke-width:2; stroke-opacity:0.1; fill:none" points="
  246.598,1207.96 1744.18,1207.96 
  "/>
<polyline clip-path="url(#clip782)" style="stroke:#000000; stroke-linecap:butt; stroke-linejoin:round; stroke-width:2; stroke-opacity:0.1; fill:none" points="
  246.598,968.054 1744.18,968.054 
  "/>
<polyline clip-path="url(#clip782)" style="stroke:#000000; stroke-linecap:butt; stroke-linejoin:round; stroke-width:2; stroke-opacity:0.1; fill:none" points="
  246.598,728.145 1744.18,728.145 
  "/>
<polyline clip-path="url(#clip782)" style="stroke:#000000; stroke-linecap:butt; stroke-linejoin:round; stroke-width:2; stroke-opacity:0.1; fill:none" points="
  246.598,488.235 1744.18,488.235 
  "/>
<polyline clip-path="url(#clip782)" style="stroke:#000000; stroke-linecap:butt; stroke-linejoin:round; stroke-width:2; stroke-opacity:0.1; fill:none" points="
  246.598,248.326 1744.18,248.326 
  "/>
<polyline clip-path="url(#clip780)" style="stroke:#000000; stroke-linecap:butt; stroke-linejoin:round; stroke-width:4; stroke-opacity:1; fill:none" points="
  246.598,1486.45 246.598,123.472 
  "/>
<polyline clip-path="url(#clip780)" style="stroke:#000000; stroke-linecap:butt; stroke-linejoin:round; stroke-width:4; stroke-opacity:1; fill:none" points="
  246.598,1447.87 260.035,1447.87 
  "/>
<polyline clip-path="url(#clip780)" style="stroke:#000000; stroke-linecap:butt; stroke-linejoin:round; stroke-width:4; stroke-opacity:1; fill:none" points="
  246.598,1207.96 260.035,1207.96 
  "/>
<polyline clip-path="url(#clip780)" style="stroke:#000000; stroke-linecap:butt; stroke-linejoin:round; stroke-width:4; stroke-opacity:1; fill:none" points="
  246.598,968.054 260.035,968.054 
  "/>
<polyline clip-path="url(#clip780)" style="stroke:#000000; stroke-linecap:butt; stroke-linejoin:round; stroke-width:4; stroke-opacity:1; fill:none" points="
  246.598,728.145 260.035,728.145 
  "/>
<polyline clip-path="url(#clip780)" style="stroke:#000000; stroke-linecap:butt; stroke-linejoin:round; stroke-width:4; stroke-opacity:1; fill:none" points="
  246.598,488.235 260.035,488.235 
  "/>
<polyline clip-path="url(#clip780)" style="stroke:#000000; stroke-linecap:butt; stroke-linejoin:round; stroke-width:4; stroke-opacity:1; fill:none" points="
  246.598,248.326 260.035,248.326 
  "/>
<path clip-path="url(#clip780)" d="M62.9365 1433.67 Q59.3254 1433.67 57.4967 1437.24 Q55.6912 1440.78 55.6912 1447.91 Q55.6912 1455.01 57.4967 1458.58 Q59.3254 1462.12 62.9365 1462.12 Q66.5707 1462.12 68.3763 1458.58 Q70.205 1455.01 70.205 1447.91 Q70.205 1440.78 68.3763 1437.24 Q66.5707 1433.67 62.9365 1433.67 M62.9365 1429.97 Q68.7467 1429.97 71.8022 1434.57 Q74.8809 1439.16 74.8809 1447.91 Q74.8809 1456.63 71.8022 1461.24 Q68.7467 1465.82 62.9365 1465.82 Q57.1264 1465.82 54.0477 1461.24 Q50.9921 1456.63 50.9921 1447.91 Q50.9921 1439.16 54.0477 1434.57 Q57.1264 1429.97 62.9365 1429.97 Z" fill="#000000" fill-rule="evenodd" fill-opacity="1" /><path clip-path="url(#clip780)" d="M83.0984 1459.27 L87.9827 1459.27 L87.9827 1465.15 L83.0984 1465.15 L83.0984 1459.27 Z" fill="#000000" fill-rule="evenodd" fill-opacity="1" /><path clip-path="url(#clip780)" d="M108.168 1433.67 Q104.557 1433.67 102.728 1437.24 Q100.922 1440.78 100.922 1447.91 Q100.922 1455.01 102.728 1458.58 Q104.557 1462.12 108.168 1462.12 Q111.802 1462.12 113.608 1458.58 Q115.436 1455.01 115.436 1447.91 Q115.436 1440.78 113.608 1437.24 Q111.802 1433.67 108.168 1433.67 M108.168 1429.97 Q113.978 1429.97 117.033 1434.57 Q120.112 1439.16 120.112 1447.91 Q120.112 1456.63 117.033 1461.24 Q113.978 1465.82 108.168 1465.82 Q102.358 1465.82 99.2789 1461.24 Q96.2234 1456.63 96.2234 1447.91 Q96.2234 1439.16 99.2789 1434.57 Q102.358 1429.97 108.168 1429.97 Z" fill="#000000" fill-rule="evenodd" fill-opacity="1" /><path clip-path="url(#clip780)" d="M138.33 1433.67 Q134.719 1433.67 132.89 1437.24 Q131.084 1440.78 131.084 1447.91 Q131.084 1455.01 132.89 1458.58 Q134.719 1462.12 138.33 1462.12 Q141.964 1462.12 143.769 1458.58 Q145.598 1455.01 145.598 1447.91 Q145.598 1440.78 143.769 1437.24 Q141.964 1433.67 138.33 1433.67 M138.33 1429.97 Q144.14 1429.97 147.195 1434.57 Q150.274 1439.16 150.274 1447.91 Q150.274 1456.63 147.195 1461.24 Q144.14 1465.82 138.33 1465.82 Q132.519 1465.82 129.441 1461.24 Q126.385 1456.63 126.385 1447.91 Q126.385 1439.16 129.441 1434.57 Q132.519 1429.97 138.33 1429.97 Z" fill="#000000" fill-rule="evenodd" fill-opacity="1" /><path clip-path="url(#clip780)" d="M168.491 1433.67 Q164.88 1433.67 163.052 1437.24 Q161.246 1440.78 161.246 1447.91 Q161.246 1455.01 163.052 1458.58 Q164.88 1462.12 168.491 1462.12 Q172.126 1462.12 173.931 1458.58 Q175.76 1455.01 175.76 1447.91 Q175.76 1440.78 173.931 1437.24 Q172.126 1433.67 168.491 1433.67 M168.491 1429.97 Q174.302 1429.97 177.357 1434.57 Q180.436 1439.16 180.436 1447.91 Q180.436 1456.63 177.357 1461.24 Q174.302 1465.82 168.491 1465.82 Q162.681 1465.82 159.603 1461.24 Q156.547 1456.63 156.547 1447.91 Q156.547 1439.16 159.603 1434.57 Q162.681 1429.97 168.491 1429.97 Z" fill="#000000" fill-rule="evenodd" fill-opacity="1" /><path clip-path="url(#clip780)" d="M198.653 1433.67 Q195.042 1433.67 193.214 1437.24 Q191.408 1440.78 191.408 1447.91 Q191.408 1455.01 193.214 1458.58 Q195.042 1462.12 198.653 1462.12 Q202.288 1462.12 204.093 1458.58 Q205.922 1455.01 205.922 1447.91 Q205.922 1440.78 204.093 1437.24 Q202.288 1433.67 198.653 1433.67 M198.653 1429.97 Q204.464 1429.97 207.519 1434.57 Q210.598 1439.16 210.598 1447.91 Q210.598 1456.63 207.519 1461.24 Q204.464 1465.82 198.653 1465.82 Q192.843 1465.82 189.765 1461.24 Q186.709 1456.63 186.709 1447.91 Q186.709 1439.16 189.765 1434.57 Q192.843 1429.97 198.653 1429.97 Z" fill="#000000" fill-rule="evenodd" fill-opacity="1" /><path clip-path="url(#clip780)" d="M63.9319 1193.76 Q60.3208 1193.76 58.4921 1197.33 Q56.6865 1200.87 56.6865 1208 Q56.6865 1215.1 58.4921 1218.67 Q60.3208 1222.21 63.9319 1222.21 Q67.5661 1222.21 69.3717 1218.67 Q71.2004 1215.1 71.2004 1208 Q71.2004 1200.87 69.3717 1197.33 Q67.5661 1193.76 63.9319 1193.76 M63.9319 1190.06 Q69.742 1190.06 72.7976 1194.67 Q75.8763 1199.25 75.8763 1208 Q75.8763 1216.73 72.7976 1221.33 Q69.742 1225.91 63.9319 1225.91 Q58.1217 1225.91 55.043 1221.33 Q51.9875 1216.73 51.9875 1208 Q51.9875 1199.25 55.043 1194.67 Q58.1217 1190.06 63.9319 1190.06 Z" fill="#000000" fill-rule="evenodd" fill-opacity="1" /><path clip-path="url(#clip780)" d="M84.0938 1219.36 L88.978 1219.36 L88.978 1225.24 L84.0938 1225.24 L84.0938 1219.36 Z" fill="#000000" fill-rule="evenodd" fill-opacity="1" /><path clip-path="url(#clip780)" d="M109.163 1193.76 Q105.552 1193.76 103.723 1197.33 Q101.918 1200.87 101.918 1208 Q101.918 1215.1 103.723 1218.67 Q105.552 1222.21 109.163 1222.21 Q112.797 1222.21 114.603 1218.67 Q116.432 1215.1 116.432 1208 Q116.432 1200.87 114.603 1197.33 Q112.797 1193.76 109.163 1193.76 M109.163 1190.06 Q114.973 1190.06 118.029 1194.67 Q121.107 1199.25 121.107 1208 Q121.107 1216.73 118.029 1221.33 Q114.973 1225.91 109.163 1225.91 Q103.353 1225.91 100.274 1221.33 Q97.2187 1216.73 97.2187 1208 Q97.2187 1199.25 100.274 1194.67 Q103.353 1190.06 109.163 1190.06 Z" fill="#000000" fill-rule="evenodd" fill-opacity="1" /><path clip-path="url(#clip780)" d="M139.325 1193.76 Q135.714 1193.76 133.885 1197.33 Q132.08 1200.87 132.08 1208 Q132.08 1215.1 133.885 1218.67 Q135.714 1222.21 139.325 1222.21 Q142.959 1222.21 144.765 1218.67 Q146.593 1215.1 146.593 1208 Q146.593 1200.87 144.765 1197.33 Q142.959 1193.76 139.325 1193.76 M139.325 1190.06 Q145.135 1190.06 148.191 1194.67 Q151.269 1199.25 151.269 1208 Q151.269 1216.73 148.191 1221.33 Q145.135 1225.91 139.325 1225.91 Q133.515 1225.91 130.436 1221.33 Q127.381 1216.73 127.381 1208 Q127.381 1199.25 130.436 1194.67 Q133.515 1190.06 139.325 1190.06 Z" fill="#000000" fill-rule="evenodd" fill-opacity="1" /><path clip-path="url(#clip780)" d="M169.487 1193.76 Q165.876 1193.76 164.047 1197.33 Q162.242 1200.87 162.242 1208 Q162.242 1215.1 164.047 1218.67 Q165.876 1222.21 169.487 1222.21 Q173.121 1222.21 174.927 1218.67 Q176.755 1215.1 176.755 1208 Q176.755 1200.87 174.927 1197.33 Q173.121 1193.76 169.487 1193.76 M169.487 1190.06 Q175.297 1190.06 178.353 1194.67 Q181.431 1199.25 181.431 1208 Q181.431 1216.73 178.353 1221.33 Q175.297 1225.91 169.487 1225.91 Q163.677 1225.91 160.598 1221.33 Q157.542 1216.73 157.542 1208 Q157.542 1199.25 160.598 1194.67 Q163.677 1190.06 169.487 1190.06 Z" fill="#000000" fill-rule="evenodd" fill-opacity="1" /><path clip-path="url(#clip780)" d="M189.695 1190.68 L208.051 1190.68 L208.051 1194.62 L193.977 1194.62 L193.977 1203.09 Q194.996 1202.74 196.014 1202.58 Q197.033 1202.4 198.052 1202.4 Q203.839 1202.4 207.218 1205.57 Q210.598 1208.74 210.598 1214.16 Q210.598 1219.73 207.126 1222.84 Q203.653 1225.91 197.334 1225.91 Q195.158 1225.91 192.89 1225.54 Q190.644 1225.17 188.237 1224.43 L188.237 1219.73 Q190.32 1220.87 192.542 1221.42 Q194.765 1221.98 197.241 1221.98 Q201.246 1221.98 203.584 1219.87 Q205.922 1217.77 205.922 1214.16 Q205.922 1210.54 203.584 1208.44 Q201.246 1206.33 197.241 1206.33 Q195.366 1206.33 193.491 1206.75 Q191.64 1207.16 189.695 1208.04 L189.695 1190.68 Z" fill="#000000" fill-rule="evenodd" fill-opacity="1" /><path clip-path="url(#clip780)" d="M62.9365 953.853 Q59.3254 953.853 57.4967 957.418 Q55.6912 960.959 55.6912 968.089 Q55.6912 975.195 57.4967 978.76 Q59.3254 982.302 62.9365 982.302 Q66.5707 982.302 68.3763 978.76 Q70.205 975.195 70.205 968.089 Q70.205 960.959 68.3763 957.418 Q66.5707 953.853 62.9365 953.853 M62.9365 950.149 Q68.7467 950.149 71.8022 954.756 Q74.8809 959.339 74.8809 968.089 Q74.8809 976.816 71.8022 981.422 Q68.7467 986.005 62.9365 986.005 Q57.1264 986.005 54.0477 981.422 Q50.9921 976.816 50.9921 968.089 Q50.9921 959.339 54.0477 954.756 Q57.1264 950.149 62.9365 950.149 Z" fill="#000000" fill-rule="evenodd" fill-opacity="1" /><path clip-path="url(#clip780)" d="M83.0984 979.454 L87.9827 979.454 L87.9827 985.334 L83.0984 985.334 L83.0984 979.454 Z" fill="#000000" fill-rule="evenodd" fill-opacity="1" /><path clip-path="url(#clip780)" d="M108.168 953.853 Q104.557 953.853 102.728 957.418 Q100.922 960.959 100.922 968.089 Q100.922 975.195 102.728 978.76 Q104.557 982.302 108.168 982.302 Q111.802 982.302 113.608 978.76 Q115.436 975.195 115.436 968.089 Q115.436 960.959 113.608 957.418 Q111.802 953.853 108.168 953.853 M108.168 950.149 Q113.978 950.149 117.033 954.756 Q120.112 959.339 120.112 968.089 Q120.112 976.816 117.033 981.422 Q113.978 986.005 108.168 986.005 Q102.358 986.005 99.2789 981.422 Q96.2234 976.816 96.2234 968.089 Q96.2234 959.339 99.2789 954.756 Q102.358 950.149 108.168 950.149 Z" fill="#000000" fill-rule="evenodd" fill-opacity="1" /><path clip-path="url(#clip780)" d="M138.33 953.853 Q134.719 953.853 132.89 957.418 Q131.084 960.959 131.084 968.089 Q131.084 975.195 132.89 978.76 Q134.719 982.302 138.33 982.302 Q141.964 982.302 143.769 978.76 Q145.598 975.195 145.598 968.089 Q145.598 960.959 143.769 957.418 Q141.964 953.853 138.33 953.853 M138.33 950.149 Q144.14 950.149 147.195 954.756 Q150.274 959.339 150.274 968.089 Q150.274 976.816 147.195 981.422 Q144.14 986.005 138.33 986.005 Q132.519 986.005 129.441 981.422 Q126.385 976.816 126.385 968.089 Q126.385 959.339 129.441 954.756 Q132.519 950.149 138.33 950.149 Z" fill="#000000" fill-rule="evenodd" fill-opacity="1" /><path clip-path="url(#clip780)" d="M159.302 981.399 L166.941 981.399 L166.941 955.033 L158.63 956.7 L158.63 952.441 L166.894 950.774 L171.57 950.774 L171.57 981.399 L179.209 981.399 L179.209 985.334 L159.302 985.334 L159.302 981.399 Z" fill="#000000" fill-rule="evenodd" fill-opacity="1" /><path clip-path="url(#clip780)" d="M198.653 953.853 Q195.042 953.853 193.214 957.418 Q191.408 960.959 191.408 968.089 Q191.408 975.195 193.214 978.76 Q195.042 982.302 198.653 982.302 Q202.288 982.302 204.093 978.76 Q205.922 975.195 205.922 968.089 Q205.922 960.959 204.093 957.418 Q202.288 953.853 198.653 953.853 M198.653 950.149 Q204.464 950.149 207.519 954.756 Q210.598 959.339 210.598 968.089 Q210.598 976.816 207.519 981.422 Q204.464 986.005 198.653 986.005 Q192.843 986.005 189.765 981.422 Q186.709 976.816 186.709 968.089 Q186.709 959.339 189.765 954.756 Q192.843 950.149 198.653 950.149 Z" fill="#000000" fill-rule="evenodd" fill-opacity="1" /><path clip-path="url(#clip780)" d="M63.9319 713.943 Q60.3208 713.943 58.4921 717.508 Q56.6865 721.05 56.6865 728.179 Q56.6865 735.286 58.4921 738.851 Q60.3208 742.392 63.9319 742.392 Q67.5661 742.392 69.3717 738.851 Q71.2004 735.286 71.2004 728.179 Q71.2004 721.05 69.3717 717.508 Q67.5661 713.943 63.9319 713.943 M63.9319 710.24 Q69.742 710.24 72.7976 714.846 Q75.8763 719.429 75.8763 728.179 Q75.8763 736.906 72.7976 741.513 Q69.742 746.096 63.9319 746.096 Q58.1217 746.096 55.043 741.513 Q51.9875 736.906 51.9875 728.179 Q51.9875 719.429 55.043 714.846 Q58.1217 710.24 63.9319 710.24 Z" fill="#000000" fill-rule="evenodd" fill-opacity="1" /><path clip-path="url(#clip780)" d="M84.0938 739.545 L88.978 739.545 L88.978 745.425 L84.0938 745.425 L84.0938 739.545 Z" fill="#000000" fill-rule="evenodd" fill-opacity="1" /><path clip-path="url(#clip780)" d="M109.163 713.943 Q105.552 713.943 103.723 717.508 Q101.918 721.05 101.918 728.179 Q101.918 735.286 103.723 738.851 Q105.552 742.392 109.163 742.392 Q112.797 742.392 114.603 738.851 Q116.432 735.286 116.432 728.179 Q116.432 721.05 114.603 717.508 Q112.797 713.943 109.163 713.943 M109.163 710.24 Q114.973 710.24 118.029 714.846 Q121.107 719.429 121.107 728.179 Q121.107 736.906 118.029 741.513 Q114.973 746.096 109.163 746.096 Q103.353 746.096 100.274 741.513 Q97.2187 736.906 97.2187 728.179 Q97.2187 719.429 100.274 714.846 Q103.353 710.24 109.163 710.24 Z" fill="#000000" fill-rule="evenodd" fill-opacity="1" /><path clip-path="url(#clip780)" d="M139.325 713.943 Q135.714 713.943 133.885 717.508 Q132.08 721.05 132.08 728.179 Q132.08 735.286 133.885 738.851 Q135.714 742.392 139.325 742.392 Q142.959 742.392 144.765 738.851 Q146.593 735.286 146.593 728.179 Q146.593 721.05 144.765 717.508 Q142.959 713.943 139.325 713.943 M139.325 710.24 Q145.135 710.24 148.191 714.846 Q151.269 719.429 151.269 728.179 Q151.269 736.906 148.191 741.513 Q145.135 746.096 139.325 746.096 Q133.515 746.096 130.436 741.513 Q127.381 736.906 127.381 728.179 Q127.381 719.429 130.436 714.846 Q133.515 710.24 139.325 710.24 Z" fill="#000000" fill-rule="evenodd" fill-opacity="1" /><path clip-path="url(#clip780)" d="M160.297 741.489 L167.936 741.489 L167.936 715.124 L159.626 716.79 L159.626 712.531 L167.89 710.865 L172.566 710.865 L172.566 741.489 L180.204 741.489 L180.204 745.425 L160.297 745.425 L160.297 741.489 Z" fill="#000000" fill-rule="evenodd" fill-opacity="1" /><path clip-path="url(#clip780)" d="M189.695 710.865 L208.051 710.865 L208.051 714.8 L193.977 714.8 L193.977 723.272 Q194.996 722.925 196.014 722.763 Q197.033 722.577 198.052 722.577 Q203.839 722.577 207.218 725.749 Q210.598 728.92 210.598 734.337 Q210.598 739.915 207.126 743.017 Q203.653 746.096 197.334 746.096 Q195.158 746.096 192.89 745.726 Q190.644 745.355 188.237 744.614 L188.237 739.915 Q190.32 741.05 192.542 741.605 Q194.765 742.161 197.241 742.161 Q201.246 742.161 203.584 740.054 Q205.922 737.948 205.922 734.337 Q205.922 730.726 203.584 728.619 Q201.246 726.513 197.241 726.513 Q195.366 726.513 193.491 726.929 Q191.64 727.346 189.695 728.226 L189.695 710.865 Z" fill="#000000" fill-rule="evenodd" fill-opacity="1" /><path clip-path="url(#clip780)" d="M62.9365 474.034 Q59.3254 474.034 57.4967 477.599 Q55.6912 481.14 55.6912 488.27 Q55.6912 495.376 57.4967 498.941 Q59.3254 502.483 62.9365 502.483 Q66.5707 502.483 68.3763 498.941 Q70.205 495.376 70.205 488.27 Q70.205 481.14 68.3763 477.599 Q66.5707 474.034 62.9365 474.034 M62.9365 470.33 Q68.7467 470.33 71.8022 474.937 Q74.8809 479.52 74.8809 488.27 Q74.8809 496.997 71.8022 501.603 Q68.7467 506.186 62.9365 506.186 Q57.1264 506.186 54.0477 501.603 Q50.9921 496.997 50.9921 488.27 Q50.9921 479.52 54.0477 474.937 Q57.1264 470.33 62.9365 470.33 Z" fill="#000000" fill-rule="evenodd" fill-opacity="1" /><path clip-path="url(#clip780)" d="M83.0984 499.635 L87.9827 499.635 L87.9827 505.515 L83.0984 505.515 L83.0984 499.635 Z" fill="#000000" fill-rule="evenodd" fill-opacity="1" /><path clip-path="url(#clip780)" d="M108.168 474.034 Q104.557 474.034 102.728 477.599 Q100.922 481.14 100.922 488.27 Q100.922 495.376 102.728 498.941 Q104.557 502.483 108.168 502.483 Q111.802 502.483 113.608 498.941 Q115.436 495.376 115.436 488.27 Q115.436 481.14 113.608 477.599 Q111.802 474.034 108.168 474.034 M108.168 470.33 Q113.978 470.33 117.033 474.937 Q120.112 479.52 120.112 488.27 Q120.112 496.997 117.033 501.603 Q113.978 506.186 108.168 506.186 Q102.358 506.186 99.2789 501.603 Q96.2234 496.997 96.2234 488.27 Q96.2234 479.52 99.2789 474.937 Q102.358 470.33 108.168 470.33 Z" fill="#000000" fill-rule="evenodd" fill-opacity="1" /><path clip-path="url(#clip780)" d="M138.33 474.034 Q134.719 474.034 132.89 477.599 Q131.084 481.14 131.084 488.27 Q131.084 495.376 132.89 498.941 Q134.719 502.483 138.33 502.483 Q141.964 502.483 143.769 498.941 Q145.598 495.376 145.598 488.27 Q145.598 481.14 143.769 477.599 Q141.964 474.034 138.33 474.034 M138.33 470.33 Q144.14 470.33 147.195 474.937 Q150.274 479.52 150.274 488.27 Q150.274 496.997 147.195 501.603 Q144.14 506.186 138.33 506.186 Q132.519 506.186 129.441 501.603 Q126.385 496.997 126.385 488.27 Q126.385 479.52 129.441 474.937 Q132.519 470.33 138.33 470.33 Z" fill="#000000" fill-rule="evenodd" fill-opacity="1" /><path clip-path="url(#clip780)" d="M162.519 501.58 L178.839 501.58 L178.839 505.515 L156.894 505.515 L156.894 501.58 Q159.556 498.825 164.14 494.196 Q168.746 489.543 169.927 488.2 Q172.172 485.677 173.052 483.941 Q173.954 482.182 173.954 480.492 Q173.954 477.737 172.01 476.001 Q170.089 474.265 166.987 474.265 Q164.788 474.265 162.334 475.029 Q159.904 475.793 157.126 477.344 L157.126 472.622 Q159.95 471.487 162.404 470.909 Q164.857 470.33 166.894 470.33 Q172.265 470.33 175.459 473.015 Q178.653 475.7 178.653 480.191 Q178.653 482.321 177.843 484.242 Q177.056 486.14 174.95 488.733 Q174.371 489.404 171.269 492.622 Q168.167 495.816 162.519 501.58 Z" fill="#000000" fill-rule="evenodd" fill-opacity="1" /><path clip-path="url(#clip780)" d="M198.653 474.034 Q195.042 474.034 193.214 477.599 Q191.408 481.14 191.408 488.27 Q191.408 495.376 193.214 498.941 Q195.042 502.483 198.653 502.483 Q202.288 502.483 204.093 498.941 Q205.922 495.376 205.922 488.27 Q205.922 481.14 204.093 477.599 Q202.288 474.034 198.653 474.034 M198.653 470.33 Q204.464 470.33 207.519 474.937 Q210.598 479.52 210.598 488.27 Q210.598 496.997 207.519 501.603 Q204.464 506.186 198.653 506.186 Q192.843 506.186 189.765 501.603 Q186.709 496.997 186.709 488.27 Q186.709 479.52 189.765 474.937 Q192.843 470.33 198.653 470.33 Z" fill="#000000" fill-rule="evenodd" fill-opacity="1" /><path clip-path="url(#clip780)" d="M63.9319 234.124 Q60.3208 234.124 58.4921 237.689 Q56.6865 241.231 56.6865 248.36 Q56.6865 255.467 58.4921 259.032 Q60.3208 262.573 63.9319 262.573 Q67.5661 262.573 69.3717 259.032 Q71.2004 255.467 71.2004 248.36 Q71.2004 241.231 69.3717 237.689 Q67.5661 234.124 63.9319 234.124 M63.9319 230.421 Q69.742 230.421 72.7976 235.027 Q75.8763 239.61 75.8763 248.36 Q75.8763 257.087 72.7976 261.694 Q69.742 266.277 63.9319 266.277 Q58.1217 266.277 55.043 261.694 Q51.9875 257.087 51.9875 248.36 Q51.9875 239.61 55.043 235.027 Q58.1217 230.421 63.9319 230.421 Z" fill="#000000" fill-rule="evenodd" fill-opacity="1" /><path clip-path="url(#clip780)" d="M84.0938 259.726 L88.978 259.726 L88.978 265.606 L84.0938 265.606 L84.0938 259.726 Z" fill="#000000" fill-rule="evenodd" fill-opacity="1" /><path clip-path="url(#clip780)" d="M109.163 234.124 Q105.552 234.124 103.723 237.689 Q101.918 241.231 101.918 248.36 Q101.918 255.467 103.723 259.032 Q105.552 262.573 109.163 262.573 Q112.797 262.573 114.603 259.032 Q116.432 255.467 116.432 248.36 Q116.432 241.231 114.603 237.689 Q112.797 234.124 109.163 234.124 M109.163 230.421 Q114.973 230.421 118.029 235.027 Q121.107 239.61 121.107 248.36 Q121.107 257.087 118.029 261.694 Q114.973 266.277 109.163 266.277 Q103.353 266.277 100.274 261.694 Q97.2187 257.087 97.2187 248.36 Q97.2187 239.61 100.274 235.027 Q103.353 230.421 109.163 230.421 Z" fill="#000000" fill-rule="evenodd" fill-opacity="1" /><path clip-path="url(#clip780)" d="M139.325 234.124 Q135.714 234.124 133.885 237.689 Q132.08 241.231 132.08 248.36 Q132.08 255.467 133.885 259.032 Q135.714 262.573 139.325 262.573 Q142.959 262.573 144.765 259.032 Q146.593 255.467 146.593 248.36 Q146.593 241.231 144.765 237.689 Q142.959 234.124 139.325 234.124 M139.325 230.421 Q145.135 230.421 148.191 235.027 Q151.269 239.61 151.269 248.36 Q151.269 257.087 148.191 261.694 Q145.135 266.277 139.325 266.277 Q133.515 266.277 130.436 261.694 Q127.381 257.087 127.381 248.36 Q127.381 239.61 130.436 235.027 Q133.515 230.421 139.325 230.421 Z" fill="#000000" fill-rule="evenodd" fill-opacity="1" /><path clip-path="url(#clip780)" d="M163.515 261.67 L179.834 261.67 L179.834 265.606 L157.89 265.606 L157.89 261.67 Q160.552 258.916 165.135 254.286 Q169.741 249.633 170.922 248.291 Q173.167 245.768 174.047 244.032 Q174.95 242.272 174.95 240.583 Q174.95 237.828 173.005 236.092 Q171.084 234.356 167.982 234.356 Q165.783 234.356 163.329 235.12 Q160.899 235.884 158.121 237.434 L158.121 232.712 Q160.945 231.578 163.399 230.999 Q165.853 230.421 167.89 230.421 Q173.26 230.421 176.454 233.106 Q179.649 235.791 179.649 240.282 Q179.649 242.411 178.839 244.333 Q178.052 246.231 175.945 248.823 Q175.366 249.495 172.265 252.712 Q169.163 255.907 163.515 261.67 Z" fill="#000000" fill-rule="evenodd" fill-opacity="1" /><path clip-path="url(#clip780)" d="M189.695 231.046 L208.051 231.046 L208.051 234.981 L193.977 234.981 L193.977 243.453 Q194.996 243.106 196.014 242.944 Q197.033 242.758 198.052 242.758 Q203.839 242.758 207.218 245.93 Q210.598 249.101 210.598 254.518 Q210.598 260.096 207.126 263.198 Q203.653 266.277 197.334 266.277 Q195.158 266.277 192.89 265.906 Q190.644 265.536 188.237 264.795 L188.237 260.096 Q190.32 261.231 192.542 261.786 Q194.765 262.342 197.241 262.342 Q201.246 262.342 203.584 260.235 Q205.922 258.129 205.922 254.518 Q205.922 250.907 203.584 248.8 Q201.246 246.694 197.241 246.694 Q195.366 246.694 193.491 247.11 Q191.64 247.527 189.695 248.407 L189.695 231.046 Z" fill="#000000" fill-rule="evenodd" fill-opacity="1" /><path clip-path="url(#clip780)" d="M396.464 12.096 L434.705 12.096 L434.705 18.9825 L404.647 18.9825 L404.647 36.8875 L433.449 36.8875 L433.449 43.7741 L404.647 43.7741 L404.647 65.6895 L435.434 65.6895 L435.434 72.576 L396.464 72.576 L396.464 12.096 Z" fill="#000000" fill-rule="evenodd" fill-opacity="1" /><path clip-path="url(#clip780)" d="M474.849 34.1734 Q473.593 33.4443 472.094 33.1202 Q470.636 32.7556 468.854 32.7556 Q462.534 32.7556 459.132 36.8875 Q455.769 40.9789 455.769 48.6757 L455.769 72.576 L448.275 72.576 L448.275 27.2059 L455.769 27.2059 L455.769 34.2544 Q458.119 30.1225 461.886 28.1376 Q465.654 26.1121 471.041 26.1121 Q471.811 26.1121 472.743 26.2337 Q473.674 26.3147 474.809 26.5172 L474.849 34.1734 Z" fill="#000000" fill-rule="evenodd" fill-opacity="1" /><path clip-path="url(#clip780)" d="M507.499 34.1734 Q506.244 33.4443 504.745 33.1202 Q503.286 32.7556 501.504 32.7556 Q495.185 32.7556 491.782 36.8875 Q488.42 40.9789 488.42 48.6757 L488.42 72.576 L480.925 72.576 L480.925 27.2059 L488.42 27.2059 L488.42 34.2544 Q490.769 30.1225 494.536 28.1376 Q498.304 26.1121 503.692 26.1121 Q504.461 26.1121 505.393 26.2337 Q506.325 26.3147 507.459 26.5172 L507.499 34.1734 Z" fill="#000000" fill-rule="evenodd" fill-opacity="1" /><path clip-path="url(#clip780)" d="M531.076 32.4315 Q525.08 32.4315 521.597 37.1306 Q518.113 41.7891 518.113 49.9314 Q518.113 58.0738 521.556 62.7728 Q525.04 67.4314 531.076 67.4314 Q537.03 67.4314 540.514 62.7323 Q543.998 58.0333 543.998 49.9314 Q543.998 41.8701 540.514 37.1711 Q537.03 32.4315 531.076 32.4315 M531.076 26.1121 Q540.798 26.1121 546.348 32.4315 Q551.897 38.7509 551.897 49.9314 Q551.897 61.0714 546.348 67.4314 Q540.798 73.7508 531.076 73.7508 Q521.313 73.7508 515.763 67.4314 Q510.254 61.0714 510.254 49.9314 Q510.254 38.7509 515.763 32.4315 Q521.313 26.1121 531.076 26.1121 Z" fill="#000000" fill-rule="evenodd" fill-opacity="1" /><path clip-path="url(#clip780)" d="M590.543 34.1734 Q589.287 33.4443 587.788 33.1202 Q586.33 32.7556 584.548 32.7556 Q578.228 32.7556 574.825 36.8875 Q571.463 40.9789 571.463 48.6757 L571.463 72.576 L563.969 72.576 L563.969 27.2059 L571.463 27.2059 L571.463 34.2544 Q573.813 30.1225 577.58 28.1376 Q581.347 26.1121 586.735 26.1121 Q587.505 26.1121 588.436 26.2337 Q589.368 26.3147 590.502 26.5172 L590.543 34.1734 Z" fill="#000000" fill-rule="evenodd" fill-opacity="1" /><path clip-path="url(#clip780)" d="M642.313 32.4315 Q636.318 32.4315 632.834 37.1306 Q629.351 41.7891 629.351 49.9314 Q629.351 58.0738 632.794 62.7728 Q636.278 67.4314 642.313 67.4314 Q648.268 67.4314 651.752 62.7323 Q655.236 58.0333 655.236 49.9314 Q655.236 41.8701 651.752 37.1711 Q648.268 32.4315 642.313 32.4315 M642.313 26.1121 Q652.036 26.1121 657.585 32.4315 Q663.135 38.7509 663.135 49.9314 Q663.135 61.0714 657.585 67.4314 Q652.036 73.7508 642.313 73.7508 Q632.551 73.7508 627.001 67.4314 Q621.492 61.0714 621.492 49.9314 Q621.492 38.7509 627.001 32.4315 Q632.551 26.1121 642.313 26.1121 Z" fill="#000000" fill-rule="evenodd" fill-opacity="1" /><path clip-path="url(#clip780)" d="M698.459 9.54393 L698.459 15.7418 L691.329 15.7418 Q687.319 15.7418 685.739 17.3622 Q684.2 18.9825 684.2 23.1955 L684.2 27.2059 L696.474 27.2059 L696.474 32.9987 L684.2 32.9987 L684.2 72.576 L676.706 72.576 L676.706 32.9987 L669.576 32.9987 L669.576 27.2059 L676.706 27.2059 L676.706 24.0462 Q676.706 16.471 680.23 13.0277 Q683.754 9.54393 691.41 9.54393 L698.459 9.54393 Z" fill="#000000" fill-rule="evenodd" fill-opacity="1" /><path clip-path="url(#clip780)" d="M732.203 12.096 L764.327 12.096 L764.327 18.9825 L739.697 18.9825 L739.697 33.8088 Q741.48 33.2012 743.262 32.9176 Q745.044 32.5936 746.827 32.5936 Q756.954 32.5936 762.868 38.1433 Q768.783 43.6931 768.783 53.1722 Q768.783 62.9348 762.706 68.3631 Q756.63 73.7508 745.571 73.7508 Q741.763 73.7508 737.793 73.1026 Q733.864 72.4545 729.651 71.1582 L729.651 62.9348 Q733.297 64.9198 737.186 65.892 Q741.075 66.8642 745.409 66.8642 Q752.417 66.8642 756.508 63.1779 Q760.6 59.4916 760.6 53.1722 Q760.6 46.8528 756.508 43.1664 Q752.417 39.4801 745.409 39.4801 Q742.128 39.4801 738.847 40.2093 Q735.606 40.9384 732.203 42.4778 L732.203 12.096 Z" fill="#000000" fill-rule="evenodd" fill-opacity="1" /><path clip-path="url(#clip780)" d="M780.085 46.5287 L801.919 46.5287 L801.919 53.1722 L780.085 53.1722 L780.085 46.5287 Z" fill="#000000" fill-rule="evenodd" fill-opacity="1" /><path clip-path="url(#clip780)" d="M840.97 17.6457 Q832.058 17.6457 826.792 24.2892 Q821.566 30.9327 821.566 42.3968 Q821.566 53.8203 826.792 60.4638 Q832.058 67.1073 840.97 67.1073 Q849.882 67.1073 855.067 60.4638 Q860.293 53.8203 860.293 42.3968 Q860.293 30.9327 855.067 24.2892 Q849.882 17.6457 840.97 17.6457 M840.97 11.0023 Q853.69 11.0023 861.305 19.5497 Q868.921 28.0566 868.921 42.3968 Q868.921 56.6965 861.305 65.2439 Q853.69 73.7508 840.97 73.7508 Q828.209 73.7508 820.553 65.2439 Q812.938 56.737 812.938 42.3968 Q812.938 28.0566 820.553 19.5497 Q828.209 11.0023 840.97 11.0023 Z" fill="#000000" fill-rule="evenodd" fill-opacity="1" /><path clip-path="url(#clip780)" d="M907.688 34.1734 Q906.432 33.4443 904.934 33.1202 Q903.475 32.7556 901.693 32.7556 Q895.373 32.7556 891.971 36.8875 Q888.608 40.9789 888.608 48.6757 L888.608 72.576 L881.114 72.576 L881.114 27.2059 L888.608 27.2059 L888.608 34.2544 Q890.958 30.1225 894.725 28.1376 Q898.493 26.1121 903.88 26.1121 Q904.65 26.1121 905.582 26.2337 Q906.513 26.3147 907.648 26.5172 L907.688 34.1734 Z" fill="#000000" fill-rule="evenodd" fill-opacity="1" /><path clip-path="url(#clip780)" d="M943.903 34.0924 L943.903 9.54393 L951.357 9.54393 L951.357 72.576 L943.903 72.576 L943.903 65.7705 Q941.554 69.8214 937.948 71.8063 Q934.384 73.7508 929.361 73.7508 Q921.137 73.7508 915.952 67.1883 Q910.807 60.6258 910.807 49.9314 Q910.807 39.2371 915.952 32.6746 Q921.137 26.1121 929.361 26.1121 Q934.384 26.1121 937.948 28.0971 Q941.554 30.0415 943.903 34.0924 M918.504 49.9314 Q918.504 58.1548 921.866 62.8538 Q925.269 67.5124 931.183 67.5124 Q937.098 67.5124 940.501 62.8538 Q943.903 58.1548 943.903 49.9314 Q943.903 41.7081 940.501 37.0496 Q937.098 32.3505 931.183 32.3505 Q925.269 32.3505 921.866 37.0496 Q918.504 41.7081 918.504 49.9314 Z" fill="#000000" fill-rule="evenodd" fill-opacity="1" /><path clip-path="url(#clip780)" d="M1005.52 48.0275 L1005.52 51.6733 L971.247 51.6733 Q971.733 59.3701 975.865 63.421 Q980.037 67.4314 987.451 67.4314 Q991.744 67.4314 995.755 66.3781 Q999.806 65.3249 1003.78 63.2184 L1003.78 70.267 Q999.765 71.9684 995.552 72.8596 Q991.339 73.7508 987.005 73.7508 Q976.149 73.7508 969.789 67.4314 Q963.469 61.1119 963.469 50.3365 Q963.469 39.1965 969.465 32.6746 Q975.5 26.1121 985.709 26.1121 Q994.864 26.1121 1000.17 32.0264 Q1005.52 37.9003 1005.52 48.0275 M998.064 45.84 Q997.983 39.7232 994.621 36.0774 Q991.299 32.4315 985.79 32.4315 Q979.551 32.4315 975.784 35.9558 Q972.057 39.4801 971.49 45.8805 L998.064 45.84 Z" fill="#000000" fill-rule="evenodd" fill-opacity="1" /><path clip-path="url(#clip780)" d="M1044.04 34.1734 Q1042.79 33.4443 1041.29 33.1202 Q1039.83 32.7556 1038.05 32.7556 Q1031.73 32.7556 1028.32 36.8875 Q1024.96 40.9789 1024.96 48.6757 L1024.96 72.576 L1017.47 72.576 L1017.47 27.2059 L1024.96 27.2059 L1024.96 34.2544 Q1027.31 30.1225 1031.08 28.1376 Q1034.85 26.1121 1040.23 26.1121 Q1041 26.1121 1041.94 26.2337 Q1042.87 26.3147 1044 26.5172 L1044.04 34.1734 Z" fill="#000000" fill-rule="evenodd" fill-opacity="1" /><path clip-path="url(#clip780)" d="M1078.56 12.096 L1086.74 12.096 L1086.74 72.576 L1078.56 72.576 L1078.56 12.096 Z" fill="#000000" fill-rule="evenodd" fill-opacity="1" /><path clip-path="url(#clip780)" d="M1140.41 45.1919 L1140.41 72.576 L1132.96 72.576 L1132.96 45.4349 Q1132.96 38.994 1130.45 35.7938 Q1127.94 32.5936 1122.91 32.5936 Q1116.88 32.5936 1113.39 36.4419 Q1109.91 40.2903 1109.91 46.9338 L1109.91 72.576 L1102.42 72.576 L1102.42 27.2059 L1109.91 27.2059 L1109.91 34.2544 Q1112.58 30.163 1116.19 28.1376 Q1119.83 26.1121 1124.57 26.1121 Q1132.39 26.1121 1136.4 30.9732 Q1140.41 35.7938 1140.41 45.1919 Z" fill="#000000" fill-rule="evenodd" fill-opacity="1" /><path clip-path="url(#clip780)" d="M1162.65 14.324 L1162.65 27.2059 L1178.01 27.2059 L1178.01 32.9987 L1162.65 32.9987 L1162.65 57.6282 Q1162.65 63.1779 1164.15 64.7578 Q1165.69 66.3376 1170.35 66.3376 L1178.01 66.3376 L1178.01 72.576 L1170.35 72.576 Q1161.72 72.576 1158.44 69.3758 Q1155.16 66.1351 1155.16 57.6282 L1155.16 32.9987 L1149.69 32.9987 L1149.69 27.2059 L1155.16 27.2059 L1155.16 14.324 L1162.65 14.324 Z" fill="#000000" fill-rule="evenodd" fill-opacity="1" /><path clip-path="url(#clip780)" d="M1226.62 48.0275 L1226.62 51.6733 L1192.35 51.6733 Q1192.83 59.3701 1196.96 63.421 Q1201.14 67.4314 1208.55 67.4314 Q1212.84 67.4314 1216.85 66.3781 Q1220.9 65.3249 1224.87 63.2184 L1224.87 70.267 Q1220.86 71.9684 1216.65 72.8596 Q1212.44 73.7508 1208.1 73.7508 Q1197.25 73.7508 1190.89 67.4314 Q1184.57 61.1119 1184.57 50.3365 Q1184.57 39.1965 1190.56 32.6746 Q1196.6 26.1121 1206.81 26.1121 Q1215.96 26.1121 1221.27 32.0264 Q1226.62 37.9003 1226.62 48.0275 M1219.16 45.84 Q1219.08 39.7232 1215.72 36.0774 Q1212.4 32.4315 1206.89 32.4315 Q1200.65 32.4315 1196.88 35.9558 Q1193.16 39.4801 1192.59 45.8805 L1219.16 45.84 Z" fill="#000000" fill-rule="evenodd" fill-opacity="1" /><path clip-path="url(#clip780)" d="M1265.14 34.1734 Q1263.88 33.4443 1262.39 33.1202 Q1260.93 32.7556 1259.14 32.7556 Q1252.83 32.7556 1249.42 36.8875 Q1246.06 40.9789 1246.06 48.6757 L1246.06 72.576 L1238.57 72.576 L1238.57 27.2059 L1246.06 27.2059 L1246.06 34.2544 Q1248.41 30.1225 1252.18 28.1376 Q1255.94 26.1121 1261.33 26.1121 Q1262.1 26.1121 1263.03 26.2337 Q1263.97 26.3147 1265.1 26.5172 L1265.14 34.1734 Z" fill="#000000" fill-rule="evenodd" fill-opacity="1" /><path clip-path="url(#clip780)" d="M1280.17 65.7705 L1280.17 89.8329 L1272.67 89.8329 L1272.67 27.2059 L1280.17 27.2059 L1280.17 34.0924 Q1282.52 30.0415 1286.08 28.0971 Q1289.69 26.1121 1294.67 26.1121 Q1302.93 26.1121 1308.08 32.6746 Q1313.26 39.2371 1313.26 49.9314 Q1313.26 60.6258 1308.08 67.1883 Q1302.93 73.7508 1294.67 73.7508 Q1289.69 73.7508 1286.08 71.8063 Q1282.52 69.8214 1280.17 65.7705 M1305.53 49.9314 Q1305.53 41.7081 1302.12 37.0496 Q1298.76 32.3505 1292.85 32.3505 Q1286.93 32.3505 1283.53 37.0496 Q1280.17 41.7081 1280.17 49.9314 Q1280.17 58.1548 1283.53 62.8538 Q1286.93 67.5124 1292.85 67.5124 Q1298.76 67.5124 1302.12 62.8538 Q1305.53 58.1548 1305.53 49.9314 Z" fill="#000000" fill-rule="evenodd" fill-opacity="1" /><path clip-path="url(#clip780)" d="M1343.2 32.4315 Q1337.21 32.4315 1333.72 37.1306 Q1330.24 41.7891 1330.24 49.9314 Q1330.24 58.0738 1333.68 62.7728 Q1337.17 67.4314 1343.2 67.4314 Q1349.16 67.4314 1352.64 62.7323 Q1356.12 58.0333 1356.12 49.9314 Q1356.12 41.8701 1352.64 37.1711 Q1349.16 32.4315 1343.2 32.4315 M1343.2 26.1121 Q1352.92 26.1121 1358.47 32.4315 Q1364.02 38.7509 1364.02 49.9314 Q1364.02 61.0714 1358.47 67.4314 Q1352.92 73.7508 1343.2 73.7508 Q1333.44 73.7508 1327.89 67.4314 Q1322.38 61.0714 1322.38 49.9314 Q1322.38 38.7509 1327.89 32.4315 Q1333.44 26.1121 1343.2 26.1121 Z" fill="#000000" fill-rule="evenodd" fill-opacity="1" /><path clip-path="url(#clip780)" d="M1376.38 9.54393 L1383.83 9.54393 L1383.83 72.576 L1376.38 72.576 L1376.38 9.54393 Z" fill="#000000" fill-rule="evenodd" fill-opacity="1" /><path clip-path="url(#clip780)" d="M1420.05 49.7694 Q1411.01 49.7694 1407.53 51.8354 Q1404.05 53.9013 1404.05 58.8839 Q1404.05 62.8538 1406.64 65.2034 Q1409.27 67.5124 1413.77 67.5124 Q1419.97 67.5124 1423.69 63.1374 Q1427.46 58.7219 1427.46 51.4303 L1427.46 49.7694 L1420.05 49.7694 M1434.91 46.6907 L1434.91 72.576 L1427.46 72.576 L1427.46 65.6895 Q1424.91 69.8214 1421.1 71.8063 Q1417.29 73.7508 1411.78 73.7508 Q1404.82 73.7508 1400.68 69.8619 Q1396.59 65.9325 1396.59 59.3701 Q1396.59 51.7138 1401.7 47.825 Q1406.84 43.9361 1417.01 43.9361 L1427.46 43.9361 L1427.46 43.2069 Q1427.46 38.0623 1424.06 35.2672 Q1420.69 32.4315 1414.58 32.4315 Q1410.69 32.4315 1407 33.3632 Q1403.32 34.295 1399.91 36.1584 L1399.91 29.2718 Q1404.01 27.692 1407.85 26.9223 Q1411.7 26.1121 1415.35 26.1121 Q1425.19 26.1121 1430.05 31.2163 Q1434.91 36.3204 1434.91 46.6907 Z" fill="#000000" fill-rule="evenodd" fill-opacity="1" /><path clip-path="url(#clip780)" d="M1457.64 14.324 L1457.64 27.2059 L1472.99 27.2059 L1472.99 32.9987 L1457.64 32.9987 L1457.64 57.6282 Q1457.64 63.1779 1459.14 64.7578 Q1460.68 66.3376 1465.34 66.3376 L1472.99 66.3376 L1472.99 72.576 L1465.34 72.576 Q1456.71 72.576 1453.43 69.3758 Q1450.14 66.1351 1450.14 57.6282 L1450.14 32.9987 L1444.68 32.9987 L1444.68 27.2059 L1450.14 27.2059 L1450.14 14.324 L1457.64 14.324 Z" fill="#000000" fill-rule="evenodd" fill-opacity="1" /><path clip-path="url(#clip780)" d="M1482.8 27.2059 L1490.25 27.2059 L1490.25 72.576 L1482.8 72.576 L1482.8 27.2059 M1482.8 9.54393 L1490.25 9.54393 L1490.25 18.9825 L1482.8 18.9825 L1482.8 9.54393 Z" fill="#000000" fill-rule="evenodd" fill-opacity="1" /><path clip-path="url(#clip780)" d="M1523.43 32.4315 Q1517.43 32.4315 1513.95 37.1306 Q1510.46 41.7891 1510.46 49.9314 Q1510.46 58.0738 1513.91 62.7728 Q1517.39 67.4314 1523.43 67.4314 Q1529.38 67.4314 1532.86 62.7323 Q1536.35 58.0333 1536.35 49.9314 Q1536.35 41.8701 1532.86 37.1711 Q1529.38 32.4315 1523.43 32.4315 M1523.43 26.1121 Q1533.15 26.1121 1538.7 32.4315 Q1544.25 38.7509 1544.25 49.9314 Q1544.25 61.0714 1538.7 67.4314 Q1533.15 73.7508 1523.43 73.7508 Q1513.66 73.7508 1508.11 67.4314 Q1502.6 61.0714 1502.6 49.9314 Q1502.6 38.7509 1508.11 32.4315 Q1513.66 26.1121 1523.43 26.1121 Z" fill="#000000" fill-rule="evenodd" fill-opacity="1" /><path clip-path="url(#clip780)" d="M1594.32 45.1919 L1594.32 72.576 L1586.86 72.576 L1586.86 45.4349 Q1586.86 38.994 1584.35 35.7938 Q1581.84 32.5936 1576.82 32.5936 Q1570.78 32.5936 1567.3 36.4419 Q1563.81 40.2903 1563.81 46.9338 L1563.81 72.576 L1556.32 72.576 L1556.32 27.2059 L1563.81 27.2059 L1563.81 34.2544 Q1566.49 30.163 1570.09 28.1376 Q1573.74 26.1121 1578.48 26.1121 Q1586.3 26.1121 1590.31 30.9732 Q1594.32 35.7938 1594.32 45.1919 Z" fill="#000000" fill-rule="evenodd" fill-opacity="1" /><polyline clip-path="url(#clip782)" style="stroke:#009af9; stroke-linecap:butt; stroke-linejoin:round; stroke-width:4; stroke-opacity:1; fill:none" points="
  288.982,162.047 300.756,407.318 312.529,617.88 324.303,797.569 336.076,949.882 347.85,1078 359.623,1184.82 371.397,1272.96 383.17,1344.79 394.943,1402.46 
  406.717,1447.87 418.49,1412.97 430.264,1387.03 442.037,1368.68 453.811,1356.68 465.584,1349.94 477.358,1347.5 489.131,1348.52 500.905,1352.26 512.678,1358.07 
  524.452,1365.4 536.225,1373.78 547.999,1382.79 559.772,1392.11 571.545,1401.45 583.319,1410.57 595.092,1419.3 606.866,1427.49 618.639,1435.03 630.413,1441.84 
  642.186,1447.87 653.96,1442.64 665.733,1438.22 677.507,1434.61 689.28,1431.76 701.054,1429.66 712.827,1428.25 724.601,1427.49 736.374,1427.3 748.147,1427.64 
  759.921,1428.44 771.694,1429.62 783.468,1431.14 795.241,1432.91 807.015,1434.89 818.788,1437.01 830.562,1439.21 842.335,1441.44 854.109,1443.66 865.882,1445.82 
  877.656,1447.87 889.429,1445.95 901.203,1444.19 912.976,1442.63 924.749,1441.27 936.523,1440.13 948.296,1439.23 960.07,1438.57 971.843,1438.16 983.617,1437.98 
  995.39,1438.03 1007.16,1438.31 1018.94,1438.8 1030.71,1439.48 1042.48,1440.34 1054.26,1441.35 1066.03,1442.5 1077.8,1443.75 1089.58,1445.08 1101.35,1446.46 
  1113.12,1447.87 1124.9,1446.46 1136.67,1445.08 1148.45,1443.76 1160.22,1442.51 1171.99,1441.38 1183.77,1440.38 1195.54,1439.53 1207.31,1438.85 1219.09,1438.36 
  1230.86,1438.09 1242.63,1438.03 1254.41,1438.2 1266.18,1438.61 1277.95,1439.26 1289.73,1440.15 1301.5,1441.27 1313.27,1442.62 1325.05,1444.18 1336.82,1445.94 
  1348.59,1447.87 1360.37,1445.79 1372.14,1443.59 1383.91,1441.3 1395.69,1438.97 1407.46,1436.65 1419.24,1434.37 1431.01,1432.2 1442.78,1430.2 1454.56,1428.43 
  1466.33,1426.96 1478.1,1425.87 1489.88,1425.24 1501.65,1425.15 1513.42,1425.69 1525.2,1426.95 1536.97,1429.05 1548.74,1432.08 1560.52,1436.15 1572.29,1441.37 
  1584.06,1447.87 1595.84,1439.98 1607.61,1430.55 1619.38,1419.47 1631.16,1406.6 1642.93,1391.79 1654.7,1374.91 1666.48,1355.8 1678.25,1334.32 1690.02,1310.31 
  1701.8,1283.6 
  "/>
<path clip-path="url(#clip780)" d="
M1814.39 272.585 L2352.76 272.585 L2352.76 168.905 L1814.39 168.905  Z
  " fill="#ffffff" fill-rule="evenodd" fill-opacity="1"/>
<polyline clip-path="url(#clip780)" style="stroke:#000000; stroke-linecap:butt; stroke-linejoin:round; stroke-width:4; stroke-opacity:1; fill:none" points="
  1814.39,272.585 2352.76,272.585 2352.76,168.905 1814.39,168.905 1814.39,272.585 
  "/>
<polyline clip-path="url(#clip780)" style="stroke:#009af9; stroke-linecap:butt; stroke-linejoin:round; stroke-width:4; stroke-opacity:1; fill:none" points="
  1837.79,220.745 1978.2,220.745 
  "/>
<path clip-path="url(#clip780)" d="M2016.79 216.08 Q2016.07 215.664 2015.21 215.478 Q2014.38 215.27 2013.36 215.27 Q2009.75 215.27 2007.81 217.631 Q2005.88 219.969 2005.88 224.367 L2005.88 238.025 L2001.6 238.025 L2001.6 212.099 L2005.88 212.099 L2005.88 216.127 Q2007.23 213.766 2009.38 212.631 Q2011.53 211.474 2014.61 211.474 Q2015.05 211.474 2015.58 211.543 Q2016.12 211.59 2016.76 211.705 L2016.79 216.08 Z" fill="#000000" fill-rule="evenodd" fill-opacity="1" /><path clip-path="url(#clip780)" d="M2042.39 223.997 L2042.39 226.08 L2022.81 226.08 Q2023.08 230.478 2025.44 232.793 Q2027.83 235.085 2032.06 235.085 Q2034.52 235.085 2036.81 234.483 Q2039.13 233.881 2041.39 232.677 L2041.39 236.705 Q2039.1 237.677 2036.69 238.187 Q2034.29 238.696 2031.81 238.696 Q2025.61 238.696 2021.97 235.085 Q2018.36 231.474 2018.36 225.316 Q2018.36 218.951 2021.79 215.224 Q2025.24 211.474 2031.07 211.474 Q2036.3 211.474 2039.33 214.853 Q2042.39 218.21 2042.39 223.997 M2038.13 222.747 Q2038.08 219.252 2036.16 217.168 Q2034.26 215.085 2031.12 215.085 Q2027.55 215.085 2025.4 217.099 Q2023.27 219.113 2022.94 222.77 L2038.13 222.747 Z" fill="#000000" fill-rule="evenodd" fill-opacity="1" /><path clip-path="url(#clip780)" d="M2049.38 202.006 L2053.64 202.006 L2053.64 238.025 L2049.38 238.025 L2049.38 202.006 Z" fill="#000000" fill-rule="evenodd" fill-opacity="1" /><path clip-path="url(#clip780)" d="M2074.33 224.992 Q2069.17 224.992 2067.18 226.173 Q2065.19 227.353 2065.19 230.201 Q2065.19 232.469 2066.67 233.812 Q2068.18 235.131 2070.75 235.131 Q2074.29 235.131 2076.42 232.631 Q2078.57 230.108 2078.57 225.941 L2078.57 224.992 L2074.33 224.992 M2082.83 223.233 L2082.83 238.025 L2078.57 238.025 L2078.57 234.089 Q2077.11 236.451 2074.94 237.585 Q2072.76 238.696 2069.61 238.696 Q2065.63 238.696 2063.27 236.474 Q2060.93 234.228 2060.93 230.478 Q2060.93 226.103 2063.85 223.881 Q2066.79 221.659 2072.6 221.659 L2078.57 221.659 L2078.57 221.242 Q2078.57 218.303 2076.62 216.705 Q2074.7 215.085 2071.21 215.085 Q2068.99 215.085 2066.88 215.617 Q2064.77 216.15 2062.83 217.215 L2062.83 213.279 Q2065.17 212.377 2067.37 211.937 Q2069.56 211.474 2071.65 211.474 Q2077.27 211.474 2080.05 214.391 Q2082.83 217.307 2082.83 223.233 Z" fill="#000000" fill-rule="evenodd" fill-opacity="1" /><path clip-path="url(#clip780)" d="M2095.81 204.738 L2095.81 212.099 L2104.59 212.099 L2104.59 215.409 L2095.81 215.409 L2095.81 229.483 Q2095.81 232.654 2096.67 233.557 Q2097.55 234.46 2100.21 234.46 L2104.59 234.46 L2104.59 238.025 L2100.21 238.025 Q2095.28 238.025 2093.41 236.196 Q2091.53 234.344 2091.53 229.483 L2091.53 215.409 L2088.41 215.409 L2088.41 212.099 L2091.53 212.099 L2091.53 204.738 L2095.81 204.738 Z" fill="#000000" fill-rule="evenodd" fill-opacity="1" /><path clip-path="url(#clip780)" d="M2110.19 212.099 L2114.45 212.099 L2114.45 238.025 L2110.19 238.025 L2110.19 212.099 M2110.19 202.006 L2114.45 202.006 L2114.45 207.4 L2110.19 207.4 L2110.19 202.006 Z" fill="#000000" fill-rule="evenodd" fill-opacity="1" /><path clip-path="url(#clip780)" d="M2120.31 212.099 L2124.82 212.099 L2132.92 233.858 L2141.02 212.099 L2145.54 212.099 L2135.81 238.025 L2130.03 238.025 L2120.31 212.099 Z" fill="#000000" fill-rule="evenodd" fill-opacity="1" /><path clip-path="url(#clip780)" d="M2173.59 223.997 L2173.59 226.08 L2154.01 226.08 Q2154.29 230.478 2156.65 232.793 Q2159.03 235.085 2163.27 235.085 Q2165.72 235.085 2168.01 234.483 Q2170.33 233.881 2172.6 232.677 L2172.6 236.705 Q2170.3 237.677 2167.9 238.187 Q2165.49 238.696 2163.01 238.696 Q2156.81 238.696 2153.18 235.085 Q2149.56 231.474 2149.56 225.316 Q2149.56 218.951 2152.99 215.224 Q2156.44 211.474 2162.27 211.474 Q2167.5 211.474 2170.54 214.853 Q2173.59 218.21 2173.59 223.997 M2169.33 222.747 Q2169.29 219.252 2167.37 217.168 Q2165.47 215.085 2162.32 215.085 Q2158.75 215.085 2156.6 217.099 Q2154.47 219.113 2154.15 222.77 L2169.33 222.747 Z" fill="#000000" fill-rule="evenodd" fill-opacity="1" /><path clip-path="url(#clip780)" d="M2217.83 223.997 L2217.83 226.08 L2198.24 226.08 Q2198.52 230.478 2200.88 232.793 Q2203.27 235.085 2207.5 235.085 Q2209.96 235.085 2212.25 234.483 Q2214.56 233.881 2216.83 232.677 L2216.83 236.705 Q2214.54 237.677 2212.13 238.187 Q2209.73 238.696 2207.25 238.696 Q2201.05 238.696 2197.41 235.085 Q2193.8 231.474 2193.8 225.316 Q2193.8 218.951 2197.23 215.224 Q2200.68 211.474 2206.51 211.474 Q2211.74 211.474 2214.77 214.853 Q2217.83 218.21 2217.83 223.997 M2213.57 222.747 Q2213.52 219.252 2211.6 217.168 Q2209.7 215.085 2206.55 215.085 Q2202.99 215.085 2200.84 217.099 Q2198.71 219.113 2198.38 222.77 L2213.57 222.747 Z" fill="#000000" fill-rule="evenodd" fill-opacity="1" /><path clip-path="url(#clip780)" d="M2239.84 216.08 Q2239.12 215.664 2238.27 215.478 Q2237.43 215.27 2236.42 215.27 Q2232.8 215.27 2230.86 217.631 Q2228.94 219.969 2228.94 224.367 L2228.94 238.025 L2224.66 238.025 L2224.66 212.099 L2228.94 212.099 L2228.94 216.127 Q2230.28 213.766 2232.43 212.631 Q2234.59 211.474 2237.67 211.474 Q2238.11 211.474 2238.64 211.543 Q2239.17 211.59 2239.82 211.705 L2239.84 216.08 Z" fill="#000000" fill-rule="evenodd" fill-opacity="1" /><path clip-path="url(#clip780)" d="M2258.5 216.08 Q2257.78 215.664 2256.92 215.478 Q2256.09 215.27 2255.07 215.27 Q2251.46 215.27 2249.52 217.631 Q2247.6 219.969 2247.6 224.367 L2247.6 238.025 L2243.31 238.025 L2243.31 212.099 L2247.6 212.099 L2247.6 216.127 Q2248.94 213.766 2251.09 212.631 Q2253.24 211.474 2256.32 211.474 Q2256.76 211.474 2257.3 211.543 Q2257.83 211.59 2258.48 211.705 L2258.5 216.08 Z" fill="#000000" fill-rule="evenodd" fill-opacity="1" /><path clip-path="url(#clip780)" d="M2271.97 215.085 Q2268.55 215.085 2266.55 217.77 Q2264.56 220.432 2264.56 225.085 Q2264.56 229.738 2266.53 232.423 Q2268.52 235.085 2271.97 235.085 Q2275.37 235.085 2277.36 232.4 Q2279.36 229.715 2279.36 225.085 Q2279.36 220.478 2277.36 217.793 Q2275.37 215.085 2271.97 215.085 M2271.97 211.474 Q2277.53 211.474 2280.7 215.085 Q2283.87 218.696 2283.87 225.085 Q2283.87 231.451 2280.7 235.085 Q2277.53 238.696 2271.97 238.696 Q2266.39 238.696 2263.22 235.085 Q2260.07 231.451 2260.07 225.085 Q2260.07 218.696 2263.22 215.085 Q2266.39 211.474 2271.97 211.474 Z" fill="#000000" fill-rule="evenodd" fill-opacity="1" /><path clip-path="url(#clip780)" d="M2305.95 216.08 Q2305.23 215.664 2304.38 215.478 Q2303.54 215.27 2302.53 215.27 Q2298.92 215.27 2296.97 217.631 Q2295.05 219.969 2295.05 224.367 L2295.05 238.025 L2290.77 238.025 L2290.77 212.099 L2295.05 212.099 L2295.05 216.127 Q2296.39 213.766 2298.55 212.631 Q2300.7 211.474 2303.78 211.474 Q2304.22 211.474 2304.75 211.543 Q2305.28 211.59 2305.93 211.705 L2305.95 216.08 Z" fill="#000000" fill-rule="evenodd" fill-opacity="1" /></svg>
