<?xml version="1.0" encoding="utf-8"?>
<svg xmlns="http://www.w3.org/2000/svg" xmlns:xlink="http://www.w3.org/1999/xlink" width="600" height="400" viewBox="0 0 2400 1600">
<defs>
  <clipPath id="clip420">
    <rect x="0" y="0" width="2400" height="1600"/>
  </clipPath>
</defs>
<path clip-path="url(#clip420)" d="
M0 1600 L2400 1600 L2400 0 L0 0  Z
  " fill="#ffffff" fill-rule="evenodd" fill-opacity="1"/>
<defs>
  <clipPath id="clip421">
    <rect x="480" y="0" width="1681" height="1600"/>
  </clipPath>
</defs>
<path clip-path="url(#clip420)" d="
M307.241 1486.45 L1752.94 1486.45 L1752.94 123.472 L307.241 123.472  Z
  " fill="#ffffff" fill-rule="evenodd" fill-opacity="1"/>
<defs>
  <clipPath id="clip422">
    <rect x="307" y="123" width="1447" height="1364"/>
  </clipPath>
</defs>
<polyline clip-path="url(#clip422)" style="stroke:#000000; stroke-linecap:butt; stroke-linejoin:round; stroke-width:2; stroke-opacity:0.1; fill:none" points="
  505.527,1486.45 505.527,123.472 
  "/>
<polyline clip-path="url(#clip422)" style="stroke:#000000; stroke-linecap:butt; stroke-linejoin:round; stroke-width:2; stroke-opacity:0.1; fill:none" points="
  767.809,1486.45 767.809,123.472 
  "/>
<polyline clip-path="url(#clip422)" style="stroke:#000000; stroke-linecap:butt; stroke-linejoin:round; stroke-width:2; stroke-opacity:0.1; fill:none" points="
  1030.09,1486.45 1030.09,123.472 
  "/>
<polyline clip-path="url(#clip422)" style="stroke:#000000; stroke-linecap:butt; stroke-linejoin:round; stroke-width:2; stroke-opacity:0.1; fill:none" points="
  1292.37,1486.45 1292.37,123.472 
  "/>
<polyline clip-path="url(#clip422)" style="stroke:#000000; stroke-linecap:butt; stroke-linejoin:round; stroke-width:2; stroke-opacity:0.1; fill:none" points="
  1554.66,1486.45 1554.66,123.472 
  "/>
<polyline clip-path="url(#clip420)" style="stroke:#000000; stroke-linecap:butt; stroke-linejoin:round; stroke-width:4; stroke-opacity:1; fill:none" points="
  307.241,1486.45 1752.94,1486.45 
  "/>
<polyline clip-path="url(#clip420)" style="stroke:#000000; stroke-linecap:butt; stroke-linejoin:round; stroke-width:4; stroke-opacity:1; fill:none" points="
  505.527,1486.45 505.527,1467.55 
  "/>
<polyline clip-path="url(#clip420)" style="stroke:#000000; stroke-linecap:butt; stroke-linejoin:round; stroke-width:4; stroke-opacity:1; fill:none" points="
  767.809,1486.45 767.809,1467.55 
  "/>
<polyline clip-path="url(#clip420)" style="stroke:#000000; stroke-linecap:butt; stroke-linejoin:round; stroke-width:4; stroke-opacity:1; fill:none" points="
  1030.09,1486.45 1030.09,1467.55 
  "/>
<polyline clip-path="url(#clip420)" style="stroke:#000000; stroke-linecap:butt; stroke-linejoin:round; stroke-width:4; stroke-opacity:1; fill:none" points="
  1292.37,1486.45 1292.37,1467.55 
  "/>
<polyline clip-path="url(#clip420)" style="stroke:#000000; stroke-linecap:butt; stroke-linejoin:round; stroke-width:4; stroke-opacity:1; fill:none" points="
  1554.66,1486.45 1554.66,1467.55 
  "/>
<path clip-path="url(#clip420)" d="M474.427 1532.02 L504.103 1532.02 L504.103 1535.95 L474.427 1535.95 L474.427 1532.02 Z" fill="#000000" fill-rule="evenodd" fill-opacity="1" /><path clip-path="url(#clip420)" d="M527.043 1518.36 L515.237 1536.81 L527.043 1536.81 L527.043 1518.36 M525.816 1514.29 L531.696 1514.29 L531.696 1536.81 L536.626 1536.81 L536.626 1540.7 L531.696 1540.7 L531.696 1548.85 L527.043 1548.85 L527.043 1540.7 L511.441 1540.7 L511.441 1536.19 L525.816 1514.29 Z" fill="#000000" fill-rule="evenodd" fill-opacity="1" /><path clip-path="url(#clip420)" d="M737.752 1532.02 L767.427 1532.02 L767.427 1535.95 L737.752 1535.95 L737.752 1532.02 Z" fill="#000000" fill-rule="evenodd" fill-opacity="1" /><path clip-path="url(#clip420)" d="M781.548 1544.91 L797.867 1544.91 L797.867 1548.85 L775.923 1548.85 L775.923 1544.91 Q778.585 1542.16 783.168 1537.53 Q787.775 1532.88 788.955 1531.53 Q791.2 1529.01 792.08 1527.27 Q792.983 1525.51 792.983 1523.82 Q792.983 1521.07 791.038 1519.33 Q789.117 1517.6 786.015 1517.6 Q783.816 1517.6 781.362 1518.36 Q778.932 1519.13 776.154 1520.68 L776.154 1515.95 Q778.978 1514.82 781.432 1514.24 Q783.886 1513.66 785.923 1513.66 Q791.293 1513.66 794.487 1516.35 Q797.682 1519.03 797.682 1523.52 Q797.682 1525.65 796.872 1527.57 Q796.085 1529.47 793.978 1532.07 Q793.399 1532.74 790.298 1535.95 Q787.196 1539.15 781.548 1544.91 Z" fill="#000000" fill-rule="evenodd" fill-opacity="1" /><path clip-path="url(#clip420)" d="M1030.09 1517.37 Q1026.48 1517.37 1024.65 1520.93 Q1022.85 1524.47 1022.85 1531.6 Q1022.85 1538.71 1024.65 1542.27 Q1026.48 1545.82 1030.09 1545.82 Q1033.73 1545.82 1035.53 1542.27 Q1037.36 1538.71 1037.36 1531.6 Q1037.36 1524.47 1035.53 1520.93 Q1033.73 1517.37 1030.09 1517.37 M1030.09 1513.66 Q1035.9 1513.66 1038.96 1518.27 Q1042.04 1522.85 1042.04 1531.6 Q1042.04 1540.33 1038.96 1544.94 Q1035.9 1549.52 1030.09 1549.52 Q1024.28 1549.52 1021.2 1544.94 Q1018.15 1540.33 1018.15 1531.6 Q1018.15 1522.85 1021.2 1518.27 Q1024.28 1513.66 1030.09 1513.66 Z" fill="#000000" fill-rule="evenodd" fill-opacity="1" /><path clip-path="url(#clip420)" d="M1287.03 1544.91 L1303.35 1544.91 L1303.35 1548.85 L1281.4 1548.85 L1281.4 1544.91 Q1284.06 1542.16 1288.65 1537.53 Q1293.25 1532.88 1294.43 1531.53 Q1296.68 1529.01 1297.56 1527.27 Q1298.46 1525.51 1298.46 1523.82 Q1298.46 1521.07 1296.52 1519.33 Q1294.6 1517.6 1291.49 1517.6 Q1289.3 1517.6 1286.84 1518.36 Q1284.41 1519.13 1281.63 1520.68 L1281.63 1515.95 Q1284.46 1514.82 1286.91 1514.24 Q1289.37 1513.66 1291.4 1513.66 Q1296.77 1513.66 1299.97 1516.35 Q1303.16 1519.03 1303.16 1523.52 Q1303.16 1525.65 1302.35 1527.57 Q1301.56 1529.47 1299.46 1532.07 Q1298.88 1532.74 1295.78 1535.95 Q1292.68 1539.15 1287.03 1544.91 Z" fill="#000000" fill-rule="evenodd" fill-opacity="1" /><path clip-path="url(#clip420)" d="M1557.67 1518.36 L1545.86 1536.81 L1557.67 1536.81 L1557.67 1518.36 M1556.44 1514.29 L1562.32 1514.29 L1562.32 1536.81 L1567.25 1536.81 L1567.25 1540.7 L1562.32 1540.7 L1562.32 1548.85 L1557.67 1548.85 L1557.67 1540.7 L1542.06 1540.7 L1542.06 1536.19 L1556.44 1514.29 Z" fill="#000000" fill-rule="evenodd" fill-opacity="1" /><polyline clip-path="url(#clip422)" style="stroke:#000000; stroke-linecap:butt; stroke-linejoin:round; stroke-width:2; stroke-opacity:0.1; fill:none" points="
  307.241,1447.87 1752.94,1447.87 
  "/>
<polyline clip-path="url(#clip422)" style="stroke:#000000; stroke-linecap:butt; stroke-linejoin:round; stroke-width:2; stroke-opacity:0.1; fill:none" points="
  307.241,1237.65 1752.94,1237.65 
  "/>
<polyline clip-path="url(#clip422)" style="stroke:#000000; stroke-linecap:butt; stroke-linejoin:round; stroke-width:2; stroke-opacity:0.1; fill:none" points="
  307.241,1027.43 1752.94,1027.43 
  "/>
<polyline clip-path="url(#clip422)" style="stroke:#000000; stroke-linecap:butt; stroke-linejoin:round; stroke-width:2; stroke-opacity:0.1; fill:none" points="
  307.241,817.206 1752.94,817.206 
  "/>
<polyline clip-path="url(#clip422)" style="stroke:#000000; stroke-linecap:butt; stroke-linejoin:round; stroke-width:2; stroke-opacity:0.1; fill:none" points="
  307.241,606.983 1752.94,606.983 
  "/>
<polyline clip-path="url(#clip422)" style="stroke:#000000; stroke-linecap:butt; stroke-linejoin:round; stroke-width:2; stroke-opacity:0.1; fill:none" points="
  307.241,396.761 1752.94,396.761 
  "/>
<polyline clip-path="url(#clip422)" style="stroke:#000000; stroke-linecap:butt; stroke-linejoin:round; stroke-width:2; stroke-opacity:0.1; fill:none" points="
  307.241,186.539 1752.94,186.539 
  "/>
<polyline clip-path="url(#clip420)" style="stroke:#000000; stroke-linecap:butt; stroke-linejoin:round; stroke-width:4; stroke-opacity:1; fill:none" points="
  307.241,1486.45 307.241,123.472 
  "/>
<polyline clip-path="url(#clip420)" style="stroke:#000000; stroke-linecap:butt; stroke-linejoin:round; stroke-width:4; stroke-opacity:1; fill:none" points="
  307.241,1447.87 320.597,1447.87 
  "/>
<polyline clip-path="url(#clip420)" style="stroke:#000000; stroke-linecap:butt; stroke-linejoin:round; stroke-width:4; stroke-opacity:1; fill:none" points="
  307.241,1237.65 320.597,1237.65 
  "/>
<polyline clip-path="url(#clip420)" style="stroke:#000000; stroke-linecap:butt; stroke-linejoin:round; stroke-width:4; stroke-opacity:1; fill:none" points="
  307.241,1027.43 320.597,1027.43 
  "/>
<polyline clip-path="url(#clip420)" style="stroke:#000000; stroke-linecap:butt; stroke-linejoin:round; stroke-width:4; stroke-opacity:1; fill:none" points="
  307.241,817.206 320.597,817.206 
  "/>
<polyline clip-path="url(#clip420)" style="stroke:#000000; stroke-linecap:butt; stroke-linejoin:round; stroke-width:4; stroke-opacity:1; fill:none" points="
  307.241,606.983 320.597,606.983 
  "/>
<polyline clip-path="url(#clip420)" style="stroke:#000000; stroke-linecap:butt; stroke-linejoin:round; stroke-width:4; stroke-opacity:1; fill:none" points="
  307.241,396.761 320.597,396.761 
  "/>
<polyline clip-path="url(#clip420)" style="stroke:#000000; stroke-linecap:butt; stroke-linejoin:round; stroke-width:4; stroke-opacity:1; fill:none" points="
  307.241,186.539 320.597,186.539 
  "/>
<path clip-path="url(#clip420)" d="M259.297 1433.67 Q255.686 1433.67 253.857 1437.24 Q252.052 1440.78 252.052 1447.91 Q252.052 1455.01 253.857 1458.58 Q255.686 1462.12 259.297 1462.12 Q262.931 1462.12 264.737 1458.58 Q266.565 1455.01 266.565 1447.91 Q266.565 1440.78 264.737 1437.24 Q262.931 1433.67 259.297 1433.67 M259.297 1429.97 Q265.107 1429.97 268.163 1434.57 Q271.241 1439.16 271.241 1447.91 Q271.241 1456.63 268.163 1461.24 Q265.107 1465.82 259.297 1465.82 Q253.487 1465.82 250.408 1461.24 Q247.352 1456.63 247.352 1447.91 Q247.352 1439.16 250.408 1434.57 Q253.487 1429.97 259.297 1429.97 Z" fill="#000000" fill-rule="evenodd" fill-opacity="1" /><path clip-path="url(#clip420)" d="M54.5569 1257.44 L62.1958 1257.44 L62.1958 1231.08 L53.8856 1232.74 L53.8856 1228.48 L62.1495 1226.82 L66.8254 1226.82 L66.8254 1257.44 L74.4642 1257.44 L74.4642 1261.38 L54.5569 1261.38 L54.5569 1257.44 Z" fill="#000000" fill-rule="evenodd" fill-opacity="1" /><path clip-path="url(#clip420)" d="M83.9086 1255.5 L88.7928 1255.5 L88.7928 1261.38 L83.9086 1261.38 L83.9086 1255.5 Z" fill="#000000" fill-rule="evenodd" fill-opacity="1" /><path clip-path="url(#clip420)" d="M108.978 1229.9 Q105.367 1229.9 103.538 1233.46 Q101.733 1237 101.733 1244.13 Q101.733 1251.24 103.538 1254.8 Q105.367 1258.35 108.978 1258.35 Q112.612 1258.35 114.418 1254.8 Q116.246 1251.24 116.246 1244.13 Q116.246 1237 114.418 1233.46 Q112.612 1229.9 108.978 1229.9 M108.978 1226.19 Q114.788 1226.19 117.844 1230.8 Q120.922 1235.38 120.922 1244.13 Q120.922 1252.86 117.844 1257.47 Q114.788 1262.05 108.978 1262.05 Q103.168 1262.05 100.089 1257.47 Q97.0335 1252.86 97.0335 1244.13 Q97.0335 1235.38 100.089 1230.8 Q103.168 1226.19 108.978 1226.19 Z" fill="#000000" fill-rule="evenodd" fill-opacity="1" /><path clip-path="url(#clip420)" d="M157.311 1235.92 L146.732 1246.54 L157.311 1257.12 L154.556 1259.92 L143.931 1249.3 L133.306 1259.92 L130.575 1257.12 L141.131 1246.54 L130.575 1235.92 L133.306 1233.11 L143.931 1243.74 L154.556 1233.11 L157.311 1235.92 Z" fill="#000000" fill-rule="evenodd" fill-opacity="1" /><path clip-path="url(#clip420)" d="M169.672 1257.44 L177.311 1257.44 L177.311 1231.08 L169.001 1232.74 L169.001 1228.48 L177.265 1226.82 L181.94 1226.82 L181.94 1257.44 L189.579 1257.44 L189.579 1261.38 L169.672 1261.38 L169.672 1257.44 Z" fill="#000000" fill-rule="evenodd" fill-opacity="1" /><path clip-path="url(#clip420)" d="M209.024 1229.9 Q205.413 1229.9 203.584 1233.46 Q201.778 1237 201.778 1244.13 Q201.778 1251.24 203.584 1254.8 Q205.413 1258.35 209.024 1258.35 Q212.658 1258.35 214.463 1254.8 Q216.292 1251.24 216.292 1244.13 Q216.292 1237 214.463 1233.46 Q212.658 1229.9 209.024 1229.9 M209.024 1226.19 Q214.834 1226.19 217.889 1230.8 Q220.968 1235.38 220.968 1244.13 Q220.968 1252.86 217.889 1257.47 Q214.834 1262.05 209.024 1262.05 Q203.214 1262.05 200.135 1257.47 Q197.079 1252.86 197.079 1244.13 Q197.079 1235.38 200.135 1230.8 Q203.214 1226.19 209.024 1226.19 Z" fill="#000000" fill-rule="evenodd" fill-opacity="1" /><path clip-path="url(#clip420)" d="M220.968 1220.29 L245.08 1220.29 L245.08 1223.49 L220.968 1223.49 L220.968 1220.29 Z" fill="#000000" fill-rule="evenodd" fill-opacity="1" /><path clip-path="url(#clip420)" d="M261.875 1218.41 Q259.317 1218.41 257.812 1220.16 Q256.327 1221.91 256.327 1224.96 Q256.327 1227.99 257.812 1229.75 Q259.317 1231.5 261.875 1231.5 Q264.433 1231.5 265.919 1229.75 Q267.423 1227.99 267.423 1224.96 Q267.423 1221.91 265.919 1220.16 Q264.433 1218.41 261.875 1218.41 M269.417 1206.51 L269.417 1209.97 Q267.987 1209.29 266.52 1208.93 Q265.072 1208.58 263.643 1208.58 Q259.881 1208.58 257.888 1211.12 Q255.913 1213.66 255.631 1218.79 Q256.74 1217.15 258.414 1216.29 Q260.088 1215.4 262.101 1215.4 Q266.332 1215.4 268.777 1217.98 Q271.241 1220.54 271.241 1224.96 Q271.241 1229.28 268.683 1231.9 Q266.126 1234.51 261.875 1234.51 Q257.004 1234.51 254.427 1230.79 Q251.85 1227.05 251.85 1219.96 Q251.85 1213.3 255.01 1209.35 Q258.17 1205.38 263.492 1205.38 Q264.922 1205.38 266.37 1205.66 Q267.837 1205.94 269.417 1206.51 Z" fill="#000000" fill-rule="evenodd" fill-opacity="1" /><path clip-path="url(#clip420)" d="M57.7745 1047.22 L74.0939 1047.22 L74.0939 1051.16 L52.1495 1051.16 L52.1495 1047.22 Q54.8115 1044.47 59.3949 1039.84 Q64.0013 1035.18 65.1819 1033.84 Q67.4272 1031.32 68.3068 1029.58 Q69.2096 1027.82 69.2096 1026.13 Q69.2096 1023.38 67.2652 1021.64 Q65.3439 1019.91 62.2421 1019.91 Q60.043 1019.91 57.5893 1020.67 Q55.1588 1021.43 52.381 1022.98 L52.381 1018.26 Q55.2051 1017.13 57.6588 1016.55 Q60.1124 1015.97 62.1495 1015.97 Q67.5198 1015.97 70.7142 1018.66 Q73.9087 1021.34 73.9087 1025.83 Q73.9087 1027.96 73.0985 1029.88 Q72.3115 1031.78 70.205 1034.37 Q69.6263 1035.04 66.5245 1038.26 Q63.4226 1041.46 57.7745 1047.22 Z" fill="#000000" fill-rule="evenodd" fill-opacity="1" /><path clip-path="url(#clip420)" d="M83.9086 1045.28 L88.7928 1045.28 L88.7928 1051.16 L83.9086 1051.16 L83.9086 1045.28 Z" fill="#000000" fill-rule="evenodd" fill-opacity="1" /><path clip-path="url(#clip420)" d="M108.978 1019.67 Q105.367 1019.67 103.538 1023.24 Q101.733 1026.78 101.733 1033.91 Q101.733 1041.02 103.538 1044.58 Q105.367 1048.12 108.978 1048.12 Q112.612 1048.12 114.418 1044.58 Q116.246 1041.02 116.246 1033.91 Q116.246 1026.78 114.418 1023.24 Q112.612 1019.67 108.978 1019.67 M108.978 1015.97 Q114.788 1015.97 117.844 1020.58 Q120.922 1025.16 120.922 1033.91 Q120.922 1042.64 117.844 1047.24 Q114.788 1051.83 108.978 1051.83 Q103.168 1051.83 100.089 1047.24 Q97.0335 1042.64 97.0335 1033.91 Q97.0335 1025.16 100.089 1020.58 Q103.168 1015.97 108.978 1015.97 Z" fill="#000000" fill-rule="evenodd" fill-opacity="1" /><path clip-path="url(#clip420)" d="M157.311 1025.69 L146.732 1036.32 L157.311 1046.9 L154.556 1049.7 L143.931 1039.07 L133.306 1049.7 L130.575 1046.9 L141.131 1036.32 L130.575 1025.69 L133.306 1022.89 L143.931 1033.52 L154.556 1022.89 L157.311 1025.69 Z" fill="#000000" fill-rule="evenodd" fill-opacity="1" /><path clip-path="url(#clip420)" d="M169.672 1047.22 L177.311 1047.22 L177.311 1020.86 L169.001 1022.52 L169.001 1018.26 L177.265 1016.6 L181.94 1016.6 L181.94 1047.22 L189.579 1047.22 L189.579 1051.16 L169.672 1051.16 L169.672 1047.22 Z" fill="#000000" fill-rule="evenodd" fill-opacity="1" /><path clip-path="url(#clip420)" d="M209.024 1019.67 Q205.413 1019.67 203.584 1023.24 Q201.778 1026.78 201.778 1033.91 Q201.778 1041.02 203.584 1044.58 Q205.413 1048.12 209.024 1048.12 Q212.658 1048.12 214.463 1044.58 Q216.292 1041.02 216.292 1033.91 Q216.292 1026.78 214.463 1023.24 Q212.658 1019.67 209.024 1019.67 M209.024 1015.97 Q214.834 1015.97 217.889 1020.58 Q220.968 1025.16 220.968 1033.91 Q220.968 1042.64 217.889 1047.24 Q214.834 1051.83 209.024 1051.83 Q203.214 1051.83 200.135 1047.24 Q197.079 1042.64 197.079 1033.91 Q197.079 1025.16 200.135 1020.58 Q203.214 1015.97 209.024 1015.97 Z" fill="#000000" fill-rule="evenodd" fill-opacity="1" /><path clip-path="url(#clip420)" d="M220.968 1010.07 L245.08 1010.07 L245.08 1013.27 L220.968 1013.27 L220.968 1010.07 Z" fill="#000000" fill-rule="evenodd" fill-opacity="1" /><path clip-path="url(#clip420)" d="M261.875 1008.19 Q259.317 1008.19 257.812 1009.94 Q256.327 1011.69 256.327 1014.74 Q256.327 1017.76 257.812 1019.53 Q259.317 1021.28 261.875 1021.28 Q264.433 1021.28 265.919 1019.53 Q267.423 1017.76 267.423 1014.74 Q267.423 1011.69 265.919 1009.94 Q264.433 1008.19 261.875 1008.19 M269.417 996.286 L269.417 999.747 Q267.987 999.07 266.52 998.712 Q265.072 998.355 263.643 998.355 Q259.881 998.355 257.888 1000.89 Q255.913 1003.43 255.631 1008.57 Q256.74 1006.93 258.414 1006.07 Q260.088 1005.18 262.101 1005.18 Q266.332 1005.18 268.777 1007.76 Q271.241 1010.32 271.241 1014.74 Q271.241 1019.06 268.683 1021.68 Q266.126 1024.29 261.875 1024.29 Q257.004 1024.29 254.427 1020.57 Q251.85 1016.82 251.85 1009.73 Q251.85 1003.08 255.01 999.126 Q258.17 995.158 263.492 995.158 Q264.922 995.158 266.37 995.44 Q267.837 995.722 269.417 996.286 Z" fill="#000000" fill-rule="evenodd" fill-opacity="1" /><path clip-path="url(#clip420)" d="M67.9133 822.299 Q71.2698 823.017 73.1448 825.285 Q75.0429 827.554 75.0429 830.887 Q75.0429 836.003 71.5244 838.804 Q68.0059 841.605 61.5245 841.605 Q59.3486 841.605 57.0338 841.165 Q54.7421 840.748 52.2884 839.892 L52.2884 835.378 Q54.2328 836.512 56.5477 837.091 Q58.8625 837.67 61.3856 837.67 Q65.7837 837.67 68.0754 835.934 Q70.3902 834.197 70.3902 830.887 Q70.3902 827.832 68.2374 826.119 Q66.1078 824.383 62.2884 824.383 L58.2606 824.383 L58.2606 820.54 L62.4735 820.54 Q65.9226 820.54 67.7513 819.174 Q69.58 817.785 69.58 815.193 Q69.58 812.531 67.6819 811.119 Q65.8069 809.684 62.2884 809.684 Q60.3671 809.684 58.168 810.1 Q55.969 810.517 53.3301 811.397 L53.3301 807.23 Q55.9921 806.489 58.3069 806.119 Q60.6449 805.748 62.705 805.748 Q68.0291 805.748 71.1309 808.179 Q74.2327 810.586 74.2327 814.707 Q74.2327 817.577 72.5892 819.568 Q70.9457 821.535 67.9133 822.299 Z" fill="#000000" fill-rule="evenodd" fill-opacity="1" /><path clip-path="url(#clip420)" d="M83.9086 835.054 L88.7928 835.054 L88.7928 840.933 L83.9086 840.933 L83.9086 835.054 Z" fill="#000000" fill-rule="evenodd" fill-opacity="1" /><path clip-path="url(#clip420)" d="M108.978 809.452 Q105.367 809.452 103.538 813.017 Q101.733 816.559 101.733 823.688 Q101.733 830.795 103.538 834.359 Q105.367 837.901 108.978 837.901 Q112.612 837.901 114.418 834.359 Q116.246 830.795 116.246 823.688 Q116.246 816.559 114.418 813.017 Q112.612 809.452 108.978 809.452 M108.978 805.748 Q114.788 805.748 117.844 810.355 Q120.922 814.938 120.922 823.688 Q120.922 832.415 117.844 837.021 Q114.788 841.605 108.978 841.605 Q103.168 841.605 100.089 837.021 Q97.0335 832.415 97.0335 823.688 Q97.0335 814.938 100.089 810.355 Q103.168 805.748 108.978 805.748 Z" fill="#000000" fill-rule="evenodd" fill-opacity="1" /><path clip-path="url(#clip420)" d="M157.311 815.471 L146.732 826.096 L157.311 836.674 L154.556 839.475 L143.931 828.85 L133.306 839.475 L130.575 836.674 L141.131 826.096 L130.575 815.471 L133.306 812.67 L143.931 823.295 L154.556 812.67 L157.311 815.471 Z" fill="#000000" fill-rule="evenodd" fill-opacity="1" /><path clip-path="url(#clip420)" d="M169.672 836.998 L177.311 836.998 L177.311 810.633 L169.001 812.299 L169.001 808.04 L177.265 806.373 L181.94 806.373 L181.94 836.998 L189.579 836.998 L189.579 840.933 L169.672 840.933 L169.672 836.998 Z" fill="#000000" fill-rule="evenodd" fill-opacity="1" /><path clip-path="url(#clip420)" d="M209.024 809.452 Q205.413 809.452 203.584 813.017 Q201.778 816.559 201.778 823.688 Q201.778 830.795 203.584 834.359 Q205.413 837.901 209.024 837.901 Q212.658 837.901 214.463 834.359 Q216.292 830.795 216.292 823.688 Q216.292 816.559 214.463 813.017 Q212.658 809.452 209.024 809.452 M209.024 805.748 Q214.834 805.748 217.889 810.355 Q220.968 814.938 220.968 823.688 Q220.968 832.415 217.889 837.021 Q214.834 841.605 209.024 841.605 Q203.214 841.605 200.135 837.021 Q197.079 832.415 197.079 823.688 Q197.079 814.938 200.135 810.355 Q203.214 805.748 209.024 805.748 Z" fill="#000000" fill-rule="evenodd" fill-opacity="1" /><path clip-path="url(#clip420)" d="M220.968 799.85 L245.08 799.85 L245.08 803.047 L220.968 803.047 L220.968 799.85 Z" fill="#000000" fill-rule="evenodd" fill-opacity="1" /><path clip-path="url(#clip420)" d="M261.875 797.969 Q259.317 797.969 257.812 799.718 Q256.327 801.467 256.327 804.514 Q256.327 807.542 257.812 809.31 Q259.317 811.059 261.875 811.059 Q264.433 811.059 265.919 809.31 Q267.423 807.542 267.423 804.514 Q267.423 801.467 265.919 799.718 Q264.433 797.969 261.875 797.969 M269.417 786.064 L269.417 789.524 Q267.987 788.847 266.52 788.49 Q265.072 788.133 263.643 788.133 Q259.881 788.133 257.888 790.672 Q255.913 793.211 255.631 798.345 Q256.74 796.709 258.414 795.844 Q260.088 794.96 262.101 794.96 Q266.332 794.96 268.777 797.536 Q271.241 800.094 271.241 804.514 Q271.241 808.84 268.683 811.454 Q266.126 814.069 261.875 814.069 Q257.004 814.069 254.427 810.345 Q251.85 806.602 251.85 799.511 Q251.85 792.853 255.01 788.904 Q258.17 784.935 263.492 784.935 Q264.922 784.935 266.37 785.217 Q267.837 785.499 269.417 786.064 Z" fill="#000000" fill-rule="evenodd" fill-opacity="1" /><path clip-path="url(#clip420)" d="M66.5939 600.225 L54.7884 618.674 L66.5939 618.674 L66.5939 600.225 M65.367 596.151 L71.2466 596.151 L71.2466 618.674 L76.1772 618.674 L76.1772 622.563 L71.2466 622.563 L71.2466 630.711 L66.5939 630.711 L66.5939 622.563 L50.9921 622.563 L50.9921 618.049 L65.367 596.151 Z" fill="#000000" fill-rule="evenodd" fill-opacity="1" /><path clip-path="url(#clip420)" d="M83.9086 624.831 L88.7928 624.831 L88.7928 630.711 L83.9086 630.711 L83.9086 624.831 Z" fill="#000000" fill-rule="evenodd" fill-opacity="1" /><path clip-path="url(#clip420)" d="M108.978 599.23 Q105.367 599.23 103.538 602.795 Q101.733 606.336 101.733 613.466 Q101.733 620.572 103.538 624.137 Q105.367 627.679 108.978 627.679 Q112.612 627.679 114.418 624.137 Q116.246 620.572 116.246 613.466 Q116.246 606.336 114.418 602.795 Q112.612 599.23 108.978 599.23 M108.978 595.526 Q114.788 595.526 117.844 600.133 Q120.922 604.716 120.922 613.466 Q120.922 622.193 117.844 626.799 Q114.788 631.382 108.978 631.382 Q103.168 631.382 100.089 626.799 Q97.0335 622.193 97.0335 613.466 Q97.0335 604.716 100.089 600.133 Q103.168 595.526 108.978 595.526 Z" fill="#000000" fill-rule="evenodd" fill-opacity="1" /><path clip-path="url(#clip420)" d="M157.311 605.248 L146.732 615.873 L157.311 626.452 L154.556 629.253 L143.931 618.628 L133.306 629.253 L130.575 626.452 L141.131 615.873 L130.575 605.248 L133.306 602.447 L143.931 613.072 L154.556 602.447 L157.311 605.248 Z" fill="#000000" fill-rule="evenodd" fill-opacity="1" /><path clip-path="url(#clip420)" d="M169.672 626.776 L177.311 626.776 L177.311 600.41 L169.001 602.077 L169.001 597.818 L177.265 596.151 L181.94 596.151 L181.94 626.776 L189.579 626.776 L189.579 630.711 L169.672 630.711 L169.672 626.776 Z" fill="#000000" fill-rule="evenodd" fill-opacity="1" /><path clip-path="url(#clip420)" d="M209.024 599.23 Q205.413 599.23 203.584 602.795 Q201.778 606.336 201.778 613.466 Q201.778 620.572 203.584 624.137 Q205.413 627.679 209.024 627.679 Q212.658 627.679 214.463 624.137 Q216.292 620.572 216.292 613.466 Q216.292 606.336 214.463 602.795 Q212.658 599.23 209.024 599.23 M209.024 595.526 Q214.834 595.526 217.889 600.133 Q220.968 604.716 220.968 613.466 Q220.968 622.193 217.889 626.799 Q214.834 631.382 209.024 631.382 Q203.214 631.382 200.135 626.799 Q197.079 622.193 197.079 613.466 Q197.079 604.716 200.135 600.133 Q203.214 595.526 209.024 595.526 Z" fill="#000000" fill-rule="evenodd" fill-opacity="1" /><path clip-path="url(#clip420)" d="M220.968 589.627 L245.08 589.627 L245.08 592.825 L220.968 592.825 L220.968 589.627 Z" fill="#000000" fill-rule="evenodd" fill-opacity="1" /><path clip-path="url(#clip420)" d="M261.875 587.747 Q259.317 587.747 257.812 589.496 Q256.327 591.245 256.327 594.292 Q256.327 597.32 257.812 599.088 Q259.317 600.837 261.875 600.837 Q264.433 600.837 265.919 599.088 Q267.423 597.32 267.423 594.292 Q267.423 591.245 265.919 589.496 Q264.433 587.747 261.875 587.747 M269.417 575.841 L269.417 579.302 Q267.987 578.625 266.52 578.268 Q265.072 577.91 263.643 577.91 Q259.881 577.91 257.888 580.449 Q255.913 582.988 255.631 588.123 Q256.74 586.487 258.414 585.621 Q260.088 584.737 262.101 584.737 Q266.332 584.737 268.777 587.314 Q271.241 589.872 271.241 594.292 Q271.241 598.618 268.683 601.232 Q266.126 603.846 261.875 603.846 Q257.004 603.846 254.427 600.122 Q251.85 596.379 251.85 589.289 Q251.85 582.631 255.01 578.681 Q258.17 574.713 263.492 574.713 Q264.922 574.713 266.37 574.995 Q267.837 575.277 269.417 575.841 Z" fill="#000000" fill-rule="evenodd" fill-opacity="1" /><path clip-path="url(#clip420)" d="M53.793 385.929 L72.1494 385.929 L72.1494 389.864 L58.0754 389.864 L58.0754 398.336 Q59.0939 397.989 60.1124 397.827 Q61.131 397.642 62.1495 397.642 Q67.9365 397.642 71.3161 400.813 Q74.6957 403.984 74.6957 409.401 Q74.6957 414.979 71.2235 418.081 Q67.7513 421.16 61.4319 421.16 Q59.256 421.16 56.9875 420.79 Q54.7421 420.419 52.3347 419.678 L52.3347 414.979 Q54.418 416.114 56.6402 416.669 Q58.8625 417.225 61.3393 417.225 Q65.3439 417.225 67.6819 415.118 Q70.0198 413.012 70.0198 409.401 Q70.0198 405.79 67.6819 403.683 Q65.3439 401.577 61.3393 401.577 Q59.4643 401.577 57.5893 401.993 Q55.7375 402.41 53.793 403.29 L53.793 385.929 Z" fill="#000000" fill-rule="evenodd" fill-opacity="1" /><path clip-path="url(#clip420)" d="M83.9086 414.609 L88.7928 414.609 L88.7928 420.489 L83.9086 420.489 L83.9086 414.609 Z" fill="#000000" fill-rule="evenodd" fill-opacity="1" /><path clip-path="url(#clip420)" d="M108.978 389.007 Q105.367 389.007 103.538 392.572 Q101.733 396.114 101.733 403.243 Q101.733 410.35 103.538 413.915 Q105.367 417.456 108.978 417.456 Q112.612 417.456 114.418 413.915 Q116.246 410.35 116.246 403.243 Q116.246 396.114 114.418 392.572 Q112.612 389.007 108.978 389.007 M108.978 385.304 Q114.788 385.304 117.844 389.91 Q120.922 394.493 120.922 403.243 Q120.922 411.97 117.844 416.577 Q114.788 421.16 108.978 421.16 Q103.168 421.16 100.089 416.577 Q97.0335 411.97 97.0335 403.243 Q97.0335 394.493 100.089 389.91 Q103.168 385.304 108.978 385.304 Z" fill="#000000" fill-rule="evenodd" fill-opacity="1" /><path clip-path="url(#clip420)" d="M157.311 395.026 L146.732 405.651 L157.311 416.229 L154.556 419.03 L143.931 408.405 L133.306 419.03 L130.575 416.229 L141.131 405.651 L130.575 395.026 L133.306 392.225 L143.931 402.85 L154.556 392.225 L157.311 395.026 Z" fill="#000000" fill-rule="evenodd" fill-opacity="1" /><path clip-path="url(#clip420)" d="M169.672 416.554 L177.311 416.554 L177.311 390.188 L169.001 391.855 L169.001 387.595 L177.265 385.929 L181.94 385.929 L181.94 416.554 L189.579 416.554 L189.579 420.489 L169.672 420.489 L169.672 416.554 Z" fill="#000000" fill-rule="evenodd" fill-opacity="1" /><path clip-path="url(#clip420)" d="M209.024 389.007 Q205.413 389.007 203.584 392.572 Q201.778 396.114 201.778 403.243 Q201.778 410.35 203.584 413.915 Q205.413 417.456 209.024 417.456 Q212.658 417.456 214.463 413.915 Q216.292 410.35 216.292 403.243 Q216.292 396.114 214.463 392.572 Q212.658 389.007 209.024 389.007 M209.024 385.304 Q214.834 385.304 217.889 389.91 Q220.968 394.493 220.968 403.243 Q220.968 411.97 217.889 416.577 Q214.834 421.16 209.024 421.16 Q203.214 421.16 200.135 416.577 Q197.079 411.97 197.079 403.243 Q197.079 394.493 200.135 389.91 Q203.214 385.304 209.024 385.304 Z" fill="#000000" fill-rule="evenodd" fill-opacity="1" /><path clip-path="url(#clip420)" d="M220.968 379.405 L245.08 379.405 L245.08 382.602 L220.968 382.602 L220.968 379.405 Z" fill="#000000" fill-rule="evenodd" fill-opacity="1" /><path clip-path="url(#clip420)" d="M261.875 377.524 Q259.317 377.524 257.812 379.273 Q256.327 381.022 256.327 384.069 Q256.327 387.097 257.812 388.865 Q259.317 390.614 261.875 390.614 Q264.433 390.614 265.919 388.865 Q267.423 387.097 267.423 384.069 Q267.423 381.022 265.919 379.273 Q264.433 377.524 261.875 377.524 M269.417 365.619 L269.417 369.08 Q267.987 368.402 266.52 368.045 Q265.072 367.688 263.643 367.688 Q259.881 367.688 257.888 370.227 Q255.913 372.766 255.631 377.9 Q256.74 376.264 258.414 375.399 Q260.088 374.515 262.101 374.515 Q266.332 374.515 268.777 377.092 Q271.241 379.65 271.241 384.069 Q271.241 388.395 268.683 391.009 Q266.126 393.624 261.875 393.624 Q257.004 393.624 254.427 389.9 Q251.85 386.157 251.85 379.066 Q251.85 372.409 255.01 368.459 Q258.17 364.49 263.492 364.49 Q264.922 364.49 266.37 364.773 Q267.837 365.055 269.417 365.619 Z" fill="#000000" fill-rule="evenodd" fill-opacity="1" /><path clip-path="url(#clip420)" d="M64.3254 191.123 Q61.1773 191.123 59.3254 193.276 Q57.4967 195.428 57.4967 199.178 Q57.4967 202.905 59.3254 205.081 Q61.1773 207.234 64.3254 207.234 Q67.4735 207.234 69.3022 205.081 Q71.1541 202.905 71.1541 199.178 Q71.1541 195.428 69.3022 193.276 Q67.4735 191.123 64.3254 191.123 M73.6077 176.47 L73.6077 180.729 Q71.8485 179.896 70.0429 179.456 Q68.2606 179.016 66.5013 179.016 Q61.8717 179.016 59.418 182.141 Q56.9875 185.266 56.6402 191.586 Q58.006 189.572 60.0662 188.507 Q62.1263 187.419 64.6032 187.419 Q69.8115 187.419 72.8207 190.59 Q75.8531 193.739 75.8531 199.178 Q75.8531 204.502 72.705 207.72 Q69.5568 210.938 64.3254 210.938 Q58.33 210.938 55.1588 206.354 Q51.9875 201.748 51.9875 193.021 Q51.9875 184.827 55.8764 179.965 Q59.7652 175.081 66.3161 175.081 Q68.0754 175.081 69.8578 175.428 Q71.6633 175.776 73.6077 176.47 Z" fill="#000000" fill-rule="evenodd" fill-opacity="1" /><path clip-path="url(#clip420)" d="M83.9086 204.387 L88.7928 204.387 L88.7928 210.266 L83.9086 210.266 L83.9086 204.387 Z" fill="#000000" fill-rule="evenodd" fill-opacity="1" /><path clip-path="url(#clip420)" d="M108.978 178.785 Q105.367 178.785 103.538 182.35 Q101.733 185.891 101.733 193.021 Q101.733 200.127 103.538 203.692 Q105.367 207.234 108.978 207.234 Q112.612 207.234 114.418 203.692 Q116.246 200.127 116.246 193.021 Q116.246 185.891 114.418 182.35 Q112.612 178.785 108.978 178.785 M108.978 175.081 Q114.788 175.081 117.844 179.688 Q120.922 184.271 120.922 193.021 Q120.922 201.748 117.844 206.354 Q114.788 210.938 108.978 210.938 Q103.168 210.938 100.089 206.354 Q97.0335 201.748 97.0335 193.021 Q97.0335 184.271 100.089 179.688 Q103.168 175.081 108.978 175.081 Z" fill="#000000" fill-rule="evenodd" fill-opacity="1" /><path clip-path="url(#clip420)" d="M157.311 184.803 L146.732 195.428 L157.311 206.007 L154.556 208.808 L143.931 198.183 L133.306 208.808 L130.575 206.007 L141.131 195.428 L130.575 184.803 L133.306 182.003 L143.931 192.627 L154.556 182.003 L157.311 184.803 Z" fill="#000000" fill-rule="evenodd" fill-opacity="1" /><path clip-path="url(#clip420)" d="M169.672 206.331 L177.311 206.331 L177.311 179.965 L169.001 181.632 L169.001 177.373 L177.265 175.706 L181.94 175.706 L181.94 206.331 L189.579 206.331 L189.579 210.266 L169.672 210.266 L169.672 206.331 Z" fill="#000000" fill-rule="evenodd" fill-opacity="1" /><path clip-path="url(#clip420)" d="M209.024 178.785 Q205.413 178.785 203.584 182.35 Q201.778 185.891 201.778 193.021 Q201.778 200.127 203.584 203.692 Q205.413 207.234 209.024 207.234 Q212.658 207.234 214.463 203.692 Q216.292 200.127 216.292 193.021 Q216.292 185.891 214.463 182.35 Q212.658 178.785 209.024 178.785 M209.024 175.081 Q214.834 175.081 217.889 179.688 Q220.968 184.271 220.968 193.021 Q220.968 201.748 217.889 206.354 Q214.834 210.938 209.024 210.938 Q203.214 210.938 200.135 206.354 Q197.079 201.748 197.079 193.021 Q197.079 184.271 200.135 179.688 Q203.214 175.081 209.024 175.081 Z" fill="#000000" fill-rule="evenodd" fill-opacity="1" /><path clip-path="url(#clip420)" d="M220.968 169.183 L245.08 169.183 L245.08 172.38 L220.968 172.38 L220.968 169.183 Z" fill="#000000" fill-rule="evenodd" fill-opacity="1" /><path clip-path="url(#clip420)" d="M261.875 167.302 Q259.317 167.302 257.812 169.051 Q256.327 170.8 256.327 173.847 Q256.327 176.875 257.812 178.643 Q259.317 180.392 261.875 180.392 Q264.433 180.392 265.919 178.643 Q267.423 176.875 267.423 173.847 Q267.423 170.8 265.919 169.051 Q264.433 167.302 261.875 167.302 M269.417 155.397 L269.417 158.857 Q267.987 158.18 266.52 157.823 Q265.072 157.465 263.643 157.465 Q259.881 157.465 257.888 160.004 Q255.913 162.543 255.631 167.678 Q256.74 166.042 258.414 165.177 Q260.088 164.293 262.101 164.293 Q266.332 164.293 268.777 166.869 Q271.241 169.427 271.241 173.847 Q271.241 178.173 268.683 180.787 Q266.126 183.401 261.875 183.401 Q257.004 183.401 254.427 179.677 Q251.85 175.935 251.85 168.844 Q251.85 162.186 255.01 158.236 Q258.17 154.268 263.492 154.268 Q264.922 154.268 266.37 154.55 Q267.837 154.832 269.417 155.397 Z" fill="#000000" fill-rule="evenodd" fill-opacity="1" /><path clip-path="url(#clip420)" d="M404.774 12.096 L443.015 12.096 L443.015 18.9825 L412.957 18.9825 L412.957 36.8875 L441.759 36.8875 L441.759 43.7741 L412.957 43.7741 L412.957 65.6895 L443.744 65.6895 L443.744 72.576 L404.774 72.576 L404.774 12.096 Z" fill="#000000" fill-rule="evenodd" fill-opacity="1" /><path clip-path="url(#clip420)" d="M483.159 34.1734 Q481.903 33.4443 480.404 33.1202 Q478.946 32.7556 477.164 32.7556 Q470.844 32.7556 467.442 36.8875 Q464.079 40.9789 464.079 48.6757 L464.079 72.576 L456.585 72.576 L456.585 27.2059 L464.079 27.2059 L464.079 34.2544 Q466.429 30.1225 470.196 28.1376 Q473.963 26.1121 479.351 26.1121 Q480.121 26.1121 481.053 26.2337 Q481.984 26.3147 483.119 26.5172 L483.159 34.1734 Z" fill="#000000" fill-rule="evenodd" fill-opacity="1" /><path clip-path="url(#clip420)" d="M515.809 34.1734 Q514.554 33.4443 513.055 33.1202 Q511.596 32.7556 509.814 32.7556 Q503.495 32.7556 500.092 36.8875 Q496.73 40.9789 496.73 48.6757 L496.73 72.576 L489.235 72.576 L489.235 27.2059 L496.73 27.2059 L496.73 34.2544 Q499.079 30.1225 502.846 28.1376 Q506.614 26.1121 512.001 26.1121 Q512.771 26.1121 513.703 26.2337 Q514.635 26.3147 515.769 26.5172 L515.809 34.1734 Z" fill="#000000" fill-rule="evenodd" fill-opacity="1" /><path clip-path="url(#clip420)" d="M539.386 32.4315 Q533.39 32.4315 529.906 37.1306 Q526.423 41.7891 526.423 49.9314 Q526.423 58.0738 529.866 62.7728 Q533.35 67.4314 539.386 67.4314 Q545.34 67.4314 548.824 62.7323 Q552.308 58.0333 552.308 49.9314 Q552.308 41.8701 548.824 37.1711 Q545.34 32.4315 539.386 32.4315 M539.386 26.1121 Q549.108 26.1121 554.657 32.4315 Q560.207 38.7509 560.207 49.9314 Q560.207 61.0714 554.657 67.4314 Q549.108 73.7508 539.386 73.7508 Q529.623 73.7508 524.073 67.4314 Q518.564 61.0714 518.564 49.9314 Q518.564 38.7509 524.073 32.4315 Q529.623 26.1121 539.386 26.1121 Z" fill="#000000" fill-rule="evenodd" fill-opacity="1" /><path clip-path="url(#clip420)" d="M598.853 34.1734 Q597.597 33.4443 596.098 33.1202 Q594.64 32.7556 592.857 32.7556 Q586.538 32.7556 583.135 36.8875 Q579.773 40.9789 579.773 48.6757 L579.773 72.576 L572.279 72.576 L572.279 27.2059 L579.773 27.2059 L579.773 34.2544 Q582.123 30.1225 585.89 28.1376 Q589.657 26.1121 595.045 26.1121 Q595.815 26.1121 596.746 26.2337 Q597.678 26.3147 598.812 26.5172 L598.853 34.1734 Z" fill="#000000" fill-rule="evenodd" fill-opacity="1" /><path clip-path="url(#clip420)" d="M650.623 32.4315 Q644.628 32.4315 641.144 37.1306 Q637.66 41.7891 637.66 49.9314 Q637.66 58.0738 641.104 62.7728 Q644.588 67.4314 650.623 67.4314 Q656.578 67.4314 660.062 62.7323 Q663.546 58.0333 663.546 49.9314 Q663.546 41.8701 660.062 37.1711 Q656.578 32.4315 650.623 32.4315 M650.623 26.1121 Q660.346 26.1121 665.895 32.4315 Q671.445 38.7509 671.445 49.9314 Q671.445 61.0714 665.895 67.4314 Q660.346 73.7508 650.623 73.7508 Q640.861 73.7508 635.311 67.4314 Q629.802 61.0714 629.802 49.9314 Q629.802 38.7509 635.311 32.4315 Q640.861 26.1121 650.623 26.1121 Z" fill="#000000" fill-rule="evenodd" fill-opacity="1" /><path clip-path="url(#clip420)" d="M706.769 9.54393 L706.769 15.7418 L699.639 15.7418 Q695.629 15.7418 694.049 17.3622 Q692.51 18.9825 692.51 23.1955 L692.51 27.2059 L704.784 27.2059 L704.784 32.9987 L692.51 32.9987 L692.51 72.576 L685.016 72.576 L685.016 32.9987 L677.886 32.9987 L677.886 27.2059 L685.016 27.2059 L685.016 24.0462 Q685.016 16.471 688.54 13.0277 Q692.064 9.54393 699.72 9.54393 L706.769 9.54393 Z" fill="#000000" fill-rule="evenodd" fill-opacity="1" /><path clip-path="url(#clip420)" d="M747.481 65.6895 L776.039 65.6895 L776.039 72.576 L737.637 72.576 L737.637 65.6895 Q742.295 60.8689 750.316 52.7671 Q758.377 44.6248 760.443 42.2752 Q764.373 37.8598 765.912 34.8216 Q767.492 31.7429 767.492 28.7857 Q767.492 23.9651 764.089 20.927 Q760.727 17.8888 755.299 17.8888 Q751.45 17.8888 747.156 19.2256 Q742.903 20.5624 738.042 23.2765 L738.042 15.0127 Q742.984 13.0277 747.278 12.015 Q751.572 11.0023 755.137 11.0023 Q764.535 11.0023 770.125 15.7013 Q775.715 20.4004 775.715 28.2591 Q775.715 31.9859 774.297 35.3482 Q772.92 38.6699 769.234 43.2069 Q768.221 44.3817 762.793 50.0125 Q757.365 55.6027 747.481 65.6895 Z" fill="#000000" fill-rule="evenodd" fill-opacity="1" /><path clip-path="url(#clip420)" d="M810.715 17.4837 Q804.396 17.4837 801.196 23.7221 Q798.036 29.92 798.036 42.3968 Q798.036 54.833 801.196 61.0714 Q804.396 67.2693 810.715 67.2693 Q817.075 67.2693 820.235 61.0714 Q823.435 54.833 823.435 42.3968 Q823.435 29.92 820.235 23.7221 Q817.075 17.4837 810.715 17.4837 M810.715 11.0023 Q820.883 11.0023 826.23 19.0636 Q831.618 27.0843 831.618 42.3968 Q831.618 57.6687 826.23 65.73 Q820.883 73.7508 810.715 73.7508 Q800.547 73.7508 795.16 65.73 Q789.812 57.6687 789.812 42.3968 Q789.812 27.0843 795.16 19.0636 Q800.547 11.0023 810.715 11.0023 Z" fill="#000000" fill-rule="evenodd" fill-opacity="1" /><path clip-path="url(#clip420)" d="M841.178 46.5287 L863.012 46.5287 L863.012 53.1722 L841.178 53.1722 L841.178 46.5287 Z" fill="#000000" fill-rule="evenodd" fill-opacity="1" /><path clip-path="url(#clip420)" d="M902.063 17.6457 Q893.151 17.6457 887.885 24.2892 Q882.659 30.9327 882.659 42.3968 Q882.659 53.8203 887.885 60.4638 Q893.151 67.1073 902.063 67.1073 Q910.975 67.1073 916.16 60.4638 Q921.386 53.8203 921.386 42.3968 Q921.386 30.9327 916.16 24.2892 Q910.975 17.6457 902.063 17.6457 M902.063 11.0023 Q914.783 11.0023 922.399 19.5497 Q930.014 28.0566 930.014 42.3968 Q930.014 56.6965 922.399 65.2439 Q914.783 73.7508 902.063 73.7508 Q889.303 73.7508 881.646 65.2439 Q874.031 56.737 874.031 42.3968 Q874.031 28.0566 881.646 19.5497 Q889.303 11.0023 902.063 11.0023 Z" fill="#000000" fill-rule="evenodd" fill-opacity="1" /><path clip-path="url(#clip420)" d="M968.781 34.1734 Q967.526 33.4443 966.027 33.1202 Q964.568 32.7556 962.786 32.7556 Q956.467 32.7556 953.064 36.8875 Q949.702 40.9789 949.702 48.6757 L949.702 72.576 L942.207 72.576 L942.207 27.2059 L949.702 27.2059 L949.702 34.2544 Q952.051 30.1225 955.819 28.1376 Q959.586 26.1121 964.974 26.1121 Q965.743 26.1121 966.675 26.2337 Q967.607 26.3147 968.741 26.5172 L968.781 34.1734 Z" fill="#000000" fill-rule="evenodd" fill-opacity="1" /><path clip-path="url(#clip420)" d="M1005 34.0924 L1005 9.54393 L1012.45 9.54393 L1012.45 72.576 L1005 72.576 L1005 65.7705 Q1002.65 69.8214 999.042 71.8063 Q995.477 73.7508 990.454 73.7508 Q982.23 73.7508 977.045 67.1883 Q971.901 60.6258 971.901 49.9314 Q971.901 39.2371 977.045 32.6746 Q982.23 26.1121 990.454 26.1121 Q995.477 26.1121 999.042 28.0971 Q1002.65 30.0415 1005 34.0924 M979.597 49.9314 Q979.597 58.1548 982.96 62.8538 Q986.362 67.5124 992.277 67.5124 Q998.191 67.5124 1001.59 62.8538 Q1005 58.1548 1005 49.9314 Q1005 41.7081 1001.59 37.0496 Q998.191 32.3505 992.277 32.3505 Q986.362 32.3505 982.96 37.0496 Q979.597 41.7081 979.597 49.9314 Z" fill="#000000" fill-rule="evenodd" fill-opacity="1" /><path clip-path="url(#clip420)" d="M1066.61 48.0275 L1066.61 51.6733 L1032.34 51.6733 Q1032.83 59.3701 1036.96 63.421 Q1041.13 67.4314 1048.54 67.4314 Q1052.84 67.4314 1056.85 66.3781 Q1060.9 65.3249 1064.87 63.2184 L1064.87 70.267 Q1060.86 71.9684 1056.65 72.8596 Q1052.43 73.7508 1048.1 73.7508 Q1037.24 73.7508 1030.88 67.4314 Q1024.56 61.1119 1024.56 50.3365 Q1024.56 39.1965 1030.56 32.6746 Q1036.59 26.1121 1046.8 26.1121 Q1055.96 26.1121 1061.26 32.0264 Q1066.61 37.9003 1066.61 48.0275 M1059.16 45.84 Q1059.08 39.7232 1055.71 36.0774 Q1052.39 32.4315 1046.88 32.4315 Q1040.64 32.4315 1036.88 35.9558 Q1033.15 39.4801 1032.58 45.8805 L1059.16 45.84 Z" fill="#000000" fill-rule="evenodd" fill-opacity="1" /><path clip-path="url(#clip420)" d="M1105.13 34.1734 Q1103.88 33.4443 1102.38 33.1202 Q1100.92 32.7556 1099.14 32.7556 Q1092.82 32.7556 1089.42 36.8875 Q1086.06 40.9789 1086.06 48.6757 L1086.06 72.576 L1078.56 72.576 L1078.56 27.2059 L1086.06 27.2059 L1086.06 34.2544 Q1088.4 30.1225 1092.17 28.1376 Q1095.94 26.1121 1101.33 26.1121 Q1102.1 26.1121 1103.03 26.2337 Q1103.96 26.3147 1105.09 26.5172 L1105.13 34.1734 Z" fill="#000000" fill-rule="evenodd" fill-opacity="1" /><path clip-path="url(#clip420)" d="M1139.65 12.096 L1147.83 12.096 L1147.83 72.576 L1139.65 72.576 L1139.65 12.096 Z" fill="#000000" fill-rule="evenodd" fill-opacity="1" /><path clip-path="url(#clip420)" d="M1201.51 45.1919 L1201.51 72.576 L1194.05 72.576 L1194.05 45.4349 Q1194.05 38.994 1191.54 35.7938 Q1189.03 32.5936 1184.01 32.5936 Q1177.97 32.5936 1174.49 36.4419 Q1171 40.2903 1171 46.9338 L1171 72.576 L1163.51 72.576 L1163.51 27.2059 L1171 27.2059 L1171 34.2544 Q1173.68 30.163 1177.28 28.1376 Q1180.93 26.1121 1185.67 26.1121 Q1193.49 26.1121 1197.5 30.9732 Q1201.51 35.7938 1201.51 45.1919 Z" fill="#000000" fill-rule="evenodd" fill-opacity="1" /><path clip-path="url(#clip420)" d="M1223.75 14.324 L1223.75 27.2059 L1239.1 27.2059 L1239.1 32.9987 L1223.75 32.9987 L1223.75 57.6282 Q1223.75 63.1779 1225.24 64.7578 Q1226.78 66.3376 1231.44 66.3376 L1239.1 66.3376 L1239.1 72.576 L1231.44 72.576 Q1222.81 72.576 1219.53 69.3758 Q1216.25 66.1351 1216.25 57.6282 L1216.25 32.9987 L1210.78 32.9987 L1210.78 27.2059 L1216.25 27.2059 L1216.25 14.324 L1223.75 14.324 Z" fill="#000000" fill-rule="evenodd" fill-opacity="1" /><path clip-path="url(#clip420)" d="M1287.71 48.0275 L1287.71 51.6733 L1253.44 51.6733 Q1253.92 59.3701 1258.06 63.421 Q1262.23 67.4314 1269.64 67.4314 Q1273.94 67.4314 1277.95 66.3781 Q1282 65.3249 1285.97 63.2184 L1285.97 70.267 Q1281.96 71.9684 1277.74 72.8596 Q1273.53 73.7508 1269.2 73.7508 Q1258.34 73.7508 1251.98 67.4314 Q1245.66 61.1119 1245.66 50.3365 Q1245.66 39.1965 1251.66 32.6746 Q1257.69 26.1121 1267.9 26.1121 Q1277.06 26.1121 1282.36 32.0264 Q1287.71 37.9003 1287.71 48.0275 M1280.26 45.84 Q1280.17 39.7232 1276.81 36.0774 Q1273.49 32.4315 1267.98 32.4315 Q1261.74 32.4315 1257.98 35.9558 Q1254.25 39.4801 1253.68 45.8805 L1280.26 45.84 Z" fill="#000000" fill-rule="evenodd" fill-opacity="1" /><path clip-path="url(#clip420)" d="M1326.23 34.1734 Q1324.98 33.4443 1323.48 33.1202 Q1322.02 32.7556 1320.24 32.7556 Q1313.92 32.7556 1310.52 36.8875 Q1307.15 40.9789 1307.15 48.6757 L1307.15 72.576 L1299.66 72.576 L1299.66 27.2059 L1307.15 27.2059 L1307.15 34.2544 Q1309.5 30.1225 1313.27 28.1376 Q1317.04 26.1121 1322.43 26.1121 Q1323.2 26.1121 1324.13 26.2337 Q1325.06 26.3147 1326.19 26.5172 L1326.23 34.1734 Z" fill="#000000" fill-rule="evenodd" fill-opacity="1" /><path clip-path="url(#clip420)" d="M1341.26 65.7705 L1341.26 89.8329 L1333.77 89.8329 L1333.77 27.2059 L1341.26 27.2059 L1341.26 34.0924 Q1343.61 30.0415 1347.18 28.0971 Q1350.78 26.1121 1355.76 26.1121 Q1364.03 26.1121 1369.17 32.6746 Q1374.36 39.2371 1374.36 49.9314 Q1374.36 60.6258 1369.17 67.1883 Q1364.03 73.7508 1355.76 73.7508 Q1350.78 73.7508 1347.18 71.8063 Q1343.61 69.8214 1341.26 65.7705 M1366.62 49.9314 Q1366.62 41.7081 1363.22 37.0496 Q1359.86 32.3505 1353.94 32.3505 Q1348.03 32.3505 1344.62 37.0496 Q1341.26 41.7081 1341.26 49.9314 Q1341.26 58.1548 1344.62 62.8538 Q1348.03 67.5124 1353.94 67.5124 Q1359.86 67.5124 1363.22 62.8538 Q1366.62 58.1548 1366.62 49.9314 Z" fill="#000000" fill-rule="evenodd" fill-opacity="1" /><path clip-path="url(#clip420)" d="M1404.29 32.4315 Q1398.3 32.4315 1394.82 37.1306 Q1391.33 41.7891 1391.33 49.9314 Q1391.33 58.0738 1394.77 62.7728 Q1398.26 67.4314 1404.29 67.4314 Q1410.25 67.4314 1413.73 62.7323 Q1417.22 58.0333 1417.22 49.9314 Q1417.22 41.8701 1413.73 37.1711 Q1410.25 32.4315 1404.29 32.4315 M1404.29 26.1121 Q1414.02 26.1121 1419.57 32.4315 Q1425.12 38.7509 1425.12 49.9314 Q1425.12 61.0714 1419.57 67.4314 Q1414.02 73.7508 1404.29 73.7508 Q1394.53 73.7508 1388.98 67.4314 Q1383.47 61.0714 1383.47 49.9314 Q1383.47 38.7509 1388.98 32.4315 Q1394.53 26.1121 1404.29 26.1121 Z" fill="#000000" fill-rule="evenodd" fill-opacity="1" /><path clip-path="url(#clip420)" d="M1437.47 9.54393 L1444.92 9.54393 L1444.92 72.576 L1437.47 72.576 L1437.47 9.54393 Z" fill="#000000" fill-rule="evenodd" fill-opacity="1" /><path clip-path="url(#clip420)" d="M1481.14 49.7694 Q1472.11 49.7694 1468.62 51.8354 Q1465.14 53.9013 1465.14 58.8839 Q1465.14 62.8538 1467.73 65.2034 Q1470.36 67.5124 1474.86 67.5124 Q1481.06 67.5124 1484.79 63.1374 Q1488.55 58.7219 1488.55 51.4303 L1488.55 49.7694 L1481.14 49.7694 M1496.01 46.6907 L1496.01 72.576 L1488.55 72.576 L1488.55 65.6895 Q1486 69.8214 1482.19 71.8063 Q1478.39 73.7508 1472.88 73.7508 Q1465.91 73.7508 1461.78 69.8619 Q1457.69 65.9325 1457.69 59.3701 Q1457.69 51.7138 1462.79 47.825 Q1467.93 43.9361 1478.1 43.9361 L1488.55 43.9361 L1488.55 43.2069 Q1488.55 38.0623 1485.15 35.2672 Q1481.79 32.4315 1475.67 32.4315 Q1471.78 32.4315 1468.1 33.3632 Q1464.41 34.295 1461.01 36.1584 L1461.01 29.2718 Q1465.1 27.692 1468.95 26.9223 Q1472.79 26.1121 1476.44 26.1121 Q1486.28 26.1121 1491.15 31.2163 Q1496.01 36.3204 1496.01 46.6907 Z" fill="#000000" fill-rule="evenodd" fill-opacity="1" /><path clip-path="url(#clip420)" d="M1518.73 14.324 L1518.73 27.2059 L1534.09 27.2059 L1534.09 32.9987 L1518.73 32.9987 L1518.73 57.6282 Q1518.73 63.1779 1520.23 64.7578 Q1521.77 66.3376 1526.43 66.3376 L1534.09 66.3376 L1534.09 72.576 L1526.43 72.576 Q1517.8 72.576 1514.52 69.3758 Q1511.24 66.1351 1511.24 57.6282 L1511.24 32.9987 L1505.77 32.9987 L1505.77 27.2059 L1511.24 27.2059 L1511.24 14.324 L1518.73 14.324 Z" fill="#000000" fill-rule="evenodd" fill-opacity="1" /><path clip-path="url(#clip420)" d="M1543.89 27.2059 L1551.34 27.2059 L1551.34 72.576 L1543.89 72.576 L1543.89 27.2059 M1543.89 9.54393 L1551.34 9.54393 L1551.34 18.9825 L1543.89 18.9825 L1543.89 9.54393 Z" fill="#000000" fill-rule="evenodd" fill-opacity="1" /><path clip-path="url(#clip420)" d="M1584.52 32.4315 Q1578.52 32.4315 1575.04 37.1306 Q1571.56 41.7891 1571.56 49.9314 Q1571.56 58.0738 1575 62.7728 Q1578.48 67.4314 1584.52 67.4314 Q1590.47 67.4314 1593.96 62.7323 Q1597.44 58.0333 1597.44 49.9314 Q1597.44 41.8701 1593.96 37.1711 Q1590.47 32.4315 1584.52 32.4315 M1584.52 26.1121 Q1594.24 26.1121 1599.79 32.4315 Q1605.34 38.7509 1605.34 49.9314 Q1605.34 61.0714 1599.79 67.4314 Q1594.24 73.7508 1584.52 73.7508 Q1574.76 73.7508 1569.21 67.4314 Q1563.7 61.0714 1563.7 49.9314 Q1563.7 38.7509 1569.21 32.4315 Q1574.76 26.1121 1584.52 26.1121 Z" fill="#000000" fill-rule="evenodd" fill-opacity="1" /><path clip-path="url(#clip420)" d="M1655.41 45.1919 L1655.41 72.576 L1647.96 72.576 L1647.96 45.4349 Q1647.96 38.994 1645.44 35.7938 Q1642.93 32.5936 1637.91 32.5936 Q1631.87 32.5936 1628.39 36.4419 Q1624.91 40.2903 1624.91 46.9338 L1624.91 72.576 L1617.41 72.576 L1617.41 27.2059 L1624.91 27.2059 L1624.91 34.2544 Q1627.58 30.163 1631.19 28.1376 Q1634.83 26.1121 1639.57 26.1121 Q1647.39 26.1121 1651.4 30.9732 Q1655.41 35.7938 1655.41 45.1919 Z" fill="#000000" fill-rule="evenodd" fill-opacity="1" /><polyline clip-path="url(#clip422)" style="stroke:#009af9; stroke-linecap:butt; stroke-linejoin:round; stroke-width:4; stroke-opacity:1; fill:none" points="
  348.157,162.047 350.78,447.751 353.403,678.794 356.026,866.99 358.649,1019.87 361.271,1140.68 363.894,1236.98 366.517,1312.44 369.14,1370.71 371.763,1415.01 
  374.386,1447.87 377.008,1424.17 379.631,1407.71 382.254,1397.06 384.877,1390.9 387.5,1388.19 390.123,1388.07 392.745,1389.77 395.368,1392.96 397.991,1396.97 
  400.614,1401.39 403.237,1406.2 405.859,1411.04 408.482,1415.79 411.105,1420.31 413.728,1424.54 416.351,1428.46 418.974,1431.98 421.596,1435.12 424.219,1437.92 
  426.842,1440.35 429.465,1442.45 432.088,1444.21 434.711,1445.69 437.333,1446.9 439.956,1447.87 442.579,1447.11 445.202,1446.53 447.825,1446.11 450.447,1445.82 
  453.07,1445.64 455.693,1445.55 458.316,1445.54 460.939,1445.59 463.562,1445.69 466.184,1445.82 468.807,1445.98 471.43,1446.15 474.053,1446.33 476.676,1446.51 
  479.299,1446.68 481.921,1446.86 484.544,1447.02 487.167,1447.17 489.79,1447.31 492.413,1447.44 495.036,1447.55 497.658,1447.65 500.281,1447.74 502.904,1447.81 
  505.527,1447.87 508.15,1447.82 510.772,1447.78 513.395,1447.75 516.018,1447.73 518.641,1447.71 521.264,1447.7 523.887,1447.7 526.509,1447.7 529.132,1447.7 
  531.755,1447.71 534.378,1447.72 537.001,1447.73 539.624,1447.74 542.246,1447.76 544.869,1447.77 547.492,1447.78 550.115,1447.8 552.738,1447.81 555.36,1447.82 
  557.983,1447.83 560.606,1447.84 563.229,1447.85 565.852,1447.86 568.475,1447.87 571.097,1447.87 573.72,1447.87 576.343,1447.86 578.966,1447.86 581.589,1447.86 
  584.212,1447.86 586.834,1447.85 589.457,1447.85 592.08,1447.85 594.703,1447.85 597.326,1447.85 599.949,1447.85 602.571,1447.86 605.194,1447.86 607.817,1447.86 
  610.44,1447.86 613.063,1447.86 615.685,1447.86 618.308,1447.86 620.931,1447.87 623.554,1447.87 626.177,1447.87 628.8,1447.87 631.422,1447.87 634.045,1447.87 
  636.668,1447.87 639.291,1447.87 641.914,1447.87 644.537,1447.87 647.159,1447.87 649.782,1447.87 652.405,1447.87 655.028,1447.87 657.651,1447.87 660.273,1447.87 
  662.896,1447.87 665.519,1447.87 668.142,1447.87 670.765,1447.87 673.388,1447.87 676.01,1447.87 678.633,1447.87 681.256,1447.87 683.879,1447.87 686.502,1447.87 
  689.125,1447.87 691.747,1447.87 694.37,1447.87 696.993,1447.87 699.616,1447.87 702.239,1447.87 704.862,1447.87 707.484,1447.87 710.107,1447.87 712.73,1447.87 
  715.353,1447.87 717.976,1447.87 720.598,1447.87 723.221,1447.87 725.844,1447.87 728.467,1447.87 731.09,1447.87 733.713,1447.87 736.335,1447.87 738.958,1447.87 
  741.581,1447.87 744.204,1447.87 746.827,1447.87 749.45,1447.87 752.072,1447.87 754.695,1447.87 757.318,1447.87 759.941,1447.87 762.564,1447.87 765.187,1447.87 
  767.809,1447.87 770.432,1447.87 773.055,1447.87 775.678,1447.87 778.301,1447.87 780.923,1447.87 783.546,1447.87 786.169,1447.87 788.792,1447.87 791.415,1447.87 
  794.038,1447.87 796.66,1447.87 799.283,1447.87 801.906,1447.87 804.529,1447.87 807.152,1447.87 809.775,1447.87 812.397,1447.87 815.02,1447.87 817.643,1447.87 
  820.266,1447.87 822.889,1447.87 825.511,1447.87 828.134,1447.87 830.757,1447.87 833.38,1447.87 836.003,1447.87 838.626,1447.87 841.248,1447.87 843.871,1447.87 
  846.494,1447.87 849.117,1447.87 851.74,1447.87 854.363,1447.87 856.985,1447.87 859.608,1447.87 862.231,1447.87 864.854,1447.87 867.477,1447.87 870.1,1447.87 
  872.722,1447.87 875.345,1447.87 877.968,1447.87 880.591,1447.87 883.214,1447.87 885.836,1447.87 888.459,1447.87 891.082,1447.87 893.705,1447.87 896.328,1447.87 
  898.951,1447.87 901.573,1447.87 904.196,1447.87 906.819,1447.87 909.442,1447.87 912.065,1447.87 914.688,1447.87 917.31,1447.87 919.933,1447.87 922.556,1447.87 
  925.179,1447.87 927.802,1447.87 930.424,1447.87 933.047,1447.87 935.67,1447.87 938.293,1447.87 940.916,1447.87 943.539,1447.87 946.161,1447.87 948.784,1447.87 
  951.407,1447.87 954.03,1447.87 956.653,1447.87 959.276,1447.87 961.898,1447.87 964.521,1447.87 967.144,1447.87 969.767,1447.87 972.39,1447.87 975.013,1447.87 
  977.635,1447.87 980.258,1447.87 982.881,1447.87 985.504,1447.87 988.127,1447.87 990.749,1447.87 993.372,1447.87 995.995,1447.87 998.618,1447.87 1001.24,1447.87 
  1003.86,1447.87 1006.49,1447.87 1009.11,1447.87 1011.73,1447.87 1014.35,1447.87 1016.98,1447.87 1019.6,1447.87 1022.22,1447.87 1024.85,1447.87 1027.47,1447.87 
  1030.09,1447.87 1032.71,1447.87 1035.34,1447.87 1037.96,1447.87 1040.58,1447.87 1043.21,1447.87 1045.83,1447.87 1048.45,1447.87 1051.07,1447.87 1053.7,1447.87 
  1056.32,1447.87 1058.94,1447.87 1061.57,1447.87 1064.19,1447.87 1066.81,1447.87 1069.43,1447.87 1072.06,1447.87 1074.68,1447.87 1077.3,1447.87 1079.93,1447.87 
  1082.55,1447.87 1085.17,1447.87 1087.79,1447.87 1090.42,1447.87 1093.04,1447.87 1095.66,1447.87 1098.29,1447.87 1100.91,1447.87 1103.53,1447.87 1106.15,1447.87 
  1108.78,1447.87 1111.4,1447.87 1114.02,1447.87 1116.65,1447.87 1119.27,1447.87 1121.89,1447.87 1124.51,1447.87 1127.14,1447.87 1129.76,1447.87 1132.38,1447.87 
  1135,1447.87 1137.63,1447.87 1140.25,1447.87 1142.87,1447.87 1145.5,1447.87 1148.12,1447.87 1150.74,1447.87 1153.36,1447.87 1155.99,1447.87 1158.61,1447.87 
  1161.23,1447.87 1163.86,1447.87 1166.48,1447.87 1169.1,1447.87 1171.72,1447.87 1174.35,1447.87 1176.97,1447.87 1179.59,1447.87 1182.22,1447.87 1184.84,1447.87 
  1187.46,1447.87 1190.08,1447.87 1192.71,1447.87 1195.33,1447.87 1197.95,1447.87 1200.58,1447.87 1203.2,1447.87 1205.82,1447.87 1208.44,1447.87 1211.07,1447.87 
  1213.69,1447.87 1216.31,1447.87 1218.94,1447.87 1221.56,1447.87 1224.18,1447.87 1226.8,1447.87 1229.43,1447.87 1232.05,1447.87 1234.67,1447.87 1237.3,1447.87 
  1239.92,1447.87 1242.54,1447.87 1245.16,1447.87 1247.79,1447.87 1250.41,1447.87 1253.03,1447.87 1255.65,1447.87 1258.28,1447.87 1260.9,1447.87 1263.52,1447.87 
  1266.15,1447.87 1268.77,1447.87 1271.39,1447.87 1274.01,1447.87 1276.64,1447.87 1279.26,1447.87 1281.88,1447.87 1284.51,1447.87 1287.13,1447.87 1289.75,1447.87 
  1292.37,1447.87 1295,1447.87 1297.62,1447.87 1300.24,1447.87 1302.87,1447.87 1305.49,1447.87 1308.11,1447.87 1310.73,1447.87 1313.36,1447.87 1315.98,1447.87 
  1318.6,1447.87 1321.23,1447.87 1323.85,1447.87 1326.47,1447.87 1329.09,1447.87 1331.72,1447.87 1334.34,1447.87 1336.96,1447.87 1339.59,1447.87 1342.21,1447.87 
  1344.83,1447.87 1347.45,1447.87 1350.08,1447.87 1352.7,1447.87 1355.32,1447.87 1357.94,1447.87 1360.57,1447.87 1363.19,1447.87 1365.81,1447.87 1368.44,1447.87 
  1371.06,1447.87 1373.68,1447.87 1376.3,1447.87 1378.93,1447.87 1381.55,1447.87 1384.17,1447.87 1386.8,1447.87 1389.42,1447.87 1392.04,1447.87 1394.66,1447.87 
  1397.29,1447.87 1399.91,1447.87 1402.53,1447.87 1405.16,1447.87 1407.78,1447.87 1410.4,1447.87 1413.02,1447.87 1415.65,1447.87 1418.27,1447.87 1420.89,1447.87 
  1423.52,1447.87 1426.14,1447.87 1428.76,1447.87 1431.38,1447.87 1434.01,1447.87 1436.63,1447.87 1439.25,1447.87 1441.88,1447.87 1444.5,1447.87 1447.12,1447.87 
  1449.74,1447.87 1452.37,1447.87 1454.99,1447.87 1457.61,1447.87 1460.24,1447.87 1462.86,1447.87 1465.48,1447.87 1468.1,1447.87 1470.73,1447.87 1473.35,1447.87 
  1475.97,1447.87 1478.59,1447.87 1481.22,1447.87 1483.84,1447.87 1486.46,1447.87 1489.09,1447.87 1491.71,1447.87 1494.33,1447.87 1496.95,1447.87 1499.58,1447.87 
  1502.2,1447.87 1504.82,1447.87 1507.45,1447.87 1510.07,1447.87 1512.69,1447.87 1515.31,1447.87 1517.94,1447.87 1520.56,1447.87 1523.18,1447.87 1525.81,1447.87 
  1528.43,1447.87 1531.05,1447.87 1533.67,1447.87 1536.3,1447.87 1538.92,1447.87 1541.54,1447.87 1544.17,1447.87 1546.79,1447.87 1549.41,1447.87 1552.03,1447.87 
  1554.66,1447.87 1557.28,1447.87 1559.9,1447.87 1562.53,1447.87 1565.15,1447.87 1567.77,1447.87 1570.39,1447.87 1573.02,1447.87 1575.64,1447.87 1578.26,1447.87 
  1580.89,1447.87 1583.51,1447.87 1586.13,1447.87 1588.75,1447.87 1591.38,1447.87 1594,1447.87 1596.62,1447.87 1599.24,1447.87 1601.87,1447.87 1604.49,1447.87 
  1607.11,1447.87 1609.74,1447.87 1612.36,1447.87 1614.98,1447.87 1617.6,1447.87 1620.23,1447.87 1622.85,1447.87 1625.47,1447.87 1628.1,1447.87 1630.72,1447.87 
  1633.34,1447.87 1635.96,1447.87 1638.59,1447.87 1641.21,1447.87 1643.83,1447.87 1646.46,1447.87 1649.08,1447.87 1651.7,1447.87 1654.32,1447.87 1656.95,1447.87 
  1659.57,1447.87 1662.19,1447.87 1664.82,1447.87 1667.44,1447.87 1670.06,1447.87 1672.68,1447.87 1675.31,1447.87 1677.93,1447.87 1680.55,1447.87 1683.18,1447.87 
  1685.8,1447.87 1688.42,1447.87 1691.04,1447.87 1693.67,1447.86 1696.29,1447.86 1698.91,1447.85 1701.54,1447.85 1704.16,1447.84 1706.78,1447.83 1709.4,1447.82 
  1712.03,1447.81 
  "/>
<path clip-path="url(#clip420)" d="
M1821.13 272.585 L2352.76 272.585 L2352.76 168.905 L1821.13 168.905  Z
  " fill="#ffffff" fill-rule="evenodd" fill-opacity="1"/>
<polyline clip-path="url(#clip420)" style="stroke:#000000; stroke-linecap:butt; stroke-linejoin:round; stroke-width:4; stroke-opacity:1; fill:none" points="
  1821.13,272.585 2352.76,272.585 2352.76,168.905 1821.13,168.905 1821.13,272.585 
  "/>
<polyline clip-path="url(#clip420)" style="stroke:#009af9; stroke-linecap:butt; stroke-linejoin:round; stroke-width:4; stroke-opacity:1; fill:none" points="
  1843.85,220.745 1980.22,220.745 
  "/>
<path clip-path="url(#clip420)" d="M2018.13 216.08 Q2017.42 215.664 2016.56 215.478 Q2015.73 215.27 2014.71 215.27 Q2011.1 215.27 2009.15 217.631 Q2007.23 219.969 2007.23 224.367 L2007.23 238.025 L2002.95 238.025 L2002.95 212.099 L2007.23 212.099 L2007.23 216.127 Q2008.57 213.766 2010.73 212.631 Q2012.88 211.474 2015.96 211.474 Q2016.4 211.474 2016.93 211.543 Q2017.46 211.59 2018.11 211.705 L2018.13 216.08 Z" fill="#000000" fill-rule="evenodd" fill-opacity="1" /><path clip-path="url(#clip420)" d="M2043.74 223.997 L2043.74 226.08 L2024.15 226.08 Q2024.43 230.478 2026.79 232.793 Q2029.18 235.085 2033.41 235.085 Q2035.87 235.085 2038.16 234.483 Q2040.47 233.881 2042.74 232.677 L2042.74 236.705 Q2040.45 237.677 2038.04 238.187 Q2035.63 238.696 2033.16 238.696 Q2026.95 238.696 2023.32 235.085 Q2019.71 231.474 2019.71 225.316 Q2019.71 218.951 2023.13 215.224 Q2026.58 211.474 2032.42 211.474 Q2037.65 211.474 2040.68 214.853 Q2043.74 218.21 2043.74 223.997 M2039.48 222.747 Q2039.43 219.252 2037.51 217.168 Q2035.61 215.085 2032.46 215.085 Q2028.9 215.085 2026.75 217.099 Q2024.62 219.113 2024.29 222.77 L2039.48 222.747 Z" fill="#000000" fill-rule="evenodd" fill-opacity="1" /><path clip-path="url(#clip420)" d="M2050.73 202.006 L2054.99 202.006 L2054.99 238.025 L2050.73 238.025 L2050.73 202.006 Z" fill="#000000" fill-rule="evenodd" fill-opacity="1" /><path clip-path="url(#clip420)" d="M2075.68 224.992 Q2070.52 224.992 2068.53 226.173 Q2066.54 227.353 2066.54 230.201 Q2066.54 232.469 2068.02 233.812 Q2069.52 235.131 2072.09 235.131 Q2075.63 235.131 2077.76 232.631 Q2079.92 230.108 2079.92 225.941 L2079.92 224.992 L2075.68 224.992 M2084.18 223.233 L2084.18 238.025 L2079.92 238.025 L2079.92 234.089 Q2078.46 236.451 2076.28 237.585 Q2074.11 238.696 2070.96 238.696 Q2066.98 238.696 2064.62 236.474 Q2062.28 234.228 2062.28 230.478 Q2062.28 226.103 2065.19 223.881 Q2068.13 221.659 2073.94 221.659 L2079.92 221.659 L2079.92 221.242 Q2079.92 218.303 2077.97 216.705 Q2076.05 215.085 2072.56 215.085 Q2070.33 215.085 2068.23 215.617 Q2066.12 216.15 2064.18 217.215 L2064.18 213.279 Q2066.51 212.377 2068.71 211.937 Q2070.91 211.474 2073 211.474 Q2078.62 211.474 2081.4 214.391 Q2084.18 217.307 2084.18 223.233 Z" fill="#000000" fill-rule="evenodd" fill-opacity="1" /><path clip-path="url(#clip420)" d="M2097.16 204.738 L2097.16 212.099 L2105.94 212.099 L2105.94 215.409 L2097.16 215.409 L2097.16 229.483 Q2097.16 232.654 2098.02 233.557 Q2098.9 234.46 2101.56 234.46 L2105.94 234.46 L2105.94 238.025 L2101.56 238.025 Q2096.63 238.025 2094.75 236.196 Q2092.88 234.344 2092.88 229.483 L2092.88 215.409 L2089.75 215.409 L2089.75 212.099 L2092.88 212.099 L2092.88 204.738 L2097.16 204.738 Z" fill="#000000" fill-rule="evenodd" fill-opacity="1" /><path clip-path="url(#clip420)" d="M2111.54 212.099 L2115.8 212.099 L2115.8 238.025 L2111.54 238.025 L2111.54 212.099 M2111.54 202.006 L2115.8 202.006 L2115.8 207.4 L2111.54 207.4 L2111.54 202.006 Z" fill="#000000" fill-rule="evenodd" fill-opacity="1" /><path clip-path="url(#clip420)" d="M2121.65 212.099 L2126.17 212.099 L2134.27 233.858 L2142.37 212.099 L2146.88 212.099 L2137.16 238.025 L2131.38 238.025 L2121.65 212.099 Z" fill="#000000" fill-rule="evenodd" fill-opacity="1" /><path clip-path="url(#clip420)" d="M2174.94 223.997 L2174.94 226.08 L2155.36 226.08 Q2155.63 230.478 2158 232.793 Q2160.38 235.085 2164.62 235.085 Q2167.07 235.085 2169.36 234.483 Q2171.68 233.881 2173.94 232.677 L2173.94 236.705 Q2171.65 237.677 2169.25 238.187 Q2166.84 238.696 2164.36 238.696 Q2158.16 238.696 2154.52 235.085 Q2150.91 231.474 2150.91 225.316 Q2150.91 218.951 2154.34 215.224 Q2157.79 211.474 2163.62 211.474 Q2168.85 211.474 2171.88 214.853 Q2174.94 218.21 2174.94 223.997 M2170.68 222.747 Q2170.63 219.252 2168.71 217.168 Q2166.81 215.085 2163.67 215.085 Q2160.1 215.085 2157.95 217.099 Q2155.82 219.113 2155.5 222.77 L2170.68 222.747 Z" fill="#000000" fill-rule="evenodd" fill-opacity="1" /><path clip-path="url(#clip420)" d="M2219.18 223.997 L2219.18 226.08 L2199.59 226.08 Q2199.87 230.478 2202.23 232.793 Q2204.62 235.085 2208.85 235.085 Q2211.31 235.085 2213.6 234.483 Q2215.91 233.881 2218.18 232.677 L2218.18 236.705 Q2215.89 237.677 2213.48 238.187 Q2211.07 238.696 2208.6 238.696 Q2202.39 238.696 2198.76 235.085 Q2195.15 231.474 2195.15 225.316 Q2195.15 218.951 2198.57 215.224 Q2202.02 211.474 2207.86 211.474 Q2213.09 211.474 2216.12 214.853 Q2219.18 218.21 2219.18 223.997 M2214.92 222.747 Q2214.87 219.252 2212.95 217.168 Q2211.05 215.085 2207.9 215.085 Q2204.34 215.085 2202.18 217.099 Q2200.06 219.113 2199.73 222.77 L2214.92 222.747 Z" fill="#000000" fill-rule="evenodd" fill-opacity="1" /><path clip-path="url(#clip420)" d="M2241.19 216.08 Q2240.47 215.664 2239.62 215.478 Q2238.78 215.27 2237.76 215.27 Q2234.15 215.27 2232.21 217.631 Q2230.29 219.969 2230.29 224.367 L2230.29 238.025 L2226 238.025 L2226 212.099 L2230.29 212.099 L2230.29 216.127 Q2231.63 213.766 2233.78 212.631 Q2235.93 211.474 2239.01 211.474 Q2239.45 211.474 2239.99 211.543 Q2240.52 211.59 2241.17 211.705 L2241.19 216.08 Z" fill="#000000" fill-rule="evenodd" fill-opacity="1" /><path clip-path="url(#clip420)" d="M2259.85 216.08 Q2259.13 215.664 2258.27 215.478 Q2257.44 215.27 2256.42 215.27 Q2252.81 215.27 2250.87 217.631 Q2248.94 219.969 2248.94 224.367 L2248.94 238.025 L2244.66 238.025 L2244.66 212.099 L2248.94 212.099 L2248.94 216.127 Q2250.29 213.766 2252.44 212.631 Q2254.59 211.474 2257.67 211.474 Q2258.11 211.474 2258.64 211.543 Q2259.18 211.59 2259.82 211.705 L2259.85 216.08 Z" fill="#000000" fill-rule="evenodd" fill-opacity="1" /><path clip-path="url(#clip420)" d="M2273.32 215.085 Q2269.89 215.085 2267.9 217.77 Q2265.91 220.432 2265.91 225.085 Q2265.91 229.738 2267.88 232.423 Q2269.87 235.085 2273.32 235.085 Q2276.72 235.085 2278.71 232.4 Q2280.7 229.715 2280.7 225.085 Q2280.7 220.478 2278.71 217.793 Q2276.72 215.085 2273.32 215.085 M2273.32 211.474 Q2278.87 211.474 2282.05 215.085 Q2285.22 218.696 2285.22 225.085 Q2285.22 231.451 2282.05 235.085 Q2278.87 238.696 2273.32 238.696 Q2267.74 238.696 2264.57 235.085 Q2261.42 231.451 2261.42 225.085 Q2261.42 218.696 2264.57 215.085 Q2267.74 211.474 2273.32 211.474 Z" fill="#000000" fill-rule="evenodd" fill-opacity="1" /><path clip-path="url(#clip420)" d="M2307.3 216.08 Q2306.58 215.664 2305.73 215.478 Q2304.89 215.27 2303.87 215.27 Q2300.26 215.27 2298.32 217.631 Q2296.4 219.969 2296.4 224.367 L2296.4 238.025 L2292.11 238.025 L2292.11 212.099 L2296.4 212.099 L2296.4 216.127 Q2297.74 213.766 2299.89 212.631 Q2302.05 211.474 2305.12 211.474 Q2305.56 211.474 2306.1 211.543 Q2306.63 211.59 2307.28 211.705 L2307.3 216.08 Z" fill="#000000" fill-rule="evenodd" fill-opacity="1" /></svg>
