<?xml version="1.0" encoding="utf-8"?>
<svg xmlns="http://www.w3.org/2000/svg" xmlns:xlink="http://www.w3.org/1999/xlink" width="600" height="400" viewBox="0 0 2400 1600">
<defs>
  <clipPath id="clip780">
    <rect x="0" y="0" width="2400" height="1600"/>
  </clipPath>
</defs>
<path clip-path="url(#clip780)" d="
M0 1600 L2400 1600 L2400 0 L0 0  Z
  " fill="#ffffff" fill-rule="evenodd" fill-opacity="1"/>
<defs>
  <clipPath id="clip781">
    <rect x="480" y="0" width="1681" height="1600"/>
  </clipPath>
</defs>
<path clip-path="url(#clip780)" d="
M141.853 1486.45 L1729.05 1486.45 L1729.05 123.472 L141.853 123.472  Z
  " fill="#ffffff" fill-rule="evenodd" fill-opacity="1"/>
<defs>
  <clipPath id="clip782">
    <rect x="141" y="123" width="1588" height="1364"/>
  </clipPath>
</defs>
<polyline clip-path="url(#clip782)" style="stroke:#000000; stroke-linecap:butt; stroke-linejoin:round; stroke-width:2; stroke-opacity:0.1; fill:none" points="
  186.774,1486.45 186.774,123.472 
  "/>
<polyline clip-path="url(#clip782)" style="stroke:#000000; stroke-linecap:butt; stroke-linejoin:round; stroke-width:2; stroke-opacity:0.1; fill:none" points="
  561.113,1486.45 561.113,123.472 
  "/>
<polyline clip-path="url(#clip782)" style="stroke:#000000; stroke-linecap:butt; stroke-linejoin:round; stroke-width:2; stroke-opacity:0.1; fill:none" points="
  935.453,1486.45 935.453,123.472 
  "/>
<polyline clip-path="url(#clip782)" style="stroke:#000000; stroke-linecap:butt; stroke-linejoin:round; stroke-width:2; stroke-opacity:0.1; fill:none" points="
  1309.79,1486.45 1309.79,123.472 
  "/>
<polyline clip-path="url(#clip782)" style="stroke:#000000; stroke-linecap:butt; stroke-linejoin:round; stroke-width:2; stroke-opacity:0.1; fill:none" points="
  1684.13,1486.45 1684.13,123.472 
  "/>
<polyline clip-path="url(#clip780)" style="stroke:#000000; stroke-linecap:butt; stroke-linejoin:round; stroke-width:4; stroke-opacity:1; fill:none" points="
  141.853,1486.45 1729.05,1486.45 
  "/>
<polyline clip-path="url(#clip780)" style="stroke:#000000; stroke-linecap:butt; stroke-linejoin:round; stroke-width:4; stroke-opacity:1; fill:none" points="
  186.774,1486.45 186.774,1467.55 
  "/>
<polyline clip-path="url(#clip780)" style="stroke:#000000; stroke-linecap:butt; stroke-linejoin:round; stroke-width:4; stroke-opacity:1; fill:none" points="
  561.113,1486.45 561.113,1467.55 
  "/>
<polyline clip-path="url(#clip780)" style="stroke:#000000; stroke-linecap:butt; stroke-linejoin:round; stroke-width:4; stroke-opacity:1; fill:none" points="
  935.453,1486.45 935.453,1467.55 
  "/>
<polyline clip-path="url(#clip780)" style="stroke:#000000; stroke-linecap:butt; stroke-linejoin:round; stroke-width:4; stroke-opacity:1; fill:none" points="
  1309.79,1486.45 1309.79,1467.55 
  "/>
<polyline clip-path="url(#clip780)" style="stroke:#000000; stroke-linecap:butt; stroke-linejoin:round; stroke-width:4; stroke-opacity:1; fill:none" points="
  1684.13,1486.45 1684.13,1467.55 
  "/>
<path clip-path="url(#clip780)" d="M186.774 1517.37 Q183.163 1517.37 181.334 1520.93 Q179.528 1524.47 179.528 1531.6 Q179.528 1538.71 181.334 1542.27 Q183.163 1545.82 186.774 1545.82 Q190.408 1545.82 192.213 1542.27 Q194.042 1538.71 194.042 1531.6 Q194.042 1524.47 192.213 1520.93 Q190.408 1517.37 186.774 1517.37 M186.774 1513.66 Q192.584 1513.66 195.639 1518.27 Q198.718 1522.85 198.718 1531.6 Q198.718 1540.33 195.639 1544.94 Q192.584 1549.52 186.774 1549.52 Q180.964 1549.52 177.885 1544.94 Q174.829 1540.33 174.829 1531.6 Q174.829 1522.85 177.885 1518.27 Q180.964 1513.66 186.774 1513.66 Z" fill="#000000" fill-rule="evenodd" fill-opacity="1" /><path clip-path="url(#clip780)" d="M535.813 1514.29 L554.169 1514.29 L554.169 1518.22 L540.095 1518.22 L540.095 1526.7 Q541.113 1526.35 542.132 1526.19 Q543.15 1526 544.169 1526 Q549.956 1526 553.336 1529.17 Q556.715 1532.34 556.715 1537.76 Q556.715 1543.34 553.243 1546.44 Q549.771 1549.52 543.451 1549.52 Q541.275 1549.52 539.007 1549.15 Q536.762 1548.78 534.354 1548.04 L534.354 1543.34 Q536.438 1544.47 538.66 1545.03 Q540.882 1545.58 543.359 1545.58 Q547.363 1545.58 549.701 1543.48 Q552.039 1541.37 552.039 1537.76 Q552.039 1534.15 549.701 1532.04 Q547.363 1529.94 543.359 1529.94 Q541.484 1529.94 539.609 1530.35 Q537.757 1530.77 535.813 1531.65 L535.813 1514.29 Z" fill="#000000" fill-rule="evenodd" fill-opacity="1" /><path clip-path="url(#clip780)" d="M575.928 1517.37 Q572.317 1517.37 570.488 1520.93 Q568.683 1524.47 568.683 1531.6 Q568.683 1538.71 570.488 1542.27 Q572.317 1545.82 575.928 1545.82 Q579.562 1545.82 581.368 1542.27 Q583.197 1538.71 583.197 1531.6 Q583.197 1524.47 581.368 1520.93 Q579.562 1517.37 575.928 1517.37 M575.928 1513.66 Q581.738 1513.66 584.794 1518.27 Q587.872 1522.85 587.872 1531.6 Q587.872 1540.33 584.794 1544.94 Q581.738 1549.52 575.928 1549.52 Q570.118 1549.52 567.039 1544.94 Q563.984 1540.33 563.984 1531.6 Q563.984 1522.85 567.039 1518.27 Q570.118 1513.66 575.928 1513.66 Z" fill="#000000" fill-rule="evenodd" fill-opacity="1" /><path clip-path="url(#clip780)" d="M895.06 1544.91 L902.699 1544.91 L902.699 1518.55 L894.388 1520.21 L894.388 1515.95 L902.652 1514.29 L907.328 1514.29 L907.328 1544.91 L914.967 1544.91 L914.967 1548.85 L895.06 1548.85 L895.06 1544.91 Z" fill="#000000" fill-rule="evenodd" fill-opacity="1" /><path clip-path="url(#clip780)" d="M934.411 1517.37 Q930.8 1517.37 928.972 1520.93 Q927.166 1524.47 927.166 1531.6 Q927.166 1538.71 928.972 1542.27 Q930.8 1545.82 934.411 1545.82 Q938.046 1545.82 939.851 1542.27 Q941.68 1538.71 941.68 1531.6 Q941.68 1524.47 939.851 1520.93 Q938.046 1517.37 934.411 1517.37 M934.411 1513.66 Q940.221 1513.66 943.277 1518.27 Q946.356 1522.85 946.356 1531.6 Q946.356 1540.33 943.277 1544.94 Q940.221 1549.52 934.411 1549.52 Q928.601 1549.52 925.522 1544.94 Q922.467 1540.33 922.467 1531.6 Q922.467 1522.85 925.522 1518.27 Q928.601 1513.66 934.411 1513.66 Z" fill="#000000" fill-rule="evenodd" fill-opacity="1" /><path clip-path="url(#clip780)" d="M964.573 1517.37 Q960.962 1517.37 959.133 1520.93 Q957.328 1524.47 957.328 1531.6 Q957.328 1538.71 959.133 1542.27 Q960.962 1545.82 964.573 1545.82 Q968.207 1545.82 970.013 1542.27 Q971.842 1538.71 971.842 1531.6 Q971.842 1524.47 970.013 1520.93 Q968.207 1517.37 964.573 1517.37 M964.573 1513.66 Q970.383 1513.66 973.439 1518.27 Q976.518 1522.85 976.518 1531.6 Q976.518 1540.33 973.439 1544.94 Q970.383 1549.52 964.573 1549.52 Q958.763 1549.52 955.684 1544.94 Q952.629 1540.33 952.629 1531.6 Q952.629 1522.85 955.684 1518.27 Q958.763 1513.66 964.573 1513.66 Z" fill="#000000" fill-rule="evenodd" fill-opacity="1" /><path clip-path="url(#clip780)" d="M1269.4 1544.91 L1277.04 1544.91 L1277.04 1518.55 L1268.73 1520.21 L1268.73 1515.95 L1276.99 1514.29 L1281.67 1514.29 L1281.67 1544.91 L1289.31 1544.91 L1289.31 1548.85 L1269.4 1548.85 L1269.4 1544.91 Z" fill="#000000" fill-rule="evenodd" fill-opacity="1" /><path clip-path="url(#clip780)" d="M1298.8 1514.29 L1317.15 1514.29 L1317.15 1518.22 L1303.08 1518.22 L1303.08 1526.7 Q1304.1 1526.35 1305.12 1526.19 Q1306.14 1526 1307.15 1526 Q1312.94 1526 1316.32 1529.17 Q1319.7 1532.34 1319.7 1537.76 Q1319.7 1543.34 1316.23 1546.44 Q1312.76 1549.52 1306.44 1549.52 Q1304.26 1549.52 1301.99 1549.15 Q1299.75 1548.78 1297.34 1548.04 L1297.34 1543.34 Q1299.42 1544.47 1301.64 1545.03 Q1303.87 1545.58 1306.34 1545.58 Q1310.35 1545.58 1312.69 1543.48 Q1315.02 1541.37 1315.02 1537.76 Q1315.02 1534.15 1312.69 1532.04 Q1310.35 1529.94 1306.34 1529.94 Q1304.47 1529.94 1302.59 1530.35 Q1300.74 1530.77 1298.8 1531.65 L1298.8 1514.29 Z" fill="#000000" fill-rule="evenodd" fill-opacity="1" /><path clip-path="url(#clip780)" d="M1338.91 1517.37 Q1335.3 1517.37 1333.47 1520.93 Q1331.67 1524.47 1331.67 1531.6 Q1331.67 1538.71 1333.47 1542.27 Q1335.3 1545.82 1338.91 1545.82 Q1342.55 1545.82 1344.35 1542.27 Q1346.18 1538.71 1346.18 1531.6 Q1346.18 1524.47 1344.35 1520.93 Q1342.55 1517.37 1338.91 1517.37 M1338.91 1513.66 Q1344.72 1513.66 1347.78 1518.27 Q1350.86 1522.85 1350.86 1531.6 Q1350.86 1540.33 1347.78 1544.94 Q1344.72 1549.52 1338.91 1549.52 Q1333.1 1549.52 1330.02 1544.94 Q1326.97 1540.33 1326.97 1531.6 Q1326.97 1522.85 1330.02 1518.27 Q1333.1 1513.66 1338.91 1513.66 Z" fill="#000000" fill-rule="evenodd" fill-opacity="1" /><path clip-path="url(#clip780)" d="M1647.82 1544.91 L1664.14 1544.91 L1664.14 1548.85 L1642.2 1548.85 L1642.2 1544.91 Q1644.86 1542.16 1649.44 1537.53 Q1654.05 1532.88 1655.23 1531.53 Q1657.48 1529.01 1658.36 1527.27 Q1659.26 1525.51 1659.26 1523.82 Q1659.26 1521.07 1657.32 1519.33 Q1655.39 1517.6 1652.29 1517.6 Q1650.09 1517.6 1647.64 1518.36 Q1645.21 1519.13 1642.43 1520.68 L1642.43 1515.95 Q1645.26 1514.82 1647.71 1514.24 Q1650.16 1513.66 1652.2 1513.66 Q1657.57 1513.66 1660.76 1516.35 Q1663.96 1519.03 1663.96 1523.52 Q1663.96 1525.65 1663.15 1527.57 Q1662.36 1529.47 1660.26 1532.07 Q1659.68 1532.74 1656.57 1535.95 Q1653.47 1539.15 1647.82 1544.91 Z" fill="#000000" fill-rule="evenodd" fill-opacity="1" /><path clip-path="url(#clip780)" d="M1683.96 1517.37 Q1680.35 1517.37 1678.52 1520.93 Q1676.71 1524.47 1676.71 1531.6 Q1676.71 1538.71 1678.52 1542.27 Q1680.35 1545.82 1683.96 1545.82 Q1687.59 1545.82 1689.4 1542.27 Q1691.23 1538.71 1691.23 1531.6 Q1691.23 1524.47 1689.4 1520.93 Q1687.59 1517.37 1683.96 1517.37 M1683.96 1513.66 Q1689.77 1513.66 1692.82 1518.27 Q1695.9 1522.85 1695.9 1531.6 Q1695.9 1540.33 1692.82 1544.94 Q1689.77 1549.52 1683.96 1549.52 Q1678.15 1549.52 1675.07 1544.94 Q1672.01 1540.33 1672.01 1531.6 Q1672.01 1522.85 1675.07 1518.27 Q1678.15 1513.66 1683.96 1513.66 Z" fill="#000000" fill-rule="evenodd" fill-opacity="1" /><path clip-path="url(#clip780)" d="M1714.12 1517.37 Q1710.51 1517.37 1708.68 1520.93 Q1706.88 1524.47 1706.88 1531.6 Q1706.88 1538.71 1708.68 1542.27 Q1710.51 1545.82 1714.12 1545.82 Q1717.75 1545.82 1719.56 1542.27 Q1721.39 1538.71 1721.39 1531.6 Q1721.39 1524.47 1719.56 1520.93 Q1717.75 1517.37 1714.12 1517.37 M1714.12 1513.66 Q1719.93 1513.66 1722.99 1518.27 Q1726.06 1522.85 1726.06 1531.6 Q1726.06 1540.33 1722.99 1544.94 Q1719.93 1549.52 1714.12 1549.52 Q1708.31 1549.52 1705.23 1544.94 Q1702.18 1540.33 1702.18 1531.6 Q1702.18 1522.85 1705.23 1518.27 Q1708.31 1513.66 1714.12 1513.66 Z" fill="#000000" fill-rule="evenodd" fill-opacity="1" /><polyline clip-path="url(#clip782)" style="stroke:#000000; stroke-linecap:butt; stroke-linejoin:round; stroke-width:2; stroke-opacity:0.1; fill:none" points="
  141.853,1447.87 1729.05,1447.87 
  "/>
<polyline clip-path="url(#clip782)" style="stroke:#000000; stroke-linecap:butt; stroke-linejoin:round; stroke-width:2; stroke-opacity:0.1; fill:none" points="
  141.853,1143.21 1729.05,1143.21 
  "/>
<polyline clip-path="url(#clip782)" style="stroke:#000000; stroke-linecap:butt; stroke-linejoin:round; stroke-width:2; stroke-opacity:0.1; fill:none" points="
  141.853,838.556 1729.05,838.556 
  "/>
<polyline clip-path="url(#clip782)" style="stroke:#000000; stroke-linecap:butt; stroke-linejoin:round; stroke-width:2; stroke-opacity:0.1; fill:none" points="
  141.853,533.897 1729.05,533.897 
  "/>
<polyline clip-path="url(#clip782)" style="stroke:#000000; stroke-linecap:butt; stroke-linejoin:round; stroke-width:2; stroke-opacity:0.1; fill:none" points="
  141.853,229.238 1729.05,229.238 
  "/>
<polyline clip-path="url(#clip780)" style="stroke:#000000; stroke-linecap:butt; stroke-linejoin:round; stroke-width:4; stroke-opacity:1; fill:none" points="
  141.853,1486.45 141.853,123.472 
  "/>
<polyline clip-path="url(#clip780)" style="stroke:#000000; stroke-linecap:butt; stroke-linejoin:round; stroke-width:4; stroke-opacity:1; fill:none" points="
  141.853,1447.87 155.419,1447.87 
  "/>
<polyline clip-path="url(#clip780)" style="stroke:#000000; stroke-linecap:butt; stroke-linejoin:round; stroke-width:4; stroke-opacity:1; fill:none" points="
  141.853,1143.21 155.419,1143.21 
  "/>
<polyline clip-path="url(#clip780)" style="stroke:#000000; stroke-linecap:butt; stroke-linejoin:round; stroke-width:4; stroke-opacity:1; fill:none" points="
  141.853,838.556 155.419,838.556 
  "/>
<polyline clip-path="url(#clip780)" style="stroke:#000000; stroke-linecap:butt; stroke-linejoin:round; stroke-width:4; stroke-opacity:1; fill:none" points="
  141.853,533.897 155.419,533.897 
  "/>
<polyline clip-path="url(#clip780)" style="stroke:#000000; stroke-linecap:butt; stroke-linejoin:round; stroke-width:4; stroke-opacity:1; fill:none" points="
  141.853,229.238 155.419,229.238 
  "/>
<path clip-path="url(#clip780)" d="M93.9086 1433.67 Q90.2975 1433.67 88.4688 1437.24 Q86.6632 1440.78 86.6632 1447.91 Q86.6632 1455.01 88.4688 1458.58 Q90.2975 1462.12 93.9086 1462.12 Q97.5428 1462.12 99.3483 1458.58 Q101.177 1455.01 101.177 1447.91 Q101.177 1440.78 99.3483 1437.24 Q97.5428 1433.67 93.9086 1433.67 M93.9086 1429.97 Q99.7187 1429.97 102.774 1434.57 Q105.853 1439.16 105.853 1447.91 Q105.853 1456.63 102.774 1461.24 Q99.7187 1465.82 93.9086 1465.82 Q88.0984 1465.82 85.0197 1461.24 Q81.9642 1456.63 81.9642 1447.91 Q81.9642 1439.16 85.0197 1434.57 Q88.0984 1429.97 93.9086 1429.97 Z" fill="#000000" fill-rule="evenodd" fill-opacity="1" /><path clip-path="url(#clip780)" d="M54.5569 1156.56 L62.1958 1156.56 L62.1958 1130.19 L53.8856 1131.86 L53.8856 1127.6 L62.1495 1125.93 L66.8254 1125.93 L66.8254 1156.56 L74.4642 1156.56 L74.4642 1160.49 L54.5569 1160.49 L54.5569 1156.56 Z" fill="#000000" fill-rule="evenodd" fill-opacity="1" /><path clip-path="url(#clip780)" d="M93.9086 1129.01 Q90.2975 1129.01 88.4688 1132.58 Q86.6632 1136.12 86.6632 1143.25 Q86.6632 1150.36 88.4688 1153.92 Q90.2975 1157.46 93.9086 1157.46 Q97.5428 1157.46 99.3483 1153.92 Q101.177 1150.36 101.177 1143.25 Q101.177 1136.12 99.3483 1132.58 Q97.5428 1129.01 93.9086 1129.01 M93.9086 1125.31 Q99.7187 1125.31 102.774 1129.92 Q105.853 1134.5 105.853 1143.25 Q105.853 1151.98 102.774 1156.58 Q99.7187 1161.17 93.9086 1161.17 Q88.0984 1161.17 85.0197 1156.58 Q81.9642 1151.98 81.9642 1143.25 Q81.9642 1134.5 85.0197 1129.92 Q88.0984 1125.31 93.9086 1125.31 Z" fill="#000000" fill-rule="evenodd" fill-opacity="1" /><path clip-path="url(#clip780)" d="M57.7745 851.901 L74.0939 851.901 L74.0939 855.836 L52.1495 855.836 L52.1495 851.901 Q54.8115 849.146 59.3949 844.516 Q64.0013 839.864 65.1819 838.521 Q67.4272 835.998 68.3068 834.262 Q69.2096 832.503 69.2096 830.813 Q69.2096 828.058 67.2652 826.322 Q65.3439 824.586 62.2421 824.586 Q60.043 824.586 57.5893 825.35 Q55.1588 826.114 52.381 827.665 L52.381 822.942 Q55.2051 821.808 57.6588 821.229 Q60.1124 820.651 62.1495 820.651 Q67.5198 820.651 70.7142 823.336 Q73.9087 826.021 73.9087 830.512 Q73.9087 832.641 73.0985 834.563 Q72.3115 836.461 70.205 839.053 Q69.6263 839.725 66.5245 842.942 Q63.4226 846.137 57.7745 851.901 Z" fill="#000000" fill-rule="evenodd" fill-opacity="1" /><path clip-path="url(#clip780)" d="M93.9086 824.354 Q90.2975 824.354 88.4688 827.919 Q86.6632 831.461 86.6632 838.59 Q86.6632 845.697 88.4688 849.262 Q90.2975 852.803 93.9086 852.803 Q97.5428 852.803 99.3483 849.262 Q101.177 845.697 101.177 838.59 Q101.177 831.461 99.3483 827.919 Q97.5428 824.354 93.9086 824.354 M93.9086 820.651 Q99.7187 820.651 102.774 825.257 Q105.853 829.841 105.853 838.59 Q105.853 847.317 102.774 851.924 Q99.7187 856.507 93.9086 856.507 Q88.0984 856.507 85.0197 851.924 Q81.9642 847.317 81.9642 838.59 Q81.9642 829.841 85.0197 825.257 Q88.0984 820.651 93.9086 820.651 Z" fill="#000000" fill-rule="evenodd" fill-opacity="1" /><path clip-path="url(#clip780)" d="M67.9133 532.543 Q71.2698 533.261 73.1448 535.529 Q75.0429 537.798 75.0429 541.131 Q75.0429 546.247 71.5244 549.047 Q68.0059 551.848 61.5245 551.848 Q59.3486 551.848 57.0338 551.409 Q54.7421 550.992 52.2884 550.135 L52.2884 545.622 Q54.2328 546.756 56.5477 547.335 Q58.8625 547.913 61.3856 547.913 Q65.7837 547.913 68.0754 546.177 Q70.3902 544.441 70.3902 541.131 Q70.3902 538.075 68.2374 536.362 Q66.1078 534.626 62.2884 534.626 L58.2606 534.626 L58.2606 530.784 L62.4735 530.784 Q65.9226 530.784 67.7513 529.418 Q69.58 528.029 69.58 525.436 Q69.58 522.774 67.6819 521.362 Q65.8069 519.927 62.2884 519.927 Q60.3671 519.927 58.168 520.344 Q55.969 520.761 53.3301 521.64 L53.3301 517.474 Q55.9921 516.733 58.3069 516.362 Q60.6449 515.992 62.705 515.992 Q68.0291 515.992 71.1309 518.423 Q74.2327 520.83 74.2327 524.95 Q74.2327 527.821 72.5892 529.811 Q70.9457 531.779 67.9133 532.543 Z" fill="#000000" fill-rule="evenodd" fill-opacity="1" /><path clip-path="url(#clip780)" d="M93.9086 519.696 Q90.2975 519.696 88.4688 523.261 Q86.6632 526.802 86.6632 533.932 Q86.6632 541.038 88.4688 544.603 Q90.2975 548.145 93.9086 548.145 Q97.5428 548.145 99.3483 544.603 Q101.177 541.038 101.177 533.932 Q101.177 526.802 99.3483 523.261 Q97.5428 519.696 93.9086 519.696 M93.9086 515.992 Q99.7187 515.992 102.774 520.599 Q105.853 525.182 105.853 533.932 Q105.853 542.659 102.774 547.265 Q99.7187 551.848 93.9086 551.848 Q88.0984 551.848 85.0197 547.265 Q81.9642 542.659 81.9642 533.932 Q81.9642 525.182 85.0197 520.599 Q88.0984 515.992 93.9086 515.992 Z" fill="#000000" fill-rule="evenodd" fill-opacity="1" /><path clip-path="url(#clip780)" d="M66.5939 216.032 L54.7884 234.481 L66.5939 234.481 L66.5939 216.032 M65.367 211.958 L71.2466 211.958 L71.2466 234.481 L76.1772 234.481 L76.1772 238.37 L71.2466 238.37 L71.2466 246.518 L66.5939 246.518 L66.5939 238.37 L50.9921 238.37 L50.9921 233.856 L65.367 211.958 Z" fill="#000000" fill-rule="evenodd" fill-opacity="1" /><path clip-path="url(#clip780)" d="M93.9086 215.037 Q90.2975 215.037 88.4688 218.602 Q86.6632 222.144 86.6632 229.273 Q86.6632 236.38 88.4688 239.944 Q90.2975 243.486 93.9086 243.486 Q97.5428 243.486 99.3483 239.944 Q101.177 236.38 101.177 229.273 Q101.177 222.144 99.3483 218.602 Q97.5428 215.037 93.9086 215.037 M93.9086 211.333 Q99.7187 211.333 102.774 215.94 Q105.853 220.523 105.853 229.273 Q105.853 238 102.774 242.606 Q99.7187 247.19 93.9086 247.19 Q88.0984 247.19 85.0197 242.606 Q81.9642 238 81.9642 229.273 Q81.9642 220.523 85.0197 215.94 Q88.0984 211.333 93.9086 211.333 Z" fill="#000000" fill-rule="evenodd" fill-opacity="1" /><path clip-path="url(#clip780)" d="M336.527 12.096 L374.767 12.096 L374.767 18.9825 L344.71 18.9825 L344.71 36.8875 L373.512 36.8875 L373.512 43.7741 L344.71 43.7741 L344.71 65.6895 L375.496 65.6895 L375.496 72.576 L336.527 72.576 L336.527 12.096 Z" fill="#000000" fill-rule="evenodd" fill-opacity="1" /><path clip-path="url(#clip780)" d="M414.912 34.1734 Q413.656 33.4443 412.157 33.1202 Q410.699 32.7556 408.916 32.7556 Q402.597 32.7556 399.194 36.8875 Q395.832 40.9789 395.832 48.6757 L395.832 72.576 L388.338 72.576 L388.338 27.2059 L395.832 27.2059 L395.832 34.2544 Q398.182 30.1225 401.949 28.1376 Q405.716 26.1121 411.104 26.1121 Q411.874 26.1121 412.805 26.2337 Q413.737 26.3147 414.871 26.5172 L414.912 34.1734 Z" fill="#000000" fill-rule="evenodd" fill-opacity="1" /><path clip-path="url(#clip780)" d="M447.562 34.1734 Q446.306 33.4443 444.807 33.1202 Q443.349 32.7556 441.567 32.7556 Q435.247 32.7556 431.845 36.8875 Q428.482 40.9789 428.482 48.6757 L428.482 72.576 L420.988 72.576 L420.988 27.2059 L428.482 27.2059 L428.482 34.2544 Q430.832 30.1225 434.599 28.1376 Q438.367 26.1121 443.754 26.1121 Q444.524 26.1121 445.456 26.2337 Q446.387 26.3147 447.522 26.5172 L447.562 34.1734 Z" fill="#000000" fill-rule="evenodd" fill-opacity="1" /><path clip-path="url(#clip780)" d="M471.138 32.4315 Q465.143 32.4315 461.659 37.1306 Q458.175 41.7891 458.175 49.9314 Q458.175 58.0738 461.619 62.7728 Q465.102 67.4314 471.138 67.4314 Q477.093 67.4314 480.577 62.7323 Q484.061 58.0333 484.061 49.9314 Q484.061 41.8701 480.577 37.1711 Q477.093 32.4315 471.138 32.4315 M471.138 26.1121 Q480.861 26.1121 486.41 32.4315 Q491.96 38.7509 491.96 49.9314 Q491.96 61.0714 486.41 67.4314 Q480.861 73.7508 471.138 73.7508 Q461.376 73.7508 455.826 67.4314 Q450.317 61.0714 450.317 49.9314 Q450.317 38.7509 455.826 32.4315 Q461.376 26.1121 471.138 26.1121 Z" fill="#000000" fill-rule="evenodd" fill-opacity="1" /><path clip-path="url(#clip780)" d="M530.606 34.1734 Q529.35 33.4443 527.851 33.1202 Q526.393 32.7556 524.61 32.7556 Q518.291 32.7556 514.888 36.8875 Q511.526 40.9789 511.526 48.6757 L511.526 72.576 L504.032 72.576 L504.032 27.2059 L511.526 27.2059 L511.526 34.2544 Q513.875 30.1225 517.643 28.1376 Q521.41 26.1121 526.798 26.1121 Q527.567 26.1121 528.499 26.2337 Q529.431 26.3147 530.565 26.5172 L530.606 34.1734 Z" fill="#000000" fill-rule="evenodd" fill-opacity="1" /><path clip-path="url(#clip780)" d="M582.376 32.4315 Q576.381 32.4315 572.897 37.1306 Q569.413 41.7891 569.413 49.9314 Q569.413 58.0738 572.857 62.7728 Q576.34 67.4314 582.376 67.4314 Q588.331 67.4314 591.815 62.7323 Q595.299 58.0333 595.299 49.9314 Q595.299 41.8701 591.815 37.1711 Q588.331 32.4315 582.376 32.4315 M582.376 26.1121 Q592.098 26.1121 597.648 32.4315 Q603.198 38.7509 603.198 49.9314 Q603.198 61.0714 597.648 67.4314 Q592.098 73.7508 582.376 73.7508 Q572.613 73.7508 567.064 67.4314 Q561.555 61.0714 561.555 49.9314 Q561.555 38.7509 567.064 32.4315 Q572.613 26.1121 582.376 26.1121 Z" fill="#000000" fill-rule="evenodd" fill-opacity="1" /><path clip-path="url(#clip780)" d="M638.522 9.54393 L638.522 15.7418 L631.392 15.7418 Q627.382 15.7418 625.802 17.3622 Q624.263 18.9825 624.263 23.1955 L624.263 27.2059 L636.537 27.2059 L636.537 32.9987 L624.263 32.9987 L624.263 72.576 L616.768 72.576 L616.768 32.9987 L609.639 32.9987 L609.639 27.2059 L616.768 27.2059 L616.768 24.0462 Q616.768 16.471 620.293 13.0277 Q623.817 9.54393 631.473 9.54393 L638.522 9.54393 Z" fill="#000000" fill-rule="evenodd" fill-opacity="1" /><path clip-path="url(#clip780)" d="M696.976 39.9662 Q702.85 41.222 706.131 45.1919 Q709.453 49.1618 709.453 54.9951 Q709.453 63.9476 703.296 68.8492 Q697.138 73.7508 685.796 73.7508 Q681.988 73.7508 677.937 72.9811 Q673.927 72.2519 669.633 70.7531 L669.633 62.8538 Q673.035 64.8388 677.086 65.8515 Q681.137 66.8642 685.553 66.8642 Q693.249 66.8642 697.26 63.826 Q701.311 60.7879 701.311 54.9951 Q701.311 49.6479 697.543 46.6502 Q693.817 43.612 687.133 43.612 L680.084 43.612 L680.084 36.8875 L687.457 36.8875 Q693.492 36.8875 696.693 34.4975 Q699.893 32.067 699.893 27.5299 Q699.893 22.8714 696.571 20.4004 Q693.29 17.8888 687.133 17.8888 Q683.77 17.8888 679.922 18.618 Q676.074 19.3471 671.456 20.8865 L671.456 13.5948 Q676.114 12.2985 680.165 11.6504 Q684.256 11.0023 687.862 11.0023 Q697.179 11.0023 702.607 15.2557 Q708.035 19.4686 708.035 26.6793 Q708.035 31.7024 705.159 35.1862 Q702.283 38.6294 696.976 39.9662 Z" fill="#000000" fill-rule="evenodd" fill-opacity="1" /><path clip-path="url(#clip780)" d="M720.147 46.5287 L741.982 46.5287 L741.982 53.1722 L720.147 53.1722 L720.147 46.5287 Z" fill="#000000" fill-rule="evenodd" fill-opacity="1" /><path clip-path="url(#clip780)" d="M781.033 17.6457 Q772.121 17.6457 766.854 24.2892 Q761.629 30.9327 761.629 42.3968 Q761.629 53.8203 766.854 60.4638 Q772.121 67.1073 781.033 67.1073 Q789.945 67.1073 795.13 60.4638 Q800.355 53.8203 800.355 42.3968 Q800.355 30.9327 795.13 24.2892 Q789.945 17.6457 781.033 17.6457 M781.033 11.0023 Q793.752 11.0023 801.368 19.5497 Q808.984 28.0566 808.984 42.3968 Q808.984 56.6965 801.368 65.2439 Q793.752 73.7508 781.033 73.7508 Q768.272 73.7508 760.616 65.2439 Q753 56.737 753 42.3968 Q753 28.0566 760.616 19.5497 Q768.272 11.0023 781.033 11.0023 Z" fill="#000000" fill-rule="evenodd" fill-opacity="1" /><path clip-path="url(#clip780)" d="M847.751 34.1734 Q846.495 33.4443 844.996 33.1202 Q843.538 32.7556 841.756 32.7556 Q835.436 32.7556 832.033 36.8875 Q828.671 40.9789 828.671 48.6757 L828.671 72.576 L821.177 72.576 L821.177 27.2059 L828.671 27.2059 L828.671 34.2544 Q831.021 30.1225 834.788 28.1376 Q838.555 26.1121 843.943 26.1121 Q844.713 26.1121 845.644 26.2337 Q846.576 26.3147 847.71 26.5172 L847.751 34.1734 Z" fill="#000000" fill-rule="evenodd" fill-opacity="1" /><path clip-path="url(#clip780)" d="M883.966 34.0924 L883.966 9.54393 L891.42 9.54393 L891.42 72.576 L883.966 72.576 L883.966 65.7705 Q881.616 69.8214 878.011 71.8063 Q874.446 73.7508 869.423 73.7508 Q861.2 73.7508 856.015 67.1883 Q850.87 60.6258 850.87 49.9314 Q850.87 39.2371 856.015 32.6746 Q861.2 26.1121 869.423 26.1121 Q874.446 26.1121 878.011 28.0971 Q881.616 30.0415 883.966 34.0924 M858.567 49.9314 Q858.567 58.1548 861.929 62.8538 Q865.332 67.5124 871.246 67.5124 Q877.16 67.5124 880.563 62.8538 Q883.966 58.1548 883.966 49.9314 Q883.966 41.7081 880.563 37.0496 Q877.16 32.3505 871.246 32.3505 Q865.332 32.3505 861.929 37.0496 Q858.567 41.7081 858.567 49.9314 Z" fill="#000000" fill-rule="evenodd" fill-opacity="1" /><path clip-path="url(#clip780)" d="M945.58 48.0275 L945.58 51.6733 L911.31 51.6733 Q911.796 59.3701 915.928 63.421 Q920.1 67.4314 927.513 67.4314 Q931.807 67.4314 935.818 66.3781 Q939.868 65.3249 943.838 63.2184 L943.838 70.267 Q939.828 71.9684 935.615 72.8596 Q931.402 73.7508 927.068 73.7508 Q916.211 73.7508 909.851 67.4314 Q903.532 61.1119 903.532 50.3365 Q903.532 39.1965 909.527 32.6746 Q915.563 26.1121 925.771 26.1121 Q934.926 26.1121 940.233 32.0264 Q945.58 37.9003 945.58 48.0275 M938.127 45.84 Q938.046 39.7232 934.683 36.0774 Q931.362 32.4315 925.852 32.4315 Q919.614 32.4315 915.847 35.9558 Q912.12 39.4801 911.553 45.8805 L938.127 45.84 Z" fill="#000000" fill-rule="evenodd" fill-opacity="1" /><path clip-path="url(#clip780)" d="M984.104 34.1734 Q982.849 33.4443 981.35 33.1202 Q979.891 32.7556 978.109 32.7556 Q971.79 32.7556 968.387 36.8875 Q965.025 40.9789 965.025 48.6757 L965.025 72.576 L957.53 72.576 L957.53 27.2059 L965.025 27.2059 L965.025 34.2544 Q967.374 30.1225 971.141 28.1376 Q974.909 26.1121 980.296 26.1121 Q981.066 26.1121 981.998 26.2337 Q982.93 26.3147 984.064 26.5172 L984.104 34.1734 Z" fill="#000000" fill-rule="evenodd" fill-opacity="1" /><path clip-path="url(#clip780)" d="M1018.62 12.096 L1026.8 12.096 L1026.8 72.576 L1018.62 72.576 L1018.62 12.096 Z" fill="#000000" fill-rule="evenodd" fill-opacity="1" /><path clip-path="url(#clip780)" d="M1080.48 45.1919 L1080.48 72.576 L1073.02 72.576 L1073.02 45.4349 Q1073.02 38.994 1070.51 35.7938 Q1068 32.5936 1062.98 32.5936 Q1056.94 32.5936 1053.46 36.4419 Q1049.97 40.2903 1049.97 46.9338 L1049.97 72.576 L1042.48 72.576 L1042.48 27.2059 L1049.97 27.2059 L1049.97 34.2544 Q1052.65 30.163 1056.25 28.1376 Q1059.9 26.1121 1064.64 26.1121 Q1072.45 26.1121 1076.46 30.9732 Q1080.48 35.7938 1080.48 45.1919 Z" fill="#000000" fill-rule="evenodd" fill-opacity="1" /><path clip-path="url(#clip780)" d="M1102.71 14.324 L1102.71 27.2059 L1118.07 27.2059 L1118.07 32.9987 L1102.71 32.9987 L1102.71 57.6282 Q1102.71 63.1779 1104.21 64.7578 Q1105.75 66.3376 1110.41 66.3376 L1118.07 66.3376 L1118.07 72.576 L1110.41 72.576 Q1101.78 72.576 1098.5 69.3758 Q1095.22 66.1351 1095.22 57.6282 L1095.22 32.9987 L1089.75 32.9987 L1089.75 27.2059 L1095.22 27.2059 L1095.22 14.324 L1102.71 14.324 Z" fill="#000000" fill-rule="evenodd" fill-opacity="1" /><path clip-path="url(#clip780)" d="M1166.68 48.0275 L1166.68 51.6733 L1132.41 51.6733 Q1132.89 59.3701 1137.03 63.421 Q1141.2 67.4314 1148.61 67.4314 Q1152.91 67.4314 1156.92 66.3781 Q1160.97 65.3249 1164.94 63.2184 L1164.94 70.267 Q1160.93 71.9684 1156.71 72.8596 Q1152.5 73.7508 1148.17 73.7508 Q1137.31 73.7508 1130.95 67.4314 Q1124.63 61.1119 1124.63 50.3365 Q1124.63 39.1965 1130.63 32.6746 Q1136.66 26.1121 1146.87 26.1121 Q1156.02 26.1121 1161.33 32.0264 Q1166.68 37.9003 1166.68 48.0275 M1159.22 45.84 Q1159.14 39.7232 1155.78 36.0774 Q1152.46 32.4315 1146.95 32.4315 Q1140.71 32.4315 1136.94 35.9558 Q1133.22 39.4801 1132.65 45.8805 L1159.22 45.84 Z" fill="#000000" fill-rule="evenodd" fill-opacity="1" /><path clip-path="url(#clip780)" d="M1205.2 34.1734 Q1203.95 33.4443 1202.45 33.1202 Q1200.99 32.7556 1199.21 32.7556 Q1192.89 32.7556 1189.49 36.8875 Q1186.12 40.9789 1186.12 48.6757 L1186.12 72.576 L1178.63 72.576 L1178.63 27.2059 L1186.12 27.2059 L1186.12 34.2544 Q1188.47 30.1225 1192.24 28.1376 Q1196.01 26.1121 1201.39 26.1121 Q1202.16 26.1121 1203.1 26.2337 Q1204.03 26.3147 1205.16 26.5172 L1205.2 34.1734 Z" fill="#000000" fill-rule="evenodd" fill-opacity="1" /><path clip-path="url(#clip780)" d="M1220.23 65.7705 L1220.23 89.8329 L1212.74 89.8329 L1212.74 27.2059 L1220.23 27.2059 L1220.23 34.0924 Q1222.58 30.0415 1226.15 28.0971 Q1229.75 26.1121 1234.73 26.1121 Q1243 26.1121 1248.14 32.6746 Q1253.33 39.2371 1253.33 49.9314 Q1253.33 60.6258 1248.14 67.1883 Q1243 73.7508 1234.73 73.7508 Q1229.75 73.7508 1226.15 71.8063 Q1222.58 69.8214 1220.23 65.7705 M1245.59 49.9314 Q1245.59 41.7081 1242.19 37.0496 Q1238.83 32.3505 1232.91 32.3505 Q1227 32.3505 1223.59 37.0496 Q1220.23 41.7081 1220.23 49.9314 Q1220.23 58.1548 1223.59 62.8538 Q1227 67.5124 1232.91 67.5124 Q1238.83 67.5124 1242.19 62.8538 Q1245.59 58.1548 1245.59 49.9314 Z" fill="#000000" fill-rule="evenodd" fill-opacity="1" /><path clip-path="url(#clip780)" d="M1283.26 32.4315 Q1277.27 32.4315 1273.78 37.1306 Q1270.3 41.7891 1270.3 49.9314 Q1270.3 58.0738 1273.74 62.7728 Q1277.23 67.4314 1283.26 67.4314 Q1289.22 67.4314 1292.7 62.7323 Q1296.19 58.0333 1296.19 49.9314 Q1296.19 41.8701 1292.7 37.1711 Q1289.22 32.4315 1283.26 32.4315 M1283.26 26.1121 Q1292.99 26.1121 1298.54 32.4315 Q1304.09 38.7509 1304.09 49.9314 Q1304.09 61.0714 1298.54 67.4314 Q1292.99 73.7508 1283.26 73.7508 Q1273.5 73.7508 1267.95 67.4314 Q1262.44 61.0714 1262.44 49.9314 Q1262.44 38.7509 1267.95 32.4315 Q1273.5 26.1121 1283.26 26.1121 Z" fill="#000000" fill-rule="evenodd" fill-opacity="1" /><path clip-path="url(#clip780)" d="M1316.44 9.54393 L1323.89 9.54393 L1323.89 72.576 L1316.44 72.576 L1316.44 9.54393 Z" fill="#000000" fill-rule="evenodd" fill-opacity="1" /><path clip-path="url(#clip780)" d="M1360.11 49.7694 Q1351.08 49.7694 1347.59 51.8354 Q1344.11 53.9013 1344.11 58.8839 Q1344.11 62.8538 1346.7 65.2034 Q1349.33 67.5124 1353.83 67.5124 Q1360.03 67.5124 1363.76 63.1374 Q1367.52 58.7219 1367.52 51.4303 L1367.52 49.7694 L1360.11 49.7694 M1374.98 46.6907 L1374.98 72.576 L1367.52 72.576 L1367.52 65.6895 Q1364.97 69.8214 1361.16 71.8063 Q1357.35 73.7508 1351.85 73.7508 Q1344.88 73.7508 1340.75 69.8619 Q1336.65 65.9325 1336.65 59.3701 Q1336.65 51.7138 1341.76 47.825 Q1346.9 43.9361 1357.07 43.9361 L1367.52 43.9361 L1367.52 43.2069 Q1367.52 38.0623 1364.12 35.2672 Q1360.76 32.4315 1354.64 32.4315 Q1350.75 32.4315 1347.07 33.3632 Q1343.38 34.295 1339.98 36.1584 L1339.98 29.2718 Q1344.07 27.692 1347.92 26.9223 Q1351.76 26.1121 1355.41 26.1121 Q1365.25 26.1121 1370.12 31.2163 Q1374.98 36.3204 1374.98 46.6907 Z" fill="#000000" fill-rule="evenodd" fill-opacity="1" /><path clip-path="url(#clip780)" d="M1397.7 14.324 L1397.7 27.2059 L1413.05 27.2059 L1413.05 32.9987 L1397.7 32.9987 L1397.7 57.6282 Q1397.7 63.1779 1399.2 64.7578 Q1400.74 66.3376 1405.4 66.3376 L1413.05 66.3376 L1413.05 72.576 L1405.4 72.576 Q1396.77 72.576 1393.49 69.3758 Q1390.21 66.1351 1390.21 57.6282 L1390.21 32.9987 L1384.74 32.9987 L1384.74 27.2059 L1390.21 27.2059 L1390.21 14.324 L1397.7 14.324 Z" fill="#000000" fill-rule="evenodd" fill-opacity="1" /><path clip-path="url(#clip780)" d="M1422.86 27.2059 L1430.31 27.2059 L1430.31 72.576 L1422.86 72.576 L1422.86 27.2059 M1422.86 9.54393 L1430.31 9.54393 L1430.31 18.9825 L1422.86 18.9825 L1422.86 9.54393 Z" fill="#000000" fill-rule="evenodd" fill-opacity="1" /><path clip-path="url(#clip780)" d="M1463.49 32.4315 Q1457.49 32.4315 1454.01 37.1306 Q1450.53 41.7891 1450.53 49.9314 Q1450.53 58.0738 1453.97 62.7728 Q1457.45 67.4314 1463.49 67.4314 Q1469.44 67.4314 1472.93 62.7323 Q1476.41 58.0333 1476.41 49.9314 Q1476.41 41.8701 1472.93 37.1711 Q1469.44 32.4315 1463.49 32.4315 M1463.49 26.1121 Q1473.21 26.1121 1478.76 32.4315 Q1484.31 38.7509 1484.31 49.9314 Q1484.31 61.0714 1478.76 67.4314 Q1473.21 73.7508 1463.49 73.7508 Q1453.73 73.7508 1448.18 67.4314 Q1442.67 61.0714 1442.67 49.9314 Q1442.67 38.7509 1448.18 32.4315 Q1453.73 26.1121 1463.49 26.1121 Z" fill="#000000" fill-rule="evenodd" fill-opacity="1" /><path clip-path="url(#clip780)" d="M1534.38 45.1919 L1534.38 72.576 L1526.93 72.576 L1526.93 45.4349 Q1526.93 38.994 1524.41 35.7938 Q1521.9 32.5936 1516.88 32.5936 Q1510.84 32.5936 1507.36 36.4419 Q1503.88 40.2903 1503.88 46.9338 L1503.88 72.576 L1496.38 72.576 L1496.38 27.2059 L1503.88 27.2059 L1503.88 34.2544 Q1506.55 30.163 1510.15 28.1376 Q1513.8 26.1121 1518.54 26.1121 Q1526.36 26.1121 1530.37 30.9732 Q1534.38 35.7938 1534.38 45.1919 Z" fill="#000000" fill-rule="evenodd" fill-opacity="1" /><polyline clip-path="url(#clip782)" style="stroke:#009af9; stroke-linecap:butt; stroke-linejoin:round; stroke-width:4; stroke-opacity:1; fill:none" points="
  194.26,1447.87 201.747,1446.85 209.234,1447.31 216.721,1447.87 224.208,1447.46 231.694,1447.24 239.181,1447.25 246.668,1447.46 254.155,1447.87 261.642,1447.27 
  269.128,1446.5 276.615,1445.55 284.102,1444.45 291.589,1443.19 299.076,1441.79 306.562,1440.26 314.049,1438.59 321.536,1436.8 329.023,1434.88 336.51,1432.85 
  343.996,1430.7 351.483,1428.45 358.97,1426.09 366.457,1423.63 373.944,1421.06 381.43,1418.4 388.917,1415.65 396.404,1412.8 403.891,1409.86 411.377,1406.84 
  418.864,1403.73 426.351,1400.53 433.838,1397.25 441.325,1393.9 448.811,1390.46 456.298,1386.94 463.785,1383.35 471.272,1379.68 478.759,1375.94 486.245,1372.13 
  493.732,1368.24 501.219,1364.29 508.706,1360.26 516.193,1356.17 523.679,1352.01 531.166,1347.78 538.653,1343.49 546.14,1339.13 553.627,1334.71 561.113,1330.23 
  568.6,1325.69 576.087,1321.08 583.574,1316.41 591.061,1311.69 598.547,1306.9 606.034,1302.06 613.521,1297.16 621.008,1292.2 628.494,1287.18 635.981,1282.11 
  643.468,1276.98 650.955,1271.8 658.442,1266.56 665.928,1261.27 673.415,1255.93 680.902,1250.53 688.389,1245.08 695.876,1239.58 703.362,1234.02 710.849,1228.42 
  718.336,1222.77 725.823,1217.06 733.31,1211.31 740.796,1205.5 748.283,1199.65 755.77,1193.75 763.257,1187.8 770.744,1181.8 778.23,1175.76 785.717,1169.66 
  793.204,1163.53 800.691,1157.34 808.178,1151.11 815.664,1144.83 823.151,1138.51 830.638,1132.14 838.125,1125.73 845.611,1119.27 853.098,1112.77 860.585,1106.22 
  868.072,1099.64 875.559,1093 883.045,1086.33 890.532,1079.61 898.019,1072.85 905.506,1066.04 912.993,1059.2 920.479,1052.31 927.966,1045.38 935.453,1038.41 
  942.94,1031.4 950.427,1024.35 957.913,1017.26 965.4,1010.12 972.887,1002.95 980.374,995.735 987.861,988.481 995.347,981.188 1002.83,973.856 1010.32,966.484 
  1017.81,959.074 1025.29,951.625 1032.78,944.137 1040.27,936.611 1047.75,929.047 1055.24,921.445 1062.73,913.804 1070.22,906.127 1077.7,898.412 1085.19,890.659 
  1092.68,882.87 1100.16,875.043 1107.65,867.18 1115.14,859.28 1122.62,851.344 1130.11,843.372 1137.6,835.363 1145.08,827.319 1152.57,819.239 1160.06,811.123 
  1167.54,802.972 1175.03,794.785 1182.52,786.563 1190,778.306 1197.49,770.015 1204.98,761.688 1212.46,753.327 1219.95,744.932 1227.44,736.502 1234.92,728.038 
  1242.41,719.54 1249.9,711.008 1257.39,702.442 1264.87,693.843 1272.36,685.21 1279.85,676.544 1287.33,667.844 1294.82,659.112 1302.31,650.346 1309.79,641.547 
  1317.28,632.716 1324.77,623.852 1332.25,614.956 1339.74,606.027 1347.23,597.065 1354.71,588.072 1362.2,579.046 1369.69,569.989 1377.17,560.9 1384.66,551.779 
  1392.15,542.626 1399.63,533.442 1407.12,524.226 1414.61,514.979 1422.09,505.701 1429.58,496.392 1437.07,487.051 1444.55,477.68 1452.04,468.278 1459.53,458.846 
  1467.02,449.382 1474.5,439.889 1481.99,430.364 1489.48,420.81 1496.96,411.225 1504.45,401.61 1511.94,391.965 1519.42,382.291 1526.91,372.586 1534.4,362.852 
  1541.88,353.088 1549.37,343.294 1556.86,333.471 1564.34,323.618 1571.83,313.736 1579.32,303.825 1586.8,293.885 1594.29,283.916 1601.78,273.917 1609.26,263.89 
  1616.75,253.834 1624.24,243.749 1631.72,233.636 1639.21,223.494 1646.7,213.324 1654.19,203.125 1661.67,192.898 1669.16,182.642 1676.65,172.359 1684.13,162.047 
  
  "/>
<path clip-path="url(#clip780)" d="
M1802.75 272.585 L2352.76 272.585 L2352.76 168.905 L1802.75 168.905  Z
  " fill="#ffffff" fill-rule="evenodd" fill-opacity="1"/>
<polyline clip-path="url(#clip780)" style="stroke:#000000; stroke-linecap:butt; stroke-linejoin:round; stroke-width:4; stroke-opacity:1; fill:none" points="
  1802.75,272.585 2352.76,272.585 2352.76,168.905 1802.75,168.905 1802.75,272.585 
  "/>
<polyline clip-path="url(#clip780)" style="stroke:#009af9; stroke-linecap:butt; stroke-linejoin:round; stroke-width:4; stroke-opacity:1; fill:none" points="
  1827.32,220.745 1974.71,220.745 
  "/>
<path clip-path="url(#clip780)" d="M2014.46 216.08 Q2013.74 215.664 2012.89 215.478 Q2012.05 215.27 2011.03 215.27 Q2007.42 215.27 2005.48 217.631 Q2003.56 219.969 2003.56 224.367 L2003.56 238.025 L1999.27 238.025 L1999.27 212.099 L2003.56 212.099 L2003.56 216.127 Q2004.9 213.766 2007.05 212.631 Q2009.21 211.474 2012.28 211.474 Q2012.72 211.474 2013.26 211.543 Q2013.79 211.59 2014.44 211.705 L2014.46 216.08 Z" fill="#000000" fill-rule="evenodd" fill-opacity="1" /><path clip-path="url(#clip780)" d="M2040.06 223.997 L2040.06 226.08 L2020.48 226.08 Q2020.76 230.478 2023.12 232.793 Q2025.5 235.085 2029.74 235.085 Q2032.19 235.085 2034.48 234.483 Q2036.8 233.881 2039.07 232.677 L2039.07 236.705 Q2036.77 237.677 2034.37 238.187 Q2031.96 238.696 2029.48 238.696 Q2023.28 238.696 2019.64 235.085 Q2016.03 231.474 2016.03 225.316 Q2016.03 218.951 2019.46 215.224 Q2022.91 211.474 2028.74 211.474 Q2033.97 211.474 2037.01 214.853 Q2040.06 218.21 2040.06 223.997 M2035.8 222.747 Q2035.76 219.252 2033.83 217.168 Q2031.94 215.085 2028.79 215.085 Q2025.22 215.085 2023.07 217.099 Q2020.94 219.113 2020.62 222.77 L2035.8 222.747 Z" fill="#000000" fill-rule="evenodd" fill-opacity="1" /><path clip-path="url(#clip780)" d="M2047.05 202.006 L2051.31 202.006 L2051.31 238.025 L2047.05 238.025 L2047.05 202.006 Z" fill="#000000" fill-rule="evenodd" fill-opacity="1" /><path clip-path="url(#clip780)" d="M2072.01 224.992 Q2066.84 224.992 2064.85 226.173 Q2062.86 227.353 2062.86 230.201 Q2062.86 232.469 2064.34 233.812 Q2065.85 235.131 2068.42 235.131 Q2071.96 235.131 2074.09 232.631 Q2076.24 230.108 2076.24 225.941 L2076.24 224.992 L2072.01 224.992 M2080.5 223.233 L2080.5 238.025 L2076.24 238.025 L2076.24 234.089 Q2074.78 236.451 2072.61 237.585 Q2070.43 238.696 2067.28 238.696 Q2063.3 238.696 2060.94 236.474 Q2058.6 234.228 2058.6 230.478 Q2058.6 226.103 2061.52 223.881 Q2064.46 221.659 2070.27 221.659 L2076.24 221.659 L2076.24 221.242 Q2076.24 218.303 2074.3 216.705 Q2072.38 215.085 2068.88 215.085 Q2066.66 215.085 2064.55 215.617 Q2062.45 216.15 2060.5 217.215 L2060.5 213.279 Q2062.84 212.377 2065.04 211.937 Q2067.24 211.474 2069.32 211.474 Q2074.95 211.474 2077.72 214.391 Q2080.5 217.307 2080.5 223.233 Z" fill="#000000" fill-rule="evenodd" fill-opacity="1" /><path clip-path="url(#clip780)" d="M2093.49 204.738 L2093.49 212.099 L2102.26 212.099 L2102.26 215.409 L2093.49 215.409 L2093.49 229.483 Q2093.49 232.654 2094.34 233.557 Q2095.22 234.46 2097.89 234.46 L2102.26 234.46 L2102.26 238.025 L2097.89 238.025 Q2092.95 238.025 2091.08 236.196 Q2089.2 234.344 2089.2 229.483 L2089.2 215.409 L2086.08 215.409 L2086.08 212.099 L2089.2 212.099 L2089.2 204.738 L2093.49 204.738 Z" fill="#000000" fill-rule="evenodd" fill-opacity="1" /><path clip-path="url(#clip780)" d="M2107.86 212.099 L2112.12 212.099 L2112.12 238.025 L2107.86 238.025 L2107.86 212.099 M2107.86 202.006 L2112.12 202.006 L2112.12 207.4 L2107.86 207.4 L2107.86 202.006 Z" fill="#000000" fill-rule="evenodd" fill-opacity="1" /><path clip-path="url(#clip780)" d="M2117.98 212.099 L2122.49 212.099 L2130.59 233.858 L2138.7 212.099 L2143.21 212.099 L2133.49 238.025 L2127.7 238.025 L2117.98 212.099 Z" fill="#000000" fill-rule="evenodd" fill-opacity="1" /><path clip-path="url(#clip780)" d="M2171.26 223.997 L2171.26 226.08 L2151.68 226.08 Q2151.96 230.478 2154.32 232.793 Q2156.7 235.085 2160.94 235.085 Q2163.39 235.085 2165.69 234.483 Q2168 233.881 2170.27 232.677 L2170.27 236.705 Q2167.98 237.677 2165.57 238.187 Q2163.16 238.696 2160.69 238.696 Q2154.48 238.696 2150.85 235.085 Q2147.24 231.474 2147.24 225.316 Q2147.24 218.951 2150.66 215.224 Q2154.11 211.474 2159.94 211.474 Q2165.18 211.474 2168.21 214.853 Q2171.26 218.21 2171.26 223.997 M2167.01 222.747 Q2166.96 219.252 2165.04 217.168 Q2163.14 215.085 2159.99 215.085 Q2156.43 215.085 2154.27 217.099 Q2152.14 219.113 2151.82 222.77 L2167.01 222.747 Z" fill="#000000" fill-rule="evenodd" fill-opacity="1" /><path clip-path="url(#clip780)" d="M2215.5 223.997 L2215.5 226.08 L2195.92 226.08 Q2196.19 230.478 2198.56 232.793 Q2200.94 235.085 2205.18 235.085 Q2207.63 235.085 2209.92 234.483 Q2212.24 233.881 2214.5 232.677 L2214.5 236.705 Q2212.21 237.677 2209.81 238.187 Q2207.4 238.696 2204.92 238.696 Q2198.72 238.696 2195.08 235.085 Q2191.47 231.474 2191.47 225.316 Q2191.47 218.951 2194.9 215.224 Q2198.35 211.474 2204.18 211.474 Q2209.41 211.474 2212.44 214.853 Q2215.5 218.21 2215.5 223.997 M2211.24 222.747 Q2211.19 219.252 2209.27 217.168 Q2207.38 215.085 2204.23 215.085 Q2200.66 215.085 2198.51 217.099 Q2196.38 219.113 2196.06 222.77 L2211.24 222.747 Z" fill="#000000" fill-rule="evenodd" fill-opacity="1" /><path clip-path="url(#clip780)" d="M2237.51 216.08 Q2236.8 215.664 2235.94 215.478 Q2235.11 215.27 2234.09 215.27 Q2230.48 215.27 2228.53 217.631 Q2226.61 219.969 2226.61 224.367 L2226.61 238.025 L2222.33 238.025 L2222.33 212.099 L2226.61 212.099 L2226.61 216.127 Q2227.95 213.766 2230.11 212.631 Q2232.26 211.474 2235.34 211.474 Q2235.78 211.474 2236.31 211.543 Q2236.84 211.59 2237.49 211.705 L2237.51 216.08 Z" fill="#000000" fill-rule="evenodd" fill-opacity="1" /><path clip-path="url(#clip780)" d="M2256.17 216.08 Q2255.45 215.664 2254.6 215.478 Q2253.76 215.27 2252.75 215.27 Q2249.13 215.27 2247.19 217.631 Q2245.27 219.969 2245.27 224.367 L2245.27 238.025 L2240.99 238.025 L2240.99 212.099 L2245.27 212.099 L2245.27 216.127 Q2246.61 213.766 2248.76 212.631 Q2250.92 211.474 2254 211.474 Q2254.44 211.474 2254.97 211.543 Q2255.5 211.59 2256.15 211.705 L2256.17 216.08 Z" fill="#000000" fill-rule="evenodd" fill-opacity="1" /><path clip-path="url(#clip780)" d="M2269.64 215.085 Q2266.22 215.085 2264.23 217.77 Q2262.24 220.432 2262.24 225.085 Q2262.24 229.738 2264.2 232.423 Q2266.19 235.085 2269.64 235.085 Q2273.05 235.085 2275.04 232.4 Q2277.03 229.715 2277.03 225.085 Q2277.03 220.478 2275.04 217.793 Q2273.05 215.085 2269.64 215.085 M2269.64 211.474 Q2275.2 211.474 2278.37 215.085 Q2281.54 218.696 2281.54 225.085 Q2281.54 231.451 2278.37 235.085 Q2275.2 238.696 2269.64 238.696 Q2264.06 238.696 2260.89 235.085 Q2257.75 231.451 2257.75 225.085 Q2257.75 218.696 2260.89 215.085 Q2264.06 211.474 2269.64 211.474 Z" fill="#000000" fill-rule="evenodd" fill-opacity="1" /><path clip-path="url(#clip780)" d="M2303.62 216.08 Q2302.91 215.664 2302.05 215.478 Q2301.22 215.27 2300.2 215.27 Q2296.59 215.27 2294.64 217.631 Q2292.72 219.969 2292.72 224.367 L2292.72 238.025 L2288.44 238.025 L2288.44 212.099 L2292.72 212.099 L2292.72 216.127 Q2294.06 213.766 2296.22 212.631 Q2298.37 211.474 2301.45 211.474 Q2301.89 211.474 2302.42 211.543 Q2302.95 211.59 2303.6 211.705 L2303.62 216.08 Z" fill="#000000" fill-rule="evenodd" fill-opacity="1" /></svg>
