<?xml version="1.0" encoding="utf-8"?>
<svg xmlns="http://www.w3.org/2000/svg" xmlns:xlink="http://www.w3.org/1999/xlink" width="600" height="400" viewBox="0 0 2400 1600">
<defs>
  <clipPath id="clip860">
    <rect x="0" y="0" width="2400" height="1600"/>
  </clipPath>
</defs>
<path clip-path="url(#clip860)" d="
M0 1600 L2400 1600 L2400 0 L0 0  Z
  " fill="#ffffff" fill-rule="evenodd" fill-opacity="1"/>
<defs>
  <clipPath id="clip861">
    <rect x="480" y="0" width="1681" height="1600"/>
  </clipPath>
</defs>
<path clip-path="url(#clip860)" d="
M156.112 1486.45 L1731.11 1486.45 L1731.11 123.472 L156.112 123.472  Z
  " fill="#ffffff" fill-rule="evenodd" fill-opacity="1"/>
<defs>
  <clipPath id="clip862">
    <rect x="156" y="123" width="1576" height="1364"/>
  </clipPath>
</defs>
<polyline clip-path="url(#clip862)" style="stroke:#000000; stroke-linecap:butt; stroke-linejoin:round; stroke-width:2; stroke-opacity:0.1; fill:none" points="
  200.688,1486.45 200.688,123.472 
  "/>
<polyline clip-path="url(#clip862)" style="stroke:#000000; stroke-linecap:butt; stroke-linejoin:round; stroke-width:2; stroke-opacity:0.1; fill:none" points="
  572.15,1486.45 572.15,123.472 
  "/>
<polyline clip-path="url(#clip862)" style="stroke:#000000; stroke-linecap:butt; stroke-linejoin:round; stroke-width:2; stroke-opacity:0.1; fill:none" points="
  943.612,1486.45 943.612,123.472 
  "/>
<polyline clip-path="url(#clip862)" style="stroke:#000000; stroke-linecap:butt; stroke-linejoin:round; stroke-width:2; stroke-opacity:0.1; fill:none" points="
  1315.07,1486.45 1315.07,123.472 
  "/>
<polyline clip-path="url(#clip862)" style="stroke:#000000; stroke-linecap:butt; stroke-linejoin:round; stroke-width:2; stroke-opacity:0.1; fill:none" points="
  1686.54,1486.45 1686.54,123.472 
  "/>
<polyline clip-path="url(#clip860)" style="stroke:#000000; stroke-linecap:butt; stroke-linejoin:round; stroke-width:4; stroke-opacity:1; fill:none" points="
  156.112,1486.45 1731.11,1486.45 
  "/>
<polyline clip-path="url(#clip860)" style="stroke:#000000; stroke-linecap:butt; stroke-linejoin:round; stroke-width:4; stroke-opacity:1; fill:none" points="
  200.688,1486.45 200.688,1467.55 
  "/>
<polyline clip-path="url(#clip860)" style="stroke:#000000; stroke-linecap:butt; stroke-linejoin:round; stroke-width:4; stroke-opacity:1; fill:none" points="
  572.15,1486.45 572.15,1467.55 
  "/>
<polyline clip-path="url(#clip860)" style="stroke:#000000; stroke-linecap:butt; stroke-linejoin:round; stroke-width:4; stroke-opacity:1; fill:none" points="
  943.612,1486.45 943.612,1467.55 
  "/>
<polyline clip-path="url(#clip860)" style="stroke:#000000; stroke-linecap:butt; stroke-linejoin:round; stroke-width:4; stroke-opacity:1; fill:none" points="
  1315.07,1486.45 1315.07,1467.55 
  "/>
<polyline clip-path="url(#clip860)" style="stroke:#000000; stroke-linecap:butt; stroke-linejoin:round; stroke-width:4; stroke-opacity:1; fill:none" points="
  1686.54,1486.45 1686.54,1467.55 
  "/>
<path clip-path="url(#clip860)" d="M200.688 1517.37 Q197.077 1517.37 195.248 1520.93 Q193.442 1524.47 193.442 1531.6 Q193.442 1538.71 195.248 1542.27 Q197.077 1545.82 200.688 1545.82 Q204.322 1545.82 206.127 1542.27 Q207.956 1538.71 207.956 1531.6 Q207.956 1524.47 206.127 1520.93 Q204.322 1517.37 200.688 1517.37 M200.688 1513.66 Q206.498 1513.66 209.553 1518.27 Q212.632 1522.85 212.632 1531.6 Q212.632 1540.33 209.553 1544.94 Q206.498 1549.52 200.688 1549.52 Q194.877 1549.52 191.799 1544.94 Q188.743 1540.33 188.743 1531.6 Q188.743 1522.85 191.799 1518.27 Q194.877 1513.66 200.688 1513.66 Z" fill="#000000" fill-rule="evenodd" fill-opacity="1" /><path clip-path="url(#clip860)" d="M546.849 1514.29 L565.206 1514.29 L565.206 1518.22 L551.132 1518.22 L551.132 1526.7 Q552.15 1526.35 553.169 1526.19 Q554.187 1526 555.206 1526 Q560.993 1526 564.372 1529.17 Q567.752 1532.34 567.752 1537.76 Q567.752 1543.34 564.28 1546.44 Q560.807 1549.52 554.488 1549.52 Q552.312 1549.52 550.044 1549.15 Q547.798 1548.78 545.391 1548.04 L545.391 1543.34 Q547.474 1544.47 549.696 1545.03 Q551.919 1545.58 554.395 1545.58 Q558.4 1545.58 560.738 1543.48 Q563.076 1541.37 563.076 1537.76 Q563.076 1534.15 560.738 1532.04 Q558.4 1529.94 554.395 1529.94 Q552.52 1529.94 550.645 1530.35 Q548.794 1530.77 546.849 1531.65 L546.849 1514.29 Z" fill="#000000" fill-rule="evenodd" fill-opacity="1" /><path clip-path="url(#clip860)" d="M586.965 1517.37 Q583.354 1517.37 581.525 1520.93 Q579.719 1524.47 579.719 1531.6 Q579.719 1538.71 581.525 1542.27 Q583.354 1545.82 586.965 1545.82 Q590.599 1545.82 592.405 1542.27 Q594.233 1538.71 594.233 1531.6 Q594.233 1524.47 592.405 1520.93 Q590.599 1517.37 586.965 1517.37 M586.965 1513.66 Q592.775 1513.66 595.83 1518.27 Q598.909 1522.85 598.909 1531.6 Q598.909 1540.33 595.83 1544.94 Q592.775 1549.52 586.965 1549.52 Q581.155 1549.52 578.076 1544.94 Q575.02 1540.33 575.02 1531.6 Q575.02 1522.85 578.076 1518.27 Q581.155 1513.66 586.965 1513.66 Z" fill="#000000" fill-rule="evenodd" fill-opacity="1" /><path clip-path="url(#clip860)" d="M903.219 1544.91 L910.858 1544.91 L910.858 1518.55 L902.548 1520.21 L902.548 1515.95 L910.812 1514.29 L915.488 1514.29 L915.488 1544.91 L923.126 1544.91 L923.126 1548.85 L903.219 1548.85 L903.219 1544.91 Z" fill="#000000" fill-rule="evenodd" fill-opacity="1" /><path clip-path="url(#clip860)" d="M942.571 1517.37 Q938.96 1517.37 937.131 1520.93 Q935.325 1524.47 935.325 1531.6 Q935.325 1538.71 937.131 1542.27 Q938.96 1545.82 942.571 1545.82 Q946.205 1545.82 948.011 1542.27 Q949.839 1538.71 949.839 1531.6 Q949.839 1524.47 948.011 1520.93 Q946.205 1517.37 942.571 1517.37 M942.571 1513.66 Q948.381 1513.66 951.436 1518.27 Q954.515 1522.85 954.515 1531.6 Q954.515 1540.33 951.436 1544.94 Q948.381 1549.52 942.571 1549.52 Q936.761 1549.52 933.682 1544.94 Q930.626 1540.33 930.626 1531.6 Q930.626 1522.85 933.682 1518.27 Q936.761 1513.66 942.571 1513.66 Z" fill="#000000" fill-rule="evenodd" fill-opacity="1" /><path clip-path="url(#clip860)" d="M972.733 1517.37 Q969.122 1517.37 967.293 1520.93 Q965.487 1524.47 965.487 1531.6 Q965.487 1538.71 967.293 1542.27 Q969.122 1545.82 972.733 1545.82 Q976.367 1545.82 978.172 1542.27 Q980.001 1538.71 980.001 1531.6 Q980.001 1524.47 978.172 1520.93 Q976.367 1517.37 972.733 1517.37 M972.733 1513.66 Q978.543 1513.66 981.598 1518.27 Q984.677 1522.85 984.677 1531.6 Q984.677 1540.33 981.598 1544.94 Q978.543 1549.52 972.733 1549.52 Q966.922 1549.52 963.844 1544.94 Q960.788 1540.33 960.788 1531.6 Q960.788 1522.85 963.844 1518.27 Q966.922 1513.66 972.733 1513.66 Z" fill="#000000" fill-rule="evenodd" fill-opacity="1" /><path clip-path="url(#clip860)" d="M1274.68 1544.91 L1282.32 1544.91 L1282.32 1518.55 L1274.01 1520.21 L1274.01 1515.95 L1282.27 1514.29 L1286.95 1514.29 L1286.95 1544.91 L1294.59 1544.91 L1294.59 1548.85 L1274.68 1548.85 L1274.68 1544.91 Z" fill="#000000" fill-rule="evenodd" fill-opacity="1" /><path clip-path="url(#clip860)" d="M1304.08 1514.29 L1322.44 1514.29 L1322.44 1518.22 L1308.36 1518.22 L1308.36 1526.7 Q1309.38 1526.35 1310.4 1526.19 Q1311.42 1526 1312.44 1526 Q1318.22 1526 1321.6 1529.17 Q1324.98 1532.34 1324.98 1537.76 Q1324.98 1543.34 1321.51 1546.44 Q1318.04 1549.52 1311.72 1549.52 Q1309.54 1549.52 1307.27 1549.15 Q1305.03 1548.78 1302.62 1548.04 L1302.62 1543.34 Q1304.7 1544.47 1306.93 1545.03 Q1309.15 1545.58 1311.63 1545.58 Q1315.63 1545.58 1317.97 1543.48 Q1320.31 1541.37 1320.31 1537.76 Q1320.31 1534.15 1317.97 1532.04 Q1315.63 1529.94 1311.63 1529.94 Q1309.75 1529.94 1307.88 1530.35 Q1306.02 1530.77 1304.08 1531.65 L1304.08 1514.29 Z" fill="#000000" fill-rule="evenodd" fill-opacity="1" /><path clip-path="url(#clip860)" d="M1344.2 1517.37 Q1340.58 1517.37 1338.76 1520.93 Q1336.95 1524.47 1336.95 1531.6 Q1336.95 1538.71 1338.76 1542.27 Q1340.58 1545.82 1344.2 1545.82 Q1347.83 1545.82 1349.63 1542.27 Q1351.46 1538.71 1351.46 1531.6 Q1351.46 1524.47 1349.63 1520.93 Q1347.83 1517.37 1344.2 1517.37 M1344.2 1513.66 Q1350.01 1513.66 1353.06 1518.27 Q1356.14 1522.85 1356.14 1531.6 Q1356.14 1540.33 1353.06 1544.94 Q1350.01 1549.52 1344.2 1549.52 Q1338.38 1549.52 1335.31 1544.94 Q1332.25 1540.33 1332.25 1531.6 Q1332.25 1522.85 1335.31 1518.27 Q1338.38 1513.66 1344.2 1513.66 Z" fill="#000000" fill-rule="evenodd" fill-opacity="1" /><path clip-path="url(#clip860)" d="M1650.23 1544.91 L1666.55 1544.91 L1666.55 1548.85 L1644.6 1548.85 L1644.6 1544.91 Q1647.27 1542.16 1651.85 1537.53 Q1656.46 1532.88 1657.64 1531.53 Q1659.88 1529.01 1660.76 1527.27 Q1661.66 1525.51 1661.66 1523.82 Q1661.66 1521.07 1659.72 1519.33 Q1657.8 1517.6 1654.7 1517.6 Q1652.5 1517.6 1650.04 1518.36 Q1647.61 1519.13 1644.84 1520.68 L1644.84 1515.95 Q1647.66 1514.82 1650.11 1514.24 Q1652.57 1513.66 1654.6 1513.66 Q1659.97 1513.66 1663.17 1516.35 Q1666.36 1519.03 1666.36 1523.52 Q1666.36 1525.65 1665.55 1527.57 Q1664.77 1529.47 1662.66 1532.07 Q1662.08 1532.74 1658.98 1535.95 Q1655.88 1539.15 1650.23 1544.91 Z" fill="#000000" fill-rule="evenodd" fill-opacity="1" /><path clip-path="url(#clip860)" d="M1686.36 1517.37 Q1682.75 1517.37 1680.92 1520.93 Q1679.12 1524.47 1679.12 1531.6 Q1679.12 1538.71 1680.92 1542.27 Q1682.75 1545.82 1686.36 1545.82 Q1690 1545.82 1691.8 1542.27 Q1693.63 1538.71 1693.63 1531.6 Q1693.63 1524.47 1691.8 1520.93 Q1690 1517.37 1686.36 1517.37 M1686.36 1513.66 Q1692.17 1513.66 1695.23 1518.27 Q1698.31 1522.85 1698.31 1531.6 Q1698.31 1540.33 1695.23 1544.94 Q1692.17 1549.52 1686.36 1549.52 Q1680.55 1549.52 1677.47 1544.94 Q1674.42 1540.33 1674.42 1531.6 Q1674.42 1522.85 1677.47 1518.27 Q1680.55 1513.66 1686.36 1513.66 Z" fill="#000000" fill-rule="evenodd" fill-opacity="1" /><path clip-path="url(#clip860)" d="M1716.53 1517.37 Q1712.91 1517.37 1711.09 1520.93 Q1709.28 1524.47 1709.28 1531.6 Q1709.28 1538.71 1711.09 1542.27 Q1712.91 1545.82 1716.53 1545.82 Q1720.16 1545.82 1721.97 1542.27 Q1723.79 1538.71 1723.79 1531.6 Q1723.79 1524.47 1721.97 1520.93 Q1720.16 1517.37 1716.53 1517.37 M1716.53 1513.66 Q1722.34 1513.66 1725.39 1518.27 Q1728.47 1522.85 1728.47 1531.6 Q1728.47 1540.33 1725.39 1544.94 Q1722.34 1549.52 1716.53 1549.52 Q1710.72 1549.52 1707.64 1544.94 Q1704.58 1540.33 1704.58 1531.6 Q1704.58 1522.85 1707.64 1518.27 Q1710.72 1513.66 1716.53 1513.66 Z" fill="#000000" fill-rule="evenodd" fill-opacity="1" /><polyline clip-path="url(#clip862)" style="stroke:#000000; stroke-linecap:butt; stroke-linejoin:round; stroke-width:2; stroke-opacity:0.1; fill:none" points="
  156.112,1447.87 1731.11,1447.87 
  "/>
<polyline clip-path="url(#clip862)" style="stroke:#000000; stroke-linecap:butt; stroke-linejoin:round; stroke-width:2; stroke-opacity:0.1; fill:none" points="
  156.112,1067.97 1731.11,1067.97 
  "/>
<polyline clip-path="url(#clip862)" style="stroke:#000000; stroke-linecap:butt; stroke-linejoin:round; stroke-width:2; stroke-opacity:0.1; fill:none" points="
  156.112,688.067 1731.11,688.067 
  "/>
<polyline clip-path="url(#clip862)" style="stroke:#000000; stroke-linecap:butt; stroke-linejoin:round; stroke-width:2; stroke-opacity:0.1; fill:none" points="
  156.112,308.164 1731.11,308.164 
  "/>
<polyline clip-path="url(#clip860)" style="stroke:#000000; stroke-linecap:butt; stroke-linejoin:round; stroke-width:4; stroke-opacity:1; fill:none" points="
  156.112,1486.45 156.112,123.472 
  "/>
<polyline clip-path="url(#clip860)" style="stroke:#000000; stroke-linecap:butt; stroke-linejoin:round; stroke-width:4; stroke-opacity:1; fill:none" points="
  156.112,1447.87 169.662,1447.87 
  "/>
<polyline clip-path="url(#clip860)" style="stroke:#000000; stroke-linecap:butt; stroke-linejoin:round; stroke-width:4; stroke-opacity:1; fill:none" points="
  156.112,1067.97 169.662,1067.97 
  "/>
<polyline clip-path="url(#clip860)" style="stroke:#000000; stroke-linecap:butt; stroke-linejoin:round; stroke-width:4; stroke-opacity:1; fill:none" points="
  156.112,688.067 169.662,688.067 
  "/>
<polyline clip-path="url(#clip860)" style="stroke:#000000; stroke-linecap:butt; stroke-linejoin:round; stroke-width:4; stroke-opacity:1; fill:none" points="
  156.112,308.164 169.662,308.164 
  "/>
<path clip-path="url(#clip860)" d="M62.9365 1433.67 Q59.3254 1433.67 57.4967 1437.24 Q55.6912 1440.78 55.6912 1447.91 Q55.6912 1455.01 57.4967 1458.58 Q59.3254 1462.12 62.9365 1462.12 Q66.5707 1462.12 68.3763 1458.58 Q70.205 1455.01 70.205 1447.91 Q70.205 1440.78 68.3763 1437.24 Q66.5707 1433.67 62.9365 1433.67 M62.9365 1429.97 Q68.7467 1429.97 71.8022 1434.57 Q74.8809 1439.16 74.8809 1447.91 Q74.8809 1456.63 71.8022 1461.24 Q68.7467 1465.82 62.9365 1465.82 Q57.1264 1465.82 54.0477 1461.24 Q50.9921 1456.63 50.9921 1447.91 Q50.9921 1439.16 54.0477 1434.57 Q57.1264 1429.97 62.9365 1429.97 Z" fill="#000000" fill-rule="evenodd" fill-opacity="1" /><path clip-path="url(#clip860)" d="M83.0984 1459.27 L87.9827 1459.27 L87.9827 1465.15 L83.0984 1465.15 L83.0984 1459.27 Z" fill="#000000" fill-rule="evenodd" fill-opacity="1" /><path clip-path="url(#clip860)" d="M108.168 1433.67 Q104.557 1433.67 102.728 1437.24 Q100.922 1440.78 100.922 1447.91 Q100.922 1455.01 102.728 1458.58 Q104.557 1462.12 108.168 1462.12 Q111.802 1462.12 113.608 1458.58 Q115.436 1455.01 115.436 1447.91 Q115.436 1440.78 113.608 1437.24 Q111.802 1433.67 108.168 1433.67 M108.168 1429.97 Q113.978 1429.97 117.033 1434.57 Q120.112 1439.16 120.112 1447.91 Q120.112 1456.63 117.033 1461.24 Q113.978 1465.82 108.168 1465.82 Q102.358 1465.82 99.2789 1461.24 Q96.2234 1456.63 96.2234 1447.91 Q96.2234 1439.16 99.2789 1434.57 Q102.358 1429.97 108.168 1429.97 Z" fill="#000000" fill-rule="evenodd" fill-opacity="1" /><path clip-path="url(#clip860)" d="M63.9319 1053.77 Q60.3208 1053.77 58.4921 1057.33 Q56.6865 1060.88 56.6865 1068 Q56.6865 1075.11 58.4921 1078.68 Q60.3208 1082.22 63.9319 1082.22 Q67.5661 1082.22 69.3717 1078.68 Q71.2004 1075.11 71.2004 1068 Q71.2004 1060.88 69.3717 1057.33 Q67.5661 1053.77 63.9319 1053.77 M63.9319 1050.06 Q69.742 1050.06 72.7976 1054.67 Q75.8763 1059.25 75.8763 1068 Q75.8763 1076.73 72.7976 1081.34 Q69.742 1085.92 63.9319 1085.92 Q58.1217 1085.92 55.043 1081.34 Q51.9875 1076.73 51.9875 1068 Q51.9875 1059.25 55.043 1054.67 Q58.1217 1050.06 63.9319 1050.06 Z" fill="#000000" fill-rule="evenodd" fill-opacity="1" /><path clip-path="url(#clip860)" d="M84.0938 1079.37 L88.978 1079.37 L88.978 1085.25 L84.0938 1085.25 L84.0938 1079.37 Z" fill="#000000" fill-rule="evenodd" fill-opacity="1" /><path clip-path="url(#clip860)" d="M99.2095 1050.69 L117.566 1050.69 L117.566 1054.63 L103.492 1054.63 L103.492 1063.1 Q104.51 1062.75 105.529 1062.59 Q106.547 1062.4 107.566 1062.4 Q113.353 1062.4 116.733 1065.57 Q120.112 1068.75 120.112 1074.16 Q120.112 1079.74 116.64 1082.84 Q113.168 1085.92 106.848 1085.92 Q104.672 1085.92 102.404 1085.55 Q100.159 1085.18 97.7511 1084.44 L97.7511 1079.74 Q99.8345 1080.87 102.057 1081.43 Q104.279 1081.99 106.756 1081.99 Q110.76 1081.99 113.098 1079.88 Q115.436 1077.77 115.436 1074.16 Q115.436 1070.55 113.098 1068.44 Q110.76 1066.34 106.756 1066.34 Q104.881 1066.34 103.006 1066.75 Q101.154 1067.17 99.2095 1068.05 L99.2095 1050.69 Z" fill="#000000" fill-rule="evenodd" fill-opacity="1" /><path clip-path="url(#clip860)" d="M53.7467 701.412 L61.3856 701.412 L61.3856 675.046 L53.0754 676.713 L53.0754 672.453 L61.3393 670.787 L66.0152 670.787 L66.0152 701.412 L73.654 701.412 L73.654 705.347 L53.7467 705.347 L53.7467 701.412 Z" fill="#000000" fill-rule="evenodd" fill-opacity="1" /><path clip-path="url(#clip860)" d="M83.0984 699.467 L87.9827 699.467 L87.9827 705.347 L83.0984 705.347 L83.0984 699.467 Z" fill="#000000" fill-rule="evenodd" fill-opacity="1" /><path clip-path="url(#clip860)" d="M108.168 673.865 Q104.557 673.865 102.728 677.43 Q100.922 680.972 100.922 688.101 Q100.922 695.208 102.728 698.773 Q104.557 702.314 108.168 702.314 Q111.802 702.314 113.608 698.773 Q115.436 695.208 115.436 688.101 Q115.436 680.972 113.608 677.43 Q111.802 673.865 108.168 673.865 M108.168 670.162 Q113.978 670.162 117.033 674.768 Q120.112 679.351 120.112 688.101 Q120.112 696.828 117.033 701.435 Q113.978 706.018 108.168 706.018 Q102.358 706.018 99.2789 701.435 Q96.2234 696.828 96.2234 688.101 Q96.2234 679.351 99.2789 674.768 Q102.358 670.162 108.168 670.162 Z" fill="#000000" fill-rule="evenodd" fill-opacity="1" /><path clip-path="url(#clip860)" d="M54.7421 321.508 L62.381 321.508 L62.381 295.143 L54.0708 296.809 L54.0708 292.55 L62.3347 290.884 L67.0106 290.884 L67.0106 321.508 L74.6494 321.508 L74.6494 325.444 L54.7421 325.444 L54.7421 321.508 Z" fill="#000000" fill-rule="evenodd" fill-opacity="1" /><path clip-path="url(#clip860)" d="M84.0938 319.564 L88.978 319.564 L88.978 325.444 L84.0938 325.444 L84.0938 319.564 Z" fill="#000000" fill-rule="evenodd" fill-opacity="1" /><path clip-path="url(#clip860)" d="M99.2095 290.884 L117.566 290.884 L117.566 294.819 L103.492 294.819 L103.492 303.291 Q104.51 302.944 105.529 302.782 Q106.547 302.596 107.566 302.596 Q113.353 302.596 116.733 305.768 Q120.112 308.939 120.112 314.356 Q120.112 319.934 116.64 323.036 Q113.168 326.115 106.848 326.115 Q104.672 326.115 102.404 325.744 Q100.159 325.374 97.7511 324.633 L97.7511 319.934 Q99.8345 321.069 102.057 321.624 Q104.279 322.18 106.756 322.18 Q110.76 322.18 113.098 320.073 Q115.436 317.967 115.436 314.356 Q115.436 310.745 113.098 308.638 Q110.76 306.532 106.756 306.532 Q104.881 306.532 103.006 306.948 Q101.154 307.365 99.2095 308.245 L99.2095 290.884 Z" fill="#000000" fill-rule="evenodd" fill-opacity="1" /><path clip-path="url(#clip860)" d="M344.686 12.096 L382.927 12.096 L382.927 18.9825 L352.869 18.9825 L352.869 36.8875 L381.671 36.8875 L381.671 43.7741 L352.869 43.7741 L352.869 65.6895 L383.656 65.6895 L383.656 72.576 L344.686 72.576 L344.686 12.096 Z" fill="#000000" fill-rule="evenodd" fill-opacity="1" /><path clip-path="url(#clip860)" d="M423.071 34.1734 Q421.815 33.4443 420.317 33.1202 Q418.858 32.7556 417.076 32.7556 Q410.756 32.7556 407.354 36.8875 Q403.991 40.9789 403.991 48.6757 L403.991 72.576 L396.497 72.576 L396.497 27.2059 L403.991 27.2059 L403.991 34.2544 Q406.341 30.1225 410.108 28.1376 Q413.876 26.1121 419.263 26.1121 Q420.033 26.1121 420.965 26.2337 Q421.896 26.3147 423.031 26.5172 L423.071 34.1734 Z" fill="#000000" fill-rule="evenodd" fill-opacity="1" /><path clip-path="url(#clip860)" d="M455.722 34.1734 Q454.466 33.4443 452.967 33.1202 Q451.509 32.7556 449.726 32.7556 Q443.407 32.7556 440.004 36.8875 Q436.642 40.9789 436.642 48.6757 L436.642 72.576 L429.148 72.576 L429.148 27.2059 L436.642 27.2059 L436.642 34.2544 Q438.991 30.1225 442.759 28.1376 Q446.526 26.1121 451.914 26.1121 Q452.683 26.1121 453.615 26.2337 Q454.547 26.3147 455.681 26.5172 L455.722 34.1734 Z" fill="#000000" fill-rule="evenodd" fill-opacity="1" /><path clip-path="url(#clip860)" d="M479.298 32.4315 Q473.302 32.4315 469.819 37.1306 Q466.335 41.7891 466.335 49.9314 Q466.335 58.0738 469.778 62.7728 Q473.262 67.4314 479.298 67.4314 Q485.253 67.4314 488.736 62.7323 Q492.22 58.0333 492.22 49.9314 Q492.22 41.8701 488.736 37.1711 Q485.253 32.4315 479.298 32.4315 M479.298 26.1121 Q489.02 26.1121 494.57 32.4315 Q500.119 38.7509 500.119 49.9314 Q500.119 61.0714 494.57 67.4314 Q489.02 73.7508 479.298 73.7508 Q469.535 73.7508 463.985 67.4314 Q458.476 61.0714 458.476 49.9314 Q458.476 38.7509 463.985 32.4315 Q469.535 26.1121 479.298 26.1121 Z" fill="#000000" fill-rule="evenodd" fill-opacity="1" /><path clip-path="url(#clip860)" d="M538.765 34.1734 Q537.509 33.4443 536.01 33.1202 Q534.552 32.7556 532.77 32.7556 Q526.45 32.7556 523.048 36.8875 Q519.685 40.9789 519.685 48.6757 L519.685 72.576 L512.191 72.576 L512.191 27.2059 L519.685 27.2059 L519.685 34.2544 Q522.035 30.1225 525.802 28.1376 Q529.569 26.1121 534.957 26.1121 Q535.727 26.1121 536.659 26.2337 Q537.59 26.3147 538.725 26.5172 L538.765 34.1734 Z" fill="#000000" fill-rule="evenodd" fill-opacity="1" /><path clip-path="url(#clip860)" d="M590.536 32.4315 Q584.54 32.4315 581.056 37.1306 Q577.573 41.7891 577.573 49.9314 Q577.573 58.0738 581.016 62.7728 Q584.5 67.4314 590.536 67.4314 Q596.49 67.4314 599.974 62.7323 Q603.458 58.0333 603.458 49.9314 Q603.458 41.8701 599.974 37.1711 Q596.49 32.4315 590.536 32.4315 M590.536 26.1121 Q600.258 26.1121 605.808 32.4315 Q611.357 38.7509 611.357 49.9314 Q611.357 61.0714 605.808 67.4314 Q600.258 73.7508 590.536 73.7508 Q580.773 73.7508 575.223 67.4314 Q569.714 61.0714 569.714 49.9314 Q569.714 38.7509 575.223 32.4315 Q580.773 26.1121 590.536 26.1121 Z" fill="#000000" fill-rule="evenodd" fill-opacity="1" /><path clip-path="url(#clip860)" d="M646.681 9.54393 L646.681 15.7418 L639.552 15.7418 Q635.541 15.7418 633.961 17.3622 Q632.422 18.9825 632.422 23.1955 L632.422 27.2059 L644.696 27.2059 L644.696 32.9987 L632.422 32.9987 L632.422 72.576 L624.928 72.576 L624.928 32.9987 L617.798 32.9987 L617.798 27.2059 L624.928 27.2059 L624.928 24.0462 Q624.928 16.471 628.452 13.0277 Q631.976 9.54393 639.633 9.54393 L646.681 9.54393 Z" fill="#000000" fill-rule="evenodd" fill-opacity="1" /><path clip-path="url(#clip860)" d="M705.136 39.9662 Q711.009 41.222 714.291 45.1919 Q717.612 49.1618 717.612 54.9951 Q717.612 63.9476 711.455 68.8492 Q705.298 73.7508 693.955 73.7508 Q690.147 73.7508 686.096 72.9811 Q682.086 72.2519 677.792 70.7531 L677.792 62.8538 Q681.195 64.8388 685.246 65.8515 Q689.297 66.8642 693.712 66.8642 Q701.409 66.8642 705.419 63.826 Q709.47 60.7879 709.47 54.9951 Q709.47 49.6479 705.703 46.6502 Q701.976 43.612 695.292 43.612 L688.243 43.612 L688.243 36.8875 L695.616 36.8875 Q701.652 36.8875 704.852 34.4975 Q708.052 32.067 708.052 27.5299 Q708.052 22.8714 704.731 20.4004 Q701.449 17.8888 695.292 17.8888 Q691.93 17.8888 688.081 18.618 Q684.233 19.3471 679.615 20.8865 L679.615 13.5948 Q684.274 12.2985 688.324 11.6504 Q692.416 11.0023 696.021 11.0023 Q705.338 11.0023 710.766 15.2557 Q716.195 19.4686 716.195 26.6793 Q716.195 31.7024 713.319 35.1862 Q710.442 38.6294 705.136 39.9662 Z" fill="#000000" fill-rule="evenodd" fill-opacity="1" /><path clip-path="url(#clip860)" d="M728.307 46.5287 L750.141 46.5287 L750.141 53.1722 L728.307 53.1722 L728.307 46.5287 Z" fill="#000000" fill-rule="evenodd" fill-opacity="1" /><path clip-path="url(#clip860)" d="M789.192 17.6457 Q780.28 17.6457 775.014 24.2892 Q769.788 30.9327 769.788 42.3968 Q769.788 53.8203 775.014 60.4638 Q780.28 67.1073 789.192 67.1073 Q798.104 67.1073 803.289 60.4638 Q808.515 53.8203 808.515 42.3968 Q808.515 30.9327 803.289 24.2892 Q798.104 17.6457 789.192 17.6457 M789.192 11.0023 Q801.912 11.0023 809.527 19.5497 Q817.143 28.0566 817.143 42.3968 Q817.143 56.6965 809.527 65.2439 Q801.912 73.7508 789.192 73.7508 Q776.432 73.7508 768.775 65.2439 Q761.16 56.737 761.16 42.3968 Q761.16 28.0566 768.775 19.5497 Q776.432 11.0023 789.192 11.0023 Z" fill="#000000" fill-rule="evenodd" fill-opacity="1" /><path clip-path="url(#clip860)" d="M855.91 34.1734 Q854.655 33.4443 853.156 33.1202 Q851.697 32.7556 849.915 32.7556 Q843.596 32.7556 840.193 36.8875 Q836.831 40.9789 836.831 48.6757 L836.831 72.576 L829.336 72.576 L829.336 27.2059 L836.831 27.2059 L836.831 34.2544 Q839.18 30.1225 842.947 28.1376 Q846.715 26.1121 852.102 26.1121 Q852.872 26.1121 853.804 26.2337 Q854.736 26.3147 855.87 26.5172 L855.91 34.1734 Z" fill="#000000" fill-rule="evenodd" fill-opacity="1" /><path clip-path="url(#clip860)" d="M892.125 34.0924 L892.125 9.54393 L899.579 9.54393 L899.579 72.576 L892.125 72.576 L892.125 65.7705 Q889.776 69.8214 886.171 71.8063 Q882.606 73.7508 877.583 73.7508 Q869.359 73.7508 864.174 67.1883 Q859.03 60.6258 859.03 49.9314 Q859.03 39.2371 864.174 32.6746 Q869.359 26.1121 877.583 26.1121 Q882.606 26.1121 886.171 28.0971 Q889.776 30.0415 892.125 34.0924 M866.726 49.9314 Q866.726 58.1548 870.088 62.8538 Q873.491 67.5124 879.406 67.5124 Q885.32 67.5124 888.723 62.8538 Q892.125 58.1548 892.125 49.9314 Q892.125 41.7081 888.723 37.0496 Q885.32 32.3505 879.406 32.3505 Q873.491 32.3505 870.088 37.0496 Q866.726 41.7081 866.726 49.9314 Z" fill="#000000" fill-rule="evenodd" fill-opacity="1" /><path clip-path="url(#clip860)" d="M953.74 48.0275 L953.74 51.6733 L919.469 51.6733 Q919.955 59.3701 924.087 63.421 Q928.259 67.4314 935.673 67.4314 Q939.967 67.4314 943.977 66.3781 Q948.028 65.3249 951.998 63.2184 L951.998 70.267 Q947.987 71.9684 943.774 72.8596 Q939.562 73.7508 935.227 73.7508 Q924.371 73.7508 918.011 67.4314 Q911.691 61.1119 911.691 50.3365 Q911.691 39.1965 917.687 32.6746 Q923.722 26.1121 933.931 26.1121 Q943.086 26.1121 948.392 32.0264 Q953.74 37.9003 953.74 48.0275 M946.286 45.84 Q946.205 39.7232 942.843 36.0774 Q939.521 32.4315 934.012 32.4315 Q927.773 32.4315 924.006 35.9558 Q920.279 39.4801 919.712 45.8805 L946.286 45.84 Z" fill="#000000" fill-rule="evenodd" fill-opacity="1" /><path clip-path="url(#clip860)" d="M992.264 34.1734 Q991.008 33.4443 989.509 33.1202 Q988.051 32.7556 986.268 32.7556 Q979.949 32.7556 976.546 36.8875 Q973.184 40.9789 973.184 48.6757 L973.184 72.576 L965.69 72.576 L965.69 27.2059 L973.184 27.2059 L973.184 34.2544 Q975.534 30.1225 979.301 28.1376 Q983.068 26.1121 988.456 26.1121 Q989.226 26.1121 990.157 26.2337 Q991.089 26.3147 992.223 26.5172 L992.264 34.1734 Z" fill="#000000" fill-rule="evenodd" fill-opacity="1" /><path clip-path="url(#clip860)" d="M1026.78 12.096 L1034.96 12.096 L1034.96 72.576 L1026.78 72.576 L1026.78 12.096 Z" fill="#000000" fill-rule="evenodd" fill-opacity="1" /><path clip-path="url(#clip860)" d="M1088.63 45.1919 L1088.63 72.576 L1081.18 72.576 L1081.18 45.4349 Q1081.18 38.994 1078.67 35.7938 Q1076.16 32.5936 1071.13 32.5936 Q1065.1 32.5936 1061.62 36.4419 Q1058.13 40.2903 1058.13 46.9338 L1058.13 72.576 L1050.64 72.576 L1050.64 27.2059 L1058.13 27.2059 L1058.13 34.2544 Q1060.81 30.163 1064.41 28.1376 Q1068.06 26.1121 1072.8 26.1121 Q1080.61 26.1121 1084.62 30.9732 Q1088.63 35.7938 1088.63 45.1919 Z" fill="#000000" fill-rule="evenodd" fill-opacity="1" /><path clip-path="url(#clip860)" d="M1110.87 14.324 L1110.87 27.2059 L1126.23 27.2059 L1126.23 32.9987 L1110.87 32.9987 L1110.87 57.6282 Q1110.87 63.1779 1112.37 64.7578 Q1113.91 66.3376 1118.57 66.3376 L1126.23 66.3376 L1126.23 72.576 L1118.57 72.576 Q1109.94 72.576 1106.66 69.3758 Q1103.38 66.1351 1103.38 57.6282 L1103.38 32.9987 L1097.91 32.9987 L1097.91 27.2059 L1103.38 27.2059 L1103.38 14.324 L1110.87 14.324 Z" fill="#000000" fill-rule="evenodd" fill-opacity="1" /><path clip-path="url(#clip860)" d="M1174.84 48.0275 L1174.84 51.6733 L1140.57 51.6733 Q1141.05 59.3701 1145.19 63.421 Q1149.36 67.4314 1156.77 67.4314 Q1161.06 67.4314 1165.08 66.3781 Q1169.13 65.3249 1173.1 63.2184 L1173.1 70.267 Q1169.09 71.9684 1164.87 72.8596 Q1160.66 73.7508 1156.33 73.7508 Q1145.47 73.7508 1139.11 67.4314 Q1132.79 61.1119 1132.79 50.3365 Q1132.79 39.1965 1138.78 32.6746 Q1144.82 26.1121 1155.03 26.1121 Q1164.18 26.1121 1169.49 32.0264 Q1174.84 37.9003 1174.84 48.0275 M1167.38 45.84 Q1167.3 39.7232 1163.94 36.0774 Q1160.62 32.4315 1155.11 32.4315 Q1148.87 32.4315 1145.1 35.9558 Q1141.38 39.4801 1140.81 45.8805 L1167.38 45.84 Z" fill="#000000" fill-rule="evenodd" fill-opacity="1" /><path clip-path="url(#clip860)" d="M1213.36 34.1734 Q1212.11 33.4443 1210.61 33.1202 Q1209.15 32.7556 1207.37 32.7556 Q1201.05 32.7556 1197.64 36.8875 Q1194.28 40.9789 1194.28 48.6757 L1194.28 72.576 L1186.79 72.576 L1186.79 27.2059 L1194.28 27.2059 L1194.28 34.2544 Q1196.63 30.1225 1200.4 28.1376 Q1204.17 26.1121 1209.55 26.1121 Q1210.32 26.1121 1211.26 26.2337 Q1212.19 26.3147 1213.32 26.5172 L1213.36 34.1734 Z" fill="#000000" fill-rule="evenodd" fill-opacity="1" /><path clip-path="url(#clip860)" d="M1228.39 65.7705 L1228.39 89.8329 L1220.9 89.8329 L1220.9 27.2059 L1228.39 27.2059 L1228.39 34.0924 Q1230.74 30.0415 1234.31 28.0971 Q1237.91 26.1121 1242.89 26.1121 Q1251.16 26.1121 1256.3 32.6746 Q1261.49 39.2371 1261.49 49.9314 Q1261.49 60.6258 1256.3 67.1883 Q1251.16 73.7508 1242.89 73.7508 Q1237.91 73.7508 1234.31 71.8063 Q1230.74 69.8214 1228.39 65.7705 M1253.75 49.9314 Q1253.75 41.7081 1250.35 37.0496 Q1246.98 32.3505 1241.07 32.3505 Q1235.16 32.3505 1231.75 37.0496 Q1228.39 41.7081 1228.39 49.9314 Q1228.39 58.1548 1231.75 62.8538 Q1235.16 67.5124 1241.07 67.5124 Q1246.98 67.5124 1250.35 62.8538 Q1253.75 58.1548 1253.75 49.9314 Z" fill="#000000" fill-rule="evenodd" fill-opacity="1" /><path clip-path="url(#clip860)" d="M1291.42 32.4315 Q1285.43 32.4315 1281.94 37.1306 Q1278.46 41.7891 1278.46 49.9314 Q1278.46 58.0738 1281.9 62.7728 Q1285.39 67.4314 1291.42 67.4314 Q1297.38 67.4314 1300.86 62.7323 Q1304.35 58.0333 1304.35 49.9314 Q1304.35 41.8701 1300.86 37.1711 Q1297.38 32.4315 1291.42 32.4315 M1291.42 26.1121 Q1301.15 26.1121 1306.69 32.4315 Q1312.24 38.7509 1312.24 49.9314 Q1312.24 61.0714 1306.69 67.4314 Q1301.15 73.7508 1291.42 73.7508 Q1281.66 73.7508 1276.11 67.4314 Q1270.6 61.0714 1270.6 49.9314 Q1270.6 38.7509 1276.11 32.4315 Q1281.66 26.1121 1291.42 26.1121 Z" fill="#000000" fill-rule="evenodd" fill-opacity="1" /><path clip-path="url(#clip860)" d="M1324.6 9.54393 L1332.05 9.54393 L1332.05 72.576 L1324.6 72.576 L1324.6 9.54393 Z" fill="#000000" fill-rule="evenodd" fill-opacity="1" /><path clip-path="url(#clip860)" d="M1368.27 49.7694 Q1359.24 49.7694 1355.75 51.8354 Q1352.27 53.9013 1352.27 58.8839 Q1352.27 62.8538 1354.86 65.2034 Q1357.49 67.5124 1361.99 67.5124 Q1368.19 67.5124 1371.91 63.1374 Q1375.68 58.7219 1375.68 51.4303 L1375.68 49.7694 L1368.27 49.7694 M1383.14 46.6907 L1383.14 72.576 L1375.68 72.576 L1375.68 65.6895 Q1373.13 69.8214 1369.32 71.8063 Q1365.51 73.7508 1360 73.7508 Q1353.04 73.7508 1348.91 69.8619 Q1344.81 65.9325 1344.81 59.3701 Q1344.81 51.7138 1349.92 47.825 Q1355.06 43.9361 1365.23 43.9361 L1375.68 43.9361 L1375.68 43.2069 Q1375.68 38.0623 1372.28 35.2672 Q1368.92 32.4315 1362.8 32.4315 Q1358.91 32.4315 1355.22 33.3632 Q1351.54 34.295 1348.14 36.1584 L1348.14 29.2718 Q1352.23 27.692 1356.08 26.9223 Q1359.92 26.1121 1363.57 26.1121 Q1373.41 26.1121 1378.27 31.2163 Q1383.14 36.3204 1383.14 46.6907 Z" fill="#000000" fill-rule="evenodd" fill-opacity="1" /><path clip-path="url(#clip860)" d="M1405.86 14.324 L1405.86 27.2059 L1421.21 27.2059 L1421.21 32.9987 L1405.86 32.9987 L1405.86 57.6282 Q1405.86 63.1779 1407.36 64.7578 Q1408.9 66.3376 1413.56 66.3376 L1421.21 66.3376 L1421.21 72.576 L1413.56 72.576 Q1404.93 72.576 1401.65 69.3758 Q1398.37 66.1351 1398.37 57.6282 L1398.37 32.9987 L1392.9 32.9987 L1392.9 27.2059 L1398.37 27.2059 L1398.37 14.324 L1405.86 14.324 Z" fill="#000000" fill-rule="evenodd" fill-opacity="1" /><path clip-path="url(#clip860)" d="M1431.02 27.2059 L1438.47 27.2059 L1438.47 72.576 L1431.02 72.576 L1431.02 27.2059 M1431.02 9.54393 L1438.47 9.54393 L1438.47 18.9825 L1431.02 18.9825 L1431.02 9.54393 Z" fill="#000000" fill-rule="evenodd" fill-opacity="1" /><path clip-path="url(#clip860)" d="M1471.65 32.4315 Q1465.65 32.4315 1462.17 37.1306 Q1458.68 41.7891 1458.68 49.9314 Q1458.68 58.0738 1462.13 62.7728 Q1465.61 67.4314 1471.65 67.4314 Q1477.6 67.4314 1481.09 62.7323 Q1484.57 58.0333 1484.57 49.9314 Q1484.57 41.8701 1481.09 37.1711 Q1477.6 32.4315 1471.65 32.4315 M1471.65 26.1121 Q1481.37 26.1121 1486.92 32.4315 Q1492.47 38.7509 1492.47 49.9314 Q1492.47 61.0714 1486.92 67.4314 Q1481.37 73.7508 1471.65 73.7508 Q1461.89 73.7508 1456.34 67.4314 Q1450.83 61.0714 1450.83 49.9314 Q1450.83 38.7509 1456.34 32.4315 Q1461.89 26.1121 1471.65 26.1121 Z" fill="#000000" fill-rule="evenodd" fill-opacity="1" /><path clip-path="url(#clip860)" d="M1542.54 45.1919 L1542.54 72.576 L1535.08 72.576 L1535.08 45.4349 Q1535.08 38.994 1532.57 35.7938 Q1530.06 32.5936 1525.04 32.5936 Q1519 32.5936 1515.52 36.4419 Q1512.04 40.2903 1512.04 46.9338 L1512.04 72.576 L1504.54 72.576 L1504.54 27.2059 L1512.04 27.2059 L1512.04 34.2544 Q1514.71 30.163 1518.31 28.1376 Q1521.96 26.1121 1526.7 26.1121 Q1534.52 26.1121 1538.53 30.9732 Q1542.54 35.7938 1542.54 45.1919 Z" fill="#000000" fill-rule="evenodd" fill-opacity="1" /><polyline clip-path="url(#clip862)" style="stroke:#009af9; stroke-linecap:butt; stroke-linejoin:round; stroke-width:4; stroke-opacity:1; fill:none" points="
  208.117,162.047 215.546,703.733 222.975,933.113 230.405,1063.8 237.834,1148.96 245.263,1208.94 252.692,1253.36 260.122,1287.44 267.551,1314.28 274.98,1335.84 
  282.409,1353.42 289.839,1367.93 297.268,1380.03 304.697,1390.21 312.126,1398.81 319.556,1406.13 326.985,1412.37 334.414,1417.72 341.843,1422.32 349.273,1426.27 
  356.702,1429.68 364.131,1432.61 371.56,1435.14 378.99,1437.32 386.419,1439.19 393.848,1440.8 401.277,1442.17 408.707,1443.34 416.136,1444.33 423.565,1445.17 
  430.994,1445.87 438.424,1446.46 445.853,1446.94 453.282,1447.32 460.711,1447.63 468.141,1447.87 475.57,1447.69 482.999,1447.56 490.428,1447.48 497.858,1447.43 
  505.287,1447.42 512.716,1447.43 520.145,1447.46 527.575,1447.51 535.004,1447.57 542.433,1447.64 549.862,1447.71 557.292,1447.79 564.721,1447.87 572.15,1447.79 
  579.579,1447.72 587.009,1447.65 594.438,1447.59 601.867,1447.54 609.296,1447.51 616.725,1447.48 624.155,1447.47 631.584,1447.47 639.013,1447.49 646.442,1447.53 
  653.872,1447.59 661.301,1447.66 668.73,1447.76 676.159,1447.87 683.589,1447.74 691.018,1447.58 698.447,1447.4 705.876,1447.19 713.306,1446.97 720.735,1446.71 
  728.164,1446.44 735.593,1446.14 743.023,1445.82 750.452,1445.47 757.881,1445.09 765.31,1444.69 772.74,1444.27 780.169,1443.82 787.598,1443.34 795.027,1442.84 
  802.457,1442.31 809.886,1441.75 817.315,1441.17 824.744,1440.56 832.174,1439.92 839.603,1439.26 847.032,1438.57 854.461,1437.85 861.891,1437.11 869.32,1436.34 
  876.749,1435.55 884.178,1434.72 891.608,1433.87 899.037,1432.99 906.466,1432.09 913.895,1431.16 921.325,1430.2 928.754,1429.22 936.183,1428.2 943.612,1427.17 
  951.042,1426.1 958.471,1425.01 965.9,1423.89 973.329,1422.75 980.759,1421.58 988.188,1420.38 995.617,1419.16 1003.05,1417.91 1010.48,1416.63 1017.9,1415.33 
  1025.33,1414 1032.76,1412.64 1040.19,1411.26 1047.62,1409.86 1055.05,1408.42 1062.48,1406.97 1069.91,1405.48 1077.34,1403.97 1084.77,1402.44 1092.2,1400.88 
  1099.63,1399.29 1107.06,1397.68 1114.49,1396.05 1121.91,1394.39 1129.34,1392.7 1136.77,1390.99 1144.2,1389.25 1151.63,1387.49 1159.06,1385.71 1166.49,1383.9 
  1173.92,1382.07 1181.35,1380.21 1188.78,1378.32 1196.21,1376.42 1203.64,1374.49 1211.07,1372.53 1218.49,1370.55 1225.92,1368.55 1233.35,1366.52 1240.78,1364.47 
  1248.21,1362.39 1255.64,1360.3 1263.07,1358.17 1270.5,1356.03 1277.93,1353.86 1285.36,1351.67 1292.79,1349.45 1300.22,1347.21 1307.65,1344.95 1315.07,1342.67 
  1322.5,1340.36 1329.93,1338.03 1337.36,1335.68 1344.79,1333.3 1352.22,1330.91 1359.65,1328.49 1367.08,1326.04 1374.51,1323.58 1381.94,1321.09 1389.37,1318.58 
  1396.8,1316.05 1404.23,1313.5 1411.66,1310.92 1419.08,1308.32 1426.51,1305.71 1433.94,1303.06 1441.37,1300.4 1448.8,1297.72 1456.23,1295.01 1463.66,1292.29 
  1471.09,1289.54 1478.52,1286.77 1485.95,1283.98 1493.38,1281.16 1500.81,1278.33 1508.24,1275.48 1515.66,1272.6 1523.09,1269.71 1530.52,1266.79 1537.95,1263.85 
  1545.38,1260.89 1552.81,1257.92 1560.24,1254.92 1567.67,1251.9 1575.1,1248.86 1582.53,1245.8 1589.96,1242.72 1597.39,1239.61 1604.82,1236.49 1612.24,1233.35 
  1619.67,1230.19 1627.1,1227.01 1634.53,1223.81 1641.96,1220.59 1649.39,1217.35 1656.82,1214.09 1664.25,1210.81 1671.68,1207.51 1679.11,1204.19 1686.54,1200.85 
  
  "/>
<path clip-path="url(#clip860)" d="
M1804.33 272.585 L2352.76 272.585 L2352.76 168.905 L1804.33 168.905  Z
  " fill="#ffffff" fill-rule="evenodd" fill-opacity="1"/>
<polyline clip-path="url(#clip860)" style="stroke:#000000; stroke-linecap:butt; stroke-linejoin:round; stroke-width:4; stroke-opacity:1; fill:none" points="
  1804.33,272.585 2352.76,272.585 2352.76,168.905 1804.33,168.905 1804.33,272.585 
  "/>
<polyline clip-path="url(#clip860)" style="stroke:#009af9; stroke-linecap:butt; stroke-linejoin:round; stroke-width:4; stroke-opacity:1; fill:none" points="
  1828.74,220.745 1975.18,220.745 
  "/>
<path clip-path="url(#clip860)" d="M2014.78 216.08 Q2014.06 215.664 2013.2 215.478 Q2012.37 215.27 2011.35 215.27 Q2007.74 215.27 2005.8 217.631 Q2003.87 219.969 2003.87 224.367 L2003.87 238.025 L1999.59 238.025 L1999.59 212.099 L2003.87 212.099 L2003.87 216.127 Q2005.22 213.766 2007.37 212.631 Q2009.52 211.474 2012.6 211.474 Q2013.04 211.474 2013.57 211.543 Q2014.11 211.59 2014.75 211.705 L2014.78 216.08 Z" fill="#000000" fill-rule="evenodd" fill-opacity="1" /><path clip-path="url(#clip860)" d="M2040.38 223.997 L2040.38 226.08 L2020.79 226.08 Q2021.07 230.478 2023.43 232.793 Q2025.82 235.085 2030.05 235.085 Q2032.51 235.085 2034.8 234.483 Q2037.11 233.881 2039.38 232.677 L2039.38 236.705 Q2037.09 237.677 2034.68 238.187 Q2032.28 238.696 2029.8 238.696 Q2023.6 238.696 2019.96 235.085 Q2016.35 231.474 2016.35 225.316 Q2016.35 218.951 2019.78 215.224 Q2023.23 211.474 2029.06 211.474 Q2034.29 211.474 2037.32 214.853 Q2040.38 218.21 2040.38 223.997 M2036.12 222.747 Q2036.07 219.252 2034.15 217.168 Q2032.25 215.085 2029.11 215.085 Q2025.54 215.085 2023.39 217.099 Q2021.26 219.113 2020.93 222.77 L2036.12 222.747 Z" fill="#000000" fill-rule="evenodd" fill-opacity="1" /><path clip-path="url(#clip860)" d="M2047.37 202.006 L2051.63 202.006 L2051.63 238.025 L2047.37 238.025 L2047.37 202.006 Z" fill="#000000" fill-rule="evenodd" fill-opacity="1" /><path clip-path="url(#clip860)" d="M2072.32 224.992 Q2067.16 224.992 2065.17 226.173 Q2063.18 227.353 2063.18 230.201 Q2063.18 232.469 2064.66 233.812 Q2066.17 235.131 2068.73 235.131 Q2072.28 235.131 2074.41 232.631 Q2076.56 230.108 2076.56 225.941 L2076.56 224.992 L2072.32 224.992 M2080.82 223.233 L2080.82 238.025 L2076.56 238.025 L2076.56 234.089 Q2075.1 236.451 2072.92 237.585 Q2070.75 238.696 2067.6 238.696 Q2063.62 238.696 2061.26 236.474 Q2058.92 234.228 2058.92 230.478 Q2058.92 226.103 2061.84 223.881 Q2064.78 221.659 2070.59 221.659 L2076.56 221.659 L2076.56 221.242 Q2076.56 218.303 2074.61 216.705 Q2072.69 215.085 2069.2 215.085 Q2066.98 215.085 2064.87 215.617 Q2062.76 216.15 2060.82 217.215 L2060.82 213.279 Q2063.16 212.377 2065.35 211.937 Q2067.55 211.474 2069.64 211.474 Q2075.26 211.474 2078.04 214.391 Q2080.82 217.307 2080.82 223.233 Z" fill="#000000" fill-rule="evenodd" fill-opacity="1" /><path clip-path="url(#clip860)" d="M2093.8 204.738 L2093.8 212.099 L2102.58 212.099 L2102.58 215.409 L2093.8 215.409 L2093.8 229.483 Q2093.8 232.654 2094.66 233.557 Q2095.54 234.46 2098.2 234.46 L2102.58 234.46 L2102.58 238.025 L2098.2 238.025 Q2093.27 238.025 2091.4 236.196 Q2089.52 234.344 2089.52 229.483 L2089.52 215.409 L2086.4 215.409 L2086.4 212.099 L2089.52 212.099 L2089.52 204.738 L2093.8 204.738 Z" fill="#000000" fill-rule="evenodd" fill-opacity="1" /><path clip-path="url(#clip860)" d="M2108.18 212.099 L2112.44 212.099 L2112.44 238.025 L2108.18 238.025 L2108.18 212.099 M2108.18 202.006 L2112.44 202.006 L2112.44 207.4 L2108.18 207.4 L2108.18 202.006 Z" fill="#000000" fill-rule="evenodd" fill-opacity="1" /><path clip-path="url(#clip860)" d="M2118.29 212.099 L2122.81 212.099 L2130.91 233.858 L2139.01 212.099 L2143.53 212.099 L2133.8 238.025 L2128.02 238.025 L2118.29 212.099 Z" fill="#000000" fill-rule="evenodd" fill-opacity="1" /><path clip-path="url(#clip860)" d="M2171.58 223.997 L2171.58 226.08 L2152 226.08 Q2152.28 230.478 2154.64 232.793 Q2157.02 235.085 2161.26 235.085 Q2163.71 235.085 2166 234.483 Q2168.32 233.881 2170.59 232.677 L2170.59 236.705 Q2168.29 237.677 2165.89 238.187 Q2163.48 238.696 2161 238.696 Q2154.8 238.696 2151.16 235.085 Q2147.55 231.474 2147.55 225.316 Q2147.55 218.951 2150.98 215.224 Q2154.43 211.474 2160.26 211.474 Q2165.49 211.474 2168.53 214.853 Q2171.58 218.21 2171.58 223.997 M2167.32 222.747 Q2167.28 219.252 2165.35 217.168 Q2163.46 215.085 2160.31 215.085 Q2156.74 215.085 2154.59 217.099 Q2152.46 219.113 2152.14 222.77 L2167.32 222.747 Z" fill="#000000" fill-rule="evenodd" fill-opacity="1" /><path clip-path="url(#clip860)" d="M2215.82 223.997 L2215.82 226.08 L2196.23 226.08 Q2196.51 230.478 2198.87 232.793 Q2201.26 235.085 2205.49 235.085 Q2207.95 235.085 2210.24 234.483 Q2212.55 233.881 2214.82 232.677 L2214.82 236.705 Q2212.53 237.677 2210.12 238.187 Q2207.72 238.696 2205.24 238.696 Q2199.03 238.696 2195.4 235.085 Q2191.79 231.474 2191.79 225.316 Q2191.79 218.951 2195.22 215.224 Q2198.66 211.474 2204.5 211.474 Q2209.73 211.474 2212.76 214.853 Q2215.82 218.21 2215.82 223.997 M2211.56 222.747 Q2211.51 219.252 2209.59 217.168 Q2207.69 215.085 2204.54 215.085 Q2200.98 215.085 2198.83 217.099 Q2196.7 219.113 2196.37 222.77 L2211.56 222.747 Z" fill="#000000" fill-rule="evenodd" fill-opacity="1" /><path clip-path="url(#clip860)" d="M2237.83 216.08 Q2237.11 215.664 2236.26 215.478 Q2235.42 215.27 2234.4 215.27 Q2230.79 215.27 2228.85 217.631 Q2226.93 219.969 2226.93 224.367 L2226.93 238.025 L2222.65 238.025 L2222.65 212.099 L2226.93 212.099 L2226.93 216.127 Q2228.27 213.766 2230.42 212.631 Q2232.58 211.474 2235.65 211.474 Q2236.09 211.474 2236.63 211.543 Q2237.16 211.59 2237.81 211.705 L2237.83 216.08 Z" fill="#000000" fill-rule="evenodd" fill-opacity="1" /><path clip-path="url(#clip860)" d="M2256.49 216.08 Q2255.77 215.664 2254.91 215.478 Q2254.08 215.27 2253.06 215.27 Q2249.45 215.27 2247.51 217.631 Q2245.59 219.969 2245.59 224.367 L2245.59 238.025 L2241.3 238.025 L2241.3 212.099 L2245.59 212.099 L2245.59 216.127 Q2246.93 213.766 2249.08 212.631 Q2251.23 211.474 2254.31 211.474 Q2254.75 211.474 2255.28 211.543 Q2255.82 211.59 2256.47 211.705 L2256.49 216.08 Z" fill="#000000" fill-rule="evenodd" fill-opacity="1" /><path clip-path="url(#clip860)" d="M2269.96 215.085 Q2266.53 215.085 2264.54 217.77 Q2262.55 220.432 2262.55 225.085 Q2262.55 229.738 2264.52 232.423 Q2266.51 235.085 2269.96 235.085 Q2273.36 235.085 2275.35 232.4 Q2277.34 229.715 2277.34 225.085 Q2277.34 220.478 2275.35 217.793 Q2273.36 215.085 2269.96 215.085 M2269.96 211.474 Q2275.52 211.474 2278.69 215.085 Q2281.86 218.696 2281.86 225.085 Q2281.86 231.451 2278.69 235.085 Q2275.52 238.696 2269.96 238.696 Q2264.38 238.696 2261.21 235.085 Q2258.06 231.451 2258.06 225.085 Q2258.06 218.696 2261.21 215.085 Q2264.38 211.474 2269.96 211.474 Z" fill="#000000" fill-rule="evenodd" fill-opacity="1" /><path clip-path="url(#clip860)" d="M2303.94 216.08 Q2303.22 215.664 2302.37 215.478 Q2301.53 215.27 2300.52 215.27 Q2296.9 215.27 2294.96 217.631 Q2293.04 219.969 2293.04 224.367 L2293.04 238.025 L2288.76 238.025 L2288.76 212.099 L2293.04 212.099 L2293.04 216.127 Q2294.38 213.766 2296.53 212.631 Q2298.69 211.474 2301.77 211.474 Q2302.21 211.474 2302.74 211.543 Q2303.27 211.59 2303.92 211.705 L2303.94 216.08 Z" fill="#000000" fill-rule="evenodd" fill-opacity="1" /></svg>
