<?xml version="1.0" encoding="utf-8"?>
<svg xmlns="http://www.w3.org/2000/svg" xmlns:xlink="http://www.w3.org/1999/xlink" width="600" height="400" viewBox="0 0 2400 1600">
<defs>
  <clipPath id="clip020">
    <rect x="0" y="0" width="2400" height="1600"/>
  </clipPath>
</defs>
<path clip-path="url(#clip020)" d="
M0 1600 L2400 1600 L2400 0 L0 0  Z
  " fill="#ffffff" fill-rule="evenodd" fill-opacity="1"/>
<defs>
  <clipPath id="clip021">
    <rect x="480" y="0" width="1681" height="1600"/>
  </clipPath>
</defs>
<path clip-path="url(#clip020)" d="
M112.177 1486.45 L1724.77 1486.45 L1724.77 123.472 L112.177 123.472  Z
  " fill="#ffffff" fill-rule="evenodd" fill-opacity="1"/>
<defs>
  <clipPath id="clip022">
    <rect x="112" y="123" width="1614" height="1364"/>
  </clipPath>
</defs>
<polyline clip-path="url(#clip022)" style="stroke:#000000; stroke-linecap:butt; stroke-linejoin:round; stroke-width:2; stroke-opacity:0.1; fill:none" points="
  157.816,1486.45 157.816,123.472 
  "/>
<polyline clip-path="url(#clip022)" style="stroke:#000000; stroke-linecap:butt; stroke-linejoin:round; stroke-width:2; stroke-opacity:0.1; fill:none" points="
  462.079,1486.45 462.079,123.472 
  "/>
<polyline clip-path="url(#clip022)" style="stroke:#000000; stroke-linecap:butt; stroke-linejoin:round; stroke-width:2; stroke-opacity:0.1; fill:none" points="
  766.341,1486.45 766.341,123.472 
  "/>
<polyline clip-path="url(#clip022)" style="stroke:#000000; stroke-linecap:butt; stroke-linejoin:round; stroke-width:2; stroke-opacity:0.1; fill:none" points="
  1070.6,1486.45 1070.6,123.472 
  "/>
<polyline clip-path="url(#clip022)" style="stroke:#000000; stroke-linecap:butt; stroke-linejoin:round; stroke-width:2; stroke-opacity:0.1; fill:none" points="
  1374.87,1486.45 1374.87,123.472 
  "/>
<polyline clip-path="url(#clip022)" style="stroke:#000000; stroke-linecap:butt; stroke-linejoin:round; stroke-width:2; stroke-opacity:0.1; fill:none" points="
  1679.13,1486.45 1679.13,123.472 
  "/>
<polyline clip-path="url(#clip020)" style="stroke:#000000; stroke-linecap:butt; stroke-linejoin:round; stroke-width:4; stroke-opacity:1; fill:none" points="
  112.177,1486.45 1724.77,1486.45 
  "/>
<polyline clip-path="url(#clip020)" style="stroke:#000000; stroke-linecap:butt; stroke-linejoin:round; stroke-width:4; stroke-opacity:1; fill:none" points="
  157.816,1486.45 157.816,1467.55 
  "/>
<polyline clip-path="url(#clip020)" style="stroke:#000000; stroke-linecap:butt; stroke-linejoin:round; stroke-width:4; stroke-opacity:1; fill:none" points="
  462.079,1486.45 462.079,1467.55 
  "/>
<polyline clip-path="url(#clip020)" style="stroke:#000000; stroke-linecap:butt; stroke-linejoin:round; stroke-width:4; stroke-opacity:1; fill:none" points="
  766.341,1486.45 766.341,1467.55 
  "/>
<polyline clip-path="url(#clip020)" style="stroke:#000000; stroke-linecap:butt; stroke-linejoin:round; stroke-width:4; stroke-opacity:1; fill:none" points="
  1070.6,1486.45 1070.6,1467.55 
  "/>
<polyline clip-path="url(#clip020)" style="stroke:#000000; stroke-linecap:butt; stroke-linejoin:round; stroke-width:4; stroke-opacity:1; fill:none" points="
  1374.87,1486.45 1374.87,1467.55 
  "/>
<polyline clip-path="url(#clip020)" style="stroke:#000000; stroke-linecap:butt; stroke-linejoin:round; stroke-width:4; stroke-opacity:1; fill:none" points="
  1679.13,1486.45 1679.13,1467.55 
  "/>
<path clip-path="url(#clip020)" d="M157.816 1517.37 Q154.205 1517.37 152.377 1520.93 Q150.571 1524.47 150.571 1531.6 Q150.571 1538.71 152.377 1542.27 Q154.205 1545.82 157.816 1545.82 Q161.451 1545.82 163.256 1542.27 Q165.085 1538.71 165.085 1531.6 Q165.085 1524.47 163.256 1520.93 Q161.451 1517.37 157.816 1517.37 M157.816 1513.66 Q163.627 1513.66 166.682 1518.27 Q169.761 1522.85 169.761 1531.6 Q169.761 1540.33 166.682 1544.94 Q163.627 1549.52 157.816 1549.52 Q152.006 1549.52 148.928 1544.94 Q145.872 1540.33 145.872 1531.6 Q145.872 1522.85 148.928 1518.27 Q152.006 1513.66 157.816 1513.66 Z" fill="#000000" fill-rule="evenodd" fill-opacity="1" /><path clip-path="url(#clip020)" d="M436.778 1514.29 L455.134 1514.29 L455.134 1518.22 L441.06 1518.22 L441.06 1526.7 Q442.079 1526.35 443.097 1526.19 Q444.116 1526 445.134 1526 Q450.921 1526 454.301 1529.17 Q457.681 1532.34 457.681 1537.76 Q457.681 1543.34 454.208 1546.44 Q450.736 1549.52 444.417 1549.52 Q442.241 1549.52 439.972 1549.15 Q437.727 1548.78 435.32 1548.04 L435.32 1543.34 Q437.403 1544.47 439.625 1545.03 Q441.847 1545.58 444.324 1545.58 Q448.329 1545.58 450.667 1543.48 Q453.005 1541.37 453.005 1537.76 Q453.005 1534.15 450.667 1532.04 Q448.329 1529.94 444.324 1529.94 Q442.449 1529.94 440.574 1530.35 Q438.722 1530.77 436.778 1531.65 L436.778 1514.29 Z" fill="#000000" fill-rule="evenodd" fill-opacity="1" /><path clip-path="url(#clip020)" d="M476.893 1517.37 Q473.282 1517.37 471.454 1520.93 Q469.648 1524.47 469.648 1531.6 Q469.648 1538.71 471.454 1542.27 Q473.282 1545.82 476.893 1545.82 Q480.528 1545.82 482.333 1542.27 Q484.162 1538.71 484.162 1531.6 Q484.162 1524.47 482.333 1520.93 Q480.528 1517.37 476.893 1517.37 M476.893 1513.66 Q482.704 1513.66 485.759 1518.27 Q488.838 1522.85 488.838 1531.6 Q488.838 1540.33 485.759 1544.94 Q482.704 1549.52 476.893 1549.52 Q471.083 1549.52 468.005 1544.94 Q464.949 1540.33 464.949 1531.6 Q464.949 1522.85 468.005 1518.27 Q471.083 1513.66 476.893 1513.66 Z" fill="#000000" fill-rule="evenodd" fill-opacity="1" /><path clip-path="url(#clip020)" d="M725.947 1544.91 L733.586 1544.91 L733.586 1518.55 L725.276 1520.21 L725.276 1515.95 L733.54 1514.29 L738.216 1514.29 L738.216 1544.91 L745.855 1544.91 L745.855 1548.85 L725.947 1548.85 L725.947 1544.91 Z" fill="#000000" fill-rule="evenodd" fill-opacity="1" /><path clip-path="url(#clip020)" d="M765.299 1517.37 Q761.688 1517.37 759.859 1520.93 Q758.054 1524.47 758.054 1531.6 Q758.054 1538.71 759.859 1542.27 Q761.688 1545.82 765.299 1545.82 Q768.933 1545.82 770.739 1542.27 Q772.568 1538.71 772.568 1531.6 Q772.568 1524.47 770.739 1520.93 Q768.933 1517.37 765.299 1517.37 M765.299 1513.66 Q771.109 1513.66 774.165 1518.27 Q777.244 1522.85 777.244 1531.6 Q777.244 1540.33 774.165 1544.94 Q771.109 1549.52 765.299 1549.52 Q759.489 1549.52 756.41 1544.94 Q753.355 1540.33 753.355 1531.6 Q753.355 1522.85 756.41 1518.27 Q759.489 1513.66 765.299 1513.66 Z" fill="#000000" fill-rule="evenodd" fill-opacity="1" /><path clip-path="url(#clip020)" d="M795.461 1517.37 Q791.85 1517.37 790.021 1520.93 Q788.216 1524.47 788.216 1531.6 Q788.216 1538.71 790.021 1542.27 Q791.85 1545.82 795.461 1545.82 Q799.095 1545.82 800.901 1542.27 Q802.729 1538.71 802.729 1531.6 Q802.729 1524.47 800.901 1520.93 Q799.095 1517.37 795.461 1517.37 M795.461 1513.66 Q801.271 1513.66 804.327 1518.27 Q807.405 1522.85 807.405 1531.6 Q807.405 1540.33 804.327 1544.94 Q801.271 1549.52 795.461 1549.52 Q789.651 1549.52 786.572 1544.94 Q783.517 1540.33 783.517 1531.6 Q783.517 1522.85 786.572 1518.27 Q789.651 1513.66 795.461 1513.66 Z" fill="#000000" fill-rule="evenodd" fill-opacity="1" /><path clip-path="url(#clip020)" d="M1030.21 1544.91 L1037.85 1544.91 L1037.85 1518.55 L1029.54 1520.21 L1029.54 1515.95 L1037.8 1514.29 L1042.48 1514.29 L1042.48 1544.91 L1050.12 1544.91 L1050.12 1548.85 L1030.21 1548.85 L1030.21 1544.91 Z" fill="#000000" fill-rule="evenodd" fill-opacity="1" /><path clip-path="url(#clip020)" d="M1059.61 1514.29 L1077.96 1514.29 L1077.96 1518.22 L1063.89 1518.22 L1063.89 1526.7 Q1064.91 1526.35 1065.93 1526.19 Q1066.95 1526 1067.96 1526 Q1073.75 1526 1077.13 1529.17 Q1080.51 1532.34 1080.51 1537.76 Q1080.51 1543.34 1077.04 1546.44 Q1073.57 1549.52 1067.25 1549.52 Q1065.07 1549.52 1062.8 1549.15 Q1060.56 1548.78 1058.15 1548.04 L1058.15 1543.34 Q1060.23 1544.47 1062.45 1545.03 Q1064.68 1545.58 1067.15 1545.58 Q1071.16 1545.58 1073.5 1543.48 Q1075.83 1541.37 1075.83 1537.76 Q1075.83 1534.15 1073.5 1532.04 Q1071.16 1529.94 1067.15 1529.94 Q1065.28 1529.94 1063.4 1530.35 Q1061.55 1530.77 1059.61 1531.65 L1059.61 1514.29 Z" fill="#000000" fill-rule="evenodd" fill-opacity="1" /><path clip-path="url(#clip020)" d="M1099.72 1517.37 Q1096.11 1517.37 1094.28 1520.93 Q1092.48 1524.47 1092.48 1531.6 Q1092.48 1538.71 1094.28 1542.27 Q1096.11 1545.82 1099.72 1545.82 Q1103.36 1545.82 1105.16 1542.27 Q1106.99 1538.71 1106.99 1531.6 Q1106.99 1524.47 1105.16 1520.93 Q1103.36 1517.37 1099.72 1517.37 M1099.72 1513.66 Q1105.53 1513.66 1108.59 1518.27 Q1111.67 1522.85 1111.67 1531.6 Q1111.67 1540.33 1108.59 1544.94 Q1105.53 1549.52 1099.72 1549.52 Q1093.91 1549.52 1090.83 1544.94 Q1087.78 1540.33 1087.78 1531.6 Q1087.78 1522.85 1090.83 1518.27 Q1093.91 1513.66 1099.72 1513.66 Z" fill="#000000" fill-rule="evenodd" fill-opacity="1" /><path clip-path="url(#clip020)" d="M1338.56 1544.91 L1354.88 1544.91 L1354.88 1548.85 L1332.93 1548.85 L1332.93 1544.91 Q1335.59 1542.16 1340.18 1537.53 Q1344.78 1532.88 1345.96 1531.53 Q1348.21 1529.01 1349.09 1527.27 Q1349.99 1525.51 1349.99 1523.82 Q1349.99 1521.07 1348.05 1519.33 Q1346.13 1517.6 1343.02 1517.6 Q1340.83 1517.6 1338.37 1518.36 Q1335.94 1519.13 1333.16 1520.68 L1333.16 1515.95 Q1335.99 1514.82 1338.44 1514.24 Q1340.9 1513.66 1342.93 1513.66 Q1348.3 1513.66 1351.5 1516.35 Q1354.69 1519.03 1354.69 1523.52 Q1354.69 1525.65 1353.88 1527.57 Q1353.09 1529.47 1350.99 1532.07 Q1350.41 1532.74 1347.31 1535.95 Q1344.21 1539.15 1338.56 1544.91 Z" fill="#000000" fill-rule="evenodd" fill-opacity="1" /><path clip-path="url(#clip020)" d="M1374.69 1517.37 Q1371.08 1517.37 1369.25 1520.93 Q1367.45 1524.47 1367.45 1531.6 Q1367.45 1538.71 1369.25 1542.27 Q1371.08 1545.82 1374.69 1545.82 Q1378.33 1545.82 1380.13 1542.27 Q1381.96 1538.71 1381.96 1531.6 Q1381.96 1524.47 1380.13 1520.93 Q1378.33 1517.37 1374.69 1517.37 M1374.69 1513.66 Q1380.5 1513.66 1383.56 1518.27 Q1386.64 1522.85 1386.64 1531.6 Q1386.64 1540.33 1383.56 1544.94 Q1380.5 1549.52 1374.69 1549.52 Q1368.88 1549.52 1365.8 1544.94 Q1362.75 1540.33 1362.75 1531.6 Q1362.75 1522.85 1365.8 1518.27 Q1368.88 1513.66 1374.69 1513.66 Z" fill="#000000" fill-rule="evenodd" fill-opacity="1" /><path clip-path="url(#clip020)" d="M1404.85 1517.37 Q1401.24 1517.37 1399.41 1520.93 Q1397.61 1524.47 1397.61 1531.6 Q1397.61 1538.71 1399.41 1542.27 Q1401.24 1545.82 1404.85 1545.82 Q1408.49 1545.82 1410.29 1542.27 Q1412.12 1538.71 1412.12 1531.6 Q1412.12 1524.47 1410.29 1520.93 Q1408.49 1517.37 1404.85 1517.37 M1404.85 1513.66 Q1410.66 1513.66 1413.72 1518.27 Q1416.8 1522.85 1416.8 1531.6 Q1416.8 1540.33 1413.72 1544.94 Q1410.66 1549.52 1404.85 1549.52 Q1399.04 1549.52 1395.96 1544.94 Q1392.91 1540.33 1392.91 1531.6 Q1392.91 1522.85 1395.96 1518.27 Q1399.04 1513.66 1404.85 1513.66 Z" fill="#000000" fill-rule="evenodd" fill-opacity="1" /><path clip-path="url(#clip020)" d="M1642.82 1544.91 L1659.14 1544.91 L1659.14 1548.85 L1637.19 1548.85 L1637.19 1544.91 Q1639.86 1542.16 1644.44 1537.53 Q1649.05 1532.88 1650.23 1531.53 Q1652.47 1529.01 1653.35 1527.27 Q1654.25 1525.51 1654.25 1523.82 Q1654.25 1521.07 1652.31 1519.33 Q1650.39 1517.6 1647.29 1517.6 Q1645.09 1517.6 1642.63 1518.36 Q1640.2 1519.13 1637.43 1520.68 L1637.43 1515.95 Q1640.25 1514.82 1642.7 1514.24 Q1645.16 1513.66 1647.19 1513.66 Q1652.56 1513.66 1655.76 1516.35 Q1658.95 1519.03 1658.95 1523.52 Q1658.95 1525.65 1658.14 1527.57 Q1657.36 1529.47 1655.25 1532.07 Q1654.67 1532.74 1651.57 1535.95 Q1648.47 1539.15 1642.82 1544.91 Z" fill="#000000" fill-rule="evenodd" fill-opacity="1" /><path clip-path="url(#clip020)" d="M1669 1514.29 L1687.36 1514.29 L1687.36 1518.22 L1673.28 1518.22 L1673.28 1526.7 Q1674.3 1526.35 1675.32 1526.19 Q1676.34 1526 1677.36 1526 Q1683.14 1526 1686.52 1529.17 Q1689.9 1532.34 1689.9 1537.76 Q1689.9 1543.34 1686.43 1546.44 Q1682.96 1549.52 1676.64 1549.52 Q1674.46 1549.52 1672.19 1549.15 Q1669.95 1548.78 1667.54 1548.04 L1667.54 1543.34 Q1669.62 1544.47 1671.85 1545.03 Q1674.07 1545.58 1676.55 1545.58 Q1680.55 1545.58 1682.89 1543.48 Q1685.23 1541.37 1685.23 1537.76 Q1685.23 1534.15 1682.89 1532.04 Q1680.55 1529.94 1676.55 1529.94 Q1674.67 1529.94 1672.8 1530.35 Q1670.94 1530.77 1669 1531.65 L1669 1514.29 Z" fill="#000000" fill-rule="evenodd" fill-opacity="1" /><path clip-path="url(#clip020)" d="M1709.12 1517.37 Q1705.5 1517.37 1703.68 1520.93 Q1701.87 1524.47 1701.87 1531.6 Q1701.87 1538.71 1703.68 1542.27 Q1705.5 1545.82 1709.12 1545.82 Q1712.75 1545.82 1714.56 1542.27 Q1716.38 1538.71 1716.38 1531.6 Q1716.38 1524.47 1714.56 1520.93 Q1712.75 1517.37 1709.12 1517.37 M1709.12 1513.66 Q1714.93 1513.66 1717.98 1518.27 Q1721.06 1522.85 1721.06 1531.6 Q1721.06 1540.33 1717.98 1544.94 Q1714.93 1549.52 1709.12 1549.52 Q1703.31 1549.52 1700.23 1544.94 Q1697.17 1540.33 1697.17 1531.6 Q1697.17 1522.85 1700.23 1518.27 Q1703.31 1513.66 1709.12 1513.66 Z" fill="#000000" fill-rule="evenodd" fill-opacity="1" /><polyline clip-path="url(#clip022)" style="stroke:#000000; stroke-linecap:butt; stroke-linejoin:round; stroke-width:2; stroke-opacity:0.1; fill:none" points="
  112.177,1447.87 1724.77,1447.87 
  "/>
<polyline clip-path="url(#clip022)" style="stroke:#000000; stroke-linecap:butt; stroke-linejoin:round; stroke-width:2; stroke-opacity:0.1; fill:none" points="
  112.177,1147.69 1724.77,1147.69 
  "/>
<polyline clip-path="url(#clip022)" style="stroke:#000000; stroke-linecap:butt; stroke-linejoin:round; stroke-width:2; stroke-opacity:0.1; fill:none" points="
  112.177,847.514 1724.77,847.514 
  "/>
<polyline clip-path="url(#clip022)" style="stroke:#000000; stroke-linecap:butt; stroke-linejoin:round; stroke-width:2; stroke-opacity:0.1; fill:none" points="
  112.177,547.335 1724.77,547.335 
  "/>
<polyline clip-path="url(#clip022)" style="stroke:#000000; stroke-linecap:butt; stroke-linejoin:round; stroke-width:2; stroke-opacity:0.1; fill:none" points="
  112.177,247.155 1724.77,247.155 
  "/>
<polyline clip-path="url(#clip020)" style="stroke:#000000; stroke-linecap:butt; stroke-linejoin:round; stroke-width:4; stroke-opacity:1; fill:none" points="
  112.177,1486.45 112.177,123.472 
  "/>
<polyline clip-path="url(#clip020)" style="stroke:#000000; stroke-linecap:butt; stroke-linejoin:round; stroke-width:4; stroke-opacity:1; fill:none" points="
  112.177,1447.87 125.778,1447.87 
  "/>
<polyline clip-path="url(#clip020)" style="stroke:#000000; stroke-linecap:butt; stroke-linejoin:round; stroke-width:4; stroke-opacity:1; fill:none" points="
  112.177,1147.69 125.778,1147.69 
  "/>
<polyline clip-path="url(#clip020)" style="stroke:#000000; stroke-linecap:butt; stroke-linejoin:round; stroke-width:4; stroke-opacity:1; fill:none" points="
  112.177,847.514 125.778,847.514 
  "/>
<polyline clip-path="url(#clip020)" style="stroke:#000000; stroke-linecap:butt; stroke-linejoin:round; stroke-width:4; stroke-opacity:1; fill:none" points="
  112.177,547.335 125.778,547.335 
  "/>
<polyline clip-path="url(#clip020)" style="stroke:#000000; stroke-linecap:butt; stroke-linejoin:round; stroke-width:4; stroke-opacity:1; fill:none" points="
  112.177,247.155 125.778,247.155 
  "/>
<path clip-path="url(#clip020)" d="M64.2328 1433.67 Q60.6217 1433.67 58.793 1437.24 Q56.9875 1440.78 56.9875 1447.91 Q56.9875 1455.01 58.793 1458.58 Q60.6217 1462.12 64.2328 1462.12 Q67.867 1462.12 69.6726 1458.58 Q71.5013 1455.01 71.5013 1447.91 Q71.5013 1440.78 69.6726 1437.24 Q67.867 1433.67 64.2328 1433.67 M64.2328 1429.97 Q70.0429 1429.97 73.0985 1434.57 Q76.1772 1439.16 76.1772 1447.91 Q76.1772 1456.63 73.0985 1461.24 Q70.0429 1465.82 64.2328 1465.82 Q58.4226 1465.82 55.344 1461.24 Q52.2884 1456.63 52.2884 1447.91 Q52.2884 1439.16 55.344 1434.57 Q58.4226 1429.97 64.2328 1429.97 Z" fill="#000000" fill-rule="evenodd" fill-opacity="1" /><path clip-path="url(#clip020)" d="M56.2699 1161.04 L63.9087 1161.04 L63.9087 1134.67 L55.5986 1136.34 L55.5986 1132.08 L63.8624 1130.41 L68.5383 1130.41 L68.5383 1161.04 L76.1772 1161.04 L76.1772 1164.97 L56.2699 1164.97 L56.2699 1161.04 Z" fill="#000000" fill-rule="evenodd" fill-opacity="1" /><path clip-path="url(#clip020)" d="M59.8578 860.859 L76.1772 860.859 L76.1772 864.794 L54.2328 864.794 L54.2328 860.859 Q56.8949 858.104 61.4782 853.475 Q66.0846 848.822 67.2652 847.479 Q69.5105 844.956 70.3902 843.22 Q71.2929 841.461 71.2929 839.771 Q71.2929 837.017 69.3485 835.28 Q67.4272 833.544 64.3254 833.544 Q62.1263 833.544 59.6726 834.308 Q57.2421 835.072 54.4643 836.623 L54.4643 831.901 Q57.2884 830.767 59.7421 830.188 Q62.1958 829.609 64.2328 829.609 Q69.6031 829.609 72.7976 832.294 Q75.992 834.98 75.992 839.47 Q75.992 841.6 75.1818 843.521 Q74.3948 845.419 72.2883 848.012 Q71.7096 848.683 68.6078 851.901 Q65.5059 855.095 59.8578 860.859 Z" fill="#000000" fill-rule="evenodd" fill-opacity="1" /><path clip-path="url(#clip020)" d="M69.0476 545.981 Q72.404 546.698 74.279 548.967 Q76.1772 551.235 76.1772 554.568 Q76.1772 559.684 72.6587 562.485 Q69.1402 565.286 62.6587 565.286 Q60.4828 565.286 58.168 564.846 Q55.8764 564.43 53.4227 563.573 L53.4227 559.059 Q55.3671 560.193 57.6819 560.772 Q59.9967 561.351 62.5198 561.351 Q66.918 561.351 69.2096 559.615 Q71.5244 557.879 71.5244 554.568 Q71.5244 551.513 69.3717 549.8 Q67.242 548.064 63.4226 548.064 L59.3949 548.064 L59.3949 544.221 L63.6078 544.221 Q67.0569 544.221 68.8855 542.856 Q70.7142 541.467 70.7142 538.874 Q70.7142 536.212 68.8161 534.8 Q66.9411 533.365 63.4226 533.365 Q61.5013 533.365 59.3023 533.782 Q57.1032 534.198 54.4643 535.078 L54.4643 530.911 Q57.1264 530.17 59.4412 529.8 Q61.7791 529.43 63.8393 529.43 Q69.1633 529.43 72.2652 531.86 Q75.367 534.268 75.367 538.388 Q75.367 541.258 73.7235 543.249 Q72.08 545.217 69.0476 545.981 Z" fill="#000000" fill-rule="evenodd" fill-opacity="1" /><path clip-path="url(#clip020)" d="M66.5939 233.949 L54.7884 252.398 L66.5939 252.398 L66.5939 233.949 M65.367 229.875 L71.2466 229.875 L71.2466 252.398 L76.1772 252.398 L76.1772 256.287 L71.2466 256.287 L71.2466 264.435 L66.5939 264.435 L66.5939 256.287 L50.9921 256.287 L50.9921 251.773 L65.367 229.875 Z" fill="#000000" fill-rule="evenodd" fill-opacity="1" /><path clip-path="url(#clip020)" d="M319.546 12.096 L357.786 12.096 L357.786 18.9825 L327.728 18.9825 L327.728 36.8875 L356.53 36.8875 L356.53 43.7741 L327.728 43.7741 L327.728 65.6895 L358.515 65.6895 L358.515 72.576 L319.546 72.576 L319.546 12.096 Z" fill="#000000" fill-rule="evenodd" fill-opacity="1" /><path clip-path="url(#clip020)" d="M397.931 34.1734 Q396.675 33.4443 395.176 33.1202 Q393.718 32.7556 391.935 32.7556 Q385.616 32.7556 382.213 36.8875 Q378.851 40.9789 378.851 48.6757 L378.851 72.576 L371.357 72.576 L371.357 27.2059 L378.851 27.2059 L378.851 34.2544 Q381.2 30.1225 384.968 28.1376 Q388.735 26.1121 394.123 26.1121 Q394.892 26.1121 395.824 26.2337 Q396.756 26.3147 397.89 26.5172 L397.931 34.1734 Z" fill="#000000" fill-rule="evenodd" fill-opacity="1" /><path clip-path="url(#clip020)" d="M430.581 34.1734 Q429.325 33.4443 427.826 33.1202 Q426.368 32.7556 424.586 32.7556 Q418.266 32.7556 414.863 36.8875 Q411.501 40.9789 411.501 48.6757 L411.501 72.576 L404.007 72.576 L404.007 27.2059 L411.501 27.2059 L411.501 34.2544 Q413.851 30.1225 417.618 28.1376 Q421.385 26.1121 426.773 26.1121 Q427.543 26.1121 428.474 26.2337 Q429.406 26.3147 430.54 26.5172 L430.581 34.1734 Z" fill="#000000" fill-rule="evenodd" fill-opacity="1" /><path clip-path="url(#clip020)" d="M454.157 32.4315 Q448.162 32.4315 444.678 37.1306 Q441.194 41.7891 441.194 49.9314 Q441.194 58.0738 444.638 62.7728 Q448.121 67.4314 454.157 67.4314 Q460.112 67.4314 463.596 62.7323 Q467.08 58.0333 467.08 49.9314 Q467.08 41.8701 463.596 37.1711 Q460.112 32.4315 454.157 32.4315 M454.157 26.1121 Q463.879 26.1121 469.429 32.4315 Q474.979 38.7509 474.979 49.9314 Q474.979 61.0714 469.429 67.4314 Q463.879 73.7508 454.157 73.7508 Q444.395 73.7508 438.845 67.4314 Q433.336 61.0714 433.336 49.9314 Q433.336 38.7509 438.845 32.4315 Q444.395 26.1121 454.157 26.1121 Z" fill="#000000" fill-rule="evenodd" fill-opacity="1" /><path clip-path="url(#clip020)" d="M513.624 34.1734 Q512.369 33.4443 510.87 33.1202 Q509.412 32.7556 507.629 32.7556 Q501.31 32.7556 497.907 36.8875 Q494.545 40.9789 494.545 48.6757 L494.545 72.576 L487.051 72.576 L487.051 27.2059 L494.545 27.2059 L494.545 34.2544 Q496.894 30.1225 500.662 28.1376 Q504.429 26.1121 509.817 26.1121 Q510.586 26.1121 511.518 26.2337 Q512.45 26.3147 513.584 26.5172 L513.624 34.1734 Z" fill="#000000" fill-rule="evenodd" fill-opacity="1" /><path clip-path="url(#clip020)" d="M565.395 32.4315 Q559.4 32.4315 555.916 37.1306 Q552.432 41.7891 552.432 49.9314 Q552.432 58.0738 555.875 62.7728 Q559.359 67.4314 565.395 67.4314 Q571.35 67.4314 574.834 62.7323 Q578.317 58.0333 578.317 49.9314 Q578.317 41.8701 574.834 37.1711 Q571.35 32.4315 565.395 32.4315 M565.395 26.1121 Q575.117 26.1121 580.667 32.4315 Q586.217 38.7509 586.217 49.9314 Q586.217 61.0714 580.667 67.4314 Q575.117 73.7508 565.395 73.7508 Q555.632 73.7508 550.083 67.4314 Q544.573 61.0714 544.573 49.9314 Q544.573 38.7509 550.083 32.4315 Q555.632 26.1121 565.395 26.1121 Z" fill="#000000" fill-rule="evenodd" fill-opacity="1" /><path clip-path="url(#clip020)" d="M621.541 9.54393 L621.541 15.7418 L614.411 15.7418 Q610.401 15.7418 608.821 17.3622 Q607.281 18.9825 607.281 23.1955 L607.281 27.2059 L619.556 27.2059 L619.556 32.9987 L607.281 32.9987 L607.281 72.576 L599.787 72.576 L599.787 32.9987 L592.658 32.9987 L592.658 27.2059 L599.787 27.2059 L599.787 24.0462 Q599.787 16.471 603.312 13.0277 Q606.836 9.54393 614.492 9.54393 L621.541 9.54393 Z" fill="#000000" fill-rule="evenodd" fill-opacity="1" /><path clip-path="url(#clip020)" d="M679.995 39.9662 Q685.869 41.222 689.15 45.1919 Q692.472 49.1618 692.472 54.9951 Q692.472 63.9476 686.315 68.8492 Q680.157 73.7508 668.815 73.7508 Q665.007 73.7508 660.956 72.9811 Q656.945 72.2519 652.652 70.7531 L652.652 62.8538 Q656.054 64.8388 660.105 65.8515 Q664.156 66.8642 668.572 66.8642 Q676.268 66.8642 680.279 63.826 Q684.33 60.7879 684.33 54.9951 Q684.33 49.6479 680.562 46.6502 Q676.835 43.612 670.151 43.612 L663.103 43.612 L663.103 36.8875 L670.475 36.8875 Q676.511 36.8875 679.712 34.4975 Q682.912 32.067 682.912 27.5299 Q682.912 22.8714 679.59 20.4004 Q676.309 17.8888 670.151 17.8888 Q666.789 17.8888 662.941 18.618 Q659.092 19.3471 654.474 20.8865 L654.474 13.5948 Q659.133 12.2985 663.184 11.6504 Q667.275 11.0023 670.881 11.0023 Q680.198 11.0023 685.626 15.2557 Q691.054 19.4686 691.054 26.6793 Q691.054 31.7024 688.178 35.1862 Q685.302 38.6294 679.995 39.9662 Z" fill="#000000" fill-rule="evenodd" fill-opacity="1" /><path clip-path="url(#clip020)" d="M703.166 46.5287 L725.001 46.5287 L725.001 53.1722 L703.166 53.1722 L703.166 46.5287 Z" fill="#000000" fill-rule="evenodd" fill-opacity="1" /><path clip-path="url(#clip020)" d="M764.051 17.6457 Q755.139 17.6457 749.873 24.2892 Q744.648 30.9327 744.648 42.3968 Q744.648 53.8203 749.873 60.4638 Q755.139 67.1073 764.051 67.1073 Q772.963 67.1073 778.149 60.4638 Q783.374 53.8203 783.374 42.3968 Q783.374 30.9327 778.149 24.2892 Q772.963 17.6457 764.051 17.6457 M764.051 11.0023 Q776.771 11.0023 784.387 19.5497 Q792.003 28.0566 792.003 42.3968 Q792.003 56.6965 784.387 65.2439 Q776.771 73.7508 764.051 73.7508 Q751.291 73.7508 743.635 65.2439 Q736.019 56.737 736.019 42.3968 Q736.019 28.0566 743.635 19.5497 Q751.291 11.0023 764.051 11.0023 Z" fill="#000000" fill-rule="evenodd" fill-opacity="1" /><path clip-path="url(#clip020)" d="M830.77 34.1734 Q829.514 33.4443 828.015 33.1202 Q826.557 32.7556 824.774 32.7556 Q818.455 32.7556 815.052 36.8875 Q811.69 40.9789 811.69 48.6757 L811.69 72.576 L804.196 72.576 L804.196 27.2059 L811.69 27.2059 L811.69 34.2544 Q814.04 30.1225 817.807 28.1376 Q821.574 26.1121 826.962 26.1121 Q827.732 26.1121 828.663 26.2337 Q829.595 26.3147 830.729 26.5172 L830.77 34.1734 Z" fill="#000000" fill-rule="evenodd" fill-opacity="1" /><path clip-path="url(#clip020)" d="M866.985 34.0924 L866.985 9.54393 L874.439 9.54393 L874.439 72.576 L866.985 72.576 L866.985 65.7705 Q864.635 69.8214 861.03 71.8063 Q857.465 73.7508 852.442 73.7508 Q844.219 73.7508 839.034 67.1883 Q833.889 60.6258 833.889 49.9314 Q833.889 39.2371 839.034 32.6746 Q844.219 26.1121 852.442 26.1121 Q857.465 26.1121 861.03 28.0971 Q864.635 30.0415 866.985 34.0924 M841.586 49.9314 Q841.586 58.1548 844.948 62.8538 Q848.351 67.5124 854.265 67.5124 Q860.179 67.5124 863.582 62.8538 Q866.985 58.1548 866.985 49.9314 Q866.985 41.7081 863.582 37.0496 Q860.179 32.3505 854.265 32.3505 Q848.351 32.3505 844.948 37.0496 Q841.586 41.7081 841.586 49.9314 Z" fill="#000000" fill-rule="evenodd" fill-opacity="1" /><path clip-path="url(#clip020)" d="M928.599 48.0275 L928.599 51.6733 L894.328 51.6733 Q894.815 59.3701 898.946 63.421 Q903.119 67.4314 910.532 67.4314 Q914.826 67.4314 918.836 66.3781 Q922.887 65.3249 926.857 63.2184 L926.857 70.267 Q922.847 71.9684 918.634 72.8596 Q914.421 73.7508 910.086 73.7508 Q899.23 73.7508 892.87 67.4314 Q886.551 61.1119 886.551 50.3365 Q886.551 39.1965 892.546 32.6746 Q898.582 26.1121 908.79 26.1121 Q917.945 26.1121 923.252 32.0264 Q928.599 37.9003 928.599 48.0275 M921.145 45.84 Q921.064 39.7232 917.702 36.0774 Q914.38 32.4315 908.871 32.4315 Q902.633 32.4315 898.865 35.9558 Q895.139 39.4801 894.572 45.8805 L921.145 45.84 Z" fill="#000000" fill-rule="evenodd" fill-opacity="1" /><path clip-path="url(#clip020)" d="M967.123 34.1734 Q965.867 33.4443 964.369 33.1202 Q962.91 32.7556 961.128 32.7556 Q954.808 32.7556 951.406 36.8875 Q948.043 40.9789 948.043 48.6757 L948.043 72.576 L940.549 72.576 L940.549 27.2059 L948.043 27.2059 L948.043 34.2544 Q950.393 30.1225 954.16 28.1376 Q957.928 26.1121 963.315 26.1121 Q964.085 26.1121 965.017 26.2337 Q965.948 26.3147 967.083 26.5172 L967.123 34.1734 Z" fill="#000000" fill-rule="evenodd" fill-opacity="1" /><path clip-path="url(#clip020)" d="M1001.64 12.096 L1009.82 12.096 L1009.82 72.576 L1001.64 72.576 L1001.64 12.096 Z" fill="#000000" fill-rule="evenodd" fill-opacity="1" /><path clip-path="url(#clip020)" d="M1063.49 45.1919 L1063.49 72.576 L1056.04 72.576 L1056.04 45.4349 Q1056.04 38.994 1053.53 35.7938 Q1051.02 32.5936 1045.99 32.5936 Q1039.96 32.5936 1036.47 36.4419 Q1032.99 40.2903 1032.99 46.9338 L1032.99 72.576 L1025.5 72.576 L1025.5 27.2059 L1032.99 27.2059 L1032.99 34.2544 Q1035.66 30.163 1039.27 28.1376 Q1042.92 26.1121 1047.66 26.1121 Q1055.47 26.1121 1059.48 30.9732 Q1063.49 35.7938 1063.49 45.1919 Z" fill="#000000" fill-rule="evenodd" fill-opacity="1" /><path clip-path="url(#clip020)" d="M1085.73 14.324 L1085.73 27.2059 L1101.09 27.2059 L1101.09 32.9987 L1085.73 32.9987 L1085.73 57.6282 Q1085.73 63.1779 1087.23 64.7578 Q1088.77 66.3376 1093.43 66.3376 L1101.09 66.3376 L1101.09 72.576 L1093.43 72.576 Q1084.8 72.576 1081.52 69.3758 Q1078.24 66.1351 1078.24 57.6282 L1078.24 32.9987 L1072.77 32.9987 L1072.77 27.2059 L1078.24 27.2059 L1078.24 14.324 L1085.73 14.324 Z" fill="#000000" fill-rule="evenodd" fill-opacity="1" /><path clip-path="url(#clip020)" d="M1149.7 48.0275 L1149.7 51.6733 L1115.43 51.6733 Q1115.91 59.3701 1120.04 63.421 Q1124.22 67.4314 1131.63 67.4314 Q1135.92 67.4314 1139.93 66.3781 Q1143.99 65.3249 1147.96 63.2184 L1147.96 70.267 Q1143.95 71.9684 1139.73 72.8596 Q1135.52 73.7508 1131.18 73.7508 Q1120.33 73.7508 1113.97 67.4314 Q1107.65 61.1119 1107.65 50.3365 Q1107.65 39.1965 1113.64 32.6746 Q1119.68 26.1121 1129.89 26.1121 Q1139.04 26.1121 1144.35 32.0264 Q1149.7 37.9003 1149.7 48.0275 M1142.24 45.84 Q1142.16 39.7232 1138.8 36.0774 Q1135.48 32.4315 1129.97 32.4315 Q1123.73 32.4315 1119.96 35.9558 Q1116.24 39.4801 1115.67 45.8805 L1142.24 45.84 Z" fill="#000000" fill-rule="evenodd" fill-opacity="1" /><path clip-path="url(#clip020)" d="M1188.22 34.1734 Q1186.97 33.4443 1185.47 33.1202 Q1184.01 32.7556 1182.23 32.7556 Q1175.91 32.7556 1172.5 36.8875 Q1169.14 40.9789 1169.14 48.6757 L1169.14 72.576 L1161.65 72.576 L1161.65 27.2059 L1169.14 27.2059 L1169.14 34.2544 Q1171.49 30.1225 1175.26 28.1376 Q1179.03 26.1121 1184.41 26.1121 Q1185.18 26.1121 1186.12 26.2337 Q1187.05 26.3147 1188.18 26.5172 L1188.22 34.1734 Z" fill="#000000" fill-rule="evenodd" fill-opacity="1" /><path clip-path="url(#clip020)" d="M1203.25 65.7705 L1203.25 89.8329 L1195.76 89.8329 L1195.76 27.2059 L1203.25 27.2059 L1203.25 34.0924 Q1205.6 30.0415 1209.16 28.0971 Q1212.77 26.1121 1217.75 26.1121 Q1226.02 26.1121 1231.16 32.6746 Q1236.35 39.2371 1236.35 49.9314 Q1236.35 60.6258 1231.16 67.1883 Q1226.02 73.7508 1217.75 73.7508 Q1212.77 73.7508 1209.16 71.8063 Q1205.6 69.8214 1203.25 65.7705 M1228.61 49.9314 Q1228.61 41.7081 1225.21 37.0496 Q1221.84 32.3505 1215.93 32.3505 Q1210.02 32.3505 1206.61 37.0496 Q1203.25 41.7081 1203.25 49.9314 Q1203.25 58.1548 1206.61 62.8538 Q1210.02 67.5124 1215.93 67.5124 Q1221.84 67.5124 1225.21 62.8538 Q1228.61 58.1548 1228.61 49.9314 Z" fill="#000000" fill-rule="evenodd" fill-opacity="1" /><path clip-path="url(#clip020)" d="M1266.28 32.4315 Q1260.29 32.4315 1256.8 37.1306 Q1253.32 41.7891 1253.32 49.9314 Q1253.32 58.0738 1256.76 62.7728 Q1260.25 67.4314 1266.28 67.4314 Q1272.24 67.4314 1275.72 62.7323 Q1279.2 58.0333 1279.2 49.9314 Q1279.2 41.8701 1275.72 37.1711 Q1272.24 32.4315 1266.28 32.4315 M1266.28 26.1121 Q1276 26.1121 1281.55 32.4315 Q1287.1 38.7509 1287.1 49.9314 Q1287.1 61.0714 1281.55 67.4314 Q1276 73.7508 1266.28 73.7508 Q1256.52 73.7508 1250.97 67.4314 Q1245.46 61.0714 1245.46 49.9314 Q1245.46 38.7509 1250.97 32.4315 Q1256.52 26.1121 1266.28 26.1121 Z" fill="#000000" fill-rule="evenodd" fill-opacity="1" /><path clip-path="url(#clip020)" d="M1299.46 9.54393 L1306.91 9.54393 L1306.91 72.576 L1299.46 72.576 L1299.46 9.54393 Z" fill="#000000" fill-rule="evenodd" fill-opacity="1" /><path clip-path="url(#clip020)" d="M1343.13 49.7694 Q1334.09 49.7694 1330.61 51.8354 Q1327.13 53.9013 1327.13 58.8839 Q1327.13 62.8538 1329.72 65.2034 Q1332.35 67.5124 1336.85 67.5124 Q1343.05 67.5124 1346.77 63.1374 Q1350.54 58.7219 1350.54 51.4303 L1350.54 49.7694 L1343.13 49.7694 M1357.99 46.6907 L1357.99 72.576 L1350.54 72.576 L1350.54 65.6895 Q1347.99 69.8214 1344.18 71.8063 Q1340.37 73.7508 1334.86 73.7508 Q1327.9 73.7508 1323.76 69.8619 Q1319.67 65.9325 1319.67 59.3701 Q1319.67 51.7138 1324.78 47.825 Q1329.92 43.9361 1340.09 43.9361 L1350.54 43.9361 L1350.54 43.2069 Q1350.54 38.0623 1347.14 35.2672 Q1343.78 32.4315 1337.66 32.4315 Q1333.77 32.4315 1330.08 33.3632 Q1326.4 34.295 1323 36.1584 L1323 29.2718 Q1327.09 27.692 1330.93 26.9223 Q1334.78 26.1121 1338.43 26.1121 Q1348.27 26.1121 1353.13 31.2163 Q1357.99 36.3204 1357.99 46.6907 Z" fill="#000000" fill-rule="evenodd" fill-opacity="1" /><path clip-path="url(#clip020)" d="M1380.72 14.324 L1380.72 27.2059 L1396.07 27.2059 L1396.07 32.9987 L1380.72 32.9987 L1380.72 57.6282 Q1380.72 63.1779 1382.22 64.7578 Q1383.76 66.3376 1388.42 66.3376 L1396.07 66.3376 L1396.07 72.576 L1388.42 72.576 Q1379.79 72.576 1376.51 69.3758 Q1373.23 66.1351 1373.23 57.6282 L1373.23 32.9987 L1367.76 32.9987 L1367.76 27.2059 L1373.23 27.2059 L1373.23 14.324 L1380.72 14.324 Z" fill="#000000" fill-rule="evenodd" fill-opacity="1" /><path clip-path="url(#clip020)" d="M1405.88 27.2059 L1413.33 27.2059 L1413.33 72.576 L1405.88 72.576 L1405.88 27.2059 M1405.88 9.54393 L1413.33 9.54393 L1413.33 18.9825 L1405.88 18.9825 L1405.88 9.54393 Z" fill="#000000" fill-rule="evenodd" fill-opacity="1" /><path clip-path="url(#clip020)" d="M1446.51 32.4315 Q1440.51 32.4315 1437.03 37.1306 Q1433.54 41.7891 1433.54 49.9314 Q1433.54 58.0738 1436.99 62.7728 Q1440.47 67.4314 1446.51 67.4314 Q1452.46 67.4314 1455.95 62.7323 Q1459.43 58.0333 1459.43 49.9314 Q1459.43 41.8701 1455.95 37.1711 Q1452.46 32.4315 1446.51 32.4315 M1446.51 26.1121 Q1456.23 26.1121 1461.78 32.4315 Q1467.33 38.7509 1467.33 49.9314 Q1467.33 61.0714 1461.78 67.4314 Q1456.23 73.7508 1446.51 73.7508 Q1436.74 73.7508 1431.19 67.4314 Q1425.69 61.0714 1425.69 49.9314 Q1425.69 38.7509 1431.19 32.4315 Q1436.74 26.1121 1446.51 26.1121 Z" fill="#000000" fill-rule="evenodd" fill-opacity="1" /><path clip-path="url(#clip020)" d="M1517.4 45.1919 L1517.4 72.576 L1509.94 72.576 L1509.94 45.4349 Q1509.94 38.994 1507.43 35.7938 Q1504.92 32.5936 1499.9 32.5936 Q1493.86 32.5936 1490.38 36.4419 Q1486.89 40.2903 1486.89 46.9338 L1486.89 72.576 L1479.4 72.576 L1479.4 27.2059 L1486.89 27.2059 L1486.89 34.2544 Q1489.57 30.163 1493.17 28.1376 Q1496.82 26.1121 1501.56 26.1121 Q1509.38 26.1121 1513.39 30.9732 Q1517.4 35.7938 1517.4 45.1919 Z" fill="#000000" fill-rule="evenodd" fill-opacity="1" /><polyline clip-path="url(#clip022)" style="stroke:#009af9; stroke-linecap:butt; stroke-linejoin:round; stroke-width:4; stroke-opacity:1; fill:none" points="
  163.902,162.047 169.987,615.211 176.072,813.827 182.157,930.98 188.243,1010.09 194.328,1067.87 200.413,1112.3 206.498,1147.74 212.584,1176.78 218.669,1201.08 
  224.754,1221.76 230.839,1239.6 236.925,1255.18 243.01,1268.9 249.095,1281.09 255.18,1291.99 261.266,1301.81 267.351,1310.7 273.436,1318.78 279.521,1326.17 
  285.607,1332.94 291.692,1339.17 297.777,1344.93 303.862,1350.26 309.948,1355.21 316.033,1359.81 322.118,1364.11 328.203,1368.12 334.289,1371.88 340.374,1375.41 
  346.459,1378.73 352.544,1381.85 358.63,1384.79 364.715,1387.56 370.8,1390.19 376.885,1392.67 382.97,1395.02 389.056,1397.25 395.141,1399.36 401.226,1401.37 
  407.311,1403.28 413.397,1405.1 419.482,1406.83 425.567,1408.48 431.652,1410.05 437.738,1411.56 443.823,1412.99 449.908,1414.36 455.993,1415.67 462.079,1416.92 
  468.164,1418.12 474.249,1419.27 480.334,1420.37 486.42,1421.43 492.505,1422.44 498.59,1423.41 504.675,1424.34 510.761,1425.23 516.846,1426.09 522.931,1426.91 
  529.016,1427.71 535.102,1428.47 541.187,1429.2 547.272,1429.9 553.357,1430.58 559.443,1431.23 565.528,1431.86 571.613,1432.46 577.698,1433.04 583.783,1433.6 
  589.869,1434.14 595.954,1434.66 602.039,1435.16 608.124,1435.64 614.21,1436.11 620.295,1436.55 626.38,1436.99 632.465,1437.4 638.551,1437.8 644.636,1438.19 
  650.721,1438.56 656.806,1438.92 662.892,1439.27 668.977,1439.6 675.062,1439.93 681.147,1440.24 687.233,1440.54 693.318,1440.83 699.403,1441.11 705.488,1441.38 
  711.574,1441.64 717.659,1441.89 723.744,1442.13 729.829,1442.36 735.915,1442.59 742,1442.81 748.085,1443.02 754.17,1443.22 760.256,1443.41 766.341,1443.6 
  772.426,1443.78 778.511,1443.96 784.597,1444.13 790.682,1444.29 796.767,1444.44 802.852,1444.6 808.937,1444.74 815.023,1444.88 821.108,1445.02 827.193,1445.15 
  833.278,1445.27 839.364,1445.39 845.449,1445.51 851.534,1445.62 857.619,1445.73 863.705,1445.83 869.79,1445.93 875.875,1446.02 881.96,1446.12 888.046,1446.2 
  894.131,1446.29 900.216,1446.37 906.301,1446.45 912.387,1446.52 918.472,1446.6 924.557,1446.67 930.642,1446.73 936.728,1446.8 942.813,1446.86 948.898,1446.91 
  954.983,1446.97 961.069,1447.02 967.154,1447.08 973.239,1447.12 979.324,1447.17 985.41,1447.22 991.495,1447.26 997.58,1447.3 1003.67,1447.34 1009.75,1447.37 
  1015.84,1447.41 1021.92,1447.44 1028.01,1447.47 1034.09,1447.5 1040.18,1447.53 1046.26,1447.56 1052.35,1447.58 1058.43,1447.61 1064.52,1447.63 1070.6,1447.65 
  1076.69,1447.67 1082.77,1447.69 1088.86,1447.71 1094.94,1447.73 1101.03,1447.74 1107.11,1447.76 1113.2,1447.77 1119.28,1447.78 1125.37,1447.8 1131.46,1447.81 
  1137.54,1447.82 1143.63,1447.83 1149.71,1447.84 1155.8,1447.84 1161.88,1447.85 1167.97,1447.86 1174.05,1447.86 1180.14,1447.87 1186.22,1447.87 1192.31,1447.87 
  1198.39,1447.87 1204.48,1447.86 1210.56,1447.86 1216.65,1447.86 1222.73,1447.86 1228.82,1447.85 1234.9,1447.85 1240.99,1447.85 1247.07,1447.85 1253.16,1447.85 
  1259.25,1447.85 1265.33,1447.85 1271.42,1447.85 1277.5,1447.85 1283.59,1447.85 1289.67,1447.86 1295.76,1447.86 1301.84,1447.86 1307.93,1447.86 1314.01,1447.86 
  1320.1,1447.86 1326.18,1447.87 1332.27,1447.87 1338.35,1447.87 1344.44,1447.87 1350.52,1447.87 1356.61,1447.87 1362.69,1447.87 1368.78,1447.87 1374.87,1447.87 
  1380.95,1447.86 1387.04,1447.86 1393.12,1447.86 1399.21,1447.86 1405.29,1447.86 1411.38,1447.86 1417.46,1447.86 1423.55,1447.85 1429.63,1447.85 1435.72,1447.85 
  1441.8,1447.85 1447.89,1447.85 1453.97,1447.85 1460.06,1447.85 1466.14,1447.85 1472.23,1447.85 1478.31,1447.86 1484.4,1447.86 1490.48,1447.86 1496.57,1447.86 
  1502.66,1447.86 1508.74,1447.86 1514.83,1447.87 1520.91,1447.87 1527,1447.87 1533.08,1447.87 1539.17,1447.87 1545.25,1447.86 1551.34,1447.86 1557.42,1447.85 
  1563.51,1447.85 1569.59,1447.84 1575.68,1447.83 1581.76,1447.83 1587.85,1447.82 1593.93,1447.81 1600.02,1447.81 1606.1,1447.8 1612.19,1447.79 1618.27,1447.78 
  1624.36,1447.77 1630.45,1447.76 1636.53,1447.75 1642.62,1447.74 1648.7,1447.73 1654.79,1447.72 1660.87,1447.71 1666.96,1447.69 1673.04,1447.68 1679.13,1447.67 
  
  "/>
<path clip-path="url(#clip020)" d="
M1799.45 272.585 L2352.76 272.585 L2352.76 168.905 L1799.45 168.905  Z
  " fill="#ffffff" fill-rule="evenodd" fill-opacity="1"/>
<polyline clip-path="url(#clip020)" style="stroke:#000000; stroke-linecap:butt; stroke-linejoin:round; stroke-width:4; stroke-opacity:1; fill:none" points="
  1799.45,272.585 2352.76,272.585 2352.76,168.905 1799.45,168.905 1799.45,272.585 
  "/>
<polyline clip-path="url(#clip020)" style="stroke:#009af9; stroke-linecap:butt; stroke-linejoin:round; stroke-width:4; stroke-opacity:1; fill:none" points="
  1824.35,220.745 1973.72,220.745 
  "/>
<path clip-path="url(#clip020)" d="M2013.8 216.08 Q2013.08 215.664 2012.23 215.478 Q2011.39 215.27 2010.37 215.27 Q2006.76 215.27 2004.82 217.631 Q2002.9 219.969 2002.9 224.367 L2002.9 238.025 L1998.62 238.025 L1998.62 212.099 L2002.9 212.099 L2002.9 216.127 Q2004.24 213.766 2006.39 212.631 Q2008.55 211.474 2011.62 211.474 Q2012.06 211.474 2012.6 211.543 Q2013.13 211.59 2013.78 211.705 L2013.8 216.08 Z" fill="#000000" fill-rule="evenodd" fill-opacity="1" /><path clip-path="url(#clip020)" d="M2039.4 223.997 L2039.4 226.08 L2019.82 226.08 Q2020.1 230.478 2022.46 232.793 Q2024.84 235.085 2029.08 235.085 Q2031.53 235.085 2033.82 234.483 Q2036.14 233.881 2038.41 232.677 L2038.41 236.705 Q2036.11 237.677 2033.71 238.187 Q2031.3 238.696 2028.82 238.696 Q2022.62 238.696 2018.99 235.085 Q2015.37 231.474 2015.37 225.316 Q2015.37 218.951 2018.8 215.224 Q2022.25 211.474 2028.08 211.474 Q2033.31 211.474 2036.35 214.853 Q2039.4 218.21 2039.4 223.997 M2035.14 222.747 Q2035.1 219.252 2033.18 217.168 Q2031.28 215.085 2028.13 215.085 Q2024.56 215.085 2022.41 217.099 Q2020.28 219.113 2019.96 222.77 L2035.14 222.747 Z" fill="#000000" fill-rule="evenodd" fill-opacity="1" /><path clip-path="url(#clip020)" d="M2046.39 202.006 L2050.65 202.006 L2050.65 238.025 L2046.39 238.025 L2046.39 202.006 Z" fill="#000000" fill-rule="evenodd" fill-opacity="1" /><path clip-path="url(#clip020)" d="M2071.35 224.992 Q2066.18 224.992 2064.19 226.173 Q2062.2 227.353 2062.2 230.201 Q2062.2 232.469 2063.68 233.812 Q2065.19 235.131 2067.76 235.131 Q2071.3 235.131 2073.43 232.631 Q2075.58 230.108 2075.58 225.941 L2075.58 224.992 L2071.35 224.992 M2079.84 223.233 L2079.84 238.025 L2075.58 238.025 L2075.58 234.089 Q2074.12 236.451 2071.95 237.585 Q2069.77 238.696 2066.62 238.696 Q2062.64 238.696 2060.28 236.474 Q2057.94 234.228 2057.94 230.478 Q2057.94 226.103 2060.86 223.881 Q2063.8 221.659 2069.61 221.659 L2075.58 221.659 L2075.58 221.242 Q2075.58 218.303 2073.64 216.705 Q2071.72 215.085 2068.22 215.085 Q2066 215.085 2063.89 215.617 Q2061.79 216.15 2059.84 217.215 L2059.84 213.279 Q2062.18 212.377 2064.38 211.937 Q2066.58 211.474 2068.66 211.474 Q2074.29 211.474 2077.06 214.391 Q2079.84 217.307 2079.84 223.233 Z" fill="#000000" fill-rule="evenodd" fill-opacity="1" /><path clip-path="url(#clip020)" d="M2092.83 204.738 L2092.83 212.099 L2101.6 212.099 L2101.6 215.409 L2092.83 215.409 L2092.83 229.483 Q2092.83 232.654 2093.68 233.557 Q2094.56 234.46 2097.23 234.46 L2101.6 234.46 L2101.6 238.025 L2097.23 238.025 Q2092.3 238.025 2090.42 236.196 Q2088.55 234.344 2088.55 229.483 L2088.55 215.409 L2085.42 215.409 L2085.42 212.099 L2088.55 212.099 L2088.55 204.738 L2092.83 204.738 Z" fill="#000000" fill-rule="evenodd" fill-opacity="1" /><path clip-path="url(#clip020)" d="M2107.2 212.099 L2111.46 212.099 L2111.46 238.025 L2107.2 238.025 L2107.2 212.099 M2107.2 202.006 L2111.46 202.006 L2111.46 207.4 L2107.2 207.4 L2107.2 202.006 Z" fill="#000000" fill-rule="evenodd" fill-opacity="1" /><path clip-path="url(#clip020)" d="M2117.32 212.099 L2121.83 212.099 L2129.93 233.858 L2138.04 212.099 L2142.55 212.099 L2132.83 238.025 L2127.04 238.025 L2117.32 212.099 Z" fill="#000000" fill-rule="evenodd" fill-opacity="1" /><path clip-path="url(#clip020)" d="M2170.6 223.997 L2170.6 226.08 L2151.02 226.08 Q2151.3 230.478 2153.66 232.793 Q2156.04 235.085 2160.28 235.085 Q2162.73 235.085 2165.03 234.483 Q2167.34 233.881 2169.61 232.677 L2169.61 236.705 Q2167.32 237.677 2164.91 238.187 Q2162.5 238.696 2160.03 238.696 Q2153.82 238.696 2150.19 235.085 Q2146.58 231.474 2146.58 225.316 Q2146.58 218.951 2150 215.224 Q2153.45 211.474 2159.29 211.474 Q2164.52 211.474 2167.55 214.853 Q2170.6 218.21 2170.6 223.997 M2166.35 222.747 Q2166.3 219.252 2164.38 217.168 Q2162.48 215.085 2159.33 215.085 Q2155.77 215.085 2153.61 217.099 Q2151.48 219.113 2151.16 222.77 L2166.35 222.747 Z" fill="#000000" fill-rule="evenodd" fill-opacity="1" /><path clip-path="url(#clip020)" d="M2214.84 223.997 L2214.84 226.08 L2195.26 226.08 Q2195.54 230.478 2197.9 232.793 Q2200.28 235.085 2204.52 235.085 Q2206.97 235.085 2209.26 234.483 Q2211.58 233.881 2213.85 232.677 L2213.85 236.705 Q2211.55 237.677 2209.15 238.187 Q2206.74 238.696 2204.26 238.696 Q2198.06 238.696 2194.42 235.085 Q2190.81 231.474 2190.81 225.316 Q2190.81 218.951 2194.24 215.224 Q2197.69 211.474 2203.52 211.474 Q2208.75 211.474 2211.79 214.853 Q2214.84 218.21 2214.84 223.997 M2210.58 222.747 Q2210.54 219.252 2208.61 217.168 Q2206.72 215.085 2203.57 215.085 Q2200 215.085 2197.85 217.099 Q2195.72 219.113 2195.4 222.77 L2210.58 222.747 Z" fill="#000000" fill-rule="evenodd" fill-opacity="1" /><path clip-path="url(#clip020)" d="M2236.85 216.08 Q2236.14 215.664 2235.28 215.478 Q2234.45 215.27 2233.43 215.27 Q2229.82 215.27 2227.87 217.631 Q2225.95 219.969 2225.95 224.367 L2225.95 238.025 L2221.67 238.025 L2221.67 212.099 L2225.95 212.099 L2225.95 216.127 Q2227.29 213.766 2229.45 212.631 Q2231.6 211.474 2234.68 211.474 Q2235.12 211.474 2235.65 211.543 Q2236.18 211.59 2236.83 211.705 L2236.85 216.08 Z" fill="#000000" fill-rule="evenodd" fill-opacity="1" /><path clip-path="url(#clip020)" d="M2255.51 216.08 Q2254.79 215.664 2253.94 215.478 Q2253.1 215.27 2252.09 215.27 Q2248.47 215.27 2246.53 217.631 Q2244.61 219.969 2244.61 224.367 L2244.61 238.025 L2240.33 238.025 L2240.33 212.099 L2244.61 212.099 L2244.61 216.127 Q2245.95 213.766 2248.1 212.631 Q2250.26 211.474 2253.34 211.474 Q2253.78 211.474 2254.31 211.543 Q2254.84 211.59 2255.49 211.705 L2255.51 216.08 Z" fill="#000000" fill-rule="evenodd" fill-opacity="1" /><path clip-path="url(#clip020)" d="M2268.98 215.085 Q2265.56 215.085 2263.57 217.77 Q2261.58 220.432 2261.58 225.085 Q2261.58 229.738 2263.54 232.423 Q2265.53 235.085 2268.98 235.085 Q2272.39 235.085 2274.38 232.4 Q2276.37 229.715 2276.37 225.085 Q2276.37 220.478 2274.38 217.793 Q2272.39 215.085 2268.98 215.085 M2268.98 211.474 Q2274.54 211.474 2277.71 215.085 Q2280.88 218.696 2280.88 225.085 Q2280.88 231.451 2277.71 235.085 Q2274.54 238.696 2268.98 238.696 Q2263.41 238.696 2260.23 235.085 Q2257.09 231.451 2257.09 225.085 Q2257.09 218.696 2260.23 215.085 Q2263.41 211.474 2268.98 211.474 Z" fill="#000000" fill-rule="evenodd" fill-opacity="1" /><path clip-path="url(#clip020)" d="M2302.97 216.08 Q2302.25 215.664 2301.39 215.478 Q2300.56 215.27 2299.54 215.27 Q2295.93 215.27 2293.98 217.631 Q2292.06 219.969 2292.06 224.367 L2292.06 238.025 L2287.78 238.025 L2287.78 212.099 L2292.06 212.099 L2292.06 216.127 Q2293.41 213.766 2295.56 212.631 Q2297.71 211.474 2300.79 211.474 Q2301.23 211.474 2301.76 211.543 Q2302.29 211.59 2302.94 211.705 L2302.97 216.08 Z" fill="#000000" fill-rule="evenodd" fill-opacity="1" /></svg>
