<?xml version="1.0" encoding="utf-8"?>
<svg xmlns="http://www.w3.org/2000/svg" xmlns:xlink="http://www.w3.org/1999/xlink" width="600" height="400" viewBox="0 0 2400 1600">
<defs>
  <clipPath id="clip620">
    <rect x="0" y="0" width="2400" height="1600"/>
  </clipPath>
</defs>
<path clip-path="url(#clip620)" d="
M0 1600 L2400 1600 L2400 0 L0 0  Z
  " fill="#ffffff" fill-rule="evenodd" fill-opacity="1"/>
<defs>
  <clipPath id="clip621">
    <rect x="480" y="0" width="1681" height="1600"/>
  </clipPath>
</defs>
<path clip-path="url(#clip620)" d="
M169.121 1486.45 L1732.99 1486.45 L1732.99 123.472 L169.121 123.472  Z
  " fill="#ffffff" fill-rule="evenodd" fill-opacity="1"/>
<defs>
  <clipPath id="clip622">
    <rect x="169" y="123" width="1565" height="1364"/>
  </clipPath>
</defs>
<polyline clip-path="url(#clip622)" style="stroke:#000000; stroke-linecap:butt; stroke-linejoin:round; stroke-width:2; stroke-opacity:0.1; fill:none" points="
  383.614,1486.45 383.614,123.472 
  "/>
<polyline clip-path="url(#clip622)" style="stroke:#000000; stroke-linecap:butt; stroke-linejoin:round; stroke-width:2; stroke-opacity:0.1; fill:none" points="
  667.335,1486.45 667.335,123.472 
  "/>
<polyline clip-path="url(#clip622)" style="stroke:#000000; stroke-linecap:butt; stroke-linejoin:round; stroke-width:2; stroke-opacity:0.1; fill:none" points="
  951.057,1486.45 951.057,123.472 
  "/>
<polyline clip-path="url(#clip622)" style="stroke:#000000; stroke-linecap:butt; stroke-linejoin:round; stroke-width:2; stroke-opacity:0.1; fill:none" points="
  1234.78,1486.45 1234.78,123.472 
  "/>
<polyline clip-path="url(#clip622)" style="stroke:#000000; stroke-linecap:butt; stroke-linejoin:round; stroke-width:2; stroke-opacity:0.1; fill:none" points="
  1518.5,1486.45 1518.5,123.472 
  "/>
<polyline clip-path="url(#clip620)" style="stroke:#000000; stroke-linecap:butt; stroke-linejoin:round; stroke-width:4; stroke-opacity:1; fill:none" points="
  169.121,1486.45 1732.99,1486.45 
  "/>
<polyline clip-path="url(#clip620)" style="stroke:#000000; stroke-linecap:butt; stroke-linejoin:round; stroke-width:4; stroke-opacity:1; fill:none" points="
  383.614,1486.45 383.614,1467.55 
  "/>
<polyline clip-path="url(#clip620)" style="stroke:#000000; stroke-linecap:butt; stroke-linejoin:round; stroke-width:4; stroke-opacity:1; fill:none" points="
  667.335,1486.45 667.335,1467.55 
  "/>
<polyline clip-path="url(#clip620)" style="stroke:#000000; stroke-linecap:butt; stroke-linejoin:round; stroke-width:4; stroke-opacity:1; fill:none" points="
  951.057,1486.45 951.057,1467.55 
  "/>
<polyline clip-path="url(#clip620)" style="stroke:#000000; stroke-linecap:butt; stroke-linejoin:round; stroke-width:4; stroke-opacity:1; fill:none" points="
  1234.78,1486.45 1234.78,1467.55 
  "/>
<polyline clip-path="url(#clip620)" style="stroke:#000000; stroke-linecap:butt; stroke-linejoin:round; stroke-width:4; stroke-opacity:1; fill:none" points="
  1518.5,1486.45 1518.5,1467.55 
  "/>
<path clip-path="url(#clip620)" d="M352.515 1532.02 L382.191 1532.02 L382.191 1535.95 L352.515 1535.95 L352.515 1532.02 Z" fill="#000000" fill-rule="evenodd" fill-opacity="1" /><path clip-path="url(#clip620)" d="M405.131 1518.36 L393.325 1536.81 L405.131 1536.81 L405.131 1518.36 M403.904 1514.29 L409.783 1514.29 L409.783 1536.81 L414.714 1536.81 L414.714 1540.7 L409.783 1540.7 L409.783 1548.85 L405.131 1548.85 L405.131 1540.7 L389.529 1540.7 L389.529 1536.19 L403.904 1514.29 Z" fill="#000000" fill-rule="evenodd" fill-opacity="1" /><path clip-path="url(#clip620)" d="M637.278 1532.02 L666.954 1532.02 L666.954 1535.95 L637.278 1535.95 L637.278 1532.02 Z" fill="#000000" fill-rule="evenodd" fill-opacity="1" /><path clip-path="url(#clip620)" d="M681.074 1544.91 L697.393 1544.91 L697.393 1548.85 L675.449 1548.85 L675.449 1544.91 Q678.111 1542.16 682.694 1537.53 Q687.301 1532.88 688.481 1531.53 Q690.727 1529.01 691.606 1527.27 Q692.509 1525.51 692.509 1523.82 Q692.509 1521.07 690.565 1519.33 Q688.643 1517.6 685.541 1517.6 Q683.342 1517.6 680.889 1518.36 Q678.458 1519.13 675.68 1520.68 L675.68 1515.95 Q678.504 1514.82 680.958 1514.24 Q683.412 1513.66 685.449 1513.66 Q690.819 1513.66 694.014 1516.35 Q697.208 1519.03 697.208 1523.52 Q697.208 1525.65 696.398 1527.57 Q695.611 1529.47 693.504 1532.07 Q692.926 1532.74 689.824 1535.95 Q686.722 1539.15 681.074 1544.91 Z" fill="#000000" fill-rule="evenodd" fill-opacity="1" /><path clip-path="url(#clip620)" d="M951.057 1517.37 Q947.445 1517.37 945.617 1520.93 Q943.811 1524.47 943.811 1531.6 Q943.811 1538.71 945.617 1542.27 Q947.445 1545.82 951.057 1545.82 Q954.691 1545.82 956.496 1542.27 Q958.325 1538.71 958.325 1531.6 Q958.325 1524.47 956.496 1520.93 Q954.691 1517.37 951.057 1517.37 M951.057 1513.66 Q956.867 1513.66 959.922 1518.27 Q963.001 1522.85 963.001 1531.6 Q963.001 1540.33 959.922 1544.94 Q956.867 1549.52 951.057 1549.52 Q945.246 1549.52 942.168 1544.94 Q939.112 1540.33 939.112 1531.6 Q939.112 1522.85 942.168 1518.27 Q945.246 1513.66 951.057 1513.66 Z" fill="#000000" fill-rule="evenodd" fill-opacity="1" /><path clip-path="url(#clip620)" d="M1229.43 1544.91 L1245.75 1544.91 L1245.75 1548.85 L1223.81 1548.85 L1223.81 1544.91 Q1226.47 1542.16 1231.05 1537.53 Q1235.66 1532.88 1236.84 1531.53 Q1239.08 1529.01 1239.96 1527.27 Q1240.87 1525.51 1240.87 1523.82 Q1240.87 1521.07 1238.92 1519.33 Q1237 1517.6 1233.9 1517.6 Q1231.7 1517.6 1229.25 1518.36 Q1226.81 1519.13 1224.04 1520.68 L1224.04 1515.95 Q1226.86 1514.82 1229.31 1514.24 Q1231.77 1513.66 1233.81 1513.66 Q1239.18 1513.66 1242.37 1516.35 Q1245.56 1519.03 1245.56 1523.52 Q1245.56 1525.65 1244.75 1527.57 Q1243.97 1529.47 1241.86 1532.07 Q1241.28 1532.74 1238.18 1535.95 Q1235.08 1539.15 1229.43 1544.91 Z" fill="#000000" fill-rule="evenodd" fill-opacity="1" /><path clip-path="url(#clip620)" d="M1521.51 1518.36 L1509.7 1536.81 L1521.51 1536.81 L1521.51 1518.36 M1520.28 1514.29 L1526.16 1514.29 L1526.16 1536.81 L1531.09 1536.81 L1531.09 1540.7 L1526.16 1540.7 L1526.16 1548.85 L1521.51 1548.85 L1521.51 1540.7 L1505.91 1540.7 L1505.91 1536.19 L1520.28 1514.29 Z" fill="#000000" fill-rule="evenodd" fill-opacity="1" /><polyline clip-path="url(#clip622)" style="stroke:#000000; stroke-linecap:butt; stroke-linejoin:round; stroke-width:2; stroke-opacity:0.1; fill:none" points="
  169.121,1447.87 1732.99,1447.87 
  "/>
<polyline clip-path="url(#clip622)" style="stroke:#000000; stroke-linecap:butt; stroke-linejoin:round; stroke-width:2; stroke-opacity:0.1; fill:none" points="
  169.121,1016.74 1732.99,1016.74 
  "/>
<polyline clip-path="url(#clip622)" style="stroke:#000000; stroke-linecap:butt; stroke-linejoin:round; stroke-width:2; stroke-opacity:0.1; fill:none" points="
  169.121,585.612 1732.99,585.612 
  "/>
<polyline clip-path="url(#clip622)" style="stroke:#000000; stroke-linecap:butt; stroke-linejoin:round; stroke-width:2; stroke-opacity:0.1; fill:none" points="
  169.121,154.482 1732.99,154.482 
  "/>
<polyline clip-path="url(#clip620)" style="stroke:#000000; stroke-linecap:butt; stroke-linejoin:round; stroke-width:4; stroke-opacity:1; fill:none" points="
  169.121,1486.45 169.121,123.472 
  "/>
<polyline clip-path="url(#clip620)" style="stroke:#000000; stroke-linecap:butt; stroke-linejoin:round; stroke-width:4; stroke-opacity:1; fill:none" points="
  169.121,1447.87 182.655,1447.87 
  "/>
<polyline clip-path="url(#clip620)" style="stroke:#000000; stroke-linecap:butt; stroke-linejoin:round; stroke-width:4; stroke-opacity:1; fill:none" points="
  169.121,1016.74 182.655,1016.74 
  "/>
<polyline clip-path="url(#clip620)" style="stroke:#000000; stroke-linecap:butt; stroke-linejoin:round; stroke-width:4; stroke-opacity:1; fill:none" points="
  169.121,585.612 182.655,585.612 
  "/>
<polyline clip-path="url(#clip620)" style="stroke:#000000; stroke-linecap:butt; stroke-linejoin:round; stroke-width:4; stroke-opacity:1; fill:none" points="
  169.121,154.482 182.655,154.482 
  "/>
<path clip-path="url(#clip620)" d="M121.177 1433.67 Q117.566 1433.67 115.737 1437.24 Q113.932 1440.78 113.932 1447.91 Q113.932 1455.01 115.737 1458.58 Q117.566 1462.12 121.177 1462.12 Q124.811 1462.12 126.617 1458.58 Q128.445 1455.01 128.445 1447.91 Q128.445 1440.78 126.617 1437.24 Q124.811 1433.67 121.177 1433.67 M121.177 1429.97 Q126.987 1429.97 130.043 1434.57 Q133.121 1439.16 133.121 1447.91 Q133.121 1456.63 130.043 1461.24 Q126.987 1465.82 121.177 1465.82 Q115.367 1465.82 112.288 1461.24 Q109.233 1456.63 109.233 1447.91 Q109.233 1439.16 112.288 1434.57 Q115.367 1429.97 121.177 1429.97 Z" fill="#000000" fill-rule="evenodd" fill-opacity="1" /><path clip-path="url(#clip620)" d="M81.0614 999.463 L99.4178 999.463 L99.4178 1003.4 L85.3438 1003.4 L85.3438 1011.87 Q86.3623 1011.52 87.3808 1011.36 Q88.3993 1011.18 89.4178 1011.18 Q95.2049 1011.18 98.5845 1014.35 Q101.964 1017.52 101.964 1022.93 Q101.964 1028.51 98.4919 1031.62 Q95.0197 1034.69 88.7003 1034.69 Q86.5243 1034.69 84.2558 1034.32 Q82.0105 1033.95 79.6031 1033.21 L79.6031 1028.51 Q81.6864 1029.65 83.9086 1030.2 Q86.1308 1030.76 88.6077 1030.76 Q92.6123 1030.76 94.9502 1028.65 Q97.2882 1026.55 97.2882 1022.93 Q97.2882 1019.32 94.9502 1017.22 Q92.6123 1015.11 88.6077 1015.11 Q86.7327 1015.11 84.8577 1015.53 Q83.0058 1015.94 81.0614 1016.82 L81.0614 999.463 Z" fill="#000000" fill-rule="evenodd" fill-opacity="1" /><path clip-path="url(#clip620)" d="M121.177 1002.54 Q117.566 1002.54 115.737 1006.11 Q113.932 1009.65 113.932 1016.78 Q113.932 1023.88 115.737 1027.45 Q117.566 1030.99 121.177 1030.99 Q124.811 1030.99 126.617 1027.45 Q128.445 1023.88 128.445 1016.78 Q128.445 1009.65 126.617 1006.11 Q124.811 1002.54 121.177 1002.54 M121.177 998.838 Q126.987 998.838 130.043 1003.44 Q133.121 1008.03 133.121 1016.78 Q133.121 1025.5 130.043 1030.11 Q126.987 1034.69 121.177 1034.69 Q115.367 1034.69 112.288 1030.11 Q109.233 1025.5 109.233 1016.78 Q109.233 1008.03 112.288 1003.44 Q115.367 998.838 121.177 998.838 Z" fill="#000000" fill-rule="evenodd" fill-opacity="1" /><path clip-path="url(#clip620)" d="M51.6634 598.957 L59.3023 598.957 L59.3023 572.592 L50.9921 574.258 L50.9921 569.999 L59.256 568.332 L63.9319 568.332 L63.9319 598.957 L71.5707 598.957 L71.5707 602.892 L51.6634 602.892 L51.6634 598.957 Z" fill="#000000" fill-rule="evenodd" fill-opacity="1" /><path clip-path="url(#clip620)" d="M91.0151 571.411 Q87.404 571.411 85.5753 574.976 Q83.7697 578.517 83.7697 585.647 Q83.7697 592.754 85.5753 596.318 Q87.404 599.86 91.0151 599.86 Q94.6493 599.86 96.4548 596.318 Q98.2835 592.754 98.2835 585.647 Q98.2835 578.517 96.4548 574.976 Q94.6493 571.411 91.0151 571.411 M91.0151 567.707 Q96.8252 567.707 99.8808 572.314 Q102.959 576.897 102.959 585.647 Q102.959 594.374 99.8808 598.98 Q96.8252 603.564 91.0151 603.564 Q85.2049 603.564 82.1262 598.98 Q79.0707 594.374 79.0707 585.647 Q79.0707 576.897 82.1262 572.314 Q85.2049 567.707 91.0151 567.707 Z" fill="#000000" fill-rule="evenodd" fill-opacity="1" /><path clip-path="url(#clip620)" d="M121.177 571.411 Q117.566 571.411 115.737 574.976 Q113.932 578.517 113.932 585.647 Q113.932 592.754 115.737 596.318 Q117.566 599.86 121.177 599.86 Q124.811 599.86 126.617 596.318 Q128.445 592.754 128.445 585.647 Q128.445 578.517 126.617 574.976 Q124.811 571.411 121.177 571.411 M121.177 567.707 Q126.987 567.707 130.043 572.314 Q133.121 576.897 133.121 585.647 Q133.121 594.374 130.043 598.98 Q126.987 603.564 121.177 603.564 Q115.367 603.564 112.288 598.98 Q109.233 594.374 109.233 585.647 Q109.233 576.897 112.288 572.314 Q115.367 567.707 121.177 567.707 Z" fill="#000000" fill-rule="evenodd" fill-opacity="1" /><path clip-path="url(#clip620)" d="M51.6634 167.827 L59.3023 167.827 L59.3023 141.461 L50.9921 143.128 L50.9921 138.869 L59.256 137.202 L63.9319 137.202 L63.9319 167.827 L71.5707 167.827 L71.5707 171.762 L51.6634 171.762 L51.6634 167.827 Z" fill="#000000" fill-rule="evenodd" fill-opacity="1" /><path clip-path="url(#clip620)" d="M81.0614 137.202 L99.4178 137.202 L99.4178 141.137 L85.3438 141.137 L85.3438 149.609 Q86.3623 149.262 87.3808 149.1 Q88.3993 148.915 89.4178 148.915 Q95.2049 148.915 98.5845 152.086 Q101.964 155.257 101.964 160.674 Q101.964 166.253 98.4919 169.355 Q95.0197 172.433 88.7003 172.433 Q86.5243 172.433 84.2558 172.063 Q82.0105 171.693 79.6031 170.952 L79.6031 166.253 Q81.6864 167.387 83.9086 167.943 Q86.1308 168.498 88.6077 168.498 Q92.6123 168.498 94.9502 166.392 Q97.2882 164.285 97.2882 160.674 Q97.2882 157.063 94.9502 154.957 Q92.6123 152.85 88.6077 152.85 Q86.7327 152.85 84.8577 153.267 Q83.0058 153.683 81.0614 154.563 L81.0614 137.202 Z" fill="#000000" fill-rule="evenodd" fill-opacity="1" /><path clip-path="url(#clip620)" d="M121.177 140.281 Q117.566 140.281 115.737 143.845 Q113.932 147.387 113.932 154.517 Q113.932 161.623 115.737 165.188 Q117.566 168.73 121.177 168.73 Q124.811 168.73 126.617 165.188 Q128.445 161.623 128.445 154.517 Q128.445 147.387 126.617 143.845 Q124.811 140.281 121.177 140.281 M121.177 136.577 Q126.987 136.577 130.043 141.183 Q133.121 145.767 133.121 154.517 Q133.121 163.243 130.043 167.85 Q126.987 172.433 121.177 172.433 Q115.367 172.433 112.288 167.85 Q109.233 163.243 109.233 154.517 Q109.233 145.767 112.288 141.183 Q115.367 136.577 121.177 136.577 Z" fill="#000000" fill-rule="evenodd" fill-opacity="1" /><path clip-path="url(#clip620)" d="M325.739 12.096 L363.979 12.096 L363.979 18.9825 L333.922 18.9825 L333.922 36.8875 L362.723 36.8875 L362.723 43.7741 L333.922 43.7741 L333.922 65.6895 L364.708 65.6895 L364.708 72.576 L325.739 72.576 L325.739 12.096 Z" fill="#000000" fill-rule="evenodd" fill-opacity="1" /><path clip-path="url(#clip620)" d="M404.124 34.1734 Q402.868 33.4443 401.369 33.1202 Q399.911 32.7556 398.128 32.7556 Q391.809 32.7556 388.406 36.8875 Q385.044 40.9789 385.044 48.6757 L385.044 72.576 L377.55 72.576 L377.55 27.2059 L385.044 27.2059 L385.044 34.2544 Q387.393 30.1225 391.161 28.1376 Q394.928 26.1121 400.316 26.1121 Q401.086 26.1121 402.017 26.2337 Q402.949 26.3147 404.083 26.5172 L404.124 34.1734 Z" fill="#000000" fill-rule="evenodd" fill-opacity="1" /><path clip-path="url(#clip620)" d="M436.774 34.1734 Q435.518 33.4443 434.019 33.1202 Q432.561 32.7556 430.779 32.7556 Q424.459 32.7556 421.057 36.8875 Q417.694 40.9789 417.694 48.6757 L417.694 72.576 L410.2 72.576 L410.2 27.2059 L417.694 27.2059 L417.694 34.2544 Q420.044 30.1225 423.811 28.1376 Q427.578 26.1121 432.966 26.1121 Q433.736 26.1121 434.668 26.2337 Q435.599 26.3147 436.734 26.5172 L436.774 34.1734 Z" fill="#000000" fill-rule="evenodd" fill-opacity="1" /><path clip-path="url(#clip620)" d="M460.35 32.4315 Q454.355 32.4315 450.871 37.1306 Q447.387 41.7891 447.387 49.9314 Q447.387 58.0738 450.831 62.7728 Q454.314 67.4314 460.35 67.4314 Q466.305 67.4314 469.789 62.7323 Q473.273 58.0333 473.273 49.9314 Q473.273 41.8701 469.789 37.1711 Q466.305 32.4315 460.35 32.4315 M460.35 26.1121 Q470.072 26.1121 475.622 32.4315 Q481.172 38.7509 481.172 49.9314 Q481.172 61.0714 475.622 67.4314 Q470.072 73.7508 460.35 73.7508 Q450.588 73.7508 445.038 67.4314 Q439.529 61.0714 439.529 49.9314 Q439.529 38.7509 445.038 32.4315 Q450.588 26.1121 460.35 26.1121 Z" fill="#000000" fill-rule="evenodd" fill-opacity="1" /><path clip-path="url(#clip620)" d="M519.818 34.1734 Q518.562 33.4443 517.063 33.1202 Q515.605 32.7556 513.822 32.7556 Q507.503 32.7556 504.1 36.8875 Q500.738 40.9789 500.738 48.6757 L500.738 72.576 L493.244 72.576 L493.244 27.2059 L500.738 27.2059 L500.738 34.2544 Q503.087 30.1225 506.855 28.1376 Q510.622 26.1121 516.01 26.1121 Q516.779 26.1121 517.711 26.2337 Q518.643 26.3147 519.777 26.5172 L519.818 34.1734 Z" fill="#000000" fill-rule="evenodd" fill-opacity="1" /><path clip-path="url(#clip620)" d="M571.588 32.4315 Q565.593 32.4315 562.109 37.1306 Q558.625 41.7891 558.625 49.9314 Q558.625 58.0738 562.068 62.7728 Q565.552 67.4314 571.588 67.4314 Q577.543 67.4314 581.027 62.7323 Q584.51 58.0333 584.51 49.9314 Q584.51 41.8701 581.027 37.1711 Q577.543 32.4315 571.588 32.4315 M571.588 26.1121 Q581.31 26.1121 586.86 32.4315 Q592.41 38.7509 592.41 49.9314 Q592.41 61.0714 586.86 67.4314 Q581.31 73.7508 571.588 73.7508 Q561.825 73.7508 556.276 67.4314 Q550.766 61.0714 550.766 49.9314 Q550.766 38.7509 556.276 32.4315 Q561.825 26.1121 571.588 26.1121 Z" fill="#000000" fill-rule="evenodd" fill-opacity="1" /><path clip-path="url(#clip620)" d="M627.734 9.54393 L627.734 15.7418 L620.604 15.7418 Q616.594 15.7418 615.014 17.3622 Q613.474 18.9825 613.474 23.1955 L613.474 27.2059 L625.749 27.2059 L625.749 32.9987 L613.474 32.9987 L613.474 72.576 L605.98 72.576 L605.98 32.9987 L598.851 32.9987 L598.851 27.2059 L605.98 27.2059 L605.98 24.0462 Q605.98 16.471 609.505 13.0277 Q613.029 9.54393 620.685 9.54393 L627.734 9.54393 Z" fill="#000000" fill-rule="evenodd" fill-opacity="1" /><path clip-path="url(#clip620)" d="M662.814 65.6895 L676.182 65.6895 L676.182 19.5497 L661.64 22.4663 L661.64 15.0127 L676.101 12.096 L684.284 12.096 L684.284 65.6895 L697.652 65.6895 L697.652 72.576 L662.814 72.576 L662.814 65.6895 Z" fill="#000000" fill-rule="evenodd" fill-opacity="1" /><path clip-path="url(#clip620)" d="M731.68 17.4837 Q725.36 17.4837 722.16 23.7221 Q719.001 29.92 719.001 42.3968 Q719.001 54.833 722.16 61.0714 Q725.36 67.2693 731.68 67.2693 Q738.04 67.2693 741.199 61.0714 Q744.4 54.833 744.4 42.3968 Q744.4 29.92 741.199 23.7221 Q738.04 17.4837 731.68 17.4837 M731.68 11.0023 Q741.848 11.0023 747.195 19.0636 Q752.583 27.0843 752.583 42.3968 Q752.583 57.6687 747.195 65.73 Q741.848 73.7508 731.68 73.7508 Q721.512 73.7508 716.124 65.73 Q710.777 57.6687 710.777 42.3968 Q710.777 27.0843 716.124 19.0636 Q721.512 11.0023 731.68 11.0023 Z" fill="#000000" fill-rule="evenodd" fill-opacity="1" /><path clip-path="url(#clip620)" d="M762.143 46.5287 L783.977 46.5287 L783.977 53.1722 L762.143 53.1722 L762.143 46.5287 Z" fill="#000000" fill-rule="evenodd" fill-opacity="1" /><path clip-path="url(#clip620)" d="M823.028 17.6457 Q814.116 17.6457 808.85 24.2892 Q803.624 30.9327 803.624 42.3968 Q803.624 53.8203 808.85 60.4638 Q814.116 67.1073 823.028 67.1073 Q831.94 67.1073 837.125 60.4638 Q842.351 53.8203 842.351 42.3968 Q842.351 30.9327 837.125 24.2892 Q831.94 17.6457 823.028 17.6457 M823.028 11.0023 Q835.748 11.0023 843.363 19.5497 Q850.979 28.0566 850.979 42.3968 Q850.979 56.6965 843.363 65.2439 Q835.748 73.7508 823.028 73.7508 Q810.267 73.7508 802.611 65.2439 Q794.995 56.737 794.995 42.3968 Q794.995 28.0566 802.611 19.5497 Q810.267 11.0023 823.028 11.0023 Z" fill="#000000" fill-rule="evenodd" fill-opacity="1" /><path clip-path="url(#clip620)" d="M889.746 34.1734 Q888.49 33.4443 886.992 33.1202 Q885.533 32.7556 883.751 32.7556 Q877.431 32.7556 874.029 36.8875 Q870.666 40.9789 870.666 48.6757 L870.666 72.576 L863.172 72.576 L863.172 27.2059 L870.666 27.2059 L870.666 34.2544 Q873.016 30.1225 876.783 28.1376 Q880.551 26.1121 885.938 26.1121 Q886.708 26.1121 887.64 26.2337 Q888.571 26.3147 889.706 26.5172 L889.746 34.1734 Z" fill="#000000" fill-rule="evenodd" fill-opacity="1" /><path clip-path="url(#clip620)" d="M925.961 34.0924 L925.961 9.54393 L933.415 9.54393 L933.415 72.576 L925.961 72.576 L925.961 65.7705 Q923.612 69.8214 920.006 71.8063 Q916.442 73.7508 911.418 73.7508 Q903.195 73.7508 898.01 67.1883 Q892.865 60.6258 892.865 49.9314 Q892.865 39.2371 898.01 32.6746 Q903.195 26.1121 911.418 26.1121 Q916.442 26.1121 920.006 28.0971 Q923.612 30.0415 925.961 34.0924 M900.562 49.9314 Q900.562 58.1548 903.924 62.8538 Q907.327 67.5124 913.241 67.5124 Q919.156 67.5124 922.558 62.8538 Q925.961 58.1548 925.961 49.9314 Q925.961 41.7081 922.558 37.0496 Q919.156 32.3505 913.241 32.3505 Q907.327 32.3505 903.924 37.0496 Q900.562 41.7081 900.562 49.9314 Z" fill="#000000" fill-rule="evenodd" fill-opacity="1" /><path clip-path="url(#clip620)" d="M987.575 48.0275 L987.575 51.6733 L953.305 51.6733 Q953.791 59.3701 957.923 63.421 Q962.095 67.4314 969.508 67.4314 Q973.802 67.4314 977.813 66.3781 Q981.864 65.3249 985.834 63.2184 L985.834 70.267 Q981.823 71.9684 977.61 72.8596 Q973.397 73.7508 969.063 73.7508 Q958.206 73.7508 951.846 67.4314 Q945.527 61.1119 945.527 50.3365 Q945.527 39.1965 951.522 32.6746 Q957.558 26.1121 967.767 26.1121 Q976.922 26.1121 982.228 32.0264 Q987.575 37.9003 987.575 48.0275 M980.122 45.84 Q980.041 39.7232 976.679 36.0774 Q973.357 32.4315 967.848 32.4315 Q961.609 32.4315 957.842 35.9558 Q954.115 39.4801 953.548 45.8805 L980.122 45.84 Z" fill="#000000" fill-rule="evenodd" fill-opacity="1" /><path clip-path="url(#clip620)" d="M1026.1 34.1734 Q1024.84 33.4443 1023.34 33.1202 Q1021.89 32.7556 1020.1 32.7556 Q1013.78 32.7556 1010.38 36.8875 Q1007.02 40.9789 1007.02 48.6757 L1007.02 72.576 L999.526 72.576 L999.526 27.2059 L1007.02 27.2059 L1007.02 34.2544 Q1009.37 30.1225 1013.14 28.1376 Q1016.9 26.1121 1022.29 26.1121 Q1023.06 26.1121 1023.99 26.2337 Q1024.92 26.3147 1026.06 26.5172 L1026.1 34.1734 Z" fill="#000000" fill-rule="evenodd" fill-opacity="1" /><path clip-path="url(#clip620)" d="M1060.61 12.096 L1068.8 12.096 L1068.8 72.576 L1060.61 72.576 L1060.61 12.096 Z" fill="#000000" fill-rule="evenodd" fill-opacity="1" /><path clip-path="url(#clip620)" d="M1122.47 45.1919 L1122.47 72.576 L1115.02 72.576 L1115.02 45.4349 Q1115.02 38.994 1112.51 35.7938 Q1109.99 32.5936 1104.97 32.5936 Q1098.93 32.5936 1095.45 36.4419 Q1091.97 40.2903 1091.97 46.9338 L1091.97 72.576 L1084.47 72.576 L1084.47 27.2059 L1091.97 27.2059 L1091.97 34.2544 Q1094.64 30.163 1098.25 28.1376 Q1101.89 26.1121 1106.63 26.1121 Q1114.45 26.1121 1118.46 30.9732 Q1122.47 35.7938 1122.47 45.1919 Z" fill="#000000" fill-rule="evenodd" fill-opacity="1" /><path clip-path="url(#clip620)" d="M1144.71 14.324 L1144.71 27.2059 L1160.06 27.2059 L1160.06 32.9987 L1144.71 32.9987 L1144.71 57.6282 Q1144.71 63.1779 1146.21 64.7578 Q1147.75 66.3376 1152.41 66.3376 L1160.06 66.3376 L1160.06 72.576 L1152.41 72.576 Q1143.78 72.576 1140.5 69.3758 Q1137.22 66.1351 1137.22 57.6282 L1137.22 32.9987 L1131.75 32.9987 L1131.75 27.2059 L1137.22 27.2059 L1137.22 14.324 L1144.71 14.324 Z" fill="#000000" fill-rule="evenodd" fill-opacity="1" /><path clip-path="url(#clip620)" d="M1208.67 48.0275 L1208.67 51.6733 L1174.4 51.6733 Q1174.89 59.3701 1179.02 63.421 Q1183.19 67.4314 1190.61 67.4314 Q1194.9 67.4314 1198.91 66.3781 Q1202.96 65.3249 1206.93 63.2184 L1206.93 70.267 Q1202.92 71.9684 1198.71 72.8596 Q1194.5 73.7508 1190.16 73.7508 Q1179.3 73.7508 1172.94 67.4314 Q1166.63 61.1119 1166.63 50.3365 Q1166.63 39.1965 1172.62 32.6746 Q1178.66 26.1121 1188.86 26.1121 Q1198.02 26.1121 1203.33 32.0264 Q1208.67 37.9003 1208.67 48.0275 M1201.22 45.84 Q1201.14 39.7232 1197.78 36.0774 Q1194.46 32.4315 1188.95 32.4315 Q1182.71 32.4315 1178.94 35.9558 Q1175.21 39.4801 1174.65 45.8805 L1201.22 45.84 Z" fill="#000000" fill-rule="evenodd" fill-opacity="1" /><path clip-path="url(#clip620)" d="M1247.2 34.1734 Q1245.94 33.4443 1244.44 33.1202 Q1242.98 32.7556 1241.2 32.7556 Q1234.88 32.7556 1231.48 36.8875 Q1228.12 40.9789 1228.12 48.6757 L1228.12 72.576 L1220.62 72.576 L1220.62 27.2059 L1228.12 27.2059 L1228.12 34.2544 Q1230.47 30.1225 1234.24 28.1376 Q1238 26.1121 1243.39 26.1121 Q1244.16 26.1121 1245.09 26.2337 Q1246.02 26.3147 1247.16 26.5172 L1247.2 34.1734 Z" fill="#000000" fill-rule="evenodd" fill-opacity="1" /><path clip-path="url(#clip620)" d="M1262.23 65.7705 L1262.23 89.8329 L1254.73 89.8329 L1254.73 27.2059 L1262.23 27.2059 L1262.23 34.0924 Q1264.58 30.0415 1268.14 28.0971 Q1271.75 26.1121 1276.73 26.1121 Q1284.99 26.1121 1290.14 32.6746 Q1295.32 39.2371 1295.32 49.9314 Q1295.32 60.6258 1290.14 67.1883 Q1284.99 73.7508 1276.73 73.7508 Q1271.75 73.7508 1268.14 71.8063 Q1264.58 69.8214 1262.23 65.7705 M1287.59 49.9314 Q1287.59 41.7081 1284.18 37.0496 Q1280.82 32.3505 1274.91 32.3505 Q1268.99 32.3505 1265.59 37.0496 Q1262.23 41.7081 1262.23 49.9314 Q1262.23 58.1548 1265.59 62.8538 Q1268.99 67.5124 1274.91 67.5124 Q1280.82 67.5124 1284.18 62.8538 Q1287.59 58.1548 1287.59 49.9314 Z" fill="#000000" fill-rule="evenodd" fill-opacity="1" /><path clip-path="url(#clip620)" d="M1325.26 32.4315 Q1319.26 32.4315 1315.78 37.1306 Q1312.3 41.7891 1312.3 49.9314 Q1312.3 58.0738 1315.74 62.7728 Q1319.22 67.4314 1325.26 67.4314 Q1331.21 67.4314 1334.7 62.7323 Q1338.18 58.0333 1338.18 49.9314 Q1338.18 41.8701 1334.7 37.1711 Q1331.21 32.4315 1325.26 32.4315 M1325.26 26.1121 Q1334.98 26.1121 1340.53 32.4315 Q1346.08 38.7509 1346.08 49.9314 Q1346.08 61.0714 1340.53 67.4314 Q1334.98 73.7508 1325.26 73.7508 Q1315.5 73.7508 1309.95 67.4314 Q1304.44 61.0714 1304.44 49.9314 Q1304.44 38.7509 1309.95 32.4315 Q1315.5 26.1121 1325.26 26.1121 Z" fill="#000000" fill-rule="evenodd" fill-opacity="1" /><path clip-path="url(#clip620)" d="M1358.44 9.54393 L1365.89 9.54393 L1365.89 72.576 L1358.44 72.576 L1358.44 9.54393 Z" fill="#000000" fill-rule="evenodd" fill-opacity="1" /><path clip-path="url(#clip620)" d="M1402.1 49.7694 Q1393.07 49.7694 1389.59 51.8354 Q1386.1 53.9013 1386.1 58.8839 Q1386.1 62.8538 1388.7 65.2034 Q1391.33 67.5124 1395.83 67.5124 Q1402.02 67.5124 1405.75 63.1374 Q1409.52 58.7219 1409.52 51.4303 L1409.52 49.7694 L1402.1 49.7694 M1416.97 46.6907 L1416.97 72.576 L1409.52 72.576 L1409.52 65.6895 Q1406.97 69.8214 1403.16 71.8063 Q1399.35 73.7508 1393.84 73.7508 Q1386.87 73.7508 1382.74 69.8619 Q1378.65 65.9325 1378.65 59.3701 Q1378.65 51.7138 1383.75 47.825 Q1388.9 43.9361 1399.07 43.9361 L1409.52 43.9361 L1409.52 43.2069 Q1409.52 38.0623 1406.11 35.2672 Q1402.75 32.4315 1396.64 32.4315 Q1392.75 32.4315 1389.06 33.3632 Q1385.37 34.295 1381.97 36.1584 L1381.97 29.2718 Q1386.06 27.692 1389.91 26.9223 Q1393.76 26.1121 1397.41 26.1121 Q1407.25 26.1121 1412.11 31.2163 Q1416.97 36.3204 1416.97 46.6907 Z" fill="#000000" fill-rule="evenodd" fill-opacity="1" /><path clip-path="url(#clip620)" d="M1439.7 14.324 L1439.7 27.2059 L1455.05 27.2059 L1455.05 32.9987 L1439.7 32.9987 L1439.7 57.6282 Q1439.7 63.1779 1441.2 64.7578 Q1442.74 66.3376 1447.39 66.3376 L1455.05 66.3376 L1455.05 72.576 L1447.39 72.576 Q1438.77 72.576 1435.48 69.3758 Q1432.2 66.1351 1432.2 57.6282 L1432.2 32.9987 L1426.73 32.9987 L1426.73 27.2059 L1432.2 27.2059 L1432.2 14.324 L1439.7 14.324 Z" fill="#000000" fill-rule="evenodd" fill-opacity="1" /><path clip-path="url(#clip620)" d="M1464.85 27.2059 L1472.31 27.2059 L1472.31 72.576 L1464.85 72.576 L1464.85 27.2059 M1464.85 9.54393 L1472.31 9.54393 L1472.31 18.9825 L1464.85 18.9825 L1464.85 9.54393 Z" fill="#000000" fill-rule="evenodd" fill-opacity="1" /><path clip-path="url(#clip620)" d="M1505.48 32.4315 Q1499.49 32.4315 1496 37.1306 Q1492.52 41.7891 1492.52 49.9314 Q1492.52 58.0738 1495.96 62.7728 Q1499.45 67.4314 1505.48 67.4314 Q1511.44 67.4314 1514.92 62.7323 Q1518.41 58.0333 1518.41 49.9314 Q1518.41 41.8701 1514.92 37.1711 Q1511.44 32.4315 1505.48 32.4315 M1505.48 26.1121 Q1515.21 26.1121 1520.76 32.4315 Q1526.31 38.7509 1526.31 49.9314 Q1526.31 61.0714 1520.76 67.4314 Q1515.21 73.7508 1505.48 73.7508 Q1495.72 73.7508 1490.17 67.4314 Q1484.66 61.0714 1484.66 49.9314 Q1484.66 38.7509 1490.17 32.4315 Q1495.72 26.1121 1505.48 26.1121 Z" fill="#000000" fill-rule="evenodd" fill-opacity="1" /><path clip-path="url(#clip620)" d="M1576.37 45.1919 L1576.37 72.576 L1568.92 72.576 L1568.92 45.4349 Q1568.92 38.994 1566.41 35.7938 Q1563.9 32.5936 1558.87 32.5936 Q1552.84 32.5936 1549.35 36.4419 Q1545.87 40.2903 1545.87 46.9338 L1545.87 72.576 L1538.38 72.576 L1538.38 27.2059 L1545.87 27.2059 L1545.87 34.2544 Q1548.54 30.163 1552.15 28.1376 Q1555.8 26.1121 1560.54 26.1121 Q1568.35 26.1121 1572.36 30.9732 Q1576.37 35.7938 1576.37 45.1919 Z" fill="#000000" fill-rule="evenodd" fill-opacity="1" /><polyline clip-path="url(#clip622)" style="stroke:#009af9; stroke-linecap:butt; stroke-linejoin:round; stroke-width:4; stroke-opacity:1; fill:none" points="
  213.382,162.047 216.219,355.057 219.056,531.017 221.893,691.05 224.731,836.219 227.568,967.531 230.405,1085.94 233.242,1192.35 236.079,1287.61 238.917,1372.53 
  241.754,1447.87 244.591,1381.4 247.428,1323.11 250.266,1272.37 253.103,1228.58 255.94,1191.18 258.777,1159.63 261.614,1133.43 264.452,1112.13 267.289,1095.28 
  270.126,1082.47 272.963,1073.32 275.8,1067.47 278.638,1064.58 281.475,1064.35 284.312,1066.48 287.149,1070.7 289.986,1076.77 292.824,1084.45 295.661,1093.52 
  298.498,1103.8 301.335,1115.09 304.173,1127.22 307.01,1140.05 309.847,1153.43 312.684,1167.23 315.521,1181.33 318.359,1195.63 321.196,1210.02 324.033,1224.43 
  326.87,1238.77 329.707,1252.97 332.545,1266.97 335.382,1280.72 338.219,1294.16 341.056,1307.25 343.893,1319.96 346.731,1332.26 349.568,1344.11 352.405,1355.5 
  355.242,1366.42 358.08,1376.84 360.917,1386.76 363.754,1396.17 366.591,1405.07 369.428,1413.46 372.266,1421.34 375.103,1428.72 377.94,1435.59 380.777,1441.97 
  383.614,1447.87 386.452,1442.44 389.289,1437.47 392.126,1432.95 394.963,1428.85 397.8,1425.17 400.638,1421.89 403.475,1419 406.312,1416.47 409.149,1414.29 
  411.987,1412.45 414.824,1410.92 417.661,1409.7 420.498,1408.75 423.335,1408.07 426.173,1407.63 429.01,1407.43 431.847,1407.44 434.684,1407.65 437.521,1408.04 
  440.359,1408.6 443.196,1409.32 446.033,1410.17 448.87,1411.14 451.707,1412.23 454.545,1413.41 457.382,1414.68 460.219,1416.02 463.056,1417.42 465.894,1418.87 
  468.731,1420.37 471.568,1421.9 474.405,1423.45 477.242,1425.01 480.08,1426.58 482.917,1428.15 485.754,1429.7 488.591,1431.25 491.428,1432.77 494.266,1434.27 
  497.103,1435.73 499.94,1437.16 502.777,1438.55 505.614,1439.89 508.452,1441.19 511.289,1442.44 514.126,1443.64 516.963,1444.78 519.801,1445.87 522.638,1446.9 
  525.475,1447.87 528.312,1446.96 531.149,1446.1 533.987,1445.31 536.824,1444.57 539.661,1443.89 542.498,1443.27 545.335,1442.71 548.173,1442.2 551.01,1441.75 
  553.847,1441.35 556.684,1441 559.521,1440.71 562.359,1440.46 565.196,1440.26 568.033,1440.11 570.87,1440 573.708,1439.93 576.545,1439.9 579.382,1439.91 
  582.219,1439.96 585.056,1440.04 587.894,1440.14 590.731,1440.28 593.568,1440.44 596.405,1440.63 599.242,1440.84 602.08,1441.07 604.917,1441.32 607.754,1441.59 
  610.591,1441.86 613.428,1442.15 616.266,1442.46 619.103,1442.76 621.94,1443.08 624.777,1443.4 627.615,1443.72 630.452,1444.05 633.289,1444.38 636.126,1444.7 
  638.963,1445.02 641.801,1445.34 644.638,1445.65 647.475,1445.96 650.312,1446.26 653.149,1446.56 655.987,1446.84 658.824,1447.11 661.661,1447.38 664.498,1447.63 
  667.335,1447.87 670.173,1447.64 673.01,1447.43 675.847,1447.22 678.684,1447.03 681.522,1446.85 684.359,1446.68 687.196,1446.53 690.033,1446.39 692.87,1446.27 
  695.708,1446.15 698.545,1446.05 701.382,1445.97 704.219,1445.89 707.056,1445.83 709.894,1445.78 712.731,1445.74 715.568,1445.71 718.405,1445.7 721.242,1445.69 
  724.08,1445.69 726.917,1445.71 729.754,1445.73 732.591,1445.76 735.429,1445.8 738.266,1445.85 741.103,1445.9 743.94,1445.96 746.777,1446.02 749.615,1446.09 
  752.452,1446.17 755.289,1446.25 758.126,1446.33 760.963,1446.41 763.801,1446.5 766.638,1446.59 769.475,1446.68 772.312,1446.78 775.15,1446.87 777.987,1446.96 
  780.824,1447.05 783.661,1447.14 786.498,1447.23 789.336,1447.32 792.173,1447.41 795.01,1447.49 797.847,1447.58 800.684,1447.66 803.522,1447.73 806.359,1447.8 
  809.196,1447.87 812.033,1447.81 814.87,1447.75 817.708,1447.69 820.545,1447.63 823.382,1447.58 826.219,1447.54 829.057,1447.5 831.894,1447.46 834.731,1447.43 
  837.568,1447.4 840.405,1447.38 843.243,1447.36 846.08,1447.34 848.917,1447.33 851.754,1447.32 854.591,1447.31 857.429,1447.31 860.266,1447.32 863.103,1447.32 
  865.94,1447.33 868.777,1447.34 871.615,1447.35 874.452,1447.37 877.289,1447.39 880.126,1447.41 882.964,1447.43 885.801,1447.45 888.638,1447.47 891.475,1447.5 
  894.312,1447.52 897.15,1447.55 899.987,1447.57 902.824,1447.6 905.661,1447.63 908.498,1447.65 911.336,1447.68 914.173,1447.7 917.01,1447.72 919.847,1447.75 
  922.684,1447.77 925.522,1447.79 928.359,1447.8 931.196,1447.82 934.033,1447.83 936.871,1447.85 939.708,1447.86 942.545,1447.86 945.382,1447.87 948.219,1447.87 
  951.057,1447.87 953.894,1447.87 956.731,1447.87 959.568,1447.86 962.405,1447.86 965.243,1447.85 968.08,1447.83 970.917,1447.82 973.754,1447.8 976.591,1447.79 
  979.429,1447.77 982.266,1447.75 985.103,1447.72 987.94,1447.7 990.778,1447.68 993.615,1447.65 996.452,1447.63 999.289,1447.6 1002.13,1447.57 1004.96,1447.55 
  1007.8,1447.52 1010.64,1447.5 1013.48,1447.47 1016.31,1447.45 1019.15,1447.43 1021.99,1447.41 1024.82,1447.39 1027.66,1447.37 1030.5,1447.35 1033.34,1447.34 
  1036.17,1447.33 1039.01,1447.32 1041.85,1447.32 1044.68,1447.31 1047.52,1447.31 1050.36,1447.32 1053.2,1447.33 1056.03,1447.34 1058.87,1447.36 1061.71,1447.38 
  1064.54,1447.4 1067.38,1447.43 1070.22,1447.46 1073.06,1447.5 1075.89,1447.54 1078.73,1447.58 1081.57,1447.63 1084.41,1447.69 1087.24,1447.75 1090.08,1447.81 
  1092.92,1447.87 1095.75,1447.8 1098.59,1447.73 1101.43,1447.66 1104.27,1447.58 1107.1,1447.49 1109.94,1447.41 1112.78,1447.32 1115.61,1447.23 1118.45,1447.14 
  1121.29,1447.05 1124.13,1446.96 1126.96,1446.87 1129.8,1446.78 1132.64,1446.68 1135.48,1446.59 1138.31,1446.5 1141.15,1446.41 1143.99,1446.33 1146.82,1446.25 
  1149.66,1446.17 1152.5,1446.09 1155.34,1446.02 1158.17,1445.96 1161.01,1445.9 1163.85,1445.85 1166.68,1445.8 1169.52,1445.76 1172.36,1445.73 1175.2,1445.71 
  1178.03,1445.69 1180.87,1445.69 1183.71,1445.7 1186.55,1445.71 1189.38,1445.74 1192.22,1445.78 1195.06,1445.83 1197.89,1445.89 1200.73,1445.97 1203.57,1446.05 
  1206.41,1446.15 1209.24,1446.27 1212.08,1446.39 1214.92,1446.53 1217.75,1446.68 1220.59,1446.85 1223.43,1447.03 1226.27,1447.22 1229.1,1447.43 1231.94,1447.64 
  1234.78,1447.87 1237.61,1447.63 1240.45,1447.38 1243.29,1447.11 1246.13,1446.84 1248.96,1446.56 1251.8,1446.26 1254.64,1445.96 1257.48,1445.65 1260.31,1445.34 
  1263.15,1445.02 1265.99,1444.7 1268.82,1444.38 1271.66,1444.05 1274.5,1443.72 1277.34,1443.4 1280.17,1443.08 1283.01,1442.76 1285.85,1442.46 1288.68,1442.15 
  1291.52,1441.86 1294.36,1441.59 1297.2,1441.32 1300.03,1441.07 1302.87,1440.84 1305.71,1440.63 1308.55,1440.44 1311.38,1440.28 1314.22,1440.14 1317.06,1440.04 
  1319.89,1439.96 1322.73,1439.91 1325.57,1439.9 1328.41,1439.93 1331.24,1440 1334.08,1440.11 1336.92,1440.26 1339.75,1440.46 1342.59,1440.71 1345.43,1441 
  1348.27,1441.35 1351.1,1441.75 1353.94,1442.2 1356.78,1442.71 1359.61,1443.27 1362.45,1443.89 1365.29,1444.57 1368.13,1445.31 1370.96,1446.1 1373.8,1446.96 
  1376.64,1447.87 1379.48,1446.9 1382.31,1445.87 1385.15,1444.78 1387.99,1443.64 1390.82,1442.44 1393.66,1441.19 1396.5,1439.89 1399.34,1438.55 1402.17,1437.16 
  1405.01,1435.73 1407.85,1434.27 1410.68,1432.77 1413.52,1431.25 1416.36,1429.7 1419.2,1428.15 1422.03,1426.58 1424.87,1425.01 1427.71,1423.45 1430.55,1421.9 
  1433.38,1420.37 1436.22,1418.87 1439.06,1417.42 1441.89,1416.02 1444.73,1414.68 1447.57,1413.41 1450.41,1412.23 1453.24,1411.14 1456.08,1410.17 1458.92,1409.32 
  1461.75,1408.6 1464.59,1408.04 1467.43,1407.65 1470.27,1407.44 1473.1,1407.43 1475.94,1407.63 1478.78,1408.07 1481.61,1408.75 1484.45,1409.7 1487.29,1410.92 
  1490.13,1412.45 1492.96,1414.29 1495.8,1416.47 1498.64,1419 1501.48,1421.89 1504.31,1425.17 1507.15,1428.85 1509.99,1432.95 1512.82,1437.47 1515.66,1442.44 
  1518.5,1447.87 1521.34,1441.97 1524.17,1435.59 1527.01,1428.72 1529.85,1421.34 1532.68,1413.46 1535.52,1405.07 1538.36,1396.17 1541.2,1386.76 1544.03,1376.84 
  1546.87,1366.42 1549.71,1355.5 1552.55,1344.11 1555.38,1332.26 1558.22,1319.96 1561.06,1307.25 1563.89,1294.16 1566.73,1280.72 1569.57,1266.97 1572.41,1252.97 
  1575.24,1238.77 1578.08,1224.43 1580.92,1210.02 1583.75,1195.63 1586.59,1181.33 1589.43,1167.23 1592.27,1153.43 1595.1,1140.05 1597.94,1127.22 1600.78,1115.09 
  1603.61,1103.8 1606.45,1093.52 1609.29,1084.45 1612.13,1076.77 1614.96,1070.7 1617.8,1066.48 1620.64,1064.35 1623.48,1064.58 1626.31,1067.47 1629.15,1073.32 
  1631.99,1082.47 1634.82,1095.28 1637.66,1112.13 1640.5,1133.43 1643.34,1159.63 1646.17,1191.18 1649.01,1228.58 1651.85,1272.37 1654.68,1323.11 1657.52,1381.4 
  1660.36,1447.87 1663.2,1372.53 1666.03,1287.61 1668.87,1192.35 1671.71,1085.94 1674.55,967.531 1677.38,836.219 1680.22,691.05 1683.06,531.017 1685.89,355.057 
  1688.73,162.047 
  "/>
<path clip-path="url(#clip620)" d="
M1805.78 272.585 L2352.76 272.585 L2352.76 168.905 L1805.78 168.905  Z
  " fill="#ffffff" fill-rule="evenodd" fill-opacity="1"/>
<polyline clip-path="url(#clip620)" style="stroke:#000000; stroke-linecap:butt; stroke-linejoin:round; stroke-width:4; stroke-opacity:1; fill:none" points="
  1805.78,272.585 2352.76,272.585 2352.76,168.905 1805.78,168.905 1805.78,272.585 
  "/>
<polyline clip-path="url(#clip620)" style="stroke:#009af9; stroke-linecap:butt; stroke-linejoin:round; stroke-width:4; stroke-opacity:1; fill:none" points="
  1830.04,220.745 1975.62,220.745 
  "/>
<path clip-path="url(#clip620)" d="M2015.07 216.08 Q2014.35 215.664 2013.49 215.478 Q2012.66 215.27 2011.64 215.27 Q2008.03 215.27 2006.08 217.631 Q2004.16 219.969 2004.16 224.367 L2004.16 238.025 L1999.88 238.025 L1999.88 212.099 L2004.16 212.099 L2004.16 216.127 Q2005.51 213.766 2007.66 212.631 Q2009.81 211.474 2012.89 211.474 Q2013.33 211.474 2013.86 211.543 Q2014.39 211.59 2015.04 211.705 L2015.07 216.08 Z" fill="#000000" fill-rule="evenodd" fill-opacity="1" /><path clip-path="url(#clip620)" d="M2040.67 223.997 L2040.67 226.08 L2021.08 226.08 Q2021.36 230.478 2023.72 232.793 Q2026.11 235.085 2030.34 235.085 Q2032.8 235.085 2035.09 234.483 Q2037.4 233.881 2039.67 232.677 L2039.67 236.705 Q2037.38 237.677 2034.97 238.187 Q2032.57 238.696 2030.09 238.696 Q2023.88 238.696 2020.25 235.085 Q2016.64 231.474 2016.64 225.316 Q2016.64 218.951 2020.07 215.224 Q2023.51 211.474 2029.35 211.474 Q2034.58 211.474 2037.61 214.853 Q2040.67 218.21 2040.67 223.997 M2036.41 222.747 Q2036.36 219.252 2034.44 217.168 Q2032.54 215.085 2029.39 215.085 Q2025.83 215.085 2023.68 217.099 Q2021.55 219.113 2021.22 222.77 L2036.41 222.747 Z" fill="#000000" fill-rule="evenodd" fill-opacity="1" /><path clip-path="url(#clip620)" d="M2047.66 202.006 L2051.92 202.006 L2051.92 238.025 L2047.66 238.025 L2047.66 202.006 Z" fill="#000000" fill-rule="evenodd" fill-opacity="1" /><path clip-path="url(#clip620)" d="M2072.61 224.992 Q2067.45 224.992 2065.46 226.173 Q2063.47 227.353 2063.47 230.201 Q2063.47 232.469 2064.95 233.812 Q2066.45 235.131 2069.02 235.131 Q2072.57 235.131 2074.69 232.631 Q2076.85 230.108 2076.85 225.941 L2076.85 224.992 L2072.61 224.992 M2081.11 223.233 L2081.11 238.025 L2076.85 238.025 L2076.85 234.089 Q2075.39 236.451 2073.21 237.585 Q2071.04 238.696 2067.89 238.696 Q2063.91 238.696 2061.55 236.474 Q2059.21 234.228 2059.21 230.478 Q2059.21 226.103 2062.13 223.881 Q2065.07 221.659 2070.88 221.659 L2076.85 221.659 L2076.85 221.242 Q2076.85 218.303 2074.9 216.705 Q2072.98 215.085 2069.49 215.085 Q2067.26 215.085 2065.16 215.617 Q2063.05 216.15 2061.11 217.215 L2061.11 213.279 Q2063.44 212.377 2065.64 211.937 Q2067.84 211.474 2069.93 211.474 Q2075.55 211.474 2078.33 214.391 Q2081.11 217.307 2081.11 223.233 Z" fill="#000000" fill-rule="evenodd" fill-opacity="1" /><path clip-path="url(#clip620)" d="M2094.09 204.738 L2094.09 212.099 L2102.87 212.099 L2102.87 215.409 L2094.09 215.409 L2094.09 229.483 Q2094.09 232.654 2094.95 233.557 Q2095.83 234.46 2098.49 234.46 L2102.87 234.46 L2102.87 238.025 L2098.49 238.025 Q2093.56 238.025 2091.69 236.196 Q2089.81 234.344 2089.81 229.483 L2089.81 215.409 L2086.69 215.409 L2086.69 212.099 L2089.81 212.099 L2089.81 204.738 L2094.09 204.738 Z" fill="#000000" fill-rule="evenodd" fill-opacity="1" /><path clip-path="url(#clip620)" d="M2108.47 212.099 L2112.73 212.099 L2112.73 238.025 L2108.47 238.025 L2108.47 212.099 M2108.47 202.006 L2112.73 202.006 L2112.73 207.4 L2108.47 207.4 L2108.47 202.006 Z" fill="#000000" fill-rule="evenodd" fill-opacity="1" /><path clip-path="url(#clip620)" d="M2118.58 212.099 L2123.1 212.099 L2131.2 233.858 L2139.3 212.099 L2143.81 212.099 L2134.09 238.025 L2128.31 238.025 L2118.58 212.099 Z" fill="#000000" fill-rule="evenodd" fill-opacity="1" /><path clip-path="url(#clip620)" d="M2171.87 223.997 L2171.87 226.08 L2152.29 226.08 Q2152.56 230.478 2154.93 232.793 Q2157.31 235.085 2161.55 235.085 Q2164 235.085 2166.29 234.483 Q2168.61 233.881 2170.87 232.677 L2170.87 236.705 Q2168.58 237.677 2166.18 238.187 Q2163.77 238.696 2161.29 238.696 Q2155.09 238.696 2151.45 235.085 Q2147.84 231.474 2147.84 225.316 Q2147.84 218.951 2151.27 215.224 Q2154.72 211.474 2160.55 211.474 Q2165.78 211.474 2168.81 214.853 Q2171.87 218.21 2171.87 223.997 M2167.61 222.747 Q2167.56 219.252 2165.64 217.168 Q2163.75 215.085 2160.6 215.085 Q2157.03 215.085 2154.88 217.099 Q2152.75 219.113 2152.43 222.77 L2167.61 222.747 Z" fill="#000000" fill-rule="evenodd" fill-opacity="1" /><path clip-path="url(#clip620)" d="M2216.11 223.997 L2216.11 226.08 L2196.52 226.08 Q2196.8 230.478 2199.16 232.793 Q2201.55 235.085 2205.78 235.085 Q2208.24 235.085 2210.53 234.483 Q2212.84 233.881 2215.11 232.677 L2215.11 236.705 Q2212.82 237.677 2210.41 238.187 Q2208 238.696 2205.53 238.696 Q2199.32 238.696 2195.69 235.085 Q2192.08 231.474 2192.08 225.316 Q2192.08 218.951 2195.5 215.224 Q2198.95 211.474 2204.79 211.474 Q2210.02 211.474 2213.05 214.853 Q2216.11 218.21 2216.11 223.997 M2211.85 222.747 Q2211.8 219.252 2209.88 217.168 Q2207.98 215.085 2204.83 215.085 Q2201.27 215.085 2199.12 217.099 Q2196.99 219.113 2196.66 222.77 L2211.85 222.747 Z" fill="#000000" fill-rule="evenodd" fill-opacity="1" /><path clip-path="url(#clip620)" d="M2238.12 216.08 Q2237.4 215.664 2236.55 215.478 Q2235.71 215.27 2234.69 215.27 Q2231.08 215.27 2229.14 217.631 Q2227.22 219.969 2227.22 224.367 L2227.22 238.025 L2222.93 238.025 L2222.93 212.099 L2227.22 212.099 L2227.22 216.127 Q2228.56 213.766 2230.71 212.631 Q2232.87 211.474 2235.94 211.474 Q2236.38 211.474 2236.92 211.543 Q2237.45 211.59 2238.1 211.705 L2238.12 216.08 Z" fill="#000000" fill-rule="evenodd" fill-opacity="1" /><path clip-path="url(#clip620)" d="M2256.78 216.08 Q2256.06 215.664 2255.2 215.478 Q2254.37 215.27 2253.35 215.27 Q2249.74 215.27 2247.8 217.631 Q2245.87 219.969 2245.87 224.367 L2245.87 238.025 L2241.59 238.025 L2241.59 212.099 L2245.87 212.099 L2245.87 216.127 Q2247.22 213.766 2249.37 212.631 Q2251.52 211.474 2254.6 211.474 Q2255.04 211.474 2255.57 211.543 Q2256.11 211.59 2256.75 211.705 L2256.78 216.08 Z" fill="#000000" fill-rule="evenodd" fill-opacity="1" /><path clip-path="url(#clip620)" d="M2270.25 215.085 Q2266.82 215.085 2264.83 217.77 Q2262.84 220.432 2262.84 225.085 Q2262.84 229.738 2264.81 232.423 Q2266.8 235.085 2270.25 235.085 Q2273.65 235.085 2275.64 232.4 Q2277.63 229.715 2277.63 225.085 Q2277.63 220.478 2275.64 217.793 Q2273.65 215.085 2270.25 215.085 M2270.25 211.474 Q2275.8 211.474 2278.98 215.085 Q2282.15 218.696 2282.15 225.085 Q2282.15 231.451 2278.98 235.085 Q2275.8 238.696 2270.25 238.696 Q2264.67 238.696 2261.5 235.085 Q2258.35 231.451 2258.35 225.085 Q2258.35 218.696 2261.5 215.085 Q2264.67 211.474 2270.25 211.474 Z" fill="#000000" fill-rule="evenodd" fill-opacity="1" /><path clip-path="url(#clip620)" d="M2304.23 216.08 Q2303.51 215.664 2302.66 215.478 Q2301.82 215.27 2300.8 215.27 Q2297.19 215.27 2295.25 217.631 Q2293.33 219.969 2293.33 224.367 L2293.33 238.025 L2289.05 238.025 L2289.05 212.099 L2293.33 212.099 L2293.33 216.127 Q2294.67 213.766 2296.82 212.631 Q2298.98 211.474 2302.05 211.474 Q2302.49 211.474 2303.03 211.543 Q2303.56 211.59 2304.21 211.705 L2304.23 216.08 Z" fill="#000000" fill-rule="evenodd" fill-opacity="1" /></svg>
