<?xml version="1.0" encoding="utf-8"?>
<svg xmlns="http://www.w3.org/2000/svg" xmlns:xlink="http://www.w3.org/1999/xlink" width="600" height="400" viewBox="0 0 2400 1600">
<defs>
  <clipPath id="clip940">
    <rect x="0" y="0" width="2400" height="1600"/>
  </clipPath>
</defs>
<path clip-path="url(#clip940)" d="
M0 1600 L2400 1600 L2400 0 L0 0  Z
  " fill="#ffffff" fill-rule="evenodd" fill-opacity="1"/>
<defs>
  <clipPath id="clip941">
    <rect x="480" y="0" width="1681" height="1600"/>
  </clipPath>
</defs>
<path clip-path="url(#clip940)" d="
M306.959 1486.45 L1752.9 1486.45 L1752.9 123.472 L306.959 123.472  Z
  " fill="#ffffff" fill-rule="evenodd" fill-opacity="1"/>
<defs>
  <clipPath id="clip942">
    <rect x="306" y="123" width="1447" height="1364"/>
  </clipPath>
</defs>
<polyline clip-path="url(#clip942)" style="stroke:#000000; stroke-linecap:butt; stroke-linejoin:round; stroke-width:2; stroke-opacity:0.1; fill:none" points="
  461.557,1486.45 461.557,123.472 
  "/>
<polyline clip-path="url(#clip942)" style="stroke:#000000; stroke-linecap:butt; stroke-linejoin:round; stroke-width:2; stroke-opacity:0.1; fill:none" points="
  745.744,1486.45 745.744,123.472 
  "/>
<polyline clip-path="url(#clip942)" style="stroke:#000000; stroke-linecap:butt; stroke-linejoin:round; stroke-width:2; stroke-opacity:0.1; fill:none" points="
  1029.93,1486.45 1029.93,123.472 
  "/>
<polyline clip-path="url(#clip942)" style="stroke:#000000; stroke-linecap:butt; stroke-linejoin:round; stroke-width:2; stroke-opacity:0.1; fill:none" points="
  1314.12,1486.45 1314.12,123.472 
  "/>
<polyline clip-path="url(#clip942)" style="stroke:#000000; stroke-linecap:butt; stroke-linejoin:round; stroke-width:2; stroke-opacity:0.1; fill:none" points="
  1598.3,1486.45 1598.3,123.472 
  "/>
<polyline clip-path="url(#clip940)" style="stroke:#000000; stroke-linecap:butt; stroke-linejoin:round; stroke-width:4; stroke-opacity:1; fill:none" points="
  306.959,1486.45 1752.9,1486.45 
  "/>
<polyline clip-path="url(#clip940)" style="stroke:#000000; stroke-linecap:butt; stroke-linejoin:round; stroke-width:4; stroke-opacity:1; fill:none" points="
  461.557,1486.45 461.557,1467.55 
  "/>
<polyline clip-path="url(#clip940)" style="stroke:#000000; stroke-linecap:butt; stroke-linejoin:round; stroke-width:4; stroke-opacity:1; fill:none" points="
  745.744,1486.45 745.744,1467.55 
  "/>
<polyline clip-path="url(#clip940)" style="stroke:#000000; stroke-linecap:butt; stroke-linejoin:round; stroke-width:4; stroke-opacity:1; fill:none" points="
  1029.93,1486.45 1029.93,1467.55 
  "/>
<polyline clip-path="url(#clip940)" style="stroke:#000000; stroke-linecap:butt; stroke-linejoin:round; stroke-width:4; stroke-opacity:1; fill:none" points="
  1314.12,1486.45 1314.12,1467.55 
  "/>
<polyline clip-path="url(#clip940)" style="stroke:#000000; stroke-linecap:butt; stroke-linejoin:round; stroke-width:4; stroke-opacity:1; fill:none" points="
  1598.3,1486.45 1598.3,1467.55 
  "/>
<path clip-path="url(#clip940)" d="M408.085 1532.02 L437.761 1532.02 L437.761 1535.95 L408.085 1535.95 L408.085 1532.02 Z" fill="#000000" fill-rule="evenodd" fill-opacity="1" /><path clip-path="url(#clip940)" d="M448.663 1544.91 L456.302 1544.91 L456.302 1518.55 L447.992 1520.21 L447.992 1515.95 L456.256 1514.29 L460.932 1514.29 L460.932 1544.91 L468.571 1544.91 L468.571 1548.85 L448.663 1548.85 L448.663 1544.91 Z" fill="#000000" fill-rule="evenodd" fill-opacity="1" /><path clip-path="url(#clip940)" d="M478.015 1542.97 L482.899 1542.97 L482.899 1548.85 L478.015 1548.85 L478.015 1542.97 Z" fill="#000000" fill-rule="evenodd" fill-opacity="1" /><path clip-path="url(#clip940)" d="M503.084 1517.37 Q499.473 1517.37 497.645 1520.93 Q495.839 1524.47 495.839 1531.6 Q495.839 1538.71 497.645 1542.27 Q499.473 1545.82 503.084 1545.82 Q506.719 1545.82 508.524 1542.27 Q510.353 1538.71 510.353 1531.6 Q510.353 1524.47 508.524 1520.93 Q506.719 1517.37 503.084 1517.37 M503.084 1513.66 Q508.894 1513.66 511.95 1518.27 Q515.029 1522.85 515.029 1531.6 Q515.029 1540.33 511.95 1544.94 Q508.894 1549.52 503.084 1549.52 Q497.274 1549.52 494.195 1544.94 Q491.14 1540.33 491.14 1531.6 Q491.14 1522.85 494.195 1518.27 Q497.274 1513.66 503.084 1513.66 Z" fill="#000000" fill-rule="evenodd" fill-opacity="1" /><path clip-path="url(#clip940)" d="M692.769 1532.02 L722.445 1532.02 L722.445 1535.95 L692.769 1535.95 L692.769 1532.02 Z" fill="#000000" fill-rule="evenodd" fill-opacity="1" /><path clip-path="url(#clip940)" d="M742.538 1517.37 Q738.926 1517.37 737.098 1520.93 Q735.292 1524.47 735.292 1531.6 Q735.292 1538.71 737.098 1542.27 Q738.926 1545.82 742.538 1545.82 Q746.172 1545.82 747.977 1542.27 Q749.806 1538.71 749.806 1531.6 Q749.806 1524.47 747.977 1520.93 Q746.172 1517.37 742.538 1517.37 M742.538 1513.66 Q748.348 1513.66 751.403 1518.27 Q754.482 1522.85 754.482 1531.6 Q754.482 1540.33 751.403 1544.94 Q748.348 1549.52 742.538 1549.52 Q736.727 1549.52 733.649 1544.94 Q730.593 1540.33 730.593 1531.6 Q730.593 1522.85 733.649 1518.27 Q736.727 1513.66 742.538 1513.66 Z" fill="#000000" fill-rule="evenodd" fill-opacity="1" /><path clip-path="url(#clip940)" d="M762.7 1542.97 L767.584 1542.97 L767.584 1548.85 L762.7 1548.85 L762.7 1542.97 Z" fill="#000000" fill-rule="evenodd" fill-opacity="1" /><path clip-path="url(#clip940)" d="M777.815 1514.29 L796.172 1514.29 L796.172 1518.22 L782.098 1518.22 L782.098 1526.7 Q783.116 1526.35 784.135 1526.19 Q785.153 1526 786.172 1526 Q791.959 1526 795.338 1529.17 Q798.718 1532.34 798.718 1537.76 Q798.718 1543.34 795.246 1546.44 Q791.773 1549.52 785.454 1549.52 Q783.278 1549.52 781.01 1549.15 Q778.764 1548.78 776.357 1548.04 L776.357 1543.34 Q778.44 1544.47 780.662 1545.03 Q782.885 1545.58 785.361 1545.58 Q789.366 1545.58 791.704 1543.48 Q794.042 1541.37 794.042 1537.76 Q794.042 1534.15 791.704 1532.04 Q789.366 1529.94 785.361 1529.94 Q783.486 1529.94 781.611 1530.35 Q779.76 1530.77 777.815 1531.65 L777.815 1514.29 Z" fill="#000000" fill-rule="evenodd" fill-opacity="1" /><path clip-path="url(#clip940)" d="M1007.31 1517.37 Q1003.7 1517.37 1001.88 1520.93 Q1000.07 1524.47 1000.07 1531.6 Q1000.07 1538.71 1001.88 1542.27 Q1003.7 1545.82 1007.31 1545.82 Q1010.95 1545.82 1012.75 1542.27 Q1014.58 1538.71 1014.58 1531.6 Q1014.58 1524.47 1012.75 1520.93 Q1010.95 1517.37 1007.31 1517.37 M1007.31 1513.66 Q1013.12 1513.66 1016.18 1518.27 Q1019.26 1522.85 1019.26 1531.6 Q1019.26 1540.33 1016.18 1544.94 Q1013.12 1549.52 1007.31 1549.52 Q1001.5 1549.52 998.426 1544.94 Q995.37 1540.33 995.37 1531.6 Q995.37 1522.85 998.426 1518.27 Q1001.5 1513.66 1007.31 1513.66 Z" fill="#000000" fill-rule="evenodd" fill-opacity="1" /><path clip-path="url(#clip940)" d="M1027.48 1542.97 L1032.36 1542.97 L1032.36 1548.85 L1027.48 1548.85 L1027.48 1542.97 Z" fill="#000000" fill-rule="evenodd" fill-opacity="1" /><path clip-path="url(#clip940)" d="M1052.55 1517.37 Q1048.93 1517.37 1047.11 1520.93 Q1045.3 1524.47 1045.3 1531.6 Q1045.3 1538.71 1047.11 1542.27 Q1048.93 1545.82 1052.55 1545.82 Q1056.18 1545.82 1057.99 1542.27 Q1059.81 1538.71 1059.81 1531.6 Q1059.81 1524.47 1057.99 1520.93 Q1056.18 1517.37 1052.55 1517.37 M1052.55 1513.66 Q1058.36 1513.66 1061.41 1518.27 Q1064.49 1522.85 1064.49 1531.6 Q1064.49 1540.33 1061.41 1544.94 Q1058.36 1549.52 1052.55 1549.52 Q1046.74 1549.52 1043.66 1544.94 Q1040.6 1540.33 1040.6 1531.6 Q1040.6 1522.85 1043.66 1518.27 Q1046.74 1513.66 1052.55 1513.66 Z" fill="#000000" fill-rule="evenodd" fill-opacity="1" /><path clip-path="url(#clip940)" d="M1292 1517.37 Q1288.39 1517.37 1286.56 1520.93 Q1284.75 1524.47 1284.75 1531.6 Q1284.75 1538.71 1286.56 1542.27 Q1288.39 1545.82 1292 1545.82 Q1295.63 1545.82 1297.44 1542.27 Q1299.27 1538.71 1299.27 1531.6 Q1299.27 1524.47 1297.44 1520.93 Q1295.63 1517.37 1292 1517.37 M1292 1513.66 Q1297.81 1513.66 1300.86 1518.27 Q1303.94 1522.85 1303.94 1531.6 Q1303.94 1540.33 1300.86 1544.94 Q1297.81 1549.52 1292 1549.52 Q1286.19 1549.52 1283.11 1544.94 Q1280.05 1540.33 1280.05 1531.6 Q1280.05 1522.85 1283.11 1518.27 Q1286.19 1513.66 1292 1513.66 Z" fill="#000000" fill-rule="evenodd" fill-opacity="1" /><path clip-path="url(#clip940)" d="M1312.16 1542.97 L1317.05 1542.97 L1317.05 1548.85 L1312.16 1548.85 L1312.16 1542.97 Z" fill="#000000" fill-rule="evenodd" fill-opacity="1" /><path clip-path="url(#clip940)" d="M1327.28 1514.29 L1345.63 1514.29 L1345.63 1518.22 L1331.56 1518.22 L1331.56 1526.7 Q1332.58 1526.35 1333.6 1526.19 Q1334.61 1526 1335.63 1526 Q1341.42 1526 1344.8 1529.17 Q1348.18 1532.34 1348.18 1537.76 Q1348.18 1543.34 1344.71 1546.44 Q1341.24 1549.52 1334.92 1549.52 Q1332.74 1549.52 1330.47 1549.15 Q1328.23 1548.78 1325.82 1548.04 L1325.82 1543.34 Q1327.9 1544.47 1330.12 1545.03 Q1332.35 1545.58 1334.82 1545.58 Q1338.83 1545.58 1341.17 1543.48 Q1343.5 1541.37 1343.5 1537.76 Q1343.5 1534.15 1341.17 1532.04 Q1338.83 1529.94 1334.82 1529.94 Q1332.95 1529.94 1331.07 1530.35 Q1329.22 1530.77 1327.28 1531.65 L1327.28 1514.29 Z" fill="#000000" fill-rule="evenodd" fill-opacity="1" /><path clip-path="url(#clip940)" d="M1565.46 1544.91 L1573.1 1544.91 L1573.1 1518.55 L1564.79 1520.21 L1564.79 1515.95 L1573.05 1514.29 L1577.73 1514.29 L1577.73 1544.91 L1585.36 1544.91 L1585.36 1548.85 L1565.46 1548.85 L1565.46 1544.91 Z" fill="#000000" fill-rule="evenodd" fill-opacity="1" /><path clip-path="url(#clip940)" d="M1594.81 1542.97 L1599.69 1542.97 L1599.69 1548.85 L1594.81 1548.85 L1594.81 1542.97 Z" fill="#000000" fill-rule="evenodd" fill-opacity="1" /><path clip-path="url(#clip940)" d="M1619.88 1517.37 Q1616.27 1517.37 1614.44 1520.93 Q1612.63 1524.47 1612.63 1531.6 Q1612.63 1538.71 1614.44 1542.27 Q1616.27 1545.82 1619.88 1545.82 Q1623.51 1545.82 1625.32 1542.27 Q1627.15 1538.71 1627.15 1531.6 Q1627.15 1524.47 1625.32 1520.93 Q1623.51 1517.37 1619.88 1517.37 M1619.88 1513.66 Q1625.69 1513.66 1628.74 1518.27 Q1631.82 1522.85 1631.82 1531.6 Q1631.82 1540.33 1628.74 1544.94 Q1625.69 1549.52 1619.88 1549.52 Q1614.07 1549.52 1610.99 1544.94 Q1607.93 1540.33 1607.93 1531.6 Q1607.93 1522.85 1610.99 1518.27 Q1614.07 1513.66 1619.88 1513.66 Z" fill="#000000" fill-rule="evenodd" fill-opacity="1" /><polyline clip-path="url(#clip942)" style="stroke:#000000; stroke-linecap:butt; stroke-linejoin:round; stroke-width:2; stroke-opacity:0.1; fill:none" points="
  306.959,1447.87 1752.9,1447.87 
  "/>
<polyline clip-path="url(#clip942)" style="stroke:#000000; stroke-linecap:butt; stroke-linejoin:round; stroke-width:2; stroke-opacity:0.1; fill:none" points="
  306.959,1097.03 1752.9,1097.03 
  "/>
<polyline clip-path="url(#clip942)" style="stroke:#000000; stroke-linecap:butt; stroke-linejoin:round; stroke-width:2; stroke-opacity:0.1; fill:none" points="
  306.959,746.18 1752.9,746.18 
  "/>
<polyline clip-path="url(#clip942)" style="stroke:#000000; stroke-linecap:butt; stroke-linejoin:round; stroke-width:2; stroke-opacity:0.1; fill:none" points="
  306.959,395.334 1752.9,395.334 
  "/>
<polyline clip-path="url(#clip940)" style="stroke:#000000; stroke-linecap:butt; stroke-linejoin:round; stroke-width:4; stroke-opacity:1; fill:none" points="
  306.959,1486.45 306.959,123.472 
  "/>
<polyline clip-path="url(#clip940)" style="stroke:#000000; stroke-linecap:butt; stroke-linejoin:round; stroke-width:4; stroke-opacity:1; fill:none" points="
  306.959,1447.87 320.316,1447.87 
  "/>
<polyline clip-path="url(#clip940)" style="stroke:#000000; stroke-linecap:butt; stroke-linejoin:round; stroke-width:4; stroke-opacity:1; fill:none" points="
  306.959,1097.03 320.316,1097.03 
  "/>
<polyline clip-path="url(#clip940)" style="stroke:#000000; stroke-linecap:butt; stroke-linejoin:round; stroke-width:4; stroke-opacity:1; fill:none" points="
  306.959,746.18 320.316,746.18 
  "/>
<polyline clip-path="url(#clip940)" style="stroke:#000000; stroke-linecap:butt; stroke-linejoin:round; stroke-width:4; stroke-opacity:1; fill:none" points="
  306.959,395.334 320.316,395.334 
  "/>
<path clip-path="url(#clip940)" d="M259.015 1433.67 Q255.404 1433.67 253.575 1437.24 Q251.769 1440.78 251.769 1447.91 Q251.769 1455.01 253.575 1458.58 Q255.404 1462.12 259.015 1462.12 Q262.649 1462.12 264.455 1458.58 Q266.283 1455.01 266.283 1447.91 Q266.283 1440.78 264.455 1437.24 Q262.649 1433.67 259.015 1433.67 M259.015 1429.97 Q264.825 1429.97 267.88 1434.57 Q270.959 1439.16 270.959 1447.91 Q270.959 1456.63 267.88 1461.24 Q264.825 1465.82 259.015 1465.82 Q253.205 1465.82 250.126 1461.24 Q247.07 1456.63 247.07 1447.91 Q247.07 1439.16 250.126 1434.57 Q253.205 1429.97 259.015 1429.97 Z" fill="#000000" fill-rule="evenodd" fill-opacity="1" /><path clip-path="url(#clip940)" d="M57.7745 1116.82 L74.0939 1116.82 L74.0939 1120.75 L52.1495 1120.75 L52.1495 1116.82 Q54.8115 1114.06 59.3949 1109.43 Q64.0013 1104.78 65.1819 1103.44 Q67.4272 1100.92 68.3068 1099.18 Q69.2096 1097.42 69.2096 1095.73 Q69.2096 1092.98 67.2652 1091.24 Q65.3439 1089.5 62.2421 1089.5 Q60.043 1089.5 57.5893 1090.27 Q55.1588 1091.03 52.381 1092.58 L52.381 1087.86 Q55.2051 1086.73 57.6588 1086.15 Q60.1124 1085.57 62.1495 1085.57 Q67.5198 1085.57 70.7142 1088.25 Q73.9087 1090.94 73.9087 1095.43 Q73.9087 1097.56 73.0985 1099.48 Q72.3115 1101.38 70.205 1103.97 Q69.6263 1104.64 66.5245 1107.86 Q63.4226 1111.06 57.7745 1116.82 Z" fill="#000000" fill-rule="evenodd" fill-opacity="1" /><path clip-path="url(#clip940)" d="M83.9086 1114.87 L88.7928 1114.87 L88.7928 1120.75 L83.9086 1120.75 L83.9086 1114.87 Z" fill="#000000" fill-rule="evenodd" fill-opacity="1" /><path clip-path="url(#clip940)" d="M108.978 1089.27 Q105.367 1089.27 103.538 1092.84 Q101.733 1096.38 101.733 1103.51 Q101.733 1110.62 103.538 1114.18 Q105.367 1117.72 108.978 1117.72 Q112.612 1117.72 114.418 1114.18 Q116.246 1110.62 116.246 1103.51 Q116.246 1096.38 114.418 1092.84 Q112.612 1089.27 108.978 1089.27 M108.978 1085.57 Q114.788 1085.57 117.844 1090.18 Q120.922 1094.76 120.922 1103.51 Q120.922 1112.24 117.844 1116.84 Q114.788 1121.43 108.978 1121.43 Q103.168 1121.43 100.089 1116.84 Q97.0335 1112.24 97.0335 1103.51 Q97.0335 1094.76 100.089 1090.18 Q103.168 1085.57 108.978 1085.57 Z" fill="#000000" fill-rule="evenodd" fill-opacity="1" /><path clip-path="url(#clip940)" d="M157.311 1095.29 L146.732 1105.92 L157.311 1116.49 L154.556 1119.3 L143.931 1108.67 L133.306 1119.3 L130.575 1116.49 L141.131 1105.92 L130.575 1095.29 L133.306 1092.49 L143.931 1103.12 L154.556 1092.49 L157.311 1095.29 Z" fill="#000000" fill-rule="evenodd" fill-opacity="1" /><path clip-path="url(#clip940)" d="M169.672 1116.82 L177.311 1116.82 L177.311 1090.45 L169.001 1092.12 L169.001 1087.86 L177.265 1086.19 L181.94 1086.19 L181.94 1116.82 L189.579 1116.82 L189.579 1120.75 L169.672 1120.75 L169.672 1116.82 Z" fill="#000000" fill-rule="evenodd" fill-opacity="1" /><path clip-path="url(#clip940)" d="M209.024 1089.27 Q205.413 1089.27 203.584 1092.84 Q201.778 1096.38 201.778 1103.51 Q201.778 1110.62 203.584 1114.18 Q205.413 1117.72 209.024 1117.72 Q212.658 1117.72 214.463 1114.18 Q216.292 1110.62 216.292 1103.51 Q216.292 1096.38 214.463 1092.84 Q212.658 1089.27 209.024 1089.27 M209.024 1085.57 Q214.834 1085.57 217.889 1090.18 Q220.968 1094.76 220.968 1103.51 Q220.968 1112.24 217.889 1116.84 Q214.834 1121.43 209.024 1121.43 Q203.214 1121.43 200.135 1116.84 Q197.079 1112.24 197.079 1103.51 Q197.079 1094.76 200.135 1090.18 Q203.214 1085.57 209.024 1085.57 Z" fill="#000000" fill-rule="evenodd" fill-opacity="1" /><path clip-path="url(#clip940)" d="M220.968 1079.67 L245.08 1079.67 L245.08 1082.87 L220.968 1082.87 L220.968 1079.67 Z" fill="#000000" fill-rule="evenodd" fill-opacity="1" /><path clip-path="url(#clip940)" d="M253.393 1092.76 L253.393 1089.3 Q254.822 1089.98 256.289 1090.33 Q257.756 1090.69 259.167 1090.69 Q262.928 1090.69 264.903 1088.17 Q266.897 1085.63 267.179 1080.48 Q266.088 1082.1 264.414 1082.96 Q262.74 1083.83 260.709 1083.83 Q256.496 1083.83 254.032 1081.29 Q251.587 1078.73 251.587 1074.31 Q251.587 1069.98 254.145 1067.37 Q256.703 1064.76 260.953 1064.76 Q265.825 1064.76 268.382 1068.5 Q270.959 1072.22 270.959 1079.33 Q270.959 1085.97 267.799 1089.94 Q264.659 1093.89 259.336 1093.89 Q257.907 1093.89 256.44 1093.61 Q254.973 1093.33 253.393 1092.76 M260.953 1080.86 Q263.511 1080.86 264.997 1079.11 Q266.502 1077.36 266.502 1074.31 Q266.502 1071.28 264.997 1069.53 Q263.511 1067.77 260.953 1067.77 Q258.396 1067.77 256.891 1069.53 Q255.405 1071.28 255.405 1074.31 Q255.405 1077.36 256.891 1079.11 Q258.396 1080.86 260.953 1080.86 Z" fill="#000000" fill-rule="evenodd" fill-opacity="1" /><path clip-path="url(#clip940)" d="M66.5939 739.422 L54.7884 757.871 L66.5939 757.871 L66.5939 739.422 M65.367 735.348 L71.2466 735.348 L71.2466 757.871 L76.1772 757.871 L76.1772 761.76 L71.2466 761.76 L71.2466 769.908 L66.5939 769.908 L66.5939 761.76 L50.9921 761.76 L50.9921 757.246 L65.367 735.348 Z" fill="#000000" fill-rule="evenodd" fill-opacity="1" /><path clip-path="url(#clip940)" d="M83.9086 764.028 L88.7928 764.028 L88.7928 769.908 L83.9086 769.908 L83.9086 764.028 Z" fill="#000000" fill-rule="evenodd" fill-opacity="1" /><path clip-path="url(#clip940)" d="M108.978 738.426 Q105.367 738.426 103.538 741.991 Q101.733 745.533 101.733 752.662 Q101.733 759.769 103.538 763.334 Q105.367 766.875 108.978 766.875 Q112.612 766.875 114.418 763.334 Q116.246 759.769 116.246 752.662 Q116.246 745.533 114.418 741.991 Q112.612 738.426 108.978 738.426 M108.978 734.723 Q114.788 734.723 117.844 739.329 Q120.922 743.913 120.922 752.662 Q120.922 761.389 117.844 765.996 Q114.788 770.579 108.978 770.579 Q103.168 770.579 100.089 765.996 Q97.0335 761.389 97.0335 752.662 Q97.0335 743.913 100.089 739.329 Q103.168 734.723 108.978 734.723 Z" fill="#000000" fill-rule="evenodd" fill-opacity="1" /><path clip-path="url(#clip940)" d="M157.311 744.445 L146.732 755.07 L157.311 765.649 L154.556 768.449 L143.931 757.824 L133.306 768.449 L130.575 765.649 L141.131 755.07 L130.575 744.445 L133.306 741.644 L143.931 752.269 L154.556 741.644 L157.311 744.445 Z" fill="#000000" fill-rule="evenodd" fill-opacity="1" /><path clip-path="url(#clip940)" d="M169.672 765.973 L177.311 765.973 L177.311 739.607 L169.001 741.274 L169.001 737.014 L177.265 735.348 L181.94 735.348 L181.94 765.973 L189.579 765.973 L189.579 769.908 L169.672 769.908 L169.672 765.973 Z" fill="#000000" fill-rule="evenodd" fill-opacity="1" /><path clip-path="url(#clip940)" d="M209.024 738.426 Q205.413 738.426 203.584 741.991 Q201.778 745.533 201.778 752.662 Q201.778 759.769 203.584 763.334 Q205.413 766.875 209.024 766.875 Q212.658 766.875 214.463 763.334 Q216.292 759.769 216.292 752.662 Q216.292 745.533 214.463 741.991 Q212.658 738.426 209.024 738.426 M209.024 734.723 Q214.834 734.723 217.889 739.329 Q220.968 743.913 220.968 752.662 Q220.968 761.389 217.889 765.996 Q214.834 770.579 209.024 770.579 Q203.214 770.579 200.135 765.996 Q197.079 761.389 197.079 752.662 Q197.079 743.913 200.135 739.329 Q203.214 734.723 209.024 734.723 Z" fill="#000000" fill-rule="evenodd" fill-opacity="1" /><path clip-path="url(#clip940)" d="M220.968 728.824 L245.08 728.824 L245.08 732.021 L220.968 732.021 L220.968 728.824 Z" fill="#000000" fill-rule="evenodd" fill-opacity="1" /><path clip-path="url(#clip940)" d="M253.393 741.914 L253.393 738.454 Q254.822 739.131 256.289 739.488 Q257.756 739.845 259.167 739.845 Q262.928 739.845 264.903 737.325 Q266.897 734.786 267.179 729.633 Q266.088 731.25 264.414 732.115 Q262.74 732.981 260.709 732.981 Q256.496 732.981 254.032 730.442 Q251.587 727.884 251.587 723.464 Q251.587 719.138 254.145 716.524 Q256.703 713.91 260.953 713.91 Q265.825 713.91 268.382 717.652 Q270.959 721.376 270.959 728.486 Q270.959 735.125 267.799 739.093 Q264.659 743.043 259.336 743.043 Q257.907 743.043 256.44 742.761 Q254.973 742.479 253.393 741.914 M260.953 730.009 Q263.511 730.009 264.997 728.26 Q266.502 726.511 266.502 723.464 Q266.502 720.436 264.997 718.687 Q263.511 716.919 260.953 716.919 Q258.396 716.919 256.891 718.687 Q255.405 720.436 255.405 723.464 Q255.405 726.511 256.891 728.26 Q258.396 730.009 260.953 730.009 Z" fill="#000000" fill-rule="evenodd" fill-opacity="1" /><path clip-path="url(#clip940)" d="M64.3254 399.918 Q61.1773 399.918 59.3254 402.071 Q57.4967 404.223 57.4967 407.973 Q57.4967 411.7 59.3254 413.876 Q61.1773 416.029 64.3254 416.029 Q67.4735 416.029 69.3022 413.876 Q71.1541 411.7 71.1541 407.973 Q71.1541 404.223 69.3022 402.071 Q67.4735 399.918 64.3254 399.918 M73.6077 385.265 L73.6077 389.524 Q71.8485 388.691 70.0429 388.251 Q68.2606 387.811 66.5013 387.811 Q61.8717 387.811 59.418 390.936 Q56.9875 394.061 56.6402 400.381 Q58.006 398.367 60.0662 397.302 Q62.1263 396.214 64.6032 396.214 Q69.8115 396.214 72.8207 399.385 Q75.8531 402.534 75.8531 407.973 Q75.8531 413.297 72.705 416.515 Q69.5568 419.733 64.3254 419.733 Q58.33 419.733 55.1588 415.149 Q51.9875 410.543 51.9875 401.816 Q51.9875 393.622 55.8764 388.761 Q59.7652 383.876 66.3161 383.876 Q68.0754 383.876 69.8578 384.224 Q71.6633 384.571 73.6077 385.265 Z" fill="#000000" fill-rule="evenodd" fill-opacity="1" /><path clip-path="url(#clip940)" d="M83.9086 413.182 L88.7928 413.182 L88.7928 419.061 L83.9086 419.061 L83.9086 413.182 Z" fill="#000000" fill-rule="evenodd" fill-opacity="1" /><path clip-path="url(#clip940)" d="M108.978 387.58 Q105.367 387.58 103.538 391.145 Q101.733 394.686 101.733 401.816 Q101.733 408.922 103.538 412.487 Q105.367 416.029 108.978 416.029 Q112.612 416.029 114.418 412.487 Q116.246 408.922 116.246 401.816 Q116.246 394.686 114.418 391.145 Q112.612 387.58 108.978 387.58 M108.978 383.876 Q114.788 383.876 117.844 388.483 Q120.922 393.066 120.922 401.816 Q120.922 410.543 117.844 415.149 Q114.788 419.733 108.978 419.733 Q103.168 419.733 100.089 415.149 Q97.0335 410.543 97.0335 401.816 Q97.0335 393.066 100.089 388.483 Q103.168 383.876 108.978 383.876 Z" fill="#000000" fill-rule="evenodd" fill-opacity="1" /><path clip-path="url(#clip940)" d="M157.311 393.598 L146.732 404.223 L157.311 414.802 L154.556 417.603 L143.931 406.978 L133.306 417.603 L130.575 414.802 L141.131 404.223 L130.575 393.598 L133.306 390.798 L143.931 401.422 L154.556 390.798 L157.311 393.598 Z" fill="#000000" fill-rule="evenodd" fill-opacity="1" /><path clip-path="url(#clip940)" d="M169.672 415.126 L177.311 415.126 L177.311 388.761 L169.001 390.427 L169.001 386.168 L177.265 384.501 L181.94 384.501 L181.94 415.126 L189.579 415.126 L189.579 419.061 L169.672 419.061 L169.672 415.126 Z" fill="#000000" fill-rule="evenodd" fill-opacity="1" /><path clip-path="url(#clip940)" d="M209.024 387.58 Q205.413 387.58 203.584 391.145 Q201.778 394.686 201.778 401.816 Q201.778 408.922 203.584 412.487 Q205.413 416.029 209.024 416.029 Q212.658 416.029 214.463 412.487 Q216.292 408.922 216.292 401.816 Q216.292 394.686 214.463 391.145 Q212.658 387.58 209.024 387.58 M209.024 383.876 Q214.834 383.876 217.889 388.483 Q220.968 393.066 220.968 401.816 Q220.968 410.543 217.889 415.149 Q214.834 419.733 209.024 419.733 Q203.214 419.733 200.135 415.149 Q197.079 410.543 197.079 401.816 Q197.079 393.066 200.135 388.483 Q203.214 383.876 209.024 383.876 Z" fill="#000000" fill-rule="evenodd" fill-opacity="1" /><path clip-path="url(#clip940)" d="M220.968 377.978 L245.08 377.978 L245.08 381.175 L220.968 381.175 L220.968 377.978 Z" fill="#000000" fill-rule="evenodd" fill-opacity="1" /><path clip-path="url(#clip940)" d="M253.393 391.068 L253.393 387.607 Q254.822 388.284 256.289 388.642 Q257.756 388.999 259.167 388.999 Q262.928 388.999 264.903 386.479 Q266.897 383.94 267.179 378.786 Q266.088 380.404 264.414 381.269 Q262.74 382.134 260.709 382.134 Q256.496 382.134 254.032 379.595 Q251.587 377.037 251.587 372.617 Q251.587 368.292 254.145 365.677 Q256.703 363.063 260.953 363.063 Q265.825 363.063 268.382 366.806 Q270.959 370.53 270.959 377.639 Q270.959 384.278 267.799 388.247 Q264.659 392.196 259.336 392.196 Q257.907 392.196 256.44 391.914 Q254.973 391.632 253.393 391.068 M260.953 379.163 Q263.511 379.163 264.997 377.413 Q266.502 375.664 266.502 372.617 Q266.502 369.589 264.997 367.84 Q263.511 366.072 260.953 366.072 Q258.396 366.072 256.891 367.84 Q255.405 369.589 255.405 372.617 Q255.405 375.664 256.891 377.413 Q258.396 379.163 260.953 379.163 Z" fill="#000000" fill-rule="evenodd" fill-opacity="1" /><path clip-path="url(#clip940)" d="M404.613 12.096 L442.853 12.096 L442.853 18.9825 L412.795 18.9825 L412.795 36.8875 L441.597 36.8875 L441.597 43.7741 L412.795 43.7741 L412.795 65.6895 L443.582 65.6895 L443.582 72.576 L404.613 72.576 L404.613 12.096 Z" fill="#000000" fill-rule="evenodd" fill-opacity="1" /><path clip-path="url(#clip940)" d="M482.998 34.1734 Q481.742 33.4443 480.243 33.1202 Q478.785 32.7556 477.002 32.7556 Q470.683 32.7556 467.28 36.8875 Q463.918 40.9789 463.918 48.6757 L463.918 72.576 L456.424 72.576 L456.424 27.2059 L463.918 27.2059 L463.918 34.2544 Q466.267 30.1225 470.035 28.1376 Q473.802 26.1121 479.19 26.1121 Q479.959 26.1121 480.891 26.2337 Q481.823 26.3147 482.957 26.5172 L482.998 34.1734 Z" fill="#000000" fill-rule="evenodd" fill-opacity="1" /><path clip-path="url(#clip940)" d="M515.648 34.1734 Q514.392 33.4443 512.893 33.1202 Q511.435 32.7556 509.653 32.7556 Q503.333 32.7556 499.93 36.8875 Q496.568 40.9789 496.568 48.6757 L496.568 72.576 L489.074 72.576 L489.074 27.2059 L496.568 27.2059 L496.568 34.2544 Q498.918 30.1225 502.685 28.1376 Q506.452 26.1121 511.84 26.1121 Q512.61 26.1121 513.541 26.2337 Q514.473 26.3147 515.607 26.5172 L515.648 34.1734 Z" fill="#000000" fill-rule="evenodd" fill-opacity="1" /><path clip-path="url(#clip940)" d="M539.224 32.4315 Q533.229 32.4315 529.745 37.1306 Q526.261 41.7891 526.261 49.9314 Q526.261 58.0738 529.705 62.7728 Q533.188 67.4314 539.224 67.4314 Q545.179 67.4314 548.663 62.7323 Q552.147 58.0333 552.147 49.9314 Q552.147 41.8701 548.663 37.1711 Q545.179 32.4315 539.224 32.4315 M539.224 26.1121 Q548.946 26.1121 554.496 32.4315 Q560.046 38.7509 560.046 49.9314 Q560.046 61.0714 554.496 67.4314 Q548.946 73.7508 539.224 73.7508 Q529.461 73.7508 523.912 67.4314 Q518.402 61.0714 518.402 49.9314 Q518.402 38.7509 523.912 32.4315 Q529.461 26.1121 539.224 26.1121 Z" fill="#000000" fill-rule="evenodd" fill-opacity="1" /><path clip-path="url(#clip940)" d="M598.691 34.1734 Q597.436 33.4443 595.937 33.1202 Q594.478 32.7556 592.696 32.7556 Q586.377 32.7556 582.974 36.8875 Q579.612 40.9789 579.612 48.6757 L579.612 72.576 L572.117 72.576 L572.117 27.2059 L579.612 27.2059 L579.612 34.2544 Q581.961 30.1225 585.729 28.1376 Q589.496 26.1121 594.884 26.1121 Q595.653 26.1121 596.585 26.2337 Q597.517 26.3147 598.651 26.5172 L598.691 34.1734 Z" fill="#000000" fill-rule="evenodd" fill-opacity="1" /><path clip-path="url(#clip940)" d="M650.462 32.4315 Q644.467 32.4315 640.983 37.1306 Q637.499 41.7891 637.499 49.9314 Q637.499 58.0738 640.942 62.7728 Q644.426 67.4314 650.462 67.4314 Q656.417 67.4314 659.901 62.7323 Q663.384 58.0333 663.384 49.9314 Q663.384 41.8701 659.901 37.1711 Q656.417 32.4315 650.462 32.4315 M650.462 26.1121 Q660.184 26.1121 665.734 32.4315 Q671.284 38.7509 671.284 49.9314 Q671.284 61.0714 665.734 67.4314 Q660.184 73.7508 650.462 73.7508 Q640.699 73.7508 635.15 67.4314 Q629.64 61.0714 629.64 49.9314 Q629.64 38.7509 635.15 32.4315 Q640.699 26.1121 650.462 26.1121 Z" fill="#000000" fill-rule="evenodd" fill-opacity="1" /><path clip-path="url(#clip940)" d="M706.607 9.54393 L706.607 15.7418 L699.478 15.7418 Q695.468 15.7418 693.888 17.3622 Q692.348 18.9825 692.348 23.1955 L692.348 27.2059 L704.623 27.2059 L704.623 32.9987 L692.348 32.9987 L692.348 72.576 L684.854 72.576 L684.854 32.9987 L677.725 32.9987 L677.725 27.2059 L684.854 27.2059 L684.854 24.0462 Q684.854 16.471 688.378 13.0277 Q691.903 9.54393 699.559 9.54393 L706.607 9.54393 Z" fill="#000000" fill-rule="evenodd" fill-opacity="1" /><path clip-path="url(#clip940)" d="M747.319 65.6895 L775.878 65.6895 L775.878 72.576 L737.475 72.576 L737.475 65.6895 Q742.134 60.8689 750.155 52.7671 Q758.216 44.6248 760.282 42.2752 Q764.211 37.8598 765.751 34.8216 Q767.331 31.7429 767.331 28.7857 Q767.331 23.9651 763.928 20.927 Q760.566 17.8888 755.137 17.8888 Q751.289 17.8888 746.995 19.2256 Q742.742 20.5624 737.88 23.2765 L737.88 15.0127 Q742.823 13.0277 747.117 12.015 Q751.41 11.0023 754.975 11.0023 Q764.373 11.0023 769.964 15.7013 Q775.554 20.4004 775.554 28.2591 Q775.554 31.9859 774.136 35.3482 Q772.759 38.6699 769.072 43.2069 Q768.06 44.3817 762.631 50.0125 Q757.203 55.6027 747.319 65.6895 Z" fill="#000000" fill-rule="evenodd" fill-opacity="1" /><path clip-path="url(#clip940)" d="M810.554 17.4837 Q804.234 17.4837 801.034 23.7221 Q797.874 29.92 797.874 42.3968 Q797.874 54.833 801.034 61.0714 Q804.234 67.2693 810.554 67.2693 Q816.914 67.2693 820.073 61.0714 Q823.274 54.833 823.274 42.3968 Q823.274 29.92 820.073 23.7221 Q816.914 17.4837 810.554 17.4837 M810.554 11.0023 Q820.721 11.0023 826.069 19.0636 Q831.456 27.0843 831.456 42.3968 Q831.456 57.6687 826.069 65.73 Q820.721 73.7508 810.554 73.7508 Q800.386 73.7508 794.998 65.73 Q789.651 57.6687 789.651 42.3968 Q789.651 27.0843 794.998 19.0636 Q800.386 11.0023 810.554 11.0023 Z" fill="#000000" fill-rule="evenodd" fill-opacity="1" /><path clip-path="url(#clip940)" d="M841.016 46.5287 L862.851 46.5287 L862.851 53.1722 L841.016 53.1722 L841.016 46.5287 Z" fill="#000000" fill-rule="evenodd" fill-opacity="1" /><path clip-path="url(#clip940)" d="M901.902 17.6457 Q892.99 17.6457 887.723 24.2892 Q882.498 30.9327 882.498 42.3968 Q882.498 53.8203 887.723 60.4638 Q892.99 67.1073 901.902 67.1073 Q910.814 67.1073 915.999 60.4638 Q921.224 53.8203 921.224 42.3968 Q921.224 30.9327 915.999 24.2892 Q910.814 17.6457 901.902 17.6457 M901.902 11.0023 Q914.621 11.0023 922.237 19.5497 Q929.853 28.0566 929.853 42.3968 Q929.853 56.6965 922.237 65.2439 Q914.621 73.7508 901.902 73.7508 Q889.141 73.7508 881.485 65.2439 Q873.869 56.737 873.869 42.3968 Q873.869 28.0566 881.485 19.5497 Q889.141 11.0023 901.902 11.0023 Z" fill="#000000" fill-rule="evenodd" fill-opacity="1" /><path clip-path="url(#clip940)" d="M968.62 34.1734 Q967.364 33.4443 965.865 33.1202 Q964.407 32.7556 962.625 32.7556 Q956.305 32.7556 952.902 36.8875 Q949.54 40.9789 949.54 48.6757 L949.54 72.576 L942.046 72.576 L942.046 27.2059 L949.54 27.2059 L949.54 34.2544 Q951.89 30.1225 955.657 28.1376 Q959.424 26.1121 964.812 26.1121 Q965.582 26.1121 966.514 26.2337 Q967.445 26.3147 968.579 26.5172 L968.62 34.1734 Z" fill="#000000" fill-rule="evenodd" fill-opacity="1" /><path clip-path="url(#clip940)" d="M1004.84 34.0924 L1004.84 9.54393 L1012.29 9.54393 L1012.29 72.576 L1004.84 72.576 L1004.84 65.7705 Q1002.49 69.8214 998.88 71.8063 Q995.315 73.7508 990.292 73.7508 Q982.069 73.7508 976.884 67.1883 Q971.739 60.6258 971.739 49.9314 Q971.739 39.2371 976.884 32.6746 Q982.069 26.1121 990.292 26.1121 Q995.315 26.1121 998.88 28.0971 Q1002.49 30.0415 1004.84 34.0924 M979.436 49.9314 Q979.436 58.1548 982.798 62.8538 Q986.201 67.5124 992.115 67.5124 Q998.03 67.5124 1001.43 62.8538 Q1004.84 58.1548 1004.84 49.9314 Q1004.84 41.7081 1001.43 37.0496 Q998.03 32.3505 992.115 32.3505 Q986.201 32.3505 982.798 37.0496 Q979.436 41.7081 979.436 49.9314 Z" fill="#000000" fill-rule="evenodd" fill-opacity="1" /><path clip-path="url(#clip940)" d="M1066.45 48.0275 L1066.45 51.6733 L1032.18 51.6733 Q1032.66 59.3701 1036.8 63.421 Q1040.97 67.4314 1048.38 67.4314 Q1052.68 67.4314 1056.69 66.3781 Q1060.74 65.3249 1064.71 63.2184 L1064.71 70.267 Q1060.7 71.9684 1056.48 72.8596 Q1052.27 73.7508 1047.94 73.7508 Q1037.08 73.7508 1030.72 67.4314 Q1024.4 61.1119 1024.4 50.3365 Q1024.4 39.1965 1030.4 32.6746 Q1036.43 26.1121 1046.64 26.1121 Q1055.8 26.1121 1061.1 32.0264 Q1066.45 37.9003 1066.45 48.0275 M1059 45.84 Q1058.91 39.7232 1055.55 36.0774 Q1052.23 32.4315 1046.72 32.4315 Q1040.48 32.4315 1036.72 35.9558 Q1032.99 39.4801 1032.42 45.8805 L1059 45.84 Z" fill="#000000" fill-rule="evenodd" fill-opacity="1" /><path clip-path="url(#clip940)" d="M1104.97 34.1734 Q1103.72 33.4443 1102.22 33.1202 Q1100.76 32.7556 1098.98 32.7556 Q1092.66 32.7556 1089.26 36.8875 Q1085.89 40.9789 1085.89 48.6757 L1085.89 72.576 L1078.4 72.576 L1078.4 27.2059 L1085.89 27.2059 L1085.89 34.2544 Q1088.24 30.1225 1092.01 28.1376 Q1095.78 26.1121 1101.17 26.1121 Q1101.94 26.1121 1102.87 26.2337 Q1103.8 26.3147 1104.93 26.5172 L1104.97 34.1734 Z" fill="#000000" fill-rule="evenodd" fill-opacity="1" /><path clip-path="url(#clip940)" d="M1139.49 12.096 L1147.67 12.096 L1147.67 72.576 L1139.49 72.576 L1139.49 12.096 Z" fill="#000000" fill-rule="evenodd" fill-opacity="1" /><path clip-path="url(#clip940)" d="M1201.34 45.1919 L1201.34 72.576 L1193.89 72.576 L1193.89 45.4349 Q1193.89 38.994 1191.38 35.7938 Q1188.87 32.5936 1183.84 32.5936 Q1177.81 32.5936 1174.32 36.4419 Q1170.84 40.2903 1170.84 46.9338 L1170.84 72.576 L1163.35 72.576 L1163.35 27.2059 L1170.84 27.2059 L1170.84 34.2544 Q1173.51 30.163 1177.12 28.1376 Q1180.77 26.1121 1185.51 26.1121 Q1193.32 26.1121 1197.33 30.9732 Q1201.34 35.7938 1201.34 45.1919 Z" fill="#000000" fill-rule="evenodd" fill-opacity="1" /><path clip-path="url(#clip940)" d="M1223.58 14.324 L1223.58 27.2059 L1238.94 27.2059 L1238.94 32.9987 L1223.58 32.9987 L1223.58 57.6282 Q1223.58 63.1779 1225.08 64.7578 Q1226.62 66.3376 1231.28 66.3376 L1238.94 66.3376 L1238.94 72.576 L1231.28 72.576 Q1222.65 72.576 1219.37 69.3758 Q1216.09 66.1351 1216.09 57.6282 L1216.09 32.9987 L1210.62 32.9987 L1210.62 27.2059 L1216.09 27.2059 L1216.09 14.324 L1223.58 14.324 Z" fill="#000000" fill-rule="evenodd" fill-opacity="1" /><path clip-path="url(#clip940)" d="M1287.55 48.0275 L1287.55 51.6733 L1253.28 51.6733 Q1253.76 59.3701 1257.9 63.421 Q1262.07 67.4314 1269.48 67.4314 Q1273.77 67.4314 1277.78 66.3781 Q1281.84 65.3249 1285.81 63.2184 L1285.81 70.267 Q1281.8 71.9684 1277.58 72.8596 Q1273.37 73.7508 1269.04 73.7508 Q1258.18 73.7508 1251.82 67.4314 Q1245.5 61.1119 1245.5 50.3365 Q1245.5 39.1965 1251.49 32.6746 Q1257.53 26.1121 1267.74 26.1121 Q1276.89 26.1121 1282.2 32.0264 Q1287.55 37.9003 1287.55 48.0275 M1280.09 45.84 Q1280.01 39.7232 1276.65 36.0774 Q1273.33 32.4315 1267.82 32.4315 Q1261.58 32.4315 1257.81 35.9558 Q1254.09 39.4801 1253.52 45.8805 L1280.09 45.84 Z" fill="#000000" fill-rule="evenodd" fill-opacity="1" /><path clip-path="url(#clip940)" d="M1326.07 34.1734 Q1324.82 33.4443 1323.32 33.1202 Q1321.86 32.7556 1320.08 32.7556 Q1313.76 32.7556 1310.35 36.8875 Q1306.99 40.9789 1306.99 48.6757 L1306.99 72.576 L1299.5 72.576 L1299.5 27.2059 L1306.99 27.2059 L1306.99 34.2544 Q1309.34 30.1225 1313.11 28.1376 Q1316.88 26.1121 1322.26 26.1121 Q1323.03 26.1121 1323.97 26.2337 Q1324.9 26.3147 1326.03 26.5172 L1326.07 34.1734 Z" fill="#000000" fill-rule="evenodd" fill-opacity="1" /><path clip-path="url(#clip940)" d="M1341.1 65.7705 L1341.1 89.8329 L1333.61 89.8329 L1333.61 27.2059 L1341.1 27.2059 L1341.1 34.0924 Q1343.45 30.0415 1347.01 28.0971 Q1350.62 26.1121 1355.6 26.1121 Q1363.87 26.1121 1369.01 32.6746 Q1374.2 39.2371 1374.2 49.9314 Q1374.2 60.6258 1369.01 67.1883 Q1363.87 73.7508 1355.6 73.7508 Q1350.62 73.7508 1347.01 71.8063 Q1343.45 69.8214 1341.1 65.7705 M1366.46 49.9314 Q1366.46 41.7081 1363.06 37.0496 Q1359.69 32.3505 1353.78 32.3505 Q1347.87 32.3505 1344.46 37.0496 Q1341.1 41.7081 1341.1 49.9314 Q1341.1 58.1548 1344.46 62.8538 Q1347.87 67.5124 1353.78 67.5124 Q1359.69 67.5124 1363.06 62.8538 Q1366.46 58.1548 1366.46 49.9314 Z" fill="#000000" fill-rule="evenodd" fill-opacity="1" /><path clip-path="url(#clip940)" d="M1404.13 32.4315 Q1398.14 32.4315 1394.65 37.1306 Q1391.17 41.7891 1391.17 49.9314 Q1391.17 58.0738 1394.61 62.7728 Q1398.1 67.4314 1404.13 67.4314 Q1410.09 67.4314 1413.57 62.7323 Q1417.06 58.0333 1417.06 49.9314 Q1417.06 41.8701 1413.57 37.1711 Q1410.09 32.4315 1404.13 32.4315 M1404.13 26.1121 Q1413.85 26.1121 1419.4 32.4315 Q1424.95 38.7509 1424.95 49.9314 Q1424.95 61.0714 1419.4 67.4314 Q1413.85 73.7508 1404.13 73.7508 Q1394.37 73.7508 1388.82 67.4314 Q1383.31 61.0714 1383.31 49.9314 Q1383.31 38.7509 1388.82 32.4315 Q1394.37 26.1121 1404.13 26.1121 Z" fill="#000000" fill-rule="evenodd" fill-opacity="1" /><path clip-path="url(#clip940)" d="M1437.31 9.54393 L1444.76 9.54393 L1444.76 72.576 L1437.31 72.576 L1437.31 9.54393 Z" fill="#000000" fill-rule="evenodd" fill-opacity="1" /><path clip-path="url(#clip940)" d="M1480.98 49.7694 Q1471.94 49.7694 1468.46 51.8354 Q1464.98 53.9013 1464.98 58.8839 Q1464.98 62.8538 1467.57 65.2034 Q1470.2 67.5124 1474.7 67.5124 Q1480.9 67.5124 1484.62 63.1374 Q1488.39 58.7219 1488.39 51.4303 L1488.39 49.7694 L1480.98 49.7694 M1495.85 46.6907 L1495.85 72.576 L1488.39 72.576 L1488.39 65.6895 Q1485.84 69.8214 1482.03 71.8063 Q1478.22 73.7508 1472.71 73.7508 Q1465.75 73.7508 1461.62 69.8619 Q1457.52 65.9325 1457.52 59.3701 Q1457.52 51.7138 1462.63 47.825 Q1467.77 43.9361 1477.94 43.9361 L1488.39 43.9361 L1488.39 43.2069 Q1488.39 38.0623 1484.99 35.2672 Q1481.63 32.4315 1475.51 32.4315 Q1471.62 32.4315 1467.93 33.3632 Q1464.25 34.295 1460.85 36.1584 L1460.85 29.2718 Q1464.94 27.692 1468.79 26.9223 Q1472.63 26.1121 1476.28 26.1121 Q1486.12 26.1121 1490.98 31.2163 Q1495.85 36.3204 1495.85 46.6907 Z" fill="#000000" fill-rule="evenodd" fill-opacity="1" /><path clip-path="url(#clip940)" d="M1518.57 14.324 L1518.57 27.2059 L1533.92 27.2059 L1533.92 32.9987 L1518.57 32.9987 L1518.57 57.6282 Q1518.57 63.1779 1520.07 64.7578 Q1521.61 66.3376 1526.27 66.3376 L1533.92 66.3376 L1533.92 72.576 L1526.27 72.576 Q1517.64 72.576 1514.36 69.3758 Q1511.08 66.1351 1511.08 57.6282 L1511.08 32.9987 L1505.61 32.9987 L1505.61 27.2059 L1511.08 27.2059 L1511.08 14.324 L1518.57 14.324 Z" fill="#000000" fill-rule="evenodd" fill-opacity="1" /><path clip-path="url(#clip940)" d="M1543.73 27.2059 L1551.18 27.2059 L1551.18 72.576 L1543.73 72.576 L1543.73 27.2059 M1543.73 9.54393 L1551.18 9.54393 L1551.18 18.9825 L1543.73 18.9825 L1543.73 9.54393 Z" fill="#000000" fill-rule="evenodd" fill-opacity="1" /><path clip-path="url(#clip940)" d="M1584.36 32.4315 Q1578.36 32.4315 1574.88 37.1306 Q1571.39 41.7891 1571.39 49.9314 Q1571.39 58.0738 1574.84 62.7728 Q1578.32 67.4314 1584.36 67.4314 Q1590.31 67.4314 1593.8 62.7323 Q1597.28 58.0333 1597.28 49.9314 Q1597.28 41.8701 1593.8 37.1711 Q1590.31 32.4315 1584.36 32.4315 M1584.36 26.1121 Q1594.08 26.1121 1599.63 32.4315 Q1605.18 38.7509 1605.18 49.9314 Q1605.18 61.0714 1599.63 67.4314 Q1594.08 73.7508 1584.36 73.7508 Q1574.59 73.7508 1569.04 67.4314 Q1563.54 61.0714 1563.54 49.9314 Q1563.54 38.7509 1569.04 32.4315 Q1574.59 26.1121 1584.36 26.1121 Z" fill="#000000" fill-rule="evenodd" fill-opacity="1" /><path clip-path="url(#clip940)" d="M1655.25 45.1919 L1655.25 72.576 L1647.79 72.576 L1647.79 45.4349 Q1647.79 38.994 1645.28 35.7938 Q1642.77 32.5936 1637.75 32.5936 Q1631.71 32.5936 1628.23 36.4419 Q1624.74 40.2903 1624.74 46.9338 L1624.74 72.576 L1617.25 72.576 L1617.25 27.2059 L1624.74 27.2059 L1624.74 34.2544 Q1627.42 30.163 1631.02 28.1376 Q1634.67 26.1121 1639.41 26.1121 Q1647.23 26.1121 1651.24 30.9732 Q1655.25 35.7938 1655.25 45.1919 Z" fill="#000000" fill-rule="evenodd" fill-opacity="1" /><polyline clip-path="url(#clip942)" style="stroke:#009af9; stroke-linecap:butt; stroke-linejoin:round; stroke-width:4; stroke-opacity:1; fill:none" points="
  347.882,217.4 359.249,979.551 370.617,162.047 381.984,616.915 393.352,1227.51 404.719,1418.39 416.087,1287.29 427.454,1395.16 438.822,1438.78 450.189,1445.9 
  461.557,1447.87 472.924,1447.81 484.292,1447.33 495.659,1447.72 507.027,1447.67 518.394,1447.87 529.762,1447.85 541.129,1447.8 552.497,1447.85 563.864,1447.86 
  575.231,1447.87 586.599,1447.87 597.966,1447.87 609.334,1447.87 620.701,1447.87 632.069,1447.87 643.436,1447.87 654.804,1447.87 666.171,1447.87 677.539,1447.87 
  688.906,1447.87 700.274,1447.87 711.641,1447.87 723.009,1447.87 734.376,1447.87 745.744,1447.87 757.111,1447.87 768.479,1447.87 779.846,1447.87 791.213,1447.87 
  802.581,1447.87 813.948,1447.87 825.316,1447.87 836.683,1447.87 848.051,1447.87 859.418,1447.87 870.786,1447.87 882.153,1447.87 893.521,1447.87 904.888,1447.87 
  916.256,1447.87 927.623,1447.87 938.991,1447.87 950.358,1447.87 961.726,1447.87 973.093,1447.87 984.461,1447.87 995.828,1447.87 1007.2,1447.87 1018.56,1447.87 
  1029.93,1447.87 1041.3,1447.87 1052.67,1447.87 1064.03,1447.87 1075.4,1447.87 1086.77,1447.87 1098.14,1447.87 1109.5,1447.87 1120.87,1447.87 1132.24,1447.87 
  1143.61,1447.87 1154.97,1447.87 1166.34,1447.87 1177.71,1447.87 1189.08,1447.87 1200.44,1447.87 1211.81,1447.87 1223.18,1447.87 1234.54,1447.87 1245.91,1447.87 
  1257.28,1447.87 1268.65,1447.87 1280.01,1447.87 1291.38,1447.87 1302.75,1447.87 1314.12,1447.87 1325.48,1447.87 1336.85,1447.87 1348.22,1447.87 1359.59,1447.87 
  1370.95,1447.87 1382.32,1447.87 1393.69,1447.87 1405.06,1447.87 1416.42,1447.87 1427.79,1447.87 1439.16,1447.87 1450.53,1447.87 1461.89,1447.87 1473.26,1447.87 
  1484.63,1447.87 1496,1447.87 1507.36,1447.87 1518.73,1447.86 1530.1,1447.87 1541.47,1447.87 1552.83,1447.85 1564.2,1447.84 1575.57,1447.77 1586.94,1447.69 
  1598.3,1447.87 1609.67,1447.62 1621.04,1447.41 1632.41,1447.04 1643.77,1446.23 1655.14,1447.65 1666.51,1430.35 1677.88,1361.66 1689.24,1397.88 1700.61,1334.46 
  1711.98,1335.27 
  "/>
<path clip-path="url(#clip940)" d="
M1821.09 272.585 L2352.76 272.585 L2352.76 168.905 L1821.09 168.905  Z
  " fill="#ffffff" fill-rule="evenodd" fill-opacity="1"/>
<polyline clip-path="url(#clip940)" style="stroke:#000000; stroke-linecap:butt; stroke-linejoin:round; stroke-width:4; stroke-opacity:1; fill:none" points="
  1821.09,272.585 2352.76,272.585 2352.76,168.905 1821.09,168.905 1821.09,272.585 
  "/>
<polyline clip-path="url(#clip940)" style="stroke:#009af9; stroke-linecap:butt; stroke-linejoin:round; stroke-width:4; stroke-opacity:1; fill:none" points="
  1843.83,220.745 1980.21,220.745 
  "/>
<path clip-path="url(#clip940)" d="M2018.13 216.08 Q2017.41 215.664 2016.55 215.478 Q2015.72 215.27 2014.7 215.27 Q2011.09 215.27 2009.15 217.631 Q2007.23 219.969 2007.23 224.367 L2007.23 238.025 L2002.94 238.025 L2002.94 212.099 L2007.23 212.099 L2007.23 216.127 Q2008.57 213.766 2010.72 212.631 Q2012.87 211.474 2015.95 211.474 Q2016.39 211.474 2016.92 211.543 Q2017.46 211.59 2018.11 211.705 L2018.13 216.08 Z" fill="#000000" fill-rule="evenodd" fill-opacity="1" /><path clip-path="url(#clip940)" d="M2043.73 223.997 L2043.73 226.08 L2024.15 226.08 Q2024.42 230.478 2026.79 232.793 Q2029.17 235.085 2033.41 235.085 Q2035.86 235.085 2038.15 234.483 Q2040.47 233.881 2042.73 232.677 L2042.73 236.705 Q2040.44 237.677 2038.04 238.187 Q2035.63 238.696 2033.15 238.696 Q2026.95 238.696 2023.31 235.085 Q2019.7 231.474 2019.7 225.316 Q2019.7 218.951 2023.13 215.224 Q2026.58 211.474 2032.41 211.474 Q2037.64 211.474 2040.67 214.853 Q2043.73 218.21 2043.73 223.997 M2039.47 222.747 Q2039.42 219.252 2037.5 217.168 Q2035.61 215.085 2032.46 215.085 Q2028.89 215.085 2026.74 217.099 Q2024.61 219.113 2024.29 222.77 L2039.47 222.747 Z" fill="#000000" fill-rule="evenodd" fill-opacity="1" /><path clip-path="url(#clip940)" d="M2050.72 202.006 L2054.98 202.006 L2054.98 238.025 L2050.72 238.025 L2050.72 202.006 Z" fill="#000000" fill-rule="evenodd" fill-opacity="1" /><path clip-path="url(#clip940)" d="M2075.67 224.992 Q2070.51 224.992 2068.52 226.173 Q2066.53 227.353 2066.53 230.201 Q2066.53 232.469 2068.01 233.812 Q2069.52 235.131 2072.09 235.131 Q2075.63 235.131 2077.76 232.631 Q2079.91 230.108 2079.91 225.941 L2079.91 224.992 L2075.67 224.992 M2084.17 223.233 L2084.17 238.025 L2079.91 238.025 L2079.91 234.089 Q2078.45 236.451 2076.28 237.585 Q2074.1 238.696 2070.95 238.696 Q2066.97 238.696 2064.61 236.474 Q2062.27 234.228 2062.27 230.478 Q2062.27 226.103 2065.19 223.881 Q2068.13 221.659 2073.94 221.659 L2079.91 221.659 L2079.91 221.242 Q2079.91 218.303 2077.97 216.705 Q2076.04 215.085 2072.55 215.085 Q2070.33 215.085 2068.22 215.617 Q2066.11 216.15 2064.17 217.215 L2064.17 213.279 Q2066.51 212.377 2068.71 211.937 Q2070.91 211.474 2072.99 211.474 Q2078.61 211.474 2081.39 214.391 Q2084.17 217.307 2084.17 223.233 Z" fill="#000000" fill-rule="evenodd" fill-opacity="1" /><path clip-path="url(#clip940)" d="M2097.16 204.738 L2097.16 212.099 L2105.93 212.099 L2105.93 215.409 L2097.16 215.409 L2097.16 229.483 Q2097.16 232.654 2098.01 233.557 Q2098.89 234.46 2101.55 234.46 L2105.93 234.46 L2105.93 238.025 L2101.55 238.025 Q2096.62 238.025 2094.75 236.196 Q2092.87 234.344 2092.87 229.483 L2092.87 215.409 L2089.75 215.409 L2089.75 212.099 L2092.87 212.099 L2092.87 204.738 L2097.16 204.738 Z" fill="#000000" fill-rule="evenodd" fill-opacity="1" /><path clip-path="url(#clip940)" d="M2111.53 212.099 L2115.79 212.099 L2115.79 238.025 L2111.53 238.025 L2111.53 212.099 M2111.53 202.006 L2115.79 202.006 L2115.79 207.4 L2111.53 207.4 L2111.53 202.006 Z" fill="#000000" fill-rule="evenodd" fill-opacity="1" /><path clip-path="url(#clip940)" d="M2121.65 212.099 L2126.16 212.099 L2134.26 233.858 L2142.36 212.099 L2146.88 212.099 L2137.16 238.025 L2131.37 238.025 L2121.65 212.099 Z" fill="#000000" fill-rule="evenodd" fill-opacity="1" /><path clip-path="url(#clip940)" d="M2174.93 223.997 L2174.93 226.08 L2155.35 226.08 Q2155.63 230.478 2157.99 232.793 Q2160.37 235.085 2164.61 235.085 Q2167.06 235.085 2169.35 234.483 Q2171.67 233.881 2173.94 232.677 L2173.94 236.705 Q2171.65 237.677 2169.24 238.187 Q2166.83 238.696 2164.35 238.696 Q2158.15 238.696 2154.52 235.085 Q2150.91 231.474 2150.91 225.316 Q2150.91 218.951 2154.33 215.224 Q2157.78 211.474 2163.61 211.474 Q2168.85 211.474 2171.88 214.853 Q2174.93 218.21 2174.93 223.997 M2170.67 222.747 Q2170.63 219.252 2168.71 217.168 Q2166.81 215.085 2163.66 215.085 Q2160.1 215.085 2157.94 217.099 Q2155.81 219.113 2155.49 222.77 L2170.67 222.747 Z" fill="#000000" fill-rule="evenodd" fill-opacity="1" /><path clip-path="url(#clip940)" d="M2219.17 223.997 L2219.17 226.08 L2199.59 226.08 Q2199.86 230.478 2202.22 232.793 Q2204.61 235.085 2208.85 235.085 Q2211.3 235.085 2213.59 234.483 Q2215.91 233.881 2218.17 232.677 L2218.17 236.705 Q2215.88 237.677 2213.47 238.187 Q2211.07 238.696 2208.59 238.696 Q2202.39 238.696 2198.75 235.085 Q2195.14 231.474 2195.14 225.316 Q2195.14 218.951 2198.57 215.224 Q2202.02 211.474 2207.85 211.474 Q2213.08 211.474 2216.11 214.853 Q2219.17 218.21 2219.17 223.997 M2214.91 222.747 Q2214.86 219.252 2212.94 217.168 Q2211.04 215.085 2207.9 215.085 Q2204.33 215.085 2202.18 217.099 Q2200.05 219.113 2199.72 222.77 L2214.91 222.747 Z" fill="#000000" fill-rule="evenodd" fill-opacity="1" /><path clip-path="url(#clip940)" d="M2241.18 216.08 Q2240.47 215.664 2239.61 215.478 Q2238.78 215.27 2237.76 215.27 Q2234.15 215.27 2232.2 217.631 Q2230.28 219.969 2230.28 224.367 L2230.28 238.025 L2226 238.025 L2226 212.099 L2230.28 212.099 L2230.28 216.127 Q2231.62 213.766 2233.78 212.631 Q2235.93 211.474 2239.01 211.474 Q2239.45 211.474 2239.98 211.543 Q2240.51 211.59 2241.16 211.705 L2241.18 216.08 Z" fill="#000000" fill-rule="evenodd" fill-opacity="1" /><path clip-path="url(#clip940)" d="M2259.84 216.08 Q2259.12 215.664 2258.27 215.478 Q2257.43 215.27 2256.41 215.27 Q2252.8 215.27 2250.86 217.631 Q2248.94 219.969 2248.94 224.367 L2248.94 238.025 L2244.66 238.025 L2244.66 212.099 L2248.94 212.099 L2248.94 216.127 Q2250.28 213.766 2252.43 212.631 Q2254.59 211.474 2257.66 211.474 Q2258.1 211.474 2258.64 211.543 Q2259.17 211.59 2259.82 211.705 L2259.84 216.08 Z" fill="#000000" fill-rule="evenodd" fill-opacity="1" /><path clip-path="url(#clip940)" d="M2273.31 215.085 Q2269.89 215.085 2267.9 217.77 Q2265.91 220.432 2265.91 225.085 Q2265.91 229.738 2267.87 232.423 Q2269.86 235.085 2273.31 235.085 Q2276.72 235.085 2278.71 232.4 Q2280.7 229.715 2280.7 225.085 Q2280.7 220.478 2278.71 217.793 Q2276.72 215.085 2273.31 215.085 M2273.31 211.474 Q2278.87 211.474 2282.04 215.085 Q2285.21 218.696 2285.21 225.085 Q2285.21 231.451 2282.04 235.085 Q2278.87 238.696 2273.31 238.696 Q2267.73 238.696 2264.56 235.085 Q2261.41 231.451 2261.41 225.085 Q2261.41 218.696 2264.56 215.085 Q2267.73 211.474 2273.31 211.474 Z" fill="#000000" fill-rule="evenodd" fill-opacity="1" /><path clip-path="url(#clip940)" d="M2307.29 216.08 Q2306.58 215.664 2305.72 215.478 Q2304.89 215.27 2303.87 215.27 Q2300.26 215.27 2298.31 217.631 Q2296.39 219.969 2296.39 224.367 L2296.39 238.025 L2292.11 238.025 L2292.11 212.099 L2296.39 212.099 L2296.39 216.127 Q2297.73 213.766 2299.89 212.631 Q2302.04 211.474 2305.12 211.474 Q2305.56 211.474 2306.09 211.543 Q2306.62 211.59 2307.27 211.705 L2307.29 216.08 Z" fill="#000000" fill-rule="evenodd" fill-opacity="1" /></svg>
