<?xml version="1.0" encoding="utf-8"?>
<svg xmlns="http://www.w3.org/2000/svg" xmlns:xlink="http://www.w3.org/1999/xlink" width="600" height="400" viewBox="0 0 2400 1600">
<defs>
  <clipPath id="clip180">
    <rect x="0" y="0" width="2400" height="1600"/>
  </clipPath>
</defs>
<path clip-path="url(#clip180)" d="
M0 1600 L2400 1600 L2400 0 L0 0  Z
  " fill="#ffffff" fill-rule="evenodd" fill-opacity="1"/>
<defs>
  <clipPath id="clip181">
    <rect x="480" y="0" width="1681" height="1600"/>
  </clipPath>
</defs>
<path clip-path="url(#clip180)" d="
M186.76 1486.45 L1735.54 1486.45 L1735.54 123.472 L186.76 123.472  Z
  " fill="#ffffff" fill-rule="evenodd" fill-opacity="1"/>
<defs>
  <clipPath id="clip182">
    <rect x="186" y="123" width="1550" height="1364"/>
  </clipPath>
</defs>
<polyline clip-path="url(#clip182)" style="stroke:#000000; stroke-linecap:butt; stroke-linejoin:round; stroke-width:2; stroke-opacity:0.1; fill:none" points="
  352.353,1486.45 352.353,123.472 
  "/>
<polyline clip-path="url(#clip182)" style="stroke:#000000; stroke-linecap:butt; stroke-linejoin:round; stroke-width:2; stroke-opacity:0.1; fill:none" points="
  656.751,1486.45 656.751,123.472 
  "/>
<polyline clip-path="url(#clip182)" style="stroke:#000000; stroke-linecap:butt; stroke-linejoin:round; stroke-width:2; stroke-opacity:0.1; fill:none" points="
  961.15,1486.45 961.15,123.472 
  "/>
<polyline clip-path="url(#clip182)" style="stroke:#000000; stroke-linecap:butt; stroke-linejoin:round; stroke-width:2; stroke-opacity:0.1; fill:none" points="
  1265.55,1486.45 1265.55,123.472 
  "/>
<polyline clip-path="url(#clip182)" style="stroke:#000000; stroke-linecap:butt; stroke-linejoin:round; stroke-width:2; stroke-opacity:0.1; fill:none" points="
  1569.95,1486.45 1569.95,123.472 
  "/>
<polyline clip-path="url(#clip180)" style="stroke:#000000; stroke-linecap:butt; stroke-linejoin:round; stroke-width:4; stroke-opacity:1; fill:none" points="
  186.76,1486.45 1735.54,1486.45 
  "/>
<polyline clip-path="url(#clip180)" style="stroke:#000000; stroke-linecap:butt; stroke-linejoin:round; stroke-width:4; stroke-opacity:1; fill:none" points="
  352.353,1486.45 352.353,1467.55 
  "/>
<polyline clip-path="url(#clip180)" style="stroke:#000000; stroke-linecap:butt; stroke-linejoin:round; stroke-width:4; stroke-opacity:1; fill:none" points="
  656.751,1486.45 656.751,1467.55 
  "/>
<polyline clip-path="url(#clip180)" style="stroke:#000000; stroke-linecap:butt; stroke-linejoin:round; stroke-width:4; stroke-opacity:1; fill:none" points="
  961.15,1486.45 961.15,1467.55 
  "/>
<polyline clip-path="url(#clip180)" style="stroke:#000000; stroke-linecap:butt; stroke-linejoin:round; stroke-width:4; stroke-opacity:1; fill:none" points="
  1265.55,1486.45 1265.55,1467.55 
  "/>
<polyline clip-path="url(#clip180)" style="stroke:#000000; stroke-linecap:butt; stroke-linejoin:round; stroke-width:4; stroke-opacity:1; fill:none" points="
  1569.95,1486.45 1569.95,1467.55 
  "/>
<path clip-path="url(#clip180)" d="M298.881 1532.02 L328.557 1532.02 L328.557 1535.95 L298.881 1535.95 L298.881 1532.02 Z" fill="#000000" fill-rule="evenodd" fill-opacity="1" /><path clip-path="url(#clip180)" d="M339.459 1544.91 L347.098 1544.91 L347.098 1518.55 L338.788 1520.21 L338.788 1515.95 L347.052 1514.29 L351.728 1514.29 L351.728 1544.91 L359.367 1544.91 L359.367 1548.85 L339.459 1548.85 L339.459 1544.91 Z" fill="#000000" fill-rule="evenodd" fill-opacity="1" /><path clip-path="url(#clip180)" d="M368.811 1542.97 L373.695 1542.97 L373.695 1548.85 L368.811 1548.85 L368.811 1542.97 Z" fill="#000000" fill-rule="evenodd" fill-opacity="1" /><path clip-path="url(#clip180)" d="M393.88 1517.37 Q390.269 1517.37 388.441 1520.93 Q386.635 1524.47 386.635 1531.6 Q386.635 1538.71 388.441 1542.27 Q390.269 1545.82 393.88 1545.82 Q397.515 1545.82 399.32 1542.27 Q401.149 1538.71 401.149 1531.6 Q401.149 1524.47 399.32 1520.93 Q397.515 1517.37 393.88 1517.37 M393.88 1513.66 Q399.691 1513.66 402.746 1518.27 Q405.825 1522.85 405.825 1531.6 Q405.825 1540.33 402.746 1544.94 Q399.691 1549.52 393.88 1549.52 Q388.07 1549.52 384.992 1544.94 Q381.936 1540.33 381.936 1531.6 Q381.936 1522.85 384.992 1518.27 Q388.07 1513.66 393.88 1513.66 Z" fill="#000000" fill-rule="evenodd" fill-opacity="1" /><path clip-path="url(#clip180)" d="M603.777 1532.02 L633.453 1532.02 L633.453 1535.95 L603.777 1535.95 L603.777 1532.02 Z" fill="#000000" fill-rule="evenodd" fill-opacity="1" /><path clip-path="url(#clip180)" d="M653.545 1517.37 Q649.934 1517.37 648.106 1520.93 Q646.3 1524.47 646.3 1531.6 Q646.3 1538.71 648.106 1542.27 Q649.934 1545.82 653.545 1545.82 Q657.18 1545.82 658.985 1542.27 Q660.814 1538.71 660.814 1531.6 Q660.814 1524.47 658.985 1520.93 Q657.18 1517.37 653.545 1517.37 M653.545 1513.66 Q659.356 1513.66 662.411 1518.27 Q665.49 1522.85 665.49 1531.6 Q665.49 1540.33 662.411 1544.94 Q659.356 1549.52 653.545 1549.52 Q647.735 1549.52 644.657 1544.94 Q641.601 1540.33 641.601 1531.6 Q641.601 1522.85 644.657 1518.27 Q647.735 1513.66 653.545 1513.66 Z" fill="#000000" fill-rule="evenodd" fill-opacity="1" /><path clip-path="url(#clip180)" d="M673.707 1542.97 L678.592 1542.97 L678.592 1548.85 L673.707 1548.85 L673.707 1542.97 Z" fill="#000000" fill-rule="evenodd" fill-opacity="1" /><path clip-path="url(#clip180)" d="M688.823 1514.29 L707.179 1514.29 L707.179 1518.22 L693.105 1518.22 L693.105 1526.7 Q694.124 1526.35 695.142 1526.19 Q696.161 1526 697.179 1526 Q702.966 1526 706.346 1529.17 Q709.726 1532.34 709.726 1537.76 Q709.726 1543.34 706.253 1546.44 Q702.781 1549.52 696.462 1549.52 Q694.286 1549.52 692.017 1549.15 Q689.772 1548.78 687.365 1548.04 L687.365 1543.34 Q689.448 1544.47 691.67 1545.03 Q693.892 1545.58 696.369 1545.58 Q700.374 1545.58 702.712 1543.48 Q705.05 1541.37 705.05 1537.76 Q705.05 1534.15 702.712 1532.04 Q700.374 1529.94 696.369 1529.94 Q694.494 1529.94 692.619 1530.35 Q690.767 1530.77 688.823 1531.65 L688.823 1514.29 Z" fill="#000000" fill-rule="evenodd" fill-opacity="1" /><path clip-path="url(#clip180)" d="M938.534 1517.37 Q934.923 1517.37 933.094 1520.93 Q931.289 1524.47 931.289 1531.6 Q931.289 1538.71 933.094 1542.27 Q934.923 1545.82 938.534 1545.82 Q942.168 1545.82 943.974 1542.27 Q945.803 1538.71 945.803 1531.6 Q945.803 1524.47 943.974 1520.93 Q942.168 1517.37 938.534 1517.37 M938.534 1513.66 Q944.344 1513.66 947.4 1518.27 Q950.479 1522.85 950.479 1531.6 Q950.479 1540.33 947.4 1544.94 Q944.344 1549.52 938.534 1549.52 Q932.724 1549.52 929.645 1544.94 Q926.59 1540.33 926.59 1531.6 Q926.59 1522.85 929.645 1518.27 Q932.724 1513.66 938.534 1513.66 Z" fill="#000000" fill-rule="evenodd" fill-opacity="1" /><path clip-path="url(#clip180)" d="M958.696 1542.97 L963.58 1542.97 L963.58 1548.85 L958.696 1548.85 L958.696 1542.97 Z" fill="#000000" fill-rule="evenodd" fill-opacity="1" /><path clip-path="url(#clip180)" d="M983.765 1517.37 Q980.154 1517.37 978.326 1520.93 Q976.52 1524.47 976.52 1531.6 Q976.52 1538.71 978.326 1542.27 Q980.154 1545.82 983.765 1545.82 Q987.4 1545.82 989.205 1542.27 Q991.034 1538.71 991.034 1531.6 Q991.034 1524.47 989.205 1520.93 Q987.4 1517.37 983.765 1517.37 M983.765 1513.66 Q989.576 1513.66 992.631 1518.27 Q995.71 1522.85 995.71 1531.6 Q995.71 1540.33 992.631 1544.94 Q989.576 1549.52 983.765 1549.52 Q977.955 1549.52 974.877 1544.94 Q971.821 1540.33 971.821 1531.6 Q971.821 1522.85 974.877 1518.27 Q977.955 1513.66 983.765 1513.66 Z" fill="#000000" fill-rule="evenodd" fill-opacity="1" /><path clip-path="url(#clip180)" d="M1243.43 1517.37 Q1239.82 1517.37 1237.99 1520.93 Q1236.19 1524.47 1236.19 1531.6 Q1236.19 1538.71 1237.99 1542.27 Q1239.82 1545.82 1243.43 1545.82 Q1247.06 1545.82 1248.87 1542.27 Q1250.7 1538.71 1250.7 1531.6 Q1250.7 1524.47 1248.87 1520.93 Q1247.06 1517.37 1243.43 1517.37 M1243.43 1513.66 Q1249.24 1513.66 1252.3 1518.27 Q1255.37 1522.85 1255.37 1531.6 Q1255.37 1540.33 1252.3 1544.94 Q1249.24 1549.52 1243.43 1549.52 Q1237.62 1549.52 1234.54 1544.94 Q1231.49 1540.33 1231.49 1531.6 Q1231.49 1522.85 1234.54 1518.27 Q1237.62 1513.66 1243.43 1513.66 Z" fill="#000000" fill-rule="evenodd" fill-opacity="1" /><path clip-path="url(#clip180)" d="M1263.59 1542.97 L1268.48 1542.97 L1268.48 1548.85 L1263.59 1548.85 L1263.59 1542.97 Z" fill="#000000" fill-rule="evenodd" fill-opacity="1" /><path clip-path="url(#clip180)" d="M1278.71 1514.29 L1297.06 1514.29 L1297.06 1518.22 L1282.99 1518.22 L1282.99 1526.7 Q1284.01 1526.35 1285.03 1526.19 Q1286.05 1526 1287.06 1526 Q1292.85 1526 1296.23 1529.17 Q1299.61 1532.34 1299.61 1537.76 Q1299.61 1543.34 1296.14 1546.44 Q1292.67 1549.52 1286.35 1549.52 Q1284.17 1549.52 1281.9 1549.15 Q1279.66 1548.78 1277.25 1548.04 L1277.25 1543.34 Q1279.33 1544.47 1281.56 1545.03 Q1283.78 1545.58 1286.25 1545.58 Q1290.26 1545.58 1292.6 1543.48 Q1294.93 1541.37 1294.93 1537.76 Q1294.93 1534.15 1292.6 1532.04 Q1290.26 1529.94 1286.25 1529.94 Q1284.38 1529.94 1282.5 1530.35 Q1280.65 1530.77 1278.71 1531.65 L1278.71 1514.29 Z" fill="#000000" fill-rule="evenodd" fill-opacity="1" /><path clip-path="url(#clip180)" d="M1537.1 1544.91 L1544.74 1544.91 L1544.74 1518.55 L1536.43 1520.21 L1536.43 1515.95 L1544.69 1514.29 L1549.37 1514.29 L1549.37 1544.91 L1557.01 1544.91 L1557.01 1548.85 L1537.1 1548.85 L1537.1 1544.91 Z" fill="#000000" fill-rule="evenodd" fill-opacity="1" /><path clip-path="url(#clip180)" d="M1566.45 1542.97 L1571.34 1542.97 L1571.34 1548.85 L1566.45 1548.85 L1566.45 1542.97 Z" fill="#000000" fill-rule="evenodd" fill-opacity="1" /><path clip-path="url(#clip180)" d="M1591.52 1517.37 Q1587.91 1517.37 1586.08 1520.93 Q1584.28 1524.47 1584.28 1531.6 Q1584.28 1538.71 1586.08 1542.27 Q1587.91 1545.82 1591.52 1545.82 Q1595.16 1545.82 1596.96 1542.27 Q1598.79 1538.71 1598.79 1531.6 Q1598.79 1524.47 1596.96 1520.93 Q1595.16 1517.37 1591.52 1517.37 M1591.52 1513.66 Q1597.33 1513.66 1600.39 1518.27 Q1603.47 1522.85 1603.47 1531.6 Q1603.47 1540.33 1600.39 1544.94 Q1597.33 1549.52 1591.52 1549.52 Q1585.71 1549.52 1582.63 1544.94 Q1579.58 1540.33 1579.58 1531.6 Q1579.58 1522.85 1582.63 1518.27 Q1585.71 1513.66 1591.52 1513.66 Z" fill="#000000" fill-rule="evenodd" fill-opacity="1" /><polyline clip-path="url(#clip182)" style="stroke:#000000; stroke-linecap:butt; stroke-linejoin:round; stroke-width:2; stroke-opacity:0.1; fill:none" points="
  186.76,1447.87 1735.54,1447.87 
  "/>
<polyline clip-path="url(#clip182)" style="stroke:#000000; stroke-linecap:butt; stroke-linejoin:round; stroke-width:2; stroke-opacity:0.1; fill:none" points="
  186.76,1257.48 1735.54,1257.48 
  "/>
<polyline clip-path="url(#clip182)" style="stroke:#000000; stroke-linecap:butt; stroke-linejoin:round; stroke-width:2; stroke-opacity:0.1; fill:none" points="
  186.76,1067.08 1735.54,1067.08 
  "/>
<polyline clip-path="url(#clip182)" style="stroke:#000000; stroke-linecap:butt; stroke-linejoin:round; stroke-width:2; stroke-opacity:0.1; fill:none" points="
  186.76,876.681 1735.54,876.681 
  "/>
<polyline clip-path="url(#clip182)" style="stroke:#000000; stroke-linecap:butt; stroke-linejoin:round; stroke-width:2; stroke-opacity:0.1; fill:none" points="
  186.76,686.283 1735.54,686.283 
  "/>
<polyline clip-path="url(#clip182)" style="stroke:#000000; stroke-linecap:butt; stroke-linejoin:round; stroke-width:2; stroke-opacity:0.1; fill:none" points="
  186.76,495.886 1735.54,495.886 
  "/>
<polyline clip-path="url(#clip182)" style="stroke:#000000; stroke-linecap:butt; stroke-linejoin:round; stroke-width:2; stroke-opacity:0.1; fill:none" points="
  186.76,305.488 1735.54,305.488 
  "/>
<polyline clip-path="url(#clip180)" style="stroke:#000000; stroke-linecap:butt; stroke-linejoin:round; stroke-width:4; stroke-opacity:1; fill:none" points="
  186.76,1486.45 186.76,123.472 
  "/>
<polyline clip-path="url(#clip180)" style="stroke:#000000; stroke-linecap:butt; stroke-linejoin:round; stroke-width:4; stroke-opacity:1; fill:none" points="
  186.76,1447.87 200.273,1447.87 
  "/>
<polyline clip-path="url(#clip180)" style="stroke:#000000; stroke-linecap:butt; stroke-linejoin:round; stroke-width:4; stroke-opacity:1; fill:none" points="
  186.76,1257.48 200.273,1257.48 
  "/>
<polyline clip-path="url(#clip180)" style="stroke:#000000; stroke-linecap:butt; stroke-linejoin:round; stroke-width:4; stroke-opacity:1; fill:none" points="
  186.76,1067.08 200.273,1067.08 
  "/>
<polyline clip-path="url(#clip180)" style="stroke:#000000; stroke-linecap:butt; stroke-linejoin:round; stroke-width:4; stroke-opacity:1; fill:none" points="
  186.76,876.681 200.273,876.681 
  "/>
<polyline clip-path="url(#clip180)" style="stroke:#000000; stroke-linecap:butt; stroke-linejoin:round; stroke-width:4; stroke-opacity:1; fill:none" points="
  186.76,686.283 200.273,686.283 
  "/>
<polyline clip-path="url(#clip180)" style="stroke:#000000; stroke-linecap:butt; stroke-linejoin:round; stroke-width:4; stroke-opacity:1; fill:none" points="
  186.76,495.886 200.273,495.886 
  "/>
<polyline clip-path="url(#clip180)" style="stroke:#000000; stroke-linecap:butt; stroke-linejoin:round; stroke-width:4; stroke-opacity:1; fill:none" points="
  186.76,305.488 200.273,305.488 
  "/>
<path clip-path="url(#clip180)" d="M63.4226 1433.67 Q59.8115 1433.67 57.9828 1437.24 Q56.1773 1440.78 56.1773 1447.91 Q56.1773 1455.01 57.9828 1458.58 Q59.8115 1462.12 63.4226 1462.12 Q67.0569 1462.12 68.8624 1458.58 Q70.6911 1455.01 70.6911 1447.91 Q70.6911 1440.78 68.8624 1437.24 Q67.0569 1433.67 63.4226 1433.67 M63.4226 1429.97 Q69.2328 1429.97 72.2883 1434.57 Q75.367 1439.16 75.367 1447.91 Q75.367 1456.63 72.2883 1461.24 Q69.2328 1465.82 63.4226 1465.82 Q57.6125 1465.82 54.5338 1461.24 Q51.4782 1456.63 51.4782 1447.91 Q51.4782 1439.16 54.5338 1434.57 Q57.6125 1429.97 63.4226 1429.97 Z" fill="#000000" fill-rule="evenodd" fill-opacity="1" /><path clip-path="url(#clip180)" d="M83.5845 1459.27 L88.4688 1459.27 L88.4688 1465.15 L83.5845 1465.15 L83.5845 1459.27 Z" fill="#000000" fill-rule="evenodd" fill-opacity="1" /><path clip-path="url(#clip180)" d="M108.654 1433.67 Q105.043 1433.67 103.214 1437.24 Q101.409 1440.78 101.409 1447.91 Q101.409 1455.01 103.214 1458.58 Q105.043 1462.12 108.654 1462.12 Q112.288 1462.12 114.094 1458.58 Q115.922 1455.01 115.922 1447.91 Q115.922 1440.78 114.094 1437.24 Q112.288 1433.67 108.654 1433.67 M108.654 1429.97 Q114.464 1429.97 117.52 1434.57 Q120.598 1439.16 120.598 1447.91 Q120.598 1456.63 117.52 1461.24 Q114.464 1465.82 108.654 1465.82 Q102.844 1465.82 99.765 1461.24 Q96.7095 1456.63 96.7095 1447.91 Q96.7095 1439.16 99.765 1434.57 Q102.844 1429.97 108.654 1429.97 Z" fill="#000000" fill-rule="evenodd" fill-opacity="1" /><path clip-path="url(#clip180)" d="M138.816 1433.67 Q135.205 1433.67 133.376 1437.24 Q131.57 1440.78 131.57 1447.91 Q131.57 1455.01 133.376 1458.58 Q135.205 1462.12 138.816 1462.12 Q142.45 1462.12 144.256 1458.58 Q146.084 1455.01 146.084 1447.91 Q146.084 1440.78 144.256 1437.24 Q142.45 1433.67 138.816 1433.67 M138.816 1429.97 Q144.626 1429.97 147.681 1434.57 Q150.76 1439.16 150.76 1447.91 Q150.76 1456.63 147.681 1461.24 Q144.626 1465.82 138.816 1465.82 Q133.006 1465.82 129.927 1461.24 Q126.871 1456.63 126.871 1447.91 Q126.871 1439.16 129.927 1434.57 Q133.006 1429.97 138.816 1429.97 Z" fill="#000000" fill-rule="evenodd" fill-opacity="1" /><path clip-path="url(#clip180)" d="M64.6495 1243.27 Q61.0384 1243.27 59.2097 1246.84 Q57.4041 1250.38 57.4041 1257.51 Q57.4041 1264.62 59.2097 1268.18 Q61.0384 1271.72 64.6495 1271.72 Q68.2837 1271.72 70.0892 1268.18 Q71.9179 1264.62 71.9179 1257.51 Q71.9179 1250.38 70.0892 1246.84 Q68.2837 1243.27 64.6495 1243.27 M64.6495 1239.57 Q70.4596 1239.57 73.5152 1244.18 Q76.5938 1248.76 76.5938 1257.51 Q76.5938 1266.24 73.5152 1270.84 Q70.4596 1275.43 64.6495 1275.43 Q58.8393 1275.43 55.7606 1270.84 Q52.7051 1266.24 52.7051 1257.51 Q52.7051 1248.76 55.7606 1244.18 Q58.8393 1239.57 64.6495 1239.57 Z" fill="#000000" fill-rule="evenodd" fill-opacity="1" /><path clip-path="url(#clip180)" d="M84.8114 1268.88 L89.6956 1268.88 L89.6956 1274.76 L84.8114 1274.76 L84.8114 1268.88 Z" fill="#000000" fill-rule="evenodd" fill-opacity="1" /><path clip-path="url(#clip180)" d="M109.881 1243.27 Q106.27 1243.27 104.441 1246.84 Q102.635 1250.38 102.635 1257.51 Q102.635 1264.62 104.441 1268.18 Q106.27 1271.72 109.881 1271.72 Q113.515 1271.72 115.32 1268.18 Q117.149 1264.62 117.149 1257.51 Q117.149 1250.38 115.32 1246.84 Q113.515 1243.27 109.881 1243.27 M109.881 1239.57 Q115.691 1239.57 118.746 1244.18 Q121.825 1248.76 121.825 1257.51 Q121.825 1266.24 118.746 1270.84 Q115.691 1275.43 109.881 1275.43 Q104.071 1275.43 100.992 1270.84 Q97.9363 1266.24 97.9363 1257.51 Q97.9363 1248.76 100.992 1244.18 Q104.071 1239.57 109.881 1239.57 Z" fill="#000000" fill-rule="evenodd" fill-opacity="1" /><path clip-path="url(#clip180)" d="M130.853 1270.82 L138.492 1270.82 L138.492 1244.45 L130.182 1246.12 L130.182 1241.86 L138.445 1240.2 L143.121 1240.2 L143.121 1270.82 L150.76 1270.82 L150.76 1274.76 L130.853 1274.76 L130.853 1270.82 Z" fill="#000000" fill-rule="evenodd" fill-opacity="1" /><path clip-path="url(#clip180)" d="M65.0198 1052.88 Q61.4087 1052.88 59.58 1056.44 Q57.7745 1059.98 57.7745 1067.11 Q57.7745 1074.22 59.58 1077.78 Q61.4087 1081.33 65.0198 1081.33 Q68.6541 1081.33 70.4596 1077.78 Q72.2883 1074.22 72.2883 1067.11 Q72.2883 1059.98 70.4596 1056.44 Q68.6541 1052.88 65.0198 1052.88 M65.0198 1049.17 Q70.83 1049.17 73.8855 1053.78 Q76.9642 1058.36 76.9642 1067.11 Q76.9642 1075.84 73.8855 1080.45 Q70.83 1085.03 65.0198 1085.03 Q59.2097 1085.03 56.131 1080.45 Q53.0754 1075.84 53.0754 1067.11 Q53.0754 1058.36 56.131 1053.78 Q59.2097 1049.17 65.0198 1049.17 Z" fill="#000000" fill-rule="evenodd" fill-opacity="1" /><path clip-path="url(#clip180)" d="M85.1818 1078.48 L90.066 1078.48 L90.066 1084.36 L85.1818 1084.36 L85.1818 1078.48 Z" fill="#000000" fill-rule="evenodd" fill-opacity="1" /><path clip-path="url(#clip180)" d="M110.251 1052.88 Q106.64 1052.88 104.811 1056.44 Q103.006 1059.98 103.006 1067.11 Q103.006 1074.22 104.811 1077.78 Q106.64 1081.33 110.251 1081.33 Q113.885 1081.33 115.691 1077.78 Q117.52 1074.22 117.52 1067.11 Q117.52 1059.98 115.691 1056.44 Q113.885 1052.88 110.251 1052.88 M110.251 1049.17 Q116.061 1049.17 119.117 1053.78 Q122.195 1058.36 122.195 1067.11 Q122.195 1075.84 119.117 1080.45 Q116.061 1085.03 110.251 1085.03 Q104.441 1085.03 101.362 1080.45 Q98.3067 1075.84 98.3067 1067.11 Q98.3067 1058.36 101.362 1053.78 Q104.441 1049.17 110.251 1049.17 Z" fill="#000000" fill-rule="evenodd" fill-opacity="1" /><path clip-path="url(#clip180)" d="M134.441 1080.42 L150.76 1080.42 L150.76 1084.36 L128.816 1084.36 L128.816 1080.42 Q131.478 1077.67 136.061 1073.04 Q140.668 1068.39 141.848 1067.04 Q144.093 1064.52 144.973 1062.78 Q145.876 1061.02 145.876 1059.34 Q145.876 1056.58 143.931 1054.84 Q142.01 1053.11 138.908 1053.11 Q136.709 1053.11 134.256 1053.87 Q131.825 1054.64 129.047 1056.19 L129.047 1051.46 Q131.871 1050.33 134.325 1049.75 Q136.779 1049.17 138.816 1049.17 Q144.186 1049.17 147.38 1051.86 Q150.575 1054.54 150.575 1059.03 Q150.575 1061.16 149.765 1063.09 Q148.978 1064.98 146.871 1067.58 Q146.293 1068.25 143.191 1071.46 Q140.089 1074.66 134.441 1080.42 Z" fill="#000000" fill-rule="evenodd" fill-opacity="1" /><path clip-path="url(#clip180)" d="M64.0708 862.479 Q60.4597 862.479 58.631 866.044 Q56.8254 869.586 56.8254 876.715 Q56.8254 883.822 58.631 887.387 Q60.4597 890.928 64.0708 890.928 Q67.705 890.928 69.5105 887.387 Q71.3392 883.822 71.3392 876.715 Q71.3392 869.586 69.5105 866.044 Q67.705 862.479 64.0708 862.479 M64.0708 858.776 Q69.8809 858.776 72.9365 863.382 Q76.0151 867.965 76.0151 876.715 Q76.0151 885.442 72.9365 890.049 Q69.8809 894.632 64.0708 894.632 Q58.2606 894.632 55.1819 890.049 Q52.1264 885.442 52.1264 876.715 Q52.1264 867.965 55.1819 863.382 Q58.2606 858.776 64.0708 858.776 Z" fill="#000000" fill-rule="evenodd" fill-opacity="1" /><path clip-path="url(#clip180)" d="M84.2327 888.081 L89.1169 888.081 L89.1169 893.961 L84.2327 893.961 L84.2327 888.081 Z" fill="#000000" fill-rule="evenodd" fill-opacity="1" /><path clip-path="url(#clip180)" d="M109.302 862.479 Q105.691 862.479 103.862 866.044 Q102.057 869.586 102.057 876.715 Q102.057 883.822 103.862 887.387 Q105.691 890.928 109.302 890.928 Q112.936 890.928 114.742 887.387 Q116.57 883.822 116.57 876.715 Q116.57 869.586 114.742 866.044 Q112.936 862.479 109.302 862.479 M109.302 858.776 Q115.112 858.776 118.168 863.382 Q121.246 867.965 121.246 876.715 Q121.246 885.442 118.168 890.049 Q115.112 894.632 109.302 894.632 Q103.492 894.632 100.413 890.049 Q97.3576 885.442 97.3576 876.715 Q97.3576 867.965 100.413 863.382 Q103.492 858.776 109.302 858.776 Z" fill="#000000" fill-rule="evenodd" fill-opacity="1" /><path clip-path="url(#clip180)" d="M143.631 875.326 Q146.987 876.044 148.862 878.313 Q150.76 880.581 150.76 883.914 Q150.76 889.03 147.242 891.831 Q143.723 894.632 137.242 894.632 Q135.066 894.632 132.751 894.192 Q130.459 893.775 128.006 892.919 L128.006 888.405 Q129.95 889.539 132.265 890.118 Q134.58 890.697 137.103 890.697 Q141.501 890.697 143.793 888.961 Q146.107 887.225 146.107 883.914 Q146.107 880.859 143.955 879.146 Q141.825 877.41 138.006 877.41 L133.978 877.41 L133.978 873.567 L138.191 873.567 Q141.64 873.567 143.468 872.201 Q145.297 870.813 145.297 868.22 Q145.297 865.558 143.399 864.146 Q141.524 862.711 138.006 862.711 Q136.084 862.711 133.885 863.127 Q131.686 863.544 129.047 864.424 L129.047 860.257 Q131.709 859.516 134.024 859.146 Q136.362 858.776 138.422 858.776 Q143.746 858.776 146.848 861.206 Q149.95 863.614 149.95 867.734 Q149.95 870.604 148.306 872.595 Q146.663 874.563 143.631 875.326 Z" fill="#000000" fill-rule="evenodd" fill-opacity="1" /><path clip-path="url(#clip180)" d="M62.9365 672.082 Q59.3254 672.082 57.4967 675.647 Q55.6912 679.188 55.6912 686.318 Q55.6912 693.424 57.4967 696.989 Q59.3254 700.531 62.9365 700.531 Q66.5707 700.531 68.3763 696.989 Q70.205 693.424 70.205 686.318 Q70.205 679.188 68.3763 675.647 Q66.5707 672.082 62.9365 672.082 M62.9365 668.378 Q68.7467 668.378 71.8022 672.985 Q74.8809 677.568 74.8809 686.318 Q74.8809 695.045 71.8022 699.651 Q68.7467 704.234 62.9365 704.234 Q57.1264 704.234 54.0477 699.651 Q50.9921 695.045 50.9921 686.318 Q50.9921 677.568 54.0477 672.985 Q57.1264 668.378 62.9365 668.378 Z" fill="#000000" fill-rule="evenodd" fill-opacity="1" /><path clip-path="url(#clip180)" d="M83.0984 697.684 L87.9827 697.684 L87.9827 703.563 L83.0984 703.563 L83.0984 697.684 Z" fill="#000000" fill-rule="evenodd" fill-opacity="1" /><path clip-path="url(#clip180)" d="M108.168 672.082 Q104.557 672.082 102.728 675.647 Q100.922 679.188 100.922 686.318 Q100.922 693.424 102.728 696.989 Q104.557 700.531 108.168 700.531 Q111.802 700.531 113.608 696.989 Q115.436 693.424 115.436 686.318 Q115.436 679.188 113.608 675.647 Q111.802 672.082 108.168 672.082 M108.168 668.378 Q113.978 668.378 117.033 672.985 Q120.112 677.568 120.112 686.318 Q120.112 695.045 117.033 699.651 Q113.978 704.234 108.168 704.234 Q102.358 704.234 99.2789 699.651 Q96.2234 695.045 96.2234 686.318 Q96.2234 677.568 99.2789 672.985 Q102.358 668.378 108.168 668.378 Z" fill="#000000" fill-rule="evenodd" fill-opacity="1" /><path clip-path="url(#clip180)" d="M141.177 673.077 L129.371 691.526 L141.177 691.526 L141.177 673.077 M139.95 669.003 L145.83 669.003 L145.83 691.526 L150.76 691.526 L150.76 695.415 L145.83 695.415 L145.83 703.563 L141.177 703.563 L141.177 695.415 L125.575 695.415 L125.575 690.901 L139.95 669.003 Z" fill="#000000" fill-rule="evenodd" fill-opacity="1" /><path clip-path="url(#clip180)" d="M64.418 481.684 Q60.8069 481.684 58.9782 485.249 Q57.1726 488.791 57.1726 495.92 Q57.1726 503.027 58.9782 506.592 Q60.8069 510.133 64.418 510.133 Q68.0522 510.133 69.8578 506.592 Q71.6865 503.027 71.6865 495.92 Q71.6865 488.791 69.8578 485.249 Q68.0522 481.684 64.418 481.684 M64.418 477.981 Q70.2281 477.981 73.2837 482.587 Q76.3624 487.17 76.3624 495.92 Q76.3624 504.647 73.2837 509.254 Q70.2281 513.837 64.418 513.837 Q58.6078 513.837 55.5291 509.254 Q52.4736 504.647 52.4736 495.92 Q52.4736 487.17 55.5291 482.587 Q58.6078 477.981 64.418 477.981 Z" fill="#000000" fill-rule="evenodd" fill-opacity="1" /><path clip-path="url(#clip180)" d="M84.5799 507.286 L89.4641 507.286 L89.4641 513.166 L84.5799 513.166 L84.5799 507.286 Z" fill="#000000" fill-rule="evenodd" fill-opacity="1" /><path clip-path="url(#clip180)" d="M109.649 481.684 Q106.038 481.684 104.209 485.249 Q102.404 488.791 102.404 495.92 Q102.404 503.027 104.209 506.592 Q106.038 510.133 109.649 510.133 Q113.283 510.133 115.089 506.592 Q116.918 503.027 116.918 495.92 Q116.918 488.791 115.089 485.249 Q113.283 481.684 109.649 481.684 M109.649 477.981 Q115.459 477.981 118.515 482.587 Q121.594 487.17 121.594 495.92 Q121.594 504.647 118.515 509.254 Q115.459 513.837 109.649 513.837 Q103.839 513.837 100.76 509.254 Q97.7048 504.647 97.7048 495.92 Q97.7048 487.17 100.76 482.587 Q103.839 477.981 109.649 477.981 Z" fill="#000000" fill-rule="evenodd" fill-opacity="1" /><path clip-path="url(#clip180)" d="M129.857 478.606 L148.214 478.606 L148.214 482.541 L134.14 482.541 L134.14 491.013 Q135.158 490.666 136.177 490.504 Q137.195 490.319 138.214 490.319 Q144.001 490.319 147.38 493.49 Q150.76 496.661 150.76 502.078 Q150.76 507.656 147.288 510.758 Q143.816 513.837 137.496 513.837 Q135.32 513.837 133.052 513.467 Q130.807 513.096 128.399 512.355 L128.399 507.656 Q130.482 508.791 132.705 509.346 Q134.927 509.902 137.404 509.902 Q141.408 509.902 143.746 507.795 Q146.084 505.689 146.084 502.078 Q146.084 498.467 143.746 496.36 Q141.408 494.254 137.404 494.254 Q135.529 494.254 133.654 494.67 Q131.802 495.087 129.857 495.967 L129.857 478.606 Z" fill="#000000" fill-rule="evenodd" fill-opacity="1" /><path clip-path="url(#clip180)" d="M63.2606 291.287 Q59.6495 291.287 57.8208 294.852 Q56.0152 298.393 56.0152 305.523 Q56.0152 312.629 57.8208 316.194 Q59.6495 319.736 63.2606 319.736 Q66.8948 319.736 68.7004 316.194 Q70.5291 312.629 70.5291 305.523 Q70.5291 298.393 68.7004 294.852 Q66.8948 291.287 63.2606 291.287 M63.2606 287.583 Q69.0707 287.583 72.1263 292.19 Q75.205 296.773 75.205 305.523 Q75.205 314.25 72.1263 318.856 Q69.0707 323.439 63.2606 323.439 Q57.4504 323.439 54.3717 318.856 Q51.3162 314.25 51.3162 305.523 Q51.3162 296.773 54.3717 292.19 Q57.4504 287.583 63.2606 287.583 Z" fill="#000000" fill-rule="evenodd" fill-opacity="1" /><path clip-path="url(#clip180)" d="M83.4225 316.889 L88.3067 316.889 L88.3067 322.768 L83.4225 322.768 L83.4225 316.889 Z" fill="#000000" fill-rule="evenodd" fill-opacity="1" /><path clip-path="url(#clip180)" d="M108.492 291.287 Q104.881 291.287 103.052 294.852 Q101.246 298.393 101.246 305.523 Q101.246 312.629 103.052 316.194 Q104.881 319.736 108.492 319.736 Q112.126 319.736 113.932 316.194 Q115.76 312.629 115.76 305.523 Q115.76 298.393 113.932 294.852 Q112.126 291.287 108.492 291.287 M108.492 287.583 Q114.302 287.583 117.358 292.19 Q120.436 296.773 120.436 305.523 Q120.436 314.25 117.358 318.856 Q114.302 323.439 108.492 323.439 Q102.682 323.439 99.603 318.856 Q96.5474 314.25 96.5474 305.523 Q96.5474 296.773 99.603 292.19 Q102.682 287.583 108.492 287.583 Z" fill="#000000" fill-rule="evenodd" fill-opacity="1" /><path clip-path="url(#clip180)" d="M139.232 303.625 Q136.084 303.625 134.232 305.777 Q132.404 307.93 132.404 311.68 Q132.404 315.407 134.232 317.583 Q136.084 319.736 139.232 319.736 Q142.381 319.736 144.209 317.583 Q146.061 315.407 146.061 311.68 Q146.061 307.93 144.209 305.777 Q142.381 303.625 139.232 303.625 M148.515 288.972 L148.515 293.231 Q146.756 292.398 144.95 291.958 Q143.168 291.518 141.408 291.518 Q136.779 291.518 134.325 294.643 Q131.894 297.768 131.547 304.088 Q132.913 302.074 134.973 301.009 Q137.033 299.921 139.51 299.921 Q144.718 299.921 147.728 303.092 Q150.76 306.24 150.76 311.68 Q150.76 317.004 147.612 320.222 Q144.464 323.439 139.232 323.439 Q133.237 323.439 130.066 318.856 Q126.894 314.25 126.894 305.523 Q126.894 297.328 130.783 292.467 Q134.672 287.583 141.223 287.583 Q142.982 287.583 144.765 287.93 Q146.57 288.278 148.515 288.972 Z" fill="#000000" fill-rule="evenodd" fill-opacity="1" /><path clip-path="url(#clip180)" d="M335.832 12.096 L374.073 12.096 L374.073 18.9825 L344.015 18.9825 L344.015 36.8875 L372.817 36.8875 L372.817 43.7741 L344.015 43.7741 L344.015 65.6895 L374.802 65.6895 L374.802 72.576 L335.832 72.576 L335.832 12.096 Z" fill="#000000" fill-rule="evenodd" fill-opacity="1" /><path clip-path="url(#clip180)" d="M414.217 34.1734 Q412.961 33.4443 411.462 33.1202 Q410.004 32.7556 408.222 32.7556 Q401.902 32.7556 398.5 36.8875 Q395.137 40.9789 395.137 48.6757 L395.137 72.576 L387.643 72.576 L387.643 27.2059 L395.137 27.2059 L395.137 34.2544 Q397.487 30.1225 401.254 28.1376 Q405.021 26.1121 410.409 26.1121 Q411.179 26.1121 412.111 26.2337 Q413.042 26.3147 414.177 26.5172 L414.217 34.1734 Z" fill="#000000" fill-rule="evenodd" fill-opacity="1" /><path clip-path="url(#clip180)" d="M446.867 34.1734 Q445.612 33.4443 444.113 33.1202 Q442.654 32.7556 440.872 32.7556 Q434.553 32.7556 431.15 36.8875 Q427.788 40.9789 427.788 48.6757 L427.788 72.576 L420.293 72.576 L420.293 27.2059 L427.788 27.2059 L427.788 34.2544 Q430.137 30.1225 433.904 28.1376 Q437.672 26.1121 443.059 26.1121 Q443.829 26.1121 444.761 26.2337 Q445.693 26.3147 446.827 26.5172 L446.867 34.1734 Z" fill="#000000" fill-rule="evenodd" fill-opacity="1" /><path clip-path="url(#clip180)" d="M470.444 32.4315 Q464.448 32.4315 460.964 37.1306 Q457.481 41.7891 457.481 49.9314 Q457.481 58.0738 460.924 62.7728 Q464.408 67.4314 470.444 67.4314 Q476.398 67.4314 479.882 62.7323 Q483.366 58.0333 483.366 49.9314 Q483.366 41.8701 479.882 37.1711 Q476.398 32.4315 470.444 32.4315 M470.444 26.1121 Q480.166 26.1121 485.715 32.4315 Q491.265 38.7509 491.265 49.9314 Q491.265 61.0714 485.715 67.4314 Q480.166 73.7508 470.444 73.7508 Q460.681 73.7508 455.131 67.4314 Q449.622 61.0714 449.622 49.9314 Q449.622 38.7509 455.131 32.4315 Q460.681 26.1121 470.444 26.1121 Z" fill="#000000" fill-rule="evenodd" fill-opacity="1" /><path clip-path="url(#clip180)" d="M529.911 34.1734 Q528.655 33.4443 527.156 33.1202 Q525.698 32.7556 523.916 32.7556 Q517.596 32.7556 514.193 36.8875 Q510.831 40.9789 510.831 48.6757 L510.831 72.576 L503.337 72.576 L503.337 27.2059 L510.831 27.2059 L510.831 34.2544 Q513.181 30.1225 516.948 28.1376 Q520.715 26.1121 526.103 26.1121 Q526.873 26.1121 527.804 26.2337 Q528.736 26.3147 529.87 26.5172 L529.911 34.1734 Z" fill="#000000" fill-rule="evenodd" fill-opacity="1" /><path clip-path="url(#clip180)" d="M581.681 32.4315 Q575.686 32.4315 572.202 37.1306 Q568.719 41.7891 568.719 49.9314 Q568.719 58.0738 572.162 62.7728 Q575.646 67.4314 581.681 67.4314 Q587.636 67.4314 591.12 62.7323 Q594.604 58.0333 594.604 49.9314 Q594.604 41.8701 591.12 37.1711 Q587.636 32.4315 581.681 32.4315 M581.681 26.1121 Q591.404 26.1121 596.953 32.4315 Q602.503 38.7509 602.503 49.9314 Q602.503 61.0714 596.953 67.4314 Q591.404 73.7508 581.681 73.7508 Q571.919 73.7508 566.369 67.4314 Q560.86 61.0714 560.86 49.9314 Q560.86 38.7509 566.369 32.4315 Q571.919 26.1121 581.681 26.1121 Z" fill="#000000" fill-rule="evenodd" fill-opacity="1" /><path clip-path="url(#clip180)" d="M637.827 9.54393 L637.827 15.7418 L630.697 15.7418 Q626.687 15.7418 625.107 17.3622 Q623.568 18.9825 623.568 23.1955 L623.568 27.2059 L635.842 27.2059 L635.842 32.9987 L623.568 32.9987 L623.568 72.576 L616.074 72.576 L616.074 32.9987 L608.944 32.9987 L608.944 27.2059 L616.074 27.2059 L616.074 24.0462 Q616.074 16.471 619.598 13.0277 Q623.122 9.54393 630.778 9.54393 L637.827 9.54393 Z" fill="#000000" fill-rule="evenodd" fill-opacity="1" /><path clip-path="url(#clip180)" d="M678.539 65.6895 L707.097 65.6895 L707.097 72.576 L668.695 72.576 L668.695 65.6895 Q673.353 60.8689 681.374 52.7671 Q689.435 44.6248 691.501 42.2752 Q695.431 37.8598 696.97 34.8216 Q698.55 31.7429 698.55 28.7857 Q698.55 23.9651 695.147 20.927 Q691.785 17.8888 686.357 17.8888 Q682.508 17.8888 678.214 19.2256 Q673.961 20.5624 669.1 23.2765 L669.1 15.0127 Q674.042 13.0277 678.336 12.015 Q682.63 11.0023 686.195 11.0023 Q695.593 11.0023 701.183 15.7013 Q706.773 20.4004 706.773 28.2591 Q706.773 31.9859 705.356 35.3482 Q703.978 38.6699 700.292 43.2069 Q699.279 44.3817 693.851 50.0125 Q688.423 55.6027 678.539 65.6895 Z" fill="#000000" fill-rule="evenodd" fill-opacity="1" /><path clip-path="url(#clip180)" d="M741.773 17.4837 Q735.454 17.4837 732.254 23.7221 Q729.094 29.92 729.094 42.3968 Q729.094 54.833 732.254 61.0714 Q735.454 67.2693 741.773 67.2693 Q748.133 67.2693 751.293 61.0714 Q754.493 54.833 754.493 42.3968 Q754.493 29.92 751.293 23.7221 Q748.133 17.4837 741.773 17.4837 M741.773 11.0023 Q751.941 11.0023 757.288 19.0636 Q762.676 27.0843 762.676 42.3968 Q762.676 57.6687 757.288 65.73 Q751.941 73.7508 741.773 73.7508 Q731.605 73.7508 726.218 65.73 Q720.87 57.6687 720.87 42.3968 Q720.87 27.0843 726.218 19.0636 Q731.605 11.0023 741.773 11.0023 Z" fill="#000000" fill-rule="evenodd" fill-opacity="1" /><path clip-path="url(#clip180)" d="M772.236 46.5287 L794.07 46.5287 L794.07 53.1722 L772.236 53.1722 L772.236 46.5287 Z" fill="#000000" fill-rule="evenodd" fill-opacity="1" /><path clip-path="url(#clip180)" d="M833.121 17.6457 Q824.209 17.6457 818.943 24.2892 Q813.717 30.9327 813.717 42.3968 Q813.717 53.8203 818.943 60.4638 Q824.209 67.1073 833.121 67.1073 Q842.033 67.1073 847.218 60.4638 Q852.444 53.8203 852.444 42.3968 Q852.444 30.9327 847.218 24.2892 Q842.033 17.6457 833.121 17.6457 M833.121 11.0023 Q845.841 11.0023 853.457 19.5497 Q861.072 28.0566 861.072 42.3968 Q861.072 56.6965 853.457 65.2439 Q845.841 73.7508 833.121 73.7508 Q820.361 73.7508 812.704 65.2439 Q805.089 56.737 805.089 42.3968 Q805.089 28.0566 812.704 19.5497 Q820.361 11.0023 833.121 11.0023 Z" fill="#000000" fill-rule="evenodd" fill-opacity="1" /><path clip-path="url(#clip180)" d="M899.839 34.1734 Q898.584 33.4443 897.085 33.1202 Q895.626 32.7556 893.844 32.7556 Q887.525 32.7556 884.122 36.8875 Q880.76 40.9789 880.76 48.6757 L880.76 72.576 L873.266 72.576 L873.266 27.2059 L880.76 27.2059 L880.76 34.2544 Q883.109 30.1225 886.877 28.1376 Q890.644 26.1121 896.032 26.1121 Q896.801 26.1121 897.733 26.2337 Q898.665 26.3147 899.799 26.5172 L899.839 34.1734 Z" fill="#000000" fill-rule="evenodd" fill-opacity="1" /><path clip-path="url(#clip180)" d="M936.055 34.0924 L936.055 9.54393 L943.508 9.54393 L943.508 72.576 L936.055 72.576 L936.055 65.7705 Q933.705 69.8214 930.1 71.8063 Q926.535 73.7508 921.512 73.7508 Q913.288 73.7508 908.103 67.1883 Q902.959 60.6258 902.959 49.9314 Q902.959 39.2371 908.103 32.6746 Q913.288 26.1121 921.512 26.1121 Q926.535 26.1121 930.1 28.0971 Q933.705 30.0415 936.055 34.0924 M910.655 49.9314 Q910.655 58.1548 914.018 62.8538 Q917.42 67.5124 923.335 67.5124 Q929.249 67.5124 932.652 62.8538 Q936.055 58.1548 936.055 49.9314 Q936.055 41.7081 932.652 37.0496 Q929.249 32.3505 923.335 32.3505 Q917.42 32.3505 914.018 37.0496 Q910.655 41.7081 910.655 49.9314 Z" fill="#000000" fill-rule="evenodd" fill-opacity="1" /><path clip-path="url(#clip180)" d="M997.669 48.0275 L997.669 51.6733 L963.398 51.6733 Q963.884 59.3701 968.016 63.421 Q972.189 67.4314 979.602 67.4314 Q983.896 67.4314 987.906 66.3781 Q991.957 65.3249 995.927 63.2184 L995.927 70.267 Q991.916 71.9684 987.704 72.8596 Q983.491 73.7508 979.156 73.7508 Q968.3 73.7508 961.94 67.4314 Q955.62 61.1119 955.62 50.3365 Q955.62 39.1965 961.616 32.6746 Q967.652 26.1121 977.86 26.1121 Q987.015 26.1121 992.322 32.0264 Q997.669 37.9003 997.669 48.0275 M990.215 45.84 Q990.134 39.7232 986.772 36.0774 Q983.45 32.4315 977.941 32.4315 Q971.702 32.4315 967.935 35.9558 Q964.208 39.4801 963.641 45.8805 L990.215 45.84 Z" fill="#000000" fill-rule="evenodd" fill-opacity="1" /><path clip-path="url(#clip180)" d="M1036.19 34.1734 Q1034.94 33.4443 1033.44 33.1202 Q1031.98 32.7556 1030.2 32.7556 Q1023.88 32.7556 1020.48 36.8875 Q1017.11 40.9789 1017.11 48.6757 L1017.11 72.576 L1009.62 72.576 L1009.62 27.2059 L1017.11 27.2059 L1017.11 34.2544 Q1019.46 30.1225 1023.23 28.1376 Q1027 26.1121 1032.39 26.1121 Q1033.15 26.1121 1034.09 26.2337 Q1035.02 26.3147 1036.15 26.5172 L1036.19 34.1734 Z" fill="#000000" fill-rule="evenodd" fill-opacity="1" /><path clip-path="url(#clip180)" d="M1070.71 12.096 L1078.89 12.096 L1078.89 72.576 L1070.71 72.576 L1070.71 12.096 Z" fill="#000000" fill-rule="evenodd" fill-opacity="1" /><path clip-path="url(#clip180)" d="M1132.56 45.1919 L1132.56 72.576 L1125.11 72.576 L1125.11 45.4349 Q1125.11 38.994 1122.6 35.7938 Q1120.09 32.5936 1115.06 32.5936 Q1109.03 32.5936 1105.54 36.4419 Q1102.06 40.2903 1102.06 46.9338 L1102.06 72.576 L1094.57 72.576 L1094.57 27.2059 L1102.06 27.2059 L1102.06 34.2544 Q1104.73 30.163 1108.34 28.1376 Q1111.99 26.1121 1116.72 26.1121 Q1124.54 26.1121 1128.55 30.9732 Q1132.56 35.7938 1132.56 45.1919 Z" fill="#000000" fill-rule="evenodd" fill-opacity="1" /><path clip-path="url(#clip180)" d="M1154.8 14.324 L1154.8 27.2059 L1170.16 27.2059 L1170.16 32.9987 L1154.8 32.9987 L1154.8 57.6282 Q1154.8 63.1779 1156.3 64.7578 Q1157.84 66.3376 1162.5 66.3376 L1170.16 66.3376 L1170.16 72.576 L1162.5 72.576 Q1153.87 72.576 1150.59 69.3758 Q1147.31 66.1351 1147.31 57.6282 L1147.31 32.9987 L1141.84 32.9987 L1141.84 27.2059 L1147.31 27.2059 L1147.31 14.324 L1154.8 14.324 Z" fill="#000000" fill-rule="evenodd" fill-opacity="1" /><path clip-path="url(#clip180)" d="M1218.77 48.0275 L1218.77 51.6733 L1184.5 51.6733 Q1184.98 59.3701 1189.11 63.421 Q1193.29 67.4314 1200.7 67.4314 Q1204.99 67.4314 1209 66.3781 Q1213.06 65.3249 1217.03 63.2184 L1217.03 70.267 Q1213.01 71.9684 1208.8 72.8596 Q1204.59 73.7508 1200.25 73.7508 Q1189.4 73.7508 1183.04 67.4314 Q1176.72 61.1119 1176.72 50.3365 Q1176.72 39.1965 1182.71 32.6746 Q1188.75 26.1121 1198.96 26.1121 Q1208.11 26.1121 1213.42 32.0264 Q1218.77 37.9003 1218.77 48.0275 M1211.31 45.84 Q1211.23 39.7232 1207.87 36.0774 Q1204.55 32.4315 1199.04 32.4315 Q1192.8 32.4315 1189.03 35.9558 Q1185.31 39.4801 1184.74 45.8805 L1211.31 45.84 Z" fill="#000000" fill-rule="evenodd" fill-opacity="1" /><path clip-path="url(#clip180)" d="M1257.29 34.1734 Q1256.04 33.4443 1254.54 33.1202 Q1253.08 32.7556 1251.3 32.7556 Q1244.98 32.7556 1241.57 36.8875 Q1238.21 40.9789 1238.21 48.6757 L1238.21 72.576 L1230.72 72.576 L1230.72 27.2059 L1238.21 27.2059 L1238.21 34.2544 Q1240.56 30.1225 1244.33 28.1376 Q1248.1 26.1121 1253.48 26.1121 Q1254.25 26.1121 1255.18 26.2337 Q1256.12 26.3147 1257.25 26.5172 L1257.29 34.1734 Z" fill="#000000" fill-rule="evenodd" fill-opacity="1" /><path clip-path="url(#clip180)" d="M1272.32 65.7705 L1272.32 89.8329 L1264.83 89.8329 L1264.83 27.2059 L1272.32 27.2059 L1272.32 34.0924 Q1274.67 30.0415 1278.23 28.0971 Q1281.84 26.1121 1286.82 26.1121 Q1295.09 26.1121 1300.23 32.6746 Q1305.42 39.2371 1305.42 49.9314 Q1305.42 60.6258 1300.23 67.1883 Q1295.09 73.7508 1286.82 73.7508 Q1281.84 73.7508 1278.23 71.8063 Q1274.67 69.8214 1272.32 65.7705 M1297.68 49.9314 Q1297.68 41.7081 1294.28 37.0496 Q1290.91 32.3505 1285 32.3505 Q1279.09 32.3505 1275.68 37.0496 Q1272.32 41.7081 1272.32 49.9314 Q1272.32 58.1548 1275.68 62.8538 Q1279.09 67.5124 1285 67.5124 Q1290.91 67.5124 1294.28 62.8538 Q1297.68 58.1548 1297.68 49.9314 Z" fill="#000000" fill-rule="evenodd" fill-opacity="1" /><path clip-path="url(#clip180)" d="M1335.35 32.4315 Q1329.36 32.4315 1325.87 37.1306 Q1322.39 41.7891 1322.39 49.9314 Q1322.39 58.0738 1325.83 62.7728 Q1329.32 67.4314 1335.35 67.4314 Q1341.31 67.4314 1344.79 62.7323 Q1348.27 58.0333 1348.27 49.9314 Q1348.27 41.8701 1344.79 37.1711 Q1341.31 32.4315 1335.35 32.4315 M1335.35 26.1121 Q1345.07 26.1121 1350.62 32.4315 Q1356.17 38.7509 1356.17 49.9314 Q1356.17 61.0714 1350.62 67.4314 Q1345.07 73.7508 1335.35 73.7508 Q1325.59 73.7508 1320.04 67.4314 Q1314.53 61.0714 1314.53 49.9314 Q1314.53 38.7509 1320.04 32.4315 Q1325.59 26.1121 1335.35 26.1121 Z" fill="#000000" fill-rule="evenodd" fill-opacity="1" /><path clip-path="url(#clip180)" d="M1368.53 9.54393 L1375.98 9.54393 L1375.98 72.576 L1368.53 72.576 L1368.53 9.54393 Z" fill="#000000" fill-rule="evenodd" fill-opacity="1" /><path clip-path="url(#clip180)" d="M1412.2 49.7694 Q1403.16 49.7694 1399.68 51.8354 Q1396.2 53.9013 1396.2 58.8839 Q1396.2 62.8538 1398.79 65.2034 Q1401.42 67.5124 1405.92 67.5124 Q1412.12 67.5124 1415.84 63.1374 Q1419.61 58.7219 1419.61 51.4303 L1419.61 49.7694 L1412.2 49.7694 M1427.06 46.6907 L1427.06 72.576 L1419.61 72.576 L1419.61 65.6895 Q1417.06 69.8214 1413.25 71.8063 Q1409.44 73.7508 1403.93 73.7508 Q1396.97 73.7508 1392.83 69.8619 Q1388.74 65.9325 1388.74 59.3701 Q1388.74 51.7138 1393.85 47.825 Q1398.99 43.9361 1409.16 43.9361 L1419.61 43.9361 L1419.61 43.2069 Q1419.61 38.0623 1416.21 35.2672 Q1412.85 32.4315 1406.73 32.4315 Q1402.84 32.4315 1399.15 33.3632 Q1395.47 34.295 1392.06 36.1584 L1392.06 29.2718 Q1396.16 27.692 1400 26.9223 Q1403.85 26.1121 1407.5 26.1121 Q1417.34 26.1121 1422.2 31.2163 Q1427.06 36.3204 1427.06 46.6907 Z" fill="#000000" fill-rule="evenodd" fill-opacity="1" /><path clip-path="url(#clip180)" d="M1449.79 14.324 L1449.79 27.2059 L1465.14 27.2059 L1465.14 32.9987 L1449.79 32.9987 L1449.79 57.6282 Q1449.79 63.1779 1451.29 64.7578 Q1452.83 66.3376 1457.49 66.3376 L1465.14 66.3376 L1465.14 72.576 L1457.49 72.576 Q1448.86 72.576 1445.58 69.3758 Q1442.3 66.1351 1442.3 57.6282 L1442.3 32.9987 L1436.83 32.9987 L1436.83 27.2059 L1442.3 27.2059 L1442.3 14.324 L1449.79 14.324 Z" fill="#000000" fill-rule="evenodd" fill-opacity="1" /><path clip-path="url(#clip180)" d="M1474.95 27.2059 L1482.4 27.2059 L1482.4 72.576 L1474.95 72.576 L1474.95 27.2059 M1474.95 9.54393 L1482.4 9.54393 L1482.4 18.9825 L1474.95 18.9825 L1474.95 9.54393 Z" fill="#000000" fill-rule="evenodd" fill-opacity="1" /><path clip-path="url(#clip180)" d="M1515.58 32.4315 Q1509.58 32.4315 1506.1 37.1306 Q1502.61 41.7891 1502.61 49.9314 Q1502.61 58.0738 1506.06 62.7728 Q1509.54 67.4314 1515.58 67.4314 Q1521.53 67.4314 1525.02 62.7323 Q1528.5 58.0333 1528.5 49.9314 Q1528.5 41.8701 1525.02 37.1711 Q1521.53 32.4315 1515.58 32.4315 M1515.58 26.1121 Q1525.3 26.1121 1530.85 32.4315 Q1536.4 38.7509 1536.4 49.9314 Q1536.4 61.0714 1530.85 67.4314 Q1525.3 73.7508 1515.58 73.7508 Q1505.81 73.7508 1500.26 67.4314 Q1494.76 61.0714 1494.76 49.9314 Q1494.76 38.7509 1500.26 32.4315 Q1505.81 26.1121 1515.58 26.1121 Z" fill="#000000" fill-rule="evenodd" fill-opacity="1" /><path clip-path="url(#clip180)" d="M1586.47 45.1919 L1586.47 72.576 L1579.01 72.576 L1579.01 45.4349 Q1579.01 38.994 1576.5 35.7938 Q1573.99 32.5936 1568.97 32.5936 Q1562.93 32.5936 1559.45 36.4419 Q1555.96 40.2903 1555.96 46.9338 L1555.96 72.576 L1548.47 72.576 L1548.47 27.2059 L1555.96 27.2059 L1555.96 34.2544 Q1558.64 30.163 1562.24 28.1376 Q1565.89 26.1121 1570.63 26.1121 Q1578.45 26.1121 1582.46 30.9732 Q1586.47 35.7938 1586.47 45.1919 Z" fill="#000000" fill-rule="evenodd" fill-opacity="1" /><polyline clip-path="url(#clip182)" style="stroke:#009af9; stroke-linecap:butt; stroke-linejoin:round; stroke-width:4; stroke-opacity:1; fill:none" points="
  230.593,162.047 242.769,718.923 254.945,1046.06 267.121,1233.57 279.297,1338.03 291.473,1394.3 303.649,1423.39 315.825,1437.67 328.001,1444.22 340.177,1446.93 
  352.353,1447.87 364.529,1447.66 376.705,1447.69 388.881,1447.78 401.057,1447.84 413.233,1447.87 425.409,1447.86 437.584,1447.86 449.76,1447.87 461.936,1447.87 
  474.112,1447.87 486.288,1447.87 498.464,1447.87 510.64,1447.87 522.816,1447.87 534.992,1447.87 547.168,1447.87 559.344,1447.87 571.52,1447.87 583.696,1447.87 
  595.872,1447.87 608.048,1447.87 620.224,1447.87 632.399,1447.87 644.575,1447.87 656.751,1447.87 668.927,1447.87 681.103,1447.87 693.279,1447.87 705.455,1447.87 
  717.631,1447.87 729.807,1447.87 741.983,1447.87 754.159,1447.87 766.335,1447.87 778.511,1447.87 790.687,1447.87 802.863,1447.87 815.039,1447.87 827.215,1447.87 
  839.39,1447.87 851.566,1447.87 863.742,1447.87 875.918,1447.87 888.094,1447.87 900.27,1447.87 912.446,1447.87 924.622,1447.87 936.798,1447.87 948.974,1447.87 
  961.15,1447.87 973.326,1447.87 985.502,1447.87 997.678,1447.87 1009.85,1447.87 1022.03,1447.87 1034.21,1447.87 1046.38,1447.87 1058.56,1447.87 1070.73,1447.87 
  1082.91,1447.87 1095.09,1447.87 1107.26,1447.87 1119.44,1447.87 1131.61,1447.87 1143.79,1447.87 1155.96,1447.87 1168.14,1447.87 1180.32,1447.87 1192.49,1447.87 
  1204.67,1447.87 1216.84,1447.87 1229.02,1447.87 1241.2,1447.87 1253.37,1447.87 1265.55,1447.87 1277.72,1447.87 1289.9,1447.87 1302.08,1447.87 1314.25,1447.87 
  1326.43,1447.87 1338.6,1447.87 1350.78,1447.87 1362.96,1447.87 1375.13,1447.87 1387.31,1447.87 1399.48,1447.87 1411.66,1447.87 1423.84,1447.87 1436.01,1447.87 
  1448.19,1447.87 1460.36,1447.87 1472.54,1447.87 1484.72,1447.86 1496.89,1447.86 1509.07,1447.87 1521.24,1447.84 1533.42,1447.78 1545.59,1447.69 1557.77,1447.66 
  1569.95,1447.87 1582.12,1446.93 1594.3,1444.22 1606.47,1437.67 1618.65,1423.39 1630.83,1394.3 1643,1338.03 1655.18,1233.57 1667.35,1046.06 1679.53,718.923 
  1691.71,162.047 
  "/>
<path clip-path="url(#clip180)" d="
M1807.74 272.585 L2352.76 272.585 L2352.76 168.905 L1807.74 168.905  Z
  " fill="#ffffff" fill-rule="evenodd" fill-opacity="1"/>
<polyline clip-path="url(#clip180)" style="stroke:#000000; stroke-linecap:butt; stroke-linejoin:round; stroke-width:4; stroke-opacity:1; fill:none" points="
  1807.74,272.585 2352.76,272.585 2352.76,168.905 1807.74,168.905 1807.74,272.585 
  "/>
<polyline clip-path="url(#clip180)" style="stroke:#009af9; stroke-linecap:butt; stroke-linejoin:round; stroke-width:4; stroke-opacity:1; fill:none" points="
  1831.81,220.745 1976.21,220.745 
  "/>
<path clip-path="url(#clip180)" d="M2015.46 216.08 Q2014.74 215.664 2013.88 215.478 Q2013.05 215.27 2012.03 215.27 Q2008.42 215.27 2006.48 217.631 Q2004.55 219.969 2004.55 224.367 L2004.55 238.025 L2000.27 238.025 L2000.27 212.099 L2004.55 212.099 L2004.55 216.127 Q2005.9 213.766 2008.05 212.631 Q2010.2 211.474 2013.28 211.474 Q2013.72 211.474 2014.25 211.543 Q2014.79 211.59 2015.43 211.705 L2015.46 216.08 Z" fill="#000000" fill-rule="evenodd" fill-opacity="1" /><path clip-path="url(#clip180)" d="M2041.06 223.997 L2041.06 226.08 L2021.48 226.08 Q2021.75 230.478 2024.11 232.793 Q2026.5 235.085 2030.74 235.085 Q2033.19 235.085 2035.48 234.483 Q2037.8 233.881 2040.06 232.677 L2040.06 236.705 Q2037.77 237.677 2035.36 238.187 Q2032.96 238.696 2030.48 238.696 Q2024.28 238.696 2020.64 235.085 Q2017.03 231.474 2017.03 225.316 Q2017.03 218.951 2020.46 215.224 Q2023.91 211.474 2029.74 211.474 Q2034.97 211.474 2038 214.853 Q2041.06 218.21 2041.06 223.997 M2036.8 222.747 Q2036.75 219.252 2034.83 217.168 Q2032.93 215.085 2029.79 215.085 Q2026.22 215.085 2024.07 217.099 Q2021.94 219.113 2021.61 222.77 L2036.8 222.747 Z" fill="#000000" fill-rule="evenodd" fill-opacity="1" /><path clip-path="url(#clip180)" d="M2048.05 202.006 L2052.31 202.006 L2052.31 238.025 L2048.05 238.025 L2048.05 202.006 Z" fill="#000000" fill-rule="evenodd" fill-opacity="1" /><path clip-path="url(#clip180)" d="M2073 224.992 Q2067.84 224.992 2065.85 226.173 Q2063.86 227.353 2063.86 230.201 Q2063.86 232.469 2065.34 233.812 Q2066.85 235.131 2069.42 235.131 Q2072.96 235.131 2075.09 232.631 Q2077.24 230.108 2077.24 225.941 L2077.24 224.992 L2073 224.992 M2081.5 223.233 L2081.5 238.025 L2077.24 238.025 L2077.24 234.089 Q2075.78 236.451 2073.61 237.585 Q2071.43 238.696 2068.28 238.696 Q2064.3 238.696 2061.94 236.474 Q2059.6 234.228 2059.6 230.478 Q2059.6 226.103 2062.52 223.881 Q2065.46 221.659 2071.27 221.659 L2077.24 221.659 L2077.24 221.242 Q2077.24 218.303 2075.3 216.705 Q2073.37 215.085 2069.88 215.085 Q2067.66 215.085 2065.55 215.617 Q2063.44 216.15 2061.5 217.215 L2061.5 213.279 Q2063.84 212.377 2066.04 211.937 Q2068.24 211.474 2070.32 211.474 Q2075.94 211.474 2078.72 214.391 Q2081.5 217.307 2081.5 223.233 Z" fill="#000000" fill-rule="evenodd" fill-opacity="1" /><path clip-path="url(#clip180)" d="M2094.48 204.738 L2094.48 212.099 L2103.26 212.099 L2103.26 215.409 L2094.48 215.409 L2094.48 229.483 Q2094.48 232.654 2095.34 233.557 Q2096.22 234.46 2098.88 234.46 L2103.26 234.46 L2103.26 238.025 L2098.88 238.025 Q2093.95 238.025 2092.08 236.196 Q2090.2 234.344 2090.2 229.483 L2090.2 215.409 L2087.08 215.409 L2087.08 212.099 L2090.2 212.099 L2090.2 204.738 L2094.48 204.738 Z" fill="#000000" fill-rule="evenodd" fill-opacity="1" /><path clip-path="url(#clip180)" d="M2108.86 212.099 L2113.12 212.099 L2113.12 238.025 L2108.86 238.025 L2108.86 212.099 M2108.86 202.006 L2113.12 202.006 L2113.12 207.4 L2108.86 207.4 L2108.86 202.006 Z" fill="#000000" fill-rule="evenodd" fill-opacity="1" /><path clip-path="url(#clip180)" d="M2118.98 212.099 L2123.49 212.099 L2131.59 233.858 L2139.69 212.099 L2144.21 212.099 L2134.48 238.025 L2128.7 238.025 L2118.98 212.099 Z" fill="#000000" fill-rule="evenodd" fill-opacity="1" /><path clip-path="url(#clip180)" d="M2172.26 223.997 L2172.26 226.08 L2152.68 226.08 Q2152.96 230.478 2155.32 232.793 Q2157.7 235.085 2161.94 235.085 Q2164.39 235.085 2166.68 234.483 Q2169 233.881 2171.27 232.677 L2171.27 236.705 Q2168.98 237.677 2166.57 238.187 Q2164.16 238.696 2161.68 238.696 Q2155.48 238.696 2151.85 235.085 Q2148.23 231.474 2148.23 225.316 Q2148.23 218.951 2151.66 215.224 Q2155.11 211.474 2160.94 211.474 Q2166.17 211.474 2169.21 214.853 Q2172.26 218.21 2172.26 223.997 M2168 222.747 Q2167.96 219.252 2166.04 217.168 Q2164.14 215.085 2160.99 215.085 Q2157.42 215.085 2155.27 217.099 Q2153.14 219.113 2152.82 222.77 L2168 222.747 Z" fill="#000000" fill-rule="evenodd" fill-opacity="1" /><path clip-path="url(#clip180)" d="M2216.5 223.997 L2216.5 226.08 L2196.91 226.08 Q2197.19 230.478 2199.55 232.793 Q2201.94 235.085 2206.17 235.085 Q2208.63 235.085 2210.92 234.483 Q2213.23 233.881 2215.5 232.677 L2215.5 236.705 Q2213.21 237.677 2210.8 238.187 Q2208.4 238.696 2205.92 238.696 Q2199.72 238.696 2196.08 235.085 Q2192.47 231.474 2192.47 225.316 Q2192.47 218.951 2195.9 215.224 Q2199.35 211.474 2205.18 211.474 Q2210.41 211.474 2213.44 214.853 Q2216.5 218.21 2216.5 223.997 M2212.24 222.747 Q2212.19 219.252 2210.27 217.168 Q2208.37 215.085 2205.23 215.085 Q2201.66 215.085 2199.51 217.099 Q2197.38 219.113 2197.05 222.77 L2212.24 222.747 Z" fill="#000000" fill-rule="evenodd" fill-opacity="1" /><path clip-path="url(#clip180)" d="M2238.51 216.08 Q2237.79 215.664 2236.94 215.478 Q2236.1 215.27 2235.09 215.27 Q2231.47 215.27 2229.53 217.631 Q2227.61 219.969 2227.61 224.367 L2227.61 238.025 L2223.33 238.025 L2223.33 212.099 L2227.61 212.099 L2227.61 216.127 Q2228.95 213.766 2231.1 212.631 Q2233.26 211.474 2236.34 211.474 Q2236.78 211.474 2237.31 211.543 Q2237.84 211.59 2238.49 211.705 L2238.51 216.08 Z" fill="#000000" fill-rule="evenodd" fill-opacity="1" /><path clip-path="url(#clip180)" d="M2257.17 216.08 Q2256.45 215.664 2255.6 215.478 Q2254.76 215.27 2253.74 215.27 Q2250.13 215.27 2248.19 217.631 Q2246.27 219.969 2246.27 224.367 L2246.27 238.025 L2241.98 238.025 L2241.98 212.099 L2246.27 212.099 L2246.27 216.127 Q2247.61 213.766 2249.76 212.631 Q2251.91 211.474 2254.99 211.474 Q2255.43 211.474 2255.97 211.543 Q2256.5 211.59 2257.15 211.705 L2257.17 216.08 Z" fill="#000000" fill-rule="evenodd" fill-opacity="1" /><path clip-path="url(#clip180)" d="M2270.64 215.085 Q2267.22 215.085 2265.22 217.77 Q2263.23 220.432 2263.23 225.085 Q2263.23 229.738 2265.2 232.423 Q2267.19 235.085 2270.64 235.085 Q2274.04 235.085 2276.03 232.4 Q2278.03 229.715 2278.03 225.085 Q2278.03 220.478 2276.03 217.793 Q2274.04 215.085 2270.64 215.085 M2270.64 211.474 Q2276.2 211.474 2279.37 215.085 Q2282.54 218.696 2282.54 225.085 Q2282.54 231.451 2279.37 235.085 Q2276.2 238.696 2270.64 238.696 Q2265.06 238.696 2261.89 235.085 Q2258.74 231.451 2258.74 225.085 Q2258.74 218.696 2261.89 215.085 Q2265.06 211.474 2270.64 211.474 Z" fill="#000000" fill-rule="evenodd" fill-opacity="1" /><path clip-path="url(#clip180)" d="M2304.62 216.08 Q2303.91 215.664 2303.05 215.478 Q2302.22 215.27 2301.2 215.27 Q2297.59 215.27 2295.64 217.631 Q2293.72 219.969 2293.72 224.367 L2293.72 238.025 L2289.44 238.025 L2289.44 212.099 L2293.72 212.099 L2293.72 216.127 Q2295.06 213.766 2297.22 212.631 Q2299.37 211.474 2302.45 211.474 Q2302.89 211.474 2303.42 211.543 Q2303.95 211.59 2304.6 211.705 L2304.62 216.08 Z" fill="#000000" fill-rule="evenodd" fill-opacity="1" /></svg>
