<?xml version="1.0" encoding="utf-8"?>
<svg xmlns="http://www.w3.org/2000/svg" xmlns:xlink="http://www.w3.org/1999/xlink" width="600" height="400" viewBox="0 0 2400 1600">
<defs>
  <clipPath id="clip100">
    <rect x="0" y="0" width="2400" height="1600"/>
  </clipPath>
</defs>
<path clip-path="url(#clip100)" d="
M0 1600 L2400 1600 L2400 0 L0 0  Z
  " fill="#ffffff" fill-rule="evenodd" fill-opacity="1"/>
<defs>
  <clipPath id="clip101">
    <rect x="480" y="0" width="1681" height="1600"/>
  </clipPath>
</defs>
<path clip-path="url(#clip100)" d="
M186.274 1486.45 L1735.47 1486.45 L1735.47 123.472 L186.274 123.472  Z
  " fill="#ffffff" fill-rule="evenodd" fill-opacity="1"/>
<defs>
  <clipPath id="clip102">
    <rect x="186" y="123" width="1550" height="1364"/>
  </clipPath>
</defs>
<polyline clip-path="url(#clip102)" style="stroke:#000000; stroke-linecap:butt; stroke-linejoin:round; stroke-width:2; stroke-opacity:0.1; fill:none" points="
  351.911,1486.45 351.911,123.472 
  "/>
<polyline clip-path="url(#clip102)" style="stroke:#000000; stroke-linecap:butt; stroke-linejoin:round; stroke-width:2; stroke-opacity:0.1; fill:none" points="
  656.391,1486.45 656.391,123.472 
  "/>
<polyline clip-path="url(#clip102)" style="stroke:#000000; stroke-linecap:butt; stroke-linejoin:round; stroke-width:2; stroke-opacity:0.1; fill:none" points="
  960.872,1486.45 960.872,123.472 
  "/>
<polyline clip-path="url(#clip102)" style="stroke:#000000; stroke-linecap:butt; stroke-linejoin:round; stroke-width:2; stroke-opacity:0.1; fill:none" points="
  1265.35,1486.45 1265.35,123.472 
  "/>
<polyline clip-path="url(#clip102)" style="stroke:#000000; stroke-linecap:butt; stroke-linejoin:round; stroke-width:2; stroke-opacity:0.1; fill:none" points="
  1569.83,1486.45 1569.83,123.472 
  "/>
<polyline clip-path="url(#clip100)" style="stroke:#000000; stroke-linecap:butt; stroke-linejoin:round; stroke-width:4; stroke-opacity:1; fill:none" points="
  186.274,1486.45 1735.47,1486.45 
  "/>
<polyline clip-path="url(#clip100)" style="stroke:#000000; stroke-linecap:butt; stroke-linejoin:round; stroke-width:4; stroke-opacity:1; fill:none" points="
  351.911,1486.45 351.911,1467.55 
  "/>
<polyline clip-path="url(#clip100)" style="stroke:#000000; stroke-linecap:butt; stroke-linejoin:round; stroke-width:4; stroke-opacity:1; fill:none" points="
  656.391,1486.45 656.391,1467.55 
  "/>
<polyline clip-path="url(#clip100)" style="stroke:#000000; stroke-linecap:butt; stroke-linejoin:round; stroke-width:4; stroke-opacity:1; fill:none" points="
  960.872,1486.45 960.872,1467.55 
  "/>
<polyline clip-path="url(#clip100)" style="stroke:#000000; stroke-linecap:butt; stroke-linejoin:round; stroke-width:4; stroke-opacity:1; fill:none" points="
  1265.35,1486.45 1265.35,1467.55 
  "/>
<polyline clip-path="url(#clip100)" style="stroke:#000000; stroke-linecap:butt; stroke-linejoin:round; stroke-width:4; stroke-opacity:1; fill:none" points="
  1569.83,1486.45 1569.83,1467.55 
  "/>
<path clip-path="url(#clip100)" d="M298.439 1532.02 L328.115 1532.02 L328.115 1535.95 L298.439 1535.95 L298.439 1532.02 Z" fill="#000000" fill-rule="evenodd" fill-opacity="1" /><path clip-path="url(#clip100)" d="M339.018 1544.91 L346.657 1544.91 L346.657 1518.55 L338.347 1520.21 L338.347 1515.95 L346.61 1514.29 L351.286 1514.29 L351.286 1544.91 L358.925 1544.91 L358.925 1548.85 L339.018 1548.85 L339.018 1544.91 Z" fill="#000000" fill-rule="evenodd" fill-opacity="1" /><path clip-path="url(#clip100)" d="M368.369 1542.97 L373.254 1542.97 L373.254 1548.85 L368.369 1548.85 L368.369 1542.97 Z" fill="#000000" fill-rule="evenodd" fill-opacity="1" /><path clip-path="url(#clip100)" d="M393.439 1517.37 Q389.828 1517.37 387.999 1520.93 Q386.193 1524.47 386.193 1531.6 Q386.193 1538.71 387.999 1542.27 Q389.828 1545.82 393.439 1545.82 Q397.073 1545.82 398.879 1542.27 Q400.707 1538.71 400.707 1531.6 Q400.707 1524.47 398.879 1520.93 Q397.073 1517.37 393.439 1517.37 M393.439 1513.66 Q399.249 1513.66 402.304 1518.27 Q405.383 1522.85 405.383 1531.6 Q405.383 1540.33 402.304 1544.94 Q399.249 1549.52 393.439 1549.52 Q387.629 1549.52 384.55 1544.94 Q381.494 1540.33 381.494 1531.6 Q381.494 1522.85 384.55 1518.27 Q387.629 1513.66 393.439 1513.66 Z" fill="#000000" fill-rule="evenodd" fill-opacity="1" /><path clip-path="url(#clip100)" d="M603.417 1532.02 L633.093 1532.02 L633.093 1535.95 L603.417 1535.95 L603.417 1532.02 Z" fill="#000000" fill-rule="evenodd" fill-opacity="1" /><path clip-path="url(#clip100)" d="M653.185 1517.37 Q649.574 1517.37 647.746 1520.93 Q645.94 1524.47 645.94 1531.6 Q645.94 1538.71 647.746 1542.27 Q649.574 1545.82 653.185 1545.82 Q656.82 1545.82 658.625 1542.27 Q660.454 1538.71 660.454 1531.6 Q660.454 1524.47 658.625 1520.93 Q656.82 1517.37 653.185 1517.37 M653.185 1513.66 Q658.996 1513.66 662.051 1518.27 Q665.13 1522.85 665.13 1531.6 Q665.13 1540.33 662.051 1544.94 Q658.996 1549.52 653.185 1549.52 Q647.375 1549.52 644.297 1544.94 Q641.241 1540.33 641.241 1531.6 Q641.241 1522.85 644.297 1518.27 Q647.375 1513.66 653.185 1513.66 Z" fill="#000000" fill-rule="evenodd" fill-opacity="1" /><path clip-path="url(#clip100)" d="M673.347 1542.97 L678.232 1542.97 L678.232 1548.85 L673.347 1548.85 L673.347 1542.97 Z" fill="#000000" fill-rule="evenodd" fill-opacity="1" /><path clip-path="url(#clip100)" d="M688.463 1514.29 L706.819 1514.29 L706.819 1518.22 L692.745 1518.22 L692.745 1526.7 Q693.764 1526.35 694.782 1526.19 Q695.801 1526 696.819 1526 Q702.607 1526 705.986 1529.17 Q709.366 1532.34 709.366 1537.76 Q709.366 1543.34 705.894 1546.44 Q702.421 1549.52 696.102 1549.52 Q693.926 1549.52 691.657 1549.15 Q689.412 1548.78 687.005 1548.04 L687.005 1543.34 Q689.088 1544.47 691.31 1545.03 Q693.532 1545.58 696.009 1545.58 Q700.014 1545.58 702.352 1543.48 Q704.69 1541.37 704.69 1537.76 Q704.69 1534.15 702.352 1532.04 Q700.014 1529.94 696.009 1529.94 Q694.134 1529.94 692.259 1530.35 Q690.407 1530.77 688.463 1531.65 L688.463 1514.29 Z" fill="#000000" fill-rule="evenodd" fill-opacity="1" /><path clip-path="url(#clip100)" d="M938.256 1517.37 Q934.645 1517.37 932.816 1520.93 Q931.011 1524.47 931.011 1531.6 Q931.011 1538.71 932.816 1542.27 Q934.645 1545.82 938.256 1545.82 Q941.89 1545.82 943.696 1542.27 Q945.525 1538.71 945.525 1531.6 Q945.525 1524.47 943.696 1520.93 Q941.89 1517.37 938.256 1517.37 M938.256 1513.66 Q944.066 1513.66 947.122 1518.27 Q950.2 1522.85 950.2 1531.6 Q950.2 1540.33 947.122 1544.94 Q944.066 1549.52 938.256 1549.52 Q932.446 1549.52 929.367 1544.94 Q926.312 1540.33 926.312 1531.6 Q926.312 1522.85 929.367 1518.27 Q932.446 1513.66 938.256 1513.66 Z" fill="#000000" fill-rule="evenodd" fill-opacity="1" /><path clip-path="url(#clip100)" d="M958.418 1542.97 L963.302 1542.97 L963.302 1548.85 L958.418 1548.85 L958.418 1542.97 Z" fill="#000000" fill-rule="evenodd" fill-opacity="1" /><path clip-path="url(#clip100)" d="M983.487 1517.37 Q979.876 1517.37 978.048 1520.93 Q976.242 1524.47 976.242 1531.6 Q976.242 1538.71 978.048 1542.27 Q979.876 1545.82 983.487 1545.82 Q987.122 1545.82 988.927 1542.27 Q990.756 1538.71 990.756 1531.6 Q990.756 1524.47 988.927 1520.93 Q987.122 1517.37 983.487 1517.37 M983.487 1513.66 Q989.297 1513.66 992.353 1518.27 Q995.432 1522.85 995.432 1531.6 Q995.432 1540.33 992.353 1544.94 Q989.297 1549.52 983.487 1549.52 Q977.677 1549.52 974.598 1544.94 Q971.543 1540.33 971.543 1531.6 Q971.543 1522.85 974.598 1518.27 Q977.677 1513.66 983.487 1513.66 Z" fill="#000000" fill-rule="evenodd" fill-opacity="1" /><path clip-path="url(#clip100)" d="M1243.23 1517.37 Q1239.62 1517.37 1237.79 1520.93 Q1235.99 1524.47 1235.99 1531.6 Q1235.99 1538.71 1237.79 1542.27 Q1239.62 1545.82 1243.23 1545.82 Q1246.87 1545.82 1248.67 1542.27 Q1250.5 1538.71 1250.5 1531.6 Q1250.5 1524.47 1248.67 1520.93 Q1246.87 1517.37 1243.23 1517.37 M1243.23 1513.66 Q1249.04 1513.66 1252.1 1518.27 Q1255.18 1522.85 1255.18 1531.6 Q1255.18 1540.33 1252.1 1544.94 Q1249.04 1549.52 1243.23 1549.52 Q1237.42 1549.52 1234.35 1544.94 Q1231.29 1540.33 1231.29 1531.6 Q1231.29 1522.85 1234.35 1518.27 Q1237.42 1513.66 1243.23 1513.66 Z" fill="#000000" fill-rule="evenodd" fill-opacity="1" /><path clip-path="url(#clip100)" d="M1263.4 1542.97 L1268.28 1542.97 L1268.28 1548.85 L1263.4 1548.85 L1263.4 1542.97 Z" fill="#000000" fill-rule="evenodd" fill-opacity="1" /><path clip-path="url(#clip100)" d="M1278.51 1514.29 L1296.87 1514.29 L1296.87 1518.22 L1282.79 1518.22 L1282.79 1526.7 Q1283.81 1526.35 1284.83 1526.19 Q1285.85 1526 1286.87 1526 Q1292.66 1526 1296.03 1529.17 Q1299.41 1532.34 1299.41 1537.76 Q1299.41 1543.34 1295.94 1546.44 Q1292.47 1549.52 1286.15 1549.52 Q1283.97 1549.52 1281.71 1549.15 Q1279.46 1548.78 1277.05 1548.04 L1277.05 1543.34 Q1279.14 1544.47 1281.36 1545.03 Q1283.58 1545.58 1286.06 1545.58 Q1290.06 1545.58 1292.4 1543.48 Q1294.74 1541.37 1294.74 1537.76 Q1294.74 1534.15 1292.4 1532.04 Q1290.06 1529.94 1286.06 1529.94 Q1284.18 1529.94 1282.31 1530.35 Q1280.46 1530.77 1278.51 1531.65 L1278.51 1514.29 Z" fill="#000000" fill-rule="evenodd" fill-opacity="1" /><path clip-path="url(#clip100)" d="M1536.99 1544.91 L1544.62 1544.91 L1544.62 1518.55 L1536.31 1520.21 L1536.31 1515.95 L1544.58 1514.29 L1549.25 1514.29 L1549.25 1544.91 L1556.89 1544.91 L1556.89 1548.85 L1536.99 1548.85 L1536.99 1544.91 Z" fill="#000000" fill-rule="evenodd" fill-opacity="1" /><path clip-path="url(#clip100)" d="M1566.34 1542.97 L1571.22 1542.97 L1571.22 1548.85 L1566.34 1548.85 L1566.34 1542.97 Z" fill="#000000" fill-rule="evenodd" fill-opacity="1" /><path clip-path="url(#clip100)" d="M1591.41 1517.37 Q1587.8 1517.37 1585.97 1520.93 Q1584.16 1524.47 1584.16 1531.6 Q1584.16 1538.71 1585.97 1542.27 Q1587.8 1545.82 1591.41 1545.82 Q1595.04 1545.82 1596.85 1542.27 Q1598.67 1538.71 1598.67 1531.6 Q1598.67 1524.47 1596.85 1520.93 Q1595.04 1517.37 1591.41 1517.37 M1591.41 1513.66 Q1597.22 1513.66 1600.27 1518.27 Q1603.35 1522.85 1603.35 1531.6 Q1603.35 1540.33 1600.27 1544.94 Q1597.22 1549.52 1591.41 1549.52 Q1585.6 1549.52 1582.52 1544.94 Q1579.46 1540.33 1579.46 1531.6 Q1579.46 1522.85 1582.52 1518.27 Q1585.6 1513.66 1591.41 1513.66 Z" fill="#000000" fill-rule="evenodd" fill-opacity="1" /><polyline clip-path="url(#clip102)" style="stroke:#000000; stroke-linecap:butt; stroke-linejoin:round; stroke-width:2; stroke-opacity:0.1; fill:none" points="
  186.274,1447.87 1735.47,1447.87 
  "/>
<polyline clip-path="url(#clip102)" style="stroke:#000000; stroke-linecap:butt; stroke-linejoin:round; stroke-width:2; stroke-opacity:0.1; fill:none" points="
  186.274,1095.19 1735.47,1095.19 
  "/>
<polyline clip-path="url(#clip102)" style="stroke:#000000; stroke-linecap:butt; stroke-linejoin:round; stroke-width:2; stroke-opacity:0.1; fill:none" points="
  186.274,742.499 1735.47,742.499 
  "/>
<polyline clip-path="url(#clip102)" style="stroke:#000000; stroke-linecap:butt; stroke-linejoin:round; stroke-width:2; stroke-opacity:0.1; fill:none" points="
  186.274,389.812 1735.47,389.812 
  "/>
<polyline clip-path="url(#clip100)" style="stroke:#000000; stroke-linecap:butt; stroke-linejoin:round; stroke-width:4; stroke-opacity:1; fill:none" points="
  186.274,1486.45 186.274,123.472 
  "/>
<polyline clip-path="url(#clip100)" style="stroke:#000000; stroke-linecap:butt; stroke-linejoin:round; stroke-width:4; stroke-opacity:1; fill:none" points="
  186.274,1447.87 199.787,1447.87 
  "/>
<polyline clip-path="url(#clip100)" style="stroke:#000000; stroke-linecap:butt; stroke-linejoin:round; stroke-width:4; stroke-opacity:1; fill:none" points="
  186.274,1095.19 199.787,1095.19 
  "/>
<polyline clip-path="url(#clip100)" style="stroke:#000000; stroke-linecap:butt; stroke-linejoin:round; stroke-width:4; stroke-opacity:1; fill:none" points="
  186.274,742.499 199.787,742.499 
  "/>
<polyline clip-path="url(#clip100)" style="stroke:#000000; stroke-linecap:butt; stroke-linejoin:round; stroke-width:4; stroke-opacity:1; fill:none" points="
  186.274,389.812 199.787,389.812 
  "/>
<path clip-path="url(#clip100)" d="M62.9365 1433.67 Q59.3254 1433.67 57.4967 1437.24 Q55.6912 1440.78 55.6912 1447.91 Q55.6912 1455.01 57.4967 1458.58 Q59.3254 1462.12 62.9365 1462.12 Q66.5707 1462.12 68.3763 1458.58 Q70.205 1455.01 70.205 1447.91 Q70.205 1440.78 68.3763 1437.24 Q66.5707 1433.67 62.9365 1433.67 M62.9365 1429.97 Q68.7467 1429.97 71.8022 1434.57 Q74.8809 1439.16 74.8809 1447.91 Q74.8809 1456.63 71.8022 1461.24 Q68.7467 1465.82 62.9365 1465.82 Q57.1264 1465.82 54.0477 1461.24 Q50.9921 1456.63 50.9921 1447.91 Q50.9921 1439.16 54.0477 1434.57 Q57.1264 1429.97 62.9365 1429.97 Z" fill="#000000" fill-rule="evenodd" fill-opacity="1" /><path clip-path="url(#clip100)" d="M83.0984 1459.27 L87.9827 1459.27 L87.9827 1465.15 L83.0984 1465.15 L83.0984 1459.27 Z" fill="#000000" fill-rule="evenodd" fill-opacity="1" /><path clip-path="url(#clip100)" d="M108.168 1433.67 Q104.557 1433.67 102.728 1437.24 Q100.922 1440.78 100.922 1447.91 Q100.922 1455.01 102.728 1458.58 Q104.557 1462.12 108.168 1462.12 Q111.802 1462.12 113.608 1458.58 Q115.436 1455.01 115.436 1447.91 Q115.436 1440.78 113.608 1437.24 Q111.802 1433.67 108.168 1433.67 M108.168 1429.97 Q113.978 1429.97 117.033 1434.57 Q120.112 1439.16 120.112 1447.91 Q120.112 1456.63 117.033 1461.24 Q113.978 1465.82 108.168 1465.82 Q102.358 1465.82 99.2789 1461.24 Q96.2234 1456.63 96.2234 1447.91 Q96.2234 1439.16 99.2789 1434.57 Q102.358 1429.97 108.168 1429.97 Z" fill="#000000" fill-rule="evenodd" fill-opacity="1" /><path clip-path="url(#clip100)" d="M138.33 1433.67 Q134.719 1433.67 132.89 1437.24 Q131.084 1440.78 131.084 1447.91 Q131.084 1455.01 132.89 1458.58 Q134.719 1462.12 138.33 1462.12 Q141.964 1462.12 143.769 1458.58 Q145.598 1455.01 145.598 1447.91 Q145.598 1440.78 143.769 1437.24 Q141.964 1433.67 138.33 1433.67 M138.33 1429.97 Q144.14 1429.97 147.195 1434.57 Q150.274 1439.16 150.274 1447.91 Q150.274 1456.63 147.195 1461.24 Q144.14 1465.82 138.33 1465.82 Q132.519 1465.82 129.441 1461.24 Q126.385 1456.63 126.385 1447.91 Q126.385 1439.16 129.441 1434.57 Q132.519 1429.97 138.33 1429.97 Z" fill="#000000" fill-rule="evenodd" fill-opacity="1" /><path clip-path="url(#clip100)" d="M63.9319 1080.98 Q60.3208 1080.98 58.4921 1084.55 Q56.6865 1088.09 56.6865 1095.22 Q56.6865 1102.33 58.4921 1105.89 Q60.3208 1109.43 63.9319 1109.43 Q67.5661 1109.43 69.3717 1105.89 Q71.2004 1102.33 71.2004 1095.22 Q71.2004 1088.09 69.3717 1084.55 Q67.5661 1080.98 63.9319 1080.98 M63.9319 1077.28 Q69.742 1077.28 72.7976 1081.89 Q75.8763 1086.47 75.8763 1095.22 Q75.8763 1103.95 72.7976 1108.55 Q69.742 1113.14 63.9319 1113.14 Q58.1217 1113.14 55.043 1108.55 Q51.9875 1103.95 51.9875 1095.22 Q51.9875 1086.47 55.043 1081.89 Q58.1217 1077.28 63.9319 1077.28 Z" fill="#000000" fill-rule="evenodd" fill-opacity="1" /><path clip-path="url(#clip100)" d="M84.0938 1106.59 L88.978 1106.59 L88.978 1112.47 L84.0938 1112.47 L84.0938 1106.59 Z" fill="#000000" fill-rule="evenodd" fill-opacity="1" /><path clip-path="url(#clip100)" d="M109.163 1080.98 Q105.552 1080.98 103.723 1084.55 Q101.918 1088.09 101.918 1095.22 Q101.918 1102.33 103.723 1105.89 Q105.552 1109.43 109.163 1109.43 Q112.797 1109.43 114.603 1105.89 Q116.432 1102.33 116.432 1095.22 Q116.432 1088.09 114.603 1084.55 Q112.797 1080.98 109.163 1080.98 M109.163 1077.28 Q114.973 1077.28 118.029 1081.89 Q121.107 1086.47 121.107 1095.22 Q121.107 1103.95 118.029 1108.55 Q114.973 1113.14 109.163 1113.14 Q103.353 1113.14 100.274 1108.55 Q97.2187 1103.95 97.2187 1095.22 Q97.2187 1086.47 100.274 1081.89 Q103.353 1077.28 109.163 1077.28 Z" fill="#000000" fill-rule="evenodd" fill-opacity="1" /><path clip-path="url(#clip100)" d="M129.371 1077.91 L147.728 1077.91 L147.728 1081.84 L133.654 1081.84 L133.654 1090.31 Q134.672 1089.97 135.691 1089.8 Q136.709 1089.62 137.728 1089.62 Q143.515 1089.62 146.894 1092.79 Q150.274 1095.96 150.274 1101.38 Q150.274 1106.96 146.802 1110.06 Q143.33 1113.14 137.01 1113.14 Q134.834 1113.14 132.566 1112.77 Q130.32 1112.4 127.913 1111.66 L127.913 1106.96 Q129.996 1108.09 132.219 1108.65 Q134.441 1109.2 136.918 1109.2 Q140.922 1109.2 143.26 1107.1 Q145.598 1104.99 145.598 1101.38 Q145.598 1097.77 143.26 1095.66 Q140.922 1093.55 136.918 1093.55 Q135.043 1093.55 133.168 1093.97 Q131.316 1094.39 129.371 1095.27 L129.371 1077.91 Z" fill="#000000" fill-rule="evenodd" fill-opacity="1" /><path clip-path="url(#clip100)" d="M62.9365 728.298 Q59.3254 728.298 57.4967 731.863 Q55.6912 735.404 55.6912 742.534 Q55.6912 749.64 57.4967 753.205 Q59.3254 756.747 62.9365 756.747 Q66.5707 756.747 68.3763 753.205 Q70.205 749.64 70.205 742.534 Q70.205 735.404 68.3763 731.863 Q66.5707 728.298 62.9365 728.298 M62.9365 724.594 Q68.7467 724.594 71.8022 729.201 Q74.8809 733.784 74.8809 742.534 Q74.8809 751.261 71.8022 755.867 Q68.7467 760.45 62.9365 760.45 Q57.1264 760.45 54.0477 755.867 Q50.9921 751.261 50.9921 742.534 Q50.9921 733.784 54.0477 729.201 Q57.1264 724.594 62.9365 724.594 Z" fill="#000000" fill-rule="evenodd" fill-opacity="1" /><path clip-path="url(#clip100)" d="M83.0984 753.9 L87.9827 753.9 L87.9827 759.779 L83.0984 759.779 L83.0984 753.9 Z" fill="#000000" fill-rule="evenodd" fill-opacity="1" /><path clip-path="url(#clip100)" d="M98.978 755.844 L106.617 755.844 L106.617 729.478 L98.3067 731.145 L98.3067 726.886 L106.571 725.219 L111.246 725.219 L111.246 755.844 L118.885 755.844 L118.885 759.779 L98.978 759.779 L98.978 755.844 Z" fill="#000000" fill-rule="evenodd" fill-opacity="1" /><path clip-path="url(#clip100)" d="M138.33 728.298 Q134.719 728.298 132.89 731.863 Q131.084 735.404 131.084 742.534 Q131.084 749.64 132.89 753.205 Q134.719 756.747 138.33 756.747 Q141.964 756.747 143.769 753.205 Q145.598 749.64 145.598 742.534 Q145.598 735.404 143.769 731.863 Q141.964 728.298 138.33 728.298 M138.33 724.594 Q144.14 724.594 147.195 729.201 Q150.274 733.784 150.274 742.534 Q150.274 751.261 147.195 755.867 Q144.14 760.45 138.33 760.45 Q132.519 760.45 129.441 755.867 Q126.385 751.261 126.385 742.534 Q126.385 733.784 129.441 729.201 Q132.519 724.594 138.33 724.594 Z" fill="#000000" fill-rule="evenodd" fill-opacity="1" /><path clip-path="url(#clip100)" d="M63.9319 375.611 Q60.3208 375.611 58.4921 379.176 Q56.6865 382.717 56.6865 389.847 Q56.6865 396.953 58.4921 400.518 Q60.3208 404.06 63.9319 404.06 Q67.5661 404.06 69.3717 400.518 Q71.2004 396.953 71.2004 389.847 Q71.2004 382.717 69.3717 379.176 Q67.5661 375.611 63.9319 375.611 M63.9319 371.907 Q69.742 371.907 72.7976 376.514 Q75.8763 381.097 75.8763 389.847 Q75.8763 398.574 72.7976 403.18 Q69.742 407.763 63.9319 407.763 Q58.1217 407.763 55.043 403.18 Q51.9875 398.574 51.9875 389.847 Q51.9875 381.097 55.043 376.514 Q58.1217 371.907 63.9319 371.907 Z" fill="#000000" fill-rule="evenodd" fill-opacity="1" /><path clip-path="url(#clip100)" d="M84.0938 401.213 L88.978 401.213 L88.978 407.092 L84.0938 407.092 L84.0938 401.213 Z" fill="#000000" fill-rule="evenodd" fill-opacity="1" /><path clip-path="url(#clip100)" d="M99.9733 403.157 L107.612 403.157 L107.612 376.791 L99.3021 378.458 L99.3021 374.199 L107.566 372.532 L112.242 372.532 L112.242 403.157 L119.881 403.157 L119.881 407.092 L99.9733 407.092 L99.9733 403.157 Z" fill="#000000" fill-rule="evenodd" fill-opacity="1" /><path clip-path="url(#clip100)" d="M129.371 372.532 L147.728 372.532 L147.728 376.467 L133.654 376.467 L133.654 384.939 Q134.672 384.592 135.691 384.43 Q136.709 384.245 137.728 384.245 Q143.515 384.245 146.894 387.416 Q150.274 390.588 150.274 396.004 Q150.274 401.583 146.802 404.685 Q143.33 407.763 137.01 407.763 Q134.834 407.763 132.566 407.393 Q130.32 407.023 127.913 406.282 L127.913 401.583 Q129.996 402.717 132.219 403.273 Q134.441 403.828 136.918 403.828 Q140.922 403.828 143.26 401.722 Q145.598 399.615 145.598 396.004 Q145.598 392.393 143.26 390.287 Q140.922 388.18 136.918 388.18 Q135.043 388.18 133.168 388.597 Q131.316 389.014 129.371 389.893 L129.371 372.532 Z" fill="#000000" fill-rule="evenodd" fill-opacity="1" /><path clip-path="url(#clip100)" d="M335.554 12.096 L373.794 12.096 L373.794 18.9825 L343.737 18.9825 L343.737 36.8875 L372.539 36.8875 L372.539 43.7741 L343.737 43.7741 L343.737 65.6895 L374.524 65.6895 L374.524 72.576 L335.554 72.576 L335.554 12.096 Z" fill="#000000" fill-rule="evenodd" fill-opacity="1" /><path clip-path="url(#clip100)" d="M413.939 34.1734 Q412.683 33.4443 411.184 33.1202 Q409.726 32.7556 407.944 32.7556 Q401.624 32.7556 398.221 36.8875 Q394.859 40.9789 394.859 48.6757 L394.859 72.576 L387.365 72.576 L387.365 27.2059 L394.859 27.2059 L394.859 34.2544 Q397.209 30.1225 400.976 28.1376 Q404.743 26.1121 410.131 26.1121 Q410.901 26.1121 411.832 26.2337 Q412.764 26.3147 413.898 26.5172 L413.939 34.1734 Z" fill="#000000" fill-rule="evenodd" fill-opacity="1" /><path clip-path="url(#clip100)" d="M446.589 34.1734 Q445.333 33.4443 443.835 33.1202 Q442.376 32.7556 440.594 32.7556 Q434.274 32.7556 430.872 36.8875 Q427.509 40.9789 427.509 48.6757 L427.509 72.576 L420.015 72.576 L420.015 27.2059 L427.509 27.2059 L427.509 34.2544 Q429.859 30.1225 433.626 28.1376 Q437.394 26.1121 442.781 26.1121 Q443.551 26.1121 444.483 26.2337 Q445.414 26.3147 446.549 26.5172 L446.589 34.1734 Z" fill="#000000" fill-rule="evenodd" fill-opacity="1" /><path clip-path="url(#clip100)" d="M470.165 32.4315 Q464.17 32.4315 460.686 37.1306 Q457.203 41.7891 457.203 49.9314 Q457.203 58.0738 460.646 62.7728 Q464.13 67.4314 470.165 67.4314 Q476.12 67.4314 479.604 62.7323 Q483.088 58.0333 483.088 49.9314 Q483.088 41.8701 479.604 37.1711 Q476.12 32.4315 470.165 32.4315 M470.165 26.1121 Q479.888 26.1121 485.437 32.4315 Q490.987 38.7509 490.987 49.9314 Q490.987 61.0714 485.437 67.4314 Q479.888 73.7508 470.165 73.7508 Q460.403 73.7508 454.853 67.4314 Q449.344 61.0714 449.344 49.9314 Q449.344 38.7509 454.853 32.4315 Q460.403 26.1121 470.165 26.1121 Z" fill="#000000" fill-rule="evenodd" fill-opacity="1" /><path clip-path="url(#clip100)" d="M529.633 34.1734 Q528.377 33.4443 526.878 33.1202 Q525.42 32.7556 523.637 32.7556 Q517.318 32.7556 513.915 36.8875 Q510.553 40.9789 510.553 48.6757 L510.553 72.576 L503.059 72.576 L503.059 27.2059 L510.553 27.2059 L510.553 34.2544 Q512.902 30.1225 516.67 28.1376 Q520.437 26.1121 525.825 26.1121 Q526.595 26.1121 527.526 26.2337 Q528.458 26.3147 529.592 26.5172 L529.633 34.1734 Z" fill="#000000" fill-rule="evenodd" fill-opacity="1" /><path clip-path="url(#clip100)" d="M581.403 32.4315 Q575.408 32.4315 571.924 37.1306 Q568.44 41.7891 568.44 49.9314 Q568.44 58.0738 571.884 62.7728 Q575.367 67.4314 581.403 67.4314 Q587.358 67.4314 590.842 62.7323 Q594.326 58.0333 594.326 49.9314 Q594.326 41.8701 590.842 37.1711 Q587.358 32.4315 581.403 32.4315 M581.403 26.1121 Q591.125 26.1121 596.675 32.4315 Q602.225 38.7509 602.225 49.9314 Q602.225 61.0714 596.675 67.4314 Q591.125 73.7508 581.403 73.7508 Q571.641 73.7508 566.091 67.4314 Q560.582 61.0714 560.582 49.9314 Q560.582 38.7509 566.091 32.4315 Q571.641 26.1121 581.403 26.1121 Z" fill="#000000" fill-rule="evenodd" fill-opacity="1" /><path clip-path="url(#clip100)" d="M637.549 9.54393 L637.549 15.7418 L630.419 15.7418 Q626.409 15.7418 624.829 17.3622 Q623.29 18.9825 623.29 23.1955 L623.29 27.2059 L635.564 27.2059 L635.564 32.9987 L623.29 32.9987 L623.29 72.576 L615.795 72.576 L615.795 32.9987 L608.666 32.9987 L608.666 27.2059 L615.795 27.2059 L615.795 24.0462 Q615.795 16.471 619.32 13.0277 Q622.844 9.54393 630.5 9.54393 L637.549 9.54393 Z" fill="#000000" fill-rule="evenodd" fill-opacity="1" /><path clip-path="url(#clip100)" d="M672.63 65.6895 L685.998 65.6895 L685.998 19.5497 L671.455 22.4663 L671.455 15.0127 L685.917 12.096 L694.099 12.096 L694.099 65.6895 L707.467 65.6895 L707.467 72.576 L672.63 72.576 L672.63 65.6895 Z" fill="#000000" fill-rule="evenodd" fill-opacity="1" /><path clip-path="url(#clip100)" d="M741.495 17.4837 Q735.176 17.4837 731.975 23.7221 Q728.816 29.92 728.816 42.3968 Q728.816 54.833 731.975 61.0714 Q735.176 67.2693 741.495 67.2693 Q747.855 67.2693 751.015 61.0714 Q754.215 54.833 754.215 42.3968 Q754.215 29.92 751.015 23.7221 Q747.855 17.4837 741.495 17.4837 M741.495 11.0023 Q751.663 11.0023 757.01 19.0636 Q762.398 27.0843 762.398 42.3968 Q762.398 57.6687 757.01 65.73 Q751.663 73.7508 741.495 73.7508 Q731.327 73.7508 725.94 65.73 Q720.592 57.6687 720.592 42.3968 Q720.592 27.0843 725.94 19.0636 Q731.327 11.0023 741.495 11.0023 Z" fill="#000000" fill-rule="evenodd" fill-opacity="1" /><path clip-path="url(#clip100)" d="M771.958 46.5287 L793.792 46.5287 L793.792 53.1722 L771.958 53.1722 L771.958 46.5287 Z" fill="#000000" fill-rule="evenodd" fill-opacity="1" /><path clip-path="url(#clip100)" d="M832.843 17.6457 Q823.931 17.6457 818.665 24.2892 Q813.439 30.9327 813.439 42.3968 Q813.439 53.8203 818.665 60.4638 Q823.931 67.1073 832.843 67.1073 Q841.755 67.1073 846.94 60.4638 Q852.166 53.8203 852.166 42.3968 Q852.166 30.9327 846.94 24.2892 Q841.755 17.6457 832.843 17.6457 M832.843 11.0023 Q845.563 11.0023 853.178 19.5497 Q860.794 28.0566 860.794 42.3968 Q860.794 56.6965 853.178 65.2439 Q845.563 73.7508 832.843 73.7508 Q820.083 73.7508 812.426 65.2439 Q804.811 56.737 804.811 42.3968 Q804.811 28.0566 812.426 19.5497 Q820.083 11.0023 832.843 11.0023 Z" fill="#000000" fill-rule="evenodd" fill-opacity="1" /><path clip-path="url(#clip100)" d="M899.561 34.1734 Q898.305 33.4443 896.807 33.1202 Q895.348 32.7556 893.566 32.7556 Q887.247 32.7556 883.844 36.8875 Q880.482 40.9789 880.482 48.6757 L880.482 72.576 L872.987 72.576 L872.987 27.2059 L880.482 27.2059 L880.482 34.2544 Q882.831 30.1225 886.598 28.1376 Q890.366 26.1121 895.753 26.1121 Q896.523 26.1121 897.455 26.2337 Q898.387 26.3147 899.521 26.5172 L899.561 34.1734 Z" fill="#000000" fill-rule="evenodd" fill-opacity="1" /><path clip-path="url(#clip100)" d="M935.776 34.0924 L935.776 9.54393 L943.23 9.54393 L943.23 72.576 L935.776 72.576 L935.776 65.7705 Q933.427 69.8214 929.822 71.8063 Q926.257 73.7508 921.234 73.7508 Q913.01 73.7508 907.825 67.1883 Q902.68 60.6258 902.68 49.9314 Q902.68 39.2371 907.825 32.6746 Q913.01 26.1121 921.234 26.1121 Q926.257 26.1121 929.822 28.0971 Q933.427 30.0415 935.776 34.0924 M910.377 49.9314 Q910.377 58.1548 913.739 62.8538 Q917.142 67.5124 923.057 67.5124 Q928.971 67.5124 932.374 62.8538 Q935.776 58.1548 935.776 49.9314 Q935.776 41.7081 932.374 37.0496 Q928.971 32.3505 923.057 32.3505 Q917.142 32.3505 913.739 37.0496 Q910.377 41.7081 910.377 49.9314 Z" fill="#000000" fill-rule="evenodd" fill-opacity="1" /><path clip-path="url(#clip100)" d="M997.391 48.0275 L997.391 51.6733 L963.12 51.6733 Q963.606 59.3701 967.738 63.421 Q971.91 67.4314 979.324 67.4314 Q983.618 67.4314 987.628 66.3781 Q991.679 65.3249 995.649 63.2184 L995.649 70.267 Q991.638 71.9684 987.425 72.8596 Q983.212 73.7508 978.878 73.7508 Q968.022 73.7508 961.662 67.4314 Q955.342 61.1119 955.342 50.3365 Q955.342 39.1965 961.338 32.6746 Q967.373 26.1121 977.582 26.1121 Q986.737 26.1121 992.043 32.0264 Q997.391 37.9003 997.391 48.0275 M989.937 45.84 Q989.856 39.7232 986.494 36.0774 Q983.172 32.4315 977.663 32.4315 Q971.424 32.4315 967.657 35.9558 Q963.93 39.4801 963.363 45.8805 L989.937 45.84 Z" fill="#000000" fill-rule="evenodd" fill-opacity="1" /><path clip-path="url(#clip100)" d="M1035.91 34.1734 Q1034.66 33.4443 1033.16 33.1202 Q1031.7 32.7556 1029.92 32.7556 Q1023.6 32.7556 1020.2 36.8875 Q1016.83 40.9789 1016.83 48.6757 L1016.83 72.576 L1009.34 72.576 L1009.34 27.2059 L1016.83 27.2059 L1016.83 34.2544 Q1019.18 30.1225 1022.95 28.1376 Q1026.72 26.1121 1032.11 26.1121 Q1032.88 26.1121 1033.81 26.2337 Q1034.74 26.3147 1035.87 26.5172 L1035.91 34.1734 Z" fill="#000000" fill-rule="evenodd" fill-opacity="1" /><path clip-path="url(#clip100)" d="M1070.43 12.096 L1078.61 12.096 L1078.61 72.576 L1070.43 72.576 L1070.43 12.096 Z" fill="#000000" fill-rule="evenodd" fill-opacity="1" /><path clip-path="url(#clip100)" d="M1132.29 45.1919 L1132.29 72.576 L1124.83 72.576 L1124.83 45.4349 Q1124.83 38.994 1122.32 35.7938 Q1119.81 32.5936 1114.79 32.5936 Q1108.75 32.5936 1105.27 36.4419 Q1101.78 40.2903 1101.78 46.9338 L1101.78 72.576 L1094.29 72.576 L1094.29 27.2059 L1101.78 27.2059 L1101.78 34.2544 Q1104.46 30.163 1108.06 28.1376 Q1111.71 26.1121 1116.45 26.1121 Q1124.26 26.1121 1128.28 30.9732 Q1132.29 35.7938 1132.29 45.1919 Z" fill="#000000" fill-rule="evenodd" fill-opacity="1" /><path clip-path="url(#clip100)" d="M1154.53 14.324 L1154.53 27.2059 L1169.88 27.2059 L1169.88 32.9987 L1154.53 32.9987 L1154.53 57.6282 Q1154.53 63.1779 1156.02 64.7578 Q1157.56 66.3376 1162.22 66.3376 L1169.88 66.3376 L1169.88 72.576 L1162.22 72.576 Q1153.59 72.576 1150.31 69.3758 Q1147.03 66.1351 1147.03 57.6282 L1147.03 32.9987 L1141.56 32.9987 L1141.56 27.2059 L1147.03 27.2059 L1147.03 14.324 L1154.53 14.324 Z" fill="#000000" fill-rule="evenodd" fill-opacity="1" /><path clip-path="url(#clip100)" d="M1218.49 48.0275 L1218.49 51.6733 L1184.22 51.6733 Q1184.7 59.3701 1188.84 63.421 Q1193.01 67.4314 1200.42 67.4314 Q1204.72 67.4314 1208.73 66.3781 Q1212.78 65.3249 1216.75 63.2184 L1216.75 70.267 Q1212.74 71.9684 1208.52 72.8596 Q1204.31 73.7508 1199.98 73.7508 Q1189.12 73.7508 1182.76 67.4314 Q1176.44 61.1119 1176.44 50.3365 Q1176.44 39.1965 1182.44 32.6746 Q1188.47 26.1121 1198.68 26.1121 Q1207.84 26.1121 1213.14 32.0264 Q1218.49 37.9003 1218.49 48.0275 M1211.04 45.84 Q1210.95 39.7232 1207.59 36.0774 Q1204.27 32.4315 1198.76 32.4315 Q1192.52 32.4315 1188.76 35.9558 Q1185.03 39.4801 1184.46 45.8805 L1211.04 45.84 Z" fill="#000000" fill-rule="evenodd" fill-opacity="1" /><path clip-path="url(#clip100)" d="M1257.01 34.1734 Q1255.76 33.4443 1254.26 33.1202 Q1252.8 32.7556 1251.02 32.7556 Q1244.7 32.7556 1241.3 36.8875 Q1237.93 40.9789 1237.93 48.6757 L1237.93 72.576 L1230.44 72.576 L1230.44 27.2059 L1237.93 27.2059 L1237.93 34.2544 Q1240.28 30.1225 1244.05 28.1376 Q1247.82 26.1121 1253.21 26.1121 Q1253.97 26.1121 1254.91 26.2337 Q1255.84 26.3147 1256.97 26.5172 L1257.01 34.1734 Z" fill="#000000" fill-rule="evenodd" fill-opacity="1" /><path clip-path="url(#clip100)" d="M1272.04 65.7705 L1272.04 89.8329 L1264.55 89.8329 L1264.55 27.2059 L1272.04 27.2059 L1272.04 34.0924 Q1274.39 30.0415 1277.96 28.0971 Q1281.56 26.1121 1286.54 26.1121 Q1294.81 26.1121 1299.95 32.6746 Q1305.14 39.2371 1305.14 49.9314 Q1305.14 60.6258 1299.95 67.1883 Q1294.81 73.7508 1286.54 73.7508 Q1281.56 73.7508 1277.96 71.8063 Q1274.39 69.8214 1272.04 65.7705 M1297.4 49.9314 Q1297.4 41.7081 1294 37.0496 Q1290.64 32.3505 1284.72 32.3505 Q1278.81 32.3505 1275.4 37.0496 Q1272.04 41.7081 1272.04 49.9314 Q1272.04 58.1548 1275.4 62.8538 Q1278.81 67.5124 1284.72 67.5124 Q1290.64 67.5124 1294 62.8538 Q1297.4 58.1548 1297.4 49.9314 Z" fill="#000000" fill-rule="evenodd" fill-opacity="1" /><path clip-path="url(#clip100)" d="M1335.07 32.4315 Q1329.08 32.4315 1325.59 37.1306 Q1322.11 41.7891 1322.11 49.9314 Q1322.11 58.0738 1325.55 62.7728 Q1329.04 67.4314 1335.07 67.4314 Q1341.03 67.4314 1344.51 62.7323 Q1348 58.0333 1348 49.9314 Q1348 41.8701 1344.51 37.1711 Q1341.03 32.4315 1335.07 32.4315 M1335.07 26.1121 Q1344.8 26.1121 1350.35 32.4315 Q1355.9 38.7509 1355.9 49.9314 Q1355.9 61.0714 1350.35 67.4314 Q1344.8 73.7508 1335.07 73.7508 Q1325.31 73.7508 1319.76 67.4314 Q1314.25 61.0714 1314.25 49.9314 Q1314.25 38.7509 1319.76 32.4315 Q1325.31 26.1121 1335.07 26.1121 Z" fill="#000000" fill-rule="evenodd" fill-opacity="1" /><path clip-path="url(#clip100)" d="M1368.25 9.54393 L1375.7 9.54393 L1375.7 72.576 L1368.25 72.576 L1368.25 9.54393 Z" fill="#000000" fill-rule="evenodd" fill-opacity="1" /><path clip-path="url(#clip100)" d="M1411.92 49.7694 Q1402.89 49.7694 1399.4 51.8354 Q1395.92 53.9013 1395.92 58.8839 Q1395.92 62.8538 1398.51 65.2034 Q1401.14 67.5124 1405.64 67.5124 Q1411.84 67.5124 1415.57 63.1374 Q1419.33 58.7219 1419.33 51.4303 L1419.33 49.7694 L1411.92 49.7694 M1426.79 46.6907 L1426.79 72.576 L1419.33 72.576 L1419.33 65.6895 Q1416.78 69.8214 1412.97 71.8063 Q1409.17 73.7508 1403.66 73.7508 Q1396.69 73.7508 1392.56 69.8619 Q1388.46 65.9325 1388.46 59.3701 Q1388.46 51.7138 1393.57 47.825 Q1398.71 43.9361 1408.88 43.9361 L1419.33 43.9361 L1419.33 43.2069 Q1419.33 38.0623 1415.93 35.2672 Q1412.57 32.4315 1406.45 32.4315 Q1402.56 32.4315 1398.88 33.3632 Q1395.19 34.295 1391.79 36.1584 L1391.79 29.2718 Q1395.88 27.692 1399.73 26.9223 Q1403.57 26.1121 1407.22 26.1121 Q1417.06 26.1121 1421.93 31.2163 Q1426.79 36.3204 1426.79 46.6907 Z" fill="#000000" fill-rule="evenodd" fill-opacity="1" /><path clip-path="url(#clip100)" d="M1449.51 14.324 L1449.51 27.2059 L1464.86 27.2059 L1464.86 32.9987 L1449.51 32.9987 L1449.51 57.6282 Q1449.51 63.1779 1451.01 64.7578 Q1452.55 66.3376 1457.21 66.3376 L1464.86 66.3376 L1464.86 72.576 L1457.21 72.576 Q1448.58 72.576 1445.3 69.3758 Q1442.02 66.1351 1442.02 57.6282 L1442.02 32.9987 L1436.55 32.9987 L1436.55 27.2059 L1442.02 27.2059 L1442.02 14.324 L1449.51 14.324 Z" fill="#000000" fill-rule="evenodd" fill-opacity="1" /><path clip-path="url(#clip100)" d="M1474.67 27.2059 L1482.12 27.2059 L1482.12 72.576 L1474.67 72.576 L1474.67 27.2059 M1474.67 9.54393 L1482.12 9.54393 L1482.12 18.9825 L1474.67 18.9825 L1474.67 9.54393 Z" fill="#000000" fill-rule="evenodd" fill-opacity="1" /><path clip-path="url(#clip100)" d="M1515.3 32.4315 Q1509.3 32.4315 1505.82 37.1306 Q1502.34 41.7891 1502.34 49.9314 Q1502.34 58.0738 1505.78 62.7728 Q1509.26 67.4314 1515.3 67.4314 Q1521.25 67.4314 1524.74 62.7323 Q1528.22 58.0333 1528.22 49.9314 Q1528.22 41.8701 1524.74 37.1711 Q1521.25 32.4315 1515.3 32.4315 M1515.3 26.1121 Q1525.02 26.1121 1530.57 32.4315 Q1536.12 38.7509 1536.12 49.9314 Q1536.12 61.0714 1530.57 67.4314 Q1525.02 73.7508 1515.3 73.7508 Q1505.54 73.7508 1499.99 67.4314 Q1494.48 61.0714 1494.48 49.9314 Q1494.48 38.7509 1499.99 32.4315 Q1505.54 26.1121 1515.3 26.1121 Z" fill="#000000" fill-rule="evenodd" fill-opacity="1" /><path clip-path="url(#clip100)" d="M1586.19 45.1919 L1586.19 72.576 L1578.74 72.576 L1578.74 45.4349 Q1578.74 38.994 1576.22 35.7938 Q1573.71 32.5936 1568.69 32.5936 Q1562.65 32.5936 1559.17 36.4419 Q1555.69 40.2903 1555.69 46.9338 L1555.69 72.576 L1548.19 72.576 L1548.19 27.2059 L1555.69 27.2059 L1555.69 34.2544 Q1558.36 30.163 1561.97 28.1376 Q1565.61 26.1121 1570.35 26.1121 Q1578.17 26.1121 1582.18 30.9732 Q1586.19 35.7938 1586.19 45.1919 Z" fill="#000000" fill-rule="evenodd" fill-opacity="1" /><polyline clip-path="url(#clip102)" style="stroke:#009af9; stroke-linecap:butt; stroke-linejoin:round; stroke-width:4; stroke-opacity:1; fill:none" points="
  230.119,162.047 242.298,520.697 254.478,791.709 266.657,993.852 278.836,1142.39 291.015,1249.63 303.194,1325.45 315.374,1377.68 327.553,1412.49 339.732,1434.65 
  351.911,1447.87 364.09,1440.81 376.27,1437.82 388.449,1437.38 400.628,1438.4 412.807,1440.15 424.987,1442.12 437.166,1444 449.345,1445.63 461.524,1446.93 
  473.703,1447.87 485.883,1447.25 498.062,1446.9 510.241,1446.77 522.42,1446.79 534.599,1446.92 546.779,1447.12 558.958,1447.33 571.137,1447.54 583.316,1447.72 
  595.495,1447.87 607.675,1447.76 619.854,1447.69 632.033,1447.66 644.212,1447.66 656.391,1447.67 668.571,1447.71 680.75,1447.75 692.929,1447.79 705.108,1447.84 
  717.288,1447.87 729.467,1447.84 741.646,1447.83 753.825,1447.82 766.004,1447.81 778.184,1447.82 790.363,1447.83 802.542,1447.84 814.721,1447.85 826.9,1447.86 
  839.08,1447.87 851.259,1447.87 863.438,1447.86 875.617,1447.86 887.796,1447.86 899.976,1447.86 912.155,1447.86 924.334,1447.87 936.513,1447.87 948.692,1447.87 
  960.872,1447.87 973.051,1447.87 985.23,1447.87 997.409,1447.87 1009.59,1447.86 1021.77,1447.86 1033.95,1447.86 1046.13,1447.86 1058.31,1447.86 1070.48,1447.87 
  1082.66,1447.87 1094.84,1447.86 1107.02,1447.85 1119.2,1447.84 1131.38,1447.83 1143.56,1447.82 1155.74,1447.81 1167.92,1447.82 1180.1,1447.83 1192.28,1447.84 
  1204.46,1447.87 1216.64,1447.84 1228.81,1447.79 1240.99,1447.75 1253.17,1447.71 1265.35,1447.67 1277.53,1447.66 1289.71,1447.66 1301.89,1447.69 1314.07,1447.76 
  1326.25,1447.87 1338.43,1447.72 1350.61,1447.54 1362.79,1447.33 1374.96,1447.12 1387.14,1446.92 1399.32,1446.79 1411.5,1446.77 1423.68,1446.9 1435.86,1447.25 
  1448.04,1447.87 1460.22,1446.93 1472.4,1445.63 1484.58,1444 1496.76,1442.12 1508.94,1440.15 1521.12,1438.4 1533.29,1437.38 1545.47,1437.82 1557.65,1440.81 
  1569.83,1447.87 1582.01,1434.65 1594.19,1412.49 1606.37,1377.68 1618.55,1325.45 1630.73,1249.63 1642.91,1142.39 1655.09,993.852 1667.27,791.709 1679.45,520.697 
  1691.62,162.047 
  "/>
<path clip-path="url(#clip100)" d="
M1807.69 272.585 L2352.76 272.585 L2352.76 168.905 L1807.69 168.905  Z
  " fill="#ffffff" fill-rule="evenodd" fill-opacity="1"/>
<polyline clip-path="url(#clip100)" style="stroke:#000000; stroke-linecap:butt; stroke-linejoin:round; stroke-width:4; stroke-opacity:1; fill:none" points="
  1807.69,272.585 2352.76,272.585 2352.76,168.905 1807.69,168.905 1807.69,272.585 
  "/>
<polyline clip-path="url(#clip100)" style="stroke:#009af9; stroke-linecap:butt; stroke-linejoin:round; stroke-width:4; stroke-opacity:1; fill:none" points="
  1831.76,220.745 1976.19,220.745 
  "/>
<path clip-path="url(#clip100)" d="M2015.45 216.08 Q2014.73 215.664 2013.87 215.478 Q2013.04 215.27 2012.02 215.27 Q2008.41 215.27 2006.47 217.631 Q2004.54 219.969 2004.54 224.367 L2004.54 238.025 L2000.26 238.025 L2000.26 212.099 L2004.54 212.099 L2004.54 216.127 Q2005.89 213.766 2008.04 212.631 Q2010.19 211.474 2013.27 211.474 Q2013.71 211.474 2014.24 211.543 Q2014.78 211.59 2015.42 211.705 L2015.45 216.08 Z" fill="#000000" fill-rule="evenodd" fill-opacity="1" /><path clip-path="url(#clip100)" d="M2041.05 223.997 L2041.05 226.08 L2021.47 226.08 Q2021.74 230.478 2024.1 232.793 Q2026.49 235.085 2030.72 235.085 Q2033.18 235.085 2035.47 234.483 Q2037.78 233.881 2040.05 232.677 L2040.05 236.705 Q2037.76 237.677 2035.35 238.187 Q2032.95 238.696 2030.47 238.696 Q2024.27 238.696 2020.63 235.085 Q2017.02 231.474 2017.02 225.316 Q2017.02 218.951 2020.45 215.224 Q2023.9 211.474 2029.73 211.474 Q2034.96 211.474 2037.99 214.853 Q2041.05 218.21 2041.05 223.997 M2036.79 222.747 Q2036.74 219.252 2034.82 217.168 Q2032.92 215.085 2029.78 215.085 Q2026.21 215.085 2024.06 217.099 Q2021.93 219.113 2021.6 222.77 L2036.79 222.747 Z" fill="#000000" fill-rule="evenodd" fill-opacity="1" /><path clip-path="url(#clip100)" d="M2048.04 202.006 L2052.3 202.006 L2052.3 238.025 L2048.04 238.025 L2048.04 202.006 Z" fill="#000000" fill-rule="evenodd" fill-opacity="1" /><path clip-path="url(#clip100)" d="M2072.99 224.992 Q2067.83 224.992 2065.84 226.173 Q2063.85 227.353 2063.85 230.201 Q2063.85 232.469 2065.33 233.812 Q2066.84 235.131 2069.4 235.131 Q2072.95 235.131 2075.08 232.631 Q2077.23 230.108 2077.23 225.941 L2077.23 224.992 L2072.99 224.992 M2081.49 223.233 L2081.49 238.025 L2077.23 238.025 L2077.23 234.089 Q2075.77 236.451 2073.59 237.585 Q2071.42 238.696 2068.27 238.696 Q2064.29 238.696 2061.93 236.474 Q2059.59 234.228 2059.59 230.478 Q2059.59 226.103 2062.51 223.881 Q2065.45 221.659 2071.26 221.659 L2077.23 221.659 L2077.23 221.242 Q2077.23 218.303 2075.28 216.705 Q2073.36 215.085 2069.87 215.085 Q2067.65 215.085 2065.54 215.617 Q2063.43 216.15 2061.49 217.215 L2061.49 213.279 Q2063.83 212.377 2066.03 211.937 Q2068.22 211.474 2070.31 211.474 Q2075.93 211.474 2078.71 214.391 Q2081.49 217.307 2081.49 223.233 Z" fill="#000000" fill-rule="evenodd" fill-opacity="1" /><path clip-path="url(#clip100)" d="M2094.47 204.738 L2094.47 212.099 L2103.25 212.099 L2103.25 215.409 L2094.47 215.409 L2094.47 229.483 Q2094.47 232.654 2095.33 233.557 Q2096.21 234.46 2098.87 234.46 L2103.25 234.46 L2103.25 238.025 L2098.87 238.025 Q2093.94 238.025 2092.07 236.196 Q2090.19 234.344 2090.19 229.483 L2090.19 215.409 L2087.07 215.409 L2087.07 212.099 L2090.19 212.099 L2090.19 204.738 L2094.47 204.738 Z" fill="#000000" fill-rule="evenodd" fill-opacity="1" /><path clip-path="url(#clip100)" d="M2108.85 212.099 L2113.11 212.099 L2113.11 238.025 L2108.85 238.025 L2108.85 212.099 M2108.85 202.006 L2113.11 202.006 L2113.11 207.4 L2108.85 207.4 L2108.85 202.006 Z" fill="#000000" fill-rule="evenodd" fill-opacity="1" /><path clip-path="url(#clip100)" d="M2118.96 212.099 L2123.48 212.099 L2131.58 233.858 L2139.68 212.099 L2144.2 212.099 L2134.47 238.025 L2128.69 238.025 L2118.96 212.099 Z" fill="#000000" fill-rule="evenodd" fill-opacity="1" /><path clip-path="url(#clip100)" d="M2172.25 223.997 L2172.25 226.08 L2152.67 226.08 Q2152.95 230.478 2155.31 232.793 Q2157.69 235.085 2161.93 235.085 Q2164.38 235.085 2166.67 234.483 Q2168.99 233.881 2171.26 232.677 L2171.26 236.705 Q2168.96 237.677 2166.56 238.187 Q2164.15 238.696 2161.67 238.696 Q2155.47 238.696 2151.83 235.085 Q2148.22 231.474 2148.22 225.316 Q2148.22 218.951 2151.65 215.224 Q2155.1 211.474 2160.93 211.474 Q2166.16 211.474 2169.2 214.853 Q2172.25 218.21 2172.25 223.997 M2167.99 222.747 Q2167.95 219.252 2166.02 217.168 Q2164.13 215.085 2160.98 215.085 Q2157.41 215.085 2155.26 217.099 Q2153.13 219.113 2152.81 222.77 L2167.99 222.747 Z" fill="#000000" fill-rule="evenodd" fill-opacity="1" /><path clip-path="url(#clip100)" d="M2216.49 223.997 L2216.49 226.08 L2196.9 226.08 Q2197.18 230.478 2199.54 232.793 Q2201.93 235.085 2206.16 235.085 Q2208.62 235.085 2210.91 234.483 Q2213.22 233.881 2215.49 232.677 L2215.49 236.705 Q2213.2 237.677 2210.79 238.187 Q2208.39 238.696 2205.91 238.696 Q2199.71 238.696 2196.07 235.085 Q2192.46 231.474 2192.46 225.316 Q2192.46 218.951 2195.89 215.224 Q2199.33 211.474 2205.17 211.474 Q2210.4 211.474 2213.43 214.853 Q2216.49 218.21 2216.49 223.997 M2212.23 222.747 Q2212.18 219.252 2210.26 217.168 Q2208.36 215.085 2205.21 215.085 Q2201.65 215.085 2199.5 217.099 Q2197.37 219.113 2197.04 222.77 L2212.23 222.747 Z" fill="#000000" fill-rule="evenodd" fill-opacity="1" /><path clip-path="url(#clip100)" d="M2238.5 216.08 Q2237.78 215.664 2236.93 215.478 Q2236.09 215.27 2235.08 215.27 Q2231.46 215.27 2229.52 217.631 Q2227.6 219.969 2227.6 224.367 L2227.6 238.025 L2223.32 238.025 L2223.32 212.099 L2227.6 212.099 L2227.6 216.127 Q2228.94 213.766 2231.09 212.631 Q2233.25 211.474 2236.33 211.474 Q2236.77 211.474 2237.3 211.543 Q2237.83 211.59 2238.48 211.705 L2238.5 216.08 Z" fill="#000000" fill-rule="evenodd" fill-opacity="1" /><path clip-path="url(#clip100)" d="M2257.16 216.08 Q2256.44 215.664 2255.58 215.478 Q2254.75 215.27 2253.73 215.27 Q2250.12 215.27 2248.18 217.631 Q2246.26 219.969 2246.26 224.367 L2246.26 238.025 L2241.97 238.025 L2241.97 212.099 L2246.26 212.099 L2246.26 216.127 Q2247.6 213.766 2249.75 212.631 Q2251.9 211.474 2254.98 211.474 Q2255.42 211.474 2255.95 211.543 Q2256.49 211.59 2257.14 211.705 L2257.16 216.08 Z" fill="#000000" fill-rule="evenodd" fill-opacity="1" /><path clip-path="url(#clip100)" d="M2270.63 215.085 Q2267.2 215.085 2265.21 217.77 Q2263.22 220.432 2263.22 225.085 Q2263.22 229.738 2265.19 232.423 Q2267.18 235.085 2270.63 235.085 Q2274.03 235.085 2276.02 232.4 Q2278.01 229.715 2278.01 225.085 Q2278.01 220.478 2276.02 217.793 Q2274.03 215.085 2270.63 215.085 M2270.63 211.474 Q2276.19 211.474 2279.36 215.085 Q2282.53 218.696 2282.53 225.085 Q2282.53 231.451 2279.36 235.085 Q2276.19 238.696 2270.63 238.696 Q2265.05 238.696 2261.88 235.085 Q2258.73 231.451 2258.73 225.085 Q2258.73 218.696 2261.88 215.085 Q2265.05 211.474 2270.63 211.474 Z" fill="#000000" fill-rule="evenodd" fill-opacity="1" /><path clip-path="url(#clip100)" d="M2304.61 216.08 Q2303.89 215.664 2303.04 215.478 Q2302.2 215.27 2301.19 215.27 Q2297.57 215.27 2295.63 217.631 Q2293.71 219.969 2293.71 224.367 L2293.71 238.025 L2289.43 238.025 L2289.43 212.099 L2293.71 212.099 L2293.71 216.127 Q2295.05 213.766 2297.2 212.631 Q2299.36 211.474 2302.44 211.474 Q2302.88 211.474 2303.41 211.543 Q2303.94 211.59 2304.59 211.705 L2304.61 216.08 Z" fill="#000000" fill-rule="evenodd" fill-opacity="1" /></svg>
