<?xml version="1.0" encoding="utf-8"?>
<svg xmlns="http://www.w3.org/2000/svg" xmlns:xlink="http://www.w3.org/1999/xlink" width="600" height="400" viewBox="0 0 2400 1600">
<defs>
  <clipPath id="clip260">
    <rect x="0" y="0" width="2400" height="1600"/>
  </clipPath>
</defs>
<path clip-path="url(#clip260)" d="
M0 1600 L2400 1600 L2400 0 L0 0  Z
  " fill="#ffffff" fill-rule="evenodd" fill-opacity="1"/>
<defs>
  <clipPath id="clip261">
    <rect x="480" y="0" width="1681" height="1600"/>
  </clipPath>
</defs>
<path clip-path="url(#clip260)" d="
M170.857 1486.45 L1733.24 1486.45 L1733.24 123.472 L170.857 123.472  Z
  " fill="#ffffff" fill-rule="evenodd" fill-opacity="1"/>
<defs>
  <clipPath id="clip262">
    <rect x="170" y="123" width="1563" height="1364"/>
  </clipPath>
</defs>
<polyline clip-path="url(#clip262)" style="stroke:#000000; stroke-linecap:butt; stroke-linejoin:round; stroke-width:2; stroke-opacity:0.1; fill:none" points="
  385.147,1486.45 385.147,123.472 
  "/>
<polyline clip-path="url(#clip262)" style="stroke:#000000; stroke-linecap:butt; stroke-linejoin:round; stroke-width:2; stroke-opacity:0.1; fill:none" points="
  668.598,1486.45 668.598,123.472 
  "/>
<polyline clip-path="url(#clip262)" style="stroke:#000000; stroke-linecap:butt; stroke-linejoin:round; stroke-width:2; stroke-opacity:0.1; fill:none" points="
  952.05,1486.45 952.05,123.472 
  "/>
<polyline clip-path="url(#clip262)" style="stroke:#000000; stroke-linecap:butt; stroke-linejoin:round; stroke-width:2; stroke-opacity:0.1; fill:none" points="
  1235.5,1486.45 1235.5,123.472 
  "/>
<polyline clip-path="url(#clip262)" style="stroke:#000000; stroke-linecap:butt; stroke-linejoin:round; stroke-width:2; stroke-opacity:0.1; fill:none" points="
  1518.95,1486.45 1518.95,123.472 
  "/>
<polyline clip-path="url(#clip260)" style="stroke:#000000; stroke-linecap:butt; stroke-linejoin:round; stroke-width:4; stroke-opacity:1; fill:none" points="
  170.857,1486.45 1733.24,1486.45 
  "/>
<polyline clip-path="url(#clip260)" style="stroke:#000000; stroke-linecap:butt; stroke-linejoin:round; stroke-width:4; stroke-opacity:1; fill:none" points="
  385.147,1486.45 385.147,1467.55 
  "/>
<polyline clip-path="url(#clip260)" style="stroke:#000000; stroke-linecap:butt; stroke-linejoin:round; stroke-width:4; stroke-opacity:1; fill:none" points="
  668.598,1486.45 668.598,1467.55 
  "/>
<polyline clip-path="url(#clip260)" style="stroke:#000000; stroke-linecap:butt; stroke-linejoin:round; stroke-width:4; stroke-opacity:1; fill:none" points="
  952.05,1486.45 952.05,1467.55 
  "/>
<polyline clip-path="url(#clip260)" style="stroke:#000000; stroke-linecap:butt; stroke-linejoin:round; stroke-width:4; stroke-opacity:1; fill:none" points="
  1235.5,1486.45 1235.5,1467.55 
  "/>
<polyline clip-path="url(#clip260)" style="stroke:#000000; stroke-linecap:butt; stroke-linejoin:round; stroke-width:4; stroke-opacity:1; fill:none" points="
  1518.95,1486.45 1518.95,1467.55 
  "/>
<path clip-path="url(#clip260)" d="M354.047 1532.02 L383.723 1532.02 L383.723 1535.95 L354.047 1535.95 L354.047 1532.02 Z" fill="#000000" fill-rule="evenodd" fill-opacity="1" /><path clip-path="url(#clip260)" d="M406.663 1518.36 L394.857 1536.81 L406.663 1536.81 L406.663 1518.36 M405.436 1514.29 L411.316 1514.29 L411.316 1536.81 L416.246 1536.81 L416.246 1540.7 L411.316 1540.7 L411.316 1548.85 L406.663 1548.85 L406.663 1540.7 L391.061 1540.7 L391.061 1536.19 L405.436 1514.29 Z" fill="#000000" fill-rule="evenodd" fill-opacity="1" /><path clip-path="url(#clip260)" d="M638.541 1532.02 L668.216 1532.02 L668.216 1535.95 L638.541 1535.95 L638.541 1532.02 Z" fill="#000000" fill-rule="evenodd" fill-opacity="1" /><path clip-path="url(#clip260)" d="M682.337 1544.91 L698.656 1544.91 L698.656 1548.85 L676.712 1548.85 L676.712 1544.91 Q679.374 1542.16 683.957 1537.53 Q688.564 1532.88 689.744 1531.53 Q691.989 1529.01 692.869 1527.27 Q693.772 1525.51 693.772 1523.82 Q693.772 1521.07 691.827 1519.33 Q689.906 1517.6 686.804 1517.6 Q684.605 1517.6 682.152 1518.36 Q679.721 1519.13 676.943 1520.68 L676.943 1515.95 Q679.767 1514.82 682.221 1514.24 Q684.675 1513.66 686.712 1513.66 Q692.082 1513.66 695.277 1516.35 Q698.471 1519.03 698.471 1523.52 Q698.471 1525.65 697.661 1527.57 Q696.874 1529.47 694.767 1532.07 Q694.189 1532.74 691.087 1535.95 Q687.985 1539.15 682.337 1544.91 Z" fill="#000000" fill-rule="evenodd" fill-opacity="1" /><path clip-path="url(#clip260)" d="M952.05 1517.37 Q948.439 1517.37 946.61 1520.93 Q944.805 1524.47 944.805 1531.6 Q944.805 1538.71 946.61 1542.27 Q948.439 1545.82 952.05 1545.82 Q955.684 1545.82 957.49 1542.27 Q959.318 1538.71 959.318 1531.6 Q959.318 1524.47 957.49 1520.93 Q955.684 1517.37 952.05 1517.37 M952.05 1513.66 Q957.86 1513.66 960.916 1518.27 Q963.994 1522.85 963.994 1531.6 Q963.994 1540.33 960.916 1544.94 Q957.86 1549.52 952.05 1549.52 Q946.24 1549.52 943.161 1544.94 Q940.106 1540.33 940.106 1531.6 Q940.106 1522.85 943.161 1518.27 Q946.24 1513.66 952.05 1513.66 Z" fill="#000000" fill-rule="evenodd" fill-opacity="1" /><path clip-path="url(#clip260)" d="M1230.15 1544.91 L1246.47 1544.91 L1246.47 1548.85 L1224.53 1548.85 L1224.53 1544.91 Q1227.19 1542.16 1231.77 1537.53 Q1236.38 1532.88 1237.56 1531.53 Q1239.81 1529.01 1240.69 1527.27 Q1241.59 1525.51 1241.59 1523.82 Q1241.59 1521.07 1239.65 1519.33 Q1237.72 1517.6 1234.62 1517.6 Q1232.42 1517.6 1229.97 1518.36 Q1227.54 1519.13 1224.76 1520.68 L1224.76 1515.95 Q1227.58 1514.82 1230.04 1514.24 Q1232.49 1513.66 1234.53 1513.66 Q1239.9 1513.66 1243.09 1516.35 Q1246.29 1519.03 1246.29 1523.52 Q1246.29 1525.65 1245.48 1527.57 Q1244.69 1529.47 1242.58 1532.07 Q1242.01 1532.74 1238.9 1535.95 Q1235.8 1539.15 1230.15 1544.91 Z" fill="#000000" fill-rule="evenodd" fill-opacity="1" /><path clip-path="url(#clip260)" d="M1521.96 1518.36 L1510.16 1536.81 L1521.96 1536.81 L1521.96 1518.36 M1520.74 1514.29 L1526.62 1514.29 L1526.62 1536.81 L1531.55 1536.81 L1531.55 1540.7 L1526.62 1540.7 L1526.62 1548.85 L1521.96 1548.85 L1521.96 1540.7 L1506.36 1540.7 L1506.36 1536.19 L1520.74 1514.29 Z" fill="#000000" fill-rule="evenodd" fill-opacity="1" /><polyline clip-path="url(#clip262)" style="stroke:#000000; stroke-linecap:butt; stroke-linejoin:round; stroke-width:2; stroke-opacity:0.1; fill:none" points="
  170.857,1447.87 1733.24,1447.87 
  "/>
<polyline clip-path="url(#clip262)" style="stroke:#000000; stroke-linecap:butt; stroke-linejoin:round; stroke-width:2; stroke-opacity:0.1; fill:none" points="
  170.857,1207.53 1733.24,1207.53 
  "/>
<polyline clip-path="url(#clip262)" style="stroke:#000000; stroke-linecap:butt; stroke-linejoin:round; stroke-width:2; stroke-opacity:0.1; fill:none" points="
  170.857,967.183 1733.24,967.183 
  "/>
<polyline clip-path="url(#clip262)" style="stroke:#000000; stroke-linecap:butt; stroke-linejoin:round; stroke-width:2; stroke-opacity:0.1; fill:none" points="
  170.857,726.838 1733.24,726.838 
  "/>
<polyline clip-path="url(#clip262)" style="stroke:#000000; stroke-linecap:butt; stroke-linejoin:round; stroke-width:2; stroke-opacity:0.1; fill:none" points="
  170.857,486.493 1733.24,486.493 
  "/>
<polyline clip-path="url(#clip262)" style="stroke:#000000; stroke-linecap:butt; stroke-linejoin:round; stroke-width:2; stroke-opacity:0.1; fill:none" points="
  170.857,246.148 1733.24,246.148 
  "/>
<polyline clip-path="url(#clip260)" style="stroke:#000000; stroke-linecap:butt; stroke-linejoin:round; stroke-width:4; stroke-opacity:1; fill:none" points="
  170.857,1486.45 170.857,123.472 
  "/>
<polyline clip-path="url(#clip260)" style="stroke:#000000; stroke-linecap:butt; stroke-linejoin:round; stroke-width:4; stroke-opacity:1; fill:none" points="
  170.857,1447.87 184.389,1447.87 
  "/>
<polyline clip-path="url(#clip260)" style="stroke:#000000; stroke-linecap:butt; stroke-linejoin:round; stroke-width:4; stroke-opacity:1; fill:none" points="
  170.857,1207.53 184.389,1207.53 
  "/>
<polyline clip-path="url(#clip260)" style="stroke:#000000; stroke-linecap:butt; stroke-linejoin:round; stroke-width:4; stroke-opacity:1; fill:none" points="
  170.857,967.183 184.389,967.183 
  "/>
<polyline clip-path="url(#clip260)" style="stroke:#000000; stroke-linecap:butt; stroke-linejoin:round; stroke-width:4; stroke-opacity:1; fill:none" points="
  170.857,726.838 184.389,726.838 
  "/>
<polyline clip-path="url(#clip260)" style="stroke:#000000; stroke-linecap:butt; stroke-linejoin:round; stroke-width:4; stroke-opacity:1; fill:none" points="
  170.857,486.493 184.389,486.493 
  "/>
<polyline clip-path="url(#clip260)" style="stroke:#000000; stroke-linecap:butt; stroke-linejoin:round; stroke-width:4; stroke-opacity:1; fill:none" points="
  170.857,246.148 184.389,246.148 
  "/>
<path clip-path="url(#clip260)" d="M122.913 1433.67 Q119.302 1433.67 117.473 1437.24 Q115.668 1440.78 115.668 1447.91 Q115.668 1455.01 117.473 1458.58 Q119.302 1462.12 122.913 1462.12 Q126.547 1462.12 128.353 1458.58 Q130.182 1455.01 130.182 1447.91 Q130.182 1440.78 128.353 1437.24 Q126.547 1433.67 122.913 1433.67 M122.913 1429.97 Q128.723 1429.97 131.779 1434.57 Q134.857 1439.16 134.857 1447.91 Q134.857 1456.63 131.779 1461.24 Q128.723 1465.82 122.913 1465.82 Q117.103 1465.82 114.024 1461.24 Q110.969 1456.63 110.969 1447.91 Q110.969 1439.16 114.024 1434.57 Q117.103 1429.97 122.913 1429.97 Z" fill="#000000" fill-rule="evenodd" fill-opacity="1" /><path clip-path="url(#clip260)" d="M82.7975 1190.25 L101.154 1190.25 L101.154 1194.18 L87.0799 1194.18 L87.0799 1202.66 Q88.0984 1202.31 89.1169 1202.15 Q90.1354 1201.96 91.1539 1201.96 Q96.941 1201.96 100.321 1205.13 Q103.7 1208.3 103.7 1213.72 Q103.7 1219.3 100.228 1222.4 Q96.7558 1225.48 90.4364 1225.48 Q88.2604 1225.48 85.9919 1225.11 Q83.7466 1224.74 81.3392 1224 L81.3392 1219.3 Q83.4225 1220.43 85.6447 1220.99 Q87.8669 1221.54 90.3438 1221.54 Q94.3484 1221.54 96.6863 1219.44 Q99.0243 1217.33 99.0243 1213.72 Q99.0243 1210.11 96.6863 1208 Q94.3484 1205.9 90.3438 1205.9 Q88.4688 1205.9 86.5938 1206.31 Q84.7419 1206.73 82.7975 1207.61 L82.7975 1190.25 Z" fill="#000000" fill-rule="evenodd" fill-opacity="1" /><path clip-path="url(#clip260)" d="M122.913 1193.33 Q119.302 1193.33 117.473 1196.89 Q115.668 1200.43 115.668 1207.56 Q115.668 1214.67 117.473 1218.23 Q119.302 1221.78 122.913 1221.78 Q126.547 1221.78 128.353 1218.23 Q130.182 1214.67 130.182 1207.56 Q130.182 1200.43 128.353 1196.89 Q126.547 1193.33 122.913 1193.33 M122.913 1189.62 Q128.723 1189.62 131.779 1194.23 Q134.857 1198.81 134.857 1207.56 Q134.857 1216.29 131.779 1220.9 Q128.723 1225.48 122.913 1225.48 Q117.103 1225.48 114.024 1220.9 Q110.969 1216.29 110.969 1207.56 Q110.969 1198.81 114.024 1194.23 Q117.103 1189.62 122.913 1189.62 Z" fill="#000000" fill-rule="evenodd" fill-opacity="1" /><path clip-path="url(#clip260)" d="M53.3995 980.528 L61.0384 980.528 L61.0384 954.162 L52.7282 955.829 L52.7282 951.57 L60.9921 949.903 L65.668 949.903 L65.668 980.528 L73.3068 980.528 L73.3068 984.463 L53.3995 984.463 L53.3995 980.528 Z" fill="#000000" fill-rule="evenodd" fill-opacity="1" /><path clip-path="url(#clip260)" d="M92.7512 952.982 Q89.1401 952.982 87.3114 956.547 Q85.5058 960.088 85.5058 967.218 Q85.5058 974.324 87.3114 977.889 Q89.1401 981.431 92.7512 981.431 Q96.3854 981.431 98.1909 977.889 Q100.02 974.324 100.02 967.218 Q100.02 960.088 98.1909 956.547 Q96.3854 952.982 92.7512 952.982 M92.7512 949.278 Q98.5613 949.278 101.617 953.885 Q104.696 958.468 104.696 967.218 Q104.696 975.945 101.617 980.551 Q98.5613 985.134 92.7512 985.134 Q86.941 985.134 83.8623 980.551 Q80.8068 975.945 80.8068 967.218 Q80.8068 958.468 83.8623 953.885 Q86.941 949.278 92.7512 949.278 Z" fill="#000000" fill-rule="evenodd" fill-opacity="1" /><path clip-path="url(#clip260)" d="M122.913 952.982 Q119.302 952.982 117.473 956.547 Q115.668 960.088 115.668 967.218 Q115.668 974.324 117.473 977.889 Q119.302 981.431 122.913 981.431 Q126.547 981.431 128.353 977.889 Q130.182 974.324 130.182 967.218 Q130.182 960.088 128.353 956.547 Q126.547 952.982 122.913 952.982 M122.913 949.278 Q128.723 949.278 131.779 953.885 Q134.857 958.468 134.857 967.218 Q134.857 975.945 131.779 980.551 Q128.723 985.134 122.913 985.134 Q117.103 985.134 114.024 980.551 Q110.969 975.945 110.969 967.218 Q110.969 958.468 114.024 953.885 Q117.103 949.278 122.913 949.278 Z" fill="#000000" fill-rule="evenodd" fill-opacity="1" /><path clip-path="url(#clip260)" d="M53.3995 740.183 L61.0384 740.183 L61.0384 713.817 L52.7282 715.484 L52.7282 711.225 L60.9921 709.558 L65.668 709.558 L65.668 740.183 L73.3068 740.183 L73.3068 744.118 L53.3995 744.118 L53.3995 740.183 Z" fill="#000000" fill-rule="evenodd" fill-opacity="1" /><path clip-path="url(#clip260)" d="M82.7975 709.558 L101.154 709.558 L101.154 713.493 L87.0799 713.493 L87.0799 721.965 Q88.0984 721.618 89.1169 721.456 Q90.1354 721.271 91.1539 721.271 Q96.941 721.271 100.321 724.442 Q103.7 727.614 103.7 733.03 Q103.7 738.609 100.228 741.711 Q96.7558 744.789 90.4364 744.789 Q88.2604 744.789 85.9919 744.419 Q83.7466 744.049 81.3392 743.308 L81.3392 738.609 Q83.4225 739.743 85.6447 740.299 Q87.8669 740.854 90.3438 740.854 Q94.3484 740.854 96.6863 738.748 Q99.0243 736.641 99.0243 733.03 Q99.0243 729.419 96.6863 727.313 Q94.3484 725.206 90.3438 725.206 Q88.4688 725.206 86.5938 725.623 Q84.7419 726.039 82.7975 726.919 L82.7975 709.558 Z" fill="#000000" fill-rule="evenodd" fill-opacity="1" /><path clip-path="url(#clip260)" d="M122.913 712.637 Q119.302 712.637 117.473 716.202 Q115.668 719.743 115.668 726.873 Q115.668 733.979 117.473 737.544 Q119.302 741.086 122.913 741.086 Q126.547 741.086 128.353 737.544 Q130.182 733.979 130.182 726.873 Q130.182 719.743 128.353 716.202 Q126.547 712.637 122.913 712.637 M122.913 708.933 Q128.723 708.933 131.779 713.54 Q134.857 718.123 134.857 726.873 Q134.857 735.6 131.779 740.206 Q128.723 744.789 122.913 744.789 Q117.103 744.789 114.024 740.206 Q110.969 735.6 110.969 726.873 Q110.969 718.123 114.024 713.54 Q117.103 708.933 122.913 708.933 Z" fill="#000000" fill-rule="evenodd" fill-opacity="1" /><path clip-path="url(#clip260)" d="M56.6171 499.838 L72.9365 499.838 L72.9365 503.773 L50.9921 503.773 L50.9921 499.838 Q53.6541 497.083 58.2375 492.454 Q62.8439 487.801 64.0245 486.458 Q66.2698 483.935 67.1494 482.199 Q68.0522 480.44 68.0522 478.75 Q68.0522 475.995 66.1078 474.259 Q64.1865 472.523 61.0847 472.523 Q58.8856 472.523 56.4319 473.287 Q54.0014 474.051 51.2236 475.602 L51.2236 470.88 Q54.0477 469.746 56.5014 469.167 Q58.955 468.588 60.9921 468.588 Q66.3624 468.588 69.5568 471.273 Q72.7513 473.958 72.7513 478.449 Q72.7513 480.579 71.9411 482.5 Q71.1541 484.398 69.0476 486.991 Q68.4689 487.662 65.367 490.88 Q62.2652 494.074 56.6171 499.838 Z" fill="#000000" fill-rule="evenodd" fill-opacity="1" /><path clip-path="url(#clip260)" d="M92.7512 472.292 Q89.1401 472.292 87.3114 475.857 Q85.5058 479.398 85.5058 486.528 Q85.5058 493.634 87.3114 497.199 Q89.1401 500.741 92.7512 500.741 Q96.3854 500.741 98.1909 497.199 Q100.02 493.634 100.02 486.528 Q100.02 479.398 98.1909 475.857 Q96.3854 472.292 92.7512 472.292 M92.7512 468.588 Q98.5613 468.588 101.617 473.195 Q104.696 477.778 104.696 486.528 Q104.696 495.255 101.617 499.861 Q98.5613 504.444 92.7512 504.444 Q86.941 504.444 83.8623 499.861 Q80.8068 495.255 80.8068 486.528 Q80.8068 477.778 83.8623 473.195 Q86.941 468.588 92.7512 468.588 Z" fill="#000000" fill-rule="evenodd" fill-opacity="1" /><path clip-path="url(#clip260)" d="M122.913 472.292 Q119.302 472.292 117.473 475.857 Q115.668 479.398 115.668 486.528 Q115.668 493.634 117.473 497.199 Q119.302 500.741 122.913 500.741 Q126.547 500.741 128.353 497.199 Q130.182 493.634 130.182 486.528 Q130.182 479.398 128.353 475.857 Q126.547 472.292 122.913 472.292 M122.913 468.588 Q128.723 468.588 131.779 473.195 Q134.857 477.778 134.857 486.528 Q134.857 495.255 131.779 499.861 Q128.723 504.444 122.913 504.444 Q117.103 504.444 114.024 499.861 Q110.969 495.255 110.969 486.528 Q110.969 477.778 114.024 473.195 Q117.103 468.588 122.913 468.588 Z" fill="#000000" fill-rule="evenodd" fill-opacity="1" /><path clip-path="url(#clip260)" d="M56.6171 259.493 L72.9365 259.493 L72.9365 263.428 L50.9921 263.428 L50.9921 259.493 Q53.6541 256.738 58.2375 252.109 Q62.8439 247.456 64.0245 246.113 Q66.2698 243.59 67.1494 241.854 Q68.0522 240.095 68.0522 238.405 Q68.0522 235.65 66.1078 233.914 Q64.1865 232.178 61.0847 232.178 Q58.8856 232.178 56.4319 232.942 Q54.0014 233.706 51.2236 235.257 L51.2236 230.535 Q54.0477 229.401 56.5014 228.822 Q58.955 228.243 60.9921 228.243 Q66.3624 228.243 69.5568 230.928 Q72.7513 233.613 72.7513 238.104 Q72.7513 240.234 71.9411 242.155 Q71.1541 244.053 69.0476 246.646 Q68.4689 247.317 65.367 250.535 Q62.2652 253.729 56.6171 259.493 Z" fill="#000000" fill-rule="evenodd" fill-opacity="1" /><path clip-path="url(#clip260)" d="M82.7975 228.868 L101.154 228.868 L101.154 232.803 L87.0799 232.803 L87.0799 241.275 Q88.0984 240.928 89.1169 240.766 Q90.1354 240.581 91.1539 240.581 Q96.941 240.581 100.321 243.752 Q103.7 246.924 103.7 252.34 Q103.7 257.919 100.228 261.021 Q96.7558 264.099 90.4364 264.099 Q88.2604 264.099 85.9919 263.729 Q83.7466 263.359 81.3392 262.618 L81.3392 257.919 Q83.4225 259.053 85.6447 259.609 Q87.8669 260.164 90.3438 260.164 Q94.3484 260.164 96.6863 258.058 Q99.0243 255.951 99.0243 252.34 Q99.0243 248.729 96.6863 246.623 Q94.3484 244.516 90.3438 244.516 Q88.4688 244.516 86.5938 244.933 Q84.7419 245.35 82.7975 246.229 L82.7975 228.868 Z" fill="#000000" fill-rule="evenodd" fill-opacity="1" /><path clip-path="url(#clip260)" d="M122.913 231.947 Q119.302 231.947 117.473 235.512 Q115.668 239.053 115.668 246.183 Q115.668 253.289 117.473 256.854 Q119.302 260.396 122.913 260.396 Q126.547 260.396 128.353 256.854 Q130.182 253.289 130.182 246.183 Q130.182 239.053 128.353 235.512 Q126.547 231.947 122.913 231.947 M122.913 228.243 Q128.723 228.243 131.779 232.85 Q134.857 237.433 134.857 246.183 Q134.857 254.91 131.779 259.516 Q128.723 264.099 122.913 264.099 Q117.103 264.099 114.024 259.516 Q110.969 254.91 110.969 246.183 Q110.969 237.433 114.024 232.85 Q117.103 228.243 122.913 228.243 Z" fill="#000000" fill-rule="evenodd" fill-opacity="1" /><path clip-path="url(#clip260)" d="M353.124 12.096 L391.364 12.096 L391.364 18.9825 L361.307 18.9825 L361.307 36.8875 L390.109 36.8875 L390.109 43.7741 L361.307 43.7741 L361.307 65.6895 L392.094 65.6895 L392.094 72.576 L353.124 72.576 L353.124 12.096 Z" fill="#000000" fill-rule="evenodd" fill-opacity="1" /><path clip-path="url(#clip260)" d="M431.509 34.1734 Q430.253 33.4443 428.754 33.1202 Q427.296 32.7556 425.513 32.7556 Q419.194 32.7556 415.791 36.8875 Q412.429 40.9789 412.429 48.6757 L412.429 72.576 L404.935 72.576 L404.935 27.2059 L412.429 27.2059 L412.429 34.2544 Q414.779 30.1225 418.546 28.1376 Q422.313 26.1121 427.701 26.1121 Q428.471 26.1121 429.402 26.2337 Q430.334 26.3147 431.468 26.5172 L431.509 34.1734 Z" fill="#000000" fill-rule="evenodd" fill-opacity="1" /><path clip-path="url(#clip260)" d="M464.159 34.1734 Q462.903 33.4443 461.404 33.1202 Q459.946 32.7556 458.164 32.7556 Q451.844 32.7556 448.442 36.8875 Q445.079 40.9789 445.079 48.6757 L445.079 72.576 L437.585 72.576 L437.585 27.2059 L445.079 27.2059 L445.079 34.2544 Q447.429 30.1225 451.196 28.1376 Q454.964 26.1121 460.351 26.1121 Q461.121 26.1121 462.053 26.2337 Q462.984 26.3147 464.119 26.5172 L464.159 34.1734 Z" fill="#000000" fill-rule="evenodd" fill-opacity="1" /><path clip-path="url(#clip260)" d="M487.735 32.4315 Q481.74 32.4315 478.256 37.1306 Q474.772 41.7891 474.772 49.9314 Q474.772 58.0738 478.216 62.7728 Q481.7 67.4314 487.735 67.4314 Q493.69 67.4314 497.174 62.7323 Q500.658 58.0333 500.658 49.9314 Q500.658 41.8701 497.174 37.1711 Q493.69 32.4315 487.735 32.4315 M487.735 26.1121 Q497.458 26.1121 503.007 32.4315 Q508.557 38.7509 508.557 49.9314 Q508.557 61.0714 503.007 67.4314 Q497.458 73.7508 487.735 73.7508 Q477.973 73.7508 472.423 67.4314 Q466.914 61.0714 466.914 49.9314 Q466.914 38.7509 472.423 32.4315 Q477.973 26.1121 487.735 26.1121 Z" fill="#000000" fill-rule="evenodd" fill-opacity="1" /><path clip-path="url(#clip260)" d="M547.203 34.1734 Q545.947 33.4443 544.448 33.1202 Q542.99 32.7556 541.207 32.7556 Q534.888 32.7556 531.485 36.8875 Q528.123 40.9789 528.123 48.6757 L528.123 72.576 L520.629 72.576 L520.629 27.2059 L528.123 27.2059 L528.123 34.2544 Q530.472 30.1225 534.24 28.1376 Q538.007 26.1121 543.395 26.1121 Q544.164 26.1121 545.096 26.2337 Q546.028 26.3147 547.162 26.5172 L547.203 34.1734 Z" fill="#000000" fill-rule="evenodd" fill-opacity="1" /><path clip-path="url(#clip260)" d="M598.973 32.4315 Q592.978 32.4315 589.494 37.1306 Q586.01 41.7891 586.01 49.9314 Q586.01 58.0738 589.454 62.7728 Q592.937 67.4314 598.973 67.4314 Q604.928 67.4314 608.412 62.7323 Q611.896 58.0333 611.896 49.9314 Q611.896 41.8701 608.412 37.1711 Q604.928 32.4315 598.973 32.4315 M598.973 26.1121 Q608.695 26.1121 614.245 32.4315 Q619.795 38.7509 619.795 49.9314 Q619.795 61.0714 614.245 67.4314 Q608.695 73.7508 598.973 73.7508 Q589.211 73.7508 583.661 67.4314 Q578.152 61.0714 578.152 49.9314 Q578.152 38.7509 583.661 32.4315 Q589.211 26.1121 598.973 26.1121 Z" fill="#000000" fill-rule="evenodd" fill-opacity="1" /><path clip-path="url(#clip260)" d="M655.119 9.54393 L655.119 15.7418 L647.989 15.7418 Q643.979 15.7418 642.399 17.3622 Q640.86 18.9825 640.86 23.1955 L640.86 27.2059 L653.134 27.2059 L653.134 32.9987 L640.86 32.9987 L640.86 72.576 L633.365 72.576 L633.365 32.9987 L626.236 32.9987 L626.236 27.2059 L633.365 27.2059 L633.365 24.0462 Q633.365 16.471 636.89 13.0277 Q640.414 9.54393 648.07 9.54393 L655.119 9.54393 Z" fill="#000000" fill-rule="evenodd" fill-opacity="1" /><path clip-path="url(#clip260)" d="M688.863 12.096 L720.986 12.096 L720.986 18.9825 L696.357 18.9825 L696.357 33.8088 Q698.139 33.2012 699.922 32.9176 Q701.704 32.5936 703.487 32.5936 Q713.614 32.5936 719.528 38.1433 Q725.442 43.6931 725.442 53.1722 Q725.442 62.9348 719.366 68.3631 Q713.29 73.7508 702.231 73.7508 Q698.423 73.7508 694.453 73.1026 Q690.524 72.4545 686.311 71.1582 L686.311 62.9348 Q689.956 64.9198 693.845 65.892 Q697.734 66.8642 702.069 66.8642 Q709.077 66.8642 713.168 63.1779 Q717.26 59.4916 717.26 53.1722 Q717.26 46.8528 713.168 43.1664 Q709.077 39.4801 702.069 39.4801 Q698.787 39.4801 695.506 40.2093 Q692.266 40.9384 688.863 42.4778 L688.863 12.096 Z" fill="#000000" fill-rule="evenodd" fill-opacity="1" /><path clip-path="url(#clip260)" d="M736.744 46.5287 L758.579 46.5287 L758.579 53.1722 L736.744 53.1722 L736.744 46.5287 Z" fill="#000000" fill-rule="evenodd" fill-opacity="1" /><path clip-path="url(#clip260)" d="M797.63 17.6457 Q788.718 17.6457 783.451 24.2892 Q778.226 30.9327 778.226 42.3968 Q778.226 53.8203 783.451 60.4638 Q788.718 67.1073 797.63 67.1073 Q806.542 67.1073 811.727 60.4638 Q816.952 53.8203 816.952 42.3968 Q816.952 30.9327 811.727 24.2892 Q806.542 17.6457 797.63 17.6457 M797.63 11.0023 Q810.349 11.0023 817.965 19.5497 Q825.581 28.0566 825.581 42.3968 Q825.581 56.6965 817.965 65.2439 Q810.349 73.7508 797.63 73.7508 Q784.869 73.7508 777.213 65.2439 Q769.597 56.737 769.597 42.3968 Q769.597 28.0566 777.213 19.5497 Q784.869 11.0023 797.63 11.0023 Z" fill="#000000" fill-rule="evenodd" fill-opacity="1" /><path clip-path="url(#clip260)" d="M864.348 34.1734 Q863.092 33.4443 861.593 33.1202 Q860.135 32.7556 858.353 32.7556 Q852.033 32.7556 848.63 36.8875 Q845.268 40.9789 845.268 48.6757 L845.268 72.576 L837.774 72.576 L837.774 27.2059 L845.268 27.2059 L845.268 34.2544 Q847.618 30.1225 851.385 28.1376 Q855.152 26.1121 860.54 26.1121 Q861.31 26.1121 862.241 26.2337 Q863.173 26.3147 864.307 26.5172 L864.348 34.1734 Z" fill="#000000" fill-rule="evenodd" fill-opacity="1" /><path clip-path="url(#clip260)" d="M900.563 34.0924 L900.563 9.54393 L908.017 9.54393 L908.017 72.576 L900.563 72.576 L900.563 65.7705 Q898.213 69.8214 894.608 71.8063 Q891.043 73.7508 886.02 73.7508 Q877.797 73.7508 872.612 67.1883 Q867.467 60.6258 867.467 49.9314 Q867.467 39.2371 872.612 32.6746 Q877.797 26.1121 886.02 26.1121 Q891.043 26.1121 894.608 28.0971 Q898.213 30.0415 900.563 34.0924 M875.164 49.9314 Q875.164 58.1548 878.526 62.8538 Q881.929 67.5124 887.843 67.5124 Q893.757 67.5124 897.16 62.8538 Q900.563 58.1548 900.563 49.9314 Q900.563 41.7081 897.16 37.0496 Q893.757 32.3505 887.843 32.3505 Q881.929 32.3505 878.526 37.0496 Q875.164 41.7081 875.164 49.9314 Z" fill="#000000" fill-rule="evenodd" fill-opacity="1" /><path clip-path="url(#clip260)" d="M962.177 48.0275 L962.177 51.6733 L927.907 51.6733 Q928.393 59.3701 932.525 63.421 Q936.697 67.4314 944.11 67.4314 Q948.404 67.4314 952.415 66.3781 Q956.465 65.3249 960.435 63.2184 L960.435 70.267 Q956.425 71.9684 952.212 72.8596 Q947.999 73.7508 943.665 73.7508 Q932.808 73.7508 926.448 67.4314 Q920.129 61.1119 920.129 50.3365 Q920.129 39.1965 926.124 32.6746 Q932.16 26.1121 942.368 26.1121 Q951.523 26.1121 956.83 32.0264 Q962.177 37.9003 962.177 48.0275 M954.724 45.84 Q954.643 39.7232 951.28 36.0774 Q947.959 32.4315 942.449 32.4315 Q936.211 32.4315 932.444 35.9558 Q928.717 39.4801 928.15 45.8805 L954.724 45.84 Z" fill="#000000" fill-rule="evenodd" fill-opacity="1" /><path clip-path="url(#clip260)" d="M1000.7 34.1734 Q999.446 33.4443 997.947 33.1202 Q996.488 32.7556 994.706 32.7556 Q988.387 32.7556 984.984 36.8875 Q981.622 40.9789 981.622 48.6757 L981.622 72.576 L974.127 72.576 L974.127 27.2059 L981.622 27.2059 L981.622 34.2544 Q983.971 30.1225 987.738 28.1376 Q991.506 26.1121 996.894 26.1121 Q997.663 26.1121 998.595 26.2337 Q999.527 26.3147 1000.66 26.5172 L1000.7 34.1734 Z" fill="#000000" fill-rule="evenodd" fill-opacity="1" /><path clip-path="url(#clip260)" d="M1035.22 12.096 L1043.4 12.096 L1043.4 72.576 L1035.22 72.576 L1035.22 12.096 Z" fill="#000000" fill-rule="evenodd" fill-opacity="1" /><path clip-path="url(#clip260)" d="M1097.07 45.1919 L1097.07 72.576 L1089.62 72.576 L1089.62 45.4349 Q1089.62 38.994 1087.11 35.7938 Q1084.6 32.5936 1079.57 32.5936 Q1073.54 32.5936 1070.05 36.4419 Q1066.57 40.2903 1066.57 46.9338 L1066.57 72.576 L1059.07 72.576 L1059.07 27.2059 L1066.57 27.2059 L1066.57 34.2544 Q1069.24 30.163 1072.85 28.1376 Q1076.49 26.1121 1081.23 26.1121 Q1089.05 26.1121 1093.06 30.9732 Q1097.07 35.7938 1097.07 45.1919 Z" fill="#000000" fill-rule="evenodd" fill-opacity="1" /><path clip-path="url(#clip260)" d="M1119.31 14.324 L1119.31 27.2059 L1134.66 27.2059 L1134.66 32.9987 L1119.31 32.9987 L1119.31 57.6282 Q1119.31 63.1779 1120.81 64.7578 Q1122.35 66.3376 1127.01 66.3376 L1134.66 66.3376 L1134.66 72.576 L1127.01 72.576 Q1118.38 72.576 1115.1 69.3758 Q1111.82 66.1351 1111.82 57.6282 L1111.82 32.9987 L1106.35 32.9987 L1106.35 27.2059 L1111.82 27.2059 L1111.82 14.324 L1119.31 14.324 Z" fill="#000000" fill-rule="evenodd" fill-opacity="1" /><path clip-path="url(#clip260)" d="M1183.28 48.0275 L1183.28 51.6733 L1149 51.6733 Q1149.49 59.3701 1153.62 63.421 Q1157.8 67.4314 1165.21 67.4314 Q1169.5 67.4314 1173.51 66.3781 Q1177.56 65.3249 1181.53 63.2184 L1181.53 70.267 Q1177.52 71.9684 1173.31 72.8596 Q1169.1 73.7508 1164.76 73.7508 Q1153.91 73.7508 1147.55 67.4314 Q1141.23 61.1119 1141.23 50.3365 Q1141.23 39.1965 1147.22 32.6746 Q1153.26 26.1121 1163.47 26.1121 Q1172.62 26.1121 1177.93 32.0264 Q1183.28 37.9003 1183.28 48.0275 M1175.82 45.84 Q1175.74 39.7232 1172.38 36.0774 Q1169.06 32.4315 1163.55 32.4315 Q1157.31 32.4315 1153.54 35.9558 Q1149.82 39.4801 1149.25 45.8805 L1175.82 45.84 Z" fill="#000000" fill-rule="evenodd" fill-opacity="1" /><path clip-path="url(#clip260)" d="M1221.8 34.1734 Q1220.54 33.4443 1219.05 33.1202 Q1217.59 32.7556 1215.8 32.7556 Q1209.48 32.7556 1206.08 36.8875 Q1202.72 40.9789 1202.72 48.6757 L1202.72 72.576 L1195.23 72.576 L1195.23 27.2059 L1202.72 27.2059 L1202.72 34.2544 Q1205.07 30.1225 1208.84 28.1376 Q1212.6 26.1121 1217.99 26.1121 Q1218.76 26.1121 1219.69 26.2337 Q1220.62 26.3147 1221.76 26.5172 L1221.8 34.1734 Z" fill="#000000" fill-rule="evenodd" fill-opacity="1" /><path clip-path="url(#clip260)" d="M1236.83 65.7705 L1236.83 89.8329 L1229.33 89.8329 L1229.33 27.2059 L1236.83 27.2059 L1236.83 34.0924 Q1239.18 30.0415 1242.74 28.0971 Q1246.35 26.1121 1251.33 26.1121 Q1259.59 26.1121 1264.74 32.6746 Q1269.92 39.2371 1269.92 49.9314 Q1269.92 60.6258 1264.74 67.1883 Q1259.59 73.7508 1251.33 73.7508 Q1246.35 73.7508 1242.74 71.8063 Q1239.18 69.8214 1236.83 65.7705 M1262.19 49.9314 Q1262.19 41.7081 1258.78 37.0496 Q1255.42 32.3505 1249.51 32.3505 Q1243.59 32.3505 1240.19 37.0496 Q1236.83 41.7081 1236.83 49.9314 Q1236.83 58.1548 1240.19 62.8538 Q1243.59 67.5124 1249.51 67.5124 Q1255.42 67.5124 1258.78 62.8538 Q1262.19 58.1548 1262.19 49.9314 Z" fill="#000000" fill-rule="evenodd" fill-opacity="1" /><path clip-path="url(#clip260)" d="M1299.86 32.4315 Q1293.87 32.4315 1290.38 37.1306 Q1286.9 41.7891 1286.9 49.9314 Q1286.9 58.0738 1290.34 62.7728 Q1293.82 67.4314 1299.86 67.4314 Q1305.82 67.4314 1309.3 62.7323 Q1312.78 58.0333 1312.78 49.9314 Q1312.78 41.8701 1309.3 37.1711 Q1305.82 32.4315 1299.86 32.4315 M1299.86 26.1121 Q1309.58 26.1121 1315.13 32.4315 Q1320.68 38.7509 1320.68 49.9314 Q1320.68 61.0714 1315.13 67.4314 Q1309.58 73.7508 1299.86 73.7508 Q1290.1 73.7508 1284.55 67.4314 Q1279.04 61.0714 1279.04 49.9314 Q1279.04 38.7509 1284.55 32.4315 Q1290.1 26.1121 1299.86 26.1121 Z" fill="#000000" fill-rule="evenodd" fill-opacity="1" /><path clip-path="url(#clip260)" d="M1333.04 9.54393 L1340.49 9.54393 L1340.49 72.576 L1333.04 72.576 L1333.04 9.54393 Z" fill="#000000" fill-rule="evenodd" fill-opacity="1" /><path clip-path="url(#clip260)" d="M1376.71 49.7694 Q1367.67 49.7694 1364.19 51.8354 Q1360.71 53.9013 1360.71 58.8839 Q1360.71 62.8538 1363.3 65.2034 Q1365.93 67.5124 1370.43 67.5124 Q1376.63 67.5124 1380.35 63.1374 Q1384.12 58.7219 1384.12 51.4303 L1384.12 49.7694 L1376.71 49.7694 M1391.57 46.6907 L1391.57 72.576 L1384.12 72.576 L1384.12 65.6895 Q1381.57 69.8214 1377.76 71.8063 Q1373.95 73.7508 1368.44 73.7508 Q1361.47 73.7508 1357.34 69.8619 Q1353.25 65.9325 1353.25 59.3701 Q1353.25 51.7138 1358.36 47.825 Q1363.5 43.9361 1373.67 43.9361 L1384.12 43.9361 L1384.12 43.2069 Q1384.12 38.0623 1380.72 35.2672 Q1377.35 32.4315 1371.24 32.4315 Q1367.35 32.4315 1363.66 33.3632 Q1359.98 34.295 1356.57 36.1584 L1356.57 29.2718 Q1360.66 27.692 1364.51 26.9223 Q1368.36 26.1121 1372.01 26.1121 Q1381.85 26.1121 1386.71 31.2163 Q1391.57 36.3204 1391.57 46.6907 Z" fill="#000000" fill-rule="evenodd" fill-opacity="1" /><path clip-path="url(#clip260)" d="M1414.3 14.324 L1414.3 27.2059 L1429.65 27.2059 L1429.65 32.9987 L1414.3 32.9987 L1414.3 57.6282 Q1414.3 63.1779 1415.8 64.7578 Q1417.34 66.3376 1422 66.3376 L1429.65 66.3376 L1429.65 72.576 L1422 72.576 Q1413.37 72.576 1410.09 69.3758 Q1406.8 66.1351 1406.8 57.6282 L1406.8 32.9987 L1401.34 32.9987 L1401.34 27.2059 L1406.8 27.2059 L1406.8 14.324 L1414.3 14.324 Z" fill="#000000" fill-rule="evenodd" fill-opacity="1" /><path clip-path="url(#clip260)" d="M1439.45 27.2059 L1446.91 27.2059 L1446.91 72.576 L1439.45 72.576 L1439.45 27.2059 M1439.45 9.54393 L1446.91 9.54393 L1446.91 18.9825 L1439.45 18.9825 L1439.45 9.54393 Z" fill="#000000" fill-rule="evenodd" fill-opacity="1" /><path clip-path="url(#clip260)" d="M1480.09 32.4315 Q1474.09 32.4315 1470.61 37.1306 Q1467.12 41.7891 1467.12 49.9314 Q1467.12 58.0738 1470.57 62.7728 Q1474.05 67.4314 1480.09 67.4314 Q1486.04 67.4314 1489.52 62.7323 Q1493.01 58.0333 1493.01 49.9314 Q1493.01 41.8701 1489.52 37.1711 Q1486.04 32.4315 1480.09 32.4315 M1480.09 26.1121 Q1489.81 26.1121 1495.36 32.4315 Q1500.91 38.7509 1500.91 49.9314 Q1500.91 61.0714 1495.36 67.4314 Q1489.81 73.7508 1480.09 73.7508 Q1470.32 73.7508 1464.77 67.4314 Q1459.26 61.0714 1459.26 49.9314 Q1459.26 38.7509 1464.77 32.4315 Q1470.32 26.1121 1480.09 26.1121 Z" fill="#000000" fill-rule="evenodd" fill-opacity="1" /><path clip-path="url(#clip260)" d="M1550.98 45.1919 L1550.98 72.576 L1543.52 72.576 L1543.52 45.4349 Q1543.52 38.994 1541.01 35.7938 Q1538.5 32.5936 1533.48 32.5936 Q1527.44 32.5936 1523.96 36.4419 Q1520.47 40.2903 1520.47 46.9338 L1520.47 72.576 L1512.98 72.576 L1512.98 27.2059 L1520.47 27.2059 L1520.47 34.2544 Q1523.15 30.163 1526.75 28.1376 Q1530.4 26.1121 1535.14 26.1121 Q1542.96 26.1121 1546.97 30.9732 Q1550.98 35.7938 1550.98 45.1919 Z" fill="#000000" fill-rule="evenodd" fill-opacity="1" /><polyline clip-path="url(#clip262)" style="stroke:#009af9; stroke-linecap:butt; stroke-linejoin:round; stroke-width:4; stroke-opacity:1; fill:none" points="
  215.076,162.047 217.91,335.947 220.745,498.319 223.579,649.751 226.414,790.808 229.248,922.03 232.083,1043.93 234.917,1157.01 237.752,1261.73 240.587,1358.54 
  243.421,1447.87 246.256,1365.61 249.09,1290.02 251.925,1220.74 254.759,1157.41 257.594,1099.69 260.428,1047.25 263.263,999.8 266.097,957.033 268.932,918.672 
  271.766,884.452 274.601,854.119 277.435,827.433 280.27,804.164 283.104,784.095 285.939,767.017 288.773,752.736 291.608,741.063 294.442,731.821 297.277,724.842 
  300.111,719.966 302.946,717.042 305.78,715.926 308.615,716.482 311.449,718.581 314.284,722.102 317.118,726.929 319.953,732.954 322.787,740.073 325.622,748.19 
  328.457,757.212 331.291,767.054 334.126,777.634 336.96,788.875 339.795,800.704 342.629,813.055 345.464,825.864 348.298,839.07 351.133,852.618 353.967,866.455 
  356.802,880.532 359.636,894.803 362.471,909.225 365.305,923.758 368.14,938.365 370.974,953.012 373.809,967.666 376.643,982.298 379.478,996.879 382.312,1011.39 
  385.147,1025.79 387.981,1040.08 390.816,1054.23 393.65,1068.22 396.485,1082.03 399.319,1095.66 402.154,1109.08 404.988,1122.29 407.823,1135.27 410.657,1148.02 
  413.492,1160.52 416.326,1172.78 419.161,1184.77 421.996,1196.51 424.83,1207.97 427.665,1219.16 430.499,1230.08 433.334,1240.73 436.168,1251.09 439.003,1261.18 
  441.837,1270.98 444.672,1280.51 447.506,1289.75 450.341,1298.72 453.175,1307.42 456.01,1315.83 458.844,1323.98 461.679,1331.86 464.513,1339.47 467.348,1346.81 
  470.182,1353.9 473.017,1360.73 475.851,1367.31 478.686,1373.64 481.52,1379.73 484.355,1385.58 487.189,1391.19 490.024,1396.58 492.858,1401.73 495.693,1406.67 
  498.527,1411.39 501.362,1415.91 504.196,1420.21 507.031,1424.32 509.866,1428.23 512.7,1431.95 515.535,1435.48 518.369,1438.84 521.204,1442.02 524.038,1445.03 
  526.873,1447.87 529.707,1445.19 532.542,1442.66 535.376,1440.28 538.211,1438.04 541.045,1435.95 543.88,1433.99 546.714,1432.17 549.549,1430.47 552.383,1428.89 
  555.218,1427.43 558.052,1426.08 560.887,1424.84 563.721,1423.71 566.556,1422.67 569.39,1421.74 572.225,1420.89 575.059,1420.14 577.894,1419.47 580.728,1418.88 
  583.563,1418.37 586.397,1417.93 589.232,1417.57 592.066,1417.27 594.901,1417.03 597.736,1416.86 600.57,1416.75 603.405,1416.69 606.239,1416.68 609.074,1416.72 
  611.908,1416.81 614.743,1416.94 617.577,1417.11 620.412,1417.33 623.246,1417.57 626.081,1417.86 628.915,1418.17 631.75,1418.52 634.584,1418.89 637.419,1419.29 
  640.253,1419.71 643.088,1420.15 645.922,1420.61 648.757,1421.1 651.591,1421.6 654.426,1422.11 657.26,1422.64 660.095,1423.17 662.929,1423.72 665.764,1424.28 
  668.598,1424.85 671.433,1425.42 674.267,1426 677.102,1426.59 679.936,1427.18 682.771,1427.77 685.606,1428.36 688.44,1428.95 691.275,1429.54 694.109,1430.13 
  696.944,1430.72 699.778,1431.3 702.613,1431.89 705.447,1432.47 708.282,1433.04 711.116,1433.61 713.951,1434.17 716.785,1434.73 719.62,1435.28 722.454,1435.82 
  725.289,1436.35 728.123,1436.88 730.958,1437.4 733.792,1437.91 736.627,1438.41 739.461,1438.9 742.296,1439.38 745.13,1439.86 747.965,1440.32 750.799,1440.77 
  753.634,1441.22 756.468,1441.65 759.303,1442.07 762.137,1442.48 764.972,1442.88 767.806,1443.27 770.641,1443.65 773.475,1444.02 776.31,1444.38 779.145,1444.73 
  781.979,1445.07 784.814,1445.4 787.648,1445.71 790.483,1446.02 793.317,1446.31 796.152,1446.6 798.986,1446.87 801.821,1447.14 804.655,1447.39 807.49,1447.64 
  810.324,1447.87 813.159,1447.65 815.993,1447.43 818.828,1447.23 821.662,1447.03 824.497,1446.84 827.331,1446.66 830.166,1446.49 833,1446.33 835.835,1446.18 
  838.669,1446.03 841.504,1445.9 844.338,1445.77 847.173,1445.65 850.007,1445.53 852.842,1445.43 855.676,1445.33 858.511,1445.24 861.345,1445.16 864.18,1445.08 
  867.015,1445.01 869.849,1444.94 872.684,1444.88 875.518,1444.83 878.353,1444.79 881.187,1444.74 884.022,1444.71 886.856,1444.68 889.691,1444.65 892.525,1444.63 
  895.36,1444.62 898.194,1444.61 901.029,1444.6 903.863,1444.6 906.698,1444.6 909.532,1444.61 912.367,1444.62 915.201,1444.63 918.036,1444.65 920.87,1444.67 
  923.705,1444.7 926.539,1444.72 929.374,1444.75 932.208,1444.79 935.043,1444.82 937.877,1444.86 940.712,1444.9 943.546,1444.94 946.381,1444.98 949.215,1445.03 
  952.05,1445.08 954.885,1445.13 957.719,1445.18 960.554,1445.23 963.388,1445.29 966.223,1445.34 969.057,1445.4 971.892,1445.46 974.726,1445.51 977.561,1445.57 
  980.395,1445.63 983.23,1445.7 986.064,1445.76 988.899,1445.82 991.733,1445.88 994.568,1445.94 997.402,1446.01 1000.24,1446.07 1003.07,1446.13 1005.91,1446.19 
  1008.74,1446.26 1011.57,1446.32 1014.41,1446.38 1017.24,1446.44 1020.08,1446.51 1022.91,1446.57 1025.75,1446.63 1028.58,1446.69 1031.42,1446.75 1034.25,1446.81 
  1037.09,1446.87 1039.92,1446.93 1042.75,1446.99 1045.59,1447.04 1048.42,1447.1 1051.26,1447.15 1054.09,1447.21 1056.93,1447.26 1059.76,1447.32 1062.6,1447.37 
  1065.43,1447.42 1068.27,1447.47 1071.1,1447.52 1073.93,1447.57 1076.77,1447.61 1079.6,1447.66 1082.44,1447.7 1085.27,1447.75 1088.11,1447.79 1090.94,1447.83 
  1093.78,1447.87 1096.61,1447.83 1099.44,1447.8 1102.28,1447.76 1105.11,1447.72 1107.95,1447.69 1110.78,1447.65 1113.62,1447.62 1116.45,1447.59 1119.29,1447.56 
  1122.12,1447.53 1124.96,1447.5 1127.79,1447.47 1130.62,1447.45 1133.46,1447.42 1136.29,1447.4 1139.13,1447.38 1141.96,1447.36 1144.8,1447.33 1147.63,1447.32 
  1150.47,1447.3 1153.3,1447.28 1156.14,1447.26 1158.97,1447.25 1161.8,1447.23 1164.64,1447.22 1167.47,1447.21 1170.31,1447.2 1173.14,1447.19 1175.98,1447.18 
  1178.81,1447.17 1181.65,1447.16 1184.48,1447.16 1187.31,1447.15 1190.15,1447.15 1192.98,1447.14 1195.82,1447.14 1198.65,1447.14 1201.49,1447.13 1204.32,1447.13 
  1207.16,1447.13 1209.99,1447.14 1212.83,1447.14 1215.66,1447.14 1218.49,1447.14 1221.33,1447.15 1224.16,1447.15 1227,1447.15 1229.83,1447.16 1232.67,1447.17 
  1235.5,1447.17 1238.34,1447.18 1241.17,1447.19 1244.01,1447.2 1246.84,1447.21 1249.67,1447.22 1252.51,1447.22 1255.34,1447.24 1258.18,1447.25 1261.01,1447.26 
  1263.85,1447.27 1266.68,1447.28 1269.52,1447.29 1272.35,1447.31 1275.18,1447.32 1278.02,1447.33 1280.85,1447.35 1283.69,1447.36 1286.52,1447.37 1289.36,1447.39 
  1292.19,1447.4 1295.03,1447.42 1297.86,1447.43 1300.7,1447.45 1303.53,1447.46 1306.36,1447.48 1309.2,1447.49 1312.03,1447.51 1314.87,1447.53 1317.7,1447.54 
  1320.54,1447.56 1323.37,1447.57 1326.21,1447.59 1329.04,1447.61 1331.88,1447.62 1334.71,1447.64 1337.54,1447.65 1340.38,1447.67 1343.21,1447.69 1346.05,1447.7 
  1348.88,1447.72 1351.72,1447.73 1354.55,1447.75 1357.39,1447.77 1360.22,1447.78 1363.05,1447.8 1365.89,1447.81 1368.72,1447.83 1371.56,1447.84 1374.39,1447.86 
  1377.23,1447.87 1380.06,1447.86 1382.9,1447.84 1385.73,1447.83 1388.57,1447.82 1391.4,1447.8 1394.23,1447.79 1397.07,1447.77 1399.9,1447.76 1402.74,1447.75 
  1405.57,1447.73 1408.41,1447.72 1411.24,1447.71 1414.08,1447.7 1416.91,1447.69 1419.75,1447.67 1422.58,1447.66 1425.41,1447.65 1428.25,1447.64 1431.08,1447.63 
  1433.92,1447.62 1436.75,1447.61 1439.59,1447.6 1442.42,1447.59 1445.26,1447.58 1448.09,1447.57 1450.92,1447.57 1453.76,1447.56 1456.59,1447.55 1459.43,1447.54 
  1462.26,1447.54 1465.1,1447.53 1467.93,1447.52 1470.77,1447.52 1473.6,1447.51 1476.44,1447.51 1479.27,1447.5 1482.1,1447.5 1484.94,1447.49 1487.77,1447.49 
  1490.61,1447.49 1493.44,1447.48 1496.28,1447.48 1499.11,1447.48 1501.95,1447.48 1504.78,1447.47 1507.62,1447.47 1510.45,1447.47 1513.28,1447.47 1516.12,1447.47 
  1518.95,1447.47 1521.79,1447.47 1524.62,1447.47 1527.46,1447.47 1530.29,1447.47 1533.13,1447.47 1535.96,1447.48 1538.79,1447.48 1541.63,1447.48 1544.46,1447.48 
  1547.3,1447.49 1550.13,1447.49 1552.97,1447.5 1555.8,1447.5 1558.64,1447.51 1561.47,1447.51 1564.31,1447.52 1567.14,1447.52 1569.97,1447.53 1572.81,1447.53 
  1575.64,1447.54 1578.48,1447.55 1581.31,1447.55 1584.15,1447.56 1586.98,1447.57 1589.82,1447.58 1592.65,1447.59 1595.49,1447.6 1598.32,1447.6 1601.15,1447.61 
  1603.99,1447.62 1606.82,1447.63 1609.66,1447.64 1612.49,1447.65 1615.33,1447.67 1618.16,1447.68 1621,1447.69 1623.83,1447.7 1626.66,1447.71 1629.5,1447.72 
  1632.33,1447.74 1635.17,1447.75 1638,1447.76 1640.84,1447.77 1643.67,1447.79 1646.51,1447.8 1649.34,1447.82 1652.18,1447.83 1655.01,1447.84 1657.84,1447.86 
  1660.68,1447.87 1663.51,1447.86 1666.35,1447.84 1669.18,1447.83 1672.02,1447.81 1674.85,1447.8 1677.69,1447.78 1680.52,1447.76 1683.36,1447.75 1686.19,1447.73 
  1689.02,1447.71 
  "/>
<path clip-path="url(#clip260)" d="
M1805.97 272.585 L2352.76 272.585 L2352.76 168.905 L1805.97 168.905  Z
  " fill="#ffffff" fill-rule="evenodd" fill-opacity="1"/>
<polyline clip-path="url(#clip260)" style="stroke:#000000; stroke-linecap:butt; stroke-linejoin:round; stroke-width:4; stroke-opacity:1; fill:none" points="
  1805.97,272.585 2352.76,272.585 2352.76,168.905 1805.97,168.905 1805.97,272.585 
  "/>
<polyline clip-path="url(#clip260)" style="stroke:#009af9; stroke-linecap:butt; stroke-linejoin:round; stroke-width:4; stroke-opacity:1; fill:none" points="
  1830.22,220.745 1975.68,220.745 
  "/>
<path clip-path="url(#clip260)" d="M2015.1 216.08 Q2014.39 215.664 2013.53 215.478 Q2012.7 215.27 2011.68 215.27 Q2008.07 215.27 2006.12 217.631 Q2004.2 219.969 2004.2 224.367 L2004.2 238.025 L1999.92 238.025 L1999.92 212.099 L2004.2 212.099 L2004.2 216.127 Q2005.54 213.766 2007.7 212.631 Q2009.85 211.474 2012.93 211.474 Q2013.37 211.474 2013.9 211.543 Q2014.43 211.59 2015.08 211.705 L2015.1 216.08 Z" fill="#000000" fill-rule="evenodd" fill-opacity="1" /><path clip-path="url(#clip260)" d="M2040.71 223.997 L2040.71 226.08 L2021.12 226.08 Q2021.4 230.478 2023.76 232.793 Q2026.15 235.085 2030.38 235.085 Q2032.84 235.085 2035.13 234.483 Q2037.44 233.881 2039.71 232.677 L2039.71 236.705 Q2037.42 237.677 2035.01 238.187 Q2032.6 238.696 2030.13 238.696 Q2023.92 238.696 2020.29 235.085 Q2016.68 231.474 2016.68 225.316 Q2016.68 218.951 2020.1 215.224 Q2023.55 211.474 2029.39 211.474 Q2034.62 211.474 2037.65 214.853 Q2040.71 218.21 2040.71 223.997 M2036.45 222.747 Q2036.4 219.252 2034.48 217.168 Q2032.58 215.085 2029.43 215.085 Q2025.87 215.085 2023.72 217.099 Q2021.59 219.113 2021.26 222.77 L2036.45 222.747 Z" fill="#000000" fill-rule="evenodd" fill-opacity="1" /><path clip-path="url(#clip260)" d="M2047.7 202.006 L2051.96 202.006 L2051.96 238.025 L2047.7 238.025 L2047.7 202.006 Z" fill="#000000" fill-rule="evenodd" fill-opacity="1" /><path clip-path="url(#clip260)" d="M2072.65 224.992 Q2067.49 224.992 2065.5 226.173 Q2063.51 227.353 2063.51 230.201 Q2063.51 232.469 2064.99 233.812 Q2066.49 235.131 2069.06 235.131 Q2072.6 235.131 2074.73 232.631 Q2076.89 230.108 2076.89 225.941 L2076.89 224.992 L2072.65 224.992 M2081.15 223.233 L2081.15 238.025 L2076.89 238.025 L2076.89 234.089 Q2075.43 236.451 2073.25 237.585 Q2071.08 238.696 2067.93 238.696 Q2063.95 238.696 2061.59 236.474 Q2059.25 234.228 2059.25 230.478 Q2059.25 226.103 2062.16 223.881 Q2065.1 221.659 2070.91 221.659 L2076.89 221.659 L2076.89 221.242 Q2076.89 218.303 2074.94 216.705 Q2073.02 215.085 2069.53 215.085 Q2067.3 215.085 2065.2 215.617 Q2063.09 216.15 2061.15 217.215 L2061.15 213.279 Q2063.48 212.377 2065.68 211.937 Q2067.88 211.474 2069.96 211.474 Q2075.59 211.474 2078.37 214.391 Q2081.15 217.307 2081.15 223.233 Z" fill="#000000" fill-rule="evenodd" fill-opacity="1" /><path clip-path="url(#clip260)" d="M2094.13 204.738 L2094.13 212.099 L2102.9 212.099 L2102.9 215.409 L2094.13 215.409 L2094.13 229.483 Q2094.13 232.654 2094.99 233.557 Q2095.87 234.46 2098.53 234.46 L2102.9 234.46 L2102.9 238.025 L2098.53 238.025 Q2093.6 238.025 2091.72 236.196 Q2089.85 234.344 2089.85 229.483 L2089.85 215.409 L2086.72 215.409 L2086.72 212.099 L2089.85 212.099 L2089.85 204.738 L2094.13 204.738 Z" fill="#000000" fill-rule="evenodd" fill-opacity="1" /><path clip-path="url(#clip260)" d="M2108.51 212.099 L2112.77 212.099 L2112.77 238.025 L2108.51 238.025 L2108.51 212.099 M2108.51 202.006 L2112.77 202.006 L2112.77 207.4 L2108.51 207.4 L2108.51 202.006 Z" fill="#000000" fill-rule="evenodd" fill-opacity="1" /><path clip-path="url(#clip260)" d="M2118.62 212.099 L2123.14 212.099 L2131.24 233.858 L2139.34 212.099 L2143.85 212.099 L2134.13 238.025 L2128.34 238.025 L2118.62 212.099 Z" fill="#000000" fill-rule="evenodd" fill-opacity="1" /><path clip-path="url(#clip260)" d="M2171.91 223.997 L2171.91 226.08 L2152.33 226.08 Q2152.6 230.478 2154.96 232.793 Q2157.35 235.085 2161.58 235.085 Q2164.04 235.085 2166.33 234.483 Q2168.64 233.881 2170.91 232.677 L2170.91 236.705 Q2168.62 237.677 2166.21 238.187 Q2163.81 238.696 2161.33 238.696 Q2155.13 238.696 2151.49 235.085 Q2147.88 231.474 2147.88 225.316 Q2147.88 218.951 2151.31 215.224 Q2154.76 211.474 2160.59 211.474 Q2165.82 211.474 2168.85 214.853 Q2171.91 218.21 2171.91 223.997 M2167.65 222.747 Q2167.6 219.252 2165.68 217.168 Q2163.78 215.085 2160.64 215.085 Q2157.07 215.085 2154.92 217.099 Q2152.79 219.113 2152.46 222.77 L2167.65 222.747 Z" fill="#000000" fill-rule="evenodd" fill-opacity="1" /><path clip-path="url(#clip260)" d="M2216.14 223.997 L2216.14 226.08 L2196.56 226.08 Q2196.84 230.478 2199.2 232.793 Q2201.58 235.085 2205.82 235.085 Q2208.27 235.085 2210.57 234.483 Q2212.88 233.881 2215.15 232.677 L2215.15 236.705 Q2212.86 237.677 2210.45 238.187 Q2208.04 238.696 2205.57 238.696 Q2199.36 238.696 2195.73 235.085 Q2192.12 231.474 2192.12 225.316 Q2192.12 218.951 2195.54 215.224 Q2198.99 211.474 2204.83 211.474 Q2210.06 211.474 2213.09 214.853 Q2216.14 218.21 2216.14 223.997 M2211.89 222.747 Q2211.84 219.252 2209.92 217.168 Q2208.02 215.085 2204.87 215.085 Q2201.31 215.085 2199.15 217.099 Q2197.02 219.113 2196.7 222.77 L2211.89 222.747 Z" fill="#000000" fill-rule="evenodd" fill-opacity="1" /><path clip-path="url(#clip260)" d="M2238.16 216.08 Q2237.44 215.664 2236.58 215.478 Q2235.75 215.27 2234.73 215.27 Q2231.12 215.27 2229.18 217.631 Q2227.26 219.969 2227.26 224.367 L2227.26 238.025 L2222.97 238.025 L2222.97 212.099 L2227.26 212.099 L2227.26 216.127 Q2228.6 213.766 2230.75 212.631 Q2232.9 211.474 2235.98 211.474 Q2236.42 211.474 2236.95 211.543 Q2237.49 211.59 2238.14 211.705 L2238.16 216.08 Z" fill="#000000" fill-rule="evenodd" fill-opacity="1" /><path clip-path="url(#clip260)" d="M2256.82 216.08 Q2256.1 215.664 2255.24 215.478 Q2254.41 215.27 2253.39 215.27 Q2249.78 215.27 2247.83 217.631 Q2245.91 219.969 2245.91 224.367 L2245.91 238.025 L2241.63 238.025 L2241.63 212.099 L2245.91 212.099 L2245.91 216.127 Q2247.26 213.766 2249.41 212.631 Q2251.56 211.474 2254.64 211.474 Q2255.08 211.474 2255.61 211.543 Q2256.14 211.59 2256.79 211.705 L2256.82 216.08 Z" fill="#000000" fill-rule="evenodd" fill-opacity="1" /><path clip-path="url(#clip260)" d="M2270.29 215.085 Q2266.86 215.085 2264.87 217.77 Q2262.88 220.432 2262.88 225.085 Q2262.88 229.738 2264.85 232.423 Q2266.84 235.085 2270.29 235.085 Q2273.69 235.085 2275.68 232.4 Q2277.67 229.715 2277.67 225.085 Q2277.67 220.478 2275.68 217.793 Q2273.69 215.085 2270.29 215.085 M2270.29 211.474 Q2275.84 211.474 2279.01 215.085 Q2282.19 218.696 2282.19 225.085 Q2282.19 231.451 2279.01 235.085 Q2275.84 238.696 2270.29 238.696 Q2264.71 238.696 2261.54 235.085 Q2258.39 231.451 2258.39 225.085 Q2258.39 218.696 2261.54 215.085 Q2264.71 211.474 2270.29 211.474 Z" fill="#000000" fill-rule="evenodd" fill-opacity="1" /><path clip-path="url(#clip260)" d="M2304.27 216.08 Q2303.55 215.664 2302.7 215.478 Q2301.86 215.27 2300.84 215.27 Q2297.23 215.27 2295.29 217.631 Q2293.37 219.969 2293.37 224.367 L2293.37 238.025 L2289.08 238.025 L2289.08 212.099 L2293.37 212.099 L2293.37 216.127 Q2294.71 213.766 2296.86 212.631 Q2299.01 211.474 2302.09 211.474 Q2302.53 211.474 2303.07 211.543 Q2303.6 211.59 2304.25 211.705 L2304.27 216.08 Z" fill="#000000" fill-rule="evenodd" fill-opacity="1" /></svg>
