<?xml version="1.0" encoding="utf-8"?>
<svg xmlns="http://www.w3.org/2000/svg" xmlns:xlink="http://www.w3.org/1999/xlink" width="600" height="400" viewBox="0 0 2400 1600">
<defs>
  <clipPath id="clip340">
    <rect x="0" y="0" width="2400" height="1600"/>
  </clipPath>
</defs>
<path clip-path="url(#clip340)" d="
M0 1600 L2400 1600 L2400 0 L0 0  Z
  " fill="#ffffff" fill-rule="evenodd" fill-opacity="1"/>
<defs>
  <clipPath id="clip341">
    <rect x="480" y="0" width="1681" height="1600"/>
  </clipPath>
</defs>
<path clip-path="url(#clip340)" d="
M112.177 1486.45 L1724.77 1486.45 L1724.77 123.472 L112.177 123.472  Z
  " fill="#ffffff" fill-rule="evenodd" fill-opacity="1"/>
<defs>
  <clipPath id="clip342">
    <rect x="112" y="123" width="1614" height="1364"/>
  </clipPath>
</defs>
<polyline clip-path="url(#clip342)" style="stroke:#000000; stroke-linecap:butt; stroke-linejoin:round; stroke-width:2; stroke-opacity:0.1; fill:none" points="
  333.352,1486.45 333.352,123.472 
  "/>
<polyline clip-path="url(#clip342)" style="stroke:#000000; stroke-linecap:butt; stroke-linejoin:round; stroke-width:2; stroke-opacity:0.1; fill:none" points="
  625.912,1486.45 625.912,123.472 
  "/>
<polyline clip-path="url(#clip342)" style="stroke:#000000; stroke-linecap:butt; stroke-linejoin:round; stroke-width:2; stroke-opacity:0.1; fill:none" points="
  918.472,1486.45 918.472,123.472 
  "/>
<polyline clip-path="url(#clip342)" style="stroke:#000000; stroke-linecap:butt; stroke-linejoin:round; stroke-width:2; stroke-opacity:0.1; fill:none" points="
  1211.03,1486.45 1211.03,123.472 
  "/>
<polyline clip-path="url(#clip342)" style="stroke:#000000; stroke-linecap:butt; stroke-linejoin:round; stroke-width:2; stroke-opacity:0.1; fill:none" points="
  1503.59,1486.45 1503.59,123.472 
  "/>
<polyline clip-path="url(#clip340)" style="stroke:#000000; stroke-linecap:butt; stroke-linejoin:round; stroke-width:4; stroke-opacity:1; fill:none" points="
  112.177,1486.45 1724.77,1486.45 
  "/>
<polyline clip-path="url(#clip340)" style="stroke:#000000; stroke-linecap:butt; stroke-linejoin:round; stroke-width:4; stroke-opacity:1; fill:none" points="
  333.352,1486.45 333.352,1467.55 
  "/>
<polyline clip-path="url(#clip340)" style="stroke:#000000; stroke-linecap:butt; stroke-linejoin:round; stroke-width:4; stroke-opacity:1; fill:none" points="
  625.912,1486.45 625.912,1467.55 
  "/>
<polyline clip-path="url(#clip340)" style="stroke:#000000; stroke-linecap:butt; stroke-linejoin:round; stroke-width:4; stroke-opacity:1; fill:none" points="
  918.472,1486.45 918.472,1467.55 
  "/>
<polyline clip-path="url(#clip340)" style="stroke:#000000; stroke-linecap:butt; stroke-linejoin:round; stroke-width:4; stroke-opacity:1; fill:none" points="
  1211.03,1486.45 1211.03,1467.55 
  "/>
<polyline clip-path="url(#clip340)" style="stroke:#000000; stroke-linecap:butt; stroke-linejoin:round; stroke-width:4; stroke-opacity:1; fill:none" points="
  1503.59,1486.45 1503.59,1467.55 
  "/>
<path clip-path="url(#clip340)" d="M302.253 1532.02 L331.929 1532.02 L331.929 1535.95 L302.253 1535.95 L302.253 1532.02 Z" fill="#000000" fill-rule="evenodd" fill-opacity="1" /><path clip-path="url(#clip340)" d="M354.868 1518.36 L343.063 1536.81 L354.868 1536.81 L354.868 1518.36 M353.642 1514.29 L359.521 1514.29 L359.521 1536.81 L364.452 1536.81 L364.452 1540.7 L359.521 1540.7 L359.521 1548.85 L354.868 1548.85 L354.868 1540.7 L339.267 1540.7 L339.267 1536.19 L353.642 1514.29 Z" fill="#000000" fill-rule="evenodd" fill-opacity="1" /><path clip-path="url(#clip340)" d="M595.854 1532.02 L625.53 1532.02 L625.53 1535.95 L595.854 1535.95 L595.854 1532.02 Z" fill="#000000" fill-rule="evenodd" fill-opacity="1" /><path clip-path="url(#clip340)" d="M639.65 1544.91 L655.97 1544.91 L655.97 1548.85 L634.025 1548.85 L634.025 1544.91 Q636.688 1542.16 641.271 1537.53 Q645.877 1532.88 647.058 1531.53 Q649.303 1529.01 650.183 1527.27 Q651.086 1525.51 651.086 1523.82 Q651.086 1521.07 649.141 1519.33 Q647.22 1517.6 644.118 1517.6 Q641.919 1517.6 639.465 1518.36 Q637.035 1519.13 634.257 1520.68 L634.257 1515.95 Q637.081 1514.82 639.535 1514.24 Q641.988 1513.66 644.025 1513.66 Q649.396 1513.66 652.59 1516.35 Q655.785 1519.03 655.785 1523.52 Q655.785 1525.65 654.974 1527.57 Q654.187 1529.47 652.081 1532.07 Q651.502 1532.74 648.4 1535.95 Q645.299 1539.15 639.65 1544.91 Z" fill="#000000" fill-rule="evenodd" fill-opacity="1" /><path clip-path="url(#clip340)" d="M918.472 1517.37 Q914.861 1517.37 913.032 1520.93 Q911.227 1524.47 911.227 1531.6 Q911.227 1538.71 913.032 1542.27 Q914.861 1545.82 918.472 1545.82 Q922.106 1545.82 923.912 1542.27 Q925.74 1538.71 925.74 1531.6 Q925.74 1524.47 923.912 1520.93 Q922.106 1517.37 918.472 1517.37 M918.472 1513.66 Q924.282 1513.66 927.338 1518.27 Q930.416 1522.85 930.416 1531.6 Q930.416 1540.33 927.338 1544.94 Q924.282 1549.52 918.472 1549.52 Q912.662 1549.52 909.583 1544.94 Q906.527 1540.33 906.527 1531.6 Q906.527 1522.85 909.583 1518.27 Q912.662 1513.66 918.472 1513.66 Z" fill="#000000" fill-rule="evenodd" fill-opacity="1" /><path clip-path="url(#clip340)" d="M1205.68 1544.91 L1222 1544.91 L1222 1548.85 L1200.06 1548.85 L1200.06 1544.91 Q1202.72 1542.16 1207.3 1537.53 Q1211.91 1532.88 1213.09 1531.53 Q1215.34 1529.01 1216.22 1527.27 Q1217.12 1525.51 1217.12 1523.82 Q1217.12 1521.07 1215.18 1519.33 Q1213.25 1517.6 1210.15 1517.6 Q1207.95 1517.6 1205.5 1518.36 Q1203.07 1519.13 1200.29 1520.68 L1200.29 1515.95 Q1203.11 1514.82 1205.57 1514.24 Q1208.02 1513.66 1210.06 1513.66 Q1215.43 1513.66 1218.62 1516.35 Q1221.82 1519.03 1221.82 1523.52 Q1221.82 1525.65 1221.01 1527.57 Q1220.22 1529.47 1218.11 1532.07 Q1217.54 1532.74 1214.43 1535.95 Q1211.33 1539.15 1205.68 1544.91 Z" fill="#000000" fill-rule="evenodd" fill-opacity="1" /><path clip-path="url(#clip340)" d="M1506.6 1518.36 L1494.8 1536.81 L1506.6 1536.81 L1506.6 1518.36 M1505.37 1514.29 L1511.25 1514.29 L1511.25 1536.81 L1516.18 1536.81 L1516.18 1540.7 L1511.25 1540.7 L1511.25 1548.85 L1506.6 1548.85 L1506.6 1540.7 L1491 1540.7 L1491 1536.19 L1505.37 1514.29 Z" fill="#000000" fill-rule="evenodd" fill-opacity="1" /><polyline clip-path="url(#clip342)" style="stroke:#000000; stroke-linecap:butt; stroke-linejoin:round; stroke-width:2; stroke-opacity:0.1; fill:none" points="
  112.177,1447.87 1724.77,1447.87 
  "/>
<polyline clip-path="url(#clip342)" style="stroke:#000000; stroke-linecap:butt; stroke-linejoin:round; stroke-width:2; stroke-opacity:0.1; fill:none" points="
  112.177,1224.47 1724.77,1224.47 
  "/>
<polyline clip-path="url(#clip342)" style="stroke:#000000; stroke-linecap:butt; stroke-linejoin:round; stroke-width:2; stroke-opacity:0.1; fill:none" points="
  112.177,1001.08 1724.77,1001.08 
  "/>
<polyline clip-path="url(#clip342)" style="stroke:#000000; stroke-linecap:butt; stroke-linejoin:round; stroke-width:2; stroke-opacity:0.1; fill:none" points="
  112.177,777.679 1724.77,777.679 
  "/>
<polyline clip-path="url(#clip342)" style="stroke:#000000; stroke-linecap:butt; stroke-linejoin:round; stroke-width:2; stroke-opacity:0.1; fill:none" points="
  112.177,554.281 1724.77,554.281 
  "/>
<polyline clip-path="url(#clip342)" style="stroke:#000000; stroke-linecap:butt; stroke-linejoin:round; stroke-width:2; stroke-opacity:0.1; fill:none" points="
  112.177,330.883 1724.77,330.883 
  "/>
<polyline clip-path="url(#clip340)" style="stroke:#000000; stroke-linecap:butt; stroke-linejoin:round; stroke-width:4; stroke-opacity:1; fill:none" points="
  112.177,1486.45 112.177,123.472 
  "/>
<polyline clip-path="url(#clip340)" style="stroke:#000000; stroke-linecap:butt; stroke-linejoin:round; stroke-width:4; stroke-opacity:1; fill:none" points="
  112.177,1447.87 125.778,1447.87 
  "/>
<polyline clip-path="url(#clip340)" style="stroke:#000000; stroke-linecap:butt; stroke-linejoin:round; stroke-width:4; stroke-opacity:1; fill:none" points="
  112.177,1224.47 125.778,1224.47 
  "/>
<polyline clip-path="url(#clip340)" style="stroke:#000000; stroke-linecap:butt; stroke-linejoin:round; stroke-width:4; stroke-opacity:1; fill:none" points="
  112.177,1001.08 125.778,1001.08 
  "/>
<polyline clip-path="url(#clip340)" style="stroke:#000000; stroke-linecap:butt; stroke-linejoin:round; stroke-width:4; stroke-opacity:1; fill:none" points="
  112.177,777.679 125.778,777.679 
  "/>
<polyline clip-path="url(#clip340)" style="stroke:#000000; stroke-linecap:butt; stroke-linejoin:round; stroke-width:4; stroke-opacity:1; fill:none" points="
  112.177,554.281 125.778,554.281 
  "/>
<polyline clip-path="url(#clip340)" style="stroke:#000000; stroke-linecap:butt; stroke-linejoin:round; stroke-width:4; stroke-opacity:1; fill:none" points="
  112.177,330.883 125.778,330.883 
  "/>
<path clip-path="url(#clip340)" d="M64.2328 1433.67 Q60.6217 1433.67 58.793 1437.24 Q56.9875 1440.78 56.9875 1447.91 Q56.9875 1455.01 58.793 1458.58 Q60.6217 1462.12 64.2328 1462.12 Q67.867 1462.12 69.6726 1458.58 Q71.5013 1455.01 71.5013 1447.91 Q71.5013 1440.78 69.6726 1437.24 Q67.867 1433.67 64.2328 1433.67 M64.2328 1429.97 Q70.0429 1429.97 73.0985 1434.57 Q76.1772 1439.16 76.1772 1447.91 Q76.1772 1456.63 73.0985 1461.24 Q70.0429 1465.82 64.2328 1465.82 Q58.4226 1465.82 55.344 1461.24 Q52.2884 1456.63 52.2884 1447.91 Q52.2884 1439.16 55.344 1434.57 Q58.4226 1429.97 64.2328 1429.97 Z" fill="#000000" fill-rule="evenodd" fill-opacity="1" /><path clip-path="url(#clip340)" d="M56.2699 1237.82 L63.9087 1237.82 L63.9087 1211.45 L55.5986 1213.12 L55.5986 1208.86 L63.8624 1207.19 L68.5383 1207.19 L68.5383 1237.82 L76.1772 1237.82 L76.1772 1241.75 L56.2699 1241.75 L56.2699 1237.82 Z" fill="#000000" fill-rule="evenodd" fill-opacity="1" /><path clip-path="url(#clip340)" d="M59.8578 1014.42 L76.1772 1014.42 L76.1772 1018.36 L54.2328 1018.36 L54.2328 1014.42 Q56.8949 1011.67 61.4782 1007.04 Q66.0846 1002.38 67.2652 1001.04 Q69.5105 998.519 70.3902 996.783 Q71.2929 995.024 71.2929 993.334 Q71.2929 990.579 69.3485 988.843 Q67.4272 987.107 64.3254 987.107 Q62.1263 987.107 59.6726 987.871 Q57.2421 988.635 54.4643 990.186 L54.4643 985.464 Q57.2884 984.329 59.7421 983.751 Q62.1958 983.172 64.2328 983.172 Q69.6031 983.172 72.7976 985.857 Q75.992 988.542 75.992 993.033 Q75.992 995.163 75.1818 997.084 Q74.3948 998.982 72.2883 1001.57 Q71.7096 1002.25 68.6078 1005.46 Q65.5059 1008.66 59.8578 1014.42 Z" fill="#000000" fill-rule="evenodd" fill-opacity="1" /><path clip-path="url(#clip340)" d="M69.0476 776.325 Q72.404 777.042 74.279 779.311 Q76.1772 781.579 76.1772 784.913 Q76.1772 790.028 72.6587 792.829 Q69.1402 795.63 62.6587 795.63 Q60.4828 795.63 58.168 795.19 Q55.8764 794.774 53.4227 793.917 L53.4227 789.403 Q55.3671 790.538 57.6819 791.116 Q59.9967 791.695 62.5198 791.695 Q66.918 791.695 69.2096 789.959 Q71.5244 788.223 71.5244 784.913 Q71.5244 781.857 69.3717 780.144 Q67.242 778.408 63.4226 778.408 L59.3949 778.408 L59.3949 774.565 L63.6078 774.565 Q67.0569 774.565 68.8855 773.2 Q70.7142 771.811 70.7142 769.218 Q70.7142 766.556 68.8161 765.144 Q66.9411 763.709 63.4226 763.709 Q61.5013 763.709 59.3023 764.126 Q57.1032 764.542 54.4643 765.422 L54.4643 761.255 Q57.1264 760.515 59.4412 760.144 Q61.7791 759.774 63.8393 759.774 Q69.1633 759.774 72.2652 762.204 Q75.367 764.612 75.367 768.732 Q75.367 771.602 73.7235 773.593 Q72.08 775.561 69.0476 776.325 Z" fill="#000000" fill-rule="evenodd" fill-opacity="1" /><path clip-path="url(#clip340)" d="M66.5939 541.075 L54.7884 559.524 L66.5939 559.524 L66.5939 541.075 M65.367 537.001 L71.2466 537.001 L71.2466 559.524 L76.1772 559.524 L76.1772 563.413 L71.2466 563.413 L71.2466 571.561 L66.5939 571.561 L66.5939 563.413 L50.9921 563.413 L50.9921 558.899 L65.367 537.001 Z" fill="#000000" fill-rule="evenodd" fill-opacity="1" /><path clip-path="url(#clip340)" d="M55.2745 313.603 L73.6309 313.603 L73.6309 317.538 L59.5569 317.538 L59.5569 326.01 Q60.5754 325.663 61.5939 325.501 Q62.6124 325.315 63.6309 325.315 Q69.418 325.315 72.7976 328.487 Q76.1772 331.658 76.1772 337.075 Q76.1772 342.653 72.705 345.755 Q69.2328 348.834 62.9134 348.834 Q60.7374 348.834 58.4689 348.464 Q56.2236 348.093 53.8162 347.352 L53.8162 342.653 Q55.8995 343.788 58.1217 344.343 Q60.3439 344.899 62.8208 344.899 Q66.8254 344.899 69.1633 342.792 Q71.5013 340.686 71.5013 337.075 Q71.5013 333.464 69.1633 331.357 Q66.8254 329.251 62.8208 329.251 Q60.9458 329.251 59.0708 329.667 Q57.2189 330.084 55.2745 330.964 L55.2745 313.603 Z" fill="#000000" fill-rule="evenodd" fill-opacity="1" /><path clip-path="url(#clip340)" d="M293.154 12.096 L331.395 12.096 L331.395 18.9825 L301.337 18.9825 L301.337 36.8875 L330.139 36.8875 L330.139 43.7741 L301.337 43.7741 L301.337 65.6895 L332.124 65.6895 L332.124 72.576 L293.154 72.576 L293.154 12.096 Z" fill="#000000" fill-rule="evenodd" fill-opacity="1" /><path clip-path="url(#clip340)" d="M371.539 34.1734 Q370.283 33.4443 368.784 33.1202 Q367.326 32.7556 365.544 32.7556 Q359.224 32.7556 355.822 36.8875 Q352.459 40.9789 352.459 48.6757 L352.459 72.576 L344.965 72.576 L344.965 27.2059 L352.459 27.2059 L352.459 34.2544 Q354.809 30.1225 358.576 28.1376 Q362.343 26.1121 367.731 26.1121 Q368.501 26.1121 369.433 26.2337 Q370.364 26.3147 371.499 26.5172 L371.539 34.1734 Z" fill="#000000" fill-rule="evenodd" fill-opacity="1" /><path clip-path="url(#clip340)" d="M404.189 34.1734 Q402.934 33.4443 401.435 33.1202 Q399.976 32.7556 398.194 32.7556 Q391.875 32.7556 388.472 36.8875 Q385.11 40.9789 385.11 48.6757 L385.11 72.576 L377.615 72.576 L377.615 27.2059 L385.11 27.2059 L385.11 34.2544 Q387.459 30.1225 391.226 28.1376 Q394.994 26.1121 400.381 26.1121 Q401.151 26.1121 402.083 26.2337 Q403.015 26.3147 404.149 26.5172 L404.189 34.1734 Z" fill="#000000" fill-rule="evenodd" fill-opacity="1" /><path clip-path="url(#clip340)" d="M427.766 32.4315 Q421.77 32.4315 418.286 37.1306 Q414.803 41.7891 414.803 49.9314 Q414.803 58.0738 418.246 62.7728 Q421.73 67.4314 427.766 67.4314 Q433.72 67.4314 437.204 62.7323 Q440.688 58.0333 440.688 49.9314 Q440.688 41.8701 437.204 37.1711 Q433.72 32.4315 427.766 32.4315 M427.766 26.1121 Q437.488 26.1121 443.037 32.4315 Q448.587 38.7509 448.587 49.9314 Q448.587 61.0714 443.037 67.4314 Q437.488 73.7508 427.766 73.7508 Q418.003 73.7508 412.453 67.4314 Q406.944 61.0714 406.944 49.9314 Q406.944 38.7509 412.453 32.4315 Q418.003 26.1121 427.766 26.1121 Z" fill="#000000" fill-rule="evenodd" fill-opacity="1" /><path clip-path="url(#clip340)" d="M487.233 34.1734 Q485.977 33.4443 484.478 33.1202 Q483.02 32.7556 481.238 32.7556 Q474.918 32.7556 471.515 36.8875 Q468.153 40.9789 468.153 48.6757 L468.153 72.576 L460.659 72.576 L460.659 27.2059 L468.153 27.2059 L468.153 34.2544 Q470.503 30.1225 474.27 28.1376 Q478.037 26.1121 483.425 26.1121 Q484.195 26.1121 485.126 26.2337 Q486.058 26.3147 487.192 26.5172 L487.233 34.1734 Z" fill="#000000" fill-rule="evenodd" fill-opacity="1" /><path clip-path="url(#clip340)" d="M539.003 32.4315 Q533.008 32.4315 529.524 37.1306 Q526.041 41.7891 526.041 49.9314 Q526.041 58.0738 529.484 62.7728 Q532.968 67.4314 539.003 67.4314 Q544.958 67.4314 548.442 62.7323 Q551.926 58.0333 551.926 49.9314 Q551.926 41.8701 548.442 37.1711 Q544.958 32.4315 539.003 32.4315 M539.003 26.1121 Q548.726 26.1121 554.275 32.4315 Q559.825 38.7509 559.825 49.9314 Q559.825 61.0714 554.275 67.4314 Q548.726 73.7508 539.003 73.7508 Q529.241 73.7508 523.691 67.4314 Q518.182 61.0714 518.182 49.9314 Q518.182 38.7509 523.691 32.4315 Q529.241 26.1121 539.003 26.1121 Z" fill="#000000" fill-rule="evenodd" fill-opacity="1" /><path clip-path="url(#clip340)" d="M595.149 9.54393 L595.149 15.7418 L588.019 15.7418 Q584.009 15.7418 582.429 17.3622 Q580.89 18.9825 580.89 23.1955 L580.89 27.2059 L593.164 27.2059 L593.164 32.9987 L580.89 32.9987 L580.89 72.576 L573.396 72.576 L573.396 32.9987 L566.266 32.9987 L566.266 27.2059 L573.396 27.2059 L573.396 24.0462 Q573.396 16.471 576.92 13.0277 Q580.444 9.54393 588.1 9.54393 L595.149 9.54393 Z" fill="#000000" fill-rule="evenodd" fill-opacity="1" /><path clip-path="url(#clip340)" d="M630.23 65.6895 L643.598 65.6895 L643.598 19.5497 L629.055 22.4663 L629.055 15.0127 L643.517 12.096 L651.7 12.096 L651.7 65.6895 L665.068 65.6895 L665.068 72.576 L630.23 72.576 L630.23 65.6895 Z" fill="#000000" fill-rule="evenodd" fill-opacity="1" /><path clip-path="url(#clip340)" d="M699.095 17.4837 Q692.776 17.4837 689.576 23.7221 Q686.416 29.92 686.416 42.3968 Q686.416 54.833 689.576 61.0714 Q692.776 67.2693 699.095 67.2693 Q705.455 67.2693 708.615 61.0714 Q711.815 54.833 711.815 42.3968 Q711.815 29.92 708.615 23.7221 Q705.455 17.4837 699.095 17.4837 M699.095 11.0023 Q709.263 11.0023 714.61 19.0636 Q719.998 27.0843 719.998 42.3968 Q719.998 57.6687 714.61 65.73 Q709.263 73.7508 699.095 73.7508 Q688.927 73.7508 683.54 65.73 Q678.192 57.6687 678.192 42.3968 Q678.192 27.0843 683.54 19.0636 Q688.927 11.0023 699.095 11.0023 Z" fill="#000000" fill-rule="evenodd" fill-opacity="1" /><path clip-path="url(#clip340)" d="M729.558 46.5287 L751.392 46.5287 L751.392 53.1722 L729.558 53.1722 L729.558 46.5287 Z" fill="#000000" fill-rule="evenodd" fill-opacity="1" /><path clip-path="url(#clip340)" d="M790.443 17.6457 Q781.531 17.6457 776.265 24.2892 Q771.039 30.9327 771.039 42.3968 Q771.039 53.8203 776.265 60.4638 Q781.531 67.1073 790.443 67.1073 Q799.355 67.1073 804.54 60.4638 Q809.766 53.8203 809.766 42.3968 Q809.766 30.9327 804.54 24.2892 Q799.355 17.6457 790.443 17.6457 M790.443 11.0023 Q803.163 11.0023 810.779 19.5497 Q818.394 28.0566 818.394 42.3968 Q818.394 56.6965 810.779 65.2439 Q803.163 73.7508 790.443 73.7508 Q777.683 73.7508 770.026 65.2439 Q762.411 56.737 762.411 42.3968 Q762.411 28.0566 770.026 19.5497 Q777.683 11.0023 790.443 11.0023 Z" fill="#000000" fill-rule="evenodd" fill-opacity="1" /><path clip-path="url(#clip340)" d="M857.161 34.1734 Q855.906 33.4443 854.407 33.1202 Q852.948 32.7556 851.166 32.7556 Q844.847 32.7556 841.444 36.8875 Q838.082 40.9789 838.082 48.6757 L838.082 72.576 L830.587 72.576 L830.587 27.2059 L838.082 27.2059 L838.082 34.2544 Q840.431 30.1225 844.199 28.1376 Q847.966 26.1121 853.354 26.1121 Q854.123 26.1121 855.055 26.2337 Q855.987 26.3147 857.121 26.5172 L857.161 34.1734 Z" fill="#000000" fill-rule="evenodd" fill-opacity="1" /><path clip-path="url(#clip340)" d="M893.377 34.0924 L893.377 9.54393 L900.83 9.54393 L900.83 72.576 L893.377 72.576 L893.377 65.7705 Q891.027 69.8214 887.422 71.8063 Q883.857 73.7508 878.834 73.7508 Q870.61 73.7508 865.425 67.1883 Q860.281 60.6258 860.281 49.9314 Q860.281 39.2371 865.425 32.6746 Q870.61 26.1121 878.834 26.1121 Q883.857 26.1121 887.422 28.0971 Q891.027 30.0415 893.377 34.0924 M867.977 49.9314 Q867.977 58.1548 871.34 62.8538 Q874.742 67.5124 880.657 67.5124 Q886.571 67.5124 889.974 62.8538 Q893.377 58.1548 893.377 49.9314 Q893.377 41.7081 889.974 37.0496 Q886.571 32.3505 880.657 32.3505 Q874.742 32.3505 871.34 37.0496 Q867.977 41.7081 867.977 49.9314 Z" fill="#000000" fill-rule="evenodd" fill-opacity="1" /><path clip-path="url(#clip340)" d="M954.991 48.0275 L954.991 51.6733 L920.72 51.6733 Q921.206 59.3701 925.338 63.421 Q929.511 67.4314 936.924 67.4314 Q941.218 67.4314 945.228 66.3781 Q949.279 65.3249 953.249 63.2184 L953.249 70.267 Q949.238 71.9684 945.026 72.8596 Q940.813 73.7508 936.478 73.7508 Q925.622 73.7508 919.262 67.4314 Q912.942 61.1119 912.942 50.3365 Q912.942 39.1965 918.938 32.6746 Q924.974 26.1121 935.182 26.1121 Q944.337 26.1121 949.644 32.0264 Q954.991 37.9003 954.991 48.0275 M947.537 45.84 Q947.456 39.7232 944.094 36.0774 Q940.772 32.4315 935.263 32.4315 Q929.024 32.4315 925.257 35.9558 Q921.53 39.4801 920.963 45.8805 L947.537 45.84 Z" fill="#000000" fill-rule="evenodd" fill-opacity="1" /><path clip-path="url(#clip340)" d="M993.515 34.1734 Q992.259 33.4443 990.76 33.1202 Q989.302 32.7556 987.52 32.7556 Q981.2 32.7556 977.797 36.8875 Q974.435 40.9789 974.435 48.6757 L974.435 72.576 L966.941 72.576 L966.941 27.2059 L974.435 27.2059 L974.435 34.2544 Q976.785 30.1225 980.552 28.1376 Q984.319 26.1121 989.707 26.1121 Q990.477 26.1121 991.408 26.2337 Q992.34 26.3147 993.474 26.5172 L993.515 34.1734 Z" fill="#000000" fill-rule="evenodd" fill-opacity="1" /><path clip-path="url(#clip340)" d="M1028.03 12.096 L1036.21 12.096 L1036.21 72.576 L1028.03 72.576 L1028.03 12.096 Z" fill="#000000" fill-rule="evenodd" fill-opacity="1" /><path clip-path="url(#clip340)" d="M1089.89 45.1919 L1089.89 72.576 L1082.43 72.576 L1082.43 45.4349 Q1082.43 38.994 1079.92 35.7938 Q1077.41 32.5936 1072.39 32.5936 Q1066.35 32.5936 1062.87 36.4419 Q1059.38 40.2903 1059.38 46.9338 L1059.38 72.576 L1051.89 72.576 L1051.89 27.2059 L1059.38 27.2059 L1059.38 34.2544 Q1062.06 30.163 1065.66 28.1376 Q1069.31 26.1121 1074.05 26.1121 Q1081.87 26.1121 1085.88 30.9732 Q1089.89 35.7938 1089.89 45.1919 Z" fill="#000000" fill-rule="evenodd" fill-opacity="1" /><path clip-path="url(#clip340)" d="M1112.13 14.324 L1112.13 27.2059 L1127.48 27.2059 L1127.48 32.9987 L1112.13 32.9987 L1112.13 57.6282 Q1112.13 63.1779 1113.62 64.7578 Q1115.16 66.3376 1119.82 66.3376 L1127.48 66.3376 L1127.48 72.576 L1119.82 72.576 Q1111.19 72.576 1107.91 69.3758 Q1104.63 66.1351 1104.63 57.6282 L1104.63 32.9987 L1099.16 32.9987 L1099.16 27.2059 L1104.63 27.2059 L1104.63 14.324 L1112.13 14.324 Z" fill="#000000" fill-rule="evenodd" fill-opacity="1" /><path clip-path="url(#clip340)" d="M1176.09 48.0275 L1176.09 51.6733 L1141.82 51.6733 Q1142.3 59.3701 1146.44 63.421 Q1150.61 67.4314 1158.02 67.4314 Q1162.32 67.4314 1166.33 66.3781 Q1170.38 65.3249 1174.35 63.2184 L1174.35 70.267 Q1170.34 71.9684 1166.12 72.8596 Q1161.91 73.7508 1157.58 73.7508 Q1146.72 73.7508 1140.36 67.4314 Q1134.04 61.1119 1134.04 50.3365 Q1134.04 39.1965 1140.04 32.6746 Q1146.07 26.1121 1156.28 26.1121 Q1165.44 26.1121 1170.74 32.0264 Q1176.09 37.9003 1176.09 48.0275 M1168.64 45.84 Q1168.55 39.7232 1165.19 36.0774 Q1161.87 32.4315 1156.36 32.4315 Q1150.12 32.4315 1146.36 35.9558 Q1142.63 39.4801 1142.06 45.8805 L1168.64 45.84 Z" fill="#000000" fill-rule="evenodd" fill-opacity="1" /><path clip-path="url(#clip340)" d="M1214.61 34.1734 Q1213.36 33.4443 1211.86 33.1202 Q1210.4 32.7556 1208.62 32.7556 Q1202.3 32.7556 1198.9 36.8875 Q1195.53 40.9789 1195.53 48.6757 L1195.53 72.576 L1188.04 72.576 L1188.04 27.2059 L1195.53 27.2059 L1195.53 34.2544 Q1197.88 30.1225 1201.65 28.1376 Q1205.42 26.1121 1210.81 26.1121 Q1211.58 26.1121 1212.51 26.2337 Q1213.44 26.3147 1214.57 26.5172 L1214.61 34.1734 Z" fill="#000000" fill-rule="evenodd" fill-opacity="1" /><path clip-path="url(#clip340)" d="M1229.64 65.7705 L1229.64 89.8329 L1222.15 89.8329 L1222.15 27.2059 L1229.64 27.2059 L1229.64 34.0924 Q1231.99 30.0415 1235.56 28.0971 Q1239.16 26.1121 1244.14 26.1121 Q1252.41 26.1121 1257.55 32.6746 Q1262.74 39.2371 1262.74 49.9314 Q1262.74 60.6258 1257.55 67.1883 Q1252.41 73.7508 1244.14 73.7508 Q1239.16 73.7508 1235.56 71.8063 Q1231.99 69.8214 1229.64 65.7705 M1255 49.9314 Q1255 41.7081 1251.6 37.0496 Q1248.24 32.3505 1242.32 32.3505 Q1236.41 32.3505 1233 37.0496 Q1229.64 41.7081 1229.64 49.9314 Q1229.64 58.1548 1233 62.8538 Q1236.41 67.5124 1242.32 67.5124 Q1248.24 67.5124 1251.6 62.8538 Q1255 58.1548 1255 49.9314 Z" fill="#000000" fill-rule="evenodd" fill-opacity="1" /><path clip-path="url(#clip340)" d="M1292.67 32.4315 Q1286.68 32.4315 1283.2 37.1306 Q1279.71 41.7891 1279.71 49.9314 Q1279.71 58.0738 1283.15 62.7728 Q1286.64 67.4314 1292.67 67.4314 Q1298.63 67.4314 1302.11 62.7323 Q1305.6 58.0333 1305.6 49.9314 Q1305.6 41.8701 1302.11 37.1711 Q1298.63 32.4315 1292.67 32.4315 M1292.67 26.1121 Q1302.4 26.1121 1307.95 32.4315 Q1313.5 38.7509 1313.5 49.9314 Q1313.5 61.0714 1307.95 67.4314 Q1302.4 73.7508 1292.67 73.7508 Q1282.91 73.7508 1277.36 67.4314 Q1271.85 61.0714 1271.85 49.9314 Q1271.85 38.7509 1277.36 32.4315 Q1282.91 26.1121 1292.67 26.1121 Z" fill="#000000" fill-rule="evenodd" fill-opacity="1" /><path clip-path="url(#clip340)" d="M1325.85 9.54393 L1333.3 9.54393 L1333.3 72.576 L1325.85 72.576 L1325.85 9.54393 Z" fill="#000000" fill-rule="evenodd" fill-opacity="1" /><path clip-path="url(#clip340)" d="M1369.52 49.7694 Q1360.49 49.7694 1357 51.8354 Q1353.52 53.9013 1353.52 58.8839 Q1353.52 62.8538 1356.11 65.2034 Q1358.74 67.5124 1363.24 67.5124 Q1369.44 67.5124 1373.17 63.1374 Q1376.93 58.7219 1376.93 51.4303 L1376.93 49.7694 L1369.52 49.7694 M1384.39 46.6907 L1384.39 72.576 L1376.93 72.576 L1376.93 65.6895 Q1374.38 69.8214 1370.57 71.8063 Q1366.77 73.7508 1361.26 73.7508 Q1354.29 73.7508 1350.16 69.8619 Q1346.07 65.9325 1346.07 59.3701 Q1346.07 51.7138 1351.17 47.825 Q1356.31 43.9361 1366.48 43.9361 L1376.93 43.9361 L1376.93 43.2069 Q1376.93 38.0623 1373.53 35.2672 Q1370.17 32.4315 1364.05 32.4315 Q1360.16 32.4315 1356.48 33.3632 Q1352.79 34.295 1349.39 36.1584 L1349.39 29.2718 Q1353.48 27.692 1357.33 26.9223 Q1361.17 26.1121 1364.82 26.1121 Q1374.66 26.1121 1379.53 31.2163 Q1384.39 36.3204 1384.39 46.6907 Z" fill="#000000" fill-rule="evenodd" fill-opacity="1" /><path clip-path="url(#clip340)" d="M1407.11 14.324 L1407.11 27.2059 L1422.47 27.2059 L1422.47 32.9987 L1407.11 32.9987 L1407.11 57.6282 Q1407.11 63.1779 1408.61 64.7578 Q1410.15 66.3376 1414.81 66.3376 L1422.47 66.3376 L1422.47 72.576 L1414.81 72.576 Q1406.18 72.576 1402.9 69.3758 Q1399.62 66.1351 1399.62 57.6282 L1399.62 32.9987 L1394.15 32.9987 L1394.15 27.2059 L1399.62 27.2059 L1399.62 14.324 L1407.11 14.324 Z" fill="#000000" fill-rule="evenodd" fill-opacity="1" /><path clip-path="url(#clip340)" d="M1432.27 27.2059 L1439.72 27.2059 L1439.72 72.576 L1432.27 72.576 L1432.27 27.2059 M1432.27 9.54393 L1439.72 9.54393 L1439.72 18.9825 L1432.27 18.9825 L1432.27 9.54393 Z" fill="#000000" fill-rule="evenodd" fill-opacity="1" /><path clip-path="url(#clip340)" d="M1472.9 32.4315 Q1466.9 32.4315 1463.42 37.1306 Q1459.94 41.7891 1459.94 49.9314 Q1459.94 58.0738 1463.38 62.7728 Q1466.86 67.4314 1472.9 67.4314 Q1478.85 67.4314 1482.34 62.7323 Q1485.82 58.0333 1485.82 49.9314 Q1485.82 41.8701 1482.34 37.1711 Q1478.85 32.4315 1472.9 32.4315 M1472.9 26.1121 Q1482.62 26.1121 1488.17 32.4315 Q1493.72 38.7509 1493.72 49.9314 Q1493.72 61.0714 1488.17 67.4314 Q1482.62 73.7508 1472.9 73.7508 Q1463.14 73.7508 1457.59 67.4314 Q1452.08 61.0714 1452.08 49.9314 Q1452.08 38.7509 1457.59 32.4315 Q1463.14 26.1121 1472.9 26.1121 Z" fill="#000000" fill-rule="evenodd" fill-opacity="1" /><path clip-path="url(#clip340)" d="M1543.79 45.1919 L1543.79 72.576 L1536.34 72.576 L1536.34 45.4349 Q1536.34 38.994 1533.82 35.7938 Q1531.31 32.5936 1526.29 32.5936 Q1520.25 32.5936 1516.77 36.4419 Q1513.29 40.2903 1513.29 46.9338 L1513.29 72.576 L1505.79 72.576 L1505.79 27.2059 L1513.29 27.2059 L1513.29 34.2544 Q1515.96 30.163 1519.57 28.1376 Q1523.21 26.1121 1527.95 26.1121 Q1535.77 26.1121 1539.78 30.9732 Q1543.79 35.7938 1543.79 45.1919 Z" fill="#000000" fill-rule="evenodd" fill-opacity="1" /><polyline clip-path="url(#clip342)" style="stroke:#009af9; stroke-linecap:butt; stroke-linejoin:round; stroke-width:4; stroke-opacity:1; fill:none" points="
  157.816,162.047 160.742,371.314 163.668,558.079 166.593,724.291 169.519,871.755 172.444,1002.14 175.37,1116.99 178.296,1217.72 181.221,1305.66 184.147,1382 
  187.072,1447.87 189.998,1391.45 192.924,1343.53 195.849,1303.25 198.775,1269.82 201.7,1242.5 204.626,1220.63 207.552,1203.6 210.477,1190.86 213.403,1181.89 
  216.328,1176.24 219.254,1173.48 222.18,1173.24 225.105,1175.17 228.031,1178.95 230.956,1184.31 233.882,1191 236.808,1198.77 239.733,1207.44 242.659,1216.82 
  245.584,1226.74 248.51,1237.06 251.436,1247.66 254.361,1258.42 257.287,1269.24 260.212,1280.04 263.138,1290.74 266.064,1301.28 268.989,1311.61 271.915,1321.68 
  274.84,1331.45 277.766,1340.89 280.692,1349.98 283.617,1358.69 286.543,1367.02 289.468,1374.94 292.394,1382.46 295.32,1389.58 298.245,1396.29 301.171,1402.59 
  304.096,1408.5 307.022,1414.01 309.948,1419.15 312.873,1423.91 315.799,1428.31 318.724,1432.36 321.65,1436.08 324.576,1439.47 327.501,1442.56 330.427,1445.36 
  333.352,1447.87 336.278,1445.62 339.204,1443.62 342.129,1441.85 345.055,1440.3 347.98,1438.95 350.906,1437.8 353.832,1436.83 356.757,1436.03 359.683,1435.38 
  362.608,1434.87 365.534,1434.49 368.46,1434.23 371.385,1434.08 374.311,1434.02 377.236,1434.06 380.162,1434.17 383.088,1434.36 386.013,1434.6 388.939,1434.91 
  391.864,1435.26 394.79,1435.65 397.715,1436.07 400.641,1436.53 403.567,1437.01 406.492,1437.5 409.418,1438.01 412.343,1438.53 415.269,1439.06 418.195,1439.59 
  421.12,1440.12 424.046,1440.64 426.971,1441.16 429.897,1441.67 432.823,1442.17 435.748,1442.65 438.674,1443.12 441.599,1443.58 444.525,1444.02 447.451,1444.45 
  450.376,1444.86 453.302,1445.24 456.227,1445.61 459.153,1445.96 462.079,1446.29 465.004,1446.6 467.93,1446.9 470.855,1447.17 473.781,1447.42 476.707,1447.66 
  479.632,1447.87 482.558,1447.67 485.483,1447.49 488.409,1447.33 491.335,1447.18 494.26,1447.05 497.186,1446.93 500.111,1446.83 503.037,1446.74 505.963,1446.66 
  508.888,1446.6 511.814,1446.55 514.739,1446.5 517.665,1446.47 520.591,1446.45 523.516,1446.44 526.442,1446.44 529.367,1446.44 532.293,1446.45 535.219,1446.47 
  538.144,1446.49 541.07,1446.52 543.995,1446.55 546.921,1446.59 549.847,1446.63 552.772,1446.67 555.698,1446.72 558.623,1446.77 561.549,1446.82 564.475,1446.88 
  567.4,1446.93 570.326,1446.98 573.251,1447.04 576.177,1447.1 579.103,1447.15 582.028,1447.21 584.954,1447.26 587.879,1447.31 590.805,1447.37 593.731,1447.42 
  596.656,1447.47 599.582,1447.52 602.507,1447.56 605.433,1447.61 608.359,1447.65 611.284,1447.69 614.21,1447.73 617.135,1447.77 620.061,1447.81 622.987,1447.84 
  625.912,1447.87 628.838,1447.84 631.763,1447.82 634.689,1447.79 637.614,1447.77 640.54,1447.75 643.466,1447.73 646.391,1447.71 649.317,1447.69 652.242,1447.68 
  655.168,1447.67 658.094,1447.66 661.019,1447.65 663.945,1447.64 666.87,1447.64 669.796,1447.63 672.722,1447.63 675.647,1447.63 678.573,1447.63 681.498,1447.63 
  684.424,1447.63 687.35,1447.63 690.275,1447.64 693.201,1447.64 696.126,1447.65 699.052,1447.65 701.978,1447.66 704.903,1447.67 707.829,1447.67 710.754,1447.68 
  713.68,1447.69 716.606,1447.7 719.531,1447.71 722.457,1447.72 725.382,1447.73 728.308,1447.74 731.234,1447.75 734.159,1447.76 737.085,1447.77 740.01,1447.78 
  742.936,1447.79 745.862,1447.8 748.787,1447.81 751.713,1447.82 754.638,1447.83 757.564,1447.83 760.49,1447.84 763.415,1447.85 766.341,1447.86 769.266,1447.87 
  772.192,1447.87 775.118,1447.87 778.043,1447.86 780.969,1447.85 783.894,1447.85 786.82,1447.84 789.746,1447.84 792.671,1447.83 795.597,1447.83 798.522,1447.83 
  801.448,1447.82 804.374,1447.82 807.299,1447.82 810.225,1447.81 813.15,1447.81 816.076,1447.81 819.002,1447.81 821.927,1447.81 824.853,1447.81 827.778,1447.81 
  830.704,1447.81 833.63,1447.81 836.555,1447.81 839.481,1447.81 842.406,1447.81 845.332,1447.81 848.258,1447.81 851.183,1447.82 854.109,1447.82 857.034,1447.82 
  859.96,1447.82 862.886,1447.82 865.811,1447.83 868.737,1447.83 871.662,1447.83 874.588,1447.83 877.513,1447.84 880.439,1447.84 883.365,1447.84 886.29,1447.84 
  889.216,1447.85 892.141,1447.85 895.067,1447.85 897.993,1447.86 900.918,1447.86 903.844,1447.86 906.769,1447.86 909.695,1447.87 912.621,1447.87 915.546,1447.87 
  918.472,1447.87 921.397,1447.87 924.323,1447.87 927.249,1447.87 930.174,1447.86 933.1,1447.86 936.025,1447.86 938.951,1447.86 941.877,1447.86 944.802,1447.86 
  947.728,1447.86 950.653,1447.85 953.579,1447.85 956.505,1447.85 959.43,1447.85 962.356,1447.85 965.281,1447.85 968.207,1447.85 971.133,1447.85 974.058,1447.85 
  976.984,1447.85 979.909,1447.85 982.835,1447.85 985.761,1447.85 988.686,1447.85 991.612,1447.85 994.537,1447.85 997.463,1447.85 1000.39,1447.85 1003.31,1447.85 
  1006.24,1447.85 1009.17,1447.85 1012.09,1447.85 1015.02,1447.85 1017.94,1447.86 1020.87,1447.86 1023.79,1447.86 1026.72,1447.86 1029.64,1447.86 1032.57,1447.86 
  1035.5,1447.86 1038.42,1447.86 1041.35,1447.86 1044.27,1447.87 1047.2,1447.87 1050.12,1447.87 1053.05,1447.87 1055.97,1447.87 1058.9,1447.87 1061.83,1447.87 
  1064.75,1447.87 1067.68,1447.87 1070.6,1447.87 1073.53,1447.87 1076.45,1447.87 1079.38,1447.87 1082.31,1447.87 1085.23,1447.87 1088.16,1447.87 1091.08,1447.86 
  1094.01,1447.86 1096.93,1447.86 1099.86,1447.86 1102.78,1447.86 1105.71,1447.86 1108.64,1447.86 1111.56,1447.86 1114.49,1447.86 1117.41,1447.86 1120.34,1447.86 
  1123.26,1447.86 1126.19,1447.86 1129.11,1447.86 1132.04,1447.86 1134.97,1447.86 1137.89,1447.86 1140.82,1447.86 1143.74,1447.86 1146.67,1447.86 1149.59,1447.86 
  1152.52,1447.86 1155.45,1447.86 1158.37,1447.86 1161.3,1447.86 1164.22,1447.86 1167.15,1447.86 1170.07,1447.86 1173,1447.86 1175.92,1447.86 1178.85,1447.86 
  1181.78,1447.87 1184.7,1447.87 1187.63,1447.87 1190.55,1447.87 1193.48,1447.87 1196.4,1447.87 1199.33,1447.87 1202.25,1447.87 1205.18,1447.87 1208.11,1447.87 
  1211.03,1447.87 1213.96,1447.87 1216.88,1447.87 1219.81,1447.87 1222.73,1447.87 1225.66,1447.87 1228.59,1447.87 1231.51,1447.87 1234.44,1447.87 1237.36,1447.87 
  1240.29,1447.87 1243.21,1447.87 1246.14,1447.86 1249.06,1447.86 1251.99,1447.86 1254.92,1447.86 1257.84,1447.86 1260.77,1447.86 1263.69,1447.86 1266.62,1447.86 
  1269.54,1447.86 1272.47,1447.86 1275.39,1447.86 1278.32,1447.86 1281.25,1447.86 1284.17,1447.86 1287.1,1447.86 1290.02,1447.86 1292.95,1447.86 1295.87,1447.86 
  1298.8,1447.86 1301.73,1447.86 1304.65,1447.86 1307.58,1447.86 1310.5,1447.86 1313.43,1447.86 1316.35,1447.86 1319.28,1447.86 1322.2,1447.86 1325.13,1447.87 
  1328.06,1447.87 1330.98,1447.87 1333.91,1447.87 1336.83,1447.87 1339.76,1447.87 1342.68,1447.87 1345.61,1447.87 1348.53,1447.87 1351.46,1447.87 1354.39,1447.87 
  1357.31,1447.87 1360.24,1447.87 1363.16,1447.87 1366.09,1447.87 1369.01,1447.87 1371.94,1447.87 1374.87,1447.87 1377.79,1447.87 1380.72,1447.87 1383.64,1447.87 
  1386.57,1447.86 1389.49,1447.86 1392.42,1447.86 1395.34,1447.86 1398.27,1447.86 1401.2,1447.86 1404.12,1447.86 1407.05,1447.86 1409.97,1447.86 1412.9,1447.86 
  1415.82,1447.86 1418.75,1447.86 1421.67,1447.86 1424.6,1447.86 1427.53,1447.86 1430.45,1447.86 1433.38,1447.86 1436.3,1447.86 1439.23,1447.86 1442.15,1447.86 
  1445.08,1447.86 1448.01,1447.86 1450.93,1447.86 1453.86,1447.86 1456.78,1447.86 1459.71,1447.86 1462.63,1447.86 1465.56,1447.86 1468.48,1447.86 1471.41,1447.86 
  1474.34,1447.86 1477.26,1447.86 1480.19,1447.86 1483.11,1447.86 1486.04,1447.87 1488.96,1447.87 1491.89,1447.87 1494.81,1447.87 1497.74,1447.87 1500.67,1447.87 
  1503.59,1447.87 1506.52,1447.87 1509.44,1447.87 1512.37,1447.87 1515.29,1447.87 1518.22,1447.86 1521.14,1447.86 1524.07,1447.86 1527,1447.86 1529.92,1447.86 
  1532.85,1447.86 1535.77,1447.85 1538.7,1447.85 1541.62,1447.85 1544.55,1447.85 1547.48,1447.85 1550.4,1447.84 1553.33,1447.84 1556.25,1447.84 1559.18,1447.84 
  1562.1,1447.84 1565.03,1447.84 1567.95,1447.83 1570.88,1447.83 1573.81,1447.83 1576.73,1447.83 1579.66,1447.83 1582.58,1447.83 1585.51,1447.83 1588.43,1447.83 
  1591.36,1447.83 1594.28,1447.83 1597.21,1447.83 1600.14,1447.83 1603.06,1447.83 1605.99,1447.83 1608.91,1447.83 1611.84,1447.83 1614.76,1447.83 1617.69,1447.83 
  1620.62,1447.83 1623.54,1447.83 1626.47,1447.84 1629.39,1447.84 1632.32,1447.84 1635.24,1447.85 1638.17,1447.85 1641.09,1447.86 1644.02,1447.86 1646.95,1447.87 
  1649.87,1447.87 1652.8,1447.87 1655.72,1447.86 1658.65,1447.85 1661.57,1447.84 1664.5,1447.83 1667.42,1447.83 1670.35,1447.82 1673.28,1447.8 1676.2,1447.79 
  1679.13,1447.78 
  "/>
<path clip-path="url(#clip340)" d="
M1799.45 272.585 L2352.76 272.585 L2352.76 168.905 L1799.45 168.905  Z
  " fill="#ffffff" fill-rule="evenodd" fill-opacity="1"/>
<polyline clip-path="url(#clip340)" style="stroke:#000000; stroke-linecap:butt; stroke-linejoin:round; stroke-width:4; stroke-opacity:1; fill:none" points="
  1799.45,272.585 2352.76,272.585 2352.76,168.905 1799.45,168.905 1799.45,272.585 
  "/>
<polyline clip-path="url(#clip340)" style="stroke:#009af9; stroke-linecap:butt; stroke-linejoin:round; stroke-width:4; stroke-opacity:1; fill:none" points="
  1824.35,220.745 1973.72,220.745 
  "/>
<path clip-path="url(#clip340)" d="M2013.8 216.08 Q2013.08 215.664 2012.23 215.478 Q2011.39 215.27 2010.37 215.27 Q2006.76 215.27 2004.82 217.631 Q2002.9 219.969 2002.9 224.367 L2002.9 238.025 L1998.62 238.025 L1998.62 212.099 L2002.9 212.099 L2002.9 216.127 Q2004.24 213.766 2006.39 212.631 Q2008.55 211.474 2011.62 211.474 Q2012.06 211.474 2012.6 211.543 Q2013.13 211.59 2013.78 211.705 L2013.8 216.08 Z" fill="#000000" fill-rule="evenodd" fill-opacity="1" /><path clip-path="url(#clip340)" d="M2039.4 223.997 L2039.4 226.08 L2019.82 226.08 Q2020.1 230.478 2022.46 232.793 Q2024.84 235.085 2029.08 235.085 Q2031.53 235.085 2033.82 234.483 Q2036.14 233.881 2038.41 232.677 L2038.41 236.705 Q2036.11 237.677 2033.71 238.187 Q2031.3 238.696 2028.82 238.696 Q2022.62 238.696 2018.99 235.085 Q2015.37 231.474 2015.37 225.316 Q2015.37 218.951 2018.8 215.224 Q2022.25 211.474 2028.08 211.474 Q2033.31 211.474 2036.35 214.853 Q2039.4 218.21 2039.4 223.997 M2035.14 222.747 Q2035.1 219.252 2033.18 217.168 Q2031.28 215.085 2028.13 215.085 Q2024.56 215.085 2022.41 217.099 Q2020.28 219.113 2019.96 222.77 L2035.14 222.747 Z" fill="#000000" fill-rule="evenodd" fill-opacity="1" /><path clip-path="url(#clip340)" d="M2046.39 202.006 L2050.65 202.006 L2050.65 238.025 L2046.39 238.025 L2046.39 202.006 Z" fill="#000000" fill-rule="evenodd" fill-opacity="1" /><path clip-path="url(#clip340)" d="M2071.35 224.992 Q2066.18 224.992 2064.19 226.173 Q2062.2 227.353 2062.2 230.201 Q2062.2 232.469 2063.68 233.812 Q2065.19 235.131 2067.76 235.131 Q2071.3 235.131 2073.43 232.631 Q2075.58 230.108 2075.58 225.941 L2075.58 224.992 L2071.35 224.992 M2079.84 223.233 L2079.84 238.025 L2075.58 238.025 L2075.58 234.089 Q2074.12 236.451 2071.95 237.585 Q2069.77 238.696 2066.62 238.696 Q2062.64 238.696 2060.28 236.474 Q2057.94 234.228 2057.94 230.478 Q2057.94 226.103 2060.86 223.881 Q2063.8 221.659 2069.61 221.659 L2075.58 221.659 L2075.58 221.242 Q2075.58 218.303 2073.64 216.705 Q2071.72 215.085 2068.22 215.085 Q2066 215.085 2063.89 215.617 Q2061.79 216.15 2059.84 217.215 L2059.84 213.279 Q2062.18 212.377 2064.38 211.937 Q2066.58 211.474 2068.66 211.474 Q2074.29 211.474 2077.06 214.391 Q2079.84 217.307 2079.84 223.233 Z" fill="#000000" fill-rule="evenodd" fill-opacity="1" /><path clip-path="url(#clip340)" d="M2092.83 204.738 L2092.83 212.099 L2101.6 212.099 L2101.6 215.409 L2092.83 215.409 L2092.83 229.483 Q2092.83 232.654 2093.68 233.557 Q2094.56 234.46 2097.23 234.46 L2101.6 234.46 L2101.6 238.025 L2097.23 238.025 Q2092.3 238.025 2090.42 236.196 Q2088.55 234.344 2088.55 229.483 L2088.55 215.409 L2085.42 215.409 L2085.42 212.099 L2088.55 212.099 L2088.55 204.738 L2092.83 204.738 Z" fill="#000000" fill-rule="evenodd" fill-opacity="1" /><path clip-path="url(#clip340)" d="M2107.2 212.099 L2111.46 212.099 L2111.46 238.025 L2107.2 238.025 L2107.2 212.099 M2107.2 202.006 L2111.46 202.006 L2111.46 207.4 L2107.2 207.4 L2107.2 202.006 Z" fill="#000000" fill-rule="evenodd" fill-opacity="1" /><path clip-path="url(#clip340)" d="M2117.32 212.099 L2121.83 212.099 L2129.93 233.858 L2138.04 212.099 L2142.55 212.099 L2132.83 238.025 L2127.04 238.025 L2117.32 212.099 Z" fill="#000000" fill-rule="evenodd" fill-opacity="1" /><path clip-path="url(#clip340)" d="M2170.6 223.997 L2170.6 226.08 L2151.02 226.08 Q2151.3 230.478 2153.66 232.793 Q2156.04 235.085 2160.28 235.085 Q2162.73 235.085 2165.03 234.483 Q2167.34 233.881 2169.61 232.677 L2169.61 236.705 Q2167.32 237.677 2164.91 238.187 Q2162.5 238.696 2160.03 238.696 Q2153.82 238.696 2150.19 235.085 Q2146.58 231.474 2146.58 225.316 Q2146.58 218.951 2150 215.224 Q2153.45 211.474 2159.29 211.474 Q2164.52 211.474 2167.55 214.853 Q2170.6 218.21 2170.6 223.997 M2166.35 222.747 Q2166.3 219.252 2164.38 217.168 Q2162.48 215.085 2159.33 215.085 Q2155.77 215.085 2153.61 217.099 Q2151.48 219.113 2151.16 222.77 L2166.35 222.747 Z" fill="#000000" fill-rule="evenodd" fill-opacity="1" /><path clip-path="url(#clip340)" d="M2214.84 223.997 L2214.84 226.08 L2195.26 226.08 Q2195.54 230.478 2197.9 232.793 Q2200.28 235.085 2204.52 235.085 Q2206.97 235.085 2209.26 234.483 Q2211.58 233.881 2213.85 232.677 L2213.85 236.705 Q2211.55 237.677 2209.15 238.187 Q2206.74 238.696 2204.26 238.696 Q2198.06 238.696 2194.42 235.085 Q2190.81 231.474 2190.81 225.316 Q2190.81 218.951 2194.24 215.224 Q2197.69 211.474 2203.52 211.474 Q2208.75 211.474 2211.79 214.853 Q2214.84 218.21 2214.84 223.997 M2210.58 222.747 Q2210.54 219.252 2208.61 217.168 Q2206.72 215.085 2203.57 215.085 Q2200 215.085 2197.85 217.099 Q2195.72 219.113 2195.4 222.77 L2210.58 222.747 Z" fill="#000000" fill-rule="evenodd" fill-opacity="1" /><path clip-path="url(#clip340)" d="M2236.85 216.08 Q2236.14 215.664 2235.28 215.478 Q2234.45 215.27 2233.43 215.27 Q2229.82 215.27 2227.87 217.631 Q2225.95 219.969 2225.95 224.367 L2225.95 238.025 L2221.67 238.025 L2221.67 212.099 L2225.95 212.099 L2225.95 216.127 Q2227.29 213.766 2229.45 212.631 Q2231.6 211.474 2234.68 211.474 Q2235.12 211.474 2235.65 211.543 Q2236.18 211.59 2236.83 211.705 L2236.85 216.08 Z" fill="#000000" fill-rule="evenodd" fill-opacity="1" /><path clip-path="url(#clip340)" d="M2255.51 216.08 Q2254.79 215.664 2253.94 215.478 Q2253.1 215.27 2252.09 215.27 Q2248.47 215.27 2246.53 217.631 Q2244.61 219.969 2244.61 224.367 L2244.61 238.025 L2240.33 238.025 L2240.33 212.099 L2244.61 212.099 L2244.61 216.127 Q2245.95 213.766 2248.1 212.631 Q2250.26 211.474 2253.34 211.474 Q2253.78 211.474 2254.31 211.543 Q2254.84 211.59 2255.49 211.705 L2255.51 216.08 Z" fill="#000000" fill-rule="evenodd" fill-opacity="1" /><path clip-path="url(#clip340)" d="M2268.98 215.085 Q2265.56 215.085 2263.57 217.77 Q2261.58 220.432 2261.58 225.085 Q2261.58 229.738 2263.54 232.423 Q2265.53 235.085 2268.98 235.085 Q2272.39 235.085 2274.38 232.4 Q2276.37 229.715 2276.37 225.085 Q2276.37 220.478 2274.38 217.793 Q2272.39 215.085 2268.98 215.085 M2268.98 211.474 Q2274.54 211.474 2277.71 215.085 Q2280.88 218.696 2280.88 225.085 Q2280.88 231.451 2277.71 235.085 Q2274.54 238.696 2268.98 238.696 Q2263.41 238.696 2260.23 235.085 Q2257.09 231.451 2257.09 225.085 Q2257.09 218.696 2260.23 215.085 Q2263.41 211.474 2268.98 211.474 Z" fill="#000000" fill-rule="evenodd" fill-opacity="1" /><path clip-path="url(#clip340)" d="M2302.97 216.08 Q2302.25 215.664 2301.39 215.478 Q2300.56 215.27 2299.54 215.27 Q2295.93 215.27 2293.98 217.631 Q2292.06 219.969 2292.06 224.367 L2292.06 238.025 L2287.78 238.025 L2287.78 212.099 L2292.06 212.099 L2292.06 216.127 Q2293.41 213.766 2295.56 212.631 Q2297.71 211.474 2300.79 211.474 Q2301.23 211.474 2301.76 211.543 Q2302.29 211.59 2302.94 211.705 L2302.97 216.08 Z" fill="#000000" fill-rule="evenodd" fill-opacity="1" /></svg>
