<?xml version="1.0" encoding="utf-8"?>
<svg xmlns="http://www.w3.org/2000/svg" xmlns:xlink="http://www.w3.org/1999/xlink" width="600" height="400" viewBox="0 0 2400 1600">
<defs>
  <clipPath id="clip940">
    <rect x="0" y="0" width="2400" height="1600"/>
  </clipPath>
</defs>
<path clip-path="url(#clip940)" d="
M0 1600 L2400 1600 L2400 0 L0 0  Z
  " fill="#ffffff" fill-rule="evenodd" fill-opacity="1"/>
<defs>
  <clipPath id="clip941">
    <rect x="480" y="0" width="1681" height="1600"/>
  </clipPath>
</defs>
<path clip-path="url(#clip940)" d="
M110.881 1486.45 L1724.58 1486.45 L1724.58 123.472 L110.881 123.472  Z
  " fill="#ffffff" fill-rule="evenodd" fill-opacity="1"/>
<defs>
  <clipPath id="clip942">
    <rect x="110" y="123" width="1615" height="1364"/>
  </clipPath>
</defs>
<polyline clip-path="url(#clip942)" style="stroke:#000000; stroke-linecap:butt; stroke-linejoin:round; stroke-width:2; stroke-opacity:0.1; fill:none" points="
  156.552,1486.45 156.552,123.472 
  "/>
<polyline clip-path="url(#clip942)" style="stroke:#000000; stroke-linecap:butt; stroke-linejoin:round; stroke-width:2; stroke-opacity:0.1; fill:none" points="
  461.023,1486.45 461.023,123.472 
  "/>
<polyline clip-path="url(#clip942)" style="stroke:#000000; stroke-linecap:butt; stroke-linejoin:round; stroke-width:2; stroke-opacity:0.1; fill:none" points="
  765.494,1486.45 765.494,123.472 
  "/>
<polyline clip-path="url(#clip942)" style="stroke:#000000; stroke-linecap:butt; stroke-linejoin:round; stroke-width:2; stroke-opacity:0.1; fill:none" points="
  1069.97,1486.45 1069.97,123.472 
  "/>
<polyline clip-path="url(#clip942)" style="stroke:#000000; stroke-linecap:butt; stroke-linejoin:round; stroke-width:2; stroke-opacity:0.1; fill:none" points="
  1374.44,1486.45 1374.44,123.472 
  "/>
<polyline clip-path="url(#clip942)" style="stroke:#000000; stroke-linecap:butt; stroke-linejoin:round; stroke-width:2; stroke-opacity:0.1; fill:none" points="
  1678.91,1486.45 1678.91,123.472 
  "/>
<polyline clip-path="url(#clip940)" style="stroke:#000000; stroke-linecap:butt; stroke-linejoin:round; stroke-width:4; stroke-opacity:1; fill:none" points="
  110.881,1486.45 1724.58,1486.45 
  "/>
<polyline clip-path="url(#clip940)" style="stroke:#000000; stroke-linecap:butt; stroke-linejoin:round; stroke-width:4; stroke-opacity:1; fill:none" points="
  156.552,1486.45 156.552,1467.55 
  "/>
<polyline clip-path="url(#clip940)" style="stroke:#000000; stroke-linecap:butt; stroke-linejoin:round; stroke-width:4; stroke-opacity:1; fill:none" points="
  461.023,1486.45 461.023,1467.55 
  "/>
<polyline clip-path="url(#clip940)" style="stroke:#000000; stroke-linecap:butt; stroke-linejoin:round; stroke-width:4; stroke-opacity:1; fill:none" points="
  765.494,1486.45 765.494,1467.55 
  "/>
<polyline clip-path="url(#clip940)" style="stroke:#000000; stroke-linecap:butt; stroke-linejoin:round; stroke-width:4; stroke-opacity:1; fill:none" points="
  1069.97,1486.45 1069.97,1467.55 
  "/>
<polyline clip-path="url(#clip940)" style="stroke:#000000; stroke-linecap:butt; stroke-linejoin:round; stroke-width:4; stroke-opacity:1; fill:none" points="
  1374.44,1486.45 1374.44,1467.55 
  "/>
<polyline clip-path="url(#clip940)" style="stroke:#000000; stroke-linecap:butt; stroke-linejoin:round; stroke-width:4; stroke-opacity:1; fill:none" points="
  1678.91,1486.45 1678.91,1467.55 
  "/>
<path clip-path="url(#clip940)" d="M156.552 1517.37 Q152.941 1517.37 151.112 1520.93 Q149.306 1524.47 149.306 1531.6 Q149.306 1538.71 151.112 1542.27 Q152.941 1545.82 156.552 1545.82 Q160.186 1545.82 161.991 1542.27 Q163.82 1538.71 163.82 1531.6 Q163.82 1524.47 161.991 1520.93 Q160.186 1517.37 156.552 1517.37 M156.552 1513.66 Q162.362 1513.66 165.417 1518.27 Q168.496 1522.85 168.496 1531.6 Q168.496 1540.33 165.417 1544.94 Q162.362 1549.52 156.552 1549.52 Q150.741 1549.52 147.663 1544.94 Q144.607 1540.33 144.607 1531.6 Q144.607 1522.85 147.663 1518.27 Q150.741 1513.66 156.552 1513.66 Z" fill="#000000" fill-rule="evenodd" fill-opacity="1" /><path clip-path="url(#clip940)" d="M435.722 1514.29 L454.079 1514.29 L454.079 1518.22 L440.005 1518.22 L440.005 1526.7 Q441.023 1526.35 442.042 1526.19 Q443.06 1526 444.079 1526 Q449.866 1526 453.245 1529.17 Q456.625 1532.34 456.625 1537.76 Q456.625 1543.34 453.153 1546.44 Q449.68 1549.52 443.361 1549.52 Q441.185 1549.52 438.917 1549.15 Q436.671 1548.78 434.264 1548.04 L434.264 1543.34 Q436.347 1544.47 438.569 1545.03 Q440.792 1545.58 443.268 1545.58 Q447.273 1545.58 449.611 1543.48 Q451.949 1541.37 451.949 1537.76 Q451.949 1534.15 449.611 1532.04 Q447.273 1529.94 443.268 1529.94 Q441.393 1529.94 439.518 1530.35 Q437.667 1530.77 435.722 1531.65 L435.722 1514.29 Z" fill="#000000" fill-rule="evenodd" fill-opacity="1" /><path clip-path="url(#clip940)" d="M475.838 1517.37 Q472.227 1517.37 470.398 1520.93 Q468.592 1524.47 468.592 1531.6 Q468.592 1538.71 470.398 1542.27 Q472.227 1545.82 475.838 1545.82 Q479.472 1545.82 481.278 1542.27 Q483.106 1538.71 483.106 1531.6 Q483.106 1524.47 481.278 1520.93 Q479.472 1517.37 475.838 1517.37 M475.838 1513.66 Q481.648 1513.66 484.703 1518.27 Q487.782 1522.85 487.782 1531.6 Q487.782 1540.33 484.703 1544.94 Q481.648 1549.52 475.838 1549.52 Q470.028 1549.52 466.949 1544.94 Q463.893 1540.33 463.893 1531.6 Q463.893 1522.85 466.949 1518.27 Q470.028 1513.66 475.838 1513.66 Z" fill="#000000" fill-rule="evenodd" fill-opacity="1" /><path clip-path="url(#clip940)" d="M725.101 1544.91 L732.74 1544.91 L732.74 1518.55 L724.43 1520.21 L724.43 1515.95 L732.694 1514.29 L737.37 1514.29 L737.37 1544.91 L745.008 1544.91 L745.008 1548.85 L725.101 1548.85 L725.101 1544.91 Z" fill="#000000" fill-rule="evenodd" fill-opacity="1" /><path clip-path="url(#clip940)" d="M764.453 1517.37 Q760.842 1517.37 759.013 1520.93 Q757.207 1524.47 757.207 1531.6 Q757.207 1538.71 759.013 1542.27 Q760.842 1545.82 764.453 1545.82 Q768.087 1545.82 769.893 1542.27 Q771.721 1538.71 771.721 1531.6 Q771.721 1524.47 769.893 1520.93 Q768.087 1517.37 764.453 1517.37 M764.453 1513.66 Q770.263 1513.66 773.318 1518.27 Q776.397 1522.85 776.397 1531.6 Q776.397 1540.33 773.318 1544.94 Q770.263 1549.52 764.453 1549.52 Q758.643 1549.52 755.564 1544.94 Q752.508 1540.33 752.508 1531.6 Q752.508 1522.85 755.564 1518.27 Q758.643 1513.66 764.453 1513.66 Z" fill="#000000" fill-rule="evenodd" fill-opacity="1" /><path clip-path="url(#clip940)" d="M794.615 1517.37 Q791.004 1517.37 789.175 1520.93 Q787.369 1524.47 787.369 1531.6 Q787.369 1538.71 789.175 1542.27 Q791.004 1545.82 794.615 1545.82 Q798.249 1545.82 800.054 1542.27 Q801.883 1538.71 801.883 1531.6 Q801.883 1524.47 800.054 1520.93 Q798.249 1517.37 794.615 1517.37 M794.615 1513.66 Q800.425 1513.66 803.48 1518.27 Q806.559 1522.85 806.559 1531.6 Q806.559 1540.33 803.48 1544.94 Q800.425 1549.52 794.615 1549.52 Q788.804 1549.52 785.726 1544.94 Q782.67 1540.33 782.67 1531.6 Q782.67 1522.85 785.726 1518.27 Q788.804 1513.66 794.615 1513.66 Z" fill="#000000" fill-rule="evenodd" fill-opacity="1" /><path clip-path="url(#clip940)" d="M1029.57 1544.91 L1037.21 1544.91 L1037.21 1518.55 L1028.9 1520.21 L1028.9 1515.95 L1037.17 1514.29 L1041.84 1514.29 L1041.84 1544.91 L1049.48 1544.91 L1049.48 1548.85 L1029.57 1548.85 L1029.57 1544.91 Z" fill="#000000" fill-rule="evenodd" fill-opacity="1" /><path clip-path="url(#clip940)" d="M1058.97 1514.29 L1077.33 1514.29 L1077.33 1518.22 L1063.25 1518.22 L1063.25 1526.7 Q1064.27 1526.35 1065.29 1526.19 Q1066.31 1526 1067.33 1526 Q1073.11 1526 1076.49 1529.17 Q1079.87 1532.34 1079.87 1537.76 Q1079.87 1543.34 1076.4 1546.44 Q1072.93 1549.52 1066.61 1549.52 Q1064.43 1549.52 1062.16 1549.15 Q1059.92 1548.78 1057.51 1548.04 L1057.51 1543.34 Q1059.6 1544.47 1061.82 1545.03 Q1064.04 1545.58 1066.52 1545.58 Q1070.52 1545.58 1072.86 1543.48 Q1075.2 1541.37 1075.2 1537.76 Q1075.2 1534.15 1072.86 1532.04 Q1070.52 1529.94 1066.52 1529.94 Q1064.64 1529.94 1062.77 1530.35 Q1060.91 1530.77 1058.97 1531.65 L1058.97 1514.29 Z" fill="#000000" fill-rule="evenodd" fill-opacity="1" /><path clip-path="url(#clip940)" d="M1099.09 1517.37 Q1095.47 1517.37 1093.65 1520.93 Q1091.84 1524.47 1091.84 1531.6 Q1091.84 1538.71 1093.65 1542.27 Q1095.47 1545.82 1099.09 1545.82 Q1102.72 1545.82 1104.53 1542.27 Q1106.35 1538.71 1106.35 1531.6 Q1106.35 1524.47 1104.53 1520.93 Q1102.72 1517.37 1099.09 1517.37 M1099.09 1513.66 Q1104.9 1513.66 1107.95 1518.27 Q1111.03 1522.85 1111.03 1531.6 Q1111.03 1540.33 1107.95 1544.94 Q1104.9 1549.52 1099.09 1549.52 Q1093.28 1549.52 1090.2 1544.94 Q1087.14 1540.33 1087.14 1531.6 Q1087.14 1522.85 1090.2 1518.27 Q1093.28 1513.66 1099.09 1513.66 Z" fill="#000000" fill-rule="evenodd" fill-opacity="1" /><path clip-path="url(#clip940)" d="M1338.13 1544.91 L1354.45 1544.91 L1354.45 1548.85 L1332.5 1548.85 L1332.5 1544.91 Q1335.17 1542.16 1339.75 1537.53 Q1344.36 1532.88 1345.54 1531.53 Q1347.78 1529.01 1348.66 1527.27 Q1349.56 1525.51 1349.56 1523.82 Q1349.56 1521.07 1347.62 1519.33 Q1345.7 1517.6 1342.6 1517.6 Q1340.4 1517.6 1337.94 1518.36 Q1335.51 1519.13 1332.74 1520.68 L1332.74 1515.95 Q1335.56 1514.82 1338.01 1514.24 Q1340.47 1513.66 1342.5 1513.66 Q1347.87 1513.66 1351.07 1516.35 Q1354.26 1519.03 1354.26 1523.52 Q1354.26 1525.65 1353.45 1527.57 Q1352.67 1529.47 1350.56 1532.07 Q1349.98 1532.74 1346.88 1535.95 Q1343.78 1539.15 1338.13 1544.91 Z" fill="#000000" fill-rule="evenodd" fill-opacity="1" /><path clip-path="url(#clip940)" d="M1374.26 1517.37 Q1370.65 1517.37 1368.82 1520.93 Q1367.02 1524.47 1367.02 1531.6 Q1367.02 1538.71 1368.82 1542.27 Q1370.65 1545.82 1374.26 1545.82 Q1377.9 1545.82 1379.7 1542.27 Q1381.53 1538.71 1381.53 1531.6 Q1381.53 1524.47 1379.7 1520.93 Q1377.9 1517.37 1374.26 1517.37 M1374.26 1513.66 Q1380.07 1513.66 1383.13 1518.27 Q1386.21 1522.85 1386.21 1531.6 Q1386.21 1540.33 1383.13 1544.94 Q1380.07 1549.52 1374.26 1549.52 Q1368.45 1549.52 1365.37 1544.94 Q1362.32 1540.33 1362.32 1531.6 Q1362.32 1522.85 1365.37 1518.27 Q1368.45 1513.66 1374.26 1513.66 Z" fill="#000000" fill-rule="evenodd" fill-opacity="1" /><path clip-path="url(#clip940)" d="M1404.43 1517.37 Q1400.81 1517.37 1398.99 1520.93 Q1397.18 1524.47 1397.18 1531.6 Q1397.18 1538.71 1398.99 1542.27 Q1400.81 1545.82 1404.43 1545.82 Q1408.06 1545.82 1409.87 1542.27 Q1411.69 1538.71 1411.69 1531.6 Q1411.69 1524.47 1409.87 1520.93 Q1408.06 1517.37 1404.43 1517.37 M1404.43 1513.66 Q1410.24 1513.66 1413.29 1518.27 Q1416.37 1522.85 1416.37 1531.6 Q1416.37 1540.33 1413.29 1544.94 Q1410.24 1549.52 1404.43 1549.52 Q1398.62 1549.52 1395.54 1544.94 Q1392.48 1540.33 1392.48 1531.6 Q1392.48 1522.85 1395.54 1518.27 Q1398.62 1513.66 1404.43 1513.66 Z" fill="#000000" fill-rule="evenodd" fill-opacity="1" /><path clip-path="url(#clip940)" d="M1642.6 1544.91 L1658.92 1544.91 L1658.92 1548.85 L1636.98 1548.85 L1636.98 1544.91 Q1639.64 1542.16 1644.22 1537.53 Q1648.83 1532.88 1650.01 1531.53 Q1652.25 1529.01 1653.13 1527.27 Q1654.04 1525.51 1654.04 1523.82 Q1654.04 1521.07 1652.09 1519.33 Q1650.17 1517.6 1647.07 1517.6 Q1644.87 1517.6 1642.42 1518.36 Q1639.99 1519.13 1637.21 1520.68 L1637.21 1515.95 Q1640.03 1514.82 1642.49 1514.24 Q1644.94 1513.66 1646.98 1513.66 Q1652.35 1513.66 1655.54 1516.35 Q1658.74 1519.03 1658.74 1523.52 Q1658.74 1525.65 1657.92 1527.57 Q1657.14 1529.47 1655.03 1532.07 Q1654.45 1532.74 1651.35 1535.95 Q1648.25 1539.15 1642.6 1544.91 Z" fill="#000000" fill-rule="evenodd" fill-opacity="1" /><path clip-path="url(#clip940)" d="M1668.78 1514.29 L1687.14 1514.29 L1687.14 1518.22 L1673.06 1518.22 L1673.06 1526.7 Q1674.08 1526.35 1675.1 1526.19 Q1676.12 1526 1677.14 1526 Q1682.92 1526 1686.3 1529.17 Q1689.68 1532.34 1689.68 1537.76 Q1689.68 1543.34 1686.21 1546.44 Q1682.74 1549.52 1676.42 1549.52 Q1674.24 1549.52 1671.98 1549.15 Q1669.73 1548.78 1667.32 1548.04 L1667.32 1543.34 Q1669.41 1544.47 1671.63 1545.03 Q1673.85 1545.58 1676.33 1545.58 Q1680.33 1545.58 1682.67 1543.48 Q1685.01 1541.37 1685.01 1537.76 Q1685.01 1534.15 1682.67 1532.04 Q1680.33 1529.94 1676.33 1529.94 Q1674.45 1529.94 1672.58 1530.35 Q1670.73 1530.77 1668.78 1531.65 L1668.78 1514.29 Z" fill="#000000" fill-rule="evenodd" fill-opacity="1" /><path clip-path="url(#clip940)" d="M1708.9 1517.37 Q1705.29 1517.37 1703.46 1520.93 Q1701.65 1524.47 1701.65 1531.6 Q1701.65 1538.71 1703.46 1542.27 Q1705.29 1545.82 1708.9 1545.82 Q1712.53 1545.82 1714.34 1542.27 Q1716.17 1538.71 1716.17 1531.6 Q1716.17 1524.47 1714.34 1520.93 Q1712.53 1517.37 1708.9 1517.37 M1708.9 1513.66 Q1714.71 1513.66 1717.76 1518.27 Q1720.84 1522.85 1720.84 1531.6 Q1720.84 1540.33 1717.76 1544.94 Q1714.71 1549.52 1708.9 1549.52 Q1703.09 1549.52 1700.01 1544.94 Q1696.95 1540.33 1696.95 1531.6 Q1696.95 1522.85 1700.01 1518.27 Q1703.09 1513.66 1708.9 1513.66 Z" fill="#000000" fill-rule="evenodd" fill-opacity="1" /><polyline clip-path="url(#clip942)" style="stroke:#000000; stroke-linecap:butt; stroke-linejoin:round; stroke-width:2; stroke-opacity:0.1; fill:none" points="
  110.881,1447.87 1724.58,1447.87 
  "/>
<polyline clip-path="url(#clip942)" style="stroke:#000000; stroke-linecap:butt; stroke-linejoin:round; stroke-width:2; stroke-opacity:0.1; fill:none" points="
  110.881,1041.96 1724.58,1041.96 
  "/>
<polyline clip-path="url(#clip942)" style="stroke:#000000; stroke-linecap:butt; stroke-linejoin:round; stroke-width:2; stroke-opacity:0.1; fill:none" points="
  110.881,636.038 1724.58,636.038 
  "/>
<polyline clip-path="url(#clip942)" style="stroke:#000000; stroke-linecap:butt; stroke-linejoin:round; stroke-width:2; stroke-opacity:0.1; fill:none" points="
  110.881,230.12 1724.58,230.12 
  "/>
<polyline clip-path="url(#clip940)" style="stroke:#000000; stroke-linecap:butt; stroke-linejoin:round; stroke-width:4; stroke-opacity:1; fill:none" points="
  110.881,1486.45 110.881,123.472 
  "/>
<polyline clip-path="url(#clip940)" style="stroke:#000000; stroke-linecap:butt; stroke-linejoin:round; stroke-width:4; stroke-opacity:1; fill:none" points="
  110.881,1447.87 124.483,1447.87 
  "/>
<polyline clip-path="url(#clip940)" style="stroke:#000000; stroke-linecap:butt; stroke-linejoin:round; stroke-width:4; stroke-opacity:1; fill:none" points="
  110.881,1041.96 124.483,1041.96 
  "/>
<polyline clip-path="url(#clip940)" style="stroke:#000000; stroke-linecap:butt; stroke-linejoin:round; stroke-width:4; stroke-opacity:1; fill:none" points="
  110.881,636.038 124.483,636.038 
  "/>
<polyline clip-path="url(#clip940)" style="stroke:#000000; stroke-linecap:butt; stroke-linejoin:round; stroke-width:4; stroke-opacity:1; fill:none" points="
  110.881,230.12 124.483,230.12 
  "/>
<path clip-path="url(#clip940)" d="M62.9365 1433.67 Q59.3254 1433.67 57.4967 1437.24 Q55.6912 1440.78 55.6912 1447.91 Q55.6912 1455.01 57.4967 1458.58 Q59.3254 1462.12 62.9365 1462.12 Q66.5707 1462.12 68.3763 1458.58 Q70.205 1455.01 70.205 1447.91 Q70.205 1440.78 68.3763 1437.24 Q66.5707 1433.67 62.9365 1433.67 M62.9365 1429.97 Q68.7467 1429.97 71.8022 1434.57 Q74.8809 1439.16 74.8809 1447.91 Q74.8809 1456.63 71.8022 1461.24 Q68.7467 1465.82 62.9365 1465.82 Q57.1264 1465.82 54.0477 1461.24 Q50.9921 1456.63 50.9921 1447.91 Q50.9921 1439.16 54.0477 1434.57 Q57.1264 1429.97 62.9365 1429.97 Z" fill="#000000" fill-rule="evenodd" fill-opacity="1" /><path clip-path="url(#clip940)" d="M54.9736 1055.3 L62.6124 1055.3 L62.6124 1028.93 L54.3023 1030.6 L54.3023 1026.34 L62.5661 1024.68 L67.242 1024.68 L67.242 1055.3 L74.8809 1055.3 L74.8809 1059.24 L54.9736 1059.24 L54.9736 1055.3 Z" fill="#000000" fill-rule="evenodd" fill-opacity="1" /><path clip-path="url(#clip940)" d="M58.5615 649.383 L74.8809 649.383 L74.8809 653.318 L52.9366 653.318 L52.9366 649.383 Q55.5986 646.628 60.1819 641.998 Q64.7883 637.346 65.9689 636.003 Q68.2143 633.48 69.0939 631.744 Q69.9967 629.985 69.9967 628.295 Q69.9967 625.54 68.0522 623.804 Q66.1309 622.068 63.0291 622.068 Q60.83 622.068 58.3763 622.832 Q55.9458 623.596 53.168 625.147 L53.168 620.424 Q55.9921 619.29 58.4458 618.711 Q60.8995 618.133 62.9365 618.133 Q68.3068 618.133 71.5013 620.818 Q74.6957 623.503 74.6957 627.994 Q74.6957 630.123 73.8855 632.045 Q73.0985 633.943 70.992 636.535 Q70.4133 637.207 67.3115 640.424 Q64.2096 643.619 58.5615 649.383 Z" fill="#000000" fill-rule="evenodd" fill-opacity="1" /><path clip-path="url(#clip940)" d="M67.7513 228.766 Q71.1078 229.483 72.9827 231.752 Q74.8809 234.021 74.8809 237.354 Q74.8809 242.47 71.3624 245.27 Q67.8439 248.071 61.3624 248.071 Q59.1865 248.071 56.8717 247.632 Q54.5801 247.215 52.1264 246.358 L52.1264 241.845 Q54.0708 242.979 56.3856 243.557 Q58.7004 244.136 61.2236 244.136 Q65.6217 244.136 67.9133 242.4 Q70.2281 240.664 70.2281 237.354 Q70.2281 234.298 68.0754 232.585 Q65.9457 230.849 62.1263 230.849 L58.0986 230.849 L58.0986 227.007 L62.3115 227.007 Q65.7606 227.007 67.5893 225.641 Q69.418 224.252 69.418 221.659 Q69.418 218.997 67.5198 217.585 Q65.6448 216.15 62.1263 216.15 Q60.205 216.15 58.006 216.567 Q55.8069 216.984 53.168 217.863 L53.168 213.697 Q55.8301 212.956 58.1449 212.585 Q60.4828 212.215 62.543 212.215 Q67.867 212.215 70.9689 214.646 Q74.0707 217.053 74.0707 221.173 Q74.0707 224.044 72.4272 226.034 Q70.7837 228.002 67.7513 228.766 Z" fill="#000000" fill-rule="evenodd" fill-opacity="1" /><path clip-path="url(#clip940)" d="M318.804 12.096 L357.044 12.096 L357.044 18.9825 L326.987 18.9825 L326.987 36.8875 L355.789 36.8875 L355.789 43.7741 L326.987 43.7741 L326.987 65.6895 L357.774 65.6895 L357.774 72.576 L318.804 72.576 L318.804 12.096 Z" fill="#000000" fill-rule="evenodd" fill-opacity="1" /><path clip-path="url(#clip940)" d="M397.189 34.1734 Q395.933 33.4443 394.434 33.1202 Q392.976 32.7556 391.194 32.7556 Q384.874 32.7556 381.471 36.8875 Q378.109 40.9789 378.109 48.6757 L378.109 72.576 L370.615 72.576 L370.615 27.2059 L378.109 27.2059 L378.109 34.2544 Q380.459 30.1225 384.226 28.1376 Q387.993 26.1121 393.381 26.1121 Q394.151 26.1121 395.082 26.2337 Q396.014 26.3147 397.148 26.5172 L397.189 34.1734 Z" fill="#000000" fill-rule="evenodd" fill-opacity="1" /><path clip-path="url(#clip940)" d="M429.839 34.1734 Q428.583 33.4443 427.085 33.1202 Q425.626 32.7556 423.844 32.7556 Q417.524 32.7556 414.122 36.8875 Q410.759 40.9789 410.759 48.6757 L410.759 72.576 L403.265 72.576 L403.265 27.2059 L410.759 27.2059 L410.759 34.2544 Q413.109 30.1225 416.876 28.1376 Q420.644 26.1121 426.031 26.1121 Q426.801 26.1121 427.733 26.2337 Q428.664 26.3147 429.799 26.5172 L429.839 34.1734 Z" fill="#000000" fill-rule="evenodd" fill-opacity="1" /><path clip-path="url(#clip940)" d="M453.415 32.4315 Q447.42 32.4315 443.936 37.1306 Q440.453 41.7891 440.453 49.9314 Q440.453 58.0738 443.896 62.7728 Q447.38 67.4314 453.415 67.4314 Q459.37 67.4314 462.854 62.7323 Q466.338 58.0333 466.338 49.9314 Q466.338 41.8701 462.854 37.1711 Q459.37 32.4315 453.415 32.4315 M453.415 26.1121 Q463.138 26.1121 468.687 32.4315 Q474.237 38.7509 474.237 49.9314 Q474.237 61.0714 468.687 67.4314 Q463.138 73.7508 453.415 73.7508 Q443.653 73.7508 438.103 67.4314 Q432.594 61.0714 432.594 49.9314 Q432.594 38.7509 438.103 32.4315 Q443.653 26.1121 453.415 26.1121 Z" fill="#000000" fill-rule="evenodd" fill-opacity="1" /><path clip-path="url(#clip940)" d="M512.883 34.1734 Q511.627 33.4443 510.128 33.1202 Q508.67 32.7556 506.887 32.7556 Q500.568 32.7556 497.165 36.8875 Q493.803 40.9789 493.803 48.6757 L493.803 72.576 L486.309 72.576 L486.309 27.2059 L493.803 27.2059 L493.803 34.2544 Q496.152 30.1225 499.92 28.1376 Q503.687 26.1121 509.075 26.1121 Q509.845 26.1121 510.776 26.2337 Q511.708 26.3147 512.842 26.5172 L512.883 34.1734 Z" fill="#000000" fill-rule="evenodd" fill-opacity="1" /><path clip-path="url(#clip940)" d="M564.653 32.4315 Q558.658 32.4315 555.174 37.1306 Q551.69 41.7891 551.69 49.9314 Q551.69 58.0738 555.134 62.7728 Q558.617 67.4314 564.653 67.4314 Q570.608 67.4314 574.092 62.7323 Q577.576 58.0333 577.576 49.9314 Q577.576 41.8701 574.092 37.1711 Q570.608 32.4315 564.653 32.4315 M564.653 26.1121 Q574.375 26.1121 579.925 32.4315 Q585.475 38.7509 585.475 49.9314 Q585.475 61.0714 579.925 67.4314 Q574.375 73.7508 564.653 73.7508 Q554.891 73.7508 549.341 67.4314 Q543.832 61.0714 543.832 49.9314 Q543.832 38.7509 549.341 32.4315 Q554.891 26.1121 564.653 26.1121 Z" fill="#000000" fill-rule="evenodd" fill-opacity="1" /><path clip-path="url(#clip940)" d="M620.799 9.54393 L620.799 15.7418 L613.669 15.7418 Q609.659 15.7418 608.079 17.3622 Q606.54 18.9825 606.54 23.1955 L606.54 27.2059 L618.814 27.2059 L618.814 32.9987 L606.54 32.9987 L606.54 72.576 L599.045 72.576 L599.045 32.9987 L591.916 32.9987 L591.916 27.2059 L599.045 27.2059 L599.045 24.0462 Q599.045 16.471 602.57 13.0277 Q606.094 9.54393 613.75 9.54393 L620.799 9.54393 Z" fill="#000000" fill-rule="evenodd" fill-opacity="1" /><path clip-path="url(#clip940)" d="M679.253 39.9662 Q685.127 41.222 688.408 45.1919 Q691.73 49.1618 691.73 54.9951 Q691.73 63.9476 685.573 68.8492 Q679.415 73.7508 668.073 73.7508 Q664.265 73.7508 660.214 72.9811 Q656.204 72.2519 651.91 70.7531 L651.91 62.8538 Q655.313 64.8388 659.363 65.8515 Q663.414 66.8642 667.83 66.8642 Q675.527 66.8642 679.537 63.826 Q683.588 60.7879 683.588 54.9951 Q683.588 49.6479 679.82 46.6502 Q676.094 43.612 669.41 43.612 L662.361 43.612 L662.361 36.8875 L669.734 36.8875 Q675.77 36.8875 678.97 34.4975 Q682.17 32.067 682.17 27.5299 Q682.17 22.8714 678.848 20.4004 Q675.567 17.8888 669.41 17.8888 Q666.047 17.8888 662.199 18.618 Q658.351 19.3471 653.733 20.8865 L653.733 13.5948 Q658.391 12.2985 662.442 11.6504 Q666.534 11.0023 670.139 11.0023 Q679.456 11.0023 684.884 15.2557 Q690.312 19.4686 690.312 26.6793 Q690.312 31.7024 687.436 35.1862 Q684.56 38.6294 679.253 39.9662 Z" fill="#000000" fill-rule="evenodd" fill-opacity="1" /><path clip-path="url(#clip940)" d="M702.425 46.5287 L724.259 46.5287 L724.259 53.1722 L702.425 53.1722 L702.425 46.5287 Z" fill="#000000" fill-rule="evenodd" fill-opacity="1" /><path clip-path="url(#clip940)" d="M763.31 17.6457 Q754.398 17.6457 749.131 24.2892 Q743.906 30.9327 743.906 42.3968 Q743.906 53.8203 749.131 60.4638 Q754.398 67.1073 763.31 67.1073 Q772.222 67.1073 777.407 60.4638 Q782.632 53.8203 782.632 42.3968 Q782.632 30.9327 777.407 24.2892 Q772.222 17.6457 763.31 17.6457 M763.31 11.0023 Q776.029 11.0023 783.645 19.5497 Q791.261 28.0566 791.261 42.3968 Q791.261 56.6965 783.645 65.2439 Q776.029 73.7508 763.31 73.7508 Q750.549 73.7508 742.893 65.2439 Q735.277 56.737 735.277 42.3968 Q735.277 28.0566 742.893 19.5497 Q750.549 11.0023 763.31 11.0023 Z" fill="#000000" fill-rule="evenodd" fill-opacity="1" /><path clip-path="url(#clip940)" d="M830.028 34.1734 Q828.772 33.4443 827.273 33.1202 Q825.815 32.7556 824.033 32.7556 Q817.713 32.7556 814.311 36.8875 Q810.948 40.9789 810.948 48.6757 L810.948 72.576 L803.454 72.576 L803.454 27.2059 L810.948 27.2059 L810.948 34.2544 Q813.298 30.1225 817.065 28.1376 Q820.832 26.1121 826.22 26.1121 Q826.99 26.1121 827.922 26.2337 Q828.853 26.3147 829.988 26.5172 L830.028 34.1734 Z" fill="#000000" fill-rule="evenodd" fill-opacity="1" /><path clip-path="url(#clip940)" d="M866.243 34.0924 L866.243 9.54393 L873.697 9.54393 L873.697 72.576 L866.243 72.576 L866.243 65.7705 Q863.894 69.8214 860.288 71.8063 Q856.723 73.7508 851.7 73.7508 Q843.477 73.7508 838.292 67.1883 Q833.147 60.6258 833.147 49.9314 Q833.147 39.2371 838.292 32.6746 Q843.477 26.1121 851.7 26.1121 Q856.723 26.1121 860.288 28.0971 Q863.894 30.0415 866.243 34.0924 M840.844 49.9314 Q840.844 58.1548 844.206 62.8538 Q847.609 67.5124 853.523 67.5124 Q859.438 67.5124 862.84 62.8538 Q866.243 58.1548 866.243 49.9314 Q866.243 41.7081 862.84 37.0496 Q859.438 32.3505 853.523 32.3505 Q847.609 32.3505 844.206 37.0496 Q840.844 41.7081 840.844 49.9314 Z" fill="#000000" fill-rule="evenodd" fill-opacity="1" /><path clip-path="url(#clip940)" d="M927.857 48.0275 L927.857 51.6733 L893.587 51.6733 Q894.073 59.3701 898.205 63.421 Q902.377 67.4314 909.79 67.4314 Q914.084 67.4314 918.095 66.3781 Q922.146 65.3249 926.115 63.2184 L926.115 70.267 Q922.105 71.9684 917.892 72.8596 Q913.679 73.7508 909.345 73.7508 Q898.488 73.7508 892.128 67.4314 Q885.809 61.1119 885.809 50.3365 Q885.809 39.1965 891.804 32.6746 Q897.84 26.1121 908.048 26.1121 Q917.203 26.1121 922.51 32.0264 Q927.857 37.9003 927.857 48.0275 M920.404 45.84 Q920.323 39.7232 916.96 36.0774 Q913.639 32.4315 908.129 32.4315 Q901.891 32.4315 898.124 35.9558 Q894.397 39.4801 893.83 45.8805 L920.404 45.84 Z" fill="#000000" fill-rule="evenodd" fill-opacity="1" /><path clip-path="url(#clip940)" d="M966.381 34.1734 Q965.126 33.4443 963.627 33.1202 Q962.169 32.7556 960.386 32.7556 Q954.067 32.7556 950.664 36.8875 Q947.302 40.9789 947.302 48.6757 L947.302 72.576 L939.808 72.576 L939.808 27.2059 L947.302 27.2059 L947.302 34.2544 Q949.651 30.1225 953.419 28.1376 Q957.186 26.1121 962.574 26.1121 Q963.343 26.1121 964.275 26.2337 Q965.207 26.3147 966.341 26.5172 L966.381 34.1734 Z" fill="#000000" fill-rule="evenodd" fill-opacity="1" /><path clip-path="url(#clip940)" d="M1000.9 12.096 L1009.08 12.096 L1009.08 72.576 L1000.9 72.576 L1000.9 12.096 Z" fill="#000000" fill-rule="evenodd" fill-opacity="1" /><path clip-path="url(#clip940)" d="M1062.75 45.1919 L1062.75 72.576 L1055.3 72.576 L1055.3 45.4349 Q1055.3 38.994 1052.79 35.7938 Q1050.28 32.5936 1045.25 32.5936 Q1039.22 32.5936 1035.73 36.4419 Q1032.25 40.2903 1032.25 46.9338 L1032.25 72.576 L1024.75 72.576 L1024.75 27.2059 L1032.25 27.2059 L1032.25 34.2544 Q1034.92 30.163 1038.53 28.1376 Q1042.17 26.1121 1046.91 26.1121 Q1054.73 26.1121 1058.74 30.9732 Q1062.75 35.7938 1062.75 45.1919 Z" fill="#000000" fill-rule="evenodd" fill-opacity="1" /><path clip-path="url(#clip940)" d="M1084.99 14.324 L1084.99 27.2059 L1100.34 27.2059 L1100.34 32.9987 L1084.99 32.9987 L1084.99 57.6282 Q1084.99 63.1779 1086.49 64.7578 Q1088.03 66.3376 1092.69 66.3376 L1100.34 66.3376 L1100.34 72.576 L1092.69 72.576 Q1084.06 72.576 1080.78 69.3758 Q1077.5 66.1351 1077.5 57.6282 L1077.5 32.9987 L1072.03 32.9987 L1072.03 27.2059 L1077.5 27.2059 L1077.5 14.324 L1084.99 14.324 Z" fill="#000000" fill-rule="evenodd" fill-opacity="1" /><path clip-path="url(#clip940)" d="M1148.96 48.0275 L1148.96 51.6733 L1114.69 51.6733 Q1115.17 59.3701 1119.3 63.421 Q1123.48 67.4314 1130.89 67.4314 Q1135.18 67.4314 1139.19 66.3781 Q1143.24 65.3249 1147.21 63.2184 L1147.21 70.267 Q1143.2 71.9684 1138.99 72.8596 Q1134.78 73.7508 1130.44 73.7508 Q1119.59 73.7508 1113.23 67.4314 Q1106.91 61.1119 1106.91 50.3365 Q1106.91 39.1965 1112.9 32.6746 Q1118.94 26.1121 1129.15 26.1121 Q1138.3 26.1121 1143.61 32.0264 Q1148.96 37.9003 1148.96 48.0275 M1141.5 45.84 Q1141.42 39.7232 1138.06 36.0774 Q1134.74 32.4315 1129.23 32.4315 Q1122.99 32.4315 1119.22 35.9558 Q1115.5 39.4801 1114.93 45.8805 L1141.5 45.84 Z" fill="#000000" fill-rule="evenodd" fill-opacity="1" /><path clip-path="url(#clip940)" d="M1187.48 34.1734 Q1186.22 33.4443 1184.73 33.1202 Q1183.27 32.7556 1181.48 32.7556 Q1175.17 32.7556 1171.76 36.8875 Q1168.4 40.9789 1168.4 48.6757 L1168.4 72.576 L1160.91 72.576 L1160.91 27.2059 L1168.4 27.2059 L1168.4 34.2544 Q1170.75 30.1225 1174.52 28.1376 Q1178.28 26.1121 1183.67 26.1121 Q1184.44 26.1121 1185.37 26.2337 Q1186.31 26.3147 1187.44 26.5172 L1187.48 34.1734 Z" fill="#000000" fill-rule="evenodd" fill-opacity="1" /><path clip-path="url(#clip940)" d="M1202.51 65.7705 L1202.51 89.8329 L1195.01 89.8329 L1195.01 27.2059 L1202.51 27.2059 L1202.51 34.0924 Q1204.86 30.0415 1208.42 28.0971 Q1212.03 26.1121 1217.01 26.1121 Q1225.27 26.1121 1230.42 32.6746 Q1235.6 39.2371 1235.6 49.9314 Q1235.6 60.6258 1230.42 67.1883 Q1225.27 73.7508 1217.01 73.7508 Q1212.03 73.7508 1208.42 71.8063 Q1204.86 69.8214 1202.51 65.7705 M1227.87 49.9314 Q1227.87 41.7081 1224.46 37.0496 Q1221.1 32.3505 1215.19 32.3505 Q1209.27 32.3505 1205.87 37.0496 Q1202.51 41.7081 1202.51 49.9314 Q1202.51 58.1548 1205.87 62.8538 Q1209.27 67.5124 1215.19 67.5124 Q1221.1 67.5124 1224.46 62.8538 Q1227.87 58.1548 1227.87 49.9314 Z" fill="#000000" fill-rule="evenodd" fill-opacity="1" /><path clip-path="url(#clip940)" d="M1265.54 32.4315 Q1259.55 32.4315 1256.06 37.1306 Q1252.58 41.7891 1252.58 49.9314 Q1252.58 58.0738 1256.02 62.7728 Q1259.5 67.4314 1265.54 67.4314 Q1271.5 67.4314 1274.98 62.7323 Q1278.46 58.0333 1278.46 49.9314 Q1278.46 41.8701 1274.98 37.1711 Q1271.5 32.4315 1265.54 32.4315 M1265.54 26.1121 Q1275.26 26.1121 1280.81 32.4315 Q1286.36 38.7509 1286.36 49.9314 Q1286.36 61.0714 1280.81 67.4314 Q1275.26 73.7508 1265.54 73.7508 Q1255.78 73.7508 1250.23 67.4314 Q1244.72 61.0714 1244.72 49.9314 Q1244.72 38.7509 1250.23 32.4315 Q1255.78 26.1121 1265.54 26.1121 Z" fill="#000000" fill-rule="evenodd" fill-opacity="1" /><path clip-path="url(#clip940)" d="M1298.72 9.54393 L1306.17 9.54393 L1306.17 72.576 L1298.72 72.576 L1298.72 9.54393 Z" fill="#000000" fill-rule="evenodd" fill-opacity="1" /><path clip-path="url(#clip940)" d="M1342.39 49.7694 Q1333.35 49.7694 1329.87 51.8354 Q1326.39 53.9013 1326.39 58.8839 Q1326.39 62.8538 1328.98 65.2034 Q1331.61 67.5124 1336.11 67.5124 Q1342.31 67.5124 1346.03 63.1374 Q1349.8 58.7219 1349.8 51.4303 L1349.8 49.7694 L1342.39 49.7694 M1357.25 46.6907 L1357.25 72.576 L1349.8 72.576 L1349.8 65.6895 Q1347.25 69.8214 1343.44 71.8063 Q1339.63 73.7508 1334.12 73.7508 Q1327.15 73.7508 1323.02 69.8619 Q1318.93 65.9325 1318.93 59.3701 Q1318.93 51.7138 1324.04 47.825 Q1329.18 43.9361 1339.35 43.9361 L1349.8 43.9361 L1349.8 43.2069 Q1349.8 38.0623 1346.4 35.2672 Q1343.03 32.4315 1336.92 32.4315 Q1333.03 32.4315 1329.34 33.3632 Q1325.66 34.295 1322.25 36.1584 L1322.25 29.2718 Q1326.34 27.692 1330.19 26.9223 Q1334.04 26.1121 1337.69 26.1121 Q1347.53 26.1121 1352.39 31.2163 Q1357.25 36.3204 1357.25 46.6907 Z" fill="#000000" fill-rule="evenodd" fill-opacity="1" /><path clip-path="url(#clip940)" d="M1379.98 14.324 L1379.98 27.2059 L1395.33 27.2059 L1395.33 32.9987 L1379.98 32.9987 L1379.98 57.6282 Q1379.98 63.1779 1381.48 64.7578 Q1383.02 66.3376 1387.68 66.3376 L1395.33 66.3376 L1395.33 72.576 L1387.68 72.576 Q1379.05 72.576 1375.77 69.3758 Q1372.48 66.1351 1372.48 57.6282 L1372.48 32.9987 L1367.02 32.9987 L1367.02 27.2059 L1372.48 27.2059 L1372.48 14.324 L1379.98 14.324 Z" fill="#000000" fill-rule="evenodd" fill-opacity="1" /><path clip-path="url(#clip940)" d="M1405.13 27.2059 L1412.59 27.2059 L1412.59 72.576 L1405.13 72.576 L1405.13 27.2059 M1405.13 9.54393 L1412.59 9.54393 L1412.59 18.9825 L1405.13 18.9825 L1405.13 9.54393 Z" fill="#000000" fill-rule="evenodd" fill-opacity="1" /><path clip-path="url(#clip940)" d="M1445.77 32.4315 Q1439.77 32.4315 1436.29 37.1306 Q1432.8 41.7891 1432.8 49.9314 Q1432.8 58.0738 1436.25 62.7728 Q1439.73 67.4314 1445.77 67.4314 Q1451.72 67.4314 1455.2 62.7323 Q1458.69 58.0333 1458.69 49.9314 Q1458.69 41.8701 1455.2 37.1711 Q1451.72 32.4315 1445.77 32.4315 M1445.77 26.1121 Q1455.49 26.1121 1461.04 32.4315 Q1466.59 38.7509 1466.59 49.9314 Q1466.59 61.0714 1461.04 67.4314 Q1455.49 73.7508 1445.77 73.7508 Q1436 73.7508 1430.45 67.4314 Q1424.94 61.0714 1424.94 49.9314 Q1424.94 38.7509 1430.45 32.4315 Q1436 26.1121 1445.77 26.1121 Z" fill="#000000" fill-rule="evenodd" fill-opacity="1" /><path clip-path="url(#clip940)" d="M1516.66 45.1919 L1516.66 72.576 L1509.2 72.576 L1509.2 45.4349 Q1509.2 38.994 1506.69 35.7938 Q1504.18 32.5936 1499.16 32.5936 Q1493.12 32.5936 1489.64 36.4419 Q1486.15 40.2903 1486.15 46.9338 L1486.15 72.576 L1478.66 72.576 L1478.66 27.2059 L1486.15 27.2059 L1486.15 34.2544 Q1488.83 30.163 1492.43 28.1376 Q1496.08 26.1121 1500.82 26.1121 Q1508.64 26.1121 1512.65 30.9732 Q1516.66 35.7938 1516.66 45.1919 Z" fill="#000000" fill-rule="evenodd" fill-opacity="1" /><polyline clip-path="url(#clip942)" style="stroke:#009af9; stroke-linecap:butt; stroke-linejoin:round; stroke-width:4; stroke-opacity:1; fill:none" points="
  162.641,162.047 168.73,637.991 174.82,845.17 180.909,966.548 186.999,1047.95 193.088,1107 199.178,1152.08 205.267,1187.79 211.356,1216.84 217.446,1240.97 
  223.535,1261.36 229.625,1278.82 235.714,1293.94 241.804,1307.15 247.893,1318.81 253.982,1329.15 260.072,1338.38 266.161,1346.67 272.251,1354.15 278.34,1360.92 
  284.43,1367.08 290.519,1372.7 296.608,1377.85 302.698,1382.56 308.787,1386.91 314.877,1390.91 320.966,1394.61 327.056,1398.03 333.145,1401.2 339.234,1404.15 
  345.324,1406.89 351.413,1409.45 357.503,1411.83 363.592,1414.05 369.682,1416.13 375.771,1418.08 381.86,1419.9 387.95,1421.6 394.039,1423.21 400.129,1424.71 
  406.218,1426.12 412.308,1427.44 418.397,1428.69 424.486,1429.86 430.576,1430.97 436.665,1432.01 442.755,1432.99 448.844,1433.91 454.934,1434.78 461.023,1435.59 
  467.112,1436.37 473.202,1437.09 479.291,1437.78 485.381,1438.43 491.47,1439.04 497.56,1439.61 503.649,1440.15 509.738,1440.67 515.828,1441.15 521.917,1441.6 
  528.007,1442.03 534.096,1442.44 540.186,1442.82 546.275,1443.17 552.364,1443.51 558.454,1443.83 564.543,1444.13 570.633,1444.41 576.722,1444.67 582.812,1444.92 
  588.901,1445.15 594.99,1445.37 601.08,1445.58 607.169,1445.77 613.259,1445.95 619.348,1446.12 625.438,1446.27 631.527,1446.42 637.616,1446.56 643.706,1446.69 
  649.795,1446.8 655.885,1446.91 661.974,1447.02 668.064,1447.11 674.153,1447.2 680.242,1447.28 686.332,1447.35 692.421,1447.42 698.511,1447.48 704.6,1447.54 
  710.69,1447.59 716.779,1447.64 722.868,1447.68 728.958,1447.72 735.047,1447.75 741.137,1447.78 747.226,1447.81 753.316,1447.83 759.405,1447.86 765.494,1447.87 
  771.584,1447.86 777.673,1447.85 783.763,1447.83 789.852,1447.83 795.942,1447.82 802.031,1447.82 808.12,1447.81 814.21,1447.81 820.299,1447.81 826.389,1447.81 
  832.478,1447.82 838.568,1447.82 844.657,1447.82 850.746,1447.83 856.836,1447.83 862.925,1447.84 869.015,1447.85 875.104,1447.85 881.194,1447.86 887.283,1447.87 
  893.372,1447.87 899.462,1447.87 905.551,1447.86 911.641,1447.85 917.73,1447.85 923.82,1447.84 929.909,1447.84 935.998,1447.83 942.088,1447.83 948.177,1447.82 
  954.267,1447.82 960.356,1447.82 966.446,1447.82 972.535,1447.82 978.624,1447.82 984.714,1447.82 990.803,1447.82 996.893,1447.83 1002.98,1447.83 1009.07,1447.84 
  1015.16,1447.84 1021.25,1447.85 1027.34,1447.86 1033.43,1447.87 1039.52,1447.86 1045.61,1447.85 1051.7,1447.83 1057.79,1447.81 1063.88,1447.8 1069.97,1447.78 
  1076.06,1447.75 1082.14,1447.73 1088.23,1447.71 1094.32,1447.68 1100.41,1447.65 1106.5,1447.62 1112.59,1447.59 1118.68,1447.55 1124.77,1447.52 1130.86,1447.48 
  1136.95,1447.44 1143.04,1447.4 1149.13,1447.36 1155.22,1447.31 1161.31,1447.27 1167.4,1447.22 1173.49,1447.17 1179.58,1447.12 1185.66,1447.06 1191.75,1447.01 
  1197.84,1446.95 1203.93,1446.89 1210.02,1446.82 1216.11,1446.76 1222.2,1446.69 1228.29,1446.62 1234.38,1446.55 1240.47,1446.48 1246.56,1446.4 1252.65,1446.33 
  1258.74,1446.25 1264.83,1446.17 1270.92,1446.08 1277.01,1446 1283.1,1445.91 1289.19,1445.82 1295.27,1445.73 1301.36,1445.63 1307.45,1445.54 1313.54,1445.44 
  1319.63,1445.33 1325.72,1445.23 1331.81,1445.13 1337.9,1445.02 1343.99,1444.91 1350.08,1444.8 1356.17,1444.68 1362.26,1444.56 1368.35,1444.44 1374.44,1444.32 
  1380.53,1444.2 1386.62,1444.07 1392.71,1443.94 1398.79,1443.81 1404.88,1443.68 1410.97,1443.55 1417.06,1443.41 1423.15,1443.27 1429.24,1443.13 1435.33,1442.98 
  1441.42,1442.84 1447.51,1442.69 1453.6,1442.54 1459.69,1442.38 1465.78,1442.23 1471.87,1442.07 1477.96,1441.91 1484.05,1441.74 1490.14,1441.58 1496.23,1441.41 
  1502.32,1441.24 1508.4,1441.07 1514.49,1440.89 1520.58,1440.72 1526.67,1440.54 1532.76,1440.36 1538.85,1440.17 1544.94,1439.99 1551.03,1439.8 1557.12,1439.61 
  1563.21,1439.41 1569.3,1439.22 1575.39,1439.02 1581.48,1438.82 1587.57,1438.62 1593.66,1438.41 1599.75,1438.21 1605.84,1438 1611.92,1437.79 1618.01,1437.57 
  1624.1,1437.36 1630.19,1437.14 1636.28,1436.92 1642.37,1436.69 1648.46,1436.47 1654.55,1436.24 1660.64,1436.01 1666.73,1435.78 1672.82,1435.54 1678.91,1435.31 
  
  "/>
<path clip-path="url(#clip940)" d="
M1799.31 272.585 L2352.76 272.585 L2352.76 168.905 L1799.31 168.905  Z
  " fill="#ffffff" fill-rule="evenodd" fill-opacity="1"/>
<polyline clip-path="url(#clip940)" style="stroke:#000000; stroke-linecap:butt; stroke-linejoin:round; stroke-width:4; stroke-opacity:1; fill:none" points="
  1799.31,272.585 2352.76,272.585 2352.76,168.905 1799.31,168.905 1799.31,272.585 
  "/>
<polyline clip-path="url(#clip940)" style="stroke:#009af9; stroke-linecap:butt; stroke-linejoin:round; stroke-width:4; stroke-opacity:1; fill:none" points="
  1824.22,220.745 1973.68,220.745 
  "/>
<path clip-path="url(#clip940)" d="M2013.77 216.08 Q2013.05 215.664 2012.2 215.478 Q2011.36 215.27 2010.35 215.27 Q2006.73 215.27 2004.79 217.631 Q2002.87 219.969 2002.87 224.367 L2002.87 238.025 L1998.59 238.025 L1998.59 212.099 L2002.87 212.099 L2002.87 216.127 Q2004.21 213.766 2006.36 212.631 Q2008.52 211.474 2011.6 211.474 Q2012.04 211.474 2012.57 211.543 Q2013.1 211.59 2013.75 211.705 L2013.77 216.08 Z" fill="#000000" fill-rule="evenodd" fill-opacity="1" /><path clip-path="url(#clip940)" d="M2039.37 223.997 L2039.37 226.08 L2019.79 226.08 Q2020.07 230.478 2022.43 232.793 Q2024.81 235.085 2029.05 235.085 Q2031.5 235.085 2033.79 234.483 Q2036.11 233.881 2038.38 232.677 L2038.38 236.705 Q2036.09 237.677 2033.68 238.187 Q2031.27 238.696 2028.79 238.696 Q2022.59 238.696 2018.96 235.085 Q2015.35 231.474 2015.35 225.316 Q2015.35 218.951 2018.77 215.224 Q2022.22 211.474 2028.05 211.474 Q2033.29 211.474 2036.32 214.853 Q2039.37 218.21 2039.37 223.997 M2035.11 222.747 Q2035.07 219.252 2033.15 217.168 Q2031.25 215.085 2028.1 215.085 Q2024.54 215.085 2022.38 217.099 Q2020.25 219.113 2019.93 222.77 L2035.11 222.747 Z" fill="#000000" fill-rule="evenodd" fill-opacity="1" /><path clip-path="url(#clip940)" d="M2046.36 202.006 L2050.62 202.006 L2050.62 238.025 L2046.36 238.025 L2046.36 202.006 Z" fill="#000000" fill-rule="evenodd" fill-opacity="1" /><path clip-path="url(#clip940)" d="M2071.32 224.992 Q2066.16 224.992 2064.16 226.173 Q2062.17 227.353 2062.17 230.201 Q2062.17 232.469 2063.66 233.812 Q2065.16 235.131 2067.73 235.131 Q2071.27 235.131 2073.4 232.631 Q2075.55 230.108 2075.55 225.941 L2075.55 224.992 L2071.32 224.992 M2079.81 223.233 L2079.81 238.025 L2075.55 238.025 L2075.55 234.089 Q2074.1 236.451 2071.92 237.585 Q2069.74 238.696 2066.6 238.696 Q2062.61 238.696 2060.25 236.474 Q2057.91 234.228 2057.91 230.478 Q2057.91 226.103 2060.83 223.881 Q2063.77 221.659 2069.58 221.659 L2075.55 221.659 L2075.55 221.242 Q2075.55 218.303 2073.61 216.705 Q2071.69 215.085 2068.19 215.085 Q2065.97 215.085 2063.86 215.617 Q2061.76 216.15 2059.81 217.215 L2059.81 213.279 Q2062.15 212.377 2064.35 211.937 Q2066.55 211.474 2068.63 211.474 Q2074.26 211.474 2077.03 214.391 Q2079.81 217.307 2079.81 223.233 Z" fill="#000000" fill-rule="evenodd" fill-opacity="1" /><path clip-path="url(#clip940)" d="M2092.8 204.738 L2092.8 212.099 L2101.57 212.099 L2101.57 215.409 L2092.8 215.409 L2092.8 229.483 Q2092.8 232.654 2093.66 233.557 Q2094.53 234.46 2097.2 234.46 L2101.57 234.46 L2101.57 238.025 L2097.2 238.025 Q2092.27 238.025 2090.39 236.196 Q2088.52 234.344 2088.52 229.483 L2088.52 215.409 L2085.39 215.409 L2085.39 212.099 L2088.52 212.099 L2088.52 204.738 L2092.8 204.738 Z" fill="#000000" fill-rule="evenodd" fill-opacity="1" /><path clip-path="url(#clip940)" d="M2107.17 212.099 L2111.43 212.099 L2111.43 238.025 L2107.17 238.025 L2107.17 212.099 M2107.17 202.006 L2111.43 202.006 L2111.43 207.4 L2107.17 207.4 L2107.17 202.006 Z" fill="#000000" fill-rule="evenodd" fill-opacity="1" /><path clip-path="url(#clip940)" d="M2117.29 212.099 L2121.8 212.099 L2129.9 233.858 L2138.01 212.099 L2142.52 212.099 L2132.8 238.025 L2127.01 238.025 L2117.29 212.099 Z" fill="#000000" fill-rule="evenodd" fill-opacity="1" /><path clip-path="url(#clip940)" d="M2170.58 223.997 L2170.58 226.08 L2150.99 226.08 Q2151.27 230.478 2153.63 232.793 Q2156.02 235.085 2160.25 235.085 Q2162.71 235.085 2165 234.483 Q2167.31 233.881 2169.58 232.677 L2169.58 236.705 Q2167.29 237.677 2164.88 238.187 Q2162.47 238.696 2160 238.696 Q2153.79 238.696 2150.16 235.085 Q2146.55 231.474 2146.55 225.316 Q2146.55 218.951 2149.97 215.224 Q2153.42 211.474 2159.26 211.474 Q2164.49 211.474 2167.52 214.853 Q2170.58 218.21 2170.58 223.997 M2166.32 222.747 Q2166.27 219.252 2164.35 217.168 Q2162.45 215.085 2159.3 215.085 Q2155.74 215.085 2153.59 217.099 Q2151.46 219.113 2151.13 222.77 L2166.32 222.747 Z" fill="#000000" fill-rule="evenodd" fill-opacity="1" /><path clip-path="url(#clip940)" d="M2214.81 223.997 L2214.81 226.08 L2195.23 226.08 Q2195.51 230.478 2197.87 232.793 Q2200.25 235.085 2204.49 235.085 Q2206.94 235.085 2209.23 234.483 Q2211.55 233.881 2213.82 232.677 L2213.82 236.705 Q2211.52 237.677 2209.12 238.187 Q2206.71 238.696 2204.23 238.696 Q2198.03 238.696 2194.4 235.085 Q2190.78 231.474 2190.78 225.316 Q2190.78 218.951 2194.21 215.224 Q2197.66 211.474 2203.49 211.474 Q2208.72 211.474 2211.76 214.853 Q2214.81 218.21 2214.81 223.997 M2210.55 222.747 Q2210.51 219.252 2208.59 217.168 Q2206.69 215.085 2203.54 215.085 Q2199.97 215.085 2197.82 217.099 Q2195.69 219.113 2195.37 222.77 L2210.55 222.747 Z" fill="#000000" fill-rule="evenodd" fill-opacity="1" /><path clip-path="url(#clip940)" d="M2236.83 216.08 Q2236.11 215.664 2235.25 215.478 Q2234.42 215.27 2233.4 215.27 Q2229.79 215.27 2227.84 217.631 Q2225.92 219.969 2225.92 224.367 L2225.92 238.025 L2221.64 238.025 L2221.64 212.099 L2225.92 212.099 L2225.92 216.127 Q2227.27 213.766 2229.42 212.631 Q2231.57 211.474 2234.65 211.474 Q2235.09 211.474 2235.62 211.543 Q2236.15 211.59 2236.8 211.705 L2236.83 216.08 Z" fill="#000000" fill-rule="evenodd" fill-opacity="1" /><path clip-path="url(#clip940)" d="M2255.48 216.08 Q2254.77 215.664 2253.91 215.478 Q2253.08 215.27 2252.06 215.27 Q2248.45 215.27 2246.5 217.631 Q2244.58 219.969 2244.58 224.367 L2244.58 238.025 L2240.3 238.025 L2240.3 212.099 L2244.58 212.099 L2244.58 216.127 Q2245.92 213.766 2248.08 212.631 Q2250.23 211.474 2253.31 211.474 Q2253.75 211.474 2254.28 211.543 Q2254.81 211.59 2255.46 211.705 L2255.48 216.08 Z" fill="#000000" fill-rule="evenodd" fill-opacity="1" /><path clip-path="url(#clip940)" d="M2268.96 215.085 Q2265.53 215.085 2263.54 217.77 Q2261.55 220.432 2261.55 225.085 Q2261.55 229.738 2263.52 232.423 Q2265.51 235.085 2268.96 235.085 Q2272.36 235.085 2274.35 232.4 Q2276.34 229.715 2276.34 225.085 Q2276.34 220.478 2274.35 217.793 Q2272.36 215.085 2268.96 215.085 M2268.96 211.474 Q2274.51 211.474 2277.68 215.085 Q2280.85 218.696 2280.85 225.085 Q2280.85 231.451 2277.68 235.085 Q2274.51 238.696 2268.96 238.696 Q2263.38 238.696 2260.21 235.085 Q2257.06 231.451 2257.06 225.085 Q2257.06 218.696 2260.21 215.085 Q2263.38 211.474 2268.96 211.474 Z" fill="#000000" fill-rule="evenodd" fill-opacity="1" /><path clip-path="url(#clip940)" d="M2302.94 216.08 Q2302.22 215.664 2301.36 215.478 Q2300.53 215.27 2299.51 215.27 Q2295.9 215.27 2293.96 217.631 Q2292.03 219.969 2292.03 224.367 L2292.03 238.025 L2287.75 238.025 L2287.75 212.099 L2292.03 212.099 L2292.03 216.127 Q2293.38 213.766 2295.53 212.631 Q2297.68 211.474 2300.76 211.474 Q2301.2 211.474 2301.73 211.543 Q2302.27 211.59 2302.91 211.705 L2302.94 216.08 Z" fill="#000000" fill-rule="evenodd" fill-opacity="1" /></svg>
