<?xml version="1.0" encoding="utf-8"?>
<svg xmlns="http://www.w3.org/2000/svg" xmlns:xlink="http://www.w3.org/1999/xlink" width="600" height="400" viewBox="0 0 2400 1600">
<defs>
  <clipPath id="clip870">
    <rect x="0" y="0" width="2400" height="1600"/>
  </clipPath>
</defs>
<path clip-path="url(#clip870)" d="
M0 1600 L2400 1600 L2400 0 L0 0  Z
  " fill="#ffffff" fill-rule="evenodd" fill-opacity="1"/>
<defs>
  <clipPath id="clip871">
    <rect x="480" y="0" width="1681" height="1600"/>
  </clipPath>
</defs>
<defs>
  <clipPath id="clip872">
    <rect x="193" y="123" width="1705" height="1364"/>
  </clipPath>
</defs>
<path clip-path="url(#clip870)" d="
M149.191 1486.45 L1890.44 1486.45 L1890.44 151.935 L149.191 151.935  Z
  " fill="#ffffff" fill-rule="evenodd" fill-opacity="1"/>
<defs>
  <clipPath id="clip873">
    <rect x="149" y="151" width="1742" height="1336"/>
  </clipPath>
</defs>
<polyline clip-path="url(#clip873)" style="stroke:#000000; stroke-linecap:butt; stroke-linejoin:round; stroke-width:2; stroke-opacity:0.1; fill:none" points="
  362.74,1486.45 362.74,151.935 
  "/>
<polyline clip-path="url(#clip873)" style="stroke:#000000; stroke-linecap:butt; stroke-linejoin:round; stroke-width:2; stroke-opacity:0.1; fill:none" points="
  691.277,1486.45 691.277,151.935 
  "/>
<polyline clip-path="url(#clip873)" style="stroke:#000000; stroke-linecap:butt; stroke-linejoin:round; stroke-width:2; stroke-opacity:0.1; fill:none" points="
  1019.81,1486.45 1019.81,151.935 
  "/>
<polyline clip-path="url(#clip873)" style="stroke:#000000; stroke-linecap:butt; stroke-linejoin:round; stroke-width:2; stroke-opacity:0.1; fill:none" points="
  1348.35,1486.45 1348.35,151.935 
  "/>
<polyline clip-path="url(#clip873)" style="stroke:#000000; stroke-linecap:butt; stroke-linejoin:round; stroke-width:2; stroke-opacity:0.1; fill:none" points="
  1676.89,1486.45 1676.89,151.935 
  "/>
<polyline clip-path="url(#clip870)" style="stroke:#000000; stroke-linecap:butt; stroke-linejoin:round; stroke-width:4; stroke-opacity:1; fill:none" points="
  149.191,1486.45 1890.44,1486.45 
  "/>
<polyline clip-path="url(#clip870)" style="stroke:#000000; stroke-linecap:butt; stroke-linejoin:round; stroke-width:4; stroke-opacity:1; fill:none" points="
  362.74,1486.45 362.74,1467.55 
  "/>
<polyline clip-path="url(#clip870)" style="stroke:#000000; stroke-linecap:butt; stroke-linejoin:round; stroke-width:4; stroke-opacity:1; fill:none" points="
  691.277,1486.45 691.277,1467.55 
  "/>
<polyline clip-path="url(#clip870)" style="stroke:#000000; stroke-linecap:butt; stroke-linejoin:round; stroke-width:4; stroke-opacity:1; fill:none" points="
  1019.81,1486.45 1019.81,1467.55 
  "/>
<polyline clip-path="url(#clip870)" style="stroke:#000000; stroke-linecap:butt; stroke-linejoin:round; stroke-width:4; stroke-opacity:1; fill:none" points="
  1348.35,1486.45 1348.35,1467.55 
  "/>
<polyline clip-path="url(#clip870)" style="stroke:#000000; stroke-linecap:butt; stroke-linejoin:round; stroke-width:4; stroke-opacity:1; fill:none" points="
  1676.89,1486.45 1676.89,1467.55 
  "/>
<path clip-path="url(#clip870)" d="M331.64 1532.02 L361.316 1532.02 L361.316 1535.95 L331.64 1535.95 L331.64 1532.02 Z" fill="#000000" fill-rule="evenodd" fill-opacity="1" /><path clip-path="url(#clip870)" d="M384.256 1518.36 L372.45 1536.81 L384.256 1536.81 L384.256 1518.36 M383.029 1514.29 L388.909 1514.29 L388.909 1536.81 L393.839 1536.81 L393.839 1540.7 L388.909 1540.7 L388.909 1548.85 L384.256 1548.85 L384.256 1540.7 L368.654 1540.7 L368.654 1536.19 L383.029 1514.29 Z" fill="#000000" fill-rule="evenodd" fill-opacity="1" /><path clip-path="url(#clip870)" d="M661.219 1532.02 L690.895 1532.02 L690.895 1535.95 L661.219 1535.95 L661.219 1532.02 Z" fill="#000000" fill-rule="evenodd" fill-opacity="1" /><path clip-path="url(#clip870)" d="M705.015 1544.91 L721.334 1544.91 L721.334 1548.85 L699.39 1548.85 L699.39 1544.91 Q702.052 1542.16 706.635 1537.53 Q711.242 1532.88 712.422 1531.53 Q714.668 1529.01 715.547 1527.27 Q716.45 1525.51 716.45 1523.82 Q716.45 1521.07 714.506 1519.33 Q712.584 1517.6 709.483 1517.6 Q707.284 1517.6 704.83 1518.36 Q702.399 1519.13 699.622 1520.68 L699.622 1515.95 Q702.446 1514.82 704.899 1514.24 Q707.353 1513.66 709.39 1513.66 Q714.76 1513.66 717.955 1516.35 Q721.149 1519.03 721.149 1523.52 Q721.149 1525.65 720.339 1527.57 Q719.552 1529.47 717.446 1532.07 Q716.867 1532.74 713.765 1535.95 Q710.663 1539.15 705.015 1544.91 Z" fill="#000000" fill-rule="evenodd" fill-opacity="1" /><path clip-path="url(#clip870)" d="M1019.81 1517.37 Q1016.2 1517.37 1014.37 1520.93 Q1012.57 1524.47 1012.57 1531.6 Q1012.57 1538.71 1014.37 1542.27 Q1016.2 1545.82 1019.81 1545.82 Q1023.45 1545.82 1025.25 1542.27 Q1027.08 1538.71 1027.08 1531.6 Q1027.08 1524.47 1025.25 1520.93 Q1023.45 1517.37 1019.81 1517.37 M1019.81 1513.66 Q1025.62 1513.66 1028.68 1518.27 Q1031.76 1522.85 1031.76 1531.6 Q1031.76 1540.33 1028.68 1544.94 Q1025.62 1549.52 1019.81 1549.52 Q1014 1549.52 1010.92 1544.94 Q1007.87 1540.33 1007.87 1531.6 Q1007.87 1522.85 1010.92 1518.27 Q1014 1513.66 1019.81 1513.66 Z" fill="#000000" fill-rule="evenodd" fill-opacity="1" /><path clip-path="url(#clip870)" d="M1343 1544.91 L1359.32 1544.91 L1359.32 1548.85 L1337.38 1548.85 L1337.38 1544.91 Q1340.04 1542.16 1344.62 1537.53 Q1349.23 1532.88 1350.41 1531.53 Q1352.66 1529.01 1353.54 1527.27 Q1354.44 1525.51 1354.44 1523.82 Q1354.44 1521.07 1352.49 1519.33 Q1350.57 1517.6 1347.47 1517.6 Q1345.27 1517.6 1342.82 1518.36 Q1340.39 1519.13 1337.61 1520.68 L1337.61 1515.95 Q1340.43 1514.82 1342.89 1514.24 Q1345.34 1513.66 1347.38 1513.66 Q1352.75 1513.66 1355.94 1516.35 Q1359.14 1519.03 1359.14 1523.52 Q1359.14 1525.65 1358.33 1527.57 Q1357.54 1529.47 1355.43 1532.07 Q1354.85 1532.74 1351.75 1535.95 Q1348.65 1539.15 1343 1544.91 Z" fill="#000000" fill-rule="evenodd" fill-opacity="1" /><path clip-path="url(#clip870)" d="M1679.9 1518.36 L1668.09 1536.81 L1679.9 1536.81 L1679.9 1518.36 M1678.67 1514.29 L1684.55 1514.29 L1684.55 1536.81 L1689.48 1536.81 L1689.48 1540.7 L1684.55 1540.7 L1684.55 1548.85 L1679.9 1548.85 L1679.9 1540.7 L1664.29 1540.7 L1664.29 1536.19 L1678.67 1514.29 Z" fill="#000000" fill-rule="evenodd" fill-opacity="1" /><polyline clip-path="url(#clip873)" style="stroke:#000000; stroke-linecap:butt; stroke-linejoin:round; stroke-width:2; stroke-opacity:0.1; fill:none" points="
  149.191,1358.49 1890.44,1358.49 
  "/>
<polyline clip-path="url(#clip873)" style="stroke:#000000; stroke-linecap:butt; stroke-linejoin:round; stroke-width:2; stroke-opacity:0.1; fill:none" points="
  149.191,1106.7 1890.44,1106.7 
  "/>
<polyline clip-path="url(#clip873)" style="stroke:#000000; stroke-linecap:butt; stroke-linejoin:round; stroke-width:2; stroke-opacity:0.1; fill:none" points="
  149.191,854.904 1890.44,854.904 
  "/>
<polyline clip-path="url(#clip873)" style="stroke:#000000; stroke-linecap:butt; stroke-linejoin:round; stroke-width:2; stroke-opacity:0.1; fill:none" points="
  149.191,603.109 1890.44,603.109 
  "/>
<polyline clip-path="url(#clip873)" style="stroke:#000000; stroke-linecap:butt; stroke-linejoin:round; stroke-width:2; stroke-opacity:0.1; fill:none" points="
  149.191,351.314 1890.44,351.314 
  "/>
<polyline clip-path="url(#clip870)" style="stroke:#000000; stroke-linecap:butt; stroke-linejoin:round; stroke-width:4; stroke-opacity:1; fill:none" points="
  149.191,1486.45 149.191,151.935 
  "/>
<polyline clip-path="url(#clip870)" style="stroke:#000000; stroke-linecap:butt; stroke-linejoin:round; stroke-width:4; stroke-opacity:1; fill:none" points="
  149.191,1358.49 164.124,1358.49 
  "/>
<polyline clip-path="url(#clip870)" style="stroke:#000000; stroke-linecap:butt; stroke-linejoin:round; stroke-width:4; stroke-opacity:1; fill:none" points="
  149.191,1106.7 164.124,1106.7 
  "/>
<polyline clip-path="url(#clip870)" style="stroke:#000000; stroke-linecap:butt; stroke-linejoin:round; stroke-width:4; stroke-opacity:1; fill:none" points="
  149.191,854.904 164.124,854.904 
  "/>
<polyline clip-path="url(#clip870)" style="stroke:#000000; stroke-linecap:butt; stroke-linejoin:round; stroke-width:4; stroke-opacity:1; fill:none" points="
  149.191,603.109 164.124,603.109 
  "/>
<polyline clip-path="url(#clip870)" style="stroke:#000000; stroke-linecap:butt; stroke-linejoin:round; stroke-width:4; stroke-opacity:1; fill:none" points="
  149.191,351.314 164.124,351.314 
  "/>
<path clip-path="url(#clip870)" d="M50.9921 1358.94 L80.6679 1358.94 L80.6679 1362.88 L50.9921 1362.88 L50.9921 1358.94 Z" fill="#000000" fill-rule="evenodd" fill-opacity="1" /><path clip-path="url(#clip870)" d="M103.608 1345.29 L91.8021 1363.74 L103.608 1363.74 L103.608 1345.29 M102.381 1341.21 L108.26 1341.21 L108.26 1363.74 L113.191 1363.74 L113.191 1367.63 L108.26 1367.63 L108.26 1375.77 L103.608 1375.77 L103.608 1367.63 L88.0058 1367.63 L88.0058 1363.11 L102.381 1341.21 Z" fill="#000000" fill-rule="evenodd" fill-opacity="1" /><path clip-path="url(#clip870)" d="M53.0754 1107.15 L82.7512 1107.15 L82.7512 1111.09 L53.0754 1111.09 L53.0754 1107.15 Z" fill="#000000" fill-rule="evenodd" fill-opacity="1" /><path clip-path="url(#clip870)" d="M96.8715 1120.04 L113.191 1120.04 L113.191 1123.98 L91.2465 1123.98 L91.2465 1120.04 Q93.9086 1117.29 98.4919 1112.66 Q103.098 1108.01 104.279 1106.66 Q106.524 1104.14 107.404 1102.4 Q108.307 1100.65 108.307 1098.96 Q108.307 1096.2 106.362 1094.46 Q104.441 1092.73 101.339 1092.73 Q99.14 1092.73 96.6863 1093.49 Q94.2558 1094.26 91.478 1095.81 L91.478 1091.09 Q94.3021 1089.95 96.7558 1089.37 Q99.2095 1088.79 101.246 1088.79 Q106.617 1088.79 109.811 1091.48 Q113.006 1094.16 113.006 1098.65 Q113.006 1100.78 112.196 1102.71 Q111.408 1104.6 109.302 1107.2 Q108.723 1107.87 105.621 1111.09 Q102.52 1114.28 96.8715 1120.04 Z" fill="#000000" fill-rule="evenodd" fill-opacity="1" /><path clip-path="url(#clip870)" d="M101.246 840.702 Q97.6354 840.702 95.8067 844.267 Q94.0012 847.809 94.0012 854.938 Q94.0012 862.045 95.8067 865.61 Q97.6354 869.151 101.246 869.151 Q104.881 869.151 106.686 865.61 Q108.515 862.045 108.515 854.938 Q108.515 847.809 106.686 844.267 Q104.881 840.702 101.246 840.702 M101.246 836.999 Q107.057 836.999 110.112 841.605 Q113.191 846.188 113.191 854.938 Q113.191 863.665 110.112 868.272 Q107.057 872.855 101.246 872.855 Q95.4363 872.855 92.3576 868.272 Q89.3021 863.665 89.3021 854.938 Q89.3021 846.188 92.3576 841.605 Q95.4363 836.999 101.246 836.999 Z" fill="#000000" fill-rule="evenodd" fill-opacity="1" /><path clip-path="url(#clip870)" d="M96.8715 616.453 L113.191 616.453 L113.191 620.389 L91.2465 620.389 L91.2465 616.453 Q93.9086 613.699 98.4919 609.069 Q103.098 604.417 104.279 603.074 Q106.524 600.551 107.404 598.815 Q108.307 597.055 108.307 595.366 Q108.307 592.611 106.362 590.875 Q104.441 589.139 101.339 589.139 Q99.14 589.139 96.6863 589.903 Q94.2558 590.667 91.478 592.218 L91.478 587.495 Q94.3021 586.361 96.7558 585.782 Q99.2095 585.204 101.246 585.204 Q106.617 585.204 109.811 587.889 Q113.006 590.574 113.006 595.065 Q113.006 597.194 112.196 599.116 Q111.408 601.014 109.302 603.606 Q108.723 604.278 105.621 607.495 Q102.52 610.69 96.8715 616.453 Z" fill="#000000" fill-rule="evenodd" fill-opacity="1" /><path clip-path="url(#clip870)" d="M103.608 338.108 L91.8021 356.557 L103.608 356.557 L103.608 338.108 M102.381 334.034 L108.26 334.034 L108.26 356.557 L113.191 356.557 L113.191 360.446 L108.26 360.446 L108.26 368.594 L103.608 368.594 L103.608 360.446 L88.0058 360.446 L88.0058 355.932 L102.381 334.034 Z" fill="#000000" fill-rule="evenodd" fill-opacity="1" /><path clip-path="url(#clip870)" d="M115.572 45.1402 Q115.572 49.731 112.17 53.9529 Q108.809 58.1748 103.317 60.7571 Q97.8651 63.2984 92.0036 63.2984 L77.7394 63.2984 L72.5337 84.2849 Q72.4927 84.4079 72.3698 84.9408 Q72.2468 85.4326 72.2468 85.7196 Q72.2468 86.7443 73.5175 86.9902 Q74.8291 87.2362 77.7394 87.2362 Q79.6249 87.2362 79.9118 87.5641 Q80.0758 87.769 80.0758 88.1379 Q80.0758 88.7118 79.9118 89.1217 Q79.7478 89.4906 79.4199 89.6136 Q79.133 89.7365 78.9281 89.7775 Q78.7231 89.8185 78.3952 89.8185 Q77.5344 89.8185 75.6899 89.7365 Q73.8864 89.6545 72.9436 89.6545 L67.574 89.5726 L56.9168 89.8185 Q55.6462 89.8185 55.6462 88.7938 Q55.6462 88.015 55.9741 87.6871 Q56.302 87.3182 56.6709 87.2772 Q57.0398 87.2362 57.9825 87.2362 Q60.032 87.2362 61.2617 87.1132 Q62.4914 86.9902 63.2702 86.8263 Q64.0899 86.6213 64.4998 86.0475 Q64.9507 85.4736 65.1557 84.9818 Q65.3606 84.4489 65.6475 83.2602 L76.8786 38.172 Q77.2065 36.8194 77.2065 36.6144 Q77.2065 35.9176 76.7966 35.6717 Q76.4277 35.3847 75.362 35.2618 Q73.3125 35.0978 71.7549 35.0978 Q70.7302 35.0978 70.3203 35.0568 Q69.9514 35.0158 69.6235 34.8109 Q69.3366 34.565 69.3366 34.0731 Q69.3366 33.2943 69.6645 32.9664 Q70.0334 32.5975 70.4433 32.5565 Q70.8532 32.4745 71.8369 32.4745 L99.0538 32.4745 Q106.883 32.4745 111.228 36.2045 Q115.572 39.9345 115.572 45.1402 M107.785 43.1317 Q107.785 35.0978 96.3485 35.0978 L88.3146 35.0978 Q85.6503 35.0978 84.9945 35.5897 Q84.3386 36.0406 83.7648 38.295 L78.0673 61.126 L89.9132 61.126 Q97.8651 61.126 102.825 56.6582 Q105.079 54.6087 106.432 50.3458 Q107.785 46.0829 107.785 43.1317 Z" fill="#000000" fill-rule="evenodd" fill-opacity="1" /><path clip-path="url(#clip870)" d="M152.582 58.1748 Q152.582 60.3472 151.148 61.7408 Q149.754 63.1345 147.951 63.1345 Q146.393 63.1345 145.573 62.2327 Q144.753 61.331 144.753 60.1833 Q144.753 58.5437 146.024 57.191 Q147.295 55.8384 149.139 55.5515 Q147.787 54.5677 145.614 54.5677 Q142.048 54.5677 138.892 57.314 Q137.498 58.5847 135.982 60.9211 Q134.465 63.2165 134.178 64.2002 L131.514 75.1443 Q131.268 76.374 129.751 82.2765 Q128.276 88.1379 128.153 88.3839 Q127.743 89.5316 126.841 90.1464 Q125.939 90.7613 125.038 90.7613 Q124.013 90.7613 123.316 90.1464 Q122.619 89.5316 122.619 88.4659 Q122.619 88.3019 122.742 87.6871 Q122.865 87.0722 123.07 86.2114 Q123.275 85.3507 123.357 84.8588 L128.235 65.4709 Q129.136 61.9458 129.341 60.8391 Q129.587 59.6914 129.587 58.4207 Q129.587 56.2073 128.891 55.3875 Q128.194 54.5677 126.964 54.5677 Q124.833 54.5677 123.439 57.1091 Q122.045 59.6504 120.857 64.5691 Q120.488 65.9218 120.242 66.2087 Q120.037 66.4956 119.422 66.4956 Q118.397 66.4546 118.397 65.6348 Q118.397 65.4299 118.725 64.1182 Q119.053 62.7656 119.668 60.7981 Q120.324 58.7896 121.021 57.5189 Q121.431 56.6582 121.799 56.0843 Q122.168 55.5105 122.906 54.6087 Q123.644 53.7069 124.751 53.2151 Q125.857 52.7232 127.21 52.7232 Q130.161 52.7232 132.252 54.5267 Q134.383 56.3303 134.875 59.1585 Q135.9 57.6829 137.17 56.4122 Q138.441 55.1006 140.777 53.9119 Q143.114 52.7232 145.614 52.7232 Q148.729 52.7232 150.656 54.3218 Q152.582 55.8794 152.582 58.1748 Z" fill="#000000" fill-rule="evenodd" fill-opacity="1" /><path clip-path="url(#clip870)" d="M194.808 66.9055 Q194.808 71.3733 192.841 75.8002 Q190.873 80.186 187.717 83.4652 Q184.602 86.7033 180.503 88.7528 Q176.404 90.7613 172.305 90.7613 Q166.443 90.7613 162.631 86.7853 Q158.86 82.7683 158.86 76.538 Q158.86 70.7175 162.099 65.1839 Q165.378 59.6094 170.624 56.1663 Q175.871 52.7232 181.364 52.7232 Q187.143 52.7232 190.955 56.6172 Q194.808 60.5112 194.808 66.9055 M188.66 63.6264 Q188.66 59.6504 186.733 57.1091 Q184.807 54.5677 181.282 54.5677 Q180.257 54.5677 179.068 54.8956 Q177.879 55.1826 176.322 55.9614 Q174.805 56.7402 173.084 58.3797 Q171.403 59.9783 169.928 62.2737 Q168.001 65.3069 166.525 70.8815 Q165.091 76.415 165.091 79.7351 Q165.091 84.3259 167.222 86.6213 Q169.354 88.8757 172.387 88.8757 Q175.338 88.8757 178.453 86.8263 Q181.609 84.7358 183.782 81.1698 Q185.954 77.4807 187.307 72.0701 Q188.66 66.6186 188.66 63.6264 Z" fill="#000000" fill-rule="evenodd" fill-opacity="1" /><path clip-path="url(#clip870)" d="M230.078 66.1267 Q230.078 72.0292 227.086 77.8086 Q224.135 83.5471 219.38 87.1542 Q214.666 90.7613 209.829 90.7613 Q205.116 90.7613 202.123 87.1542 Q199.172 83.5062 199.172 77.5627 Q199.172 75.4723 199.418 73.9966 Q199.664 72.521 200.525 69.0779 L207.411 41.6971 Q208.6 36.5734 208.6 36.5324 Q208.6 36.0406 208.395 35.7946 Q208.231 35.5077 207.247 35.3028 Q206.263 35.0978 204.378 35.0978 Q203.599 35.0978 203.23 35.0568 Q202.902 35.0158 202.615 34.8109 Q202.369 34.565 202.369 34.0731 Q202.369 33.3763 202.656 33.0074 Q202.984 32.5975 203.23 32.5155 Q203.476 32.4335 203.968 32.3925 Q204.665 32.3515 207.001 32.1466 Q209.338 31.9007 211.346 31.7367 Q213.355 31.5727 214.215 31.5727 Q214.707 31.5727 214.953 31.8187 Q215.24 32.0236 215.24 32.2696 L215.281 32.4745 L209.092 57.7649 Q213.969 52.7232 218.929 52.7232 Q223.889 52.7232 226.963 56.5352 Q230.078 60.3472 230.078 66.1267 M224.012 62.4377 Q224.012 58.5437 222.536 56.5762 Q221.102 54.5677 218.724 54.5677 Q216.716 54.5677 214.092 56.0843 Q211.469 57.6009 208.682 61.29 Q208.149 61.9868 207.944 62.3967 Q207.78 62.8066 207.411 64.2002 L205.567 71.9472 Q204.214 77.2348 204.214 80.432 Q204.214 84.7768 205.813 86.8263 Q207.411 88.8757 209.829 88.8757 Q212.371 88.8757 215.035 86.6213 Q217.699 84.3669 219.749 80.268 Q221.02 77.5627 222.495 71.7422 Q224.012 65.8808 224.012 62.4377 Z" fill="#000000" fill-rule="evenodd" fill-opacity="1" /><path clip-path="url(#clip870)" d="M252.433 32.4745 L240.341 81.0058 Q239.849 82.9323 239.849 85.0228 Q239.849 88.8757 242.39 88.8757 Q243.579 88.8757 244.563 88.097 Q245.547 87.2772 246.284 85.6786 Q247.063 84.039 247.555 82.4814 Q248.088 80.9238 248.744 78.5055 Q248.949 77.5627 249.154 77.2758 Q249.359 76.9889 249.932 76.9889 Q250.957 76.9889 250.957 77.8086 Q249.932 82.8503 248.416 86.0475 Q246.202 90.7613 242.104 90.7613 Q239.029 90.7613 236.734 88.6298 Q234.48 86.4574 234.48 83.0143 Q234.48 81.7026 234.889 80.145 L245.465 38.172 L245.752 36.5324 Q245.752 36.0816 245.588 35.8356 Q245.424 35.5897 244.44 35.3437 Q243.497 35.0978 241.612 35.0978 Q240.833 35.0978 240.464 35.0568 Q240.136 35.0158 239.808 34.8109 Q239.521 34.6059 239.521 34.1551 Q239.521 33.4173 239.808 33.0074 Q240.136 32.5975 240.382 32.5155 Q240.628 32.4335 241.12 32.3925 Q241.817 32.3515 244.153 32.1466 Q246.489 31.9007 248.498 31.7367 Q250.506 31.5727 251.367 31.5727 Q251.859 31.5727 252.105 31.8187 Q252.392 32.0236 252.433 32.2696 L252.433 32.4745 Z" fill="#000000" fill-rule="evenodd" fill-opacity="1" /><path clip-path="url(#clip870)" d="M292.182 80.104 Q292.51 80.4729 292.51 80.8418 Q292.51 81.2108 291.69 82.2765 Q290.911 83.3422 289.231 84.7768 Q287.55 86.2114 285.378 87.5641 Q283.205 88.9167 280.008 89.8185 Q276.811 90.7613 273.45 90.7613 Q267.424 90.7613 263.817 86.4574 Q260.251 82.1535 260.251 75.5542 Q260.251 71.3323 261.645 67.6023 Q263.038 63.8313 265.293 61.167 Q267.588 58.5027 270.457 56.5762 Q273.368 54.6087 276.401 53.666 Q279.434 52.7232 282.262 52.7232 Q286.402 52.7232 288.821 54.8137 Q291.239 56.9041 291.239 59.8553 Q291.239 60.5522 291.034 61.4129 Q290.87 62.2737 290.296 63.6264 Q289.763 64.979 288.37 66.3316 Q286.976 67.6433 284.927 68.5041 Q280.377 70.4306 272.097 70.4306 L267.629 70.4306 Q266.318 75.7182 266.318 79.1613 Q266.318 80.5139 266.563 81.9076 Q266.809 83.2602 267.465 84.9818 Q268.162 86.7033 269.72 87.81 Q271.318 88.8757 273.614 88.8757 Q274.351 88.8757 275.13 88.8348 Q275.95 88.7938 277.999 88.3429 Q280.09 87.892 281.934 87.1132 Q283.779 86.3344 286.115 84.6539 Q288.493 82.9323 290.378 80.5959 Q291.034 79.7351 291.485 79.7351 Q291.854 79.7351 292.182 80.104 M288.452 59.8553 Q288.452 57.6009 286.771 56.0843 Q285.132 54.5677 282.262 54.5677 Q281.361 54.5677 280.254 54.7727 Q279.147 54.9776 277.303 55.8384 Q275.499 56.6992 273.901 58.1338 Q272.302 59.5274 270.703 62.2737 Q269.105 64.979 268.162 68.5861 L271.605 68.5861 Q272.794 68.5861 273.655 68.5861 Q274.515 68.5451 276.401 68.3811 Q278.327 68.2172 279.721 67.9302 Q281.115 67.6023 282.877 66.9465 Q284.64 66.2907 285.746 65.4299 Q286.894 64.5281 287.673 63.0935 Q288.452 61.6589 288.452 59.8553 Z" fill="#000000" fill-rule="evenodd" fill-opacity="1" /><path clip-path="url(#clip870)" d="M366.08 77.8086 Q366.08 78.1366 365.711 79.4072 Q365.342 80.6779 364.44 82.6454 Q363.579 84.6129 362.35 86.4164 Q361.161 88.1789 359.194 89.4906 Q357.267 90.7613 355.054 90.7613 Q352.102 90.7613 350.135 88.7938 Q348.167 86.8263 348.167 83.8751 Q348.167 82.2765 349.274 79.2433 Q354.48 65.3889 354.48 60.4292 Q354.48 54.5677 349.93 54.5677 Q347.348 54.5677 345.011 55.6334 Q342.675 56.6992 341.158 58.1748 Q339.642 59.6504 338.453 61.331 Q337.264 63.0115 336.731 64.1182 Q336.24 65.2249 336.117 65.7168 L331.075 85.9655 Q330.665 87.6871 330.378 88.5068 Q330.091 89.3266 329.312 90.0234 Q328.534 90.7613 327.304 90.7613 Q326.279 90.7613 325.541 90.1464 Q324.844 89.5316 324.844 88.4659 Q324.844 88.3019 325.049 87.4411 Q325.254 86.5803 325.541 85.3917 Q325.828 84.203 325.951 83.5062 Q327.427 77.9316 327.632 77.1528 L329.968 67.3974 Q331.239 62.5606 331.239 60.4292 Q331.239 54.5677 326.689 54.5677 Q324.435 54.5677 322.303 55.4285 Q320.213 56.2483 318.778 57.396 Q317.343 58.5437 316.032 60.1423 Q314.761 61.6999 314.105 62.7656 Q313.49 63.7903 312.999 64.815 L311.933 68.9959 Q311.687 70.1436 310.498 74.6115 L308.654 82.1945 Q307.342 87.851 307.055 88.3839 Q306.645 89.5316 305.743 90.1464 Q304.842 90.7613 303.94 90.7613 Q302.915 90.7613 302.218 90.1464 Q301.522 89.5316 301.522 88.4659 Q301.522 88.3019 301.645 87.6871 Q301.768 87.0722 301.972 86.2114 Q302.177 85.3507 302.259 84.8588 L307.137 65.4709 Q308.039 61.9458 308.244 60.8391 Q308.49 59.6914 308.49 58.4207 Q308.49 54.5677 305.866 54.5677 Q303.735 54.5677 302.341 57.1091 Q300.948 59.6504 299.759 64.5691 Q299.39 65.9218 299.144 66.2087 Q298.939 66.4956 298.324 66.4956 Q297.3 66.4546 297.3 65.6348 Q297.3 65.4299 297.628 64.1182 Q297.956 62.8066 298.57 60.8391 Q299.226 58.8306 299.923 57.5189 Q300.333 56.6582 300.702 56.0843 Q301.071 55.5105 301.809 54.6087 Q302.546 53.7069 303.653 53.2151 Q304.76 52.7232 306.112 52.7232 Q309.105 52.7232 311.318 54.6497 Q313.572 56.5762 313.859 60.0193 Q319.311 52.7232 326.935 52.7232 Q331.239 52.7232 333.821 54.8956 Q336.24 56.9861 336.526 60.8391 Q342.183 52.7232 350.217 52.7232 Q354.849 52.7232 357.349 55.1416 Q359.849 57.5189 359.849 61.6999 Q359.849 63.8723 358.743 68.0122 Q357.636 72.1111 356.898 74.1606 Q356.16 76.2101 354.726 80.145 Q353.209 83.916 353.209 86.1295 Q353.209 87.5641 353.701 88.2199 Q354.193 88.8757 355.259 88.8757 Q356.898 88.8757 358.333 87.933 Q359.767 86.9493 360.792 85.3507 Q361.858 83.7111 362.555 82.0715 Q363.251 80.391 363.784 78.5055 Q364.112 77.4807 364.276 77.2348 Q364.481 76.9889 365.055 76.9889 Q366.08 76.9889 366.08 77.8086 Z" fill="#000000" fill-rule="evenodd" fill-opacity="1" /><path clip-path="url(#clip870)" d="M392.473 41.902 L392.473 39.2787 Q402.556 39.2787 407.762 33.9091 Q409.196 33.9091 409.442 34.237 Q409.688 34.565 409.688 36.0816 L409.688 83.1782 Q409.688 85.6786 410.918 86.4574 Q412.147 87.2362 417.517 87.2362 L420.181 87.2362 L420.181 89.8185 Q417.23 89.5726 406.573 89.5726 Q395.916 89.5726 393.005 89.8185 L393.005 87.2362 L395.67 87.2362 Q400.957 87.2362 402.228 86.4984 Q403.499 85.7196 403.499 83.1782 L403.499 39.6886 Q399.113 41.902 392.473 41.902 Z" fill="#000000" fill-rule="evenodd" fill-opacity="1" /><path clip-path="url(#clip870)" d="M426.814 88.4659 Q425.543 87.1132 425.543 85.3507 Q425.543 83.5881 426.814 82.3175 Q428.084 81.0058 430.011 81.0058 Q431.855 81.0058 433.085 82.2355 Q434.356 83.4242 434.356 85.3917 Q434.356 87.3182 433.003 88.5888 Q431.691 89.8185 430.011 89.8185 Q428.084 89.8185 426.814 88.4659 Z" fill="#000000" fill-rule="evenodd" fill-opacity="1" /><path clip-path="url(#clip870)" d="M440.142 41.902 L440.142 39.2787 Q450.225 39.2787 455.431 33.9091 Q456.866 33.9091 457.112 34.237 Q457.357 34.565 457.357 36.0816 L457.357 83.1782 Q457.357 85.6786 458.587 86.4574 Q459.817 87.2362 465.186 87.2362 L467.851 87.2362 L467.851 89.8185 Q464.899 89.5726 454.242 89.5726 Q443.585 89.5726 440.675 89.8185 L440.675 87.2362 L443.339 87.2362 Q448.627 87.2362 449.897 86.4984 Q451.168 85.7196 451.168 83.1782 L451.168 39.6886 Q446.782 41.902 440.142 41.902 Z" fill="#000000" fill-rule="evenodd" fill-opacity="1" /><path clip-path="url(#clip870)" d="M506.314 88.5478 Q505.003 87.2362 505.003 85.3917 Q505.003 83.5471 506.314 82.2355 Q507.626 80.9238 509.471 80.9238 Q511.315 80.9238 512.627 82.2355 Q513.938 83.5471 513.938 85.3917 Q513.938 87.2362 512.627 88.5478 Q511.315 89.8185 509.471 89.8185 Q507.626 89.8185 506.314 88.5478 M506.314 61.249 Q505.003 59.9373 505.003 58.0928 Q505.003 56.2483 506.314 54.9366 Q507.626 53.625 509.471 53.625 Q511.315 53.625 512.627 54.9366 Q513.938 56.2483 513.938 58.0928 Q513.938 59.9373 512.627 61.249 Q511.315 62.5196 509.471 62.5196 Q507.626 62.5196 506.314 61.249 Z" fill="#000000" fill-rule="evenodd" fill-opacity="1" /><path clip-path="url(#clip870)" d="M615.342 36.4095 Q615.342 38.6639 613.908 40.0575 Q612.514 41.4512 610.752 41.4512 Q609.481 41.4512 608.538 40.6724 Q607.637 39.8936 607.637 38.5409 Q607.637 37.1473 608.702 35.6717 Q609.768 34.196 612.186 33.9911 Q610.588 32.4745 608.046 32.4745 Q606.776 32.4745 605.71 33.2943 Q604.685 34.0731 604.111 35.3437 Q603.497 36.6554 602.103 44.0745 Q601.652 46.4928 601.242 48.8292 Q600.832 51.1656 600.34 53.625 L607.309 53.625 Q608.21 53.625 608.579 53.666 Q608.948 53.7069 609.235 53.9119 Q609.563 54.1168 609.563 54.5677 Q609.563 55.7154 609.03 56.0023 Q608.538 56.2483 607.063 56.2483 L599.849 56.2483 L594.807 82.8503 Q594.684 83.6291 594.151 86.0885 Q593.659 88.5068 592.47 92.4828 Q591.282 96.4998 590.093 98.8771 Q589.437 100.23 588.576 101.5 Q587.757 102.812 586.568 104.124 Q585.379 105.435 583.822 106.214 Q582.264 107.034 580.625 107.034 Q577.837 107.034 575.665 105.476 Q573.492 103.919 573.492 101.255 Q573.492 99.0001 574.886 97.6065 Q576.321 96.2128 578.083 96.2128 Q579.354 96.2128 580.256 96.9916 Q581.198 97.7704 581.198 99.1231 Q581.198 99.6969 580.993 100.353 Q580.789 101.009 580.338 101.746 Q579.887 102.525 578.903 103.058 Q577.919 103.591 576.567 103.673 Q578.165 105.189 580.625 105.189 Q581.403 105.189 582.1 104.862 Q582.797 104.575 583.371 103.837 Q583.986 103.099 584.437 102.361 Q584.887 101.664 585.338 100.312 Q585.789 99.0001 586.076 98.0164 Q586.363 97.0326 586.732 95.2701 Q587.142 93.5075 587.347 92.4418 Q587.552 91.4171 587.921 89.4086 L594.192 56.2483 L588.658 56.2483 Q587.675 56.2483 587.265 56.2073 Q586.896 56.1663 586.609 55.9614 Q586.322 55.7154 586.322 55.2235 Q586.322 54.4448 586.65 54.1168 Q587.019 53.7479 587.429 53.7069 Q587.839 53.625 588.822 53.625 L594.643 53.625 Q596.61 43.2547 597.389 40.4674 Q598.291 37.5162 599.685 35.4667 Q601.078 33.3763 602.636 32.3925 Q604.193 31.4088 605.464 31.0399 Q606.776 30.63 608.046 30.63 Q610.916 30.63 613.129 32.1876 Q615.342 33.7042 615.342 36.4095 Z" fill="#000000" fill-rule="evenodd" fill-opacity="1" /><path clip-path="url(#clip870)" d="M626.642 68.832 Q626.642 54.6497 631.93 43.2137 Q634.184 38.4179 637.34 34.401 Q640.497 30.384 642.587 28.6215 Q644.678 26.859 645.251 26.859 Q646.071 26.859 646.112 27.6788 Q646.112 28.0886 645.005 29.1134 Q631.479 42.8858 631.52 68.832 Q631.52 94.8602 644.678 108.1 Q646.112 109.534 646.112 109.985 Q646.112 110.805 645.251 110.805 Q644.678 110.805 642.669 109.124 Q640.661 107.444 637.545 103.591 Q634.43 99.7379 632.176 95.0241 Q626.642 83.5881 626.642 68.832 Z" fill="#000000" fill-rule="evenodd" fill-opacity="1" /><path clip-path="url(#clip870)" d="M694.301 58.2568 Q694.301 60.5522 692.866 61.8638 Q691.431 63.1345 689.792 63.1345 Q688.234 63.1345 687.414 62.2327 Q686.595 61.331 686.595 60.1833 Q686.595 58.6257 687.742 57.273 Q688.89 55.9204 690.611 55.6334 Q688.931 54.5677 686.431 54.5677 Q684.791 54.5677 683.356 55.4285 Q681.963 56.2893 681.102 57.396 Q680.282 58.5027 679.544 60.1013 Q678.848 61.6589 678.561 62.6016 Q678.315 63.5034 678.11 64.4871 L675.241 75.9641 Q673.847 81.4157 673.847 83.3422 Q673.847 85.7196 674.995 87.3182 Q676.142 88.8757 678.438 88.8757 Q679.339 88.8757 680.364 88.6298 Q681.389 88.3429 682.701 87.6051 Q684.053 86.8263 685.242 85.6786 Q686.472 84.4899 687.66 82.4814 Q688.849 80.4729 689.628 77.8906 Q689.874 76.9889 690.693 76.9889 Q691.718 76.9889 691.718 77.8086 Q691.718 78.5055 691.144 79.9811 Q690.611 81.4157 689.423 83.3012 Q688.275 85.1457 686.758 86.8263 Q685.242 88.4659 682.987 89.6136 Q680.733 90.7613 678.274 90.7613 Q674.749 90.7613 672.412 88.8757 Q670.076 86.9902 669.215 84.3669 Q669.01 84.7358 668.723 85.2277 Q668.436 85.7196 667.576 86.8263 Q666.756 87.892 665.813 88.7118 Q664.87 89.4906 663.395 90.1054 Q661.96 90.7613 660.402 90.7613 Q658.435 90.7613 656.672 90.1874 Q654.951 89.6136 653.721 88.3019 Q652.491 86.9902 652.491 85.1867 Q652.491 83.1782 653.844 81.7846 Q655.238 80.35 657.123 80.35 Q658.312 80.35 659.255 81.0468 Q660.238 81.7436 660.238 83.2602 Q660.238 84.9408 659.091 86.2114 Q657.943 87.4821 656.303 87.81 Q657.984 88.8757 660.484 88.8757 Q663.19 88.8757 665.321 86.4984 Q667.453 84.121 668.477 80.145 Q671.019 70.5945 672.002 66.3316 Q672.986 62.0278 672.986 60.1833 Q672.986 58.4617 672.535 57.273 Q672.084 56.0843 671.306 55.5515 Q670.568 54.9776 669.871 54.7727 Q669.215 54.5677 668.477 54.5677 Q667.248 54.5677 665.854 55.0596 Q664.501 55.5515 662.862 56.6992 Q661.263 57.8059 659.747 60.1013 Q658.23 62.3967 657.205 65.5528 Q657 66.4956 656.099 66.4956 Q655.115 66.4546 655.115 65.6348 Q655.115 64.938 655.648 63.5034 Q656.221 62.0278 657.369 60.1833 Q658.558 58.3387 660.074 56.6992 Q661.632 55.0186 663.886 53.8709 Q666.182 52.7232 668.641 52.7232 Q669.748 52.7232 670.814 52.9691 Q671.92 53.1741 673.232 53.7889 Q674.585 54.4038 675.773 55.7564 Q676.962 57.1091 677.7 59.0765 Q678.192 58.1338 678.848 57.232 Q679.544 56.3303 680.61 55.2235 Q681.717 54.0758 683.233 53.42 Q684.791 52.7232 686.513 52.7232 Q688.193 52.7232 689.833 53.1741 Q691.472 53.584 692.866 54.9366 Q694.301 56.2483 694.301 58.2568 Z" fill="#000000" fill-rule="evenodd" fill-opacity="1" /><path clip-path="url(#clip870)" d="M702.381 109.985 Q702.381 109.575 703.447 108.551 Q716.974 94.7782 716.974 68.832 Q716.974 42.8038 703.98 29.6462 Q702.381 28.1296 702.381 27.6788 Q702.381 26.859 703.201 26.859 Q703.775 26.859 705.783 28.5395 Q707.833 30.2201 710.907 34.0731 Q714.022 37.9261 716.318 42.6398 Q721.851 54.0758 721.851 68.832 Q721.851 83.0143 716.564 94.4503 Q714.309 99.246 711.153 103.263 Q707.997 107.28 705.906 109.042 Q703.816 110.805 703.201 110.805 Q702.381 110.805 702.381 109.985 Z" fill="#000000" fill-rule="evenodd" fill-opacity="1" /><path clip-path="url(#clip870)" d="M757.905 77.0708 Q757.987 76.0461 759.586 76.0461 L811.027 76.0461 Q813.446 76.0461 813.487 76.9889 Q813.487 78.0136 811.191 77.9726 L760.16 77.9726 Q757.905 78.0136 757.905 77.0708 M757.905 60.6751 Q757.905 59.6504 759.668 59.6914 L810.945 59.6914 Q813.446 59.6914 813.487 60.6751 Q813.487 61.6179 811.355 61.6179 L759.586 61.6179 Q757.905 61.6179 757.905 60.6751 Z" fill="#000000" fill-rule="evenodd" fill-opacity="1" /><path clip-path="url(#clip870)" d="M851.194 85.2277 Q845.865 79.6532 845.865 71.7012 Q845.865 63.7083 851.112 57.9698 Q856.358 52.1903 864.064 52.1903 Q869.188 52.1903 873.041 54.6497 Q876.894 57.0681 876.894 61.208 Q876.894 63.0525 875.787 64.1182 Q874.722 65.143 873.041 65.143 Q871.278 65.143 870.213 64.0772 Q869.188 62.9705 869.188 61.29 Q869.188 60.5522 869.434 59.8143 Q869.68 59.0765 870.582 58.2977 Q871.524 57.5189 873.123 57.396 Q870.131 54.3218 864.31 54.3218 Q864.228 54.3218 864.146 54.3218 Q859.883 54.3218 856.358 58.3387 Q852.833 62.3557 852.833 71.5373 Q852.833 76.333 853.981 79.8581 Q855.17 83.3422 857.096 85.1457 Q859.023 86.9493 860.908 87.81 Q862.794 88.6298 864.638 88.6298 Q872.877 88.6298 875.664 79.8171 Q875.91 78.9973 876.73 78.9973 Q877.837 78.9973 877.837 79.8171 Q877.837 80.227 877.509 81.2927 Q877.181 82.3585 876.156 84.039 Q875.131 85.7196 873.656 87.1952 Q872.221 88.6298 869.639 89.6955 Q867.098 90.7613 863.9 90.7613 Q856.522 90.7613 851.194 85.2277 Z" fill="#000000" fill-rule="evenodd" fill-opacity="1" /><path clip-path="url(#clip870)" d="M887.628 85.3097 Q882.095 79.8171 882.095 71.8652 Q882.095 63.8723 887.505 58.0518 Q892.957 52.1903 900.745 52.1903 Q908.369 52.1903 913.821 58.0108 Q919.313 63.7903 919.313 71.8652 Q919.313 79.7761 913.78 85.2687 Q908.287 90.7613 900.663 90.7613 Q893.203 90.7613 887.628 85.3097 M889.063 71.1684 Q889.063 79.3252 891.194 83.0143 Q894.474 88.6298 900.745 88.6298 Q903.86 88.6298 906.442 86.9493 Q909.066 85.2687 910.5 82.4404 Q912.345 78.7514 912.345 71.1684 Q912.345 63.0935 910.131 59.5274 Q906.852 54.0758 900.663 54.0758 Q897.958 54.0758 895.293 55.5105 Q892.67 56.9041 891.071 59.6914 Q889.063 63.3804 889.063 71.1684 Z" fill="#000000" fill-rule="evenodd" fill-opacity="1" /><path clip-path="url(#clip870)" d="M923.665 88.7118 L923.665 77.6447 Q923.665 76.7019 923.706 76.374 Q923.747 76.0461 923.993 75.8002 Q924.239 75.5542 924.731 75.5542 Q925.305 75.5542 925.51 75.8002 Q925.756 76.0461 925.92 76.9889 Q927.19 82.7683 929.896 85.8425 Q932.642 88.8757 937.601 88.8757 Q942.315 88.8757 944.693 86.7853 Q947.07 84.6948 947.07 81.2517 Q947.07 75.1033 938.339 73.5458 Q933.298 72.521 931.207 71.8652 Q929.117 71.1684 927.272 69.6518 Q923.665 66.7005 923.665 62.5196 Q923.665 58.3387 926.821 55.2645 Q930.018 52.1903 937.069 52.1903 Q941.782 52.1903 944.98 54.5677 Q945.922 53.8299 946.414 53.2151 Q947.521 52.1903 948.095 52.1903 Q948.751 52.1903 948.874 52.6412 Q948.997 53.0511 948.997 54.2398 L948.997 62.6836 Q948.997 63.6264 948.956 63.9543 Q948.915 64.2822 948.669 64.5281 Q948.423 64.7331 947.89 64.7331 Q946.947 64.7331 946.906 63.9543 Q946.25 53.7889 937.069 53.7889 Q932.109 53.7889 929.896 55.7154 Q927.682 57.6009 927.682 60.1833 Q927.682 61.6179 928.338 62.7246 Q929.035 63.7903 929.896 64.4461 Q930.797 65.061 932.437 65.6758 Q934.076 66.2497 935.06 66.4546 Q936.085 66.6596 938.011 67.0695 Q944.734 68.3401 947.562 71.0864 Q951.087 74.6115 951.087 79.0793 Q951.087 84.039 947.726 87.4001 Q944.365 90.7613 937.601 90.7613 Q932.15 90.7613 928.338 87.1132 Q927.846 87.6051 927.477 88.056 Q927.108 88.4659 926.944 88.6298 Q926.821 88.7938 926.78 88.9167 Q926.739 88.9987 926.657 89.0807 Q924.977 90.7613 924.567 90.7613 Q923.911 90.7613 923.788 90.3104 Q923.665 89.9005 923.665 88.7118 Z" fill="#000000" fill-rule="evenodd" fill-opacity="1" /><path clip-path="url(#clip870)" d="M998.195 58.2568 Q998.195 60.5522 996.76 61.8638 Q995.325 63.1345 993.686 63.1345 Q992.128 63.1345 991.308 62.2327 Q990.489 61.331 990.489 60.1833 Q990.489 58.6257 991.636 57.273 Q992.784 55.9204 994.506 55.6334 Q992.825 54.5677 990.325 54.5677 Q988.685 54.5677 987.25 55.4285 Q985.857 56.2893 984.996 57.396 Q984.176 58.5027 983.438 60.1013 Q982.742 61.6589 982.455 62.6016 Q982.209 63.5034 982.004 64.4871 L979.135 75.9641 Q977.741 81.4157 977.741 83.3422 Q977.741 85.7196 978.889 87.3182 Q980.036 88.8757 982.332 88.8757 Q983.233 88.8757 984.258 88.6298 Q985.283 88.3429 986.595 87.6051 Q987.947 86.8263 989.136 85.6786 Q990.366 84.4899 991.554 82.4814 Q992.743 80.4729 993.522 77.8906 Q993.768 76.9889 994.588 76.9889 Q995.612 76.9889 995.612 77.8086 Q995.612 78.5055 995.038 79.9811 Q994.506 81.4157 993.317 83.3012 Q992.169 85.1457 990.653 86.8263 Q989.136 88.4659 986.882 89.6136 Q984.627 90.7613 982.168 90.7613 Q978.643 90.7613 976.306 88.8757 Q973.97 86.9902 973.109 84.3669 Q972.904 84.7358 972.617 85.2277 Q972.33 85.7196 971.47 86.8263 Q970.65 87.892 969.707 88.7118 Q968.764 89.4906 967.289 90.1054 Q965.854 90.7613 964.296 90.7613 Q962.329 90.7613 960.566 90.1874 Q958.845 89.6136 957.615 88.3019 Q956.386 86.9902 956.386 85.1867 Q956.386 83.1782 957.738 81.7846 Q959.132 80.35 961.017 80.35 Q962.206 80.35 963.149 81.0468 Q964.132 81.7436 964.132 83.2602 Q964.132 84.9408 962.985 86.2114 Q961.837 87.4821 960.198 87.81 Q961.878 88.8757 964.378 88.8757 Q967.084 88.8757 969.215 86.4984 Q971.347 84.121 972.371 80.145 Q974.913 70.5945 975.896 66.3316 Q976.88 62.0278 976.88 60.1833 Q976.88 58.4617 976.429 57.273 Q975.978 56.0843 975.2 55.5515 Q974.462 54.9776 973.765 54.7727 Q973.109 54.5677 972.371 54.5677 Q971.142 54.5677 969.748 55.0596 Q968.395 55.5515 966.756 56.6992 Q965.157 57.8059 963.641 60.1013 Q962.124 62.3967 961.099 65.5528 Q960.894 66.4956 959.993 66.4956 Q959.009 66.4546 959.009 65.6348 Q959.009 64.938 959.542 63.5034 Q960.116 62.0278 961.263 60.1833 Q962.452 58.3387 963.969 56.6992 Q965.526 55.0186 967.781 53.8709 Q970.076 52.7232 972.535 52.7232 Q973.642 52.7232 974.708 52.9691 Q975.814 53.1741 977.126 53.7889 Q978.479 54.4038 979.667 55.7564 Q980.856 57.1091 981.594 59.0765 Q982.086 58.1338 982.742 57.232 Q983.438 56.3303 984.504 55.2235 Q985.611 54.0758 987.127 53.42 Q988.685 52.7232 990.407 52.7232 Q992.087 52.7232 993.727 53.1741 Q995.366 53.584 996.76 54.9366 Q998.195 56.2483 998.195 58.2568 Z" fill="#000000" fill-rule="evenodd" fill-opacity="1" /><path clip-path="url(#clip870)" d="M1082.63 67.6433 Q1083.12 68.1352 1083.12 68.832 Q1083.12 69.5288 1082.63 70.0207 Q1082.14 70.5126 1081.44 70.5126 L1028.89 70.5126 Q1028.2 70.5126 1027.71 70.0207 Q1027.21 69.5288 1027.21 68.832 Q1027.21 68.1352 1027.71 67.6433 Q1028.2 67.1514 1028.89 67.1514 L1081.44 67.1514 Q1082.14 67.1514 1082.63 67.6433 Z" fill="#000000" fill-rule="evenodd" fill-opacity="1" /><path clip-path="url(#clip870)" d="M1156.98 58.2568 Q1156.98 60.5522 1155.55 61.8638 Q1154.11 63.1345 1152.47 63.1345 Q1150.92 63.1345 1150.1 62.2327 Q1149.28 61.331 1149.28 60.1833 Q1149.28 58.6257 1150.42 57.273 Q1151.57 55.9204 1153.29 55.6334 Q1151.61 54.5677 1149.11 54.5677 Q1147.47 54.5677 1146.04 55.4285 Q1144.65 56.2893 1143.78 57.396 Q1142.96 58.5027 1142.23 60.1013 Q1141.53 61.6589 1141.24 62.6016 Q1141 63.5034 1140.79 64.4871 L1137.92 75.9641 Q1136.53 81.4157 1136.53 83.3422 Q1136.53 85.7196 1137.68 87.3182 Q1138.82 88.8757 1141.12 88.8757 Q1142.02 88.8757 1143.05 88.6298 Q1144.07 88.3429 1145.38 87.6051 Q1146.74 86.8263 1147.92 85.6786 Q1149.15 84.4899 1150.34 82.4814 Q1151.53 80.4729 1152.31 77.8906 Q1152.56 76.9889 1153.38 76.9889 Q1154.4 76.9889 1154.4 77.8086 Q1154.4 78.5055 1153.83 79.9811 Q1153.29 81.4157 1152.11 83.3012 Q1150.96 85.1457 1149.44 86.8263 Q1147.92 88.4659 1145.67 89.6136 Q1143.42 90.7613 1140.96 90.7613 Q1137.43 90.7613 1135.09 88.8757 Q1132.76 86.9902 1131.9 84.3669 Q1131.69 84.7358 1131.41 85.2277 Q1131.12 85.7196 1130.26 86.8263 Q1129.44 87.892 1128.5 88.7118 Q1127.55 89.4906 1126.08 90.1054 Q1124.64 90.7613 1123.08 90.7613 Q1121.12 90.7613 1119.35 90.1874 Q1117.63 89.6136 1116.4 88.3019 Q1115.17 86.9902 1115.17 85.1867 Q1115.17 83.1782 1116.53 81.7846 Q1117.92 80.35 1119.81 80.35 Q1120.99 80.35 1121.94 81.0468 Q1122.92 81.7436 1122.92 83.2602 Q1122.92 84.9408 1121.77 86.2114 Q1120.63 87.4821 1118.99 87.81 Q1120.67 88.8757 1123.17 88.8757 Q1125.87 88.8757 1128 86.4984 Q1130.13 84.121 1131.16 80.145 Q1133.7 70.5945 1134.68 66.3316 Q1135.67 62.0278 1135.67 60.1833 Q1135.67 58.4617 1135.22 57.273 Q1134.77 56.0843 1133.99 55.5515 Q1133.25 54.9776 1132.55 54.7727 Q1131.9 54.5677 1131.16 54.5677 Q1129.93 54.5677 1128.54 55.0596 Q1127.18 55.5515 1125.54 56.6992 Q1123.95 57.8059 1122.43 60.1013 Q1120.91 62.3967 1119.89 65.5528 Q1119.68 66.4956 1118.78 66.4956 Q1117.8 66.4546 1117.8 65.6348 Q1117.8 64.938 1118.33 63.5034 Q1118.9 62.0278 1120.05 60.1833 Q1121.24 58.3387 1122.76 56.6992 Q1124.31 55.0186 1126.57 53.8709 Q1128.86 52.7232 1131.32 52.7232 Q1132.43 52.7232 1133.5 52.9691 Q1134.6 53.1741 1135.91 53.7889 Q1137.27 54.4038 1138.46 55.7564 Q1139.64 57.1091 1140.38 59.0765 Q1140.87 58.1338 1141.53 57.232 Q1142.23 56.3303 1143.29 55.2235 Q1144.4 54.0758 1145.92 53.42 Q1147.47 52.7232 1149.19 52.7232 Q1150.88 52.7232 1152.52 53.1741 Q1154.15 53.584 1155.55 54.9366 Q1156.98 56.2483 1156.98 58.2568 Z" fill="#000000" fill-rule="evenodd" fill-opacity="1" /><path clip-path="url(#clip870)" d="M1186 77.0708 Q1186.08 76.0461 1187.68 76.0461 L1239.12 76.0461 Q1241.54 76.0461 1241.58 76.9889 Q1241.58 78.0136 1239.29 77.9726 L1188.26 77.9726 Q1186 78.0136 1186 77.0708 M1186 60.6751 Q1186 59.6504 1187.76 59.6914 L1239.04 59.6914 Q1241.54 59.6914 1241.58 60.6751 Q1241.58 61.6179 1239.45 61.6179 L1187.68 61.6179 Q1186 61.6179 1186 60.6751 Z" fill="#000000" fill-rule="evenodd" fill-opacity="1" /><path clip-path="url(#clip870)" d="M1273.96 62.9705 Q1273.96 50.6328 1277.08 43.9105 Q1281.42 33.9091 1291.67 33.9091 Q1293.84 33.9091 1296.1 34.524 Q1298.39 35.0978 1301.26 37.3522 Q1304.17 39.6066 1305.93 43.2957 Q1309.3 50.4278 1309.3 62.9705 Q1309.3 75.2263 1306.18 81.9076 Q1301.63 91.663 1291.59 91.663 Q1287.82 91.663 1283.96 89.7365 Q1280.15 87.81 1277.73 83.1782 Q1273.96 76.251 1273.96 62.9705 M1280.93 61.9458 Q1280.93 74.6115 1281.83 79.6532 Q1282.86 85.1047 1285.64 87.4821 Q1288.47 89.8185 1291.59 89.8185 Q1294.95 89.8185 1297.74 87.3182 Q1300.56 84.7768 1301.43 79.3252 Q1302.37 73.9556 1302.33 61.9458 Q1302.33 50.2638 1301.51 45.5911 Q1300.4 40.1395 1297.45 37.9671 Q1294.54 35.7536 1291.59 35.7536 Q1290.48 35.7536 1289.29 36.0816 Q1288.14 36.4095 1286.46 37.3522 Q1284.78 38.295 1283.47 40.6314 Q1282.2 42.9678 1281.59 46.4928 Q1280.93 51.0426 1280.93 61.9458 Z" fill="#000000" fill-rule="evenodd" fill-opacity="1" /><path clip-path="url(#clip870)" d="M1316.72 88.4659 Q1315.53 87.1132 1315.53 85.3507 Q1315.53 83.5881 1316.68 82.2765 Q1317.87 80.9238 1320 80.9238 Q1322.5 80.9238 1323.94 83.3422 Q1325.37 85.7196 1325.37 89.7365 Q1325.37 94.0814 1323.61 98.0983 Q1321.84 102.156 1320.12 104.083 Q1318.4 106.009 1317.71 106.009 Q1316.89 106.009 1316.89 105.108 Q1316.89 104.78 1317.46 104.165 Q1323.48 97.6884 1323.53 89.7365 Q1323.53 88.4659 1323.36 88.4659 L1323.16 88.6298 Q1321.72 89.8185 1320 89.8185 Q1317.91 89.8185 1316.72 88.4659 Z" fill="#000000" fill-rule="evenodd" fill-opacity="1" /><path clip-path="url(#clip870)" d="M1482.39 58.2568 Q1482.39 60.5522 1480.96 61.8638 Q1479.52 63.1345 1477.88 63.1345 Q1476.33 63.1345 1475.51 62.2327 Q1474.69 61.331 1474.69 60.1833 Q1474.69 58.6257 1475.84 57.273 Q1476.98 55.9204 1478.7 55.6334 Q1477.02 54.5677 1474.52 54.5677 Q1472.88 54.5677 1471.45 55.4285 Q1470.06 56.2893 1469.19 57.396 Q1468.37 58.5027 1467.64 60.1013 Q1466.94 61.6589 1466.65 62.6016 Q1466.41 63.5034 1466.2 64.4871 L1463.33 75.9641 Q1461.94 81.4157 1461.94 83.3422 Q1461.94 85.7196 1463.09 87.3182 Q1464.24 88.8757 1466.53 88.8757 Q1467.43 88.8757 1468.46 88.6298 Q1469.48 88.3429 1470.79 87.6051 Q1472.15 86.8263 1473.33 85.6786 Q1474.56 84.4899 1475.75 82.4814 Q1476.94 80.4729 1477.72 77.8906 Q1477.97 76.9889 1478.79 76.9889 Q1479.81 76.9889 1479.81 77.8086 Q1479.81 78.5055 1479.24 79.9811 Q1478.7 81.4157 1477.52 83.3012 Q1476.37 85.1457 1474.85 86.8263 Q1473.33 88.4659 1471.08 89.6136 Q1468.83 90.7613 1466.37 90.7613 Q1462.84 90.7613 1460.51 88.8757 Q1458.17 86.9902 1457.31 84.3669 Q1457.1 84.7358 1456.82 85.2277 Q1456.53 85.7196 1455.67 86.8263 Q1454.85 87.892 1453.91 88.7118 Q1452.96 89.4906 1451.49 90.1054 Q1450.05 90.7613 1448.5 90.7613 Q1446.53 90.7613 1444.77 90.1874 Q1443.04 89.6136 1441.81 88.3019 Q1440.58 86.9902 1440.58 85.1867 Q1440.58 83.1782 1441.94 81.7846 Q1443.33 80.35 1445.22 80.35 Q1446.4 80.35 1447.35 81.0468 Q1448.33 81.7436 1448.33 83.2602 Q1448.33 84.9408 1447.18 86.2114 Q1446.04 87.4821 1444.4 87.81 Q1446.08 88.8757 1448.58 88.8757 Q1451.28 88.8757 1453.41 86.4984 Q1455.55 84.121 1456.57 80.145 Q1459.11 70.5945 1460.1 66.3316 Q1461.08 62.0278 1461.08 60.1833 Q1461.08 58.4617 1460.63 57.273 Q1460.18 56.0843 1459.4 55.5515 Q1458.66 54.9776 1457.96 54.7727 Q1457.31 54.5677 1456.57 54.5677 Q1455.34 54.5677 1453.95 55.0596 Q1452.59 55.5515 1450.95 56.6992 Q1449.36 57.8059 1447.84 60.1013 Q1446.32 62.3967 1445.3 65.5528 Q1445.09 66.4956 1444.19 66.4956 Q1443.21 66.4546 1443.21 65.6348 Q1443.21 64.938 1443.74 63.5034 Q1444.31 62.0278 1445.46 60.1833 Q1446.65 58.3387 1448.17 56.6992 Q1449.72 55.0186 1451.98 53.8709 Q1454.27 52.7232 1456.73 52.7232 Q1457.84 52.7232 1458.91 52.9691 Q1460.01 53.1741 1461.32 53.7889 Q1462.68 54.4038 1463.87 55.7564 Q1465.05 57.1091 1465.79 59.0765 Q1466.28 58.1338 1466.94 57.232 Q1467.64 56.3303 1468.7 55.2235 Q1469.81 54.0758 1471.33 53.42 Q1472.88 52.7232 1474.61 52.7232 Q1476.29 52.7232 1477.93 53.1741 Q1479.57 53.584 1480.96 54.9366 Q1482.39 56.2483 1482.39 58.2568 Z" fill="#000000" fill-rule="evenodd" fill-opacity="1" /><path clip-path="url(#clip870)" d="M1490.95 95.2199 Q1490.95 86.5835 1493.13 81.8779 Q1496.17 74.8769 1503.35 74.8769 Q1504.87 74.8769 1506.44 75.3073 Q1508.05 75.709 1510.06 77.2871 Q1512.1 78.8652 1513.33 81.4475 Q1515.68 86.44 1515.68 95.2199 Q1515.68 103.799 1513.5 108.476 Q1510.32 115.305 1503.29 115.305 Q1500.65 115.305 1497.95 113.956 Q1495.28 112.608 1493.59 109.365 Q1490.95 104.516 1490.95 95.2199 M1495.83 94.5026 Q1495.83 103.369 1496.46 106.898 Q1497.18 110.714 1499.13 112.378 Q1501.11 114.014 1503.29 114.014 Q1505.64 114.014 1507.59 112.263 Q1509.57 110.484 1510.17 106.668 Q1510.83 102.91 1510.81 94.5026 Q1510.81 86.3252 1510.23 83.0543 Q1509.46 79.2382 1507.39 77.7175 Q1505.35 76.1681 1503.29 76.1681 Q1502.51 76.1681 1501.68 76.3976 Q1500.88 76.6272 1499.7 77.2871 Q1498.53 77.947 1497.61 79.5825 Q1496.72 81.218 1496.29 83.6855 Q1495.83 86.8704 1495.83 94.5026 Z" fill="#000000" fill-rule="evenodd" fill-opacity="1" /><path clip-path="url(#clip870)" d="M1547.69 77.0708 Q1547.77 76.0461 1549.37 76.0461 L1600.81 76.0461 Q1603.23 76.0461 1603.27 76.9889 Q1603.27 78.0136 1600.98 77.9726 L1549.94 77.9726 Q1547.69 78.0136 1547.69 77.0708 M1547.69 60.6751 Q1547.69 59.6504 1549.45 59.6914 L1600.73 59.6914 Q1603.23 59.6914 1603.27 60.6751 Q1603.27 61.6179 1601.14 61.6179 L1549.37 61.6179 Q1547.69 61.6179 1547.69 60.6751 Z" fill="#000000" fill-rule="evenodd" fill-opacity="1" /><path clip-path="url(#clip870)" d="M1698.9 13.7547 Q1698.9 16.6239 1694.81 16.6239 L1685.21 16.6239 Q1683.74 23.4282 1683.74 29.9864 Q1683.74 37.8154 1686.16 43.8408 Q1686.65 45.0295 1686.65 45.6853 Q1686.65 46.915 1685.54 47.8988 Q1684.48 48.8825 1683.21 48.8825 Q1682.14 48.8825 1681.44 48.0627 Q1680.79 47.2429 1680.21 44.6606 Q1679.52 41.6274 1679.52 38.2663 Q1679.52 34.2493 1680.17 30.3963 Q1680.83 26.5024 1683.04 16.6239 L1673.57 16.6239 L1668.86 35.1921 Q1667.18 41.4634 1666.6 43.3899 Q1666.24 44.5376 1666.11 44.9065 Q1665.99 45.2754 1665.62 46.1772 Q1665.29 47.038 1665.05 47.3659 Q1664.8 47.6528 1664.39 48.1037 Q1663.98 48.5956 1663.49 48.7185 Q1663 48.8825 1662.38 48.8825 Q1661.44 48.8825 1660.7 48.2677 Q1659.96 47.6938 1659.96 46.5871 Q1659.96 45.8493 1660.62 44.5786 Q1668.41 27.773 1671.36 16.6239 L1666.6 16.6239 Q1660.05 16.6239 1655.95 23.1002 Q1655.29 23.961 1654.92 24.043 Q1654.76 24.084 1654.59 24.084 Q1654.14 24.084 1653.86 23.879 Q1653.61 23.6741 1653.61 23.4692 L1653.57 23.2642 Q1653.57 23.0183 1654.18 21.9116 Q1654.84 20.7639 1656.07 19.0013 Q1657.34 17.2388 1658.69 15.7222 Q1660.01 14.3285 1661.28 13.4678 Q1662.59 12.566 1663.82 12.2381 Q1665.05 11.9102 1665.74 11.8282 Q1666.44 11.7462 1667.42 11.7462 L1695.54 11.7462 Q1696.61 11.7462 1697.18 11.8282 Q1697.76 11.8692 1698.33 12.3611 Q1698.9 12.8119 1698.9 13.7547 Z" fill="#000000" fill-rule="evenodd" fill-opacity="1" /><path clip-path="url(#clip870)" d="
M1653.57 71.2773 L1707.42 71.2773 L1707.42 66.7973 L1653.57 66.7973  Z
  " fill="#000000" fill-rule="evenodd" fill-opacity="1"/>
<path clip-path="url(#clip870)" d="M1657.57 131.655 L1657.57 129.073 L1683.35 89.6824 Q1684.01 88.6576 1685.03 88.6986 Q1685.98 88.6986 1686.18 89.0675 Q1686.39 89.4364 1686.39 90.871 L1686.39 129.073 L1694.79 129.073 L1694.79 131.655 L1686.39 131.655 L1686.39 138.951 Q1686.39 141.37 1687.37 142.149 Q1688.39 142.927 1692.74 142.927 L1694.5 142.927 L1694.5 145.51 Q1691.06 145.264 1683.11 145.264 Q1675.2 145.264 1671.75 145.51 L1671.75 142.927 L1673.51 142.927 Q1677.86 142.927 1678.88 142.19 Q1679.91 141.411 1679.91 138.951 L1679.91 131.655 L1657.57 131.655 M1659.95 129.073 L1680.4 129.073 L1680.4 97.7572 L1659.95 129.073 Z" fill="#000000" fill-rule="evenodd" fill-opacity="1" /><path clip-path="url(#clip870)" d="M1795.13 53.0511 L1795.13 53.2151 Q1793.82 59.3635 1791.15 62.7656 Q1788.53 66.1677 1783.49 67.3974 Q1782.22 67.7253 1780.54 67.7253 Q1776.97 67.7253 1773.49 66.0447 Q1770 64.3232 1766.11 61.3719 Q1763.69 59.5684 1762.3 58.6257 Q1760.9 57.6829 1758.65 56.7402 Q1756.44 55.7564 1754.51 55.7564 Q1753.44 55.7564 1752.34 56.0023 Q1747.87 57.15 1745.25 59.5274 Q1742.66 61.9048 1741.68 66.4136 Q1741.52 67.1514 1740.65 67.1514 Q1740.24 67.1514 1739.96 66.8645 Q1739.67 66.5776 1739.67 66.1267 L1739.67 65.9627 Q1740.98 59.8143 1743.61 56.4122 Q1746.27 53.0101 1751.31 51.7804 Q1752.66 51.4525 1754.26 51.4525 Q1757.79 51.4525 1761.27 53.1741 Q1764.76 54.8546 1768.69 57.8469 Q1770.5 59.1995 1771.52 59.9373 Q1772.59 60.6341 1774.23 61.6179 Q1775.86 62.6016 1777.38 63.0525 Q1778.9 63.4624 1780.37 63.4624 Q1781.36 63.4624 1782.46 63.2165 Q1786.93 62.0688 1789.51 59.6914 Q1792.14 57.314 1793.12 52.8052 Q1793.45 52.0264 1794.15 52.0264 Q1794.56 52.0264 1794.84 52.3133 Q1795.13 52.6002 1795.13 53.0511 M1795.13 71.5373 L1795.13 71.7012 Q1793.82 77.8496 1791.15 81.2517 Q1788.53 84.6539 1783.49 85.8835 Q1782.22 86.2114 1780.54 86.2114 Q1777.01 86.2114 1773.53 84.5309 Q1770.04 82.8093 1766.11 79.8171 Q1763.69 78.0136 1762.3 77.0708 Q1760.9 76.1281 1758.65 75.1853 Q1756.44 74.2016 1754.51 74.2016 Q1753.44 74.2016 1752.34 74.4475 Q1747.87 75.5952 1745.25 77.9726 Q1742.66 80.35 1741.68 84.8588 Q1741.52 85.6376 1740.65 85.6376 Q1740.24 85.6376 1739.96 85.3507 Q1739.67 85.0637 1739.67 84.6129 L1739.67 84.4489 Q1740.98 78.3005 1743.61 74.8984 Q1746.27 71.4963 1751.31 70.2666 Q1752.66 69.9387 1754.26 69.9387 Q1757.83 69.9387 1761.31 71.6602 Q1764.8 73.3408 1768.69 76.292 Q1770.5 77.6447 1771.52 78.3825 Q1772.59 79.0793 1774.23 80.0631 Q1775.86 81.0468 1777.38 81.4977 Q1778.9 81.9076 1780.37 81.9076 Q1781.36 81.9076 1782.46 81.6616 Q1786.93 80.5139 1789.51 78.1366 Q1792.14 75.7592 1793.12 71.2504 Q1793.41 70.5126 1794.15 70.5126 Q1794.56 70.5126 1794.84 70.7995 Q1795.13 71.0864 1795.13 71.5373 Z" fill="#000000" fill-rule="evenodd" fill-opacity="1" /><path clip-path="url(#clip870)" d="M1827.23 62.9705 Q1827.23 50.6328 1830.34 43.9105 Q1834.69 33.9091 1844.93 33.9091 Q1847.1 33.9091 1849.36 34.524 Q1851.65 35.0978 1854.52 37.3522 Q1857.43 39.6066 1859.2 43.2957 Q1862.56 50.4278 1862.56 62.9705 Q1862.56 75.2263 1859.44 81.9076 Q1854.89 91.663 1844.85 91.663 Q1841.08 91.663 1837.23 89.7365 Q1833.41 87.81 1831 83.1782 Q1827.23 76.251 1827.23 62.9705 M1834.19 61.9458 Q1834.19 74.6115 1835.1 79.6532 Q1836.12 85.1047 1838.91 87.4821 Q1841.74 89.8185 1844.85 89.8185 Q1848.21 89.8185 1851 87.3182 Q1853.83 84.7768 1854.69 79.3252 Q1855.63 73.9556 1855.59 61.9458 Q1855.59 50.2638 1854.77 45.5911 Q1853.66 40.1395 1850.71 37.9671 Q1847.8 35.7536 1844.85 35.7536 Q1843.74 35.7536 1842.56 36.0816 Q1841.41 36.4095 1839.73 37.3522 Q1838.05 38.295 1836.73 40.6314 Q1835.46 42.9678 1834.85 46.4928 Q1834.19 51.0426 1834.19 61.9458 Z" fill="#000000" fill-rule="evenodd" fill-opacity="1" /><path clip-path="url(#clip870)" d="M1870.07 88.4659 Q1868.8 87.1132 1868.8 85.3507 Q1868.8 83.5881 1870.07 82.3175 Q1871.34 81.0058 1873.26 81.0058 Q1875.11 81.0058 1876.34 82.2355 Q1877.61 83.4242 1877.61 85.3917 Q1877.61 87.3182 1876.26 88.5888 Q1874.94 89.8185 1873.26 89.8185 Q1871.34 89.8185 1870.07 88.4659 Z" fill="#000000" fill-rule="evenodd" fill-opacity="1" /><path clip-path="url(#clip870)" d="M1891.89 50.3458 L1894.64 33.0893 L1896.73 33.0893 Q1896.98 34.1141 1897.39 34.565 Q1897.84 35.0158 1900.22 35.3847 Q1902.63 35.7536 1907.51 35.7536 L1927.88 35.7536 Q1927.88 37.6801 1927.15 38.7049 L1915.79 54.6497 Q1912.18 59.6914 1910.59 68.9959 Q1909.64 75.2263 1909.68 82.7683 L1909.68 87.0312 Q1909.68 91.663 1905.79 91.663 Q1901.94 91.663 1901.94 87.0312 Q1901.94 71.0044 1912.27 55.4695 Q1913.37 53.8709 1917.43 48.1734 Q1921.53 42.4759 1921.69 42.2299 L1904.31 42.2299 Q1896.69 42.2299 1896.08 42.7218 Q1895.26 43.4596 1893.98 50.3458 L1891.89 50.3458 Z" fill="#000000" fill-rule="evenodd" fill-opacity="1" /><path clip-path="url(#clip870)" d="M1926.5 77.1528 Q1926.5 67.7663 1938.59 61.6999 Q1933.38 58.1748 1932.44 57.15 Q1928.75 53.0511 1928.75 47.9275 Q1928.75 42.066 1933.18 38.0081 Q1937.64 33.9091 1943.96 33.9091 Q1949.98 33.9091 1954.53 37.3932 Q1959.08 40.8773 1959.08 46.4109 Q1959.08 54.1988 1948.92 59.4454 Q1955.64 63.6264 1957.24 65.3889 Q1961.34 69.9387 1961.34 75.7182 Q1961.34 82.4404 1956.17 87.0722 Q1951.01 91.663 1943.88 91.663 Q1936.91 91.663 1931.7 87.6051 Q1926.5 83.5471 1926.5 77.1528 M1930.68 77.1528 Q1930.68 82.3585 1934.57 85.8425 Q1938.51 89.3266 1943.96 89.3266 Q1949.24 89.3266 1953.18 86.2934 Q1957.16 83.2602 1957.16 78.7514 Q1957.16 76.9889 1956.54 75.4723 Q1955.97 73.9556 1954.78 72.767 Q1953.63 71.5373 1952.89 71.0044 Q1952.2 70.4306 1950.84 69.4878 L1940.51 62.9705 Q1930.68 68.4221 1930.68 77.1528 M1932.44 44.6483 Q1932.44 48.6653 1936.66 51.4525 L1947.07 58.1748 Q1955.39 53.2971 1955.39 46.4109 Q1955.39 41.943 1951.99 38.9918 Q1948.59 35.9996 1943.88 35.9996 Q1939.24 35.9996 1935.84 38.4589 Q1932.44 40.8773 1932.44 44.6483 Z" fill="#000000" fill-rule="evenodd" fill-opacity="1" /><path clip-path="url(#clip870)" d="M1968.4 76.292 Q1968.4 73.7917 1969.75 72.8489 Q1971.11 71.8652 1972.54 71.8652 Q1974.47 71.8652 1975.58 73.0949 Q1976.72 74.2836 1976.72 75.9641 Q1976.72 77.6447 1975.58 78.8744 Q1974.47 80.0631 1972.54 80.0631 Q1971.6 80.0631 1971.11 79.8991 Q1972.21 83.7521 1975.58 86.5394 Q1978.98 89.3266 1983.45 89.3266 Q1989.06 89.3266 1992.42 83.8751 Q1994.43 80.35 1994.43 72.3571 Q1994.43 65.3069 1992.91 61.7818 Q1990.58 56.4122 1985.78 56.4122 Q1978.98 56.4122 1974.96 62.2737 Q1974.47 63.0115 1973.89 63.0525 Q1973.07 63.0525 1972.87 62.6016 Q1972.71 62.1097 1972.71 60.8391 L1972.71 35.9996 Q1972.71 33.9911 1973.53 33.9911 Q1973.85 33.9911 1974.55 34.237 Q1979.84 36.5734 1985.7 36.6144 Q1991.73 36.6144 1997.14 34.1551 Q1997.55 33.9091 1997.79 33.9091 Q1998.61 33.9091 1998.65 34.8519 Q1998.65 35.1798 1997.96 36.1635 Q1997.3 37.1063 1995.86 38.377 Q1994.43 39.6066 1992.59 40.7953 Q1990.74 41.984 1988.04 42.8038 Q1985.37 43.5826 1982.42 43.5826 Q1978.9 43.5826 1975.29 42.4759 L1975.29 58.8306 Q1979.63 54.5677 1985.95 54.5677 Q1992.67 54.5677 1997.3 59.9783 Q2001.93 65.3889 2001.93 72.9309 Q2001.93 80.8418 1996.44 86.2524 Q1990.99 91.663 1983.61 91.663 Q1976.89 91.663 1972.62 86.8673 Q1968.4 82.0715 1968.4 76.292 Z" fill="#000000" fill-rule="evenodd" fill-opacity="1" /><path clip-path="url(#clip870)" d="M2010.31 78.5055 Q2010.31 76.0051 2011.74 74.8164 Q2013.18 73.6277 2015.02 73.6277 Q2016.95 73.6277 2018.3 74.8984 Q2019.7 76.1281 2019.7 78.3005 Q2019.7 80.6369 2018.06 81.9486 Q2016.46 83.2602 2014.16 82.9323 Q2016.17 86.2934 2019.86 87.81 Q2023.59 89.3266 2027.03 89.3266 Q2030.64 89.3266 2033.55 86.2114 Q2036.5 83.0963 2036.5 75.4723 Q2036.5 68.9959 2033.96 65.2659 Q2031.46 61.5359 2026.5 61.5359 L2022.81 61.5359 Q2021.54 61.5359 2021.17 61.4129 Q2020.8 61.29 2020.8 60.5931 Q2020.8 59.7734 2022.07 59.6094 Q2023.34 59.6094 2025.35 59.3635 Q2030.23 59.1995 2032.81 54.9776 Q2035.15 51.0426 2035.15 45.4271 Q2035.15 40.3035 2032.69 38.172 Q2030.27 35.9996 2027.11 35.9996 Q2024.16 35.9996 2020.92 37.2293 Q2017.69 38.4589 2015.92 41.2052 Q2021.13 41.2052 2021.13 45.4271 Q2021.13 47.2716 2019.94 48.5013 Q2018.79 49.69 2016.87 49.69 Q2015.02 49.69 2013.79 48.5423 Q2012.56 47.3536 2012.56 45.3451 Q2012.56 40.5494 2016.83 37.2293 Q2021.13 33.9091 2027.44 33.9091 Q2033.67 33.9091 2038.26 37.1883 Q2042.89 40.4674 2042.89 45.5091 Q2042.89 50.4688 2039.62 54.5267 Q2036.34 58.5847 2031.13 60.2652 Q2037.53 61.5359 2041.34 65.8808 Q2045.15 70.1846 2045.15 75.4723 Q2045.15 82.0305 2039.98 86.8673 Q2034.82 91.663 2027.28 91.663 Q2020.31 91.663 2015.31 87.892 Q2010.31 84.121 2010.31 78.5055 Z" fill="#000000" fill-rule="evenodd" fill-opacity="1" /><path clip-path="url(#clip870)" d="M2052.21 52.8052 Q2052.21 48.3374 2053.53 45.3041 Q2054.84 42.2299 2057.58 39.1967 Q2062.63 33.9091 2069.92 33.9091 Q2073.04 33.9091 2075.78 35.2208 Q2078.57 36.5324 2081.19 39.5247 Q2083.86 42.4759 2085.46 48.3374 Q2087.06 54.1578 2087.06 62.1917 Q2087.06 75.1853 2080.74 83.4242 Q2074.47 91.663 2065.99 91.663 Q2060.62 91.663 2057.46 89.2447 Q2054.31 86.7853 2054.31 82.6044 Q2054.31 80.432 2055.53 79.5302 Q2056.76 78.5874 2058.16 78.5874 Q2059.67 78.5874 2060.86 79.6122 Q2062.05 80.5959 2062.05 82.4404 Q2062.05 83.957 2061.07 85.1457 Q2060.13 86.2934 2057.67 86.2934 Q2060.08 89.3266 2065.91 89.3266 Q2068 89.3266 2070.09 88.3839 Q2072.18 87.4001 2074.43 85.0637 Q2076.73 82.6864 2078.12 77.7267 Q2079.51 72.767 2079.51 65.7988 L2079.51 63.1345 Q2076.15 71.5373 2069.02 71.5373 Q2061.97 71.5373 2057.09 66.1267 Q2052.21 60.7161 2052.21 52.8052 M2059.76 52.8872 Q2059.76 61.208 2061.27 64.2822 Q2063.86 69.5698 2069.1 69.5698 Q2074.23 69.5698 2076.77 65.02 Q2079.35 60.4292 2079.35 54.4857 Q2079.35 46.2469 2078 42.6398 Q2075.5 35.9996 2069.92 35.9996 Q2064.39 35.9996 2061.52 41.2872 Q2059.76 44.4024 2059.76 52.8872 Z" fill="#000000" fill-rule="evenodd" fill-opacity="1" /><path clip-path="url(#clip870)" d="M2094.12 77.1528 Q2094.12 67.7663 2106.21 61.6999 Q2101.01 58.1748 2100.06 57.15 Q2096.38 53.0511 2096.38 47.9275 Q2096.38 42.066 2100.8 38.0081 Q2105.27 33.9091 2111.58 33.9091 Q2117.61 33.9091 2122.16 37.3932 Q2126.71 40.8773 2126.71 46.4109 Q2126.71 54.1988 2116.54 59.4454 Q2123.26 63.6264 2124.86 65.3889 Q2128.96 69.9387 2128.96 75.7182 Q2128.96 82.4404 2123.8 87.0722 Q2118.63 91.663 2111.5 91.663 Q2104.53 91.663 2099.33 87.6051 Q2094.12 83.5471 2094.12 77.1528 M2098.3 77.1528 Q2098.3 82.3585 2102.2 85.8425 Q2106.13 89.3266 2111.58 89.3266 Q2116.87 89.3266 2120.81 86.2934 Q2124.78 83.2602 2124.78 78.7514 Q2124.78 76.9889 2124.17 75.4723 Q2123.59 73.9556 2122.4 72.767 Q2121.26 71.5373 2120.52 71.0044 Q2119.82 70.4306 2118.47 69.4878 L2108.14 62.9705 Q2098.3 68.4221 2098.3 77.1528 M2100.06 44.6483 Q2100.06 48.6653 2104.29 51.4525 L2114.7 58.1748 Q2123.02 53.2971 2123.02 46.4109 Q2123.02 41.943 2119.62 38.9918 Q2116.21 35.9996 2111.5 35.9996 Q2106.87 35.9996 2103.47 38.4589 Q2100.06 40.8773 2100.06 44.6483 Z" fill="#000000" fill-rule="evenodd" fill-opacity="1" /><path clip-path="url(#clip870)" d="M2133.68 41.902 L2133.68 39.2787 Q2143.76 39.2787 2148.97 33.9091 Q2150.4 33.9091 2150.65 34.237 Q2150.89 34.565 2150.89 36.0816 L2150.89 83.1782 Q2150.89 85.6786 2152.12 86.4574 Q2153.35 87.2362 2158.72 87.2362 L2161.39 87.2362 L2161.39 89.8185 Q2158.43 89.5726 2147.78 89.5726 Q2137.12 89.5726 2134.21 89.8185 L2134.21 87.2362 L2136.87 87.2362 Q2142.16 87.2362 2143.43 86.4984 Q2144.7 85.7196 2144.7 83.1782 L2144.7 39.6886 Q2140.32 41.902 2133.68 41.902 Z" fill="#000000" fill-rule="evenodd" fill-opacity="1" /><path clip-path="url(#clip870)" d="M2164.22 63.2984 Q2164.22 50.0999 2170.94 42.025 Q2177.67 33.9091 2186.32 33.9091 Q2191.36 33.9091 2194.14 36.4914 Q2196.97 39.0328 2196.97 42.9678 Q2196.97 45.1402 2195.7 46.0829 Q2194.43 47.0257 2193.12 47.0257 Q2191.6 47.0257 2190.41 46.001 Q2189.23 44.9762 2189.23 43.1317 Q2189.23 39.3607 2193.86 39.3607 Q2191.69 35.9996 2186.48 35.9996 Q2184.88 35.9996 2183.24 36.4914 Q2181.6 36.9423 2179.47 38.4999 Q2177.34 40.0575 2175.7 42.5169 Q2174.06 44.9762 2172.91 49.608 Q2171.76 54.2398 2171.76 60.2652 L2171.76 62.2737 Q2175.21 53.9529 2182.26 53.9939 Q2189.31 53.9939 2194.19 59.3635 Q2199.06 64.7331 2199.06 72.685 Q2199.06 80.8418 2193.98 86.2524 Q2188.9 91.663 2181.77 91.663 Q2178.57 91.663 2175.66 90.3104 Q2172.79 88.9987 2170.08 85.9655 Q2167.42 82.9323 2165.82 77.1118 Q2164.22 71.2913 2164.22 63.2984 M2171.93 70.8405 Q2171.93 79.0793 2173.45 83.0143 Q2173.69 83.6701 2174.22 84.5719 Q2174.8 85.4736 2175.74 86.6623 Q2176.72 87.81 2178.32 88.5888 Q2179.92 89.3266 2181.77 89.3266 Q2187.38 89.3266 2190.09 83.8751 Q2191.52 80.8418 2191.52 72.603 Q2191.52 64.2002 2190 61.126 Q2187.42 55.9204 2182.18 55.9204 Q2178.65 55.9204 2176.19 58.3387 Q2173.77 60.7571 2172.83 63.9953 Q2171.93 67.2334 2171.93 70.8405 Z" fill="#000000" fill-rule="evenodd" fill-opacity="1" /><polyline clip-path="url(#clip873)" style="stroke:#009af9; stroke-linecap:butt; stroke-linejoin:round; stroke-width:4; stroke-opacity:1; fill:none" points="
  198.471,189.704 203.819,197.75 209.166,205.831 258.61,281.379 308.055,356.04 337.769,399.091 367.483,439.957 392.605,472.366 417.728,502.484 431.373,517.79 
  445.019,532.31 458.664,546.016 472.309,558.888 497.468,580.377 522.628,598.921 549.601,615.551 576.575,628.926 592.2,635.258 607.826,640.613 623.452,645.051 
  639.077,648.64 666.85,653.162 694.622,655.722 718.976,656.774 743.33,657.115 796.435,657.341 849.856,660.332 879.387,664.649 908.919,671.63 937.017,681.206 
  965.116,694 979.724,702.012 994.332,710.988 1008.94,720.948 1023.55,731.901 1048.14,752.584 1072.74,776.043 1087.75,791.686 1102.76,808.29 1117.77,825.815 
  1132.79,844.209 1160.29,879.97 1187.8,918.041 1238.61,992.8 1290.07,1071.4 1318.91,1115.28 1347.75,1158.21 1373.88,1195.75 1400.02,1231.54 1414.98,1251.07 
  1429.94,1269.84 1444.9,1287.77 1459.86,1304.82 1487.56,1333.88 1515.27,1359.53 1542.58,1381.35 1569.89,1399.7 1583.15,1407.37 1596.41,1414.26 1609.67,1420.39 
  1622.93,1425.77 1650.12,1434.64 1677.3,1440.86 1707.09,1445.13 1736.87,1447.31 1780.14,1448.17 1823.4,1448.3 1832.28,1448.45 1841.16,1448.68 
  "/>
<polyline clip-path="url(#clip873)" style="stroke:#e26f46; stroke-linecap:butt; stroke-linejoin:round; stroke-width:4; stroke-opacity:1; fill:none" points="
  -1592.05,854.904 3631.68,854.904 
  "/>
<path clip-path="url(#clip870)" d="
M1963.89 351.938 L2352.76 351.938 L2352.76 196.418 L1963.89 196.418  Z
  " fill="#ffffff" fill-rule="evenodd" fill-opacity="1"/>
<polyline clip-path="url(#clip870)" style="stroke:#000000; stroke-linecap:butt; stroke-linejoin:round; stroke-width:4; stroke-opacity:1; fill:none" points="
  1963.89,351.938 2352.76,351.938 2352.76,196.418 1963.89,196.418 1963.89,351.938 
  "/>
<polyline clip-path="url(#clip870)" style="stroke:#009af9; stroke-linecap:butt; stroke-linejoin:round; stroke-width:4; stroke-opacity:1; fill:none" points="
  1988.37,248.258 2135.28,248.258 
  "/>
<path clip-path="url(#clip870)" d="M2173.6 267.946 Q2171.8 272.575 2170.08 273.987 Q2168.37 275.399 2165.5 275.399 L2162.1 275.399 L2162.1 271.835 L2164.6 271.835 Q2166.36 271.835 2167.33 271.001 Q2168.3 270.168 2169.48 267.066 L2170.25 265.122 L2159.76 239.613 L2164.27 239.613 L2172.38 259.89 L2180.48 239.613 L2184.99 239.613 L2173.6 267.946 Z" fill="#000000" fill-rule="evenodd" fill-opacity="1" /><path clip-path="url(#clip870)" d="M2191.43 244.011 L2221.1 244.011 L2221.1 247.9 L2191.43 247.9 L2191.43 244.011 M2191.43 253.455 L2221.1 253.455 L2221.1 257.39 L2191.43 257.39 L2191.43 253.455 Z" fill="#000000" fill-rule="evenodd" fill-opacity="1" /><path clip-path="url(#clip870)" d="M2243.72 229.52 L2243.72 233.062 L2239.64 233.062 Q2237.35 233.062 2236.45 233.988 Q2235.57 234.914 2235.57 237.321 L2235.57 239.613 L2242.58 239.613 L2242.58 242.923 L2235.57 242.923 L2235.57 265.538 L2231.29 265.538 L2231.29 242.923 L2227.21 242.923 L2227.21 239.613 L2231.29 239.613 L2231.29 237.807 Q2231.29 233.478 2233.3 231.511 Q2235.32 229.52 2239.69 229.52 L2243.72 229.52 Z" fill="#000000" fill-rule="evenodd" fill-opacity="1" /><path clip-path="url(#clip870)" d="M2257.51 229.566 Q2254.41 234.89 2252.91 240.099 Q2251.4 245.307 2251.4 250.654 Q2251.4 256.001 2252.91 261.256 Q2254.44 266.487 2257.51 271.788 L2253.81 271.788 Q2250.34 266.349 2248.6 261.094 Q2246.89 255.839 2246.89 250.654 Q2246.89 245.492 2248.6 240.261 Q2250.32 235.029 2253.81 229.566 L2257.51 229.566 Z" fill="#000000" fill-rule="evenodd" fill-opacity="1" /><path clip-path="url(#clip870)" d="M2287.33 239.613 L2277.95 252.228 L2287.82 265.538 L2282.79 265.538 L2275.25 255.353 L2267.7 265.538 L2262.68 265.538 L2272.75 251.974 L2263.53 239.613 L2268.56 239.613 L2275.43 248.849 L2282.31 239.613 L2287.33 239.613 Z" fill="#000000" fill-rule="evenodd" fill-opacity="1" /><path clip-path="url(#clip870)" d="M2293.16 229.566 L2296.87 229.566 Q2300.34 235.029 2302.05 240.261 Q2303.79 245.492 2303.79 250.654 Q2303.79 255.839 2302.05 261.094 Q2300.34 266.349 2296.87 271.788 L2293.16 271.788 Q2296.24 266.487 2297.75 261.256 Q2299.27 256.001 2299.27 250.654 Q2299.27 245.307 2297.75 240.099 Q2296.24 234.89 2293.16 229.566 Z" fill="#000000" fill-rule="evenodd" fill-opacity="1" /><polyline clip-path="url(#clip870)" style="stroke:#e26f46; stroke-linecap:butt; stroke-linejoin:round; stroke-width:4; stroke-opacity:1; fill:none" points="
  1988.37,300.098 2135.28,300.098 
  "/>
<path clip-path="url(#clip870)" d="M2173.6 319.786 Q2171.8 324.415 2170.08 325.827 Q2168.37 327.239 2165.5 327.239 L2162.1 327.239 L2162.1 323.675 L2164.6 323.675 Q2166.36 323.675 2167.33 322.841 Q2168.3 322.008 2169.48 318.906 L2170.25 316.962 L2159.76 291.453 L2164.27 291.453 L2172.38 311.73 L2180.48 291.453 L2184.99 291.453 L2173.6 319.786 Z" fill="#000000" fill-rule="evenodd" fill-opacity="1" /><path clip-path="url(#clip870)" d="M2191.43 295.851 L2221.1 295.851 L2221.1 299.74 L2191.43 299.74 L2191.43 295.851 M2191.43 305.295 L2221.1 305.295 L2221.1 309.23 L2191.43 309.23 L2191.43 305.295 Z" fill="#000000" fill-rule="evenodd" fill-opacity="1" /><path clip-path="url(#clip870)" d="M2241.2 285.897 Q2237.58 285.897 2235.76 289.462 Q2233.95 293.004 2233.95 300.133 Q2233.95 307.24 2235.76 310.804 Q2237.58 314.346 2241.2 314.346 Q2244.83 314.346 2246.64 310.804 Q2248.46 307.24 2248.46 300.133 Q2248.46 293.004 2246.64 289.462 Q2244.83 285.897 2241.2 285.897 M2241.2 282.193 Q2247.01 282.193 2250.06 286.8 Q2253.14 291.383 2253.14 300.133 Q2253.14 308.86 2250.06 313.466 Q2247.01 318.05 2241.2 318.05 Q2235.39 318.05 2232.31 313.466 Q2229.25 308.86 2229.25 300.133 Q2229.25 291.383 2232.31 286.8 Q2235.39 282.193 2241.2 282.193 Z" fill="#000000" fill-rule="evenodd" fill-opacity="1" /></svg>
