<?xml version="1.0" encoding="utf-8"?>
<svg xmlns="http://www.w3.org/2000/svg" xmlns:xlink="http://www.w3.org/1999/xlink" width="600" height="400" viewBox="0 0 2400 1600">
<defs>
  <clipPath id="clip140">
    <rect x="0" y="0" width="2400" height="1600"/>
  </clipPath>
</defs>
<path clip-path="url(#clip140)" d="
M0 1600 L2400 1600 L2400 0 L0 0  Z
  " fill="#ffffff" fill-rule="evenodd" fill-opacity="1"/>
<defs>
  <clipPath id="clip141">
    <rect x="480" y="0" width="1681" height="1600"/>
  </clipPath>
</defs>
<defs>
  <clipPath id="clip142">
    <rect x="169" y="123" width="1725" height="1364"/>
  </clipPath>
</defs>
<path clip-path="url(#clip140)" d="
M193.288 1486.45 L1896.81 1486.45 L1896.81 123.472 L193.288 123.472  Z
  " fill="#ffffff" fill-rule="evenodd" fill-opacity="1"/>
<defs>
  <clipPath id="clip143">
    <rect x="193" y="123" width="1705" height="1364"/>
  </clipPath>
</defs>
<polyline clip-path="url(#clip143)" style="stroke:#000000; stroke-linecap:butt; stroke-linejoin:round; stroke-width:2; stroke-opacity:0.1; fill:none" points="
  402.21,1486.45 402.21,123.472 
  "/>
<polyline clip-path="url(#clip143)" style="stroke:#000000; stroke-linecap:butt; stroke-linejoin:round; stroke-width:2; stroke-opacity:0.1; fill:none" points="
  723.628,1486.45 723.628,123.472 
  "/>
<polyline clip-path="url(#clip143)" style="stroke:#000000; stroke-linecap:butt; stroke-linejoin:round; stroke-width:2; stroke-opacity:0.1; fill:none" points="
  1045.05,1486.45 1045.05,123.472 
  "/>
<polyline clip-path="url(#clip143)" style="stroke:#000000; stroke-linecap:butt; stroke-linejoin:round; stroke-width:2; stroke-opacity:0.1; fill:none" points="
  1366.47,1486.45 1366.47,123.472 
  "/>
<polyline clip-path="url(#clip143)" style="stroke:#000000; stroke-linecap:butt; stroke-linejoin:round; stroke-width:2; stroke-opacity:0.1; fill:none" points="
  1687.88,1486.45 1687.88,123.472 
  "/>
<polyline clip-path="url(#clip140)" style="stroke:#000000; stroke-linecap:butt; stroke-linejoin:round; stroke-width:4; stroke-opacity:1; fill:none" points="
  193.288,1486.45 1896.81,1486.45 
  "/>
<polyline clip-path="url(#clip140)" style="stroke:#000000; stroke-linecap:butt; stroke-linejoin:round; stroke-width:4; stroke-opacity:1; fill:none" points="
  402.21,1486.45 402.21,1467.55 
  "/>
<polyline clip-path="url(#clip140)" style="stroke:#000000; stroke-linecap:butt; stroke-linejoin:round; stroke-width:4; stroke-opacity:1; fill:none" points="
  723.628,1486.45 723.628,1467.55 
  "/>
<polyline clip-path="url(#clip140)" style="stroke:#000000; stroke-linecap:butt; stroke-linejoin:round; stroke-width:4; stroke-opacity:1; fill:none" points="
  1045.05,1486.45 1045.05,1467.55 
  "/>
<polyline clip-path="url(#clip140)" style="stroke:#000000; stroke-linecap:butt; stroke-linejoin:round; stroke-width:4; stroke-opacity:1; fill:none" points="
  1366.47,1486.45 1366.47,1467.55 
  "/>
<polyline clip-path="url(#clip140)" style="stroke:#000000; stroke-linecap:butt; stroke-linejoin:round; stroke-width:4; stroke-opacity:1; fill:none" points="
  1687.88,1486.45 1687.88,1467.55 
  "/>
<path clip-path="url(#clip140)" d="M380.393 1517.37 Q376.782 1517.37 374.953 1520.93 Q373.148 1524.47 373.148 1531.6 Q373.148 1538.71 374.953 1542.27 Q376.782 1545.82 380.393 1545.82 Q384.027 1545.82 385.833 1542.27 Q387.661 1538.71 387.661 1531.6 Q387.661 1524.47 385.833 1520.93 Q384.027 1517.37 380.393 1517.37 M380.393 1513.66 Q386.203 1513.66 389.259 1518.27 Q392.337 1522.85 392.337 1531.6 Q392.337 1540.33 389.259 1544.94 Q386.203 1549.52 380.393 1549.52 Q374.583 1549.52 371.504 1544.94 Q368.448 1540.33 368.448 1531.6 Q368.448 1522.85 371.504 1518.27 Q374.583 1513.66 380.393 1513.66 Z" fill="#000000" fill-rule="evenodd" fill-opacity="1" /><path clip-path="url(#clip140)" d="M400.555 1542.97 L405.439 1542.97 L405.439 1548.85 L400.555 1548.85 L400.555 1542.97 Z" fill="#000000" fill-rule="evenodd" fill-opacity="1" /><path clip-path="url(#clip140)" d="M419.652 1544.91 L435.971 1544.91 L435.971 1548.85 L414.027 1548.85 L414.027 1544.91 Q416.689 1542.16 421.272 1537.53 Q425.879 1532.88 427.059 1531.53 Q429.305 1529.01 430.184 1527.27 Q431.087 1525.51 431.087 1523.82 Q431.087 1521.07 429.143 1519.33 Q427.221 1517.6 424.119 1517.6 Q421.92 1517.6 419.467 1518.36 Q417.036 1519.13 414.258 1520.68 L414.258 1515.95 Q417.082 1514.82 419.536 1514.24 Q421.99 1513.66 424.027 1513.66 Q429.397 1513.66 432.592 1516.35 Q435.786 1519.03 435.786 1523.52 Q435.786 1525.65 434.976 1527.57 Q434.189 1529.47 432.082 1532.07 Q431.504 1532.74 428.402 1535.95 Q425.3 1539.15 419.652 1544.91 Z" fill="#000000" fill-rule="evenodd" fill-opacity="1" /><path clip-path="url(#clip140)" d="M700.77 1517.37 Q697.159 1517.37 695.33 1520.93 Q693.524 1524.47 693.524 1531.6 Q693.524 1538.71 695.33 1542.27 Q697.159 1545.82 700.77 1545.82 Q704.404 1545.82 706.209 1542.27 Q708.038 1538.71 708.038 1531.6 Q708.038 1524.47 706.209 1520.93 Q704.404 1517.37 700.77 1517.37 M700.77 1513.66 Q706.58 1513.66 709.635 1518.27 Q712.714 1522.85 712.714 1531.6 Q712.714 1540.33 709.635 1544.94 Q706.58 1549.52 700.77 1549.52 Q694.959 1549.52 691.881 1544.94 Q688.825 1540.33 688.825 1531.6 Q688.825 1522.85 691.881 1518.27 Q694.959 1513.66 700.77 1513.66 Z" fill="#000000" fill-rule="evenodd" fill-opacity="1" /><path clip-path="url(#clip140)" d="M720.932 1542.97 L725.816 1542.97 L725.816 1548.85 L720.932 1548.85 L720.932 1542.97 Z" fill="#000000" fill-rule="evenodd" fill-opacity="1" /><path clip-path="url(#clip140)" d="M748.848 1518.36 L737.043 1536.81 L748.848 1536.81 L748.848 1518.36 M747.621 1514.29 L753.501 1514.29 L753.501 1536.81 L758.431 1536.81 L758.431 1540.7 L753.501 1540.7 L753.501 1548.85 L748.848 1548.85 L748.848 1540.7 L733.246 1540.7 L733.246 1536.19 L747.621 1514.29 Z" fill="#000000" fill-rule="evenodd" fill-opacity="1" /><path clip-path="url(#clip140)" d="M1022.35 1517.37 Q1018.74 1517.37 1016.91 1520.93 Q1015.1 1524.47 1015.1 1531.6 Q1015.1 1538.71 1016.91 1542.27 Q1018.74 1545.82 1022.35 1545.82 Q1025.98 1545.82 1027.79 1542.27 Q1029.62 1538.71 1029.62 1531.6 Q1029.62 1524.47 1027.79 1520.93 Q1025.98 1517.37 1022.35 1517.37 M1022.35 1513.66 Q1028.16 1513.66 1031.22 1518.27 Q1034.29 1522.85 1034.29 1531.6 Q1034.29 1540.33 1031.22 1544.94 Q1028.16 1549.52 1022.35 1549.52 Q1016.54 1549.52 1013.46 1544.94 Q1010.41 1540.33 1010.41 1531.6 Q1010.41 1522.85 1013.46 1518.27 Q1016.54 1513.66 1022.35 1513.66 Z" fill="#000000" fill-rule="evenodd" fill-opacity="1" /><path clip-path="url(#clip140)" d="M1042.51 1542.97 L1047.4 1542.97 L1047.4 1548.85 L1042.51 1548.85 L1042.51 1542.97 Z" fill="#000000" fill-rule="evenodd" fill-opacity="1" /><path clip-path="url(#clip140)" d="M1068.16 1529.7 Q1065.01 1529.7 1063.16 1531.86 Q1061.33 1534.01 1061.33 1537.76 Q1061.33 1541.49 1063.16 1543.66 Q1065.01 1545.82 1068.16 1545.82 Q1071.31 1545.82 1073.14 1543.66 Q1074.99 1541.49 1074.99 1537.76 Q1074.99 1534.01 1073.14 1531.86 Q1071.31 1529.7 1068.16 1529.7 M1077.44 1515.05 L1077.44 1519.31 Q1075.68 1518.48 1073.88 1518.04 Q1072.1 1517.6 1070.34 1517.6 Q1065.71 1517.6 1063.25 1520.72 Q1060.82 1523.85 1060.47 1530.17 Q1061.84 1528.15 1063.9 1527.09 Q1065.96 1526 1068.44 1526 Q1073.65 1526 1076.66 1529.17 Q1079.69 1532.32 1079.69 1537.76 Q1079.69 1543.08 1076.54 1546.3 Q1073.39 1549.52 1068.16 1549.52 Q1062.16 1549.52 1058.99 1544.94 Q1055.82 1540.33 1055.82 1531.6 Q1055.82 1523.41 1059.71 1518.55 Q1063.6 1513.66 1070.15 1513.66 Q1071.91 1513.66 1073.69 1514.01 Q1075.5 1514.36 1077.44 1515.05 Z" fill="#000000" fill-rule="evenodd" fill-opacity="1" /><path clip-path="url(#clip140)" d="M1343.9 1517.37 Q1340.28 1517.37 1338.46 1520.93 Q1336.65 1524.47 1336.65 1531.6 Q1336.65 1538.71 1338.46 1542.27 Q1340.28 1545.82 1343.9 1545.82 Q1347.53 1545.82 1349.34 1542.27 Q1351.16 1538.71 1351.16 1531.6 Q1351.16 1524.47 1349.34 1520.93 Q1347.53 1517.37 1343.9 1517.37 M1343.9 1513.66 Q1349.71 1513.66 1352.76 1518.27 Q1355.84 1522.85 1355.84 1531.6 Q1355.84 1540.33 1352.76 1544.94 Q1349.71 1549.52 1343.9 1549.52 Q1338.09 1549.52 1335.01 1544.94 Q1331.95 1540.33 1331.95 1531.6 Q1331.95 1522.85 1335.01 1518.27 Q1338.09 1513.66 1343.9 1513.66 Z" fill="#000000" fill-rule="evenodd" fill-opacity="1" /><path clip-path="url(#clip140)" d="M1364.06 1542.97 L1368.94 1542.97 L1368.94 1548.85 L1364.06 1548.85 L1364.06 1542.97 Z" fill="#000000" fill-rule="evenodd" fill-opacity="1" /><path clip-path="url(#clip140)" d="M1389.13 1532.44 Q1385.79 1532.44 1383.87 1534.22 Q1381.97 1536 1381.97 1539.13 Q1381.97 1542.25 1383.87 1544.03 Q1385.79 1545.82 1389.13 1545.82 Q1392.46 1545.82 1394.38 1544.03 Q1396.3 1542.23 1396.3 1539.13 Q1396.3 1536 1394.38 1534.22 Q1392.48 1532.44 1389.13 1532.44 M1384.45 1530.45 Q1381.44 1529.7 1379.75 1527.64 Q1378.09 1525.58 1378.09 1522.62 Q1378.09 1518.48 1381.03 1516.07 Q1383.99 1513.66 1389.13 1513.66 Q1394.29 1513.66 1397.23 1516.07 Q1400.17 1518.48 1400.17 1522.62 Q1400.17 1525.58 1398.48 1527.64 Q1396.81 1529.7 1393.83 1530.45 Q1397.21 1531.23 1399.08 1533.52 Q1400.98 1535.82 1400.98 1539.13 Q1400.98 1544.15 1397.9 1546.83 Q1394.84 1549.52 1389.13 1549.52 Q1383.41 1549.52 1380.33 1546.83 Q1377.28 1544.15 1377.28 1539.13 Q1377.28 1535.82 1379.17 1533.52 Q1381.07 1531.23 1384.45 1530.45 M1382.74 1523.06 Q1382.74 1525.75 1384.4 1527.25 Q1386.09 1528.76 1389.13 1528.76 Q1392.14 1528.76 1393.83 1527.25 Q1395.54 1525.75 1395.54 1523.06 Q1395.54 1520.38 1393.83 1518.87 Q1392.14 1517.37 1389.13 1517.37 Q1386.09 1517.37 1384.4 1518.87 Q1382.74 1520.38 1382.74 1523.06 Z" fill="#000000" fill-rule="evenodd" fill-opacity="1" /><path clip-path="url(#clip140)" d="M1655.04 1544.91 L1662.68 1544.91 L1662.68 1518.55 L1654.37 1520.21 L1654.37 1515.95 L1662.63 1514.29 L1667.31 1514.29 L1667.31 1544.91 L1674.94 1544.91 L1674.94 1548.85 L1655.04 1548.85 L1655.04 1544.91 Z" fill="#000000" fill-rule="evenodd" fill-opacity="1" /><path clip-path="url(#clip140)" d="M1684.39 1542.97 L1689.27 1542.97 L1689.27 1548.85 L1684.39 1548.85 L1684.39 1542.97 Z" fill="#000000" fill-rule="evenodd" fill-opacity="1" /><path clip-path="url(#clip140)" d="M1709.46 1517.37 Q1705.85 1517.37 1704.02 1520.93 Q1702.21 1524.47 1702.21 1531.6 Q1702.21 1538.71 1704.02 1542.27 Q1705.85 1545.82 1709.46 1545.82 Q1713.09 1545.82 1714.9 1542.27 Q1716.73 1538.71 1716.73 1531.6 Q1716.73 1524.47 1714.9 1520.93 Q1713.09 1517.37 1709.46 1517.37 M1709.46 1513.66 Q1715.27 1513.66 1718.32 1518.27 Q1721.4 1522.85 1721.4 1531.6 Q1721.4 1540.33 1718.32 1544.94 Q1715.27 1549.52 1709.46 1549.52 Q1703.65 1549.52 1700.57 1544.94 Q1697.51 1540.33 1697.51 1531.6 Q1697.51 1522.85 1700.57 1518.27 Q1703.65 1513.66 1709.46 1513.66 Z" fill="#000000" fill-rule="evenodd" fill-opacity="1" /><polyline clip-path="url(#clip143)" style="stroke:#000000; stroke-linecap:butt; stroke-linejoin:round; stroke-width:2; stroke-opacity:0.1; fill:none" points="
  193.288,1204.22 1896.81,1204.22 
  "/>
<polyline clip-path="url(#clip143)" style="stroke:#000000; stroke-linecap:butt; stroke-linejoin:round; stroke-width:2; stroke-opacity:0.1; fill:none" points="
  193.288,921.282 1896.81,921.282 
  "/>
<polyline clip-path="url(#clip143)" style="stroke:#000000; stroke-linecap:butt; stroke-linejoin:round; stroke-width:2; stroke-opacity:0.1; fill:none" points="
  193.288,638.338 1896.81,638.338 
  "/>
<polyline clip-path="url(#clip143)" style="stroke:#000000; stroke-linecap:butt; stroke-linejoin:round; stroke-width:2; stroke-opacity:0.1; fill:none" points="
  193.288,355.395 1896.81,355.395 
  "/>
<polyline clip-path="url(#clip140)" style="stroke:#000000; stroke-linecap:butt; stroke-linejoin:round; stroke-width:4; stroke-opacity:1; fill:none" points="
  193.288,1486.45 193.288,123.472 
  "/>
<polyline clip-path="url(#clip140)" style="stroke:#000000; stroke-linecap:butt; stroke-linejoin:round; stroke-width:4; stroke-opacity:1; fill:none" points="
  193.288,1204.22 208.195,1204.22 
  "/>
<polyline clip-path="url(#clip140)" style="stroke:#000000; stroke-linecap:butt; stroke-linejoin:round; stroke-width:4; stroke-opacity:1; fill:none" points="
  193.288,921.282 208.195,921.282 
  "/>
<polyline clip-path="url(#clip140)" style="stroke:#000000; stroke-linecap:butt; stroke-linejoin:round; stroke-width:4; stroke-opacity:1; fill:none" points="
  193.288,638.338 208.195,638.338 
  "/>
<polyline clip-path="url(#clip140)" style="stroke:#000000; stroke-linecap:butt; stroke-linejoin:round; stroke-width:4; stroke-opacity:1; fill:none" points="
  193.288,355.395 208.195,355.395 
  "/>
<path clip-path="url(#clip140)" d="M50.9921 1204.68 L80.6679 1204.68 L80.6679 1208.61 L50.9921 1208.61 L50.9921 1204.68 Z" fill="#000000" fill-rule="evenodd" fill-opacity="1" /><path clip-path="url(#clip140)" d="M100.76 1190.02 Q97.1493 1190.02 95.3206 1193.59 Q93.515 1197.13 93.515 1204.26 Q93.515 1211.37 95.3206 1214.93 Q97.1493 1218.47 100.76 1218.47 Q104.395 1218.47 106.2 1214.93 Q108.029 1211.37 108.029 1204.26 Q108.029 1197.13 106.2 1193.59 Q104.395 1190.02 100.76 1190.02 M100.76 1186.32 Q106.571 1186.32 109.626 1190.93 Q112.705 1195.51 112.705 1204.26 Q112.705 1212.99 109.626 1217.59 Q106.571 1222.18 100.76 1222.18 Q94.9502 1222.18 91.8715 1217.59 Q88.816 1212.99 88.816 1204.26 Q88.816 1195.51 91.8715 1190.93 Q94.9502 1186.32 100.76 1186.32 Z" fill="#000000" fill-rule="evenodd" fill-opacity="1" /><path clip-path="url(#clip140)" d="M120.922 1215.63 L125.807 1215.63 L125.807 1221.5 L120.922 1221.5 L120.922 1215.63 Z" fill="#000000" fill-rule="evenodd" fill-opacity="1" /><path clip-path="url(#clip140)" d="M150.158 1202.87 Q153.515 1203.59 155.39 1205.86 Q157.288 1208.13 157.288 1211.46 Q157.288 1216.57 153.769 1219.38 Q150.251 1222.18 143.769 1222.18 Q141.593 1222.18 139.279 1221.74 Q136.987 1221.32 134.533 1220.46 L134.533 1215.95 Q136.478 1217.08 138.793 1217.66 Q141.107 1218.24 143.631 1218.24 Q148.029 1218.24 150.32 1216.5 Q152.635 1214.77 152.635 1211.46 Q152.635 1208.4 150.482 1206.69 Q148.353 1204.95 144.533 1204.95 L140.506 1204.95 L140.506 1201.11 L144.718 1201.11 Q148.168 1201.11 149.996 1199.75 Q151.825 1198.36 151.825 1195.76 Q151.825 1193.1 149.927 1191.69 Q148.052 1190.25 144.533 1190.25 Q142.612 1190.25 140.413 1190.67 Q138.214 1191.09 135.575 1191.97 L135.575 1187.8 Q138.237 1187.06 140.552 1186.69 Q142.89 1186.32 144.95 1186.32 Q150.274 1186.32 153.376 1188.75 Q156.478 1191.16 156.478 1195.28 Q156.478 1198.15 154.834 1200.14 Q153.191 1202.11 150.158 1202.87 Z" fill="#000000" fill-rule="evenodd" fill-opacity="1" /><path clip-path="url(#clip140)" d="M100.112 907.08 Q96.5011 907.08 94.6724 910.645 Q92.8669 914.187 92.8669 921.316 Q92.8669 928.423 94.6724 931.988 Q96.5011 935.529 100.112 935.529 Q103.746 935.529 105.552 931.988 Q107.381 928.423 107.381 921.316 Q107.381 914.187 105.552 910.645 Q103.746 907.08 100.112 907.08 M100.112 903.377 Q105.922 903.377 108.978 907.983 Q112.057 912.566 112.057 921.316 Q112.057 930.043 108.978 934.65 Q105.922 939.233 100.112 939.233 Q94.3021 939.233 91.2234 934.65 Q88.1679 930.043 88.1679 921.316 Q88.1679 912.566 91.2234 907.983 Q94.3021 903.377 100.112 903.377 Z" fill="#000000" fill-rule="evenodd" fill-opacity="1" /><path clip-path="url(#clip140)" d="M120.274 932.682 L125.158 932.682 L125.158 938.562 L120.274 938.562 L120.274 932.682 Z" fill="#000000" fill-rule="evenodd" fill-opacity="1" /><path clip-path="url(#clip140)" d="M145.343 907.08 Q141.732 907.08 139.904 910.645 Q138.098 914.187 138.098 921.316 Q138.098 928.423 139.904 931.988 Q141.732 935.529 145.343 935.529 Q148.978 935.529 150.783 931.988 Q152.612 928.423 152.612 921.316 Q152.612 914.187 150.783 910.645 Q148.978 907.08 145.343 907.08 M145.343 903.377 Q151.154 903.377 154.209 907.983 Q157.288 912.566 157.288 921.316 Q157.288 930.043 154.209 934.65 Q151.154 939.233 145.343 939.233 Q139.533 939.233 136.455 934.65 Q133.399 930.043 133.399 921.316 Q133.399 912.566 136.455 907.983 Q139.533 903.377 145.343 903.377 Z" fill="#000000" fill-rule="evenodd" fill-opacity="1" /><path clip-path="url(#clip140)" d="M100.76 624.137 Q97.1493 624.137 95.3206 627.702 Q93.515 631.244 93.515 638.373 Q93.515 645.48 95.3206 649.044 Q97.1493 652.586 100.76 652.586 Q104.395 652.586 106.2 649.044 Q108.029 645.48 108.029 638.373 Q108.029 631.244 106.2 627.702 Q104.395 624.137 100.76 624.137 M100.76 620.433 Q106.571 620.433 109.626 625.04 Q112.705 629.623 112.705 638.373 Q112.705 647.1 109.626 651.706 Q106.571 656.29 100.76 656.29 Q94.9502 656.29 91.8715 651.706 Q88.816 647.1 88.816 638.373 Q88.816 629.623 91.8715 625.04 Q94.9502 620.433 100.76 620.433 Z" fill="#000000" fill-rule="evenodd" fill-opacity="1" /><path clip-path="url(#clip140)" d="M120.922 649.739 L125.807 649.739 L125.807 655.618 L120.922 655.618 L120.922 649.739 Z" fill="#000000" fill-rule="evenodd" fill-opacity="1" /><path clip-path="url(#clip140)" d="M150.158 636.984 Q153.515 637.702 155.39 639.97 Q157.288 642.239 157.288 645.572 Q157.288 650.688 153.769 653.489 Q150.251 656.29 143.769 656.29 Q141.593 656.29 139.279 655.85 Q136.987 655.433 134.533 654.577 L134.533 650.063 Q136.478 651.197 138.793 651.776 Q141.107 652.355 143.631 652.355 Q148.029 652.355 150.32 650.618 Q152.635 648.882 152.635 645.572 Q152.635 642.517 150.482 640.804 Q148.353 639.068 144.533 639.068 L140.506 639.068 L140.506 635.225 L144.718 635.225 Q148.168 635.225 149.996 633.859 Q151.825 632.47 151.825 629.878 Q151.825 627.216 149.927 625.804 Q148.052 624.369 144.533 624.369 Q142.612 624.369 140.413 624.785 Q138.214 625.202 135.575 626.082 L135.575 621.915 Q138.237 621.174 140.552 620.804 Q142.89 620.433 144.95 620.433 Q150.274 620.433 153.376 622.864 Q156.478 625.271 156.478 629.392 Q156.478 632.262 154.834 634.253 Q153.191 636.22 150.158 636.984 Z" fill="#000000" fill-rule="evenodd" fill-opacity="1" /><path clip-path="url(#clip140)" d="M99.9502 341.194 Q96.3391 341.194 94.5104 344.759 Q92.7049 348.3 92.7049 355.43 Q92.7049 362.536 94.5104 366.101 Q96.3391 369.643 99.9502 369.643 Q103.584 369.643 105.39 366.101 Q107.219 362.536 107.219 355.43 Q107.219 348.3 105.39 344.759 Q103.584 341.194 99.9502 341.194 M99.9502 337.49 Q105.76 337.49 108.816 342.097 Q111.895 346.68 111.895 355.43 Q111.895 364.157 108.816 368.763 Q105.76 373.346 99.9502 373.346 Q94.14 373.346 91.0614 368.763 Q88.0058 364.157 88.0058 355.43 Q88.0058 346.68 91.0614 342.097 Q94.14 337.49 99.9502 337.49 Z" fill="#000000" fill-rule="evenodd" fill-opacity="1" /><path clip-path="url(#clip140)" d="M120.112 366.796 L124.996 366.796 L124.996 372.675 L120.112 372.675 L120.112 366.796 Z" fill="#000000" fill-rule="evenodd" fill-opacity="1" /><path clip-path="url(#clip140)" d="M145.76 353.532 Q142.612 353.532 140.76 355.685 Q138.931 357.837 138.931 361.587 Q138.931 365.314 140.76 367.49 Q142.612 369.643 145.76 369.643 Q148.908 369.643 150.737 367.49 Q152.589 365.314 152.589 361.587 Q152.589 357.837 150.737 355.685 Q148.908 353.532 145.76 353.532 M155.042 338.879 L155.042 343.138 Q153.283 342.305 151.478 341.865 Q149.695 341.425 147.936 341.425 Q143.306 341.425 140.853 344.55 Q138.422 347.675 138.075 353.995 Q139.441 351.981 141.501 350.916 Q143.561 349.828 146.038 349.828 Q151.246 349.828 154.255 352.999 Q157.288 356.148 157.288 361.587 Q157.288 366.911 154.14 370.129 Q150.992 373.346 145.76 373.346 Q139.765 373.346 136.594 368.763 Q133.422 364.157 133.422 355.43 Q133.422 347.236 137.311 342.374 Q141.2 337.49 147.751 337.49 Q149.51 337.49 151.293 337.837 Q153.098 338.185 155.042 338.879 Z" fill="#000000" fill-rule="evenodd" fill-opacity="1" /><path clip-path="url(#clip140)" d="M333.08 31.22 Q333.08 35.8108 329.677 40.0327 Q326.316 44.2546 320.824 46.8369 Q315.372 49.3783 309.511 49.3783 L295.246 49.3783 L290.041 70.3648 Q290 70.4878 289.877 71.0206 Q289.754 71.5125 289.754 71.7994 Q289.754 72.8241 291.025 73.0701 Q292.336 73.316 295.246 73.316 Q297.132 73.316 297.419 73.6439 Q297.583 73.8489 297.583 74.2178 Q297.583 74.7916 297.419 75.2015 Q297.255 75.5704 296.927 75.6934 Q296.64 75.8164 296.435 75.8574 Q296.23 75.8983 295.902 75.8983 Q295.042 75.8983 293.197 75.8164 Q291.393 75.7344 290.451 75.7344 L285.081 75.6524 L274.424 75.8983 Q273.153 75.8983 273.153 74.8736 Q273.153 74.0948 273.481 73.7669 Q273.809 73.398 274.178 73.357 Q274.547 73.316 275.49 73.316 Q277.539 73.316 278.769 73.1931 Q279.998 73.0701 280.777 72.9061 Q281.597 72.7012 282.007 72.1273 Q282.458 71.5535 282.663 71.0616 Q282.868 70.5287 283.155 69.3401 L294.386 24.2519 Q294.714 22.8992 294.714 22.6943 Q294.714 21.9974 294.304 21.7515 Q293.935 21.4646 292.869 21.3416 Q290.82 21.1777 289.262 21.1777 Q288.237 21.1777 287.827 21.1367 Q287.459 21.0957 287.131 20.8907 Q286.844 20.6448 286.844 20.1529 Q286.844 19.3741 287.172 19.0462 Q287.54 18.6773 287.95 18.6363 Q288.36 18.5543 289.344 18.5543 L316.561 18.5543 Q324.39 18.5543 328.735 22.2844 Q333.08 26.0144 333.08 31.22 M325.292 29.2116 Q325.292 21.1777 313.856 21.1777 L305.822 21.1777 Q303.157 21.1777 302.502 21.6695 Q301.846 22.1204 301.272 24.3748 L295.574 47.2058 L307.42 47.2058 Q315.372 47.2058 320.332 42.738 Q322.586 40.6886 323.939 36.4257 Q325.292 32.1628 325.292 29.2116 Z" fill="#000000" fill-rule="evenodd" fill-opacity="1" /><path clip-path="url(#clip140)" d="M370.089 44.2546 Q370.089 46.4271 368.655 47.8207 Q367.261 49.2143 365.458 49.2143 Q363.9 49.2143 363.08 48.3126 Q362.261 47.4108 362.261 46.2631 Q362.261 44.6235 363.531 43.2709 Q364.802 41.9182 366.646 41.6313 Q365.294 40.6476 363.121 40.6476 Q359.555 40.6476 356.399 43.3938 Q355.005 44.6645 353.489 47.0009 Q351.972 49.2963 351.685 50.28 L349.021 61.2242 Q348.775 62.4539 347.258 68.3563 Q345.783 74.2178 345.66 74.4637 Q345.25 75.6114 344.348 76.2263 Q343.446 76.8411 342.545 76.8411 Q341.52 76.8411 340.823 76.2263 Q340.126 75.6114 340.126 74.5457 Q340.126 74.3817 340.249 73.7669 Q340.372 73.1521 340.577 72.2913 Q340.782 71.4305 340.864 70.9386 L345.742 51.5507 Q346.644 48.0256 346.849 46.9189 Q347.094 45.7712 347.094 44.5006 Q347.094 42.2871 346.398 41.4674 Q345.701 40.6476 344.471 40.6476 Q342.34 40.6476 340.946 43.1889 Q339.552 45.7302 338.364 50.6489 Q337.995 52.0016 337.749 52.2885 Q337.544 52.5754 336.929 52.5754 Q335.904 52.5345 335.904 51.7147 Q335.904 51.5097 336.232 50.1981 Q336.56 48.8454 337.175 46.8779 Q337.831 44.8695 338.528 43.5988 Q338.938 42.738 339.307 42.1642 Q339.675 41.5903 340.413 40.6886 Q341.151 39.7868 342.258 39.2949 Q343.364 38.803 344.717 38.803 Q347.668 38.803 349.759 40.6066 Q351.89 42.4101 352.382 45.2384 Q353.407 43.7627 354.678 42.4921 Q355.948 41.1804 358.285 39.9917 Q360.621 38.803 363.121 38.803 Q366.236 38.803 368.163 40.4016 Q370.089 41.9592 370.089 44.2546 Z" fill="#000000" fill-rule="evenodd" fill-opacity="1" /><path clip-path="url(#clip140)" d="M412.315 52.9853 Q412.315 57.4532 410.348 61.88 Q408.38 66.2659 405.224 69.545 Q402.109 72.7832 398.01 74.8326 Q393.911 76.8411 389.812 76.8411 Q383.951 76.8411 380.139 72.8651 Q376.368 68.8482 376.368 62.6178 Q376.368 56.7973 379.606 51.2638 Q382.885 45.6892 388.131 42.2461 Q393.378 38.803 398.871 38.803 Q404.65 38.803 408.462 42.697 Q412.315 46.591 412.315 52.9853 M406.167 49.7062 Q406.167 45.7302 404.24 43.1889 Q402.314 40.6476 398.789 40.6476 Q397.764 40.6476 396.575 40.9755 Q395.387 41.2624 393.829 42.0412 Q392.312 42.82 390.591 44.4596 Q388.91 46.0581 387.435 48.3535 Q385.508 51.3868 384.033 56.9613 Q382.598 62.4948 382.598 65.815 Q382.598 70.4058 384.729 72.7012 Q386.861 74.9556 389.894 74.9556 Q392.845 74.9556 395.96 72.9061 Q399.117 70.8157 401.289 67.2496 Q403.461 63.5606 404.814 58.15 Q406.167 52.6984 406.167 49.7062 Z" fill="#000000" fill-rule="evenodd" fill-opacity="1" /><path clip-path="url(#clip140)" d="M447.585 52.2065 Q447.585 58.109 444.593 63.8885 Q441.642 69.627 436.887 73.234 Q432.173 76.8411 427.337 76.8411 Q422.623 76.8411 419.631 73.234 Q416.679 69.586 416.679 63.6425 Q416.679 61.5521 416.925 60.0765 Q417.171 58.6009 418.032 55.1578 L424.918 27.7769 Q426.107 22.6533 426.107 22.6123 Q426.107 22.1204 425.902 21.8745 Q425.738 21.5876 424.754 21.3826 Q423.77 21.1777 421.885 21.1777 Q421.106 21.1777 420.737 21.1367 Q420.409 21.0957 420.122 20.8907 Q419.877 20.6448 419.877 20.1529 Q419.877 19.4561 420.163 19.0872 Q420.491 18.6773 420.737 18.5953 Q420.983 18.5134 421.475 18.4724 Q422.172 18.4314 424.508 18.2264 Q426.845 17.9805 428.853 17.8165 Q430.862 17.6526 431.722 17.6526 Q432.214 17.6526 432.46 17.8985 Q432.747 18.1035 432.747 18.3494 L432.788 18.5543 L426.599 43.8447 Q431.476 38.803 436.436 38.803 Q441.396 38.803 444.47 42.615 Q447.585 46.4271 447.585 52.2065 M441.519 48.5175 Q441.519 44.6235 440.043 42.656 Q438.609 40.6476 436.231 40.6476 Q434.223 40.6476 431.599 42.1642 Q428.976 43.6808 426.189 47.3698 Q425.656 48.0666 425.451 48.4765 Q425.287 48.8864 424.918 50.28 L423.074 58.027 Q421.721 63.3146 421.721 66.5118 Q421.721 70.8567 423.32 72.9061 Q424.918 74.9556 427.337 74.9556 Q429.878 74.9556 432.542 72.7012 Q435.207 70.4468 437.256 66.3478 Q438.527 63.6425 440.002 57.8221 Q441.519 51.9606 441.519 48.5175 Z" fill="#000000" fill-rule="evenodd" fill-opacity="1" /><path clip-path="url(#clip140)" d="M469.94 18.5543 L457.848 67.0856 Q457.356 69.0121 457.356 71.1026 Q457.356 74.9556 459.898 74.9556 Q461.086 74.9556 462.07 74.1768 Q463.054 73.357 463.792 71.7584 Q464.57 70.1189 465.062 68.5613 Q465.595 67.0037 466.251 64.5853 Q466.456 63.6425 466.661 63.3556 Q466.866 63.0687 467.44 63.0687 Q468.464 63.0687 468.464 63.8885 Q467.44 68.9302 465.923 72.1273 Q463.71 76.8411 459.611 76.8411 Q456.536 76.8411 454.241 74.7097 Q451.987 72.5372 451.987 69.0941 Q451.987 67.7825 452.397 66.2249 L462.972 24.2519 L463.259 22.6123 Q463.259 22.1614 463.095 21.9155 Q462.931 21.6695 461.947 21.4236 Q461.004 21.1777 459.119 21.1777 Q458.34 21.1777 457.971 21.1367 Q457.643 21.0957 457.315 20.8907 Q457.028 20.6858 457.028 20.2349 Q457.028 19.4971 457.315 19.0872 Q457.643 18.6773 457.889 18.5953 Q458.135 18.5134 458.627 18.4724 Q459.324 18.4314 461.66 18.2264 Q463.997 17.9805 466.005 17.8165 Q468.013 17.6526 468.874 17.6526 Q469.366 17.6526 469.612 17.8985 Q469.899 18.1035 469.94 18.3494 L469.94 18.5543 Z" fill="#000000" fill-rule="evenodd" fill-opacity="1" /><path clip-path="url(#clip140)" d="M509.689 66.1839 Q510.017 66.5528 510.017 66.9217 Q510.017 67.2906 509.197 68.3563 Q508.418 69.422 506.738 70.8567 Q505.057 72.2913 502.885 73.6439 Q500.712 74.9966 497.515 75.8983 Q494.318 76.8411 490.957 76.8411 Q484.931 76.8411 481.324 72.5372 Q477.758 68.2333 477.758 61.6341 Q477.758 57.4122 479.152 53.6822 Q480.545 49.9111 482.8 47.2468 Q485.095 44.5825 487.965 42.656 Q490.875 40.6886 493.908 39.7458 Q496.941 38.803 499.769 38.803 Q503.909 38.803 506.328 40.8935 Q508.746 42.984 508.746 45.9352 Q508.746 46.632 508.541 47.4928 Q508.377 48.3535 507.803 49.7062 Q507.27 51.0588 505.877 52.4115 Q504.483 53.7231 502.434 54.5839 Q497.884 56.5104 489.604 56.5104 L485.136 56.5104 Q483.825 61.798 483.825 65.2411 Q483.825 66.5938 484.071 67.9874 Q484.316 69.3401 484.972 71.0616 Q485.669 72.7832 487.227 73.8899 Q488.825 74.9556 491.121 74.9556 Q491.859 74.9556 492.637 74.9146 Q493.457 74.8736 495.507 74.4227 Q497.597 73.9718 499.442 73.1931 Q501.286 72.4143 503.622 70.7337 Q506 69.0121 507.885 66.6758 Q508.541 65.815 508.992 65.815 Q509.361 65.815 509.689 66.1839 M505.959 45.9352 Q505.959 43.6808 504.278 42.1642 Q502.639 40.6476 499.769 40.6476 Q498.868 40.6476 497.761 40.8525 Q496.654 41.0575 494.81 41.9182 Q493.006 42.779 491.408 44.2136 Q489.809 45.6073 488.21 48.3535 Q486.612 51.0588 485.669 54.6659 L489.112 54.6659 Q490.301 54.6659 491.162 54.6659 Q492.022 54.6249 493.908 54.461 Q495.834 54.297 497.228 54.0101 Q498.622 53.6822 500.384 53.0263 Q502.147 52.3705 503.254 51.5097 Q504.401 50.608 505.18 49.1733 Q505.959 47.7387 505.959 45.9352 Z" fill="#000000" fill-rule="evenodd" fill-opacity="1" /><path clip-path="url(#clip140)" d="M583.587 63.8885 Q583.587 64.2164 583.218 65.4871 Q582.849 66.7577 581.947 68.7252 Q581.086 70.6927 579.857 72.4962 Q578.668 74.2588 576.701 75.5704 Q574.774 76.8411 572.561 76.8411 Q569.609 76.8411 567.642 74.8736 Q565.674 72.9061 565.674 69.9549 Q565.674 68.3563 566.781 65.3231 Q571.987 51.4687 571.987 46.509 Q571.987 40.6476 567.437 40.6476 Q564.855 40.6476 562.518 41.7133 Q560.182 42.779 558.665 44.2546 Q557.149 45.7302 555.96 47.4108 Q554.771 49.0914 554.238 50.1981 Q553.747 51.3048 553.624 51.7966 L548.582 72.0454 Q548.172 73.7669 547.885 74.5867 Q547.598 75.4065 546.819 76.1033 Q546.041 76.8411 544.811 76.8411 Q543.786 76.8411 543.048 76.2263 Q542.352 75.6114 542.352 74.5457 Q542.352 74.3817 542.557 73.521 Q542.761 72.6602 543.048 71.4715 Q543.335 70.2828 543.458 69.586 Q544.934 64.0115 545.139 63.2327 L547.475 53.4772 Q548.746 48.6405 548.746 46.509 Q548.746 40.6476 544.196 40.6476 Q541.942 40.6476 539.81 41.5083 Q537.72 42.3281 536.285 43.4758 Q534.851 44.6235 533.539 46.2221 Q532.268 47.7797 531.612 48.8454 Q530.998 49.8702 530.506 50.8949 L529.44 55.0758 Q529.194 56.2235 528.005 60.6913 L526.161 68.2743 Q524.849 73.9309 524.562 74.4637 Q524.152 75.6114 523.251 76.2263 Q522.349 76.8411 521.447 76.8411 Q520.422 76.8411 519.726 76.2263 Q519.029 75.6114 519.029 74.5457 Q519.029 74.3817 519.152 73.7669 Q519.275 73.1521 519.48 72.2913 Q519.685 71.4305 519.767 70.9386 L524.644 51.5507 Q525.546 48.0256 525.751 46.9189 Q525.997 45.7712 525.997 44.5006 Q525.997 40.6476 523.374 40.6476 Q521.242 40.6476 519.848 43.1889 Q518.455 45.7302 517.266 50.6489 Q516.897 52.0016 516.651 52.2885 Q516.446 52.5754 515.832 52.5754 Q514.807 52.5345 514.807 51.7147 Q514.807 51.5097 515.135 50.1981 Q515.463 48.8864 516.077 46.9189 Q516.733 44.9104 517.43 43.5988 Q517.84 42.738 518.209 42.1642 Q518.578 41.5903 519.316 40.6886 Q520.053 39.7868 521.16 39.2949 Q522.267 38.803 523.619 38.803 Q526.612 38.803 528.825 40.7295 Q531.08 42.656 531.366 46.0991 Q536.818 38.803 544.442 38.803 Q548.746 38.803 551.328 40.9755 Q553.747 43.0659 554.034 46.9189 Q559.69 38.803 567.724 38.803 Q572.356 38.803 574.856 41.2214 Q577.356 43.5988 577.356 47.7797 Q577.356 49.9521 576.25 54.092 Q575.143 58.191 574.405 60.2404 Q573.667 62.2899 572.233 66.2249 Q570.716 69.9959 570.716 72.2093 Q570.716 73.6439 571.208 74.2998 Q571.7 74.9556 572.766 74.9556 Q574.405 74.9556 575.84 74.0128 Q577.274 73.0291 578.299 71.4305 Q579.365 69.7909 580.062 68.1514 Q580.759 66.4708 581.291 64.5853 Q581.619 63.5606 581.783 63.3146 Q581.988 63.0687 582.562 63.0687 Q583.587 63.0687 583.587 63.8885 Z" fill="#000000" fill-rule="evenodd" fill-opacity="1" /><path clip-path="url(#clip140)" d="M609.98 27.9819 L609.98 25.3586 Q620.063 25.3586 625.269 19.989 Q626.703 19.989 626.949 20.3169 Q627.195 20.6448 627.195 22.1614 L627.195 69.2581 Q627.195 71.7584 628.425 72.5372 Q629.654 73.316 635.024 73.316 L637.688 73.316 L637.688 75.8983 Q634.737 75.6524 624.08 75.6524 Q613.423 75.6524 610.512 75.8983 L610.512 73.316 L613.177 73.316 Q618.464 73.316 619.735 72.5782 Q621.006 71.7994 621.006 69.2581 L621.006 25.7685 Q616.62 27.9819 609.98 27.9819 Z" fill="#000000" fill-rule="evenodd" fill-opacity="1" /><path clip-path="url(#clip140)" d="M644.321 74.5457 Q643.05 73.1931 643.05 71.4305 Q643.05 69.668 644.321 68.3973 Q645.591 67.0856 647.518 67.0856 Q649.362 67.0856 650.592 68.3153 Q651.863 69.504 651.863 71.4715 Q651.863 73.398 650.51 74.6687 Q649.198 75.8983 647.518 75.8983 Q645.591 75.8983 644.321 74.5457 Z" fill="#000000" fill-rule="evenodd" fill-opacity="1" /><path clip-path="url(#clip140)" d="M666.149 75.8983 Q666.149 74.3817 666.272 73.9309 Q666.436 73.48 667.092 72.7832 L683.201 54.8299 Q692.013 44.9104 692.013 36.2617 Q692.013 30.6462 689.062 26.6292 Q686.152 22.6123 680.782 22.6123 Q677.093 22.6123 673.978 24.8667 Q670.863 27.1211 669.428 31.1381 Q669.674 31.0561 670.535 31.0561 Q672.625 31.0561 673.773 32.3677 Q674.962 33.6794 674.962 35.4419 Q674.962 37.6963 673.486 38.803 Q672.052 39.8688 670.617 39.8688 Q670.043 39.8688 669.264 39.7458 Q668.526 39.6228 667.338 38.4751 Q666.149 37.2864 666.149 35.196 Q666.149 29.3345 670.576 24.6617 Q675.044 19.989 681.848 19.989 Q689.554 19.989 694.596 24.5798 Q699.678 29.1296 699.678 36.2617 Q699.678 38.7621 698.9 41.0575 Q698.162 43.3119 697.137 45.0744 Q696.153 46.8369 693.448 49.6652 Q690.743 52.4935 688.57 54.5019 Q686.398 56.5104 681.52 60.7733 L672.625 69.422 L687.75 69.422 Q695.128 69.422 695.702 68.7662 Q696.522 67.5775 697.547 61.3062 L699.678 61.3062 L697.301 75.8983 L666.149 75.8983 Z" fill="#000000" fill-rule="evenodd" fill-opacity="1" /><path clip-path="url(#clip140)" d="M732.322 74.6277 Q731.01 73.316 731.01 71.4715 Q731.01 69.627 732.322 68.3153 Q733.633 67.0037 735.478 67.0037 Q737.322 67.0037 738.634 68.3153 Q739.946 69.627 739.946 71.4715 Q739.946 73.316 738.634 74.6277 Q737.322 75.8983 735.478 75.8983 Q733.633 75.8983 732.322 74.6277 M732.322 47.3288 Q731.01 46.0172 731.01 44.1726 Q731.01 42.3281 732.322 41.0165 Q733.633 39.7048 735.478 39.7048 Q737.322 39.7048 738.634 41.0165 Q739.946 42.3281 739.946 44.1726 Q739.946 46.0172 738.634 47.3288 Q737.322 48.5995 735.478 48.5995 Q733.633 48.5995 732.322 47.3288 Z" fill="#000000" fill-rule="evenodd" fill-opacity="1" /><path clip-path="url(#clip140)" d="M841.35 22.4893 Q841.35 24.7437 839.915 26.1374 Q838.521 27.531 836.759 27.531 Q835.488 27.531 834.545 26.7522 Q833.644 25.9734 833.644 24.6208 Q833.644 23.2271 834.709 21.7515 Q835.775 20.2759 838.193 20.0709 Q836.595 18.5543 834.054 18.5543 Q832.783 18.5543 831.717 19.3741 Q830.692 20.1529 830.119 21.4236 Q829.504 22.7353 828.11 30.1543 Q827.659 32.5727 827.249 34.9091 Q826.839 37.2455 826.348 39.7048 L833.316 39.7048 Q834.217 39.7048 834.586 39.7458 Q834.955 39.7868 835.242 39.9917 Q835.57 40.1967 835.57 40.6476 Q835.57 41.7953 835.037 42.0822 Q834.545 42.3281 833.07 42.3281 L825.856 42.3281 L820.814 68.9302 Q820.691 69.709 820.158 72.1683 Q819.666 74.5867 818.478 78.5626 Q817.289 82.5796 816.1 84.957 Q815.444 86.3096 814.584 87.5803 Q813.764 88.8919 812.575 90.2036 Q811.386 91.5153 809.829 92.2941 Q808.271 93.1138 806.632 93.1138 Q803.844 93.1138 801.672 91.5562 Q799.5 89.9987 799.5 87.3344 Q799.5 85.0799 800.893 83.6863 Q802.328 82.2927 804.09 82.2927 Q805.361 82.2927 806.263 83.0715 Q807.206 83.8503 807.206 85.2029 Q807.206 85.7768 807.001 86.4326 Q806.796 87.0884 806.345 87.8262 Q805.894 88.605 804.91 89.1379 Q803.926 89.6707 802.574 89.7527 Q804.172 91.2693 806.632 91.2693 Q807.41 91.2693 808.107 90.9414 Q808.804 90.6545 809.378 89.9167 Q809.993 89.1789 810.444 88.4411 Q810.895 87.7442 811.345 86.3916 Q811.796 85.0799 812.083 84.0962 Q812.37 83.1125 812.739 81.3499 Q813.149 79.5874 813.354 78.5217 Q813.559 77.4969 813.928 75.4885 L820.199 42.3281 L814.666 42.3281 Q813.682 42.3281 813.272 42.2871 Q812.903 42.2461 812.616 42.0412 Q812.329 41.7953 812.329 41.3034 Q812.329 40.5246 812.657 40.1967 Q813.026 39.8278 813.436 39.7868 Q813.846 39.7048 814.83 39.7048 L820.65 39.7048 Q822.617 29.3345 823.396 26.5473 Q824.298 23.596 825.692 21.5466 Q827.085 19.4561 828.643 18.4724 Q830.201 17.4886 831.471 17.1197 Q832.783 16.7098 834.054 16.7098 Q836.923 16.7098 839.136 18.2674 Q841.35 19.784 841.35 22.4893 Z" fill="#000000" fill-rule="evenodd" fill-opacity="1" /><path clip-path="url(#clip140)" d="M852.649 54.9118 Q852.649 40.7295 857.937 29.2935 Q860.191 24.4978 863.348 20.4808 Q866.504 16.4639 868.594 14.7014 Q870.685 12.9388 871.258 12.9388 Q872.078 12.9388 872.119 13.7586 Q872.119 14.1685 871.013 15.1932 Q857.486 28.9656 857.527 54.9118 Q857.527 80.94 870.685 94.1796 Q872.119 95.6142 872.119 96.0651 Q872.119 96.8849 871.258 96.8849 Q870.685 96.8849 868.676 95.2043 Q866.668 93.5237 863.552 89.6707 Q860.437 85.8177 858.183 81.104 Q852.649 69.668 852.649 54.9118 Z" fill="#000000" fill-rule="evenodd" fill-opacity="1" /><path clip-path="url(#clip140)" d="M920.308 44.3366 Q920.308 46.632 918.873 47.9437 Q917.438 49.2143 915.799 49.2143 Q914.241 49.2143 913.421 48.3126 Q912.602 47.4108 912.602 46.2631 Q912.602 44.7055 913.749 43.3529 Q914.897 42.0002 916.619 41.7133 Q914.938 40.6476 912.438 40.6476 Q910.798 40.6476 909.363 41.5083 Q907.97 42.3691 907.109 43.4758 Q906.289 44.5825 905.551 46.1811 Q904.855 47.7387 904.568 48.6815 Q904.322 49.5832 904.117 50.567 L901.248 62.044 Q899.854 67.4955 899.854 69.422 Q899.854 71.7994 901.002 73.398 Q902.149 74.9556 904.445 74.9556 Q905.347 74.9556 906.371 74.7097 Q907.396 74.4227 908.708 73.6849 Q910.06 72.9061 911.249 71.7584 Q912.479 70.5697 913.667 68.5613 Q914.856 66.5528 915.635 63.9705 Q915.881 63.0687 916.701 63.0687 Q917.725 63.0687 917.725 63.8885 Q917.725 64.5853 917.151 66.0609 Q916.619 67.4955 915.43 69.381 Q914.282 71.2256 912.766 72.9061 Q911.249 74.5457 908.995 75.6934 Q906.74 76.8411 904.281 76.8411 Q900.756 76.8411 898.419 74.9556 Q896.083 73.0701 895.222 70.4468 Q895.017 70.8157 894.73 71.3075 Q894.443 71.7994 893.583 72.9061 Q892.763 73.9718 891.82 74.7916 Q890.877 75.5704 889.402 76.1853 Q887.967 76.8411 886.409 76.8411 Q884.442 76.8411 882.679 76.2672 Q880.958 75.6934 879.728 74.3817 Q878.499 73.0701 878.499 71.2666 Q878.499 69.2581 879.851 67.8644 Q881.245 66.4298 883.13 66.4298 Q884.319 66.4298 885.262 67.1266 Q886.246 67.8235 886.246 69.3401 Q886.246 71.0206 885.098 72.2913 Q883.95 73.562 882.311 73.8899 Q883.991 74.9556 886.491 74.9556 Q889.197 74.9556 891.328 72.5782 Q893.46 70.2008 894.484 66.2249 Q897.026 56.6744 898.009 52.4115 Q898.993 48.1076 898.993 46.2631 Q898.993 44.5415 898.542 43.3529 Q898.091 42.1642 897.313 41.6313 Q896.575 41.0575 895.878 40.8525 Q895.222 40.6476 894.484 40.6476 Q893.255 40.6476 891.861 41.1394 Q890.508 41.6313 888.869 42.779 Q887.27 43.8857 885.754 46.1811 Q884.237 48.4765 883.212 51.6327 Q883.007 52.5754 882.106 52.5754 Q881.122 52.5345 881.122 51.7147 Q881.122 51.0179 881.655 49.5832 Q882.229 48.1076 883.376 46.2631 Q884.565 44.4186 886.082 42.779 Q887.639 41.0984 889.894 39.9507 Q892.189 38.803 894.648 38.803 Q895.755 38.803 896.821 39.049 Q897.927 39.2539 899.239 39.8688 Q900.592 40.4836 901.78 41.8363 Q902.969 43.1889 903.707 45.1564 Q904.199 44.2136 904.855 43.3119 Q905.551 42.4101 906.617 41.3034 Q907.724 40.1557 909.241 39.4999 Q910.798 38.803 912.52 38.803 Q914.2 38.803 915.84 39.2539 Q917.479 39.6638 918.873 41.0165 Q920.308 42.3281 920.308 44.3366 Z" fill="#000000" fill-rule="evenodd" fill-opacity="1" /><path clip-path="url(#clip140)" d="M928.388 96.0651 Q928.388 95.6552 929.454 94.6304 Q942.981 80.858 942.981 54.9118 Q942.981 28.8836 929.987 15.7261 Q928.388 14.2095 928.388 13.7586 Q928.388 12.9388 929.208 12.9388 Q929.782 12.9388 931.791 14.6194 Q933.84 16.2999 936.914 20.1529 Q940.029 24.0059 942.325 28.7197 Q947.858 40.1557 947.858 54.9118 Q947.858 69.0941 942.571 80.5301 Q940.316 85.3259 937.16 89.3428 Q934.004 93.3598 931.914 95.1223 Q929.823 96.8849 929.208 96.8849 Q928.388 96.8849 928.388 96.0651 Z" fill="#000000" fill-rule="evenodd" fill-opacity="1" /><path clip-path="url(#clip140)" d="M983.912 63.1507 Q983.994 62.1259 985.593 62.1259 L1037.03 62.1259 Q1039.45 62.1259 1039.49 63.0687 Q1039.49 64.0934 1037.2 64.0524 L986.167 64.0524 Q983.912 64.0934 983.912 63.1507 M983.912 46.755 Q983.912 45.7302 985.675 45.7712 L1036.95 45.7712 Q1039.45 45.7712 1039.49 46.755 Q1039.49 47.6977 1037.36 47.6977 L985.593 47.6977 Q983.912 47.6977 983.912 46.755 Z" fill="#000000" fill-rule="evenodd" fill-opacity="1" /><path clip-path="url(#clip140)" d="M1103.8 66.1839 Q1104.13 66.5528 1104.13 66.9217 Q1104.13 67.2906 1103.31 68.3563 Q1102.53 69.422 1100.85 70.8567 Q1099.17 72.2913 1097 73.6439 Q1094.83 74.9966 1091.63 75.8983 Q1088.43 76.8411 1085.07 76.8411 Q1079.05 76.8411 1075.44 72.5372 Q1071.87 68.2333 1071.87 61.6341 Q1071.87 57.4122 1073.27 53.6822 Q1074.66 49.9111 1076.91 47.2468 Q1079.21 44.5825 1082.08 42.656 Q1084.99 40.6886 1088.02 39.7458 Q1091.06 38.803 1093.88 38.803 Q1098.02 38.803 1100.44 40.8935 Q1102.86 42.984 1102.86 45.9352 Q1102.86 46.632 1102.66 47.4928 Q1102.49 48.3535 1101.92 49.7062 Q1101.38 51.0588 1099.99 52.4115 Q1098.6 53.7231 1096.55 54.5839 Q1092 56.5104 1083.72 56.5104 L1079.25 56.5104 Q1077.94 61.798 1077.94 65.2411 Q1077.94 66.5938 1078.18 67.9874 Q1078.43 69.3401 1079.09 71.0616 Q1079.78 72.7832 1081.34 73.8899 Q1082.94 74.9556 1085.23 74.9556 Q1085.97 74.9556 1086.75 74.9146 Q1087.57 74.8736 1089.62 74.4227 Q1091.71 73.9718 1093.56 73.1931 Q1095.4 72.4143 1097.74 70.7337 Q1100.11 69.0121 1102 66.6758 Q1102.66 65.815 1103.11 65.815 Q1103.47 65.815 1103.8 66.1839 M1100.07 45.9352 Q1100.07 43.6808 1098.39 42.1642 Q1096.75 40.6476 1093.88 40.6476 Q1092.98 40.6476 1091.87 40.8525 Q1090.77 41.0575 1088.92 41.9182 Q1087.12 42.779 1085.52 44.2136 Q1083.92 45.6073 1082.32 48.3535 Q1080.73 51.0588 1079.78 54.6659 L1083.23 54.6659 Q1084.41 54.6659 1085.28 54.6659 Q1086.14 54.6249 1088.02 54.461 Q1089.95 54.297 1091.34 54.0101 Q1092.74 53.6822 1094.5 53.0263 Q1096.26 52.3705 1097.37 51.5097 Q1098.52 50.608 1099.29 49.1733 Q1100.07 47.7387 1100.07 45.9352 Z" fill="#000000" fill-rule="evenodd" fill-opacity="1" /><path clip-path="url(#clip140)" d="M1151.56 30.6993 Q1151.91 31.0436 1151.91 31.5314 Q1151.91 32.0192 1151.56 32.3635 Q1151.22 32.7078 1150.73 32.7078 L1113.95 32.7078 Q1113.46 32.7078 1113.11 32.3635 Q1112.77 32.0192 1112.77 31.5314 Q1112.77 31.0436 1113.11 30.6993 Q1113.46 30.355 1113.95 30.355 L1150.73 30.355 Q1151.22 30.355 1151.56 30.6993 Z" fill="#000000" fill-rule="evenodd" fill-opacity="1" /><path clip-path="url(#clip140)" d="M1187.3 24.1287 Q1187.3 25.7355 1186.3 26.6537 Q1185.3 27.5431 1184.15 27.5431 Q1183.06 27.5431 1182.48 26.9119 Q1181.91 26.2807 1181.91 25.4773 Q1181.91 24.3869 1182.71 23.4401 Q1183.52 22.4932 1184.72 22.2924 Q1183.55 21.5464 1181.8 21.5464 Q1180.65 21.5464 1179.64 22.1489 Q1178.67 22.7515 1178.07 23.5262 Q1177.49 24.3009 1176.98 25.4199 Q1176.49 26.5102 1176.29 27.1701 Q1176.11 27.8014 1175.97 28.49 L1173.96 36.5239 Q1172.99 40.34 1172.99 41.6885 Q1172.99 43.3527 1173.79 44.4717 Q1174.59 45.562 1176.2 45.562 Q1176.83 45.562 1177.55 45.3899 Q1178.27 45.189 1179.18 44.6725 Q1180.13 44.1274 1180.96 43.324 Q1181.82 42.4919 1182.66 41.086 Q1183.49 39.68 1184.03 37.8724 Q1184.21 37.2412 1184.78 37.2412 Q1185.5 37.2412 1185.5 37.815 Q1185.5 38.3028 1185.1 39.3357 Q1184.72 40.34 1183.89 41.6598 Q1183.09 42.951 1182.03 44.1274 Q1180.96 45.2751 1179.39 46.0785 Q1177.81 46.8819 1176.09 46.8819 Q1173.62 46.8819 1171.98 45.562 Q1170.35 44.2422 1169.74 42.4058 Q1169.6 42.6641 1169.4 43.0084 Q1169.2 43.3527 1168.6 44.1274 Q1168.02 44.8734 1167.36 45.4472 Q1166.7 45.9924 1165.67 46.4228 Q1164.67 46.8819 1163.58 46.8819 Q1162.2 46.8819 1160.96 46.4802 Q1159.76 46.0785 1158.9 45.1603 Q1158.04 44.2422 1158.04 42.9797 Q1158.04 41.5738 1158.99 40.5982 Q1159.96 39.594 1161.28 39.594 Q1162.11 39.594 1162.77 40.0817 Q1163.46 40.5695 1163.46 41.6311 Q1163.46 42.8075 1162.66 43.697 Q1161.85 44.5865 1160.71 44.816 Q1161.88 45.562 1163.63 45.562 Q1165.53 45.562 1167.02 43.8978 Q1168.51 42.2337 1169.23 39.4505 Q1171.01 32.7652 1171.7 29.7811 Q1172.38 26.7684 1172.38 25.4773 Q1172.38 24.2722 1172.07 23.4401 Q1171.75 22.608 1171.21 22.235 Q1170.69 21.8333 1170.2 21.6899 Q1169.74 21.5464 1169.23 21.5464 Q1168.37 21.5464 1167.39 21.8907 Q1166.45 22.235 1165.3 23.0384 Q1164.18 23.8131 1163.12 25.4199 Q1162.06 27.0267 1161.34 29.236 Q1161.19 29.8959 1160.56 29.8959 Q1159.87 29.8672 1159.87 29.2934 Q1159.87 28.8056 1160.25 27.8014 Q1160.65 26.7684 1161.45 25.4773 Q1162.28 24.1861 1163.35 23.0384 Q1164.44 21.862 1166.01 21.0586 Q1167.62 20.2552 1169.34 20.2552 Q1170.12 20.2552 1170.86 20.4274 Q1171.64 20.5708 1172.56 21.0012 Q1173.5 21.4316 1174.34 22.3785 Q1175.17 23.3253 1175.68 24.7026 Q1176.03 24.0426 1176.49 23.4114 Q1176.98 22.7802 1177.72 22.0055 Q1178.5 21.2021 1179.56 20.743 Q1180.65 20.2552 1181.85 20.2552 Q1183.03 20.2552 1184.18 20.5708 Q1185.32 20.8578 1186.3 21.8046 Q1187.3 22.7228 1187.3 24.1287 Z" fill="#000000" fill-rule="evenodd" fill-opacity="1" /><path clip-path="url(#clip140)" d="M1278.98 53.7231 Q1279.47 54.215 1279.47 54.9118 Q1279.47 55.6087 1278.98 56.1005 Q1278.49 56.5924 1277.79 56.5924 L1225.25 56.5924 Q1224.55 56.5924 1224.06 56.1005 Q1223.57 55.6087 1223.57 54.9118 Q1223.57 54.215 1224.06 53.7231 Q1224.55 53.2313 1225.25 53.2313 L1277.79 53.2313 Q1278.49 53.2313 1278.98 53.7231 Z" fill="#000000" fill-rule="evenodd" fill-opacity="1" /><path clip-path="url(#clip140)" d="M1311.53 74.7916 L1311.53 63.7245 Q1311.53 62.7818 1311.57 62.4539 Q1311.61 62.1259 1311.85 61.88 Q1312.1 61.6341 1312.59 61.6341 Q1313.16 61.6341 1313.37 61.88 Q1313.62 62.1259 1313.78 63.0687 Q1315.05 68.8482 1317.76 71.9224 Q1320.5 74.9556 1325.46 74.9556 Q1330.18 74.9556 1332.55 72.8651 Q1334.93 70.7747 1334.93 67.3316 Q1334.93 61.1832 1326.2 59.6256 Q1321.16 58.6009 1319.07 57.945 Q1316.98 57.2482 1315.13 55.7316 Q1311.53 52.7804 1311.53 48.5995 Q1311.53 44.4186 1314.68 41.3444 Q1317.88 38.2702 1324.93 38.2702 Q1329.64 38.2702 1332.84 40.6476 Q1333.78 39.9098 1334.27 39.2949 Q1335.38 38.2702 1335.95 38.2702 Q1336.61 38.2702 1336.73 38.7211 Q1336.86 39.131 1336.86 40.3197 L1336.86 48.7634 Q1336.86 49.7062 1336.82 50.0341 Q1336.77 50.362 1336.53 50.608 Q1336.28 50.8129 1335.75 50.8129 Q1334.81 50.8129 1334.77 50.0341 Q1334.11 39.8688 1324.93 39.8688 Q1319.97 39.8688 1317.76 41.7953 Q1315.54 43.6808 1315.54 46.2631 Q1315.54 47.6977 1316.2 48.8044 Q1316.89 49.8702 1317.76 50.526 Q1318.66 51.1408 1320.3 51.7557 Q1321.94 52.3295 1322.92 52.5345 Q1323.95 52.7394 1325.87 53.1493 Q1332.59 54.42 1335.42 57.1662 Q1338.95 60.6913 1338.95 65.1592 Q1338.95 70.1189 1335.59 73.48 Q1332.22 76.8411 1325.46 76.8411 Q1320.01 76.8411 1316.2 73.1931 Q1315.71 73.6849 1315.34 74.1358 Q1314.97 74.5457 1314.8 74.7097 Q1314.68 74.8736 1314.64 74.9966 Q1314.6 75.0786 1314.52 75.1605 Q1312.84 76.8411 1312.43 76.8411 Q1311.77 76.8411 1311.65 76.3902 Q1311.53 75.9803 1311.53 74.7916 Z" fill="#000000" fill-rule="evenodd" fill-opacity="1" /><path clip-path="url(#clip140)" d="M1342.23 75.8983 L1342.23 73.316 Q1346.7 73.316 1347.72 72.7832 Q1348.75 72.2093 1348.75 69.504 L1348.75 46.9189 Q1348.75 43.8037 1347.68 43.0659 Q1346.66 42.3281 1342.56 42.3281 L1342.56 39.7048 L1354.28 38.803 L1354.28 69.586 Q1354.28 72.0863 1355.18 72.7012 Q1356.08 73.316 1360.18 73.316 L1360.18 75.8983 Q1351.62 75.6524 1351.45 75.6524 Q1350.3 75.6524 1342.23 75.8983 M1345.75 24.1699 Q1345.75 22.4893 1347.03 21.1367 Q1348.34 19.743 1350.18 19.743 Q1352.03 19.743 1353.34 21.0137 Q1354.65 22.2434 1354.65 24.2109 Q1354.65 26.1374 1353.34 27.408 Q1352.03 28.6377 1350.18 28.6377 Q1348.26 28.6377 1346.98 27.2851 Q1345.75 25.9324 1345.75 24.1699 Z" fill="#000000" fill-rule="evenodd" fill-opacity="1" /><path clip-path="url(#clip140)" d="M1365.92 75.8983 L1365.92 73.316 Q1370.39 73.316 1371.41 72.7832 Q1372.44 72.2093 1372.44 69.504 L1372.44 47.0009 Q1372.44 43.8857 1371.33 43.1069 Q1370.26 42.3281 1365.92 42.3281 L1365.92 39.7048 L1377.72 38.803 L1377.72 47.6157 Q1381.66 38.803 1390.14 38.803 Q1396.46 38.803 1398.96 41.9182 Q1400.8 44.0087 1401.17 46.3451 Q1401.58 48.6815 1401.58 54.7479 L1401.58 70.7747 Q1401.66 72.5372 1403.01 72.9471 Q1404.37 73.316 1408.14 73.316 L1408.14 75.8983 Q1399.57 75.6524 1398.71 75.6524 Q1398.06 75.6524 1389.24 75.8983 L1389.24 73.316 Q1393.71 73.316 1394.74 72.7832 Q1395.8 72.2093 1395.8 69.504 L1395.8 49.9521 Q1395.8 45.6892 1394.49 43.1889 Q1393.18 40.6476 1389.57 40.6476 Q1385.23 40.6476 1381.74 44.2956 Q1378.26 47.9437 1378.26 54.092 L1378.26 69.504 Q1378.26 72.2093 1379.28 72.7832 Q1380.35 73.316 1384.77 73.316 L1384.77 75.8983 Q1376.21 75.6524 1375.39 75.6524 Q1374.73 75.6524 1365.92 75.8983 Z" fill="#000000" fill-rule="evenodd" fill-opacity="1" /><path clip-path="url(#clip140)" d="M1453.85 44.3366 Q1453.85 46.632 1452.41 47.9437 Q1450.98 49.2143 1449.34 49.2143 Q1447.78 49.2143 1446.96 48.3126 Q1446.14 47.4108 1446.14 46.2631 Q1446.14 44.7055 1447.29 43.3529 Q1448.44 42.0002 1450.16 41.7133 Q1448.48 40.6476 1445.98 40.6476 Q1444.34 40.6476 1442.9 41.5083 Q1441.51 42.3691 1440.65 43.4758 Q1439.83 44.5825 1439.09 46.1811 Q1438.39 47.7387 1438.11 48.6815 Q1437.86 49.5832 1437.65 50.567 L1434.79 62.044 Q1433.39 67.4955 1433.39 69.422 Q1433.39 71.7994 1434.54 73.398 Q1435.69 74.9556 1437.98 74.9556 Q1438.88 74.9556 1439.91 74.7097 Q1440.93 74.4227 1442.25 73.6849 Q1443.6 72.9061 1444.79 71.7584 Q1446.02 70.5697 1447.21 68.5613 Q1448.39 66.5528 1449.17 63.9705 Q1449.42 63.0687 1450.24 63.0687 Q1451.26 63.0687 1451.26 63.8885 Q1451.26 64.5853 1450.69 66.0609 Q1450.16 67.4955 1448.97 69.381 Q1447.82 71.2256 1446.3 72.9061 Q1444.79 74.5457 1442.53 75.6934 Q1440.28 76.8411 1437.82 76.8411 Q1434.29 76.8411 1431.96 74.9556 Q1429.62 73.0701 1428.76 70.4468 Q1428.56 70.8157 1428.27 71.3075 Q1427.98 71.7994 1427.12 72.9061 Q1426.3 73.9718 1425.36 74.7916 Q1424.42 75.5704 1422.94 76.1853 Q1421.51 76.8411 1419.95 76.8411 Q1417.98 76.8411 1416.22 76.2672 Q1414.5 75.6934 1413.27 74.3817 Q1412.04 73.0701 1412.04 71.2666 Q1412.04 69.2581 1413.39 67.8644 Q1414.78 66.4298 1416.67 66.4298 Q1417.86 66.4298 1418.8 67.1266 Q1419.78 67.8235 1419.78 69.3401 Q1419.78 71.0206 1418.64 72.2913 Q1417.49 73.562 1415.85 73.8899 Q1417.53 74.9556 1420.03 74.9556 Q1422.73 74.9556 1424.87 72.5782 Q1427 70.2008 1428.02 66.2249 Q1430.56 56.6744 1431.55 52.4115 Q1432.53 48.1076 1432.53 46.2631 Q1432.53 44.5415 1432.08 43.3529 Q1431.63 42.1642 1430.85 41.6313 Q1430.11 41.0575 1429.42 40.8525 Q1428.76 40.6476 1428.02 40.6476 Q1426.79 40.6476 1425.4 41.1394 Q1424.05 41.6313 1422.41 42.779 Q1420.81 43.8857 1419.29 46.1811 Q1417.78 48.4765 1416.75 51.6327 Q1416.55 52.5754 1415.64 52.5754 Q1414.66 52.5345 1414.66 51.7147 Q1414.66 51.0179 1415.19 49.5832 Q1415.77 48.1076 1416.91 46.2631 Q1418.1 44.4186 1419.62 42.779 Q1421.18 41.0984 1423.43 39.9507 Q1425.73 38.803 1428.19 38.803 Q1429.29 38.803 1430.36 39.049 Q1431.47 39.2539 1432.78 39.8688 Q1434.13 40.4836 1435.32 41.8363 Q1436.51 43.1889 1437.25 45.1564 Q1437.74 44.2136 1438.39 43.3119 Q1439.09 42.4101 1440.16 41.3034 Q1441.26 40.1557 1442.78 39.4999 Q1444.34 38.803 1446.06 38.803 Q1447.74 38.803 1449.38 39.2539 Q1451.02 39.6638 1452.41 41.0165 Q1453.85 42.3281 1453.85 44.3366 Z" fill="#000000" fill-rule="evenodd" fill-opacity="1" /><path clip-path="url(#clip140)" d="M1482.87 63.1507 Q1482.95 62.1259 1484.55 62.1259 L1535.99 62.1259 Q1538.41 62.1259 1538.45 63.0687 Q1538.45 64.0934 1536.15 64.0524 L1485.12 64.0524 Q1482.87 64.0934 1482.87 63.1507 M1482.87 46.755 Q1482.87 45.7302 1484.63 45.7712 L1535.91 45.7712 Q1538.41 45.7712 1538.45 46.755 Q1538.45 47.6977 1536.32 47.6977 L1484.55 47.6977 Q1482.87 47.6977 1482.87 46.755 Z" fill="#000000" fill-rule="evenodd" fill-opacity="1" /><path clip-path="url(#clip140)" d="M1570.83 49.0504 Q1570.83 36.7126 1573.94 29.9904 Q1578.29 19.989 1588.53 19.989 Q1590.7 19.989 1592.96 20.6038 Q1595.25 21.1777 1598.12 23.4321 Q1601.03 25.6865 1602.8 29.3755 Q1606.16 36.5076 1606.16 49.0504 Q1606.16 61.3062 1603.04 67.9874 Q1598.49 77.7429 1588.45 77.7429 Q1584.68 77.7429 1580.83 75.8164 Q1577.01 73.8899 1574.6 69.2581 Q1570.83 62.3309 1570.83 49.0504 M1577.79 48.0256 Q1577.79 60.6913 1578.69 65.733 Q1579.72 71.1846 1582.51 73.562 Q1585.34 75.8983 1588.45 75.8983 Q1591.81 75.8983 1594.6 73.398 Q1597.43 70.8567 1598.29 65.4051 Q1599.23 60.0355 1599.19 48.0256 Q1599.19 36.3437 1598.37 31.6709 Q1597.26 26.2193 1594.31 24.0469 Q1591.4 21.8335 1588.45 21.8335 Q1587.34 21.8335 1586.16 22.1614 Q1585.01 22.4893 1583.33 23.4321 Q1581.65 24.3748 1580.33 26.7112 Q1579.06 29.0476 1578.45 32.5727 Q1577.79 37.1225 1577.79 48.0256 Z" fill="#000000" fill-rule="evenodd" fill-opacity="1" /><path clip-path="url(#clip140)" d="M1613.58 74.5457 Q1612.4 73.1931 1612.4 71.4305 Q1612.4 69.668 1613.54 68.3563 Q1614.73 67.0037 1616.86 67.0037 Q1619.36 67.0037 1620.8 69.422 Q1622.23 71.7994 1622.23 75.8164 Q1622.23 80.1612 1620.47 84.1782 Q1618.71 88.2361 1616.99 90.1626 Q1615.26 92.0891 1614.57 92.0891 Q1613.75 92.0891 1613.75 91.1873 Q1613.75 90.8594 1614.32 90.2446 Q1620.35 83.7683 1620.39 75.8164 Q1620.39 74.5457 1620.22 74.5457 L1620.02 74.7097 Q1618.58 75.8983 1616.86 75.8983 Q1614.77 75.8983 1613.58 74.5457 Z" fill="#000000" fill-rule="evenodd" fill-opacity="1" /><path clip-path="url(#clip140)" d="M1779.26 44.3366 Q1779.26 46.632 1777.82 47.9437 Q1776.39 49.2143 1774.75 49.2143 Q1773.19 49.2143 1772.37 48.3126 Q1771.55 47.4108 1771.55 46.2631 Q1771.55 44.7055 1772.7 43.3529 Q1773.85 42.0002 1775.57 41.7133 Q1773.89 40.6476 1771.39 40.6476 Q1769.75 40.6476 1768.31 41.5083 Q1766.92 42.3691 1766.06 43.4758 Q1765.24 44.5825 1764.5 46.1811 Q1763.8 47.7387 1763.52 48.6815 Q1763.27 49.5832 1763.07 50.567 L1760.2 62.044 Q1758.8 67.4955 1758.8 69.422 Q1758.8 71.7994 1759.95 73.398 Q1761.1 74.9556 1763.39 74.9556 Q1764.29 74.9556 1765.32 74.7097 Q1766.34 74.4227 1767.66 73.6849 Q1769.01 72.9061 1770.2 71.7584 Q1771.43 70.5697 1772.62 68.5613 Q1773.8 66.5528 1774.58 63.9705 Q1774.83 63.0687 1775.65 63.0687 Q1776.67 63.0687 1776.67 63.8885 Q1776.67 64.5853 1776.1 66.0609 Q1775.57 67.4955 1774.38 69.381 Q1773.23 71.2256 1771.71 72.9061 Q1770.2 74.5457 1767.94 75.6934 Q1765.69 76.8411 1763.23 76.8411 Q1759.7 76.8411 1757.37 74.9556 Q1755.03 73.0701 1754.17 70.4468 Q1753.97 70.8157 1753.68 71.3075 Q1753.39 71.7994 1752.53 72.9061 Q1751.71 73.9718 1750.77 74.7916 Q1749.83 75.5704 1748.35 76.1853 Q1746.92 76.8411 1745.36 76.8411 Q1743.39 76.8411 1741.63 76.2672 Q1739.91 75.6934 1738.68 74.3817 Q1737.45 73.0701 1737.45 71.2666 Q1737.45 69.2581 1738.8 67.8644 Q1740.19 66.4298 1742.08 66.4298 Q1743.27 66.4298 1744.21 67.1266 Q1745.19 67.8235 1745.19 69.3401 Q1745.19 71.0206 1744.05 72.2913 Q1742.9 73.562 1741.26 73.8899 Q1742.94 74.9556 1745.44 74.9556 Q1748.15 74.9556 1750.28 72.5782 Q1752.41 70.2008 1753.43 66.2249 Q1755.97 56.6744 1756.96 52.4115 Q1757.94 48.1076 1757.94 46.2631 Q1757.94 44.5415 1757.49 43.3529 Q1757.04 42.1642 1756.26 41.6313 Q1755.52 41.0575 1754.83 40.8525 Q1754.17 40.6476 1753.43 40.6476 Q1752.2 40.6476 1750.81 41.1394 Q1749.46 41.6313 1747.82 42.779 Q1746.22 43.8857 1744.7 46.1811 Q1743.19 48.4765 1742.16 51.6327 Q1741.96 52.5754 1741.05 52.5754 Q1740.07 52.5345 1740.07 51.7147 Q1740.07 51.0179 1740.6 49.5832 Q1741.18 48.1076 1742.32 46.2631 Q1743.51 44.4186 1745.03 42.779 Q1746.59 41.0984 1748.84 39.9507 Q1751.14 38.803 1753.6 38.803 Q1754.7 38.803 1755.77 39.049 Q1756.88 39.2539 1758.19 39.8688 Q1759.54 40.4836 1760.73 41.8363 Q1761.92 43.1889 1762.66 45.1564 Q1763.15 44.2136 1763.8 43.3119 Q1764.5 42.4101 1765.57 41.3034 Q1766.67 40.1557 1768.19 39.4999 Q1769.75 38.803 1771.47 38.803 Q1773.15 38.803 1774.79 39.2539 Q1776.43 39.6638 1777.82 41.0165 Q1779.26 42.3281 1779.26 44.3366 Z" fill="#000000" fill-rule="evenodd" fill-opacity="1" /><path clip-path="url(#clip140)" d="M1787.81 81.2998 Q1787.81 72.6633 1789.99 67.9577 Q1793.04 60.9568 1800.21 60.9568 Q1801.73 60.9568 1803.31 61.3872 Q1804.91 61.7889 1806.92 63.367 Q1808.96 64.945 1810.19 67.5274 Q1812.55 72.5199 1812.55 81.2998 Q1812.55 89.8788 1810.37 94.5557 Q1807.18 101.385 1800.15 101.385 Q1797.51 101.385 1794.81 100.036 Q1792.15 98.6874 1790.45 95.4452 Q1787.81 90.5961 1787.81 81.2998 M1792.69 80.5824 Q1792.69 89.4484 1793.32 92.9776 Q1794.04 96.7937 1795.99 98.4579 Q1797.97 100.093 1800.15 100.093 Q1802.5 100.093 1804.45 98.3431 Q1806.43 96.5642 1807.04 92.7481 Q1807.7 88.9893 1807.67 80.5824 Q1807.67 72.4051 1807.09 69.1341 Q1806.32 65.318 1804.25 63.7973 Q1802.22 62.2479 1800.15 62.2479 Q1799.38 62.2479 1798.54 62.4775 Q1797.74 62.707 1796.56 63.367 Q1795.39 64.0269 1794.47 65.6624 Q1793.58 67.2978 1793.15 69.7654 Q1792.69 72.9502 1792.69 80.5824 Z" fill="#000000" fill-rule="evenodd" fill-opacity="1" /><path clip-path="url(#clip140)" d="M1844.55 63.1507 Q1844.63 62.1259 1846.23 62.1259 L1897.67 62.1259 Q1900.09 62.1259 1900.13 63.0687 Q1900.13 64.0934 1897.84 64.0524 L1846.81 64.0524 Q1844.55 64.0934 1844.55 63.1507 M1844.55 46.755 Q1844.55 45.7302 1846.32 45.7712 L1897.59 45.7712 Q1900.09 45.7712 1900.13 46.755 Q1900.13 47.6977 1898 47.6977 L1846.23 47.6977 Q1844.55 47.6977 1844.55 46.755 Z" fill="#000000" fill-rule="evenodd" fill-opacity="1" /><path clip-path="url(#clip140)" d="M1932.51 49.0504 Q1932.51 36.7126 1935.63 29.9904 Q1939.97 19.989 1950.22 19.989 Q1952.39 19.989 1954.65 20.6038 Q1956.94 21.1777 1959.81 23.4321 Q1962.72 25.6865 1964.48 29.3755 Q1967.85 36.5076 1967.85 49.0504 Q1967.85 61.3062 1964.73 67.9874 Q1960.18 77.7429 1950.14 77.7429 Q1946.37 77.7429 1942.51 75.8164 Q1938.7 73.8899 1936.28 69.2581 Q1932.51 62.3309 1932.51 49.0504 M1939.48 48.0256 Q1939.48 60.6913 1940.38 65.733 Q1941.41 71.1846 1944.19 73.562 Q1947.02 75.8983 1950.14 75.8983 Q1953.5 75.8983 1956.29 73.398 Q1959.11 70.8567 1959.98 65.4051 Q1960.92 60.0355 1960.88 48.0256 Q1960.88 36.3437 1960.06 31.6709 Q1958.95 26.2193 1956 24.0469 Q1953.09 21.8335 1950.14 21.8335 Q1949.03 21.8335 1947.84 22.1614 Q1946.7 22.4893 1945.01 23.4321 Q1943.33 24.3748 1942.02 26.7112 Q1940.75 29.0476 1940.14 32.5727 Q1939.48 37.1225 1939.48 48.0256 Z" fill="#000000" fill-rule="evenodd" fill-opacity="1" /><path clip-path="url(#clip140)" d="M1975.35 74.5457 Q1974.08 73.1931 1974.08 71.4305 Q1974.08 69.668 1975.35 68.3973 Q1976.62 67.0856 1978.55 67.0856 Q1980.4 67.0856 1981.63 68.3153 Q1982.9 69.504 1982.9 71.4715 Q1982.9 73.398 1981.54 74.6687 Q1980.23 75.8983 1978.55 75.8983 Q1976.62 75.8983 1975.35 74.5457 Z" fill="#000000" fill-rule="evenodd" fill-opacity="1" /><path clip-path="url(#clip140)" d="M1997.18 49.3783 Q1997.18 36.1797 2003.9 28.1048 Q2010.63 19.989 2019.28 19.989 Q2024.32 19.989 2027.1 22.5713 Q2029.93 25.1126 2029.93 29.0476 Q2029.93 31.22 2028.66 32.1628 Q2027.39 33.1055 2026.08 33.1055 Q2024.56 33.1055 2023.37 32.0808 Q2022.19 31.0561 2022.19 29.2116 Q2022.19 25.4405 2026.82 25.4405 Q2024.64 22.0794 2019.44 22.0794 Q2017.84 22.0794 2016.2 22.5713 Q2014.56 23.0222 2012.43 24.5798 Q2010.3 26.1374 2008.66 28.5967 Q2007.02 31.0561 2005.87 35.6879 Q2004.72 40.3197 2004.72 46.3451 L2004.72 48.3535 Q2008.17 40.0327 2015.22 40.0737 Q2022.27 40.0737 2027.15 45.4433 Q2032.02 50.8129 2032.02 58.7648 Q2032.02 66.9217 2026.94 72.3323 Q2021.86 77.7429 2014.73 77.7429 Q2011.53 77.7429 2008.62 76.3902 Q2005.75 75.0786 2003.04 72.0454 Q2000.38 69.0121 1998.78 63.1917 Q1997.18 57.3712 1997.18 49.3783 M2004.89 56.9203 Q2004.89 65.1592 2006.4 69.0941 Q2006.65 69.75 2007.18 70.6517 Q2007.76 71.5535 2008.7 72.7422 Q2009.68 73.8899 2011.28 74.6687 Q2012.88 75.4065 2014.73 75.4065 Q2020.34 75.4065 2023.05 69.9549 Q2024.48 66.9217 2024.48 58.6828 Q2024.48 50.28 2022.96 47.2058 Q2020.38 42.0002 2015.14 42.0002 Q2011.61 42.0002 2009.15 44.4186 Q2006.73 46.8369 2005.79 50.0751 Q2004.89 53.3133 2004.89 56.9203 Z" fill="#000000" fill-rule="evenodd" fill-opacity="1" /><polyline clip-path="url(#clip143)" style="stroke:#009af9; stroke-linecap:butt; stroke-linejoin:round; stroke-width:4; stroke-opacity:1; fill:none" points="
  241.501,162.047 257.734,180.098 273.967,198.052 290.2,215.909 306.434,233.669 322.667,251.333 338.9,268.899 355.133,286.367 371.367,303.738 387.6,321.012 
  403.833,338.188 420.066,355.265 436.3,372.245 452.533,389.127 468.766,405.91 484.999,422.594 501.233,439.18 517.466,455.667 533.699,472.054 549.932,488.343 
  566.166,504.531 582.399,520.62 598.632,536.609 614.866,552.498 631.099,568.286 647.332,583.974 663.565,599.561 679.799,615.046 696.032,630.431 712.265,645.713 
  728.498,660.894 744.732,675.973 760.965,690.95 777.198,705.824 793.431,720.595 809.665,735.264 825.898,749.829 842.131,764.29 858.364,778.648 874.598,792.901 
  890.831,807.05 907.064,821.095 923.297,835.034 939.531,848.869 955.764,862.598 971.997,876.222 988.23,889.739 1004.46,903.15 1020.7,916.455 1036.93,929.653 
  1053.16,942.744 1069.4,955.728 1085.63,968.605 1101.86,981.373 1118.1,994.033 1134.33,1006.59 1150.56,1019.03 1166.8,1031.36 1183.03,1043.59 1199.26,1055.7 
  1215.5,1067.71 1231.73,1079.61 1247.96,1091.39 1264.2,1103.07 1280.43,1114.63 1296.66,1126.09 1312.9,1137.43 1329.13,1148.66 1345.36,1159.78 1361.6,1170.79 
  1377.83,1181.68 1394.06,1192.47 1410.3,1203.14 1426.53,1213.7 1442.76,1224.14 1458.99,1234.47 1475.23,1244.69 1491.46,1254.79 1507.69,1264.78 1523.93,1274.66 
  1540.16,1284.42 1556.39,1294.06 1572.63,1303.59 1588.86,1313.01 1605.09,1322.31 1621.33,1331.5 1637.56,1340.57 1653.79,1349.52 1670.03,1358.36 1686.26,1367.08 
  1702.49,1375.69 1718.73,1384.18 1734.96,1392.55 1751.19,1400.8 1767.43,1408.94 1783.66,1416.96 1799.89,1424.87 1816.13,1432.65 1832.36,1440.32 1848.59,1447.87 
  
  "/>
<polyline clip-path="url(#clip143)" style="stroke:#e26f46; stroke-linecap:butt; stroke-linejoin:round; stroke-width:4; stroke-opacity:1; fill:none" points="
  241.501,921.282 257.734,921.282 273.967,921.282 290.2,921.282 306.434,921.282 322.667,921.282 338.9,921.282 355.133,921.282 371.367,921.282 387.6,921.282 
  403.833,921.282 420.066,921.282 436.3,921.282 452.533,921.282 468.766,921.282 484.999,921.282 501.233,921.282 517.466,921.282 533.699,921.282 549.932,921.282 
  566.166,921.282 582.399,921.282 598.632,921.282 614.866,921.282 631.099,921.282 647.332,921.282 663.565,921.282 679.799,921.282 696.032,921.282 712.265,921.282 
  728.498,921.282 744.732,921.282 760.965,921.282 777.198,921.282 793.431,921.282 809.665,921.282 825.898,921.282 842.131,921.282 858.364,921.282 874.598,921.282 
  890.831,921.282 907.064,921.282 923.297,921.282 939.531,921.282 955.764,921.282 971.997,921.282 988.23,921.282 1004.46,921.282 1020.7,921.282 1036.93,921.282 
  1053.16,921.282 1069.4,921.282 1085.63,921.282 1101.86,921.282 1118.1,921.282 1134.33,921.282 1150.56,921.282 1166.8,921.282 1183.03,921.282 1199.26,921.282 
  1215.5,921.282 1231.73,921.282 1247.96,921.282 1264.2,921.282 1280.43,921.282 1296.66,921.282 1312.9,921.282 1329.13,921.282 1345.36,921.282 1361.6,921.282 
  1377.83,921.282 1394.06,921.282 1410.3,921.282 1426.53,921.282 1442.76,921.282 1458.99,921.282 1475.23,921.282 1491.46,921.282 1507.69,921.282 1523.93,921.282 
  1540.16,921.282 1556.39,921.282 1572.63,921.282 1588.86,921.282 1605.09,921.282 1621.33,921.282 1637.56,921.282 1653.79,921.282 1670.03,921.282 1686.26,921.282 
  1702.49,921.282 1718.73,921.282 1734.96,921.282 1751.19,921.282 1767.43,921.282 1783.66,921.282 1799.89,921.282 1816.13,921.282 1832.36,921.282 1848.59,921.282 
  
  "/>
<path clip-path="url(#clip140)" d="
M1968.79 324.425 L2352.76 324.425 L2352.76 168.905 L1968.79 168.905  Z
  " fill="#ffffff" fill-rule="evenodd" fill-opacity="1"/>
<polyline clip-path="url(#clip140)" style="stroke:#000000; stroke-linecap:butt; stroke-linejoin:round; stroke-width:4; stroke-opacity:1; fill:none" points="
  1968.79,324.425 2352.76,324.425 2352.76,168.905 1968.79,168.905 1968.79,324.425 
  "/>
<polyline clip-path="url(#clip140)" style="stroke:#009af9; stroke-linecap:butt; stroke-linejoin:round; stroke-width:4; stroke-opacity:1; fill:none" points="
  1992.78,220.745 2136.75,220.745 
  "/>
<path clip-path="url(#clip140)" d="M2174.58 240.432 Q2172.78 245.062 2171.06 246.474 Q2169.35 247.886 2166.48 247.886 L2163.08 247.886 L2163.08 244.321 L2165.58 244.321 Q2167.34 244.321 2168.31 243.488 Q2169.28 242.654 2170.46 239.552 L2171.23 237.608 L2160.74 212.099 L2165.25 212.099 L2173.36 232.377 L2181.46 212.099 L2185.97 212.099 L2174.58 240.432 Z" fill="#000000" fill-rule="evenodd" fill-opacity="1" /><path clip-path="url(#clip140)" d="M2192.41 216.497 L2222.08 216.497 L2222.08 220.386 L2192.41 220.386 L2192.41 216.497 M2192.41 225.941 L2222.08 225.941 L2222.08 229.877 L2192.41 229.877 L2192.41 225.941 Z" fill="#000000" fill-rule="evenodd" fill-opacity="1" /><path clip-path="url(#clip140)" d="M2244.7 202.006 L2244.7 205.548 L2240.62 205.548 Q2238.33 205.548 2237.43 206.474 Q2236.55 207.4 2236.55 209.807 L2236.55 212.099 L2243.56 212.099 L2243.56 215.409 L2236.55 215.409 L2236.55 238.025 L2232.27 238.025 L2232.27 215.409 L2228.19 215.409 L2228.19 212.099 L2232.27 212.099 L2232.27 210.293 Q2232.27 205.965 2234.28 203.997 Q2236.3 202.006 2240.67 202.006 L2244.7 202.006 Z" fill="#000000" fill-rule="evenodd" fill-opacity="1" /><path clip-path="url(#clip140)" d="M2258.49 202.053 Q2255.39 207.377 2253.89 212.585 Q2252.38 217.793 2252.38 223.14 Q2252.38 228.488 2253.89 233.742 Q2255.42 238.974 2258.49 244.275 L2254.79 244.275 Q2251.32 238.835 2249.58 233.58 Q2247.87 228.326 2247.87 223.14 Q2247.87 217.978 2249.58 212.747 Q2251.3 207.516 2254.79 202.053 L2258.49 202.053 Z" fill="#000000" fill-rule="evenodd" fill-opacity="1" /><path clip-path="url(#clip140)" d="M2288.31 212.099 L2278.93 224.715 L2288.8 238.025 L2283.77 238.025 L2276.23 227.84 L2268.68 238.025 L2263.66 238.025 L2273.73 224.46 L2264.51 212.099 L2269.54 212.099 L2276.41 221.335 L2283.29 212.099 L2288.31 212.099 Z" fill="#000000" fill-rule="evenodd" fill-opacity="1" /><path clip-path="url(#clip140)" d="M2294.14 202.053 L2297.85 202.053 Q2301.32 207.516 2303.03 212.747 Q2304.77 217.978 2304.77 223.14 Q2304.77 228.326 2303.03 233.58 Q2301.32 238.835 2297.85 244.275 L2294.14 244.275 Q2297.22 238.974 2298.73 233.742 Q2300.25 228.488 2300.25 223.14 Q2300.25 217.793 2298.73 212.585 Q2297.22 207.377 2294.14 202.053 Z" fill="#000000" fill-rule="evenodd" fill-opacity="1" /><polyline clip-path="url(#clip140)" style="stroke:#e26f46; stroke-linecap:butt; stroke-linejoin:round; stroke-width:4; stroke-opacity:1; fill:none" points="
  1992.78,272.585 2136.75,272.585 
  "/>
<path clip-path="url(#clip140)" d="M2174.58 292.272 Q2172.78 296.902 2171.06 298.314 Q2169.35 299.726 2166.48 299.726 L2163.08 299.726 L2163.08 296.161 L2165.58 296.161 Q2167.34 296.161 2168.31 295.328 Q2169.28 294.494 2170.46 291.392 L2171.23 289.448 L2160.74 263.939 L2165.25 263.939 L2173.36 284.217 L2181.46 263.939 L2185.97 263.939 L2174.58 292.272 Z" fill="#000000" fill-rule="evenodd" fill-opacity="1" /><path clip-path="url(#clip140)" d="M2192.41 268.337 L2222.08 268.337 L2222.08 272.226 L2192.41 272.226 L2192.41 268.337 M2192.41 277.781 L2222.08 277.781 L2222.08 281.717 L2192.41 281.717 L2192.41 277.781 Z" fill="#000000" fill-rule="evenodd" fill-opacity="1" /><path clip-path="url(#clip140)" d="M2242.18 258.383 Q2238.56 258.383 2236.74 261.948 Q2234.93 265.49 2234.93 272.619 Q2234.93 279.726 2236.74 283.291 Q2238.56 286.832 2242.18 286.832 Q2245.81 286.832 2247.62 283.291 Q2249.44 279.726 2249.44 272.619 Q2249.44 265.49 2247.62 261.948 Q2245.81 258.383 2242.18 258.383 M2242.18 254.68 Q2247.99 254.68 2251.04 259.286 Q2254.12 263.869 2254.12 272.619 Q2254.12 281.346 2251.04 285.953 Q2247.99 290.536 2242.18 290.536 Q2236.37 290.536 2233.29 285.953 Q2230.23 281.346 2230.23 272.619 Q2230.23 263.869 2233.29 259.286 Q2236.37 254.68 2242.18 254.68 Z" fill="#000000" fill-rule="evenodd" fill-opacity="1" /></svg>
