<?xml version="1.0" encoding="utf-8"?>
<svg xmlns="http://www.w3.org/2000/svg" xmlns:xlink="http://www.w3.org/1999/xlink" width="600" height="400" viewBox="0 0 2400 1600">
<defs>
  <clipPath id="clip840">
    <rect x="0" y="0" width="2400" height="1600"/>
  </clipPath>
</defs>
<path clip-path="url(#clip840)" d="
M0 1600 L2400 1600 L2400 0 L0 0  Z
  " fill="#ffffff" fill-rule="evenodd" fill-opacity="1"/>
<defs>
  <clipPath id="clip841">
    <rect x="480" y="0" width="1681" height="1600"/>
  </clipPath>
</defs>
<defs>
  <clipPath id="clip842">
    <rect x="224" y="178" width="1578" height="1245"/>
  </clipPath>
</defs>
<path clip-path="url(#clip840)" d="
M156.274 1486.45 L1791.41 1486.45 L1791.41 178.778 L156.274 178.778  Z
  " fill="#ffffff" fill-rule="evenodd" fill-opacity="1"/>
<defs>
  <clipPath id="clip843">
    <rect x="156" y="178" width="1636" height="1309"/>
  </clipPath>
</defs>
<polyline clip-path="url(#clip843)" style="stroke:#000000; stroke-linecap:butt; stroke-linejoin:round; stroke-width:2; stroke-opacity:0.1; fill:none" points="
  202.552,1486.45 202.552,178.778 
  "/>
<polyline clip-path="url(#clip843)" style="stroke:#000000; stroke-linecap:butt; stroke-linejoin:round; stroke-width:2; stroke-opacity:0.1; fill:none" points="
  588.198,1486.45 588.198,178.778 
  "/>
<polyline clip-path="url(#clip843)" style="stroke:#000000; stroke-linecap:butt; stroke-linejoin:round; stroke-width:2; stroke-opacity:0.1; fill:none" points="
  973.844,1486.45 973.844,178.778 
  "/>
<polyline clip-path="url(#clip843)" style="stroke:#000000; stroke-linecap:butt; stroke-linejoin:round; stroke-width:2; stroke-opacity:0.1; fill:none" points="
  1359.49,1486.45 1359.49,178.778 
  "/>
<polyline clip-path="url(#clip843)" style="stroke:#000000; stroke-linecap:butt; stroke-linejoin:round; stroke-width:2; stroke-opacity:0.1; fill:none" points="
  1745.14,1486.45 1745.14,178.778 
  "/>
<polyline clip-path="url(#clip840)" style="stroke:#000000; stroke-linecap:butt; stroke-linejoin:round; stroke-width:4; stroke-opacity:1; fill:none" points="
  156.274,1486.45 1791.41,1486.45 
  "/>
<polyline clip-path="url(#clip840)" style="stroke:#000000; stroke-linecap:butt; stroke-linejoin:round; stroke-width:4; stroke-opacity:1; fill:none" points="
  202.552,1486.45 202.552,1467.55 
  "/>
<polyline clip-path="url(#clip840)" style="stroke:#000000; stroke-linecap:butt; stroke-linejoin:round; stroke-width:4; stroke-opacity:1; fill:none" points="
  588.198,1486.45 588.198,1467.55 
  "/>
<polyline clip-path="url(#clip840)" style="stroke:#000000; stroke-linecap:butt; stroke-linejoin:round; stroke-width:4; stroke-opacity:1; fill:none" points="
  973.844,1486.45 973.844,1467.55 
  "/>
<polyline clip-path="url(#clip840)" style="stroke:#000000; stroke-linecap:butt; stroke-linejoin:round; stroke-width:4; stroke-opacity:1; fill:none" points="
  1359.49,1486.45 1359.49,1467.55 
  "/>
<polyline clip-path="url(#clip840)" style="stroke:#000000; stroke-linecap:butt; stroke-linejoin:round; stroke-width:4; stroke-opacity:1; fill:none" points="
  1745.14,1486.45 1745.14,1467.55 
  "/>
<path clip-path="url(#clip840)" d="M164.855 1517.37 Q161.244 1517.37 159.415 1520.93 Q157.61 1524.47 157.61 1531.6 Q157.61 1538.71 159.415 1542.27 Q161.244 1545.82 164.855 1545.82 Q168.489 1545.82 170.295 1542.27 Q172.124 1538.71 172.124 1531.6 Q172.124 1524.47 170.295 1520.93 Q168.489 1517.37 164.855 1517.37 M164.855 1513.66 Q170.665 1513.66 173.721 1518.27 Q176.8 1522.85 176.8 1531.6 Q176.8 1540.33 173.721 1544.94 Q170.665 1549.52 164.855 1549.52 Q159.045 1549.52 155.966 1544.94 Q152.911 1540.33 152.911 1531.6 Q152.911 1522.85 155.966 1518.27 Q159.045 1513.66 164.855 1513.66 Z" fill="#000000" fill-rule="evenodd" fill-opacity="1" /><path clip-path="url(#clip840)" d="M185.017 1542.97 L189.901 1542.97 L189.901 1548.85 L185.017 1548.85 L185.017 1542.97 Z" fill="#000000" fill-rule="evenodd" fill-opacity="1" /><path clip-path="url(#clip840)" d="M210.086 1517.37 Q206.475 1517.37 204.647 1520.93 Q202.841 1524.47 202.841 1531.6 Q202.841 1538.71 204.647 1542.27 Q206.475 1545.82 210.086 1545.82 Q213.721 1545.82 215.526 1542.27 Q217.355 1538.71 217.355 1531.6 Q217.355 1524.47 215.526 1520.93 Q213.721 1517.37 210.086 1517.37 M210.086 1513.66 Q215.897 1513.66 218.952 1518.27 Q222.031 1522.85 222.031 1531.6 Q222.031 1540.33 218.952 1544.94 Q215.897 1549.52 210.086 1549.52 Q204.276 1549.52 201.198 1544.94 Q198.142 1540.33 198.142 1531.6 Q198.142 1522.85 201.198 1518.27 Q204.276 1513.66 210.086 1513.66 Z" fill="#000000" fill-rule="evenodd" fill-opacity="1" /><path clip-path="url(#clip840)" d="M240.248 1517.37 Q236.637 1517.37 234.808 1520.93 Q233.003 1524.47 233.003 1531.6 Q233.003 1538.71 234.808 1542.27 Q236.637 1545.82 240.248 1545.82 Q243.882 1545.82 245.688 1542.27 Q247.517 1538.71 247.517 1531.6 Q247.517 1524.47 245.688 1520.93 Q243.882 1517.37 240.248 1517.37 M240.248 1513.66 Q246.058 1513.66 249.114 1518.27 Q252.193 1522.85 252.193 1531.6 Q252.193 1540.33 249.114 1544.94 Q246.058 1549.52 240.248 1549.52 Q234.438 1549.52 231.359 1544.94 Q228.304 1540.33 228.304 1531.6 Q228.304 1522.85 231.359 1518.27 Q234.438 1513.66 240.248 1513.66 Z" fill="#000000" fill-rule="evenodd" fill-opacity="1" /><path clip-path="url(#clip840)" d="M550.999 1517.37 Q547.388 1517.37 545.559 1520.93 Q543.754 1524.47 543.754 1531.6 Q543.754 1538.71 545.559 1542.27 Q547.388 1545.82 550.999 1545.82 Q554.633 1545.82 556.439 1542.27 Q558.267 1538.71 558.267 1531.6 Q558.267 1524.47 556.439 1520.93 Q554.633 1517.37 550.999 1517.37 M550.999 1513.66 Q556.809 1513.66 559.865 1518.27 Q562.943 1522.85 562.943 1531.6 Q562.943 1540.33 559.865 1544.94 Q556.809 1549.52 550.999 1549.52 Q545.189 1549.52 542.11 1544.94 Q539.055 1540.33 539.055 1531.6 Q539.055 1522.85 542.11 1518.27 Q545.189 1513.66 550.999 1513.66 Z" fill="#000000" fill-rule="evenodd" fill-opacity="1" /><path clip-path="url(#clip840)" d="M571.161 1542.97 L576.045 1542.97 L576.045 1548.85 L571.161 1548.85 L571.161 1542.97 Z" fill="#000000" fill-rule="evenodd" fill-opacity="1" /><path clip-path="url(#clip840)" d="M590.258 1544.91 L606.577 1544.91 L606.577 1548.85 L584.633 1548.85 L584.633 1544.91 Q587.295 1542.16 591.878 1537.53 Q596.485 1532.88 597.665 1531.53 Q599.911 1529.01 600.79 1527.27 Q601.693 1525.51 601.693 1523.82 Q601.693 1521.07 599.749 1519.33 Q597.827 1517.6 594.726 1517.6 Q592.526 1517.6 590.073 1518.36 Q587.642 1519.13 584.864 1520.68 L584.864 1515.95 Q587.689 1514.82 590.142 1514.24 Q592.596 1513.66 594.633 1513.66 Q600.003 1513.66 603.198 1516.35 Q606.392 1519.03 606.392 1523.52 Q606.392 1525.65 605.582 1527.57 Q604.795 1529.47 602.688 1532.07 Q602.11 1532.74 599.008 1535.95 Q595.906 1539.15 590.258 1544.91 Z" fill="#000000" fill-rule="evenodd" fill-opacity="1" /><path clip-path="url(#clip840)" d="M616.438 1514.29 L634.795 1514.29 L634.795 1518.22 L620.721 1518.22 L620.721 1526.7 Q621.739 1526.35 622.758 1526.19 Q623.776 1526 624.795 1526 Q630.582 1526 633.961 1529.17 Q637.341 1532.34 637.341 1537.76 Q637.341 1543.34 633.869 1546.44 Q630.397 1549.52 624.077 1549.52 Q621.901 1549.52 619.633 1549.15 Q617.387 1548.78 614.98 1548.04 L614.98 1543.34 Q617.063 1544.47 619.286 1545.03 Q621.508 1545.58 623.985 1545.58 Q627.989 1545.58 630.327 1543.48 Q632.665 1541.37 632.665 1537.76 Q632.665 1534.15 630.327 1532.04 Q627.989 1529.94 623.985 1529.94 Q622.11 1529.94 620.235 1530.35 Q618.383 1530.77 616.438 1531.65 L616.438 1514.29 Z" fill="#000000" fill-rule="evenodd" fill-opacity="1" /><path clip-path="url(#clip840)" d="M936.147 1517.37 Q932.536 1517.37 930.708 1520.93 Q928.902 1524.47 928.902 1531.6 Q928.902 1538.71 930.708 1542.27 Q932.536 1545.82 936.147 1545.82 Q939.782 1545.82 941.587 1542.27 Q943.416 1538.71 943.416 1531.6 Q943.416 1524.47 941.587 1520.93 Q939.782 1517.37 936.147 1517.37 M936.147 1513.66 Q941.957 1513.66 945.013 1518.27 Q948.092 1522.85 948.092 1531.6 Q948.092 1540.33 945.013 1544.94 Q941.957 1549.52 936.147 1549.52 Q930.337 1549.52 927.258 1544.94 Q924.203 1540.33 924.203 1531.6 Q924.203 1522.85 927.258 1518.27 Q930.337 1513.66 936.147 1513.66 Z" fill="#000000" fill-rule="evenodd" fill-opacity="1" /><path clip-path="url(#clip840)" d="M956.309 1542.97 L961.193 1542.97 L961.193 1548.85 L956.309 1548.85 L956.309 1542.97 Z" fill="#000000" fill-rule="evenodd" fill-opacity="1" /><path clip-path="url(#clip840)" d="M971.425 1514.29 L989.781 1514.29 L989.781 1518.22 L975.707 1518.22 L975.707 1526.7 Q976.726 1526.35 977.744 1526.19 Q978.763 1526 979.781 1526 Q985.568 1526 988.948 1529.17 Q992.328 1532.34 992.328 1537.76 Q992.328 1543.34 988.855 1546.44 Q985.383 1549.52 979.064 1549.52 Q976.888 1549.52 974.619 1549.15 Q972.374 1548.78 969.967 1548.04 L969.967 1543.34 Q972.05 1544.47 974.272 1545.03 Q976.494 1545.58 978.971 1545.58 Q982.976 1545.58 985.314 1543.48 Q987.652 1541.37 987.652 1537.76 Q987.652 1534.15 985.314 1532.04 Q982.976 1529.94 978.971 1529.94 Q977.096 1529.94 975.221 1530.35 Q973.369 1530.77 971.425 1531.65 L971.425 1514.29 Z" fill="#000000" fill-rule="evenodd" fill-opacity="1" /><path clip-path="url(#clip840)" d="M1011.54 1517.37 Q1007.93 1517.37 1006.1 1520.93 Q1004.3 1524.47 1004.3 1531.6 Q1004.3 1538.71 1006.1 1542.27 Q1007.93 1545.82 1011.54 1545.82 Q1015.17 1545.82 1016.98 1542.27 Q1018.81 1538.71 1018.81 1531.6 Q1018.81 1524.47 1016.98 1520.93 Q1015.17 1517.37 1011.54 1517.37 M1011.54 1513.66 Q1017.35 1513.66 1020.41 1518.27 Q1023.48 1522.85 1023.48 1531.6 Q1023.48 1540.33 1020.41 1544.94 Q1017.35 1549.52 1011.54 1549.52 Q1005.73 1549.52 1002.65 1544.94 Q999.596 1540.33 999.596 1531.6 Q999.596 1522.85 1002.65 1518.27 Q1005.73 1513.66 1011.54 1513.66 Z" fill="#000000" fill-rule="evenodd" fill-opacity="1" /><path clip-path="url(#clip840)" d="M1322.29 1517.37 Q1318.68 1517.37 1316.85 1520.93 Q1315.05 1524.47 1315.05 1531.6 Q1315.05 1538.71 1316.85 1542.27 Q1318.68 1545.82 1322.29 1545.82 Q1325.93 1545.82 1327.73 1542.27 Q1329.56 1538.71 1329.56 1531.6 Q1329.56 1524.47 1327.73 1520.93 Q1325.93 1517.37 1322.29 1517.37 M1322.29 1513.66 Q1328.1 1513.66 1331.16 1518.27 Q1334.24 1522.85 1334.24 1531.6 Q1334.24 1540.33 1331.16 1544.94 Q1328.1 1549.52 1322.29 1549.52 Q1316.48 1549.52 1313.4 1544.94 Q1310.35 1540.33 1310.35 1531.6 Q1310.35 1522.85 1313.4 1518.27 Q1316.48 1513.66 1322.29 1513.66 Z" fill="#000000" fill-rule="evenodd" fill-opacity="1" /><path clip-path="url(#clip840)" d="M1342.45 1542.97 L1347.34 1542.97 L1347.34 1548.85 L1342.45 1548.85 L1342.45 1542.97 Z" fill="#000000" fill-rule="evenodd" fill-opacity="1" /><path clip-path="url(#clip840)" d="M1356.34 1514.29 L1378.56 1514.29 L1378.56 1516.28 L1366.02 1548.85 L1361.13 1548.85 L1372.94 1518.22 L1356.34 1518.22 L1356.34 1514.29 Z" fill="#000000" fill-rule="evenodd" fill-opacity="1" /><path clip-path="url(#clip840)" d="M1387.73 1514.29 L1406.09 1514.29 L1406.09 1518.22 L1392.01 1518.22 L1392.01 1526.7 Q1393.03 1526.35 1394.05 1526.19 Q1395.07 1526 1396.09 1526 Q1401.87 1526 1405.25 1529.17 Q1408.63 1532.34 1408.63 1537.76 Q1408.63 1543.34 1405.16 1546.44 Q1401.69 1549.52 1395.37 1549.52 Q1393.19 1549.52 1390.92 1549.15 Q1388.68 1548.78 1386.27 1548.04 L1386.27 1543.34 Q1388.36 1544.47 1390.58 1545.03 Q1392.8 1545.58 1395.28 1545.58 Q1399.28 1545.58 1401.62 1543.48 Q1403.96 1541.37 1403.96 1537.76 Q1403.96 1534.15 1401.62 1532.04 Q1399.28 1529.94 1395.28 1529.94 Q1393.4 1529.94 1391.53 1530.35 Q1389.67 1530.77 1387.73 1531.65 L1387.73 1514.29 Z" fill="#000000" fill-rule="evenodd" fill-opacity="1" /><path clip-path="url(#clip840)" d="M1697.21 1544.91 L1704.85 1544.91 L1704.85 1518.55 L1696.54 1520.21 L1696.54 1515.95 L1704.8 1514.29 L1709.48 1514.29 L1709.48 1544.91 L1717.12 1544.91 L1717.12 1548.85 L1697.21 1548.85 L1697.21 1544.91 Z" fill="#000000" fill-rule="evenodd" fill-opacity="1" /><path clip-path="url(#clip840)" d="M1726.56 1542.97 L1731.44 1542.97 L1731.44 1548.85 L1726.56 1548.85 L1726.56 1542.97 Z" fill="#000000" fill-rule="evenodd" fill-opacity="1" /><path clip-path="url(#clip840)" d="M1751.63 1517.37 Q1748.02 1517.37 1746.19 1520.93 Q1744.38 1524.47 1744.38 1531.6 Q1744.38 1538.71 1746.19 1542.27 Q1748.02 1545.82 1751.63 1545.82 Q1755.26 1545.82 1757.07 1542.27 Q1758.9 1538.71 1758.9 1531.6 Q1758.9 1524.47 1757.07 1520.93 Q1755.26 1517.37 1751.63 1517.37 M1751.63 1513.66 Q1757.44 1513.66 1760.49 1518.27 Q1763.57 1522.85 1763.57 1531.6 Q1763.57 1540.33 1760.49 1544.94 Q1757.44 1549.52 1751.63 1549.52 Q1745.82 1549.52 1742.74 1544.94 Q1739.68 1540.33 1739.68 1531.6 Q1739.68 1522.85 1742.74 1518.27 Q1745.82 1513.66 1751.63 1513.66 Z" fill="#000000" fill-rule="evenodd" fill-opacity="1" /><path clip-path="url(#clip840)" d="M1781.79 1517.37 Q1778.18 1517.37 1776.35 1520.93 Q1774.55 1524.47 1774.55 1531.6 Q1774.55 1538.71 1776.35 1542.27 Q1778.18 1545.82 1781.79 1545.82 Q1785.43 1545.82 1787.23 1542.27 Q1789.06 1538.71 1789.06 1531.6 Q1789.06 1524.47 1787.23 1520.93 Q1785.43 1517.37 1781.79 1517.37 M1781.79 1513.66 Q1787.6 1513.66 1790.66 1518.27 Q1793.74 1522.85 1793.74 1531.6 Q1793.74 1540.33 1790.66 1544.94 Q1787.6 1549.52 1781.79 1549.52 Q1775.98 1549.52 1772.9 1544.94 Q1769.85 1540.33 1769.85 1531.6 Q1769.85 1522.85 1772.9 1518.27 Q1775.98 1513.66 1781.79 1513.66 Z" fill="#000000" fill-rule="evenodd" fill-opacity="1" /><polyline clip-path="url(#clip843)" style="stroke:#000000; stroke-linecap:butt; stroke-linejoin:round; stroke-width:2; stroke-opacity:0.1; fill:none" points="
  156.274,1449.44 1791.41,1449.44 
  "/>
<polyline clip-path="url(#clip843)" style="stroke:#000000; stroke-linecap:butt; stroke-linejoin:round; stroke-width:2; stroke-opacity:0.1; fill:none" points="
  156.274,1202.71 1791.41,1202.71 
  "/>
<polyline clip-path="url(#clip843)" style="stroke:#000000; stroke-linecap:butt; stroke-linejoin:round; stroke-width:2; stroke-opacity:0.1; fill:none" points="
  156.274,955.978 1791.41,955.978 
  "/>
<polyline clip-path="url(#clip843)" style="stroke:#000000; stroke-linecap:butt; stroke-linejoin:round; stroke-width:2; stroke-opacity:0.1; fill:none" points="
  156.274,709.248 1791.41,709.248 
  "/>
<polyline clip-path="url(#clip843)" style="stroke:#000000; stroke-linecap:butt; stroke-linejoin:round; stroke-width:2; stroke-opacity:0.1; fill:none" points="
  156.274,462.518 1791.41,462.518 
  "/>
<polyline clip-path="url(#clip843)" style="stroke:#000000; stroke-linecap:butt; stroke-linejoin:round; stroke-width:2; stroke-opacity:0.1; fill:none" points="
  156.274,215.788 1791.41,215.788 
  "/>
<polyline clip-path="url(#clip840)" style="stroke:#000000; stroke-linecap:butt; stroke-linejoin:round; stroke-width:4; stroke-opacity:1; fill:none" points="
  156.274,1486.45 156.274,178.778 
  "/>
<polyline clip-path="url(#clip840)" style="stroke:#000000; stroke-linecap:butt; stroke-linejoin:round; stroke-width:4; stroke-opacity:1; fill:none" points="
  156.274,1449.44 170.342,1449.44 
  "/>
<polyline clip-path="url(#clip840)" style="stroke:#000000; stroke-linecap:butt; stroke-linejoin:round; stroke-width:4; stroke-opacity:1; fill:none" points="
  156.274,1202.71 170.342,1202.71 
  "/>
<polyline clip-path="url(#clip840)" style="stroke:#000000; stroke-linecap:butt; stroke-linejoin:round; stroke-width:4; stroke-opacity:1; fill:none" points="
  156.274,955.978 170.342,955.978 
  "/>
<polyline clip-path="url(#clip840)" style="stroke:#000000; stroke-linecap:butt; stroke-linejoin:round; stroke-width:4; stroke-opacity:1; fill:none" points="
  156.274,709.248 170.342,709.248 
  "/>
<polyline clip-path="url(#clip840)" style="stroke:#000000; stroke-linecap:butt; stroke-linejoin:round; stroke-width:4; stroke-opacity:1; fill:none" points="
  156.274,462.518 170.342,462.518 
  "/>
<polyline clip-path="url(#clip840)" style="stroke:#000000; stroke-linecap:butt; stroke-linejoin:round; stroke-width:4; stroke-opacity:1; fill:none" points="
  156.274,215.788 170.342,215.788 
  "/>
<path clip-path="url(#clip840)" d="M64.0939 1435.24 Q60.4828 1435.24 58.6541 1438.8 Q56.8486 1442.34 56.8486 1449.47 Q56.8486 1456.58 58.6541 1460.14 Q60.4828 1463.69 64.0939 1463.69 Q67.7281 1463.69 69.5337 1460.14 Q71.3624 1456.58 71.3624 1449.47 Q71.3624 1442.34 69.5337 1438.8 Q67.7281 1435.24 64.0939 1435.24 M64.0939 1431.53 Q69.9041 1431.53 72.9596 1436.14 Q76.0383 1440.72 76.0383 1449.47 Q76.0383 1458.2 72.9596 1462.81 Q69.9041 1467.39 64.0939 1467.39 Q58.2838 1467.39 55.2051 1462.81 Q52.1495 1458.2 52.1495 1449.47 Q52.1495 1440.72 55.2051 1436.14 Q58.2838 1431.53 64.0939 1431.53 Z" fill="#000000" fill-rule="evenodd" fill-opacity="1" /><path clip-path="url(#clip840)" d="M84.2558 1460.84 L89.1401 1460.84 L89.1401 1466.72 L84.2558 1466.72 L84.2558 1460.84 Z" fill="#000000" fill-rule="evenodd" fill-opacity="1" /><path clip-path="url(#clip840)" d="M99.3715 1432.16 L117.728 1432.16 L117.728 1436.09 L103.654 1436.09 L103.654 1444.57 Q104.672 1444.22 105.691 1444.06 Q106.709 1443.87 107.728 1443.87 Q113.515 1443.87 116.895 1447.04 Q120.274 1450.21 120.274 1455.63 Q120.274 1461.21 116.802 1464.31 Q113.33 1467.39 107.01 1467.39 Q104.834 1467.39 102.566 1467.02 Q100.321 1466.65 97.9132 1465.91 L97.9132 1461.21 Q99.9965 1462.34 102.219 1462.9 Q104.441 1463.45 106.918 1463.45 Q110.922 1463.45 113.26 1461.35 Q115.598 1459.24 115.598 1455.63 Q115.598 1452.02 113.26 1449.91 Q110.922 1447.81 106.918 1447.81 Q105.043 1447.81 103.168 1448.22 Q101.316 1448.64 99.3715 1449.52 L99.3715 1432.16 Z" fill="#000000" fill-rule="evenodd" fill-opacity="1" /><path clip-path="url(#clip840)" d="M62.9365 1188.51 Q59.3254 1188.51 57.4967 1192.07 Q55.6912 1195.61 55.6912 1202.74 Q55.6912 1209.85 57.4967 1213.41 Q59.3254 1216.96 62.9365 1216.96 Q66.5707 1216.96 68.3763 1213.41 Q70.205 1209.85 70.205 1202.74 Q70.205 1195.61 68.3763 1192.07 Q66.5707 1188.51 62.9365 1188.51 M62.9365 1184.8 Q68.7467 1184.8 71.8022 1189.41 Q74.8809 1193.99 74.8809 1202.74 Q74.8809 1211.47 71.8022 1216.08 Q68.7467 1220.66 62.9365 1220.66 Q57.1264 1220.66 54.0477 1216.08 Q50.9921 1211.47 50.9921 1202.74 Q50.9921 1193.99 54.0477 1189.41 Q57.1264 1184.8 62.9365 1184.8 Z" fill="#000000" fill-rule="evenodd" fill-opacity="1" /><path clip-path="url(#clip840)" d="M83.0984 1214.11 L87.9827 1214.11 L87.9827 1219.99 L83.0984 1219.99 L83.0984 1214.11 Z" fill="#000000" fill-rule="evenodd" fill-opacity="1" /><path clip-path="url(#clip840)" d="M108.746 1200.84 Q105.598 1200.84 103.746 1203 Q101.918 1205.15 101.918 1208.9 Q101.918 1212.63 103.746 1214.8 Q105.598 1216.96 108.746 1216.96 Q111.895 1216.96 113.723 1214.8 Q115.575 1212.63 115.575 1208.9 Q115.575 1205.15 113.723 1203 Q111.895 1200.84 108.746 1200.84 M118.029 1186.19 L118.029 1190.45 Q116.27 1189.62 114.464 1189.18 Q112.682 1188.74 110.922 1188.74 Q106.293 1188.74 103.839 1191.86 Q101.409 1194.99 101.061 1201.31 Q102.427 1199.29 104.487 1198.23 Q106.547 1197.14 109.024 1197.14 Q114.233 1197.14 117.242 1200.31 Q120.274 1203.46 120.274 1208.9 Q120.274 1214.22 117.126 1217.44 Q113.978 1220.66 108.746 1220.66 Q102.751 1220.66 99.5798 1216.08 Q96.4085 1211.47 96.4085 1202.74 Q96.4085 1194.55 100.297 1189.69 Q104.186 1184.8 110.737 1184.8 Q112.496 1184.8 114.279 1185.15 Q116.084 1185.5 118.029 1186.19 Z" fill="#000000" fill-rule="evenodd" fill-opacity="1" /><path clip-path="url(#clip840)" d="M64.0013 941.777 Q60.3902 941.777 58.5615 945.342 Q56.756 948.883 56.756 956.013 Q56.756 963.119 58.5615 966.684 Q60.3902 970.226 64.0013 970.226 Q67.6356 970.226 69.4411 966.684 Q71.2698 963.119 71.2698 956.013 Q71.2698 948.883 69.4411 945.342 Q67.6356 941.777 64.0013 941.777 M64.0013 938.073 Q69.8115 938.073 72.867 942.68 Q75.9457 947.263 75.9457 956.013 Q75.9457 964.74 72.867 969.346 Q69.8115 973.929 64.0013 973.929 Q58.1912 973.929 55.1125 969.346 Q52.0569 964.74 52.0569 956.013 Q52.0569 947.263 55.1125 942.68 Q58.1912 938.073 64.0013 938.073 Z" fill="#000000" fill-rule="evenodd" fill-opacity="1" /><path clip-path="url(#clip840)" d="M84.1632 967.379 L89.0475 967.379 L89.0475 973.258 L84.1632 973.258 L84.1632 967.379 Z" fill="#000000" fill-rule="evenodd" fill-opacity="1" /><path clip-path="url(#clip840)" d="M98.0521 938.698 L120.274 938.698 L120.274 940.689 L107.728 973.258 L102.844 973.258 L114.649 942.633 L98.0521 942.633 L98.0521 938.698 Z" fill="#000000" fill-rule="evenodd" fill-opacity="1" /><path clip-path="url(#clip840)" d="M63.1911 695.047 Q59.58 695.047 57.7513 698.612 Q55.9458 702.153 55.9458 709.283 Q55.9458 716.389 57.7513 719.954 Q59.58 723.496 63.1911 723.496 Q66.8254 723.496 68.6309 719.954 Q70.4596 716.389 70.4596 709.283 Q70.4596 702.153 68.6309 698.612 Q66.8254 695.047 63.1911 695.047 M63.1911 691.343 Q69.0013 691.343 72.0568 695.95 Q75.1355 700.533 75.1355 709.283 Q75.1355 718.01 72.0568 722.616 Q69.0013 727.199 63.1911 727.199 Q57.381 727.199 54.3023 722.616 Q51.2468 718.01 51.2468 709.283 Q51.2468 700.533 54.3023 695.95 Q57.381 691.343 63.1911 691.343 Z" fill="#000000" fill-rule="evenodd" fill-opacity="1" /><path clip-path="url(#clip840)" d="M83.3531 720.648 L88.2373 720.648 L88.2373 726.528 L83.3531 726.528 L83.3531 720.648 Z" fill="#000000" fill-rule="evenodd" fill-opacity="1" /><path clip-path="url(#clip840)" d="M108.422 710.116 Q105.089 710.116 103.168 711.899 Q101.27 713.681 101.27 716.806 Q101.27 719.931 103.168 721.713 Q105.089 723.496 108.422 723.496 Q111.756 723.496 113.677 721.713 Q115.598 719.908 115.598 716.806 Q115.598 713.681 113.677 711.899 Q111.779 710.116 108.422 710.116 M103.746 708.125 Q100.737 707.385 99.0474 705.324 Q97.3808 703.264 97.3808 700.301 Q97.3808 696.158 100.321 693.75 Q103.284 691.343 108.422 691.343 Q113.584 691.343 116.524 693.75 Q119.464 696.158 119.464 700.301 Q119.464 703.264 117.774 705.324 Q116.108 707.385 113.121 708.125 Q116.501 708.912 118.376 711.204 Q120.274 713.496 120.274 716.806 Q120.274 721.829 117.195 724.514 Q114.14 727.199 108.422 727.199 Q102.705 727.199 99.6261 724.514 Q96.5706 721.829 96.5706 716.806 Q96.5706 713.496 98.4687 711.204 Q100.367 708.912 103.746 708.125 M102.034 700.741 Q102.034 703.426 103.7 704.931 Q105.39 706.436 108.422 706.436 Q111.432 706.436 113.121 704.931 Q114.834 703.426 114.834 700.741 Q114.834 698.056 113.121 696.551 Q111.432 695.047 108.422 695.047 Q105.39 695.047 103.7 696.551 Q102.034 698.056 102.034 700.741 Z" fill="#000000" fill-rule="evenodd" fill-opacity="1" /><path clip-path="url(#clip840)" d="M63.2837 448.317 Q59.6726 448.317 57.8439 451.881 Q56.0384 455.423 56.0384 462.553 Q56.0384 469.659 57.8439 473.224 Q59.6726 476.766 63.2837 476.766 Q66.918 476.766 68.7235 473.224 Q70.5522 469.659 70.5522 462.553 Q70.5522 455.423 68.7235 451.881 Q66.918 448.317 63.2837 448.317 M63.2837 444.613 Q69.0939 444.613 72.1494 449.219 Q75.2281 453.803 75.2281 462.553 Q75.2281 471.28 72.1494 475.886 Q69.0939 480.469 63.2837 480.469 Q57.4736 480.469 54.3949 475.886 Q51.3393 471.28 51.3393 462.553 Q51.3393 453.803 54.3949 449.219 Q57.4736 444.613 63.2837 444.613 Z" fill="#000000" fill-rule="evenodd" fill-opacity="1" /><path clip-path="url(#clip840)" d="M83.4457 473.918 L88.3299 473.918 L88.3299 479.798 L83.4457 479.798 L83.4457 473.918 Z" fill="#000000" fill-rule="evenodd" fill-opacity="1" /><path clip-path="url(#clip840)" d="M98.6539 479.08 L98.6539 474.821 Q100.413 475.654 102.219 476.094 Q104.024 476.534 105.76 476.534 Q110.39 476.534 112.82 473.432 Q115.274 470.307 115.621 463.965 Q114.279 465.955 112.219 467.02 Q110.158 468.085 107.658 468.085 Q102.473 468.085 99.4409 464.96 Q96.4317 461.812 96.4317 456.372 Q96.4317 451.048 99.5798 447.831 Q102.728 444.613 107.959 444.613 Q113.955 444.613 117.103 449.219 Q120.274 453.803 120.274 462.553 Q120.274 470.724 116.385 475.608 Q112.52 480.469 105.969 480.469 Q104.209 480.469 102.404 480.122 Q100.598 479.775 98.6539 479.08 M107.959 464.428 Q111.108 464.428 112.936 462.275 Q114.788 460.122 114.788 456.372 Q114.788 452.645 112.936 450.493 Q111.108 448.317 107.959 448.317 Q104.811 448.317 102.959 450.493 Q101.131 452.645 101.131 456.372 Q101.131 460.122 102.959 462.275 Q104.811 464.428 107.959 464.428 Z" fill="#000000" fill-rule="evenodd" fill-opacity="1" /><path clip-path="url(#clip840)" d="M53.9088 229.133 L61.5476 229.133 L61.5476 202.767 L53.2375 204.434 L53.2375 200.175 L61.5013 198.508 L66.1772 198.508 L66.1772 229.133 L73.8161 229.133 L73.8161 233.068 L53.9088 233.068 L53.9088 229.133 Z" fill="#000000" fill-rule="evenodd" fill-opacity="1" /><path clip-path="url(#clip840)" d="M83.2605 227.188 L88.1447 227.188 L88.1447 233.068 L83.2605 233.068 L83.2605 227.188 Z" fill="#000000" fill-rule="evenodd" fill-opacity="1" /><path clip-path="url(#clip840)" d="M108.33 201.587 Q104.719 201.587 102.89 205.151 Q101.084 208.693 101.084 215.823 Q101.084 222.929 102.89 226.494 Q104.719 230.035 108.33 230.035 Q111.964 230.035 113.77 226.494 Q115.598 222.929 115.598 215.823 Q115.598 208.693 113.77 205.151 Q111.964 201.587 108.33 201.587 M108.33 197.883 Q114.14 197.883 117.195 202.489 Q120.274 207.073 120.274 215.823 Q120.274 224.549 117.195 229.156 Q114.14 233.739 108.33 233.739 Q102.52 233.739 99.4409 229.156 Q96.3854 224.549 96.3854 215.823 Q96.3854 207.073 99.4409 202.489 Q102.52 197.883 108.33 197.883 Z" fill="#000000" fill-rule="evenodd" fill-opacity="1" /><path clip-path="url(#clip840)" d="M790.807 83.0933 Q790.807 87.6841 787.405 91.906 Q784.044 96.1279 778.551 98.7102 Q773.1 101.252 767.238 101.252 L752.974 101.252 L747.768 122.238 Q747.727 122.361 747.604 122.894 Q747.481 123.386 747.481 123.673 Q747.481 124.697 748.752 124.943 Q750.064 125.189 752.974 125.189 Q754.859 125.189 755.146 125.517 Q755.31 125.722 755.31 126.091 Q755.31 126.665 755.146 127.075 Q754.982 127.444 754.654 127.567 Q754.367 127.69 754.162 127.731 Q753.958 127.772 753.63 127.772 Q752.769 127.772 750.924 127.69 Q749.121 127.608 748.178 127.608 L742.808 127.526 L732.151 127.772 Q730.881 127.772 730.881 126.747 Q730.881 125.968 731.208 125.64 Q731.536 125.271 731.905 125.23 Q732.274 125.189 733.217 125.189 Q735.266 125.189 736.496 125.066 Q737.726 124.943 738.505 124.779 Q739.324 124.574 739.734 124.001 Q740.185 123.427 740.39 122.935 Q740.595 122.402 740.882 121.213 L752.113 76.1251 Q752.441 74.7725 752.441 74.5675 Q752.441 73.8707 752.031 73.6248 Q751.662 73.3379 750.596 73.2149 Q748.547 73.0509 746.989 73.0509 Q745.965 73.0509 745.555 73.0099 Q745.186 72.969 744.858 72.764 Q744.571 72.5181 744.571 72.0262 Q744.571 71.2474 744.899 70.9195 Q745.268 70.5506 745.678 70.5096 Q746.088 70.4276 747.071 70.4276 L774.288 70.4276 Q782.117 70.4276 786.462 74.1576 Q790.807 77.8877 790.807 83.0933 M783.019 81.0848 Q783.019 73.0509 771.583 73.0509 L763.549 73.0509 Q760.885 73.0509 760.229 73.5428 Q759.573 73.9937 758.999 76.2481 L753.302 99.0791 L765.148 99.0791 Q773.1 99.0791 778.059 94.6113 Q780.314 92.5618 781.666 88.299 Q783.019 84.0361 783.019 81.0848 Z" fill="#000000" fill-rule="evenodd" fill-opacity="1" /><path clip-path="url(#clip840)" d="M827.817 96.1279 Q827.817 98.3003 826.382 99.694 Q824.989 101.088 823.185 101.088 Q821.627 101.088 820.808 100.186 Q819.988 99.2841 819.988 98.1364 Q819.988 96.4968 821.259 95.1442 Q822.529 93.7915 824.374 93.5046 Q823.021 92.5208 820.849 92.5208 Q817.283 92.5208 814.126 95.2671 Q812.733 96.5378 811.216 98.8742 Q809.7 101.17 809.413 102.153 L806.748 113.097 Q806.502 114.327 804.986 120.23 Q803.51 126.091 803.387 126.337 Q802.977 127.485 802.076 128.1 Q801.174 128.714 800.272 128.714 Q799.247 128.714 798.55 128.1 Q797.854 127.485 797.854 126.419 Q797.854 126.255 797.977 125.64 Q798.1 125.025 798.305 124.165 Q798.509 123.304 798.591 122.812 L803.469 103.424 Q804.371 99.8989 804.576 98.7922 Q804.822 97.6445 804.822 96.3738 Q804.822 94.1604 804.125 93.3406 Q803.428 92.5208 802.198 92.5208 Q800.067 92.5208 798.673 95.0622 Q797.28 97.6035 796.091 102.522 Q795.722 103.875 795.476 104.162 Q795.271 104.449 794.656 104.449 Q793.632 104.408 793.632 103.588 Q793.632 103.383 793.96 102.071 Q794.288 100.719 794.902 98.7512 Q795.558 96.7427 796.255 95.4721 Q796.665 94.6113 797.034 94.0374 Q797.403 93.4636 798.141 92.5618 Q798.878 91.6601 799.985 91.1682 Q801.092 90.6763 802.444 90.6763 Q805.396 90.6763 807.486 92.4799 Q809.618 94.2834 810.109 97.1116 Q811.134 95.636 812.405 94.3654 Q813.675 93.0537 816.012 91.865 Q818.348 90.6763 820.849 90.6763 Q823.964 90.6763 825.89 92.2749 Q827.817 93.8325 827.817 96.1279 Z" fill="#000000" fill-rule="evenodd" fill-opacity="1" /><path clip-path="url(#clip840)" d="M870.042 104.859 Q870.042 109.326 868.075 113.753 Q866.107 118.139 862.951 121.418 Q859.836 124.656 855.737 126.706 Q851.638 128.714 847.539 128.714 Q841.678 128.714 837.866 124.738 Q834.095 120.721 834.095 114.491 Q834.095 108.671 837.333 103.137 Q840.612 97.5625 845.859 94.1194 Q851.105 90.6763 856.598 90.6763 Q862.377 90.6763 866.189 94.5703 Q870.042 98.4643 870.042 104.859 M863.894 101.579 Q863.894 97.6035 861.968 95.0622 Q860.041 92.5208 856.516 92.5208 Q855.491 92.5208 854.303 92.8488 Q853.114 93.1357 851.556 93.9145 Q850.04 94.6933 848.318 96.3328 Q846.638 97.9314 845.162 100.227 Q843.235 103.26 841.76 108.835 Q840.325 114.368 840.325 117.688 Q840.325 122.279 842.457 124.574 Q844.588 126.829 847.621 126.829 Q850.573 126.829 853.688 124.779 Q856.844 122.689 859.016 119.123 Q861.189 115.434 862.541 110.023 Q863.894 104.572 863.894 101.579 Z" fill="#000000" fill-rule="evenodd" fill-opacity="1" /><path clip-path="url(#clip840)" d="M905.313 104.08 Q905.313 109.982 902.32 115.762 Q899.369 121.5 894.614 125.107 Q889.901 128.714 885.064 128.714 Q880.35 128.714 877.358 125.107 Q874.407 121.459 874.407 115.516 Q874.407 113.425 874.653 111.95 Q874.899 110.474 875.759 107.031 L882.646 79.6502 Q883.834 74.5266 883.834 74.4856 Q883.834 73.9937 883.629 73.7478 Q883.465 73.4608 882.482 73.2559 Q881.498 73.0509 879.612 73.0509 Q878.834 73.0509 878.465 73.0099 Q878.137 72.969 877.85 72.764 Q877.604 72.5181 877.604 72.0262 Q877.604 71.3294 877.891 70.9605 Q878.219 70.5506 878.465 70.4686 Q878.711 70.3866 879.202 70.3456 Q879.899 70.3047 882.236 70.0997 Q884.572 69.8538 886.58 69.6898 Q888.589 69.5259 889.45 69.5259 Q889.942 69.5259 890.188 69.7718 Q890.474 69.9767 890.474 70.2227 L890.515 70.4276 L884.326 95.718 Q889.204 90.6763 894.164 90.6763 Q899.123 90.6763 902.197 94.4883 Q905.313 98.3003 905.313 104.08 M899.246 100.391 Q899.246 96.4968 897.771 94.5293 Q896.336 92.5208 893.959 92.5208 Q891.95 92.5208 889.327 94.0374 Q886.703 95.5541 883.916 99.2431 Q883.383 99.9399 883.178 100.35 Q883.014 100.76 882.646 102.153 L880.801 109.9 Q879.448 115.188 879.448 118.385 Q879.448 122.73 881.047 124.779 Q882.646 126.829 885.064 126.829 Q887.605 126.829 890.27 124.574 Q892.934 122.32 894.983 118.221 Q896.254 115.516 897.73 109.695 Q899.246 103.834 899.246 100.391 Z" fill="#000000" fill-rule="evenodd" fill-opacity="1" /><path clip-path="url(#clip840)" d="M927.667 70.4276 L915.575 118.959 Q915.084 120.885 915.084 122.976 Q915.084 126.829 917.625 126.829 Q918.814 126.829 919.797 126.05 Q920.781 125.23 921.519 123.632 Q922.298 121.992 922.79 120.435 Q923.322 118.877 923.978 116.459 Q924.183 115.516 924.388 115.229 Q924.593 114.942 925.167 114.942 Q926.192 114.942 926.192 115.762 Q925.167 120.803 923.65 124.001 Q921.437 128.714 917.338 128.714 Q914.264 128.714 911.968 126.583 Q909.714 124.411 909.714 120.967 Q909.714 119.656 910.124 118.098 L920.699 76.1251 L920.986 74.4856 Q920.986 74.0347 920.822 73.7887 Q920.658 73.5428 919.674 73.2969 Q918.732 73.0509 916.846 73.0509 Q916.067 73.0509 915.698 73.0099 Q915.37 72.969 915.043 72.764 Q914.756 72.5591 914.756 72.1082 Q914.756 71.3704 915.043 70.9605 Q915.37 70.5506 915.616 70.4686 Q915.862 70.3866 916.354 70.3456 Q917.051 70.3047 919.387 70.0997 Q921.724 69.8538 923.732 69.6898 Q925.741 69.5259 926.602 69.5259 Q927.093 69.5259 927.339 69.7718 Q927.626 69.9767 927.667 70.2227 L927.667 70.4276 Z" fill="#000000" fill-rule="evenodd" fill-opacity="1" /><path clip-path="url(#clip840)" d="M967.416 118.057 Q967.744 118.426 967.744 118.795 Q967.744 119.164 966.924 120.23 Q966.146 121.295 964.465 122.73 Q962.784 124.165 960.612 125.517 Q958.44 126.87 955.242 127.772 Q952.045 128.714 948.684 128.714 Q942.659 128.714 939.052 124.411 Q935.486 120.107 935.486 113.507 Q935.486 109.285 936.879 105.555 Q938.273 101.784 940.527 99.1201 Q942.823 96.4558 945.692 94.5293 Q948.602 92.5618 951.635 91.6191 Q954.669 90.6763 957.497 90.6763 Q961.637 90.6763 964.055 92.7668 Q966.473 94.8572 966.473 97.8085 Q966.473 98.5053 966.268 99.3661 Q966.105 100.227 965.531 101.579 Q964.998 102.932 963.604 104.285 Q962.211 105.596 960.161 106.457 Q955.611 108.384 947.331 108.384 L942.864 108.384 Q941.552 113.671 941.552 117.114 Q941.552 118.467 941.798 119.861 Q942.044 121.213 942.7 122.935 Q943.396 124.656 944.954 125.763 Q946.553 126.829 948.848 126.829 Q949.586 126.829 950.365 126.788 Q951.184 126.747 953.234 126.296 Q955.324 125.845 957.169 125.066 Q959.013 124.288 961.35 122.607 Q963.727 120.885 965.613 118.549 Q966.268 117.688 966.719 117.688 Q967.088 117.688 967.416 118.057 M963.686 97.8085 Q963.686 95.5541 962.006 94.0374 Q960.366 92.5208 957.497 92.5208 Q956.595 92.5208 955.488 92.7258 Q954.382 92.9307 952.537 93.7915 Q950.734 94.6523 949.135 96.0869 Q947.536 97.4805 945.938 100.227 Q944.339 102.932 943.396 106.539 L946.84 106.539 Q948.028 106.539 948.889 106.539 Q949.75 106.498 951.635 106.334 Q953.562 106.17 954.955 105.883 Q956.349 105.555 958.112 104.9 Q959.874 104.244 960.981 103.383 Q962.129 102.481 962.907 101.047 Q963.686 99.612 963.686 97.8085 Z" fill="#000000" fill-rule="evenodd" fill-opacity="1" /><path clip-path="url(#clip840)" d="M1041.31 115.762 Q1041.31 116.09 1040.95 117.36 Q1040.58 118.631 1039.67 120.599 Q1038.81 122.566 1037.58 124.37 Q1036.4 126.132 1034.43 127.444 Q1032.5 128.714 1030.29 128.714 Q1027.34 128.714 1025.37 126.747 Q1023.4 124.779 1023.4 121.828 Q1023.4 120.23 1024.51 117.196 Q1029.71 103.342 1029.71 98.3823 Q1029.71 92.5208 1025.16 92.5208 Q1022.58 92.5208 1020.25 93.5866 Q1017.91 94.6523 1016.39 96.1279 Q1014.88 97.6035 1013.69 99.2841 Q1012.5 100.965 1011.97 102.071 Q1011.47 103.178 1011.35 103.67 L1006.31 123.919 Q1005.9 125.64 1005.61 126.46 Q1005.33 127.28 1004.55 127.977 Q1003.77 128.714 1002.54 128.714 Q1001.51 128.714 1000.78 128.1 Q1000.08 127.485 1000.08 126.419 Q1000.08 126.255 1000.28 125.394 Q1000.49 124.533 1000.78 123.345 Q1001.06 122.156 1001.19 121.459 Q1002.66 115.885 1002.87 115.106 L1005.2 105.35 Q1006.47 100.514 1006.47 98.3823 Q1006.47 92.5208 1001.92 92.5208 Q999.669 92.5208 997.538 93.3816 Q995.447 94.2014 994.013 95.3491 Q992.578 96.4968 991.266 98.0954 Q989.996 99.653 989.34 100.719 Q988.725 101.743 988.233 102.768 L987.167 106.949 Q986.921 108.097 985.733 112.565 L983.888 120.148 Q982.577 125.804 982.29 126.337 Q981.88 127.485 980.978 128.1 Q980.076 128.714 979.174 128.714 Q978.15 128.714 977.453 128.1 Q976.756 127.485 976.756 126.419 Q976.756 126.255 976.879 125.64 Q977.002 125.025 977.207 124.165 Q977.412 123.304 977.494 122.812 L982.372 103.424 Q983.273 99.8989 983.478 98.7922 Q983.724 97.6445 983.724 96.3738 Q983.724 92.5208 981.101 92.5208 Q978.969 92.5208 977.576 95.0622 Q976.182 97.6035 974.993 102.522 Q974.625 103.875 974.379 104.162 Q974.174 104.449 973.559 104.449 Q972.534 104.408 972.534 103.588 Q972.534 103.383 972.862 102.071 Q973.19 100.76 973.805 98.7922 Q974.461 96.7837 975.157 95.4721 Q975.567 94.6113 975.936 94.0374 Q976.305 93.4636 977.043 92.5618 Q977.781 91.6601 978.887 91.1682 Q979.994 90.6763 981.347 90.6763 Q984.339 90.6763 986.552 92.6028 Q988.807 94.5293 989.094 97.9724 Q994.545 90.6763 1002.17 90.6763 Q1006.47 90.6763 1009.06 92.8488 Q1011.47 94.9392 1011.76 98.7922 Q1017.42 90.6763 1025.45 90.6763 Q1030.08 90.6763 1032.58 93.0947 Q1035.08 95.4721 1035.08 99.653 Q1035.08 101.825 1033.98 105.965 Q1032.87 110.064 1032.13 112.114 Q1031.39 114.163 1029.96 118.098 Q1028.44 121.869 1028.44 124.083 Q1028.44 125.517 1028.94 126.173 Q1029.43 126.829 1030.49 126.829 Q1032.13 126.829 1033.57 125.886 Q1035 124.902 1036.03 123.304 Q1037.09 121.664 1037.79 120.025 Q1038.49 118.344 1039.02 116.459 Q1039.35 115.434 1039.51 115.188 Q1039.72 114.942 1040.29 114.942 Q1041.31 114.942 1041.31 115.762 Z" fill="#000000" fill-rule="evenodd" fill-opacity="1" /><path clip-path="url(#clip840)" d="M1067.71 79.8552 L1067.71 77.2318 Q1077.79 77.2318 1083 71.8622 Q1084.43 71.8622 1084.68 72.1902 Q1084.92 72.5181 1084.92 74.0347 L1084.92 121.131 Q1084.92 123.632 1086.15 124.411 Q1087.38 125.189 1092.75 125.189 L1095.42 125.189 L1095.42 127.772 Q1092.46 127.526 1081.81 127.526 Q1071.15 127.526 1068.24 127.772 L1068.24 125.189 L1070.9 125.189 Q1076.19 125.189 1077.46 124.451 Q1078.73 123.673 1078.73 121.131 L1078.73 77.6417 Q1074.35 79.8552 1067.71 79.8552 Z" fill="#000000" fill-rule="evenodd" fill-opacity="1" /><path clip-path="url(#clip840)" d="M1102.05 126.419 Q1100.78 125.066 1100.78 123.304 Q1100.78 121.541 1102.05 120.271 Q1103.32 118.959 1105.25 118.959 Q1107.09 118.959 1108.32 120.189 Q1109.59 121.377 1109.59 123.345 Q1109.59 125.271 1108.24 126.542 Q1106.93 127.772 1105.25 127.772 Q1103.32 127.772 1102.05 126.419 Z" fill="#000000" fill-rule="evenodd" fill-opacity="1" /><path clip-path="url(#clip840)" d="M1123.88 127.772 Q1123.88 126.255 1124 125.804 Q1124.16 125.353 1124.82 124.656 L1140.93 106.703 Q1149.74 96.7837 1149.74 88.135 Q1149.74 82.5195 1146.79 78.5025 Q1143.88 74.4856 1138.51 74.4856 Q1134.82 74.4856 1131.71 76.74 Q1128.59 78.9944 1127.16 83.0113 Q1127.4 82.9294 1128.26 82.9294 Q1130.35 82.9294 1131.5 84.241 Q1132.69 85.5527 1132.69 87.3152 Q1132.69 89.5696 1131.21 90.6763 Q1129.78 91.742 1128.34 91.742 Q1127.77 91.742 1126.99 91.6191 Q1126.25 91.4961 1125.07 90.3484 Q1123.88 89.1597 1123.88 87.0693 Q1123.88 81.2078 1128.3 76.535 Q1132.77 71.8622 1139.58 71.8622 Q1147.28 71.8622 1152.32 76.453 Q1157.41 81.0029 1157.41 88.135 Q1157.41 90.6353 1156.63 92.9307 Q1155.89 95.1851 1154.86 96.9477 Q1153.88 98.7102 1151.18 101.538 Q1148.47 104.367 1146.3 106.375 Q1144.13 108.384 1139.25 112.647 L1130.35 121.295 L1145.48 121.295 Q1152.86 121.295 1153.43 120.639 Q1154.25 119.451 1155.27 113.179 L1157.41 113.179 L1155.03 127.772 L1123.88 127.772 Z" fill="#000000" fill-rule="evenodd" fill-opacity="1" /><path clip-path="url(#clip840)" d="M1190.05 126.501 Q1188.74 125.189 1188.74 123.345 Q1188.74 121.5 1190.05 120.189 Q1191.36 118.877 1193.21 118.877 Q1195.05 118.877 1196.36 120.189 Q1197.67 121.5 1197.67 123.345 Q1197.67 125.189 1196.36 126.501 Q1195.05 127.772 1193.21 127.772 Q1191.36 127.772 1190.05 126.501 M1190.05 99.2021 Q1188.74 97.8904 1188.74 96.0459 Q1188.74 94.2014 1190.05 92.8897 Q1191.36 91.5781 1193.21 91.5781 Q1195.05 91.5781 1196.36 92.8897 Q1197.67 94.2014 1197.67 96.0459 Q1197.67 97.8904 1196.36 99.2021 Q1195.05 100.473 1193.21 100.473 Q1191.36 100.473 1190.05 99.2021 Z" fill="#000000" fill-rule="evenodd" fill-opacity="1" /><path clip-path="url(#clip840)" d="M1254.97 51.7482 Q1254.97 43.7553 1260.54 38.2218 Q1266.11 32.6882 1273.66 32.6882 Q1280.05 32.6882 1284.23 37.8938 L1284.23 19.7356 Q1284.23 16.6204 1283.13 15.8416 Q1282.06 15.0628 1277.71 15.0628 L1277.71 12.4395 L1289.81 11.5377 L1289.81 62.4874 Q1289.81 65.6026 1290.87 66.4224 Q1291.98 67.2012 1296.32 67.2012 L1296.32 69.7835 L1283.99 70.7263 L1283.99 65.1517 Q1279.64 70.6853 1272.76 70.7263 Q1265.54 70.7263 1260.25 65.1927 Q1254.97 59.6591 1254.97 51.7482 M1261.93 51.8302 Q1261.93 59.6182 1264.35 63.4712 Q1267.71 68.8407 1273.16 68.8407 Q1279.4 68.8407 1283.08 62.9793 Q1284.03 61.5447 1283.99 59.8641 L1283.99 42.6486 Q1283.99 40.968 1283.08 39.5744 Q1279.64 34.5327 1274.03 34.5327 Q1268.16 34.5327 1264.52 39.9023 Q1261.93 43.9193 1261.93 51.8302 Z" fill="#000000" fill-rule="evenodd" fill-opacity="1" /><path clip-path="url(#clip840)" d="M1339.82 35.8854 Q1339.82 36.4592 1339.45 37.8119 L1331.41 69.8655 Q1329.65 76.9976 1323.91 81.9983 Q1318.22 86.999 1311.74 86.999 Q1307.85 86.999 1305.35 84.9085 Q1302.85 82.8591 1302.85 79.7029 Q1302.85 76.9156 1304.32 75.563 Q1305.8 74.2513 1307.56 74.2513 Q1308.13 74.2513 1308.75 74.4153 Q1309.36 74.5792 1310.02 75.2761 Q1310.67 75.9729 1310.67 77.1616 Q1310.67 79.0881 1308.99 80.6047 Q1308.17 81.3015 1307.4 81.4654 Q1306.66 81.6294 1305.39 81.6294 Q1305.88 82.7771 1306.78 83.5559 Q1307.68 84.3347 1308.71 84.6216 Q1309.73 84.9495 1310.39 85.0315 Q1311.08 85.1545 1311.74 85.1545 Q1316.99 85.1545 1321 79.8669 Q1322.19 78.2683 1323.05 76.6697 Q1323.95 75.1121 1324.61 73.1856 Q1325.27 71.3001 1325.55 70.2754 Q1325.88 69.2506 1326.46 66.9143 Q1322.64 70.7263 1317.97 70.7263 Q1316 70.7263 1314.24 70.1934 Q1312.52 69.6605 1311 68.5538 Q1309.49 67.4061 1308.58 65.3976 Q1307.72 63.3892 1307.72 60.7249 Q1307.72 57.8966 1308.83 54.0436 Q1309.94 50.1906 1312.6 43.0995 Q1314.04 39.1235 1314.04 37.197 Q1314.04 36.2543 1313.83 35.6804 Q1313.63 35.0656 1313.22 34.8606 Q1312.81 34.6147 1312.56 34.5737 Q1312.35 34.5327 1311.94 34.5327 Q1309.53 34.5327 1307.27 36.9921 Q1305.02 39.4514 1303.46 44.944 Q1303.13 45.9687 1302.93 46.2147 Q1302.72 46.4606 1302.11 46.4606 Q1301.08 46.4196 1301.08 45.5998 Q1301.08 45.2719 1301.45 44.0012 Q1301.82 42.6896 1302.68 40.7631 Q1303.58 38.7956 1304.81 37.0331 Q1306.04 35.2295 1307.97 33.9589 Q1309.94 32.6882 1312.19 32.6882 Q1315.27 32.6882 1317.15 34.6967 Q1319.08 36.6642 1319.08 39.5744 Q1319.08 40.7631 1318.75 41.8288 Q1318.46 42.8535 1317.4 45.5998 Q1313.09 56.6669 1313.09 62.0775 Q1313.09 63.3892 1313.3 64.4959 Q1313.54 65.5616 1314.08 66.6273 Q1314.61 67.6521 1315.67 68.2669 Q1316.78 68.8407 1318.3 68.8407 Q1320.22 68.8407 1322.03 67.939 Q1323.87 66.9962 1325.02 65.7256 Q1326.21 64.4549 1326.91 63.3892 Q1327.64 62.2825 1327.81 61.7086 L1331.58 46.6246 L1333.26 39.9023 Q1334.04 36.2543 1334.41 35.3525 Q1334.9 34.4917 1335.76 34.0408 Q1336.62 33.59 1337.36 33.59 Q1338.38 33.59 1339.08 34.2048 Q1339.82 34.8196 1339.82 35.8854 Z" fill="#000000" fill-rule="evenodd" fill-opacity="1" /><path clip-path="url(#clip840)" d="
M1252.97 109.23 L1349.45 109.23 L1349.45 104.75 L1252.97 104.75  Z
  " fill="#000000" fill-rule="evenodd" fill-opacity="1"/>
<path clip-path="url(#clip840)" d="M1252.97 166.803 Q1252.97 158.81 1258.54 153.276 Q1264.11 147.743 1271.66 147.743 Q1278.05 147.743 1282.23 152.948 L1282.23 134.79 Q1282.23 131.675 1281.13 130.896 Q1280.06 130.117 1275.71 130.117 L1275.71 127.494 L1287.81 126.592 L1287.81 177.542 Q1287.81 180.657 1288.87 181.477 Q1289.98 182.256 1294.32 182.256 L1294.32 184.838 L1281.99 185.781 L1281.99 180.206 Q1277.64 185.74 1270.76 185.781 Q1263.54 185.781 1258.25 180.247 Q1252.97 174.714 1252.97 166.803 M1259.93 166.885 Q1259.93 174.673 1262.35 178.526 Q1265.71 183.895 1271.16 183.895 Q1277.4 183.895 1281.08 178.034 Q1282.03 176.599 1281.99 174.918 L1281.99 157.703 Q1281.99 156.022 1281.08 154.629 Q1277.64 149.587 1272.03 149.587 Q1266.16 149.587 1262.52 154.957 Q1259.93 158.974 1259.93 166.885 Z" fill="#000000" fill-rule="evenodd" fill-opacity="1" /><path clip-path="url(#clip840)" d="M1340.89 153.276 Q1340.89 155.572 1339.46 156.883 Q1338.02 158.154 1336.38 158.154 Q1334.83 158.154 1334.01 157.252 Q1333.19 156.35 1333.19 155.203 Q1333.19 153.645 1334.33 152.292 Q1335.48 150.94 1337.2 150.653 Q1335.52 149.587 1333.02 149.587 Q1331.38 149.587 1329.95 150.448 Q1328.55 151.309 1327.69 152.415 Q1326.87 153.522 1326.14 155.121 Q1325.44 156.678 1325.15 157.621 Q1324.91 158.523 1324.7 159.507 L1321.83 170.983 Q1320.44 176.435 1320.44 178.362 Q1320.44 180.739 1321.59 182.338 Q1322.73 183.895 1325.03 183.895 Q1325.93 183.895 1326.96 183.649 Q1327.98 183.362 1329.29 182.624 Q1330.64 181.846 1331.83 180.698 Q1333.06 179.509 1334.25 177.501 Q1335.44 175.492 1336.22 172.91 Q1336.46 172.008 1337.28 172.008 Q1338.31 172.008 1338.31 172.828 Q1338.31 173.525 1337.74 175 Q1337.2 176.435 1336.01 178.321 Q1334.87 180.165 1333.35 181.846 Q1331.83 183.485 1329.58 184.633 Q1327.32 185.781 1324.86 185.781 Q1321.34 185.781 1319 183.895 Q1316.67 182.01 1315.81 179.386 Q1315.6 179.755 1315.31 180.247 Q1315.03 180.739 1314.17 181.846 Q1313.35 182.911 1312.4 183.731 Q1311.46 184.51 1309.99 185.125 Q1308.55 185.781 1306.99 185.781 Q1305.03 185.781 1303.26 185.207 Q1301.54 184.633 1300.31 183.321 Q1299.08 182.01 1299.08 180.206 Q1299.08 178.198 1300.44 176.804 Q1301.83 175.369 1303.71 175.369 Q1304.9 175.369 1305.85 176.066 Q1306.83 176.763 1306.83 178.28 Q1306.83 179.96 1305.68 181.231 Q1304.53 182.501 1302.89 182.829 Q1304.58 183.895 1307.08 183.895 Q1309.78 183.895 1311.91 181.518 Q1314.04 179.14 1315.07 175.164 Q1317.61 165.614 1318.59 161.351 Q1319.58 157.047 1319.58 155.203 Q1319.58 153.481 1319.13 152.292 Q1318.68 151.104 1317.9 150.571 Q1317.16 149.997 1316.46 149.792 Q1315.81 149.587 1315.07 149.587 Q1313.84 149.587 1312.45 150.079 Q1311.09 150.571 1309.45 151.719 Q1307.85 152.825 1306.34 155.121 Q1304.82 157.416 1303.8 160.572 Q1303.59 161.515 1302.69 161.515 Q1301.71 161.474 1301.71 160.654 Q1301.71 159.957 1302.24 158.523 Q1302.81 157.047 1303.96 155.203 Q1305.15 153.358 1306.67 151.719 Q1308.22 150.038 1310.48 148.89 Q1312.77 147.743 1315.23 147.743 Q1316.34 147.743 1317.4 147.989 Q1318.51 148.193 1319.82 148.808 Q1321.18 149.423 1322.36 150.776 Q1323.55 152.128 1324.29 154.096 Q1324.78 153.153 1325.44 152.251 Q1326.14 151.35 1327.2 150.243 Q1328.31 149.095 1329.82 148.439 Q1331.38 147.743 1333.1 147.743 Q1334.78 147.743 1336.42 148.193 Q1338.06 148.603 1339.46 149.956 Q1340.89 151.268 1340.89 153.276 Z" fill="#000000" fill-rule="evenodd" fill-opacity="1" /><path clip-path="url(#clip840)" d="M1381.7 115.024 Q1381.78 113.999 1383.38 113.999 L1434.82 113.999 Q1437.24 113.999 1437.28 114.942 Q1437.28 115.967 1434.99 115.926 L1383.95 115.926 Q1381.7 115.967 1381.7 115.024 M1381.7 98.6282 Q1381.7 97.6035 1383.46 97.6445 L1434.74 97.6445 Q1437.24 97.6445 1437.28 98.6282 Q1437.28 99.571 1435.15 99.571 L1383.38 99.571 Q1381.7 99.571 1381.7 98.6282 Z" fill="#000000" fill-rule="evenodd" fill-opacity="1" /><path clip-path="url(#clip840)" d="M1548.37 105.596 Q1548.86 106.088 1548.86 106.785 Q1548.86 107.482 1548.37 107.974 Q1547.88 108.466 1547.18 108.466 L1494.63 108.466 Q1493.93 108.466 1493.44 107.974 Q1492.95 107.482 1492.95 106.785 Q1492.95 106.088 1493.44 105.596 Q1493.93 105.105 1494.63 105.105 L1547.18 105.105 Q1547.88 105.105 1548.37 105.596 Z" fill="#000000" fill-rule="evenodd" fill-opacity="1" /><path clip-path="url(#clip840)" d="M1619.64 93.8735 Q1619.64 94.4473 1619.28 95.8 L1611.24 127.854 Q1609.48 134.986 1603.74 139.986 Q1598.04 144.987 1591.57 144.987 Q1587.67 144.987 1585.17 142.897 Q1582.67 140.847 1582.67 137.691 Q1582.67 134.904 1584.15 133.551 Q1585.62 132.239 1587.39 132.239 Q1587.96 132.239 1588.57 132.403 Q1589.19 132.567 1589.85 133.264 Q1590.5 133.961 1590.5 135.15 Q1590.5 137.076 1588.82 138.593 Q1588 139.29 1587.22 139.454 Q1586.48 139.618 1585.21 139.618 Q1585.71 140.765 1586.61 141.544 Q1587.51 142.323 1588.53 142.61 Q1589.56 142.938 1590.21 143.02 Q1590.91 143.143 1591.57 143.143 Q1596.81 143.143 1600.83 137.855 Q1602.02 136.256 1602.88 134.658 Q1603.78 133.1 1604.44 131.174 Q1605.09 129.288 1605.38 128.263 Q1605.71 127.239 1606.28 124.902 Q1602.47 128.714 1597.8 128.714 Q1595.83 128.714 1594.07 128.182 Q1592.35 127.649 1590.83 126.542 Q1589.31 125.394 1588.41 123.386 Q1587.55 121.377 1587.55 118.713 Q1587.55 115.885 1588.66 112.032 Q1589.76 108.179 1592.43 101.088 Q1593.86 97.1116 1593.86 95.1851 Q1593.86 94.2424 1593.66 93.6685 Q1593.45 93.0537 1593.04 92.8488 Q1592.63 92.6028 1592.39 92.5618 Q1592.18 92.5208 1591.77 92.5208 Q1589.35 92.5208 1587.1 94.9802 Q1584.84 97.4396 1583.29 102.932 Q1582.96 103.957 1582.75 104.203 Q1582.55 104.449 1581.93 104.449 Q1580.91 104.408 1580.91 103.588 Q1580.91 103.26 1581.28 101.989 Q1581.65 100.678 1582.51 98.7512 Q1583.41 96.7837 1584.64 95.0212 Q1585.87 93.2177 1587.8 91.947 Q1589.76 90.6763 1592.02 90.6763 Q1595.09 90.6763 1596.98 92.6848 Q1598.9 94.6523 1598.9 97.5625 Q1598.9 98.7512 1598.58 99.8169 Q1598.29 100.842 1597.22 103.588 Q1592.92 114.655 1592.92 120.066 Q1592.92 121.377 1593.12 122.484 Q1593.37 123.55 1593.9 124.615 Q1594.44 125.64 1595.5 126.255 Q1596.61 126.829 1598.13 126.829 Q1600.05 126.829 1601.86 125.927 Q1603.7 124.984 1604.85 123.714 Q1606.04 122.443 1606.73 121.377 Q1607.47 120.271 1607.63 119.697 L1611.41 104.613 L1613.09 97.8904 Q1613.87 94.2424 1614.23 93.3406 Q1614.73 92.4799 1615.59 92.029 Q1616.45 91.5781 1617.19 91.5781 Q1618.21 91.5781 1618.91 92.1929 Q1619.64 92.8078 1619.64 93.8735 Z" fill="#000000" fill-rule="evenodd" fill-opacity="1" /><path clip-path="url(#clip840)" d="M1628.23 102.666 Q1628.23 101.604 1628.32 101.289 Q1628.43 100.973 1628.89 100.485 L1640.17 87.9181 Q1646.33 80.9745 1646.33 74.9204 Q1646.33 70.9895 1644.27 68.1776 Q1642.23 65.3658 1638.47 65.3658 Q1635.89 65.3658 1633.71 66.9438 Q1631.53 68.5219 1630.52 71.3338 Q1630.7 71.2764 1631.3 71.2764 Q1632.76 71.2764 1633.57 72.1946 Q1634.4 73.1127 1634.4 74.3465 Q1634.4 75.9246 1633.37 76.6993 Q1632.36 77.4453 1631.36 77.4453 Q1630.96 77.4453 1630.41 77.3592 Q1629.89 77.2731 1629.06 76.4698 Q1628.23 75.6377 1628.23 74.1744 Q1628.23 70.0713 1631.33 66.8004 Q1634.46 63.5294 1639.22 63.5294 Q1644.61 63.5294 1648.14 66.743 Q1651.7 69.9279 1651.7 74.9204 Q1651.7 76.6706 1651.15 78.2774 Q1650.64 79.8555 1649.92 81.0892 Q1649.23 82.323 1647.34 84.3028 Q1645.44 86.2826 1643.92 87.6885 Q1642.4 89.0945 1638.99 92.0785 L1632.76 98.1326 L1643.35 98.1326 Q1648.51 98.1326 1648.92 97.6735 Q1649.49 96.8414 1650.21 92.4515 L1651.7 92.4515 L1650.04 102.666 L1628.23 102.666 Z" fill="#000000" fill-rule="evenodd" fill-opacity="1" /><circle clip-path="url(#clip843)" cx="202.552" cy="215.788" r="7" fill="#ff0000" fill-rule="evenodd" fill-opacity="1" stroke="#000000" stroke-opacity="1" stroke-width="0"/>
<circle clip-path="url(#clip843)" cx="207.436" cy="223.575" r="7" fill="#ff0000" fill-rule="evenodd" fill-opacity="1" stroke="#000000" stroke-opacity="1" stroke-width="0"/>
<circle clip-path="url(#clip843)" cx="212.606" cy="231.765" r="7" fill="#ff0000" fill-rule="evenodd" fill-opacity="1" stroke="#000000" stroke-opacity="1" stroke-width="0"/>
<circle clip-path="url(#clip843)" cx="219.738" cy="242.974" r="7" fill="#ff0000" fill-rule="evenodd" fill-opacity="1" stroke="#000000" stroke-opacity="1" stroke-width="0"/>
<circle clip-path="url(#clip843)" cx="227.786" cy="255.5" r="7" fill="#ff0000" fill-rule="evenodd" fill-opacity="1" stroke="#000000" stroke-opacity="1" stroke-width="0"/>
<circle clip-path="url(#clip843)" cx="237.297" cy="270.138" r="7" fill="#ff0000" fill-rule="evenodd" fill-opacity="1" stroke="#000000" stroke-opacity="1" stroke-width="0"/>
<circle clip-path="url(#clip843)" cx="247.816" cy="286.123" r="7" fill="#ff0000" fill-rule="evenodd" fill-opacity="1" stroke="#000000" stroke-opacity="1" stroke-width="0"/>
<circle clip-path="url(#clip843)" cx="259.435" cy="303.535" r="7" fill="#ff0000" fill-rule="evenodd" fill-opacity="1" stroke="#000000" stroke-opacity="1" stroke-width="0"/>
<circle clip-path="url(#clip843)" cx="271.931" cy="321.981" r="7" fill="#ff0000" fill-rule="evenodd" fill-opacity="1" stroke="#000000" stroke-opacity="1" stroke-width="0"/>
<circle clip-path="url(#clip843)" cx="285.258" cy="341.341" r="7" fill="#ff0000" fill-rule="evenodd" fill-opacity="1" stroke="#000000" stroke-opacity="1" stroke-width="0"/>
<circle clip-path="url(#clip843)" cx="299.287" cy="361.382" r="7" fill="#ff0000" fill-rule="evenodd" fill-opacity="1" stroke="#000000" stroke-opacity="1" stroke-width="0"/>
<circle clip-path="url(#clip843)" cx="313.951" cy="381.966" r="7" fill="#ff0000" fill-rule="evenodd" fill-opacity="1" stroke="#000000" stroke-opacity="1" stroke-width="0"/>
<circle clip-path="url(#clip843)" cx="329.166" cy="402.941" r="7" fill="#ff0000" fill-rule="evenodd" fill-opacity="1" stroke="#000000" stroke-opacity="1" stroke-width="0"/>
<circle clip-path="url(#clip843)" cx="344.875" cy="424.2" r="7" fill="#ff0000" fill-rule="evenodd" fill-opacity="1" stroke="#000000" stroke-opacity="1" stroke-width="0"/>
<circle clip-path="url(#clip843)" cx="361.024" cy="445.644" r="7" fill="#ff0000" fill-rule="evenodd" fill-opacity="1" stroke="#000000" stroke-opacity="1" stroke-width="0"/>
<circle clip-path="url(#clip843)" cx="377.571" cy="467.199" r="7" fill="#ff0000" fill-rule="evenodd" fill-opacity="1" stroke="#000000" stroke-opacity="1" stroke-width="0"/>
<circle clip-path="url(#clip843)" cx="394.48" cy="488.801" r="7" fill="#ff0000" fill-rule="evenodd" fill-opacity="1" stroke="#000000" stroke-opacity="1" stroke-width="0"/>
<circle clip-path="url(#clip843)" cx="411.724" cy="510.402" r="7" fill="#ff0000" fill-rule="evenodd" fill-opacity="1" stroke="#000000" stroke-opacity="1" stroke-width="0"/>
<circle clip-path="url(#clip843)" cx="429.281" cy="531.961" r="7" fill="#ff0000" fill-rule="evenodd" fill-opacity="1" stroke="#000000" stroke-opacity="1" stroke-width="0"/>
<circle clip-path="url(#clip843)" cx="447.132" cy="553.447" r="7" fill="#ff0000" fill-rule="evenodd" fill-opacity="1" stroke="#000000" stroke-opacity="1" stroke-width="0"/>
<circle clip-path="url(#clip843)" cx="465.264" cy="574.837" r="7" fill="#ff0000" fill-rule="evenodd" fill-opacity="1" stroke="#000000" stroke-opacity="1" stroke-width="0"/>
<circle clip-path="url(#clip843)" cx="483.666" cy="596.11" r="7" fill="#ff0000" fill-rule="evenodd" fill-opacity="1" stroke="#000000" stroke-opacity="1" stroke-width="0"/>
<circle clip-path="url(#clip843)" cx="502.331" cy="617.253" r="7" fill="#ff0000" fill-rule="evenodd" fill-opacity="1" stroke="#000000" stroke-opacity="1" stroke-width="0"/>
<circle clip-path="url(#clip843)" cx="521.252" cy="638.253" r="7" fill="#ff0000" fill-rule="evenodd" fill-opacity="1" stroke="#000000" stroke-opacity="1" stroke-width="0"/>
<circle clip-path="url(#clip843)" cx="540.425" cy="659.103" r="7" fill="#ff0000" fill-rule="evenodd" fill-opacity="1" stroke="#000000" stroke-opacity="1" stroke-width="0"/>
<circle clip-path="url(#clip843)" cx="559.848" cy="679.795" r="7" fill="#ff0000" fill-rule="evenodd" fill-opacity="1" stroke="#000000" stroke-opacity="1" stroke-width="0"/>
<circle clip-path="url(#clip843)" cx="579.52" cy="700.325" r="7" fill="#ff0000" fill-rule="evenodd" fill-opacity="1" stroke="#000000" stroke-opacity="1" stroke-width="0"/>
<circle clip-path="url(#clip843)" cx="599.439" cy="720.688" r="7" fill="#ff0000" fill-rule="evenodd" fill-opacity="1" stroke="#000000" stroke-opacity="1" stroke-width="0"/>
<circle clip-path="url(#clip843)" cx="619.606" cy="740.884" r="7" fill="#ff0000" fill-rule="evenodd" fill-opacity="1" stroke="#000000" stroke-opacity="1" stroke-width="0"/>
<circle clip-path="url(#clip843)" cx="640.022" cy="760.909" r="7" fill="#ff0000" fill-rule="evenodd" fill-opacity="1" stroke="#000000" stroke-opacity="1" stroke-width="0"/>
<circle clip-path="url(#clip843)" cx="660.687" cy="780.764" r="7" fill="#ff0000" fill-rule="evenodd" fill-opacity="1" stroke="#000000" stroke-opacity="1" stroke-width="0"/>
<circle clip-path="url(#clip843)" cx="681.605" cy="800.447" r="7" fill="#ff0000" fill-rule="evenodd" fill-opacity="1" stroke="#000000" stroke-opacity="1" stroke-width="0"/>
<circle clip-path="url(#clip843)" cx="702.777" cy="819.959" r="7" fill="#ff0000" fill-rule="evenodd" fill-opacity="1" stroke="#000000" stroke-opacity="1" stroke-width="0"/>
<circle clip-path="url(#clip843)" cx="724.205" cy="839.3" r="7" fill="#ff0000" fill-rule="evenodd" fill-opacity="1" stroke="#000000" stroke-opacity="1" stroke-width="0"/>
<circle clip-path="url(#clip843)" cx="745.893" cy="858.47" r="7" fill="#ff0000" fill-rule="evenodd" fill-opacity="1" stroke="#000000" stroke-opacity="1" stroke-width="0"/>
<circle clip-path="url(#clip843)" cx="767.843" cy="877.47" r="7" fill="#ff0000" fill-rule="evenodd" fill-opacity="1" stroke="#000000" stroke-opacity="1" stroke-width="0"/>
<circle clip-path="url(#clip843)" cx="790.058" cy="896.301" r="7" fill="#ff0000" fill-rule="evenodd" fill-opacity="1" stroke="#000000" stroke-opacity="1" stroke-width="0"/>
<circle clip-path="url(#clip843)" cx="812.542" cy="914.964" r="7" fill="#ff0000" fill-rule="evenodd" fill-opacity="1" stroke="#000000" stroke-opacity="1" stroke-width="0"/>
<circle clip-path="url(#clip843)" cx="835.297" cy="933.46" r="7" fill="#ff0000" fill-rule="evenodd" fill-opacity="1" stroke="#000000" stroke-opacity="1" stroke-width="0"/>
<circle clip-path="url(#clip843)" cx="858.328" cy="951.79" r="7" fill="#ff0000" fill-rule="evenodd" fill-opacity="1" stroke="#000000" stroke-opacity="1" stroke-width="0"/>
<circle clip-path="url(#clip843)" cx="881.639" cy="969.955" r="7" fill="#ff0000" fill-rule="evenodd" fill-opacity="1" stroke="#000000" stroke-opacity="1" stroke-width="0"/>
<circle clip-path="url(#clip843)" cx="905.232" cy="987.957" r="7" fill="#ff0000" fill-rule="evenodd" fill-opacity="1" stroke="#000000" stroke-opacity="1" stroke-width="0"/>
<circle clip-path="url(#clip843)" cx="929.111" cy="1005.8" r="7" fill="#ff0000" fill-rule="evenodd" fill-opacity="1" stroke="#000000" stroke-opacity="1" stroke-width="0"/>
<circle clip-path="url(#clip843)" cx="953.282" cy="1023.47" r="7" fill="#ff0000" fill-rule="evenodd" fill-opacity="1" stroke="#000000" stroke-opacity="1" stroke-width="0"/>
<circle clip-path="url(#clip843)" cx="977.747" cy="1040.99" r="7" fill="#ff0000" fill-rule="evenodd" fill-opacity="1" stroke="#000000" stroke-opacity="1" stroke-width="0"/>
<circle clip-path="url(#clip843)" cx="1002.51" cy="1058.35" r="7" fill="#ff0000" fill-rule="evenodd" fill-opacity="1" stroke="#000000" stroke-opacity="1" stroke-width="0"/>
<circle clip-path="url(#clip843)" cx="1027.58" cy="1075.55" r="7" fill="#ff0000" fill-rule="evenodd" fill-opacity="1" stroke="#000000" stroke-opacity="1" stroke-width="0"/>
<circle clip-path="url(#clip843)" cx="1052.95" cy="1092.6" r="7" fill="#ff0000" fill-rule="evenodd" fill-opacity="1" stroke="#000000" stroke-opacity="1" stroke-width="0"/>
<circle clip-path="url(#clip843)" cx="1078.64" cy="1109.49" r="7" fill="#ff0000" fill-rule="evenodd" fill-opacity="1" stroke="#000000" stroke-opacity="1" stroke-width="0"/>
<circle clip-path="url(#clip843)" cx="1104.64" cy="1126.23" r="7" fill="#ff0000" fill-rule="evenodd" fill-opacity="1" stroke="#000000" stroke-opacity="1" stroke-width="0"/>
<circle clip-path="url(#clip843)" cx="1130.97" cy="1142.81" r="7" fill="#ff0000" fill-rule="evenodd" fill-opacity="1" stroke="#000000" stroke-opacity="1" stroke-width="0"/>
<circle clip-path="url(#clip843)" cx="1157.61" cy="1159.25" r="7" fill="#ff0000" fill-rule="evenodd" fill-opacity="1" stroke="#000000" stroke-opacity="1" stroke-width="0"/>
<circle clip-path="url(#clip843)" cx="1184.59" cy="1175.53" r="7" fill="#ff0000" fill-rule="evenodd" fill-opacity="1" stroke="#000000" stroke-opacity="1" stroke-width="0"/>
<circle clip-path="url(#clip843)" cx="1211.91" cy="1191.67" r="7" fill="#ff0000" fill-rule="evenodd" fill-opacity="1" stroke="#000000" stroke-opacity="1" stroke-width="0"/>
<circle clip-path="url(#clip843)" cx="1239.56" cy="1207.65" r="7" fill="#ff0000" fill-rule="evenodd" fill-opacity="1" stroke="#000000" stroke-opacity="1" stroke-width="0"/>
<circle clip-path="url(#clip843)" cx="1267.56" cy="1223.5" r="7" fill="#ff0000" fill-rule="evenodd" fill-opacity="1" stroke="#000000" stroke-opacity="1" stroke-width="0"/>
<circle clip-path="url(#clip843)" cx="1295.9" cy="1239.19" r="7" fill="#ff0000" fill-rule="evenodd" fill-opacity="1" stroke="#000000" stroke-opacity="1" stroke-width="0"/>
<circle clip-path="url(#clip843)" cx="1324.6" cy="1254.74" r="7" fill="#ff0000" fill-rule="evenodd" fill-opacity="1" stroke="#000000" stroke-opacity="1" stroke-width="0"/>
<circle clip-path="url(#clip843)" cx="1353.67" cy="1270.15" r="7" fill="#ff0000" fill-rule="evenodd" fill-opacity="1" stroke="#000000" stroke-opacity="1" stroke-width="0"/>
<circle clip-path="url(#clip843)" cx="1383.09" cy="1285.42" r="7" fill="#ff0000" fill-rule="evenodd" fill-opacity="1" stroke="#000000" stroke-opacity="1" stroke-width="0"/>
<circle clip-path="url(#clip843)" cx="1412.89" cy="1300.55" r="7" fill="#ff0000" fill-rule="evenodd" fill-opacity="1" stroke="#000000" stroke-opacity="1" stroke-width="0"/>
<circle clip-path="url(#clip843)" cx="1443.07" cy="1315.54" r="7" fill="#ff0000" fill-rule="evenodd" fill-opacity="1" stroke="#000000" stroke-opacity="1" stroke-width="0"/>
<circle clip-path="url(#clip843)" cx="1473.62" cy="1330.39" r="7" fill="#ff0000" fill-rule="evenodd" fill-opacity="1" stroke="#000000" stroke-opacity="1" stroke-width="0"/>
<circle clip-path="url(#clip843)" cx="1504.56" cy="1345.11" r="7" fill="#ff0000" fill-rule="evenodd" fill-opacity="1" stroke="#000000" stroke-opacity="1" stroke-width="0"/>
<circle clip-path="url(#clip843)" cx="1535.9" cy="1359.69" r="7" fill="#ff0000" fill-rule="evenodd" fill-opacity="1" stroke="#000000" stroke-opacity="1" stroke-width="0"/>
<circle clip-path="url(#clip843)" cx="1567.64" cy="1374.13" r="7" fill="#ff0000" fill-rule="evenodd" fill-opacity="1" stroke="#000000" stroke-opacity="1" stroke-width="0"/>
<circle clip-path="url(#clip843)" cx="1599.78" cy="1388.44" r="7" fill="#ff0000" fill-rule="evenodd" fill-opacity="1" stroke="#000000" stroke-opacity="1" stroke-width="0"/>
<circle clip-path="url(#clip843)" cx="1632.33" cy="1402.62" r="7" fill="#ff0000" fill-rule="evenodd" fill-opacity="1" stroke="#000000" stroke-opacity="1" stroke-width="0"/>
<circle clip-path="url(#clip843)" cx="1665.3" cy="1416.66" r="7" fill="#ff0000" fill-rule="evenodd" fill-opacity="1" stroke="#000000" stroke-opacity="1" stroke-width="0"/>
<circle clip-path="url(#clip843)" cx="1698.69" cy="1430.58" r="7" fill="#ff0000" fill-rule="evenodd" fill-opacity="1" stroke="#000000" stroke-opacity="1" stroke-width="0"/>
<circle clip-path="url(#clip843)" cx="1732.51" cy="1444.37" r="7" fill="#ff0000" fill-rule="evenodd" fill-opacity="1" stroke="#000000" stroke-opacity="1" stroke-width="0"/>
<circle clip-path="url(#clip843)" cx="1745.14" cy="1449.44" r="7" fill="#ff0000" fill-rule="evenodd" fill-opacity="1" stroke="#000000" stroke-opacity="1" stroke-width="0"/>
<circle clip-path="url(#clip843)" cx="511.069" cy="626.991" r="14" fill="#008000" fill-rule="evenodd" fill-opacity="1" stroke="#000000" stroke-opacity="1" stroke-width="0"/>
<circle clip-path="url(#clip843)" cx="819.585" cy="920.715" r="14" fill="#008000" fill-rule="evenodd" fill-opacity="1" stroke="#000000" stroke-opacity="1" stroke-width="0"/>
<circle clip-path="url(#clip843)" cx="1128.1" cy="1141.01" r="14" fill="#008000" fill-rule="evenodd" fill-opacity="1" stroke="#000000" stroke-opacity="1" stroke-width="0"/>
<circle clip-path="url(#clip843)" cx="1436.62" cy="1312.35" r="14" fill="#008000" fill-rule="evenodd" fill-opacity="1" stroke="#000000" stroke-opacity="1" stroke-width="0"/>
<circle clip-path="url(#clip843)" cx="1745.14" cy="1449.43" r="14" fill="#008000" fill-rule="evenodd" fill-opacity="1" stroke="#000000" stroke-opacity="1" stroke-width="0"/>
<polyline clip-path="url(#clip843)" style="stroke:#0000ff; stroke-linecap:butt; stroke-linejoin:round; stroke-width:4; stroke-opacity:1; fill:none" points="
  202.552,215.788 207.573,223.794 212.595,231.747 259.026,302.926 305.457,370.088 333.361,408.657 361.264,445.96 384.856,476.558 408.448,506.33 434.075,537.774 
  459.703,568.322 483.329,595.724 506.955,622.425 532.285,650.303 557.614,677.437 586.961,707.982 616.308,737.61 668.469,788.134 714.209,830.327 764.078,874.239 
  814.243,916.36 869.707,960.705 922.479,1000.88 977.351,1040.71 1023.54,1072.81 1079.93,1110.33 1131.59,1143.2 1179.3,1172.37 1227.63,1200.8 1281.8,1231.42 
  1330.88,1258.1 1387.08,1287.46 1439.11,1313.59 1490.4,1338.41 1540.21,1361.67 1591.27,1384.68 1647.21,1409 1728.47,1442.74 1745.14,1449.44 
  "/>
<path clip-path="url(#clip840)" d="
M1864.63 429.727 L2352.76 429.727 L2352.76 222.367 L1864.63 222.367  Z
  " fill="#ffffff" fill-rule="evenodd" fill-opacity="1"/>
<polyline clip-path="url(#clip840)" style="stroke:#000000; stroke-linecap:butt; stroke-linejoin:round; stroke-width:4; stroke-opacity:1; fill:none" points="
  1864.63,429.727 2352.76,429.727 2352.76,222.367 1864.63,222.367 1864.63,429.727 
  "/>
<circle clip-path="url(#clip840)" cx="1962.25" cy="274.207" r="23" fill="#ff0000" fill-rule="evenodd" fill-opacity="1" stroke="#000000" stroke-opacity="1" stroke-width="0"/>
<path clip-path="url(#clip840)" d="M2059.87 255.469 L2064.13 255.469 L2064.13 291.487 L2059.87 291.487 L2059.87 255.469 Z" fill="#000000" fill-rule="evenodd" fill-opacity="1" /><path clip-path="url(#clip840)" d="M2073.04 265.562 L2077.3 265.562 L2077.3 291.487 L2073.04 291.487 L2073.04 265.562 M2073.04 255.469 L2077.3 255.469 L2077.3 260.863 L2073.04 260.863 L2073.04 255.469 Z" fill="#000000" fill-rule="evenodd" fill-opacity="1" /><path clip-path="url(#clip840)" d="M2104.83 278.548 Q2104.83 273.849 2102.88 271.187 Q2100.96 268.501 2097.58 268.501 Q2094.2 268.501 2092.26 271.187 Q2090.34 273.849 2090.34 278.548 Q2090.34 283.247 2092.26 285.932 Q2094.2 288.594 2097.58 288.594 Q2100.96 288.594 2102.88 285.932 Q2104.83 283.247 2104.83 278.548 M2090.34 269.497 Q2091.68 267.182 2093.71 266.071 Q2095.78 264.937 2098.62 264.937 Q2103.34 264.937 2106.28 268.687 Q2109.25 272.437 2109.25 278.548 Q2109.25 284.659 2106.28 288.409 Q2103.34 292.159 2098.62 292.159 Q2095.78 292.159 2093.71 291.048 Q2091.68 289.913 2090.34 287.598 L2090.34 291.487 L2086.05 291.487 L2086.05 255.469 L2090.34 255.469 L2090.34 269.497 Z" fill="#000000" fill-rule="evenodd" fill-opacity="1" /><path clip-path="url(#clip840)" d="M2147.9 266.325 L2147.9 270.353 Q2146.1 269.427 2144.15 268.964 Q2142.21 268.501 2140.13 268.501 Q2136.96 268.501 2135.36 269.474 Q2133.78 270.446 2133.78 272.39 Q2133.78 273.872 2134.92 274.728 Q2136.05 275.562 2139.48 276.325 L2140.94 276.649 Q2145.47 277.622 2147.37 279.404 Q2149.29 281.163 2149.29 284.335 Q2149.29 287.946 2146.42 290.052 Q2143.58 292.159 2138.58 292.159 Q2136.49 292.159 2134.22 291.742 Q2131.98 291.348 2129.48 290.538 L2129.48 286.14 Q2131.84 287.367 2134.13 287.992 Q2136.42 288.594 2138.67 288.594 Q2141.68 288.594 2143.3 287.575 Q2144.92 286.534 2144.92 284.659 Q2144.92 282.923 2143.74 281.997 Q2142.58 281.071 2138.62 280.214 L2137.14 279.867 Q2133.18 279.034 2131.42 277.321 Q2129.66 275.585 2129.66 272.575 Q2129.66 268.918 2132.26 266.927 Q2134.85 264.937 2139.62 264.937 Q2141.98 264.937 2144.06 265.284 Q2146.15 265.631 2147.9 266.325 Z" fill="#000000" fill-rule="evenodd" fill-opacity="1" /><path clip-path="url(#clip840)" d="M2166.12 268.548 Q2162.7 268.548 2160.71 271.233 Q2158.71 273.895 2158.71 278.548 Q2158.71 283.2 2160.68 285.886 Q2162.67 288.548 2166.12 288.548 Q2169.52 288.548 2171.52 285.862 Q2173.51 283.177 2173.51 278.548 Q2173.51 273.941 2171.52 271.256 Q2169.52 268.548 2166.12 268.548 M2166.12 264.937 Q2171.68 264.937 2174.85 268.548 Q2178.02 272.159 2178.02 278.548 Q2178.02 284.913 2174.85 288.548 Q2171.68 292.159 2166.12 292.159 Q2160.54 292.159 2157.37 288.548 Q2154.22 284.913 2154.22 278.548 Q2154.22 272.159 2157.37 268.548 Q2160.54 264.937 2166.12 264.937 Z" fill="#000000" fill-rule="evenodd" fill-opacity="1" /><path clip-path="url(#clip840)" d="M2185.08 255.469 L2189.34 255.469 L2189.34 291.487 L2185.08 291.487 L2185.08 255.469 Z" fill="#000000" fill-rule="evenodd" fill-opacity="1" /><path clip-path="url(#clip840)" d="M2195.2 265.562 L2199.71 265.562 L2207.81 287.321 L2215.91 265.562 L2220.43 265.562 L2210.7 291.487 L2204.92 291.487 L2195.2 265.562 Z" fill="#000000" fill-rule="evenodd" fill-opacity="1" /><path clip-path="url(#clip840)" d="M2248.48 277.46 L2248.48 279.543 L2228.9 279.543 Q2229.18 283.941 2231.54 286.256 Q2233.92 288.548 2238.16 288.548 Q2240.61 288.548 2242.9 287.946 Q2245.22 287.344 2247.49 286.14 L2247.49 290.168 Q2245.2 291.14 2242.79 291.649 Q2240.38 292.159 2237.9 292.159 Q2231.7 292.159 2228.07 288.548 Q2224.45 284.936 2224.45 278.779 Q2224.45 272.413 2227.88 268.687 Q2231.33 264.937 2237.16 264.937 Q2242.39 264.937 2245.43 268.316 Q2248.48 271.673 2248.48 277.46 M2244.22 276.21 Q2244.18 272.714 2242.26 270.631 Q2240.36 268.548 2237.21 268.548 Q2233.64 268.548 2231.49 270.562 Q2229.36 272.575 2229.04 276.233 L2244.22 276.21 Z" fill="#000000" fill-rule="evenodd" fill-opacity="1" /><path clip-path="url(#clip840)" d="M2270.5 269.543 Q2269.78 269.126 2268.92 268.941 Q2268.09 268.733 2267.07 268.733 Q2263.46 268.733 2261.51 271.094 Q2259.59 273.432 2259.59 277.83 L2259.59 291.487 L2255.31 291.487 L2255.31 265.562 L2259.59 265.562 L2259.59 269.589 Q2260.94 267.228 2263.09 266.094 Q2265.24 264.937 2268.32 264.937 Q2268.76 264.937 2269.29 265.006 Q2269.83 265.052 2270.47 265.168 L2270.5 269.543 Z" fill="#000000" fill-rule="evenodd" fill-opacity="1" /><circle clip-path="url(#clip840)" cx="1962.25" cy="326.047" r="23" fill="#008000" fill-rule="evenodd" fill-opacity="1" stroke="#000000" stroke-opacity="1" stroke-width="0"/>
<path clip-path="url(#clip840)" d="M2080.22 322.378 Q2081.82 319.508 2084.04 318.142 Q2086.26 316.777 2089.27 316.777 Q2093.32 316.777 2095.52 319.624 Q2097.72 322.448 2097.72 327.679 L2097.72 343.327 L2093.44 343.327 L2093.44 327.818 Q2093.44 324.091 2092.12 322.286 Q2090.8 320.48 2088.09 320.48 Q2084.78 320.48 2082.86 322.679 Q2080.94 324.878 2080.94 328.675 L2080.94 343.327 L2076.65 343.327 L2076.65 327.818 Q2076.65 324.068 2075.34 322.286 Q2074.02 320.48 2071.26 320.48 Q2068 320.48 2066.08 322.702 Q2064.15 324.902 2064.15 328.675 L2064.15 343.327 L2059.87 343.327 L2059.87 317.402 L2064.15 317.402 L2064.15 321.429 Q2065.61 319.045 2067.65 317.911 Q2069.69 316.777 2072.49 316.777 Q2075.31 316.777 2077.28 318.212 Q2079.27 319.647 2080.22 322.378 Z" fill="#000000" fill-rule="evenodd" fill-opacity="1" /><path clip-path="url(#clip840)" d="M2117 345.735 Q2115.2 350.364 2113.48 351.776 Q2111.77 353.188 2108.9 353.188 L2105.5 353.188 L2105.5 349.624 L2108 349.624 Q2109.76 349.624 2110.73 348.79 Q2111.7 347.957 2112.88 344.855 L2113.65 342.911 L2103.16 317.402 L2107.67 317.402 L2115.77 337.679 L2123.88 317.402 L2128.39 317.402 L2117 345.735 Z" fill="#000000" fill-rule="evenodd" fill-opacity="1" /><path clip-path="url(#clip840)" d="M2165.87 318.165 L2165.87 322.193 Q2164.06 321.267 2162.12 320.804 Q2160.17 320.341 2158.09 320.341 Q2154.92 320.341 2153.32 321.314 Q2151.75 322.286 2151.75 324.23 Q2151.75 325.712 2152.88 326.568 Q2154.02 327.402 2157.44 328.165 L2158.9 328.489 Q2163.44 329.462 2165.33 331.244 Q2167.26 333.003 2167.26 336.175 Q2167.26 339.786 2164.39 341.892 Q2161.54 343.999 2156.54 343.999 Q2154.46 343.999 2152.19 343.582 Q2149.94 343.188 2147.44 342.378 L2147.44 337.98 Q2149.8 339.207 2152.09 339.832 Q2154.39 340.434 2156.63 340.434 Q2159.64 340.434 2161.26 339.415 Q2162.88 338.374 2162.88 336.499 Q2162.88 334.763 2161.7 333.837 Q2160.54 332.911 2156.58 332.054 L2155.1 331.707 Q2151.15 330.874 2149.39 329.161 Q2147.63 327.425 2147.63 324.415 Q2147.63 320.758 2150.22 318.767 Q2152.81 316.777 2157.58 316.777 Q2159.94 316.777 2162.02 317.124 Q2164.11 317.471 2165.87 318.165 Z" fill="#000000" fill-rule="evenodd" fill-opacity="1" /><path clip-path="url(#clip840)" d="M2184.08 320.388 Q2180.66 320.388 2178.67 323.073 Q2176.68 325.735 2176.68 330.388 Q2176.68 335.04 2178.64 337.726 Q2180.64 340.388 2184.08 340.388 Q2187.49 340.388 2189.48 337.702 Q2191.47 335.017 2191.47 330.388 Q2191.47 325.781 2189.48 323.096 Q2187.49 320.388 2184.08 320.388 M2184.08 316.777 Q2189.64 316.777 2192.81 320.388 Q2195.98 323.999 2195.98 330.388 Q2195.98 336.753 2192.81 340.388 Q2189.64 343.999 2184.08 343.999 Q2178.51 343.999 2175.33 340.388 Q2172.19 336.753 2172.19 330.388 Q2172.19 323.999 2175.33 320.388 Q2178.51 316.777 2184.08 316.777 Z" fill="#000000" fill-rule="evenodd" fill-opacity="1" /><path clip-path="url(#clip840)" d="M2203.04 307.309 L2207.3 307.309 L2207.3 343.327 L2203.04 343.327 L2203.04 307.309 Z" fill="#000000" fill-rule="evenodd" fill-opacity="1" /><path clip-path="url(#clip840)" d="M2213.16 317.402 L2217.67 317.402 L2225.77 339.161 L2233.88 317.402 L2238.39 317.402 L2228.67 343.327 L2222.88 343.327 L2213.16 317.402 Z" fill="#000000" fill-rule="evenodd" fill-opacity="1" /><path clip-path="url(#clip840)" d="M2266.45 329.3 L2266.45 331.383 L2246.86 331.383 Q2247.14 335.781 2249.5 338.096 Q2251.89 340.388 2256.12 340.388 Q2258.58 340.388 2260.87 339.786 Q2263.18 339.184 2265.45 337.98 L2265.45 342.008 Q2263.16 342.98 2260.75 343.489 Q2258.34 343.999 2255.87 343.999 Q2249.66 343.999 2246.03 340.388 Q2242.42 336.776 2242.42 330.619 Q2242.42 324.253 2245.84 320.527 Q2249.29 316.777 2255.13 316.777 Q2260.36 316.777 2263.39 320.156 Q2266.45 323.513 2266.45 329.3 M2262.19 328.05 Q2262.14 324.554 2260.22 322.471 Q2258.32 320.388 2255.17 320.388 Q2251.61 320.388 2249.45 322.402 Q2247.33 324.415 2247 328.073 L2262.19 328.05 Z" fill="#000000" fill-rule="evenodd" fill-opacity="1" /><path clip-path="url(#clip840)" d="M2288.46 321.383 Q2287.74 320.966 2286.89 320.781 Q2286.05 320.573 2285.03 320.573 Q2281.42 320.573 2279.48 322.934 Q2277.56 325.272 2277.56 329.67 L2277.56 343.327 L2273.27 343.327 L2273.27 317.402 L2277.56 317.402 L2277.56 321.429 Q2278.9 319.068 2281.05 317.934 Q2283.2 316.777 2286.28 316.777 Q2286.72 316.777 2287.26 316.846 Q2287.79 316.892 2288.44 317.008 L2288.46 321.383 Z" fill="#000000" fill-rule="evenodd" fill-opacity="1" /><polyline clip-path="url(#clip840)" style="stroke:#0000ff; stroke-linecap:butt; stroke-linejoin:round; stroke-width:4; stroke-opacity:1; fill:none" points="
  1889.03,377.887 2035.47,377.887 
  "/>
<path clip-path="url(#clip840)" d="M2067.28 361.881 L2067.28 369.242 L2076.05 369.242 L2076.05 372.552 L2067.28 372.552 L2067.28 386.626 Q2067.28 389.797 2068.14 390.7 Q2069.02 391.603 2071.68 391.603 L2076.05 391.603 L2076.05 395.167 L2071.68 395.167 Q2066.75 395.167 2064.87 393.339 Q2063 391.487 2063 386.626 L2063 372.552 L2059.87 372.552 L2059.87 369.242 L2063 369.242 L2063 361.881 L2067.28 361.881 Z" fill="#000000" fill-rule="evenodd" fill-opacity="1" /><path clip-path="url(#clip840)" d="M2096.68 373.223 Q2095.96 372.806 2095.1 372.621 Q2094.27 372.413 2093.25 372.413 Q2089.64 372.413 2087.7 374.774 Q2085.78 377.112 2085.78 381.51 L2085.78 395.167 L2081.49 395.167 L2081.49 369.242 L2085.78 369.242 L2085.78 373.269 Q2087.12 370.908 2089.27 369.774 Q2091.42 368.617 2094.5 368.617 Q2094.94 368.617 2095.47 368.686 Q2096.01 368.732 2096.65 368.848 L2096.68 373.223 Z" fill="#000000" fill-rule="evenodd" fill-opacity="1" /><path clip-path="url(#clip840)" d="M2100.71 384.936 L2100.71 369.242 L2104.96 369.242 L2104.96 384.774 Q2104.96 388.454 2106.4 390.306 Q2107.84 392.135 2110.71 392.135 Q2114.15 392.135 2116.15 389.936 Q2118.16 387.737 2118.16 383.941 L2118.16 369.242 L2122.42 369.242 L2122.42 395.167 L2118.16 395.167 L2118.16 391.186 Q2116.61 393.547 2114.55 394.704 Q2112.51 395.839 2109.8 395.839 Q2105.34 395.839 2103.02 393.061 Q2100.71 390.283 2100.71 384.936 M2111.42 368.617 L2111.42 368.617 Z" fill="#000000" fill-rule="evenodd" fill-opacity="1" /><path clip-path="url(#clip840)" d="M2153.37 381.14 L2153.37 383.223 L2133.78 383.223 Q2134.06 387.621 2136.42 389.936 Q2138.81 392.228 2143.04 392.228 Q2145.5 392.228 2147.79 391.626 Q2150.1 391.024 2152.37 389.82 L2152.37 393.848 Q2150.08 394.82 2147.67 395.329 Q2145.27 395.839 2142.79 395.839 Q2136.58 395.839 2132.95 392.228 Q2129.34 388.616 2129.34 382.459 Q2129.34 376.093 2132.77 372.367 Q2136.21 368.617 2142.05 368.617 Q2147.28 368.617 2150.31 371.996 Q2153.37 375.353 2153.37 381.14 M2149.11 379.89 Q2149.06 376.394 2147.14 374.311 Q2145.24 372.228 2142.09 372.228 Q2138.53 372.228 2136.38 374.242 Q2134.25 376.255 2133.92 379.913 L2149.11 379.89 Z" fill="#000000" fill-rule="evenodd" fill-opacity="1" /><path clip-path="url(#clip840)" d="M2190.45 373.223 Q2189.73 372.806 2188.88 372.621 Q2188.04 372.413 2187.02 372.413 Q2183.41 372.413 2181.47 374.774 Q2179.55 377.112 2179.55 381.51 L2179.55 395.167 L2175.27 395.167 L2175.27 369.242 L2179.55 369.242 L2179.55 373.269 Q2180.89 370.908 2183.04 369.774 Q2185.2 368.617 2188.27 368.617 Q2188.71 368.617 2189.25 368.686 Q2189.78 368.732 2190.43 368.848 L2190.45 373.223 Z" fill="#000000" fill-rule="evenodd" fill-opacity="1" /><path clip-path="url(#clip840)" d="M2216.05 381.14 L2216.05 383.223 L2196.47 383.223 Q2196.75 387.621 2199.11 389.936 Q2201.49 392.228 2205.73 392.228 Q2208.18 392.228 2210.47 391.626 Q2212.79 391.024 2215.06 389.82 L2215.06 393.848 Q2212.77 394.82 2210.36 395.329 Q2207.95 395.839 2205.47 395.839 Q2199.27 395.839 2195.64 392.228 Q2192.02 388.616 2192.02 382.459 Q2192.02 376.093 2195.45 372.367 Q2198.9 368.617 2204.73 368.617 Q2209.96 368.617 2213 371.996 Q2216.05 375.353 2216.05 381.14 M2211.79 379.89 Q2211.75 376.394 2209.83 374.311 Q2207.93 372.228 2204.78 372.228 Q2201.21 372.228 2199.06 374.242 Q2196.93 376.255 2196.61 379.913 L2211.79 379.89 Z" fill="#000000" fill-rule="evenodd" fill-opacity="1" /><path clip-path="url(#clip840)" d="M2239.57 370.005 L2239.57 374.033 Q2237.76 373.107 2235.82 372.644 Q2233.88 372.181 2231.79 372.181 Q2228.62 372.181 2227.02 373.154 Q2225.45 374.126 2225.45 376.07 Q2225.45 377.552 2226.58 378.408 Q2227.72 379.242 2231.14 380.005 L2232.6 380.329 Q2237.14 381.302 2239.04 383.084 Q2240.96 384.843 2240.96 388.015 Q2240.96 391.626 2238.09 393.732 Q2235.24 395.839 2230.24 395.839 Q2228.16 395.839 2225.89 395.422 Q2223.64 395.028 2221.14 394.218 L2221.14 389.82 Q2223.51 391.047 2225.8 391.672 Q2228.09 392.274 2230.33 392.274 Q2233.34 392.274 2234.96 391.255 Q2236.58 390.214 2236.58 388.339 Q2236.58 386.603 2235.4 385.677 Q2234.25 384.751 2230.29 383.894 L2228.81 383.547 Q2224.85 382.714 2223.09 381.001 Q2221.33 379.265 2221.33 376.255 Q2221.33 372.598 2223.92 370.607 Q2226.52 368.617 2231.28 368.617 Q2233.64 368.617 2235.73 368.964 Q2237.81 369.311 2239.57 370.005 Z" fill="#000000" fill-rule="evenodd" fill-opacity="1" /><path clip-path="url(#clip840)" d="M2247.3 384.936 L2247.3 369.242 L2251.56 369.242 L2251.56 384.774 Q2251.56 388.454 2253 390.306 Q2254.43 392.135 2257.3 392.135 Q2260.75 392.135 2262.74 389.936 Q2264.76 387.737 2264.76 383.941 L2264.76 369.242 L2269.01 369.242 L2269.01 395.167 L2264.76 395.167 L2264.76 391.186 Q2263.2 393.547 2261.14 394.704 Q2259.11 395.839 2256.4 395.839 Q2251.93 395.839 2249.62 393.061 Q2247.3 390.283 2247.3 384.936 M2258.02 368.617 L2258.02 368.617 Z" fill="#000000" fill-rule="evenodd" fill-opacity="1" /><path clip-path="url(#clip840)" d="M2277.79 359.149 L2282.05 359.149 L2282.05 395.167 L2277.79 395.167 L2277.79 359.149 Z" fill="#000000" fill-rule="evenodd" fill-opacity="1" /><path clip-path="url(#clip840)" d="M2295.17 361.881 L2295.17 369.242 L2303.95 369.242 L2303.95 372.552 L2295.17 372.552 L2295.17 386.626 Q2295.17 389.797 2296.03 390.7 Q2296.91 391.603 2299.57 391.603 L2303.95 391.603 L2303.95 395.167 L2299.57 395.167 Q2294.64 395.167 2292.76 393.339 Q2290.89 391.487 2290.89 386.626 L2290.89 372.552 L2287.76 372.552 L2287.76 369.242 L2290.89 369.242 L2290.89 361.881 L2295.17 361.881 Z" fill="#000000" fill-rule="evenodd" fill-opacity="1" /><path clip-path="url(#clip840)" d="M1643.13 828.225 Q1643.13 828.799 1642.76 830.152 L1634.73 862.205 Q1632.97 869.337 1627.23 874.338 Q1621.53 879.339 1615.05 879.339 Q1611.16 879.339 1608.66 877.248 Q1606.16 875.199 1606.16 872.043 Q1606.16 869.255 1607.63 867.903 Q1609.11 866.591 1610.87 866.591 Q1611.45 866.591 1612.06 866.755 Q1612.68 866.919 1613.33 867.616 Q1613.99 868.313 1613.99 869.501 Q1613.99 871.428 1612.31 872.944 Q1611.49 873.641 1610.71 873.805 Q1609.97 873.969 1608.7 873.969 Q1609.19 875.117 1610.09 875.896 Q1611 876.674 1612.02 876.961 Q1613.05 877.289 1613.7 877.371 Q1614.4 877.494 1615.05 877.494 Q1620.3 877.494 1624.32 872.207 Q1625.51 870.608 1626.37 869.009 Q1627.27 867.452 1627.92 865.525 Q1628.58 863.64 1628.87 862.615 Q1629.2 861.59 1629.77 859.254 Q1625.96 863.066 1621.28 863.066 Q1619.32 863.066 1617.55 862.533 Q1615.83 862 1614.32 860.894 Q1612.8 859.746 1611.9 857.737 Q1611.04 855.729 1611.04 853.065 Q1611.04 850.236 1612.14 846.383 Q1613.25 842.53 1615.91 835.439 Q1617.35 831.463 1617.35 829.537 Q1617.35 828.594 1617.14 828.02 Q1616.94 827.405 1616.53 827.2 Q1616.12 826.954 1615.87 826.913 Q1615.67 826.872 1615.26 826.872 Q1612.84 826.872 1610.59 829.332 Q1608.33 831.791 1606.77 837.284 Q1606.45 838.308 1606.24 838.554 Q1606.04 838.8 1605.42 838.8 Q1604.4 838.759 1604.4 837.94 Q1604.4 837.612 1604.77 836.341 Q1605.13 835.029 1606 833.103 Q1606.9 831.135 1608.13 829.373 Q1609.36 827.569 1611.28 826.299 Q1613.25 825.028 1615.5 825.028 Q1618.58 825.028 1620.46 827.036 Q1622.39 829.004 1622.39 831.914 Q1622.39 833.103 1622.06 834.168 Q1621.78 835.193 1620.71 837.94 Q1616.41 849.007 1616.41 854.417 Q1616.41 855.729 1616.61 856.836 Q1616.86 857.901 1617.39 858.967 Q1617.92 859.992 1618.99 860.607 Q1620.1 861.18 1621.61 861.18 Q1623.54 861.18 1625.34 860.279 Q1627.19 859.336 1628.33 858.065 Q1629.52 856.795 1630.22 855.729 Q1630.96 854.622 1631.12 854.048 L1634.89 838.964 L1636.57 832.242 Q1637.35 828.594 1637.72 827.692 Q1638.21 826.831 1639.07 826.381 Q1639.93 825.93 1640.67 825.93 Q1641.7 825.93 1642.39 826.544 Q1643.13 827.159 1643.13 828.225 Z" fill="#000000" fill-rule="evenodd" fill-opacity="1" /><path clip-path="url(#clip840)" d="M1668.4 849.376 Q1668.49 848.351 1670.09 848.351 L1721.53 848.351 Q1723.95 848.351 1723.99 849.294 Q1723.99 850.318 1721.69 850.277 L1670.66 850.277 Q1668.4 850.318 1668.4 849.376 M1668.4 832.98 Q1668.4 831.955 1670.17 831.996 L1721.44 831.996 Q1723.95 831.996 1723.99 832.98 Q1723.99 833.923 1721.85 833.923 L1670.09 833.923 Q1668.4 833.923 1668.4 832.98 Z" fill="#000000" fill-rule="evenodd" fill-opacity="1" /><path clip-path="url(#clip840)" d="M1853.28 773.265 L1853.28 770.642 Q1863.37 770.642 1868.57 765.273 Q1870.01 765.273 1870.25 765.6 Q1870.5 765.928 1870.5 767.445 L1870.5 814.542 Q1870.5 817.042 1871.73 817.821 Q1872.96 818.6 1878.33 818.6 L1880.99 818.6 L1880.99 821.182 Q1878.04 820.936 1867.39 820.936 Q1856.73 820.936 1853.82 821.182 L1853.82 818.6 L1856.48 818.6 Q1861.77 818.6 1863.04 817.862 Q1864.31 817.083 1864.31 814.542 L1864.31 771.052 Q1859.93 773.265 1853.28 773.265 Z" fill="#000000" fill-rule="evenodd" fill-opacity="1" /><path clip-path="url(#clip840)" d="
M1774.28 843.582 L1969.47 843.582 L1969.47 839.102 L1774.28 839.102  Z
  " fill="#000000" fill-rule="evenodd" fill-opacity="1"/>
<path clip-path="url(#clip840)" d="M1816.09 885.315 Q1816.09 887.611 1814.66 888.922 Q1813.22 890.193 1811.58 890.193 Q1810.03 890.193 1809.21 889.291 Q1808.39 888.389 1808.39 887.242 Q1808.39 885.684 1809.54 884.331 Q1810.68 882.979 1812.4 882.692 Q1810.72 881.626 1808.22 881.626 Q1806.58 881.626 1805.15 882.487 Q1803.76 883.348 1802.9 884.454 Q1802.08 885.561 1801.34 887.16 Q1800.64 888.717 1800.35 889.66 Q1800.11 890.562 1799.9 891.546 L1797.03 903.023 Q1795.64 908.474 1795.64 910.401 Q1795.64 912.778 1796.79 914.377 Q1797.94 915.934 1800.23 915.934 Q1801.13 915.934 1802.16 915.688 Q1803.18 915.401 1804.49 914.664 Q1805.85 913.885 1807.04 912.737 Q1808.26 911.548 1809.45 909.54 Q1810.64 907.531 1811.42 904.949 Q1811.67 904.047 1812.49 904.047 Q1813.51 904.047 1813.51 904.867 Q1813.51 905.564 1812.94 907.04 Q1812.4 908.474 1811.22 910.36 Q1810.07 912.204 1808.55 913.885 Q1807.04 915.524 1804.78 916.672 Q1802.53 917.82 1800.07 917.82 Q1796.54 917.82 1794.21 915.934 Q1791.87 914.049 1791.01 911.425 Q1790.8 911.794 1790.52 912.286 Q1790.23 912.778 1789.37 913.885 Q1788.55 914.95 1787.61 915.77 Q1786.66 916.549 1785.19 917.164 Q1783.75 917.82 1782.2 917.82 Q1780.23 917.82 1778.47 917.246 Q1776.74 916.672 1775.51 915.36 Q1774.28 914.049 1774.28 912.245 Q1774.28 910.237 1775.64 908.843 Q1777.03 907.408 1778.92 907.408 Q1780.11 907.408 1781.05 908.105 Q1782.03 908.802 1782.03 910.319 Q1782.03 911.999 1780.88 913.27 Q1779.74 914.541 1778.1 914.868 Q1779.78 915.934 1782.28 915.934 Q1784.98 915.934 1787.11 913.557 Q1789.25 911.179 1790.27 907.203 Q1792.81 897.653 1793.8 893.39 Q1794.78 889.086 1794.78 887.242 Q1794.78 885.52 1794.33 884.331 Q1793.88 883.143 1793.1 882.61 Q1792.36 882.036 1791.66 881.831 Q1791.01 881.626 1790.27 881.626 Q1789.04 881.626 1787.65 882.118 Q1786.29 882.61 1784.66 883.758 Q1783.06 884.864 1781.54 887.16 Q1780.02 889.455 1779 892.611 Q1778.79 893.554 1777.89 893.554 Q1776.91 893.513 1776.91 892.693 Q1776.91 891.996 1777.44 890.562 Q1778.01 889.086 1779.16 887.242 Q1780.35 885.397 1781.87 883.758 Q1783.43 882.077 1785.68 880.929 Q1787.98 879.782 1790.43 879.782 Q1791.54 879.782 1792.61 880.028 Q1793.71 880.233 1795.03 880.847 Q1796.38 881.462 1797.57 882.815 Q1798.76 884.167 1799.49 886.135 Q1799.99 885.192 1800.64 884.29 Q1801.34 883.389 1802.4 882.282 Q1803.51 881.134 1805.03 880.478 Q1806.58 879.782 1808.31 879.782 Q1809.99 879.782 1811.63 880.233 Q1813.27 880.642 1814.66 881.995 Q1816.09 883.307 1816.09 885.315 Z" fill="#000000" fill-rule="evenodd" fill-opacity="1" /><path clip-path="url(#clip840)" d="M1847.04 896.915 Q1845.11 896.915 1845.11 895.89 Q1845.11 894.866 1847.12 894.866 Q1847.37 894.866 1847.78 894.907 Q1848.23 894.948 1848.31 894.948 L1871.96 894.948 L1871.96 871.215 Q1871.96 871.133 1871.92 870.764 Q1871.88 870.354 1871.88 870.108 Q1871.88 868.1 1872.86 868.1 Q1873.89 868.1 1873.89 870.108 L1873.89 894.948 L1897.58 894.948 Q1897.66 894.948 1898.07 894.907 Q1898.48 894.866 1898.73 894.866 Q1900.65 894.866 1900.65 895.89 Q1900.69 896.915 1898.65 896.915 Q1898.4 896.915 1898.03 896.874 Q1897.66 896.833 1897.58 896.833 L1873.89 896.833 L1873.89 921.755 Q1873.89 923.681 1872.86 923.681 Q1871.88 923.681 1871.88 921.673 Q1871.88 921.427 1871.92 921.017 Q1871.96 920.648 1871.96 920.566 L1871.96 896.833 L1848.31 896.833 Q1848.23 896.833 1847.74 896.874 Q1847.29 896.915 1847.04 896.915 Z" fill="#000000" fill-rule="evenodd" fill-opacity="1" /><path clip-path="url(#clip840)" d="M1933.07 868.96 L1933.07 866.337 Q1943.16 866.337 1948.36 860.968 Q1949.8 860.968 1950.04 861.295 Q1950.29 861.623 1950.29 863.14 L1950.29 910.237 Q1950.29 912.737 1951.52 913.516 Q1952.75 914.295 1958.12 914.295 L1960.78 914.295 L1960.78 916.877 Q1957.83 916.631 1947.17 916.631 Q1936.52 916.631 1933.61 916.877 L1933.61 914.295 L1936.27 914.295 Q1941.56 914.295 1942.83 913.557 Q1944.1 912.778 1944.1 910.237 L1944.1 866.747 Q1939.71 868.96 1933.07 868.96 Z" fill="#000000" fill-rule="evenodd" fill-opacity="1" /></svg>
