<?xml version="1.0" encoding="utf-8"?>
<svg xmlns="http://www.w3.org/2000/svg" xmlns:xlink="http://www.w3.org/1999/xlink" width="600" height="400" viewBox="0 0 2400 1600">
<defs>
  <clipPath id="clip290">
    <rect x="0" y="0" width="2400" height="1600"/>
  </clipPath>
</defs>
<path clip-path="url(#clip290)" d="
M0 1600 L2400 1600 L2400 0 L0 0  Z
  " fill="#ffffff" fill-rule="evenodd" fill-opacity="1"/>
<defs>
  <clipPath id="clip291">
    <rect x="480" y="0" width="1681" height="1600"/>
  </clipPath>
</defs>
<path clip-path="url(#clip290)" d="
M156.598 1486.45 L1824.91 1486.45 L1824.91 47.2441 L156.598 47.2441  Z
  " fill="#ffffff" fill-rule="evenodd" fill-opacity="1"/>
<defs>
  <clipPath id="clip292">
    <rect x="156" y="47" width="1669" height="1440"/>
  </clipPath>
</defs>
<polyline clip-path="url(#clip292)" style="stroke:#000000; stroke-linecap:butt; stroke-linejoin:round; stroke-width:2; stroke-opacity:0.1; fill:none" points="
  201.845,1486.45 201.845,47.2441 
  "/>
<polyline clip-path="url(#clip292)" style="stroke:#000000; stroke-linecap:butt; stroke-linejoin:round; stroke-width:2; stroke-opacity:0.1; fill:none" points="
  595.807,1486.45 595.807,47.2441 
  "/>
<polyline clip-path="url(#clip292)" style="stroke:#000000; stroke-linecap:butt; stroke-linejoin:round; stroke-width:2; stroke-opacity:0.1; fill:none" points="
  989.769,1486.45 989.769,47.2441 
  "/>
<polyline clip-path="url(#clip292)" style="stroke:#000000; stroke-linecap:butt; stroke-linejoin:round; stroke-width:2; stroke-opacity:0.1; fill:none" points="
  1383.73,1486.45 1383.73,47.2441 
  "/>
<polyline clip-path="url(#clip292)" style="stroke:#000000; stroke-linecap:butt; stroke-linejoin:round; stroke-width:2; stroke-opacity:0.1; fill:none" points="
  1777.69,1486.45 1777.69,47.2441 
  "/>
<polyline clip-path="url(#clip290)" style="stroke:#000000; stroke-linecap:butt; stroke-linejoin:round; stroke-width:4; stroke-opacity:1; fill:none" points="
  156.598,1486.45 1824.91,1486.45 
  "/>
<polyline clip-path="url(#clip290)" style="stroke:#000000; stroke-linecap:butt; stroke-linejoin:round; stroke-width:4; stroke-opacity:1; fill:none" points="
  201.845,1486.45 201.845,1467.55 
  "/>
<polyline clip-path="url(#clip290)" style="stroke:#000000; stroke-linecap:butt; stroke-linejoin:round; stroke-width:4; stroke-opacity:1; fill:none" points="
  595.807,1486.45 595.807,1467.55 
  "/>
<polyline clip-path="url(#clip290)" style="stroke:#000000; stroke-linecap:butt; stroke-linejoin:round; stroke-width:4; stroke-opacity:1; fill:none" points="
  989.769,1486.45 989.769,1467.55 
  "/>
<polyline clip-path="url(#clip290)" style="stroke:#000000; stroke-linecap:butt; stroke-linejoin:round; stroke-width:4; stroke-opacity:1; fill:none" points="
  1383.73,1486.45 1383.73,1467.55 
  "/>
<polyline clip-path="url(#clip290)" style="stroke:#000000; stroke-linecap:butt; stroke-linejoin:round; stroke-width:4; stroke-opacity:1; fill:none" points="
  1777.69,1486.45 1777.69,1467.55 
  "/>
<path clip-path="url(#clip290)" d="M201.845 1517.37 Q198.234 1517.37 196.405 1520.93 Q194.599 1524.47 194.599 1531.6 Q194.599 1538.71 196.405 1542.27 Q198.234 1545.82 201.845 1545.82 Q205.479 1545.82 207.285 1542.27 Q209.113 1538.71 209.113 1531.6 Q209.113 1524.47 207.285 1520.93 Q205.479 1517.37 201.845 1517.37 M201.845 1513.66 Q207.655 1513.66 210.71 1518.27 Q213.789 1522.85 213.789 1531.6 Q213.789 1540.33 210.71 1544.94 Q207.655 1549.52 201.845 1549.52 Q196.035 1549.52 192.956 1544.94 Q189.9 1540.33 189.9 1531.6 Q189.9 1522.85 192.956 1518.27 Q196.035 1513.66 201.845 1513.66 Z" fill="#000000" fill-rule="evenodd" fill-opacity="1" /><path clip-path="url(#clip290)" d="M559.499 1544.91 L575.818 1544.91 L575.818 1548.85 L553.874 1548.85 L553.874 1544.91 Q556.536 1542.16 561.119 1537.53 Q565.726 1532.88 566.906 1531.53 Q569.152 1529.01 570.031 1527.27 Q570.934 1525.51 570.934 1523.82 Q570.934 1521.07 568.99 1519.33 Q567.069 1517.6 563.967 1517.6 Q561.768 1517.6 559.314 1518.36 Q556.883 1519.13 554.106 1520.68 L554.106 1515.95 Q556.93 1514.82 559.383 1514.24 Q561.837 1513.66 563.874 1513.66 Q569.244 1513.66 572.439 1516.35 Q575.633 1519.03 575.633 1523.52 Q575.633 1525.65 574.823 1527.57 Q574.036 1529.47 571.93 1532.07 Q571.351 1532.74 568.249 1535.95 Q565.147 1539.15 559.499 1544.91 Z" fill="#000000" fill-rule="evenodd" fill-opacity="1" /><path clip-path="url(#clip290)" d="M595.633 1517.37 Q592.022 1517.37 590.193 1520.93 Q588.388 1524.47 588.388 1531.6 Q588.388 1538.71 590.193 1542.27 Q592.022 1545.82 595.633 1545.82 Q599.267 1545.82 601.073 1542.27 Q602.902 1538.71 602.902 1531.6 Q602.902 1524.47 601.073 1520.93 Q599.267 1517.37 595.633 1517.37 M595.633 1513.66 Q601.443 1513.66 604.499 1518.27 Q607.578 1522.85 607.578 1531.6 Q607.578 1540.33 604.499 1544.94 Q601.443 1549.52 595.633 1549.52 Q589.823 1549.52 586.744 1544.94 Q583.689 1540.33 583.689 1531.6 Q583.689 1522.85 586.744 1518.27 Q589.823 1513.66 595.633 1513.66 Z" fill="#000000" fill-rule="evenodd" fill-opacity="1" /><path clip-path="url(#clip290)" d="M625.795 1517.37 Q622.184 1517.37 620.355 1520.93 Q618.55 1524.47 618.55 1531.6 Q618.55 1538.71 620.355 1542.27 Q622.184 1545.82 625.795 1545.82 Q629.429 1545.82 631.235 1542.27 Q633.064 1538.71 633.064 1531.6 Q633.064 1524.47 631.235 1520.93 Q629.429 1517.37 625.795 1517.37 M625.795 1513.66 Q631.605 1513.66 634.661 1518.27 Q637.739 1522.85 637.739 1531.6 Q637.739 1540.33 634.661 1544.94 Q631.605 1549.52 625.795 1549.52 Q619.985 1549.52 616.906 1544.94 Q613.851 1540.33 613.851 1531.6 Q613.851 1522.85 616.906 1518.27 Q619.985 1513.66 625.795 1513.66 Z" fill="#000000" fill-rule="evenodd" fill-opacity="1" /><path clip-path="url(#clip290)" d="M962.859 1518.36 L951.054 1536.81 L962.859 1536.81 L962.859 1518.36 M961.632 1514.29 L967.512 1514.29 L967.512 1536.81 L972.443 1536.81 L972.443 1540.7 L967.512 1540.7 L967.512 1548.85 L962.859 1548.85 L962.859 1540.7 L947.257 1540.7 L947.257 1536.19 L961.632 1514.29 Z" fill="#000000" fill-rule="evenodd" fill-opacity="1" /><path clip-path="url(#clip290)" d="M990.174 1517.37 Q986.563 1517.37 984.734 1520.93 Q982.929 1524.47 982.929 1531.6 Q982.929 1538.71 984.734 1542.27 Q986.563 1545.82 990.174 1545.82 Q993.808 1545.82 995.614 1542.27 Q997.442 1538.71 997.442 1531.6 Q997.442 1524.47 995.614 1520.93 Q993.808 1517.37 990.174 1517.37 M990.174 1513.66 Q995.984 1513.66 999.04 1518.27 Q1002.12 1522.85 1002.12 1531.6 Q1002.12 1540.33 999.04 1544.94 Q995.984 1549.52 990.174 1549.52 Q984.364 1549.52 981.285 1544.94 Q978.23 1540.33 978.23 1531.6 Q978.23 1522.85 981.285 1518.27 Q984.364 1513.66 990.174 1513.66 Z" fill="#000000" fill-rule="evenodd" fill-opacity="1" /><path clip-path="url(#clip290)" d="M1020.34 1517.37 Q1016.72 1517.37 1014.9 1520.93 Q1013.09 1524.47 1013.09 1531.6 Q1013.09 1538.71 1014.9 1542.27 Q1016.72 1545.82 1020.34 1545.82 Q1023.97 1545.82 1025.78 1542.27 Q1027.6 1538.71 1027.6 1531.6 Q1027.6 1524.47 1025.78 1520.93 Q1023.97 1517.37 1020.34 1517.37 M1020.34 1513.66 Q1026.15 1513.66 1029.2 1518.27 Q1032.28 1522.85 1032.28 1531.6 Q1032.28 1540.33 1029.2 1544.94 Q1026.15 1549.52 1020.34 1549.52 Q1014.53 1549.52 1011.45 1544.94 Q1008.39 1540.33 1008.39 1531.6 Q1008.39 1522.85 1011.45 1518.27 Q1014.53 1513.66 1020.34 1513.66 Z" fill="#000000" fill-rule="evenodd" fill-opacity="1" /><path clip-path="url(#clip290)" d="M1354.06 1529.7 Q1350.91 1529.7 1349.06 1531.86 Q1347.23 1534.01 1347.23 1537.76 Q1347.23 1541.49 1349.06 1543.66 Q1350.91 1545.82 1354.06 1545.82 Q1357.2 1545.82 1359.03 1543.66 Q1360.88 1541.49 1360.88 1537.76 Q1360.88 1534.01 1359.03 1531.86 Q1357.2 1529.7 1354.06 1529.7 M1363.34 1515.05 L1363.34 1519.31 Q1361.58 1518.48 1359.77 1518.04 Q1357.99 1517.6 1356.23 1517.6 Q1351.6 1517.6 1349.15 1520.72 Q1346.72 1523.85 1346.37 1530.17 Q1347.74 1528.15 1349.8 1527.09 Q1351.86 1526 1354.33 1526 Q1359.54 1526 1362.55 1529.17 Q1365.58 1532.32 1365.58 1537.76 Q1365.58 1543.08 1362.43 1546.3 Q1359.29 1549.52 1354.06 1549.52 Q1348.06 1549.52 1344.89 1544.94 Q1341.72 1540.33 1341.72 1531.6 Q1341.72 1523.41 1345.61 1518.55 Q1349.49 1513.66 1356.05 1513.66 Q1357.81 1513.66 1359.59 1514.01 Q1361.39 1514.36 1363.34 1515.05 Z" fill="#000000" fill-rule="evenodd" fill-opacity="1" /><path clip-path="url(#clip290)" d="M1383.64 1517.37 Q1380.03 1517.37 1378.2 1520.93 Q1376.39 1524.47 1376.39 1531.6 Q1376.39 1538.71 1378.2 1542.27 Q1380.03 1545.82 1383.64 1545.82 Q1387.27 1545.82 1389.08 1542.27 Q1390.91 1538.71 1390.91 1531.6 Q1390.91 1524.47 1389.08 1520.93 Q1387.27 1517.37 1383.64 1517.37 M1383.64 1513.66 Q1389.45 1513.66 1392.5 1518.27 Q1395.58 1522.85 1395.58 1531.6 Q1395.58 1540.33 1392.5 1544.94 Q1389.45 1549.52 1383.64 1549.52 Q1377.83 1549.52 1374.75 1544.94 Q1371.69 1540.33 1371.69 1531.6 Q1371.69 1522.85 1374.75 1518.27 Q1377.83 1513.66 1383.64 1513.66 Z" fill="#000000" fill-rule="evenodd" fill-opacity="1" /><path clip-path="url(#clip290)" d="M1413.8 1517.37 Q1410.19 1517.37 1408.36 1520.93 Q1406.55 1524.47 1406.55 1531.6 Q1406.55 1538.71 1408.36 1542.27 Q1410.19 1545.82 1413.8 1545.82 Q1417.43 1545.82 1419.24 1542.27 Q1421.07 1538.71 1421.07 1531.6 Q1421.07 1524.47 1419.24 1520.93 Q1417.43 1517.37 1413.8 1517.37 M1413.8 1513.66 Q1419.61 1513.66 1422.67 1518.27 Q1425.74 1522.85 1425.74 1531.6 Q1425.74 1540.33 1422.67 1544.94 Q1419.61 1549.52 1413.8 1549.52 Q1407.99 1549.52 1404.91 1544.94 Q1401.86 1540.33 1401.86 1531.6 Q1401.86 1522.85 1404.91 1518.27 Q1407.99 1513.66 1413.8 1513.66 Z" fill="#000000" fill-rule="evenodd" fill-opacity="1" /><path clip-path="url(#clip290)" d="M1747.48 1532.44 Q1744.15 1532.44 1742.23 1534.22 Q1740.33 1536 1740.33 1539.13 Q1740.33 1542.25 1742.23 1544.03 Q1744.15 1545.82 1747.48 1545.82 Q1750.82 1545.82 1752.74 1544.03 Q1754.66 1542.23 1754.66 1539.13 Q1754.66 1536 1752.74 1534.22 Q1750.84 1532.44 1747.48 1532.44 M1742.81 1530.45 Q1739.8 1529.7 1738.11 1527.64 Q1736.44 1525.58 1736.44 1522.62 Q1736.44 1518.48 1739.38 1516.07 Q1742.35 1513.66 1747.48 1513.66 Q1752.65 1513.66 1755.59 1516.07 Q1758.53 1518.48 1758.53 1522.62 Q1758.53 1525.58 1756.84 1527.64 Q1755.17 1529.7 1752.18 1530.45 Q1755.56 1531.23 1757.44 1533.52 Q1759.34 1535.82 1759.34 1539.13 Q1759.34 1544.15 1756.26 1546.83 Q1753.2 1549.52 1747.48 1549.52 Q1741.77 1549.52 1738.69 1546.83 Q1735.63 1544.15 1735.63 1539.13 Q1735.63 1535.82 1737.53 1533.52 Q1739.43 1531.23 1742.81 1530.45 M1741.1 1523.06 Q1741.1 1525.75 1742.76 1527.25 Q1744.45 1528.76 1747.48 1528.76 Q1750.49 1528.76 1752.18 1527.25 Q1753.9 1525.75 1753.9 1523.06 Q1753.9 1520.38 1752.18 1518.87 Q1750.49 1517.37 1747.48 1517.37 Q1744.45 1517.37 1742.76 1518.87 Q1741.1 1520.38 1741.1 1523.06 Z" fill="#000000" fill-rule="evenodd" fill-opacity="1" /><path clip-path="url(#clip290)" d="M1777.65 1517.37 Q1774.04 1517.37 1772.21 1520.93 Q1770.4 1524.47 1770.4 1531.6 Q1770.4 1538.71 1772.21 1542.27 Q1774.04 1545.82 1777.65 1545.82 Q1781.28 1545.82 1783.09 1542.27 Q1784.92 1538.71 1784.92 1531.6 Q1784.92 1524.47 1783.09 1520.93 Q1781.28 1517.37 1777.65 1517.37 M1777.65 1513.66 Q1783.46 1513.66 1786.51 1518.27 Q1789.59 1522.85 1789.59 1531.6 Q1789.59 1540.33 1786.51 1544.94 Q1783.46 1549.52 1777.65 1549.52 Q1771.84 1549.52 1768.76 1544.94 Q1765.7 1540.33 1765.7 1531.6 Q1765.7 1522.85 1768.76 1518.27 Q1771.84 1513.66 1777.65 1513.66 Z" fill="#000000" fill-rule="evenodd" fill-opacity="1" /><path clip-path="url(#clip290)" d="M1807.81 1517.37 Q1804.2 1517.37 1802.37 1520.93 Q1800.56 1524.47 1800.56 1531.6 Q1800.56 1538.71 1802.37 1542.27 Q1804.2 1545.82 1807.81 1545.82 Q1811.44 1545.82 1813.25 1542.27 Q1815.08 1538.71 1815.08 1531.6 Q1815.08 1524.47 1813.25 1520.93 Q1811.44 1517.37 1807.81 1517.37 M1807.81 1513.66 Q1813.62 1513.66 1816.67 1518.27 Q1819.75 1522.85 1819.75 1531.6 Q1819.75 1540.33 1816.67 1544.94 Q1813.62 1549.52 1807.81 1549.52 Q1802 1549.52 1798.92 1544.94 Q1795.86 1540.33 1795.86 1531.6 Q1795.86 1522.85 1798.92 1518.27 Q1802 1513.66 1807.81 1513.66 Z" fill="#000000" fill-rule="evenodd" fill-opacity="1" /><polyline clip-path="url(#clip292)" style="stroke:#000000; stroke-linecap:butt; stroke-linejoin:round; stroke-width:2; stroke-opacity:0.1; fill:none" points="
  156.598,1445.72 1824.91,1445.72 
  "/>
<polyline clip-path="url(#clip292)" style="stroke:#000000; stroke-linecap:butt; stroke-linejoin:round; stroke-width:2; stroke-opacity:0.1; fill:none" points="
  156.598,1234.9 1824.91,1234.9 
  "/>
<polyline clip-path="url(#clip292)" style="stroke:#000000; stroke-linecap:butt; stroke-linejoin:round; stroke-width:2; stroke-opacity:0.1; fill:none" points="
  156.598,1024.08 1824.91,1024.08 
  "/>
<polyline clip-path="url(#clip292)" style="stroke:#000000; stroke-linecap:butt; stroke-linejoin:round; stroke-width:2; stroke-opacity:0.1; fill:none" points="
  156.598,813.26 1824.91,813.26 
  "/>
<polyline clip-path="url(#clip292)" style="stroke:#000000; stroke-linecap:butt; stroke-linejoin:round; stroke-width:2; stroke-opacity:0.1; fill:none" points="
  156.598,602.438 1824.91,602.438 
  "/>
<polyline clip-path="url(#clip292)" style="stroke:#000000; stroke-linecap:butt; stroke-linejoin:round; stroke-width:2; stroke-opacity:0.1; fill:none" points="
  156.598,391.617 1824.91,391.617 
  "/>
<polyline clip-path="url(#clip292)" style="stroke:#000000; stroke-linecap:butt; stroke-linejoin:round; stroke-width:2; stroke-opacity:0.1; fill:none" points="
  156.598,180.795 1824.91,180.795 
  "/>
<polyline clip-path="url(#clip290)" style="stroke:#000000; stroke-linecap:butt; stroke-linejoin:round; stroke-width:4; stroke-opacity:1; fill:none" points="
  156.598,1486.45 156.598,47.2441 
  "/>
<polyline clip-path="url(#clip290)" style="stroke:#000000; stroke-linecap:butt; stroke-linejoin:round; stroke-width:4; stroke-opacity:1; fill:none" points="
  156.598,1445.72 170.954,1445.72 
  "/>
<polyline clip-path="url(#clip290)" style="stroke:#000000; stroke-linecap:butt; stroke-linejoin:round; stroke-width:4; stroke-opacity:1; fill:none" points="
  156.598,1234.9 170.954,1234.9 
  "/>
<polyline clip-path="url(#clip290)" style="stroke:#000000; stroke-linecap:butt; stroke-linejoin:round; stroke-width:4; stroke-opacity:1; fill:none" points="
  156.598,1024.08 170.954,1024.08 
  "/>
<polyline clip-path="url(#clip290)" style="stroke:#000000; stroke-linecap:butt; stroke-linejoin:round; stroke-width:4; stroke-opacity:1; fill:none" points="
  156.598,813.26 170.954,813.26 
  "/>
<polyline clip-path="url(#clip290)" style="stroke:#000000; stroke-linecap:butt; stroke-linejoin:round; stroke-width:4; stroke-opacity:1; fill:none" points="
  156.598,602.438 170.954,602.438 
  "/>
<polyline clip-path="url(#clip290)" style="stroke:#000000; stroke-linecap:butt; stroke-linejoin:round; stroke-width:4; stroke-opacity:1; fill:none" points="
  156.598,391.617 170.954,391.617 
  "/>
<polyline clip-path="url(#clip290)" style="stroke:#000000; stroke-linecap:butt; stroke-linejoin:round; stroke-width:4; stroke-opacity:1; fill:none" points="
  156.598,180.795 170.954,180.795 
  "/>
<path clip-path="url(#clip290)" d="M63.4226 1431.52 Q59.8115 1431.52 57.9828 1435.09 Q56.1773 1438.63 56.1773 1445.76 Q56.1773 1452.87 57.9828 1456.43 Q59.8115 1459.97 63.4226 1459.97 Q67.0569 1459.97 68.8624 1456.43 Q70.6911 1452.87 70.6911 1445.76 Q70.6911 1438.63 68.8624 1435.09 Q67.0569 1431.52 63.4226 1431.52 M63.4226 1427.82 Q69.2328 1427.82 72.2883 1432.43 Q75.367 1437.01 75.367 1445.76 Q75.367 1454.49 72.2883 1459.09 Q69.2328 1463.68 63.4226 1463.68 Q57.6125 1463.68 54.5338 1459.09 Q51.4782 1454.49 51.4782 1445.76 Q51.4782 1437.01 54.5338 1432.43 Q57.6125 1427.82 63.4226 1427.82 Z" fill="#000000" fill-rule="evenodd" fill-opacity="1" /><path clip-path="url(#clip290)" d="M83.5845 1457.13 L88.4688 1457.13 L88.4688 1463 L83.5845 1463 L83.5845 1457.13 Z" fill="#000000" fill-rule="evenodd" fill-opacity="1" /><path clip-path="url(#clip290)" d="M108.654 1431.52 Q105.043 1431.52 103.214 1435.09 Q101.409 1438.63 101.409 1445.76 Q101.409 1452.87 103.214 1456.43 Q105.043 1459.97 108.654 1459.97 Q112.288 1459.97 114.094 1456.43 Q115.922 1452.87 115.922 1445.76 Q115.922 1438.63 114.094 1435.09 Q112.288 1431.52 108.654 1431.52 M108.654 1427.82 Q114.464 1427.82 117.52 1432.43 Q120.598 1437.01 120.598 1445.76 Q120.598 1454.49 117.52 1459.09 Q114.464 1463.68 108.654 1463.68 Q102.844 1463.68 99.765 1459.09 Q96.7095 1454.49 96.7095 1445.76 Q96.7095 1437.01 99.765 1432.43 Q102.844 1427.82 108.654 1427.82 Z" fill="#000000" fill-rule="evenodd" fill-opacity="1" /><path clip-path="url(#clip290)" d="M64.6495 1220.7 Q61.0384 1220.7 59.2097 1224.27 Q57.4041 1227.81 57.4041 1234.94 Q57.4041 1242.04 59.2097 1245.61 Q61.0384 1249.15 64.6495 1249.15 Q68.2837 1249.15 70.0892 1245.61 Q71.9179 1242.04 71.9179 1234.94 Q71.9179 1227.81 70.0892 1224.27 Q68.2837 1220.7 64.6495 1220.7 M64.6495 1217 Q70.4596 1217 73.5152 1221.6 Q76.5938 1226.19 76.5938 1234.94 Q76.5938 1243.66 73.5152 1248.27 Q70.4596 1252.85 64.6495 1252.85 Q58.8393 1252.85 55.7606 1248.27 Q52.7051 1243.66 52.7051 1234.94 Q52.7051 1226.19 55.7606 1221.6 Q58.8393 1217 64.6495 1217 Z" fill="#000000" fill-rule="evenodd" fill-opacity="1" /><path clip-path="url(#clip290)" d="M84.8114 1246.3 L89.6956 1246.3 L89.6956 1252.18 L84.8114 1252.18 L84.8114 1246.3 Z" fill="#000000" fill-rule="evenodd" fill-opacity="1" /><path clip-path="url(#clip290)" d="M100.691 1248.25 L108.33 1248.25 L108.33 1221.88 L100.02 1223.55 L100.02 1219.29 L108.283 1217.62 L112.959 1217.62 L112.959 1248.25 L120.598 1248.25 L120.598 1252.18 L100.691 1252.18 L100.691 1248.25 Z" fill="#000000" fill-rule="evenodd" fill-opacity="1" /><path clip-path="url(#clip290)" d="M65.0198 1009.88 Q61.4087 1009.88 59.58 1013.45 Q57.7745 1016.99 57.7745 1024.12 Q57.7745 1031.22 59.58 1034.79 Q61.4087 1038.33 65.0198 1038.33 Q68.6541 1038.33 70.4596 1034.79 Q72.2883 1031.22 72.2883 1024.12 Q72.2883 1016.99 70.4596 1013.45 Q68.6541 1009.88 65.0198 1009.88 M65.0198 1006.18 Q70.83 1006.18 73.8855 1010.78 Q76.9642 1015.37 76.9642 1024.12 Q76.9642 1032.84 73.8855 1037.45 Q70.83 1042.03 65.0198 1042.03 Q59.2097 1042.03 56.131 1037.45 Q53.0754 1032.84 53.0754 1024.12 Q53.0754 1015.37 56.131 1010.78 Q59.2097 1006.18 65.0198 1006.18 Z" fill="#000000" fill-rule="evenodd" fill-opacity="1" /><path clip-path="url(#clip290)" d="M85.1818 1035.48 L90.066 1035.48 L90.066 1041.36 L85.1818 1041.36 L85.1818 1035.48 Z" fill="#000000" fill-rule="evenodd" fill-opacity="1" /><path clip-path="url(#clip290)" d="M104.279 1037.43 L120.598 1037.43 L120.598 1041.36 L98.6539 1041.36 L98.6539 1037.43 Q101.316 1034.67 105.899 1030.04 Q110.506 1025.39 111.686 1024.05 Q113.932 1021.52 114.811 1019.79 Q115.714 1018.03 115.714 1016.34 Q115.714 1013.58 113.77 1011.85 Q111.848 1010.11 108.746 1010.11 Q106.547 1010.11 104.094 1010.88 Q101.663 1011.64 98.8854 1013.19 L98.8854 1008.47 Q101.709 1007.33 104.163 1006.76 Q106.617 1006.18 108.654 1006.18 Q114.024 1006.18 117.219 1008.86 Q120.413 1011.55 120.413 1016.04 Q120.413 1018.17 119.603 1020.09 Q118.816 1021.99 116.709 1024.58 Q116.131 1025.25 113.029 1028.47 Q109.927 1031.66 104.279 1037.43 Z" fill="#000000" fill-rule="evenodd" fill-opacity="1" /><path clip-path="url(#clip290)" d="M64.0708 799.059 Q60.4597 799.059 58.631 802.624 Q56.8254 806.165 56.8254 813.295 Q56.8254 820.401 58.631 823.966 Q60.4597 827.508 64.0708 827.508 Q67.705 827.508 69.5105 823.966 Q71.3392 820.401 71.3392 813.295 Q71.3392 806.165 69.5105 802.624 Q67.705 799.059 64.0708 799.059 M64.0708 795.355 Q69.8809 795.355 72.9365 799.962 Q76.0151 804.545 76.0151 813.295 Q76.0151 822.022 72.9365 826.628 Q69.8809 831.211 64.0708 831.211 Q58.2606 831.211 55.1819 826.628 Q52.1264 822.022 52.1264 813.295 Q52.1264 804.545 55.1819 799.962 Q58.2606 795.355 64.0708 795.355 Z" fill="#000000" fill-rule="evenodd" fill-opacity="1" /><path clip-path="url(#clip290)" d="M84.2327 824.66 L89.1169 824.66 L89.1169 830.54 L84.2327 830.54 L84.2327 824.66 Z" fill="#000000" fill-rule="evenodd" fill-opacity="1" /><path clip-path="url(#clip290)" d="M113.469 811.906 Q116.825 812.623 118.7 814.892 Q120.598 817.16 120.598 820.494 Q120.598 825.61 117.08 828.41 Q113.561 831.211 107.08 831.211 Q104.904 831.211 102.589 830.772 Q100.297 830.355 97.8437 829.498 L97.8437 824.985 Q99.7882 826.119 102.103 826.697 Q104.418 827.276 106.941 827.276 Q111.339 827.276 113.631 825.54 Q115.945 823.804 115.945 820.494 Q115.945 817.438 113.793 815.725 Q111.663 813.989 107.844 813.989 L103.816 813.989 L103.816 810.147 L108.029 810.147 Q111.478 810.147 113.307 808.781 Q115.135 807.392 115.135 804.799 Q115.135 802.137 113.237 800.725 Q111.362 799.29 107.844 799.29 Q105.922 799.29 103.723 799.707 Q101.524 800.124 98.8854 801.003 L98.8854 796.837 Q101.547 796.096 103.862 795.725 Q106.2 795.355 108.26 795.355 Q113.584 795.355 116.686 797.786 Q119.788 800.193 119.788 804.313 Q119.788 807.184 118.145 809.174 Q116.501 811.142 113.469 811.906 Z" fill="#000000" fill-rule="evenodd" fill-opacity="1" /><path clip-path="url(#clip290)" d="M62.9365 588.237 Q59.3254 588.237 57.4967 591.802 Q55.6912 595.344 55.6912 602.473 Q55.6912 609.58 57.4967 613.144 Q59.3254 616.686 62.9365 616.686 Q66.5707 616.686 68.3763 613.144 Q70.205 609.58 70.205 602.473 Q70.205 595.344 68.3763 591.802 Q66.5707 588.237 62.9365 588.237 M62.9365 584.533 Q68.7467 584.533 71.8022 589.14 Q74.8809 593.723 74.8809 602.473 Q74.8809 611.2 71.8022 615.806 Q68.7467 620.39 62.9365 620.39 Q57.1264 620.39 54.0477 615.806 Q50.9921 611.2 50.9921 602.473 Q50.9921 593.723 54.0477 589.14 Q57.1264 584.533 62.9365 584.533 Z" fill="#000000" fill-rule="evenodd" fill-opacity="1" /><path clip-path="url(#clip290)" d="M83.0984 613.839 L87.9827 613.839 L87.9827 619.718 L83.0984 619.718 L83.0984 613.839 Z" fill="#000000" fill-rule="evenodd" fill-opacity="1" /><path clip-path="url(#clip290)" d="M111.015 589.232 L99.2095 607.681 L111.015 607.681 L111.015 589.232 M109.788 585.158 L115.668 585.158 L115.668 607.681 L120.598 607.681 L120.598 611.57 L115.668 611.57 L115.668 619.718 L111.015 619.718 L111.015 611.57 L95.4132 611.57 L95.4132 607.056 L109.788 585.158 Z" fill="#000000" fill-rule="evenodd" fill-opacity="1" /><path clip-path="url(#clip290)" d="M64.418 377.415 Q60.8069 377.415 58.9782 380.98 Q57.1726 384.522 57.1726 391.652 Q57.1726 398.758 58.9782 402.323 Q60.8069 405.864 64.418 405.864 Q68.0522 405.864 69.8578 402.323 Q71.6865 398.758 71.6865 391.652 Q71.6865 384.522 69.8578 380.98 Q68.0522 377.415 64.418 377.415 M64.418 373.712 Q70.2281 373.712 73.2837 378.318 Q76.3624 382.902 76.3624 391.652 Q76.3624 400.378 73.2837 404.985 Q70.2281 409.568 64.418 409.568 Q58.6078 409.568 55.5291 404.985 Q52.4736 400.378 52.4736 391.652 Q52.4736 382.902 55.5291 378.318 Q58.6078 373.712 64.418 373.712 Z" fill="#000000" fill-rule="evenodd" fill-opacity="1" /><path clip-path="url(#clip290)" d="M84.5799 403.017 L89.4641 403.017 L89.4641 408.897 L84.5799 408.897 L84.5799 403.017 Z" fill="#000000" fill-rule="evenodd" fill-opacity="1" /><path clip-path="url(#clip290)" d="M99.6956 374.337 L118.052 374.337 L118.052 378.272 L103.978 378.272 L103.978 386.744 Q104.996 386.397 106.015 386.235 Q107.033 386.05 108.052 386.05 Q113.839 386.05 117.219 389.221 Q120.598 392.392 120.598 397.809 Q120.598 403.388 117.126 406.489 Q113.654 409.568 107.334 409.568 Q105.159 409.568 102.89 409.198 Q100.645 408.827 98.2372 408.087 L98.2372 403.388 Q100.321 404.522 102.543 405.077 Q104.765 405.633 107.242 405.633 Q111.246 405.633 113.584 403.526 Q115.922 401.42 115.922 397.809 Q115.922 394.198 113.584 392.091 Q111.246 389.985 107.242 389.985 Q105.367 389.985 103.492 390.402 Q101.64 390.818 99.6956 391.698 L99.6956 374.337 Z" fill="#000000" fill-rule="evenodd" fill-opacity="1" /><path clip-path="url(#clip290)" d="M63.2606 166.594 Q59.6495 166.594 57.8208 170.159 Q56.0152 173.7 56.0152 180.83 Q56.0152 187.936 57.8208 191.501 Q59.6495 195.043 63.2606 195.043 Q66.8948 195.043 68.7004 191.501 Q70.5291 187.936 70.5291 180.83 Q70.5291 173.7 68.7004 170.159 Q66.8948 166.594 63.2606 166.594 M63.2606 162.89 Q69.0707 162.89 72.1263 167.497 Q75.205 172.08 75.205 180.83 Q75.205 189.557 72.1263 194.163 Q69.0707 198.746 63.2606 198.746 Q57.4504 198.746 54.3717 194.163 Q51.3162 189.557 51.3162 180.83 Q51.3162 172.08 54.3717 167.497 Q57.4504 162.89 63.2606 162.89 Z" fill="#000000" fill-rule="evenodd" fill-opacity="1" /><path clip-path="url(#clip290)" d="M83.4225 192.196 L88.3067 192.196 L88.3067 198.075 L83.4225 198.075 L83.4225 192.196 Z" fill="#000000" fill-rule="evenodd" fill-opacity="1" /><path clip-path="url(#clip290)" d="M109.071 178.932 Q105.922 178.932 104.071 181.084 Q102.242 183.237 102.242 186.987 Q102.242 190.714 104.071 192.89 Q105.922 195.043 109.071 195.043 Q112.219 195.043 114.047 192.89 Q115.899 190.714 115.899 186.987 Q115.899 183.237 114.047 181.084 Q112.219 178.932 109.071 178.932 M118.353 164.279 L118.353 168.538 Q116.594 167.705 114.788 167.265 Q113.006 166.825 111.246 166.825 Q106.617 166.825 104.163 169.95 Q101.733 173.075 101.385 179.395 Q102.751 177.381 104.811 176.316 Q106.871 175.228 109.348 175.228 Q114.557 175.228 117.566 178.399 Q120.598 181.547 120.598 186.987 Q120.598 192.311 117.45 195.529 Q114.302 198.746 109.071 198.746 Q103.075 198.746 99.9039 194.163 Q96.7326 189.557 96.7326 180.83 Q96.7326 172.635 100.621 167.774 Q104.51 162.89 111.061 162.89 Q112.82 162.89 114.603 163.237 Q116.408 163.585 118.353 164.279 Z" fill="#000000" fill-rule="evenodd" fill-opacity="1" /><polyline clip-path="url(#clip292)" style="stroke:#009af9; stroke-linecap:butt; stroke-linejoin:round; stroke-width:4; stroke-opacity:1; fill:none" points="
  203.815,1445.72 205.784,1445.69 207.754,1445.71 209.724,1445.71 211.694,1445.11 213.664,1444.99 215.633,1444.78 217.603,1444.67 219.573,1443.89 221.543,1444.06 
  223.513,1444.36 225.482,1444.24 227.452,1444.05 229.422,1443.9 231.392,1443.71 233.362,1443.42 235.332,1443.26 237.301,1443.32 239.271,1443.06 241.241,1443.03 
  243.211,1442.95 245.181,1442.78 247.15,1442.17 249.12,1442.17 251.09,1442.01 253.06,1441.81 255.03,1441.65 256.999,1441.68 258.969,1441 260.939,1441.15 
  262.909,1441.01 264.879,1440.72 266.849,1440.88 268.818,1440.9 270.788,1440.67 272.758,1440.35 274.728,1440.18 276.698,1440.39 278.667,1440.27 280.637,1440 
  282.607,1439.54 284.577,1439.7 286.547,1439.34 288.516,1439.43 290.486,1439.32 292.456,1439.11 294.426,1439.04 296.396,1438.75 298.365,1438.43 300.335,1438.53 
  302.305,1438.47 304.275,1438.35 306.245,1437.66 308.215,1437.59 310.184,1437.53 312.154,1437.62 314.124,1423.04 316.094,1437.54 318.064,1437.2 320.033,1436.99 
  322.003,1436.91 323.973,1436.86 325.943,1435.72 327.913,1436.42 329.882,1435.32 331.852,1435.24 333.822,1434.68 335.792,1434.3 337.762,1434.85 339.731,1434.15 
  341.701,1434.75 343.671,1434.19 345.641,1432.52 347.611,1434.8 349.581,1435.09 351.55,1434.72 353.52,1434.67 355.49,1434.41 357.46,1433.78 359.43,1433.81 
  361.399,1432.63 363.369,1432.83 365.339,1432.88 367.309,1432.12 369.279,1431.83 371.248,1430.92 373.218,1430.65 375.188,1431.72 377.158,1430.84 379.128,1430.98 
  381.097,1414.7 383.067,1430.72 385.037,1430.74 387.007,1431.82 388.977,1431.89 390.947,1432.02 392.916,1431.01 394.886,1430.97 396.856,1431.19 398.826,1431.43 
  400.796,1431.03 402.765,1429.99 404.735,1430.3 406.705,1428.71 408.675,1428.88 410.645,1429.2 412.614,1427.22 414.584,1428.34 416.554,1427.15 418.524,1406.95 
  420.494,1427.77 422.464,1428.52 424.433,1427.87 426.403,1425.82 428.373,1426.74 430.343,1426.8 432.313,1425.53 434.282,1425.42 436.252,1426.05 438.222,1425.91 
  440.192,1426.06 442.162,1426.13 444.131,1424.88 446.101,1408.62 448.071,1425.39 450.041,1425.16 452.011,1424.95 453.98,1425.68 455.95,1424.18 457.92,1424.93 
  459.89,1424.31 461.86,1423.48 463.83,1424.29 465.799,1422.97 467.769,1422.58 469.739,1407.51 471.709,1421.85 473.679,1422.55 475.648,1421.01 477.618,1420.11 
  479.588,1419.86 481.558,1421.8 483.528,1421.1 485.497,1421.21 487.467,1419.8 489.437,1405.3 491.407,1421.46 493.377,1419.66 495.346,1420.53 497.316,1419.6 
  499.286,1419.48 501.256,1417.03 503.226,1417.42 505.196,1418.07 507.165,1402.11 509.135,1417.12 511.105,1419.48 513.075,1413 515.045,1412.9 517.014,1415.9 
  518.984,1416.52 520.954,1411.89 522.924,1401.4 524.894,1416.02 526.863,1416.22 528.833,1414.45 530.803,1413.86 532.773,1410.52 534.743,1411.63 536.713,1398.3 
  538.682,1412.86 540.652,1414.5 542.622,1413.59 544.592,1414.14 546.562,1411.48 548.531,1397.15 550.501,1405.14 552.471,1410.89 554.441,1413.7 556.411,1413.62 
  558.38,1412.31 560.35,1410.23 562.32,1392.35 564.29,1409.43 566.26,1410.21 568.229,1409.02 570.199,1409.36 572.169,1410.39 574.139,1392.11 576.109,1404.53 
  578.079,1407.35 580.048,1408.48 582.018,1406.65 583.988,1390.73 585.958,1406.81 587.928,1404.69 589.897,1403.75 591.867,1403.93 593.837,1401.67 595.807,1389.24 
  597.777,1404.34 599.746,1402.71 601.716,1401.7 603.686,1398.64 605.656,1378.38 607.626,1399.3 609.595,1398.58 611.565,1399.71 613.535,1398.85 615.505,1378.53 
  617.475,1398.36 619.445,1397.71 621.414,1396.5 623.384,1398.59 625.354,1380.23 627.324,1393.98 629.294,1394.83 631.263,1393.18 633.233,1391.95 635.203,1376.37 
  637.173,1388.08 639.143,1392.99 641.112,1384.88 643.082,1373.01 645.052,1390.49 647.022,1386.6 648.992,1382.74 650.961,1376.51 652.931,1396.01 654.901,1389.37 
  656.871,1388.95 658.841,1367.69 660.811,1387.22 662.78,1385.39 664.75,1387.96 666.72,1370.46 668.69,1380.61 670.66,1385.14 672.629,1383.89 674.599,1363.72 
  676.569,1382.28 678.539,1376.8 680.509,1375.93 682.478,1364.4 684.448,1381.29 686.418,1381.99 688.388,1379.02 690.358,1363.69 692.328,1378.66 694.297,1373.45 
  696.267,1374.84 698.237,1361.48 700.207,1377.63 702.177,1373.99 704.146,1361.56 706.116,1370.64 708.086,1376.2 710.056,1375.56 712.026,1356.34 713.995,1373.75 
  715.965,1371.85 717.935,1361.34 719.905,1371.92 721.875,1372.84 723.844,1359.61 725.814,1366.3 727.784,1369.18 729.754,1369.77 731.724,1351.08 733.694,1364.27 
  735.663,1365.7 737.633,1350.29 739.603,1366.65 741.573,1367.22 743.543,1341 745.512,1358.48 747.482,1350.08 749.452,1332.57 751.422,1358 753.392,1356.32 
  755.361,1343.78 757.331,1350.92 759.301,1353.06 761.271,1344.97 763.241,1357.08 765.21,1349.42 767.18,1331.8 769.15,1340.85 771.12,1343.33 773.09,1334.36 
  775.06,1343.4 777.029,1345.99 778.999,1332.02 780.969,1338.21 782.939,1346.25 784.909,1335.53 786.878,1348.55 788.848,1343.44 790.818,1332.31 792.788,1343.9 
  794.758,1350.37 796.727,1323.05 798.697,1343.93 800.667,1339.99 802.637,1319.67 804.607,1335.16 806.576,1333.89 808.546,1317.15 810.516,1334.37 812.486,1321.99 
  814.456,1342.83 816.426,1339.3 818.395,1315.89 820.365,1328.12 822.335,1318.99 824.305,1329.65 826.275,1331.24 828.244,1312.12 830.214,1331.66 832.184,1319.58 
  834.154,1328.34 836.124,1314.32 838.093,1311.89 840.063,1336.23 842.033,1319.8 844.003,1331.26 845.973,1311.6 847.943,1330.06 849.912,1327.61 851.882,1308.82 
  853.852,1318.62 855.822,1309.45 857.792,1315.71 859.761,1304.44 861.731,1318.08 863.701,1322.21 865.671,1302.41 867.641,1320.19 869.61,1302.76 871.58,1317.38 
  873.55,1305.99 875.52,1313.66 877.49,1307.79 879.459,1290.94 881.429,1318.43 883.399,1298.38 885.369,1310.26 887.339,1290.42 889.309,1297.27 891.278,1305.4 
  893.248,1287.91 895.218,1298.14 897.188,1293.07 899.158,1297.77 901.127,1289.47 903.097,1300.07 905.067,1287.46 907.037,1302.19 909.007,1282.56 910.976,1306.37 
  912.946,1241.96 914.916,1292.26 916.886,1274.6 918.856,1293.48 920.825,1289.71 922.795,1294.44 924.765,1276.17 926.735,1295.05 928.705,1268.91 930.675,1289.51 
  932.644,1249.63 934.614,1292.65 936.584,1269.52 938.554,1292.69 940.524,1265.58 942.493,1288.21 944.463,1255.8 946.433,1296.45 948.403,1267.69 950.373,1284.67 
  952.342,1267.75 954.312,1277.49 956.282,1259.67 958.252,1267.56 960.222,1262.36 962.191,1274.34 964.161,1260.53 966.131,1252.31 968.101,1259.51 970.071,1286.94 
  972.041,1251.6 974.01,1262.57 975.98,1248.12 977.95,1256.05 979.92,1265.3 981.89,1250.4 983.859,1269.45 985.829,1245.38 987.799,1264.65 989.769,1264.42 
  991.739,1244.46 993.708,1263.78 995.678,1233.29 997.648,1241.28 999.618,1265.14 1001.59,1224.3 1003.56,1259.28 1005.53,1233.19 1007.5,1239.94 1009.47,1251.42 
  1011.44,1225.02 1013.41,1250.97 1015.38,1231.34 1017.35,1236.17 1019.32,1246.42 1021.29,1224.53 1023.26,1243.5 1025.23,1218.86 1027.2,1223.12 1029.17,1240.18 
  1031.13,1214.22 1033.1,1230.54 1035.07,1214.12 1037.04,1221.25 1039.01,1239.33 1040.98,1217.45 1042.95,1232.93 1044.92,1194.8 1046.89,1229.04 1048.86,1230.34 
  1050.83,1205.55 1052.8,1219.13 1054.77,1230.65 1056.74,1207.41 1058.71,1210.04 1060.68,1225.62 1062.65,1204.6 1064.62,1217.98 1066.59,1221.64 1068.56,1191.91 
  1070.53,1195.68 1072.5,1213.4 1074.47,1110.96 1076.44,879.814 1078.41,1208.28 1080.38,945.426 1082.35,1183.98 1084.32,1199.17 1086.29,1202.81 1088.26,1181.04 
  1090.23,1189.02 1092.2,1184.11 1094.17,1192.78 1096.14,1179.02 1098.11,1187.03 1100.08,1188.9 1102.05,1203.36 1104.02,1181.83 1105.99,1160.26 1107.96,1152.1 
  1109.93,1191.55 1111.9,1135.56 1113.87,1147.96 1115.84,1166.19 1117.81,1155.74 1119.78,1154.55 1121.75,1156.83 1123.72,1174.23 1125.69,1179.76 1127.66,1150.5 
  1129.63,1158.86 1131.6,1172.27 1133.56,1173.49 1135.53,1155.17 1137.5,1155.46 1139.47,1168.84 1141.44,1185.39 1143.41,1124.88 1145.38,1152.97 1147.35,1143.81 
  1149.32,1163.11 1151.29,1129.06 1153.26,1155.25 1155.23,1167.58 1157.2,1165.57 1159.17,1122.78 1161.14,1143.33 1163.11,1142.96 1165.08,1143.93 1167.05,1110.96 
  1169.02,1148.14 1170.99,1117.73 1172.96,1141.94 1174.93,1115.04 1176.9,1130.36 1178.87,1112.24 1180.84,1138.28 1182.81,1123.24 1184.78,1129.5 1186.75,1115.37 
  1188.72,1132.79 1190.69,1113.99 1192.66,1125.9 1194.63,1131.19 1196.6,1142.4 1198.57,1106.88 1200.54,1122.9 1202.51,1125.5 1204.48,1133.84 1206.45,1084.41 
  1208.42,1127.65 1210.39,1114.7 1212.36,1120.42 1214.33,1087.11 1216.3,1107.7 1218.27,1103.2 1220.24,1140.4 1222.21,1066.96 1224.18,1088.05 1226.15,1087.61 
  1228.12,1097.01 1230.09,1065.7 1232.06,1107.17 1234.03,1085.58 1236,1107.87 1237.96,1067.09 1239.93,1085.58 1241.9,1073.72 1243.87,1098.51 1245.84,1072.49 
  1247.81,1074.83 1249.78,1071.64 1251.75,1059.67 1253.72,1062.05 1255.69,1075.82 1257.66,1069.98 1259.63,1069.24 1261.6,1075.43 1263.57,1058.69 1265.54,1087.15 
  1267.51,1060.39 1269.48,1057.53 1271.45,1061.69 1273.42,1052.08 1275.39,1043.15 1277.36,1076.34 1279.33,1052.27 1281.3,1052.62 1283.27,1055.1 1285.24,1042.45 
  1287.21,1059.72 1289.18,1032.89 1291.15,1035.3 1293.12,1050.54 1295.09,1017.85 1297.06,1051.66 1299.03,1050.49 1301,1028.36 1302.97,1025.05 1304.94,1028.66 
  1306.91,1032.11 1308.88,1029.99 1310.85,1022.26 1312.82,1014.62 1314.79,1016.84 1316.76,1021.14 1318.73,1033.1 1320.7,1016.83 1322.67,985.575 1324.64,993.954 
  1326.61,989.023 1328.58,994.772 1330.55,988.261 1332.52,972.261 1334.49,1008.12 1336.46,1018.49 1338.43,994.208 1340.4,981.765 1342.36,979.147 1344.33,980.765 
  1346.3,997.176 1348.27,980.742 1350.24,983.9 1352.21,962.13 1354.18,1000.13 1356.15,990.355 1358.12,945.895 1360.09,979.596 1362.06,961.928 1364.03,988.977 
  1366,965.593 1367.97,971.213 1369.94,962.46 1371.91,988.228 1373.88,960.682 1375.85,970.357 1377.82,948.658 1379.79,959.18 1381.76,962.413 1383.73,946.213 
  1385.7,947.481 1387.67,938.616 1389.64,947.321 1391.61,955.442 1393.58,936.603 1395.55,924.416 1397.52,953.587 1399.49,922.233 1401.46,937.573 1403.43,899.381 
  1405.4,945.814 1407.37,940.131 1409.34,906.482 1411.31,903.065 1413.28,929.387 1415.25,924.132 1417.22,929.661 1419.19,894.028 1421.16,919.953 1423.13,915.537 
  1425.1,909.971 1427.07,893.892 1429.04,875.861 1431.01,916.608 1432.98,908.092 1434.95,879.03 1436.92,835.257 1438.89,924.514 1440.86,907.872 1442.83,841.187 
  1444.79,856.74 1446.76,908.696 1448.73,888.501 1450.7,855.26 1452.67,912.544 1454.64,920.69 1456.61,886.806 1458.58,861.257 1460.55,868.536 1462.52,878.939 
  1464.49,835.741 1466.46,885.865 1468.43,901.716 1470.4,870.138 1472.37,824.433 1474.34,893.721 1476.31,875.864 1478.28,841.044 1480.25,848.755 1482.22,856.875 
  1484.19,865.406 1486.16,837.892 1488.13,871.874 1490.1,854.262 1492.07,848.709 1494.04,840.976 1496.01,844.581 1497.98,855.252 1499.95,832.507 1501.92,852.644 
  1503.89,851.707 1505.86,814.221 1507.83,804.387 1509.8,859.163 1511.77,832.856 1513.74,811.918 1515.71,820.763 1517.68,828.091 1519.65,793.745 1521.62,804.473 
  1523.59,825.535 1525.56,813.285 1527.53,792.701 1529.5,813.667 1531.47,818.434 1533.44,783.161 1535.41,804.267 1537.38,791.363 1539.35,755.97 1541.32,802.042 
  1543.29,796.863 1545.26,780.104 1547.23,798.006 1549.19,799.881 1551.16,776.567 1553.13,783.144 1555.1,775.798 1557.07,760.27 1559.04,732.221 1561.01,795.87 
  1562.98,782.789 1564.95,743.664 1566.92,783.96 1568.89,770.867 1570.86,724.014 1572.83,778.106 1574.8,756.73 1576.77,713.108 1578.74,793.49 1580.71,752.287 
  1582.68,728.689 1584.65,769.195 1586.62,737.66 1588.59,656.948 1590.56,745.225 1592.53,755.752 1594.5,698.459 1596.47,754.981 1598.44,721.823 1600.41,680.028 
  1602.38,730.867 1604.35,735.459 1606.32,683.713 1608.29,721.277 1610.26,686.974 1612.23,688.137 1614.2,712.841 1616.17,662.082 1618.14,726.422 1620.11,689.329 
  1622.08,669.861 1624.05,697.457 1626.02,674.582 1627.99,677.602 1629.96,683.878 1631.93,660.817 1633.9,671.707 1635.87,671.582 1637.84,653.802 1639.81,671.675 
  1641.78,652.449 1643.75,663.596 1645.72,663.233 1647.69,652.5 1649.66,652.599 1651.63,642.729 1653.59,634.6 1655.56,636.288 1657.53,626.994 1659.5,624.7 
  1661.47,621.696 1663.44,610.631 1665.41,627.57 1667.38,616.829 1669.35,630.942 1671.32,608.965 1673.29,613.602 1675.26,542.954 1677.23,87.9763 1679.2,612.259 
  1681.17,597.794 1683.14,598.018 1685.11,607.065 1687.08,587.108 1689.05,581.339 1691.02,556.865 1692.99,600.965 1694.96,586.805 1696.93,574.693 1698.9,573.086 
  1700.87,581.872 1702.84,591.722 1704.81,562.174 1706.78,577.912 1708.75,554.372 1710.72,554.299 1712.69,546.622 1714.66,529.486 1716.63,545.211 1718.6,562.763 
  1720.57,525.536 1722.54,532.537 1724.51,523.521 1726.48,541.793 1728.45,510.599 1730.42,541.549 1732.39,518.761 1734.36,512.456 1736.33,526.052 1738.3,503.738 
  1740.27,489.932 1742.24,491.849 1744.21,500.194 1746.18,511.42 1748.15,494.399 1750.12,475.691 1752.09,464.61 1754.06,473.334 1756.02,469.513 1757.99,477.063 
  1759.96,481.828 1761.93,473.588 1763.9,474.775 1765.87,462.995 1767.84,454.784 1769.81,478.542 1771.78,459.327 1773.75,471.638 1775.72,446.364 1777.69,458.98 
  
  "/>
<path clip-path="url(#clip290)" d="
M1898.11 198.898 L2352.76 198.898 L2352.76 95.2176 L1898.11 95.2176  Z
  " fill="#ffffff" fill-rule="evenodd" fill-opacity="1"/>
<polyline clip-path="url(#clip290)" style="stroke:#000000; stroke-linecap:butt; stroke-linejoin:round; stroke-width:4; stroke-opacity:1; fill:none" points="
  1898.11,198.898 2352.76,198.898 2352.76,95.2176 1898.11,95.2176 1898.11,198.898 
  "/>
<polyline clip-path="url(#clip290)" style="stroke:#009af9; stroke-linecap:butt; stroke-linejoin:round; stroke-width:4; stroke-opacity:1; fill:none" points="
  1922.52,147.058 2068.93,147.058 
  "/>
<path clip-path="url(#clip290)" d="M2093.33 128.319 L2097.59 128.319 L2097.59 164.338 L2093.33 164.338 L2093.33 128.319 Z" fill="#000000" fill-rule="evenodd" fill-opacity="1" /><path clip-path="url(#clip290)" d="M2106.5 138.412 L2110.76 138.412 L2110.76 164.338 L2106.5 164.338 L2106.5 138.412 M2106.5 128.319 L2110.76 128.319 L2110.76 133.713 L2106.5 133.713 L2106.5 128.319 Z" fill="#000000" fill-rule="evenodd" fill-opacity="1" /><path clip-path="url(#clip290)" d="M2138.28 151.398 Q2138.28 146.699 2136.34 144.037 Q2134.42 141.352 2131.04 141.352 Q2127.66 141.352 2125.71 144.037 Q2123.79 146.699 2123.79 151.398 Q2123.79 156.097 2125.71 158.782 Q2127.66 161.444 2131.04 161.444 Q2134.42 161.444 2136.34 158.782 Q2138.28 156.097 2138.28 151.398 M2123.79 142.347 Q2125.13 140.032 2127.17 138.921 Q2129.23 137.787 2132.08 137.787 Q2136.8 137.787 2139.74 141.537 Q2142.7 145.287 2142.7 151.398 Q2142.7 157.509 2139.74 161.259 Q2136.8 165.009 2132.08 165.009 Q2129.23 165.009 2127.17 163.898 Q2125.13 162.763 2123.79 160.449 L2123.79 164.338 L2119.51 164.338 L2119.51 128.319 L2123.79 128.319 L2123.79 142.347 Z" fill="#000000" fill-rule="evenodd" fill-opacity="1" /><path clip-path="url(#clip290)" d="M2181.36 139.176 L2181.36 143.203 Q2179.55 142.277 2177.61 141.815 Q2175.67 141.352 2173.58 141.352 Q2170.41 141.352 2168.81 142.324 Q2167.24 143.296 2167.24 145.24 Q2167.24 146.722 2168.37 147.578 Q2169.51 148.412 2172.93 149.176 L2174.39 149.5 Q2178.93 150.472 2180.83 152.254 Q2182.75 154.014 2182.75 157.185 Q2182.75 160.796 2179.88 162.902 Q2177.03 165.009 2172.03 165.009 Q2169.95 165.009 2167.68 164.592 Q2165.43 164.199 2162.93 163.388 L2162.93 158.99 Q2165.3 160.217 2167.59 160.842 Q2169.88 161.444 2172.12 161.444 Q2175.13 161.444 2176.75 160.426 Q2178.37 159.384 2178.37 157.509 Q2178.37 155.773 2177.19 154.847 Q2176.04 153.921 2172.08 153.064 L2170.6 152.717 Q2166.64 151.884 2164.88 150.171 Q2163.12 148.435 2163.12 145.426 Q2163.12 141.768 2165.71 139.778 Q2168.3 137.787 2173.07 137.787 Q2175.43 137.787 2177.52 138.134 Q2179.6 138.481 2181.36 139.176 Z" fill="#000000" fill-rule="evenodd" fill-opacity="1" /><path clip-path="url(#clip290)" d="M2199.58 141.398 Q2196.15 141.398 2194.16 144.083 Q2192.17 146.745 2192.17 151.398 Q2192.17 156.051 2194.14 158.736 Q2196.13 161.398 2199.58 161.398 Q2202.98 161.398 2204.97 158.713 Q2206.96 156.027 2206.96 151.398 Q2206.96 146.791 2204.97 144.106 Q2202.98 141.398 2199.58 141.398 M2199.58 137.787 Q2205.13 137.787 2208.3 141.398 Q2211.48 145.009 2211.48 151.398 Q2211.48 157.764 2208.3 161.398 Q2205.13 165.009 2199.58 165.009 Q2194 165.009 2190.83 161.398 Q2187.68 157.764 2187.68 151.398 Q2187.68 145.009 2190.83 141.398 Q2194 137.787 2199.58 137.787 Z" fill="#000000" fill-rule="evenodd" fill-opacity="1" /><path clip-path="url(#clip290)" d="M2218.54 128.319 L2222.8 128.319 L2222.8 164.338 L2218.54 164.338 L2218.54 128.319 Z" fill="#000000" fill-rule="evenodd" fill-opacity="1" /><path clip-path="url(#clip290)" d="M2228.65 138.412 L2233.17 138.412 L2241.27 160.171 L2249.37 138.412 L2253.88 138.412 L2244.16 164.338 L2238.37 164.338 L2228.65 138.412 Z" fill="#000000" fill-rule="evenodd" fill-opacity="1" /><path clip-path="url(#clip290)" d="M2281.94 150.31 L2281.94 152.393 L2262.36 152.393 Q2262.63 156.791 2264.99 159.106 Q2267.38 161.398 2271.61 161.398 Q2274.07 161.398 2276.36 160.796 Q2278.67 160.194 2280.94 158.99 L2280.94 163.018 Q2278.65 163.99 2276.24 164.5 Q2273.84 165.009 2271.36 165.009 Q2265.16 165.009 2261.52 161.398 Q2257.91 157.787 2257.91 151.629 Q2257.91 145.264 2261.34 141.537 Q2264.79 137.787 2270.62 137.787 Q2275.85 137.787 2278.88 141.166 Q2281.94 144.523 2281.94 150.31 M2277.68 149.06 Q2277.63 145.565 2275.71 143.481 Q2273.81 141.398 2270.67 141.398 Q2267.1 141.398 2264.95 143.412 Q2262.82 145.426 2262.49 149.083 L2277.68 149.06 Z" fill="#000000" fill-rule="evenodd" fill-opacity="1" /><path clip-path="url(#clip290)" d="M2303.95 142.393 Q2303.23 141.977 2302.38 141.791 Q2301.55 141.583 2300.53 141.583 Q2296.92 141.583 2294.97 143.944 Q2293.05 146.282 2293.05 150.68 L2293.05 164.338 L2288.77 164.338 L2288.77 138.412 L2293.05 138.412 L2293.05 142.44 Q2294.39 140.078 2296.55 138.944 Q2298.7 137.787 2301.78 137.787 Q2302.22 137.787 2302.75 137.856 Q2303.28 137.903 2303.93 138.018 L2303.95 142.393 Z" fill="#000000" fill-rule="evenodd" fill-opacity="1" /></svg>
