<?xml version="1.0" encoding="utf-8"?>
<svg xmlns="http://www.w3.org/2000/svg" xmlns:xlink="http://www.w3.org/1999/xlink" width="600" height="400" viewBox="0 0 2400 1600">
<defs>
  <clipPath id="clip210">
    <rect x="0" y="0" width="2400" height="1600"/>
  </clipPath>
</defs>
<path clip-path="url(#clip210)" d="
M0 1600 L2400 1600 L2400 0 L0 0  Z
  " fill="#ffffff" fill-rule="evenodd" fill-opacity="1"/>
<defs>
  <clipPath id="clip211">
    <rect x="480" y="0" width="1681" height="1600"/>
  </clipPath>
</defs>
<path clip-path="url(#clip210)" d="
M216.436 1486.45 L1833.55 1486.45 L1833.55 47.2441 L216.436 47.2441  Z
  " fill="#ffffff" fill-rule="evenodd" fill-opacity="1"/>
<defs>
  <clipPath id="clip212">
    <rect x="216" y="47" width="1618" height="1440"/>
  </clipPath>
</defs>
<polyline clip-path="url(#clip212)" style="stroke:#000000; stroke-linecap:butt; stroke-linejoin:round; stroke-width:2; stroke-opacity:0.1; fill:none" points="
  246.793,1486.45 246.793,47.2441 
  "/>
<polyline clip-path="url(#clip212)" style="stroke:#000000; stroke-linecap:butt; stroke-linejoin:round; stroke-width:2; stroke-opacity:0.1; fill:none" points="
  632.041,1486.45 632.041,47.2441 
  "/>
<polyline clip-path="url(#clip212)" style="stroke:#000000; stroke-linecap:butt; stroke-linejoin:round; stroke-width:2; stroke-opacity:0.1; fill:none" points="
  1017.29,1486.45 1017.29,47.2441 
  "/>
<polyline clip-path="url(#clip212)" style="stroke:#000000; stroke-linecap:butt; stroke-linejoin:round; stroke-width:2; stroke-opacity:0.1; fill:none" points="
  1402.54,1486.45 1402.54,47.2441 
  "/>
<polyline clip-path="url(#clip212)" style="stroke:#000000; stroke-linecap:butt; stroke-linejoin:round; stroke-width:2; stroke-opacity:0.1; fill:none" points="
  1787.79,1486.45 1787.79,47.2441 
  "/>
<polyline clip-path="url(#clip210)" style="stroke:#000000; stroke-linecap:butt; stroke-linejoin:round; stroke-width:4; stroke-opacity:1; fill:none" points="
  216.436,1486.45 1833.55,1486.45 
  "/>
<polyline clip-path="url(#clip210)" style="stroke:#000000; stroke-linecap:butt; stroke-linejoin:round; stroke-width:4; stroke-opacity:1; fill:none" points="
  246.793,1486.45 246.793,1467.55 
  "/>
<polyline clip-path="url(#clip210)" style="stroke:#000000; stroke-linecap:butt; stroke-linejoin:round; stroke-width:4; stroke-opacity:1; fill:none" points="
  632.041,1486.45 632.041,1467.55 
  "/>
<polyline clip-path="url(#clip210)" style="stroke:#000000; stroke-linecap:butt; stroke-linejoin:round; stroke-width:4; stroke-opacity:1; fill:none" points="
  1017.29,1486.45 1017.29,1467.55 
  "/>
<polyline clip-path="url(#clip210)" style="stroke:#000000; stroke-linecap:butt; stroke-linejoin:round; stroke-width:4; stroke-opacity:1; fill:none" points="
  1402.54,1486.45 1402.54,1467.55 
  "/>
<polyline clip-path="url(#clip210)" style="stroke:#000000; stroke-linecap:butt; stroke-linejoin:round; stroke-width:4; stroke-opacity:1; fill:none" points="
  1787.79,1486.45 1787.79,1467.55 
  "/>
<path clip-path="url(#clip210)" d="M246.793 1517.37 Q243.182 1517.37 241.354 1520.93 Q239.548 1524.47 239.548 1531.6 Q239.548 1538.71 241.354 1542.27 Q243.182 1545.82 246.793 1545.82 Q250.428 1545.82 252.233 1542.27 Q254.062 1538.71 254.062 1531.6 Q254.062 1524.47 252.233 1520.93 Q250.428 1517.37 246.793 1517.37 M246.793 1513.66 Q252.604 1513.66 255.659 1518.27 Q258.738 1522.85 258.738 1531.6 Q258.738 1540.33 255.659 1544.94 Q252.604 1549.52 246.793 1549.52 Q240.983 1549.52 237.905 1544.94 Q234.849 1540.33 234.849 1531.6 Q234.849 1522.85 237.905 1518.27 Q240.983 1513.66 246.793 1513.66 Z" fill="#000000" fill-rule="evenodd" fill-opacity="1" /><path clip-path="url(#clip210)" d="M611.312 1544.91 L627.632 1544.91 L627.632 1548.85 L605.687 1548.85 L605.687 1544.91 Q608.349 1542.16 612.933 1537.53 Q617.539 1532.88 618.72 1531.53 Q620.965 1529.01 621.845 1527.27 Q622.747 1525.51 622.747 1523.82 Q622.747 1521.07 620.803 1519.33 Q618.882 1517.6 615.78 1517.6 Q613.581 1517.6 611.127 1518.36 Q608.697 1519.13 605.919 1520.68 L605.919 1515.95 Q608.743 1514.82 611.197 1514.24 Q613.65 1513.66 615.687 1513.66 Q621.058 1513.66 624.252 1516.35 Q627.446 1519.03 627.446 1523.52 Q627.446 1525.65 626.636 1527.57 Q625.849 1529.47 623.743 1532.07 Q623.164 1532.74 620.062 1535.95 Q616.96 1539.15 611.312 1544.91 Z" fill="#000000" fill-rule="evenodd" fill-opacity="1" /><path clip-path="url(#clip210)" d="M637.493 1514.29 L655.849 1514.29 L655.849 1518.22 L641.775 1518.22 L641.775 1526.7 Q642.794 1526.35 643.812 1526.19 Q644.831 1526 645.849 1526 Q651.636 1526 655.016 1529.17 Q658.395 1532.34 658.395 1537.76 Q658.395 1543.34 654.923 1546.44 Q651.451 1549.52 645.132 1549.52 Q642.956 1549.52 640.687 1549.15 Q638.442 1548.78 636.034 1548.04 L636.034 1543.34 Q638.118 1544.47 640.34 1545.03 Q642.562 1545.58 645.039 1545.58 Q649.044 1545.58 651.381 1543.48 Q653.719 1541.37 653.719 1537.76 Q653.719 1534.15 651.381 1532.04 Q649.044 1529.94 645.039 1529.94 Q643.164 1529.94 641.289 1530.35 Q639.437 1530.77 637.493 1531.65 L637.493 1514.29 Z" fill="#000000" fill-rule="evenodd" fill-opacity="1" /><path clip-path="url(#clip210)" d="M991.988 1514.29 L1010.34 1514.29 L1010.34 1518.22 L996.271 1518.22 L996.271 1526.7 Q997.289 1526.35 998.308 1526.19 Q999.326 1526 1000.34 1526 Q1006.13 1526 1009.51 1529.17 Q1012.89 1532.34 1012.89 1537.76 Q1012.89 1543.34 1009.42 1546.44 Q1005.95 1549.52 999.627 1549.52 Q997.451 1549.52 995.183 1549.15 Q992.937 1548.78 990.53 1548.04 L990.53 1543.34 Q992.613 1544.47 994.836 1545.03 Q997.058 1545.58 999.535 1545.58 Q1003.54 1545.58 1005.88 1543.48 Q1008.22 1541.37 1008.22 1537.76 Q1008.22 1534.15 1005.88 1532.04 Q1003.54 1529.94 999.535 1529.94 Q997.66 1529.94 995.785 1530.35 Q993.933 1530.77 991.988 1531.65 L991.988 1514.29 Z" fill="#000000" fill-rule="evenodd" fill-opacity="1" /><path clip-path="url(#clip210)" d="M1032.1 1517.37 Q1028.49 1517.37 1026.66 1520.93 Q1024.86 1524.47 1024.86 1531.6 Q1024.86 1538.71 1026.66 1542.27 Q1028.49 1545.82 1032.1 1545.82 Q1035.74 1545.82 1037.54 1542.27 Q1039.37 1538.71 1039.37 1531.6 Q1039.37 1524.47 1037.54 1520.93 Q1035.74 1517.37 1032.1 1517.37 M1032.1 1513.66 Q1037.91 1513.66 1040.97 1518.27 Q1044.05 1522.85 1044.05 1531.6 Q1044.05 1540.33 1040.97 1544.94 Q1037.91 1549.52 1032.1 1549.52 Q1026.29 1549.52 1023.22 1544.94 Q1020.16 1540.33 1020.16 1531.6 Q1020.16 1522.85 1023.22 1518.27 Q1026.29 1513.66 1032.1 1513.66 Z" fill="#000000" fill-rule="evenodd" fill-opacity="1" /><path clip-path="url(#clip210)" d="M1376.39 1514.29 L1398.61 1514.29 L1398.61 1516.28 L1386.07 1548.85 L1381.18 1548.85 L1392.99 1518.22 L1376.39 1518.22 L1376.39 1514.29 Z" fill="#000000" fill-rule="evenodd" fill-opacity="1" /><path clip-path="url(#clip210)" d="M1407.78 1514.29 L1426.14 1514.29 L1426.14 1518.22 L1412.06 1518.22 L1412.06 1526.7 Q1413.08 1526.35 1414.1 1526.19 Q1415.12 1526 1416.14 1526 Q1421.92 1526 1425.3 1529.17 Q1428.68 1532.34 1428.68 1537.76 Q1428.68 1543.34 1425.21 1546.44 Q1421.74 1549.52 1415.42 1549.52 Q1413.24 1549.52 1410.97 1549.15 Q1408.73 1548.78 1406.32 1548.04 L1406.32 1543.34 Q1408.41 1544.47 1410.63 1545.03 Q1412.85 1545.58 1415.33 1545.58 Q1419.33 1545.58 1421.67 1543.48 Q1424.01 1541.37 1424.01 1537.76 Q1424.01 1534.15 1421.67 1532.04 Q1419.33 1529.94 1415.33 1529.94 Q1413.45 1529.94 1411.58 1530.35 Q1409.72 1530.77 1407.78 1531.65 L1407.78 1514.29 Z" fill="#000000" fill-rule="evenodd" fill-opacity="1" /><path clip-path="url(#clip210)" d="M1747.39 1544.91 L1755.03 1544.91 L1755.03 1518.55 L1746.72 1520.21 L1746.72 1515.95 L1754.98 1514.29 L1759.66 1514.29 L1759.66 1544.91 L1767.3 1544.91 L1767.3 1548.85 L1747.39 1548.85 L1747.39 1544.91 Z" fill="#000000" fill-rule="evenodd" fill-opacity="1" /><path clip-path="url(#clip210)" d="M1786.74 1517.37 Q1783.13 1517.37 1781.3 1520.93 Q1779.5 1524.47 1779.5 1531.6 Q1779.5 1538.71 1781.3 1542.27 Q1783.13 1545.82 1786.74 1545.82 Q1790.38 1545.82 1792.18 1542.27 Q1794.01 1538.71 1794.01 1531.6 Q1794.01 1524.47 1792.18 1520.93 Q1790.38 1517.37 1786.74 1517.37 M1786.74 1513.66 Q1792.55 1513.66 1795.61 1518.27 Q1798.69 1522.85 1798.69 1531.6 Q1798.69 1540.33 1795.61 1544.94 Q1792.55 1549.52 1786.74 1549.52 Q1780.93 1549.52 1777.85 1544.94 Q1774.8 1540.33 1774.8 1531.6 Q1774.8 1522.85 1777.85 1518.27 Q1780.93 1513.66 1786.74 1513.66 Z" fill="#000000" fill-rule="evenodd" fill-opacity="1" /><path clip-path="url(#clip210)" d="M1816.91 1517.37 Q1813.29 1517.37 1811.47 1520.93 Q1809.66 1524.47 1809.66 1531.6 Q1809.66 1538.71 1811.47 1542.27 Q1813.29 1545.82 1816.91 1545.82 Q1820.54 1545.82 1822.35 1542.27 Q1824.17 1538.71 1824.17 1531.6 Q1824.17 1524.47 1822.35 1520.93 Q1820.54 1517.37 1816.91 1517.37 M1816.91 1513.66 Q1822.72 1513.66 1825.77 1518.27 Q1828.85 1522.85 1828.85 1531.6 Q1828.85 1540.33 1825.77 1544.94 Q1822.72 1549.52 1816.91 1549.52 Q1811.1 1549.52 1808.02 1544.94 Q1804.96 1540.33 1804.96 1531.6 Q1804.96 1522.85 1808.02 1518.27 Q1811.1 1513.66 1816.91 1513.66 Z" fill="#000000" fill-rule="evenodd" fill-opacity="1" /><polyline clip-path="url(#clip212)" style="stroke:#000000; stroke-linecap:butt; stroke-linejoin:round; stroke-width:2; stroke-opacity:0.1; fill:none" points="
  216.436,1446.01 1833.55,1446.01 
  "/>
<polyline clip-path="url(#clip212)" style="stroke:#000000; stroke-linecap:butt; stroke-linejoin:round; stroke-width:2; stroke-opacity:0.1; fill:none" points="
  216.436,1068.99 1833.55,1068.99 
  "/>
<polyline clip-path="url(#clip212)" style="stroke:#000000; stroke-linecap:butt; stroke-linejoin:round; stroke-width:2; stroke-opacity:0.1; fill:none" points="
  216.436,691.978 1833.55,691.978 
  "/>
<polyline clip-path="url(#clip212)" style="stroke:#000000; stroke-linecap:butt; stroke-linejoin:round; stroke-width:2; stroke-opacity:0.1; fill:none" points="
  216.436,314.962 1833.55,314.962 
  "/>
<polyline clip-path="url(#clip210)" style="stroke:#000000; stroke-linecap:butt; stroke-linejoin:round; stroke-width:4; stroke-opacity:1; fill:none" points="
  216.436,1486.45 216.436,47.2441 
  "/>
<polyline clip-path="url(#clip210)" style="stroke:#000000; stroke-linecap:butt; stroke-linejoin:round; stroke-width:4; stroke-opacity:1; fill:none" points="
  216.436,1446.01 230.741,1446.01 
  "/>
<polyline clip-path="url(#clip210)" style="stroke:#000000; stroke-linecap:butt; stroke-linejoin:round; stroke-width:4; stroke-opacity:1; fill:none" points="
  216.436,1068.99 230.741,1068.99 
  "/>
<polyline clip-path="url(#clip210)" style="stroke:#000000; stroke-linecap:butt; stroke-linejoin:round; stroke-width:4; stroke-opacity:1; fill:none" points="
  216.436,691.978 230.741,691.978 
  "/>
<polyline clip-path="url(#clip210)" style="stroke:#000000; stroke-linecap:butt; stroke-linejoin:round; stroke-width:4; stroke-opacity:1; fill:none" points="
  216.436,314.962 230.741,314.962 
  "/>
<path clip-path="url(#clip210)" d="M62.9365 1431.81 Q59.3254 1431.81 57.4967 1435.37 Q55.6912 1438.91 55.6912 1446.04 Q55.6912 1453.15 57.4967 1456.72 Q59.3254 1460.26 62.9365 1460.26 Q66.5707 1460.26 68.3763 1456.72 Q70.205 1453.15 70.205 1446.04 Q70.205 1438.91 68.3763 1435.37 Q66.5707 1431.81 62.9365 1431.81 M62.9365 1428.1 Q68.7467 1428.1 71.8022 1432.71 Q74.8809 1437.29 74.8809 1446.04 Q74.8809 1454.77 71.8022 1459.38 Q68.7467 1463.96 62.9365 1463.96 Q57.1264 1463.96 54.0477 1459.38 Q50.9921 1454.77 50.9921 1446.04 Q50.9921 1437.29 54.0477 1432.71 Q57.1264 1428.1 62.9365 1428.1 Z" fill="#000000" fill-rule="evenodd" fill-opacity="1" /><path clip-path="url(#clip210)" d="M83.0984 1457.41 L87.9827 1457.41 L87.9827 1463.29 L83.0984 1463.29 L83.0984 1457.41 Z" fill="#000000" fill-rule="evenodd" fill-opacity="1" /><path clip-path="url(#clip210)" d="M108.168 1431.81 Q104.557 1431.81 102.728 1435.37 Q100.922 1438.91 100.922 1446.04 Q100.922 1453.15 102.728 1456.72 Q104.557 1460.26 108.168 1460.26 Q111.802 1460.26 113.608 1456.72 Q115.436 1453.15 115.436 1446.04 Q115.436 1438.91 113.608 1435.37 Q111.802 1431.81 108.168 1431.81 M108.168 1428.1 Q113.978 1428.1 117.033 1432.71 Q120.112 1437.29 120.112 1446.04 Q120.112 1454.77 117.033 1459.38 Q113.978 1463.96 108.168 1463.96 Q102.358 1463.96 99.2789 1459.38 Q96.2234 1454.77 96.2234 1446.04 Q96.2234 1437.29 99.2789 1432.71 Q102.358 1428.1 108.168 1428.1 Z" fill="#000000" fill-rule="evenodd" fill-opacity="1" /><path clip-path="url(#clip210)" d="M138.33 1431.81 Q134.719 1431.81 132.89 1435.37 Q131.084 1438.91 131.084 1446.04 Q131.084 1453.15 132.89 1456.72 Q134.719 1460.26 138.33 1460.26 Q141.964 1460.26 143.769 1456.72 Q145.598 1453.15 145.598 1446.04 Q145.598 1438.91 143.769 1435.37 Q141.964 1431.81 138.33 1431.81 M138.33 1428.1 Q144.14 1428.1 147.195 1432.71 Q150.274 1437.29 150.274 1446.04 Q150.274 1454.77 147.195 1459.38 Q144.14 1463.96 138.33 1463.96 Q132.519 1463.96 129.441 1459.38 Q126.385 1454.77 126.385 1446.04 Q126.385 1437.29 129.441 1432.71 Q132.519 1428.1 138.33 1428.1 Z" fill="#000000" fill-rule="evenodd" fill-opacity="1" /><path clip-path="url(#clip210)" d="M168.491 1431.81 Q164.88 1431.81 163.052 1435.37 Q161.246 1438.91 161.246 1446.04 Q161.246 1453.15 163.052 1456.72 Q164.88 1460.26 168.491 1460.26 Q172.126 1460.26 173.931 1456.72 Q175.76 1453.15 175.76 1446.04 Q175.76 1438.91 173.931 1435.37 Q172.126 1431.81 168.491 1431.81 M168.491 1428.1 Q174.302 1428.1 177.357 1432.71 Q180.436 1437.29 180.436 1446.04 Q180.436 1454.77 177.357 1459.38 Q174.302 1463.96 168.491 1463.96 Q162.681 1463.96 159.603 1459.38 Q156.547 1454.77 156.547 1446.04 Q156.547 1437.29 159.603 1432.71 Q162.681 1428.1 168.491 1428.1 Z" fill="#000000" fill-rule="evenodd" fill-opacity="1" /><path clip-path="url(#clip210)" d="M63.9319 1054.79 Q60.3208 1054.79 58.4921 1058.36 Q56.6865 1061.9 56.6865 1069.03 Q56.6865 1076.14 58.4921 1079.7 Q60.3208 1083.24 63.9319 1083.24 Q67.5661 1083.24 69.3717 1079.7 Q71.2004 1076.14 71.2004 1069.03 Q71.2004 1061.9 69.3717 1058.36 Q67.5661 1054.79 63.9319 1054.79 M63.9319 1051.09 Q69.742 1051.09 72.7976 1055.7 Q75.8763 1060.28 75.8763 1069.03 Q75.8763 1077.76 72.7976 1082.36 Q69.742 1086.95 63.9319 1086.95 Q58.1217 1086.95 55.043 1082.36 Q51.9875 1077.76 51.9875 1069.03 Q51.9875 1060.28 55.043 1055.7 Q58.1217 1051.09 63.9319 1051.09 Z" fill="#000000" fill-rule="evenodd" fill-opacity="1" /><path clip-path="url(#clip210)" d="M84.0938 1080.39 L88.978 1080.39 L88.978 1086.27 L84.0938 1086.27 L84.0938 1080.39 Z" fill="#000000" fill-rule="evenodd" fill-opacity="1" /><path clip-path="url(#clip210)" d="M109.163 1054.79 Q105.552 1054.79 103.723 1058.36 Q101.918 1061.9 101.918 1069.03 Q101.918 1076.14 103.723 1079.7 Q105.552 1083.24 109.163 1083.24 Q112.797 1083.24 114.603 1079.7 Q116.432 1076.14 116.432 1069.03 Q116.432 1061.9 114.603 1058.36 Q112.797 1054.79 109.163 1054.79 M109.163 1051.09 Q114.973 1051.09 118.029 1055.7 Q121.107 1060.28 121.107 1069.03 Q121.107 1077.76 118.029 1082.36 Q114.973 1086.95 109.163 1086.95 Q103.353 1086.95 100.274 1082.36 Q97.2187 1077.76 97.2187 1069.03 Q97.2187 1060.28 100.274 1055.7 Q103.353 1051.09 109.163 1051.09 Z" fill="#000000" fill-rule="evenodd" fill-opacity="1" /><path clip-path="url(#clip210)" d="M139.325 1054.79 Q135.714 1054.79 133.885 1058.36 Q132.08 1061.9 132.08 1069.03 Q132.08 1076.14 133.885 1079.7 Q135.714 1083.24 139.325 1083.24 Q142.959 1083.24 144.765 1079.7 Q146.593 1076.14 146.593 1069.03 Q146.593 1061.9 144.765 1058.36 Q142.959 1054.79 139.325 1054.79 M139.325 1051.09 Q145.135 1051.09 148.191 1055.7 Q151.269 1060.28 151.269 1069.03 Q151.269 1077.76 148.191 1082.36 Q145.135 1086.95 139.325 1086.95 Q133.515 1086.95 130.436 1082.36 Q127.381 1077.76 127.381 1069.03 Q127.381 1060.28 130.436 1055.7 Q133.515 1051.09 139.325 1051.09 Z" fill="#000000" fill-rule="evenodd" fill-opacity="1" /><path clip-path="url(#clip210)" d="M159.533 1051.71 L177.89 1051.71 L177.89 1055.65 L163.816 1055.65 L163.816 1064.12 Q164.834 1063.77 165.853 1063.61 Q166.871 1063.43 167.89 1063.43 Q173.677 1063.43 177.056 1066.6 Q180.436 1069.77 180.436 1075.19 Q180.436 1080.76 176.964 1083.87 Q173.491 1086.95 167.172 1086.95 Q164.996 1086.95 162.728 1086.57 Q160.482 1086.2 158.075 1085.46 L158.075 1080.76 Q160.158 1081.9 162.38 1082.45 Q164.603 1083.01 167.079 1083.01 Q171.084 1083.01 173.422 1080.9 Q175.76 1078.8 175.76 1075.19 Q175.76 1071.57 173.422 1069.47 Q171.084 1067.36 167.079 1067.36 Q165.204 1067.36 163.329 1067.78 Q161.478 1068.2 159.533 1069.07 L159.533 1051.71 Z" fill="#000000" fill-rule="evenodd" fill-opacity="1" /><path clip-path="url(#clip210)" d="M62.9365 677.777 Q59.3254 677.777 57.4967 681.342 Q55.6912 684.883 55.6912 692.013 Q55.6912 699.119 57.4967 702.684 Q59.3254 706.226 62.9365 706.226 Q66.5707 706.226 68.3763 702.684 Q70.205 699.119 70.205 692.013 Q70.205 684.883 68.3763 681.342 Q66.5707 677.777 62.9365 677.777 M62.9365 674.073 Q68.7467 674.073 71.8022 678.68 Q74.8809 683.263 74.8809 692.013 Q74.8809 700.74 71.8022 705.346 Q68.7467 709.929 62.9365 709.929 Q57.1264 709.929 54.0477 705.346 Q50.9921 700.74 50.9921 692.013 Q50.9921 683.263 54.0477 678.68 Q57.1264 674.073 62.9365 674.073 Z" fill="#000000" fill-rule="evenodd" fill-opacity="1" /><path clip-path="url(#clip210)" d="M83.0984 703.379 L87.9827 703.379 L87.9827 709.258 L83.0984 709.258 L83.0984 703.379 Z" fill="#000000" fill-rule="evenodd" fill-opacity="1" /><path clip-path="url(#clip210)" d="M108.168 677.777 Q104.557 677.777 102.728 681.342 Q100.922 684.883 100.922 692.013 Q100.922 699.119 102.728 702.684 Q104.557 706.226 108.168 706.226 Q111.802 706.226 113.608 702.684 Q115.436 699.119 115.436 692.013 Q115.436 684.883 113.608 681.342 Q111.802 677.777 108.168 677.777 M108.168 674.073 Q113.978 674.073 117.033 678.68 Q120.112 683.263 120.112 692.013 Q120.112 700.74 117.033 705.346 Q113.978 709.929 108.168 709.929 Q102.358 709.929 99.2789 705.346 Q96.2234 700.74 96.2234 692.013 Q96.2234 683.263 99.2789 678.68 Q102.358 674.073 108.168 674.073 Z" fill="#000000" fill-rule="evenodd" fill-opacity="1" /><path clip-path="url(#clip210)" d="M129.14 705.323 L136.779 705.323 L136.779 678.957 L128.469 680.624 L128.469 676.365 L136.732 674.698 L141.408 674.698 L141.408 705.323 L149.047 705.323 L149.047 709.258 L129.14 709.258 L129.14 705.323 Z" fill="#000000" fill-rule="evenodd" fill-opacity="1" /><path clip-path="url(#clip210)" d="M168.491 677.777 Q164.88 677.777 163.052 681.342 Q161.246 684.883 161.246 692.013 Q161.246 699.119 163.052 702.684 Q164.88 706.226 168.491 706.226 Q172.126 706.226 173.931 702.684 Q175.76 699.119 175.76 692.013 Q175.76 684.883 173.931 681.342 Q172.126 677.777 168.491 677.777 M168.491 674.073 Q174.302 674.073 177.357 678.68 Q180.436 683.263 180.436 692.013 Q180.436 700.74 177.357 705.346 Q174.302 709.929 168.491 709.929 Q162.681 709.929 159.603 705.346 Q156.547 700.74 156.547 692.013 Q156.547 683.263 159.603 678.68 Q162.681 674.073 168.491 674.073 Z" fill="#000000" fill-rule="evenodd" fill-opacity="1" /><path clip-path="url(#clip210)" d="M63.9319 300.761 Q60.3208 300.761 58.4921 304.326 Q56.6865 307.868 56.6865 314.997 Q56.6865 322.104 58.4921 325.668 Q60.3208 329.21 63.9319 329.21 Q67.5661 329.21 69.3717 325.668 Q71.2004 322.104 71.2004 314.997 Q71.2004 307.868 69.3717 304.326 Q67.5661 300.761 63.9319 300.761 M63.9319 297.057 Q69.742 297.057 72.7976 301.664 Q75.8763 306.247 75.8763 314.997 Q75.8763 323.724 72.7976 328.33 Q69.742 332.914 63.9319 332.914 Q58.1217 332.914 55.043 328.33 Q51.9875 323.724 51.9875 314.997 Q51.9875 306.247 55.043 301.664 Q58.1217 297.057 63.9319 297.057 Z" fill="#000000" fill-rule="evenodd" fill-opacity="1" /><path clip-path="url(#clip210)" d="M84.0938 326.363 L88.978 326.363 L88.978 332.242 L84.0938 332.242 L84.0938 326.363 Z" fill="#000000" fill-rule="evenodd" fill-opacity="1" /><path clip-path="url(#clip210)" d="M109.163 300.761 Q105.552 300.761 103.723 304.326 Q101.918 307.868 101.918 314.997 Q101.918 322.104 103.723 325.668 Q105.552 329.21 109.163 329.21 Q112.797 329.21 114.603 325.668 Q116.432 322.104 116.432 314.997 Q116.432 307.868 114.603 304.326 Q112.797 300.761 109.163 300.761 M109.163 297.057 Q114.973 297.057 118.029 301.664 Q121.107 306.247 121.107 314.997 Q121.107 323.724 118.029 328.33 Q114.973 332.914 109.163 332.914 Q103.353 332.914 100.274 328.33 Q97.2187 323.724 97.2187 314.997 Q97.2187 306.247 100.274 301.664 Q103.353 297.057 109.163 297.057 Z" fill="#000000" fill-rule="evenodd" fill-opacity="1" /><path clip-path="url(#clip210)" d="M130.135 328.307 L137.774 328.307 L137.774 301.942 L129.464 303.608 L129.464 299.349 L137.728 297.682 L142.404 297.682 L142.404 328.307 L150.043 328.307 L150.043 332.242 L130.135 332.242 L130.135 328.307 Z" fill="#000000" fill-rule="evenodd" fill-opacity="1" /><path clip-path="url(#clip210)" d="M159.533 297.682 L177.89 297.682 L177.89 301.618 L163.816 301.618 L163.816 310.09 Q164.834 309.743 165.853 309.58 Q166.871 309.395 167.89 309.395 Q173.677 309.395 177.056 312.567 Q180.436 315.738 180.436 321.154 Q180.436 326.733 176.964 329.835 Q173.491 332.914 167.172 332.914 Q164.996 332.914 162.728 332.543 Q160.482 332.173 158.075 331.432 L158.075 326.733 Q160.158 327.867 162.38 328.423 Q164.603 328.979 167.079 328.979 Q171.084 328.979 173.422 326.872 Q175.76 324.766 175.76 321.154 Q175.76 317.543 173.422 315.437 Q171.084 313.33 167.079 313.33 Q165.204 313.33 163.329 313.747 Q161.478 314.164 159.533 315.043 L159.533 297.682 Z" fill="#000000" fill-rule="evenodd" fill-opacity="1" /><polyline clip-path="url(#clip212)" style="stroke:#009af9; stroke-linecap:butt; stroke-linejoin:round; stroke-width:4; stroke-opacity:1; fill:none" points="
  262.203,1445.72 277.613,1445.1 293.023,1445.66 308.433,1445.54 323.843,1427.69 339.253,1421.21 354.663,1405.87 370.073,1403.4 385.483,1403.82 400.893,1393.33 
  416.302,1392.89 431.712,1395.36 447.122,1389.87 462.532,1384.54 477.942,1377.52 493.352,1369.42 508.762,1365.83 524.172,1368.53 539.582,1354.73 554.992,1346.5 
  570.402,1331.4 585.812,1325.69 601.221,1324.9 616.631,1321.4 632.041,1316.96 647.451,1305.63 662.861,1289.53 678.271,1279.49 693.681,1299.15 709.091,1282.1 
  724.501,1277.25 739.911,1280.22 755.321,1263.43 770.731,1282.17 786.14,1273.14 801.55,1266.54 816.96,1257.28 832.37,1261.64 847.78,1256.88 863.19,87.9763 
  878.6,1200.34 894.01,1238.91 909.42,1237.01 924.83,1229.34 940.24,1205.81 955.65,1193.29 971.059,1216.32 986.469,1203.71 1001.88,1188.85 1017.29,1196.15 
  1032.7,1193.39 1048.11,1173.23 1063.52,1152.46 1078.93,1154.94 1094.34,1151.02 1109.75,1134.67 1125.16,1113.38 1140.57,1136.48 1155.98,1148.41 1171.39,1143.94 
  1186.8,1143.26 1202.21,1124.49 1217.62,1135.59 1233.03,1122.08 1248.44,1128.68 1263.85,1106.54 1279.26,1112.98 1294.67,1101.12 1310.08,1091.89 1325.49,1089.08 
  1340.9,1073.09 1356.31,1088.16 1371.72,1062.92 1387.13,1053.97 1402.54,1067.75 1417.95,1050.32 1433.36,1052.97 1448.77,1040.85 1464.18,1016.11 1479.59,1038.96 
  1495,1033.46 1510.41,1045.6 1525.82,1025.43 1541.23,1017.03 1556.64,1015.72 1572.05,1016.85 1587.46,996.886 1602.87,1013.98 1618.28,1004.55 1633.69,918.195 
  1649.1,880.004 1664.51,223.204 1679.92,863.151 1695.33,861.703 1710.74,859.886 1726.15,868.135 1741.56,858.906 1756.97,850.543 1772.38,893.757 1787.79,830.984 
  
  "/>
<path clip-path="url(#clip210)" d="
M1904.76 198.898 L2352.76 198.898 L2352.76 95.2176 L1904.76 95.2176  Z
  " fill="#ffffff" fill-rule="evenodd" fill-opacity="1"/>
<polyline clip-path="url(#clip210)" style="stroke:#000000; stroke-linecap:butt; stroke-linejoin:round; stroke-width:4; stroke-opacity:1; fill:none" points="
  1904.76,198.898 2352.76,198.898 2352.76,95.2176 1904.76,95.2176 1904.76,198.898 
  "/>
<polyline clip-path="url(#clip210)" style="stroke:#009af9; stroke-linecap:butt; stroke-linejoin:round; stroke-width:4; stroke-opacity:1; fill:none" points="
  1928.5,147.058 2070.92,147.058 
  "/>
<path clip-path="url(#clip210)" d="M2094.66 128.319 L2098.92 128.319 L2098.92 164.338 L2094.66 164.338 L2094.66 128.319 Z" fill="#000000" fill-rule="evenodd" fill-opacity="1" /><path clip-path="url(#clip210)" d="M2107.83 138.412 L2112.09 138.412 L2112.09 164.338 L2107.83 164.338 L2107.83 138.412 M2107.83 128.319 L2112.09 128.319 L2112.09 133.713 L2107.83 133.713 L2107.83 128.319 Z" fill="#000000" fill-rule="evenodd" fill-opacity="1" /><path clip-path="url(#clip210)" d="M2139.61 151.398 Q2139.61 146.699 2137.67 144.037 Q2135.75 141.352 2132.37 141.352 Q2128.99 141.352 2127.04 144.037 Q2125.12 146.699 2125.12 151.398 Q2125.12 156.097 2127.04 158.782 Q2128.99 161.444 2132.37 161.444 Q2135.75 161.444 2137.67 158.782 Q2139.61 156.097 2139.61 151.398 M2125.12 142.347 Q2126.46 140.032 2128.5 138.921 Q2130.56 137.787 2133.41 137.787 Q2138.13 137.787 2141.07 141.537 Q2144.03 145.287 2144.03 151.398 Q2144.03 157.509 2141.07 161.259 Q2138.13 165.009 2133.41 165.009 Q2130.56 165.009 2128.5 163.898 Q2126.46 162.763 2125.12 160.449 L2125.12 164.338 L2120.84 164.338 L2120.84 128.319 L2125.12 128.319 L2125.12 142.347 Z" fill="#000000" fill-rule="evenodd" fill-opacity="1" /><path clip-path="url(#clip210)" d="M2182.69 139.176 L2182.69 143.203 Q2180.88 142.277 2178.94 141.815 Q2177 141.352 2174.91 141.352 Q2171.74 141.352 2170.14 142.324 Q2168.57 143.296 2168.57 145.24 Q2168.57 146.722 2169.7 147.578 Q2170.84 148.412 2174.26 149.176 L2175.72 149.5 Q2180.26 150.472 2182.16 152.254 Q2184.08 154.014 2184.08 157.185 Q2184.08 160.796 2181.21 162.902 Q2178.36 165.009 2173.36 165.009 Q2171.28 165.009 2169.01 164.592 Q2166.76 164.199 2164.26 163.388 L2164.26 158.99 Q2166.63 160.217 2168.92 160.842 Q2171.21 161.444 2173.45 161.444 Q2176.46 161.444 2178.08 160.426 Q2179.7 159.384 2179.7 157.509 Q2179.7 155.773 2178.52 154.847 Q2177.37 153.921 2173.41 153.064 L2171.93 152.717 Q2167.97 151.884 2166.21 150.171 Q2164.45 148.435 2164.45 145.426 Q2164.45 141.768 2167.04 139.778 Q2169.63 137.787 2174.4 137.787 Q2176.76 137.787 2178.85 138.134 Q2180.93 138.481 2182.69 139.176 Z" fill="#000000" fill-rule="evenodd" fill-opacity="1" /><path clip-path="url(#clip210)" d="M2200.91 141.398 Q2197.48 141.398 2195.49 144.083 Q2193.5 146.745 2193.5 151.398 Q2193.5 156.051 2195.47 158.736 Q2197.46 161.398 2200.91 161.398 Q2204.31 161.398 2206.3 158.713 Q2208.29 156.027 2208.29 151.398 Q2208.29 146.791 2206.3 144.106 Q2204.31 141.398 2200.91 141.398 M2200.91 137.787 Q2206.46 137.787 2209.63 141.398 Q2212.81 145.009 2212.81 151.398 Q2212.81 157.764 2209.63 161.398 Q2206.46 165.009 2200.91 165.009 Q2195.33 165.009 2192.16 161.398 Q2189.01 157.764 2189.01 151.398 Q2189.01 145.009 2192.16 141.398 Q2195.33 137.787 2200.91 137.787 Z" fill="#000000" fill-rule="evenodd" fill-opacity="1" /><path clip-path="url(#clip210)" d="M2219.87 128.319 L2224.13 128.319 L2224.13 164.338 L2219.87 164.338 L2219.87 128.319 Z" fill="#000000" fill-rule="evenodd" fill-opacity="1" /><path clip-path="url(#clip210)" d="M2229.98 138.412 L2234.5 138.412 L2242.6 160.171 L2250.7 138.412 L2255.21 138.412 L2245.49 164.338 L2239.7 164.338 L2229.98 138.412 Z" fill="#000000" fill-rule="evenodd" fill-opacity="1" /><path clip-path="url(#clip210)" d="M2283.27 150.31 L2283.27 152.393 L2263.69 152.393 Q2263.96 156.791 2266.32 159.106 Q2268.71 161.398 2272.94 161.398 Q2275.4 161.398 2277.69 160.796 Q2280 160.194 2282.27 158.99 L2282.27 163.018 Q2279.98 163.99 2277.57 164.5 Q2275.17 165.009 2272.69 165.009 Q2266.49 165.009 2262.85 161.398 Q2259.24 157.787 2259.24 151.629 Q2259.24 145.264 2262.67 141.537 Q2266.12 137.787 2271.95 137.787 Q2277.18 137.787 2280.21 141.166 Q2283.27 144.523 2283.27 150.31 M2279.01 149.06 Q2278.96 145.565 2277.04 143.481 Q2275.14 141.398 2272 141.398 Q2268.43 141.398 2266.28 143.412 Q2264.15 145.426 2263.82 149.083 L2279.01 149.06 Z" fill="#000000" fill-rule="evenodd" fill-opacity="1" /><path clip-path="url(#clip210)" d="M2305.28 142.393 Q2304.56 141.977 2303.71 141.791 Q2302.87 141.583 2301.86 141.583 Q2298.25 141.583 2296.3 143.944 Q2294.38 146.282 2294.38 150.68 L2294.38 164.338 L2290.1 164.338 L2290.1 138.412 L2294.38 138.412 L2294.38 142.44 Q2295.72 140.078 2297.87 138.944 Q2300.03 137.787 2303.11 137.787 Q2303.55 137.787 2304.08 137.856 Q2304.61 137.903 2305.26 138.018 L2305.28 142.393 Z" fill="#000000" fill-rule="evenodd" fill-opacity="1" /></svg>
