<?xml version="1.0" encoding="utf-8"?>
<svg xmlns="http://www.w3.org/2000/svg" xmlns:xlink="http://www.w3.org/1999/xlink" width="600" height="400" viewBox="0 0 2400 1600">
<defs>
  <clipPath id="clip250">
    <rect x="0" y="0" width="2400" height="1600"/>
  </clipPath>
</defs>
<path clip-path="url(#clip250)" d="
M0 1600 L2400 1600 L2400 0 L0 0  Z
  " fill="#ffffff" fill-rule="evenodd" fill-opacity="1"/>
<defs>
  <clipPath id="clip251">
    <rect x="480" y="0" width="1681" height="1600"/>
  </clipPath>
</defs>
<path clip-path="url(#clip250)" d="
M156.598 1486.45 L1776.85 1486.45 L1776.85 47.2441 L156.598 47.2441  Z
  " fill="#ffffff" fill-rule="evenodd" fill-opacity="1"/>
<defs>
  <clipPath id="clip252">
    <rect x="156" y="47" width="1621" height="1440"/>
  </clipPath>
</defs>
<polyline clip-path="url(#clip252)" style="stroke:#000000; stroke-linecap:butt; stroke-linejoin:round; stroke-width:2; stroke-opacity:0.1; fill:none" points="
  187.015,1486.45 187.015,47.2441 
  "/>
<polyline clip-path="url(#clip252)" style="stroke:#000000; stroke-linecap:butt; stroke-linejoin:round; stroke-width:2; stroke-opacity:0.1; fill:none" points="
  573.01,1486.45 573.01,47.2441 
  "/>
<polyline clip-path="url(#clip252)" style="stroke:#000000; stroke-linecap:butt; stroke-linejoin:round; stroke-width:2; stroke-opacity:0.1; fill:none" points="
  959.006,1486.45 959.006,47.2441 
  "/>
<polyline clip-path="url(#clip252)" style="stroke:#000000; stroke-linecap:butt; stroke-linejoin:round; stroke-width:2; stroke-opacity:0.1; fill:none" points="
  1345,1486.45 1345,47.2441 
  "/>
<polyline clip-path="url(#clip252)" style="stroke:#000000; stroke-linecap:butt; stroke-linejoin:round; stroke-width:2; stroke-opacity:0.1; fill:none" points="
  1731,1486.45 1731,47.2441 
  "/>
<polyline clip-path="url(#clip250)" style="stroke:#000000; stroke-linecap:butt; stroke-linejoin:round; stroke-width:4; stroke-opacity:1; fill:none" points="
  156.598,1486.45 1776.85,1486.45 
  "/>
<polyline clip-path="url(#clip250)" style="stroke:#000000; stroke-linecap:butt; stroke-linejoin:round; stroke-width:4; stroke-opacity:1; fill:none" points="
  187.015,1486.45 187.015,1467.55 
  "/>
<polyline clip-path="url(#clip250)" style="stroke:#000000; stroke-linecap:butt; stroke-linejoin:round; stroke-width:4; stroke-opacity:1; fill:none" points="
  573.01,1486.45 573.01,1467.55 
  "/>
<polyline clip-path="url(#clip250)" style="stroke:#000000; stroke-linecap:butt; stroke-linejoin:round; stroke-width:4; stroke-opacity:1; fill:none" points="
  959.006,1486.45 959.006,1467.55 
  "/>
<polyline clip-path="url(#clip250)" style="stroke:#000000; stroke-linecap:butt; stroke-linejoin:round; stroke-width:4; stroke-opacity:1; fill:none" points="
  1345,1486.45 1345,1467.55 
  "/>
<polyline clip-path="url(#clip250)" style="stroke:#000000; stroke-linecap:butt; stroke-linejoin:round; stroke-width:4; stroke-opacity:1; fill:none" points="
  1731,1486.45 1731,1467.55 
  "/>
<path clip-path="url(#clip250)" d="M187.015 1517.37 Q183.404 1517.37 181.575 1520.93 Q179.769 1524.47 179.769 1531.6 Q179.769 1538.71 181.575 1542.27 Q183.404 1545.82 187.015 1545.82 Q190.649 1545.82 192.454 1542.27 Q194.283 1538.71 194.283 1531.6 Q194.283 1524.47 192.454 1520.93 Q190.649 1517.37 187.015 1517.37 M187.015 1513.66 Q192.825 1513.66 195.88 1518.27 Q198.959 1522.85 198.959 1531.6 Q198.959 1540.33 195.88 1544.94 Q192.825 1549.52 187.015 1549.52 Q181.205 1549.52 178.126 1544.94 Q175.07 1540.33 175.07 1531.6 Q175.07 1522.85 178.126 1518.27 Q181.205 1513.66 187.015 1513.66 Z" fill="#000000" fill-rule="evenodd" fill-opacity="1" /><path clip-path="url(#clip250)" d="M552.281 1544.91 L568.601 1544.91 L568.601 1548.85 L546.656 1548.85 L546.656 1544.91 Q549.318 1542.16 553.902 1537.53 Q558.508 1532.88 559.689 1531.53 Q561.934 1529.01 562.814 1527.27 Q563.717 1525.51 563.717 1523.82 Q563.717 1521.07 561.772 1519.33 Q559.851 1517.6 556.749 1517.6 Q554.55 1517.6 552.096 1518.36 Q549.666 1519.13 546.888 1520.68 L546.888 1515.95 Q549.712 1514.82 552.166 1514.24 Q554.619 1513.66 556.656 1513.66 Q562.027 1513.66 565.221 1516.35 Q568.416 1519.03 568.416 1523.52 Q568.416 1525.65 567.605 1527.57 Q566.818 1529.47 564.712 1532.07 Q564.133 1532.74 561.031 1535.95 Q557.93 1539.15 552.281 1544.91 Z" fill="#000000" fill-rule="evenodd" fill-opacity="1" /><path clip-path="url(#clip250)" d="M578.462 1514.29 L596.818 1514.29 L596.818 1518.22 L582.744 1518.22 L582.744 1526.7 Q583.763 1526.35 584.781 1526.19 Q585.8 1526 586.818 1526 Q592.605 1526 595.985 1529.17 Q599.364 1532.34 599.364 1537.76 Q599.364 1543.34 595.892 1546.44 Q592.42 1549.52 586.101 1549.52 Q583.925 1549.52 581.656 1549.15 Q579.411 1548.78 577.003 1548.04 L577.003 1543.34 Q579.087 1544.47 581.309 1545.03 Q583.531 1545.58 586.008 1545.58 Q590.013 1545.58 592.351 1543.48 Q594.689 1541.37 594.689 1537.76 Q594.689 1534.15 592.351 1532.04 Q590.013 1529.94 586.008 1529.94 Q584.133 1529.94 582.258 1530.35 Q580.406 1530.77 578.462 1531.65 L578.462 1514.29 Z" fill="#000000" fill-rule="evenodd" fill-opacity="1" /><path clip-path="url(#clip250)" d="M933.705 1514.29 L952.062 1514.29 L952.062 1518.22 L937.988 1518.22 L937.988 1526.7 Q939.006 1526.35 940.025 1526.19 Q941.043 1526 942.062 1526 Q947.849 1526 951.228 1529.17 Q954.608 1532.34 954.608 1537.76 Q954.608 1543.34 951.136 1546.44 Q947.664 1549.52 941.344 1549.52 Q939.168 1549.52 936.9 1549.15 Q934.654 1548.78 932.247 1548.04 L932.247 1543.34 Q934.33 1544.47 936.553 1545.03 Q938.775 1545.58 941.252 1545.58 Q945.256 1545.58 947.594 1543.48 Q949.932 1541.37 949.932 1537.76 Q949.932 1534.15 947.594 1532.04 Q945.256 1529.94 941.252 1529.94 Q939.377 1529.94 937.502 1530.35 Q935.65 1530.77 933.705 1531.65 L933.705 1514.29 Z" fill="#000000" fill-rule="evenodd" fill-opacity="1" /><path clip-path="url(#clip250)" d="M973.821 1517.37 Q970.21 1517.37 968.381 1520.93 Q966.576 1524.47 966.576 1531.6 Q966.576 1538.71 968.381 1542.27 Q970.21 1545.82 973.821 1545.82 Q977.455 1545.82 979.261 1542.27 Q981.089 1538.71 981.089 1531.6 Q981.089 1524.47 979.261 1520.93 Q977.455 1517.37 973.821 1517.37 M973.821 1513.66 Q979.631 1513.66 982.687 1518.27 Q985.765 1522.85 985.765 1531.6 Q985.765 1540.33 982.687 1544.94 Q979.631 1549.52 973.821 1549.52 Q968.011 1549.52 964.932 1544.94 Q961.877 1540.33 961.877 1531.6 Q961.877 1522.85 964.932 1518.27 Q968.011 1513.66 973.821 1513.66 Z" fill="#000000" fill-rule="evenodd" fill-opacity="1" /><path clip-path="url(#clip250)" d="M1318.86 1514.29 L1341.08 1514.29 L1341.08 1516.28 L1328.53 1548.85 L1323.65 1548.85 L1335.45 1518.22 L1318.86 1518.22 L1318.86 1514.29 Z" fill="#000000" fill-rule="evenodd" fill-opacity="1" /><path clip-path="url(#clip250)" d="M1350.24 1514.29 L1368.6 1514.29 L1368.6 1518.22 L1354.53 1518.22 L1354.53 1526.7 Q1355.55 1526.35 1356.56 1526.19 Q1357.58 1526 1358.6 1526 Q1364.39 1526 1367.77 1529.17 Q1371.15 1532.34 1371.15 1537.76 Q1371.15 1543.34 1367.68 1546.44 Q1364.2 1549.52 1357.88 1549.52 Q1355.71 1549.52 1353.44 1549.15 Q1351.19 1548.78 1348.79 1548.04 L1348.79 1543.34 Q1350.87 1544.47 1353.09 1545.03 Q1355.31 1545.58 1357.79 1545.58 Q1361.8 1545.58 1364.13 1543.48 Q1366.47 1541.37 1366.47 1537.76 Q1366.47 1534.15 1364.13 1532.04 Q1361.8 1529.94 1357.79 1529.94 Q1355.92 1529.94 1354.04 1530.35 Q1352.19 1530.77 1350.24 1531.65 L1350.24 1514.29 Z" fill="#000000" fill-rule="evenodd" fill-opacity="1" /><path clip-path="url(#clip250)" d="M1690.6 1544.91 L1698.24 1544.91 L1698.24 1518.55 L1689.93 1520.21 L1689.93 1515.95 L1698.2 1514.29 L1702.87 1514.29 L1702.87 1544.91 L1710.51 1544.91 L1710.51 1548.85 L1690.6 1548.85 L1690.6 1544.91 Z" fill="#000000" fill-rule="evenodd" fill-opacity="1" /><path clip-path="url(#clip250)" d="M1729.96 1517.37 Q1726.34 1517.37 1724.52 1520.93 Q1722.71 1524.47 1722.71 1531.6 Q1722.71 1538.71 1724.52 1542.27 Q1726.34 1545.82 1729.96 1545.82 Q1733.59 1545.82 1735.4 1542.27 Q1737.22 1538.71 1737.22 1531.6 Q1737.22 1524.47 1735.4 1520.93 Q1733.59 1517.37 1729.96 1517.37 M1729.96 1513.66 Q1735.77 1513.66 1738.82 1518.27 Q1741.9 1522.85 1741.9 1531.6 Q1741.9 1540.33 1738.82 1544.94 Q1735.77 1549.52 1729.96 1549.52 Q1724.15 1549.52 1721.07 1544.94 Q1718.01 1540.33 1718.01 1531.6 Q1718.01 1522.85 1721.07 1518.27 Q1724.15 1513.66 1729.96 1513.66 Z" fill="#000000" fill-rule="evenodd" fill-opacity="1" /><path clip-path="url(#clip250)" d="M1760.12 1517.37 Q1756.51 1517.37 1754.68 1520.93 Q1752.87 1524.47 1752.87 1531.6 Q1752.87 1538.71 1754.68 1542.27 Q1756.51 1545.82 1760.12 1545.82 Q1763.75 1545.82 1765.56 1542.27 Q1767.39 1538.71 1767.39 1531.6 Q1767.39 1524.47 1765.56 1520.93 Q1763.75 1517.37 1760.12 1517.37 M1760.12 1513.66 Q1765.93 1513.66 1768.98 1518.27 Q1772.06 1522.85 1772.06 1531.6 Q1772.06 1540.33 1768.98 1544.94 Q1765.93 1549.52 1760.12 1549.52 Q1754.31 1549.52 1751.23 1544.94 Q1748.17 1540.33 1748.17 1531.6 Q1748.17 1522.85 1751.23 1518.27 Q1754.31 1513.66 1760.12 1513.66 Z" fill="#000000" fill-rule="evenodd" fill-opacity="1" /><polyline clip-path="url(#clip252)" style="stroke:#000000; stroke-linecap:butt; stroke-linejoin:round; stroke-width:2; stroke-opacity:0.1; fill:none" points="
  156.598,1445.72 1776.85,1445.72 
  "/>
<polyline clip-path="url(#clip252)" style="stroke:#000000; stroke-linecap:butt; stroke-linejoin:round; stroke-width:2; stroke-opacity:0.1; fill:none" points="
  156.598,1230.46 1776.85,1230.46 
  "/>
<polyline clip-path="url(#clip252)" style="stroke:#000000; stroke-linecap:butt; stroke-linejoin:round; stroke-width:2; stroke-opacity:0.1; fill:none" points="
  156.598,1015.2 1776.85,1015.2 
  "/>
<polyline clip-path="url(#clip252)" style="stroke:#000000; stroke-linecap:butt; stroke-linejoin:round; stroke-width:2; stroke-opacity:0.1; fill:none" points="
  156.598,799.938 1776.85,799.938 
  "/>
<polyline clip-path="url(#clip252)" style="stroke:#000000; stroke-linecap:butt; stroke-linejoin:round; stroke-width:2; stroke-opacity:0.1; fill:none" points="
  156.598,584.678 1776.85,584.678 
  "/>
<polyline clip-path="url(#clip252)" style="stroke:#000000; stroke-linecap:butt; stroke-linejoin:round; stroke-width:2; stroke-opacity:0.1; fill:none" points="
  156.598,369.418 1776.85,369.418 
  "/>
<polyline clip-path="url(#clip252)" style="stroke:#000000; stroke-linecap:butt; stroke-linejoin:round; stroke-width:2; stroke-opacity:0.1; fill:none" points="
  156.598,154.157 1776.85,154.157 
  "/>
<polyline clip-path="url(#clip250)" style="stroke:#000000; stroke-linecap:butt; stroke-linejoin:round; stroke-width:4; stroke-opacity:1; fill:none" points="
  156.598,1486.45 156.598,47.2441 
  "/>
<polyline clip-path="url(#clip250)" style="stroke:#000000; stroke-linecap:butt; stroke-linejoin:round; stroke-width:4; stroke-opacity:1; fill:none" points="
  156.598,1445.72 170.54,1445.72 
  "/>
<polyline clip-path="url(#clip250)" style="stroke:#000000; stroke-linecap:butt; stroke-linejoin:round; stroke-width:4; stroke-opacity:1; fill:none" points="
  156.598,1230.46 170.54,1230.46 
  "/>
<polyline clip-path="url(#clip250)" style="stroke:#000000; stroke-linecap:butt; stroke-linejoin:round; stroke-width:4; stroke-opacity:1; fill:none" points="
  156.598,1015.2 170.54,1015.2 
  "/>
<polyline clip-path="url(#clip250)" style="stroke:#000000; stroke-linecap:butt; stroke-linejoin:round; stroke-width:4; stroke-opacity:1; fill:none" points="
  156.598,799.938 170.54,799.938 
  "/>
<polyline clip-path="url(#clip250)" style="stroke:#000000; stroke-linecap:butt; stroke-linejoin:round; stroke-width:4; stroke-opacity:1; fill:none" points="
  156.598,584.678 170.54,584.678 
  "/>
<polyline clip-path="url(#clip250)" style="stroke:#000000; stroke-linecap:butt; stroke-linejoin:round; stroke-width:4; stroke-opacity:1; fill:none" points="
  156.598,369.418 170.54,369.418 
  "/>
<polyline clip-path="url(#clip250)" style="stroke:#000000; stroke-linecap:butt; stroke-linejoin:round; stroke-width:4; stroke-opacity:1; fill:none" points="
  156.598,154.157 170.54,154.157 
  "/>
<path clip-path="url(#clip250)" d="M63.4226 1431.52 Q59.8115 1431.52 57.9828 1435.08 Q56.1773 1438.62 56.1773 1445.75 Q56.1773 1452.86 57.9828 1456.42 Q59.8115 1459.97 63.4226 1459.97 Q67.0569 1459.97 68.8624 1456.42 Q70.6911 1452.86 70.6911 1445.75 Q70.6911 1438.62 68.8624 1435.08 Q67.0569 1431.52 63.4226 1431.52 M63.4226 1427.81 Q69.2328 1427.81 72.2883 1432.42 Q75.367 1437 75.367 1445.75 Q75.367 1454.48 72.2883 1459.09 Q69.2328 1463.67 63.4226 1463.67 Q57.6125 1463.67 54.5338 1459.09 Q51.4782 1454.48 51.4782 1445.75 Q51.4782 1437 54.5338 1432.42 Q57.6125 1427.81 63.4226 1427.81 Z" fill="#000000" fill-rule="evenodd" fill-opacity="1" /><path clip-path="url(#clip250)" d="M83.5845 1457.12 L88.4688 1457.12 L88.4688 1463 L83.5845 1463 L83.5845 1457.12 Z" fill="#000000" fill-rule="evenodd" fill-opacity="1" /><path clip-path="url(#clip250)" d="M108.654 1431.52 Q105.043 1431.52 103.214 1435.08 Q101.409 1438.62 101.409 1445.75 Q101.409 1452.86 103.214 1456.42 Q105.043 1459.97 108.654 1459.97 Q112.288 1459.97 114.094 1456.42 Q115.922 1452.86 115.922 1445.75 Q115.922 1438.62 114.094 1435.08 Q112.288 1431.52 108.654 1431.52 M108.654 1427.81 Q114.464 1427.81 117.52 1432.42 Q120.598 1437 120.598 1445.75 Q120.598 1454.48 117.52 1459.09 Q114.464 1463.67 108.654 1463.67 Q102.844 1463.67 99.765 1459.09 Q96.7095 1454.48 96.7095 1445.75 Q96.7095 1437 99.765 1432.42 Q102.844 1427.81 108.654 1427.81 Z" fill="#000000" fill-rule="evenodd" fill-opacity="1" /><path clip-path="url(#clip250)" d="M65.0198 1216.26 Q61.4087 1216.26 59.58 1219.82 Q57.7745 1223.36 57.7745 1230.49 Q57.7745 1237.6 59.58 1241.16 Q61.4087 1244.71 65.0198 1244.71 Q68.6541 1244.71 70.4596 1241.16 Q72.2883 1237.6 72.2883 1230.49 Q72.2883 1223.36 70.4596 1219.82 Q68.6541 1216.26 65.0198 1216.26 M65.0198 1212.55 Q70.83 1212.55 73.8855 1217.16 Q76.9642 1221.74 76.9642 1230.49 Q76.9642 1239.22 73.8855 1243.83 Q70.83 1248.41 65.0198 1248.41 Q59.2097 1248.41 56.131 1243.83 Q53.0754 1239.22 53.0754 1230.49 Q53.0754 1221.74 56.131 1217.16 Q59.2097 1212.55 65.0198 1212.55 Z" fill="#000000" fill-rule="evenodd" fill-opacity="1" /><path clip-path="url(#clip250)" d="M85.1818 1241.86 L90.066 1241.86 L90.066 1247.74 L85.1818 1247.74 L85.1818 1241.86 Z" fill="#000000" fill-rule="evenodd" fill-opacity="1" /><path clip-path="url(#clip250)" d="M104.279 1243.8 L120.598 1243.8 L120.598 1247.74 L98.6539 1247.74 L98.6539 1243.8 Q101.316 1241.05 105.899 1236.42 Q110.506 1231.77 111.686 1230.42 Q113.932 1227.9 114.811 1226.16 Q115.714 1224.41 115.714 1222.72 Q115.714 1219.96 113.77 1218.23 Q111.848 1216.49 108.746 1216.49 Q106.547 1216.49 104.094 1217.25 Q101.663 1218.02 98.8854 1219.57 L98.8854 1214.85 Q101.709 1213.71 104.163 1213.13 Q106.617 1212.55 108.654 1212.55 Q114.024 1212.55 117.219 1215.24 Q120.413 1217.92 120.413 1222.41 Q120.413 1224.54 119.603 1226.47 Q118.816 1228.36 116.709 1230.96 Q116.131 1231.63 113.029 1234.85 Q109.927 1238.04 104.279 1243.8 Z" fill="#000000" fill-rule="evenodd" fill-opacity="1" /><path clip-path="url(#clip250)" d="M62.9365 1001 Q59.3254 1001 57.4967 1004.56 Q55.6912 1008.1 55.6912 1015.23 Q55.6912 1022.34 57.4967 1025.9 Q59.3254 1029.45 62.9365 1029.45 Q66.5707 1029.45 68.3763 1025.9 Q70.205 1022.34 70.205 1015.23 Q70.205 1008.1 68.3763 1004.56 Q66.5707 1001 62.9365 1001 M62.9365 997.293 Q68.7467 997.293 71.8022 1001.9 Q74.8809 1006.48 74.8809 1015.23 Q74.8809 1023.96 71.8022 1028.57 Q68.7467 1033.15 62.9365 1033.15 Q57.1264 1033.15 54.0477 1028.57 Q50.9921 1023.96 50.9921 1015.23 Q50.9921 1006.48 54.0477 1001.9 Q57.1264 997.293 62.9365 997.293 Z" fill="#000000" fill-rule="evenodd" fill-opacity="1" /><path clip-path="url(#clip250)" d="M83.0984 1026.6 L87.9827 1026.6 L87.9827 1032.48 L83.0984 1032.48 L83.0984 1026.6 Z" fill="#000000" fill-rule="evenodd" fill-opacity="1" /><path clip-path="url(#clip250)" d="M111.015 1001.99 L99.2095 1020.44 L111.015 1020.44 L111.015 1001.99 M109.788 997.918 L115.668 997.918 L115.668 1020.44 L120.598 1020.44 L120.598 1024.33 L115.668 1024.33 L115.668 1032.48 L111.015 1032.48 L111.015 1024.33 L95.4132 1024.33 L95.4132 1019.82 L109.788 997.918 Z" fill="#000000" fill-rule="evenodd" fill-opacity="1" /><path clip-path="url(#clip250)" d="M63.2606 785.737 Q59.6495 785.737 57.8208 789.302 Q56.0152 792.843 56.0152 799.973 Q56.0152 807.079 57.8208 810.644 Q59.6495 814.186 63.2606 814.186 Q66.8948 814.186 68.7004 810.644 Q70.5291 807.079 70.5291 799.973 Q70.5291 792.843 68.7004 789.302 Q66.8948 785.737 63.2606 785.737 M63.2606 782.033 Q69.0707 782.033 72.1263 786.64 Q75.205 791.223 75.205 799.973 Q75.205 808.7 72.1263 813.306 Q69.0707 817.889 63.2606 817.889 Q57.4504 817.889 54.3717 813.306 Q51.3162 808.7 51.3162 799.973 Q51.3162 791.223 54.3717 786.64 Q57.4504 782.033 63.2606 782.033 Z" fill="#000000" fill-rule="evenodd" fill-opacity="1" /><path clip-path="url(#clip250)" d="M83.4225 811.339 L88.3067 811.339 L88.3067 817.218 L83.4225 817.218 L83.4225 811.339 Z" fill="#000000" fill-rule="evenodd" fill-opacity="1" /><path clip-path="url(#clip250)" d="M109.071 798.075 Q105.922 798.075 104.071 800.228 Q102.242 802.38 102.242 806.13 Q102.242 809.857 104.071 812.033 Q105.922 814.186 109.071 814.186 Q112.219 814.186 114.047 812.033 Q115.899 809.857 115.899 806.13 Q115.899 802.38 114.047 800.228 Q112.219 798.075 109.071 798.075 M118.353 783.422 L118.353 787.681 Q116.594 786.848 114.788 786.408 Q113.006 785.968 111.246 785.968 Q106.617 785.968 104.163 789.093 Q101.733 792.218 101.385 798.538 Q102.751 796.524 104.811 795.459 Q106.871 794.371 109.348 794.371 Q114.557 794.371 117.566 797.542 Q120.598 800.69 120.598 806.13 Q120.598 811.454 117.45 814.672 Q114.302 817.889 109.071 817.889 Q103.075 817.889 99.9039 813.306 Q96.7326 808.7 96.7326 799.973 Q96.7326 791.778 100.621 786.917 Q104.51 782.033 111.061 782.033 Q112.82 782.033 114.603 782.38 Q116.408 782.728 118.353 783.422 Z" fill="#000000" fill-rule="evenodd" fill-opacity="1" /><path clip-path="url(#clip250)" d="M63.5152 570.477 Q59.9041 570.477 58.0754 574.041 Q56.2699 577.583 56.2699 584.713 Q56.2699 591.819 58.0754 595.384 Q59.9041 598.925 63.5152 598.925 Q67.1494 598.925 68.955 595.384 Q70.7837 591.819 70.7837 584.713 Q70.7837 577.583 68.955 574.041 Q67.1494 570.477 63.5152 570.477 M63.5152 566.773 Q69.3254 566.773 72.3809 571.379 Q75.4596 575.963 75.4596 584.713 Q75.4596 593.439 72.3809 598.046 Q69.3254 602.629 63.5152 602.629 Q57.7051 602.629 54.6264 598.046 Q51.5708 593.439 51.5708 584.713 Q51.5708 575.963 54.6264 571.379 Q57.7051 566.773 63.5152 566.773 Z" fill="#000000" fill-rule="evenodd" fill-opacity="1" /><path clip-path="url(#clip250)" d="M83.6771 596.078 L88.5614 596.078 L88.5614 601.958 L83.6771 601.958 L83.6771 596.078 Z" fill="#000000" fill-rule="evenodd" fill-opacity="1" /><path clip-path="url(#clip250)" d="M108.746 585.546 Q105.413 585.546 103.492 587.328 Q101.594 589.111 101.594 592.236 Q101.594 595.361 103.492 597.143 Q105.413 598.925 108.746 598.925 Q112.08 598.925 114.001 597.143 Q115.922 595.338 115.922 592.236 Q115.922 589.111 114.001 587.328 Q112.103 585.546 108.746 585.546 M104.071 583.555 Q101.061 582.814 99.3715 580.754 Q97.7048 578.694 97.7048 575.731 Q97.7048 571.588 100.645 569.18 Q103.608 566.773 108.746 566.773 Q113.908 566.773 116.848 569.18 Q119.788 571.588 119.788 575.731 Q119.788 578.694 118.098 580.754 Q116.432 582.814 113.445 583.555 Q116.825 584.342 118.7 586.634 Q120.598 588.926 120.598 592.236 Q120.598 597.259 117.52 599.944 Q114.464 602.629 108.746 602.629 Q103.029 602.629 99.9502 599.944 Q96.8947 597.259 96.8947 592.236 Q96.8947 588.926 98.7928 586.634 Q100.691 584.342 104.071 583.555 M102.358 576.171 Q102.358 578.856 104.024 580.361 Q105.714 581.865 108.746 581.865 Q111.756 581.865 113.445 580.361 Q115.158 578.856 115.158 576.171 Q115.158 573.486 113.445 571.981 Q111.756 570.477 108.746 570.477 Q105.714 570.477 104.024 571.981 Q102.358 573.486 102.358 576.171 Z" fill="#000000" fill-rule="evenodd" fill-opacity="1" /><path clip-path="url(#clip250)" d="M54.2328 382.762 L61.8717 382.762 L61.8717 356.397 L53.5616 358.063 L53.5616 353.804 L61.8254 352.138 L66.5013 352.138 L66.5013 382.762 L74.1402 382.762 L74.1402 386.698 L54.2328 386.698 L54.2328 382.762 Z" fill="#000000" fill-rule="evenodd" fill-opacity="1" /><path clip-path="url(#clip250)" d="M83.5845 380.818 L88.4688 380.818 L88.4688 386.698 L83.5845 386.698 L83.5845 380.818 Z" fill="#000000" fill-rule="evenodd" fill-opacity="1" /><path clip-path="url(#clip250)" d="M108.654 355.216 Q105.043 355.216 103.214 358.781 Q101.409 362.323 101.409 369.452 Q101.409 376.559 103.214 380.124 Q105.043 383.665 108.654 383.665 Q112.288 383.665 114.094 380.124 Q115.922 376.559 115.922 369.452 Q115.922 362.323 114.094 358.781 Q112.288 355.216 108.654 355.216 M108.654 351.513 Q114.464 351.513 117.52 356.119 Q120.598 360.702 120.598 369.452 Q120.598 378.179 117.52 382.786 Q114.464 387.369 108.654 387.369 Q102.844 387.369 99.765 382.786 Q96.7095 378.179 96.7095 369.452 Q96.7095 360.702 99.765 356.119 Q102.844 351.513 108.654 351.513 Z" fill="#000000" fill-rule="evenodd" fill-opacity="1" /><path clip-path="url(#clip250)" d="M55.8301 167.502 L63.4689 167.502 L63.4689 141.137 L55.1588 142.803 L55.1588 138.544 L63.4226 136.877 L68.0985 136.877 L68.0985 167.502 L75.7374 167.502 L75.7374 171.437 L55.8301 171.437 L55.8301 167.502 Z" fill="#000000" fill-rule="evenodd" fill-opacity="1" /><path clip-path="url(#clip250)" d="M85.1818 165.558 L90.066 165.558 L90.066 171.437 L85.1818 171.437 L85.1818 165.558 Z" fill="#000000" fill-rule="evenodd" fill-opacity="1" /><path clip-path="url(#clip250)" d="M104.279 167.502 L120.598 167.502 L120.598 171.437 L98.6539 171.437 L98.6539 167.502 Q101.316 164.748 105.899 160.118 Q110.506 155.465 111.686 154.123 Q113.932 151.599 114.811 149.863 Q115.714 148.104 115.714 146.414 Q115.714 143.66 113.77 141.924 Q111.848 140.187 108.746 140.187 Q106.547 140.187 104.094 140.951 Q101.663 141.715 98.8854 143.266 L98.8854 138.544 Q101.709 137.41 104.163 136.831 Q106.617 136.252 108.654 136.252 Q114.024 136.252 117.219 138.937 Q120.413 141.623 120.413 146.113 Q120.413 148.243 119.603 150.164 Q118.816 152.062 116.709 154.655 Q116.131 155.326 113.029 158.544 Q109.927 161.738 104.279 167.502 Z" fill="#000000" fill-rule="evenodd" fill-opacity="1" /><polyline clip-path="url(#clip252)" style="stroke:#009af9; stroke-linecap:butt; stroke-linejoin:round; stroke-width:4; stroke-opacity:1; fill:none" points="
  202.455,1445.71 217.894,1445.71 233.334,1445.71 248.774,1445.71 264.214,1445.46 279.654,1445.37 295.094,1445.15 310.533,1445.11 325.973,1445.12 341.413,1444.97 
  356.853,1444.96 372.293,1445 387.732,1444.92 403.172,1444.84 418.612,1444.74 434.052,1444.63 449.492,1444.57 464.932,1444.61 480.371,1444.42 495.811,1444.3 
  511.251,1444.08 526.691,1444 542.131,1443.99 557.571,1443.94 573.01,1443.88 588.45,1443.72 603.89,1443.49 619.33,1443.34 634.77,1443.62 650.21,1443.38 
  665.649,1443.31 681.089,1443.35 696.529,1443.11 711.969,1443.38 727.409,1443.25 742.849,1443.16 758.288,1443.03 773.728,1443.09 789.168,1443.02 804.608,1426.33 
  820.048,1442.21 835.488,1442.76 850.927,1442.74 866.367,1442.63 881.807,1442.29 897.247,1442.11 912.687,1442.44 928.127,1442.26 943.566,1442.05 959.006,1442.15 
  974.446,1442.11 989.886,1441.83 1005.33,1441.53 1020.77,1441.56 1036.21,1441.51 1051.65,1441.27 1067.08,1440.97 1082.52,1441.3 1097.96,1441.47 1113.4,1441.41 
  1128.84,1441.4 1144.28,1441.13 1159.72,1441.29 1175.16,1441.1 1190.6,1441.19 1206.04,1440.87 1221.48,1440.97 1236.92,1440.8 1252.36,1440.66 1267.8,1440.62 
  1283.24,1440.4 1298.68,1440.61 1314.12,1440.25 1329.56,1440.12 1345,1440.32 1360.44,1440.07 1375.88,1440.11 1391.32,1439.94 1406.76,1439.58 1422.2,1439.91 
  1437.64,1439.83 1453.08,1440 1468.52,1439.72 1483.96,1439.6 1499.4,1439.58 1514.84,1439.59 1530.28,1439.31 1545.72,1439.55 1561.16,1439.42 1576.6,1438.19 
  1592.04,1437.64 1607.48,1428.26 1622.92,1437.4 1638.36,1437.38 1653.8,1437.35 1669.24,1437.47 1684.68,1437.34 1700.12,1437.22 1715.56,1437.84 1731,1436.94 
  
  "/>
<polyline clip-path="url(#clip252)" style="stroke:#e26f46; stroke-linecap:butt; stroke-linejoin:round; stroke-width:4; stroke-opacity:1; fill:none" points="
  202.455,1445.71 217.894,1445.71 233.334,1445.7 248.774,1445.68 264.214,1445.66 279.654,1445.63 295.094,1445.59 310.533,1445.44 325.973,1445.39 341.413,1445.25 
  356.853,1444.97 372.293,1444.88 387.732,1444.69 403.172,1442.46 418.612,1442.19 434.052,1441.77 449.492,1440.77 464.932,1424.97 480.371,1438.49 495.811,1436.29 
  511.251,1435 526.691,1433.72 542.131,1398.74 557.571,1424.34 573.01,1425.79 588.45,1405.53 603.89,1424.1 619.33,1421.64 634.77,1409.65 650.21,1416.29 
  665.649,1402.87 681.089,1400.88 696.529,1397.6 711.969,1402.28 727.409,1389.98 742.849,1386.13 758.288,1371.97 773.728,1379.71 789.168,1371.27 804.608,1368.19 
  820.048,1353.72 835.488,1354.09 850.927,1341.71 866.367,1337.31 881.807,1326.6 897.247,1317.16 912.687,1290.34 928.127,1303.47 943.566,1294.77 959.006,1283.3 
  974.446,1335.91 989.886,1310.6 1005.33,1337.74 1020.77,1318.48 1036.21,1318.82 1051.65,1307.97 1067.08,1304.15 1082.52,1302.98 1097.96,1297.13 1113.4,1294.47 
  1128.84,1247.02 1144.28,1278.62 1159.72,1267.34 1175.16,1260.61 1190.6,1237.78 1206.04,1245.2 1221.48,1223.59 1236.92,1227.9 1252.36,1202.58 1267.8,1185.65 
  1283.24,1162.26 1298.68,1183.62 1314.12,1144.14 1329.56,1145.07 1345,1130.91 1360.44,1132.32 1375.88,1069.12 1391.32,1063.78 1406.76,1050.16 1422.2,1035.66 
  1437.64,1009.42 1453.08,1002.93 1468.52,943.277 1483.96,1004.86 1499.4,957.153 1514.84,589.65 1530.28,929.143 1545.72,953.522 1561.16,886.721 1576.6,883.326 
  1592.04,853.876 1607.48,904.395 1622.92,806.294 1638.36,819.158 1653.8,780.428 1669.24,791.651 1684.68,705.917 1700.12,726.538 1715.56,645.846 1731,736.756 
  
  "/>
<polyline clip-path="url(#clip252)" style="stroke:#3da44d; stroke-linecap:butt; stroke-linejoin:round; stroke-width:4; stroke-opacity:1; fill:none" points="
  202.455,1445.72 217.894,1445.7 233.334,1445.69 248.774,1445.66 264.214,1445.6 279.654,1445.54 295.094,1445.4 310.533,1445 325.973,1444.93 341.413,1444.26 
  356.853,1443.69 372.293,1442.98 387.732,1442.32 403.172,1441.27 418.612,1440.21 434.052,1434.1 449.492,1438.78 464.932,1437.32 480.371,1435.9 495.811,1425.86 
  511.251,1431.5 526.691,1421.24 542.131,1427.34 557.571,1418.62 573.01,1421.24 588.45,1412.97 603.89,1408.92 619.33,1405.95 634.77,1401.53 650.21,1397.41 
  665.649,1386.04 681.089,1386.96 696.529,1377.02 711.969,1375.67 727.409,1365.65 742.849,1360.74 758.288,1344.41 773.728,1343.81 789.168,1332.44 804.608,1332.96 
  820.048,1309.84 835.488,1301.86 850.927,1297.01 866.367,1285.18 881.807,1267.2 897.247,1250.04 912.687,1243.77 928.127,1224.97 943.566,1221.18 959.006,1211.73 
  974.446,1265.46 989.886,1229.03 1005.33,1254.74 1020.77,1246.27 1036.21,1237.46 1051.65,1228.79 1067.08,1213.45 1082.52,1207.95 1097.96,1195.46 1113.4,1200.6 
  1128.84,1175.01 1144.28,1171.07 1159.72,1159.38 1175.16,1149.65 1190.6,1116.42 1206.04,1118.1 1221.48,1059.83 1236.92,1090.1 1252.36,1041.49 1267.8,1031.71 
  1283.24,1024.79 1298.68,1029.64 1314.12,983.634 1329.56,957.775 1345,956.012 1360.44,892.411 1375.88,809.7 1391.32,872.956 1406.76,823.817 1422.2,801.893 
  1437.64,755.454 1453.08,756.123 1468.52,644.928 1483.96,715.051 1499.4,650.707 1514.84,623.867 1530.28,549.911 1545.72,594.949 1561.16,471.717 1576.6,480.643 
  1592.04,496.22 1607.48,561.12 1622.92,423.753 1638.36,386.666 1653.8,375.508 1669.24,370.553 1684.68,273.697 1700.12,287.446 1715.56,87.9763 1731,255.852 
  
  "/>
<polyline clip-path="url(#clip252)" style="stroke:#c271d2; stroke-linecap:butt; stroke-linejoin:round; stroke-width:4; stroke-opacity:1; fill:none" points="
  202.455,1445.72 217.894,1445.7 233.334,1445.7 248.774,1445.67 264.214,1445.63 279.654,1445.57 295.094,1445.5 310.533,1445.38 325.973,1445.16 341.413,1445.06 
  356.853,1444.89 372.293,1444.66 387.732,1444.39 403.172,1443.99 418.612,1443.74 434.052,1442.71 449.492,1442.42 464.932,1438.52 480.371,1437.53 495.811,1426.61 
  511.251,1435.03 526.691,1432.69 542.131,1431.49 557.571,1416.55 573.01,1426.95 588.45,1424.7 603.89,1409.51 619.33,1419.34 634.77,1405.32 650.21,1402.58 
  665.649,1409.25 681.089,1395.82 696.529,1391.75 711.969,1385.01 727.409,1367.97 742.849,1367.2 758.288,1371.63 773.728,1357.48 789.168,1362.98 804.608,1347.62 
  820.048,1346.46 835.488,1333.1 850.927,1325.84 866.367,1321.4 881.807,1303.15 897.247,1256.03 912.687,1276.97 928.127,1278.91 943.566,1271.1 959.006,1269.06 
  974.446,1286.79 989.886,1238.37 1005.33,1280.79 1020.77,1274.46 1036.21,1263.33 1051.65,1266.01 1067.08,1245.2 1082.52,1249.81 1097.96,1241.39 1113.4,1240.24 
  1128.84,1220.8 1144.28,1209.56 1159.72,1201.59 1175.16,1181.97 1190.6,1154.59 1206.04,1156.19 1221.48,1149.93 1236.92,1141.41 1252.36,1108.86 1267.8,1081.82 
  1283.24,1089.03 1298.68,1079.74 1314.12,1043.89 1329.56,1051.22 1345,1027.01 1360.44,1016.04 1375.88,590.616 1391.32,979.637 1406.76,973.302 1422.2,950.579 
  1437.64,933.754 1453.08,939.288 1468.52,859.712 1483.96,911.627 1499.4,825.568 1514.84,786.263 1530.28,789.281 1545.72,817.205 1561.16,736.267 1576.6,765.85 
  1592.04,665.69 1607.48,749.449 1622.92,503.018 1638.36,571.244 1653.8,531.075 1669.24,563.642 1684.68,466.765 1700.12,453.877 1715.56,413.077 1731,495.592 
  
  "/>
<path clip-path="url(#clip250)" d="
M1850.06 354.418 L2352.76 354.418 L2352.76 95.2176 L1850.06 95.2176  Z
  " fill="#ffffff" fill-rule="evenodd" fill-opacity="1"/>
<polyline clip-path="url(#clip250)" style="stroke:#000000; stroke-linecap:butt; stroke-linejoin:round; stroke-width:4; stroke-opacity:1; fill:none" points="
  1850.06,354.418 2352.76,354.418 2352.76,95.2176 1850.06,95.2176 1850.06,354.418 
  "/>
<polyline clip-path="url(#clip250)" style="stroke:#009af9; stroke-linecap:butt; stroke-linejoin:round; stroke-width:4; stroke-opacity:1; fill:none" points="
  1874.46,147.058 2020.87,147.058 
  "/>
<path clip-path="url(#clip250)" d="M2045.27 128.319 L2049.53 128.319 L2049.53 164.338 L2045.27 164.338 L2045.27 128.319 Z" fill="#000000" fill-rule="evenodd" fill-opacity="1" /><path clip-path="url(#clip250)" d="M2058.44 138.412 L2062.7 138.412 L2062.7 164.338 L2058.44 164.338 L2058.44 138.412 M2058.44 128.319 L2062.7 128.319 L2062.7 133.713 L2058.44 133.713 L2058.44 128.319 Z" fill="#000000" fill-rule="evenodd" fill-opacity="1" /><path clip-path="url(#clip250)" d="M2090.23 151.398 Q2090.23 146.699 2088.28 144.037 Q2086.36 141.352 2082.98 141.352 Q2079.6 141.352 2077.66 144.037 Q2075.74 146.699 2075.74 151.398 Q2075.74 156.097 2077.66 158.782 Q2079.6 161.444 2082.98 161.444 Q2086.36 161.444 2088.28 158.782 Q2090.23 156.097 2090.23 151.398 M2075.74 142.347 Q2077.08 140.032 2079.12 138.921 Q2081.18 137.787 2084.02 137.787 Q2088.75 137.787 2091.69 141.537 Q2094.65 145.287 2094.65 151.398 Q2094.65 157.509 2091.69 161.259 Q2088.75 165.009 2084.02 165.009 Q2081.18 165.009 2079.12 163.898 Q2077.08 162.763 2075.74 160.449 L2075.74 164.338 L2071.45 164.338 L2071.45 128.319 L2075.74 128.319 L2075.74 142.347 Z" fill="#000000" fill-rule="evenodd" fill-opacity="1" /><path clip-path="url(#clip250)" d="M2133.31 139.176 L2133.31 143.203 Q2131.5 142.277 2129.56 141.815 Q2127.61 141.352 2125.53 141.352 Q2122.36 141.352 2120.76 142.324 Q2119.18 143.296 2119.18 145.24 Q2119.18 146.722 2120.32 147.578 Q2121.45 148.412 2124.88 149.176 L2126.34 149.5 Q2130.87 150.472 2132.77 152.254 Q2134.69 154.014 2134.69 157.185 Q2134.69 160.796 2131.82 162.902 Q2128.98 165.009 2123.98 165.009 Q2121.89 165.009 2119.62 164.592 Q2117.38 164.199 2114.88 163.388 L2114.88 158.99 Q2117.24 160.217 2119.53 160.842 Q2121.82 161.444 2124.07 161.444 Q2127.08 161.444 2128.7 160.426 Q2130.32 159.384 2130.32 157.509 Q2130.32 155.773 2129.14 154.847 Q2127.98 153.921 2124.02 153.064 L2122.54 152.717 Q2118.58 151.884 2116.82 150.171 Q2115.06 148.435 2115.06 145.426 Q2115.06 141.768 2117.66 139.778 Q2120.25 137.787 2125.02 137.787 Q2127.38 137.787 2129.46 138.134 Q2131.55 138.481 2133.31 139.176 Z" fill="#000000" fill-rule="evenodd" fill-opacity="1" /><path clip-path="url(#clip250)" d="M2151.52 141.398 Q2148.1 141.398 2146.11 144.083 Q2144.12 146.745 2144.12 151.398 Q2144.12 156.051 2146.08 158.736 Q2148.07 161.398 2151.52 161.398 Q2154.93 161.398 2156.92 158.713 Q2158.91 156.027 2158.91 151.398 Q2158.91 146.791 2156.92 144.106 Q2154.93 141.398 2151.52 141.398 M2151.52 137.787 Q2157.08 137.787 2160.25 141.398 Q2163.42 145.009 2163.42 151.398 Q2163.42 157.764 2160.25 161.398 Q2157.08 165.009 2151.52 165.009 Q2145.94 165.009 2142.77 161.398 Q2139.62 157.764 2139.62 151.398 Q2139.62 145.009 2142.77 141.398 Q2145.94 137.787 2151.52 137.787 Z" fill="#000000" fill-rule="evenodd" fill-opacity="1" /><path clip-path="url(#clip250)" d="M2170.48 128.319 L2174.74 128.319 L2174.74 164.338 L2170.48 164.338 L2170.48 128.319 Z" fill="#000000" fill-rule="evenodd" fill-opacity="1" /><path clip-path="url(#clip250)" d="M2180.6 138.412 L2185.11 138.412 L2193.21 160.171 L2201.31 138.412 L2205.83 138.412 L2196.11 164.338 L2190.32 164.338 L2180.6 138.412 Z" fill="#000000" fill-rule="evenodd" fill-opacity="1" /><path clip-path="url(#clip250)" d="M2233.88 150.31 L2233.88 152.393 L2214.3 152.393 Q2214.58 156.791 2216.94 159.106 Q2219.32 161.398 2223.56 161.398 Q2226.01 161.398 2228.3 160.796 Q2230.62 160.194 2232.89 158.99 L2232.89 163.018 Q2230.6 163.99 2228.19 164.5 Q2225.78 165.009 2223.3 165.009 Q2217.1 165.009 2213.47 161.398 Q2209.86 157.787 2209.86 151.629 Q2209.86 145.264 2213.28 141.537 Q2216.73 137.787 2222.56 137.787 Q2227.8 137.787 2230.83 141.166 Q2233.88 144.523 2233.88 150.31 M2229.62 149.06 Q2229.58 145.565 2227.66 143.481 Q2225.76 141.398 2222.61 141.398 Q2219.05 141.398 2216.89 143.412 Q2214.76 145.426 2214.44 149.083 L2229.62 149.06 Z" fill="#000000" fill-rule="evenodd" fill-opacity="1" /><path clip-path="url(#clip250)" d="M2255.9 142.393 Q2255.18 141.977 2254.32 141.791 Q2253.49 141.583 2252.47 141.583 Q2248.86 141.583 2246.92 143.944 Q2244.99 146.282 2244.99 150.68 L2244.99 164.338 L2240.71 164.338 L2240.71 138.412 L2244.99 138.412 L2244.99 142.44 Q2246.34 140.078 2248.49 138.944 Q2250.64 137.787 2253.72 137.787 Q2254.16 137.787 2254.69 137.856 Q2255.23 137.903 2255.87 138.018 L2255.9 142.393 Z" fill="#000000" fill-rule="evenodd" fill-opacity="1" /><polyline clip-path="url(#clip250)" style="stroke:#e26f46; stroke-linecap:butt; stroke-linejoin:round; stroke-width:4; stroke-opacity:1; fill:none" points="
  1874.46,198.898 2020.87,198.898 
  "/>
<path clip-path="url(#clip250)" d="M2065.62 195.229 Q2067.22 192.358 2069.44 190.993 Q2071.66 189.627 2074.67 189.627 Q2078.72 189.627 2080.92 192.474 Q2083.12 195.298 2083.12 200.529 L2083.12 216.178 L2078.84 216.178 L2078.84 200.668 Q2078.84 196.942 2077.52 195.136 Q2076.2 193.33 2073.49 193.33 Q2070.18 193.33 2068.26 195.53 Q2066.34 197.729 2066.34 201.525 L2066.34 216.178 L2062.06 216.178 L2062.06 200.668 Q2062.06 196.918 2060.74 195.136 Q2059.42 193.33 2056.66 193.33 Q2053.4 193.33 2051.48 195.553 Q2049.56 197.752 2049.56 201.525 L2049.56 216.178 L2045.27 216.178 L2045.27 190.252 L2049.56 190.252 L2049.56 194.28 Q2051.01 191.895 2053.05 190.761 Q2055.09 189.627 2057.89 189.627 Q2060.71 189.627 2062.68 191.062 Q2064.67 192.497 2065.62 195.229 Z" fill="#000000" fill-rule="evenodd" fill-opacity="1" /><path clip-path="url(#clip250)" d="M2102.4 218.585 Q2100.6 223.215 2098.88 224.627 Q2097.17 226.039 2094.3 226.039 L2090.9 226.039 L2090.9 222.474 L2093.4 222.474 Q2095.16 222.474 2096.13 221.64 Q2097.1 220.807 2098.28 217.705 L2099.05 215.761 L2088.56 190.252 L2093.07 190.252 L2101.18 210.529 L2109.28 190.252 L2113.79 190.252 L2102.4 218.585 Z" fill="#000000" fill-rule="evenodd" fill-opacity="1" /><path clip-path="url(#clip250)" d="M2151.8 202.914 Q2151.8 198.284 2149.88 195.738 Q2147.98 193.192 2144.53 193.192 Q2141.11 193.192 2139.18 195.738 Q2137.29 198.284 2137.29 202.914 Q2137.29 207.52 2139.18 210.066 Q2141.11 212.613 2144.53 212.613 Q2147.98 212.613 2149.88 210.066 Q2151.8 207.52 2151.8 202.914 M2156.06 212.96 Q2156.06 219.58 2153.12 222.798 Q2150.18 226.039 2144.12 226.039 Q2141.87 226.039 2139.88 225.691 Q2137.89 225.367 2136.01 224.673 L2136.01 220.529 Q2137.89 221.548 2139.72 222.034 Q2141.55 222.52 2143.44 222.52 Q2147.63 222.52 2149.72 220.321 Q2151.8 218.145 2151.8 213.724 L2151.8 211.617 Q2150.48 213.909 2148.42 215.043 Q2146.36 216.178 2143.49 216.178 Q2138.72 216.178 2135.81 212.543 Q2132.89 208.909 2132.89 202.914 Q2132.89 196.895 2135.81 193.261 Q2138.72 189.627 2143.49 189.627 Q2146.36 189.627 2148.42 190.761 Q2150.48 191.895 2151.8 194.187 L2151.8 190.252 L2156.06 190.252 L2156.06 212.96 Z" fill="#000000" fill-rule="evenodd" fill-opacity="1" /><path clip-path="url(#clip250)" d="M2181.36 191.016 L2181.36 195.043 Q2179.55 194.117 2177.61 193.655 Q2175.67 193.192 2173.58 193.192 Q2170.41 193.192 2168.81 194.164 Q2167.24 195.136 2167.24 197.08 Q2167.24 198.562 2168.37 199.418 Q2169.51 200.252 2172.93 201.016 L2174.39 201.34 Q2178.93 202.312 2180.83 204.094 Q2182.75 205.854 2182.75 209.025 Q2182.75 212.636 2179.88 214.742 Q2177.03 216.849 2172.03 216.849 Q2169.95 216.849 2167.68 216.432 Q2165.43 216.039 2162.93 215.228 L2162.93 210.83 Q2165.3 212.057 2167.59 212.682 Q2169.88 213.284 2172.12 213.284 Q2175.13 213.284 2176.75 212.266 Q2178.37 211.224 2178.37 209.349 Q2178.37 207.613 2177.19 206.687 Q2176.04 205.761 2172.08 204.904 L2170.6 204.557 Q2166.64 203.724 2164.88 202.011 Q2163.12 200.275 2163.12 197.266 Q2163.12 193.608 2165.71 191.618 Q2168.3 189.627 2173.07 189.627 Q2175.43 189.627 2177.52 189.974 Q2179.6 190.321 2181.36 191.016 Z" fill="#000000" fill-rule="evenodd" fill-opacity="1" /><path clip-path="url(#clip250)" d="M2199.58 193.238 Q2196.15 193.238 2194.16 195.923 Q2192.17 198.585 2192.17 203.238 Q2192.17 207.891 2194.14 210.576 Q2196.13 213.238 2199.58 213.238 Q2202.98 213.238 2204.97 210.553 Q2206.96 207.867 2206.96 203.238 Q2206.96 198.631 2204.97 195.946 Q2202.98 193.238 2199.58 193.238 M2199.58 189.627 Q2205.13 189.627 2208.3 193.238 Q2211.48 196.849 2211.48 203.238 Q2211.48 209.604 2208.3 213.238 Q2205.13 216.849 2199.58 216.849 Q2194 216.849 2190.83 213.238 Q2187.68 209.604 2187.68 203.238 Q2187.68 196.849 2190.83 193.238 Q2194 189.627 2199.58 189.627 Z" fill="#000000" fill-rule="evenodd" fill-opacity="1" /><path clip-path="url(#clip250)" d="M2218.54 180.159 L2222.8 180.159 L2222.8 216.178 L2218.54 216.178 L2218.54 180.159 Z" fill="#000000" fill-rule="evenodd" fill-opacity="1" /><path clip-path="url(#clip250)" d="M2228.65 190.252 L2233.17 190.252 L2241.27 212.011 L2249.37 190.252 L2253.88 190.252 L2244.16 216.178 L2238.37 216.178 L2228.65 190.252 Z" fill="#000000" fill-rule="evenodd" fill-opacity="1" /><path clip-path="url(#clip250)" d="M2281.94 202.15 L2281.94 204.233 L2262.36 204.233 Q2262.63 208.631 2264.99 210.946 Q2267.38 213.238 2271.61 213.238 Q2274.07 213.238 2276.36 212.636 Q2278.67 212.034 2280.94 210.83 L2280.94 214.858 Q2278.65 215.83 2276.24 216.34 Q2273.84 216.849 2271.36 216.849 Q2265.16 216.849 2261.52 213.238 Q2257.91 209.627 2257.91 203.469 Q2257.91 197.104 2261.34 193.377 Q2264.79 189.627 2270.62 189.627 Q2275.85 189.627 2278.88 193.006 Q2281.94 196.363 2281.94 202.15 M2277.68 200.9 Q2277.63 197.405 2275.71 195.321 Q2273.81 193.238 2270.67 193.238 Q2267.1 193.238 2264.95 195.252 Q2262.82 197.266 2262.49 200.923 L2277.68 200.9 Z" fill="#000000" fill-rule="evenodd" fill-opacity="1" /><path clip-path="url(#clip250)" d="M2303.95 194.233 Q2303.23 193.817 2302.38 193.631 Q2301.55 193.423 2300.53 193.423 Q2296.92 193.423 2294.97 195.784 Q2293.05 198.122 2293.05 202.52 L2293.05 216.178 L2288.77 216.178 L2288.77 190.252 L2293.05 190.252 L2293.05 194.28 Q2294.39 191.918 2296.55 190.784 Q2298.7 189.627 2301.78 189.627 Q2302.22 189.627 2302.75 189.696 Q2303.28 189.743 2303.93 189.858 L2303.95 194.233 Z" fill="#000000" fill-rule="evenodd" fill-opacity="1" /><polyline clip-path="url(#clip250)" style="stroke:#3da44d; stroke-linecap:butt; stroke-linejoin:round; stroke-width:4; stroke-opacity:1; fill:none" points="
  1874.46,250.738 2020.87,250.738 
  "/>
<path clip-path="url(#clip250)" d="M2064.19 254.754 Q2064.19 250.124 2062.26 247.578 Q2060.37 245.032 2056.92 245.032 Q2053.49 245.032 2051.57 247.578 Q2049.67 250.124 2049.67 254.754 Q2049.67 259.36 2051.57 261.906 Q2053.49 264.453 2056.92 264.453 Q2060.37 264.453 2062.26 261.906 Q2064.19 259.36 2064.19 254.754 M2068.44 264.8 Q2068.44 271.42 2065.5 274.638 Q2062.56 277.879 2056.5 277.879 Q2054.25 277.879 2052.26 277.531 Q2050.27 277.207 2048.4 276.513 L2048.4 272.369 Q2050.27 273.388 2052.1 273.874 Q2053.93 274.36 2055.83 274.36 Q2060.02 274.36 2062.1 272.161 Q2064.19 269.985 2064.19 265.564 L2064.19 263.457 Q2062.87 265.749 2060.81 266.883 Q2058.75 268.018 2055.88 268.018 Q2051.11 268.018 2048.19 264.383 Q2045.27 260.749 2045.27 254.754 Q2045.27 248.735 2048.19 245.101 Q2051.11 241.467 2055.88 241.467 Q2058.75 241.467 2060.81 242.601 Q2062.87 243.735 2064.19 246.027 L2064.19 242.092 L2068.44 242.092 L2068.44 264.8 Z" fill="#000000" fill-rule="evenodd" fill-opacity="1" /><path clip-path="url(#clip250)" d="M2114.46 253.99 L2114.46 256.073 L2094.88 256.073 Q2095.16 260.471 2097.52 262.786 Q2099.9 265.078 2104.14 265.078 Q2106.59 265.078 2108.88 264.476 Q2111.2 263.874 2113.47 262.67 L2113.47 266.698 Q2111.18 267.67 2108.77 268.18 Q2106.36 268.689 2103.88 268.689 Q2097.68 268.689 2094.05 265.078 Q2090.44 261.467 2090.44 255.309 Q2090.44 248.944 2093.86 245.217 Q2097.31 241.467 2103.14 241.467 Q2108.37 241.467 2111.41 244.846 Q2114.46 248.203 2114.46 253.99 M2110.2 252.74 Q2110.16 249.245 2108.24 247.161 Q2106.34 245.078 2103.19 245.078 Q2099.62 245.078 2097.47 247.092 Q2095.34 249.106 2095.02 252.763 L2110.2 252.74 Z" fill="#000000" fill-rule="evenodd" fill-opacity="1" /><path clip-path="url(#clip250)" d="M2142.17 242.092 L2132.8 254.707 L2142.66 268.018 L2137.63 268.018 L2130.09 257.832 L2122.54 268.018 L2117.52 268.018 L2127.59 254.453 L2118.37 242.092 L2123.4 242.092 L2130.27 251.328 L2137.15 242.092 L2142.17 242.092 Z" fill="#000000" fill-rule="evenodd" fill-opacity="1" /><path clip-path="url(#clip250)" d="M2152.8 264.129 L2152.8 277.879 L2148.51 277.879 L2148.51 242.092 L2152.8 242.092 L2152.8 246.027 Q2154.14 243.712 2156.18 242.601 Q2158.24 241.467 2161.08 241.467 Q2165.8 241.467 2168.74 245.217 Q2171.71 248.967 2171.71 255.078 Q2171.71 261.189 2168.74 264.939 Q2165.8 268.689 2161.08 268.689 Q2158.24 268.689 2156.18 267.578 Q2154.14 266.443 2152.8 264.129 M2167.29 255.078 Q2167.29 250.379 2165.34 247.717 Q2163.42 245.032 2160.04 245.032 Q2156.66 245.032 2154.72 247.717 Q2152.8 250.379 2152.8 255.078 Q2152.8 259.777 2154.72 262.462 Q2156.66 265.124 2160.04 265.124 Q2163.42 265.124 2165.34 262.462 Q2167.29 259.777 2167.29 255.078 Z" fill="#000000" fill-rule="evenodd" fill-opacity="1" /><path clip-path="url(#clip250)" d="M2178.77 231.999 L2183.03 231.999 L2183.03 268.018 L2178.77 268.018 L2178.77 231.999 Z" fill="#000000" fill-rule="evenodd" fill-opacity="1" /><path clip-path="url(#clip250)" d="M2191.94 242.092 L2196.2 242.092 L2196.2 268.018 L2191.94 268.018 L2191.94 242.092 M2191.94 231.999 L2196.2 231.999 L2196.2 237.393 L2191.94 237.393 L2191.94 231.999 Z" fill="#000000" fill-rule="evenodd" fill-opacity="1" /><path clip-path="url(#clip250)" d="M2223.77 243.087 L2223.77 247.069 Q2221.96 246.073 2220.13 245.587 Q2218.33 245.078 2216.48 245.078 Q2212.33 245.078 2210.04 247.717 Q2207.75 250.332 2207.75 255.078 Q2207.75 259.823 2210.04 262.462 Q2212.33 265.078 2216.48 265.078 Q2218.33 265.078 2220.13 264.592 Q2221.96 264.082 2223.77 263.087 L2223.77 267.022 Q2221.99 267.856 2220.06 268.272 Q2218.17 268.689 2216.01 268.689 Q2210.16 268.689 2206.71 265.008 Q2203.26 261.328 2203.26 255.078 Q2203.26 248.735 2206.73 245.101 Q2210.23 241.467 2216.29 241.467 Q2218.26 241.467 2220.13 241.883 Q2222.01 242.277 2223.77 243.087 Z" fill="#000000" fill-rule="evenodd" fill-opacity="1" /><path clip-path="url(#clip250)" d="M2231.18 242.092 L2235.43 242.092 L2235.43 268.018 L2231.18 268.018 L2231.18 242.092 M2231.18 231.999 L2235.43 231.999 L2235.43 237.393 L2231.18 237.393 L2231.18 231.999 Z" fill="#000000" fill-rule="evenodd" fill-opacity="1" /><path clip-path="url(#clip250)" d="M2248.56 234.731 L2248.56 242.092 L2257.33 242.092 L2257.33 245.402 L2248.56 245.402 L2248.56 259.476 Q2248.56 262.647 2249.42 263.55 Q2250.3 264.453 2252.96 264.453 L2257.33 264.453 L2257.33 268.018 L2252.96 268.018 Q2248.03 268.018 2246.15 266.189 Q2244.28 264.337 2244.28 259.476 L2244.28 245.402 L2241.15 245.402 L2241.15 242.092 L2244.28 242.092 L2244.28 234.731 L2248.56 234.731 Z" fill="#000000" fill-rule="evenodd" fill-opacity="1" /><polyline clip-path="url(#clip250)" style="stroke:#c271d2; stroke-linecap:butt; stroke-linejoin:round; stroke-width:4; stroke-opacity:1; fill:none" points="
  1874.46,302.578 2020.87,302.578 
  "/>
<path clip-path="url(#clip250)" d="M2064.19 306.594 Q2064.19 301.964 2062.26 299.418 Q2060.37 296.872 2056.92 296.872 Q2053.49 296.872 2051.57 299.418 Q2049.67 301.964 2049.67 306.594 Q2049.67 311.2 2051.57 313.746 Q2053.49 316.293 2056.92 316.293 Q2060.37 316.293 2062.26 313.746 Q2064.19 311.2 2064.19 306.594 M2068.44 316.64 Q2068.44 323.26 2065.5 326.478 Q2062.56 329.719 2056.5 329.719 Q2054.25 329.719 2052.26 329.371 Q2050.27 329.047 2048.4 328.353 L2048.4 324.209 Q2050.27 325.228 2052.1 325.714 Q2053.93 326.2 2055.83 326.2 Q2060.02 326.2 2062.1 324.001 Q2064.19 321.825 2064.19 317.404 L2064.19 315.297 Q2062.87 317.589 2060.81 318.723 Q2058.75 319.858 2055.88 319.858 Q2051.11 319.858 2048.19 316.223 Q2045.27 312.589 2045.27 306.594 Q2045.27 300.575 2048.19 296.941 Q2051.11 293.307 2055.88 293.307 Q2058.75 293.307 2060.81 294.441 Q2062.87 295.575 2064.19 297.867 L2064.19 293.932 L2068.44 293.932 L2068.44 316.64 Z" fill="#000000" fill-rule="evenodd" fill-opacity="1" /><path clip-path="url(#clip250)" d="M2092.29 293.932 L2096.55 293.932 L2096.55 319.858 L2092.29 319.858 L2092.29 293.932 M2092.29 283.839 L2096.55 283.839 L2096.55 289.233 L2092.29 289.233 L2092.29 283.839 Z" fill="#000000" fill-rule="evenodd" fill-opacity="1" /><path clip-path="url(#clip250)" d="M2125.64 298.909 Q2127.24 296.038 2129.46 294.673 Q2131.68 293.307 2134.69 293.307 Q2138.74 293.307 2140.94 296.154 Q2143.14 298.978 2143.14 304.209 L2143.14 319.858 L2138.86 319.858 L2138.86 304.348 Q2138.86 300.622 2137.54 298.816 Q2136.22 297.01 2133.51 297.01 Q2130.2 297.01 2128.28 299.21 Q2126.36 301.409 2126.36 305.205 L2126.36 319.858 L2122.08 319.858 L2122.08 304.348 Q2122.08 300.598 2120.76 298.816 Q2119.44 297.01 2116.68 297.01 Q2113.42 297.01 2111.5 299.233 Q2109.58 301.432 2109.58 305.205 L2109.58 319.858 L2105.3 319.858 L2105.3 293.932 L2109.58 293.932 L2109.58 297.96 Q2111.04 295.575 2113.07 294.441 Q2115.11 293.307 2117.91 293.307 Q2120.74 293.307 2122.7 294.742 Q2124.69 296.177 2125.64 298.909 Z" fill="#000000" fill-rule="evenodd" fill-opacity="1" /><path clip-path="url(#clip250)" d="M2155.76 315.969 L2155.76 329.719 L2151.48 329.719 L2151.48 293.932 L2155.76 293.932 L2155.76 297.867 Q2157.1 295.552 2159.14 294.441 Q2161.2 293.307 2164.05 293.307 Q2168.77 293.307 2171.71 297.057 Q2174.67 300.807 2174.67 306.918 Q2174.67 313.029 2171.71 316.779 Q2168.77 320.529 2164.05 320.529 Q2161.2 320.529 2159.14 319.418 Q2157.1 318.283 2155.76 315.969 M2170.25 306.918 Q2170.25 302.219 2168.3 299.557 Q2166.38 296.872 2163 296.872 Q2159.62 296.872 2157.68 299.557 Q2155.76 302.219 2155.76 306.918 Q2155.76 311.617 2157.68 314.302 Q2159.62 316.964 2163 316.964 Q2166.38 316.964 2168.3 314.302 Q2170.25 311.617 2170.25 306.918 Z" fill="#000000" fill-rule="evenodd" fill-opacity="1" /><path clip-path="url(#clip250)" d="M2181.73 283.839 L2185.99 283.839 L2185.99 319.858 L2181.73 319.858 L2181.73 283.839 Z" fill="#000000" fill-rule="evenodd" fill-opacity="1" /><path clip-path="url(#clip250)" d="M2194.9 293.932 L2199.16 293.932 L2199.16 319.858 L2194.9 319.858 L2194.9 293.932 M2194.9 283.839 L2199.16 283.839 L2199.16 289.233 L2194.9 289.233 L2194.9 283.839 Z" fill="#000000" fill-rule="evenodd" fill-opacity="1" /><path clip-path="url(#clip250)" d="M2226.73 294.927 L2226.73 298.909 Q2224.93 297.913 2223.1 297.427 Q2221.29 296.918 2219.44 296.918 Q2215.3 296.918 2213 299.557 Q2210.71 302.172 2210.71 306.918 Q2210.71 311.663 2213 314.302 Q2215.3 316.918 2219.44 316.918 Q2221.29 316.918 2223.1 316.432 Q2224.93 315.922 2226.73 314.927 L2226.73 318.862 Q2224.95 319.696 2223.03 320.112 Q2221.13 320.529 2218.98 320.529 Q2213.12 320.529 2209.67 316.848 Q2206.22 313.168 2206.22 306.918 Q2206.22 300.575 2209.69 296.941 Q2213.19 293.307 2219.25 293.307 Q2221.22 293.307 2223.1 293.723 Q2224.97 294.117 2226.73 294.927 Z" fill="#000000" fill-rule="evenodd" fill-opacity="1" /><path clip-path="url(#clip250)" d="M2234.14 293.932 L2238.4 293.932 L2238.4 319.858 L2234.14 319.858 L2234.14 293.932 M2234.14 283.839 L2238.4 283.839 L2238.4 289.233 L2234.14 289.233 L2234.14 283.839 Z" fill="#000000" fill-rule="evenodd" fill-opacity="1" /><path clip-path="url(#clip250)" d="M2251.52 286.571 L2251.52 293.932 L2260.3 293.932 L2260.3 297.242 L2251.52 297.242 L2251.52 311.316 Q2251.52 314.487 2252.38 315.39 Q2253.26 316.293 2255.92 316.293 L2260.3 316.293 L2260.3 319.858 L2255.92 319.858 Q2250.99 319.858 2249.11 318.029 Q2247.24 316.177 2247.24 311.316 L2247.24 297.242 L2244.11 297.242 L2244.11 293.932 L2247.24 293.932 L2247.24 286.571 L2251.52 286.571 Z" fill="#000000" fill-rule="evenodd" fill-opacity="1" /></svg>
