<?xml version="1.0" encoding="utf-8"?>
<svg xmlns="http://www.w3.org/2000/svg" xmlns:xlink="http://www.w3.org/1999/xlink" width="600" height="400" viewBox="0 0 2400 1600">
<defs>
  <clipPath id="clip150">
    <rect x="0" y="0" width="2400" height="1600"/>
  </clipPath>
</defs>
<path clip-path="url(#clip150)" d="
M0 1600 L2400 1600 L2400 0 L0 0  Z
  " fill="#ffffff" fill-rule="evenodd" fill-opacity="1"/>
<defs>
  <clipPath id="clip151">
    <rect x="480" y="0" width="1681" height="1600"/>
  </clipPath>
</defs>
<defs>
  <clipPath id="clip152">
    <rect x="186" y="178" width="2167" height="1309"/>
  </clipPath>
</defs>
<path clip-path="url(#clip150)" d="
M201.019 1486.45 L1813.36 1486.45 L1813.36 178.778 L201.019 178.778  Z
  " fill="#ffffff" fill-rule="evenodd" fill-opacity="1"/>
<defs>
  <clipPath id="clip153">
    <rect x="201" y="178" width="1613" height="1309"/>
  </clipPath>
</defs>
<polyline clip-path="url(#clip153)" style="stroke:#000000; stroke-linecap:butt; stroke-linejoin:round; stroke-width:2; stroke-opacity:0.1; fill:none" points="
  246.652,1486.45 246.652,178.778 
  "/>
<polyline clip-path="url(#clip153)" style="stroke:#000000; stroke-linecap:butt; stroke-linejoin:round; stroke-width:2; stroke-opacity:0.1; fill:none" points="
  626.921,1486.45 626.921,178.778 
  "/>
<polyline clip-path="url(#clip153)" style="stroke:#000000; stroke-linecap:butt; stroke-linejoin:round; stroke-width:2; stroke-opacity:0.1; fill:none" points="
  1007.19,1486.45 1007.19,178.778 
  "/>
<polyline clip-path="url(#clip153)" style="stroke:#000000; stroke-linecap:butt; stroke-linejoin:round; stroke-width:2; stroke-opacity:0.1; fill:none" points="
  1387.46,1486.45 1387.46,178.778 
  "/>
<polyline clip-path="url(#clip153)" style="stroke:#000000; stroke-linecap:butt; stroke-linejoin:round; stroke-width:2; stroke-opacity:0.1; fill:none" points="
  1767.73,1486.45 1767.73,178.778 
  "/>
<polyline clip-path="url(#clip150)" style="stroke:#000000; stroke-linecap:butt; stroke-linejoin:round; stroke-width:4; stroke-opacity:1; fill:none" points="
  201.019,1486.45 1813.36,1486.45 
  "/>
<polyline clip-path="url(#clip150)" style="stroke:#000000; stroke-linecap:butt; stroke-linejoin:round; stroke-width:4; stroke-opacity:1; fill:none" points="
  246.652,1486.45 246.652,1467.55 
  "/>
<polyline clip-path="url(#clip150)" style="stroke:#000000; stroke-linecap:butt; stroke-linejoin:round; stroke-width:4; stroke-opacity:1; fill:none" points="
  626.921,1486.45 626.921,1467.55 
  "/>
<polyline clip-path="url(#clip150)" style="stroke:#000000; stroke-linecap:butt; stroke-linejoin:round; stroke-width:4; stroke-opacity:1; fill:none" points="
  1007.19,1486.45 1007.19,1467.55 
  "/>
<polyline clip-path="url(#clip150)" style="stroke:#000000; stroke-linecap:butt; stroke-linejoin:round; stroke-width:4; stroke-opacity:1; fill:none" points="
  1387.46,1486.45 1387.46,1467.55 
  "/>
<polyline clip-path="url(#clip150)" style="stroke:#000000; stroke-linecap:butt; stroke-linejoin:round; stroke-width:4; stroke-opacity:1; fill:none" points="
  1767.73,1486.45 1767.73,1467.55 
  "/>
<path clip-path="url(#clip150)" d="M208.955 1517.37 Q205.344 1517.37 203.515 1520.93 Q201.71 1524.47 201.71 1531.6 Q201.71 1538.71 203.515 1542.27 Q205.344 1545.82 208.955 1545.82 Q212.589 1545.82 214.395 1542.27 Q216.224 1538.71 216.224 1531.6 Q216.224 1524.47 214.395 1520.93 Q212.589 1517.37 208.955 1517.37 M208.955 1513.66 Q214.765 1513.66 217.821 1518.27 Q220.899 1522.85 220.899 1531.6 Q220.899 1540.33 217.821 1544.94 Q214.765 1549.52 208.955 1549.52 Q203.145 1549.52 200.066 1544.94 Q197.011 1540.33 197.011 1531.6 Q197.011 1522.85 200.066 1518.27 Q203.145 1513.66 208.955 1513.66 Z" fill="#000000" fill-rule="evenodd" fill-opacity="1" /><path clip-path="url(#clip150)" d="M229.117 1542.97 L234.001 1542.97 L234.001 1548.85 L229.117 1548.85 L229.117 1542.97 Z" fill="#000000" fill-rule="evenodd" fill-opacity="1" /><path clip-path="url(#clip150)" d="M254.186 1517.37 Q250.575 1517.37 248.747 1520.93 Q246.941 1524.47 246.941 1531.6 Q246.941 1538.71 248.747 1542.27 Q250.575 1545.82 254.186 1545.82 Q257.821 1545.82 259.626 1542.27 Q261.455 1538.71 261.455 1531.6 Q261.455 1524.47 259.626 1520.93 Q257.821 1517.37 254.186 1517.37 M254.186 1513.66 Q259.996 1513.66 263.052 1518.27 Q266.131 1522.85 266.131 1531.6 Q266.131 1540.33 263.052 1544.94 Q259.996 1549.52 254.186 1549.52 Q248.376 1549.52 245.297 1544.94 Q242.242 1540.33 242.242 1531.6 Q242.242 1522.85 245.297 1518.27 Q248.376 1513.66 254.186 1513.66 Z" fill="#000000" fill-rule="evenodd" fill-opacity="1" /><path clip-path="url(#clip150)" d="M284.348 1517.37 Q280.737 1517.37 278.908 1520.93 Q277.103 1524.47 277.103 1531.6 Q277.103 1538.71 278.908 1542.27 Q280.737 1545.82 284.348 1545.82 Q287.982 1545.82 289.788 1542.27 Q291.617 1538.71 291.617 1531.6 Q291.617 1524.47 289.788 1520.93 Q287.982 1517.37 284.348 1517.37 M284.348 1513.66 Q290.158 1513.66 293.214 1518.27 Q296.293 1522.85 296.293 1531.6 Q296.293 1540.33 293.214 1544.94 Q290.158 1549.52 284.348 1549.52 Q278.538 1549.52 275.459 1544.94 Q272.404 1540.33 272.404 1531.6 Q272.404 1522.85 275.459 1518.27 Q278.538 1513.66 284.348 1513.66 Z" fill="#000000" fill-rule="evenodd" fill-opacity="1" /><path clip-path="url(#clip150)" d="M589.722 1517.37 Q586.111 1517.37 584.283 1520.93 Q582.477 1524.47 582.477 1531.6 Q582.477 1538.71 584.283 1542.27 Q586.111 1545.82 589.722 1545.82 Q593.357 1545.82 595.162 1542.27 Q596.991 1538.71 596.991 1531.6 Q596.991 1524.47 595.162 1520.93 Q593.357 1517.37 589.722 1517.37 M589.722 1513.66 Q595.533 1513.66 598.588 1518.27 Q601.667 1522.85 601.667 1531.6 Q601.667 1540.33 598.588 1544.94 Q595.533 1549.52 589.722 1549.52 Q583.912 1549.52 580.834 1544.94 Q577.778 1540.33 577.778 1531.6 Q577.778 1522.85 580.834 1518.27 Q583.912 1513.66 589.722 1513.66 Z" fill="#000000" fill-rule="evenodd" fill-opacity="1" /><path clip-path="url(#clip150)" d="M609.884 1542.97 L614.769 1542.97 L614.769 1548.85 L609.884 1548.85 L609.884 1542.97 Z" fill="#000000" fill-rule="evenodd" fill-opacity="1" /><path clip-path="url(#clip150)" d="M628.982 1544.91 L645.301 1544.91 L645.301 1548.85 L623.357 1548.85 L623.357 1544.91 Q626.019 1542.16 630.602 1537.53 Q635.208 1532.88 636.389 1531.53 Q638.634 1529.01 639.514 1527.27 Q640.417 1525.51 640.417 1523.82 Q640.417 1521.07 638.472 1519.33 Q636.551 1517.6 633.449 1517.6 Q631.25 1517.6 628.796 1518.36 Q626.366 1519.13 623.588 1520.68 L623.588 1515.95 Q626.412 1514.82 628.866 1514.24 Q631.319 1513.66 633.356 1513.66 Q638.727 1513.66 641.921 1516.35 Q645.116 1519.03 645.116 1523.52 Q645.116 1525.65 644.306 1527.57 Q643.518 1529.47 641.412 1532.07 Q640.833 1532.74 637.731 1535.95 Q634.63 1539.15 628.982 1544.91 Z" fill="#000000" fill-rule="evenodd" fill-opacity="1" /><path clip-path="url(#clip150)" d="M655.162 1514.29 L673.518 1514.29 L673.518 1518.22 L659.444 1518.22 L659.444 1526.7 Q660.463 1526.35 661.481 1526.19 Q662.5 1526 663.518 1526 Q669.305 1526 672.685 1529.17 Q676.065 1532.34 676.065 1537.76 Q676.065 1543.34 672.592 1546.44 Q669.12 1549.52 662.801 1549.52 Q660.625 1549.52 658.356 1549.15 Q656.111 1548.78 653.704 1548.04 L653.704 1543.34 Q655.787 1544.47 658.009 1545.03 Q660.231 1545.58 662.708 1545.58 Q666.713 1545.58 669.051 1543.48 Q671.389 1541.37 671.389 1537.76 Q671.389 1534.15 669.051 1532.04 Q666.713 1529.94 662.708 1529.94 Q660.833 1529.94 658.958 1530.35 Q657.106 1530.77 655.162 1531.65 L655.162 1514.29 Z" fill="#000000" fill-rule="evenodd" fill-opacity="1" /><path clip-path="url(#clip150)" d="M969.494 1517.37 Q965.883 1517.37 964.055 1520.93 Q962.249 1524.47 962.249 1531.6 Q962.249 1538.71 964.055 1542.27 Q965.883 1545.82 969.494 1545.82 Q973.129 1545.82 974.934 1542.27 Q976.763 1538.71 976.763 1531.6 Q976.763 1524.47 974.934 1520.93 Q973.129 1517.37 969.494 1517.37 M969.494 1513.66 Q975.305 1513.66 978.36 1518.27 Q981.439 1522.85 981.439 1531.6 Q981.439 1540.33 978.36 1544.94 Q975.305 1549.52 969.494 1549.52 Q963.684 1549.52 960.606 1544.94 Q957.55 1540.33 957.55 1531.6 Q957.55 1522.85 960.606 1518.27 Q963.684 1513.66 969.494 1513.66 Z" fill="#000000" fill-rule="evenodd" fill-opacity="1" /><path clip-path="url(#clip150)" d="M989.656 1542.97 L994.541 1542.97 L994.541 1548.85 L989.656 1548.85 L989.656 1542.97 Z" fill="#000000" fill-rule="evenodd" fill-opacity="1" /><path clip-path="url(#clip150)" d="M1004.77 1514.29 L1023.13 1514.29 L1023.13 1518.22 L1009.05 1518.22 L1009.05 1526.7 Q1010.07 1526.35 1011.09 1526.19 Q1012.11 1526 1013.13 1526 Q1018.92 1526 1022.3 1529.17 Q1025.67 1532.34 1025.67 1537.76 Q1025.67 1543.34 1022.2 1546.44 Q1018.73 1549.52 1012.41 1549.52 Q1010.23 1549.52 1007.97 1549.15 Q1005.72 1548.78 1003.31 1548.04 L1003.31 1543.34 Q1005.4 1544.47 1007.62 1545.03 Q1009.84 1545.58 1012.32 1545.58 Q1016.32 1545.58 1018.66 1543.48 Q1021 1541.37 1021 1537.76 Q1021 1534.15 1018.66 1532.04 Q1016.32 1529.94 1012.32 1529.94 Q1010.44 1529.94 1008.57 1530.35 Q1006.72 1530.77 1004.77 1531.65 L1004.77 1514.29 Z" fill="#000000" fill-rule="evenodd" fill-opacity="1" /><path clip-path="url(#clip150)" d="M1044.89 1517.37 Q1041.28 1517.37 1039.45 1520.93 Q1037.64 1524.47 1037.64 1531.6 Q1037.64 1538.71 1039.45 1542.27 Q1041.28 1545.82 1044.89 1545.82 Q1048.52 1545.82 1050.33 1542.27 Q1052.16 1538.71 1052.16 1531.6 Q1052.16 1524.47 1050.33 1520.93 Q1048.52 1517.37 1044.89 1517.37 M1044.89 1513.66 Q1050.7 1513.66 1053.75 1518.27 Q1056.83 1522.85 1056.83 1531.6 Q1056.83 1540.33 1053.75 1544.94 Q1050.7 1549.52 1044.89 1549.52 Q1039.08 1549.52 1036 1544.94 Q1032.94 1540.33 1032.94 1531.6 Q1032.94 1522.85 1036 1518.27 Q1039.08 1513.66 1044.89 1513.66 Z" fill="#000000" fill-rule="evenodd" fill-opacity="1" /><path clip-path="url(#clip150)" d="M1350.26 1517.37 Q1346.65 1517.37 1344.82 1520.93 Q1343.02 1524.47 1343.02 1531.6 Q1343.02 1538.71 1344.82 1542.27 Q1346.65 1545.82 1350.26 1545.82 Q1353.9 1545.82 1355.7 1542.27 Q1357.53 1538.71 1357.53 1531.6 Q1357.53 1524.47 1355.7 1520.93 Q1353.9 1517.37 1350.26 1517.37 M1350.26 1513.66 Q1356.07 1513.66 1359.13 1518.27 Q1362.21 1522.85 1362.21 1531.6 Q1362.21 1540.33 1359.13 1544.94 Q1356.07 1549.52 1350.26 1549.52 Q1344.45 1549.52 1341.37 1544.94 Q1338.32 1540.33 1338.32 1531.6 Q1338.32 1522.85 1341.37 1518.27 Q1344.45 1513.66 1350.26 1513.66 Z" fill="#000000" fill-rule="evenodd" fill-opacity="1" /><path clip-path="url(#clip150)" d="M1370.42 1542.97 L1375.31 1542.97 L1375.31 1548.85 L1370.42 1548.85 L1370.42 1542.97 Z" fill="#000000" fill-rule="evenodd" fill-opacity="1" /><path clip-path="url(#clip150)" d="M1384.31 1514.29 L1406.53 1514.29 L1406.53 1516.28 L1393.99 1548.85 L1389.1 1548.85 L1400.91 1518.22 L1384.31 1518.22 L1384.31 1514.29 Z" fill="#000000" fill-rule="evenodd" fill-opacity="1" /><path clip-path="url(#clip150)" d="M1415.7 1514.29 L1434.06 1514.29 L1434.06 1518.22 L1419.98 1518.22 L1419.98 1526.7 Q1421 1526.35 1422.02 1526.19 Q1423.04 1526 1424.06 1526 Q1429.84 1526 1433.22 1529.17 Q1436.6 1532.34 1436.6 1537.76 Q1436.6 1543.34 1433.13 1546.44 Q1429.66 1549.52 1423.34 1549.52 Q1421.16 1549.52 1418.9 1549.15 Q1416.65 1548.78 1414.24 1548.04 L1414.24 1543.34 Q1416.33 1544.47 1418.55 1545.03 Q1420.77 1545.58 1423.25 1545.58 Q1427.25 1545.58 1429.59 1543.48 Q1431.93 1541.37 1431.93 1537.76 Q1431.93 1534.15 1429.59 1532.04 Q1427.25 1529.94 1423.25 1529.94 Q1421.37 1529.94 1419.5 1530.35 Q1417.65 1530.77 1415.7 1531.65 L1415.7 1514.29 Z" fill="#000000" fill-rule="evenodd" fill-opacity="1" /><path clip-path="url(#clip150)" d="M1719.8 1544.91 L1727.44 1544.91 L1727.44 1518.55 L1719.13 1520.21 L1719.13 1515.95 L1727.39 1514.29 L1732.07 1514.29 L1732.07 1544.91 L1739.71 1544.91 L1739.71 1548.85 L1719.8 1548.85 L1719.8 1544.91 Z" fill="#000000" fill-rule="evenodd" fill-opacity="1" /><path clip-path="url(#clip150)" d="M1749.15 1542.97 L1754.04 1542.97 L1754.04 1548.85 L1749.15 1548.85 L1749.15 1542.97 Z" fill="#000000" fill-rule="evenodd" fill-opacity="1" /><path clip-path="url(#clip150)" d="M1774.22 1517.37 Q1770.61 1517.37 1768.78 1520.93 Q1766.98 1524.47 1766.98 1531.6 Q1766.98 1538.71 1768.78 1542.27 Q1770.61 1545.82 1774.22 1545.82 Q1777.86 1545.82 1779.66 1542.27 Q1781.49 1538.71 1781.49 1531.6 Q1781.49 1524.47 1779.66 1520.93 Q1777.86 1517.37 1774.22 1517.37 M1774.22 1513.66 Q1780.03 1513.66 1783.09 1518.27 Q1786.17 1522.85 1786.17 1531.6 Q1786.17 1540.33 1783.09 1544.94 Q1780.03 1549.52 1774.22 1549.52 Q1768.41 1549.52 1765.33 1544.94 Q1762.28 1540.33 1762.28 1531.6 Q1762.28 1522.85 1765.33 1518.27 Q1768.41 1513.66 1774.22 1513.66 Z" fill="#000000" fill-rule="evenodd" fill-opacity="1" /><path clip-path="url(#clip150)" d="M1804.39 1517.37 Q1800.77 1517.37 1798.95 1520.93 Q1797.14 1524.47 1797.14 1531.6 Q1797.14 1538.71 1798.95 1542.27 Q1800.77 1545.82 1804.39 1545.82 Q1808.02 1545.82 1809.83 1542.27 Q1811.65 1538.71 1811.65 1531.6 Q1811.65 1524.47 1809.83 1520.93 Q1808.02 1517.37 1804.39 1517.37 M1804.39 1513.66 Q1810.2 1513.66 1813.25 1518.27 Q1816.33 1522.85 1816.33 1531.6 Q1816.33 1540.33 1813.25 1544.94 Q1810.2 1549.52 1804.39 1549.52 Q1798.58 1549.52 1795.5 1544.94 Q1792.44 1540.33 1792.44 1531.6 Q1792.44 1522.85 1795.5 1518.27 Q1798.58 1513.66 1804.39 1513.66 Z" fill="#000000" fill-rule="evenodd" fill-opacity="1" /><polyline clip-path="url(#clip153)" style="stroke:#000000; stroke-linecap:butt; stroke-linejoin:round; stroke-width:2; stroke-opacity:0.1; fill:none" points="
  201.019,1449.44 1813.36,1449.44 
  "/>
<polyline clip-path="url(#clip153)" style="stroke:#000000; stroke-linecap:butt; stroke-linejoin:round; stroke-width:2; stroke-opacity:0.1; fill:none" points="
  201.019,1054.67 1813.36,1054.67 
  "/>
<polyline clip-path="url(#clip153)" style="stroke:#000000; stroke-linecap:butt; stroke-linejoin:round; stroke-width:2; stroke-opacity:0.1; fill:none" points="
  201.019,659.902 1813.36,659.902 
  "/>
<polyline clip-path="url(#clip153)" style="stroke:#000000; stroke-linecap:butt; stroke-linejoin:round; stroke-width:2; stroke-opacity:0.1; fill:none" points="
  201.019,265.134 1813.36,265.134 
  "/>
<polyline clip-path="url(#clip150)" style="stroke:#000000; stroke-linecap:butt; stroke-linejoin:round; stroke-width:4; stroke-opacity:1; fill:none" points="
  201.019,1486.45 201.019,178.778 
  "/>
<polyline clip-path="url(#clip150)" style="stroke:#000000; stroke-linecap:butt; stroke-linejoin:round; stroke-width:4; stroke-opacity:1; fill:none" points="
  201.019,1449.44 215.18,1449.44 
  "/>
<polyline clip-path="url(#clip150)" style="stroke:#000000; stroke-linecap:butt; stroke-linejoin:round; stroke-width:4; stroke-opacity:1; fill:none" points="
  201.019,1054.67 215.18,1054.67 
  "/>
<polyline clip-path="url(#clip150)" style="stroke:#000000; stroke-linecap:butt; stroke-linejoin:round; stroke-width:4; stroke-opacity:1; fill:none" points="
  201.019,659.902 215.18,659.902 
  "/>
<polyline clip-path="url(#clip150)" style="stroke:#000000; stroke-linecap:butt; stroke-linejoin:round; stroke-width:4; stroke-opacity:1; fill:none" points="
  201.019,265.134 215.18,265.134 
  "/>
<path clip-path="url(#clip150)" d="M153.075 1435.24 Q149.464 1435.24 147.635 1438.8 Q145.83 1442.34 145.83 1449.47 Q145.83 1456.58 147.635 1460.14 Q149.464 1463.69 153.075 1463.69 Q156.709 1463.69 158.515 1460.14 Q160.343 1456.58 160.343 1449.47 Q160.343 1442.34 158.515 1438.8 Q156.709 1435.24 153.075 1435.24 M153.075 1431.53 Q158.885 1431.53 161.941 1436.14 Q165.019 1440.72 165.019 1449.47 Q165.019 1458.2 161.941 1462.81 Q158.885 1467.39 153.075 1467.39 Q147.265 1467.39 144.186 1462.81 Q141.131 1458.2 141.131 1449.47 Q141.131 1440.72 144.186 1436.14 Q147.265 1431.53 153.075 1431.53 Z" fill="#000000" fill-rule="evenodd" fill-opacity="1" /><path clip-path="url(#clip150)" d="M53.3995 1068.02 L61.0384 1068.02 L61.0384 1041.65 L52.7282 1043.32 L52.7282 1039.06 L60.9921 1037.39 L65.668 1037.39 L65.668 1068.02 L73.3068 1068.02 L73.3068 1071.95 L53.3995 1071.95 L53.3995 1068.02 Z" fill="#000000" fill-rule="evenodd" fill-opacity="1" /><path clip-path="url(#clip150)" d="M92.7512 1040.47 Q89.1401 1040.47 87.3114 1044.03 Q85.5058 1047.58 85.5058 1054.7 Q85.5058 1061.81 87.3114 1065.38 Q89.1401 1068.92 92.7512 1068.92 Q96.3854 1068.92 98.1909 1065.38 Q100.02 1061.81 100.02 1054.7 Q100.02 1047.58 98.1909 1044.03 Q96.3854 1040.47 92.7512 1040.47 M92.7512 1036.77 Q98.5613 1036.77 101.617 1041.37 Q104.696 1045.95 104.696 1054.7 Q104.696 1063.43 101.617 1068.04 Q98.5613 1072.62 92.7512 1072.62 Q86.941 1072.62 83.8623 1068.04 Q80.8068 1063.43 80.8068 1054.7 Q80.8068 1045.95 83.8623 1041.37 Q86.941 1036.77 92.7512 1036.77 Z" fill="#000000" fill-rule="evenodd" fill-opacity="1" /><path clip-path="url(#clip150)" d="M122.913 1040.47 Q119.302 1040.47 117.473 1044.03 Q115.668 1047.58 115.668 1054.7 Q115.668 1061.81 117.473 1065.38 Q119.302 1068.92 122.913 1068.92 Q126.547 1068.92 128.353 1065.38 Q130.182 1061.81 130.182 1054.7 Q130.182 1047.58 128.353 1044.03 Q126.547 1040.47 122.913 1040.47 M122.913 1036.77 Q128.723 1036.77 131.779 1041.37 Q134.857 1045.95 134.857 1054.7 Q134.857 1063.43 131.779 1068.04 Q128.723 1072.62 122.913 1072.62 Q117.103 1072.62 114.024 1068.04 Q110.969 1063.43 110.969 1054.7 Q110.969 1045.95 114.024 1041.37 Q117.103 1036.77 122.913 1036.77 Z" fill="#000000" fill-rule="evenodd" fill-opacity="1" /><path clip-path="url(#clip150)" d="M153.075 1040.47 Q149.464 1040.47 147.635 1044.03 Q145.83 1047.58 145.83 1054.7 Q145.83 1061.81 147.635 1065.38 Q149.464 1068.92 153.075 1068.92 Q156.709 1068.92 158.515 1065.38 Q160.343 1061.81 160.343 1054.7 Q160.343 1047.58 158.515 1044.03 Q156.709 1040.47 153.075 1040.47 M153.075 1036.77 Q158.885 1036.77 161.941 1041.37 Q165.019 1045.95 165.019 1054.7 Q165.019 1063.43 161.941 1068.04 Q158.885 1072.62 153.075 1072.62 Q147.265 1072.62 144.186 1068.04 Q141.131 1063.43 141.131 1054.7 Q141.131 1045.95 144.186 1041.37 Q147.265 1036.77 153.075 1036.77 Z" fill="#000000" fill-rule="evenodd" fill-opacity="1" /><path clip-path="url(#clip150)" d="M56.6171 673.247 L72.9365 673.247 L72.9365 677.182 L50.9921 677.182 L50.9921 673.247 Q53.6541 670.492 58.2375 665.863 Q62.8439 661.21 64.0245 659.867 Q66.2698 657.344 67.1494 655.608 Q68.0522 653.849 68.0522 652.159 Q68.0522 649.404 66.1078 647.668 Q64.1865 645.932 61.0847 645.932 Q58.8856 645.932 56.4319 646.696 Q54.0014 647.46 51.2236 649.011 L51.2236 644.289 Q54.0477 643.154 56.5014 642.576 Q58.955 641.997 60.9921 641.997 Q66.3624 641.997 69.5568 644.682 Q72.7513 647.367 72.7513 651.858 Q72.7513 653.988 71.9411 655.909 Q71.1541 657.807 69.0476 660.4 Q68.4689 661.071 65.367 664.289 Q62.2652 667.483 56.6171 673.247 Z" fill="#000000" fill-rule="evenodd" fill-opacity="1" /><path clip-path="url(#clip150)" d="M92.7512 645.701 Q89.1401 645.701 87.3114 649.266 Q85.5058 652.807 85.5058 659.937 Q85.5058 667.043 87.3114 670.608 Q89.1401 674.15 92.7512 674.15 Q96.3854 674.15 98.1909 670.608 Q100.02 667.043 100.02 659.937 Q100.02 652.807 98.1909 649.266 Q96.3854 645.701 92.7512 645.701 M92.7512 641.997 Q98.5613 641.997 101.617 646.604 Q104.696 651.187 104.696 659.937 Q104.696 668.664 101.617 673.27 Q98.5613 677.853 92.7512 677.853 Q86.941 677.853 83.8623 673.27 Q80.8068 668.664 80.8068 659.937 Q80.8068 651.187 83.8623 646.604 Q86.941 641.997 92.7512 641.997 Z" fill="#000000" fill-rule="evenodd" fill-opacity="1" /><path clip-path="url(#clip150)" d="M122.913 645.701 Q119.302 645.701 117.473 649.266 Q115.668 652.807 115.668 659.937 Q115.668 667.043 117.473 670.608 Q119.302 674.15 122.913 674.15 Q126.547 674.15 128.353 670.608 Q130.182 667.043 130.182 659.937 Q130.182 652.807 128.353 649.266 Q126.547 645.701 122.913 645.701 M122.913 641.997 Q128.723 641.997 131.779 646.604 Q134.857 651.187 134.857 659.937 Q134.857 668.664 131.779 673.27 Q128.723 677.853 122.913 677.853 Q117.103 677.853 114.024 673.27 Q110.969 668.664 110.969 659.937 Q110.969 651.187 114.024 646.604 Q117.103 641.997 122.913 641.997 Z" fill="#000000" fill-rule="evenodd" fill-opacity="1" /><path clip-path="url(#clip150)" d="M153.075 645.701 Q149.464 645.701 147.635 649.266 Q145.83 652.807 145.83 659.937 Q145.83 667.043 147.635 670.608 Q149.464 674.15 153.075 674.15 Q156.709 674.15 158.515 670.608 Q160.343 667.043 160.343 659.937 Q160.343 652.807 158.515 649.266 Q156.709 645.701 153.075 645.701 M153.075 641.997 Q158.885 641.997 161.941 646.604 Q165.019 651.187 165.019 659.937 Q165.019 668.664 161.941 673.27 Q158.885 677.853 153.075 677.853 Q147.265 677.853 144.186 673.27 Q141.131 668.664 141.131 659.937 Q141.131 651.187 144.186 646.604 Q147.265 641.997 153.075 641.997 Z" fill="#000000" fill-rule="evenodd" fill-opacity="1" /><path clip-path="url(#clip150)" d="M66.7559 263.78 Q70.1124 264.497 71.9874 266.766 Q73.8855 269.034 73.8855 272.368 Q73.8855 277.483 70.367 280.284 Q66.8485 283.085 60.3671 283.085 Q58.1912 283.085 55.8764 282.645 Q53.5847 282.229 51.131 281.372 L51.131 276.858 Q53.0754 277.993 55.3903 278.571 Q57.7051 279.15 60.2282 279.15 Q64.6263 279.15 66.918 277.414 Q69.2328 275.678 69.2328 272.368 Q69.2328 269.312 67.08 267.599 Q64.9504 265.863 61.131 265.863 L57.1032 265.863 L57.1032 262.02 L61.3161 262.02 Q64.7652 262.02 66.5939 260.655 Q68.4226 259.266 68.4226 256.673 Q68.4226 254.011 66.5245 252.599 Q64.6495 251.164 61.131 251.164 Q59.2097 251.164 57.0106 251.581 Q54.8115 251.997 52.1727 252.877 L52.1727 248.71 Q54.8347 247.97 57.1495 247.599 Q59.4875 247.229 61.5476 247.229 Q66.8717 247.229 69.9735 249.659 Q73.0753 252.067 73.0753 256.187 Q73.0753 259.058 71.4318 261.048 Q69.7883 263.016 66.7559 263.78 Z" fill="#000000" fill-rule="evenodd" fill-opacity="1" /><path clip-path="url(#clip150)" d="M92.7512 250.933 Q89.1401 250.933 87.3114 254.497 Q85.5058 258.039 85.5058 265.169 Q85.5058 272.275 87.3114 275.84 Q89.1401 279.382 92.7512 279.382 Q96.3854 279.382 98.1909 275.84 Q100.02 272.275 100.02 265.169 Q100.02 258.039 98.1909 254.497 Q96.3854 250.933 92.7512 250.933 M92.7512 247.229 Q98.5613 247.229 101.617 251.835 Q104.696 256.419 104.696 265.169 Q104.696 273.895 101.617 278.502 Q98.5613 283.085 92.7512 283.085 Q86.941 283.085 83.8623 278.502 Q80.8068 273.895 80.8068 265.169 Q80.8068 256.419 83.8623 251.835 Q86.941 247.229 92.7512 247.229 Z" fill="#000000" fill-rule="evenodd" fill-opacity="1" /><path clip-path="url(#clip150)" d="M122.913 250.933 Q119.302 250.933 117.473 254.497 Q115.668 258.039 115.668 265.169 Q115.668 272.275 117.473 275.84 Q119.302 279.382 122.913 279.382 Q126.547 279.382 128.353 275.84 Q130.182 272.275 130.182 265.169 Q130.182 258.039 128.353 254.497 Q126.547 250.933 122.913 250.933 M122.913 247.229 Q128.723 247.229 131.779 251.835 Q134.857 256.419 134.857 265.169 Q134.857 273.895 131.779 278.502 Q128.723 283.085 122.913 283.085 Q117.103 283.085 114.024 278.502 Q110.969 273.895 110.969 265.169 Q110.969 256.419 114.024 251.835 Q117.103 247.229 122.913 247.229 Z" fill="#000000" fill-rule="evenodd" fill-opacity="1" /><path clip-path="url(#clip150)" d="M153.075 250.933 Q149.464 250.933 147.635 254.497 Q145.83 258.039 145.83 265.169 Q145.83 272.275 147.635 275.84 Q149.464 279.382 153.075 279.382 Q156.709 279.382 158.515 275.84 Q160.343 272.275 160.343 265.169 Q160.343 258.039 158.515 254.497 Q156.709 250.933 153.075 250.933 M153.075 247.229 Q158.885 247.229 161.941 251.835 Q165.019 256.419 165.019 265.169 Q165.019 273.895 161.941 278.502 Q158.885 283.085 153.075 283.085 Q147.265 283.085 144.186 278.502 Q141.131 273.895 141.131 265.169 Q141.131 256.419 144.186 251.835 Q147.265 247.229 153.075 247.229 Z" fill="#000000" fill-rule="evenodd" fill-opacity="1" /><path clip-path="url(#clip150)" d="M762.635 83.0933 Q762.635 87.6841 759.233 91.906 Q755.871 96.1279 750.379 98.7102 Q744.927 101.252 739.066 101.252 L724.802 101.252 L719.596 122.238 Q719.555 122.361 719.432 122.894 Q719.309 123.386 719.309 123.673 Q719.309 124.697 720.58 124.943 Q721.891 125.189 724.802 125.189 Q726.687 125.189 726.974 125.517 Q727.138 125.722 727.138 126.091 Q727.138 126.665 726.974 127.075 Q726.81 127.444 726.482 127.567 Q726.195 127.69 725.99 127.731 Q725.785 127.772 725.457 127.772 Q724.597 127.772 722.752 127.69 Q720.949 127.608 720.006 127.608 L714.636 127.526 L703.979 127.772 Q702.708 127.772 702.708 126.747 Q702.708 125.968 703.036 125.64 Q703.364 125.271 703.733 125.23 Q704.102 125.189 705.045 125.189 Q707.094 125.189 708.324 125.066 Q709.554 124.943 710.332 124.779 Q711.152 124.574 711.562 124.001 Q712.013 123.427 712.218 122.935 Q712.423 122.402 712.71 121.213 L723.941 76.1251 Q724.269 74.7725 724.269 74.5675 Q724.269 73.8707 723.859 73.6248 Q723.49 73.3379 722.424 73.2149 Q720.375 73.0509 718.817 73.0509 Q717.792 73.0509 717.383 73.0099 Q717.014 72.969 716.686 72.764 Q716.399 72.5181 716.399 72.0262 Q716.399 71.2474 716.727 70.9195 Q717.096 70.5506 717.505 70.5096 Q717.915 70.4276 718.899 70.4276 L746.116 70.4276 Q753.945 70.4276 758.29 74.1576 Q762.635 77.8877 762.635 83.0933 M754.847 81.0848 Q754.847 73.0509 743.411 73.0509 L735.377 73.0509 Q732.712 73.0509 732.057 73.5428 Q731.401 73.9937 730.827 76.2481 L725.129 99.0791 L736.975 99.0791 Q744.927 99.0791 749.887 94.6113 Q752.141 92.5618 753.494 88.299 Q754.847 84.0361 754.847 81.0848 Z" fill="#000000" fill-rule="evenodd" fill-opacity="1" /><path clip-path="url(#clip150)" d="M799.645 96.1279 Q799.645 98.3003 798.21 99.694 Q796.816 101.088 795.013 101.088 Q793.455 101.088 792.635 100.186 Q791.816 99.2841 791.816 98.1364 Q791.816 96.4968 793.086 95.1442 Q794.357 93.7915 796.201 93.5046 Q794.849 92.5208 792.676 92.5208 Q789.11 92.5208 785.954 95.2671 Q784.561 96.5378 783.044 98.8742 Q781.527 101.17 781.24 102.153 L778.576 113.097 Q778.33 114.327 776.814 120.23 Q775.338 126.091 775.215 126.337 Q774.805 127.485 773.903 128.1 Q773.002 128.714 772.1 128.714 Q771.075 128.714 770.378 128.1 Q769.681 127.485 769.681 126.419 Q769.681 126.255 769.804 125.64 Q769.927 125.025 770.132 124.165 Q770.337 123.304 770.419 122.812 L775.297 103.424 Q776.199 99.8989 776.404 98.7922 Q776.65 97.6445 776.65 96.3738 Q776.65 94.1604 775.953 93.3406 Q775.256 92.5208 774.026 92.5208 Q771.895 92.5208 770.501 95.0622 Q769.108 97.6035 767.919 102.522 Q767.55 103.875 767.304 104.162 Q767.099 104.449 766.484 104.449 Q765.459 104.408 765.459 103.588 Q765.459 103.383 765.787 102.071 Q766.115 100.719 766.73 98.7512 Q767.386 96.7427 768.083 95.4721 Q768.493 94.6113 768.862 94.0374 Q769.231 93.4636 769.968 92.5618 Q770.706 91.6601 771.813 91.1682 Q772.92 90.6763 774.272 90.6763 Q777.223 90.6763 779.314 92.4799 Q781.445 94.2834 781.937 97.1116 Q782.962 95.636 784.233 94.3654 Q785.503 93.0537 787.84 91.865 Q790.176 90.6763 792.676 90.6763 Q795.792 90.6763 797.718 92.2749 Q799.645 93.8325 799.645 96.1279 Z" fill="#000000" fill-rule="evenodd" fill-opacity="1" /><path clip-path="url(#clip150)" d="M841.87 104.859 Q841.87 109.326 839.903 113.753 Q837.935 118.139 834.779 121.418 Q831.664 124.656 827.565 126.706 Q823.466 128.714 819.367 128.714 Q813.506 128.714 809.694 124.738 Q805.923 120.721 805.923 114.491 Q805.923 108.671 809.161 103.137 Q812.44 97.5625 817.687 94.1194 Q822.933 90.6763 828.426 90.6763 Q834.205 90.6763 838.017 94.5703 Q841.87 98.4643 841.87 104.859 M835.722 101.579 Q835.722 97.6035 833.795 95.0622 Q831.869 92.5208 828.344 92.5208 Q827.319 92.5208 826.13 92.8488 Q824.942 93.1357 823.384 93.9145 Q821.867 94.6933 820.146 96.3328 Q818.465 97.9314 816.99 100.227 Q815.063 103.26 813.588 108.835 Q812.153 114.368 812.153 117.688 Q812.153 122.279 814.284 124.574 Q816.416 126.829 819.449 126.829 Q822.4 126.829 825.515 124.779 Q828.672 122.689 830.844 119.123 Q833.017 115.434 834.369 110.023 Q835.722 104.572 835.722 101.579 Z" fill="#000000" fill-rule="evenodd" fill-opacity="1" /><path clip-path="url(#clip150)" d="M877.14 104.08 Q877.14 109.982 874.148 115.762 Q871.197 121.5 866.442 125.107 Q861.728 128.714 856.892 128.714 Q852.178 128.714 849.186 125.107 Q846.234 121.459 846.234 115.516 Q846.234 113.425 846.48 111.95 Q846.726 110.474 847.587 107.031 L854.473 79.6502 Q855.662 74.5266 855.662 74.4856 Q855.662 73.9937 855.457 73.7478 Q855.293 73.4608 854.309 73.2559 Q853.326 73.0509 851.44 73.0509 Q850.661 73.0509 850.292 73.0099 Q849.964 72.969 849.678 72.764 Q849.432 72.5181 849.432 72.0262 Q849.432 71.3294 849.719 70.9605 Q850.046 70.5506 850.292 70.4686 Q850.538 70.3866 851.03 70.3456 Q851.727 70.3047 854.063 70.0997 Q856.4 69.8538 858.408 69.6898 Q860.417 69.5259 861.277 69.5259 Q861.769 69.5259 862.015 69.7718 Q862.302 69.9767 862.302 70.2227 L862.343 70.4276 L856.154 95.718 Q861.032 90.6763 865.991 90.6763 Q870.951 90.6763 874.025 94.4883 Q877.14 98.3003 877.14 104.08 M871.074 100.391 Q871.074 96.4968 869.598 94.5293 Q868.164 92.5208 865.786 92.5208 Q863.778 92.5208 861.155 94.0374 Q858.531 95.5541 855.744 99.2431 Q855.211 99.9399 855.006 100.35 Q854.842 100.76 854.473 102.153 L852.629 109.9 Q851.276 115.188 851.276 118.385 Q851.276 122.73 852.875 124.779 Q854.473 126.829 856.892 126.829 Q859.433 126.829 862.097 124.574 Q864.762 122.32 866.811 118.221 Q868.082 115.516 869.557 109.695 Q871.074 103.834 871.074 100.391 Z" fill="#000000" fill-rule="evenodd" fill-opacity="1" /><path clip-path="url(#clip150)" d="M899.495 70.4276 L887.403 118.959 Q886.911 120.885 886.911 122.976 Q886.911 126.829 889.453 126.829 Q890.641 126.829 891.625 126.05 Q892.609 125.23 893.347 123.632 Q894.125 121.992 894.617 120.435 Q895.15 118.877 895.806 116.459 Q896.011 115.516 896.216 115.229 Q896.421 114.942 896.995 114.942 Q898.019 114.942 898.019 115.762 Q896.995 120.803 895.478 124.001 Q893.265 128.714 889.166 128.714 Q886.092 128.714 883.796 126.583 Q881.542 124.411 881.542 120.967 Q881.542 119.656 881.952 118.098 L892.527 76.1251 L892.814 74.4856 Q892.814 74.0347 892.65 73.7887 Q892.486 73.5428 891.502 73.2969 Q890.559 73.0509 888.674 73.0509 Q887.895 73.0509 887.526 73.0099 Q887.198 72.969 886.87 72.764 Q886.583 72.5591 886.583 72.1082 Q886.583 71.3704 886.87 70.9605 Q887.198 70.5506 887.444 70.4686 Q887.69 70.3866 888.182 70.3456 Q888.879 70.3047 891.215 70.0997 Q893.552 69.8538 895.56 69.6898 Q897.569 69.5259 898.429 69.5259 Q898.921 69.5259 899.167 69.7718 Q899.454 69.9767 899.495 70.2227 L899.495 70.4276 Z" fill="#000000" fill-rule="evenodd" fill-opacity="1" /><path clip-path="url(#clip150)" d="M939.244 118.057 Q939.572 118.426 939.572 118.795 Q939.572 119.164 938.752 120.23 Q937.973 121.295 936.293 122.73 Q934.612 124.165 932.44 125.517 Q930.267 126.87 927.07 127.772 Q923.873 128.714 920.512 128.714 Q914.486 128.714 910.879 124.411 Q907.313 120.107 907.313 113.507 Q907.313 109.285 908.707 105.555 Q910.101 101.784 912.355 99.1201 Q914.65 96.4558 917.52 94.5293 Q920.43 92.5618 923.463 91.6191 Q926.496 90.6763 929.325 90.6763 Q933.464 90.6763 935.883 92.7668 Q938.301 94.8572 938.301 97.8085 Q938.301 98.5053 938.096 99.3661 Q937.932 100.227 937.358 101.579 Q936.826 102.932 935.432 104.285 Q934.038 105.596 931.989 106.457 Q927.439 108.384 919.159 108.384 L914.691 108.384 Q913.38 113.671 913.38 117.114 Q913.38 118.467 913.626 119.861 Q913.872 121.213 914.527 122.935 Q915.224 124.656 916.782 125.763 Q918.38 126.829 920.676 126.829 Q921.414 126.829 922.192 126.788 Q923.012 126.747 925.062 126.296 Q927.152 125.845 928.997 125.066 Q930.841 124.288 933.178 122.607 Q935.555 120.885 937.44 118.549 Q938.096 117.688 938.547 117.688 Q938.916 117.688 939.244 118.057 M935.514 97.8085 Q935.514 95.5541 933.833 94.0374 Q932.194 92.5208 929.325 92.5208 Q928.423 92.5208 927.316 92.7258 Q926.209 92.9307 924.365 93.7915 Q922.561 94.6523 920.963 96.0869 Q919.364 97.4805 917.766 100.227 Q916.167 102.932 915.224 106.539 L918.667 106.539 Q919.856 106.539 920.717 106.539 Q921.578 106.498 923.463 106.334 Q925.39 106.17 926.783 105.883 Q928.177 105.555 929.939 104.9 Q931.702 104.244 932.809 103.383 Q933.956 102.481 934.735 101.047 Q935.514 99.612 935.514 97.8085 Z" fill="#000000" fill-rule="evenodd" fill-opacity="1" /><path clip-path="url(#clip150)" d="M1013.14 115.762 Q1013.14 116.09 1012.77 117.36 Q1012.4 118.631 1011.5 120.599 Q1010.64 122.566 1009.41 124.37 Q1008.22 126.132 1006.26 127.444 Q1004.33 128.714 1002.12 128.714 Q999.165 128.714 997.197 126.747 Q995.23 124.779 995.23 121.828 Q995.23 120.23 996.336 117.196 Q1001.54 103.342 1001.54 98.3823 Q1001.54 92.5208 996.992 92.5208 Q994.41 92.5208 992.073 93.5866 Q989.737 94.6523 988.22 96.1279 Q986.704 97.6035 985.515 99.2841 Q984.326 100.965 983.794 102.071 Q983.302 103.178 983.179 103.67 L978.137 123.919 Q977.727 125.64 977.44 126.46 Q977.153 127.28 976.375 127.977 Q975.596 128.714 974.366 128.714 Q973.341 128.714 972.603 128.1 Q971.907 127.485 971.907 126.419 Q971.907 126.255 972.112 125.394 Q972.317 124.533 972.603 123.345 Q972.89 122.156 973.013 121.459 Q974.489 115.885 974.694 115.106 L977.03 105.35 Q978.301 100.514 978.301 98.3823 Q978.301 92.5208 973.751 92.5208 Q971.497 92.5208 969.365 93.3816 Q967.275 94.2014 965.84 95.3491 Q964.406 96.4968 963.094 98.0954 Q961.823 99.653 961.167 100.719 Q960.553 101.743 960.061 102.768 L958.995 106.949 Q958.749 108.097 957.56 112.565 L955.716 120.148 Q954.404 125.804 954.117 126.337 Q953.707 127.485 952.806 128.1 Q951.904 128.714 951.002 128.714 Q949.977 128.714 949.281 128.1 Q948.584 127.485 948.584 126.419 Q948.584 126.255 948.707 125.64 Q948.83 125.025 949.035 124.165 Q949.24 123.304 949.322 122.812 L954.199 103.424 Q955.101 99.8989 955.306 98.7922 Q955.552 97.6445 955.552 96.3738 Q955.552 92.5208 952.929 92.5208 Q950.797 92.5208 949.404 95.0622 Q948.01 97.6035 946.821 102.522 Q946.452 103.875 946.206 104.162 Q946.001 104.449 945.387 104.449 Q944.362 104.408 944.362 103.588 Q944.362 103.383 944.69 102.071 Q945.018 100.76 945.633 98.7922 Q946.288 96.7837 946.985 95.4721 Q947.395 94.6113 947.764 94.0374 Q948.133 93.4636 948.871 92.5618 Q949.609 91.6601 950.715 91.1682 Q951.822 90.6763 953.175 90.6763 Q956.167 90.6763 958.38 92.6028 Q960.635 94.5293 960.922 97.9724 Q966.373 90.6763 973.997 90.6763 Q978.301 90.6763 980.883 92.8488 Q983.302 94.9392 983.589 98.7922 Q989.245 90.6763 997.279 90.6763 Q1001.91 90.6763 1004.41 93.0947 Q1006.91 95.4721 1006.91 99.653 Q1006.91 101.825 1005.8 105.965 Q1004.7 110.064 1003.96 112.114 Q1003.22 114.163 1001.79 118.098 Q1000.27 121.869 1000.27 124.083 Q1000.27 125.517 1000.76 126.173 Q1001.26 126.829 1002.32 126.829 Q1003.96 126.829 1005.39 125.886 Q1006.83 124.902 1007.85 123.304 Q1008.92 121.664 1009.62 120.025 Q1010.31 118.344 1010.85 116.459 Q1011.17 115.434 1011.34 115.188 Q1011.54 114.942 1012.12 114.942 Q1013.14 114.942 1013.14 115.762 Z" fill="#000000" fill-rule="evenodd" fill-opacity="1" /><path clip-path="url(#clip150)" d="M1041.96 126.501 Q1040.64 125.189 1040.64 123.345 Q1040.64 121.5 1041.96 120.189 Q1043.27 118.877 1045.11 118.877 Q1046.96 118.877 1048.27 120.189 Q1049.58 121.5 1049.58 123.345 Q1049.58 125.189 1048.27 126.501 Q1046.96 127.772 1045.11 127.772 Q1043.27 127.772 1041.96 126.501 M1041.96 99.2021 Q1040.64 97.8904 1040.64 96.0459 Q1040.64 94.2014 1041.96 92.8897 Q1043.27 91.5781 1045.11 91.5781 Q1046.96 91.5781 1048.27 92.8897 Q1049.58 94.2014 1049.58 96.0459 Q1049.58 97.8904 1048.27 99.2021 Q1046.96 100.473 1045.11 100.473 Q1043.27 100.473 1041.96 99.2021 Z" fill="#000000" fill-rule="evenodd" fill-opacity="1" /><path clip-path="url(#clip150)" d="M1129.05 51.7482 Q1129.05 43.7553 1134.63 38.2218 Q1140.2 32.6882 1147.74 32.6882 Q1154.14 32.6882 1158.32 37.8938 L1158.32 19.7356 Q1158.32 16.6204 1157.21 15.8416 Q1156.15 15.0628 1151.8 15.0628 L1151.8 12.4395 L1163.89 11.5377 L1163.89 62.4874 Q1163.89 65.6026 1164.96 66.4224 Q1166.07 67.2012 1170.41 67.2012 L1170.41 69.7835 L1158.07 70.7263 L1158.07 65.1517 Q1153.73 70.6853 1146.84 70.7263 Q1139.63 70.7263 1134.34 65.1927 Q1129.05 59.6591 1129.05 51.7482 M1136.02 51.8302 Q1136.02 59.6182 1138.44 63.4712 Q1141.8 68.8407 1147.25 68.8407 Q1153.48 68.8407 1157.17 62.9793 Q1158.12 61.5447 1158.07 59.8641 L1158.07 42.6486 Q1158.07 40.968 1157.17 39.5744 Q1153.73 34.5327 1148.11 34.5327 Q1142.25 34.5327 1138.6 39.9023 Q1136.02 43.9193 1136.02 51.8302 Z" fill="#000000" fill-rule="evenodd" fill-opacity="1" /><path clip-path="url(#clip150)" d="M1213.91 35.8854 Q1213.91 36.4592 1213.54 37.8119 L1205.5 69.8655 Q1203.74 76.9976 1198 81.9983 Q1192.3 86.999 1185.83 86.999 Q1181.93 86.999 1179.43 84.9085 Q1176.93 82.8591 1176.93 79.7029 Q1176.93 76.9156 1178.41 75.563 Q1179.88 74.2513 1181.65 74.2513 Q1182.22 74.2513 1182.84 74.4153 Q1183.45 74.5792 1184.11 75.2761 Q1184.76 75.9729 1184.76 77.1616 Q1184.76 79.0881 1183.08 80.6047 Q1182.26 81.3015 1181.48 81.4654 Q1180.75 81.6294 1179.47 81.6294 Q1179.97 82.7771 1180.87 83.5559 Q1181.77 84.3347 1182.79 84.6216 Q1183.82 84.9495 1184.48 85.0315 Q1185.17 85.1545 1185.83 85.1545 Q1191.07 85.1545 1195.09 79.8669 Q1196.28 78.2683 1197.14 76.6697 Q1198.04 75.1121 1198.7 73.1856 Q1199.35 71.3001 1199.64 70.2754 Q1199.97 69.2506 1200.54 66.9143 Q1196.73 70.7263 1192.06 70.7263 Q1190.09 70.7263 1188.33 70.1934 Q1186.61 69.6605 1185.09 68.5538 Q1183.57 67.4061 1182.67 65.3976 Q1181.81 63.3892 1181.81 60.7249 Q1181.81 57.8966 1182.92 54.0436 Q1184.02 50.1906 1186.69 43.0995 Q1188.12 39.1235 1188.12 37.197 Q1188.12 36.2543 1187.92 35.6804 Q1187.71 35.0656 1187.3 34.8606 Q1186.89 34.6147 1186.65 34.5737 Q1186.44 34.5327 1186.03 34.5327 Q1183.61 34.5327 1181.36 36.9921 Q1179.11 39.4514 1177.55 44.944 Q1177.22 45.9687 1177.02 46.2147 Q1176.81 46.4606 1176.2 46.4606 Q1175.17 46.4196 1175.17 45.5998 Q1175.17 45.2719 1175.54 44.0012 Q1175.91 42.6896 1176.77 40.7631 Q1177.67 38.7956 1178.9 37.0331 Q1180.13 35.2295 1182.06 33.9589 Q1184.02 32.6882 1186.28 32.6882 Q1189.35 32.6882 1191.24 34.6967 Q1193.17 36.6642 1193.17 39.5744 Q1193.17 40.7631 1192.84 41.8288 Q1192.55 42.8535 1191.48 45.5998 Q1187.18 56.6669 1187.18 62.0775 Q1187.18 63.3892 1187.39 64.4959 Q1187.63 65.5616 1188.16 66.6273 Q1188.7 67.6521 1189.76 68.2669 Q1190.87 68.8407 1192.39 68.8407 Q1194.31 68.8407 1196.12 67.939 Q1197.96 66.9962 1199.11 65.7256 Q1200.3 64.4549 1200.99 63.3892 Q1201.73 62.2825 1201.9 61.7086 L1205.67 46.6246 L1207.35 39.9023 Q1208.13 36.2543 1208.5 35.3525 Q1208.99 34.4917 1209.85 34.0408 Q1210.71 33.59 1211.45 33.59 Q1212.47 33.59 1213.17 34.2048 Q1213.91 34.8196 1213.91 35.8854 Z" fill="#000000" fill-rule="evenodd" fill-opacity="1" /><path clip-path="url(#clip150)" d="
M1127.05 109.23 L1223.54 109.23 L1223.54 104.75 L1127.05 104.75  Z
  " fill="#000000" fill-rule="evenodd" fill-opacity="1"/>
<path clip-path="url(#clip150)" d="M1127.05 166.803 Q1127.05 158.81 1132.63 153.276 Q1138.2 147.743 1145.74 147.743 Q1152.14 147.743 1156.32 152.948 L1156.32 134.79 Q1156.32 131.675 1155.21 130.896 Q1154.15 130.117 1149.8 130.117 L1149.8 127.494 L1161.89 126.592 L1161.89 177.542 Q1161.89 180.657 1162.96 181.477 Q1164.07 182.256 1168.41 182.256 L1168.41 184.838 L1156.07 185.781 L1156.07 180.206 Q1151.73 185.74 1144.84 185.781 Q1137.63 185.781 1132.34 180.247 Q1127.05 174.714 1127.05 166.803 M1134.02 166.885 Q1134.02 174.673 1136.44 178.526 Q1139.8 183.895 1145.25 183.895 Q1151.48 183.895 1155.17 178.034 Q1156.12 176.599 1156.07 174.918 L1156.07 157.703 Q1156.07 156.022 1155.17 154.629 Q1151.73 149.587 1146.11 149.587 Q1140.25 149.587 1136.6 154.957 Q1134.02 158.974 1134.02 166.885 Z" fill="#000000" fill-rule="evenodd" fill-opacity="1" /><path clip-path="url(#clip150)" d="M1214.98 153.276 Q1214.98 155.572 1213.55 156.883 Q1212.11 158.154 1210.47 158.154 Q1208.91 158.154 1208.09 157.252 Q1207.27 156.35 1207.27 155.203 Q1207.27 153.645 1208.42 152.292 Q1209.57 150.94 1211.29 150.653 Q1209.61 149.587 1207.11 149.587 Q1205.47 149.587 1204.04 150.448 Q1202.64 151.309 1201.78 152.415 Q1200.96 153.522 1200.22 155.121 Q1199.53 156.678 1199.24 157.621 Q1198.99 158.523 1198.79 159.507 L1195.92 170.983 Q1194.53 176.435 1194.53 178.362 Q1194.53 180.739 1195.67 182.338 Q1196.82 183.895 1199.12 183.895 Q1200.02 183.895 1201.04 183.649 Q1202.07 183.362 1203.38 182.624 Q1204.73 181.846 1205.92 180.698 Q1207.15 179.509 1208.34 177.501 Q1209.53 175.492 1210.31 172.91 Q1210.55 172.008 1211.37 172.008 Q1212.4 172.008 1212.4 172.828 Q1212.4 173.525 1211.82 175 Q1211.29 176.435 1210.1 178.321 Q1208.95 180.165 1207.44 181.846 Q1205.92 183.485 1203.67 184.633 Q1201.41 185.781 1198.95 185.781 Q1195.43 185.781 1193.09 183.895 Q1190.76 182.01 1189.89 179.386 Q1189.69 179.755 1189.4 180.247 Q1189.12 180.739 1188.25 181.846 Q1187.44 182.911 1186.49 183.731 Q1185.55 184.51 1184.07 185.125 Q1182.64 185.781 1181.08 185.781 Q1179.11 185.781 1177.35 185.207 Q1175.63 184.633 1174.4 183.321 Q1173.17 182.01 1173.17 180.206 Q1173.17 178.198 1174.52 176.804 Q1175.92 175.369 1177.8 175.369 Q1178.99 175.369 1179.93 176.066 Q1180.92 176.763 1180.92 178.28 Q1180.92 179.96 1179.77 181.231 Q1178.62 182.501 1176.98 182.829 Q1178.66 183.895 1181.16 183.895 Q1183.87 183.895 1186 181.518 Q1188.13 179.14 1189.16 175.164 Q1191.7 165.614 1192.68 161.351 Q1193.67 157.047 1193.67 155.203 Q1193.67 153.481 1193.21 152.292 Q1192.76 151.104 1191.98 150.571 Q1191.25 149.997 1190.55 149.792 Q1189.89 149.587 1189.16 149.587 Q1187.93 149.587 1186.53 150.079 Q1185.18 150.571 1183.54 151.719 Q1181.94 152.825 1180.43 155.121 Q1178.91 157.416 1177.88 160.572 Q1177.68 161.515 1176.78 161.515 Q1175.79 161.474 1175.79 160.654 Q1175.79 159.957 1176.33 158.523 Q1176.9 157.047 1178.05 155.203 Q1179.24 153.358 1180.75 151.719 Q1182.31 150.038 1184.57 148.89 Q1186.86 147.743 1189.32 147.743 Q1190.43 147.743 1191.49 147.989 Q1192.6 148.193 1193.91 148.808 Q1195.26 149.423 1196.45 150.776 Q1197.64 152.128 1198.38 154.096 Q1198.87 153.153 1199.53 152.251 Q1200.22 151.35 1201.29 150.243 Q1202.4 149.095 1203.91 148.439 Q1205.47 147.743 1207.19 147.743 Q1208.87 147.743 1210.51 148.193 Q1212.15 148.603 1213.55 149.956 Q1214.98 151.268 1214.98 153.276 Z" fill="#000000" fill-rule="evenodd" fill-opacity="1" /><path clip-path="url(#clip150)" d="M1255.79 115.024 Q1255.87 113.999 1257.47 113.999 L1308.91 113.999 Q1311.33 113.999 1311.37 114.942 Q1311.37 115.967 1309.07 115.926 L1258.04 115.926 Q1255.79 115.967 1255.79 115.024 M1255.79 98.6282 Q1255.79 97.6035 1257.55 97.6445 L1308.83 97.6445 Q1311.33 97.6445 1311.37 98.6282 Q1311.37 99.571 1309.24 99.571 L1257.47 99.571 Q1255.79 99.571 1255.79 98.6282 Z" fill="#000000" fill-rule="evenodd" fill-opacity="1" /><path clip-path="url(#clip150)" d="M1422.46 105.596 Q1422.95 106.088 1422.95 106.785 Q1422.95 107.482 1422.46 107.974 Q1421.96 108.466 1421.27 108.466 L1368.72 108.466 Q1368.02 108.466 1367.53 107.974 Q1367.04 107.482 1367.04 106.785 Q1367.04 106.088 1367.53 105.596 Q1368.02 105.105 1368.72 105.105 L1421.27 105.105 Q1421.96 105.105 1422.46 105.596 Z" fill="#000000" fill-rule="evenodd" fill-opacity="1" /><path clip-path="url(#clip150)" d="M1455 127.772 Q1455 126.255 1455.12 125.804 Q1455.28 125.353 1455.94 124.656 L1472.05 106.703 Q1480.86 96.7837 1480.86 88.135 Q1480.86 82.5195 1477.91 78.5025 Q1475 74.4856 1469.63 74.4856 Q1465.94 74.4856 1462.83 76.74 Q1459.71 78.9944 1458.28 83.0113 Q1458.52 82.9294 1459.38 82.9294 Q1461.47 82.9294 1462.62 84.241 Q1463.81 85.5527 1463.81 87.3152 Q1463.81 89.5696 1462.33 90.6763 Q1460.9 91.742 1459.47 91.742 Q1458.89 91.742 1458.11 91.6191 Q1457.38 91.4961 1456.19 90.3484 Q1455 89.1597 1455 87.0693 Q1455 81.2078 1459.42 76.535 Q1463.89 71.8622 1470.7 71.8622 Q1478.4 71.8622 1483.44 76.453 Q1488.53 81.0029 1488.53 88.135 Q1488.53 90.6353 1487.75 92.9307 Q1487.01 95.1851 1485.99 96.9477 Q1485 98.7102 1482.3 101.538 Q1479.59 104.367 1477.42 106.375 Q1475.25 108.384 1470.37 112.647 L1461.47 121.295 L1476.6 121.295 Q1483.98 121.295 1484.55 120.639 Q1485.37 119.451 1486.4 113.179 L1488.53 113.179 L1486.15 127.772 L1455 127.772 Z" fill="#000000" fill-rule="evenodd" fill-opacity="1" /><path clip-path="url(#clip150)" d="M1496.9 100.924 Q1496.9 88.5859 1500.02 81.8636 Q1504.36 71.8622 1514.61 71.8622 Q1516.78 71.8622 1519.04 72.4771 Q1521.33 73.0509 1524.2 75.3053 Q1527.11 77.5598 1528.88 81.2488 Q1532.24 88.3809 1532.24 100.924 Q1532.24 113.179 1529.12 119.861 Q1524.57 129.616 1514.53 129.616 Q1510.76 129.616 1506.91 127.69 Q1503.09 125.763 1500.68 121.131 Q1496.9 114.204 1496.9 100.924 M1503.87 99.8989 Q1503.87 112.565 1504.77 117.606 Q1505.8 123.058 1508.59 125.435 Q1511.41 127.772 1514.53 127.772 Q1517.89 127.772 1520.68 125.271 Q1523.51 122.73 1524.37 117.278 Q1525.31 111.909 1525.27 99.8989 Q1525.27 88.217 1524.45 83.5442 Q1523.34 78.0926 1520.39 75.9202 Q1517.48 73.7068 1514.53 73.7068 Q1513.42 73.7068 1512.23 74.0347 Q1511.09 74.3626 1509.41 75.3053 Q1507.73 76.2481 1506.41 78.5845 Q1505.14 80.9209 1504.53 84.446 Q1503.87 88.9958 1503.87 99.8989 Z" fill="#000000" fill-rule="evenodd" fill-opacity="1" /><path clip-path="url(#clip150)" d="M1575.87 93.8735 Q1575.87 94.4473 1575.5 95.8 L1567.46 127.854 Q1565.7 134.986 1559.96 139.986 Q1554.26 144.987 1547.79 144.987 Q1543.89 144.987 1541.39 142.897 Q1538.89 140.847 1538.89 137.691 Q1538.89 134.904 1540.37 133.551 Q1541.84 132.239 1543.61 132.239 Q1544.18 132.239 1544.8 132.403 Q1545.41 132.567 1546.07 133.264 Q1546.72 133.961 1546.72 135.15 Q1546.72 137.076 1545.04 138.593 Q1544.22 139.29 1543.44 139.454 Q1542.71 139.618 1541.43 139.618 Q1541.93 140.765 1542.83 141.544 Q1543.73 142.323 1544.75 142.61 Q1545.78 142.938 1546.44 143.02 Q1547.13 143.143 1547.79 143.143 Q1553.03 143.143 1557.05 137.855 Q1558.24 136.256 1559.1 134.658 Q1560 133.1 1560.66 131.174 Q1561.31 129.288 1561.6 128.263 Q1561.93 127.239 1562.5 124.902 Q1558.69 128.714 1554.02 128.714 Q1552.05 128.714 1550.29 128.182 Q1548.57 127.649 1547.05 126.542 Q1545.53 125.394 1544.63 123.386 Q1543.77 121.377 1543.77 118.713 Q1543.77 115.885 1544.88 112.032 Q1545.98 108.179 1548.65 101.088 Q1550.08 97.1116 1550.08 95.1851 Q1550.08 94.2424 1549.88 93.6685 Q1549.67 93.0537 1549.26 92.8488 Q1548.85 92.6028 1548.61 92.5618 Q1548.4 92.5208 1547.99 92.5208 Q1545.57 92.5208 1543.32 94.9802 Q1541.07 97.4396 1539.51 102.932 Q1539.18 103.957 1538.98 104.203 Q1538.77 104.449 1538.16 104.449 Q1537.13 104.408 1537.13 103.588 Q1537.13 103.26 1537.5 101.989 Q1537.87 100.678 1538.73 98.7512 Q1539.63 96.7837 1540.86 95.0212 Q1542.09 93.2177 1544.02 91.947 Q1545.98 90.6763 1548.24 90.6763 Q1551.31 90.6763 1553.2 92.6848 Q1555.12 94.6523 1555.12 97.5625 Q1555.12 98.7512 1554.8 99.8169 Q1554.51 100.842 1553.44 103.588 Q1549.14 114.655 1549.14 120.066 Q1549.14 121.377 1549.35 122.484 Q1549.59 123.55 1550.12 124.615 Q1550.66 125.64 1551.72 126.255 Q1552.83 126.829 1554.35 126.829 Q1556.27 126.829 1558.08 125.927 Q1559.92 124.984 1561.07 123.714 Q1562.26 122.443 1562.95 121.377 Q1563.69 120.271 1563.86 119.697 L1567.63 104.613 L1569.31 97.8904 Q1570.09 94.2424 1570.45 93.3406 Q1570.95 92.4799 1571.81 92.029 Q1572.67 91.5781 1573.41 91.5781 Q1574.43 91.5781 1575.13 92.1929 Q1575.87 92.8078 1575.87 93.8735 Z" fill="#000000" fill-rule="evenodd" fill-opacity="1" /><circle clip-path="url(#clip153)" cx="246.652" cy="1449.04" r="7" fill="#ff0000" fill-rule="evenodd" fill-opacity="1" stroke="#000000" stroke-opacity="1" stroke-width="0"/>
<circle clip-path="url(#clip153)" cx="247.931" cy="1449.05" r="7" fill="#ff0000" fill-rule="evenodd" fill-opacity="1" stroke="#000000" stroke-opacity="1" stroke-width="0"/>
<circle clip-path="url(#clip153)" cx="248.663" cy="1449.05" r="7" fill="#ff0000" fill-rule="evenodd" fill-opacity="1" stroke="#000000" stroke-opacity="1" stroke-width="0"/>
<circle clip-path="url(#clip153)" cx="249.855" cy="1449.06" r="7" fill="#ff0000" fill-rule="evenodd" fill-opacity="1" stroke="#000000" stroke-opacity="1" stroke-width="0"/>
<circle clip-path="url(#clip153)" cx="250.958" cy="1449.07" r="7" fill="#ff0000" fill-rule="evenodd" fill-opacity="1" stroke="#000000" stroke-opacity="1" stroke-width="0"/>
<circle clip-path="url(#clip153)" cx="252.27" cy="1449.07" r="7" fill="#ff0000" fill-rule="evenodd" fill-opacity="1" stroke="#000000" stroke-opacity="1" stroke-width="0"/>
<circle clip-path="url(#clip153)" cx="253.61" cy="1449.08" r="7" fill="#ff0000" fill-rule="evenodd" fill-opacity="1" stroke="#000000" stroke-opacity="1" stroke-width="0"/>
<circle clip-path="url(#clip153)" cx="255.057" cy="1449.08" r="7" fill="#ff0000" fill-rule="evenodd" fill-opacity="1" stroke="#000000" stroke-opacity="1" stroke-width="0"/>
<circle clip-path="url(#clip153)" cx="256.551" cy="1449.09" r="7" fill="#ff0000" fill-rule="evenodd" fill-opacity="1" stroke="#000000" stroke-opacity="1" stroke-width="0"/>
<circle clip-path="url(#clip153)" cx="258.107" cy="1449.1" r="7" fill="#ff0000" fill-rule="evenodd" fill-opacity="1" stroke="#000000" stroke-opacity="1" stroke-width="0"/>
<circle clip-path="url(#clip153)" cx="259.704" cy="1449.11" r="7" fill="#ff0000" fill-rule="evenodd" fill-opacity="1" stroke="#000000" stroke-opacity="1" stroke-width="0"/>
<circle clip-path="url(#clip153)" cx="261.342" cy="1449.11" r="7" fill="#ff0000" fill-rule="evenodd" fill-opacity="1" stroke="#000000" stroke-opacity="1" stroke-width="0"/>
<circle clip-path="url(#clip153)" cx="263.011" cy="1449.12" r="7" fill="#ff0000" fill-rule="evenodd" fill-opacity="1" stroke="#000000" stroke-opacity="1" stroke-width="0"/>
<circle clip-path="url(#clip153)" cx="264.708" cy="1449.13" r="7" fill="#ff0000" fill-rule="evenodd" fill-opacity="1" stroke="#000000" stroke-opacity="1" stroke-width="0"/>
<circle clip-path="url(#clip153)" cx="266.427" cy="1449.13" r="7" fill="#ff0000" fill-rule="evenodd" fill-opacity="1" stroke="#000000" stroke-opacity="1" stroke-width="0"/>
<circle clip-path="url(#clip153)" cx="268.167" cy="1449.14" r="7" fill="#ff0000" fill-rule="evenodd" fill-opacity="1" stroke="#000000" stroke-opacity="1" stroke-width="0"/>
<circle clip-path="url(#clip153)" cx="269.924" cy="1449.15" r="7" fill="#ff0000" fill-rule="evenodd" fill-opacity="1" stroke="#000000" stroke-opacity="1" stroke-width="0"/>
<circle clip-path="url(#clip153)" cx="271.696" cy="1449.15" r="7" fill="#ff0000" fill-rule="evenodd" fill-opacity="1" stroke="#000000" stroke-opacity="1" stroke-width="0"/>
<circle clip-path="url(#clip153)" cx="273.481" cy="1449.16" r="7" fill="#ff0000" fill-rule="evenodd" fill-opacity="1" stroke="#000000" stroke-opacity="1" stroke-width="0"/>
<circle clip-path="url(#clip153)" cx="275.279" cy="1449.17" r="7" fill="#ff0000" fill-rule="evenodd" fill-opacity="1" stroke="#000000" stroke-opacity="1" stroke-width="0"/>
<circle clip-path="url(#clip153)" cx="277.087" cy="1449.17" r="7" fill="#ff0000" fill-rule="evenodd" fill-opacity="1" stroke="#000000" stroke-opacity="1" stroke-width="0"/>
<circle clip-path="url(#clip153)" cx="278.906" cy="1449.18" r="7" fill="#ff0000" fill-rule="evenodd" fill-opacity="1" stroke="#000000" stroke-opacity="1" stroke-width="0"/>
<circle clip-path="url(#clip153)" cx="280.734" cy="1449.19" r="7" fill="#ff0000" fill-rule="evenodd" fill-opacity="1" stroke="#000000" stroke-opacity="1" stroke-width="0"/>
<circle clip-path="url(#clip153)" cx="282.571" cy="1449.19" r="7" fill="#ff0000" fill-rule="evenodd" fill-opacity="1" stroke="#000000" stroke-opacity="1" stroke-width="0"/>
<circle clip-path="url(#clip153)" cx="284.416" cy="1449.2" r="7" fill="#ff0000" fill-rule="evenodd" fill-opacity="1" stroke="#000000" stroke-opacity="1" stroke-width="0"/>
<circle clip-path="url(#clip153)" cx="286.27" cy="1449.2" r="7" fill="#ff0000" fill-rule="evenodd" fill-opacity="1" stroke="#000000" stroke-opacity="1" stroke-width="0"/>
<circle clip-path="url(#clip153)" cx="288.132" cy="1449.21" r="7" fill="#ff0000" fill-rule="evenodd" fill-opacity="1" stroke="#000000" stroke-opacity="1" stroke-width="0"/>
<circle clip-path="url(#clip153)" cx="290.002" cy="1449.22" r="7" fill="#ff0000" fill-rule="evenodd" fill-opacity="1" stroke="#000000" stroke-opacity="1" stroke-width="0"/>
<circle clip-path="url(#clip153)" cx="291.88" cy="1449.22" r="7" fill="#ff0000" fill-rule="evenodd" fill-opacity="1" stroke="#000000" stroke-opacity="1" stroke-width="0"/>
<circle clip-path="url(#clip153)" cx="293.765" cy="1449.23" r="7" fill="#ff0000" fill-rule="evenodd" fill-opacity="1" stroke="#000000" stroke-opacity="1" stroke-width="0"/>
<circle clip-path="url(#clip153)" cx="295.658" cy="1449.23" r="7" fill="#ff0000" fill-rule="evenodd" fill-opacity="1" stroke="#000000" stroke-opacity="1" stroke-width="0"/>
<circle clip-path="url(#clip153)" cx="297.559" cy="1449.24" r="7" fill="#ff0000" fill-rule="evenodd" fill-opacity="1" stroke="#000000" stroke-opacity="1" stroke-width="0"/>
<circle clip-path="url(#clip153)" cx="299.468" cy="1449.24" r="7" fill="#ff0000" fill-rule="evenodd" fill-opacity="1" stroke="#000000" stroke-opacity="1" stroke-width="0"/>
<circle clip-path="url(#clip153)" cx="301.385" cy="1449.25" r="7" fill="#ff0000" fill-rule="evenodd" fill-opacity="1" stroke="#000000" stroke-opacity="1" stroke-width="0"/>
<circle clip-path="url(#clip153)" cx="303.31" cy="1449.25" r="7" fill="#ff0000" fill-rule="evenodd" fill-opacity="1" stroke="#000000" stroke-opacity="1" stroke-width="0"/>
<circle clip-path="url(#clip153)" cx="305.243" cy="1449.26" r="7" fill="#ff0000" fill-rule="evenodd" fill-opacity="1" stroke="#000000" stroke-opacity="1" stroke-width="0"/>
<circle clip-path="url(#clip153)" cx="307.184" cy="1449.26" r="7" fill="#ff0000" fill-rule="evenodd" fill-opacity="1" stroke="#000000" stroke-opacity="1" stroke-width="0"/>
<circle clip-path="url(#clip153)" cx="309.133" cy="1449.26" r="7" fill="#ff0000" fill-rule="evenodd" fill-opacity="1" stroke="#000000" stroke-opacity="1" stroke-width="0"/>
<circle clip-path="url(#clip153)" cx="311.091" cy="1449.27" r="7" fill="#ff0000" fill-rule="evenodd" fill-opacity="1" stroke="#000000" stroke-opacity="1" stroke-width="0"/>
<circle clip-path="url(#clip153)" cx="313.057" cy="1449.27" r="7" fill="#ff0000" fill-rule="evenodd" fill-opacity="1" stroke="#000000" stroke-opacity="1" stroke-width="0"/>
<circle clip-path="url(#clip153)" cx="315.032" cy="1449.28" r="7" fill="#ff0000" fill-rule="evenodd" fill-opacity="1" stroke="#000000" stroke-opacity="1" stroke-width="0"/>
<circle clip-path="url(#clip153)" cx="317.016" cy="1449.28" r="7" fill="#ff0000" fill-rule="evenodd" fill-opacity="1" stroke="#000000" stroke-opacity="1" stroke-width="0"/>
<circle clip-path="url(#clip153)" cx="319.009" cy="1449.29" r="7" fill="#ff0000" fill-rule="evenodd" fill-opacity="1" stroke="#000000" stroke-opacity="1" stroke-width="0"/>
<circle clip-path="url(#clip153)" cx="321.01" cy="1449.29" r="7" fill="#ff0000" fill-rule="evenodd" fill-opacity="1" stroke="#000000" stroke-opacity="1" stroke-width="0"/>
<circle clip-path="url(#clip153)" cx="323.021" cy="1449.29" r="7" fill="#ff0000" fill-rule="evenodd" fill-opacity="1" stroke="#000000" stroke-opacity="1" stroke-width="0"/>
<circle clip-path="url(#clip153)" cx="325.041" cy="1449.3" r="7" fill="#ff0000" fill-rule="evenodd" fill-opacity="1" stroke="#000000" stroke-opacity="1" stroke-width="0"/>
<circle clip-path="url(#clip153)" cx="327.071" cy="1449.3" r="7" fill="#ff0000" fill-rule="evenodd" fill-opacity="1" stroke="#000000" stroke-opacity="1" stroke-width="0"/>
<circle clip-path="url(#clip153)" cx="329.11" cy="1449.3" r="7" fill="#ff0000" fill-rule="evenodd" fill-opacity="1" stroke="#000000" stroke-opacity="1" stroke-width="0"/>
<circle clip-path="url(#clip153)" cx="331.159" cy="1449.31" r="7" fill="#ff0000" fill-rule="evenodd" fill-opacity="1" stroke="#000000" stroke-opacity="1" stroke-width="0"/>
<circle clip-path="url(#clip153)" cx="333.218" cy="1449.31" r="7" fill="#ff0000" fill-rule="evenodd" fill-opacity="1" stroke="#000000" stroke-opacity="1" stroke-width="0"/>
<circle clip-path="url(#clip153)" cx="335.288" cy="1449.32" r="7" fill="#ff0000" fill-rule="evenodd" fill-opacity="1" stroke="#000000" stroke-opacity="1" stroke-width="0"/>
<circle clip-path="url(#clip153)" cx="337.367" cy="1449.32" r="7" fill="#ff0000" fill-rule="evenodd" fill-opacity="1" stroke="#000000" stroke-opacity="1" stroke-width="0"/>
<circle clip-path="url(#clip153)" cx="339.457" cy="1449.32" r="7" fill="#ff0000" fill-rule="evenodd" fill-opacity="1" stroke="#000000" stroke-opacity="1" stroke-width="0"/>
<circle clip-path="url(#clip153)" cx="341.558" cy="1449.33" r="7" fill="#ff0000" fill-rule="evenodd" fill-opacity="1" stroke="#000000" stroke-opacity="1" stroke-width="0"/>
<circle clip-path="url(#clip153)" cx="343.669" cy="1449.33" r="7" fill="#ff0000" fill-rule="evenodd" fill-opacity="1" stroke="#000000" stroke-opacity="1" stroke-width="0"/>
<circle clip-path="url(#clip153)" cx="345.792" cy="1449.33" r="7" fill="#ff0000" fill-rule="evenodd" fill-opacity="1" stroke="#000000" stroke-opacity="1" stroke-width="0"/>
<circle clip-path="url(#clip153)" cx="347.926" cy="1449.33" r="7" fill="#ff0000" fill-rule="evenodd" fill-opacity="1" stroke="#000000" stroke-opacity="1" stroke-width="0"/>
<circle clip-path="url(#clip153)" cx="350.071" cy="1449.34" r="7" fill="#ff0000" fill-rule="evenodd" fill-opacity="1" stroke="#000000" stroke-opacity="1" stroke-width="0"/>
<circle clip-path="url(#clip153)" cx="352.227" cy="1449.34" r="7" fill="#ff0000" fill-rule="evenodd" fill-opacity="1" stroke="#000000" stroke-opacity="1" stroke-width="0"/>
<circle clip-path="url(#clip153)" cx="354.396" cy="1449.34" r="7" fill="#ff0000" fill-rule="evenodd" fill-opacity="1" stroke="#000000" stroke-opacity="1" stroke-width="0"/>
<circle clip-path="url(#clip153)" cx="356.576" cy="1449.35" r="7" fill="#ff0000" fill-rule="evenodd" fill-opacity="1" stroke="#000000" stroke-opacity="1" stroke-width="0"/>
<circle clip-path="url(#clip153)" cx="358.768" cy="1449.35" r="7" fill="#ff0000" fill-rule="evenodd" fill-opacity="1" stroke="#000000" stroke-opacity="1" stroke-width="0"/>
<circle clip-path="url(#clip153)" cx="360.973" cy="1449.35" r="7" fill="#ff0000" fill-rule="evenodd" fill-opacity="1" stroke="#000000" stroke-opacity="1" stroke-width="0"/>
<circle clip-path="url(#clip153)" cx="363.191" cy="1449.35" r="7" fill="#ff0000" fill-rule="evenodd" fill-opacity="1" stroke="#000000" stroke-opacity="1" stroke-width="0"/>
<circle clip-path="url(#clip153)" cx="365.421" cy="1449.36" r="7" fill="#ff0000" fill-rule="evenodd" fill-opacity="1" stroke="#000000" stroke-opacity="1" stroke-width="0"/>
<circle clip-path="url(#clip153)" cx="367.664" cy="1449.36" r="7" fill="#ff0000" fill-rule="evenodd" fill-opacity="1" stroke="#000000" stroke-opacity="1" stroke-width="0"/>
<circle clip-path="url(#clip153)" cx="369.921" cy="1449.36" r="7" fill="#ff0000" fill-rule="evenodd" fill-opacity="1" stroke="#000000" stroke-opacity="1" stroke-width="0"/>
<circle clip-path="url(#clip153)" cx="372.191" cy="1449.36" r="7" fill="#ff0000" fill-rule="evenodd" fill-opacity="1" stroke="#000000" stroke-opacity="1" stroke-width="0"/>
<circle clip-path="url(#clip153)" cx="374.474" cy="1449.36" r="7" fill="#ff0000" fill-rule="evenodd" fill-opacity="1" stroke="#000000" stroke-opacity="1" stroke-width="0"/>
<circle clip-path="url(#clip153)" cx="376.772" cy="1449.37" r="7" fill="#ff0000" fill-rule="evenodd" fill-opacity="1" stroke="#000000" stroke-opacity="1" stroke-width="0"/>
<circle clip-path="url(#clip153)" cx="379.084" cy="1449.37" r="7" fill="#ff0000" fill-rule="evenodd" fill-opacity="1" stroke="#000000" stroke-opacity="1" stroke-width="0"/>
<circle clip-path="url(#clip153)" cx="381.41" cy="1449.37" r="7" fill="#ff0000" fill-rule="evenodd" fill-opacity="1" stroke="#000000" stroke-opacity="1" stroke-width="0"/>
<circle clip-path="url(#clip153)" cx="383.75" cy="1449.37" r="7" fill="#ff0000" fill-rule="evenodd" fill-opacity="1" stroke="#000000" stroke-opacity="1" stroke-width="0"/>
<circle clip-path="url(#clip153)" cx="386.106" cy="1449.38" r="7" fill="#ff0000" fill-rule="evenodd" fill-opacity="1" stroke="#000000" stroke-opacity="1" stroke-width="0"/>
<circle clip-path="url(#clip153)" cx="388.477" cy="1449.38" r="7" fill="#ff0000" fill-rule="evenodd" fill-opacity="1" stroke="#000000" stroke-opacity="1" stroke-width="0"/>
<circle clip-path="url(#clip153)" cx="390.863" cy="1449.38" r="7" fill="#ff0000" fill-rule="evenodd" fill-opacity="1" stroke="#000000" stroke-opacity="1" stroke-width="0"/>
<circle clip-path="url(#clip153)" cx="393.265" cy="1449.38" r="7" fill="#ff0000" fill-rule="evenodd" fill-opacity="1" stroke="#000000" stroke-opacity="1" stroke-width="0"/>
<circle clip-path="url(#clip153)" cx="395.683" cy="1449.38" r="7" fill="#ff0000" fill-rule="evenodd" fill-opacity="1" stroke="#000000" stroke-opacity="1" stroke-width="0"/>
<circle clip-path="url(#clip153)" cx="398.117" cy="1449.38" r="7" fill="#ff0000" fill-rule="evenodd" fill-opacity="1" stroke="#000000" stroke-opacity="1" stroke-width="0"/>
<circle clip-path="url(#clip153)" cx="400.567" cy="1449.39" r="7" fill="#ff0000" fill-rule="evenodd" fill-opacity="1" stroke="#000000" stroke-opacity="1" stroke-width="0"/>
<circle clip-path="url(#clip153)" cx="403.035" cy="1449.39" r="7" fill="#ff0000" fill-rule="evenodd" fill-opacity="1" stroke="#000000" stroke-opacity="1" stroke-width="0"/>
<circle clip-path="url(#clip153)" cx="405.519" cy="1449.39" r="7" fill="#ff0000" fill-rule="evenodd" fill-opacity="1" stroke="#000000" stroke-opacity="1" stroke-width="0"/>
<circle clip-path="url(#clip153)" cx="408.021" cy="1449.39" r="7" fill="#ff0000" fill-rule="evenodd" fill-opacity="1" stroke="#000000" stroke-opacity="1" stroke-width="0"/>
<circle clip-path="url(#clip153)" cx="410.541" cy="1449.39" r="7" fill="#ff0000" fill-rule="evenodd" fill-opacity="1" stroke="#000000" stroke-opacity="1" stroke-width="0"/>
<circle clip-path="url(#clip153)" cx="413.079" cy="1449.39" r="7" fill="#ff0000" fill-rule="evenodd" fill-opacity="1" stroke="#000000" stroke-opacity="1" stroke-width="0"/>
<circle clip-path="url(#clip153)" cx="415.635" cy="1449.4" r="7" fill="#ff0000" fill-rule="evenodd" fill-opacity="1" stroke="#000000" stroke-opacity="1" stroke-width="0"/>
<circle clip-path="url(#clip153)" cx="418.21" cy="1449.4" r="7" fill="#ff0000" fill-rule="evenodd" fill-opacity="1" stroke="#000000" stroke-opacity="1" stroke-width="0"/>
<circle clip-path="url(#clip153)" cx="420.803" cy="1449.4" r="7" fill="#ff0000" fill-rule="evenodd" fill-opacity="1" stroke="#000000" stroke-opacity="1" stroke-width="0"/>
<circle clip-path="url(#clip153)" cx="423.417" cy="1449.4" r="7" fill="#ff0000" fill-rule="evenodd" fill-opacity="1" stroke="#000000" stroke-opacity="1" stroke-width="0"/>
<circle clip-path="url(#clip153)" cx="426.05" cy="1449.4" r="7" fill="#ff0000" fill-rule="evenodd" fill-opacity="1" stroke="#000000" stroke-opacity="1" stroke-width="0"/>
<circle clip-path="url(#clip153)" cx="428.703" cy="1449.4" r="7" fill="#ff0000" fill-rule="evenodd" fill-opacity="1" stroke="#000000" stroke-opacity="1" stroke-width="0"/>
<circle clip-path="url(#clip153)" cx="431.376" cy="1449.4" r="7" fill="#ff0000" fill-rule="evenodd" fill-opacity="1" stroke="#000000" stroke-opacity="1" stroke-width="0"/>
<circle clip-path="url(#clip153)" cx="434.07" cy="1449.4" r="7" fill="#ff0000" fill-rule="evenodd" fill-opacity="1" stroke="#000000" stroke-opacity="1" stroke-width="0"/>
<circle clip-path="url(#clip153)" cx="436.786" cy="1449.41" r="7" fill="#ff0000" fill-rule="evenodd" fill-opacity="1" stroke="#000000" stroke-opacity="1" stroke-width="0"/>
<circle clip-path="url(#clip153)" cx="439.523" cy="1449.41" r="7" fill="#ff0000" fill-rule="evenodd" fill-opacity="1" stroke="#000000" stroke-opacity="1" stroke-width="0"/>
<circle clip-path="url(#clip153)" cx="442.282" cy="1449.41" r="7" fill="#ff0000" fill-rule="evenodd" fill-opacity="1" stroke="#000000" stroke-opacity="1" stroke-width="0"/>
<circle clip-path="url(#clip153)" cx="445.064" cy="1449.41" r="7" fill="#ff0000" fill-rule="evenodd" fill-opacity="1" stroke="#000000" stroke-opacity="1" stroke-width="0"/>
<circle clip-path="url(#clip153)" cx="447.869" cy="1449.41" r="7" fill="#ff0000" fill-rule="evenodd" fill-opacity="1" stroke="#000000" stroke-opacity="1" stroke-width="0"/>
<circle clip-path="url(#clip153)" cx="450.696" cy="1449.41" r="7" fill="#ff0000" fill-rule="evenodd" fill-opacity="1" stroke="#000000" stroke-opacity="1" stroke-width="0"/>
<circle clip-path="url(#clip153)" cx="453.548" cy="1449.41" r="7" fill="#ff0000" fill-rule="evenodd" fill-opacity="1" stroke="#000000" stroke-opacity="1" stroke-width="0"/>
<circle clip-path="url(#clip153)" cx="456.424" cy="1449.41" r="7" fill="#ff0000" fill-rule="evenodd" fill-opacity="1" stroke="#000000" stroke-opacity="1" stroke-width="0"/>
<circle clip-path="url(#clip153)" cx="459.324" cy="1449.41" r="7" fill="#ff0000" fill-rule="evenodd" fill-opacity="1" stroke="#000000" stroke-opacity="1" stroke-width="0"/>
<circle clip-path="url(#clip153)" cx="462.25" cy="1449.42" r="7" fill="#ff0000" fill-rule="evenodd" fill-opacity="1" stroke="#000000" stroke-opacity="1" stroke-width="0"/>
<circle clip-path="url(#clip153)" cx="465.201" cy="1449.42" r="7" fill="#ff0000" fill-rule="evenodd" fill-opacity="1" stroke="#000000" stroke-opacity="1" stroke-width="0"/>
<circle clip-path="url(#clip153)" cx="468.179" cy="1449.42" r="7" fill="#ff0000" fill-rule="evenodd" fill-opacity="1" stroke="#000000" stroke-opacity="1" stroke-width="0"/>
<circle clip-path="url(#clip153)" cx="471.183" cy="1449.42" r="7" fill="#ff0000" fill-rule="evenodd" fill-opacity="1" stroke="#000000" stroke-opacity="1" stroke-width="0"/>
<circle clip-path="url(#clip153)" cx="474.214" cy="1449.42" r="7" fill="#ff0000" fill-rule="evenodd" fill-opacity="1" stroke="#000000" stroke-opacity="1" stroke-width="0"/>
<circle clip-path="url(#clip153)" cx="477.273" cy="1449.42" r="7" fill="#ff0000" fill-rule="evenodd" fill-opacity="1" stroke="#000000" stroke-opacity="1" stroke-width="0"/>
<circle clip-path="url(#clip153)" cx="480.361" cy="1449.42" r="7" fill="#ff0000" fill-rule="evenodd" fill-opacity="1" stroke="#000000" stroke-opacity="1" stroke-width="0"/>
<circle clip-path="url(#clip153)" cx="483.477" cy="1449.42" r="7" fill="#ff0000" fill-rule="evenodd" fill-opacity="1" stroke="#000000" stroke-opacity="1" stroke-width="0"/>
<circle clip-path="url(#clip153)" cx="486.623" cy="1449.42" r="7" fill="#ff0000" fill-rule="evenodd" fill-opacity="1" stroke="#000000" stroke-opacity="1" stroke-width="0"/>
<circle clip-path="url(#clip153)" cx="489.799" cy="1449.42" r="7" fill="#ff0000" fill-rule="evenodd" fill-opacity="1" stroke="#000000" stroke-opacity="1" stroke-width="0"/>
<circle clip-path="url(#clip153)" cx="493.005" cy="1449.42" r="7" fill="#ff0000" fill-rule="evenodd" fill-opacity="1" stroke="#000000" stroke-opacity="1" stroke-width="0"/>
<circle clip-path="url(#clip153)" cx="496.243" cy="1449.42" r="7" fill="#ff0000" fill-rule="evenodd" fill-opacity="1" stroke="#000000" stroke-opacity="1" stroke-width="0"/>
<circle clip-path="url(#clip153)" cx="499.513" cy="1449.42" r="7" fill="#ff0000" fill-rule="evenodd" fill-opacity="1" stroke="#000000" stroke-opacity="1" stroke-width="0"/>
<circle clip-path="url(#clip153)" cx="502.816" cy="1449.42" r="7" fill="#ff0000" fill-rule="evenodd" fill-opacity="1" stroke="#000000" stroke-opacity="1" stroke-width="0"/>
<circle clip-path="url(#clip153)" cx="506.152" cy="1449.43" r="7" fill="#ff0000" fill-rule="evenodd" fill-opacity="1" stroke="#000000" stroke-opacity="1" stroke-width="0"/>
<circle clip-path="url(#clip153)" cx="509.522" cy="1449.43" r="7" fill="#ff0000" fill-rule="evenodd" fill-opacity="1" stroke="#000000" stroke-opacity="1" stroke-width="0"/>
<circle clip-path="url(#clip153)" cx="512.927" cy="1449.43" r="7" fill="#ff0000" fill-rule="evenodd" fill-opacity="1" stroke="#000000" stroke-opacity="1" stroke-width="0"/>
<circle clip-path="url(#clip153)" cx="516.368" cy="1449.43" r="7" fill="#ff0000" fill-rule="evenodd" fill-opacity="1" stroke="#000000" stroke-opacity="1" stroke-width="0"/>
<circle clip-path="url(#clip153)" cx="519.846" cy="1449.43" r="7" fill="#ff0000" fill-rule="evenodd" fill-opacity="1" stroke="#000000" stroke-opacity="1" stroke-width="0"/>
<circle clip-path="url(#clip153)" cx="523.36" cy="1449.43" r="7" fill="#ff0000" fill-rule="evenodd" fill-opacity="1" stroke="#000000" stroke-opacity="1" stroke-width="0"/>
<circle clip-path="url(#clip153)" cx="526.913" cy="1449.43" r="7" fill="#ff0000" fill-rule="evenodd" fill-opacity="1" stroke="#000000" stroke-opacity="1" stroke-width="0"/>
<circle clip-path="url(#clip153)" cx="530.504" cy="1449.43" r="7" fill="#ff0000" fill-rule="evenodd" fill-opacity="1" stroke="#000000" stroke-opacity="1" stroke-width="0"/>
<circle clip-path="url(#clip153)" cx="534.136" cy="1449.43" r="7" fill="#ff0000" fill-rule="evenodd" fill-opacity="1" stroke="#000000" stroke-opacity="1" stroke-width="0"/>
<circle clip-path="url(#clip153)" cx="537.808" cy="1449.43" r="7" fill="#ff0000" fill-rule="evenodd" fill-opacity="1" stroke="#000000" stroke-opacity="1" stroke-width="0"/>
<circle clip-path="url(#clip153)" cx="541.522" cy="1449.43" r="7" fill="#ff0000" fill-rule="evenodd" fill-opacity="1" stroke="#000000" stroke-opacity="1" stroke-width="0"/>
<circle clip-path="url(#clip153)" cx="545.279" cy="1449.43" r="7" fill="#ff0000" fill-rule="evenodd" fill-opacity="1" stroke="#000000" stroke-opacity="1" stroke-width="0"/>
<circle clip-path="url(#clip153)" cx="549.08" cy="1449.43" r="7" fill="#ff0000" fill-rule="evenodd" fill-opacity="1" stroke="#000000" stroke-opacity="1" stroke-width="0"/>
<circle clip-path="url(#clip153)" cx="552.925" cy="1449.43" r="7" fill="#ff0000" fill-rule="evenodd" fill-opacity="1" stroke="#000000" stroke-opacity="1" stroke-width="0"/>
<circle clip-path="url(#clip153)" cx="556.816" cy="1449.43" r="7" fill="#ff0000" fill-rule="evenodd" fill-opacity="1" stroke="#000000" stroke-opacity="1" stroke-width="0"/>
<circle clip-path="url(#clip153)" cx="560.755" cy="1449.43" r="7" fill="#ff0000" fill-rule="evenodd" fill-opacity="1" stroke="#000000" stroke-opacity="1" stroke-width="0"/>
<circle clip-path="url(#clip153)" cx="564.741" cy="1449.43" r="7" fill="#ff0000" fill-rule="evenodd" fill-opacity="1" stroke="#000000" stroke-opacity="1" stroke-width="0"/>
<circle clip-path="url(#clip153)" cx="568.777" cy="1449.43" r="7" fill="#ff0000" fill-rule="evenodd" fill-opacity="1" stroke="#000000" stroke-opacity="1" stroke-width="0"/>
<circle clip-path="url(#clip153)" cx="572.864" cy="1449.43" r="7" fill="#ff0000" fill-rule="evenodd" fill-opacity="1" stroke="#000000" stroke-opacity="1" stroke-width="0"/>
<circle clip-path="url(#clip153)" cx="577.002" cy="1449.43" r="7" fill="#ff0000" fill-rule="evenodd" fill-opacity="1" stroke="#000000" stroke-opacity="1" stroke-width="0"/>
<circle clip-path="url(#clip153)" cx="581.194" cy="1449.43" r="7" fill="#ff0000" fill-rule="evenodd" fill-opacity="1" stroke="#000000" stroke-opacity="1" stroke-width="0"/>
<circle clip-path="url(#clip153)" cx="585.441" cy="1449.43" r="7" fill="#ff0000" fill-rule="evenodd" fill-opacity="1" stroke="#000000" stroke-opacity="1" stroke-width="0"/>
<circle clip-path="url(#clip153)" cx="589.744" cy="1449.43" r="7" fill="#ff0000" fill-rule="evenodd" fill-opacity="1" stroke="#000000" stroke-opacity="1" stroke-width="0"/>
<circle clip-path="url(#clip153)" cx="594.105" cy="1449.43" r="7" fill="#ff0000" fill-rule="evenodd" fill-opacity="1" stroke="#000000" stroke-opacity="1" stroke-width="0"/>
<circle clip-path="url(#clip153)" cx="598.524" cy="1449.43" r="7" fill="#ff0000" fill-rule="evenodd" fill-opacity="1" stroke="#000000" stroke-opacity="1" stroke-width="0"/>
<circle clip-path="url(#clip153)" cx="603.005" cy="1449.43" r="7" fill="#ff0000" fill-rule="evenodd" fill-opacity="1" stroke="#000000" stroke-opacity="1" stroke-width="0"/>
<circle clip-path="url(#clip153)" cx="607.549" cy="1449.43" r="7" fill="#ff0000" fill-rule="evenodd" fill-opacity="1" stroke="#000000" stroke-opacity="1" stroke-width="0"/>
<circle clip-path="url(#clip153)" cx="612.156" cy="1449.44" r="7" fill="#ff0000" fill-rule="evenodd" fill-opacity="1" stroke="#000000" stroke-opacity="1" stroke-width="0"/>
<circle clip-path="url(#clip153)" cx="616.83" cy="1449.44" r="7" fill="#ff0000" fill-rule="evenodd" fill-opacity="1" stroke="#000000" stroke-opacity="1" stroke-width="0"/>
<circle clip-path="url(#clip153)" cx="621.572" cy="1449.44" r="7" fill="#ff0000" fill-rule="evenodd" fill-opacity="1" stroke="#000000" stroke-opacity="1" stroke-width="0"/>
<circle clip-path="url(#clip153)" cx="626.385" cy="1449.44" r="7" fill="#ff0000" fill-rule="evenodd" fill-opacity="1" stroke="#000000" stroke-opacity="1" stroke-width="0"/>
<circle clip-path="url(#clip153)" cx="631.269" cy="1449.44" r="7" fill="#ff0000" fill-rule="evenodd" fill-opacity="1" stroke="#000000" stroke-opacity="1" stroke-width="0"/>
<circle clip-path="url(#clip153)" cx="636.228" cy="1449.44" r="7" fill="#ff0000" fill-rule="evenodd" fill-opacity="1" stroke="#000000" stroke-opacity="1" stroke-width="0"/>
<circle clip-path="url(#clip153)" cx="641.263" cy="1449.44" r="7" fill="#ff0000" fill-rule="evenodd" fill-opacity="1" stroke="#000000" stroke-opacity="1" stroke-width="0"/>
<circle clip-path="url(#clip153)" cx="646.378" cy="1449.44" r="7" fill="#ff0000" fill-rule="evenodd" fill-opacity="1" stroke="#000000" stroke-opacity="1" stroke-width="0"/>
<circle clip-path="url(#clip153)" cx="651.573" cy="1449.44" r="7" fill="#ff0000" fill-rule="evenodd" fill-opacity="1" stroke="#000000" stroke-opacity="1" stroke-width="0"/>
<circle clip-path="url(#clip153)" cx="656.854" cy="1449.44" r="7" fill="#ff0000" fill-rule="evenodd" fill-opacity="1" stroke="#000000" stroke-opacity="1" stroke-width="0"/>
<circle clip-path="url(#clip153)" cx="662.22" cy="1449.44" r="7" fill="#ff0000" fill-rule="evenodd" fill-opacity="1" stroke="#000000" stroke-opacity="1" stroke-width="0"/>
<circle clip-path="url(#clip153)" cx="667.677" cy="1449.44" r="7" fill="#ff0000" fill-rule="evenodd" fill-opacity="1" stroke="#000000" stroke-opacity="1" stroke-width="0"/>
<circle clip-path="url(#clip153)" cx="673.226" cy="1449.44" r="7" fill="#ff0000" fill-rule="evenodd" fill-opacity="1" stroke="#000000" stroke-opacity="1" stroke-width="0"/>
<circle clip-path="url(#clip153)" cx="678.871" cy="1449.44" r="7" fill="#ff0000" fill-rule="evenodd" fill-opacity="1" stroke="#000000" stroke-opacity="1" stroke-width="0"/>
<circle clip-path="url(#clip153)" cx="684.615" cy="1449.44" r="7" fill="#ff0000" fill-rule="evenodd" fill-opacity="1" stroke="#000000" stroke-opacity="1" stroke-width="0"/>
<circle clip-path="url(#clip153)" cx="690.462" cy="1449.44" r="7" fill="#ff0000" fill-rule="evenodd" fill-opacity="1" stroke="#000000" stroke-opacity="1" stroke-width="0"/>
<circle clip-path="url(#clip153)" cx="696.415" cy="1449.44" r="7" fill="#ff0000" fill-rule="evenodd" fill-opacity="1" stroke="#000000" stroke-opacity="1" stroke-width="0"/>
<circle clip-path="url(#clip153)" cx="702.477" cy="1449.44" r="7" fill="#ff0000" fill-rule="evenodd" fill-opacity="1" stroke="#000000" stroke-opacity="1" stroke-width="0"/>
<circle clip-path="url(#clip153)" cx="708.654" cy="1449.44" r="7" fill="#ff0000" fill-rule="evenodd" fill-opacity="1" stroke="#000000" stroke-opacity="1" stroke-width="0"/>
<circle clip-path="url(#clip153)" cx="714.949" cy="1449.44" r="7" fill="#ff0000" fill-rule="evenodd" fill-opacity="1" stroke="#000000" stroke-opacity="1" stroke-width="0"/>
<circle clip-path="url(#clip153)" cx="721.367" cy="1449.44" r="7" fill="#ff0000" fill-rule="evenodd" fill-opacity="1" stroke="#000000" stroke-opacity="1" stroke-width="0"/>
<circle clip-path="url(#clip153)" cx="727.912" cy="1449.44" r="7" fill="#ff0000" fill-rule="evenodd" fill-opacity="1" stroke="#000000" stroke-opacity="1" stroke-width="0"/>
<circle clip-path="url(#clip153)" cx="734.59" cy="1449.44" r="7" fill="#ff0000" fill-rule="evenodd" fill-opacity="1" stroke="#000000" stroke-opacity="1" stroke-width="0"/>
<circle clip-path="url(#clip153)" cx="741.406" cy="1449.44" r="7" fill="#ff0000" fill-rule="evenodd" fill-opacity="1" stroke="#000000" stroke-opacity="1" stroke-width="0"/>
<circle clip-path="url(#clip153)" cx="748.365" cy="1449.44" r="7" fill="#ff0000" fill-rule="evenodd" fill-opacity="1" stroke="#000000" stroke-opacity="1" stroke-width="0"/>
<circle clip-path="url(#clip153)" cx="755.474" cy="1449.44" r="7" fill="#ff0000" fill-rule="evenodd" fill-opacity="1" stroke="#000000" stroke-opacity="1" stroke-width="0"/>
<circle clip-path="url(#clip153)" cx="762.738" cy="1449.44" r="7" fill="#ff0000" fill-rule="evenodd" fill-opacity="1" stroke="#000000" stroke-opacity="1" stroke-width="0"/>
<circle clip-path="url(#clip153)" cx="770.165" cy="1449.44" r="7" fill="#ff0000" fill-rule="evenodd" fill-opacity="1" stroke="#000000" stroke-opacity="1" stroke-width="0"/>
<circle clip-path="url(#clip153)" cx="777.761" cy="1449.44" r="7" fill="#ff0000" fill-rule="evenodd" fill-opacity="1" stroke="#000000" stroke-opacity="1" stroke-width="0"/>
<circle clip-path="url(#clip153)" cx="785.535" cy="1449.44" r="7" fill="#ff0000" fill-rule="evenodd" fill-opacity="1" stroke="#000000" stroke-opacity="1" stroke-width="0"/>
<circle clip-path="url(#clip153)" cx="793.494" cy="1449.44" r="7" fill="#ff0000" fill-rule="evenodd" fill-opacity="1" stroke="#000000" stroke-opacity="1" stroke-width="0"/>
<circle clip-path="url(#clip153)" cx="801.648" cy="1449.44" r="7" fill="#ff0000" fill-rule="evenodd" fill-opacity="1" stroke="#000000" stroke-opacity="1" stroke-width="0"/>
<circle clip-path="url(#clip153)" cx="810.005" cy="1449.44" r="7" fill="#ff0000" fill-rule="evenodd" fill-opacity="1" stroke="#000000" stroke-opacity="1" stroke-width="0"/>
<circle clip-path="url(#clip153)" cx="818.575" cy="1449.44" r="7" fill="#ff0000" fill-rule="evenodd" fill-opacity="1" stroke="#000000" stroke-opacity="1" stroke-width="0"/>
<circle clip-path="url(#clip153)" cx="827.369" cy="1449.44" r="7" fill="#ff0000" fill-rule="evenodd" fill-opacity="1" stroke="#000000" stroke-opacity="1" stroke-width="0"/>
<circle clip-path="url(#clip153)" cx="836.399" cy="1449.44" r="7" fill="#ff0000" fill-rule="evenodd" fill-opacity="1" stroke="#000000" stroke-opacity="1" stroke-width="0"/>
<circle clip-path="url(#clip153)" cx="845.678" cy="1449.44" r="7" fill="#ff0000" fill-rule="evenodd" fill-opacity="1" stroke="#000000" stroke-opacity="1" stroke-width="0"/>
<circle clip-path="url(#clip153)" cx="855.217" cy="1449.44" r="7" fill="#ff0000" fill-rule="evenodd" fill-opacity="1" stroke="#000000" stroke-opacity="1" stroke-width="0"/>
<circle clip-path="url(#clip153)" cx="865.033" cy="1449.44" r="7" fill="#ff0000" fill-rule="evenodd" fill-opacity="1" stroke="#000000" stroke-opacity="1" stroke-width="0"/>
<circle clip-path="url(#clip153)" cx="875.14" cy="1449.44" r="7" fill="#ff0000" fill-rule="evenodd" fill-opacity="1" stroke="#000000" stroke-opacity="1" stroke-width="0"/>
<circle clip-path="url(#clip153)" cx="885.555" cy="1449.44" r="7" fill="#ff0000" fill-rule="evenodd" fill-opacity="1" stroke="#000000" stroke-opacity="1" stroke-width="0"/>
<circle clip-path="url(#clip153)" cx="896.297" cy="1449.44" r="7" fill="#ff0000" fill-rule="evenodd" fill-opacity="1" stroke="#000000" stroke-opacity="1" stroke-width="0"/>
<circle clip-path="url(#clip153)" cx="907.387" cy="1449.44" r="7" fill="#ff0000" fill-rule="evenodd" fill-opacity="1" stroke="#000000" stroke-opacity="1" stroke-width="0"/>
<circle clip-path="url(#clip153)" cx="918.845" cy="1449.44" r="7" fill="#ff0000" fill-rule="evenodd" fill-opacity="1" stroke="#000000" stroke-opacity="1" stroke-width="0"/>
<circle clip-path="url(#clip153)" cx="930.696" cy="1449.44" r="7" fill="#ff0000" fill-rule="evenodd" fill-opacity="1" stroke="#000000" stroke-opacity="1" stroke-width="0"/>
<circle clip-path="url(#clip153)" cx="942.966" cy="1449.44" r="7" fill="#ff0000" fill-rule="evenodd" fill-opacity="1" stroke="#000000" stroke-opacity="1" stroke-width="0"/>
<circle clip-path="url(#clip153)" cx="955.684" cy="1449.44" r="7" fill="#ff0000" fill-rule="evenodd" fill-opacity="1" stroke="#000000" stroke-opacity="1" stroke-width="0"/>
<circle clip-path="url(#clip153)" cx="968.882" cy="1449.44" r="7" fill="#ff0000" fill-rule="evenodd" fill-opacity="1" stroke="#000000" stroke-opacity="1" stroke-width="0"/>
<circle clip-path="url(#clip153)" cx="982.596" cy="1449.44" r="7" fill="#ff0000" fill-rule="evenodd" fill-opacity="1" stroke="#000000" stroke-opacity="1" stroke-width="0"/>
<circle clip-path="url(#clip153)" cx="996.864" cy="1449.44" r="7" fill="#ff0000" fill-rule="evenodd" fill-opacity="1" stroke="#000000" stroke-opacity="1" stroke-width="0"/>
<circle clip-path="url(#clip153)" cx="1011.73" cy="1449.44" r="7" fill="#ff0000" fill-rule="evenodd" fill-opacity="1" stroke="#000000" stroke-opacity="1" stroke-width="0"/>
<circle clip-path="url(#clip153)" cx="1027.24" cy="1449.44" r="7" fill="#ff0000" fill-rule="evenodd" fill-opacity="1" stroke="#000000" stroke-opacity="1" stroke-width="0"/>
<circle clip-path="url(#clip153)" cx="1043.46" cy="1449.44" r="7" fill="#ff0000" fill-rule="evenodd" fill-opacity="1" stroke="#000000" stroke-opacity="1" stroke-width="0"/>
<circle clip-path="url(#clip153)" cx="1060.44" cy="1449.44" r="7" fill="#ff0000" fill-rule="evenodd" fill-opacity="1" stroke="#000000" stroke-opacity="1" stroke-width="0"/>
<circle clip-path="url(#clip153)" cx="1078.25" cy="1449.44" r="7" fill="#ff0000" fill-rule="evenodd" fill-opacity="1" stroke="#000000" stroke-opacity="1" stroke-width="0"/>
<circle clip-path="url(#clip153)" cx="1096.97" cy="1449.44" r="7" fill="#ff0000" fill-rule="evenodd" fill-opacity="1" stroke="#000000" stroke-opacity="1" stroke-width="0"/>
<circle clip-path="url(#clip153)" cx="1116.7" cy="1449.44" r="7" fill="#ff0000" fill-rule="evenodd" fill-opacity="1" stroke="#000000" stroke-opacity="1" stroke-width="0"/>
<circle clip-path="url(#clip153)" cx="1137.53" cy="1449.44" r="7" fill="#ff0000" fill-rule="evenodd" fill-opacity="1" stroke="#000000" stroke-opacity="1" stroke-width="0"/>
<circle clip-path="url(#clip153)" cx="1159.59" cy="1449.44" r="7" fill="#ff0000" fill-rule="evenodd" fill-opacity="1" stroke="#000000" stroke-opacity="1" stroke-width="0"/>
<circle clip-path="url(#clip153)" cx="1183.02" cy="1449.44" r="7" fill="#ff0000" fill-rule="evenodd" fill-opacity="1" stroke="#000000" stroke-opacity="1" stroke-width="0"/>
<circle clip-path="url(#clip153)" cx="1207.97" cy="1449.44" r="7" fill="#ff0000" fill-rule="evenodd" fill-opacity="1" stroke="#000000" stroke-opacity="1" stroke-width="0"/>
<circle clip-path="url(#clip153)" cx="1234.65" cy="1449.44" r="7" fill="#ff0000" fill-rule="evenodd" fill-opacity="1" stroke="#000000" stroke-opacity="1" stroke-width="0"/>
<circle clip-path="url(#clip153)" cx="1263.28" cy="1449.44" r="7" fill="#ff0000" fill-rule="evenodd" fill-opacity="1" stroke="#000000" stroke-opacity="1" stroke-width="0"/>
<circle clip-path="url(#clip153)" cx="1294.13" cy="1449.44" r="7" fill="#ff0000" fill-rule="evenodd" fill-opacity="1" stroke="#000000" stroke-opacity="1" stroke-width="0"/>
<circle clip-path="url(#clip153)" cx="1327.54" cy="1449.44" r="7" fill="#ff0000" fill-rule="evenodd" fill-opacity="1" stroke="#000000" stroke-opacity="1" stroke-width="0"/>
<circle clip-path="url(#clip153)" cx="1363.91" cy="1449.44" r="7" fill="#ff0000" fill-rule="evenodd" fill-opacity="1" stroke="#000000" stroke-opacity="1" stroke-width="0"/>
<circle clip-path="url(#clip153)" cx="1403.74" cy="1449.44" r="7" fill="#ff0000" fill-rule="evenodd" fill-opacity="1" stroke="#000000" stroke-opacity="1" stroke-width="0"/>
<circle clip-path="url(#clip153)" cx="1447.66" cy="1449.44" r="7" fill="#ff0000" fill-rule="evenodd" fill-opacity="1" stroke="#000000" stroke-opacity="1" stroke-width="0"/>
<circle clip-path="url(#clip153)" cx="1496.47" cy="1449.44" r="7" fill="#ff0000" fill-rule="evenodd" fill-opacity="1" stroke="#000000" stroke-opacity="1" stroke-width="0"/>
<circle clip-path="url(#clip153)" cx="1551.19" cy="1449.44" r="7" fill="#ff0000" fill-rule="evenodd" fill-opacity="1" stroke="#000000" stroke-opacity="1" stroke-width="0"/>
<circle clip-path="url(#clip153)" cx="1613.19" cy="1449.44" r="7" fill="#ff0000" fill-rule="evenodd" fill-opacity="1" stroke="#000000" stroke-opacity="1" stroke-width="0"/>
<circle clip-path="url(#clip153)" cx="1684.3" cy="1449.44" r="7" fill="#ff0000" fill-rule="evenodd" fill-opacity="1" stroke="#000000" stroke-opacity="1" stroke-width="0"/>
<circle clip-path="url(#clip153)" cx="1767.03" cy="1449.44" r="7" fill="#ff0000" fill-rule="evenodd" fill-opacity="1" stroke="#000000" stroke-opacity="1" stroke-width="0"/>
<circle clip-path="url(#clip153)" cx="1767.73" cy="1449.44" r="7" fill="#ff0000" fill-rule="evenodd" fill-opacity="1" stroke="#000000" stroke-opacity="1" stroke-width="0"/>
<circle clip-path="url(#clip153)" cx="550.867" cy="1447.46" r="14" fill="#008000" fill-rule="evenodd" fill-opacity="1" stroke="#000000" stroke-opacity="1" stroke-width="0"/>
<circle clip-path="url(#clip153)" cx="855.083" cy="1439.57" r="14" fill="#008000" fill-rule="evenodd" fill-opacity="1" stroke="#000000" stroke-opacity="1" stroke-width="0"/>
<circle clip-path="url(#clip153)" cx="1159.3" cy="1400.09" r="14" fill="#008000" fill-rule="evenodd" fill-opacity="1" stroke="#000000" stroke-opacity="1" stroke-width="0"/>
<circle clip-path="url(#clip153)" cx="1463.51" cy="1202.71" r="14" fill="#008000" fill-rule="evenodd" fill-opacity="1" stroke="#000000" stroke-opacity="1" stroke-width="0"/>
<circle clip-path="url(#clip153)" cx="1767.73" cy="215.788" r="14" fill="#008000" fill-rule="evenodd" fill-opacity="1" stroke="#000000" stroke-opacity="1" stroke-width="0"/>
<path clip-path="url(#clip150)" d="
M1885.09 377.887 L2352.76 377.887 L2352.76 222.367 L1885.09 222.367  Z
  " fill="#ffffff" fill-rule="evenodd" fill-opacity="1"/>
<polyline clip-path="url(#clip150)" style="stroke:#000000; stroke-linecap:butt; stroke-linejoin:round; stroke-width:4; stroke-opacity:1; fill:none" points="
  1885.09,377.887 2352.76,377.887 2352.76,222.367 1885.09,222.367 1885.09,377.887 
  "/>
<circle clip-path="url(#clip150)" cx="1980.72" cy="274.207" r="23" fill="#ff0000" fill-rule="evenodd" fill-opacity="1" stroke="#000000" stroke-opacity="1" stroke-width="0"/>
<path clip-path="url(#clip150)" d="M2076.35 255.469 L2080.61 255.469 L2080.61 291.487 L2076.35 291.487 L2076.35 255.469 Z" fill="#000000" fill-rule="evenodd" fill-opacity="1" /><path clip-path="url(#clip150)" d="M2089.52 265.562 L2093.78 265.562 L2093.78 291.487 L2089.52 291.487 L2089.52 265.562 M2089.52 255.469 L2093.78 255.469 L2093.78 260.863 L2089.52 260.863 L2089.52 255.469 Z" fill="#000000" fill-rule="evenodd" fill-opacity="1" /><path clip-path="url(#clip150)" d="M2121.31 278.548 Q2121.31 273.849 2119.36 271.187 Q2117.44 268.501 2114.06 268.501 Q2110.68 268.501 2108.74 271.187 Q2106.82 273.849 2106.82 278.548 Q2106.82 283.247 2108.74 285.932 Q2110.68 288.594 2114.06 288.594 Q2117.44 288.594 2119.36 285.932 Q2121.31 283.247 2121.31 278.548 M2106.82 269.497 Q2108.16 267.182 2110.2 266.071 Q2112.26 264.937 2115.1 264.937 Q2119.82 264.937 2122.76 268.687 Q2125.73 272.437 2125.73 278.548 Q2125.73 284.659 2122.76 288.409 Q2119.82 292.159 2115.1 292.159 Q2112.26 292.159 2110.2 291.048 Q2108.16 289.913 2106.82 287.598 L2106.82 291.487 L2102.53 291.487 L2102.53 255.469 L2106.82 255.469 L2106.82 269.497 Z" fill="#000000" fill-rule="evenodd" fill-opacity="1" /><path clip-path="url(#clip150)" d="M2164.38 266.325 L2164.38 270.353 Q2162.58 269.427 2160.63 268.964 Q2158.69 268.501 2156.61 268.501 Q2153.44 268.501 2151.84 269.474 Q2150.26 270.446 2150.26 272.39 Q2150.26 273.872 2151.4 274.728 Q2152.53 275.562 2155.96 276.325 L2157.42 276.649 Q2161.95 277.622 2163.85 279.404 Q2165.77 281.163 2165.77 284.335 Q2165.77 287.946 2162.9 290.052 Q2160.06 292.159 2155.06 292.159 Q2152.97 292.159 2150.7 291.742 Q2148.46 291.348 2145.96 290.538 L2145.96 286.14 Q2148.32 287.367 2150.61 287.992 Q2152.9 288.594 2155.15 288.594 Q2158.16 288.594 2159.78 287.575 Q2161.4 286.534 2161.4 284.659 Q2161.4 282.923 2160.22 281.997 Q2159.06 281.071 2155.1 280.214 L2153.62 279.867 Q2149.66 279.034 2147.9 277.321 Q2146.14 275.585 2146.14 272.575 Q2146.14 268.918 2148.74 266.927 Q2151.33 264.937 2156.1 264.937 Q2158.46 264.937 2160.54 265.284 Q2162.63 265.631 2164.38 266.325 Z" fill="#000000" fill-rule="evenodd" fill-opacity="1" /><path clip-path="url(#clip150)" d="M2182.6 268.548 Q2179.18 268.548 2177.19 271.233 Q2175.19 273.895 2175.19 278.548 Q2175.19 283.2 2177.16 285.886 Q2179.15 288.548 2182.6 288.548 Q2186 288.548 2188 285.862 Q2189.99 283.177 2189.99 278.548 Q2189.99 273.941 2188 271.256 Q2186 268.548 2182.6 268.548 M2182.6 264.937 Q2188.16 264.937 2191.33 268.548 Q2194.5 272.159 2194.5 278.548 Q2194.5 284.913 2191.33 288.548 Q2188.16 292.159 2182.6 292.159 Q2177.02 292.159 2173.85 288.548 Q2170.7 284.913 2170.7 278.548 Q2170.7 272.159 2173.85 268.548 Q2177.02 264.937 2182.6 264.937 Z" fill="#000000" fill-rule="evenodd" fill-opacity="1" /><path clip-path="url(#clip150)" d="M2201.56 255.469 L2205.82 255.469 L2205.82 291.487 L2201.56 291.487 L2201.56 255.469 Z" fill="#000000" fill-rule="evenodd" fill-opacity="1" /><path clip-path="url(#clip150)" d="M2211.68 265.562 L2216.19 265.562 L2224.29 287.321 L2232.39 265.562 L2236.91 265.562 L2227.19 291.487 L2221.4 291.487 L2211.68 265.562 Z" fill="#000000" fill-rule="evenodd" fill-opacity="1" /><path clip-path="url(#clip150)" d="M2264.96 277.46 L2264.96 279.543 L2245.38 279.543 Q2245.66 283.941 2248.02 286.256 Q2250.4 288.548 2254.64 288.548 Q2257.09 288.548 2259.38 287.946 Q2261.7 287.344 2263.97 286.14 L2263.97 290.168 Q2261.68 291.14 2259.27 291.649 Q2256.86 292.159 2254.38 292.159 Q2248.18 292.159 2244.55 288.548 Q2240.94 284.936 2240.94 278.779 Q2240.94 272.413 2244.36 268.687 Q2247.81 264.937 2253.64 264.937 Q2258.87 264.937 2261.91 268.316 Q2264.96 271.673 2264.96 277.46 M2260.7 276.21 Q2260.66 272.714 2258.74 270.631 Q2256.84 268.548 2253.69 268.548 Q2250.13 268.548 2247.97 270.562 Q2245.84 272.575 2245.52 276.233 L2260.7 276.21 Z" fill="#000000" fill-rule="evenodd" fill-opacity="1" /><path clip-path="url(#clip150)" d="M2286.98 269.543 Q2286.26 269.126 2285.4 268.941 Q2284.57 268.733 2283.55 268.733 Q2279.94 268.733 2278 271.094 Q2276.07 273.432 2276.07 277.83 L2276.07 291.487 L2271.79 291.487 L2271.79 265.562 L2276.07 265.562 L2276.07 269.589 Q2277.42 267.228 2279.57 266.094 Q2281.72 264.937 2284.8 264.937 Q2285.24 264.937 2285.77 265.006 Q2286.31 265.052 2286.95 265.168 L2286.98 269.543 Z" fill="#000000" fill-rule="evenodd" fill-opacity="1" /><circle clip-path="url(#clip150)" cx="1980.72" cy="326.047" r="23" fill="#008000" fill-rule="evenodd" fill-opacity="1" stroke="#000000" stroke-opacity="1" stroke-width="0"/>
<path clip-path="url(#clip150)" d="M2096.7 322.378 Q2098.3 319.508 2100.52 318.142 Q2102.74 316.777 2105.75 316.777 Q2109.8 316.777 2112 319.624 Q2114.2 322.448 2114.2 327.679 L2114.2 343.327 L2109.92 343.327 L2109.92 327.818 Q2109.92 324.091 2108.6 322.286 Q2107.28 320.48 2104.57 320.48 Q2101.26 320.48 2099.34 322.679 Q2097.42 324.878 2097.42 328.675 L2097.42 343.327 L2093.14 343.327 L2093.14 327.818 Q2093.14 324.068 2091.82 322.286 Q2090.5 320.48 2087.74 320.48 Q2084.48 320.48 2082.56 322.702 Q2080.64 324.902 2080.64 328.675 L2080.64 343.327 L2076.35 343.327 L2076.35 317.402 L2080.64 317.402 L2080.64 321.429 Q2082.09 319.045 2084.13 317.911 Q2086.17 316.777 2088.97 316.777 Q2091.79 316.777 2093.76 318.212 Q2095.75 319.647 2096.7 322.378 Z" fill="#000000" fill-rule="evenodd" fill-opacity="1" /><path clip-path="url(#clip150)" d="M2133.48 345.735 Q2131.68 350.364 2129.96 351.776 Q2128.25 353.188 2125.38 353.188 L2121.98 353.188 L2121.98 349.624 L2124.48 349.624 Q2126.24 349.624 2127.21 348.79 Q2128.18 347.957 2129.36 344.855 L2130.13 342.911 L2119.64 317.402 L2124.15 317.402 L2132.26 337.679 L2140.36 317.402 L2144.87 317.402 L2133.48 345.735 Z" fill="#000000" fill-rule="evenodd" fill-opacity="1" /><path clip-path="url(#clip150)" d="M2182.35 318.165 L2182.35 322.193 Q2180.54 321.267 2178.6 320.804 Q2176.65 320.341 2174.57 320.341 Q2171.4 320.341 2169.8 321.314 Q2168.23 322.286 2168.23 324.23 Q2168.23 325.712 2169.36 326.568 Q2170.5 327.402 2173.92 328.165 L2175.38 328.489 Q2179.92 329.462 2181.82 331.244 Q2183.74 333.003 2183.74 336.175 Q2183.74 339.786 2180.87 341.892 Q2178.02 343.999 2173.02 343.999 Q2170.94 343.999 2168.67 343.582 Q2166.42 343.188 2163.92 342.378 L2163.92 337.98 Q2166.28 339.207 2168.57 339.832 Q2170.87 340.434 2173.11 340.434 Q2176.12 340.434 2177.74 339.415 Q2179.36 338.374 2179.36 336.499 Q2179.36 334.763 2178.18 333.837 Q2177.02 332.911 2173.07 332.054 L2171.58 331.707 Q2167.63 330.874 2165.87 329.161 Q2164.11 327.425 2164.11 324.415 Q2164.11 320.758 2166.7 318.767 Q2169.29 316.777 2174.06 316.777 Q2176.42 316.777 2178.51 317.124 Q2180.59 317.471 2182.35 318.165 Z" fill="#000000" fill-rule="evenodd" fill-opacity="1" /><path clip-path="url(#clip150)" d="M2200.57 320.388 Q2197.14 320.388 2195.15 323.073 Q2193.16 325.735 2193.16 330.388 Q2193.16 335.04 2195.13 337.726 Q2197.12 340.388 2200.57 340.388 Q2203.97 340.388 2205.96 337.702 Q2207.95 335.017 2207.95 330.388 Q2207.95 325.781 2205.96 323.096 Q2203.97 320.388 2200.57 320.388 M2200.57 316.777 Q2206.12 316.777 2209.29 320.388 Q2212.46 323.999 2212.46 330.388 Q2212.46 336.753 2209.29 340.388 Q2206.12 343.999 2200.57 343.999 Q2194.99 343.999 2191.82 340.388 Q2188.67 336.753 2188.67 330.388 Q2188.67 323.999 2191.82 320.388 Q2194.99 316.777 2200.57 316.777 Z" fill="#000000" fill-rule="evenodd" fill-opacity="1" /><path clip-path="url(#clip150)" d="M2219.52 307.309 L2223.78 307.309 L2223.78 343.327 L2219.52 343.327 L2219.52 307.309 Z" fill="#000000" fill-rule="evenodd" fill-opacity="1" /><path clip-path="url(#clip150)" d="M2229.64 317.402 L2234.15 317.402 L2242.25 339.161 L2250.36 317.402 L2254.87 317.402 L2245.15 343.327 L2239.36 343.327 L2229.64 317.402 Z" fill="#000000" fill-rule="evenodd" fill-opacity="1" /><path clip-path="url(#clip150)" d="M2282.93 329.3 L2282.93 331.383 L2263.34 331.383 Q2263.62 335.781 2265.98 338.096 Q2268.37 340.388 2272.6 340.388 Q2275.06 340.388 2277.35 339.786 Q2279.66 339.184 2281.93 337.98 L2281.93 342.008 Q2279.64 342.98 2277.23 343.489 Q2274.82 343.999 2272.35 343.999 Q2266.14 343.999 2262.51 340.388 Q2258.9 336.776 2258.9 330.619 Q2258.9 324.253 2262.32 320.527 Q2265.77 316.777 2271.61 316.777 Q2276.84 316.777 2279.87 320.156 Q2282.93 323.513 2282.93 329.3 M2278.67 328.05 Q2278.62 324.554 2276.7 322.471 Q2274.8 320.388 2271.65 320.388 Q2268.09 320.388 2265.94 322.402 Q2263.81 324.415 2263.48 328.073 L2278.67 328.05 Z" fill="#000000" fill-rule="evenodd" fill-opacity="1" /><path clip-path="url(#clip150)" d="M2304.94 321.383 Q2304.22 320.966 2303.37 320.781 Q2302.53 320.573 2301.51 320.573 Q2297.9 320.573 2295.96 322.934 Q2294.04 325.272 2294.04 329.67 L2294.04 343.327 L2289.75 343.327 L2289.75 317.402 L2294.04 317.402 L2294.04 321.429 Q2295.38 319.068 2297.53 317.934 Q2299.68 316.777 2302.76 316.777 Q2303.2 316.777 2303.74 316.846 Q2304.27 316.892 2304.92 317.008 L2304.94 321.383 Z" fill="#000000" fill-rule="evenodd" fill-opacity="1" /></svg>
