<?xml version="1.0" encoding="utf-8"?>
<svg xmlns="http://www.w3.org/2000/svg" xmlns:xlink="http://www.w3.org/1999/xlink" width="600" height="400" viewBox="0 0 2400 1600">
<defs>
  <clipPath id="clip190">
    <rect x="0" y="0" width="2400" height="1600"/>
  </clipPath>
</defs>
<path clip-path="url(#clip190)" d="
M0 1600 L2400 1600 L2400 0 L0 0  Z
  " fill="#ffffff" fill-rule="evenodd" fill-opacity="1"/>
<defs>
  <clipPath id="clip191">
    <rect x="480" y="0" width="1681" height="1600"/>
  </clipPath>
</defs>
<defs>
  <clipPath id="clip192">
    <rect x="201" y="178" width="1613" height="1309"/>
  </clipPath>
</defs>
<path clip-path="url(#clip190)" d="
M186.274 1486.45 L1811.23 1486.45 L1811.23 178.778 L186.274 178.778  Z
  " fill="#ffffff" fill-rule="evenodd" fill-opacity="1"/>
<defs>
  <clipPath id="clip193">
    <rect x="186" y="178" width="1626" height="1309"/>
  </clipPath>
</defs>
<polyline clip-path="url(#clip193)" style="stroke:#000000; stroke-linecap:butt; stroke-linejoin:round; stroke-width:2; stroke-opacity:0.1; fill:none" points="
  232.263,1486.45 232.263,178.778 
  "/>
<polyline clip-path="url(#clip193)" style="stroke:#000000; stroke-linecap:butt; stroke-linejoin:round; stroke-width:2; stroke-opacity:0.1; fill:none" points="
  615.508,1486.45 615.508,178.778 
  "/>
<polyline clip-path="url(#clip193)" style="stroke:#000000; stroke-linecap:butt; stroke-linejoin:round; stroke-width:2; stroke-opacity:0.1; fill:none" points="
  998.753,1486.45 998.753,178.778 
  "/>
<polyline clip-path="url(#clip193)" style="stroke:#000000; stroke-linecap:butt; stroke-linejoin:round; stroke-width:2; stroke-opacity:0.1; fill:none" points="
  1382,1486.45 1382,178.778 
  "/>
<polyline clip-path="url(#clip193)" style="stroke:#000000; stroke-linecap:butt; stroke-linejoin:round; stroke-width:2; stroke-opacity:0.1; fill:none" points="
  1765.24,1486.45 1765.24,178.778 
  "/>
<polyline clip-path="url(#clip190)" style="stroke:#000000; stroke-linecap:butt; stroke-linejoin:round; stroke-width:4; stroke-opacity:1; fill:none" points="
  186.274,1486.45 1811.23,1486.45 
  "/>
<polyline clip-path="url(#clip190)" style="stroke:#000000; stroke-linecap:butt; stroke-linejoin:round; stroke-width:4; stroke-opacity:1; fill:none" points="
  232.263,1486.45 232.263,1467.55 
  "/>
<polyline clip-path="url(#clip190)" style="stroke:#000000; stroke-linecap:butt; stroke-linejoin:round; stroke-width:4; stroke-opacity:1; fill:none" points="
  615.508,1486.45 615.508,1467.55 
  "/>
<polyline clip-path="url(#clip190)" style="stroke:#000000; stroke-linecap:butt; stroke-linejoin:round; stroke-width:4; stroke-opacity:1; fill:none" points="
  998.753,1486.45 998.753,1467.55 
  "/>
<polyline clip-path="url(#clip190)" style="stroke:#000000; stroke-linecap:butt; stroke-linejoin:round; stroke-width:4; stroke-opacity:1; fill:none" points="
  1382,1486.45 1382,1467.55 
  "/>
<polyline clip-path="url(#clip190)" style="stroke:#000000; stroke-linecap:butt; stroke-linejoin:round; stroke-width:4; stroke-opacity:1; fill:none" points="
  1765.24,1486.45 1765.24,1467.55 
  "/>
<path clip-path="url(#clip190)" d="M194.567 1517.37 Q190.956 1517.37 189.127 1520.93 Q187.322 1524.47 187.322 1531.6 Q187.322 1538.71 189.127 1542.27 Q190.956 1545.82 194.567 1545.82 Q198.201 1545.82 200.007 1542.27 Q201.835 1538.71 201.835 1531.6 Q201.835 1524.47 200.007 1520.93 Q198.201 1517.37 194.567 1517.37 M194.567 1513.66 Q200.377 1513.66 203.433 1518.27 Q206.511 1522.85 206.511 1531.6 Q206.511 1540.33 203.433 1544.94 Q200.377 1549.52 194.567 1549.52 Q188.757 1549.52 185.678 1544.94 Q182.622 1540.33 182.622 1531.6 Q182.622 1522.85 185.678 1518.27 Q188.757 1513.66 194.567 1513.66 Z" fill="#000000" fill-rule="evenodd" fill-opacity="1" /><path clip-path="url(#clip190)" d="M214.729 1542.97 L219.613 1542.97 L219.613 1548.85 L214.729 1548.85 L214.729 1542.97 Z" fill="#000000" fill-rule="evenodd" fill-opacity="1" /><path clip-path="url(#clip190)" d="M239.798 1517.37 Q236.187 1517.37 234.358 1520.93 Q232.553 1524.47 232.553 1531.6 Q232.553 1538.71 234.358 1542.27 Q236.187 1545.82 239.798 1545.82 Q243.432 1545.82 245.238 1542.27 Q247.067 1538.71 247.067 1531.6 Q247.067 1524.47 245.238 1520.93 Q243.432 1517.37 239.798 1517.37 M239.798 1513.66 Q245.608 1513.66 248.664 1518.27 Q251.742 1522.85 251.742 1531.6 Q251.742 1540.33 248.664 1544.94 Q245.608 1549.52 239.798 1549.52 Q233.988 1549.52 230.909 1544.94 Q227.854 1540.33 227.854 1531.6 Q227.854 1522.85 230.909 1518.27 Q233.988 1513.66 239.798 1513.66 Z" fill="#000000" fill-rule="evenodd" fill-opacity="1" /><path clip-path="url(#clip190)" d="M269.96 1517.37 Q266.349 1517.37 264.52 1520.93 Q262.715 1524.47 262.715 1531.6 Q262.715 1538.71 264.52 1542.27 Q266.349 1545.82 269.96 1545.82 Q273.594 1545.82 275.4 1542.27 Q277.228 1538.71 277.228 1531.6 Q277.228 1524.47 275.4 1520.93 Q273.594 1517.37 269.96 1517.37 M269.96 1513.66 Q275.77 1513.66 278.826 1518.27 Q281.904 1522.85 281.904 1531.6 Q281.904 1540.33 278.826 1544.94 Q275.77 1549.52 269.96 1549.52 Q264.15 1549.52 261.071 1544.94 Q258.016 1540.33 258.016 1531.6 Q258.016 1522.85 261.071 1518.27 Q264.15 1513.66 269.96 1513.66 Z" fill="#000000" fill-rule="evenodd" fill-opacity="1" /><path clip-path="url(#clip190)" d="M578.31 1517.37 Q574.698 1517.37 572.87 1520.93 Q571.064 1524.47 571.064 1531.6 Q571.064 1538.71 572.87 1542.27 Q574.698 1545.82 578.31 1545.82 Q581.944 1545.82 583.749 1542.27 Q585.578 1538.71 585.578 1531.6 Q585.578 1524.47 583.749 1520.93 Q581.944 1517.37 578.31 1517.37 M578.31 1513.66 Q584.12 1513.66 587.175 1518.27 Q590.254 1522.85 590.254 1531.6 Q590.254 1540.33 587.175 1544.94 Q584.12 1549.52 578.31 1549.52 Q572.499 1549.52 569.421 1544.94 Q566.365 1540.33 566.365 1531.6 Q566.365 1522.85 569.421 1518.27 Q572.499 1513.66 578.31 1513.66 Z" fill="#000000" fill-rule="evenodd" fill-opacity="1" /><path clip-path="url(#clip190)" d="M598.471 1542.97 L603.356 1542.97 L603.356 1548.85 L598.471 1548.85 L598.471 1542.97 Z" fill="#000000" fill-rule="evenodd" fill-opacity="1" /><path clip-path="url(#clip190)" d="M617.569 1544.91 L633.888 1544.91 L633.888 1548.85 L611.944 1548.85 L611.944 1544.91 Q614.606 1542.16 619.189 1537.53 Q623.795 1532.88 624.976 1531.53 Q627.221 1529.01 628.101 1527.27 Q629.004 1525.51 629.004 1523.82 Q629.004 1521.07 627.059 1519.33 Q625.138 1517.6 622.036 1517.6 Q619.837 1517.6 617.383 1518.36 Q614.953 1519.13 612.175 1520.68 L612.175 1515.95 Q614.999 1514.82 617.453 1514.24 Q619.907 1513.66 621.944 1513.66 Q627.314 1513.66 630.508 1516.35 Q633.703 1519.03 633.703 1523.52 Q633.703 1525.65 632.893 1527.57 Q632.106 1529.47 629.999 1532.07 Q629.42 1532.74 626.319 1535.95 Q623.217 1539.15 617.569 1544.91 Z" fill="#000000" fill-rule="evenodd" fill-opacity="1" /><path clip-path="url(#clip190)" d="M643.749 1514.29 L662.105 1514.29 L662.105 1518.22 L648.031 1518.22 L648.031 1526.7 Q649.05 1526.35 650.068 1526.19 Q651.087 1526 652.105 1526 Q657.892 1526 661.272 1529.17 Q664.652 1532.34 664.652 1537.76 Q664.652 1543.34 661.179 1546.44 Q657.707 1549.52 651.388 1549.52 Q649.212 1549.52 646.943 1549.15 Q644.698 1548.78 642.291 1548.04 L642.291 1543.34 Q644.374 1544.47 646.596 1545.03 Q648.818 1545.58 651.295 1545.58 Q655.3 1545.58 657.638 1543.48 Q659.976 1541.37 659.976 1537.76 Q659.976 1534.15 657.638 1532.04 Q655.3 1529.94 651.295 1529.94 Q649.42 1529.94 647.545 1530.35 Q645.693 1530.77 643.749 1531.65 L643.749 1514.29 Z" fill="#000000" fill-rule="evenodd" fill-opacity="1" /><path clip-path="url(#clip190)" d="M961.057 1517.37 Q957.446 1517.37 955.617 1520.93 Q953.812 1524.47 953.812 1531.6 Q953.812 1538.71 955.617 1542.27 Q957.446 1545.82 961.057 1545.82 Q964.691 1545.82 966.497 1542.27 Q968.325 1538.71 968.325 1531.6 Q968.325 1524.47 966.497 1520.93 Q964.691 1517.37 961.057 1517.37 M961.057 1513.66 Q966.867 1513.66 969.923 1518.27 Q973.001 1522.85 973.001 1531.6 Q973.001 1540.33 969.923 1544.94 Q966.867 1549.52 961.057 1549.52 Q955.247 1549.52 952.168 1544.94 Q949.113 1540.33 949.113 1531.6 Q949.113 1522.85 952.168 1518.27 Q955.247 1513.66 961.057 1513.66 Z" fill="#000000" fill-rule="evenodd" fill-opacity="1" /><path clip-path="url(#clip190)" d="M981.219 1542.97 L986.103 1542.97 L986.103 1548.85 L981.219 1548.85 L981.219 1542.97 Z" fill="#000000" fill-rule="evenodd" fill-opacity="1" /><path clip-path="url(#clip190)" d="M996.334 1514.29 L1014.69 1514.29 L1014.69 1518.22 L1000.62 1518.22 L1000.62 1526.7 Q1001.64 1526.35 1002.65 1526.19 Q1003.67 1526 1004.69 1526 Q1010.48 1526 1013.86 1529.17 Q1017.24 1532.34 1017.24 1537.76 Q1017.24 1543.34 1013.76 1546.44 Q1010.29 1549.52 1003.97 1549.52 Q1001.8 1549.52 999.529 1549.15 Q997.284 1548.78 994.876 1548.04 L994.876 1543.34 Q996.959 1544.47 999.182 1545.03 Q1001.4 1545.58 1003.88 1545.58 Q1007.89 1545.58 1010.22 1543.48 Q1012.56 1541.37 1012.56 1537.76 Q1012.56 1534.15 1010.22 1532.04 Q1007.89 1529.94 1003.88 1529.94 Q1002.01 1529.94 1000.13 1530.35 Q998.279 1530.77 996.334 1531.65 L996.334 1514.29 Z" fill="#000000" fill-rule="evenodd" fill-opacity="1" /><path clip-path="url(#clip190)" d="M1036.45 1517.37 Q1032.84 1517.37 1031.01 1520.93 Q1029.2 1524.47 1029.2 1531.6 Q1029.2 1538.71 1031.01 1542.27 Q1032.84 1545.82 1036.45 1545.82 Q1040.08 1545.82 1041.89 1542.27 Q1043.72 1538.71 1043.72 1531.6 Q1043.72 1524.47 1041.89 1520.93 Q1040.08 1517.37 1036.45 1517.37 M1036.45 1513.66 Q1042.26 1513.66 1045.32 1518.27 Q1048.39 1522.85 1048.39 1531.6 Q1048.39 1540.33 1045.32 1544.94 Q1042.26 1549.52 1036.45 1549.52 Q1030.64 1549.52 1027.56 1544.94 Q1024.51 1540.33 1024.51 1531.6 Q1024.51 1522.85 1027.56 1518.27 Q1030.64 1513.66 1036.45 1513.66 Z" fill="#000000" fill-rule="evenodd" fill-opacity="1" /><path clip-path="url(#clip190)" d="M1344.8 1517.37 Q1341.19 1517.37 1339.36 1520.93 Q1337.55 1524.47 1337.55 1531.6 Q1337.55 1538.71 1339.36 1542.27 Q1341.19 1545.82 1344.8 1545.82 Q1348.43 1545.82 1350.24 1542.27 Q1352.07 1538.71 1352.07 1531.6 Q1352.07 1524.47 1350.24 1520.93 Q1348.43 1517.37 1344.8 1517.37 M1344.8 1513.66 Q1350.61 1513.66 1353.67 1518.27 Q1356.74 1522.85 1356.74 1531.6 Q1356.74 1540.33 1353.67 1544.94 Q1350.61 1549.52 1344.8 1549.52 Q1338.99 1549.52 1335.91 1544.94 Q1332.86 1540.33 1332.86 1531.6 Q1332.86 1522.85 1335.91 1518.27 Q1338.99 1513.66 1344.8 1513.66 Z" fill="#000000" fill-rule="evenodd" fill-opacity="1" /><path clip-path="url(#clip190)" d="M1364.96 1542.97 L1369.85 1542.97 L1369.85 1548.85 L1364.96 1548.85 L1364.96 1542.97 Z" fill="#000000" fill-rule="evenodd" fill-opacity="1" /><path clip-path="url(#clip190)" d="M1378.85 1514.29 L1401.07 1514.29 L1401.07 1516.28 L1388.53 1548.85 L1383.64 1548.85 L1395.45 1518.22 L1378.85 1518.22 L1378.85 1514.29 Z" fill="#000000" fill-rule="evenodd" fill-opacity="1" /><path clip-path="url(#clip190)" d="M1410.24 1514.29 L1428.6 1514.29 L1428.6 1518.22 L1414.52 1518.22 L1414.52 1526.7 Q1415.54 1526.35 1416.56 1526.19 Q1417.58 1526 1418.6 1526 Q1424.38 1526 1427.76 1529.17 Q1431.14 1532.34 1431.14 1537.76 Q1431.14 1543.34 1427.67 1546.44 Q1424.2 1549.52 1417.88 1549.52 Q1415.7 1549.52 1413.43 1549.15 Q1411.19 1548.78 1408.78 1548.04 L1408.78 1543.34 Q1410.86 1544.47 1413.09 1545.03 Q1415.31 1545.58 1417.79 1545.58 Q1421.79 1545.58 1424.13 1543.48 Q1426.47 1541.37 1426.47 1537.76 Q1426.47 1534.15 1424.13 1532.04 Q1421.79 1529.94 1417.79 1529.94 Q1415.91 1529.94 1414.04 1530.35 Q1412.18 1530.77 1410.24 1531.65 L1410.24 1514.29 Z" fill="#000000" fill-rule="evenodd" fill-opacity="1" /><path clip-path="url(#clip190)" d="M1717.32 1544.91 L1724.95 1544.91 L1724.95 1518.55 L1716.64 1520.21 L1716.64 1515.95 L1724.91 1514.29 L1729.58 1514.29 L1729.58 1544.91 L1737.22 1544.91 L1737.22 1548.85 L1717.32 1548.85 L1717.32 1544.91 Z" fill="#000000" fill-rule="evenodd" fill-opacity="1" /><path clip-path="url(#clip190)" d="M1746.67 1542.97 L1751.55 1542.97 L1751.55 1548.85 L1746.67 1548.85 L1746.67 1542.97 Z" fill="#000000" fill-rule="evenodd" fill-opacity="1" /><path clip-path="url(#clip190)" d="M1771.74 1517.37 Q1768.13 1517.37 1766.3 1520.93 Q1764.49 1524.47 1764.49 1531.6 Q1764.49 1538.71 1766.3 1542.27 Q1768.13 1545.82 1771.74 1545.82 Q1775.37 1545.82 1777.18 1542.27 Q1779 1538.71 1779 1531.6 Q1779 1524.47 1777.18 1520.93 Q1775.37 1517.37 1771.74 1517.37 M1771.74 1513.66 Q1777.55 1513.66 1780.6 1518.27 Q1783.68 1522.85 1783.68 1531.6 Q1783.68 1540.33 1780.6 1544.94 Q1777.55 1549.52 1771.74 1549.52 Q1765.93 1549.52 1762.85 1544.94 Q1759.79 1540.33 1759.79 1531.6 Q1759.79 1522.85 1762.85 1518.27 Q1765.93 1513.66 1771.74 1513.66 Z" fill="#000000" fill-rule="evenodd" fill-opacity="1" /><path clip-path="url(#clip190)" d="M1801.9 1517.37 Q1798.29 1517.37 1796.46 1520.93 Q1794.65 1524.47 1794.65 1531.6 Q1794.65 1538.71 1796.46 1542.27 Q1798.29 1545.82 1801.9 1545.82 Q1805.53 1545.82 1807.34 1542.27 Q1809.17 1538.71 1809.17 1531.6 Q1809.17 1524.47 1807.34 1520.93 Q1805.53 1517.37 1801.9 1517.37 M1801.9 1513.66 Q1807.71 1513.66 1810.76 1518.27 Q1813.84 1522.85 1813.84 1531.6 Q1813.84 1540.33 1810.76 1544.94 Q1807.71 1549.52 1801.9 1549.52 Q1796.09 1549.52 1793.01 1544.94 Q1789.95 1540.33 1789.95 1531.6 Q1789.95 1522.85 1793.01 1518.27 Q1796.09 1513.66 1801.9 1513.66 Z" fill="#000000" fill-rule="evenodd" fill-opacity="1" /><polyline clip-path="url(#clip193)" style="stroke:#000000; stroke-linecap:butt; stroke-linejoin:round; stroke-width:2; stroke-opacity:0.1; fill:none" points="
  186.274,1449.44 1811.23,1449.44 
  "/>
<polyline clip-path="url(#clip193)" style="stroke:#000000; stroke-linecap:butt; stroke-linejoin:round; stroke-width:2; stroke-opacity:0.1; fill:none" points="
  186.274,1141.03 1811.23,1141.03 
  "/>
<polyline clip-path="url(#clip193)" style="stroke:#000000; stroke-linecap:butt; stroke-linejoin:round; stroke-width:2; stroke-opacity:0.1; fill:none" points="
  186.274,832.613 1811.23,832.613 
  "/>
<polyline clip-path="url(#clip193)" style="stroke:#000000; stroke-linecap:butt; stroke-linejoin:round; stroke-width:2; stroke-opacity:0.1; fill:none" points="
  186.274,524.201 1811.23,524.201 
  "/>
<polyline clip-path="url(#clip193)" style="stroke:#000000; stroke-linecap:butt; stroke-linejoin:round; stroke-width:2; stroke-opacity:0.1; fill:none" points="
  186.274,215.788 1811.23,215.788 
  "/>
<polyline clip-path="url(#clip190)" style="stroke:#000000; stroke-linecap:butt; stroke-linejoin:round; stroke-width:4; stroke-opacity:1; fill:none" points="
  186.274,1486.45 186.274,178.778 
  "/>
<polyline clip-path="url(#clip190)" style="stroke:#000000; stroke-linecap:butt; stroke-linejoin:round; stroke-width:4; stroke-opacity:1; fill:none" points="
  186.274,1449.44 200.448,1449.44 
  "/>
<polyline clip-path="url(#clip190)" style="stroke:#000000; stroke-linecap:butt; stroke-linejoin:round; stroke-width:4; stroke-opacity:1; fill:none" points="
  186.274,1141.03 200.448,1141.03 
  "/>
<polyline clip-path="url(#clip190)" style="stroke:#000000; stroke-linecap:butt; stroke-linejoin:round; stroke-width:4; stroke-opacity:1; fill:none" points="
  186.274,832.613 200.448,832.613 
  "/>
<polyline clip-path="url(#clip190)" style="stroke:#000000; stroke-linecap:butt; stroke-linejoin:round; stroke-width:4; stroke-opacity:1; fill:none" points="
  186.274,524.201 200.448,524.201 
  "/>
<polyline clip-path="url(#clip190)" style="stroke:#000000; stroke-linecap:butt; stroke-linejoin:round; stroke-width:4; stroke-opacity:1; fill:none" points="
  186.274,215.788 200.448,215.788 
  "/>
<path clip-path="url(#clip190)" d="M62.9365 1435.24 Q59.3254 1435.24 57.4967 1438.8 Q55.6912 1442.34 55.6912 1449.47 Q55.6912 1456.58 57.4967 1460.14 Q59.3254 1463.69 62.9365 1463.69 Q66.5707 1463.69 68.3763 1460.14 Q70.205 1456.58 70.205 1449.47 Q70.205 1442.34 68.3763 1438.8 Q66.5707 1435.24 62.9365 1435.24 M62.9365 1431.53 Q68.7467 1431.53 71.8022 1436.14 Q74.8809 1440.72 74.8809 1449.47 Q74.8809 1458.2 71.8022 1462.81 Q68.7467 1467.39 62.9365 1467.39 Q57.1264 1467.39 54.0477 1462.81 Q50.9921 1458.2 50.9921 1449.47 Q50.9921 1440.72 54.0477 1436.14 Q57.1264 1431.53 62.9365 1431.53 Z" fill="#000000" fill-rule="evenodd" fill-opacity="1" /><path clip-path="url(#clip190)" d="M83.0984 1460.84 L87.9827 1460.84 L87.9827 1466.72 L83.0984 1466.72 L83.0984 1460.84 Z" fill="#000000" fill-rule="evenodd" fill-opacity="1" /><path clip-path="url(#clip190)" d="M108.168 1435.24 Q104.557 1435.24 102.728 1438.8 Q100.922 1442.34 100.922 1449.47 Q100.922 1456.58 102.728 1460.14 Q104.557 1463.69 108.168 1463.69 Q111.802 1463.69 113.608 1460.14 Q115.436 1456.58 115.436 1449.47 Q115.436 1442.34 113.608 1438.8 Q111.802 1435.24 108.168 1435.24 M108.168 1431.53 Q113.978 1431.53 117.033 1436.14 Q120.112 1440.72 120.112 1449.47 Q120.112 1458.2 117.033 1462.81 Q113.978 1467.39 108.168 1467.39 Q102.358 1467.39 99.2789 1462.81 Q96.2234 1458.2 96.2234 1449.47 Q96.2234 1440.72 99.2789 1436.14 Q102.358 1431.53 108.168 1431.53 Z" fill="#000000" fill-rule="evenodd" fill-opacity="1" /><path clip-path="url(#clip190)" d="M138.33 1435.24 Q134.719 1435.24 132.89 1438.8 Q131.084 1442.34 131.084 1449.47 Q131.084 1456.58 132.89 1460.14 Q134.719 1463.69 138.33 1463.69 Q141.964 1463.69 143.769 1460.14 Q145.598 1456.58 145.598 1449.47 Q145.598 1442.34 143.769 1438.8 Q141.964 1435.24 138.33 1435.24 M138.33 1431.53 Q144.14 1431.53 147.195 1436.14 Q150.274 1440.72 150.274 1449.47 Q150.274 1458.2 147.195 1462.81 Q144.14 1467.39 138.33 1467.39 Q132.519 1467.39 129.441 1462.81 Q126.385 1458.2 126.385 1449.47 Q126.385 1440.72 129.441 1436.14 Q132.519 1431.53 138.33 1431.53 Z" fill="#000000" fill-rule="evenodd" fill-opacity="1" /><path clip-path="url(#clip190)" d="M63.9319 1126.82 Q60.3208 1126.82 58.4921 1130.39 Q56.6865 1133.93 56.6865 1141.06 Q56.6865 1148.17 58.4921 1151.73 Q60.3208 1155.27 63.9319 1155.27 Q67.5661 1155.27 69.3717 1151.73 Q71.2004 1148.17 71.2004 1141.06 Q71.2004 1133.93 69.3717 1130.39 Q67.5661 1126.82 63.9319 1126.82 M63.9319 1123.12 Q69.742 1123.12 72.7976 1127.73 Q75.8763 1132.31 75.8763 1141.06 Q75.8763 1149.79 72.7976 1154.39 Q69.742 1158.98 63.9319 1158.98 Q58.1217 1158.98 55.043 1154.39 Q51.9875 1149.79 51.9875 1141.06 Q51.9875 1132.31 55.043 1127.73 Q58.1217 1123.12 63.9319 1123.12 Z" fill="#000000" fill-rule="evenodd" fill-opacity="1" /><path clip-path="url(#clip190)" d="M84.0938 1152.43 L88.978 1152.43 L88.978 1158.31 L84.0938 1158.31 L84.0938 1152.43 Z" fill="#000000" fill-rule="evenodd" fill-opacity="1" /><path clip-path="url(#clip190)" d="M103.191 1154.37 L119.51 1154.37 L119.51 1158.31 L97.566 1158.31 L97.566 1154.37 Q100.228 1151.62 104.811 1146.99 Q109.418 1142.33 110.598 1140.99 Q112.844 1138.47 113.723 1136.73 Q114.626 1134.97 114.626 1133.28 Q114.626 1130.53 112.682 1128.79 Q110.76 1127.06 107.658 1127.06 Q105.459 1127.06 103.006 1127.82 Q100.575 1128.58 97.7974 1130.13 L97.7974 1125.41 Q100.621 1124.28 103.075 1123.7 Q105.529 1123.12 107.566 1123.12 Q112.936 1123.12 116.131 1125.81 Q119.325 1128.49 119.325 1132.98 Q119.325 1135.11 118.515 1137.03 Q117.728 1138.93 115.621 1141.52 Q115.043 1142.19 111.941 1145.41 Q108.839 1148.61 103.191 1154.37 Z" fill="#000000" fill-rule="evenodd" fill-opacity="1" /><path clip-path="url(#clip190)" d="M129.371 1123.75 L147.728 1123.75 L147.728 1127.68 L133.654 1127.68 L133.654 1136.15 Q134.672 1135.81 135.691 1135.64 Q136.709 1135.46 137.728 1135.46 Q143.515 1135.46 146.894 1138.63 Q150.274 1141.8 150.274 1147.22 Q150.274 1152.8 146.802 1155.9 Q143.33 1158.98 137.01 1158.98 Q134.834 1158.98 132.566 1158.61 Q130.32 1158.24 127.913 1157.5 L127.913 1152.8 Q129.996 1153.93 132.219 1154.49 Q134.441 1155.04 136.918 1155.04 Q140.922 1155.04 143.26 1152.94 Q145.598 1150.83 145.598 1147.22 Q145.598 1143.61 143.26 1141.5 Q140.922 1139.39 136.918 1139.39 Q135.043 1139.39 133.168 1139.81 Q131.316 1140.23 129.371 1141.11 L129.371 1123.75 Z" fill="#000000" fill-rule="evenodd" fill-opacity="1" /><path clip-path="url(#clip190)" d="M62.9365 818.412 Q59.3254 818.412 57.4967 821.977 Q55.6912 825.518 55.6912 832.648 Q55.6912 839.754 57.4967 843.319 Q59.3254 846.861 62.9365 846.861 Q66.5707 846.861 68.3763 843.319 Q70.205 839.754 70.205 832.648 Q70.205 825.518 68.3763 821.977 Q66.5707 818.412 62.9365 818.412 M62.9365 814.708 Q68.7467 814.708 71.8022 819.315 Q74.8809 823.898 74.8809 832.648 Q74.8809 841.375 71.8022 845.981 Q68.7467 850.564 62.9365 850.564 Q57.1264 850.564 54.0477 845.981 Q50.9921 841.375 50.9921 832.648 Q50.9921 823.898 54.0477 819.315 Q57.1264 814.708 62.9365 814.708 Z" fill="#000000" fill-rule="evenodd" fill-opacity="1" /><path clip-path="url(#clip190)" d="M83.0984 844.014 L87.9827 844.014 L87.9827 849.893 L83.0984 849.893 L83.0984 844.014 Z" fill="#000000" fill-rule="evenodd" fill-opacity="1" /><path clip-path="url(#clip190)" d="M98.2141 815.333 L116.57 815.333 L116.57 819.268 L102.496 819.268 L102.496 827.74 Q103.515 827.393 104.534 827.231 Q105.552 827.046 106.571 827.046 Q112.358 827.046 115.737 830.217 Q119.117 833.389 119.117 838.805 Q119.117 844.384 115.645 847.486 Q112.172 850.564 105.853 850.564 Q103.677 850.564 101.409 850.194 Q99.1632 849.824 96.7558 849.083 L96.7558 844.384 Q98.8391 845.518 101.061 846.074 Q103.284 846.629 105.76 846.629 Q109.765 846.629 112.103 844.523 Q114.441 842.416 114.441 838.805 Q114.441 835.194 112.103 833.088 Q109.765 830.981 105.76 830.981 Q103.885 830.981 102.01 831.398 Q100.159 831.815 98.2141 832.694 L98.2141 815.333 Z" fill="#000000" fill-rule="evenodd" fill-opacity="1" /><path clip-path="url(#clip190)" d="M138.33 818.412 Q134.719 818.412 132.89 821.977 Q131.084 825.518 131.084 832.648 Q131.084 839.754 132.89 843.319 Q134.719 846.861 138.33 846.861 Q141.964 846.861 143.769 843.319 Q145.598 839.754 145.598 832.648 Q145.598 825.518 143.769 821.977 Q141.964 818.412 138.33 818.412 M138.33 814.708 Q144.14 814.708 147.195 819.315 Q150.274 823.898 150.274 832.648 Q150.274 841.375 147.195 845.981 Q144.14 850.564 138.33 850.564 Q132.519 850.564 129.441 845.981 Q126.385 841.375 126.385 832.648 Q126.385 823.898 129.441 819.315 Q132.519 814.708 138.33 814.708 Z" fill="#000000" fill-rule="evenodd" fill-opacity="1" /><path clip-path="url(#clip190)" d="M63.9319 509.999 Q60.3208 509.999 58.4921 513.564 Q56.6865 517.106 56.6865 524.235 Q56.6865 531.342 58.4921 534.906 Q60.3208 538.448 63.9319 538.448 Q67.5661 538.448 69.3717 534.906 Q71.2004 531.342 71.2004 524.235 Q71.2004 517.106 69.3717 513.564 Q67.5661 509.999 63.9319 509.999 M63.9319 506.296 Q69.742 506.296 72.7976 510.902 Q75.8763 515.485 75.8763 524.235 Q75.8763 532.962 72.7976 537.568 Q69.742 542.152 63.9319 542.152 Q58.1217 542.152 55.043 537.568 Q51.9875 532.962 51.9875 524.235 Q51.9875 515.485 55.043 510.902 Q58.1217 506.296 63.9319 506.296 Z" fill="#000000" fill-rule="evenodd" fill-opacity="1" /><path clip-path="url(#clip190)" d="M84.0938 535.601 L88.978 535.601 L88.978 541.481 L84.0938 541.481 L84.0938 535.601 Z" fill="#000000" fill-rule="evenodd" fill-opacity="1" /><path clip-path="url(#clip190)" d="M97.9826 506.921 L120.205 506.921 L120.205 508.911 L107.658 541.481 L102.774 541.481 L114.58 510.856 L97.9826 510.856 L97.9826 506.921 Z" fill="#000000" fill-rule="evenodd" fill-opacity="1" /><path clip-path="url(#clip190)" d="M129.371 506.921 L147.728 506.921 L147.728 510.856 L133.654 510.856 L133.654 519.328 Q134.672 518.981 135.691 518.819 Q136.709 518.633 137.728 518.633 Q143.515 518.633 146.894 521.805 Q150.274 524.976 150.274 530.393 Q150.274 535.971 146.802 539.073 Q143.33 542.152 137.01 542.152 Q134.834 542.152 132.566 541.781 Q130.32 541.411 127.913 540.67 L127.913 535.971 Q129.996 537.106 132.219 537.661 Q134.441 538.217 136.918 538.217 Q140.922 538.217 143.26 536.11 Q145.598 534.004 145.598 530.393 Q145.598 526.782 143.26 524.675 Q140.922 522.569 136.918 522.569 Q135.043 522.569 133.168 522.985 Q131.316 523.402 129.371 524.282 L129.371 506.921 Z" fill="#000000" fill-rule="evenodd" fill-opacity="1" /><path clip-path="url(#clip190)" d="M53.7467 229.133 L61.3856 229.133 L61.3856 202.767 L53.0754 204.434 L53.0754 200.175 L61.3393 198.508 L66.0152 198.508 L66.0152 229.133 L73.654 229.133 L73.654 233.068 L53.7467 233.068 L53.7467 229.133 Z" fill="#000000" fill-rule="evenodd" fill-opacity="1" /><path clip-path="url(#clip190)" d="M83.0984 227.188 L87.9827 227.188 L87.9827 233.068 L83.0984 233.068 L83.0984 227.188 Z" fill="#000000" fill-rule="evenodd" fill-opacity="1" /><path clip-path="url(#clip190)" d="M108.168 201.587 Q104.557 201.587 102.728 205.151 Q100.922 208.693 100.922 215.823 Q100.922 222.929 102.728 226.494 Q104.557 230.035 108.168 230.035 Q111.802 230.035 113.608 226.494 Q115.436 222.929 115.436 215.823 Q115.436 208.693 113.608 205.151 Q111.802 201.587 108.168 201.587 M108.168 197.883 Q113.978 197.883 117.033 202.489 Q120.112 207.073 120.112 215.823 Q120.112 224.549 117.033 229.156 Q113.978 233.739 108.168 233.739 Q102.358 233.739 99.2789 229.156 Q96.2234 224.549 96.2234 215.823 Q96.2234 207.073 99.2789 202.489 Q102.358 197.883 108.168 197.883 Z" fill="#000000" fill-rule="evenodd" fill-opacity="1" /><path clip-path="url(#clip190)" d="M138.33 201.587 Q134.719 201.587 132.89 205.151 Q131.084 208.693 131.084 215.823 Q131.084 222.929 132.89 226.494 Q134.719 230.035 138.33 230.035 Q141.964 230.035 143.769 226.494 Q145.598 222.929 145.598 215.823 Q145.598 208.693 143.769 205.151 Q141.964 201.587 138.33 201.587 M138.33 197.883 Q144.14 197.883 147.195 202.489 Q150.274 207.073 150.274 215.823 Q150.274 224.549 147.195 229.156 Q144.14 233.739 138.33 233.739 Q132.519 233.739 129.441 229.156 Q126.385 224.549 126.385 215.823 Q126.385 207.073 129.441 202.489 Q132.519 197.883 138.33 197.883 Z" fill="#000000" fill-rule="evenodd" fill-opacity="1" /><path clip-path="url(#clip190)" d="M754.197 83.0933 Q754.197 87.6841 750.795 91.906 Q747.434 96.1279 741.941 98.7102 Q736.49 101.252 730.628 101.252 L716.364 101.252 L711.158 122.238 Q711.117 122.361 710.994 122.894 Q710.871 123.386 710.871 123.673 Q710.871 124.697 712.142 124.943 Q713.454 125.189 716.364 125.189 Q718.249 125.189 718.536 125.517 Q718.7 125.722 718.7 126.091 Q718.7 126.665 718.536 127.075 Q718.372 127.444 718.045 127.567 Q717.758 127.69 717.553 127.731 Q717.348 127.772 717.02 127.772 Q716.159 127.772 714.315 127.69 Q712.511 127.608 711.568 127.608 L706.199 127.526 L695.541 127.772 Q694.271 127.772 694.271 126.747 Q694.271 125.968 694.599 125.64 Q694.927 125.271 695.295 125.23 Q695.664 125.189 696.607 125.189 Q698.657 125.189 699.886 125.066 Q701.116 124.943 701.895 124.779 Q702.715 124.574 703.124 124.001 Q703.575 123.427 703.78 122.935 Q703.985 122.402 704.272 121.213 L715.503 76.1251 Q715.831 74.7725 715.831 74.5675 Q715.831 73.8707 715.421 73.6248 Q715.052 73.3379 713.987 73.2149 Q711.937 73.0509 710.38 73.0509 Q709.355 73.0509 708.945 73.0099 Q708.576 72.969 708.248 72.764 Q707.961 72.5181 707.961 72.0262 Q707.961 71.2474 708.289 70.9195 Q708.658 70.5506 709.068 70.5096 Q709.478 70.4276 710.462 70.4276 L737.678 70.4276 Q745.507 70.4276 749.852 74.1576 Q754.197 77.8877 754.197 83.0933 M746.409 81.0848 Q746.409 73.0509 734.973 73.0509 L726.939 73.0509 Q724.275 73.0509 723.619 73.5428 Q722.963 73.9937 722.389 76.2481 L716.692 99.0791 L728.538 99.0791 Q736.49 99.0791 741.449 94.6113 Q743.704 92.5618 745.056 88.299 Q746.409 84.0361 746.409 81.0848 Z" fill="#000000" fill-rule="evenodd" fill-opacity="1" /><path clip-path="url(#clip190)" d="M791.207 96.1279 Q791.207 98.3003 789.772 99.694 Q788.379 101.088 786.575 101.088 Q785.018 101.088 784.198 100.186 Q783.378 99.2841 783.378 98.1364 Q783.378 96.4968 784.649 95.1442 Q785.919 93.7915 787.764 93.5046 Q786.411 92.5208 784.239 92.5208 Q780.673 92.5208 777.517 95.2671 Q776.123 96.5378 774.606 98.8742 Q773.09 101.17 772.803 102.153 L770.138 113.097 Q769.893 114.327 768.376 120.23 Q766.9 126.091 766.777 126.337 Q766.367 127.485 765.466 128.1 Q764.564 128.714 763.662 128.714 Q762.637 128.714 761.941 128.1 Q761.244 127.485 761.244 126.419 Q761.244 126.255 761.367 125.64 Q761.49 125.025 761.695 124.165 Q761.9 123.304 761.982 122.812 L766.859 103.424 Q767.761 99.8989 767.966 98.7922 Q768.212 97.6445 768.212 96.3738 Q768.212 94.1604 767.515 93.3406 Q766.818 92.5208 765.589 92.5208 Q763.457 92.5208 762.064 95.0622 Q760.67 97.6035 759.481 102.522 Q759.112 103.875 758.866 104.162 Q758.661 104.449 758.047 104.449 Q757.022 104.408 757.022 103.588 Q757.022 103.383 757.35 102.071 Q757.678 100.719 758.293 98.7512 Q758.948 96.7427 759.645 95.4721 Q760.055 94.6113 760.424 94.0374 Q760.793 93.4636 761.531 92.5618 Q762.269 91.6601 763.375 91.1682 Q764.482 90.6763 765.835 90.6763 Q768.786 90.6763 770.876 92.4799 Q773.008 94.2834 773.5 97.1116 Q774.524 95.636 775.795 94.3654 Q777.066 93.0537 779.402 91.865 Q781.738 90.6763 784.239 90.6763 Q787.354 90.6763 789.28 92.2749 Q791.207 93.8325 791.207 96.1279 Z" fill="#000000" fill-rule="evenodd" fill-opacity="1" /><path clip-path="url(#clip190)" d="M833.433 104.859 Q833.433 109.326 831.465 113.753 Q829.498 118.139 826.341 121.418 Q823.226 124.656 819.127 126.706 Q815.028 128.714 810.93 128.714 Q805.068 128.714 801.256 124.738 Q797.485 120.721 797.485 114.491 Q797.485 108.671 800.723 103.137 Q804.002 97.5625 809.249 94.1194 Q814.496 90.6763 819.988 90.6763 Q825.768 90.6763 829.58 94.5703 Q833.433 98.4643 833.433 104.859 M827.284 101.579 Q827.284 97.6035 825.358 95.0622 Q823.431 92.5208 819.906 92.5208 Q818.881 92.5208 817.693 92.8488 Q816.504 93.1357 814.946 93.9145 Q813.43 94.6933 811.708 96.3328 Q810.028 97.9314 808.552 100.227 Q806.626 103.26 805.15 108.835 Q803.715 114.368 803.715 117.688 Q803.715 122.279 805.847 124.574 Q807.978 126.829 811.011 126.829 Q813.963 126.829 817.078 124.779 Q820.234 122.689 822.407 119.123 Q824.579 115.434 825.932 110.023 Q827.284 104.572 827.284 101.579 Z" fill="#000000" fill-rule="evenodd" fill-opacity="1" /><path clip-path="url(#clip190)" d="M868.703 104.08 Q868.703 109.982 865.711 115.762 Q862.759 121.5 858.005 125.107 Q853.291 128.714 848.454 128.714 Q843.74 128.714 840.748 125.107 Q837.797 121.459 837.797 115.516 Q837.797 113.425 838.043 111.95 Q838.289 110.474 839.149 107.031 L846.036 79.6502 Q847.224 74.5266 847.224 74.4856 Q847.224 73.9937 847.019 73.7478 Q846.855 73.4608 845.872 73.2559 Q844.888 73.0509 843.002 73.0509 Q842.224 73.0509 841.855 73.0099 Q841.527 72.969 841.24 72.764 Q840.994 72.5181 840.994 72.0262 Q840.994 71.3294 841.281 70.9605 Q841.609 70.5506 841.855 70.4686 Q842.101 70.3866 842.593 70.3456 Q843.289 70.3047 845.626 70.0997 Q847.962 69.8538 849.971 69.6898 Q851.979 69.5259 852.84 69.5259 Q853.332 69.5259 853.578 69.7718 Q853.865 69.9767 853.865 70.2227 L853.906 70.4276 L847.716 95.718 Q852.594 90.6763 857.554 90.6763 Q862.513 90.6763 865.588 94.4883 Q868.703 98.3003 868.703 104.08 M862.636 100.391 Q862.636 96.4968 861.161 94.5293 Q859.726 92.5208 857.349 92.5208 Q855.34 92.5208 852.717 94.0374 Q850.094 95.5541 847.306 99.2431 Q846.774 99.9399 846.569 100.35 Q846.405 100.76 846.036 102.153 L844.191 109.9 Q842.839 115.188 842.839 118.385 Q842.839 122.73 844.437 124.779 Q846.036 126.829 848.454 126.829 Q850.995 126.829 853.66 124.574 Q856.324 122.32 858.373 118.221 Q859.644 115.516 861.12 109.695 Q862.636 103.834 862.636 100.391 Z" fill="#000000" fill-rule="evenodd" fill-opacity="1" /><path clip-path="url(#clip190)" d="M891.057 70.4276 L878.966 118.959 Q878.474 120.885 878.474 122.976 Q878.474 126.829 881.015 126.829 Q882.204 126.829 883.188 126.05 Q884.171 125.23 884.909 123.632 Q885.688 121.992 886.18 120.435 Q886.713 118.877 887.368 116.459 Q887.573 115.516 887.778 115.229 Q887.983 114.942 888.557 114.942 Q889.582 114.942 889.582 115.762 Q888.557 120.803 887.041 124.001 Q884.827 128.714 880.728 128.714 Q877.654 128.714 875.359 126.583 Q873.104 124.411 873.104 120.967 Q873.104 119.656 873.514 118.098 L884.089 76.1251 L884.376 74.4856 Q884.376 74.0347 884.212 73.7887 Q884.048 73.5428 883.065 73.2969 Q882.122 73.0509 880.236 73.0509 Q879.457 73.0509 879.089 73.0099 Q878.761 72.969 878.433 72.764 Q878.146 72.5591 878.146 72.1082 Q878.146 71.3704 878.433 70.9605 Q878.761 70.5506 879.007 70.4686 Q879.253 70.3866 879.744 70.3456 Q880.441 70.3047 882.778 70.0997 Q885.114 69.8538 887.122 69.6898 Q889.131 69.5259 889.992 69.5259 Q890.484 69.5259 890.73 69.7718 Q891.016 69.9767 891.057 70.2227 L891.057 70.4276 Z" fill="#000000" fill-rule="evenodd" fill-opacity="1" /><path clip-path="url(#clip190)" d="M930.806 118.057 Q931.134 118.426 931.134 118.795 Q931.134 119.164 930.314 120.23 Q929.536 121.295 927.855 122.73 Q926.175 124.165 924.002 125.517 Q921.83 126.87 918.633 127.772 Q915.435 128.714 912.074 128.714 Q906.049 128.714 902.442 124.411 Q898.876 120.107 898.876 113.507 Q898.876 109.285 900.269 105.555 Q901.663 101.784 903.917 99.1201 Q906.213 96.4558 909.082 94.5293 Q911.992 92.5618 915.025 91.6191 Q918.059 90.6763 920.887 90.6763 Q925.027 90.6763 927.445 92.7668 Q929.864 94.8572 929.864 97.8085 Q929.864 98.5053 929.659 99.3661 Q929.495 100.227 928.921 101.579 Q928.388 102.932 926.994 104.285 Q925.601 105.596 923.551 106.457 Q919.001 108.384 910.722 108.384 L906.254 108.384 Q904.942 113.671 904.942 117.114 Q904.942 118.467 905.188 119.861 Q905.434 121.213 906.09 122.935 Q906.787 124.656 908.344 125.763 Q909.943 126.829 912.238 126.829 Q912.976 126.829 913.755 126.788 Q914.575 126.747 916.624 126.296 Q918.715 125.845 920.559 125.066 Q922.404 124.288 924.74 122.607 Q927.117 120.885 929.003 118.549 Q929.659 117.688 930.11 117.688 Q930.478 117.688 930.806 118.057 M927.076 97.8085 Q927.076 95.5541 925.396 94.0374 Q923.756 92.5208 920.887 92.5208 Q919.985 92.5208 918.878 92.7258 Q917.772 92.9307 915.927 93.7915 Q914.124 94.6523 912.525 96.0869 Q910.927 97.4805 909.328 100.227 Q907.729 102.932 906.787 106.539 L910.23 106.539 Q911.418 106.539 912.279 106.539 Q913.14 106.498 915.025 106.334 Q916.952 106.17 918.346 105.883 Q919.739 105.555 921.502 104.9 Q923.264 104.244 924.371 103.383 Q925.519 102.481 926.298 101.047 Q927.076 99.612 927.076 97.8085 Z" fill="#000000" fill-rule="evenodd" fill-opacity="1" /><path clip-path="url(#clip190)" d="M1004.7 115.762 Q1004.7 116.09 1004.34 117.36 Q1003.97 118.631 1003.06 120.599 Q1002.2 122.566 1000.97 124.37 Q999.786 126.132 997.818 127.444 Q995.892 128.714 993.678 128.714 Q990.727 128.714 988.759 126.747 Q986.792 124.779 986.792 121.828 Q986.792 120.23 987.899 117.196 Q993.104 103.342 993.104 98.3823 Q993.104 92.5208 988.555 92.5208 Q985.972 92.5208 983.636 93.5866 Q981.299 94.6523 979.783 96.1279 Q978.266 97.6035 977.078 99.2841 Q975.889 100.965 975.356 102.071 Q974.864 103.178 974.741 103.67 L969.699 123.919 Q969.29 125.64 969.003 126.46 Q968.716 127.28 967.937 127.977 Q967.158 128.714 965.928 128.714 Q964.904 128.714 964.166 128.1 Q963.469 127.485 963.469 126.419 Q963.469 126.255 963.674 125.394 Q963.879 124.533 964.166 123.345 Q964.453 122.156 964.576 121.459 Q966.051 115.885 966.256 115.106 L968.593 105.35 Q969.863 100.514 969.863 98.3823 Q969.863 92.5208 965.314 92.5208 Q963.059 92.5208 960.928 93.3816 Q958.837 94.2014 957.403 95.3491 Q955.968 96.4968 954.656 98.0954 Q953.386 99.653 952.73 100.719 Q952.115 101.743 951.623 102.768 L950.557 106.949 Q950.312 108.097 949.123 112.565 L947.278 120.148 Q945.967 125.804 945.68 126.337 Q945.27 127.485 944.368 128.1 Q943.466 128.714 942.565 128.714 Q941.54 128.714 940.843 128.1 Q940.146 127.485 940.146 126.419 Q940.146 126.255 940.269 125.64 Q940.392 125.025 940.597 124.165 Q940.802 123.304 940.884 122.812 L945.762 103.424 Q946.663 99.8989 946.868 98.7922 Q947.114 97.6445 947.114 96.3738 Q947.114 92.5208 944.491 92.5208 Q942.36 92.5208 940.966 95.0622 Q939.572 97.6035 938.384 102.522 Q938.015 103.875 937.769 104.162 Q937.564 104.449 936.949 104.449 Q935.924 104.408 935.924 103.588 Q935.924 103.383 936.252 102.071 Q936.58 100.76 937.195 98.7922 Q937.851 96.7837 938.548 95.4721 Q938.958 94.6113 939.326 94.0374 Q939.695 93.4636 940.433 92.5618 Q941.171 91.6601 942.278 91.1682 Q943.384 90.6763 944.737 90.6763 Q947.729 90.6763 949.943 92.6028 Q952.197 94.5293 952.484 97.9724 Q957.936 90.6763 965.56 90.6763 Q969.863 90.6763 972.446 92.8488 Q974.864 94.9392 975.151 98.7922 Q980.808 90.6763 988.841 90.6763 Q993.473 90.6763 995.974 93.0947 Q998.474 95.4721 998.474 99.653 Q998.474 101.825 997.367 105.965 Q996.261 110.064 995.523 112.114 Q994.785 114.163 993.35 118.098 Q991.834 121.869 991.834 124.083 Q991.834 125.517 992.326 126.173 Q992.817 126.829 993.883 126.829 Q995.523 126.829 996.957 125.886 Q998.392 124.902 999.417 123.304 Q1000.48 121.664 1001.18 120.025 Q1001.88 118.344 1002.41 116.459 Q1002.74 115.434 1002.9 115.188 Q1003.11 114.942 1003.68 114.942 Q1004.7 114.942 1004.7 115.762 Z" fill="#000000" fill-rule="evenodd" fill-opacity="1" /><path clip-path="url(#clip190)" d="M1033.52 126.501 Q1032.21 125.189 1032.21 123.345 Q1032.21 121.5 1033.52 120.189 Q1034.83 118.877 1036.67 118.877 Q1038.52 118.877 1039.83 120.189 Q1041.14 121.5 1041.14 123.345 Q1041.14 125.189 1039.83 126.501 Q1038.52 127.772 1036.67 127.772 Q1034.83 127.772 1033.52 126.501 M1033.52 99.2021 Q1032.21 97.8904 1032.21 96.0459 Q1032.21 94.2014 1033.52 92.8897 Q1034.83 91.5781 1036.67 91.5781 Q1038.52 91.5781 1039.83 92.8897 Q1041.14 94.2014 1041.14 96.0459 Q1041.14 97.8904 1039.83 99.2021 Q1038.52 100.473 1036.67 100.473 Q1034.83 100.473 1033.52 99.2021 Z" fill="#000000" fill-rule="evenodd" fill-opacity="1" /><path clip-path="url(#clip190)" d="M1120.62 51.7482 Q1120.62 43.7553 1126.19 38.2218 Q1131.77 32.6882 1139.31 32.6882 Q1145.7 32.6882 1149.88 37.8938 L1149.88 19.7356 Q1149.88 16.6204 1148.78 15.8416 Q1147.71 15.0628 1143.37 15.0628 L1143.37 12.4395 L1155.46 11.5377 L1155.46 62.4874 Q1155.46 65.6026 1156.52 66.4224 Q1157.63 67.2012 1161.97 67.2012 L1161.97 69.7835 L1149.64 70.7263 L1149.64 65.1517 Q1145.29 70.6853 1138.41 70.7263 Q1131.19 70.7263 1125.9 65.1927 Q1120.62 59.6591 1120.62 51.7482 M1127.58 51.8302 Q1127.58 59.6182 1130 63.4712 Q1133.36 68.8407 1138.82 68.8407 Q1145.05 68.8407 1148.73 62.9793 Q1149.68 61.5447 1149.64 59.8641 L1149.64 42.6486 Q1149.64 40.968 1148.73 39.5744 Q1145.29 34.5327 1139.68 34.5327 Q1133.81 34.5327 1130.17 39.9023 Q1127.58 43.9193 1127.58 51.8302 Z" fill="#000000" fill-rule="evenodd" fill-opacity="1" /><path clip-path="url(#clip190)" d="M1205.47 35.8854 Q1205.47 36.4592 1205.1 37.8119 L1197.07 69.8655 Q1195.3 76.9976 1189.56 81.9983 Q1183.87 86.999 1177.39 86.999 Q1173.5 86.999 1171 84.9085 Q1168.5 82.8591 1168.5 79.7029 Q1168.5 76.9156 1169.97 75.563 Q1171.45 74.2513 1173.21 74.2513 Q1173.78 74.2513 1174.4 74.4153 Q1175.01 74.5792 1175.67 75.2761 Q1176.32 75.9729 1176.32 77.1616 Q1176.32 79.0881 1174.64 80.6047 Q1173.82 81.3015 1173.05 81.4654 Q1172.31 81.6294 1171.04 81.6294 Q1171.53 82.7771 1172.43 83.5559 Q1173.33 84.3347 1174.36 84.6216 Q1175.38 84.9495 1176.04 85.0315 Q1176.73 85.1545 1177.39 85.1545 Q1182.64 85.1545 1186.65 79.8669 Q1187.84 78.2683 1188.7 76.6697 Q1189.61 75.1121 1190.26 73.1856 Q1190.92 71.3001 1191.2 70.2754 Q1191.53 69.2506 1192.11 66.9143 Q1188.29 70.7263 1183.62 70.7263 Q1181.65 70.7263 1179.89 70.1934 Q1178.17 69.6605 1176.65 68.5538 Q1175.14 67.4061 1174.23 65.3976 Q1173.37 63.3892 1173.37 60.7249 Q1173.37 57.8966 1174.48 54.0436 Q1175.59 50.1906 1178.25 43.0995 Q1179.69 39.1235 1179.69 37.197 Q1179.69 36.2543 1179.48 35.6804 Q1179.28 35.0656 1178.87 34.8606 Q1178.46 34.6147 1178.21 34.5737 Q1178.01 34.5327 1177.6 34.5327 Q1175.18 34.5327 1172.92 36.9921 Q1170.67 39.4514 1169.11 44.944 Q1168.78 45.9687 1168.58 46.2147 Q1168.37 46.4606 1167.76 46.4606 Q1166.73 46.4196 1166.73 45.5998 Q1166.73 45.2719 1167.1 44.0012 Q1167.47 42.6896 1168.33 40.7631 Q1169.23 38.7956 1170.46 37.0331 Q1171.69 35.2295 1173.62 33.9589 Q1175.59 32.6882 1177.84 32.6882 Q1180.92 32.6882 1182.8 34.6967 Q1184.73 36.6642 1184.73 39.5744 Q1184.73 40.7631 1184.4 41.8288 Q1184.11 42.8535 1183.05 45.5998 Q1178.74 56.6669 1178.74 62.0775 Q1178.74 63.3892 1178.95 64.4959 Q1179.19 65.5616 1179.73 66.6273 Q1180.26 67.6521 1181.33 68.2669 Q1182.43 68.8407 1183.95 68.8407 Q1185.88 68.8407 1187.68 67.939 Q1189.52 66.9962 1190.67 65.7256 Q1191.86 64.4549 1192.56 63.3892 Q1193.29 62.2825 1193.46 61.7086 L1197.23 46.6246 L1198.91 39.9023 Q1199.69 36.2543 1200.06 35.3525 Q1200.55 34.4917 1201.41 34.0408 Q1202.27 33.59 1203.01 33.59 Q1204.03 33.59 1204.73 34.2048 Q1205.47 34.8196 1205.47 35.8854 Z" fill="#000000" fill-rule="evenodd" fill-opacity="1" /><path clip-path="url(#clip190)" d="
M1118.62 109.23 L1215.1 109.23 L1215.1 104.75 L1118.62 104.75  Z
  " fill="#000000" fill-rule="evenodd" fill-opacity="1"/>
<path clip-path="url(#clip190)" d="M1118.62 166.803 Q1118.62 158.81 1124.19 153.276 Q1129.77 147.743 1137.31 147.743 Q1143.7 147.743 1147.88 152.948 L1147.88 134.79 Q1147.88 131.675 1146.78 130.896 Q1145.71 130.117 1141.37 130.117 L1141.37 127.494 L1153.46 126.592 L1153.46 177.542 Q1153.46 180.657 1154.52 181.477 Q1155.63 182.256 1159.97 182.256 L1159.97 184.838 L1147.64 185.781 L1147.64 180.206 Q1143.29 185.74 1136.41 185.781 Q1129.19 185.781 1123.9 180.247 Q1118.62 174.714 1118.62 166.803 M1125.58 166.885 Q1125.58 174.673 1128 178.526 Q1131.36 183.895 1136.82 183.895 Q1143.05 183.895 1146.73 178.034 Q1147.68 176.599 1147.64 174.918 L1147.64 157.703 Q1147.64 156.022 1146.73 154.629 Q1143.29 149.587 1137.68 149.587 Q1131.81 149.587 1128.17 154.957 Q1125.58 158.974 1125.58 166.885 Z" fill="#000000" fill-rule="evenodd" fill-opacity="1" /><path clip-path="url(#clip190)" d="M1206.54 153.276 Q1206.54 155.572 1205.11 156.883 Q1203.67 158.154 1202.03 158.154 Q1200.48 158.154 1199.66 157.252 Q1198.84 156.35 1198.84 155.203 Q1198.84 153.645 1199.98 152.292 Q1201.13 150.94 1202.85 150.653 Q1201.17 149.587 1198.67 149.587 Q1197.03 149.587 1195.6 150.448 Q1194.2 151.309 1193.34 152.415 Q1192.52 153.522 1191.79 155.121 Q1191.09 156.678 1190.8 157.621 Q1190.56 158.523 1190.35 159.507 L1187.48 170.983 Q1186.09 176.435 1186.09 178.362 Q1186.09 180.739 1187.24 182.338 Q1188.38 183.895 1190.68 183.895 Q1191.58 183.895 1192.61 183.649 Q1193.63 183.362 1194.94 182.624 Q1196.29 181.846 1197.48 180.698 Q1198.71 179.509 1199.9 177.501 Q1201.09 175.492 1201.87 172.91 Q1202.12 172.008 1202.94 172.008 Q1203.96 172.008 1203.96 172.828 Q1203.96 173.525 1203.39 175 Q1202.85 176.435 1201.66 178.321 Q1200.52 180.165 1199 181.846 Q1197.48 183.485 1195.23 184.633 Q1192.97 185.781 1190.52 185.781 Q1186.99 185.781 1184.65 183.895 Q1182.32 182.01 1181.46 179.386 Q1181.25 179.755 1180.96 180.247 Q1180.68 180.739 1179.82 181.846 Q1179 182.911 1178.05 183.731 Q1177.11 184.51 1175.64 185.125 Q1174.2 185.781 1172.64 185.781 Q1170.68 185.781 1168.91 185.207 Q1167.19 184.633 1165.96 183.321 Q1164.73 182.01 1164.73 180.206 Q1164.73 178.198 1166.09 176.804 Q1167.48 175.369 1169.36 175.369 Q1170.55 175.369 1171.5 176.066 Q1172.48 176.763 1172.48 178.28 Q1172.48 179.96 1171.33 181.231 Q1170.18 182.501 1168.55 182.829 Q1170.23 183.895 1172.73 183.895 Q1175.43 183.895 1177.56 181.518 Q1179.69 179.14 1180.72 175.164 Q1183.26 165.614 1184.24 161.351 Q1185.23 157.047 1185.23 155.203 Q1185.23 153.481 1184.78 152.292 Q1184.33 151.104 1183.55 150.571 Q1182.81 149.997 1182.11 149.792 Q1181.46 149.587 1180.72 149.587 Q1179.49 149.587 1178.1 150.079 Q1176.74 150.571 1175.1 151.719 Q1173.5 152.825 1171.99 155.121 Q1170.47 157.416 1169.45 160.572 Q1169.24 161.515 1168.34 161.515 Q1167.36 161.474 1167.36 160.654 Q1167.36 159.957 1167.89 158.523 Q1168.46 157.047 1169.61 155.203 Q1170.8 153.358 1172.32 151.719 Q1173.87 150.038 1176.13 148.89 Q1178.42 147.743 1180.88 147.743 Q1181.99 147.743 1183.06 147.989 Q1184.16 148.193 1185.47 148.808 Q1186.83 149.423 1188.02 150.776 Q1189.2 152.128 1189.94 154.096 Q1190.43 153.153 1191.09 152.251 Q1191.79 151.35 1192.85 150.243 Q1193.96 149.095 1195.48 148.439 Q1197.03 147.743 1198.75 147.743 Q1200.43 147.743 1202.07 148.193 Q1203.71 148.603 1205.11 149.956 Q1206.54 151.268 1206.54 153.276 Z" fill="#000000" fill-rule="evenodd" fill-opacity="1" /><path clip-path="url(#clip190)" d="M1247.35 115.024 Q1247.43 113.999 1249.03 113.999 L1300.47 113.999 Q1302.89 113.999 1302.93 114.942 Q1302.93 115.967 1300.64 115.926 L1249.6 115.926 Q1247.35 115.967 1247.35 115.024 M1247.35 98.6282 Q1247.35 97.6035 1249.11 97.6445 L1300.39 97.6445 Q1302.89 97.6445 1302.93 98.6282 Q1302.93 99.571 1300.8 99.571 L1249.03 99.571 Q1247.35 99.571 1247.35 98.6282 Z" fill="#000000" fill-rule="evenodd" fill-opacity="1" /><path clip-path="url(#clip190)" d="M1414.02 105.596 Q1414.51 106.088 1414.51 106.785 Q1414.51 107.482 1414.02 107.974 Q1413.53 108.466 1412.83 108.466 L1360.28 108.466 Q1359.58 108.466 1359.09 107.974 Q1358.6 107.482 1358.6 106.785 Q1358.6 106.088 1359.09 105.596 Q1359.58 105.105 1360.28 105.105 L1412.83 105.105 Q1413.53 105.105 1414.02 105.596 Z" fill="#000000" fill-rule="evenodd" fill-opacity="1" /><path clip-path="url(#clip190)" d="M1446.56 127.772 Q1446.56 126.255 1446.68 125.804 Q1446.85 125.353 1447.5 124.656 L1463.61 106.703 Q1472.42 96.7837 1472.42 88.135 Q1472.42 82.5195 1469.47 78.5025 Q1466.56 74.4856 1461.19 74.4856 Q1457.5 74.4856 1454.39 76.74 Q1451.27 78.9944 1449.84 83.0113 Q1450.09 82.9294 1450.95 82.9294 Q1453.04 82.9294 1454.18 84.241 Q1455.37 85.5527 1455.37 87.3152 Q1455.37 89.5696 1453.9 90.6763 Q1452.46 91.742 1451.03 91.742 Q1450.45 91.742 1449.68 91.6191 Q1448.94 91.4961 1447.75 90.3484 Q1446.56 89.1597 1446.56 87.0693 Q1446.56 81.2078 1450.99 76.535 Q1455.45 71.8622 1462.26 71.8622 Q1469.97 71.8622 1475.01 76.453 Q1480.09 81.0029 1480.09 88.135 Q1480.09 90.6353 1479.31 92.9307 Q1478.57 95.1851 1477.55 96.9477 Q1476.56 98.7102 1473.86 101.538 Q1471.15 104.367 1468.98 106.375 Q1466.81 108.384 1461.93 112.647 L1453.04 121.295 L1468.16 121.295 Q1475.54 121.295 1476.11 120.639 Q1476.93 119.451 1477.96 113.179 L1480.09 113.179 L1477.71 127.772 L1446.56 127.772 Z" fill="#000000" fill-rule="evenodd" fill-opacity="1" /><path clip-path="url(#clip190)" d="M1488.47 100.924 Q1488.47 88.5859 1491.58 81.8636 Q1495.93 71.8622 1506.17 71.8622 Q1508.35 71.8622 1510.6 72.4771 Q1512.9 73.0509 1515.77 75.3053 Q1518.68 77.5598 1520.44 81.2488 Q1523.8 88.3809 1523.8 100.924 Q1523.8 113.179 1520.68 119.861 Q1516.13 129.616 1506.09 129.616 Q1502.32 129.616 1498.47 127.69 Q1494.66 125.763 1492.24 121.131 Q1488.47 114.204 1488.47 100.924 M1495.43 99.8989 Q1495.43 112.565 1496.34 117.606 Q1497.36 123.058 1500.15 125.435 Q1502.98 127.772 1506.09 127.772 Q1509.45 127.772 1512.24 125.271 Q1515.07 122.73 1515.93 117.278 Q1516.87 111.909 1516.83 99.8989 Q1516.83 88.217 1516.01 83.5442 Q1514.9 78.0926 1511.95 75.9202 Q1509.04 73.7068 1506.09 73.7068 Q1504.99 73.7068 1503.8 74.0347 Q1502.65 74.3626 1500.97 75.3053 Q1499.29 76.2481 1497.98 78.5845 Q1496.71 80.9209 1496.09 84.446 Q1495.43 88.9958 1495.43 99.8989 Z" fill="#000000" fill-rule="evenodd" fill-opacity="1" /><path clip-path="url(#clip190)" d="M1567.43 93.8735 Q1567.43 94.4473 1567.06 95.8 L1559.02 127.854 Q1557.26 134.986 1551.52 139.986 Q1545.83 144.987 1539.35 144.987 Q1535.46 144.987 1532.96 142.897 Q1530.46 140.847 1530.46 137.691 Q1530.46 134.904 1531.93 133.551 Q1533.41 132.239 1535.17 132.239 Q1535.74 132.239 1536.36 132.403 Q1536.97 132.567 1537.63 133.264 Q1538.28 133.961 1538.28 135.15 Q1538.28 137.076 1536.6 138.593 Q1535.78 139.29 1535.01 139.454 Q1534.27 139.618 1533 139.618 Q1533.49 140.765 1534.39 141.544 Q1535.29 142.323 1536.32 142.61 Q1537.34 142.938 1538 143.02 Q1538.69 143.143 1539.35 143.143 Q1544.6 143.143 1548.61 137.855 Q1549.8 136.256 1550.66 134.658 Q1551.56 133.1 1552.22 131.174 Q1552.88 129.288 1553.16 128.263 Q1553.49 127.239 1554.07 124.902 Q1550.25 128.714 1545.58 128.714 Q1543.61 128.714 1541.85 128.182 Q1540.13 127.649 1538.61 126.542 Q1537.1 125.394 1536.19 123.386 Q1535.33 121.377 1535.33 118.713 Q1535.33 115.885 1536.44 112.032 Q1537.55 108.179 1540.21 101.088 Q1541.65 97.1116 1541.65 95.1851 Q1541.65 94.2424 1541.44 93.6685 Q1541.24 93.0537 1540.83 92.8488 Q1540.42 92.6028 1540.17 92.5618 Q1539.96 92.5208 1539.56 92.5208 Q1537.14 92.5208 1534.88 94.9802 Q1532.63 97.4396 1531.07 102.932 Q1530.74 103.957 1530.54 104.203 Q1530.33 104.449 1529.72 104.449 Q1528.69 104.408 1528.69 103.588 Q1528.69 103.26 1529.06 101.989 Q1529.43 100.678 1530.29 98.7512 Q1531.19 96.7837 1532.42 95.0212 Q1533.65 93.2177 1535.58 91.947 Q1537.55 90.6763 1539.8 90.6763 Q1542.88 90.6763 1544.76 92.6848 Q1546.69 94.6523 1546.69 97.5625 Q1546.69 98.7512 1546.36 99.8169 Q1546.07 100.842 1545.01 103.588 Q1540.7 114.655 1540.7 120.066 Q1540.7 121.377 1540.91 122.484 Q1541.15 123.55 1541.69 124.615 Q1542.22 125.64 1543.29 126.255 Q1544.39 126.829 1545.91 126.829 Q1547.83 126.829 1549.64 125.927 Q1551.48 124.984 1552.63 123.714 Q1553.82 122.443 1554.52 121.377 Q1555.25 120.271 1555.42 119.697 L1559.19 104.613 L1560.87 97.8904 Q1561.65 94.2424 1562.02 93.3406 Q1562.51 92.4799 1563.37 92.029 Q1564.23 91.5781 1564.97 91.5781 Q1565.99 91.5781 1566.69 92.1929 Q1567.43 92.8078 1567.43 93.8735 Z" fill="#000000" fill-rule="evenodd" fill-opacity="1" /><circle clip-path="url(#clip193)" cx="232.263" cy="215.788" r="7" fill="#ff0000" fill-rule="evenodd" fill-opacity="1" stroke="#000000" stroke-opacity="1" stroke-width="0"/>
<circle clip-path="url(#clip193)" cx="233.552" cy="236.362" r="7" fill="#ff0000" fill-rule="evenodd" fill-opacity="1" stroke="#000000" stroke-opacity="1" stroke-width="0"/>
<circle clip-path="url(#clip193)" cx="234.29" cy="247.98" r="7" fill="#ff0000" fill-rule="evenodd" fill-opacity="1" stroke="#000000" stroke-opacity="1" stroke-width="0"/>
<circle clip-path="url(#clip193)" cx="235.492" cy="266.669" r="7" fill="#ff0000" fill-rule="evenodd" fill-opacity="1" stroke="#000000" stroke-opacity="1" stroke-width="0"/>
<circle clip-path="url(#clip193)" cx="236.604" cy="283.704" r="7" fill="#ff0000" fill-rule="evenodd" fill-opacity="1" stroke="#000000" stroke-opacity="1" stroke-width="0"/>
<circle clip-path="url(#clip193)" cx="237.926" cy="303.641" r="7" fill="#ff0000" fill-rule="evenodd" fill-opacity="1" stroke="#000000" stroke-opacity="1" stroke-width="0"/>
<circle clip-path="url(#clip193)" cx="239.276" cy="323.652" r="7" fill="#ff0000" fill-rule="evenodd" fill-opacity="1" stroke="#000000" stroke-opacity="1" stroke-width="0"/>
<circle clip-path="url(#clip193)" cx="240.734" cy="344.863" r="7" fill="#ff0000" fill-rule="evenodd" fill-opacity="1" stroke="#000000" stroke-opacity="1" stroke-width="0"/>
<circle clip-path="url(#clip193)" cx="242.24" cy="366.346" r="7" fill="#ff0000" fill-rule="evenodd" fill-opacity="1" stroke="#000000" stroke-opacity="1" stroke-width="0"/>
<circle clip-path="url(#clip193)" cx="243.808" cy="388.285" r="7" fill="#ff0000" fill-rule="evenodd" fill-opacity="1" stroke="#000000" stroke-opacity="1" stroke-width="0"/>
<circle clip-path="url(#clip193)" cx="245.418" cy="410.338" r="7" fill="#ff0000" fill-rule="evenodd" fill-opacity="1" stroke="#000000" stroke-opacity="1" stroke-width="0"/>
<circle clip-path="url(#clip193)" cx="247.069" cy="432.476" r="7" fill="#ff0000" fill-rule="evenodd" fill-opacity="1" stroke="#000000" stroke-opacity="1" stroke-width="0"/>
<circle clip-path="url(#clip193)" cx="248.751" cy="454.548" r="7" fill="#ff0000" fill-rule="evenodd" fill-opacity="1" stroke="#000000" stroke-opacity="1" stroke-width="0"/>
<circle clip-path="url(#clip193)" cx="250.461" cy="476.498" r="7" fill="#ff0000" fill-rule="evenodd" fill-opacity="1" stroke="#000000" stroke-opacity="1" stroke-width="0"/>
<circle clip-path="url(#clip193)" cx="252.194" cy="498.25" r="7" fill="#ff0000" fill-rule="evenodd" fill-opacity="1" stroke="#000000" stroke-opacity="1" stroke-width="0"/>
<circle clip-path="url(#clip193)" cx="253.947" cy="519.762" r="7" fill="#ff0000" fill-rule="evenodd" fill-opacity="1" stroke="#000000" stroke-opacity="1" stroke-width="0"/>
<circle clip-path="url(#clip193)" cx="255.718" cy="540.992" r="7" fill="#ff0000" fill-rule="evenodd" fill-opacity="1" stroke="#000000" stroke-opacity="1" stroke-width="0"/>
<circle clip-path="url(#clip193)" cx="257.504" cy="561.914" r="7" fill="#ff0000" fill-rule="evenodd" fill-opacity="1" stroke="#000000" stroke-opacity="1" stroke-width="0"/>
<circle clip-path="url(#clip193)" cx="259.303" cy="582.507" r="7" fill="#ff0000" fill-rule="evenodd" fill-opacity="1" stroke="#000000" stroke-opacity="1" stroke-width="0"/>
<circle clip-path="url(#clip193)" cx="261.115" cy="602.756" r="7" fill="#ff0000" fill-rule="evenodd" fill-opacity="1" stroke="#000000" stroke-opacity="1" stroke-width="0"/>
<circle clip-path="url(#clip193)" cx="262.937" cy="622.652" r="7" fill="#ff0000" fill-rule="evenodd" fill-opacity="1" stroke="#000000" stroke-opacity="1" stroke-width="0"/>
<circle clip-path="url(#clip193)" cx="264.77" cy="642.187" r="7" fill="#ff0000" fill-rule="evenodd" fill-opacity="1" stroke="#000000" stroke-opacity="1" stroke-width="0"/>
<circle clip-path="url(#clip193)" cx="266.612" cy="661.359" r="7" fill="#ff0000" fill-rule="evenodd" fill-opacity="1" stroke="#000000" stroke-opacity="1" stroke-width="0"/>
<circle clip-path="url(#clip193)" cx="268.464" cy="680.165" r="7" fill="#ff0000" fill-rule="evenodd" fill-opacity="1" stroke="#000000" stroke-opacity="1" stroke-width="0"/>
<circle clip-path="url(#clip193)" cx="270.324" cy="698.608" r="7" fill="#ff0000" fill-rule="evenodd" fill-opacity="1" stroke="#000000" stroke-opacity="1" stroke-width="0"/>
<circle clip-path="url(#clip193)" cx="272.192" cy="716.688" r="7" fill="#ff0000" fill-rule="evenodd" fill-opacity="1" stroke="#000000" stroke-opacity="1" stroke-width="0"/>
<circle clip-path="url(#clip193)" cx="274.068" cy="734.409" r="7" fill="#ff0000" fill-rule="evenodd" fill-opacity="1" stroke="#000000" stroke-opacity="1" stroke-width="0"/>
<circle clip-path="url(#clip193)" cx="275.953" cy="751.774" r="7" fill="#ff0000" fill-rule="evenodd" fill-opacity="1" stroke="#000000" stroke-opacity="1" stroke-width="0"/>
<circle clip-path="url(#clip193)" cx="277.845" cy="768.787" r="7" fill="#ff0000" fill-rule="evenodd" fill-opacity="1" stroke="#000000" stroke-opacity="1" stroke-width="0"/>
<circle clip-path="url(#clip193)" cx="279.745" cy="785.454" r="7" fill="#ff0000" fill-rule="evenodd" fill-opacity="1" stroke="#000000" stroke-opacity="1" stroke-width="0"/>
<circle clip-path="url(#clip193)" cx="281.654" cy="801.779" r="7" fill="#ff0000" fill-rule="evenodd" fill-opacity="1" stroke="#000000" stroke-opacity="1" stroke-width="0"/>
<circle clip-path="url(#clip193)" cx="283.57" cy="817.768" r="7" fill="#ff0000" fill-rule="evenodd" fill-opacity="1" stroke="#000000" stroke-opacity="1" stroke-width="0"/>
<circle clip-path="url(#clip193)" cx="285.493" cy="833.425" r="7" fill="#ff0000" fill-rule="evenodd" fill-opacity="1" stroke="#000000" stroke-opacity="1" stroke-width="0"/>
<circle clip-path="url(#clip193)" cx="287.425" cy="848.757" r="7" fill="#ff0000" fill-rule="evenodd" fill-opacity="1" stroke="#000000" stroke-opacity="1" stroke-width="0"/>
<circle clip-path="url(#clip193)" cx="289.365" cy="863.769" r="7" fill="#ff0000" fill-rule="evenodd" fill-opacity="1" stroke="#000000" stroke-opacity="1" stroke-width="0"/>
<circle clip-path="url(#clip193)" cx="291.313" cy="878.466" r="7" fill="#ff0000" fill-rule="evenodd" fill-opacity="1" stroke="#000000" stroke-opacity="1" stroke-width="0"/>
<circle clip-path="url(#clip193)" cx="293.269" cy="892.854" r="7" fill="#ff0000" fill-rule="evenodd" fill-opacity="1" stroke="#000000" stroke-opacity="1" stroke-width="0"/>
<circle clip-path="url(#clip193)" cx="295.234" cy="906.939" r="7" fill="#ff0000" fill-rule="evenodd" fill-opacity="1" stroke="#000000" stroke-opacity="1" stroke-width="0"/>
<circle clip-path="url(#clip193)" cx="297.207" cy="920.725" r="7" fill="#ff0000" fill-rule="evenodd" fill-opacity="1" stroke="#000000" stroke-opacity="1" stroke-width="0"/>
<circle clip-path="url(#clip193)" cx="299.189" cy="934.219" r="7" fill="#ff0000" fill-rule="evenodd" fill-opacity="1" stroke="#000000" stroke-opacity="1" stroke-width="0"/>
<circle clip-path="url(#clip193)" cx="301.179" cy="947.426" r="7" fill="#ff0000" fill-rule="evenodd" fill-opacity="1" stroke="#000000" stroke-opacity="1" stroke-width="0"/>
<circle clip-path="url(#clip193)" cx="303.178" cy="960.35" r="7" fill="#ff0000" fill-rule="evenodd" fill-opacity="1" stroke="#000000" stroke-opacity="1" stroke-width="0"/>
<circle clip-path="url(#clip193)" cx="305.187" cy="972.998" r="7" fill="#ff0000" fill-rule="evenodd" fill-opacity="1" stroke="#000000" stroke-opacity="1" stroke-width="0"/>
<circle clip-path="url(#clip193)" cx="307.204" cy="985.374" r="7" fill="#ff0000" fill-rule="evenodd" fill-opacity="1" stroke="#000000" stroke-opacity="1" stroke-width="0"/>
<circle clip-path="url(#clip193)" cx="309.23" cy="997.483" r="7" fill="#ff0000" fill-rule="evenodd" fill-opacity="1" stroke="#000000" stroke-opacity="1" stroke-width="0"/>
<circle clip-path="url(#clip193)" cx="311.266" cy="1009.33" r="7" fill="#ff0000" fill-rule="evenodd" fill-opacity="1" stroke="#000000" stroke-opacity="1" stroke-width="0"/>
<circle clip-path="url(#clip193)" cx="313.312" cy="1020.92" r="7" fill="#ff0000" fill-rule="evenodd" fill-opacity="1" stroke="#000000" stroke-opacity="1" stroke-width="0"/>
<circle clip-path="url(#clip193)" cx="315.367" cy="1032.26" r="7" fill="#ff0000" fill-rule="evenodd" fill-opacity="1" stroke="#000000" stroke-opacity="1" stroke-width="0"/>
<circle clip-path="url(#clip193)" cx="317.432" cy="1043.35" r="7" fill="#ff0000" fill-rule="evenodd" fill-opacity="1" stroke="#000000" stroke-opacity="1" stroke-width="0"/>
<circle clip-path="url(#clip193)" cx="319.508" cy="1054.19" r="7" fill="#ff0000" fill-rule="evenodd" fill-opacity="1" stroke="#000000" stroke-opacity="1" stroke-width="0"/>
<circle clip-path="url(#clip193)" cx="321.593" cy="1064.8" r="7" fill="#ff0000" fill-rule="evenodd" fill-opacity="1" stroke="#000000" stroke-opacity="1" stroke-width="0"/>
<circle clip-path="url(#clip193)" cx="323.689" cy="1075.18" r="7" fill="#ff0000" fill-rule="evenodd" fill-opacity="1" stroke="#000000" stroke-opacity="1" stroke-width="0"/>
<circle clip-path="url(#clip193)" cx="325.795" cy="1085.32" r="7" fill="#ff0000" fill-rule="evenodd" fill-opacity="1" stroke="#000000" stroke-opacity="1" stroke-width="0"/>
<circle clip-path="url(#clip193)" cx="327.912" cy="1095.24" r="7" fill="#ff0000" fill-rule="evenodd" fill-opacity="1" stroke="#000000" stroke-opacity="1" stroke-width="0"/>
<circle clip-path="url(#clip193)" cx="330.04" cy="1104.94" r="7" fill="#ff0000" fill-rule="evenodd" fill-opacity="1" stroke="#000000" stroke-opacity="1" stroke-width="0"/>
<circle clip-path="url(#clip193)" cx="332.179" cy="1114.42" r="7" fill="#ff0000" fill-rule="evenodd" fill-opacity="1" stroke="#000000" stroke-opacity="1" stroke-width="0"/>
<circle clip-path="url(#clip193)" cx="334.33" cy="1123.69" r="7" fill="#ff0000" fill-rule="evenodd" fill-opacity="1" stroke="#000000" stroke-opacity="1" stroke-width="0"/>
<circle clip-path="url(#clip193)" cx="336.492" cy="1132.75" r="7" fill="#ff0000" fill-rule="evenodd" fill-opacity="1" stroke="#000000" stroke-opacity="1" stroke-width="0"/>
<circle clip-path="url(#clip193)" cx="338.665" cy="1141.6" r="7" fill="#ff0000" fill-rule="evenodd" fill-opacity="1" stroke="#000000" stroke-opacity="1" stroke-width="0"/>
<circle clip-path="url(#clip193)" cx="340.85" cy="1150.26" r="7" fill="#ff0000" fill-rule="evenodd" fill-opacity="1" stroke="#000000" stroke-opacity="1" stroke-width="0"/>
<circle clip-path="url(#clip193)" cx="343.048" cy="1158.71" r="7" fill="#ff0000" fill-rule="evenodd" fill-opacity="1" stroke="#000000" stroke-opacity="1" stroke-width="0"/>
<circle clip-path="url(#clip193)" cx="345.257" cy="1166.97" r="7" fill="#ff0000" fill-rule="evenodd" fill-opacity="1" stroke="#000000" stroke-opacity="1" stroke-width="0"/>
<circle clip-path="url(#clip193)" cx="347.48" cy="1175.04" r="7" fill="#ff0000" fill-rule="evenodd" fill-opacity="1" stroke="#000000" stroke-opacity="1" stroke-width="0"/>
<circle clip-path="url(#clip193)" cx="349.714" cy="1182.93" r="7" fill="#ff0000" fill-rule="evenodd" fill-opacity="1" stroke="#000000" stroke-opacity="1" stroke-width="0"/>
<circle clip-path="url(#clip193)" cx="351.962" cy="1190.63" r="7" fill="#ff0000" fill-rule="evenodd" fill-opacity="1" stroke="#000000" stroke-opacity="1" stroke-width="0"/>
<circle clip-path="url(#clip193)" cx="354.223" cy="1198.15" r="7" fill="#ff0000" fill-rule="evenodd" fill-opacity="1" stroke="#000000" stroke-opacity="1" stroke-width="0"/>
<circle clip-path="url(#clip193)" cx="356.497" cy="1205.5" r="7" fill="#ff0000" fill-rule="evenodd" fill-opacity="1" stroke="#000000" stroke-opacity="1" stroke-width="0"/>
<circle clip-path="url(#clip193)" cx="358.785" cy="1212.67" r="7" fill="#ff0000" fill-rule="evenodd" fill-opacity="1" stroke="#000000" stroke-opacity="1" stroke-width="0"/>
<circle clip-path="url(#clip193)" cx="361.086" cy="1219.68" r="7" fill="#ff0000" fill-rule="evenodd" fill-opacity="1" stroke="#000000" stroke-opacity="1" stroke-width="0"/>
<circle clip-path="url(#clip193)" cx="363.402" cy="1226.51" r="7" fill="#ff0000" fill-rule="evenodd" fill-opacity="1" stroke="#000000" stroke-opacity="1" stroke-width="0"/>
<circle clip-path="url(#clip193)" cx="365.731" cy="1233.19" r="7" fill="#ff0000" fill-rule="evenodd" fill-opacity="1" stroke="#000000" stroke-opacity="1" stroke-width="0"/>
<circle clip-path="url(#clip193)" cx="368.076" cy="1239.7" r="7" fill="#ff0000" fill-rule="evenodd" fill-opacity="1" stroke="#000000" stroke-opacity="1" stroke-width="0"/>
<circle clip-path="url(#clip193)" cx="370.435" cy="1246.06" r="7" fill="#ff0000" fill-rule="evenodd" fill-opacity="1" stroke="#000000" stroke-opacity="1" stroke-width="0"/>
<circle clip-path="url(#clip193)" cx="372.809" cy="1252.26" r="7" fill="#ff0000" fill-rule="evenodd" fill-opacity="1" stroke="#000000" stroke-opacity="1" stroke-width="0"/>
<circle clip-path="url(#clip193)" cx="375.198" cy="1258.31" r="7" fill="#ff0000" fill-rule="evenodd" fill-opacity="1" stroke="#000000" stroke-opacity="1" stroke-width="0"/>
<circle clip-path="url(#clip193)" cx="377.603" cy="1264.22" r="7" fill="#ff0000" fill-rule="evenodd" fill-opacity="1" stroke="#000000" stroke-opacity="1" stroke-width="0"/>
<circle clip-path="url(#clip193)" cx="380.024" cy="1269.97" r="7" fill="#ff0000" fill-rule="evenodd" fill-opacity="1" stroke="#000000" stroke-opacity="1" stroke-width="0"/>
<circle clip-path="url(#clip193)" cx="382.46" cy="1275.59" r="7" fill="#ff0000" fill-rule="evenodd" fill-opacity="1" stroke="#000000" stroke-opacity="1" stroke-width="0"/>
<circle clip-path="url(#clip193)" cx="384.914" cy="1281.06" r="7" fill="#ff0000" fill-rule="evenodd" fill-opacity="1" stroke="#000000" stroke-opacity="1" stroke-width="0"/>
<circle clip-path="url(#clip193)" cx="387.383" cy="1286.4" r="7" fill="#ff0000" fill-rule="evenodd" fill-opacity="1" stroke="#000000" stroke-opacity="1" stroke-width="0"/>
<circle clip-path="url(#clip193)" cx="389.87" cy="1291.61" r="7" fill="#ff0000" fill-rule="evenodd" fill-opacity="1" stroke="#000000" stroke-opacity="1" stroke-width="0"/>
<circle clip-path="url(#clip193)" cx="392.374" cy="1296.68" r="7" fill="#ff0000" fill-rule="evenodd" fill-opacity="1" stroke="#000000" stroke-opacity="1" stroke-width="0"/>
<circle clip-path="url(#clip193)" cx="394.896" cy="1301.62" r="7" fill="#ff0000" fill-rule="evenodd" fill-opacity="1" stroke="#000000" stroke-opacity="1" stroke-width="0"/>
<circle clip-path="url(#clip193)" cx="397.435" cy="1306.44" r="7" fill="#ff0000" fill-rule="evenodd" fill-opacity="1" stroke="#000000" stroke-opacity="1" stroke-width="0"/>
<circle clip-path="url(#clip193)" cx="399.993" cy="1311.13" r="7" fill="#ff0000" fill-rule="evenodd" fill-opacity="1" stroke="#000000" stroke-opacity="1" stroke-width="0"/>
<circle clip-path="url(#clip193)" cx="402.569" cy="1315.71" r="7" fill="#ff0000" fill-rule="evenodd" fill-opacity="1" stroke="#000000" stroke-opacity="1" stroke-width="0"/>
<circle clip-path="url(#clip193)" cx="405.164" cy="1320.16" r="7" fill="#ff0000" fill-rule="evenodd" fill-opacity="1" stroke="#000000" stroke-opacity="1" stroke-width="0"/>
<circle clip-path="url(#clip193)" cx="407.778" cy="1324.49" r="7" fill="#ff0000" fill-rule="evenodd" fill-opacity="1" stroke="#000000" stroke-opacity="1" stroke-width="0"/>
<circle clip-path="url(#clip193)" cx="410.411" cy="1328.71" r="7" fill="#ff0000" fill-rule="evenodd" fill-opacity="1" stroke="#000000" stroke-opacity="1" stroke-width="0"/>
<circle clip-path="url(#clip193)" cx="413.065" cy="1332.82" r="7" fill="#ff0000" fill-rule="evenodd" fill-opacity="1" stroke="#000000" stroke-opacity="1" stroke-width="0"/>
<circle clip-path="url(#clip193)" cx="415.739" cy="1336.82" r="7" fill="#ff0000" fill-rule="evenodd" fill-opacity="1" stroke="#000000" stroke-opacity="1" stroke-width="0"/>
<circle clip-path="url(#clip193)" cx="418.433" cy="1340.71" r="7" fill="#ff0000" fill-rule="evenodd" fill-opacity="1" stroke="#000000" stroke-opacity="1" stroke-width="0"/>
<circle clip-path="url(#clip193)" cx="421.149" cy="1344.49" r="7" fill="#ff0000" fill-rule="evenodd" fill-opacity="1" stroke="#000000" stroke-opacity="1" stroke-width="0"/>
<circle clip-path="url(#clip193)" cx="423.885" cy="1348.17" r="7" fill="#ff0000" fill-rule="evenodd" fill-opacity="1" stroke="#000000" stroke-opacity="1" stroke-width="0"/>
<circle clip-path="url(#clip193)" cx="426.644" cy="1351.75" r="7" fill="#ff0000" fill-rule="evenodd" fill-opacity="1" stroke="#000000" stroke-opacity="1" stroke-width="0"/>
<circle clip-path="url(#clip193)" cx="429.425" cy="1355.23" r="7" fill="#ff0000" fill-rule="evenodd" fill-opacity="1" stroke="#000000" stroke-opacity="1" stroke-width="0"/>
<circle clip-path="url(#clip193)" cx="432.228" cy="1358.62" r="7" fill="#ff0000" fill-rule="evenodd" fill-opacity="1" stroke="#000000" stroke-opacity="1" stroke-width="0"/>
<circle clip-path="url(#clip193)" cx="435.055" cy="1361.91" r="7" fill="#ff0000" fill-rule="evenodd" fill-opacity="1" stroke="#000000" stroke-opacity="1" stroke-width="0"/>
<circle clip-path="url(#clip193)" cx="437.905" cy="1365.1" r="7" fill="#ff0000" fill-rule="evenodd" fill-opacity="1" stroke="#000000" stroke-opacity="1" stroke-width="0"/>
<circle clip-path="url(#clip193)" cx="440.779" cy="1368.2" r="7" fill="#ff0000" fill-rule="evenodd" fill-opacity="1" stroke="#000000" stroke-opacity="1" stroke-width="0"/>
<circle clip-path="url(#clip193)" cx="443.677" cy="1371.22" r="7" fill="#ff0000" fill-rule="evenodd" fill-opacity="1" stroke="#000000" stroke-opacity="1" stroke-width="0"/>
<circle clip-path="url(#clip193)" cx="446.6" cy="1374.14" r="7" fill="#ff0000" fill-rule="evenodd" fill-opacity="1" stroke="#000000" stroke-opacity="1" stroke-width="0"/>
<circle clip-path="url(#clip193)" cx="449.549" cy="1376.99" r="7" fill="#ff0000" fill-rule="evenodd" fill-opacity="1" stroke="#000000" stroke-opacity="1" stroke-width="0"/>
<circle clip-path="url(#clip193)" cx="452.523" cy="1379.74" r="7" fill="#ff0000" fill-rule="evenodd" fill-opacity="1" stroke="#000000" stroke-opacity="1" stroke-width="0"/>
<circle clip-path="url(#clip193)" cx="455.524" cy="1382.42" r="7" fill="#ff0000" fill-rule="evenodd" fill-opacity="1" stroke="#000000" stroke-opacity="1" stroke-width="0"/>
<circle clip-path="url(#clip193)" cx="458.551" cy="1385.02" r="7" fill="#ff0000" fill-rule="evenodd" fill-opacity="1" stroke="#000000" stroke-opacity="1" stroke-width="0"/>
<circle clip-path="url(#clip193)" cx="461.606" cy="1387.53" r="7" fill="#ff0000" fill-rule="evenodd" fill-opacity="1" stroke="#000000" stroke-opacity="1" stroke-width="0"/>
<circle clip-path="url(#clip193)" cx="464.689" cy="1389.97" r="7" fill="#ff0000" fill-rule="evenodd" fill-opacity="1" stroke="#000000" stroke-opacity="1" stroke-width="0"/>
<circle clip-path="url(#clip193)" cx="467.801" cy="1392.34" r="7" fill="#ff0000" fill-rule="evenodd" fill-opacity="1" stroke="#000000" stroke-opacity="1" stroke-width="0"/>
<circle clip-path="url(#clip193)" cx="470.942" cy="1394.63" r="7" fill="#ff0000" fill-rule="evenodd" fill-opacity="1" stroke="#000000" stroke-opacity="1" stroke-width="0"/>
<circle clip-path="url(#clip193)" cx="474.112" cy="1396.85" r="7" fill="#ff0000" fill-rule="evenodd" fill-opacity="1" stroke="#000000" stroke-opacity="1" stroke-width="0"/>
<circle clip-path="url(#clip193)" cx="477.313" cy="1399" r="7" fill="#ff0000" fill-rule="evenodd" fill-opacity="1" stroke="#000000" stroke-opacity="1" stroke-width="0"/>
<circle clip-path="url(#clip193)" cx="480.544" cy="1401.08" r="7" fill="#ff0000" fill-rule="evenodd" fill-opacity="1" stroke="#000000" stroke-opacity="1" stroke-width="0"/>
<circle clip-path="url(#clip193)" cx="483.808" cy="1403.1" r="7" fill="#ff0000" fill-rule="evenodd" fill-opacity="1" stroke="#000000" stroke-opacity="1" stroke-width="0"/>
<circle clip-path="url(#clip193)" cx="487.103" cy="1405.05" r="7" fill="#ff0000" fill-rule="evenodd" fill-opacity="1" stroke="#000000" stroke-opacity="1" stroke-width="0"/>
<circle clip-path="url(#clip193)" cx="490.432" cy="1406.94" r="7" fill="#ff0000" fill-rule="evenodd" fill-opacity="1" stroke="#000000" stroke-opacity="1" stroke-width="0"/>
<circle clip-path="url(#clip193)" cx="493.794" cy="1408.76" r="7" fill="#ff0000" fill-rule="evenodd" fill-opacity="1" stroke="#000000" stroke-opacity="1" stroke-width="0"/>
<circle clip-path="url(#clip193)" cx="497.191" cy="1410.52" r="7" fill="#ff0000" fill-rule="evenodd" fill-opacity="1" stroke="#000000" stroke-opacity="1" stroke-width="0"/>
<circle clip-path="url(#clip193)" cx="500.623" cy="1412.23" r="7" fill="#ff0000" fill-rule="evenodd" fill-opacity="1" stroke="#000000" stroke-opacity="1" stroke-width="0"/>
<circle clip-path="url(#clip193)" cx="504.09" cy="1413.87" r="7" fill="#ff0000" fill-rule="evenodd" fill-opacity="1" stroke="#000000" stroke-opacity="1" stroke-width="0"/>
<circle clip-path="url(#clip193)" cx="507.595" cy="1415.46" r="7" fill="#ff0000" fill-rule="evenodd" fill-opacity="1" stroke="#000000" stroke-opacity="1" stroke-width="0"/>
<circle clip-path="url(#clip193)" cx="511.137" cy="1417" r="7" fill="#ff0000" fill-rule="evenodd" fill-opacity="1" stroke="#000000" stroke-opacity="1" stroke-width="0"/>
<circle clip-path="url(#clip193)" cx="514.717" cy="1418.48" r="7" fill="#ff0000" fill-rule="evenodd" fill-opacity="1" stroke="#000000" stroke-opacity="1" stroke-width="0"/>
<circle clip-path="url(#clip193)" cx="518.337" cy="1419.91" r="7" fill="#ff0000" fill-rule="evenodd" fill-opacity="1" stroke="#000000" stroke-opacity="1" stroke-width="0"/>
<circle clip-path="url(#clip193)" cx="521.997" cy="1421.28" r="7" fill="#ff0000" fill-rule="evenodd" fill-opacity="1" stroke="#000000" stroke-opacity="1" stroke-width="0"/>
<circle clip-path="url(#clip193)" cx="525.698" cy="1422.61" r="7" fill="#ff0000" fill-rule="evenodd" fill-opacity="1" stroke="#000000" stroke-opacity="1" stroke-width="0"/>
<circle clip-path="url(#clip193)" cx="529.441" cy="1423.89" r="7" fill="#ff0000" fill-rule="evenodd" fill-opacity="1" stroke="#000000" stroke-opacity="1" stroke-width="0"/>
<circle clip-path="url(#clip193)" cx="533.227" cy="1425.12" r="7" fill="#ff0000" fill-rule="evenodd" fill-opacity="1" stroke="#000000" stroke-opacity="1" stroke-width="0"/>
<circle clip-path="url(#clip193)" cx="537.058" cy="1426.31" r="7" fill="#ff0000" fill-rule="evenodd" fill-opacity="1" stroke="#000000" stroke-opacity="1" stroke-width="0"/>
<circle clip-path="url(#clip193)" cx="540.933" cy="1427.45" r="7" fill="#ff0000" fill-rule="evenodd" fill-opacity="1" stroke="#000000" stroke-opacity="1" stroke-width="0"/>
<circle clip-path="url(#clip193)" cx="544.855" cy="1428.54" r="7" fill="#ff0000" fill-rule="evenodd" fill-opacity="1" stroke="#000000" stroke-opacity="1" stroke-width="0"/>
<circle clip-path="url(#clip193)" cx="548.824" cy="1429.6" r="7" fill="#ff0000" fill-rule="evenodd" fill-opacity="1" stroke="#000000" stroke-opacity="1" stroke-width="0"/>
<circle clip-path="url(#clip193)" cx="552.842" cy="1430.61" r="7" fill="#ff0000" fill-rule="evenodd" fill-opacity="1" stroke="#000000" stroke-opacity="1" stroke-width="0"/>
<circle clip-path="url(#clip193)" cx="556.909" cy="1431.58" r="7" fill="#ff0000" fill-rule="evenodd" fill-opacity="1" stroke="#000000" stroke-opacity="1" stroke-width="0"/>
<circle clip-path="url(#clip193)" cx="561.028" cy="1432.52" r="7" fill="#ff0000" fill-rule="evenodd" fill-opacity="1" stroke="#000000" stroke-opacity="1" stroke-width="0"/>
<circle clip-path="url(#clip193)" cx="565.199" cy="1433.41" r="7" fill="#ff0000" fill-rule="evenodd" fill-opacity="1" stroke="#000000" stroke-opacity="1" stroke-width="0"/>
<circle clip-path="url(#clip193)" cx="569.424" cy="1434.27" r="7" fill="#ff0000" fill-rule="evenodd" fill-opacity="1" stroke="#000000" stroke-opacity="1" stroke-width="0"/>
<circle clip-path="url(#clip193)" cx="573.704" cy="1435.1" r="7" fill="#ff0000" fill-rule="evenodd" fill-opacity="1" stroke="#000000" stroke-opacity="1" stroke-width="0"/>
<circle clip-path="url(#clip193)" cx="578.04" cy="1435.89" r="7" fill="#ff0000" fill-rule="evenodd" fill-opacity="1" stroke="#000000" stroke-opacity="1" stroke-width="0"/>
<circle clip-path="url(#clip193)" cx="582.435" cy="1436.64" r="7" fill="#ff0000" fill-rule="evenodd" fill-opacity="1" stroke="#000000" stroke-opacity="1" stroke-width="0"/>
<circle clip-path="url(#clip193)" cx="586.889" cy="1437.36" r="7" fill="#ff0000" fill-rule="evenodd" fill-opacity="1" stroke="#000000" stroke-opacity="1" stroke-width="0"/>
<circle clip-path="url(#clip193)" cx="591.405" cy="1438.05" r="7" fill="#ff0000" fill-rule="evenodd" fill-opacity="1" stroke="#000000" stroke-opacity="1" stroke-width="0"/>
<circle clip-path="url(#clip193)" cx="595.984" cy="1438.71" r="7" fill="#ff0000" fill-rule="evenodd" fill-opacity="1" stroke="#000000" stroke-opacity="1" stroke-width="0"/>
<circle clip-path="url(#clip193)" cx="600.628" cy="1439.35" r="7" fill="#ff0000" fill-rule="evenodd" fill-opacity="1" stroke="#000000" stroke-opacity="1" stroke-width="0"/>
<circle clip-path="url(#clip193)" cx="605.338" cy="1439.95" r="7" fill="#ff0000" fill-rule="evenodd" fill-opacity="1" stroke="#000000" stroke-opacity="1" stroke-width="0"/>
<circle clip-path="url(#clip193)" cx="610.118" cy="1440.52" r="7" fill="#ff0000" fill-rule="evenodd" fill-opacity="1" stroke="#000000" stroke-opacity="1" stroke-width="0"/>
<circle clip-path="url(#clip193)" cx="614.967" cy="1441.07" r="7" fill="#ff0000" fill-rule="evenodd" fill-opacity="1" stroke="#000000" stroke-opacity="1" stroke-width="0"/>
<circle clip-path="url(#clip193)" cx="619.89" cy="1441.59" r="7" fill="#ff0000" fill-rule="evenodd" fill-opacity="1" stroke="#000000" stroke-opacity="1" stroke-width="0"/>
<circle clip-path="url(#clip193)" cx="624.888" cy="1442.08" r="7" fill="#ff0000" fill-rule="evenodd" fill-opacity="1" stroke="#000000" stroke-opacity="1" stroke-width="0"/>
<circle clip-path="url(#clip193)" cx="629.962" cy="1442.55" r="7" fill="#ff0000" fill-rule="evenodd" fill-opacity="1" stroke="#000000" stroke-opacity="1" stroke-width="0"/>
<circle clip-path="url(#clip193)" cx="635.117" cy="1443" r="7" fill="#ff0000" fill-rule="evenodd" fill-opacity="1" stroke="#000000" stroke-opacity="1" stroke-width="0"/>
<circle clip-path="url(#clip193)" cx="640.353" cy="1443.43" r="7" fill="#ff0000" fill-rule="evenodd" fill-opacity="1" stroke="#000000" stroke-opacity="1" stroke-width="0"/>
<circle clip-path="url(#clip193)" cx="645.675" cy="1443.83" r="7" fill="#ff0000" fill-rule="evenodd" fill-opacity="1" stroke="#000000" stroke-opacity="1" stroke-width="0"/>
<circle clip-path="url(#clip193)" cx="651.084" cy="1444.21" r="7" fill="#ff0000" fill-rule="evenodd" fill-opacity="1" stroke="#000000" stroke-opacity="1" stroke-width="0"/>
<circle clip-path="url(#clip193)" cx="656.583" cy="1444.57" r="7" fill="#ff0000" fill-rule="evenodd" fill-opacity="1" stroke="#000000" stroke-opacity="1" stroke-width="0"/>
<circle clip-path="url(#clip193)" cx="662.176" cy="1444.92" r="7" fill="#ff0000" fill-rule="evenodd" fill-opacity="1" stroke="#000000" stroke-opacity="1" stroke-width="0"/>
<circle clip-path="url(#clip193)" cx="667.865" cy="1445.24" r="7" fill="#ff0000" fill-rule="evenodd" fill-opacity="1" stroke="#000000" stroke-opacity="1" stroke-width="0"/>
<circle clip-path="url(#clip193)" cx="673.654" cy="1445.55" r="7" fill="#ff0000" fill-rule="evenodd" fill-opacity="1" stroke="#000000" stroke-opacity="1" stroke-width="0"/>
<circle clip-path="url(#clip193)" cx="679.546" cy="1445.83" r="7" fill="#ff0000" fill-rule="evenodd" fill-opacity="1" stroke="#000000" stroke-opacity="1" stroke-width="0"/>
<circle clip-path="url(#clip193)" cx="685.545" cy="1446.1" r="7" fill="#ff0000" fill-rule="evenodd" fill-opacity="1" stroke="#000000" stroke-opacity="1" stroke-width="0"/>
<circle clip-path="url(#clip193)" cx="691.656" cy="1446.36" r="7" fill="#ff0000" fill-rule="evenodd" fill-opacity="1" stroke="#000000" stroke-opacity="1" stroke-width="0"/>
<circle clip-path="url(#clip193)" cx="697.881" cy="1446.6" r="7" fill="#ff0000" fill-rule="evenodd" fill-opacity="1" stroke="#000000" stroke-opacity="1" stroke-width="0"/>
<circle clip-path="url(#clip193)" cx="704.225" cy="1446.83" r="7" fill="#ff0000" fill-rule="evenodd" fill-opacity="1" stroke="#000000" stroke-opacity="1" stroke-width="0"/>
<circle clip-path="url(#clip193)" cx="710.693" cy="1447.04" r="7" fill="#ff0000" fill-rule="evenodd" fill-opacity="1" stroke="#000000" stroke-opacity="1" stroke-width="0"/>
<circle clip-path="url(#clip193)" cx="717.29" cy="1447.24" r="7" fill="#ff0000" fill-rule="evenodd" fill-opacity="1" stroke="#000000" stroke-opacity="1" stroke-width="0"/>
<circle clip-path="url(#clip193)" cx="724.02" cy="1447.42" r="7" fill="#ff0000" fill-rule="evenodd" fill-opacity="1" stroke="#000000" stroke-opacity="1" stroke-width="0"/>
<circle clip-path="url(#clip193)" cx="730.889" cy="1447.59" r="7" fill="#ff0000" fill-rule="evenodd" fill-opacity="1" stroke="#000000" stroke-opacity="1" stroke-width="0"/>
<circle clip-path="url(#clip193)" cx="737.902" cy="1447.75" r="7" fill="#ff0000" fill-rule="evenodd" fill-opacity="1" stroke="#000000" stroke-opacity="1" stroke-width="0"/>
<circle clip-path="url(#clip193)" cx="745.067" cy="1447.91" r="7" fill="#ff0000" fill-rule="evenodd" fill-opacity="1" stroke="#000000" stroke-opacity="1" stroke-width="0"/>
<circle clip-path="url(#clip193)" cx="752.388" cy="1448.04" r="7" fill="#ff0000" fill-rule="evenodd" fill-opacity="1" stroke="#000000" stroke-opacity="1" stroke-width="0"/>
<circle clip-path="url(#clip193)" cx="759.873" cy="1448.17" r="7" fill="#ff0000" fill-rule="evenodd" fill-opacity="1" stroke="#000000" stroke-opacity="1" stroke-width="0"/>
<circle clip-path="url(#clip193)" cx="767.529" cy="1448.29" r="7" fill="#ff0000" fill-rule="evenodd" fill-opacity="1" stroke="#000000" stroke-opacity="1" stroke-width="0"/>
<circle clip-path="url(#clip193)" cx="775.363" cy="1448.41" r="7" fill="#ff0000" fill-rule="evenodd" fill-opacity="1" stroke="#000000" stroke-opacity="1" stroke-width="0"/>
<circle clip-path="url(#clip193)" cx="783.385" cy="1448.51" r="7" fill="#ff0000" fill-rule="evenodd" fill-opacity="1" stroke="#000000" stroke-opacity="1" stroke-width="0"/>
<circle clip-path="url(#clip193)" cx="791.602" cy="1448.6" r="7" fill="#ff0000" fill-rule="evenodd" fill-opacity="1" stroke="#000000" stroke-opacity="1" stroke-width="0"/>
<circle clip-path="url(#clip193)" cx="800.024" cy="1448.69" r="7" fill="#ff0000" fill-rule="evenodd" fill-opacity="1" stroke="#000000" stroke-opacity="1" stroke-width="0"/>
<circle clip-path="url(#clip193)" cx="808.661" cy="1448.77" r="7" fill="#ff0000" fill-rule="evenodd" fill-opacity="1" stroke="#000000" stroke-opacity="1" stroke-width="0"/>
<circle clip-path="url(#clip193)" cx="817.525" cy="1448.84" r="7" fill="#ff0000" fill-rule="evenodd" fill-opacity="1" stroke="#000000" stroke-opacity="1" stroke-width="0"/>
<circle clip-path="url(#clip193)" cx="826.625" cy="1448.91" r="7" fill="#ff0000" fill-rule="evenodd" fill-opacity="1" stroke="#000000" stroke-opacity="1" stroke-width="0"/>
<circle clip-path="url(#clip193)" cx="835.976" cy="1448.97" r="7" fill="#ff0000" fill-rule="evenodd" fill-opacity="1" stroke="#000000" stroke-opacity="1" stroke-width="0"/>
<circle clip-path="url(#clip193)" cx="845.59" cy="1449.03" r="7" fill="#ff0000" fill-rule="evenodd" fill-opacity="1" stroke="#000000" stroke-opacity="1" stroke-width="0"/>
<circle clip-path="url(#clip193)" cx="855.483" cy="1449.08" r="7" fill="#ff0000" fill-rule="evenodd" fill-opacity="1" stroke="#000000" stroke-opacity="1" stroke-width="0"/>
<circle clip-path="url(#clip193)" cx="865.669" cy="1449.12" r="7" fill="#ff0000" fill-rule="evenodd" fill-opacity="1" stroke="#000000" stroke-opacity="1" stroke-width="0"/>
<circle clip-path="url(#clip193)" cx="876.166" cy="1449.16" r="7" fill="#ff0000" fill-rule="evenodd" fill-opacity="1" stroke="#000000" stroke-opacity="1" stroke-width="0"/>
<circle clip-path="url(#clip193)" cx="886.992" cy="1449.2" r="7" fill="#ff0000" fill-rule="evenodd" fill-opacity="1" stroke="#000000" stroke-opacity="1" stroke-width="0"/>
<circle clip-path="url(#clip193)" cx="898.168" cy="1449.23" r="7" fill="#ff0000" fill-rule="evenodd" fill-opacity="1" stroke="#000000" stroke-opacity="1" stroke-width="0"/>
<circle clip-path="url(#clip193)" cx="909.716" cy="1449.26" r="7" fill="#ff0000" fill-rule="evenodd" fill-opacity="1" stroke="#000000" stroke-opacity="1" stroke-width="0"/>
<circle clip-path="url(#clip193)" cx="921.659" cy="1449.29" r="7" fill="#ff0000" fill-rule="evenodd" fill-opacity="1" stroke="#000000" stroke-opacity="1" stroke-width="0"/>
<circle clip-path="url(#clip193)" cx="934.026" cy="1449.31" r="7" fill="#ff0000" fill-rule="evenodd" fill-opacity="1" stroke="#000000" stroke-opacity="1" stroke-width="0"/>
<circle clip-path="url(#clip193)" cx="946.843" cy="1449.33" r="7" fill="#ff0000" fill-rule="evenodd" fill-opacity="1" stroke="#000000" stroke-opacity="1" stroke-width="0"/>
<circle clip-path="url(#clip193)" cx="960.145" cy="1449.35" r="7" fill="#ff0000" fill-rule="evenodd" fill-opacity="1" stroke="#000000" stroke-opacity="1" stroke-width="0"/>
<circle clip-path="url(#clip193)" cx="973.966" cy="1449.36" r="7" fill="#ff0000" fill-rule="evenodd" fill-opacity="1" stroke="#000000" stroke-opacity="1" stroke-width="0"/>
<circle clip-path="url(#clip193)" cx="988.345" cy="1449.37" r="7" fill="#ff0000" fill-rule="evenodd" fill-opacity="1" stroke="#000000" stroke-opacity="1" stroke-width="0"/>
<circle clip-path="url(#clip193)" cx="1003.33" cy="1449.39" r="7" fill="#ff0000" fill-rule="evenodd" fill-opacity="1" stroke="#000000" stroke-opacity="1" stroke-width="0"/>
<circle clip-path="url(#clip193)" cx="1018.96" cy="1449.4" r="7" fill="#ff0000" fill-rule="evenodd" fill-opacity="1" stroke="#000000" stroke-opacity="1" stroke-width="0"/>
<circle clip-path="url(#clip193)" cx="1035.3" cy="1449.4" r="7" fill="#ff0000" fill-rule="evenodd" fill-opacity="1" stroke="#000000" stroke-opacity="1" stroke-width="0"/>
<circle clip-path="url(#clip193)" cx="1052.41" cy="1449.41" r="7" fill="#ff0000" fill-rule="evenodd" fill-opacity="1" stroke="#000000" stroke-opacity="1" stroke-width="0"/>
<circle clip-path="url(#clip193)" cx="1070.37" cy="1449.42" r="7" fill="#ff0000" fill-rule="evenodd" fill-opacity="1" stroke="#000000" stroke-opacity="1" stroke-width="0"/>
<circle clip-path="url(#clip193)" cx="1089.24" cy="1449.42" r="7" fill="#ff0000" fill-rule="evenodd" fill-opacity="1" stroke="#000000" stroke-opacity="1" stroke-width="0"/>
<circle clip-path="url(#clip193)" cx="1109.12" cy="1449.43" r="7" fill="#ff0000" fill-rule="evenodd" fill-opacity="1" stroke="#000000" stroke-opacity="1" stroke-width="0"/>
<circle clip-path="url(#clip193)" cx="1130.11" cy="1449.43" r="7" fill="#ff0000" fill-rule="evenodd" fill-opacity="1" stroke="#000000" stroke-opacity="1" stroke-width="0"/>
<circle clip-path="url(#clip193)" cx="1152.35" cy="1449.43" r="7" fill="#ff0000" fill-rule="evenodd" fill-opacity="1" stroke="#000000" stroke-opacity="1" stroke-width="0"/>
<circle clip-path="url(#clip193)" cx="1175.96" cy="1449.43" r="7" fill="#ff0000" fill-rule="evenodd" fill-opacity="1" stroke="#000000" stroke-opacity="1" stroke-width="0"/>
<circle clip-path="url(#clip193)" cx="1201.11" cy="1449.43" r="7" fill="#ff0000" fill-rule="evenodd" fill-opacity="1" stroke="#000000" stroke-opacity="1" stroke-width="0"/>
<circle clip-path="url(#clip193)" cx="1227.99" cy="1449.44" r="7" fill="#ff0000" fill-rule="evenodd" fill-opacity="1" stroke="#000000" stroke-opacity="1" stroke-width="0"/>
<circle clip-path="url(#clip193)" cx="1256.85" cy="1449.44" r="7" fill="#ff0000" fill-rule="evenodd" fill-opacity="1" stroke="#000000" stroke-opacity="1" stroke-width="0"/>
<circle clip-path="url(#clip193)" cx="1287.94" cy="1449.44" r="7" fill="#ff0000" fill-rule="evenodd" fill-opacity="1" stroke="#000000" stroke-opacity="1" stroke-width="0"/>
<circle clip-path="url(#clip193)" cx="1321.61" cy="1449.44" r="7" fill="#ff0000" fill-rule="evenodd" fill-opacity="1" stroke="#000000" stroke-opacity="1" stroke-width="0"/>
<circle clip-path="url(#clip193)" cx="1358.26" cy="1449.44" r="7" fill="#ff0000" fill-rule="evenodd" fill-opacity="1" stroke="#000000" stroke-opacity="1" stroke-width="0"/>
<circle clip-path="url(#clip193)" cx="1398.41" cy="1449.44" r="7" fill="#ff0000" fill-rule="evenodd" fill-opacity="1" stroke="#000000" stroke-opacity="1" stroke-width="0"/>
<circle clip-path="url(#clip193)" cx="1442.67" cy="1449.44" r="7" fill="#ff0000" fill-rule="evenodd" fill-opacity="1" stroke="#000000" stroke-opacity="1" stroke-width="0"/>
<circle clip-path="url(#clip193)" cx="1491.86" cy="1449.44" r="7" fill="#ff0000" fill-rule="evenodd" fill-opacity="1" stroke="#000000" stroke-opacity="1" stroke-width="0"/>
<circle clip-path="url(#clip193)" cx="1547.01" cy="1449.44" r="7" fill="#ff0000" fill-rule="evenodd" fill-opacity="1" stroke="#000000" stroke-opacity="1" stroke-width="0"/>
<circle clip-path="url(#clip193)" cx="1609.5" cy="1449.44" r="7" fill="#ff0000" fill-rule="evenodd" fill-opacity="1" stroke="#000000" stroke-opacity="1" stroke-width="0"/>
<circle clip-path="url(#clip193)" cx="1681.16" cy="1449.44" r="7" fill="#ff0000" fill-rule="evenodd" fill-opacity="1" stroke="#000000" stroke-opacity="1" stroke-width="0"/>
<circle clip-path="url(#clip193)" cx="1764.54" cy="1449.44" r="7" fill="#ff0000" fill-rule="evenodd" fill-opacity="1" stroke="#000000" stroke-opacity="1" stroke-width="0"/>
<circle clip-path="url(#clip193)" cx="1765.24" cy="1449.44" r="7" fill="#ff0000" fill-rule="evenodd" fill-opacity="1" stroke="#000000" stroke-opacity="1" stroke-width="0"/>
<circle clip-path="url(#clip193)" cx="385.561" cy="1038.22" r="14" fill="#008000" fill-rule="evenodd" fill-opacity="1" stroke="#000000" stroke-opacity="1" stroke-width="0"/>
<circle clip-path="url(#clip193)" cx="538.859" cy="1312.37" r="14" fill="#008000" fill-rule="evenodd" fill-opacity="1" stroke="#000000" stroke-opacity="1" stroke-width="0"/>
<circle clip-path="url(#clip193)" cx="692.157" cy="1403.75" r="14" fill="#008000" fill-rule="evenodd" fill-opacity="1" stroke="#000000" stroke-opacity="1" stroke-width="0"/>
<circle clip-path="url(#clip193)" cx="845.455" cy="1434.21" r="14" fill="#008000" fill-rule="evenodd" fill-opacity="1" stroke="#000000" stroke-opacity="1" stroke-width="0"/>
<circle clip-path="url(#clip193)" cx="998.753" cy="1444.36" r="14" fill="#008000" fill-rule="evenodd" fill-opacity="1" stroke="#000000" stroke-opacity="1" stroke-width="0"/>
<circle clip-path="url(#clip193)" cx="1152.05" cy="1447.75" r="14" fill="#008000" fill-rule="evenodd" fill-opacity="1" stroke="#000000" stroke-opacity="1" stroke-width="0"/>
<circle clip-path="url(#clip193)" cx="1305.35" cy="1448.87" r="14" fill="#008000" fill-rule="evenodd" fill-opacity="1" stroke="#000000" stroke-opacity="1" stroke-width="0"/>
<circle clip-path="url(#clip193)" cx="1458.65" cy="1449.25" r="14" fill="#008000" fill-rule="evenodd" fill-opacity="1" stroke="#000000" stroke-opacity="1" stroke-width="0"/>
<circle clip-path="url(#clip193)" cx="1611.95" cy="1449.38" r="14" fill="#008000" fill-rule="evenodd" fill-opacity="1" stroke="#000000" stroke-opacity="1" stroke-width="0"/>
<circle clip-path="url(#clip193)" cx="1765.24" cy="1449.42" r="14" fill="#008000" fill-rule="evenodd" fill-opacity="1" stroke="#000000" stroke-opacity="1" stroke-width="0"/>
<path clip-path="url(#clip190)" d="
M1883.45 377.887 L2352.76 377.887 L2352.76 222.367 L1883.45 222.367  Z
  " fill="#ffffff" fill-rule="evenodd" fill-opacity="1"/>
<polyline clip-path="url(#clip190)" style="stroke:#000000; stroke-linecap:butt; stroke-linejoin:round; stroke-width:4; stroke-opacity:1; fill:none" points="
  1883.45,377.887 2352.76,377.887 2352.76,222.367 1883.45,222.367 1883.45,377.887 
  "/>
<circle clip-path="url(#clip190)" cx="1979.74" cy="274.207" r="23" fill="#ff0000" fill-rule="evenodd" fill-opacity="1" stroke="#000000" stroke-opacity="1" stroke-width="0"/>
<path clip-path="url(#clip190)" d="M2076.03 255.469 L2080.28 255.469 L2080.28 291.487 L2076.03 291.487 L2076.03 255.469 Z" fill="#000000" fill-rule="evenodd" fill-opacity="1" /><path clip-path="url(#clip190)" d="M2089.2 265.562 L2093.46 265.562 L2093.46 291.487 L2089.2 291.487 L2089.2 265.562 M2089.2 255.469 L2093.46 255.469 L2093.46 260.863 L2089.2 260.863 L2089.2 255.469 Z" fill="#000000" fill-rule="evenodd" fill-opacity="1" /><path clip-path="url(#clip190)" d="M2120.98 278.548 Q2120.98 273.849 2119.03 271.187 Q2117.11 268.501 2113.73 268.501 Q2110.35 268.501 2108.41 271.187 Q2106.49 273.849 2106.49 278.548 Q2106.49 283.247 2108.41 285.932 Q2110.35 288.594 2113.73 288.594 Q2117.11 288.594 2119.03 285.932 Q2120.98 283.247 2120.98 278.548 M2106.49 269.497 Q2107.83 267.182 2109.87 266.071 Q2111.93 264.937 2114.77 264.937 Q2119.5 264.937 2122.44 268.687 Q2125.4 272.437 2125.4 278.548 Q2125.4 284.659 2122.44 288.409 Q2119.5 292.159 2114.77 292.159 Q2111.93 292.159 2109.87 291.048 Q2107.83 289.913 2106.49 287.598 L2106.49 291.487 L2102.21 291.487 L2102.21 255.469 L2106.49 255.469 L2106.49 269.497 Z" fill="#000000" fill-rule="evenodd" fill-opacity="1" /><path clip-path="url(#clip190)" d="M2164.06 266.325 L2164.06 270.353 Q2162.25 269.427 2160.31 268.964 Q2158.36 268.501 2156.28 268.501 Q2153.11 268.501 2151.51 269.474 Q2149.94 270.446 2149.94 272.39 Q2149.94 273.872 2151.07 274.728 Q2152.21 275.562 2155.63 276.325 L2157.09 276.649 Q2161.63 277.622 2163.52 279.404 Q2165.45 281.163 2165.45 284.335 Q2165.45 287.946 2162.58 290.052 Q2159.73 292.159 2154.73 292.159 Q2152.65 292.159 2150.38 291.742 Q2148.13 291.348 2145.63 290.538 L2145.63 286.14 Q2147.99 287.367 2150.28 287.992 Q2152.58 288.594 2154.82 288.594 Q2157.83 288.594 2159.45 287.575 Q2161.07 286.534 2161.07 284.659 Q2161.07 282.923 2159.89 281.997 Q2158.73 281.071 2154.77 280.214 L2153.29 279.867 Q2149.33 279.034 2147.58 277.321 Q2145.82 275.585 2145.82 272.575 Q2145.82 268.918 2148.41 266.927 Q2151 264.937 2155.77 264.937 Q2158.13 264.937 2160.21 265.284 Q2162.3 265.631 2164.06 266.325 Z" fill="#000000" fill-rule="evenodd" fill-opacity="1" /><path clip-path="url(#clip190)" d="M2182.27 268.548 Q2178.85 268.548 2176.86 271.233 Q2174.87 273.895 2174.87 278.548 Q2174.87 283.2 2176.83 285.886 Q2178.83 288.548 2182.27 288.548 Q2185.68 288.548 2187.67 285.862 Q2189.66 283.177 2189.66 278.548 Q2189.66 273.941 2187.67 271.256 Q2185.68 268.548 2182.27 268.548 M2182.27 264.937 Q2187.83 264.937 2191 268.548 Q2194.17 272.159 2194.17 278.548 Q2194.17 284.913 2191 288.548 Q2187.83 292.159 2182.27 292.159 Q2176.7 292.159 2173.52 288.548 Q2170.38 284.913 2170.38 278.548 Q2170.38 272.159 2173.52 268.548 Q2176.7 264.937 2182.27 264.937 Z" fill="#000000" fill-rule="evenodd" fill-opacity="1" /><path clip-path="url(#clip190)" d="M2201.23 255.469 L2205.49 255.469 L2205.49 291.487 L2201.23 291.487 L2201.23 255.469 Z" fill="#000000" fill-rule="evenodd" fill-opacity="1" /><path clip-path="url(#clip190)" d="M2211.35 265.562 L2215.86 265.562 L2223.96 287.321 L2232.07 265.562 L2236.58 265.562 L2226.86 291.487 L2221.07 291.487 L2211.35 265.562 Z" fill="#000000" fill-rule="evenodd" fill-opacity="1" /><path clip-path="url(#clip190)" d="M2264.64 277.46 L2264.64 279.543 L2245.05 279.543 Q2245.33 283.941 2247.69 286.256 Q2250.08 288.548 2254.31 288.548 Q2256.76 288.548 2259.06 287.946 Q2261.37 287.344 2263.64 286.14 L2263.64 290.168 Q2261.35 291.14 2258.94 291.649 Q2256.53 292.159 2254.06 292.159 Q2247.85 292.159 2244.22 288.548 Q2240.61 284.936 2240.61 278.779 Q2240.61 272.413 2244.03 268.687 Q2247.48 264.937 2253.32 264.937 Q2258.55 264.937 2261.58 268.316 Q2264.64 271.673 2264.64 277.46 M2260.38 276.21 Q2260.33 272.714 2258.41 270.631 Q2256.51 268.548 2253.36 268.548 Q2249.8 268.548 2247.64 270.562 Q2245.51 272.575 2245.19 276.233 L2260.38 276.21 Z" fill="#000000" fill-rule="evenodd" fill-opacity="1" /><path clip-path="url(#clip190)" d="M2286.65 269.543 Q2285.93 269.126 2285.07 268.941 Q2284.24 268.733 2283.22 268.733 Q2279.61 268.733 2277.67 271.094 Q2275.75 273.432 2275.75 277.83 L2275.75 291.487 L2271.46 291.487 L2271.46 265.562 L2275.75 265.562 L2275.75 269.589 Q2277.09 267.228 2279.24 266.094 Q2281.39 264.937 2284.47 264.937 Q2284.91 264.937 2285.45 265.006 Q2285.98 265.052 2286.63 265.168 L2286.65 269.543 Z" fill="#000000" fill-rule="evenodd" fill-opacity="1" /><circle clip-path="url(#clip190)" cx="1979.74" cy="326.047" r="23" fill="#008000" fill-rule="evenodd" fill-opacity="1" stroke="#000000" stroke-opacity="1" stroke-width="0"/>
<path clip-path="url(#clip190)" d="M2096.37 322.378 Q2097.97 319.508 2100.19 318.142 Q2102.41 316.777 2105.42 316.777 Q2109.47 316.777 2111.67 319.624 Q2113.87 322.448 2113.87 327.679 L2113.87 343.327 L2109.59 343.327 L2109.59 327.818 Q2109.59 324.091 2108.27 322.286 Q2106.95 320.48 2104.24 320.48 Q2100.93 320.48 2099.01 322.679 Q2097.09 324.878 2097.09 328.675 L2097.09 343.327 L2092.81 343.327 L2092.81 327.818 Q2092.81 324.068 2091.49 322.286 Q2090.17 320.48 2087.41 320.48 Q2084.15 320.48 2082.23 322.702 Q2080.31 324.902 2080.31 328.675 L2080.31 343.327 L2076.03 343.327 L2076.03 317.402 L2080.31 317.402 L2080.31 321.429 Q2081.77 319.045 2083.8 317.911 Q2085.84 316.777 2088.64 316.777 Q2091.46 316.777 2093.43 318.212 Q2095.42 319.647 2096.37 322.378 Z" fill="#000000" fill-rule="evenodd" fill-opacity="1" /><path clip-path="url(#clip190)" d="M2133.15 345.735 Q2131.35 350.364 2129.64 351.776 Q2127.92 353.188 2125.05 353.188 L2121.65 353.188 L2121.65 349.624 L2124.15 349.624 Q2125.91 349.624 2126.88 348.79 Q2127.85 347.957 2129.03 344.855 L2129.8 342.911 L2119.31 317.402 L2123.83 317.402 L2131.93 337.679 L2140.03 317.402 L2144.54 317.402 L2133.15 345.735 Z" fill="#000000" fill-rule="evenodd" fill-opacity="1" /><path clip-path="url(#clip190)" d="M2182.02 318.165 L2182.02 322.193 Q2180.21 321.267 2178.27 320.804 Q2176.33 320.341 2174.24 320.341 Q2171.07 320.341 2169.47 321.314 Q2167.9 322.286 2167.9 324.23 Q2167.9 325.712 2169.03 326.568 Q2170.17 327.402 2173.59 328.165 L2175.05 328.489 Q2179.59 329.462 2181.49 331.244 Q2183.41 333.003 2183.41 336.175 Q2183.41 339.786 2180.54 341.892 Q2177.69 343.999 2172.69 343.999 Q2170.61 343.999 2168.34 343.582 Q2166.09 343.188 2163.59 342.378 L2163.59 337.98 Q2165.96 339.207 2168.25 339.832 Q2170.54 340.434 2172.78 340.434 Q2175.79 340.434 2177.41 339.415 Q2179.03 338.374 2179.03 336.499 Q2179.03 334.763 2177.85 333.837 Q2176.7 332.911 2172.74 332.054 L2171.26 331.707 Q2167.3 330.874 2165.54 329.161 Q2163.78 327.425 2163.78 324.415 Q2163.78 320.758 2166.37 318.767 Q2168.96 316.777 2173.73 316.777 Q2176.09 316.777 2178.18 317.124 Q2180.26 317.471 2182.02 318.165 Z" fill="#000000" fill-rule="evenodd" fill-opacity="1" /><path clip-path="url(#clip190)" d="M2200.24 320.388 Q2196.81 320.388 2194.82 323.073 Q2192.83 325.735 2192.83 330.388 Q2192.83 335.04 2194.8 337.726 Q2196.79 340.388 2200.24 340.388 Q2203.64 340.388 2205.63 337.702 Q2207.62 335.017 2207.62 330.388 Q2207.62 325.781 2205.63 323.096 Q2203.64 320.388 2200.24 320.388 M2200.24 316.777 Q2205.79 316.777 2208.96 320.388 Q2212.14 323.999 2212.14 330.388 Q2212.14 336.753 2208.96 340.388 Q2205.79 343.999 2200.24 343.999 Q2194.66 343.999 2191.49 340.388 Q2188.34 336.753 2188.34 330.388 Q2188.34 323.999 2191.49 320.388 Q2194.66 316.777 2200.24 316.777 Z" fill="#000000" fill-rule="evenodd" fill-opacity="1" /><path clip-path="url(#clip190)" d="M2219.2 307.309 L2223.45 307.309 L2223.45 343.327 L2219.2 343.327 L2219.2 307.309 Z" fill="#000000" fill-rule="evenodd" fill-opacity="1" /><path clip-path="url(#clip190)" d="M2229.31 317.402 L2233.83 317.402 L2241.93 339.161 L2250.03 317.402 L2254.54 317.402 L2244.82 343.327 L2239.03 343.327 L2229.31 317.402 Z" fill="#000000" fill-rule="evenodd" fill-opacity="1" /><path clip-path="url(#clip190)" d="M2282.6 329.3 L2282.6 331.383 L2263.01 331.383 Q2263.29 335.781 2265.65 338.096 Q2268.04 340.388 2272.27 340.388 Q2274.73 340.388 2277.02 339.786 Q2279.33 339.184 2281.6 337.98 L2281.6 342.008 Q2279.31 342.98 2276.9 343.489 Q2274.5 343.999 2272.02 343.999 Q2265.82 343.999 2262.18 340.388 Q2258.57 336.776 2258.57 330.619 Q2258.57 324.253 2262 320.527 Q2265.45 316.777 2271.28 316.777 Q2276.51 316.777 2279.54 320.156 Q2282.6 323.513 2282.6 329.3 M2278.34 328.05 Q2278.29 324.554 2276.37 322.471 Q2274.47 320.388 2271.33 320.388 Q2267.76 320.388 2265.61 322.402 Q2263.48 324.415 2263.15 328.073 L2278.34 328.05 Z" fill="#000000" fill-rule="evenodd" fill-opacity="1" /><path clip-path="url(#clip190)" d="M2304.61 321.383 Q2303.89 320.966 2303.04 320.781 Q2302.2 320.573 2301.19 320.573 Q2297.57 320.573 2295.63 322.934 Q2293.71 325.272 2293.71 329.67 L2293.71 343.327 L2289.43 343.327 L2289.43 317.402 L2293.71 317.402 L2293.71 321.429 Q2295.05 319.068 2297.2 317.934 Q2299.36 316.777 2302.44 316.777 Q2302.88 316.777 2303.41 316.846 Q2303.94 316.892 2304.59 317.008 L2304.61 321.383 Z" fill="#000000" fill-rule="evenodd" fill-opacity="1" /></svg>
