<?xml version="1.0" encoding="utf-8"?>
<svg xmlns="http://www.w3.org/2000/svg" xmlns:xlink="http://www.w3.org/1999/xlink" width="600" height="400" viewBox="0 0 2400 1600">
<defs>
  <clipPath id="clip790">
    <rect x="0" y="0" width="2400" height="1600"/>
  </clipPath>
</defs>
<path clip-path="url(#clip790)" d="
M0 1600 L2400 1600 L2400 0 L0 0  Z
  " fill="#ffffff" fill-rule="evenodd" fill-opacity="1"/>
<defs>
  <clipPath id="clip791">
    <rect x="480" y="0" width="1681" height="1600"/>
  </clipPath>
</defs>
<path clip-path="url(#clip790)" d="
M169.121 1486.45 L1870.07 1486.45 L1870.07 123.472 L169.121 123.472  Z
  " fill="#ffffff" fill-rule="evenodd" fill-opacity="1"/>
<defs>
  <clipPath id="clip792">
    <rect x="169" y="123" width="1702" height="1364"/>
  </clipPath>
</defs>
<polyline clip-path="url(#clip792)" style="stroke:#000000; stroke-linecap:butt; stroke-linejoin:round; stroke-width:2; stroke-opacity:0.1; fill:none" points="
  402.416,1486.45 402.416,123.472 
  "/>
<polyline clip-path="url(#clip792)" style="stroke:#000000; stroke-linecap:butt; stroke-linejoin:round; stroke-width:2; stroke-opacity:0.1; fill:none" points="
  711.007,1486.45 711.007,123.472 
  "/>
<polyline clip-path="url(#clip792)" style="stroke:#000000; stroke-linecap:butt; stroke-linejoin:round; stroke-width:2; stroke-opacity:0.1; fill:none" points="
  1019.6,1486.45 1019.6,123.472 
  "/>
<polyline clip-path="url(#clip792)" style="stroke:#000000; stroke-linecap:butt; stroke-linejoin:round; stroke-width:2; stroke-opacity:0.1; fill:none" points="
  1328.19,1486.45 1328.19,123.472 
  "/>
<polyline clip-path="url(#clip792)" style="stroke:#000000; stroke-linecap:butt; stroke-linejoin:round; stroke-width:2; stroke-opacity:0.1; fill:none" points="
  1636.78,1486.45 1636.78,123.472 
  "/>
<polyline clip-path="url(#clip790)" style="stroke:#000000; stroke-linecap:butt; stroke-linejoin:round; stroke-width:4; stroke-opacity:1; fill:none" points="
  169.121,1486.45 1870.07,1486.45 
  "/>
<polyline clip-path="url(#clip790)" style="stroke:#000000; stroke-linecap:butt; stroke-linejoin:round; stroke-width:4; stroke-opacity:1; fill:none" points="
  402.416,1486.45 402.416,1467.55 
  "/>
<polyline clip-path="url(#clip790)" style="stroke:#000000; stroke-linecap:butt; stroke-linejoin:round; stroke-width:4; stroke-opacity:1; fill:none" points="
  711.007,1486.45 711.007,1467.55 
  "/>
<polyline clip-path="url(#clip790)" style="stroke:#000000; stroke-linecap:butt; stroke-linejoin:round; stroke-width:4; stroke-opacity:1; fill:none" points="
  1019.6,1486.45 1019.6,1467.55 
  "/>
<polyline clip-path="url(#clip790)" style="stroke:#000000; stroke-linecap:butt; stroke-linejoin:round; stroke-width:4; stroke-opacity:1; fill:none" points="
  1328.19,1486.45 1328.19,1467.55 
  "/>
<polyline clip-path="url(#clip790)" style="stroke:#000000; stroke-linecap:butt; stroke-linejoin:round; stroke-width:4; stroke-opacity:1; fill:none" points="
  1636.78,1486.45 1636.78,1467.55 
  "/>
<path clip-path="url(#clip790)" d="M371.317 1532.02 L400.992 1532.02 L400.992 1535.95 L371.317 1535.95 L371.317 1532.02 Z" fill="#000000" fill-rule="evenodd" fill-opacity="1" /><path clip-path="url(#clip790)" d="M423.932 1518.36 L412.127 1536.81 L423.932 1536.81 L423.932 1518.36 M422.705 1514.29 L428.585 1514.29 L428.585 1536.81 L433.515 1536.81 L433.515 1540.7 L428.585 1540.7 L428.585 1548.85 L423.932 1548.85 L423.932 1540.7 L408.33 1540.7 L408.33 1536.19 L422.705 1514.29 Z" fill="#000000" fill-rule="evenodd" fill-opacity="1" /><path clip-path="url(#clip790)" d="M680.949 1532.02 L710.625 1532.02 L710.625 1535.95 L680.949 1535.95 L680.949 1532.02 Z" fill="#000000" fill-rule="evenodd" fill-opacity="1" /><path clip-path="url(#clip790)" d="M724.745 1544.91 L741.065 1544.91 L741.065 1548.85 L719.12 1548.85 L719.12 1544.91 Q721.782 1542.16 726.366 1537.53 Q730.972 1532.88 732.153 1531.53 Q734.398 1529.01 735.278 1527.27 Q736.18 1525.51 736.18 1523.82 Q736.18 1521.07 734.236 1519.33 Q732.315 1517.6 729.213 1517.6 Q727.014 1517.6 724.56 1518.36 Q722.13 1519.13 719.352 1520.68 L719.352 1515.95 Q722.176 1514.82 724.63 1514.24 Q727.083 1513.66 729.12 1513.66 Q734.491 1513.66 737.685 1516.35 Q740.879 1519.03 740.879 1523.52 Q740.879 1525.65 740.069 1527.57 Q739.282 1529.47 737.176 1532.07 Q736.597 1532.74 733.495 1535.95 Q730.393 1539.15 724.745 1544.91 Z" fill="#000000" fill-rule="evenodd" fill-opacity="1" /><path clip-path="url(#clip790)" d="M1019.6 1517.37 Q1015.99 1517.37 1014.16 1520.93 Q1012.35 1524.47 1012.35 1531.6 Q1012.35 1538.71 1014.16 1542.27 Q1015.99 1545.82 1019.6 1545.82 Q1023.23 1545.82 1025.04 1542.27 Q1026.87 1538.71 1026.87 1531.6 Q1026.87 1524.47 1025.04 1520.93 Q1023.23 1517.37 1019.6 1517.37 M1019.6 1513.66 Q1025.41 1513.66 1028.46 1518.27 Q1031.54 1522.85 1031.54 1531.6 Q1031.54 1540.33 1028.46 1544.94 Q1025.41 1549.52 1019.6 1549.52 Q1013.79 1549.52 1010.71 1544.94 Q1007.65 1540.33 1007.65 1531.6 Q1007.65 1522.85 1010.71 1518.27 Q1013.79 1513.66 1019.6 1513.66 Z" fill="#000000" fill-rule="evenodd" fill-opacity="1" /><path clip-path="url(#clip790)" d="M1322.84 1544.91 L1339.16 1544.91 L1339.16 1548.85 L1317.22 1548.85 L1317.22 1544.91 Q1319.88 1542.16 1324.46 1537.53 Q1329.07 1532.88 1330.25 1531.53 Q1332.49 1529.01 1333.37 1527.27 Q1334.28 1525.51 1334.28 1523.82 Q1334.28 1521.07 1332.33 1519.33 Q1330.41 1517.6 1327.31 1517.6 Q1325.11 1517.6 1322.66 1518.36 Q1320.23 1519.13 1317.45 1520.68 L1317.45 1515.95 Q1320.27 1514.82 1322.73 1514.24 Q1325.18 1513.66 1327.22 1513.66 Q1332.59 1513.66 1335.78 1516.35 Q1338.98 1519.03 1338.98 1523.52 Q1338.98 1525.65 1338.17 1527.57 Q1337.38 1529.47 1335.27 1532.07 Q1334.69 1532.74 1331.59 1535.95 Q1328.49 1539.15 1322.84 1544.91 Z" fill="#000000" fill-rule="evenodd" fill-opacity="1" /><path clip-path="url(#clip790)" d="M1639.79 1518.36 L1627.98 1536.81 L1639.79 1536.81 L1639.79 1518.36 M1638.56 1514.29 L1644.44 1514.29 L1644.44 1536.81 L1649.37 1536.81 L1649.37 1540.7 L1644.44 1540.7 L1644.44 1548.85 L1639.79 1548.85 L1639.79 1540.7 L1624.19 1540.7 L1624.19 1536.19 L1638.56 1514.29 Z" fill="#000000" fill-rule="evenodd" fill-opacity="1" /><polyline clip-path="url(#clip792)" style="stroke:#000000; stroke-linecap:butt; stroke-linejoin:round; stroke-width:2; stroke-opacity:0.1; fill:none" points="
  169.121,1437.53 1870.07,1437.53 
  "/>
<polyline clip-path="url(#clip792)" style="stroke:#000000; stroke-linecap:butt; stroke-linejoin:round; stroke-width:2; stroke-opacity:0.1; fill:none" points="
  169.121,1085.71 1870.07,1085.71 
  "/>
<polyline clip-path="url(#clip792)" style="stroke:#000000; stroke-linecap:butt; stroke-linejoin:round; stroke-width:2; stroke-opacity:0.1; fill:none" points="
  169.121,733.901 1870.07,733.901 
  "/>
<polyline clip-path="url(#clip792)" style="stroke:#000000; stroke-linecap:butt; stroke-linejoin:round; stroke-width:2; stroke-opacity:0.1; fill:none" points="
  169.121,382.087 1870.07,382.087 
  "/>
<polyline clip-path="url(#clip790)" style="stroke:#000000; stroke-linecap:butt; stroke-linejoin:round; stroke-width:4; stroke-opacity:1; fill:none" points="
  169.121,1486.45 169.121,123.472 
  "/>
<polyline clip-path="url(#clip790)" style="stroke:#000000; stroke-linecap:butt; stroke-linejoin:round; stroke-width:4; stroke-opacity:1; fill:none" points="
  169.121,1437.53 183.842,1437.53 
  "/>
<polyline clip-path="url(#clip790)" style="stroke:#000000; stroke-linecap:butt; stroke-linejoin:round; stroke-width:4; stroke-opacity:1; fill:none" points="
  169.121,1085.71 183.842,1085.71 
  "/>
<polyline clip-path="url(#clip790)" style="stroke:#000000; stroke-linecap:butt; stroke-linejoin:round; stroke-width:4; stroke-opacity:1; fill:none" points="
  169.121,733.901 183.842,733.901 
  "/>
<polyline clip-path="url(#clip790)" style="stroke:#000000; stroke-linecap:butt; stroke-linejoin:round; stroke-width:4; stroke-opacity:1; fill:none" points="
  169.121,382.087 183.842,382.087 
  "/>
<path clip-path="url(#clip790)" d="M121.177 1423.33 Q117.566 1423.33 115.737 1426.89 Q113.932 1430.43 113.932 1437.56 Q113.932 1444.67 115.737 1448.23 Q117.566 1451.78 121.177 1451.78 Q124.811 1451.78 126.617 1448.23 Q128.445 1444.67 128.445 1437.56 Q128.445 1430.43 126.617 1426.89 Q124.811 1423.33 121.177 1423.33 M121.177 1419.62 Q126.987 1419.62 130.043 1424.23 Q133.121 1428.81 133.121 1437.56 Q133.121 1446.29 130.043 1450.9 Q126.987 1455.48 121.177 1455.48 Q115.367 1455.48 112.288 1450.9 Q109.233 1446.29 109.233 1437.56 Q109.233 1428.81 112.288 1424.23 Q115.367 1419.62 121.177 1419.62 Z" fill="#000000" fill-rule="evenodd" fill-opacity="1" /><path clip-path="url(#clip790)" d="M81.0614 1068.43 L99.4178 1068.43 L99.4178 1072.37 L85.3438 1072.37 L85.3438 1080.84 Q86.3623 1080.49 87.3808 1080.33 Q88.3993 1080.15 89.4178 1080.15 Q95.2049 1080.15 98.5845 1083.32 Q101.964 1086.49 101.964 1091.91 Q101.964 1097.49 98.4919 1100.59 Q95.0197 1103.67 88.7003 1103.67 Q86.5243 1103.67 84.2558 1103.3 Q82.0105 1102.93 79.6031 1102.18 L79.6031 1097.49 Q81.6864 1098.62 83.9086 1099.18 Q86.1308 1099.73 88.6077 1099.73 Q92.6123 1099.73 94.9502 1097.62 Q97.2882 1095.52 97.2882 1091.91 Q97.2882 1088.3 94.9502 1086.19 Q92.6123 1084.08 88.6077 1084.08 Q86.7327 1084.08 84.8577 1084.5 Q83.0058 1084.92 81.0614 1085.8 L81.0614 1068.43 Z" fill="#000000" fill-rule="evenodd" fill-opacity="1" /><path clip-path="url(#clip790)" d="M121.177 1071.51 Q117.566 1071.51 115.737 1075.08 Q113.932 1078.62 113.932 1085.75 Q113.932 1092.86 115.737 1096.42 Q117.566 1099.96 121.177 1099.96 Q124.811 1099.96 126.617 1096.42 Q128.445 1092.86 128.445 1085.75 Q128.445 1078.62 126.617 1075.08 Q124.811 1071.51 121.177 1071.51 M121.177 1067.81 Q126.987 1067.81 130.043 1072.42 Q133.121 1077 133.121 1085.75 Q133.121 1094.48 130.043 1099.08 Q126.987 1103.67 121.177 1103.67 Q115.367 1103.67 112.288 1099.08 Q109.233 1094.48 109.233 1085.75 Q109.233 1077 112.288 1072.42 Q115.367 1067.81 121.177 1067.81 Z" fill="#000000" fill-rule="evenodd" fill-opacity="1" /><path clip-path="url(#clip790)" d="M51.6634 747.246 L59.3023 747.246 L59.3023 720.88 L50.9921 722.547 L50.9921 718.288 L59.256 716.621 L63.9319 716.621 L63.9319 747.246 L71.5707 747.246 L71.5707 751.181 L51.6634 751.181 L51.6634 747.246 Z" fill="#000000" fill-rule="evenodd" fill-opacity="1" /><path clip-path="url(#clip790)" d="M91.0151 719.7 Q87.404 719.7 85.5753 723.264 Q83.7697 726.806 83.7697 733.936 Q83.7697 741.042 85.5753 744.607 Q87.404 748.149 91.0151 748.149 Q94.6493 748.149 96.4548 744.607 Q98.2835 741.042 98.2835 733.936 Q98.2835 726.806 96.4548 723.264 Q94.6493 719.7 91.0151 719.7 M91.0151 715.996 Q96.8252 715.996 99.8808 720.602 Q102.959 725.186 102.959 733.936 Q102.959 742.663 99.8808 747.269 Q96.8252 751.852 91.0151 751.852 Q85.2049 751.852 82.1262 747.269 Q79.0707 742.663 79.0707 733.936 Q79.0707 725.186 82.1262 720.602 Q85.2049 715.996 91.0151 715.996 Z" fill="#000000" fill-rule="evenodd" fill-opacity="1" /><path clip-path="url(#clip790)" d="M121.177 719.7 Q117.566 719.7 115.737 723.264 Q113.932 726.806 113.932 733.936 Q113.932 741.042 115.737 744.607 Q117.566 748.149 121.177 748.149 Q124.811 748.149 126.617 744.607 Q128.445 741.042 128.445 733.936 Q128.445 726.806 126.617 723.264 Q124.811 719.7 121.177 719.7 M121.177 715.996 Q126.987 715.996 130.043 720.602 Q133.121 725.186 133.121 733.936 Q133.121 742.663 130.043 747.269 Q126.987 751.852 121.177 751.852 Q115.367 751.852 112.288 747.269 Q109.233 742.663 109.233 733.936 Q109.233 725.186 112.288 720.602 Q115.367 715.996 121.177 715.996 Z" fill="#000000" fill-rule="evenodd" fill-opacity="1" /><path clip-path="url(#clip790)" d="M51.6634 395.432 L59.3023 395.432 L59.3023 369.066 L50.9921 370.733 L50.9921 366.474 L59.256 364.807 L63.9319 364.807 L63.9319 395.432 L71.5707 395.432 L71.5707 399.367 L51.6634 399.367 L51.6634 395.432 Z" fill="#000000" fill-rule="evenodd" fill-opacity="1" /><path clip-path="url(#clip790)" d="M81.0614 364.807 L99.4178 364.807 L99.4178 368.742 L85.3438 368.742 L85.3438 377.214 Q86.3623 376.867 87.3808 376.705 Q88.3993 376.52 89.4178 376.52 Q95.2049 376.52 98.5845 379.691 Q101.964 382.863 101.964 388.279 Q101.964 393.858 98.4919 396.96 Q95.0197 400.038 88.7003 400.038 Q86.5243 400.038 84.2558 399.668 Q82.0105 399.298 79.6031 398.557 L79.6031 393.858 Q81.6864 394.992 83.9086 395.548 Q86.1308 396.103 88.6077 396.103 Q92.6123 396.103 94.9502 393.997 Q97.2882 391.89 97.2882 388.279 Q97.2882 384.668 94.9502 382.562 Q92.6123 380.455 88.6077 380.455 Q86.7327 380.455 84.8577 380.872 Q83.0058 381.288 81.0614 382.168 L81.0614 364.807 Z" fill="#000000" fill-rule="evenodd" fill-opacity="1" /><path clip-path="url(#clip790)" d="M121.177 367.886 Q117.566 367.886 115.737 371.451 Q113.932 374.992 113.932 382.122 Q113.932 389.228 115.737 392.793 Q117.566 396.335 121.177 396.335 Q124.811 396.335 126.617 392.793 Q128.445 389.228 128.445 382.122 Q128.445 374.992 126.617 371.451 Q124.811 367.886 121.177 367.886 M121.177 364.182 Q126.987 364.182 130.043 368.789 Q133.121 373.372 133.121 382.122 Q133.121 390.849 130.043 395.455 Q126.987 400.038 121.177 400.038 Q115.367 400.038 112.288 395.455 Q109.233 390.849 109.233 382.122 Q109.233 373.372 112.288 368.789 Q115.367 364.182 121.177 364.182 Z" fill="#000000" fill-rule="evenodd" fill-opacity="1" /><path clip-path="url(#clip790)" d="M321.202 18.8205 L321.202 41.5461 L331.491 41.5461 Q337.203 41.5461 340.322 38.5889 Q343.441 35.6318 343.441 30.163 Q343.441 24.7348 340.322 21.7777 Q337.203 18.8205 331.491 18.8205 L321.202 18.8205 M313.019 12.096 L331.491 12.096 Q341.659 12.096 346.844 16.714 Q352.07 21.2916 352.07 30.163 Q352.07 39.1155 346.844 43.6931 Q341.659 48.2706 331.491 48.2706 L321.202 48.2706 L321.202 72.576 L313.019 72.576 L313.019 12.096 Z" fill="#000000" fill-rule="evenodd" fill-opacity="1" /><path clip-path="url(#clip790)" d="M387.556 34.1734 Q386.3 33.4443 384.801 33.1202 Q383.343 32.7556 381.56 32.7556 Q375.241 32.7556 371.838 36.8875 Q368.476 40.9789 368.476 48.6757 L368.476 72.576 L360.982 72.576 L360.982 27.2059 L368.476 27.2059 L368.476 34.2544 Q370.825 30.1225 374.593 28.1376 Q378.36 26.1121 383.748 26.1121 Q384.517 26.1121 385.449 26.2337 Q386.381 26.3147 387.515 26.5172 L387.556 34.1734 Z" fill="#000000" fill-rule="evenodd" fill-opacity="1" /><path clip-path="url(#clip790)" d="M411.132 32.4315 Q405.136 32.4315 401.653 37.1306 Q398.169 41.7891 398.169 49.9314 Q398.169 58.0738 401.612 62.7728 Q405.096 67.4314 411.132 67.4314 Q417.087 67.4314 420.57 62.7323 Q424.054 58.0333 424.054 49.9314 Q424.054 41.8701 420.57 37.1711 Q417.087 32.4315 411.132 32.4315 M411.132 26.1121 Q420.854 26.1121 426.404 32.4315 Q431.953 38.7509 431.953 49.9314 Q431.953 61.0714 426.404 67.4314 Q420.854 73.7508 411.132 73.7508 Q401.369 73.7508 395.819 67.4314 Q390.31 61.0714 390.31 49.9314 Q390.31 38.7509 395.819 32.4315 Q401.369 26.1121 411.132 26.1121 Z" fill="#000000" fill-rule="evenodd" fill-opacity="1" /><path clip-path="url(#clip790)" d="M476.878 49.9314 Q476.878 41.7081 473.475 37.0496 Q470.113 32.3505 464.199 32.3505 Q458.284 32.3505 454.882 37.0496 Q451.519 41.7081 451.519 49.9314 Q451.519 58.1548 454.882 62.8538 Q458.284 67.5124 464.199 67.5124 Q470.113 67.5124 473.475 62.8538 Q476.878 58.1548 476.878 49.9314 M451.519 34.0924 Q453.869 30.0415 457.434 28.0971 Q461.039 26.1121 466.022 26.1121 Q474.285 26.1121 479.43 32.6746 Q484.615 39.2371 484.615 49.9314 Q484.615 60.6258 479.43 67.1883 Q474.285 73.7508 466.022 73.7508 Q461.039 73.7508 457.434 71.8063 Q453.869 69.8214 451.519 65.7705 L451.519 72.576 L444.025 72.576 L444.025 9.54393 L451.519 9.54393 L451.519 34.0924 Z" fill="#000000" fill-rule="evenodd" fill-opacity="1" /><path clip-path="url(#clip790)" d="M496.97 9.54393 L504.424 9.54393 L504.424 72.576 L496.97 72.576 L496.97 9.54393 Z" fill="#000000" fill-rule="evenodd" fill-opacity="1" /><path clip-path="url(#clip790)" d="M558.828 48.0275 L558.828 51.6733 L524.557 51.6733 Q525.043 59.3701 529.175 63.421 Q533.348 67.4314 540.761 67.4314 Q545.055 67.4314 549.065 66.3781 Q553.116 65.3249 557.086 63.2184 L557.086 70.267 Q553.075 71.9684 548.863 72.8596 Q544.65 73.7508 540.315 73.7508 Q529.459 73.7508 523.099 67.4314 Q516.779 61.1119 516.779 50.3365 Q516.779 39.1965 522.775 32.6746 Q528.811 26.1121 539.019 26.1121 Q548.174 26.1121 553.481 32.0264 Q558.828 37.9003 558.828 48.0275 M551.374 45.84 Q551.293 39.7232 547.931 36.0774 Q544.609 32.4315 539.1 32.4315 Q532.861 32.4315 529.094 35.9558 Q525.367 39.4801 524.8 45.8805 L551.374 45.84 Z" fill="#000000" fill-rule="evenodd" fill-opacity="1" /><path clip-path="url(#clip790)" d="M606.385 35.9153 Q609.18 30.8922 613.069 28.5022 Q616.958 26.1121 622.224 26.1121 Q629.313 26.1121 633.162 31.0947 Q637.01 36.0368 637.01 45.1919 L637.01 72.576 L629.516 72.576 L629.516 45.4349 Q629.516 38.913 627.207 35.7533 Q624.898 32.5936 620.158 32.5936 Q614.366 32.5936 611.003 36.4419 Q607.641 40.2903 607.641 46.9338 L607.641 72.576 L600.147 72.576 L600.147 45.4349 Q600.147 38.8725 597.838 35.7533 Q595.529 32.5936 590.708 32.5936 Q584.997 32.5936 581.634 36.4824 Q578.272 40.3308 578.272 46.9338 L578.272 72.576 L570.778 72.576 L570.778 27.2059 L578.272 27.2059 L578.272 34.2544 Q580.824 30.082 584.389 28.0971 Q587.954 26.1121 592.855 26.1121 Q597.797 26.1121 601.241 28.6237 Q604.725 31.1352 606.385 35.9153 Z" fill="#000000" fill-rule="evenodd" fill-opacity="1" /><path clip-path="url(#clip790)" d="M686.35 65.6895 L714.909 65.6895 L714.909 72.576 L676.507 72.576 L676.507 65.6895 Q681.165 60.8689 689.186 52.7671 Q697.247 44.6248 699.313 42.2752 Q703.242 37.8598 704.782 34.8216 Q706.362 31.7429 706.362 28.7857 Q706.362 23.9651 702.959 20.927 Q699.597 17.8888 694.168 17.8888 Q690.32 17.8888 686.026 19.2256 Q681.773 20.5624 676.912 23.2765 L676.912 15.0127 Q681.854 13.0277 686.148 12.015 Q690.442 11.0023 694.006 11.0023 Q703.405 11.0023 708.995 15.7013 Q714.585 20.4004 714.585 28.2591 Q714.585 31.9859 713.167 35.3482 Q711.79 38.6699 708.104 43.2069 Q707.091 44.3817 701.663 50.0125 Q696.234 55.6027 686.35 65.6895 Z" fill="#000000" fill-rule="evenodd" fill-opacity="1" /><path clip-path="url(#clip790)" d="M732.085 62.2867 L740.632 62.2867 L740.632 72.576 L732.085 72.576 L732.085 62.2867 Z" fill="#000000" fill-rule="evenodd" fill-opacity="1" /><path clip-path="url(#clip790)" d="M765.505 65.6895 L794.064 65.6895 L794.064 72.576 L755.661 72.576 L755.661 65.6895 Q760.32 60.8689 768.341 52.7671 Q776.402 44.6248 778.468 42.2752 Q782.397 37.8598 783.937 34.8216 Q785.516 31.7429 785.516 28.7857 Q785.516 23.9651 782.114 20.927 Q778.751 17.8888 773.323 17.8888 Q769.475 17.8888 765.181 19.2256 Q760.927 20.5624 756.066 23.2765 L756.066 15.0127 Q761.008 13.0277 765.302 12.015 Q769.596 11.0023 773.161 11.0023 Q782.559 11.0023 788.149 15.7013 Q793.74 20.4004 793.74 28.2591 Q793.74 31.9859 792.322 35.3482 Q790.945 38.6699 787.258 43.2069 Q786.246 44.3817 780.817 50.0125 Q775.389 55.6027 765.505 65.6895 Z" fill="#000000" fill-rule="evenodd" fill-opacity="1" /><path clip-path="url(#clip790)" d="M864.063 12.096 L896.187 12.096 L896.187 18.9825 L871.558 18.9825 L871.558 33.8088 Q873.34 33.2012 875.122 32.9176 Q876.905 32.5936 878.687 32.5936 Q888.814 32.5936 894.729 38.1433 Q900.643 43.6931 900.643 53.1722 Q900.643 62.9348 894.567 68.3631 Q888.49 73.7508 877.431 73.7508 Q873.624 73.7508 869.654 73.1026 Q865.724 72.4545 861.511 71.1582 L861.511 62.9348 Q865.157 64.9198 869.046 65.892 Q872.935 66.8642 877.269 66.8642 Q884.277 66.8642 888.369 63.1779 Q892.46 59.4916 892.46 53.1722 Q892.46 46.8528 888.369 43.1664 Q884.277 39.4801 877.269 39.4801 Q873.988 39.4801 870.707 40.2093 Q867.466 40.9384 864.063 42.4778 L864.063 12.096 Z" fill="#000000" fill-rule="evenodd" fill-opacity="1" /><path clip-path="url(#clip790)" d="M911.945 46.5287 L933.779 46.5287 L933.779 53.1722 L911.945 53.1722 L911.945 46.5287 Z" fill="#000000" fill-rule="evenodd" fill-opacity="1" /><path clip-path="url(#clip790)" d="M972.83 17.6457 Q963.918 17.6457 958.652 24.2892 Q953.426 30.9327 953.426 42.3968 Q953.426 53.8203 958.652 60.4638 Q963.918 67.1073 972.83 67.1073 Q981.742 67.1073 986.927 60.4638 Q992.153 53.8203 992.153 42.3968 Q992.153 30.9327 986.927 24.2892 Q981.742 17.6457 972.83 17.6457 M972.83 11.0023 Q985.55 11.0023 993.166 19.5497 Q1000.78 28.0566 1000.78 42.3968 Q1000.78 56.6965 993.166 65.2439 Q985.55 73.7508 972.83 73.7508 Q960.07 73.7508 952.414 65.2439 Q944.798 56.737 944.798 42.3968 Q944.798 28.0566 952.414 19.5497 Q960.07 11.0023 972.83 11.0023 Z" fill="#000000" fill-rule="evenodd" fill-opacity="1" /><path clip-path="url(#clip790)" d="M1039.55 34.1734 Q1038.29 33.4443 1036.79 33.1202 Q1035.34 32.7556 1033.55 32.7556 Q1027.23 32.7556 1023.83 36.8875 Q1020.47 40.9789 1020.47 48.6757 L1020.47 72.576 L1012.97 72.576 L1012.97 27.2059 L1020.47 27.2059 L1020.47 34.2544 Q1022.82 30.1225 1026.59 28.1376 Q1030.35 26.1121 1035.74 26.1121 Q1036.51 26.1121 1037.44 26.2337 Q1038.37 26.3147 1039.51 26.5172 L1039.55 34.1734 Z" fill="#000000" fill-rule="evenodd" fill-opacity="1" /><path clip-path="url(#clip790)" d="M1075.76 34.0924 L1075.76 9.54393 L1083.22 9.54393 L1083.22 72.576 L1075.76 72.576 L1075.76 65.7705 Q1073.41 69.8214 1069.81 71.8063 Q1066.24 73.7508 1061.22 73.7508 Q1053 73.7508 1047.81 67.1883 Q1042.67 60.6258 1042.67 49.9314 Q1042.67 39.2371 1047.81 32.6746 Q1053 26.1121 1061.22 26.1121 Q1066.24 26.1121 1069.81 28.0971 Q1073.41 30.0415 1075.76 34.0924 M1050.36 49.9314 Q1050.36 58.1548 1053.73 62.8538 Q1057.13 67.5124 1063.04 67.5124 Q1068.96 67.5124 1072.36 62.8538 Q1075.76 58.1548 1075.76 49.9314 Q1075.76 41.7081 1072.36 37.0496 Q1068.96 32.3505 1063.04 32.3505 Q1057.13 32.3505 1053.73 37.0496 Q1050.36 41.7081 1050.36 49.9314 Z" fill="#000000" fill-rule="evenodd" fill-opacity="1" /><path clip-path="url(#clip790)" d="M1137.38 48.0275 L1137.38 51.6733 L1103.11 51.6733 Q1103.59 59.3701 1107.73 63.421 Q1111.9 67.4314 1119.31 67.4314 Q1123.6 67.4314 1127.62 66.3781 Q1131.67 65.3249 1135.64 63.2184 L1135.64 70.267 Q1131.63 71.9684 1127.41 72.8596 Q1123.2 73.7508 1118.87 73.7508 Q1108.01 73.7508 1101.65 67.4314 Q1095.33 61.1119 1095.33 50.3365 Q1095.33 39.1965 1101.32 32.6746 Q1107.36 26.1121 1117.57 26.1121 Q1126.72 26.1121 1132.03 32.0264 Q1137.38 37.9003 1137.38 48.0275 M1129.92 45.84 Q1129.84 39.7232 1126.48 36.0774 Q1123.16 32.4315 1117.65 32.4315 Q1111.41 32.4315 1107.64 35.9558 Q1103.92 39.4801 1103.35 45.8805 L1129.92 45.84 Z" fill="#000000" fill-rule="evenodd" fill-opacity="1" /><path clip-path="url(#clip790)" d="M1175.9 34.1734 Q1174.65 33.4443 1173.15 33.1202 Q1171.69 32.7556 1169.91 32.7556 Q1163.59 32.7556 1160.18 36.8875 Q1156.82 40.9789 1156.82 48.6757 L1156.82 72.576 L1149.33 72.576 L1149.33 27.2059 L1156.82 27.2059 L1156.82 34.2544 Q1159.17 30.1225 1162.94 28.1376 Q1166.71 26.1121 1172.09 26.1121 Q1172.86 26.1121 1173.8 26.2337 Q1174.73 26.3147 1175.86 26.5172 L1175.9 34.1734 Z" fill="#000000" fill-rule="evenodd" fill-opacity="1" /><path clip-path="url(#clip790)" d="M1210.42 12.096 L1218.6 12.096 L1218.6 72.576 L1210.42 72.576 L1210.42 12.096 Z" fill="#000000" fill-rule="evenodd" fill-opacity="1" /><path clip-path="url(#clip790)" d="M1272.27 45.1919 L1272.27 72.576 L1264.82 72.576 L1264.82 45.4349 Q1264.82 38.994 1262.31 35.7938 Q1259.8 32.5936 1254.77 32.5936 Q1248.74 32.5936 1245.25 36.4419 Q1241.77 40.2903 1241.77 46.9338 L1241.77 72.576 L1234.28 72.576 L1234.28 27.2059 L1241.77 27.2059 L1241.77 34.2544 Q1244.44 30.163 1248.05 28.1376 Q1251.69 26.1121 1256.43 26.1121 Q1264.25 26.1121 1268.26 30.9732 Q1272.27 35.7938 1272.27 45.1919 Z" fill="#000000" fill-rule="evenodd" fill-opacity="1" /><path clip-path="url(#clip790)" d="M1294.51 14.324 L1294.51 27.2059 L1309.87 27.2059 L1309.87 32.9987 L1294.51 32.9987 L1294.51 57.6282 Q1294.51 63.1779 1296.01 64.7578 Q1297.55 66.3376 1302.21 66.3376 L1309.87 66.3376 L1309.87 72.576 L1302.21 72.576 Q1293.58 72.576 1290.3 69.3758 Q1287.02 66.1351 1287.02 57.6282 L1287.02 32.9987 L1281.55 32.9987 L1281.55 27.2059 L1287.02 27.2059 L1287.02 14.324 L1294.51 14.324 Z" fill="#000000" fill-rule="evenodd" fill-opacity="1" /><path clip-path="url(#clip790)" d="M1358.48 48.0275 L1358.48 51.6733 L1324.21 51.6733 Q1324.69 59.3701 1328.82 63.421 Q1333 67.4314 1340.41 67.4314 Q1344.7 67.4314 1348.71 66.3781 Q1352.76 65.3249 1356.73 63.2184 L1356.73 70.267 Q1352.72 71.9684 1348.51 72.8596 Q1344.3 73.7508 1339.96 73.7508 Q1329.11 73.7508 1322.75 67.4314 Q1316.43 61.1119 1316.43 50.3365 Q1316.43 39.1965 1322.42 32.6746 Q1328.46 26.1121 1338.67 26.1121 Q1347.82 26.1121 1353.13 32.0264 Q1358.48 37.9003 1358.48 48.0275 M1351.02 45.84 Q1350.94 39.7232 1347.58 36.0774 Q1344.26 32.4315 1338.75 32.4315 Q1332.51 32.4315 1328.74 35.9558 Q1325.02 39.4801 1324.45 45.8805 L1351.02 45.84 Z" fill="#000000" fill-rule="evenodd" fill-opacity="1" /><path clip-path="url(#clip790)" d="M1397 34.1734 Q1395.74 33.4443 1394.25 33.1202 Q1392.79 32.7556 1391.01 32.7556 Q1384.69 32.7556 1381.28 36.8875 Q1377.92 40.9789 1377.92 48.6757 L1377.92 72.576 L1370.43 72.576 L1370.43 27.2059 L1377.92 27.2059 L1377.92 34.2544 Q1380.27 30.1225 1384.04 28.1376 Q1387.8 26.1121 1393.19 26.1121 Q1393.96 26.1121 1394.89 26.2337 Q1395.83 26.3147 1396.96 26.5172 L1397 34.1734 Z" fill="#000000" fill-rule="evenodd" fill-opacity="1" /><path clip-path="url(#clip790)" d="M1412.03 65.7705 L1412.03 89.8329 L1404.54 89.8329 L1404.54 27.2059 L1412.03 27.2059 L1412.03 34.0924 Q1414.38 30.0415 1417.94 28.0971 Q1421.55 26.1121 1426.53 26.1121 Q1434.8 26.1121 1439.94 32.6746 Q1445.13 39.2371 1445.13 49.9314 Q1445.13 60.6258 1439.94 67.1883 Q1434.8 73.7508 1426.53 73.7508 Q1421.55 73.7508 1417.94 71.8063 Q1414.38 69.8214 1412.03 65.7705 M1437.39 49.9314 Q1437.39 41.7081 1433.99 37.0496 Q1430.62 32.3505 1424.71 32.3505 Q1418.79 32.3505 1415.39 37.0496 Q1412.03 41.7081 1412.03 49.9314 Q1412.03 58.1548 1415.39 62.8538 Q1418.79 67.5124 1424.71 67.5124 Q1430.62 67.5124 1433.99 62.8538 Q1437.39 58.1548 1437.39 49.9314 Z" fill="#000000" fill-rule="evenodd" fill-opacity="1" /><path clip-path="url(#clip790)" d="M1475.06 32.4315 Q1469.07 32.4315 1465.58 37.1306 Q1462.1 41.7891 1462.1 49.9314 Q1462.1 58.0738 1465.54 62.7728 Q1469.03 67.4314 1475.06 67.4314 Q1481.02 67.4314 1484.5 62.7323 Q1487.98 58.0333 1487.98 49.9314 Q1487.98 41.8701 1484.5 37.1711 Q1481.02 32.4315 1475.06 32.4315 M1475.06 26.1121 Q1484.78 26.1121 1490.33 32.4315 Q1495.88 38.7509 1495.88 49.9314 Q1495.88 61.0714 1490.33 67.4314 Q1484.78 73.7508 1475.06 73.7508 Q1465.3 73.7508 1459.75 67.4314 Q1454.24 61.0714 1454.24 49.9314 Q1454.24 38.7509 1459.75 32.4315 Q1465.3 26.1121 1475.06 26.1121 Z" fill="#000000" fill-rule="evenodd" fill-opacity="1" /><path clip-path="url(#clip790)" d="M1508.24 9.54393 L1515.69 9.54393 L1515.69 72.576 L1508.24 72.576 L1508.24 9.54393 Z" fill="#000000" fill-rule="evenodd" fill-opacity="1" /><path clip-path="url(#clip790)" d="M1551.91 49.7694 Q1542.87 49.7694 1539.39 51.8354 Q1535.91 53.9013 1535.91 58.8839 Q1535.91 62.8538 1538.5 65.2034 Q1541.13 67.5124 1545.63 67.5124 Q1551.83 67.5124 1555.55 63.1374 Q1559.32 58.7219 1559.32 51.4303 L1559.32 49.7694 L1551.91 49.7694 M1566.77 46.6907 L1566.77 72.576 L1559.32 72.576 L1559.32 65.6895 Q1556.77 69.8214 1552.96 71.8063 Q1549.15 73.7508 1543.64 73.7508 Q1536.68 73.7508 1532.54 69.8619 Q1528.45 65.9325 1528.45 59.3701 Q1528.45 51.7138 1533.56 47.825 Q1538.7 43.9361 1548.87 43.9361 L1559.32 43.9361 L1559.32 43.2069 Q1559.32 38.0623 1555.92 35.2672 Q1552.56 32.4315 1546.44 32.4315 Q1542.55 32.4315 1538.86 33.3632 Q1535.18 34.295 1531.77 36.1584 L1531.77 29.2718 Q1535.87 27.692 1539.71 26.9223 Q1543.56 26.1121 1547.21 26.1121 Q1557.05 26.1121 1561.91 31.2163 Q1566.77 36.3204 1566.77 46.6907 Z" fill="#000000" fill-rule="evenodd" fill-opacity="1" /><path clip-path="url(#clip790)" d="M1589.5 14.324 L1589.5 27.2059 L1604.85 27.2059 L1604.85 32.9987 L1589.5 32.9987 L1589.5 57.6282 Q1589.5 63.1779 1591 64.7578 Q1592.54 66.3376 1597.2 66.3376 L1604.85 66.3376 L1604.85 72.576 L1597.2 72.576 Q1588.57 72.576 1585.29 69.3758 Q1582.01 66.1351 1582.01 57.6282 L1582.01 32.9987 L1576.54 32.9987 L1576.54 27.2059 L1582.01 27.2059 L1582.01 14.324 L1589.5 14.324 Z" fill="#000000" fill-rule="evenodd" fill-opacity="1" /><path clip-path="url(#clip790)" d="M1614.66 27.2059 L1622.11 27.2059 L1622.11 72.576 L1614.66 72.576 L1614.66 27.2059 M1614.66 9.54393 L1622.11 9.54393 L1622.11 18.9825 L1614.66 18.9825 L1614.66 9.54393 Z" fill="#000000" fill-rule="evenodd" fill-opacity="1" /><path clip-path="url(#clip790)" d="M1655.29 32.4315 Q1649.29 32.4315 1645.81 37.1306 Q1642.32 41.7891 1642.32 49.9314 Q1642.32 58.0738 1645.77 62.7728 Q1649.25 67.4314 1655.29 67.4314 Q1661.24 67.4314 1664.72 62.7323 Q1668.21 58.0333 1668.21 49.9314 Q1668.21 41.8701 1664.72 37.1711 Q1661.24 32.4315 1655.29 32.4315 M1655.29 26.1121 Q1665.01 26.1121 1670.56 32.4315 Q1676.11 38.7509 1676.11 49.9314 Q1676.11 61.0714 1670.56 67.4314 Q1665.01 73.7508 1655.29 73.7508 Q1645.52 73.7508 1639.97 67.4314 Q1634.46 61.0714 1634.46 49.9314 Q1634.46 38.7509 1639.97 32.4315 Q1645.52 26.1121 1655.29 26.1121 Z" fill="#000000" fill-rule="evenodd" fill-opacity="1" /><path clip-path="url(#clip790)" d="M1726.18 45.1919 L1726.18 72.576 L1718.72 72.576 L1718.72 45.4349 Q1718.72 38.994 1716.21 35.7938 Q1713.7 32.5936 1708.68 32.5936 Q1702.64 32.5936 1699.16 36.4419 Q1695.67 40.2903 1695.67 46.9338 L1695.67 72.576 L1688.18 72.576 L1688.18 27.2059 L1695.67 27.2059 L1695.67 34.2544 Q1698.35 30.163 1701.95 28.1376 Q1705.6 26.1121 1710.34 26.1121 Q1718.16 26.1121 1722.17 30.9732 Q1726.18 35.7938 1726.18 45.1919 Z" fill="#000000" fill-rule="evenodd" fill-opacity="1" /><polyline clip-path="url(#clip792)" style="stroke:#009af9; stroke-linecap:butt; stroke-linejoin:round; stroke-width:4; stroke-opacity:1; fill:none" points="
  217.261,1437.49 220.347,1437.49 223.433,1437.49 226.519,1437.49 229.605,1437.49 232.691,1437.49 235.777,1437.48 238.863,1437.48 241.949,1437.48 245.035,1437.48 
  248.121,1437.48 251.206,1437.48 254.292,1437.48 257.378,1437.48 260.464,1437.48 263.55,1437.48 266.636,1437.48 269.722,1437.47 272.808,1437.47 275.894,1437.47 
  278.98,1437.47 282.066,1437.47 285.151,1437.47 288.237,1437.47 291.323,1437.47 294.409,1437.46 297.495,1437.46 300.581,1437.46 303.667,1437.46 306.753,1437.46 
  309.839,1437.46 312.925,1437.46 316.011,1437.46 319.096,1437.45 322.182,1437.45 325.268,1437.45 328.354,1437.45 331.44,1437.45 334.526,1437.45 337.612,1437.44 
  340.698,1437.44 343.784,1437.44 346.87,1437.44 349.956,1437.44 353.041,1437.44 356.127,1437.43 359.213,1437.43 362.299,1437.43 365.385,1437.43 368.471,1437.43 
  371.557,1437.42 374.643,1437.42 377.729,1437.42 380.815,1437.42 383.901,1437.41 386.986,1437.41 390.072,1437.41 393.158,1437.41 396.244,1437.4 399.33,1437.4 
  402.416,1437.4 405.502,1437.4 408.588,1437.39 411.674,1437.39 414.76,1437.39 417.846,1437.39 420.931,1437.38 424.017,1437.38 427.103,1437.38 430.189,1437.37 
  433.275,1437.37 436.361,1437.37 439.447,1437.36 442.533,1437.36 445.619,1437.36 448.705,1437.35 451.791,1437.35 454.876,1437.35 457.962,1437.34 461.048,1437.34 
  464.134,1437.34 467.22,1437.33 470.306,1437.33 473.392,1437.32 476.478,1437.32 479.564,1437.32 482.65,1437.31 485.736,1437.31 488.821,1437.3 491.907,1437.3 
  494.993,1437.29 498.079,1437.29 501.165,1437.28 504.251,1437.28 507.337,1437.27 510.423,1437.27 513.509,1437.26 516.595,1437.26 519.681,1437.25 522.766,1437.25 
  525.852,1437.24 528.938,1437.24 532.024,1437.23 535.11,1437.22 538.196,1437.22 541.282,1437.21 544.368,1437.21 547.454,1437.2 550.54,1437.19 553.626,1437.19 
  556.711,1437.18 559.797,1437.17 562.883,1437.16 565.969,1437.16 569.055,1437.15 572.141,1437.14 575.227,1437.13 578.313,1437.13 581.399,1437.12 584.485,1437.11 
  587.571,1437.1 590.656,1437.09 593.742,1437.08 596.828,1437.07 599.914,1437.07 603,1437.06 606.086,1437.05 609.172,1437.04 612.258,1437.03 615.344,1437.02 
  618.43,1437.01 621.516,1437 624.601,1436.98 627.687,1436.97 630.773,1436.96 633.859,1436.95 636.945,1436.94 640.031,1436.93 643.117,1436.92 646.203,1436.9 
  649.289,1436.89 652.375,1436.88 655.461,1436.86 658.546,1436.85 661.632,1436.84 664.718,1436.82 667.804,1436.81 670.89,1436.79 673.976,1436.78 677.062,1436.76 
  680.148,1436.75 683.234,1436.73 686.32,1436.72 689.406,1436.7 692.491,1436.68 695.577,1436.67 698.663,1436.65 701.749,1436.63 704.835,1436.61 707.921,1436.6 
  711.007,1436.58 714.093,1436.56 717.179,1436.54 720.265,1436.52 723.351,1436.5 726.436,1436.48 729.522,1436.46 732.608,1436.43 735.694,1436.41 738.78,1436.39 
  741.866,1436.37 744.952,1436.34 748.038,1436.32 751.124,1436.29 754.21,1436.27 757.296,1436.24 760.381,1436.22 763.467,1436.19 766.553,1436.16 769.639,1436.14 
  772.725,1436.11 775.811,1436.08 778.897,1436.05 781.983,1436.02 785.069,1435.99 788.155,1435.96 791.241,1435.93 794.326,1435.89 797.412,1435.86 800.498,1435.83 
  803.584,1435.79 806.67,1435.76 809.756,1435.72 812.842,1435.69 815.928,1435.65 819.014,1435.61 822.1,1435.57 825.186,1435.53 828.271,1435.49 831.357,1435.45 
  834.443,1435.41 837.529,1435.37 840.615,1435.32 843.701,1435.28 846.787,1435.23 849.873,1435.19 852.959,1435.14 856.045,1435.09 859.131,1435.04 862.216,1434.99 
  865.302,1434.94 868.388,1434.89 871.474,1434.83 874.56,1434.78 877.646,1434.72 880.732,1434.67 883.818,1434.61 886.904,1434.55 889.99,1434.49 893.076,1434.43 
  896.161,1434.37 899.247,1434.3 902.333,1434.24 905.419,1434.17 908.505,1434.1 911.591,1434.03 914.677,1433.96 917.763,1433.89 920.849,1433.82 923.935,1433.74 
  927.021,1433.67 930.106,1433.59 933.192,1433.51 936.278,1433.43 939.364,1433.35 942.45,1433.26 945.536,1433.17 948.622,1433.09 951.708,1433 954.794,1432.91 
  957.88,1432.81 960.966,1432.72 964.051,1432.62 967.137,1432.52 970.223,1432.42 973.309,1432.32 976.395,1432.21 979.481,1432.1 982.567,1431.99 985.653,1431.88 
  988.739,1431.77 991.825,1431.65 994.911,1431.53 997.996,1431.41 1001.08,1431.29 1004.17,1431.16 1007.25,1431.03 1010.34,1430.9 1013.43,1430.77 1016.51,1430.63 
  1019.6,1430.49 1022.68,1430.35 1025.77,1430.21 1028.86,1430.06 1031.94,1429.91 1035.03,1429.75 1038.11,1429.6 1041.2,1429.44 1044.29,1429.27 1047.37,1429.1 
  1050.46,1428.93 1053.54,1428.76 1056.63,1428.58 1059.71,1428.4 1062.8,1428.22 1065.89,1428.03 1068.97,1427.84 1072.06,1427.64 1075.14,1427.44 1078.23,1427.24 
  1081.32,1427.03 1084.4,1426.82 1087.49,1426.6 1090.57,1426.38 1093.66,1426.16 1096.75,1425.93 1099.83,1425.69 1102.92,1425.45 1106,1425.21 1109.09,1424.96 
  1112.18,1424.71 1115.26,1424.45 1118.35,1424.18 1121.43,1423.92 1124.52,1423.64 1127.6,1423.36 1130.69,1423.07 1133.78,1422.78 1136.86,1422.48 1139.95,1422.18 
  1143.03,1421.87 1146.12,1421.55 1149.21,1421.23 1152.29,1420.9 1155.38,1420.57 1158.46,1420.22 1161.55,1419.87 1164.64,1419.52 1167.72,1419.15 1170.81,1418.78 
  1173.89,1418.4 1176.98,1418.02 1180.07,1417.62 1183.15,1417.22 1186.24,1416.81 1189.32,1416.39 1192.41,1415.96 1195.49,1415.53 1198.58,1415.08 1201.67,1414.63 
  1204.75,1414.17 1207.84,1413.7 1210.92,1413.21 1214.01,1412.72 1217.1,1412.22 1220.18,1411.71 1223.27,1411.19 1226.35,1410.66 1229.44,1410.11 1232.53,1409.56 
  1235.61,1409 1238.7,1408.42 1241.78,1407.83 1244.87,1407.23 1247.96,1406.62 1251.04,1405.99 1254.13,1405.36 1257.21,1404.71 1260.3,1404.04 1263.38,1403.37 
  1266.47,1402.68 1269.56,1401.97 1272.64,1401.26 1275.73,1400.52 1278.81,1399.78 1281.9,1399.01 1284.99,1398.23 1288.07,1397.44 1291.16,1396.63 1294.24,1395.8 
  1297.33,1394.96 1300.42,1394.1 1303.5,1393.22 1306.59,1392.33 1309.67,1391.42 1312.76,1390.48 1315.85,1389.53 1318.93,1388.57 1322.02,1387.58 1325.1,1386.57 
  1328.19,1385.54 1331.27,1384.49 1334.36,1383.42 1337.45,1382.32 1340.53,1381.21 1343.62,1380.07 1346.7,1378.91 1349.79,1377.72 1352.88,1376.52 1355.96,1375.28 
  1359.05,1374.03 1362.13,1372.74 1365.22,1371.43 1368.31,1370.1 1371.39,1368.74 1374.48,1367.35 1377.56,1365.93 1380.65,1364.48 1383.74,1363.01 1386.82,1361.5 
  1389.91,1359.97 1392.99,1358.4 1396.08,1356.8 1399.16,1355.17 1402.25,1353.51 1405.34,1351.81 1408.42,1350.08 1411.51,1348.31 1414.59,1346.51 1417.68,1344.67 
  1420.77,1342.79 1423.85,1340.88 1426.94,1338.93 1430.02,1336.94 1433.11,1334.9 1436.2,1332.83 1439.28,1330.72 1442.37,1328.56 1445.45,1326.36 1448.54,1324.11 
  1451.63,1321.82 1454.71,1319.48 1457.8,1317.1 1460.88,1314.66 1463.97,1312.18 1467.05,1309.65 1470.14,1307.07 1473.23,1304.43 1476.31,1301.74 1479.4,1299 
  1482.48,1296.2 1485.57,1293.35 1488.66,1290.43 1491.74,1287.46 1494.83,1284.43 1497.91,1281.34 1501,1278.18 1504.09,1274.96 1507.17,1271.68 1510.26,1268.33 
  1513.34,1264.91 1516.43,1261.42 1519.52,1257.87 1522.6,1254.24 1525.69,1250.53 1528.77,1246.76 1531.86,1242.9 1534.94,1238.97 1538.03,1234.96 1541.12,1230.87 
  1544.2,1226.69 1547.29,1222.43 1550.37,1218.09 1553.46,1213.66 1556.55,1209.13 1559.63,1204.52 1562.72,1199.81 1565.8,1195.01 1568.89,1190.11 1571.98,1185.11 
  1575.06,1180.01 1578.15,1174.81 1581.23,1169.5 1584.32,1164.09 1587.41,1158.57 1590.49,1152.93 1593.58,1147.18 1596.66,1141.32 1599.75,1135.33 1602.83,1129.23 
  1605.92,1123 1609.01,1116.64 1612.09,1110.16 1615.18,1103.55 1618.26,1096.8 1621.35,1089.92 1624.44,1082.9 1627.52,1075.73 1630.61,1068.42 1633.69,1060.97 
  1636.78,1053.36 1639.87,1045.6 1642.95,1037.68 1646.04,1029.61 1649.12,1021.36 1652.21,1012.96 1655.3,1004.38 1658.38,995.631 1661.47,986.704 1664.55,977.596 
  1667.64,968.305 1670.72,958.826 1673.81,949.156 1676.9,939.29 1679.98,929.225 1683.07,918.957 1686.15,908.481 1689.24,897.793 1692.33,886.89 1695.41,875.766 
  1698.5,864.418 1701.58,852.84 1704.67,841.029 1707.76,828.979 1710.84,816.685 1713.93,804.143 1717.01,791.348 1720.1,778.294 1723.19,764.977 1726.27,751.39 
  1729.36,737.529 1732.44,723.389 1735.53,708.962 1738.61,694.244 1741.7,679.229 1744.79,663.91 1747.87,648.282 1750.96,632.338 1754.04,616.072 1757.13,599.477 
  1760.22,582.548 1763.3,565.276 1766.39,547.655 1769.47,529.679 1772.56,511.339 1775.65,492.629 1778.73,473.54 1781.82,454.066 1784.9,434.199 1787.99,413.931 
  1791.08,393.253 1794.16,372.157 1797.25,350.635 1800.33,328.678 1803.42,306.278 1806.5,283.425 1809.59,260.111 1812.68,236.325 1815.76,212.059 1818.85,187.303 
  1821.93,162.047 
  "/>
<polyline clip-path="url(#clip792)" style="stroke:#ee82ee; stroke-linecap:butt; stroke-linejoin:round; stroke-width:4; stroke-opacity:1; fill:none" points="
  217.261,1447.87 220.347,1446.65 223.433,1445.47 226.519,1444.33 229.605,1443.23 232.691,1442.18 235.777,1441.16 238.863,1440.19 241.949,1439.25 245.035,1438.35 
  248.121,1437.48 251.206,1436.65 254.292,1435.86 257.378,1435.1 260.464,1434.37 263.55,1433.68 266.636,1433.02 269.722,1432.39 272.808,1431.79 275.894,1431.22 
  278.98,1430.68 282.066,1430.17 285.151,1429.69 288.237,1429.23 291.323,1428.8 294.409,1428.4 297.495,1428.02 300.581,1427.67 303.667,1427.34 306.753,1427.03 
  309.839,1426.75 312.925,1426.49 316.011,1426.25 319.096,1426.03 322.182,1425.83 325.268,1425.65 328.354,1425.49 331.44,1425.35 334.526,1425.22 337.612,1425.12 
  340.698,1425.03 343.784,1424.96 346.87,1424.9 349.956,1424.86 353.041,1424.84 356.127,1424.82 359.213,1424.83 362.299,1424.84 365.385,1424.87 368.471,1424.92 
  371.557,1424.97 374.643,1425.04 377.729,1425.11 380.815,1425.2 383.901,1425.3 386.986,1425.41 390.072,1425.53 393.158,1425.65 396.244,1425.79 399.33,1425.93 
  402.416,1426.08 405.502,1426.24 408.588,1426.41 411.674,1426.58 414.76,1426.76 417.846,1426.95 420.931,1427.14 424.017,1427.34 427.103,1427.54 430.189,1427.75 
  433.275,1427.96 436.361,1428.18 439.447,1428.4 442.533,1428.62 445.619,1428.85 448.705,1429.08 451.791,1429.31 454.876,1429.55 457.962,1429.78 461.048,1430.02 
  464.134,1430.26 467.22,1430.5 470.306,1430.75 473.392,1430.99 476.478,1431.23 479.564,1431.48 482.65,1431.72 485.736,1431.97 488.821,1432.22 491.907,1432.46 
  494.993,1432.7 498.079,1432.95 501.165,1433.19 504.251,1433.43 507.337,1433.67 510.423,1433.91 513.509,1434.14 516.595,1434.38 519.681,1434.61 522.766,1434.84 
  525.852,1435.07 528.938,1435.29 532.024,1435.51 535.11,1435.73 538.196,1435.95 541.282,1436.16 544.368,1436.37 547.454,1436.58 550.54,1436.78 553.626,1436.98 
  556.711,1437.18 559.797,1437.37 562.883,1437.56 565.969,1437.74 569.055,1437.93 572.141,1438.1 575.227,1438.27 578.313,1438.44 581.399,1438.61 584.485,1438.77 
  587.571,1438.92 590.656,1439.07 593.742,1439.22 596.828,1439.36 599.914,1439.5 603,1439.63 606.086,1439.75 609.172,1439.88 612.258,1439.99 615.344,1440.11 
  618.43,1440.21 621.516,1440.32 624.601,1440.41 627.687,1440.51 630.773,1440.59 633.859,1440.68 636.945,1440.76 640.031,1440.83 643.117,1440.9 646.203,1440.96 
  649.289,1441.02 652.375,1441.07 655.461,1441.12 658.546,1441.16 661.632,1441.2 664.718,1441.23 667.804,1441.26 670.89,1441.28 673.976,1441.3 677.062,1441.31 
  680.148,1441.32 683.234,1441.32 686.32,1441.32 689.406,1441.31 692.491,1441.3 695.577,1441.29 698.663,1441.26 701.749,1441.24 704.835,1441.21 707.921,1441.18 
  711.007,1441.14 714.093,1441.09 717.179,1441.05 720.265,1440.99 723.351,1440.94 726.436,1440.88 729.522,1440.81 732.608,1440.75 735.694,1440.67 738.78,1440.6 
  741.866,1440.52 744.952,1440.43 748.038,1440.34 751.124,1440.25 754.21,1440.16 757.296,1440.06 760.381,1439.96 763.467,1439.85 766.553,1439.74 769.639,1439.63 
  772.725,1439.51 775.811,1439.39 778.897,1439.27 781.983,1439.15 785.069,1439.02 788.155,1438.89 791.241,1438.76 794.326,1438.62 797.412,1438.48 800.498,1438.34 
  803.584,1438.2 806.67,1438.05 809.756,1437.9 812.842,1437.75 815.928,1437.6 819.014,1437.45 822.1,1437.29 825.186,1437.13 828.271,1436.97 831.357,1436.81 
  834.443,1436.65 837.529,1436.48 840.615,1436.31 843.701,1436.15 846.787,1435.98 849.873,1435.81 852.959,1435.64 856.045,1435.46 859.131,1435.29 862.216,1435.12 
  865.302,1434.94 868.388,1434.76 871.474,1434.59 874.56,1434.41 877.646,1434.23 880.732,1434.05 883.818,1433.87 886.904,1433.7 889.99,1433.52 893.076,1433.34 
  896.161,1433.16 899.247,1432.98 902.333,1432.8 905.419,1432.62 908.505,1432.44 911.591,1432.26 914.677,1432.08 917.763,1431.9 920.849,1431.72 923.935,1431.54 
  927.021,1431.36 930.106,1431.19 933.192,1431.01 936.278,1430.83 939.364,1430.66 942.45,1430.48 945.536,1430.31 948.622,1430.14 951.708,1429.96 954.794,1429.79 
  957.88,1429.62 960.966,1429.45 964.051,1429.28 967.137,1429.11 970.223,1428.94 973.309,1428.78 976.395,1428.61 979.481,1428.45 982.567,1428.28 985.653,1428.12 
  988.739,1427.96 991.825,1427.8 994.911,1427.64 997.996,1427.48 1001.08,1427.33 1004.17,1427.17 1007.25,1427.01 1010.34,1426.86 1013.43,1426.71 1016.51,1426.55 
  1019.6,1426.4 1022.68,1426.25 1025.77,1426.1 1028.86,1425.95 1031.94,1425.81 1035.03,1425.66 1038.11,1425.51 1041.2,1425.37 1044.29,1425.22 1047.37,1425.08 
  1050.46,1424.93 1053.54,1424.79 1056.63,1424.65 1059.71,1424.5 1062.8,1424.36 1065.89,1424.22 1068.97,1424.07 1072.06,1423.93 1075.14,1423.79 1078.23,1423.65 
  1081.32,1423.5 1084.4,1423.36 1087.49,1423.22 1090.57,1423.07 1093.66,1422.93 1096.75,1422.78 1099.83,1422.63 1102.92,1422.48 1106,1422.33 1109.09,1422.18 
  1112.18,1422.03 1115.26,1421.88 1118.35,1421.72 1121.43,1421.56 1124.52,1421.4 1127.6,1421.24 1130.69,1421.08 1133.78,1420.91 1136.86,1420.74 1139.95,1420.57 
  1143.03,1420.39 1146.12,1420.21 1149.21,1420.03 1152.29,1419.84 1155.38,1419.65 1158.46,1419.45 1161.55,1419.25 1164.64,1419.05 1167.72,1418.84 1170.81,1418.62 
  1173.89,1418.4 1176.98,1418.18 1180.07,1417.94 1183.15,1417.71 1186.24,1417.46 1189.32,1417.21 1192.41,1416.95 1195.49,1416.68 1198.58,1416.41 1201.67,1416.13 
  1204.75,1415.84 1207.84,1415.54 1210.92,1415.23 1214.01,1414.92 1217.1,1414.59 1220.18,1414.26 1223.27,1413.91 1226.35,1413.55 1229.44,1413.18 1232.53,1412.81 
  1235.61,1412.41 1238.7,1412.01 1241.78,1411.6 1244.87,1411.17 1247.96,1410.73 1251.04,1410.27 1254.13,1409.8 1257.21,1409.32 1260.3,1408.82 1263.38,1408.31 
  1266.47,1407.78 1269.56,1407.23 1272.64,1406.67 1275.73,1406.09 1278.81,1405.49 1281.9,1404.87 1284.99,1404.24 1288.07,1403.58 1291.16,1402.91 1294.24,1402.22 
  1297.33,1401.5 1300.42,1400.77 1303.5,1400.01 1306.59,1399.23 1309.67,1398.43 1312.76,1397.6 1315.85,1396.76 1318.93,1395.88 1322.02,1394.98 1325.1,1394.06 
  1328.19,1393.11 1331.27,1392.13 1334.36,1391.12 1337.45,1390.09 1340.53,1389.03 1343.62,1387.94 1346.7,1386.81 1349.79,1385.66 1352.88,1384.48 1355.96,1383.26 
  1359.05,1382.01 1362.13,1380.73 1365.22,1379.41 1368.31,1378.06 1371.39,1376.68 1374.48,1375.25 1377.56,1373.79 1380.65,1372.29 1383.74,1370.76 1386.82,1369.18 
  1389.91,1367.57 1392.99,1365.91 1396.08,1364.21 1399.16,1362.47 1402.25,1360.68 1405.34,1358.86 1408.42,1356.98 1411.51,1355.06 1414.59,1353.1 1417.68,1351.08 
  1420.77,1349.02 1423.85,1346.91 1426.94,1344.75 1430.02,1342.54 1433.11,1340.27 1436.2,1337.96 1439.28,1335.59 1442.37,1333.16 1445.45,1330.68 1448.54,1328.14 
  1451.63,1325.55 1454.71,1322.89 1457.8,1320.18 1460.88,1317.4 1463.97,1314.57 1467.05,1311.67 1470.14,1308.71 1473.23,1305.68 1476.31,1302.59 1479.4,1299.43 
  1482.48,1296.2 1485.57,1292.9 1488.66,1289.54 1491.74,1286.1 1494.83,1282.59 1497.91,1279.01 1501,1275.35 1504.09,1271.61 1507.17,1267.8 1510.26,1263.91 
  1513.34,1259.95 1516.43,1255.9 1519.52,1251.77 1522.6,1247.55 1525.69,1243.26 1528.77,1238.87 1531.86,1234.4 1534.94,1229.85 1538.03,1225.2 1541.12,1220.46 
  1544.2,1215.63 1547.29,1210.71 1550.37,1205.69 1553.46,1200.58 1556.55,1195.37 1559.63,1190.06 1562.72,1184.66 1565.8,1179.15 1568.89,1173.54 1571.98,1167.82 
  1575.06,1162 1578.15,1156.07 1581.23,1150.03 1584.32,1143.89 1587.41,1137.63 1590.49,1131.26 1593.58,1124.77 1596.66,1118.17 1599.75,1111.46 1602.83,1104.62 
  1605.92,1097.66 1609.01,1090.58 1612.09,1083.38 1615.18,1076.05 1618.26,1068.6 1621.35,1061.01 1624.44,1053.3 1627.52,1045.46 1630.61,1037.48 1633.69,1029.37 
  1636.78,1021.12 1639.87,1012.73 1642.95,1004.2 1646.04,995.531 1649.12,986.718 1652.21,977.76 1655.3,968.654 1658.38,959.4 1661.47,949.996 1664.55,940.439 
  1667.64,930.728 1670.72,920.861 1673.81,910.836 1676.9,900.651 1679.98,890.305 1683.07,879.795 1686.15,869.12 1689.24,858.278 1692.33,847.266 1695.41,836.083 
  1698.5,824.728 1701.58,813.197 1704.67,801.489 1707.76,789.602 1710.84,777.534 1713.93,765.283 1717.01,752.846 1720.1,740.223 1723.19,727.41 1726.27,714.406 
  1729.36,701.208 1732.44,687.815 1735.53,674.224 1738.61,660.433 1741.7,646.44 1744.79,632.243 1747.87,617.839 1750.96,603.227 1754.04,588.404 1757.13,573.368 
  1760.22,558.117 1763.3,542.648 1766.39,526.959 1769.47,511.048 1772.56,494.912 1775.65,478.55 1778.73,461.958 1781.82,445.135 1784.9,428.078 1787.99,410.785 
  1791.08,393.253 1794.16,375.479 1797.25,357.462 1800.33,339.2 1803.42,320.688 1806.5,301.926 1809.59,282.91 1812.68,263.638 1815.76,244.107 1818.85,224.315 
  1821.93,204.26 
  "/>
<circle clip-path="url(#clip792)" cx="248.121" cy="1437.48" r="10" fill="#00bfff" fill-rule="evenodd" fill-opacity="1" stroke="#000000" stroke-opacity="1" stroke-width="3.2"/>
<circle clip-path="url(#clip792)" cx="556.711" cy="1437.18" r="10" fill="#00bfff" fill-rule="evenodd" fill-opacity="1" stroke="#000000" stroke-opacity="1" stroke-width="3.2"/>
<circle clip-path="url(#clip792)" cx="865.302" cy="1434.94" r="10" fill="#00bfff" fill-rule="evenodd" fill-opacity="1" stroke="#000000" stroke-opacity="1" stroke-width="3.2"/>
<circle clip-path="url(#clip792)" cx="1173.89" cy="1418.4" r="10" fill="#00bfff" fill-rule="evenodd" fill-opacity="1" stroke="#000000" stroke-opacity="1" stroke-width="3.2"/>
<circle clip-path="url(#clip792)" cx="1482.48" cy="1296.2" r="10" fill="#00bfff" fill-rule="evenodd" fill-opacity="1" stroke="#000000" stroke-opacity="1" stroke-width="3.2"/>
<circle clip-path="url(#clip792)" cx="1791.08" cy="393.253" r="10" fill="#00bfff" fill-rule="evenodd" fill-opacity="1" stroke="#000000" stroke-opacity="1" stroke-width="3.2"/>
<circle clip-path="url(#clip792)" cx="1135.32" cy="1422.63" r="10" fill="#0000ff" fill-rule="evenodd" fill-opacity="1" stroke="#000000" stroke-opacity="1" stroke-width="3.2"/>
<circle clip-path="url(#clip792)" cx="1289.61" cy="1397.04" r="10" fill="#0000ff" fill-rule="evenodd" fill-opacity="1" stroke="#000000" stroke-opacity="1" stroke-width="3.2"/>
<circle clip-path="url(#clip792)" cx="1443.91" cy="1327.46" r="10" fill="#0000ff" fill-rule="evenodd" fill-opacity="1" stroke="#000000" stroke-opacity="1" stroke-width="3.2"/>
<circle clip-path="url(#clip792)" cx="1598.21" cy="1138.34" r="10" fill="#0000ff" fill-rule="evenodd" fill-opacity="1" stroke="#000000" stroke-opacity="1" stroke-width="3.2"/>
<circle clip-path="url(#clip792)" cx="1752.5" cy="624.246" r="10" fill="#0000ff" fill-rule="evenodd" fill-opacity="1" stroke="#000000" stroke-opacity="1" stroke-width="3.2"/>
<circle clip-path="url(#clip792)" cx="1135.32" cy="1420.82" r="10" fill="#ff0000" fill-rule="evenodd" fill-opacity="1" stroke="#000000" stroke-opacity="1" stroke-width="3.2"/>
<circle clip-path="url(#clip792)" cx="1289.61" cy="1403.25" r="10" fill="#ff0000" fill-rule="evenodd" fill-opacity="1" stroke="#000000" stroke-opacity="1" stroke-width="3.2"/>
<circle clip-path="url(#clip792)" cx="1443.91" cy="1331.93" r="10" fill="#ff0000" fill-rule="evenodd" fill-opacity="1" stroke="#000000" stroke-opacity="1" stroke-width="3.2"/>
<circle clip-path="url(#clip792)" cx="1598.21" cy="1114.83" r="10" fill="#ff0000" fill-rule="evenodd" fill-opacity="1" stroke="#000000" stroke-opacity="1" stroke-width="3.2"/>
<circle clip-path="url(#clip792)" cx="1752.5" cy="595.842" r="10" fill="#ff0000" fill-rule="evenodd" fill-opacity="1" stroke="#000000" stroke-opacity="1" stroke-width="3.2"/>
<path clip-path="url(#clip790)" d="
M1942.86 479.945 L2352.76 479.945 L2352.76 168.905 L1942.86 168.905  Z
  " fill="#ffffff" fill-rule="evenodd" fill-opacity="1"/>
<polyline clip-path="url(#clip790)" style="stroke:#000000; stroke-linecap:butt; stroke-linejoin:round; stroke-width:4; stroke-opacity:1; fill:none" points="
  1942.86,479.945 2352.76,479.945 2352.76,168.905 1942.86,168.905 1942.86,479.945 
  "/>
<polyline clip-path="url(#clip790)" style="stroke:#009af9; stroke-linecap:butt; stroke-linejoin:round; stroke-width:4; stroke-opacity:1; fill:none" points="
  1967.12,220.745 2112.7,220.745 
  "/>
<path clip-path="url(#clip790)" d="M2153.47 202.006 L2153.47 205.548 L2149.39 205.548 Q2147.1 205.548 2146.2 206.474 Q2145.32 207.4 2145.32 209.807 L2145.32 212.099 L2152.33 212.099 L2152.33 215.409 L2145.32 215.409 L2145.32 238.025 L2141.04 238.025 L2141.04 215.409 L2136.96 215.409 L2136.96 212.099 L2141.04 212.099 L2141.04 210.293 Q2141.04 205.965 2143.05 203.997 Q2145.06 202.006 2149.44 202.006 L2153.47 202.006 Z" fill="#000000" fill-rule="evenodd" fill-opacity="1" /><path clip-path="url(#clip790)" d="M2167.26 202.053 Q2164.16 207.377 2162.66 212.585 Q2161.15 217.793 2161.15 223.14 Q2161.15 228.488 2162.66 233.742 Q2164.19 238.974 2167.26 244.275 L2163.56 244.275 Q2160.09 238.835 2158.35 233.58 Q2156.64 228.326 2156.64 223.14 Q2156.64 217.978 2158.35 212.747 Q2160.06 207.516 2163.56 202.053 L2167.26 202.053 Z" fill="#000000" fill-rule="evenodd" fill-opacity="1" /><path clip-path="url(#clip790)" d="M2197.08 212.099 L2187.7 224.715 L2197.56 238.025 L2192.54 238.025 L2185 227.84 L2177.45 238.025 L2172.43 238.025 L2182.5 224.46 L2173.28 212.099 L2178.31 212.099 L2185.18 221.335 L2192.06 212.099 L2197.08 212.099 Z" fill="#000000" fill-rule="evenodd" fill-opacity="1" /><path clip-path="url(#clip790)" d="M2202.91 202.053 L2206.62 202.053 Q2210.09 207.516 2211.8 212.747 Q2213.54 217.978 2213.54 223.14 Q2213.54 228.326 2211.8 233.58 Q2210.09 238.835 2206.62 244.275 L2202.91 244.275 Q2205.99 238.974 2207.5 233.742 Q2209.02 228.488 2209.02 223.14 Q2209.02 217.793 2207.5 212.585 Q2205.99 207.377 2202.91 202.053 Z" fill="#000000" fill-rule="evenodd" fill-opacity="1" /><polyline clip-path="url(#clip790)" style="stroke:#ee82ee; stroke-linecap:butt; stroke-linejoin:round; stroke-width:4; stroke-opacity:1; fill:none" points="
  1967.12,272.585 2112.7,272.585 
  "/>
<path clip-path="url(#clip790)" d="M2141.25 285.976 L2141.25 299.726 L2136.96 299.726 L2136.96 263.939 L2141.25 263.939 L2141.25 267.874 Q2142.59 265.559 2144.63 264.448 Q2146.69 263.314 2149.53 263.314 Q2154.25 263.314 2157.19 267.064 Q2160.16 270.814 2160.16 276.925 Q2160.16 283.036 2157.19 286.786 Q2154.25 290.536 2149.53 290.536 Q2146.69 290.536 2144.63 289.425 Q2142.59 288.291 2141.25 285.976 M2155.74 276.925 Q2155.74 272.226 2153.79 269.564 Q2151.87 266.879 2148.49 266.879 Q2145.11 266.879 2143.17 269.564 Q2141.25 272.226 2141.25 276.925 Q2141.25 281.624 2143.17 284.309 Q2145.11 286.971 2148.49 286.971 Q2151.87 286.971 2153.79 284.309 Q2155.74 281.624 2155.74 276.925 Z" fill="#000000" fill-rule="evenodd" fill-opacity="1" /><path clip-path="url(#clip790)" d="M2177.45 253.893 Q2174.35 259.217 2172.84 264.425 Q2171.34 269.633 2171.34 274.98 Q2171.34 280.328 2172.84 285.582 Q2174.37 290.814 2177.45 296.115 L2173.75 296.115 Q2170.27 290.675 2168.54 285.42 Q2166.82 280.166 2166.82 274.98 Q2166.82 269.818 2168.54 264.587 Q2170.25 259.356 2173.75 253.893 L2177.45 253.893 Z" fill="#000000" fill-rule="evenodd" fill-opacity="1" /><path clip-path="url(#clip790)" d="M2207.26 263.939 L2197.89 276.555 L2207.75 289.865 L2202.73 289.865 L2195.18 279.68 L2187.63 289.865 L2182.61 289.865 L2192.68 276.3 L2183.47 263.939 L2188.49 263.939 L2195.37 273.175 L2202.24 263.939 L2207.26 263.939 Z" fill="#000000" fill-rule="evenodd" fill-opacity="1" /><path clip-path="url(#clip790)" d="M2213.1 253.893 L2216.8 253.893 Q2220.27 259.356 2221.99 264.587 Q2223.72 269.818 2223.72 274.98 Q2223.72 280.166 2221.99 285.42 Q2220.27 290.675 2216.8 296.115 L2213.1 296.115 Q2216.18 290.814 2217.68 285.582 Q2219.21 280.328 2219.21 274.98 Q2219.21 269.633 2217.68 264.425 Q2216.18 259.217 2213.1 253.893 Z" fill="#000000" fill-rule="evenodd" fill-opacity="1" /><circle clip-path="url(#clip790)" cx="2039.91" cy="324.425" r="23" fill="#00bfff" fill-rule="evenodd" fill-opacity="1" stroke="#000000" stroke-opacity="1" stroke-width="6.82667"/>
<path clip-path="url(#clip790)" d="M2155.39 316.543 L2155.39 320.571 Q2153.58 319.645 2151.64 319.182 Q2149.69 318.719 2147.61 318.719 Q2144.44 318.719 2142.84 319.691 Q2141.27 320.663 2141.27 322.608 Q2141.27 324.089 2142.4 324.945 Q2143.54 325.779 2146.96 326.543 L2148.42 326.867 Q2152.96 327.839 2154.86 329.621 Q2156.78 331.381 2156.78 334.552 Q2156.78 338.163 2153.91 340.269 Q2151.06 342.376 2146.06 342.376 Q2143.98 342.376 2141.71 341.959 Q2139.46 341.566 2136.96 340.756 L2136.96 336.357 Q2139.32 337.584 2141.62 338.209 Q2143.91 338.811 2146.15 338.811 Q2149.16 338.811 2150.78 337.793 Q2152.4 336.751 2152.4 334.876 Q2152.4 333.14 2151.22 332.214 Q2150.06 331.288 2146.11 330.432 L2144.63 330.084 Q2140.67 329.251 2138.91 327.538 Q2137.15 325.802 2137.15 322.793 Q2137.15 319.135 2139.74 317.145 Q2142.33 315.154 2147.1 315.154 Q2149.46 315.154 2151.55 315.501 Q2153.63 315.848 2155.39 316.543 Z" fill="#000000" fill-rule="evenodd" fill-opacity="1" /><path clip-path="url(#clip790)" d="M2175.34 328.672 Q2170.18 328.672 2168.19 329.853 Q2166.2 331.033 2166.2 333.881 Q2166.2 336.149 2167.68 337.492 Q2169.19 338.811 2171.75 338.811 Q2175.3 338.811 2177.43 336.311 Q2179.58 333.788 2179.58 329.621 L2179.58 328.672 L2175.34 328.672 M2183.84 326.913 L2183.84 341.705 L2179.58 341.705 L2179.58 337.769 Q2178.12 340.131 2175.94 341.265 Q2173.77 342.376 2170.62 342.376 Q2166.64 342.376 2164.28 340.154 Q2161.94 337.908 2161.94 334.158 Q2161.94 329.783 2164.86 327.561 Q2167.8 325.339 2173.61 325.339 L2179.58 325.339 L2179.58 324.922 Q2179.58 321.983 2177.63 320.385 Q2175.71 318.765 2172.22 318.765 Q2170 318.765 2167.89 319.297 Q2165.78 319.83 2163.84 320.895 L2163.84 316.959 Q2166.18 316.057 2168.37 315.617 Q2170.57 315.154 2172.66 315.154 Q2178.28 315.154 2181.06 318.071 Q2183.84 320.987 2183.84 326.913 Z" fill="#000000" fill-rule="evenodd" fill-opacity="1" /><path clip-path="url(#clip790)" d="M2212.8 320.756 Q2214.39 317.885 2216.62 316.52 Q2218.84 315.154 2221.85 315.154 Q2225.9 315.154 2228.1 318.001 Q2230.3 320.825 2230.3 326.057 L2230.3 341.705 L2226.01 341.705 L2226.01 326.195 Q2226.01 322.469 2224.69 320.663 Q2223.37 318.858 2220.67 318.858 Q2217.36 318.858 2215.43 321.057 Q2213.51 323.256 2213.51 327.052 L2213.51 341.705 L2209.23 341.705 L2209.23 326.195 Q2209.23 322.445 2207.91 320.663 Q2206.59 318.858 2203.84 318.858 Q2200.57 318.858 2198.65 321.08 Q2196.73 323.279 2196.73 327.052 L2196.73 341.705 L2192.45 341.705 L2192.45 315.779 L2196.73 315.779 L2196.73 319.807 Q2198.19 317.422 2200.23 316.288 Q2202.26 315.154 2205.06 315.154 Q2207.89 315.154 2209.86 316.589 Q2211.85 318.024 2212.8 320.756 Z" fill="#000000" fill-rule="evenodd" fill-opacity="1" /><path clip-path="url(#clip790)" d="M2242.91 337.816 L2242.91 351.566 L2238.63 351.566 L2238.63 315.779 L2242.91 315.779 L2242.91 319.714 Q2244.25 317.399 2246.29 316.288 Q2248.35 315.154 2251.2 315.154 Q2255.92 315.154 2258.86 318.904 Q2261.82 322.654 2261.82 328.765 Q2261.82 334.876 2258.86 338.626 Q2255.92 342.376 2251.2 342.376 Q2248.35 342.376 2246.29 341.265 Q2244.25 340.131 2242.91 337.816 M2257.4 328.765 Q2257.4 324.066 2255.46 321.404 Q2253.54 318.719 2250.16 318.719 Q2246.78 318.719 2244.83 321.404 Q2242.91 324.066 2242.91 328.765 Q2242.91 333.464 2244.83 336.149 Q2246.78 338.811 2250.16 338.811 Q2253.54 338.811 2255.46 336.149 Q2257.4 333.464 2257.4 328.765 Z" fill="#000000" fill-rule="evenodd" fill-opacity="1" /><path clip-path="url(#clip790)" d="M2268.88 305.686 L2273.14 305.686 L2273.14 341.705 L2268.88 341.705 L2268.88 305.686 Z" fill="#000000" fill-rule="evenodd" fill-opacity="1" /><path clip-path="url(#clip790)" d="M2304.23 327.677 L2304.23 329.76 L2284.65 329.76 Q2284.93 334.158 2287.29 336.473 Q2289.67 338.765 2293.91 338.765 Q2296.36 338.765 2298.65 338.163 Q2300.97 337.561 2303.24 336.357 L2303.24 340.385 Q2300.94 341.357 2298.54 341.867 Q2296.13 342.376 2293.65 342.376 Q2287.45 342.376 2283.81 338.765 Q2280.2 335.154 2280.2 328.996 Q2280.2 322.631 2283.63 318.904 Q2287.08 315.154 2292.91 315.154 Q2298.14 315.154 2301.18 318.533 Q2304.23 321.89 2304.23 327.677 M2299.97 326.427 Q2299.93 322.932 2298 320.848 Q2296.11 318.765 2292.96 318.765 Q2289.39 318.765 2287.24 320.779 Q2285.11 322.793 2284.79 326.45 L2299.97 326.427 Z" fill="#000000" fill-rule="evenodd" fill-opacity="1" /><circle clip-path="url(#clip790)" cx="2039.91" cy="376.265" r="23" fill="#0000ff" fill-rule="evenodd" fill-opacity="1" stroke="#000000" stroke-opacity="1" stroke-width="6.82667"/>
<path clip-path="url(#clip790)" d="M2144.37 360.258 L2144.37 367.619 L2153.14 367.619 L2153.14 370.929 L2144.37 370.929 L2144.37 385.003 Q2144.37 388.174 2145.23 389.077 Q2146.11 389.98 2148.77 389.98 L2153.14 389.98 L2153.14 393.545 L2148.77 393.545 Q2143.84 393.545 2141.96 391.716 Q2140.09 389.864 2140.09 385.003 L2140.09 370.929 L2136.96 370.929 L2136.96 367.619 L2140.09 367.619 L2140.09 360.258 L2144.37 360.258 Z" fill="#000000" fill-rule="evenodd" fill-opacity="1" /><path clip-path="url(#clip790)" d="M2173.77 371.6 Q2173.05 371.184 2172.19 370.998 Q2171.36 370.79 2170.34 370.79 Q2166.73 370.79 2164.79 373.151 Q2162.87 375.489 2162.87 379.887 L2162.87 393.545 L2158.58 393.545 L2158.58 367.619 L2162.87 367.619 L2162.87 371.647 Q2164.21 369.286 2166.36 368.151 Q2168.51 366.994 2171.59 366.994 Q2172.03 366.994 2172.56 367.063 Q2173.1 367.11 2173.75 367.225 L2173.77 371.6 Z" fill="#000000" fill-rule="evenodd" fill-opacity="1" /><path clip-path="url(#clip790)" d="M2177.8 383.313 L2177.8 367.619 L2182.06 367.619 L2182.06 383.151 Q2182.06 386.832 2183.49 388.684 Q2184.93 390.512 2187.8 390.512 Q2191.25 390.512 2193.24 388.313 Q2195.25 386.114 2195.25 382.318 L2195.25 367.619 L2199.51 367.619 L2199.51 393.545 L2195.25 393.545 L2195.25 389.563 Q2193.7 391.924 2191.64 393.082 Q2189.6 394.216 2186.89 394.216 Q2182.43 394.216 2180.11 391.438 Q2177.8 388.66 2177.8 383.313 M2188.51 366.994 L2188.51 366.994 Z" fill="#000000" fill-rule="evenodd" fill-opacity="1" /><path clip-path="url(#clip790)" d="M2230.46 379.517 L2230.46 381.6 L2210.87 381.6 Q2211.15 385.998 2213.51 388.313 Q2215.9 390.605 2220.13 390.605 Q2222.59 390.605 2224.88 390.003 Q2227.19 389.401 2229.46 388.197 L2229.46 392.225 Q2227.17 393.197 2224.76 393.707 Q2222.36 394.216 2219.88 394.216 Q2213.68 394.216 2210.04 390.605 Q2206.43 386.994 2206.43 380.836 Q2206.43 374.471 2209.86 370.744 Q2213.31 366.994 2219.14 366.994 Q2224.37 366.994 2227.4 370.373 Q2230.46 373.73 2230.46 379.517 M2226.2 378.267 Q2226.15 374.772 2224.23 372.688 Q2222.33 370.605 2219.18 370.605 Q2215.62 370.605 2213.47 372.619 Q2211.34 374.633 2211.01 378.29 L2226.2 378.267 Z" fill="#000000" fill-rule="evenodd" fill-opacity="1" /><circle clip-path="url(#clip790)" cx="2039.91" cy="428.105" r="23" fill="#ff0000" fill-rule="evenodd" fill-opacity="1" stroke="#000000" stroke-opacity="1" stroke-width="6.82667"/>
<path clip-path="url(#clip790)" d="M2150.37 432.352 Q2145.2 432.352 2143.21 433.533 Q2141.22 434.713 2141.22 437.561 Q2141.22 439.829 2142.7 441.172 Q2144.21 442.491 2146.78 442.491 Q2150.32 442.491 2152.45 439.991 Q2154.6 437.468 2154.6 433.301 L2154.6 432.352 L2150.37 432.352 M2158.86 430.593 L2158.86 445.385 L2154.6 445.385 L2154.6 441.449 Q2153.14 443.811 2150.97 444.945 Q2148.79 446.056 2145.64 446.056 Q2141.66 446.056 2139.3 443.834 Q2136.96 441.588 2136.96 437.838 Q2136.96 433.463 2139.88 431.241 Q2142.82 429.019 2148.63 429.019 L2154.6 429.019 L2154.6 428.602 Q2154.6 425.663 2152.66 424.065 Q2150.74 422.445 2147.24 422.445 Q2145.02 422.445 2142.91 422.977 Q2140.81 423.51 2138.86 424.575 L2138.86 420.639 Q2141.2 419.737 2143.4 419.297 Q2145.6 418.834 2147.68 418.834 Q2153.31 418.834 2156.08 421.751 Q2158.86 424.667 2158.86 430.593 Z" fill="#000000" fill-rule="evenodd" fill-opacity="1" /><path clip-path="url(#clip790)" d="M2171.75 441.496 L2171.75 455.246 L2167.47 455.246 L2167.47 419.459 L2171.75 419.459 L2171.75 423.394 Q2173.1 421.079 2175.13 419.968 Q2177.19 418.834 2180.04 418.834 Q2184.76 418.834 2187.7 422.584 Q2190.67 426.334 2190.67 432.445 Q2190.67 438.556 2187.7 442.306 Q2184.76 446.056 2180.04 446.056 Q2177.19 446.056 2175.13 444.945 Q2173.1 443.811 2171.75 441.496 M2186.25 432.445 Q2186.25 427.746 2184.3 425.084 Q2182.38 422.399 2179 422.399 Q2175.62 422.399 2173.68 425.084 Q2171.75 427.746 2171.75 432.445 Q2171.75 437.144 2173.68 439.829 Q2175.62 442.491 2179 442.491 Q2182.38 442.491 2184.3 439.829 Q2186.25 437.144 2186.25 432.445 Z" fill="#000000" fill-rule="evenodd" fill-opacity="1" /><path clip-path="url(#clip790)" d="M2201.85 441.496 L2201.85 455.246 L2197.56 455.246 L2197.56 419.459 L2201.85 419.459 L2201.85 423.394 Q2203.19 421.079 2205.23 419.968 Q2207.29 418.834 2210.13 418.834 Q2214.86 418.834 2217.8 422.584 Q2220.76 426.334 2220.76 432.445 Q2220.76 438.556 2217.8 442.306 Q2214.86 446.056 2210.13 446.056 Q2207.29 446.056 2205.23 444.945 Q2203.19 443.811 2201.85 441.496 M2216.34 432.445 Q2216.34 427.746 2214.39 425.084 Q2212.47 422.399 2209.09 422.399 Q2205.71 422.399 2203.77 425.084 Q2201.85 427.746 2201.85 432.445 Q2201.85 437.144 2203.77 439.829 Q2205.71 442.491 2209.09 442.491 Q2212.47 442.491 2214.39 439.829 Q2216.34 437.144 2216.34 432.445 Z" fill="#000000" fill-rule="evenodd" fill-opacity="1" /><path clip-path="url(#clip790)" d="M2242.84 423.44 Q2242.12 423.024 2241.27 422.838 Q2240.43 422.63 2239.42 422.63 Q2235.81 422.63 2233.86 424.991 Q2231.94 427.329 2231.94 431.727 L2231.94 445.385 L2227.66 445.385 L2227.66 419.459 L2231.94 419.459 L2231.94 423.487 Q2233.28 421.126 2235.43 419.991 Q2237.59 418.834 2240.67 418.834 Q2241.11 418.834 2241.64 418.903 Q2242.17 418.95 2242.82 419.065 L2242.84 423.44 Z" fill="#000000" fill-rule="evenodd" fill-opacity="1" /><path clip-path="url(#clip790)" d="M2256.31 422.445 Q2252.89 422.445 2250.9 425.13 Q2248.91 427.792 2248.91 432.445 Q2248.91 437.098 2250.87 439.783 Q2252.87 442.445 2256.31 442.445 Q2259.72 442.445 2261.71 439.76 Q2263.7 437.075 2263.7 432.445 Q2263.7 427.838 2261.71 425.153 Q2259.72 422.445 2256.31 422.445 M2256.31 418.834 Q2261.87 418.834 2265.04 422.445 Q2268.21 426.056 2268.21 432.445 Q2268.21 438.811 2265.04 442.445 Q2261.87 446.056 2256.31 446.056 Q2250.74 446.056 2247.56 442.445 Q2244.42 438.811 2244.42 432.445 Q2244.42 426.056 2247.56 422.445 Q2250.74 418.834 2256.31 418.834 Z" fill="#000000" fill-rule="evenodd" fill-opacity="1" /><path clip-path="url(#clip790)" d="M2295.36 419.459 L2285.99 432.075 L2295.85 445.385 L2290.83 445.385 L2283.28 435.2 L2275.74 445.385 L2270.71 445.385 L2280.78 431.82 L2271.57 419.459 L2276.59 419.459 L2283.47 428.695 L2290.34 419.459 L2295.36 419.459 Z" fill="#000000" fill-rule="evenodd" fill-opacity="1" /><path clip-path="url(#clip790)" d="M1804.36 784.436 Q1804.36 786.69 1802.92 788.084 Q1801.53 789.478 1799.76 789.478 Q1798.49 789.478 1797.55 788.699 Q1796.65 787.92 1796.65 786.567 Q1796.65 785.174 1797.72 783.698 Q1798.78 782.223 1801.2 782.018 Q1799.6 780.501 1797.06 780.501 Q1795.79 780.501 1794.72 781.321 Q1793.7 782.1 1793.12 783.37 Q1792.51 784.682 1791.12 792.101 Q1790.66 794.519 1790.26 796.856 Q1789.85 799.192 1789.35 801.652 L1796.32 801.652 Q1797.22 801.652 1797.59 801.693 Q1797.96 801.734 1798.25 801.938 Q1798.58 802.143 1798.58 802.594 Q1798.58 803.742 1798.04 804.029 Q1797.55 804.275 1796.08 804.275 L1788.86 804.275 L1783.82 830.877 Q1783.7 831.656 1783.16 834.115 Q1782.67 836.533 1781.48 840.509 Q1780.29 844.526 1779.11 846.904 Q1778.45 848.256 1777.59 849.527 Q1776.77 850.839 1775.58 852.15 Q1774.39 853.462 1772.83 854.241 Q1771.28 855.061 1769.64 855.061 Q1766.85 855.061 1764.68 853.503 Q1762.51 851.945 1762.51 849.281 Q1762.51 847.027 1763.9 845.633 Q1765.33 844.239 1767.1 844.239 Q1768.37 844.239 1769.27 845.018 Q1770.21 845.797 1770.21 847.15 Q1770.21 847.723 1770.01 848.379 Q1769.8 849.035 1769.35 849.773 Q1768.9 850.552 1767.92 851.085 Q1766.93 851.617 1765.58 851.699 Q1767.18 853.216 1769.64 853.216 Q1770.42 853.216 1771.11 852.888 Q1771.81 852.601 1772.38 851.863 Q1773 851.126 1773.45 850.388 Q1773.9 849.691 1774.35 848.338 Q1774.8 847.027 1775.09 846.043 Q1775.38 845.059 1775.74 843.297 Q1776.15 841.534 1776.36 840.468 Q1776.56 839.444 1776.93 837.435 L1783.2 804.275 L1777.67 804.275 Q1776.69 804.275 1776.28 804.234 Q1775.91 804.193 1775.62 803.988 Q1775.33 803.742 1775.33 803.25 Q1775.33 802.471 1775.66 802.143 Q1776.03 801.774 1776.44 801.734 Q1776.85 801.652 1777.84 801.652 L1783.66 801.652 Q1785.62 791.281 1786.4 788.494 Q1787.3 785.543 1788.7 783.493 Q1790.09 781.403 1791.65 780.419 Q1793.21 779.435 1794.48 779.066 Q1795.79 778.657 1797.06 778.657 Q1799.93 778.657 1802.14 780.214 Q1804.36 781.731 1804.36 784.436 Z" fill="#000000" fill-rule="evenodd" fill-opacity="1" /><path clip-path="url(#clip790)" d="M1815.66 816.859 Q1815.66 802.676 1820.94 791.24 Q1823.2 786.445 1826.35 782.428 Q1829.51 778.411 1831.6 776.648 Q1833.69 774.886 1834.26 774.886 Q1835.08 774.886 1835.12 775.705 Q1835.12 776.115 1834.02 777.14 Q1820.49 790.912 1820.53 816.859 Q1820.53 842.887 1833.69 856.126 Q1835.12 857.561 1835.12 858.012 Q1835.12 858.832 1834.26 858.832 Q1833.69 858.832 1831.68 857.151 Q1829.67 855.47 1826.56 851.617 Q1823.44 847.764 1821.19 843.051 Q1815.66 831.615 1815.66 816.859 Z" fill="#000000" fill-rule="evenodd" fill-opacity="1" /><path clip-path="url(#clip790)" d="M1883.31 806.283 Q1883.31 808.579 1881.88 809.89 Q1880.44 811.161 1878.8 811.161 Q1877.25 811.161 1876.43 810.259 Q1875.61 809.358 1875.61 808.21 Q1875.61 806.652 1876.76 805.3 Q1877.9 803.947 1879.62 803.66 Q1877.94 802.594 1875.44 802.594 Q1873.8 802.594 1872.37 803.455 Q1870.98 804.316 1870.11 805.423 Q1869.3 806.529 1868.56 808.128 Q1867.86 809.685 1867.57 810.628 Q1867.33 811.53 1867.12 812.514 L1864.25 823.991 Q1862.86 829.442 1862.86 831.369 Q1862.86 833.746 1864.01 835.345 Q1865.16 836.902 1867.45 836.902 Q1868.35 836.902 1869.38 836.656 Q1870.4 836.369 1871.71 835.632 Q1873.07 834.853 1874.25 833.705 Q1875.48 832.516 1876.67 830.508 Q1877.86 828.5 1878.64 825.917 Q1878.89 825.015 1879.71 825.015 Q1880.73 825.015 1880.73 825.835 Q1880.73 826.532 1880.16 828.008 Q1879.62 829.442 1878.44 831.328 Q1877.29 833.172 1875.77 834.853 Q1874.25 836.492 1872 837.64 Q1869.75 838.788 1867.29 838.788 Q1863.76 838.788 1861.43 836.902 Q1859.09 835.017 1858.23 832.393 Q1858.02 832.762 1857.74 833.254 Q1857.45 833.746 1856.59 834.853 Q1855.77 835.919 1854.83 836.738 Q1853.88 837.517 1852.41 838.132 Q1850.97 838.788 1849.42 838.788 Q1847.45 838.788 1845.69 838.214 Q1843.96 837.64 1842.73 836.328 Q1841.5 835.017 1841.5 833.213 Q1841.5 831.205 1842.86 829.811 Q1844.25 828.377 1846.14 828.377 Q1847.32 828.377 1848.27 829.073 Q1849.25 829.77 1849.25 831.287 Q1849.25 832.967 1848.1 834.238 Q1846.96 835.509 1845.32 835.837 Q1847 836.902 1849.5 836.902 Q1852.2 836.902 1854.33 834.525 Q1856.47 832.148 1857.49 828.172 Q1860.03 818.621 1861.02 814.358 Q1862 810.054 1862 808.21 Q1862 806.488 1861.55 805.3 Q1861.1 804.111 1860.32 803.578 Q1859.58 803.004 1858.88 802.799 Q1858.23 802.594 1857.49 802.594 Q1856.26 802.594 1854.87 803.086 Q1853.51 803.578 1851.87 804.726 Q1850.28 805.832 1848.76 808.128 Q1847.24 810.423 1846.22 813.579 Q1846.01 814.522 1845.11 814.522 Q1844.13 814.481 1844.13 813.661 Q1844.13 812.965 1844.66 811.53 Q1845.23 810.054 1846.38 808.21 Q1847.57 806.365 1849.09 804.726 Q1850.64 803.045 1852.9 801.897 Q1855.19 800.75 1857.65 800.75 Q1858.76 800.75 1859.83 800.996 Q1860.93 801.201 1862.24 801.815 Q1863.6 802.43 1864.79 803.783 Q1865.97 805.136 1866.71 807.103 Q1867.2 806.16 1867.86 805.259 Q1868.56 804.357 1869.62 803.25 Q1870.73 802.102 1872.25 801.447 Q1873.8 800.75 1875.53 800.75 Q1877.21 800.75 1878.85 801.201 Q1880.49 801.611 1881.88 802.963 Q1883.31 804.275 1883.31 806.283 Z" fill="#000000" fill-rule="evenodd" fill-opacity="1" /><path clip-path="url(#clip790)" d="M1891.39 858.012 Q1891.39 857.602 1892.46 856.577 Q1905.99 842.805 1905.99 816.859 Q1905.99 790.83 1892.99 777.673 Q1891.39 776.156 1891.39 775.705 Q1891.39 774.886 1892.21 774.886 Q1892.79 774.886 1894.8 776.566 Q1896.85 778.247 1899.92 782.1 Q1903.04 785.953 1905.33 790.666 Q1910.86 802.102 1910.86 816.859 Q1910.86 831.041 1905.58 842.477 Q1903.32 847.273 1900.17 851.29 Q1897.01 855.306 1894.92 857.069 Q1892.83 858.832 1892.21 858.832 Q1891.39 858.832 1891.39 858.012 Z" fill="#000000" fill-rule="evenodd" fill-opacity="1" /><path clip-path="url(#clip790)" d="M1946.92 825.097 Q1947 824.073 1948.6 824.073 L2000.04 824.073 Q2002.46 824.073 2002.5 825.015 Q2002.5 826.04 2000.2 825.999 L1949.17 825.999 Q1946.92 826.04 1946.92 825.097 M1946.92 808.702 Q1946.92 807.677 1948.68 807.718 L1999.96 807.718 Q2002.46 807.718 2002.5 808.702 Q2002.5 809.644 2000.37 809.644 L1948.6 809.644 Q1946.92 809.644 1946.92 808.702 Z" fill="#000000" fill-rule="evenodd" fill-opacity="1" /><path clip-path="url(#clip790)" d="M2066.81 828.131 Q2067.14 828.5 2067.14 828.868 Q2067.14 829.237 2066.32 830.303 Q2065.54 831.369 2063.86 832.803 Q2062.18 834.238 2060 835.591 Q2057.83 836.943 2054.63 837.845 Q2051.44 838.788 2048.08 838.788 Q2042.05 838.788 2038.44 834.484 Q2034.88 830.18 2034.88 823.581 Q2034.88 819.359 2036.27 815.629 Q2037.67 811.858 2039.92 809.194 Q2042.21 806.529 2045.08 804.603 Q2047.99 802.635 2051.03 801.693 Q2054.06 800.75 2056.89 800.75 Q2061.03 800.75 2063.45 802.84 Q2065.87 804.931 2065.87 807.882 Q2065.87 808.579 2065.66 809.439 Q2065.5 810.3 2064.92 811.653 Q2064.39 813.006 2063 814.358 Q2061.6 815.67 2059.55 816.531 Q2055 818.457 2046.72 818.457 L2042.26 818.457 Q2040.94 823.745 2040.94 827.188 Q2040.94 828.54 2041.19 829.934 Q2041.44 831.287 2042.09 833.008 Q2042.79 834.73 2044.35 835.837 Q2045.94 836.902 2048.24 836.902 Q2048.98 836.902 2049.76 836.861 Q2050.58 836.82 2052.63 836.369 Q2054.72 835.919 2056.56 835.14 Q2058.41 834.361 2060.74 832.68 Q2063.12 830.959 2065.01 828.622 Q2065.66 827.762 2066.11 827.762 Q2066.48 827.762 2066.81 828.131 M2063.08 807.882 Q2063.08 805.627 2061.4 804.111 Q2059.76 802.594 2056.89 802.594 Q2055.99 802.594 2054.88 802.799 Q2053.77 803.004 2051.93 803.865 Q2050.13 804.726 2048.53 806.16 Q2046.93 807.554 2045.33 810.3 Q2043.73 813.006 2042.79 816.613 L2046.23 816.613 Q2047.42 816.613 2048.28 816.613 Q2049.14 816.572 2051.03 816.408 Q2052.95 816.244 2054.35 815.957 Q2055.74 815.629 2057.5 814.973 Q2059.27 814.317 2060.37 813.456 Q2061.52 812.555 2062.3 811.12 Q2063.08 809.685 2063.08 807.882 Z" fill="#000000" fill-rule="evenodd" fill-opacity="1" /><path clip-path="url(#clip790)" d="M2105.04 786.075 Q2105.04 787.682 2104.04 788.6 Q2103.03 789.49 2101.89 789.49 Q2100.8 789.49 2100.22 788.859 Q2099.65 788.227 2099.65 787.424 Q2099.65 786.334 2100.45 785.387 Q2101.25 784.44 2102.46 784.239 Q2101.28 783.493 2099.53 783.493 Q2098.39 783.493 2097.38 784.096 Q2096.41 784.698 2095.8 785.473 Q2095.23 786.248 2094.71 787.367 Q2094.22 788.457 2094.02 789.117 Q2093.85 789.748 2093.71 790.437 L2091.7 798.471 Q2090.72 802.287 2090.72 803.635 Q2090.72 805.299 2091.53 806.418 Q2092.33 807.509 2093.94 807.509 Q2094.57 807.509 2095.29 807.337 Q2096 807.136 2096.92 806.619 Q2097.87 806.074 2098.7 805.271 Q2099.56 804.439 2100.39 803.033 Q2101.23 801.627 2101.77 799.819 Q2101.94 799.188 2102.52 799.188 Q2103.23 799.188 2103.23 799.762 Q2103.23 800.25 2102.83 801.282 Q2102.46 802.287 2101.63 803.607 Q2100.82 804.898 2099.76 806.074 Q2098.7 807.222 2097.12 808.025 Q2095.54 808.829 2093.82 808.829 Q2091.36 808.829 2089.72 807.509 Q2088.08 806.189 2087.48 804.353 Q2087.34 804.611 2087.14 804.955 Q2086.94 805.299 2086.33 806.074 Q2085.76 806.82 2085.1 807.394 Q2084.44 807.939 2083.41 808.37 Q2082.4 808.829 2081.31 808.829 Q2079.94 808.829 2078.7 808.427 Q2077.5 808.025 2076.64 807.107 Q2075.78 806.189 2075.78 804.926 Q2075.78 803.52 2076.72 802.545 Q2077.7 801.541 2079.02 801.541 Q2079.85 801.541 2080.51 802.028 Q2081.2 802.516 2081.2 803.578 Q2081.2 804.754 2080.39 805.644 Q2079.59 806.533 2078.44 806.763 Q2079.62 807.509 2081.37 807.509 Q2083.26 807.509 2084.76 805.845 Q2086.25 804.18 2086.97 801.397 Q2088.74 794.712 2089.43 791.728 Q2090.12 788.715 2090.12 787.424 Q2090.12 786.219 2089.81 785.387 Q2089.49 784.555 2088.95 784.182 Q2088.43 783.78 2087.94 783.637 Q2087.48 783.493 2086.97 783.493 Q2086.1 783.493 2085.13 783.837 Q2084.18 784.182 2083.03 784.985 Q2081.92 785.76 2080.85 787.367 Q2079.79 788.973 2079.08 791.183 Q2078.93 791.843 2078.3 791.843 Q2077.61 791.814 2077.61 791.24 Q2077.61 790.752 2077.98 789.748 Q2078.39 788.715 2079.19 787.424 Q2080.02 786.133 2081.08 784.985 Q2082.17 783.809 2083.75 783.005 Q2085.36 782.202 2087.08 782.202 Q2087.85 782.202 2088.6 782.374 Q2089.38 782.518 2090.29 782.948 Q2091.24 783.378 2092.07 784.325 Q2092.9 785.272 2093.42 786.649 Q2093.77 785.989 2094.22 785.358 Q2094.71 784.727 2095.46 783.952 Q2096.23 783.149 2097.29 782.69 Q2098.39 782.202 2099.59 782.202 Q2100.77 782.202 2101.91 782.518 Q2103.06 782.804 2104.04 783.751 Q2105.04 784.67 2105.04 786.075 Z" fill="#000000" fill-rule="evenodd" fill-opacity="1" /></svg>
