<?xml version="1.0" encoding="utf-8"?>
<svg xmlns="http://www.w3.org/2000/svg" xmlns:xlink="http://www.w3.org/1999/xlink" width="600" height="400" viewBox="0 0 2400 1600">
<defs>
  <clipPath id="clip830">
    <rect x="0" y="0" width="2400" height="1600"/>
  </clipPath>
</defs>
<path clip-path="url(#clip830)" d="
M0 1600 L2400 1600 L2400 0 L0 0  Z
  " fill="#ffffff" fill-rule="evenodd" fill-opacity="1"/>
<defs>
  <clipPath id="clip831">
    <rect x="480" y="0" width="1681" height="1600"/>
  </clipPath>
</defs>
<path clip-path="url(#clip830)" d="
M169.121 1486.45 L1870.07 1486.45 L1870.07 123.472 L169.121 123.472  Z
  " fill="#ffffff" fill-rule="evenodd" fill-opacity="1"/>
<defs>
  <clipPath id="clip832">
    <rect x="169" y="123" width="1702" height="1364"/>
  </clipPath>
</defs>
<polyline clip-path="url(#clip832)" style="stroke:#000000; stroke-linecap:butt; stroke-linejoin:round; stroke-width:2; stroke-opacity:0.1; fill:none" points="
  402.416,1486.45 402.416,123.472 
  "/>
<polyline clip-path="url(#clip832)" style="stroke:#000000; stroke-linecap:butt; stroke-linejoin:round; stroke-width:2; stroke-opacity:0.1; fill:none" points="
  711.007,1486.45 711.007,123.472 
  "/>
<polyline clip-path="url(#clip832)" style="stroke:#000000; stroke-linecap:butt; stroke-linejoin:round; stroke-width:2; stroke-opacity:0.1; fill:none" points="
  1019.6,1486.45 1019.6,123.472 
  "/>
<polyline clip-path="url(#clip832)" style="stroke:#000000; stroke-linecap:butt; stroke-linejoin:round; stroke-width:2; stroke-opacity:0.1; fill:none" points="
  1328.19,1486.45 1328.19,123.472 
  "/>
<polyline clip-path="url(#clip832)" style="stroke:#000000; stroke-linecap:butt; stroke-linejoin:round; stroke-width:2; stroke-opacity:0.1; fill:none" points="
  1636.78,1486.45 1636.78,123.472 
  "/>
<polyline clip-path="url(#clip830)" style="stroke:#000000; stroke-linecap:butt; stroke-linejoin:round; stroke-width:4; stroke-opacity:1; fill:none" points="
  169.121,1486.45 1870.07,1486.45 
  "/>
<polyline clip-path="url(#clip830)" style="stroke:#000000; stroke-linecap:butt; stroke-linejoin:round; stroke-width:4; stroke-opacity:1; fill:none" points="
  402.416,1486.45 402.416,1467.55 
  "/>
<polyline clip-path="url(#clip830)" style="stroke:#000000; stroke-linecap:butt; stroke-linejoin:round; stroke-width:4; stroke-opacity:1; fill:none" points="
  711.007,1486.45 711.007,1467.55 
  "/>
<polyline clip-path="url(#clip830)" style="stroke:#000000; stroke-linecap:butt; stroke-linejoin:round; stroke-width:4; stroke-opacity:1; fill:none" points="
  1019.6,1486.45 1019.6,1467.55 
  "/>
<polyline clip-path="url(#clip830)" style="stroke:#000000; stroke-linecap:butt; stroke-linejoin:round; stroke-width:4; stroke-opacity:1; fill:none" points="
  1328.19,1486.45 1328.19,1467.55 
  "/>
<polyline clip-path="url(#clip830)" style="stroke:#000000; stroke-linecap:butt; stroke-linejoin:round; stroke-width:4; stroke-opacity:1; fill:none" points="
  1636.78,1486.45 1636.78,1467.55 
  "/>
<path clip-path="url(#clip830)" d="M371.317 1532.02 L400.992 1532.02 L400.992 1535.95 L371.317 1535.95 L371.317 1532.02 Z" fill="#000000" fill-rule="evenodd" fill-opacity="1" /><path clip-path="url(#clip830)" d="M423.932 1518.36 L412.127 1536.81 L423.932 1536.81 L423.932 1518.36 M422.705 1514.29 L428.585 1514.29 L428.585 1536.81 L433.515 1536.81 L433.515 1540.7 L428.585 1540.7 L428.585 1548.85 L423.932 1548.85 L423.932 1540.7 L408.33 1540.7 L408.33 1536.19 L422.705 1514.29 Z" fill="#000000" fill-rule="evenodd" fill-opacity="1" /><path clip-path="url(#clip830)" d="M680.949 1532.02 L710.625 1532.02 L710.625 1535.95 L680.949 1535.95 L680.949 1532.02 Z" fill="#000000" fill-rule="evenodd" fill-opacity="1" /><path clip-path="url(#clip830)" d="M724.745 1544.91 L741.065 1544.91 L741.065 1548.85 L719.12 1548.85 L719.12 1544.91 Q721.782 1542.16 726.366 1537.53 Q730.972 1532.88 732.153 1531.53 Q734.398 1529.01 735.278 1527.27 Q736.18 1525.51 736.18 1523.82 Q736.18 1521.07 734.236 1519.33 Q732.315 1517.6 729.213 1517.6 Q727.014 1517.6 724.56 1518.36 Q722.13 1519.13 719.352 1520.68 L719.352 1515.95 Q722.176 1514.82 724.63 1514.24 Q727.083 1513.66 729.12 1513.66 Q734.491 1513.66 737.685 1516.35 Q740.879 1519.03 740.879 1523.52 Q740.879 1525.65 740.069 1527.57 Q739.282 1529.47 737.176 1532.07 Q736.597 1532.74 733.495 1535.95 Q730.393 1539.15 724.745 1544.91 Z" fill="#000000" fill-rule="evenodd" fill-opacity="1" /><path clip-path="url(#clip830)" d="M1019.6 1517.37 Q1015.99 1517.37 1014.16 1520.93 Q1012.35 1524.47 1012.35 1531.6 Q1012.35 1538.71 1014.16 1542.27 Q1015.99 1545.82 1019.6 1545.82 Q1023.23 1545.82 1025.04 1542.27 Q1026.87 1538.71 1026.87 1531.6 Q1026.87 1524.47 1025.04 1520.93 Q1023.23 1517.37 1019.6 1517.37 M1019.6 1513.66 Q1025.41 1513.66 1028.46 1518.27 Q1031.54 1522.85 1031.54 1531.6 Q1031.54 1540.33 1028.46 1544.94 Q1025.41 1549.52 1019.6 1549.52 Q1013.79 1549.52 1010.71 1544.94 Q1007.65 1540.33 1007.65 1531.6 Q1007.65 1522.85 1010.71 1518.27 Q1013.79 1513.66 1019.6 1513.66 Z" fill="#000000" fill-rule="evenodd" fill-opacity="1" /><path clip-path="url(#clip830)" d="M1322.84 1544.91 L1339.16 1544.91 L1339.16 1548.85 L1317.22 1548.85 L1317.22 1544.91 Q1319.88 1542.16 1324.46 1537.53 Q1329.07 1532.88 1330.25 1531.53 Q1332.49 1529.01 1333.37 1527.27 Q1334.28 1525.51 1334.28 1523.82 Q1334.28 1521.07 1332.33 1519.33 Q1330.41 1517.6 1327.31 1517.6 Q1325.11 1517.6 1322.66 1518.36 Q1320.23 1519.13 1317.45 1520.68 L1317.45 1515.95 Q1320.27 1514.82 1322.73 1514.24 Q1325.18 1513.66 1327.22 1513.66 Q1332.59 1513.66 1335.78 1516.35 Q1338.98 1519.03 1338.98 1523.52 Q1338.98 1525.65 1338.17 1527.57 Q1337.38 1529.47 1335.27 1532.07 Q1334.69 1532.74 1331.59 1535.95 Q1328.49 1539.15 1322.84 1544.91 Z" fill="#000000" fill-rule="evenodd" fill-opacity="1" /><path clip-path="url(#clip830)" d="M1639.79 1518.36 L1627.98 1536.81 L1639.79 1536.81 L1639.79 1518.36 M1638.56 1514.29 L1644.44 1514.29 L1644.44 1536.81 L1649.37 1536.81 L1649.37 1540.7 L1644.44 1540.7 L1644.44 1548.85 L1639.79 1548.85 L1639.79 1540.7 L1624.19 1540.7 L1624.19 1536.19 L1638.56 1514.29 Z" fill="#000000" fill-rule="evenodd" fill-opacity="1" /><polyline clip-path="url(#clip832)" style="stroke:#000000; stroke-linecap:butt; stroke-linejoin:round; stroke-width:2; stroke-opacity:0.1; fill:none" points="
  169.121,1447.86 1870.07,1447.86 
  "/>
<polyline clip-path="url(#clip832)" style="stroke:#000000; stroke-linecap:butt; stroke-linejoin:round; stroke-width:2; stroke-opacity:0.1; fill:none" points="
  169.121,1093.2 1870.07,1093.2 
  "/>
<polyline clip-path="url(#clip832)" style="stroke:#000000; stroke-linecap:butt; stroke-linejoin:round; stroke-width:2; stroke-opacity:0.1; fill:none" points="
  169.121,738.533 1870.07,738.533 
  "/>
<polyline clip-path="url(#clip832)" style="stroke:#000000; stroke-linecap:butt; stroke-linejoin:round; stroke-width:2; stroke-opacity:0.1; fill:none" points="
  169.121,383.869 1870.07,383.869 
  "/>
<polyline clip-path="url(#clip830)" style="stroke:#000000; stroke-linecap:butt; stroke-linejoin:round; stroke-width:4; stroke-opacity:1; fill:none" points="
  169.121,1486.45 169.121,123.472 
  "/>
<polyline clip-path="url(#clip830)" style="stroke:#000000; stroke-linecap:butt; stroke-linejoin:round; stroke-width:4; stroke-opacity:1; fill:none" points="
  169.121,1447.86 183.842,1447.86 
  "/>
<polyline clip-path="url(#clip830)" style="stroke:#000000; stroke-linecap:butt; stroke-linejoin:round; stroke-width:4; stroke-opacity:1; fill:none" points="
  169.121,1093.2 183.842,1093.2 
  "/>
<polyline clip-path="url(#clip830)" style="stroke:#000000; stroke-linecap:butt; stroke-linejoin:round; stroke-width:4; stroke-opacity:1; fill:none" points="
  169.121,738.533 183.842,738.533 
  "/>
<polyline clip-path="url(#clip830)" style="stroke:#000000; stroke-linecap:butt; stroke-linejoin:round; stroke-width:4; stroke-opacity:1; fill:none" points="
  169.121,383.869 183.842,383.869 
  "/>
<path clip-path="url(#clip830)" d="M121.177 1433.66 Q117.566 1433.66 115.737 1437.22 Q113.932 1440.76 113.932 1447.89 Q113.932 1455 115.737 1458.57 Q117.566 1462.11 121.177 1462.11 Q124.811 1462.11 126.617 1458.57 Q128.445 1455 128.445 1447.89 Q128.445 1440.76 126.617 1437.22 Q124.811 1433.66 121.177 1433.66 M121.177 1429.95 Q126.987 1429.95 130.043 1434.56 Q133.121 1439.14 133.121 1447.89 Q133.121 1456.62 130.043 1461.23 Q126.987 1465.81 121.177 1465.81 Q115.367 1465.81 112.288 1461.23 Q109.233 1456.62 109.233 1447.89 Q109.233 1439.14 112.288 1434.56 Q115.367 1429.95 121.177 1429.95 Z" fill="#000000" fill-rule="evenodd" fill-opacity="1" /><path clip-path="url(#clip830)" d="M81.0614 1075.92 L99.4178 1075.92 L99.4178 1079.85 L85.3438 1079.85 L85.3438 1088.32 Q86.3623 1087.98 87.3808 1087.81 Q88.3993 1087.63 89.4178 1087.63 Q95.2049 1087.63 98.5845 1090.8 Q101.964 1093.97 101.964 1099.39 Q101.964 1104.97 98.4919 1108.07 Q95.0197 1111.15 88.7003 1111.15 Q86.5243 1111.15 84.2558 1110.78 Q82.0105 1110.41 79.6031 1109.67 L79.6031 1104.97 Q81.6864 1106.1 83.9086 1106.66 Q86.1308 1107.21 88.6077 1107.21 Q92.6123 1107.21 94.9502 1105.11 Q97.2882 1103 97.2882 1099.39 Q97.2882 1095.78 94.9502 1093.67 Q92.6123 1091.56 88.6077 1091.56 Q86.7327 1091.56 84.8577 1091.98 Q83.0058 1092.4 81.0614 1093.28 L81.0614 1075.92 Z" fill="#000000" fill-rule="evenodd" fill-opacity="1" /><path clip-path="url(#clip830)" d="M121.177 1078.99 Q117.566 1078.99 115.737 1082.56 Q113.932 1086.1 113.932 1093.23 Q113.932 1100.34 115.737 1103.9 Q117.566 1107.44 121.177 1107.44 Q124.811 1107.44 126.617 1103.9 Q128.445 1100.34 128.445 1093.23 Q128.445 1086.1 126.617 1082.56 Q124.811 1078.99 121.177 1078.99 M121.177 1075.29 Q126.987 1075.29 130.043 1079.9 Q133.121 1084.48 133.121 1093.23 Q133.121 1101.96 130.043 1106.56 Q126.987 1111.15 121.177 1111.15 Q115.367 1111.15 112.288 1106.56 Q109.233 1101.96 109.233 1093.23 Q109.233 1084.48 112.288 1079.9 Q115.367 1075.29 121.177 1075.29 Z" fill="#000000" fill-rule="evenodd" fill-opacity="1" /><path clip-path="url(#clip830)" d="M51.6634 751.877 L59.3023 751.877 L59.3023 725.512 L50.9921 727.178 L50.9921 722.919 L59.256 721.253 L63.9319 721.253 L63.9319 751.877 L71.5707 751.877 L71.5707 755.813 L51.6634 755.813 L51.6634 751.877 Z" fill="#000000" fill-rule="evenodd" fill-opacity="1" /><path clip-path="url(#clip830)" d="M91.0151 724.331 Q87.404 724.331 85.5753 727.896 Q83.7697 731.438 83.7697 738.567 Q83.7697 745.674 85.5753 749.239 Q87.404 752.78 91.0151 752.78 Q94.6493 752.78 96.4548 749.239 Q98.2835 745.674 98.2835 738.567 Q98.2835 731.438 96.4548 727.896 Q94.6493 724.331 91.0151 724.331 M91.0151 720.628 Q96.8252 720.628 99.8808 725.234 Q102.959 729.817 102.959 738.567 Q102.959 747.294 99.8808 751.901 Q96.8252 756.484 91.0151 756.484 Q85.2049 756.484 82.1262 751.901 Q79.0707 747.294 79.0707 738.567 Q79.0707 729.817 82.1262 725.234 Q85.2049 720.628 91.0151 720.628 Z" fill="#000000" fill-rule="evenodd" fill-opacity="1" /><path clip-path="url(#clip830)" d="M121.177 724.331 Q117.566 724.331 115.737 727.896 Q113.932 731.438 113.932 738.567 Q113.932 745.674 115.737 749.239 Q117.566 752.78 121.177 752.78 Q124.811 752.78 126.617 749.239 Q128.445 745.674 128.445 738.567 Q128.445 731.438 126.617 727.896 Q124.811 724.331 121.177 724.331 M121.177 720.628 Q126.987 720.628 130.043 725.234 Q133.121 729.817 133.121 738.567 Q133.121 747.294 130.043 751.901 Q126.987 756.484 121.177 756.484 Q115.367 756.484 112.288 751.901 Q109.233 747.294 109.233 738.567 Q109.233 729.817 112.288 725.234 Q115.367 720.628 121.177 720.628 Z" fill="#000000" fill-rule="evenodd" fill-opacity="1" /><path clip-path="url(#clip830)" d="M51.6634 397.214 L59.3023 397.214 L59.3023 370.848 L50.9921 372.515 L50.9921 368.256 L59.256 366.589 L63.9319 366.589 L63.9319 397.214 L71.5707 397.214 L71.5707 401.149 L51.6634 401.149 L51.6634 397.214 Z" fill="#000000" fill-rule="evenodd" fill-opacity="1" /><path clip-path="url(#clip830)" d="M81.0614 366.589 L99.4178 366.589 L99.4178 370.524 L85.3438 370.524 L85.3438 378.997 Q86.3623 378.649 87.3808 378.487 Q88.3993 378.302 89.4178 378.302 Q95.2049 378.302 98.5845 381.473 Q101.964 384.645 101.964 390.061 Q101.964 395.64 98.4919 398.742 Q95.0197 401.821 88.7003 401.821 Q86.5243 401.821 84.2558 401.45 Q82.0105 401.08 79.6031 400.339 L79.6031 395.64 Q81.6864 396.774 83.9086 397.33 Q86.1308 397.885 88.6077 397.885 Q92.6123 397.885 94.9502 395.779 Q97.2882 393.672 97.2882 390.061 Q97.2882 386.45 94.9502 384.344 Q92.6123 382.237 88.6077 382.237 Q86.7327 382.237 84.8577 382.654 Q83.0058 383.071 81.0614 383.95 L81.0614 366.589 Z" fill="#000000" fill-rule="evenodd" fill-opacity="1" /><path clip-path="url(#clip830)" d="M121.177 369.668 Q117.566 369.668 115.737 373.233 Q113.932 376.774 113.932 383.904 Q113.932 391.01 115.737 394.575 Q117.566 398.117 121.177 398.117 Q124.811 398.117 126.617 394.575 Q128.445 391.01 128.445 383.904 Q128.445 376.774 126.617 373.233 Q124.811 369.668 121.177 369.668 M121.177 365.964 Q126.987 365.964 130.043 370.571 Q133.121 375.154 133.121 383.904 Q133.121 392.631 130.043 397.237 Q126.987 401.821 121.177 401.821 Q115.367 401.821 112.288 397.237 Q109.233 392.631 109.233 383.904 Q109.233 375.154 112.288 370.571 Q115.367 365.964 121.177 365.964 Z" fill="#000000" fill-rule="evenodd" fill-opacity="1" /><path clip-path="url(#clip830)" d="M294.81 18.8205 L294.81 41.5461 L305.099 41.5461 Q310.811 41.5461 313.93 38.5889 Q317.05 35.6318 317.05 30.163 Q317.05 24.7348 313.93 21.7777 Q310.811 18.8205 305.099 18.8205 L294.81 18.8205 M286.627 12.096 L305.099 12.096 Q315.267 12.096 320.452 16.714 Q325.678 21.2916 325.678 30.163 Q325.678 39.1155 320.452 43.6931 Q315.267 48.2706 305.099 48.2706 L294.81 48.2706 L294.81 72.576 L286.627 72.576 L286.627 12.096 Z" fill="#000000" fill-rule="evenodd" fill-opacity="1" /><path clip-path="url(#clip830)" d="M361.164 34.1734 Q359.908 33.4443 358.409 33.1202 Q356.951 32.7556 355.169 32.7556 Q348.849 32.7556 345.446 36.8875 Q342.084 40.9789 342.084 48.6757 L342.084 72.576 L334.59 72.576 L334.59 27.2059 L342.084 27.2059 L342.084 34.2544 Q344.434 30.1225 348.201 28.1376 Q351.968 26.1121 357.356 26.1121 Q358.126 26.1121 359.057 26.2337 Q359.989 26.3147 361.123 26.5172 L361.164 34.1734 Z" fill="#000000" fill-rule="evenodd" fill-opacity="1" /><path clip-path="url(#clip830)" d="M384.74 32.4315 Q378.745 32.4315 375.261 37.1306 Q371.777 41.7891 371.777 49.9314 Q371.777 58.0738 375.221 62.7728 Q378.704 67.4314 384.74 67.4314 Q390.695 67.4314 394.179 62.7323 Q397.663 58.0333 397.663 49.9314 Q397.663 41.8701 394.179 37.1711 Q390.695 32.4315 384.74 32.4315 M384.74 26.1121 Q394.462 26.1121 400.012 32.4315 Q405.562 38.7509 405.562 49.9314 Q405.562 61.0714 400.012 67.4314 Q394.462 73.7508 384.74 73.7508 Q374.977 73.7508 369.428 67.4314 Q363.918 61.0714 363.918 49.9314 Q363.918 38.7509 369.428 32.4315 Q374.977 26.1121 384.74 26.1121 Z" fill="#000000" fill-rule="evenodd" fill-opacity="1" /><path clip-path="url(#clip830)" d="M450.486 49.9314 Q450.486 41.7081 447.084 37.0496 Q443.721 32.3505 437.807 32.3505 Q431.893 32.3505 428.49 37.0496 Q425.128 41.7081 425.128 49.9314 Q425.128 58.1548 428.49 62.8538 Q431.893 67.5124 437.807 67.5124 Q443.721 67.5124 447.084 62.8538 Q450.486 58.1548 450.486 49.9314 M425.128 34.0924 Q427.477 30.0415 431.042 28.0971 Q434.647 26.1121 439.63 26.1121 Q447.894 26.1121 453.038 32.6746 Q458.224 39.2371 458.224 49.9314 Q458.224 60.6258 453.038 67.1883 Q447.894 73.7508 439.63 73.7508 Q434.647 73.7508 431.042 71.8063 Q427.477 69.8214 425.128 65.7705 L425.128 72.576 L417.633 72.576 L417.633 9.54393 L425.128 9.54393 L425.128 34.0924 Z" fill="#000000" fill-rule="evenodd" fill-opacity="1" /><path clip-path="url(#clip830)" d="M470.579 9.54393 L478.032 9.54393 L478.032 72.576 L470.579 72.576 L470.579 9.54393 Z" fill="#000000" fill-rule="evenodd" fill-opacity="1" /><path clip-path="url(#clip830)" d="M532.436 48.0275 L532.436 51.6733 L498.165 51.6733 Q498.652 59.3701 502.783 63.421 Q506.956 67.4314 514.369 67.4314 Q518.663 67.4314 522.673 66.3781 Q526.724 65.3249 530.694 63.2184 L530.694 70.267 Q526.684 71.9684 522.471 72.8596 Q518.258 73.7508 513.923 73.7508 Q503.067 73.7508 496.707 67.4314 Q490.388 61.1119 490.388 50.3365 Q490.388 39.1965 496.383 32.6746 Q502.419 26.1121 512.627 26.1121 Q521.782 26.1121 527.089 32.0264 Q532.436 37.9003 532.436 48.0275 M524.982 45.84 Q524.901 39.7232 521.539 36.0774 Q518.217 32.4315 512.708 32.4315 Q506.47 32.4315 502.702 35.9558 Q498.976 39.4801 498.409 45.8805 L524.982 45.84 Z" fill="#000000" fill-rule="evenodd" fill-opacity="1" /><path clip-path="url(#clip830)" d="M579.994 35.9153 Q582.789 30.8922 586.678 28.5022 Q590.567 26.1121 595.833 26.1121 Q602.922 26.1121 606.77 31.0947 Q610.619 36.0368 610.619 45.1919 L610.619 72.576 L603.124 72.576 L603.124 45.4349 Q603.124 38.913 600.815 35.7533 Q598.506 32.5936 593.767 32.5936 Q587.974 32.5936 584.612 36.4419 Q581.25 40.2903 581.25 46.9338 L581.25 72.576 L573.755 72.576 L573.755 45.4349 Q573.755 38.8725 571.446 35.7533 Q569.137 32.5936 564.317 32.5936 Q558.605 32.5936 555.243 36.4824 Q551.88 40.3308 551.88 46.9338 L551.88 72.576 L544.386 72.576 L544.386 27.2059 L551.88 27.2059 L551.88 34.2544 Q554.433 30.082 557.997 28.0971 Q561.562 26.1121 566.464 26.1121 Q571.406 26.1121 574.849 28.6237 Q578.333 31.1352 579.994 35.9153 Z" fill="#000000" fill-rule="evenodd" fill-opacity="1" /><path clip-path="url(#clip830)" d="M659.959 65.6895 L688.517 65.6895 L688.517 72.576 L650.115 72.576 L650.115 65.6895 Q654.773 60.8689 662.794 52.7671 Q670.856 44.6248 672.921 42.2752 Q676.851 37.8598 678.39 34.8216 Q679.97 31.7429 679.97 28.7857 Q679.97 23.9651 676.567 20.927 Q673.205 17.8888 667.777 17.8888 Q663.928 17.8888 659.635 19.2256 Q655.381 20.5624 650.52 23.2765 L650.52 15.0127 Q655.462 13.0277 659.756 12.015 Q664.05 11.0023 667.615 11.0023 Q677.013 11.0023 682.603 15.7013 Q688.193 20.4004 688.193 28.2591 Q688.193 31.9859 686.776 35.3482 Q685.398 38.6699 681.712 43.2069 Q680.699 44.3817 675.271 50.0125 Q669.843 55.6027 659.959 65.6895 Z" fill="#000000" fill-rule="evenodd" fill-opacity="1" /><path clip-path="url(#clip830)" d="M705.693 62.2867 L714.241 62.2867 L714.241 72.576 L705.693 72.576 L705.693 62.2867 Z" fill="#000000" fill-rule="evenodd" fill-opacity="1" /><path clip-path="url(#clip830)" d="M739.113 65.6895 L767.672 65.6895 L767.672 72.576 L729.27 72.576 L729.27 65.6895 Q733.928 60.8689 741.949 52.7671 Q750.01 44.6248 752.076 42.2752 Q756.006 37.8598 757.545 34.8216 Q759.125 31.7429 759.125 28.7857 Q759.125 23.9651 755.722 20.927 Q752.36 17.8888 746.931 17.8888 Q743.083 17.8888 738.789 19.2256 Q734.536 20.5624 729.675 23.2765 L729.675 15.0127 Q734.617 13.0277 738.911 12.015 Q743.205 11.0023 746.769 11.0023 Q756.168 11.0023 761.758 15.7013 Q767.348 20.4004 767.348 28.2591 Q767.348 31.9859 765.93 35.3482 Q764.553 38.6699 760.867 43.2069 Q759.854 44.3817 754.426 50.0125 Q748.997 55.6027 739.113 65.6895 Z" fill="#000000" fill-rule="evenodd" fill-opacity="1" /><path clip-path="url(#clip830)" d="M839.009 65.6895 L852.377 65.6895 L852.377 19.5497 L837.834 22.4663 L837.834 15.0127 L852.296 12.096 L860.478 12.096 L860.478 65.6895 L873.846 65.6895 L873.846 72.576 L839.009 72.576 L839.009 65.6895 Z" fill="#000000" fill-rule="evenodd" fill-opacity="1" /><path clip-path="url(#clip830)" d="M907.874 17.4837 Q901.555 17.4837 898.354 23.7221 Q895.195 29.92 895.195 42.3968 Q895.195 54.833 898.354 61.0714 Q901.555 67.2693 907.874 67.2693 Q914.234 67.2693 917.394 61.0714 Q920.594 54.833 920.594 42.3968 Q920.594 29.92 917.394 23.7221 Q914.234 17.4837 907.874 17.4837 M907.874 11.0023 Q918.042 11.0023 923.389 19.0636 Q928.777 27.0843 928.777 42.3968 Q928.777 57.6687 923.389 65.73 Q918.042 73.7508 907.874 73.7508 Q897.706 73.7508 892.318 65.73 Q886.971 57.6687 886.971 42.3968 Q886.971 27.0843 892.318 19.0636 Q897.706 11.0023 907.874 11.0023 Z" fill="#000000" fill-rule="evenodd" fill-opacity="1" /><path clip-path="url(#clip830)" d="M938.337 46.5287 L960.171 46.5287 L960.171 53.1722 L938.337 53.1722 L938.337 46.5287 Z" fill="#000000" fill-rule="evenodd" fill-opacity="1" /><path clip-path="url(#clip830)" d="M999.222 17.6457 Q990.31 17.6457 985.044 24.2892 Q979.818 30.9327 979.818 42.3968 Q979.818 53.8203 985.044 60.4638 Q990.31 67.1073 999.222 67.1073 Q1008.13 67.1073 1013.32 60.4638 Q1018.54 53.8203 1018.54 42.3968 Q1018.54 30.9327 1013.32 24.2892 Q1008.13 17.6457 999.222 17.6457 M999.222 11.0023 Q1011.94 11.0023 1019.56 19.5497 Q1027.17 28.0566 1027.17 42.3968 Q1027.17 56.6965 1019.56 65.2439 Q1011.94 73.7508 999.222 73.7508 Q986.461 73.7508 978.805 65.2439 Q971.19 56.737 971.19 42.3968 Q971.19 28.0566 978.805 19.5497 Q986.461 11.0023 999.222 11.0023 Z" fill="#000000" fill-rule="evenodd" fill-opacity="1" /><path clip-path="url(#clip830)" d="M1065.94 34.1734 Q1064.68 33.4443 1063.19 33.1202 Q1061.73 32.7556 1059.94 32.7556 Q1053.63 32.7556 1050.22 36.8875 Q1046.86 40.9789 1046.86 48.6757 L1046.86 72.576 L1039.37 72.576 L1039.37 27.2059 L1046.86 27.2059 L1046.86 34.2544 Q1049.21 30.1225 1052.98 28.1376 Q1056.74 26.1121 1062.13 26.1121 Q1062.9 26.1121 1063.83 26.2337 Q1064.77 26.3147 1065.9 26.5172 L1065.94 34.1734 Z" fill="#000000" fill-rule="evenodd" fill-opacity="1" /><path clip-path="url(#clip830)" d="M1102.16 34.0924 L1102.16 9.54393 L1109.61 9.54393 L1109.61 72.576 L1102.16 72.576 L1102.16 65.7705 Q1099.81 69.8214 1096.2 71.8063 Q1092.64 73.7508 1087.61 73.7508 Q1079.39 73.7508 1074.2 67.1883 Q1069.06 60.6258 1069.06 49.9314 Q1069.06 39.2371 1074.2 32.6746 Q1079.39 26.1121 1087.61 26.1121 Q1092.64 26.1121 1096.2 28.0971 Q1099.81 30.0415 1102.16 34.0924 M1076.76 49.9314 Q1076.76 58.1548 1080.12 62.8538 Q1083.52 67.5124 1089.44 67.5124 Q1095.35 67.5124 1098.75 62.8538 Q1102.16 58.1548 1102.16 49.9314 Q1102.16 41.7081 1098.75 37.0496 Q1095.35 32.3505 1089.44 32.3505 Q1083.52 32.3505 1080.12 37.0496 Q1076.76 41.7081 1076.76 49.9314 Z" fill="#000000" fill-rule="evenodd" fill-opacity="1" /><path clip-path="url(#clip830)" d="M1163.77 48.0275 L1163.77 51.6733 L1129.5 51.6733 Q1129.98 59.3701 1134.12 63.421 Q1138.29 67.4314 1145.7 67.4314 Q1150 67.4314 1154.01 66.3781 Q1158.06 65.3249 1162.03 63.2184 L1162.03 70.267 Q1158.02 71.9684 1153.8 72.8596 Q1149.59 73.7508 1145.26 73.7508 Q1134.4 73.7508 1128.04 67.4314 Q1121.72 61.1119 1121.72 50.3365 Q1121.72 39.1965 1127.72 32.6746 Q1133.75 26.1121 1143.96 26.1121 Q1153.12 26.1121 1158.42 32.0264 Q1163.77 37.9003 1163.77 48.0275 M1156.32 45.84 Q1156.23 39.7232 1152.87 36.0774 Q1149.55 32.4315 1144.04 32.4315 Q1137.8 32.4315 1134.04 35.9558 Q1130.31 39.4801 1129.74 45.8805 L1156.32 45.84 Z" fill="#000000" fill-rule="evenodd" fill-opacity="1" /><path clip-path="url(#clip830)" d="M1202.29 34.1734 Q1201.04 33.4443 1199.54 33.1202 Q1198.08 32.7556 1196.3 32.7556 Q1189.98 32.7556 1186.58 36.8875 Q1183.21 40.9789 1183.21 48.6757 L1183.21 72.576 L1175.72 72.576 L1175.72 27.2059 L1183.21 27.2059 L1183.21 34.2544 Q1185.56 30.1225 1189.33 28.1376 Q1193.1 26.1121 1198.49 26.1121 Q1199.26 26.1121 1200.19 26.2337 Q1201.12 26.3147 1202.25 26.5172 L1202.29 34.1734 Z" fill="#000000" fill-rule="evenodd" fill-opacity="1" /><path clip-path="url(#clip830)" d="M1236.81 12.096 L1244.99 12.096 L1244.99 72.576 L1236.81 72.576 L1236.81 12.096 Z" fill="#000000" fill-rule="evenodd" fill-opacity="1" /><path clip-path="url(#clip830)" d="M1298.66 45.1919 L1298.66 72.576 L1291.21 72.576 L1291.21 45.4349 Q1291.21 38.994 1288.7 35.7938 Q1286.19 32.5936 1281.16 32.5936 Q1275.13 32.5936 1271.65 36.4419 Q1268.16 40.2903 1268.16 46.9338 L1268.16 72.576 L1260.67 72.576 L1260.67 27.2059 L1268.16 27.2059 L1268.16 34.2544 Q1270.83 30.163 1274.44 28.1376 Q1278.09 26.1121 1282.83 26.1121 Q1290.64 26.1121 1294.65 30.9732 Q1298.66 35.7938 1298.66 45.1919 Z" fill="#000000" fill-rule="evenodd" fill-opacity="1" /><path clip-path="url(#clip830)" d="M1320.9 14.324 L1320.9 27.2059 L1336.26 27.2059 L1336.26 32.9987 L1320.9 32.9987 L1320.9 57.6282 Q1320.9 63.1779 1322.4 64.7578 Q1323.94 66.3376 1328.6 66.3376 L1336.26 66.3376 L1336.26 72.576 L1328.6 72.576 Q1319.97 72.576 1316.69 69.3758 Q1313.41 66.1351 1313.41 57.6282 L1313.41 32.9987 L1307.94 32.9987 L1307.94 27.2059 L1313.41 27.2059 L1313.41 14.324 L1320.9 14.324 Z" fill="#000000" fill-rule="evenodd" fill-opacity="1" /><path clip-path="url(#clip830)" d="M1384.87 48.0275 L1384.87 51.6733 L1350.6 51.6733 Q1351.08 59.3701 1355.22 63.421 Q1359.39 67.4314 1366.8 67.4314 Q1371.09 67.4314 1375.11 66.3781 Q1379.16 65.3249 1383.13 63.2184 L1383.13 70.267 Q1379.12 71.9684 1374.9 72.8596 Q1370.69 73.7508 1366.36 73.7508 Q1355.5 73.7508 1349.14 67.4314 Q1342.82 61.1119 1342.82 50.3365 Q1342.82 39.1965 1348.81 32.6746 Q1354.85 26.1121 1365.06 26.1121 Q1374.21 26.1121 1379.52 32.0264 Q1384.87 37.9003 1384.87 48.0275 M1377.41 45.84 Q1377.33 39.7232 1373.97 36.0774 Q1370.65 32.4315 1365.14 32.4315 Q1358.9 32.4315 1355.13 35.9558 Q1351.41 39.4801 1350.84 45.8805 L1377.41 45.84 Z" fill="#000000" fill-rule="evenodd" fill-opacity="1" /><path clip-path="url(#clip830)" d="M1423.39 34.1734 Q1422.14 33.4443 1420.64 33.1202 Q1419.18 32.7556 1417.4 32.7556 Q1411.08 32.7556 1407.67 36.8875 Q1404.31 40.9789 1404.31 48.6757 L1404.31 72.576 L1396.82 72.576 L1396.82 27.2059 L1404.31 27.2059 L1404.31 34.2544 Q1406.66 30.1225 1410.43 28.1376 Q1414.2 26.1121 1419.58 26.1121 Q1420.35 26.1121 1421.29 26.2337 Q1422.22 26.3147 1423.35 26.5172 L1423.39 34.1734 Z" fill="#000000" fill-rule="evenodd" fill-opacity="1" /><path clip-path="url(#clip830)" d="M1438.42 65.7705 L1438.42 89.8329 L1430.93 89.8329 L1430.93 27.2059 L1438.42 27.2059 L1438.42 34.0924 Q1440.77 30.0415 1444.34 28.0971 Q1447.94 26.1121 1452.92 26.1121 Q1461.19 26.1121 1466.33 32.6746 Q1471.52 39.2371 1471.52 49.9314 Q1471.52 60.6258 1466.33 67.1883 Q1461.19 73.7508 1452.92 73.7508 Q1447.94 73.7508 1444.34 71.8063 Q1440.77 69.8214 1438.42 65.7705 M1463.78 49.9314 Q1463.78 41.7081 1460.38 37.0496 Q1457.01 32.3505 1451.1 32.3505 Q1445.19 32.3505 1441.78 37.0496 Q1438.42 41.7081 1438.42 49.9314 Q1438.42 58.1548 1441.78 62.8538 Q1445.19 67.5124 1451.1 67.5124 Q1457.01 67.5124 1460.38 62.8538 Q1463.78 58.1548 1463.78 49.9314 Z" fill="#000000" fill-rule="evenodd" fill-opacity="1" /><path clip-path="url(#clip830)" d="M1501.45 32.4315 Q1495.46 32.4315 1491.97 37.1306 Q1488.49 41.7891 1488.49 49.9314 Q1488.49 58.0738 1491.93 62.7728 Q1495.42 67.4314 1501.45 67.4314 Q1507.41 67.4314 1510.89 62.7323 Q1514.38 58.0333 1514.38 49.9314 Q1514.38 41.8701 1510.89 37.1711 Q1507.41 32.4315 1501.45 32.4315 M1501.45 26.1121 Q1511.18 26.1121 1516.72 32.4315 Q1522.27 38.7509 1522.27 49.9314 Q1522.27 61.0714 1516.72 67.4314 Q1511.18 73.7508 1501.45 73.7508 Q1491.69 73.7508 1486.14 67.4314 Q1480.63 61.0714 1480.63 49.9314 Q1480.63 38.7509 1486.14 32.4315 Q1491.69 26.1121 1501.45 26.1121 Z" fill="#000000" fill-rule="evenodd" fill-opacity="1" /><path clip-path="url(#clip830)" d="M1534.63 9.54393 L1542.08 9.54393 L1542.08 72.576 L1534.63 72.576 L1534.63 9.54393 Z" fill="#000000" fill-rule="evenodd" fill-opacity="1" /><path clip-path="url(#clip830)" d="M1578.3 49.7694 Q1569.27 49.7694 1565.78 51.8354 Q1562.3 53.9013 1562.3 58.8839 Q1562.3 62.8538 1564.89 65.2034 Q1567.52 67.5124 1572.02 67.5124 Q1578.22 67.5124 1581.94 63.1374 Q1585.71 58.7219 1585.71 51.4303 L1585.71 49.7694 L1578.3 49.7694 M1593.17 46.6907 L1593.17 72.576 L1585.71 72.576 L1585.71 65.6895 Q1583.16 69.8214 1579.35 71.8063 Q1575.54 73.7508 1570.03 73.7508 Q1563.07 73.7508 1558.94 69.8619 Q1554.84 65.9325 1554.84 59.3701 Q1554.84 51.7138 1559.95 47.825 Q1565.09 43.9361 1575.26 43.9361 L1585.71 43.9361 L1585.71 43.2069 Q1585.71 38.0623 1582.31 35.2672 Q1578.95 32.4315 1572.83 32.4315 Q1568.94 32.4315 1565.25 33.3632 Q1561.57 34.295 1558.17 36.1584 L1558.17 29.2718 Q1562.26 27.692 1566.11 26.9223 Q1569.95 26.1121 1573.6 26.1121 Q1583.44 26.1121 1588.3 31.2163 Q1593.17 36.3204 1593.17 46.6907 Z" fill="#000000" fill-rule="evenodd" fill-opacity="1" /><path clip-path="url(#clip830)" d="M1615.89 14.324 L1615.89 27.2059 L1631.24 27.2059 L1631.24 32.9987 L1615.89 32.9987 L1615.89 57.6282 Q1615.89 63.1779 1617.39 64.7578 Q1618.93 66.3376 1623.59 66.3376 L1631.24 66.3376 L1631.24 72.576 L1623.59 72.576 Q1614.96 72.576 1611.68 69.3758 Q1608.4 66.1351 1608.4 57.6282 L1608.4 32.9987 L1602.93 32.9987 L1602.93 27.2059 L1608.4 27.2059 L1608.4 14.324 L1615.89 14.324 Z" fill="#000000" fill-rule="evenodd" fill-opacity="1" /><path clip-path="url(#clip830)" d="M1641.05 27.2059 L1648.5 27.2059 L1648.5 72.576 L1641.05 72.576 L1641.05 27.2059 M1641.05 9.54393 L1648.5 9.54393 L1648.5 18.9825 L1641.05 18.9825 L1641.05 9.54393 Z" fill="#000000" fill-rule="evenodd" fill-opacity="1" /><path clip-path="url(#clip830)" d="M1681.68 32.4315 Q1675.68 32.4315 1672.2 37.1306 Q1668.71 41.7891 1668.71 49.9314 Q1668.71 58.0738 1672.16 62.7728 Q1675.64 67.4314 1681.68 67.4314 Q1687.63 67.4314 1691.12 62.7323 Q1694.6 58.0333 1694.6 49.9314 Q1694.6 41.8701 1691.12 37.1711 Q1687.63 32.4315 1681.68 32.4315 M1681.68 26.1121 Q1691.4 26.1121 1696.95 32.4315 Q1702.5 38.7509 1702.5 49.9314 Q1702.5 61.0714 1696.95 67.4314 Q1691.4 73.7508 1681.68 73.7508 Q1671.91 73.7508 1666.37 67.4314 Q1660.86 61.0714 1660.86 49.9314 Q1660.86 38.7509 1666.37 32.4315 Q1671.91 26.1121 1681.68 26.1121 Z" fill="#000000" fill-rule="evenodd" fill-opacity="1" /><path clip-path="url(#clip830)" d="M1752.57 45.1919 L1752.57 72.576 L1745.11 72.576 L1745.11 45.4349 Q1745.11 38.994 1742.6 35.7938 Q1740.09 32.5936 1735.07 32.5936 Q1729.03 32.5936 1725.55 36.4419 Q1722.07 40.2903 1722.07 46.9338 L1722.07 72.576 L1714.57 72.576 L1714.57 27.2059 L1722.07 27.2059 L1722.07 34.2544 Q1724.74 30.163 1728.34 28.1376 Q1731.99 26.1121 1736.73 26.1121 Q1744.55 26.1121 1748.56 30.9732 Q1752.57 35.7938 1752.57 45.1919 Z" fill="#000000" fill-rule="evenodd" fill-opacity="1" /><polyline clip-path="url(#clip832)" style="stroke:#009af9; stroke-linecap:butt; stroke-linejoin:round; stroke-width:4; stroke-opacity:1; fill:none" points="
  217.261,1447.82 220.347,1447.82 223.433,1447.82 226.519,1447.82 229.605,1447.82 232.691,1447.82 235.777,1447.82 238.863,1447.81 241.949,1447.81 245.035,1447.81 
  248.121,1447.81 251.206,1447.81 254.292,1447.81 257.378,1447.81 260.464,1447.81 263.55,1447.81 266.636,1447.81 269.722,1447.8 272.808,1447.8 275.894,1447.8 
  278.98,1447.8 282.066,1447.8 285.151,1447.8 288.237,1447.8 291.323,1447.8 294.409,1447.79 297.495,1447.79 300.581,1447.79 303.667,1447.79 306.753,1447.79 
  309.839,1447.79 312.925,1447.79 316.011,1447.78 319.096,1447.78 322.182,1447.78 325.268,1447.78 328.354,1447.78 331.44,1447.78 334.526,1447.78 337.612,1447.77 
  340.698,1447.77 343.784,1447.77 346.87,1447.77 349.956,1447.77 353.041,1447.76 356.127,1447.76 359.213,1447.76 362.299,1447.76 365.385,1447.76 368.471,1447.75 
  371.557,1447.75 374.643,1447.75 377.729,1447.75 380.815,1447.75 383.901,1447.74 386.986,1447.74 390.072,1447.74 393.158,1447.74 396.244,1447.73 399.33,1447.73 
  402.416,1447.73 405.502,1447.73 408.588,1447.72 411.674,1447.72 414.76,1447.72 417.846,1447.72 420.931,1447.71 424.017,1447.71 427.103,1447.71 430.189,1447.7 
  433.275,1447.7 436.361,1447.7 439.447,1447.69 442.533,1447.69 445.619,1447.69 448.705,1447.68 451.791,1447.68 454.876,1447.68 457.962,1447.67 461.048,1447.67 
  464.134,1447.67 467.22,1447.66 470.306,1447.66 473.392,1447.65 476.478,1447.65 479.564,1447.64 482.65,1447.64 485.736,1447.64 488.821,1447.63 491.907,1447.63 
  494.993,1447.62 498.079,1447.62 501.165,1447.61 504.251,1447.61 507.337,1447.6 510.423,1447.6 513.509,1447.59 516.595,1447.59 519.681,1447.58 522.766,1447.58 
  525.852,1447.57 528.938,1447.56 532.024,1447.56 535.11,1447.55 538.196,1447.55 541.282,1447.54 544.368,1447.53 547.454,1447.53 550.54,1447.52 553.626,1447.51 
  556.711,1447.51 559.797,1447.5 562.883,1447.49 565.969,1447.48 569.055,1447.48 572.141,1447.47 575.227,1447.46 578.313,1447.45 581.399,1447.44 584.485,1447.44 
  587.571,1447.43 590.656,1447.42 593.742,1447.41 596.828,1447.4 599.914,1447.39 603,1447.38 606.086,1447.37 609.172,1447.36 612.258,1447.35 615.344,1447.34 
  618.43,1447.33 621.516,1447.32 624.601,1447.31 627.687,1447.3 630.773,1447.29 633.859,1447.28 636.945,1447.27 640.031,1447.25 643.117,1447.24 646.203,1447.23 
  649.289,1447.22 652.375,1447.2 655.461,1447.19 658.546,1447.18 661.632,1447.16 664.718,1447.15 667.804,1447.13 670.89,1447.12 673.976,1447.1 677.062,1447.09 
  680.148,1447.07 683.234,1447.06 686.32,1447.04 689.406,1447.02 692.491,1447.01 695.577,1446.99 698.663,1446.97 701.749,1446.96 704.835,1446.94 707.921,1446.92 
  711.007,1446.9 714.093,1446.88 717.179,1446.86 720.265,1446.84 723.351,1446.82 726.436,1446.8 729.522,1446.78 732.608,1446.75 735.694,1446.73 738.78,1446.71 
  741.866,1446.69 744.952,1446.66 748.038,1446.64 751.124,1446.61 754.21,1446.59 757.296,1446.56 760.381,1446.54 763.467,1446.51 766.553,1446.48 769.639,1446.46 
  772.725,1446.43 775.811,1446.4 778.897,1446.37 781.983,1446.34 785.069,1446.31 788.155,1446.28 791.241,1446.24 794.326,1446.21 797.412,1446.18 800.498,1446.14 
  803.584,1446.11 806.67,1446.07 809.756,1446.04 812.842,1446 815.928,1445.96 819.014,1445.93 822.1,1445.89 825.186,1445.85 828.271,1445.81 831.357,1445.77 
  834.443,1445.72 837.529,1445.68 840.615,1445.64 843.701,1445.59 846.787,1445.54 849.873,1445.5 852.959,1445.45 856.045,1445.4 859.131,1445.35 862.216,1445.3 
  865.302,1445.25 868.388,1445.2 871.474,1445.14 874.56,1445.09 877.646,1445.03 880.732,1444.98 883.818,1444.92 886.904,1444.86 889.99,1444.8 893.076,1444.74 
  896.161,1444.67 899.247,1444.61 902.333,1444.54 905.419,1444.47 908.505,1444.41 911.591,1444.34 914.677,1444.27 917.763,1444.19 920.849,1444.12 923.935,1444.04 
  927.021,1443.97 930.106,1443.89 933.192,1443.81 936.278,1443.73 939.364,1443.64 942.45,1443.56 945.536,1443.47 948.622,1443.38 951.708,1443.29 954.794,1443.2 
  957.88,1443.1 960.966,1443.01 964.051,1442.91 967.137,1442.81 970.223,1442.71 973.309,1442.6 976.395,1442.5 979.481,1442.39 982.567,1442.28 985.653,1442.17 
  988.739,1442.05 991.825,1441.93 994.911,1441.81 997.996,1441.69 1001.08,1441.57 1004.17,1441.44 1007.25,1441.31 1010.34,1441.18 1013.43,1441.04 1016.51,1440.91 
  1019.6,1440.77 1022.68,1440.62 1025.77,1440.48 1028.86,1440.33 1031.94,1440.18 1035.03,1440.02 1038.11,1439.86 1041.2,1439.7 1044.29,1439.54 1047.37,1439.37 
  1050.46,1439.2 1053.54,1439.02 1056.63,1438.84 1059.71,1438.66 1062.8,1438.47 1065.89,1438.28 1068.97,1438.09 1072.06,1437.89 1075.14,1437.69 1078.23,1437.49 
  1081.32,1437.28 1084.4,1437.06 1087.49,1436.85 1090.57,1436.62 1093.66,1436.4 1096.75,1436.16 1099.83,1435.93 1102.92,1435.69 1106,1435.44 1109.09,1435.19 
  1112.18,1434.93 1115.26,1434.67 1118.35,1434.41 1121.43,1434.14 1124.52,1433.86 1127.6,1433.58 1130.69,1433.29 1133.78,1432.99 1136.86,1432.69 1139.95,1432.39 
  1143.03,1432.07 1146.12,1431.75 1149.21,1431.43 1152.29,1431.1 1155.38,1430.76 1158.46,1430.41 1161.55,1430.06 1164.64,1429.7 1167.72,1429.33 1170.81,1428.96 
  1173.89,1428.58 1176.98,1428.19 1180.07,1427.79 1183.15,1427.39 1186.24,1426.97 1189.32,1426.55 1192.41,1426.12 1195.49,1425.68 1198.58,1425.23 1201.67,1424.78 
  1204.75,1424.31 1207.84,1423.83 1210.92,1423.35 1214.01,1422.85 1217.1,1422.35 1220.18,1421.83 1223.27,1421.31 1226.35,1420.77 1229.44,1420.22 1232.53,1419.66 
  1235.61,1419.09 1238.7,1418.51 1241.78,1417.92 1244.87,1417.32 1247.96,1416.7 1251.04,1416.07 1254.13,1415.43 1257.21,1414.77 1260.3,1414.1 1263.38,1413.42 
  1266.47,1412.73 1269.56,1412.02 1272.64,1411.29 1275.73,1410.55 1278.81,1409.8 1281.9,1409.03 1284.99,1408.25 1288.07,1407.45 1291.16,1406.63 1294.24,1405.8 
  1297.33,1404.95 1300.42,1404.08 1303.5,1403.2 1306.59,1402.29 1309.67,1401.37 1312.76,1400.43 1315.85,1399.48 1318.93,1398.5 1322.02,1397.5 1325.1,1396.48 
  1328.19,1395.45 1331.27,1394.39 1334.36,1393.31 1337.45,1392.21 1340.53,1391.08 1343.62,1389.93 1346.7,1388.76 1349.79,1387.57 1352.88,1386.35 1355.96,1385.11 
  1359.05,1383.84 1362.13,1382.55 1365.22,1381.23 1368.31,1379.88 1371.39,1378.51 1374.48,1377.11 1377.56,1375.68 1380.65,1374.22 1383.74,1372.73 1386.82,1371.22 
  1389.91,1369.67 1392.99,1368.09 1396.08,1366.48 1399.16,1364.83 1402.25,1363.16 1405.34,1361.45 1408.42,1359.7 1411.51,1357.92 1414.59,1356.1 1417.68,1354.25 
  1420.77,1352.36 1423.85,1350.43 1426.94,1348.46 1430.02,1346.45 1433.11,1344.4 1436.2,1342.31 1439.28,1340.18 1442.37,1338.01 1445.45,1335.79 1448.54,1333.52 
  1451.63,1331.21 1454.71,1328.86 1457.8,1326.45 1460.88,1324 1463.97,1321.5 1467.05,1318.95 1470.14,1316.34 1473.23,1313.68 1476.31,1310.97 1479.4,1308.21 
  1482.48,1305.39 1485.57,1302.51 1488.66,1299.57 1491.74,1296.58 1494.83,1293.52 1497.91,1290.4 1501,1287.22 1504.09,1283.98 1507.17,1280.67 1510.26,1277.29 
  1513.34,1273.84 1516.43,1270.33 1519.52,1266.74 1522.6,1263.08 1525.69,1259.35 1528.77,1255.54 1531.86,1251.66 1534.94,1247.69 1538.03,1243.65 1541.12,1239.52 
  1544.2,1235.32 1547.29,1231.02 1550.37,1226.64 1553.46,1222.17 1556.55,1217.61 1559.63,1212.96 1562.72,1208.22 1565.8,1203.38 1568.89,1198.44 1571.98,1193.4 
  1575.06,1188.26 1578.15,1183.01 1581.23,1177.66 1584.32,1172.21 1587.41,1166.64 1590.49,1160.96 1593.58,1155.16 1596.66,1149.25 1599.75,1143.21 1602.83,1137.06 
  1605.92,1130.78 1609.01,1124.38 1612.09,1117.84 1615.18,1111.17 1618.26,1104.37 1621.35,1097.43 1624.44,1090.36 1627.52,1083.13 1630.61,1075.77 1633.69,1068.25 
  1636.78,1060.58 1639.87,1052.76 1642.95,1044.77 1646.04,1036.63 1649.12,1028.32 1652.21,1019.85 1655.3,1011.2 1658.38,1002.38 1661.47,993.383 1664.55,984.202 
  1667.64,974.835 1670.72,965.28 1673.81,955.531 1676.9,945.585 1679.98,935.438 1683.07,925.087 1686.15,914.526 1689.24,903.752 1692.33,892.76 1695.41,881.547 
  1698.5,870.106 1701.58,858.435 1704.67,846.528 1707.76,834.38 1710.84,821.987 1713.93,809.344 1717.01,796.445 1720.1,783.285 1723.19,769.86 1726.27,756.164 
  1729.36,742.19 1732.44,727.935 1735.53,713.392 1738.61,698.554 1741.7,683.417 1744.79,667.975 1747.87,652.22 1750.96,636.147 1754.04,619.749 1757.13,603.02 
  1760.22,585.953 1763.3,568.542 1766.39,550.778 1769.47,532.656 1772.56,514.168 1775.65,495.306 1778.73,476.063 1781.82,456.432 1784.9,436.403 1787.99,415.971 
  1791.08,395.125 1794.16,373.858 1797.25,352.162 1800.33,330.028 1803.42,307.446 1806.5,284.408 1809.59,260.905 1812.68,236.927 1815.76,212.464 1818.85,187.508 
  1821.93,162.047 
  "/>
<polyline clip-path="url(#clip832)" style="stroke:#ee82ee; stroke-linecap:butt; stroke-linejoin:round; stroke-width:4; stroke-opacity:1; fill:none" points="
  217.261,1447.59 220.347,1447.63 223.433,1447.66 226.519,1447.68 229.605,1447.71 232.691,1447.73 235.777,1447.75 238.863,1447.77 241.949,1447.78 245.035,1447.8 
  248.121,1447.81 251.206,1447.82 254.292,1447.83 257.378,1447.84 260.464,1447.85 263.55,1447.85 266.636,1447.86 269.722,1447.86 272.808,1447.87 275.894,1447.87 
  278.98,1447.87 282.066,1447.87 285.151,1447.87 288.237,1447.87 291.323,1447.87 294.409,1447.87 297.495,1447.87 300.581,1447.87 303.667,1447.86 306.753,1447.86 
  309.839,1447.86 312.925,1447.86 316.011,1447.85 319.096,1447.85 322.182,1447.84 325.268,1447.84 328.354,1447.84 331.44,1447.83 334.526,1447.83 337.612,1447.82 
  340.698,1447.82 343.784,1447.81 346.87,1447.81 349.956,1447.8 353.041,1447.8 356.127,1447.79 359.213,1447.79 362.299,1447.79 365.385,1447.78 368.471,1447.78 
  371.557,1447.77 374.643,1447.77 377.729,1447.76 380.815,1447.76 383.901,1447.75 386.986,1447.75 390.072,1447.75 393.158,1447.74 396.244,1447.74 399.33,1447.73 
  402.416,1447.73 405.502,1447.73 408.588,1447.72 411.674,1447.72 414.76,1447.71 417.846,1447.71 420.931,1447.71 424.017,1447.7 427.103,1447.7 430.189,1447.69 
  433.275,1447.69 436.361,1447.69 439.447,1447.68 442.533,1447.68 445.619,1447.68 448.705,1447.67 451.791,1447.67 454.876,1447.67 457.962,1447.66 461.048,1447.66 
  464.134,1447.65 467.22,1447.65 470.306,1447.65 473.392,1447.64 476.478,1447.64 479.564,1447.64 482.65,1447.63 485.736,1447.63 488.821,1447.62 491.907,1447.62 
  494.993,1447.61 498.079,1447.61 501.165,1447.61 504.251,1447.6 507.337,1447.6 510.423,1447.59 513.509,1447.59 516.595,1447.58 519.681,1447.58 522.766,1447.57 
  525.852,1447.57 528.938,1447.56 532.024,1447.56 535.11,1447.55 538.196,1447.54 541.282,1447.54 544.368,1447.53 547.454,1447.53 550.54,1447.52 553.626,1447.51 
  556.711,1447.51 559.797,1447.5 562.883,1447.49 565.969,1447.49 569.055,1447.48 572.141,1447.47 575.227,1447.46 578.313,1447.45 581.399,1447.45 584.485,1447.44 
  587.571,1447.43 590.656,1447.42 593.742,1447.41 596.828,1447.4 599.914,1447.39 603,1447.39 606.086,1447.38 609.172,1447.37 612.258,1447.36 615.344,1447.35 
  618.43,1447.34 621.516,1447.32 624.601,1447.31 627.687,1447.3 630.773,1447.29 633.859,1447.28 636.945,1447.27 640.031,1447.26 643.117,1447.24 646.203,1447.23 
  649.289,1447.22 652.375,1447.21 655.461,1447.19 658.546,1447.18 661.632,1447.16 664.718,1447.15 667.804,1447.14 670.89,1447.12 673.976,1447.11 677.062,1447.09 
  680.148,1447.07 683.234,1447.06 686.32,1447.04 689.406,1447.03 692.491,1447.01 695.577,1446.99 698.663,1446.97 701.749,1446.96 704.835,1446.94 707.921,1446.92 
  711.007,1446.9 714.093,1446.88 717.179,1446.86 720.265,1446.84 723.351,1446.82 726.436,1446.8 729.522,1446.78 732.608,1446.75 735.694,1446.73 738.78,1446.71 
  741.866,1446.69 744.952,1446.66 748.038,1446.64 751.124,1446.61 754.21,1446.59 757.296,1446.56 760.381,1446.54 763.467,1446.51 766.553,1446.48 769.639,1446.45 
  772.725,1446.43 775.811,1446.4 778.897,1446.37 781.983,1446.34 785.069,1446.31 788.155,1446.27 791.241,1446.24 794.326,1446.21 797.412,1446.18 800.498,1446.14 
  803.584,1446.11 806.67,1446.07 809.756,1446.04 812.842,1446 815.928,1445.96 819.014,1445.92 822.1,1445.89 825.186,1445.85 828.271,1445.81 831.357,1445.76 
  834.443,1445.72 837.529,1445.68 840.615,1445.63 843.701,1445.59 846.787,1445.54 849.873,1445.5 852.959,1445.45 856.045,1445.4 859.131,1445.35 862.216,1445.3 
  865.302,1445.25 868.388,1445.2 871.474,1445.14 874.56,1445.09 877.646,1445.03 880.732,1444.98 883.818,1444.92 886.904,1444.86 889.99,1444.8 893.076,1444.74 
  896.161,1444.67 899.247,1444.61 902.333,1444.54 905.419,1444.48 908.505,1444.41 911.591,1444.34 914.677,1444.27 917.763,1444.19 920.849,1444.12 923.935,1444.04 
  927.021,1443.97 930.106,1443.89 933.192,1443.81 936.278,1443.73 939.364,1443.64 942.45,1443.56 945.536,1443.47 948.622,1443.38 951.708,1443.29 954.794,1443.2 
  957.88,1443.11 960.966,1443.01 964.051,1442.91 967.137,1442.81 970.223,1442.71 973.309,1442.61 976.395,1442.5 979.481,1442.39 982.567,1442.28 985.653,1442.17 
  988.739,1442.05 991.825,1441.93 994.911,1441.82 997.996,1441.69 1001.08,1441.57 1004.17,1441.44 1007.25,1441.31 1010.34,1441.18 1013.43,1441.04 1016.51,1440.91 
  1019.6,1440.77 1022.68,1440.62 1025.77,1440.48 1028.86,1440.33 1031.94,1440.17 1035.03,1440.02 1038.11,1439.86 1041.2,1439.7 1044.29,1439.53 1047.37,1439.37 
  1050.46,1439.19 1053.54,1439.02 1056.63,1438.84 1059.71,1438.66 1062.8,1438.47 1065.89,1438.28 1068.97,1438.09 1072.06,1437.89 1075.14,1437.69 1078.23,1437.49 
  1081.32,1437.28 1084.4,1437.06 1087.49,1436.84 1090.57,1436.62 1093.66,1436.39 1096.75,1436.16 1099.83,1435.93 1102.92,1435.69 1106,1435.44 1109.09,1435.19 
  1112.18,1434.93 1115.26,1434.67 1118.35,1434.41 1121.43,1434.13 1124.52,1433.86 1127.6,1433.57 1130.69,1433.29 1133.78,1432.99 1136.86,1432.69 1139.95,1432.38 
  1143.03,1432.07 1146.12,1431.75 1149.21,1431.43 1152.29,1431.1 1155.38,1430.76 1158.46,1430.41 1161.55,1430.06 1164.64,1429.7 1167.72,1429.33 1170.81,1428.96 
  1173.89,1428.58 1176.98,1428.19 1180.07,1427.79 1183.15,1427.39 1186.24,1426.97 1189.32,1426.55 1192.41,1426.12 1195.49,1425.68 1198.58,1425.23 1201.67,1424.78 
  1204.75,1424.31 1207.84,1423.83 1210.92,1423.35 1214.01,1422.85 1217.1,1422.35 1220.18,1421.83 1223.27,1421.31 1226.35,1420.77 1229.44,1420.22 1232.53,1419.67 
  1235.61,1419.1 1238.7,1418.52 1241.78,1417.92 1244.87,1417.32 1247.96,1416.7 1251.04,1416.07 1254.13,1415.43 1257.21,1414.77 1260.3,1414.11 1263.38,1413.42 
  1266.47,1412.73 1269.56,1412.02 1272.64,1411.29 1275.73,1410.56 1278.81,1409.8 1281.9,1409.03 1284.99,1408.25 1288.07,1407.45 1291.16,1406.63 1294.24,1405.8 
  1297.33,1404.95 1300.42,1404.08 1303.5,1403.2 1306.59,1402.29 1309.67,1401.37 1312.76,1400.44 1315.85,1399.48 1318.93,1398.5 1322.02,1397.5 1325.1,1396.48 
  1328.19,1395.45 1331.27,1394.39 1334.36,1393.31 1337.45,1392.21 1340.53,1391.08 1343.62,1389.93 1346.7,1388.76 1349.79,1387.57 1352.88,1386.35 1355.96,1385.11 
  1359.05,1383.84 1362.13,1382.55 1365.22,1381.23 1368.31,1379.88 1371.39,1378.51 1374.48,1377.11 1377.56,1375.68 1380.65,1374.22 1383.74,1372.73 1386.82,1371.21 
  1389.91,1369.66 1392.99,1368.09 1396.08,1366.47 1399.16,1364.83 1402.25,1363.15 1405.34,1361.44 1408.42,1359.7 1411.51,1357.91 1414.59,1356.1 1417.68,1354.24 
  1420.77,1352.35 1423.85,1350.42 1426.94,1348.45 1430.02,1346.45 1433.11,1344.4 1436.2,1342.31 1439.28,1340.18 1442.37,1338 1445.45,1335.78 1448.54,1333.52 
  1451.63,1331.21 1454.71,1328.85 1457.8,1326.45 1460.88,1324 1463.97,1321.5 1467.05,1318.94 1470.14,1316.34 1473.23,1313.68 1476.31,1310.97 1479.4,1308.21 
  1482.48,1305.39 1485.57,1302.51 1488.66,1299.57 1491.74,1296.58 1494.83,1293.52 1497.91,1290.41 1501,1287.23 1504.09,1283.98 1507.17,1280.67 1510.26,1277.29 
  1513.34,1273.85 1516.43,1270.34 1519.52,1266.75 1522.6,1263.09 1525.69,1259.36 1528.77,1255.55 1531.86,1251.67 1534.94,1247.71 1538.03,1243.66 1541.12,1239.54 
  1544.2,1235.33 1547.29,1231.04 1550.37,1226.66 1553.46,1222.19 1556.55,1217.63 1559.63,1212.98 1562.72,1208.24 1565.8,1203.39 1568.89,1198.46 1571.98,1193.42 
  1575.06,1188.28 1578.15,1183.03 1581.23,1177.68 1584.32,1172.23 1587.41,1166.66 1590.49,1160.98 1593.58,1155.18 1596.66,1149.27 1599.75,1143.23 1602.83,1137.08 
  1605.92,1130.8 1609.01,1124.39 1612.09,1117.86 1615.18,1111.19 1618.26,1104.39 1621.35,1097.45 1624.44,1090.36 1627.52,1083.14 1630.61,1075.77 1633.69,1068.25 
  1636.78,1060.58 1639.87,1052.75 1642.95,1044.77 1646.04,1036.62 1649.12,1028.31 1652.21,1019.83 1655.3,1011.18 1658.38,1002.36 1661.47,993.355 1664.55,984.169 
  1667.64,974.798 1670.72,965.238 1673.81,955.484 1676.9,945.533 1679.98,935.381 1683.07,925.024 1686.15,914.457 1689.24,903.677 1692.33,892.68 1695.41,881.46 
  1698.5,870.014 1701.58,858.336 1704.67,846.423 1707.76,834.269 1710.84,821.87 1713.93,809.22 1717.01,796.316 1720.1,783.151 1723.19,769.72 1726.27,756.019 
  1729.36,742.041 1732.44,727.781 1735.53,713.234 1738.61,698.394 1741.7,683.255 1744.79,667.81 1747.87,652.055 1750.96,635.983 1754.04,619.586 1757.13,602.86 
  1760.22,585.798 1763.3,568.392 1766.39,550.636 1769.47,532.523 1772.56,514.046 1775.65,495.198 1778.73,475.971 1781.82,456.358 1784.9,436.351 1787.99,415.943 
  1791.08,395.125 1794.16,373.89 1797.25,352.229 1800.33,330.134 1803.42,307.597 1806.5,284.608 1809.59,261.159 1812.68,237.24 1815.76,212.843 1818.85,187.959 
  1821.93,162.577 
  "/>
<circle clip-path="url(#clip832)" cx="248.121" cy="1447.81" r="10" fill="#00bfff" fill-rule="evenodd" fill-opacity="1" stroke="#000000" stroke-opacity="1" stroke-width="3.2"/>
<circle clip-path="url(#clip832)" cx="402.416" cy="1447.73" r="10" fill="#00bfff" fill-rule="evenodd" fill-opacity="1" stroke="#000000" stroke-opacity="1" stroke-width="3.2"/>
<circle clip-path="url(#clip832)" cx="556.711" cy="1447.51" r="10" fill="#00bfff" fill-rule="evenodd" fill-opacity="1" stroke="#000000" stroke-opacity="1" stroke-width="3.2"/>
<circle clip-path="url(#clip832)" cx="711.007" cy="1446.9" r="10" fill="#00bfff" fill-rule="evenodd" fill-opacity="1" stroke="#000000" stroke-opacity="1" stroke-width="3.2"/>
<circle clip-path="url(#clip832)" cx="865.302" cy="1445.25" r="10" fill="#00bfff" fill-rule="evenodd" fill-opacity="1" stroke="#000000" stroke-opacity="1" stroke-width="3.2"/>
<circle clip-path="url(#clip832)" cx="1019.6" cy="1440.77" r="10" fill="#00bfff" fill-rule="evenodd" fill-opacity="1" stroke="#000000" stroke-opacity="1" stroke-width="3.2"/>
<circle clip-path="url(#clip832)" cx="1173.89" cy="1428.58" r="10" fill="#00bfff" fill-rule="evenodd" fill-opacity="1" stroke="#000000" stroke-opacity="1" stroke-width="3.2"/>
<circle clip-path="url(#clip832)" cx="1328.19" cy="1395.45" r="10" fill="#00bfff" fill-rule="evenodd" fill-opacity="1" stroke="#000000" stroke-opacity="1" stroke-width="3.2"/>
<circle clip-path="url(#clip832)" cx="1482.48" cy="1305.39" r="10" fill="#00bfff" fill-rule="evenodd" fill-opacity="1" stroke="#000000" stroke-opacity="1" stroke-width="3.2"/>
<circle clip-path="url(#clip832)" cx="1636.78" cy="1060.58" r="10" fill="#00bfff" fill-rule="evenodd" fill-opacity="1" stroke="#000000" stroke-opacity="1" stroke-width="3.2"/>
<circle clip-path="url(#clip832)" cx="1791.08" cy="395.125" r="10" fill="#00bfff" fill-rule="evenodd" fill-opacity="1" stroke="#000000" stroke-opacity="1" stroke-width="3.2"/>
<circle clip-path="url(#clip832)" cx="1135.32" cy="1432.84" r="10" fill="#0000ff" fill-rule="evenodd" fill-opacity="1" stroke="#000000" stroke-opacity="1" stroke-width="3.2"/>
<circle clip-path="url(#clip832)" cx="1289.61" cy="1407.04" r="10" fill="#0000ff" fill-rule="evenodd" fill-opacity="1" stroke="#000000" stroke-opacity="1" stroke-width="3.2"/>
<circle clip-path="url(#clip832)" cx="1443.91" cy="1336.9" r="10" fill="#0000ff" fill-rule="evenodd" fill-opacity="1" stroke="#000000" stroke-opacity="1" stroke-width="3.2"/>
<circle clip-path="url(#clip832)" cx="1598.21" cy="1146.25" r="10" fill="#0000ff" fill-rule="evenodd" fill-opacity="1" stroke="#000000" stroke-opacity="1" stroke-width="3.2"/>
<circle clip-path="url(#clip832)" cx="1752.5" cy="627.989" r="10" fill="#0000ff" fill-rule="evenodd" fill-opacity="1" stroke="#000000" stroke-opacity="1" stroke-width="3.2"/>
<circle clip-path="url(#clip832)" cx="1135.32" cy="1432.84" r="10" fill="#ff0000" fill-rule="evenodd" fill-opacity="1" stroke="#000000" stroke-opacity="1" stroke-width="3.2"/>
<circle clip-path="url(#clip832)" cx="1289.61" cy="1407.04" r="10" fill="#ff0000" fill-rule="evenodd" fill-opacity="1" stroke="#000000" stroke-opacity="1" stroke-width="3.2"/>
<circle clip-path="url(#clip832)" cx="1443.91" cy="1336.9" r="10" fill="#ff0000" fill-rule="evenodd" fill-opacity="1" stroke="#000000" stroke-opacity="1" stroke-width="3.2"/>
<circle clip-path="url(#clip832)" cx="1598.21" cy="1146.26" r="10" fill="#ff0000" fill-rule="evenodd" fill-opacity="1" stroke="#000000" stroke-opacity="1" stroke-width="3.2"/>
<circle clip-path="url(#clip832)" cx="1752.5" cy="627.825" r="10" fill="#ff0000" fill-rule="evenodd" fill-opacity="1" stroke="#000000" stroke-opacity="1" stroke-width="3.2"/>
<path clip-path="url(#clip830)" d="
M1942.86 479.945 L2352.76 479.945 L2352.76 168.905 L1942.86 168.905  Z
  " fill="#ffffff" fill-rule="evenodd" fill-opacity="1"/>
<polyline clip-path="url(#clip830)" style="stroke:#000000; stroke-linecap:butt; stroke-linejoin:round; stroke-width:4; stroke-opacity:1; fill:none" points="
  1942.86,479.945 2352.76,479.945 2352.76,168.905 1942.86,168.905 1942.86,479.945 
  "/>
<polyline clip-path="url(#clip830)" style="stroke:#009af9; stroke-linecap:butt; stroke-linejoin:round; stroke-width:4; stroke-opacity:1; fill:none" points="
  1967.12,220.745 2112.7,220.745 
  "/>
<path clip-path="url(#clip830)" d="M2153.47 202.006 L2153.47 205.548 L2149.39 205.548 Q2147.1 205.548 2146.2 206.474 Q2145.32 207.4 2145.32 209.807 L2145.32 212.099 L2152.33 212.099 L2152.33 215.409 L2145.32 215.409 L2145.32 238.025 L2141.04 238.025 L2141.04 215.409 L2136.96 215.409 L2136.96 212.099 L2141.04 212.099 L2141.04 210.293 Q2141.04 205.965 2143.05 203.997 Q2145.06 202.006 2149.44 202.006 L2153.47 202.006 Z" fill="#000000" fill-rule="evenodd" fill-opacity="1" /><path clip-path="url(#clip830)" d="M2167.26 202.053 Q2164.16 207.377 2162.66 212.585 Q2161.15 217.793 2161.15 223.14 Q2161.15 228.488 2162.66 233.742 Q2164.19 238.974 2167.26 244.275 L2163.56 244.275 Q2160.09 238.835 2158.35 233.58 Q2156.64 228.326 2156.64 223.14 Q2156.64 217.978 2158.35 212.747 Q2160.06 207.516 2163.56 202.053 L2167.26 202.053 Z" fill="#000000" fill-rule="evenodd" fill-opacity="1" /><path clip-path="url(#clip830)" d="M2197.08 212.099 L2187.7 224.715 L2197.56 238.025 L2192.54 238.025 L2185 227.84 L2177.45 238.025 L2172.43 238.025 L2182.5 224.46 L2173.28 212.099 L2178.31 212.099 L2185.18 221.335 L2192.06 212.099 L2197.08 212.099 Z" fill="#000000" fill-rule="evenodd" fill-opacity="1" /><path clip-path="url(#clip830)" d="M2202.91 202.053 L2206.62 202.053 Q2210.09 207.516 2211.8 212.747 Q2213.54 217.978 2213.54 223.14 Q2213.54 228.326 2211.8 233.58 Q2210.09 238.835 2206.62 244.275 L2202.91 244.275 Q2205.99 238.974 2207.5 233.742 Q2209.02 228.488 2209.02 223.14 Q2209.02 217.793 2207.5 212.585 Q2205.99 207.377 2202.91 202.053 Z" fill="#000000" fill-rule="evenodd" fill-opacity="1" /><polyline clip-path="url(#clip830)" style="stroke:#ee82ee; stroke-linecap:butt; stroke-linejoin:round; stroke-width:4; stroke-opacity:1; fill:none" points="
  1967.12,272.585 2112.7,272.585 
  "/>
<path clip-path="url(#clip830)" d="M2141.25 285.976 L2141.25 299.726 L2136.96 299.726 L2136.96 263.939 L2141.25 263.939 L2141.25 267.874 Q2142.59 265.559 2144.63 264.448 Q2146.69 263.314 2149.53 263.314 Q2154.25 263.314 2157.19 267.064 Q2160.16 270.814 2160.16 276.925 Q2160.16 283.036 2157.19 286.786 Q2154.25 290.536 2149.53 290.536 Q2146.69 290.536 2144.63 289.425 Q2142.59 288.291 2141.25 285.976 M2155.74 276.925 Q2155.74 272.226 2153.79 269.564 Q2151.87 266.879 2148.49 266.879 Q2145.11 266.879 2143.17 269.564 Q2141.25 272.226 2141.25 276.925 Q2141.25 281.624 2143.17 284.309 Q2145.11 286.971 2148.49 286.971 Q2151.87 286.971 2153.79 284.309 Q2155.74 281.624 2155.74 276.925 Z" fill="#000000" fill-rule="evenodd" fill-opacity="1" /><path clip-path="url(#clip830)" d="M2177.45 253.893 Q2174.35 259.217 2172.84 264.425 Q2171.34 269.633 2171.34 274.98 Q2171.34 280.328 2172.84 285.582 Q2174.37 290.814 2177.45 296.115 L2173.75 296.115 Q2170.27 290.675 2168.54 285.42 Q2166.82 280.166 2166.82 274.98 Q2166.82 269.818 2168.54 264.587 Q2170.25 259.356 2173.75 253.893 L2177.45 253.893 Z" fill="#000000" fill-rule="evenodd" fill-opacity="1" /><path clip-path="url(#clip830)" d="M2207.26 263.939 L2197.89 276.555 L2207.75 289.865 L2202.73 289.865 L2195.18 279.68 L2187.63 289.865 L2182.61 289.865 L2192.68 276.3 L2183.47 263.939 L2188.49 263.939 L2195.37 273.175 L2202.24 263.939 L2207.26 263.939 Z" fill="#000000" fill-rule="evenodd" fill-opacity="1" /><path clip-path="url(#clip830)" d="M2213.1 253.893 L2216.8 253.893 Q2220.27 259.356 2221.99 264.587 Q2223.72 269.818 2223.72 274.98 Q2223.72 280.166 2221.99 285.42 Q2220.27 290.675 2216.8 296.115 L2213.1 296.115 Q2216.18 290.814 2217.68 285.582 Q2219.21 280.328 2219.21 274.98 Q2219.21 269.633 2217.68 264.425 Q2216.18 259.217 2213.1 253.893 Z" fill="#000000" fill-rule="evenodd" fill-opacity="1" /><circle clip-path="url(#clip830)" cx="2039.91" cy="324.425" r="23" fill="#00bfff" fill-rule="evenodd" fill-opacity="1" stroke="#000000" stroke-opacity="1" stroke-width="6.82667"/>
<path clip-path="url(#clip830)" d="M2155.39 316.543 L2155.39 320.571 Q2153.58 319.645 2151.64 319.182 Q2149.69 318.719 2147.61 318.719 Q2144.44 318.719 2142.84 319.691 Q2141.27 320.663 2141.27 322.608 Q2141.27 324.089 2142.4 324.945 Q2143.54 325.779 2146.96 326.543 L2148.42 326.867 Q2152.96 327.839 2154.86 329.621 Q2156.78 331.381 2156.78 334.552 Q2156.78 338.163 2153.91 340.269 Q2151.06 342.376 2146.06 342.376 Q2143.98 342.376 2141.71 341.959 Q2139.46 341.566 2136.96 340.756 L2136.96 336.357 Q2139.32 337.584 2141.62 338.209 Q2143.91 338.811 2146.15 338.811 Q2149.16 338.811 2150.78 337.793 Q2152.4 336.751 2152.4 334.876 Q2152.4 333.14 2151.22 332.214 Q2150.06 331.288 2146.11 330.432 L2144.63 330.084 Q2140.67 329.251 2138.91 327.538 Q2137.15 325.802 2137.15 322.793 Q2137.15 319.135 2139.74 317.145 Q2142.33 315.154 2147.1 315.154 Q2149.46 315.154 2151.55 315.501 Q2153.63 315.848 2155.39 316.543 Z" fill="#000000" fill-rule="evenodd" fill-opacity="1" /><path clip-path="url(#clip830)" d="M2175.34 328.672 Q2170.18 328.672 2168.19 329.853 Q2166.2 331.033 2166.2 333.881 Q2166.2 336.149 2167.68 337.492 Q2169.19 338.811 2171.75 338.811 Q2175.3 338.811 2177.43 336.311 Q2179.58 333.788 2179.58 329.621 L2179.58 328.672 L2175.34 328.672 M2183.84 326.913 L2183.84 341.705 L2179.58 341.705 L2179.58 337.769 Q2178.12 340.131 2175.94 341.265 Q2173.77 342.376 2170.62 342.376 Q2166.64 342.376 2164.28 340.154 Q2161.94 337.908 2161.94 334.158 Q2161.94 329.783 2164.86 327.561 Q2167.8 325.339 2173.61 325.339 L2179.58 325.339 L2179.58 324.922 Q2179.58 321.983 2177.63 320.385 Q2175.71 318.765 2172.22 318.765 Q2170 318.765 2167.89 319.297 Q2165.78 319.83 2163.84 320.895 L2163.84 316.959 Q2166.18 316.057 2168.37 315.617 Q2170.57 315.154 2172.66 315.154 Q2178.28 315.154 2181.06 318.071 Q2183.84 320.987 2183.84 326.913 Z" fill="#000000" fill-rule="evenodd" fill-opacity="1" /><path clip-path="url(#clip830)" d="M2212.8 320.756 Q2214.39 317.885 2216.62 316.52 Q2218.84 315.154 2221.85 315.154 Q2225.9 315.154 2228.1 318.001 Q2230.3 320.825 2230.3 326.057 L2230.3 341.705 L2226.01 341.705 L2226.01 326.195 Q2226.01 322.469 2224.69 320.663 Q2223.37 318.858 2220.67 318.858 Q2217.36 318.858 2215.43 321.057 Q2213.51 323.256 2213.51 327.052 L2213.51 341.705 L2209.23 341.705 L2209.23 326.195 Q2209.23 322.445 2207.91 320.663 Q2206.59 318.858 2203.84 318.858 Q2200.57 318.858 2198.65 321.08 Q2196.73 323.279 2196.73 327.052 L2196.73 341.705 L2192.45 341.705 L2192.45 315.779 L2196.73 315.779 L2196.73 319.807 Q2198.19 317.422 2200.23 316.288 Q2202.26 315.154 2205.06 315.154 Q2207.89 315.154 2209.86 316.589 Q2211.85 318.024 2212.8 320.756 Z" fill="#000000" fill-rule="evenodd" fill-opacity="1" /><path clip-path="url(#clip830)" d="M2242.91 337.816 L2242.91 351.566 L2238.63 351.566 L2238.63 315.779 L2242.91 315.779 L2242.91 319.714 Q2244.25 317.399 2246.29 316.288 Q2248.35 315.154 2251.2 315.154 Q2255.92 315.154 2258.86 318.904 Q2261.82 322.654 2261.82 328.765 Q2261.82 334.876 2258.86 338.626 Q2255.92 342.376 2251.2 342.376 Q2248.35 342.376 2246.29 341.265 Q2244.25 340.131 2242.91 337.816 M2257.4 328.765 Q2257.4 324.066 2255.46 321.404 Q2253.54 318.719 2250.16 318.719 Q2246.78 318.719 2244.83 321.404 Q2242.91 324.066 2242.91 328.765 Q2242.91 333.464 2244.83 336.149 Q2246.78 338.811 2250.16 338.811 Q2253.54 338.811 2255.46 336.149 Q2257.4 333.464 2257.4 328.765 Z" fill="#000000" fill-rule="evenodd" fill-opacity="1" /><path clip-path="url(#clip830)" d="M2268.88 305.686 L2273.14 305.686 L2273.14 341.705 L2268.88 341.705 L2268.88 305.686 Z" fill="#000000" fill-rule="evenodd" fill-opacity="1" /><path clip-path="url(#clip830)" d="M2304.23 327.677 L2304.23 329.76 L2284.65 329.76 Q2284.93 334.158 2287.29 336.473 Q2289.67 338.765 2293.91 338.765 Q2296.36 338.765 2298.65 338.163 Q2300.97 337.561 2303.24 336.357 L2303.24 340.385 Q2300.94 341.357 2298.54 341.867 Q2296.13 342.376 2293.65 342.376 Q2287.45 342.376 2283.81 338.765 Q2280.2 335.154 2280.2 328.996 Q2280.2 322.631 2283.63 318.904 Q2287.08 315.154 2292.91 315.154 Q2298.14 315.154 2301.18 318.533 Q2304.23 321.89 2304.23 327.677 M2299.97 326.427 Q2299.93 322.932 2298 320.848 Q2296.11 318.765 2292.96 318.765 Q2289.39 318.765 2287.24 320.779 Q2285.11 322.793 2284.79 326.45 L2299.97 326.427 Z" fill="#000000" fill-rule="evenodd" fill-opacity="1" /><circle clip-path="url(#clip830)" cx="2039.91" cy="376.265" r="23" fill="#0000ff" fill-rule="evenodd" fill-opacity="1" stroke="#000000" stroke-opacity="1" stroke-width="6.82667"/>
<path clip-path="url(#clip830)" d="M2144.37 360.258 L2144.37 367.619 L2153.14 367.619 L2153.14 370.929 L2144.37 370.929 L2144.37 385.003 Q2144.37 388.174 2145.23 389.077 Q2146.11 389.98 2148.77 389.98 L2153.14 389.98 L2153.14 393.545 L2148.77 393.545 Q2143.84 393.545 2141.96 391.716 Q2140.09 389.864 2140.09 385.003 L2140.09 370.929 L2136.96 370.929 L2136.96 367.619 L2140.09 367.619 L2140.09 360.258 L2144.37 360.258 Z" fill="#000000" fill-rule="evenodd" fill-opacity="1" /><path clip-path="url(#clip830)" d="M2173.77 371.6 Q2173.05 371.184 2172.19 370.998 Q2171.36 370.79 2170.34 370.79 Q2166.73 370.79 2164.79 373.151 Q2162.87 375.489 2162.87 379.887 L2162.87 393.545 L2158.58 393.545 L2158.58 367.619 L2162.87 367.619 L2162.87 371.647 Q2164.21 369.286 2166.36 368.151 Q2168.51 366.994 2171.59 366.994 Q2172.03 366.994 2172.56 367.063 Q2173.1 367.11 2173.75 367.225 L2173.77 371.6 Z" fill="#000000" fill-rule="evenodd" fill-opacity="1" /><path clip-path="url(#clip830)" d="M2177.8 383.313 L2177.8 367.619 L2182.06 367.619 L2182.06 383.151 Q2182.06 386.832 2183.49 388.684 Q2184.93 390.512 2187.8 390.512 Q2191.25 390.512 2193.24 388.313 Q2195.25 386.114 2195.25 382.318 L2195.25 367.619 L2199.51 367.619 L2199.51 393.545 L2195.25 393.545 L2195.25 389.563 Q2193.7 391.924 2191.64 393.082 Q2189.6 394.216 2186.89 394.216 Q2182.43 394.216 2180.11 391.438 Q2177.8 388.66 2177.8 383.313 M2188.51 366.994 L2188.51 366.994 Z" fill="#000000" fill-rule="evenodd" fill-opacity="1" /><path clip-path="url(#clip830)" d="M2230.46 379.517 L2230.46 381.6 L2210.87 381.6 Q2211.15 385.998 2213.51 388.313 Q2215.9 390.605 2220.13 390.605 Q2222.59 390.605 2224.88 390.003 Q2227.19 389.401 2229.46 388.197 L2229.46 392.225 Q2227.17 393.197 2224.76 393.707 Q2222.36 394.216 2219.88 394.216 Q2213.68 394.216 2210.04 390.605 Q2206.43 386.994 2206.43 380.836 Q2206.43 374.471 2209.86 370.744 Q2213.31 366.994 2219.14 366.994 Q2224.37 366.994 2227.4 370.373 Q2230.46 373.73 2230.46 379.517 M2226.2 378.267 Q2226.15 374.772 2224.23 372.688 Q2222.33 370.605 2219.18 370.605 Q2215.62 370.605 2213.47 372.619 Q2211.34 374.633 2211.01 378.29 L2226.2 378.267 Z" fill="#000000" fill-rule="evenodd" fill-opacity="1" /><circle clip-path="url(#clip830)" cx="2039.91" cy="428.105" r="23" fill="#ff0000" fill-rule="evenodd" fill-opacity="1" stroke="#000000" stroke-opacity="1" stroke-width="6.82667"/>
<path clip-path="url(#clip830)" d="M2150.37 432.352 Q2145.2 432.352 2143.21 433.533 Q2141.22 434.713 2141.22 437.561 Q2141.22 439.829 2142.7 441.172 Q2144.21 442.491 2146.78 442.491 Q2150.32 442.491 2152.45 439.991 Q2154.6 437.468 2154.6 433.301 L2154.6 432.352 L2150.37 432.352 M2158.86 430.593 L2158.86 445.385 L2154.6 445.385 L2154.6 441.449 Q2153.14 443.811 2150.97 444.945 Q2148.79 446.056 2145.64 446.056 Q2141.66 446.056 2139.3 443.834 Q2136.96 441.588 2136.96 437.838 Q2136.96 433.463 2139.88 431.241 Q2142.82 429.019 2148.63 429.019 L2154.6 429.019 L2154.6 428.602 Q2154.6 425.663 2152.66 424.065 Q2150.74 422.445 2147.24 422.445 Q2145.02 422.445 2142.91 422.977 Q2140.81 423.51 2138.86 424.575 L2138.86 420.639 Q2141.2 419.737 2143.4 419.297 Q2145.6 418.834 2147.68 418.834 Q2153.31 418.834 2156.08 421.751 Q2158.86 424.667 2158.86 430.593 Z" fill="#000000" fill-rule="evenodd" fill-opacity="1" /><path clip-path="url(#clip830)" d="M2171.75 441.496 L2171.75 455.246 L2167.47 455.246 L2167.47 419.459 L2171.75 419.459 L2171.75 423.394 Q2173.1 421.079 2175.13 419.968 Q2177.19 418.834 2180.04 418.834 Q2184.76 418.834 2187.7 422.584 Q2190.67 426.334 2190.67 432.445 Q2190.67 438.556 2187.7 442.306 Q2184.76 446.056 2180.04 446.056 Q2177.19 446.056 2175.13 444.945 Q2173.1 443.811 2171.75 441.496 M2186.25 432.445 Q2186.25 427.746 2184.3 425.084 Q2182.38 422.399 2179 422.399 Q2175.62 422.399 2173.68 425.084 Q2171.75 427.746 2171.75 432.445 Q2171.75 437.144 2173.68 439.829 Q2175.62 442.491 2179 442.491 Q2182.38 442.491 2184.3 439.829 Q2186.25 437.144 2186.25 432.445 Z" fill="#000000" fill-rule="evenodd" fill-opacity="1" /><path clip-path="url(#clip830)" d="M2201.85 441.496 L2201.85 455.246 L2197.56 455.246 L2197.56 419.459 L2201.85 419.459 L2201.85 423.394 Q2203.19 421.079 2205.23 419.968 Q2207.29 418.834 2210.13 418.834 Q2214.86 418.834 2217.8 422.584 Q2220.76 426.334 2220.76 432.445 Q2220.76 438.556 2217.8 442.306 Q2214.86 446.056 2210.13 446.056 Q2207.29 446.056 2205.23 444.945 Q2203.19 443.811 2201.85 441.496 M2216.34 432.445 Q2216.34 427.746 2214.39 425.084 Q2212.47 422.399 2209.09 422.399 Q2205.71 422.399 2203.77 425.084 Q2201.85 427.746 2201.85 432.445 Q2201.85 437.144 2203.77 439.829 Q2205.71 442.491 2209.09 442.491 Q2212.47 442.491 2214.39 439.829 Q2216.34 437.144 2216.34 432.445 Z" fill="#000000" fill-rule="evenodd" fill-opacity="1" /><path clip-path="url(#clip830)" d="M2242.84 423.44 Q2242.12 423.024 2241.27 422.838 Q2240.43 422.63 2239.42 422.63 Q2235.81 422.63 2233.86 424.991 Q2231.94 427.329 2231.94 431.727 L2231.94 445.385 L2227.66 445.385 L2227.66 419.459 L2231.94 419.459 L2231.94 423.487 Q2233.28 421.126 2235.43 419.991 Q2237.59 418.834 2240.67 418.834 Q2241.11 418.834 2241.64 418.903 Q2242.17 418.95 2242.82 419.065 L2242.84 423.44 Z" fill="#000000" fill-rule="evenodd" fill-opacity="1" /><path clip-path="url(#clip830)" d="M2256.31 422.445 Q2252.89 422.445 2250.9 425.13 Q2248.91 427.792 2248.91 432.445 Q2248.91 437.098 2250.87 439.783 Q2252.87 442.445 2256.31 442.445 Q2259.72 442.445 2261.71 439.76 Q2263.7 437.075 2263.7 432.445 Q2263.7 427.838 2261.71 425.153 Q2259.72 422.445 2256.31 422.445 M2256.31 418.834 Q2261.87 418.834 2265.04 422.445 Q2268.21 426.056 2268.21 432.445 Q2268.21 438.811 2265.04 442.445 Q2261.87 446.056 2256.31 446.056 Q2250.74 446.056 2247.56 442.445 Q2244.42 438.811 2244.42 432.445 Q2244.42 426.056 2247.56 422.445 Q2250.74 418.834 2256.31 418.834 Z" fill="#000000" fill-rule="evenodd" fill-opacity="1" /><path clip-path="url(#clip830)" d="M2295.36 419.459 L2285.99 432.075 L2295.85 445.385 L2290.83 445.385 L2283.28 435.2 L2275.74 445.385 L2270.71 445.385 L2280.78 431.82 L2271.57 419.459 L2276.59 419.459 L2283.47 428.695 L2290.34 419.459 L2295.36 419.459 Z" fill="#000000" fill-rule="evenodd" fill-opacity="1" /><path clip-path="url(#clip830)" d="M1804.36 784.436 Q1804.36 786.69 1802.92 788.084 Q1801.53 789.478 1799.76 789.478 Q1798.49 789.478 1797.55 788.699 Q1796.65 787.92 1796.65 786.567 Q1796.65 785.174 1797.72 783.698 Q1798.78 782.223 1801.2 782.018 Q1799.6 780.501 1797.06 780.501 Q1795.79 780.501 1794.72 781.321 Q1793.7 782.1 1793.12 783.37 Q1792.51 784.682 1791.12 792.101 Q1790.66 794.519 1790.26 796.856 Q1789.85 799.192 1789.35 801.652 L1796.32 801.652 Q1797.22 801.652 1797.59 801.693 Q1797.96 801.734 1798.25 801.938 Q1798.58 802.143 1798.58 802.594 Q1798.58 803.742 1798.04 804.029 Q1797.55 804.275 1796.08 804.275 L1788.86 804.275 L1783.82 830.877 Q1783.7 831.656 1783.16 834.115 Q1782.67 836.533 1781.48 840.509 Q1780.29 844.526 1779.11 846.904 Q1778.45 848.256 1777.59 849.527 Q1776.77 850.839 1775.58 852.15 Q1774.39 853.462 1772.83 854.241 Q1771.28 855.061 1769.64 855.061 Q1766.85 855.061 1764.68 853.503 Q1762.51 851.945 1762.51 849.281 Q1762.51 847.027 1763.9 845.633 Q1765.33 844.239 1767.1 844.239 Q1768.37 844.239 1769.27 845.018 Q1770.21 845.797 1770.21 847.15 Q1770.21 847.723 1770.01 848.379 Q1769.8 849.035 1769.35 849.773 Q1768.9 850.552 1767.92 851.085 Q1766.93 851.617 1765.58 851.699 Q1767.18 853.216 1769.64 853.216 Q1770.42 853.216 1771.11 852.888 Q1771.81 852.601 1772.38 851.863 Q1773 851.126 1773.45 850.388 Q1773.9 849.691 1774.35 848.338 Q1774.8 847.027 1775.09 846.043 Q1775.38 845.059 1775.74 843.297 Q1776.15 841.534 1776.36 840.468 Q1776.56 839.444 1776.93 837.435 L1783.2 804.275 L1777.67 804.275 Q1776.69 804.275 1776.28 804.234 Q1775.91 804.193 1775.62 803.988 Q1775.33 803.742 1775.33 803.25 Q1775.33 802.471 1775.66 802.143 Q1776.03 801.774 1776.44 801.734 Q1776.85 801.652 1777.84 801.652 L1783.66 801.652 Q1785.62 791.281 1786.4 788.494 Q1787.3 785.543 1788.7 783.493 Q1790.09 781.403 1791.65 780.419 Q1793.21 779.435 1794.48 779.066 Q1795.79 778.657 1797.06 778.657 Q1799.93 778.657 1802.14 780.214 Q1804.36 781.731 1804.36 784.436 Z" fill="#000000" fill-rule="evenodd" fill-opacity="1" /><path clip-path="url(#clip830)" d="M1815.66 816.859 Q1815.66 802.676 1820.94 791.24 Q1823.2 786.445 1826.35 782.428 Q1829.51 778.411 1831.6 776.648 Q1833.69 774.886 1834.26 774.886 Q1835.08 774.886 1835.12 775.705 Q1835.12 776.115 1834.02 777.14 Q1820.49 790.912 1820.53 816.859 Q1820.53 842.887 1833.69 856.126 Q1835.12 857.561 1835.12 858.012 Q1835.12 858.832 1834.26 858.832 Q1833.69 858.832 1831.68 857.151 Q1829.67 855.47 1826.56 851.617 Q1823.44 847.764 1821.19 843.051 Q1815.66 831.615 1815.66 816.859 Z" fill="#000000" fill-rule="evenodd" fill-opacity="1" /><path clip-path="url(#clip830)" d="M1883.31 806.283 Q1883.31 808.579 1881.88 809.89 Q1880.44 811.161 1878.8 811.161 Q1877.25 811.161 1876.43 810.259 Q1875.61 809.358 1875.61 808.21 Q1875.61 806.652 1876.76 805.3 Q1877.9 803.947 1879.62 803.66 Q1877.94 802.594 1875.44 802.594 Q1873.8 802.594 1872.37 803.455 Q1870.98 804.316 1870.11 805.423 Q1869.3 806.529 1868.56 808.128 Q1867.86 809.685 1867.57 810.628 Q1867.33 811.53 1867.12 812.514 L1864.25 823.991 Q1862.86 829.442 1862.86 831.369 Q1862.86 833.746 1864.01 835.345 Q1865.16 836.902 1867.45 836.902 Q1868.35 836.902 1869.38 836.656 Q1870.4 836.369 1871.71 835.632 Q1873.07 834.853 1874.25 833.705 Q1875.48 832.516 1876.67 830.508 Q1877.86 828.5 1878.64 825.917 Q1878.89 825.015 1879.71 825.015 Q1880.73 825.015 1880.73 825.835 Q1880.73 826.532 1880.16 828.008 Q1879.62 829.442 1878.44 831.328 Q1877.29 833.172 1875.77 834.853 Q1874.25 836.492 1872 837.64 Q1869.75 838.788 1867.29 838.788 Q1863.76 838.788 1861.43 836.902 Q1859.09 835.017 1858.23 832.393 Q1858.02 832.762 1857.74 833.254 Q1857.45 833.746 1856.59 834.853 Q1855.77 835.919 1854.83 836.738 Q1853.88 837.517 1852.41 838.132 Q1850.97 838.788 1849.42 838.788 Q1847.45 838.788 1845.69 838.214 Q1843.96 837.64 1842.73 836.328 Q1841.5 835.017 1841.5 833.213 Q1841.5 831.205 1842.86 829.811 Q1844.25 828.377 1846.14 828.377 Q1847.32 828.377 1848.27 829.073 Q1849.25 829.77 1849.25 831.287 Q1849.25 832.967 1848.1 834.238 Q1846.96 835.509 1845.32 835.837 Q1847 836.902 1849.5 836.902 Q1852.2 836.902 1854.33 834.525 Q1856.47 832.148 1857.49 828.172 Q1860.03 818.621 1861.02 814.358 Q1862 810.054 1862 808.21 Q1862 806.488 1861.55 805.3 Q1861.1 804.111 1860.32 803.578 Q1859.58 803.004 1858.88 802.799 Q1858.23 802.594 1857.49 802.594 Q1856.26 802.594 1854.87 803.086 Q1853.51 803.578 1851.87 804.726 Q1850.28 805.832 1848.76 808.128 Q1847.24 810.423 1846.22 813.579 Q1846.01 814.522 1845.11 814.522 Q1844.13 814.481 1844.13 813.661 Q1844.13 812.965 1844.66 811.53 Q1845.23 810.054 1846.38 808.21 Q1847.57 806.365 1849.09 804.726 Q1850.64 803.045 1852.9 801.897 Q1855.19 800.75 1857.65 800.75 Q1858.76 800.75 1859.83 800.996 Q1860.93 801.201 1862.24 801.815 Q1863.6 802.43 1864.79 803.783 Q1865.97 805.136 1866.71 807.103 Q1867.2 806.16 1867.86 805.259 Q1868.56 804.357 1869.62 803.25 Q1870.73 802.102 1872.25 801.447 Q1873.8 800.75 1875.53 800.75 Q1877.21 800.75 1878.85 801.201 Q1880.49 801.611 1881.88 802.963 Q1883.31 804.275 1883.31 806.283 Z" fill="#000000" fill-rule="evenodd" fill-opacity="1" /><path clip-path="url(#clip830)" d="M1891.39 858.012 Q1891.39 857.602 1892.46 856.577 Q1905.99 842.805 1905.99 816.859 Q1905.99 790.83 1892.99 777.673 Q1891.39 776.156 1891.39 775.705 Q1891.39 774.886 1892.21 774.886 Q1892.79 774.886 1894.8 776.566 Q1896.85 778.247 1899.92 782.1 Q1903.04 785.953 1905.33 790.666 Q1910.86 802.102 1910.86 816.859 Q1910.86 831.041 1905.58 842.477 Q1903.32 847.273 1900.17 851.29 Q1897.01 855.306 1894.92 857.069 Q1892.83 858.832 1892.21 858.832 Q1891.39 858.832 1891.39 858.012 Z" fill="#000000" fill-rule="evenodd" fill-opacity="1" /><path clip-path="url(#clip830)" d="M1946.92 825.097 Q1947 824.073 1948.6 824.073 L2000.04 824.073 Q2002.46 824.073 2002.5 825.015 Q2002.5 826.04 2000.2 825.999 L1949.17 825.999 Q1946.92 826.04 1946.92 825.097 M1946.92 808.702 Q1946.92 807.677 1948.68 807.718 L1999.96 807.718 Q2002.46 807.718 2002.5 808.702 Q2002.5 809.644 2000.37 809.644 L1948.6 809.644 Q1946.92 809.644 1946.92 808.702 Z" fill="#000000" fill-rule="evenodd" fill-opacity="1" /><path clip-path="url(#clip830)" d="M2066.81 828.131 Q2067.14 828.5 2067.14 828.868 Q2067.14 829.237 2066.32 830.303 Q2065.54 831.369 2063.86 832.803 Q2062.18 834.238 2060 835.591 Q2057.83 836.943 2054.63 837.845 Q2051.44 838.788 2048.08 838.788 Q2042.05 838.788 2038.44 834.484 Q2034.88 830.18 2034.88 823.581 Q2034.88 819.359 2036.27 815.629 Q2037.67 811.858 2039.92 809.194 Q2042.21 806.529 2045.08 804.603 Q2047.99 802.635 2051.03 801.693 Q2054.06 800.75 2056.89 800.75 Q2061.03 800.75 2063.45 802.84 Q2065.87 804.931 2065.87 807.882 Q2065.87 808.579 2065.66 809.439 Q2065.5 810.3 2064.92 811.653 Q2064.39 813.006 2063 814.358 Q2061.6 815.67 2059.55 816.531 Q2055 818.457 2046.72 818.457 L2042.26 818.457 Q2040.94 823.745 2040.94 827.188 Q2040.94 828.54 2041.19 829.934 Q2041.44 831.287 2042.09 833.008 Q2042.79 834.73 2044.35 835.837 Q2045.94 836.902 2048.24 836.902 Q2048.98 836.902 2049.76 836.861 Q2050.58 836.82 2052.63 836.369 Q2054.72 835.919 2056.56 835.14 Q2058.41 834.361 2060.74 832.68 Q2063.12 830.959 2065.01 828.622 Q2065.66 827.762 2066.11 827.762 Q2066.48 827.762 2066.81 828.131 M2063.08 807.882 Q2063.08 805.627 2061.4 804.111 Q2059.76 802.594 2056.89 802.594 Q2055.99 802.594 2054.88 802.799 Q2053.77 803.004 2051.93 803.865 Q2050.13 804.726 2048.53 806.16 Q2046.93 807.554 2045.33 810.3 Q2043.73 813.006 2042.79 816.613 L2046.23 816.613 Q2047.42 816.613 2048.28 816.613 Q2049.14 816.572 2051.03 816.408 Q2052.95 816.244 2054.35 815.957 Q2055.74 815.629 2057.5 814.973 Q2059.27 814.317 2060.37 813.456 Q2061.52 812.555 2062.3 811.12 Q2063.08 809.685 2063.08 807.882 Z" fill="#000000" fill-rule="evenodd" fill-opacity="1" /><path clip-path="url(#clip830)" d="M2105.04 786.075 Q2105.04 787.682 2104.04 788.6 Q2103.03 789.49 2101.89 789.49 Q2100.8 789.49 2100.22 788.859 Q2099.65 788.227 2099.65 787.424 Q2099.65 786.334 2100.45 785.387 Q2101.25 784.44 2102.46 784.239 Q2101.28 783.493 2099.53 783.493 Q2098.39 783.493 2097.38 784.096 Q2096.41 784.698 2095.8 785.473 Q2095.23 786.248 2094.71 787.367 Q2094.22 788.457 2094.02 789.117 Q2093.85 789.748 2093.71 790.437 L2091.7 798.471 Q2090.72 802.287 2090.72 803.635 Q2090.72 805.299 2091.53 806.418 Q2092.33 807.509 2093.94 807.509 Q2094.57 807.509 2095.29 807.337 Q2096 807.136 2096.92 806.619 Q2097.87 806.074 2098.7 805.271 Q2099.56 804.439 2100.39 803.033 Q2101.23 801.627 2101.77 799.819 Q2101.94 799.188 2102.52 799.188 Q2103.23 799.188 2103.23 799.762 Q2103.23 800.25 2102.83 801.282 Q2102.46 802.287 2101.63 803.607 Q2100.82 804.898 2099.76 806.074 Q2098.7 807.222 2097.12 808.025 Q2095.54 808.829 2093.82 808.829 Q2091.36 808.829 2089.72 807.509 Q2088.08 806.189 2087.48 804.353 Q2087.34 804.611 2087.14 804.955 Q2086.94 805.299 2086.33 806.074 Q2085.76 806.82 2085.1 807.394 Q2084.44 807.939 2083.41 808.37 Q2082.4 808.829 2081.31 808.829 Q2079.94 808.829 2078.7 808.427 Q2077.5 808.025 2076.64 807.107 Q2075.78 806.189 2075.78 804.926 Q2075.78 803.52 2076.72 802.545 Q2077.7 801.541 2079.02 801.541 Q2079.85 801.541 2080.51 802.028 Q2081.2 802.516 2081.2 803.578 Q2081.2 804.754 2080.39 805.644 Q2079.59 806.533 2078.44 806.763 Q2079.62 807.509 2081.37 807.509 Q2083.26 807.509 2084.76 805.845 Q2086.25 804.18 2086.97 801.397 Q2088.74 794.712 2089.43 791.728 Q2090.12 788.715 2090.12 787.424 Q2090.12 786.219 2089.81 785.387 Q2089.49 784.555 2088.95 784.182 Q2088.43 783.78 2087.94 783.637 Q2087.48 783.493 2086.97 783.493 Q2086.1 783.493 2085.13 783.837 Q2084.18 784.182 2083.03 784.985 Q2081.92 785.76 2080.85 787.367 Q2079.79 788.973 2079.08 791.183 Q2078.93 791.843 2078.3 791.843 Q2077.61 791.814 2077.61 791.24 Q2077.61 790.752 2077.98 789.748 Q2078.39 788.715 2079.19 787.424 Q2080.02 786.133 2081.08 784.985 Q2082.17 783.809 2083.75 783.005 Q2085.36 782.202 2087.08 782.202 Q2087.85 782.202 2088.6 782.374 Q2089.38 782.518 2090.29 782.948 Q2091.24 783.378 2092.07 784.325 Q2092.9 785.272 2093.42 786.649 Q2093.77 785.989 2094.22 785.358 Q2094.71 784.727 2095.46 783.952 Q2096.23 783.149 2097.29 782.69 Q2098.39 782.202 2099.59 782.202 Q2100.77 782.202 2101.91 782.518 Q2103.06 782.804 2104.04 783.751 Q2105.04 784.67 2105.04 786.075 Z" fill="#000000" fill-rule="evenodd" fill-opacity="1" /></svg>
