<?xml version="1.0" encoding="utf-8"?>
<svg xmlns="http://www.w3.org/2000/svg" xmlns:xlink="http://www.w3.org/1999/xlink" width="600" height="400" viewBox="0 0 2400 1600">
<defs>
  <clipPath id="clip550">
    <rect x="0" y="0" width="2400" height="1600"/>
  </clipPath>
</defs>
<path clip-path="url(#clip550)" d="
M0 1600 L2400 1600 L2400 0 L0 0  Z
  " fill="#ffffff" fill-rule="evenodd" fill-opacity="1"/>
<defs>
  <clipPath id="clip551">
    <rect x="480" y="0" width="1681" height="1600"/>
  </clipPath>
</defs>
<path clip-path="url(#clip550)" d="
M155.765 1486.45 L1868.15 1486.45 L1868.15 123.472 L155.765 123.472  Z
  " fill="#ffffff" fill-rule="evenodd" fill-opacity="1"/>
<defs>
  <clipPath id="clip552">
    <rect x="155" y="123" width="1713" height="1364"/>
  </clipPath>
</defs>
<polyline clip-path="url(#clip552)" style="stroke:#000000; stroke-linecap:butt; stroke-linejoin:round; stroke-width:2; stroke-opacity:0.1; fill:none" points="
  338.85,1486.45 338.85,123.472 
  "/>
<polyline clip-path="url(#clip552)" style="stroke:#000000; stroke-linecap:butt; stroke-linejoin:round; stroke-width:2; stroke-opacity:0.1; fill:none" points="
  675.402,1486.45 675.402,123.472 
  "/>
<polyline clip-path="url(#clip552)" style="stroke:#000000; stroke-linecap:butt; stroke-linejoin:round; stroke-width:2; stroke-opacity:0.1; fill:none" points="
  1011.96,1486.45 1011.96,123.472 
  "/>
<polyline clip-path="url(#clip552)" style="stroke:#000000; stroke-linecap:butt; stroke-linejoin:round; stroke-width:2; stroke-opacity:0.1; fill:none" points="
  1348.51,1486.45 1348.51,123.472 
  "/>
<polyline clip-path="url(#clip552)" style="stroke:#000000; stroke-linecap:butt; stroke-linejoin:round; stroke-width:2; stroke-opacity:0.1; fill:none" points="
  1685.06,1486.45 1685.06,123.472 
  "/>
<polyline clip-path="url(#clip550)" style="stroke:#000000; stroke-linecap:butt; stroke-linejoin:round; stroke-width:4; stroke-opacity:1; fill:none" points="
  155.765,1486.45 1868.15,1486.45 
  "/>
<polyline clip-path="url(#clip550)" style="stroke:#000000; stroke-linecap:butt; stroke-linejoin:round; stroke-width:4; stroke-opacity:1; fill:none" points="
  338.85,1486.45 338.85,1467.55 
  "/>
<polyline clip-path="url(#clip550)" style="stroke:#000000; stroke-linecap:butt; stroke-linejoin:round; stroke-width:4; stroke-opacity:1; fill:none" points="
  675.402,1486.45 675.402,1467.55 
  "/>
<polyline clip-path="url(#clip550)" style="stroke:#000000; stroke-linecap:butt; stroke-linejoin:round; stroke-width:4; stroke-opacity:1; fill:none" points="
  1011.96,1486.45 1011.96,1467.55 
  "/>
<polyline clip-path="url(#clip550)" style="stroke:#000000; stroke-linecap:butt; stroke-linejoin:round; stroke-width:4; stroke-opacity:1; fill:none" points="
  1348.51,1486.45 1348.51,1467.55 
  "/>
<polyline clip-path="url(#clip550)" style="stroke:#000000; stroke-linecap:butt; stroke-linejoin:round; stroke-width:4; stroke-opacity:1; fill:none" points="
  1685.06,1486.45 1685.06,1467.55 
  "/>
<path clip-path="url(#clip550)" d="M285.378 1532.02 L315.053 1532.02 L315.053 1535.95 L285.378 1535.95 L285.378 1532.02 Z" fill="#000000" fill-rule="evenodd" fill-opacity="1" /><path clip-path="url(#clip550)" d="M325.956 1544.91 L333.595 1544.91 L333.595 1518.55 L325.285 1520.21 L325.285 1515.95 L333.549 1514.29 L338.225 1514.29 L338.225 1544.91 L345.863 1544.91 L345.863 1548.85 L325.956 1548.85 L325.956 1544.91 Z" fill="#000000" fill-rule="evenodd" fill-opacity="1" /><path clip-path="url(#clip550)" d="M355.308 1542.97 L360.192 1542.97 L360.192 1548.85 L355.308 1548.85 L355.308 1542.97 Z" fill="#000000" fill-rule="evenodd" fill-opacity="1" /><path clip-path="url(#clip550)" d="M380.377 1517.37 Q376.766 1517.37 374.937 1520.93 Q373.132 1524.47 373.132 1531.6 Q373.132 1538.71 374.937 1542.27 Q376.766 1545.82 380.377 1545.82 Q384.011 1545.82 385.817 1542.27 Q387.646 1538.71 387.646 1531.6 Q387.646 1524.47 385.817 1520.93 Q384.011 1517.37 380.377 1517.37 M380.377 1513.66 Q386.187 1513.66 389.243 1518.27 Q392.322 1522.85 392.322 1531.6 Q392.322 1540.33 389.243 1544.94 Q386.187 1549.52 380.377 1549.52 Q374.567 1549.52 371.488 1544.94 Q368.433 1540.33 368.433 1531.6 Q368.433 1522.85 371.488 1518.27 Q374.567 1513.66 380.377 1513.66 Z" fill="#000000" fill-rule="evenodd" fill-opacity="1" /><path clip-path="url(#clip550)" d="M622.428 1532.02 L652.104 1532.02 L652.104 1535.95 L622.428 1535.95 L622.428 1532.02 Z" fill="#000000" fill-rule="evenodd" fill-opacity="1" /><path clip-path="url(#clip550)" d="M672.196 1517.37 Q668.585 1517.37 666.757 1520.93 Q664.951 1524.47 664.951 1531.6 Q664.951 1538.71 666.757 1542.27 Q668.585 1545.82 672.196 1545.82 Q675.831 1545.82 677.636 1542.27 Q679.465 1538.71 679.465 1531.6 Q679.465 1524.47 677.636 1520.93 Q675.831 1517.37 672.196 1517.37 M672.196 1513.66 Q678.006 1513.66 681.062 1518.27 Q684.141 1522.85 684.141 1531.6 Q684.141 1540.33 681.062 1544.94 Q678.006 1549.52 672.196 1549.52 Q666.386 1549.52 663.307 1544.94 Q660.252 1540.33 660.252 1531.6 Q660.252 1522.85 663.307 1518.27 Q666.386 1513.66 672.196 1513.66 Z" fill="#000000" fill-rule="evenodd" fill-opacity="1" /><path clip-path="url(#clip550)" d="M692.358 1542.97 L697.242 1542.97 L697.242 1548.85 L692.358 1548.85 L692.358 1542.97 Z" fill="#000000" fill-rule="evenodd" fill-opacity="1" /><path clip-path="url(#clip550)" d="M707.474 1514.29 L725.83 1514.29 L725.83 1518.22 L711.756 1518.22 L711.756 1526.7 Q712.775 1526.35 713.793 1526.19 Q714.812 1526 715.83 1526 Q721.617 1526 724.997 1529.17 Q728.377 1532.34 728.377 1537.76 Q728.377 1543.34 724.904 1546.44 Q721.432 1549.52 715.113 1549.52 Q712.937 1549.52 710.668 1549.15 Q708.423 1548.78 706.016 1548.04 L706.016 1543.34 Q708.099 1544.47 710.321 1545.03 Q712.543 1545.58 715.02 1545.58 Q719.025 1545.58 721.363 1543.48 Q723.701 1541.37 723.701 1537.76 Q723.701 1534.15 721.363 1532.04 Q719.025 1529.94 715.02 1529.94 Q713.145 1529.94 711.27 1530.35 Q709.418 1530.77 707.474 1531.65 L707.474 1514.29 Z" fill="#000000" fill-rule="evenodd" fill-opacity="1" /><path clip-path="url(#clip550)" d="M989.339 1517.37 Q985.728 1517.37 983.9 1520.93 Q982.094 1524.47 982.094 1531.6 Q982.094 1538.71 983.9 1542.27 Q985.728 1545.82 989.339 1545.82 Q992.974 1545.82 994.779 1542.27 Q996.608 1538.71 996.608 1531.6 Q996.608 1524.47 994.779 1520.93 Q992.974 1517.37 989.339 1517.37 M989.339 1513.66 Q995.15 1513.66 998.205 1518.27 Q1001.28 1522.85 1001.28 1531.6 Q1001.28 1540.33 998.205 1544.94 Q995.15 1549.52 989.339 1549.52 Q983.529 1549.52 980.451 1544.94 Q977.395 1540.33 977.395 1531.6 Q977.395 1522.85 980.451 1518.27 Q983.529 1513.66 989.339 1513.66 Z" fill="#000000" fill-rule="evenodd" fill-opacity="1" /><path clip-path="url(#clip550)" d="M1009.5 1542.97 L1014.39 1542.97 L1014.39 1548.85 L1009.5 1548.85 L1009.5 1542.97 Z" fill="#000000" fill-rule="evenodd" fill-opacity="1" /><path clip-path="url(#clip550)" d="M1034.57 1517.37 Q1030.96 1517.37 1029.13 1520.93 Q1027.33 1524.47 1027.33 1531.6 Q1027.33 1538.71 1029.13 1542.27 Q1030.96 1545.82 1034.57 1545.82 Q1038.2 1545.82 1040.01 1542.27 Q1041.84 1538.71 1041.84 1531.6 Q1041.84 1524.47 1040.01 1520.93 Q1038.2 1517.37 1034.57 1517.37 M1034.57 1513.66 Q1040.38 1513.66 1043.44 1518.27 Q1046.52 1522.85 1046.52 1531.6 Q1046.52 1540.33 1043.44 1544.94 Q1040.38 1549.52 1034.57 1549.52 Q1028.76 1549.52 1025.68 1544.94 Q1022.63 1540.33 1022.63 1531.6 Q1022.63 1522.85 1025.68 1518.27 Q1028.76 1513.66 1034.57 1513.66 Z" fill="#000000" fill-rule="evenodd" fill-opacity="1" /><path clip-path="url(#clip550)" d="M1326.39 1517.37 Q1322.78 1517.37 1320.95 1520.93 Q1319.14 1524.47 1319.14 1531.6 Q1319.14 1538.71 1320.95 1542.27 Q1322.78 1545.82 1326.39 1545.82 Q1330.02 1545.82 1331.83 1542.27 Q1333.66 1538.71 1333.66 1531.6 Q1333.66 1524.47 1331.83 1520.93 Q1330.02 1517.37 1326.39 1517.37 M1326.39 1513.66 Q1332.2 1513.66 1335.26 1518.27 Q1338.33 1522.85 1338.33 1531.6 Q1338.33 1540.33 1335.26 1544.94 Q1332.2 1549.52 1326.39 1549.52 Q1320.58 1549.52 1317.5 1544.94 Q1314.45 1540.33 1314.45 1531.6 Q1314.45 1522.85 1317.5 1518.27 Q1320.58 1513.66 1326.39 1513.66 Z" fill="#000000" fill-rule="evenodd" fill-opacity="1" /><path clip-path="url(#clip550)" d="M1346.55 1542.97 L1351.44 1542.97 L1351.44 1548.85 L1346.55 1548.85 L1346.55 1542.97 Z" fill="#000000" fill-rule="evenodd" fill-opacity="1" /><path clip-path="url(#clip550)" d="M1361.67 1514.29 L1380.02 1514.29 L1380.02 1518.22 L1365.95 1518.22 L1365.95 1526.7 Q1366.97 1526.35 1367.99 1526.19 Q1369.01 1526 1370.02 1526 Q1375.81 1526 1379.19 1529.17 Q1382.57 1532.34 1382.57 1537.76 Q1382.57 1543.34 1379.1 1546.44 Q1375.63 1549.52 1369.31 1549.52 Q1367.13 1549.52 1364.86 1549.15 Q1362.62 1548.78 1360.21 1548.04 L1360.21 1543.34 Q1362.29 1544.47 1364.51 1545.03 Q1366.74 1545.58 1369.21 1545.58 Q1373.22 1545.58 1375.56 1543.48 Q1377.89 1541.37 1377.89 1537.76 Q1377.89 1534.15 1375.56 1532.04 Q1373.22 1529.94 1369.21 1529.94 Q1367.34 1529.94 1365.46 1530.35 Q1363.61 1530.77 1361.67 1531.65 L1361.67 1514.29 Z" fill="#000000" fill-rule="evenodd" fill-opacity="1" /><path clip-path="url(#clip550)" d="M1652.21 1544.91 L1659.85 1544.91 L1659.85 1518.55 L1651.54 1520.21 L1651.54 1515.95 L1659.81 1514.29 L1664.48 1514.29 L1664.48 1544.91 L1672.12 1544.91 L1672.12 1548.85 L1652.21 1548.85 L1652.21 1544.91 Z" fill="#000000" fill-rule="evenodd" fill-opacity="1" /><path clip-path="url(#clip550)" d="M1681.57 1542.97 L1686.45 1542.97 L1686.45 1548.85 L1681.57 1548.85 L1681.57 1542.97 Z" fill="#000000" fill-rule="evenodd" fill-opacity="1" /><path clip-path="url(#clip550)" d="M1706.63 1517.37 Q1703.02 1517.37 1701.19 1520.93 Q1699.39 1524.47 1699.39 1531.6 Q1699.39 1538.71 1701.19 1542.27 Q1703.02 1545.82 1706.63 1545.82 Q1710.27 1545.82 1712.07 1542.27 Q1713.9 1538.71 1713.9 1531.6 Q1713.9 1524.47 1712.07 1520.93 Q1710.27 1517.37 1706.63 1517.37 M1706.63 1513.66 Q1712.44 1513.66 1715.5 1518.27 Q1718.58 1522.85 1718.58 1531.6 Q1718.58 1540.33 1715.5 1544.94 Q1712.44 1549.52 1706.63 1549.52 Q1700.82 1549.52 1697.75 1544.94 Q1694.69 1540.33 1694.69 1531.6 Q1694.69 1522.85 1697.75 1518.27 Q1700.82 1513.66 1706.63 1513.66 Z" fill="#000000" fill-rule="evenodd" fill-opacity="1" /><polyline clip-path="url(#clip552)" style="stroke:#000000; stroke-linecap:butt; stroke-linejoin:round; stroke-width:2; stroke-opacity:0.1; fill:none" points="
  155.765,1362.88 1868.15,1362.88 
  "/>
<polyline clip-path="url(#clip552)" style="stroke:#000000; stroke-linecap:butt; stroke-linejoin:round; stroke-width:2; stroke-opacity:0.1; fill:none" points="
  155.765,1149.97 1868.15,1149.97 
  "/>
<polyline clip-path="url(#clip552)" style="stroke:#000000; stroke-linecap:butt; stroke-linejoin:round; stroke-width:2; stroke-opacity:0.1; fill:none" points="
  155.765,937.068 1868.15,937.068 
  "/>
<polyline clip-path="url(#clip552)" style="stroke:#000000; stroke-linecap:butt; stroke-linejoin:round; stroke-width:2; stroke-opacity:0.1; fill:none" points="
  155.765,724.164 1868.15,724.164 
  "/>
<polyline clip-path="url(#clip552)" style="stroke:#000000; stroke-linecap:butt; stroke-linejoin:round; stroke-width:2; stroke-opacity:0.1; fill:none" points="
  155.765,511.26 1868.15,511.26 
  "/>
<polyline clip-path="url(#clip552)" style="stroke:#000000; stroke-linecap:butt; stroke-linejoin:round; stroke-width:2; stroke-opacity:0.1; fill:none" points="
  155.765,298.355 1868.15,298.355 
  "/>
<polyline clip-path="url(#clip550)" style="stroke:#000000; stroke-linecap:butt; stroke-linejoin:round; stroke-width:4; stroke-opacity:1; fill:none" points="
  155.765,1486.45 155.765,123.472 
  "/>
<polyline clip-path="url(#clip550)" style="stroke:#000000; stroke-linecap:butt; stroke-linejoin:round; stroke-width:4; stroke-opacity:1; fill:none" points="
  155.765,1362.88 170.494,1362.88 
  "/>
<polyline clip-path="url(#clip550)" style="stroke:#000000; stroke-linecap:butt; stroke-linejoin:round; stroke-width:4; stroke-opacity:1; fill:none" points="
  155.765,1149.97 170.494,1149.97 
  "/>
<polyline clip-path="url(#clip550)" style="stroke:#000000; stroke-linecap:butt; stroke-linejoin:round; stroke-width:4; stroke-opacity:1; fill:none" points="
  155.765,937.068 170.494,937.068 
  "/>
<polyline clip-path="url(#clip550)" style="stroke:#000000; stroke-linecap:butt; stroke-linejoin:round; stroke-width:4; stroke-opacity:1; fill:none" points="
  155.765,724.164 170.494,724.164 
  "/>
<polyline clip-path="url(#clip550)" style="stroke:#000000; stroke-linecap:butt; stroke-linejoin:round; stroke-width:4; stroke-opacity:1; fill:none" points="
  155.765,511.26 170.494,511.26 
  "/>
<polyline clip-path="url(#clip550)" style="stroke:#000000; stroke-linecap:butt; stroke-linejoin:round; stroke-width:4; stroke-opacity:1; fill:none" points="
  155.765,298.355 170.494,298.355 
  "/>
<path clip-path="url(#clip550)" d="M63.5847 1348.67 Q59.9736 1348.67 58.1449 1352.24 Q56.3393 1355.78 56.3393 1362.91 Q56.3393 1370.02 58.1449 1373.58 Q59.9736 1377.12 63.5847 1377.12 Q67.2189 1377.12 69.0244 1373.58 Q70.8531 1370.02 70.8531 1362.91 Q70.8531 1355.78 69.0244 1352.24 Q67.2189 1348.67 63.5847 1348.67 M63.5847 1344.97 Q69.3948 1344.97 72.4503 1349.58 Q75.529 1354.16 75.529 1362.91 Q75.529 1371.64 72.4503 1376.24 Q69.3948 1380.83 63.5847 1380.83 Q57.7745 1380.83 54.6958 1376.24 Q51.6403 1371.64 51.6403 1362.91 Q51.6403 1354.16 54.6958 1349.58 Q57.7745 1344.97 63.5847 1344.97 Z" fill="#000000" fill-rule="evenodd" fill-opacity="1" /><path clip-path="url(#clip550)" d="M83.7466 1374.28 L88.6308 1374.28 L88.6308 1380.16 L83.7466 1380.16 L83.7466 1374.28 Z" fill="#000000" fill-rule="evenodd" fill-opacity="1" /><path clip-path="url(#clip550)" d="M98.8622 1345.6 L117.219 1345.6 L117.219 1349.53 L103.145 1349.53 L103.145 1358 Q104.163 1357.66 105.182 1357.49 Q106.2 1357.31 107.219 1357.31 Q113.006 1357.31 116.385 1360.48 Q119.765 1363.65 119.765 1369.07 Q119.765 1374.65 116.293 1377.75 Q112.82 1380.83 106.501 1380.83 Q104.325 1380.83 102.057 1380.46 Q99.8113 1380.09 97.4039 1379.35 L97.4039 1374.65 Q99.4872 1375.78 101.709 1376.34 Q103.932 1376.89 106.408 1376.89 Q110.413 1376.89 112.751 1374.79 Q115.089 1372.68 115.089 1369.07 Q115.089 1365.46 112.751 1363.35 Q110.413 1361.24 106.408 1361.24 Q104.534 1361.24 102.659 1361.66 Q100.807 1362.08 98.8622 1362.96 L98.8622 1345.6 Z" fill="#000000" fill-rule="evenodd" fill-opacity="1" /><path clip-path="url(#clip550)" d="M53.3995 1163.32 L61.0384 1163.32 L61.0384 1136.95 L52.7282 1138.62 L52.7282 1134.36 L60.9921 1132.69 L65.668 1132.69 L65.668 1163.32 L73.3068 1163.32 L73.3068 1167.25 L53.3995 1167.25 L53.3995 1163.32 Z" fill="#000000" fill-rule="evenodd" fill-opacity="1" /><path clip-path="url(#clip550)" d="M82.7512 1161.37 L87.6354 1161.37 L87.6354 1167.25 L82.7512 1167.25 L82.7512 1161.37 Z" fill="#000000" fill-rule="evenodd" fill-opacity="1" /><path clip-path="url(#clip550)" d="M107.821 1135.77 Q104.209 1135.77 102.381 1139.34 Q100.575 1142.88 100.575 1150.01 Q100.575 1157.11 102.381 1160.68 Q104.209 1164.22 107.821 1164.22 Q111.455 1164.22 113.26 1160.68 Q115.089 1157.11 115.089 1150.01 Q115.089 1142.88 113.26 1139.34 Q111.455 1135.77 107.821 1135.77 M107.821 1132.07 Q113.631 1132.07 116.686 1136.67 Q119.765 1141.26 119.765 1150.01 Q119.765 1158.73 116.686 1163.34 Q113.631 1167.92 107.821 1167.92 Q102.01 1167.92 98.9317 1163.34 Q95.8761 1158.73 95.8761 1150.01 Q95.8761 1141.26 98.9317 1136.67 Q102.01 1132.07 107.821 1132.07 Z" fill="#000000" fill-rule="evenodd" fill-opacity="1" /><path clip-path="url(#clip550)" d="M54.3949 950.413 L62.0337 950.413 L62.0337 924.047 L53.7236 925.714 L53.7236 921.455 L61.9874 919.788 L66.6633 919.788 L66.6633 950.413 L74.3022 950.413 L74.3022 954.348 L54.3949 954.348 L54.3949 950.413 Z" fill="#000000" fill-rule="evenodd" fill-opacity="1" /><path clip-path="url(#clip550)" d="M83.7466 948.468 L88.6308 948.468 L88.6308 954.348 L83.7466 954.348 L83.7466 948.468 Z" fill="#000000" fill-rule="evenodd" fill-opacity="1" /><path clip-path="url(#clip550)" d="M98.8622 919.788 L117.219 919.788 L117.219 923.723 L103.145 923.723 L103.145 932.195 Q104.163 931.848 105.182 931.686 Q106.2 931.501 107.219 931.501 Q113.006 931.501 116.385 934.672 Q119.765 937.843 119.765 943.26 Q119.765 948.839 116.293 951.94 Q112.82 955.019 106.501 955.019 Q104.325 955.019 102.057 954.649 Q99.8113 954.278 97.4039 953.538 L97.4039 948.839 Q99.4872 949.973 101.709 950.528 Q103.932 951.084 106.408 951.084 Q110.413 951.084 112.751 948.978 Q115.089 946.871 115.089 943.26 Q115.089 939.649 112.751 937.542 Q110.413 935.436 106.408 935.436 Q104.534 935.436 102.659 935.853 Q100.807 936.269 98.8622 937.149 L98.8622 919.788 Z" fill="#000000" fill-rule="evenodd" fill-opacity="1" /><path clip-path="url(#clip550)" d="M56.6171 737.509 L72.9365 737.509 L72.9365 741.444 L50.9921 741.444 L50.9921 737.509 Q53.6541 734.754 58.2375 730.124 Q62.8439 725.472 64.0245 724.129 Q66.2698 721.606 67.1494 719.87 Q68.0522 718.111 68.0522 716.421 Q68.0522 713.666 66.1078 711.93 Q64.1865 710.194 61.0847 710.194 Q58.8856 710.194 56.4319 710.958 Q54.0014 711.722 51.2236 713.273 L51.2236 708.55 Q54.0477 707.416 56.5014 706.837 Q58.955 706.259 60.9921 706.259 Q66.3624 706.259 69.5568 708.944 Q72.7513 711.629 72.7513 716.12 Q72.7513 718.249 71.9411 720.171 Q71.1541 722.069 69.0476 724.661 Q68.4689 725.333 65.367 728.55 Q62.2652 731.745 56.6171 737.509 Z" fill="#000000" fill-rule="evenodd" fill-opacity="1" /><path clip-path="url(#clip550)" d="M82.7512 735.564 L87.6354 735.564 L87.6354 741.444 L82.7512 741.444 L82.7512 735.564 Z" fill="#000000" fill-rule="evenodd" fill-opacity="1" /><path clip-path="url(#clip550)" d="M107.821 709.962 Q104.209 709.962 102.381 713.527 Q100.575 717.069 100.575 724.198 Q100.575 731.305 102.381 734.87 Q104.209 738.411 107.821 738.411 Q111.455 738.411 113.26 734.87 Q115.089 731.305 115.089 724.198 Q115.089 717.069 113.26 713.527 Q111.455 709.962 107.821 709.962 M107.821 706.259 Q113.631 706.259 116.686 710.865 Q119.765 715.448 119.765 724.198 Q119.765 732.925 116.686 737.532 Q113.631 742.115 107.821 742.115 Q102.01 742.115 98.9317 737.532 Q95.8761 732.925 95.8761 724.198 Q95.8761 715.448 98.9317 710.865 Q102.01 706.259 107.821 706.259 Z" fill="#000000" fill-rule="evenodd" fill-opacity="1" /><path clip-path="url(#clip550)" d="M57.6125 524.604 L73.9318 524.604 L73.9318 528.54 L51.9875 528.54 L51.9875 524.604 Q54.6495 521.85 59.2328 517.22 Q63.8393 512.567 65.0198 511.225 Q67.2652 508.702 68.1448 506.966 Q69.0476 505.206 69.0476 503.517 Q69.0476 500.762 67.1032 499.026 Q65.1819 497.29 62.08 497.29 Q59.881 497.29 57.4273 498.054 Q54.9967 498.817 52.219 500.368 L52.219 495.646 Q55.043 494.512 57.4967 493.933 Q59.9504 493.355 61.9874 493.355 Q67.3578 493.355 70.5522 496.04 Q73.7466 498.725 73.7466 503.216 Q73.7466 505.345 72.9365 507.267 Q72.1494 509.165 70.0429 511.757 Q69.4642 512.429 66.3624 515.646 Q63.2606 518.841 57.6125 524.604 Z" fill="#000000" fill-rule="evenodd" fill-opacity="1" /><path clip-path="url(#clip550)" d="M83.7466 522.66 L88.6308 522.66 L88.6308 528.54 L83.7466 528.54 L83.7466 522.66 Z" fill="#000000" fill-rule="evenodd" fill-opacity="1" /><path clip-path="url(#clip550)" d="M98.8622 493.98 L117.219 493.98 L117.219 497.915 L103.145 497.915 L103.145 506.387 Q104.163 506.04 105.182 505.878 Q106.2 505.692 107.219 505.692 Q113.006 505.692 116.385 508.864 Q119.765 512.035 119.765 517.452 Q119.765 523.03 116.293 526.132 Q112.82 529.211 106.501 529.211 Q104.325 529.211 102.057 528.84 Q99.8113 528.47 97.4039 527.729 L97.4039 523.03 Q99.4872 524.165 101.709 524.72 Q103.932 525.276 106.408 525.276 Q110.413 525.276 112.751 523.169 Q115.089 521.063 115.089 517.452 Q115.089 513.841 112.751 511.734 Q110.413 509.628 106.408 509.628 Q104.534 509.628 102.659 510.044 Q100.807 510.461 98.8622 511.341 L98.8622 493.98 Z" fill="#000000" fill-rule="evenodd" fill-opacity="1" /><path clip-path="url(#clip550)" d="M66.7559 297.001 Q70.1124 297.719 71.9874 299.987 Q73.8855 302.256 73.8855 305.589 Q73.8855 310.705 70.367 313.506 Q66.8485 316.307 60.3671 316.307 Q58.1912 316.307 55.8764 315.867 Q53.5847 315.45 51.131 314.594 L51.131 310.08 Q53.0754 311.214 55.3903 311.793 Q57.7051 312.371 60.2282 312.371 Q64.6263 312.371 66.918 310.635 Q69.2328 308.899 69.2328 305.589 Q69.2328 302.534 67.08 300.821 Q64.9504 299.085 61.131 299.085 L57.1032 299.085 L57.1032 295.242 L61.3161 295.242 Q64.7652 295.242 66.5939 293.876 Q68.4226 292.487 68.4226 289.895 Q68.4226 287.233 66.5245 285.821 Q64.6495 284.386 61.131 284.386 Q59.2097 284.386 57.0106 284.802 Q54.8115 285.219 52.1727 286.098 L52.1727 281.932 Q54.8347 281.191 57.1495 280.821 Q59.4875 280.45 61.5476 280.45 Q66.8717 280.45 69.9735 282.881 Q73.0753 285.288 73.0753 289.409 Q73.0753 292.279 71.4318 294.27 Q69.7883 296.237 66.7559 297.001 Z" fill="#000000" fill-rule="evenodd" fill-opacity="1" /><path clip-path="url(#clip550)" d="M82.7512 309.756 L87.6354 309.756 L87.6354 315.635 L82.7512 315.635 L82.7512 309.756 Z" fill="#000000" fill-rule="evenodd" fill-opacity="1" /><path clip-path="url(#clip550)" d="M107.821 284.154 Q104.209 284.154 102.381 287.719 Q100.575 291.26 100.575 298.39 Q100.575 305.497 102.381 309.061 Q104.209 312.603 107.821 312.603 Q111.455 312.603 113.26 309.061 Q115.089 305.497 115.089 298.39 Q115.089 291.26 113.26 287.719 Q111.455 284.154 107.821 284.154 M107.821 280.45 Q113.631 280.45 116.686 285.057 Q119.765 289.64 119.765 298.39 Q119.765 307.117 116.686 311.723 Q113.631 316.307 107.821 316.307 Q102.01 316.307 98.9317 311.723 Q95.8761 307.117 95.8761 298.39 Q95.8761 289.64 98.9317 285.057 Q102.01 280.45 107.821 280.45 Z" fill="#000000" fill-rule="evenodd" fill-opacity="1" /><path clip-path="url(#clip550)" d="M313.559 18.8205 L313.559 41.5461 L323.848 41.5461 Q329.56 41.5461 332.679 38.5889 Q335.798 35.6318 335.798 30.163 Q335.798 24.7348 332.679 21.7777 Q329.56 18.8205 323.848 18.8205 L313.559 18.8205 M305.376 12.096 L323.848 12.096 Q334.016 12.096 339.201 16.714 Q344.427 21.2916 344.427 30.163 Q344.427 39.1155 339.201 43.6931 Q334.016 48.2706 323.848 48.2706 L313.559 48.2706 L313.559 72.576 L305.376 72.576 L305.376 12.096 Z" fill="#000000" fill-rule="evenodd" fill-opacity="1" /><path clip-path="url(#clip550)" d="M379.913 34.1734 Q378.657 33.4443 377.158 33.1202 Q375.7 32.7556 373.917 32.7556 Q367.598 32.7556 364.195 36.8875 Q360.833 40.9789 360.833 48.6757 L360.833 72.576 L353.339 72.576 L353.339 27.2059 L360.833 27.2059 L360.833 34.2544 Q363.182 30.1225 366.95 28.1376 Q370.717 26.1121 376.105 26.1121 Q376.875 26.1121 377.806 26.2337 Q378.738 26.3147 379.872 26.5172 L379.913 34.1734 Z" fill="#000000" fill-rule="evenodd" fill-opacity="1" /><path clip-path="url(#clip550)" d="M403.489 32.4315 Q397.494 32.4315 394.01 37.1306 Q390.526 41.7891 390.526 49.9314 Q390.526 58.0738 393.969 62.7728 Q397.453 67.4314 403.489 67.4314 Q409.444 67.4314 412.928 62.7323 Q416.411 58.0333 416.411 49.9314 Q416.411 41.8701 412.928 37.1711 Q409.444 32.4315 403.489 32.4315 M403.489 26.1121 Q413.211 26.1121 418.761 32.4315 Q424.311 38.7509 424.311 49.9314 Q424.311 61.0714 418.761 67.4314 Q413.211 73.7508 403.489 73.7508 Q393.726 73.7508 388.177 67.4314 Q382.667 61.0714 382.667 49.9314 Q382.667 38.7509 388.177 32.4315 Q393.726 26.1121 403.489 26.1121 Z" fill="#000000" fill-rule="evenodd" fill-opacity="1" /><path clip-path="url(#clip550)" d="M469.235 49.9314 Q469.235 41.7081 465.832 37.0496 Q462.47 32.3505 456.556 32.3505 Q450.641 32.3505 447.239 37.0496 Q443.876 41.7081 443.876 49.9314 Q443.876 58.1548 447.239 62.8538 Q450.641 67.5124 456.556 67.5124 Q462.47 67.5124 465.832 62.8538 Q469.235 58.1548 469.235 49.9314 M443.876 34.0924 Q446.226 30.0415 449.791 28.0971 Q453.396 26.1121 458.379 26.1121 Q466.643 26.1121 471.787 32.6746 Q476.972 39.2371 476.972 49.9314 Q476.972 60.6258 471.787 67.1883 Q466.643 73.7508 458.379 73.7508 Q453.396 73.7508 449.791 71.8063 Q446.226 69.8214 443.876 65.7705 L443.876 72.576 L436.382 72.576 L436.382 9.54393 L443.876 9.54393 L443.876 34.0924 Z" fill="#000000" fill-rule="evenodd" fill-opacity="1" /><path clip-path="url(#clip550)" d="M489.328 9.54393 L496.781 9.54393 L496.781 72.576 L489.328 72.576 L489.328 9.54393 Z" fill="#000000" fill-rule="evenodd" fill-opacity="1" /><path clip-path="url(#clip550)" d="M551.185 48.0275 L551.185 51.6733 L516.914 51.6733 Q517.4 59.3701 521.532 63.421 Q525.705 67.4314 533.118 67.4314 Q537.412 67.4314 541.422 66.3781 Q545.473 65.3249 549.443 63.2184 L549.443 70.267 Q545.433 71.9684 541.22 72.8596 Q537.007 73.7508 532.672 73.7508 Q521.816 73.7508 515.456 67.4314 Q509.137 61.1119 509.137 50.3365 Q509.137 39.1965 515.132 32.6746 Q521.168 26.1121 531.376 26.1121 Q540.531 26.1121 545.838 32.0264 Q551.185 37.9003 551.185 48.0275 M543.731 45.84 Q543.65 39.7232 540.288 36.0774 Q536.966 32.4315 531.457 32.4315 Q525.219 32.4315 521.451 35.9558 Q517.724 39.4801 517.157 45.8805 L543.731 45.84 Z" fill="#000000" fill-rule="evenodd" fill-opacity="1" /><path clip-path="url(#clip550)" d="M598.743 35.9153 Q601.538 30.8922 605.427 28.5022 Q609.315 26.1121 614.582 26.1121 Q621.671 26.1121 625.519 31.0947 Q629.367 36.0368 629.367 45.1919 L629.367 72.576 L621.873 72.576 L621.873 45.4349 Q621.873 38.913 619.564 35.7533 Q617.255 32.5936 612.516 32.5936 Q606.723 32.5936 603.361 36.4419 Q599.998 40.2903 599.998 46.9338 L599.998 72.576 L592.504 72.576 L592.504 45.4349 Q592.504 38.8725 590.195 35.7533 Q587.886 32.5936 583.066 32.5936 Q577.354 32.5936 573.992 36.4824 Q570.629 40.3308 570.629 46.9338 L570.629 72.576 L563.135 72.576 L563.135 27.2059 L570.629 27.2059 L570.629 34.2544 Q573.181 30.082 576.746 28.0971 Q580.311 26.1121 585.213 26.1121 Q590.155 26.1121 593.598 28.6237 Q597.082 31.1352 598.743 35.9153 Z" fill="#000000" fill-rule="evenodd" fill-opacity="1" /><path clip-path="url(#clip550)" d="M673.077 65.6895 L686.445 65.6895 L686.445 19.5497 L671.902 22.4663 L671.902 15.0127 L686.364 12.096 L694.546 12.096 L694.546 65.6895 L707.914 65.6895 L707.914 72.576 L673.077 72.576 L673.077 65.6895 Z" fill="#000000" fill-rule="evenodd" fill-opacity="1" /><path clip-path="url(#clip550)" d="M724.442 62.2867 L732.99 62.2867 L732.99 72.576 L724.442 72.576 L724.442 62.2867 Z" fill="#000000" fill-rule="evenodd" fill-opacity="1" /><path clip-path="url(#clip550)" d="M757.862 65.6895 L786.421 65.6895 L786.421 72.576 L748.018 72.576 L748.018 65.6895 Q752.677 60.8689 760.698 52.7671 Q768.759 44.6248 770.825 42.2752 Q774.754 37.8598 776.294 34.8216 Q777.874 31.7429 777.874 28.7857 Q777.874 23.9651 774.471 20.927 Q771.109 17.8888 765.68 17.8888 Q761.832 17.8888 757.538 19.2256 Q753.285 20.5624 748.423 23.2765 L748.423 15.0127 Q753.366 13.0277 757.66 12.015 Q761.953 11.0023 765.518 11.0023 Q774.916 11.0023 780.507 15.7013 Q786.097 20.4004 786.097 28.2591 Q786.097 31.9859 784.679 35.3482 Q783.302 38.6699 779.615 43.2069 Q778.603 44.3817 773.174 50.0125 Q767.746 55.6027 757.862 65.6895 Z" fill="#000000" fill-rule="evenodd" fill-opacity="1" /><path clip-path="url(#clip550)" d="M856.421 12.096 L888.544 12.096 L888.544 18.9825 L863.915 18.9825 L863.915 33.8088 Q865.697 33.2012 867.48 32.9176 Q869.262 32.5936 871.044 32.5936 Q881.172 32.5936 887.086 38.1433 Q893 43.6931 893 53.1722 Q893 62.9348 886.924 68.3631 Q880.848 73.7508 869.789 73.7508 Q865.981 73.7508 862.011 73.1026 Q858.081 72.4545 853.868 71.1582 L853.868 62.9348 Q857.514 64.9198 861.403 65.892 Q865.292 66.8642 869.627 66.8642 Q876.635 66.8642 880.726 63.1779 Q884.817 59.4916 884.817 53.1722 Q884.817 46.8528 880.726 43.1664 Q876.635 39.4801 869.627 39.4801 Q866.345 39.4801 863.064 40.2093 Q859.823 40.9384 856.421 42.4778 L856.421 12.096 Z" fill="#000000" fill-rule="evenodd" fill-opacity="1" /><path clip-path="url(#clip550)" d="M904.302 46.5287 L926.137 46.5287 L926.137 53.1722 L904.302 53.1722 L904.302 46.5287 Z" fill="#000000" fill-rule="evenodd" fill-opacity="1" /><path clip-path="url(#clip550)" d="M965.187 17.6457 Q956.275 17.6457 951.009 24.2892 Q945.784 30.9327 945.784 42.3968 Q945.784 53.8203 951.009 60.4638 Q956.275 67.1073 965.187 67.1073 Q974.099 67.1073 979.284 60.4638 Q984.51 53.8203 984.51 42.3968 Q984.51 30.9327 979.284 24.2892 Q974.099 17.6457 965.187 17.6457 M965.187 11.0023 Q977.907 11.0023 985.523 19.5497 Q993.139 28.0566 993.139 42.3968 Q993.139 56.6965 985.523 65.2439 Q977.907 73.7508 965.187 73.7508 Q952.427 73.7508 944.771 65.2439 Q937.155 56.737 937.155 42.3968 Q937.155 28.0566 944.771 19.5497 Q952.427 11.0023 965.187 11.0023 Z" fill="#000000" fill-rule="evenodd" fill-opacity="1" /><path clip-path="url(#clip550)" d="M1031.91 34.1734 Q1030.65 33.4443 1029.15 33.1202 Q1027.69 32.7556 1025.91 32.7556 Q1019.59 32.7556 1016.19 36.8875 Q1012.83 40.9789 1012.83 48.6757 L1012.83 72.576 L1005.33 72.576 L1005.33 27.2059 L1012.83 27.2059 L1012.83 34.2544 Q1015.18 30.1225 1018.94 28.1376 Q1022.71 26.1121 1028.1 26.1121 Q1028.87 26.1121 1029.8 26.2337 Q1030.73 26.3147 1031.87 26.5172 L1031.91 34.1734 Z" fill="#000000" fill-rule="evenodd" fill-opacity="1" /><path clip-path="url(#clip550)" d="M1068.12 34.0924 L1068.12 9.54393 L1075.57 9.54393 L1075.57 72.576 L1068.12 72.576 L1068.12 65.7705 Q1065.77 69.8214 1062.17 71.8063 Q1058.6 73.7508 1053.58 73.7508 Q1045.35 73.7508 1040.17 67.1883 Q1035.02 60.6258 1035.02 49.9314 Q1035.02 39.2371 1040.17 32.6746 Q1045.35 26.1121 1053.58 26.1121 Q1058.6 26.1121 1062.17 28.0971 Q1065.77 30.0415 1068.12 34.0924 M1042.72 49.9314 Q1042.72 58.1548 1046.08 62.8538 Q1049.49 67.5124 1055.4 67.5124 Q1061.32 67.5124 1064.72 62.8538 Q1068.12 58.1548 1068.12 49.9314 Q1068.12 41.7081 1064.72 37.0496 Q1061.32 32.3505 1055.4 32.3505 Q1049.49 32.3505 1046.08 37.0496 Q1042.72 41.7081 1042.72 49.9314 Z" fill="#000000" fill-rule="evenodd" fill-opacity="1" /><path clip-path="url(#clip550)" d="M1129.74 48.0275 L1129.74 51.6733 L1095.46 51.6733 Q1095.95 59.3701 1100.08 63.421 Q1104.25 67.4314 1111.67 67.4314 Q1115.96 67.4314 1119.97 66.3781 Q1124.02 65.3249 1127.99 63.2184 L1127.99 70.267 Q1123.98 71.9684 1119.77 72.8596 Q1115.56 73.7508 1111.22 73.7508 Q1100.37 73.7508 1094.01 67.4314 Q1087.69 61.1119 1087.69 50.3365 Q1087.69 39.1965 1093.68 32.6746 Q1099.72 26.1121 1109.93 26.1121 Q1119.08 26.1121 1124.39 32.0264 Q1129.74 37.9003 1129.74 48.0275 M1122.28 45.84 Q1122.2 39.7232 1118.84 36.0774 Q1115.52 32.4315 1110.01 32.4315 Q1103.77 32.4315 1100 35.9558 Q1096.27 39.4801 1095.71 45.8805 L1122.28 45.84 Z" fill="#000000" fill-rule="evenodd" fill-opacity="1" /><path clip-path="url(#clip550)" d="M1168.26 34.1734 Q1167 33.4443 1165.5 33.1202 Q1164.05 32.7556 1162.26 32.7556 Q1155.94 32.7556 1152.54 36.8875 Q1149.18 40.9789 1149.18 48.6757 L1149.18 72.576 L1141.69 72.576 L1141.69 27.2059 L1149.18 27.2059 L1149.18 34.2544 Q1151.53 30.1225 1155.3 28.1376 Q1159.06 26.1121 1164.45 26.1121 Q1165.22 26.1121 1166.15 26.2337 Q1167.08 26.3147 1168.22 26.5172 L1168.26 34.1734 Z" fill="#000000" fill-rule="evenodd" fill-opacity="1" /><path clip-path="url(#clip550)" d="M1202.77 12.096 L1210.96 12.096 L1210.96 72.576 L1202.77 72.576 L1202.77 12.096 Z" fill="#000000" fill-rule="evenodd" fill-opacity="1" /><path clip-path="url(#clip550)" d="M1264.63 45.1919 L1264.63 72.576 L1257.18 72.576 L1257.18 45.4349 Q1257.18 38.994 1254.66 35.7938 Q1252.15 32.5936 1247.13 32.5936 Q1241.09 32.5936 1237.61 36.4419 Q1234.13 40.2903 1234.13 46.9338 L1234.13 72.576 L1226.63 72.576 L1226.63 27.2059 L1234.13 27.2059 L1234.13 34.2544 Q1236.8 30.163 1240.41 28.1376 Q1244.05 26.1121 1248.79 26.1121 Q1256.61 26.1121 1260.62 30.9732 Q1264.63 35.7938 1264.63 45.1919 Z" fill="#000000" fill-rule="evenodd" fill-opacity="1" /><path clip-path="url(#clip550)" d="M1286.87 14.324 L1286.87 27.2059 L1302.22 27.2059 L1302.22 32.9987 L1286.87 32.9987 L1286.87 57.6282 Q1286.87 63.1779 1288.37 64.7578 Q1289.91 66.3376 1294.57 66.3376 L1302.22 66.3376 L1302.22 72.576 L1294.57 72.576 Q1285.94 72.576 1282.66 69.3758 Q1279.38 66.1351 1279.38 57.6282 L1279.38 32.9987 L1273.91 32.9987 L1273.91 27.2059 L1279.38 27.2059 L1279.38 14.324 L1286.87 14.324 Z" fill="#000000" fill-rule="evenodd" fill-opacity="1" /><path clip-path="url(#clip550)" d="M1350.83 48.0275 L1350.83 51.6733 L1316.56 51.6733 Q1317.05 59.3701 1321.18 63.421 Q1325.35 67.4314 1332.77 67.4314 Q1337.06 67.4314 1341.07 66.3781 Q1345.12 65.3249 1349.09 63.2184 L1349.09 70.267 Q1345.08 71.9684 1340.87 72.8596 Q1336.66 73.7508 1332.32 73.7508 Q1321.46 73.7508 1315.1 67.4314 Q1308.79 61.1119 1308.79 50.3365 Q1308.79 39.1965 1314.78 32.6746 Q1320.82 26.1121 1331.02 26.1121 Q1340.18 26.1121 1345.49 32.0264 Q1350.83 37.9003 1350.83 48.0275 M1343.38 45.84 Q1343.3 39.7232 1339.94 36.0774 Q1336.61 32.4315 1331.11 32.4315 Q1324.87 32.4315 1321.1 35.9558 Q1317.37 39.4801 1316.81 45.8805 L1343.38 45.84 Z" fill="#000000" fill-rule="evenodd" fill-opacity="1" /><path clip-path="url(#clip550)" d="M1389.36 34.1734 Q1388.1 33.4443 1386.6 33.1202 Q1385.14 32.7556 1383.36 32.7556 Q1377.04 32.7556 1373.64 36.8875 Q1370.28 40.9789 1370.28 48.6757 L1370.28 72.576 L1362.78 72.576 L1362.78 27.2059 L1370.28 27.2059 L1370.28 34.2544 Q1372.63 30.1225 1376.39 28.1376 Q1380.16 26.1121 1385.55 26.1121 Q1386.32 26.1121 1387.25 26.2337 Q1388.18 26.3147 1389.32 26.5172 L1389.36 34.1734 Z" fill="#000000" fill-rule="evenodd" fill-opacity="1" /><path clip-path="url(#clip550)" d="M1404.39 65.7705 L1404.39 89.8329 L1396.89 89.8329 L1396.89 27.2059 L1404.39 27.2059 L1404.39 34.0924 Q1406.74 30.0415 1410.3 28.0971 Q1413.91 26.1121 1418.89 26.1121 Q1427.15 26.1121 1432.3 32.6746 Q1437.48 39.2371 1437.48 49.9314 Q1437.48 60.6258 1432.3 67.1883 Q1427.15 73.7508 1418.89 73.7508 Q1413.91 73.7508 1410.3 71.8063 Q1406.74 69.8214 1404.39 65.7705 M1429.75 49.9314 Q1429.75 41.7081 1426.34 37.0496 Q1422.98 32.3505 1417.07 32.3505 Q1411.15 32.3505 1407.75 37.0496 Q1404.39 41.7081 1404.39 49.9314 Q1404.39 58.1548 1407.75 62.8538 Q1411.15 67.5124 1417.07 67.5124 Q1422.98 67.5124 1426.34 62.8538 Q1429.75 58.1548 1429.75 49.9314 Z" fill="#000000" fill-rule="evenodd" fill-opacity="1" /><path clip-path="url(#clip550)" d="M1467.42 32.4315 Q1461.42 32.4315 1457.94 37.1306 Q1454.46 41.7891 1454.46 49.9314 Q1454.46 58.0738 1457.9 62.7728 Q1461.38 67.4314 1467.42 67.4314 Q1473.37 67.4314 1476.86 62.7323 Q1480.34 58.0333 1480.34 49.9314 Q1480.34 41.8701 1476.86 37.1711 Q1473.37 32.4315 1467.42 32.4315 M1467.42 26.1121 Q1477.14 26.1121 1482.69 32.4315 Q1488.24 38.7509 1488.24 49.9314 Q1488.24 61.0714 1482.69 67.4314 Q1477.14 73.7508 1467.42 73.7508 Q1457.66 73.7508 1452.11 67.4314 Q1446.6 61.0714 1446.6 49.9314 Q1446.6 38.7509 1452.11 32.4315 Q1457.66 26.1121 1467.42 26.1121 Z" fill="#000000" fill-rule="evenodd" fill-opacity="1" /><path clip-path="url(#clip550)" d="M1500.6 9.54393 L1508.05 9.54393 L1508.05 72.576 L1500.6 72.576 L1500.6 9.54393 Z" fill="#000000" fill-rule="evenodd" fill-opacity="1" /><path clip-path="url(#clip550)" d="M1544.26 49.7694 Q1535.23 49.7694 1531.75 51.8354 Q1528.26 53.9013 1528.26 58.8839 Q1528.26 62.8538 1530.86 65.2034 Q1533.49 67.5124 1537.99 67.5124 Q1544.18 67.5124 1547.91 63.1374 Q1551.68 58.7219 1551.68 51.4303 L1551.68 49.7694 L1544.26 49.7694 M1559.13 46.6907 L1559.13 72.576 L1551.68 72.576 L1551.68 65.6895 Q1549.13 69.8214 1545.32 71.8063 Q1541.51 73.7508 1536 73.7508 Q1529.03 73.7508 1524.9 69.8619 Q1520.81 65.9325 1520.81 59.3701 Q1520.81 51.7138 1525.91 47.825 Q1531.06 43.9361 1541.23 43.9361 L1551.68 43.9361 L1551.68 43.2069 Q1551.68 38.0623 1548.27 35.2672 Q1544.91 32.4315 1538.8 32.4315 Q1534.91 32.4315 1531.22 33.3632 Q1527.53 34.295 1524.13 36.1584 L1524.13 29.2718 Q1528.22 27.692 1532.07 26.9223 Q1535.92 26.1121 1539.57 26.1121 Q1549.41 26.1121 1554.27 31.2163 Q1559.13 36.3204 1559.13 46.6907 Z" fill="#000000" fill-rule="evenodd" fill-opacity="1" /><path clip-path="url(#clip550)" d="M1581.86 14.324 L1581.86 27.2059 L1597.21 27.2059 L1597.21 32.9987 L1581.86 32.9987 L1581.86 57.6282 Q1581.86 63.1779 1583.36 64.7578 Q1584.89 66.3376 1589.55 66.3376 L1597.21 66.3376 L1597.21 72.576 L1589.55 72.576 Q1580.92 72.576 1577.64 69.3758 Q1574.36 66.1351 1574.36 57.6282 L1574.36 32.9987 L1568.89 32.9987 L1568.89 27.2059 L1574.36 27.2059 L1574.36 14.324 L1581.86 14.324 Z" fill="#000000" fill-rule="evenodd" fill-opacity="1" /><path clip-path="url(#clip550)" d="M1607.01 27.2059 L1614.47 27.2059 L1614.47 72.576 L1607.01 72.576 L1607.01 27.2059 M1607.01 9.54393 L1614.47 9.54393 L1614.47 18.9825 L1607.01 18.9825 L1607.01 9.54393 Z" fill="#000000" fill-rule="evenodd" fill-opacity="1" /><path clip-path="url(#clip550)" d="M1647.64 32.4315 Q1641.65 32.4315 1638.16 37.1306 Q1634.68 41.7891 1634.68 49.9314 Q1634.68 58.0738 1638.12 62.7728 Q1641.61 67.4314 1647.64 67.4314 Q1653.6 67.4314 1657.08 62.7323 Q1660.57 58.0333 1660.57 49.9314 Q1660.57 41.8701 1657.08 37.1711 Q1653.6 32.4315 1647.64 32.4315 M1647.64 26.1121 Q1657.37 26.1121 1662.92 32.4315 Q1668.46 38.7509 1668.46 49.9314 Q1668.46 61.0714 1662.92 67.4314 Q1657.37 73.7508 1647.64 73.7508 Q1637.88 73.7508 1632.33 67.4314 Q1626.82 61.0714 1626.82 49.9314 Q1626.82 38.7509 1632.33 32.4315 Q1637.88 26.1121 1647.64 26.1121 Z" fill="#000000" fill-rule="evenodd" fill-opacity="1" /><path clip-path="url(#clip550)" d="M1718.53 45.1919 L1718.53 72.576 L1711.08 72.576 L1711.08 45.4349 Q1711.08 38.994 1708.57 35.7938 Q1706.06 32.5936 1701.03 32.5936 Q1695 32.5936 1691.51 36.4419 Q1688.03 40.2903 1688.03 46.9338 L1688.03 72.576 L1680.54 72.576 L1680.54 27.2059 L1688.03 27.2059 L1688.03 34.2544 Q1690.7 30.163 1694.31 28.1376 Q1697.96 26.1121 1702.69 26.1121 Q1710.51 26.1121 1714.52 30.9732 Q1718.53 35.7938 1718.53 45.1919 Z" fill="#000000" fill-rule="evenodd" fill-opacity="1" /><polyline clip-path="url(#clip552)" style="stroke:#009af9; stroke-linecap:butt; stroke-linejoin:round; stroke-width:4; stroke-opacity:1; fill:none" points="
  204.228,1447.53 217.691,1444.94 231.153,1442.3 244.615,1439.6 258.077,1436.85 271.539,1434.04 285.001,1431.18 298.463,1428.26 311.925,1425.28 325.387,1422.24 
  338.85,1419.13 352.312,1415.97 365.774,1412.74 379.236,1409.45 392.698,1406.09 406.16,1402.66 419.622,1399.16 433.084,1395.59 446.546,1391.95 460.009,1388.24 
  473.471,1384.45 486.933,1380.59 500.395,1376.64 513.857,1372.62 527.319,1368.52 540.781,1364.33 554.243,1360.06 567.705,1355.7 581.168,1351.25 594.63,1346.72 
  608.092,1342.09 621.554,1337.37 635.016,1332.55 648.478,1327.64 661.94,1322.63 675.402,1317.51 688.864,1312.3 702.327,1306.97 715.789,1301.54 729.251,1296 
  742.713,1290.35 756.175,1284.59 769.637,1278.7 783.099,1272.7 796.561,1266.58 810.023,1260.33 823.485,1253.96 836.948,1247.46 850.41,1240.83 863.872,1234.06 
  877.334,1227.16 890.796,1220.12 904.258,1212.93 917.72,1205.6 931.182,1198.12 944.644,1190.49 958.107,1182.71 971.569,1174.77 985.031,1166.67 998.493,1158.4 
  1011.96,1149.97 1025.42,1141.37 1038.88,1132.59 1052.34,1123.64 1065.8,1114.51 1079.27,1105.19 1092.73,1095.68 1106.19,1085.98 1119.65,1076.09 1133.11,1066 
  1146.58,1055.7 1160.04,1045.19 1173.5,1034.47 1186.96,1023.54 1200.42,1012.38 1213.89,1001 1227.35,989.388 1240.81,977.542 1254.27,965.457 1267.74,953.127 
  1281.2,940.549 1294.66,927.716 1308.12,914.625 1321.58,901.268 1335.05,887.642 1348.51,873.741 1361.97,859.559 1375.43,845.09 1388.89,830.329 1402.36,815.27 
  1415.82,799.907 1429.28,784.233 1442.74,768.243 1456.2,751.93 1469.67,735.287 1483.13,718.308 1496.59,700.986 1510.05,683.314 1523.52,665.285 1536.98,646.891 
  1550.44,628.127 1563.9,608.983 1577.36,589.452 1590.83,569.527 1604.29,549.199 1617.75,528.461 1631.21,507.304 1644.67,485.719 1658.14,463.698 1671.6,441.233 
  1685.06,418.313 1698.52,394.931 1711.98,371.076 1725.45,346.74 1738.91,321.911 1752.37,296.581 1765.83,270.74 1779.3,244.376 1792.76,217.48 1806.22,190.041 
  1819.68,162.047 
  "/>
<polyline clip-path="url(#clip552)" style="stroke:#ee82ee; stroke-linecap:butt; stroke-linejoin:round; stroke-width:4; stroke-opacity:1; fill:none" points="
  204.228,1447.87 217.691,1445.22 231.153,1442.53 244.615,1439.78 258.077,1436.99 271.539,1434.15 285.001,1431.26 298.463,1428.31 311.925,1425.31 325.387,1422.25 
  338.85,1419.13 352.312,1415.96 365.774,1412.72 379.236,1409.42 392.698,1406.06 406.16,1402.62 419.622,1399.13 433.084,1395.56 446.546,1391.92 460.009,1388.21 
  473.471,1384.42 486.933,1380.56 500.395,1376.62 513.857,1372.6 527.319,1368.5 540.781,1364.31 554.243,1360.05 567.705,1355.69 581.168,1351.25 594.63,1346.72 
  608.092,1342.09 621.554,1337.37 635.016,1332.56 648.478,1327.65 661.94,1322.64 675.402,1317.52 688.864,1312.31 702.327,1306.99 715.789,1301.56 729.251,1296.02 
  742.713,1290.36 756.175,1284.6 769.637,1278.71 783.099,1272.71 796.561,1266.59 810.023,1260.34 823.485,1253.97 836.948,1247.46 850.41,1240.83 863.872,1234.06 
  877.334,1227.16 890.796,1220.11 904.258,1212.93 917.72,1205.6 931.182,1198.12 944.644,1190.49 958.107,1182.7 971.569,1174.76 985.031,1166.66 998.493,1158.4 
  1011.96,1149.96 1025.42,1141.36 1038.88,1132.59 1052.34,1123.63 1065.8,1114.5 1079.27,1105.18 1092.73,1095.68 1106.19,1085.98 1119.65,1076.09 1133.11,1065.99 
  1146.58,1055.7 1160.04,1045.19 1173.5,1034.48 1186.96,1023.54 1200.42,1012.39 1213.89,1001.01 1227.35,989.397 1240.81,977.552 1254.27,965.468 1267.74,953.14 
  1281.2,940.562 1294.66,927.73 1308.12,914.638 1321.58,901.282 1335.05,887.655 1348.51,873.752 1361.97,859.569 1375.43,845.098 1388.89,830.335 1402.36,815.273 
  1415.82,799.907 1429.28,784.23 1442.74,768.236 1456.2,751.918 1469.67,735.271 1483.13,718.288 1496.59,700.961 1510.05,683.284 1523.52,665.251 1536.98,646.854 
  1550.44,628.085 1563.9,608.938 1577.36,589.405 1590.83,569.479 1604.29,549.152 1617.75,528.415 1631.21,507.262 1644.67,485.683 1658.14,463.671 1671.6,441.217 
  1685.06,418.313 1698.52,394.95 1711.98,371.12 1725.45,346.812 1738.91,322.019 1752.37,296.731 1765.83,270.938 1779.3,244.632 1792.76,217.802 1806.22,190.438 
  1819.68,162.531 
  "/>
<circle clip-path="url(#clip552)" cx="338.85" cy="1419.13" r="10" fill="#00bfff" fill-rule="evenodd" fill-opacity="1" stroke="#000000" stroke-opacity="1" stroke-width="3.2"/>
<circle clip-path="url(#clip552)" cx="608.092" cy="1342.09" r="10" fill="#00bfff" fill-rule="evenodd" fill-opacity="1" stroke="#000000" stroke-opacity="1" stroke-width="3.2"/>
<circle clip-path="url(#clip552)" cx="877.334" cy="1227.16" r="10" fill="#00bfff" fill-rule="evenodd" fill-opacity="1" stroke="#000000" stroke-opacity="1" stroke-width="3.2"/>
<circle clip-path="url(#clip552)" cx="1146.58" cy="1055.7" r="10" fill="#00bfff" fill-rule="evenodd" fill-opacity="1" stroke="#000000" stroke-opacity="1" stroke-width="3.2"/>
<circle clip-path="url(#clip552)" cx="1415.82" cy="799.907" r="10" fill="#00bfff" fill-rule="evenodd" fill-opacity="1" stroke="#000000" stroke-opacity="1" stroke-width="3.2"/>
<circle clip-path="url(#clip552)" cx="1685.06" cy="418.313" r="10" fill="#00bfff" fill-rule="evenodd" fill-opacity="1" stroke="#000000" stroke-opacity="1" stroke-width="3.2"/>
<circle clip-path="url(#clip552)" cx="372.505" cy="1411.1" r="10" fill="#0000ff" fill-rule="evenodd" fill-opacity="1" stroke="#000000" stroke-opacity="1" stroke-width="3.2"/>
<circle clip-path="url(#clip552)" cx="978.3" cy="1170.74" r="10" fill="#0000ff" fill-rule="evenodd" fill-opacity="1" stroke="#000000" stroke-opacity="1" stroke-width="3.2"/>
<circle clip-path="url(#clip552)" cx="1045.61" cy="1128.14" r="10" fill="#0000ff" fill-rule="evenodd" fill-opacity="1" stroke="#000000" stroke-opacity="1" stroke-width="3.2"/>
<circle clip-path="url(#clip552)" cx="1651.41" cy="474.764" r="10" fill="#0000ff" fill-rule="evenodd" fill-opacity="1" stroke="#000000" stroke-opacity="1" stroke-width="3.2"/>
<circle clip-path="url(#clip552)" cx="372.505" cy="1411.08" r="10" fill="#ff0000" fill-rule="evenodd" fill-opacity="1" stroke="#000000" stroke-opacity="1" stroke-width="3.2"/>
<circle clip-path="url(#clip552)" cx="978.3" cy="1170.73" r="10" fill="#ff0000" fill-rule="evenodd" fill-opacity="1" stroke="#000000" stroke-opacity="1" stroke-width="3.2"/>
<circle clip-path="url(#clip552)" cx="1045.61" cy="1128.13" r="10" fill="#ff0000" fill-rule="evenodd" fill-opacity="1" stroke="#000000" stroke-opacity="1" stroke-width="3.2"/>
<circle clip-path="url(#clip552)" cx="1651.41" cy="474.732" r="10" fill="#ff0000" fill-rule="evenodd" fill-opacity="1" stroke="#000000" stroke-opacity="1" stroke-width="3.2"/>
<path clip-path="url(#clip550)" d="
M1941.38 479.945 L2352.76 479.945 L2352.76 168.905 L1941.38 168.905  Z
  " fill="#ffffff" fill-rule="evenodd" fill-opacity="1"/>
<polyline clip-path="url(#clip550)" style="stroke:#000000; stroke-linecap:butt; stroke-linejoin:round; stroke-width:4; stroke-opacity:1; fill:none" points="
  1941.38,479.945 2352.76,479.945 2352.76,168.905 1941.38,168.905 1941.38,479.945 
  "/>
<polyline clip-path="url(#clip550)" style="stroke:#009af9; stroke-linecap:butt; stroke-linejoin:round; stroke-width:4; stroke-opacity:1; fill:none" points="
  1965.79,220.745 2112.26,220.745 
  "/>
<path clip-path="url(#clip550)" d="M2153.17 202.006 L2153.17 205.548 L2149.1 205.548 Q2146.81 205.548 2145.9 206.474 Q2145.02 207.4 2145.02 209.807 L2145.02 212.099 L2152.04 212.099 L2152.04 215.409 L2145.02 215.409 L2145.02 238.025 L2140.74 238.025 L2140.74 215.409 L2136.67 215.409 L2136.67 212.099 L2140.74 212.099 L2140.74 210.293 Q2140.74 205.965 2142.75 203.997 Q2144.77 202.006 2149.14 202.006 L2153.17 202.006 Z" fill="#000000" fill-rule="evenodd" fill-opacity="1" /><path clip-path="url(#clip550)" d="M2166.97 202.053 Q2163.87 207.377 2162.36 212.585 Q2160.86 217.793 2160.86 223.14 Q2160.86 228.488 2162.36 233.742 Q2163.89 238.974 2166.97 244.275 L2163.26 244.275 Q2159.79 238.835 2158.06 233.58 Q2156.34 228.326 2156.34 223.14 Q2156.34 217.978 2158.06 212.747 Q2159.77 207.516 2163.26 202.053 L2166.97 202.053 Z" fill="#000000" fill-rule="evenodd" fill-opacity="1" /><path clip-path="url(#clip550)" d="M2196.78 212.099 L2187.41 224.715 L2197.27 238.025 L2192.24 238.025 L2184.7 227.84 L2177.15 238.025 L2172.13 238.025 L2182.2 224.46 L2172.99 212.099 L2178.01 212.099 L2184.88 221.335 L2191.76 212.099 L2196.78 212.099 Z" fill="#000000" fill-rule="evenodd" fill-opacity="1" /><path clip-path="url(#clip550)" d="M2202.61 202.053 L2206.32 202.053 Q2209.79 207.516 2211.5 212.747 Q2213.24 217.978 2213.24 223.14 Q2213.24 228.326 2211.5 233.58 Q2209.79 238.835 2206.32 244.275 L2202.61 244.275 Q2205.69 238.974 2207.2 233.742 Q2208.73 228.488 2208.73 223.14 Q2208.73 217.793 2207.2 212.585 Q2205.69 207.377 2202.61 202.053 Z" fill="#000000" fill-rule="evenodd" fill-opacity="1" /><polyline clip-path="url(#clip550)" style="stroke:#ee82ee; stroke-linecap:butt; stroke-linejoin:round; stroke-width:4; stroke-opacity:1; fill:none" points="
  1965.79,272.585 2112.26,272.585 
  "/>
<path clip-path="url(#clip550)" d="M2140.95 285.976 L2140.95 299.726 L2136.67 299.726 L2136.67 263.939 L2140.95 263.939 L2140.95 267.874 Q2142.29 265.559 2144.33 264.448 Q2146.39 263.314 2149.24 263.314 Q2153.96 263.314 2156.9 267.064 Q2159.86 270.814 2159.86 276.925 Q2159.86 283.036 2156.9 286.786 Q2153.96 290.536 2149.24 290.536 Q2146.39 290.536 2144.33 289.425 Q2142.29 288.291 2140.95 285.976 M2155.44 276.925 Q2155.44 272.226 2153.49 269.564 Q2151.57 266.879 2148.19 266.879 Q2144.81 266.879 2142.87 269.564 Q2140.95 272.226 2140.95 276.925 Q2140.95 281.624 2142.87 284.309 Q2144.81 286.971 2148.19 286.971 Q2151.57 286.971 2153.49 284.309 Q2155.44 281.624 2155.44 276.925 Z" fill="#000000" fill-rule="evenodd" fill-opacity="1" /><path clip-path="url(#clip550)" d="M2177.15 253.893 Q2174.05 259.217 2172.55 264.425 Q2171.04 269.633 2171.04 274.98 Q2171.04 280.328 2172.55 285.582 Q2174.07 290.814 2177.15 296.115 L2173.45 296.115 Q2169.98 290.675 2168.24 285.42 Q2166.53 280.166 2166.53 274.98 Q2166.53 269.818 2168.24 264.587 Q2169.95 259.356 2173.45 253.893 L2177.15 253.893 Z" fill="#000000" fill-rule="evenodd" fill-opacity="1" /><path clip-path="url(#clip550)" d="M2206.97 263.939 L2197.59 276.555 L2207.45 289.865 L2202.43 289.865 L2194.88 279.68 L2187.34 289.865 L2182.31 289.865 L2192.38 276.3 L2183.17 263.939 L2188.19 263.939 L2195.07 273.175 L2201.94 263.939 L2206.97 263.939 Z" fill="#000000" fill-rule="evenodd" fill-opacity="1" /><path clip-path="url(#clip550)" d="M2212.8 253.893 L2216.5 253.893 Q2219.98 259.356 2221.69 264.587 Q2223.43 269.818 2223.43 274.98 Q2223.43 280.166 2221.69 285.42 Q2219.98 290.675 2216.5 296.115 L2212.8 296.115 Q2215.88 290.814 2217.38 285.582 Q2218.91 280.328 2218.91 274.98 Q2218.91 269.633 2217.38 264.425 Q2215.88 259.217 2212.8 253.893 Z" fill="#000000" fill-rule="evenodd" fill-opacity="1" /><circle clip-path="url(#clip550)" cx="2039.02" cy="324.425" r="23" fill="#00bfff" fill-rule="evenodd" fill-opacity="1" stroke="#000000" stroke-opacity="1" stroke-width="6.82667"/>
<path clip-path="url(#clip550)" d="M2155.09 316.543 L2155.09 320.571 Q2153.29 319.645 2151.34 319.182 Q2149.4 318.719 2147.31 318.719 Q2144.14 318.719 2142.55 319.691 Q2140.97 320.663 2140.97 322.608 Q2140.97 324.089 2142.11 324.945 Q2143.24 325.779 2146.67 326.543 L2148.12 326.867 Q2152.66 327.839 2154.56 329.621 Q2156.48 331.381 2156.48 334.552 Q2156.48 338.163 2153.61 340.269 Q2150.76 342.376 2145.76 342.376 Q2143.68 342.376 2141.41 341.959 Q2139.17 341.566 2136.67 340.756 L2136.67 336.357 Q2139.03 337.584 2141.32 338.209 Q2143.61 338.811 2145.86 338.811 Q2148.87 338.811 2150.49 337.793 Q2152.11 336.751 2152.11 334.876 Q2152.11 333.14 2150.93 332.214 Q2149.77 331.288 2145.81 330.432 L2144.33 330.084 Q2140.37 329.251 2138.61 327.538 Q2136.85 325.802 2136.85 322.793 Q2136.85 319.135 2139.44 317.145 Q2142.04 315.154 2146.81 315.154 Q2149.17 315.154 2151.25 315.501 Q2153.33 315.848 2155.09 316.543 Z" fill="#000000" fill-rule="evenodd" fill-opacity="1" /><path clip-path="url(#clip550)" d="M2175.05 328.672 Q2169.88 328.672 2167.89 329.853 Q2165.9 331.033 2165.9 333.881 Q2165.9 336.149 2167.38 337.492 Q2168.89 338.811 2171.46 338.811 Q2175 338.811 2177.13 336.311 Q2179.28 333.788 2179.28 329.621 L2179.28 328.672 L2175.05 328.672 M2183.54 326.913 L2183.54 341.705 L2179.28 341.705 L2179.28 337.769 Q2177.82 340.131 2175.65 341.265 Q2173.47 342.376 2170.32 342.376 Q2166.34 342.376 2163.98 340.154 Q2161.64 337.908 2161.64 334.158 Q2161.64 329.783 2164.56 327.561 Q2167.5 325.339 2173.31 325.339 L2179.28 325.339 L2179.28 324.922 Q2179.28 321.983 2177.34 320.385 Q2175.42 318.765 2171.92 318.765 Q2169.7 318.765 2167.59 319.297 Q2165.49 319.83 2163.54 320.895 L2163.54 316.959 Q2165.88 316.057 2168.08 315.617 Q2170.28 315.154 2172.36 315.154 Q2177.99 315.154 2180.76 318.071 Q2183.54 320.987 2183.54 326.913 Z" fill="#000000" fill-rule="evenodd" fill-opacity="1" /><path clip-path="url(#clip550)" d="M2212.5 320.756 Q2214.1 317.885 2216.32 316.52 Q2218.54 315.154 2221.55 315.154 Q2225.6 315.154 2227.8 318.001 Q2230 320.825 2230 326.057 L2230 341.705 L2225.72 341.705 L2225.72 326.195 Q2225.72 322.469 2224.4 320.663 Q2223.08 318.858 2220.37 318.858 Q2217.06 318.858 2215.14 321.057 Q2213.22 323.256 2213.22 327.052 L2213.22 341.705 L2208.93 341.705 L2208.93 326.195 Q2208.93 322.445 2207.61 320.663 Q2206.3 318.858 2203.54 318.858 Q2200.28 318.858 2198.36 321.08 Q2196.43 323.279 2196.43 327.052 L2196.43 341.705 L2192.15 341.705 L2192.15 315.779 L2196.43 315.779 L2196.43 319.807 Q2197.89 317.422 2199.93 316.288 Q2201.97 315.154 2204.77 315.154 Q2207.59 315.154 2209.56 316.589 Q2211.55 318.024 2212.5 320.756 Z" fill="#000000" fill-rule="evenodd" fill-opacity="1" /><path clip-path="url(#clip550)" d="M2242.61 337.816 L2242.61 351.566 L2238.33 351.566 L2238.33 315.779 L2242.61 315.779 L2242.61 319.714 Q2243.96 317.399 2245.99 316.288 Q2248.05 315.154 2250.9 315.154 Q2255.62 315.154 2258.56 318.904 Q2261.53 322.654 2261.53 328.765 Q2261.53 334.876 2258.56 338.626 Q2255.62 342.376 2250.9 342.376 Q2248.05 342.376 2245.99 341.265 Q2243.96 340.131 2242.61 337.816 M2257.11 328.765 Q2257.11 324.066 2255.16 321.404 Q2253.24 318.719 2249.86 318.719 Q2246.48 318.719 2244.54 321.404 Q2242.61 324.066 2242.61 328.765 Q2242.61 333.464 2244.54 336.149 Q2246.48 338.811 2249.86 338.811 Q2253.24 338.811 2255.16 336.149 Q2257.11 333.464 2257.11 328.765 Z" fill="#000000" fill-rule="evenodd" fill-opacity="1" /><path clip-path="url(#clip550)" d="M2268.59 305.686 L2272.85 305.686 L2272.85 341.705 L2268.59 341.705 L2268.59 305.686 Z" fill="#000000" fill-rule="evenodd" fill-opacity="1" /><path clip-path="url(#clip550)" d="M2303.93 327.677 L2303.93 329.76 L2284.35 329.76 Q2284.63 334.158 2286.99 336.473 Q2289.37 338.765 2293.61 338.765 Q2296.06 338.765 2298.36 338.163 Q2300.67 337.561 2302.94 336.357 L2302.94 340.385 Q2300.65 341.357 2298.24 341.867 Q2295.83 342.376 2293.36 342.376 Q2287.15 342.376 2283.52 338.765 Q2279.91 335.154 2279.91 328.996 Q2279.91 322.631 2283.33 318.904 Q2286.78 315.154 2292.61 315.154 Q2297.85 315.154 2300.88 318.533 Q2303.93 321.89 2303.93 327.677 M2299.67 326.427 Q2299.63 322.932 2297.71 320.848 Q2295.81 318.765 2292.66 318.765 Q2289.1 318.765 2286.94 320.779 Q2284.81 322.793 2284.49 326.45 L2299.67 326.427 Z" fill="#000000" fill-rule="evenodd" fill-opacity="1" /><circle clip-path="url(#clip550)" cx="2039.02" cy="376.265" r="23" fill="#0000ff" fill-rule="evenodd" fill-opacity="1" stroke="#000000" stroke-opacity="1" stroke-width="6.82667"/>
<path clip-path="url(#clip550)" d="M2144.07 360.258 L2144.07 367.619 L2152.85 367.619 L2152.85 370.929 L2144.07 370.929 L2144.07 385.003 Q2144.07 388.174 2144.93 389.077 Q2145.81 389.98 2148.47 389.98 L2152.85 389.98 L2152.85 393.545 L2148.47 393.545 Q2143.54 393.545 2141.67 391.716 Q2139.79 389.864 2139.79 385.003 L2139.79 370.929 L2136.67 370.929 L2136.67 367.619 L2139.79 367.619 L2139.79 360.258 L2144.07 360.258 Z" fill="#000000" fill-rule="evenodd" fill-opacity="1" /><path clip-path="url(#clip550)" d="M2173.47 371.6 Q2172.75 371.184 2171.9 370.998 Q2171.06 370.79 2170.05 370.79 Q2166.43 370.79 2164.49 373.151 Q2162.57 375.489 2162.57 379.887 L2162.57 393.545 L2158.29 393.545 L2158.29 367.619 L2162.57 367.619 L2162.57 371.647 Q2163.91 369.286 2166.06 368.151 Q2168.22 366.994 2171.3 366.994 Q2171.74 366.994 2172.27 367.063 Q2172.8 367.11 2173.45 367.225 L2173.47 371.6 Z" fill="#000000" fill-rule="evenodd" fill-opacity="1" /><path clip-path="url(#clip550)" d="M2177.5 383.313 L2177.5 367.619 L2181.76 367.619 L2181.76 383.151 Q2181.76 386.832 2183.19 388.684 Q2184.63 390.512 2187.5 390.512 Q2190.95 390.512 2192.94 388.313 Q2194.95 386.114 2194.95 382.318 L2194.95 367.619 L2199.21 367.619 L2199.21 393.545 L2194.95 393.545 L2194.95 389.563 Q2193.4 391.924 2191.34 393.082 Q2189.3 394.216 2186.6 394.216 Q2182.13 394.216 2179.81 391.438 Q2177.5 388.66 2177.5 383.313 M2188.22 366.994 L2188.22 366.994 Z" fill="#000000" fill-rule="evenodd" fill-opacity="1" /><path clip-path="url(#clip550)" d="M2230.16 379.517 L2230.16 381.6 L2210.58 381.6 Q2210.86 385.998 2213.22 388.313 Q2215.6 390.605 2219.84 390.605 Q2222.29 390.605 2224.58 390.003 Q2226.9 389.401 2229.17 388.197 L2229.17 392.225 Q2226.87 393.197 2224.47 393.707 Q2222.06 394.216 2219.58 394.216 Q2213.38 394.216 2209.74 390.605 Q2206.13 386.994 2206.13 380.836 Q2206.13 374.471 2209.56 370.744 Q2213.01 366.994 2218.84 366.994 Q2224.07 366.994 2227.11 370.373 Q2230.16 373.73 2230.16 379.517 M2225.9 378.267 Q2225.86 374.772 2223.93 372.688 Q2222.04 370.605 2218.89 370.605 Q2215.32 370.605 2213.17 372.619 Q2211.04 374.633 2210.72 378.29 L2225.9 378.267 Z" fill="#000000" fill-rule="evenodd" fill-opacity="1" /><circle clip-path="url(#clip550)" cx="2039.02" cy="428.105" r="23" fill="#ff0000" fill-rule="evenodd" fill-opacity="1" stroke="#000000" stroke-opacity="1" stroke-width="6.82667"/>
<path clip-path="url(#clip550)" d="M2150.07 432.352 Q2144.91 432.352 2142.92 433.533 Q2140.93 434.713 2140.93 437.561 Q2140.93 439.829 2142.41 441.172 Q2143.91 442.491 2146.48 442.491 Q2150.02 442.491 2152.15 439.991 Q2154.31 437.468 2154.31 433.301 L2154.31 432.352 L2150.07 432.352 M2158.56 430.593 L2158.56 445.385 L2154.31 445.385 L2154.31 441.449 Q2152.85 443.811 2150.67 444.945 Q2148.49 446.056 2145.35 446.056 Q2141.37 446.056 2139 443.834 Q2136.67 441.588 2136.67 437.838 Q2136.67 433.463 2139.58 431.241 Q2142.52 429.019 2148.33 429.019 L2154.31 429.019 L2154.31 428.602 Q2154.31 425.663 2152.36 424.065 Q2150.44 422.445 2146.94 422.445 Q2144.72 422.445 2142.62 422.977 Q2140.51 423.51 2138.56 424.575 L2138.56 420.639 Q2140.9 419.737 2143.1 419.297 Q2145.3 418.834 2147.38 418.834 Q2153.01 418.834 2155.79 421.751 Q2158.56 424.667 2158.56 430.593 Z" fill="#000000" fill-rule="evenodd" fill-opacity="1" /><path clip-path="url(#clip550)" d="M2171.46 441.496 L2171.46 455.246 L2167.18 455.246 L2167.18 419.459 L2171.46 419.459 L2171.46 423.394 Q2172.8 421.079 2174.84 419.968 Q2176.9 418.834 2179.74 418.834 Q2184.47 418.834 2187.41 422.584 Q2190.37 426.334 2190.37 432.445 Q2190.37 438.556 2187.41 442.306 Q2184.47 446.056 2179.74 446.056 Q2176.9 446.056 2174.84 444.945 Q2172.8 443.811 2171.46 441.496 M2185.95 432.445 Q2185.95 427.746 2184 425.084 Q2182.08 422.399 2178.7 422.399 Q2175.32 422.399 2173.38 425.084 Q2171.46 427.746 2171.46 432.445 Q2171.46 437.144 2173.38 439.829 Q2175.32 442.491 2178.7 442.491 Q2182.08 442.491 2184 439.829 Q2185.95 437.144 2185.95 432.445 Z" fill="#000000" fill-rule="evenodd" fill-opacity="1" /><path clip-path="url(#clip550)" d="M2201.55 441.496 L2201.55 455.246 L2197.27 455.246 L2197.27 419.459 L2201.55 419.459 L2201.55 423.394 Q2202.89 421.079 2204.93 419.968 Q2206.99 418.834 2209.84 418.834 Q2214.56 418.834 2217.5 422.584 Q2220.46 426.334 2220.46 432.445 Q2220.46 438.556 2217.5 442.306 Q2214.56 446.056 2209.84 446.056 Q2206.99 446.056 2204.93 444.945 Q2202.89 443.811 2201.55 441.496 M2216.04 432.445 Q2216.04 427.746 2214.1 425.084 Q2212.18 422.399 2208.8 422.399 Q2205.42 422.399 2203.47 425.084 Q2201.55 427.746 2201.55 432.445 Q2201.55 437.144 2203.47 439.829 Q2205.42 442.491 2208.8 442.491 Q2212.18 442.491 2214.1 439.829 Q2216.04 437.144 2216.04 432.445 Z" fill="#000000" fill-rule="evenodd" fill-opacity="1" /><path clip-path="url(#clip550)" d="M2242.55 423.44 Q2241.83 423.024 2240.97 422.838 Q2240.14 422.63 2239.12 422.63 Q2235.51 422.63 2233.56 424.991 Q2231.64 427.329 2231.64 431.727 L2231.64 445.385 L2227.36 445.385 L2227.36 419.459 L2231.64 419.459 L2231.64 423.487 Q2232.99 421.126 2235.14 419.991 Q2237.29 418.834 2240.37 418.834 Q2240.81 418.834 2241.34 418.903 Q2241.87 418.95 2242.52 419.065 L2242.55 423.44 Z" fill="#000000" fill-rule="evenodd" fill-opacity="1" /><path clip-path="url(#clip550)" d="M2256.02 422.445 Q2252.59 422.445 2250.6 425.13 Q2248.61 427.792 2248.61 432.445 Q2248.61 437.098 2250.58 439.783 Q2252.57 442.445 2256.02 442.445 Q2259.42 442.445 2261.41 439.76 Q2263.4 437.075 2263.4 432.445 Q2263.4 427.838 2261.41 425.153 Q2259.42 422.445 2256.02 422.445 M2256.02 418.834 Q2261.57 418.834 2264.74 422.445 Q2267.92 426.056 2267.92 432.445 Q2267.92 438.811 2264.74 442.445 Q2261.57 446.056 2256.02 446.056 Q2250.44 446.056 2247.27 442.445 Q2244.12 438.811 2244.12 432.445 Q2244.12 426.056 2247.27 422.445 Q2250.44 418.834 2256.02 418.834 Z" fill="#000000" fill-rule="evenodd" fill-opacity="1" /><path clip-path="url(#clip550)" d="M2295.07 419.459 L2285.69 432.075 L2295.55 445.385 L2290.53 445.385 L2282.98 435.2 L2275.44 445.385 L2270.42 445.385 L2280.48 431.82 L2271.27 419.459 L2276.3 419.459 L2283.17 428.695 L2290.05 419.459 L2295.07 419.459 Z" fill="#000000" fill-rule="evenodd" fill-opacity="1" /><path clip-path="url(#clip550)" d="M1802.88 784.436 Q1802.88 786.69 1801.45 788.084 Q1800.05 789.478 1798.29 789.478 Q1797.02 789.478 1796.08 788.699 Q1795.18 787.92 1795.18 786.567 Q1795.18 785.174 1796.24 783.698 Q1797.31 782.223 1799.73 782.018 Q1798.13 780.501 1795.59 780.501 Q1794.32 780.501 1793.25 781.321 Q1792.23 782.1 1791.65 783.37 Q1791.04 784.682 1789.64 792.101 Q1789.19 794.519 1788.78 796.856 Q1788.37 799.192 1787.88 801.652 L1794.85 801.652 Q1795.75 801.652 1796.12 801.693 Q1796.49 801.734 1796.78 801.938 Q1797.1 802.143 1797.1 802.594 Q1797.1 803.742 1796.57 804.029 Q1796.08 804.275 1794.6 804.275 L1787.39 804.275 L1782.35 830.877 Q1782.22 831.656 1781.69 834.115 Q1781.2 836.533 1780.01 840.509 Q1778.82 844.526 1777.63 846.904 Q1776.98 848.256 1776.12 849.527 Q1775.3 850.839 1774.11 852.15 Q1772.92 853.462 1771.36 854.241 Q1769.8 855.061 1768.17 855.061 Q1765.38 855.061 1763.21 853.503 Q1761.03 851.945 1761.03 849.281 Q1761.03 847.027 1762.43 845.633 Q1763.86 844.239 1765.62 844.239 Q1766.89 844.239 1767.8 845.018 Q1768.74 845.797 1768.74 847.15 Q1768.74 847.723 1768.53 848.379 Q1768.33 849.035 1767.88 849.773 Q1767.43 850.552 1766.44 851.085 Q1765.46 851.617 1764.11 851.699 Q1765.71 853.216 1768.17 853.216 Q1768.94 853.216 1769.64 852.888 Q1770.34 852.601 1770.91 851.863 Q1771.53 851.126 1771.98 850.388 Q1772.43 849.691 1772.88 848.338 Q1773.33 847.027 1773.62 846.043 Q1773.9 845.059 1774.27 843.297 Q1774.68 841.534 1774.89 840.468 Q1775.09 839.444 1775.46 837.435 L1781.73 804.275 L1776.2 804.275 Q1775.22 804.275 1774.81 804.234 Q1774.44 804.193 1774.15 803.988 Q1773.86 803.742 1773.86 803.25 Q1773.86 802.471 1774.19 802.143 Q1774.56 801.774 1774.97 801.734 Q1775.38 801.652 1776.36 801.652 L1782.18 801.652 Q1784.15 791.281 1784.93 788.494 Q1785.83 785.543 1787.23 783.493 Q1788.62 781.403 1790.18 780.419 Q1791.73 779.435 1793 779.066 Q1794.32 778.657 1795.59 778.657 Q1798.46 778.657 1800.67 780.214 Q1802.88 781.731 1802.88 784.436 Z" fill="#000000" fill-rule="evenodd" fill-opacity="1" /><path clip-path="url(#clip550)" d="M1814.18 816.859 Q1814.18 802.676 1819.47 791.24 Q1821.72 786.445 1824.88 782.428 Q1828.04 778.411 1830.13 776.648 Q1832.22 774.886 1832.79 774.886 Q1833.61 774.886 1833.65 775.705 Q1833.65 776.115 1832.55 777.14 Q1819.02 790.912 1819.06 816.859 Q1819.06 842.887 1832.22 856.126 Q1833.65 857.561 1833.65 858.012 Q1833.65 858.832 1832.79 858.832 Q1832.22 858.832 1830.21 857.151 Q1828.2 855.47 1825.09 851.617 Q1821.97 847.764 1819.72 843.051 Q1814.18 831.615 1814.18 816.859 Z" fill="#000000" fill-rule="evenodd" fill-opacity="1" /><path clip-path="url(#clip550)" d="M1881.84 806.283 Q1881.84 808.579 1880.41 809.89 Q1878.97 811.161 1877.33 811.161 Q1875.77 811.161 1874.95 810.259 Q1874.14 809.358 1874.14 808.21 Q1874.14 806.652 1875.28 805.3 Q1876.43 803.947 1878.15 803.66 Q1876.47 802.594 1873.97 802.594 Q1872.33 802.594 1870.9 803.455 Q1869.5 804.316 1868.64 805.423 Q1867.82 806.529 1867.09 808.128 Q1866.39 809.685 1866.1 810.628 Q1865.86 811.53 1865.65 812.514 L1862.78 823.991 Q1861.39 829.442 1861.39 831.369 Q1861.39 833.746 1862.54 835.345 Q1863.68 836.902 1865.98 836.902 Q1866.88 836.902 1867.9 836.656 Q1868.93 836.369 1870.24 835.632 Q1871.59 834.853 1872.78 833.705 Q1874.01 832.516 1875.2 830.508 Q1876.39 828.5 1877.17 825.917 Q1877.41 825.015 1878.23 825.015 Q1879.26 825.015 1879.26 825.835 Q1879.26 826.532 1878.69 828.008 Q1878.15 829.442 1876.96 831.328 Q1875.82 833.172 1874.3 834.853 Q1872.78 836.492 1870.53 837.64 Q1868.27 838.788 1865.81 838.788 Q1862.29 838.788 1859.95 836.902 Q1857.62 835.017 1856.76 832.393 Q1856.55 832.762 1856.26 833.254 Q1855.98 833.746 1855.12 834.853 Q1854.3 835.919 1853.35 836.738 Q1852.41 837.517 1850.94 838.132 Q1849.5 838.788 1847.94 838.788 Q1845.98 838.788 1844.21 838.214 Q1842.49 837.64 1841.26 836.328 Q1840.03 835.017 1840.03 833.213 Q1840.03 831.205 1841.38 829.811 Q1842.78 828.377 1844.66 828.377 Q1845.85 828.377 1846.8 829.073 Q1847.78 829.77 1847.78 831.287 Q1847.78 832.967 1846.63 834.238 Q1845.48 835.509 1843.84 835.837 Q1845.52 836.902 1848.03 836.902 Q1850.73 836.902 1852.86 834.525 Q1854.99 832.148 1856.02 828.172 Q1858.56 818.621 1859.54 814.358 Q1860.53 810.054 1860.53 808.21 Q1860.53 806.488 1860.08 805.3 Q1859.62 804.111 1858.85 803.578 Q1858.11 803.004 1857.41 802.799 Q1856.76 802.594 1856.02 802.594 Q1854.79 802.594 1853.39 803.086 Q1852.04 803.578 1850.4 804.726 Q1848.8 805.832 1847.29 808.128 Q1845.77 810.423 1844.75 813.579 Q1844.54 814.522 1843.64 814.522 Q1842.66 814.481 1842.66 813.661 Q1842.66 812.965 1843.19 811.53 Q1843.76 810.054 1844.91 808.21 Q1846.1 806.365 1847.62 804.726 Q1849.17 803.045 1851.43 801.897 Q1853.72 800.75 1856.18 800.75 Q1857.29 800.75 1858.35 800.996 Q1859.46 801.201 1860.77 801.815 Q1862.13 802.43 1863.31 803.783 Q1864.5 805.136 1865.24 807.103 Q1865.73 806.16 1866.39 805.259 Q1867.09 804.357 1868.15 803.25 Q1869.26 802.102 1870.77 801.447 Q1872.33 800.75 1874.05 800.75 Q1875.73 800.75 1877.37 801.201 Q1879.01 801.611 1880.41 802.963 Q1881.84 804.275 1881.84 806.283 Z" fill="#000000" fill-rule="evenodd" fill-opacity="1" /><path clip-path="url(#clip550)" d="M1889.92 858.012 Q1889.92 857.602 1890.99 856.577 Q1904.51 842.805 1904.51 816.859 Q1904.51 790.83 1891.52 777.673 Q1889.92 776.156 1889.92 775.705 Q1889.92 774.886 1890.74 774.886 Q1891.32 774.886 1893.32 776.566 Q1895.37 778.247 1898.45 782.1 Q1901.56 785.953 1903.86 790.666 Q1909.39 802.102 1909.39 816.859 Q1909.39 831.041 1904.1 842.477 Q1901.85 847.273 1898.69 851.29 Q1895.54 855.306 1893.45 857.069 Q1891.36 858.832 1890.74 858.832 Q1889.92 858.832 1889.92 858.012 Z" fill="#000000" fill-rule="evenodd" fill-opacity="1" /><path clip-path="url(#clip550)" d="M1945.45 825.097 Q1945.53 824.073 1947.13 824.073 L1998.57 824.073 Q2000.99 824.073 2001.03 825.015 Q2001.03 826.04 1998.73 825.999 L1947.7 825.999 Q1945.45 826.04 1945.45 825.097 M1945.45 808.702 Q1945.45 807.677 1947.21 807.718 L1998.49 807.718 Q2000.99 807.718 2001.03 808.702 Q2001.03 809.644 1998.9 809.644 L1947.13 809.644 Q1945.45 809.644 1945.45 808.702 Z" fill="#000000" fill-rule="evenodd" fill-opacity="1" /><path clip-path="url(#clip550)" d="M2065.34 828.131 Q2065.66 828.5 2065.66 828.868 Q2065.66 829.237 2064.84 830.303 Q2064.07 831.369 2062.39 832.803 Q2060.7 834.238 2058.53 835.591 Q2056.36 836.943 2053.16 837.845 Q2049.97 838.788 2046.6 838.788 Q2040.58 838.788 2036.97 834.484 Q2033.41 830.18 2033.41 823.581 Q2033.41 819.359 2034.8 815.629 Q2036.19 811.858 2038.45 809.194 Q2040.74 806.529 2043.61 804.603 Q2046.52 802.635 2049.56 801.693 Q2052.59 800.75 2055.42 800.75 Q2059.56 800.75 2061.98 802.84 Q2064.39 804.931 2064.39 807.882 Q2064.39 808.579 2064.19 809.439 Q2064.02 810.3 2063.45 811.653 Q2062.92 813.006 2061.52 814.358 Q2060.13 815.67 2058.08 816.531 Q2053.53 818.457 2045.25 818.457 L2040.78 818.457 Q2039.47 823.745 2039.47 827.188 Q2039.47 828.54 2039.72 829.934 Q2039.96 831.287 2040.62 833.008 Q2041.32 834.73 2042.87 835.837 Q2044.47 836.902 2046.77 836.902 Q2047.51 836.902 2048.28 836.861 Q2049.1 836.82 2051.15 836.369 Q2053.24 835.919 2055.09 835.14 Q2056.93 834.361 2059.27 832.68 Q2061.65 830.959 2063.53 828.622 Q2064.19 827.762 2064.64 827.762 Q2065.01 827.762 2065.34 828.131 M2061.61 807.882 Q2061.61 805.627 2059.93 804.111 Q2058.29 802.594 2055.42 802.594 Q2054.52 802.594 2053.41 802.799 Q2052.3 803.004 2050.46 803.865 Q2048.65 804.726 2047.06 806.16 Q2045.46 807.554 2043.86 810.3 Q2042.26 813.006 2041.32 816.613 L2044.76 816.613 Q2045.95 816.613 2046.81 816.613 Q2047.67 816.572 2049.56 816.408 Q2051.48 816.244 2052.88 815.957 Q2054.27 815.629 2056.03 814.973 Q2057.79 814.317 2058.9 813.456 Q2060.05 812.555 2060.83 811.12 Q2061.61 809.685 2061.61 807.882 Z" fill="#000000" fill-rule="evenodd" fill-opacity="1" /><path clip-path="url(#clip550)" d="M2103.57 786.075 Q2103.57 787.682 2102.57 788.6 Q2101.56 789.49 2100.41 789.49 Q2099.32 789.49 2098.75 788.859 Q2098.18 788.227 2098.18 787.424 Q2098.18 786.334 2098.98 785.387 Q2099.78 784.44 2100.99 784.239 Q2099.81 783.493 2098.06 783.493 Q2096.91 783.493 2095.91 784.096 Q2094.93 784.698 2094.33 785.473 Q2093.76 786.248 2093.24 787.367 Q2092.75 788.457 2092.55 789.117 Q2092.38 789.748 2092.24 790.437 L2090.23 798.471 Q2089.25 802.287 2089.25 803.635 Q2089.25 805.299 2090.06 806.418 Q2090.86 807.509 2092.47 807.509 Q2093.1 807.509 2093.81 807.337 Q2094.53 807.136 2095.45 806.619 Q2096.4 806.074 2097.23 805.271 Q2098.09 804.439 2098.92 803.033 Q2099.75 801.627 2100.3 799.819 Q2100.47 799.188 2101.04 799.188 Q2101.76 799.188 2101.76 799.762 Q2101.76 800.25 2101.36 801.282 Q2100.99 802.287 2100.16 803.607 Q2099.35 804.898 2098.29 806.074 Q2097.23 807.222 2095.65 808.025 Q2094.07 808.829 2092.35 808.829 Q2089.88 808.829 2088.25 807.509 Q2086.61 806.189 2086.01 804.353 Q2085.87 804.611 2085.67 804.955 Q2085.46 805.299 2084.86 806.074 Q2084.29 806.82 2083.63 807.394 Q2082.97 807.939 2081.94 808.37 Q2080.93 808.829 2079.84 808.829 Q2078.46 808.829 2077.23 808.427 Q2076.02 808.025 2075.16 807.107 Q2074.3 806.189 2074.3 804.926 Q2074.3 803.52 2075.25 802.545 Q2076.23 801.541 2077.55 801.541 Q2078.38 801.541 2079.04 802.028 Q2079.73 802.516 2079.73 803.578 Q2079.73 804.754 2078.92 805.644 Q2078.12 806.533 2076.97 806.763 Q2078.15 807.509 2079.9 807.509 Q2081.79 807.509 2083.28 805.845 Q2084.78 804.18 2085.49 801.397 Q2087.27 794.712 2087.96 791.728 Q2088.65 788.715 2088.65 787.424 Q2088.65 786.219 2088.33 785.387 Q2088.02 784.555 2087.47 784.182 Q2086.96 783.78 2086.47 783.637 Q2086.01 783.493 2085.49 783.493 Q2084.63 783.493 2083.66 783.837 Q2082.71 784.182 2081.56 784.985 Q2080.44 785.76 2079.38 787.367 Q2078.32 788.973 2077.6 791.183 Q2077.46 791.843 2076.83 791.843 Q2076.14 791.814 2076.14 791.24 Q2076.14 790.752 2076.51 789.748 Q2076.91 788.715 2077.72 787.424 Q2078.55 786.133 2079.61 784.985 Q2080.7 783.809 2082.28 783.005 Q2083.89 782.202 2085.61 782.202 Q2086.38 782.202 2087.13 782.374 Q2087.9 782.518 2088.82 782.948 Q2089.77 783.378 2090.6 784.325 Q2091.43 785.272 2091.95 786.649 Q2092.29 785.989 2092.75 785.358 Q2093.24 784.727 2093.99 783.952 Q2094.76 783.149 2095.82 782.69 Q2096.91 782.202 2098.12 782.202 Q2099.29 782.202 2100.44 782.518 Q2101.59 782.804 2102.57 783.751 Q2103.57 784.67 2103.57 786.075 Z" fill="#000000" fill-rule="evenodd" fill-opacity="1" /></svg>
